<svg width="246" height="218" viewBox="0 0 246 218" fill="none" xmlns="http://www.w3.org/2000/svg">
<g clip-path="url(#clip0_4724_1167)">
<path d="M28.1813 217.558C28.1813 217.558 -7.38698 191.496 2.85112 165.318C8.87279 149.927 35.0109 155.658 32.2651 130.044C28.661 96.4483 -0.0650345 73.8241 16.5103 45.1023C33.578 15.5304 76.1968 50.8041 117.85 19.5099C144.739 -0.688383 192.591 -11.9895 209.936 20.1256C226.505 50.8041 193.386 84.9346 217.428 107.852C241.477 130.777 269.016 165.361 208.225 206.117C147.434 246.88 98.7623 215.403 98.7623 215.403" fill="#31324E"/>
<path d="M46.8788 28.6982C48.5692 33.7049 69.4051 33.3686 80.1553 31.4966C90.9056 29.6246 91.9376 25.7919 85.1949 21.3182C78.4586 16.8382 43.6183 19.0401 46.8788 28.6982Z" fill="#31324E"/>
<path d="M103.671 22.7651C98.9292 19.4526 89.4578 28.7046 98.2771 28.6982C107.096 28.6919 106.938 25.0495 103.671 22.7651Z" fill="#31324E"/>
<path d="M23.6382 79.2331C17.3261 78.2241 23.2331 96.7915 32.2676 94.3992C41.3021 92.0069 28.9374 80.0834 23.6382 79.2331Z" fill="#373854"/>
<path d="M20.1058 68.7212C16.4907 70.0284 17.7252 77.9033 23.0751 76.2281C28.4249 74.5592 23.6639 67.433 20.1058 68.7212Z" fill="#373854"/>
<path d="M45.6403 171.188C47.3181 172.464 47.5587 174.577 47.5587 174.577C47.5587 174.577 45.6024 174.501 44.0386 172.908C43.5827 172.445 43.5384 171.721 43.9816 171.245C44.4248 170.769 45.1212 170.795 45.6403 171.188Z" fill="#7A81FD"/>
<path d="M41.5045 164.494C41.8844 163.967 42.5808 163.903 43.1443 164.227C44.2649 164.874 44.8917 165.902 45.2082 166.6C44.6764 165.02 44.1256 163.453 43.5305 161.898C43.3469 161.41 44.0876 161.092 44.2712 161.581C44.3852 161.873 44.4865 162.165 44.5941 162.45C44.5434 161.968 44.5751 161.359 44.841 160.756C45.0183 160.356 45.4235 160.115 45.835 160.255C46.2465 160.394 46.4555 160.832 46.3352 161.251C45.9996 162.425 45.1956 163.085 44.9043 163.294C45.4678 164.824 45.9933 166.366 46.4934 167.92C46.3795 167.178 46.3542 166.131 46.8227 165.096C47.0886 164.506 47.6837 164.157 48.2915 164.36C48.8993 164.563 49.2032 165.217 49.0259 165.833C48.4814 167.749 47.0886 168.739 46.8037 168.923C47.2279 170.274 47.633 171.639 48.0066 173.003C48.0572 173.193 48.1079 173.39 48.1585 173.581C48.0382 172.654 48.0446 171.404 48.5954 170.167C48.9309 169.424 49.6843 168.974 50.4631 169.227C51.2355 169.488 51.6217 170.313 51.4001 171.099C50.6783 173.631 48.7853 174.894 48.5447 175.046C48.817 176.112 49.0702 177.179 49.3108 178.251C49.3425 177.585 49.4817 176.861 49.8046 176.138C50.1402 175.395 50.8936 174.945 51.666 175.199C52.4384 175.459 52.8246 176.284 52.603 177.071C51.9572 179.33 50.3808 180.58 49.8806 180.929C50.1339 182.192 50.3744 183.454 50.5897 184.717C50.672 185.187 50.7416 185.663 50.8176 186.139C50.8366 185.567 50.9632 184.844 51.3874 184.178C51.6597 183.746 52.1662 183.537 52.622 183.765C53.0778 183.994 53.2424 184.539 53.0335 185.003C52.4131 186.399 51.2545 187.027 50.9696 187.167C51.1722 188.569 51.3558 189.978 51.514 191.386C51.571 191.907 50.7733 192.021 50.7163 191.507C50.5264 189.794 50.2921 188.08 50.0326 186.38C49.6274 186.469 48.4181 186.653 47.1329 186.012C46.677 185.783 46.4555 185.263 46.6644 184.793C46.8733 184.33 47.3988 184.165 47.88 184.324C48.9816 184.685 49.6653 185.536 49.9756 186.005C49.6464 183.892 49.2602 181.792 48.8106 179.698C48.798 179.647 48.7853 179.596 48.779 179.545C48.6207 179.539 46.772 179.4 45.2715 177.877C44.8157 177.413 44.7714 176.69 45.2145 176.214C45.6577 175.738 46.3605 175.763 46.8733 176.157C47.8483 176.899 48.3358 177.915 48.5764 178.644C47.7977 175.135 46.867 171.664 45.7717 168.244C45.6767 167.939 45.5691 167.641 45.4678 167.343C45.2399 167.355 43.4292 167.432 41.7831 166.137C41.2702 165.737 41.1373 165.02 41.5172 164.494H41.5045Z" fill="#7A81FD"/>
<path d="M56.9341 206.839C56.9341 206.839 49.2861 207.315 43.3728 198.323L46.5257 195.969L41.961 196.502L38.7321 192.161L43.3601 191.717L37.2949 190.226L42.727 187.738L35.7944 188.208C35.7944 188.208 32.1603 181.862 32.268 173.67C32.268 173.67 40.2136 173.594 48.7036 183.277L47.4057 187.434L49.7166 184.642C49.7166 184.642 55.4083 191.609 57.428 197.447L55.8705 200.563L57.8838 198.697C57.8838 198.697 59.131 203.222 56.9278 206.851L56.9341 206.839Z" fill="#7A81FD"/>
<path d="M52.3373 190.987C52.0017 193.043 51.8435 195.112 51.8498 197.174C51.0394 195.81 50.21 194.458 49.349 193.126C49.349 193.119 49.349 193.113 49.349 193.107C49.2667 192.453 49.2287 191.8 49.2414 191.14C49.2414 190.962 49.2477 190.905 49.2604 190.733C49.273 190.575 49.2857 190.41 49.2983 190.251C49.33 189.909 49.3806 189.572 49.4376 189.236C49.4883 188.963 49.292 188.677 49.0071 188.658C48.7222 188.639 48.45 188.823 48.393 189.115C48.26 189.87 48.1967 190.632 48.1841 191.387C45.9365 188.03 43.537 184.775 40.9792 181.653C40.7893 181.418 40.593 181.183 40.3968 180.955C40.3968 180.917 40.4094 180.885 40.4094 180.847C40.3524 180.422 40.3208 179.997 40.3144 179.571C40.3144 179.47 40.3144 179.362 40.3144 179.261C40.3144 179.178 40.3144 179.083 40.3144 178.994C40.3144 178.994 40.3144 178.988 40.3144 178.962C40.3144 178.937 40.3144 178.912 40.3144 178.886C40.3144 178.829 40.3208 178.772 40.3271 178.708C40.3334 178.601 40.3461 178.486 40.3588 178.379C40.3841 178.106 40.2258 177.82 39.9282 177.801C39.6623 177.782 39.3458 177.966 39.3141 178.258C39.2698 178.708 39.2445 179.159 39.2508 179.61C38.1049 178.264 36.9273 176.944 35.7244 175.65C35.2812 175.174 34.4138 175.815 34.857 176.297C37.2375 178.854 39.5104 181.513 41.6693 184.255C40.0739 183.766 38.4404 183.366 36.788 183.068C36.5094 183.017 36.2245 183.258 36.1739 183.525C36.1232 183.817 36.3258 184.052 36.6044 184.102C38.6114 184.47 40.574 184.978 42.4924 185.632C42.581 185.663 42.6633 185.663 42.7393 185.657C45.8732 189.756 48.7665 194.04 51.3813 198.494C52.7045 200.753 53.9517 203.05 55.1357 205.386C55.4269 205.969 56.4272 205.57 56.1297 204.979C55.0914 202.917 53.9961 200.893 52.8438 198.894C52.8881 198.811 52.9134 198.716 52.9134 198.608C52.8058 196.115 52.9578 193.608 53.3629 191.114C53.4706 190.448 52.4323 190.321 52.3183 190.994L52.3373 190.987Z" fill="#5F66EF"/>
<path d="M58.3018 215.132C58.3018 215.132 47.849 220.031 34.6296 210.709L37.7509 205.664L31.654 208.932L24.7404 204.636L30.9765 201.457L21.6571 202.726L27.8933 196.235L18.4409 200.727C18.4409 200.727 9.85583 193.849 5.5 182.319C5.5 182.319 16.5795 177.813 33.8066 186.678L34.2751 193.214L35.9718 188.023C35.9718 188.023 47.7794 194.623 53.8193 201.686L53.3635 206.914L55.1552 203.183C55.1552 203.183 59.3971 208.824 58.3081 215.126L58.3018 215.132Z" fill="#7A81FD"/>
<path d="M43.1319 195.48C43.7903 198.539 44.7147 201.528 45.8543 204.415C43.9676 202.955 42.0619 201.521 40.1246 200.131C40.1246 200.125 40.1246 200.112 40.1183 200.106C39.6434 199.243 39.2256 198.342 38.8837 197.409C38.7887 197.162 38.7634 197.073 38.6874 196.832C38.6114 196.603 38.5418 196.369 38.4785 196.134C38.3392 195.639 38.2189 195.137 38.1176 194.63C38.0353 194.224 37.6048 193.932 37.1933 194.059C36.7817 194.186 36.5032 194.604 36.5918 195.036C36.8197 196.165 37.1489 197.27 37.5541 198.336C32.5589 194.884 27.4116 191.654 22.1061 188.69C21.7073 188.468 21.3021 188.252 20.9032 188.03C20.8906 187.98 20.8842 187.929 20.8589 187.878C20.5487 187.32 20.2701 186.736 20.0232 186.146C19.9662 186 19.9092 185.854 19.8523 185.708C19.8079 185.594 19.7446 185.46 19.713 185.333C19.713 185.333 19.713 185.321 19.7003 185.289C19.6876 185.251 19.675 185.213 19.6623 185.175C19.637 185.092 19.6053 185.01 19.58 184.921C19.5294 184.762 19.485 184.604 19.4407 184.439C19.3331 184.039 18.9469 183.734 18.5164 183.868C18.1302 183.988 17.7946 184.42 17.9149 184.845C18.0985 185.498 18.3138 186.139 18.567 186.768C16.2182 185.524 13.8503 184.324 11.4508 183.176C10.5708 182.751 9.70342 184.134 10.5961 184.559C15.3381 186.825 19.9789 189.287 24.512 191.933C22.0048 192.136 19.504 192.479 17.0222 192.967C16.6044 193.05 16.3385 193.545 16.4208 193.944C16.5094 194.382 16.9273 194.598 17.3451 194.516C20.3524 193.919 23.385 193.545 26.424 193.399C26.5633 193.392 26.6836 193.354 26.7849 193.297C33.4326 197.301 39.8397 201.699 45.9556 206.496C49.0515 208.927 52.0651 211.452 55.0091 214.073C55.7435 214.726 56.9211 213.616 56.1804 212.956C53.5909 210.646 50.9382 208.413 48.2285 206.249C48.2474 206.109 48.2285 205.963 48.1651 205.811C46.6393 202.378 45.4681 198.786 44.6703 195.074C44.4551 194.078 42.9293 194.484 43.1445 195.48H43.1319Z" fill="#5F66EF"/>
<path d="M192.342 150.165C190.664 151.44 190.424 153.553 190.424 153.553C190.424 153.553 192.38 153.477 193.944 151.884C194.4 151.421 194.444 150.698 194.001 150.222C193.558 149.746 192.861 149.771 192.342 150.165Z" fill="#7A81FD"/>
<path d="M196.476 143.47C196.097 142.943 195.4 142.88 194.837 143.204C193.716 143.851 193.089 144.879 192.773 145.577C193.305 143.997 193.855 142.429 194.45 140.875C194.634 140.386 193.893 140.069 193.71 140.558C193.596 140.849 193.494 141.141 193.387 141.427C193.437 140.945 193.406 140.335 193.14 139.733C192.963 139.333 192.557 139.092 192.146 139.231C191.734 139.371 191.525 139.809 191.646 140.228C191.981 141.402 192.785 142.061 193.077 142.271C192.513 143.8 191.988 145.342 191.487 146.897C191.601 146.154 191.627 145.107 191.158 144.073C190.892 143.483 190.297 143.134 189.689 143.337C189.082 143.54 188.778 144.194 188.955 144.809C189.5 146.725 190.892 147.715 191.177 147.899C190.753 149.251 190.348 150.615 189.974 151.98C189.924 152.17 189.873 152.367 189.822 152.557C189.943 151.631 189.936 150.381 189.386 149.143C189.05 148.401 188.297 147.95 187.518 148.204C186.745 148.464 186.359 149.289 186.581 150.076C187.303 152.608 189.196 153.871 189.436 154.023C189.164 155.089 188.911 156.155 188.67 157.228C188.638 156.561 188.499 155.838 188.176 155.114C187.841 154.372 187.087 153.921 186.309 154.175C185.536 154.435 185.15 155.26 185.372 156.047C186.017 158.306 187.594 159.556 188.094 159.905C187.841 161.168 187.6 162.431 187.385 163.694C187.303 164.163 187.233 164.639 187.157 165.115C187.138 164.544 187.011 163.821 186.587 163.154C186.315 162.723 185.808 162.513 185.353 162.742C184.897 162.97 184.732 163.516 184.941 163.979C185.562 165.375 186.72 166.004 187.005 166.143C186.802 167.546 186.619 168.954 186.461 170.363C186.404 170.883 187.201 170.998 187.258 170.484C187.448 168.77 187.682 167.057 187.942 165.356C188.347 165.445 189.557 165.629 190.842 164.988C191.298 164.76 191.519 164.239 191.31 163.77C191.101 163.307 190.576 163.142 190.095 163.3C188.993 163.662 188.309 164.512 187.999 164.982C188.328 162.869 188.714 160.768 189.164 158.674C189.177 158.624 189.189 158.573 189.196 158.522C189.354 158.516 191.203 158.376 192.703 156.853C193.159 156.39 193.203 155.666 192.76 155.191C192.317 154.715 191.614 154.74 191.101 155.133C190.126 155.876 189.639 156.891 189.398 157.621C190.177 154.112 191.108 150.641 192.203 147.22C192.298 146.916 192.406 146.618 192.507 146.319C192.735 146.332 194.545 146.408 196.192 145.114C196.704 144.714 196.837 143.997 196.457 143.47H196.476Z" fill="#7A81FD"/>
<path d="M222.113 154.373C223.019 155.134 225.665 157.228 229.173 158.853C233.541 160.883 237.599 161.417 237.599 161.417C237.599 161.417 234.567 158.669 230.198 156.638C226.843 155.084 223.677 154.405 222.392 154.17C223.475 153.377 224.564 152.596 225.678 151.841C226.159 152.26 228.483 154.208 231.686 155.693C235.295 157.368 238.644 157.812 238.644 157.812C238.644 157.812 236.143 155.54 232.534 153.865C229.432 152.425 226.526 151.898 225.773 151.778C227.172 150.826 228.597 149.912 230.04 149.023C230.743 149.569 231.996 150.464 233.573 151.194C236.017 152.33 238.283 152.628 238.283 152.628C238.283 152.628 236.586 151.092 234.143 149.956C232.737 149.303 231.414 148.935 230.521 148.732C231.268 148.275 232.009 147.811 232.769 147.367C233.351 147.031 233.377 146.111 233.009 145.622C232.56 145.032 231.851 145.045 231.268 145.381C229.508 146.403 227.78 147.488 226.077 148.598C226.545 147.348 227.223 145.241 227.558 142.786C228.096 138.839 227.546 135.501 227.546 135.501C227.546 135.501 226.115 138.566 225.57 142.513C225.19 145.292 225.355 147.761 225.482 148.985C224.006 149.963 222.544 150.965 221.113 152.012C221.436 150.343 221.911 147.126 221.74 143.465C221.487 138.109 219.929 133.832 219.929 133.832C219.929 133.832 218.79 138.236 219.043 143.592C219.233 147.558 220.132 150.927 220.588 152.412C219.695 153.072 218.802 153.738 217.929 154.424C217.878 152.533 217.637 149.011 216.605 145.159C215.079 139.461 212.408 135.222 212.408 135.222C212.408 135.222 212.211 140.228 213.731 145.927C214.82 150.001 216.491 153.313 217.359 154.881C216.409 155.636 215.472 156.397 214.548 157.184C214.149 155.249 213.338 152.076 211.825 148.738C209.388 143.363 206.064 139.626 206.064 139.626C206.064 139.626 206.684 144.594 209.122 149.969C210.705 153.465 212.667 156.264 213.845 157.793C213.098 158.434 212.351 159.075 211.623 159.735C210.211 158.358 207.767 156.181 204.665 154.271C199.644 151.181 194.801 149.95 194.801 149.95C194.801 149.95 198.093 153.719 203.107 156.81C206.07 158.631 208.964 159.805 210.844 160.465C209.983 161.258 209.128 162.064 208.286 162.882C206.729 161.95 203.512 160.192 199.549 158.98C193.921 157.254 188.919 157.279 188.919 157.279C188.919 157.279 193.047 160.103 198.682 161.829C202.379 162.959 205.792 163.339 207.71 163.46C207.128 164.037 206.539 164.608 205.963 165.199C205.64 165.529 205.336 165.871 205.019 166.207C203.164 165.509 200.106 164.52 196.548 164.018C190.717 163.2 185.785 164.006 185.785 164.006C185.785 164.006 190.306 166.144 196.137 166.969C199.22 167.4 202.044 167.381 204.025 167.261C203.259 168.086 202.506 168.93 201.765 169.774C199.866 169.609 196.396 169.463 192.522 170.04C186.697 170.91 182.196 173.086 182.196 173.086C182.196 173.086 187.134 173.854 192.958 172.985C196.08 172.521 198.815 171.677 200.682 170.998C199.207 172.737 197.789 174.52 196.415 176.335C194.472 176.608 191.23 177.224 187.78 178.537C182.278 180.637 178.34 183.728 178.34 183.728C178.34 183.728 183.329 183.417 188.831 181.323C191.211 180.415 193.3 179.318 194.902 178.372C191.958 182.44 189.255 186.691 186.836 191.095C183.924 196.4 181.436 201.933 179.384 207.632C178.846 209.136 181.126 210.119 181.664 208.615C185.253 198.615 190.23 189.141 196.396 180.498C196.491 180.365 196.593 180.238 196.688 180.104C196.782 181.608 197.042 183.918 197.745 186.399C198.954 190.683 201.012 193.849 201.012 193.849C201.012 193.849 201.113 190.073 199.904 185.784C199.106 182.941 197.941 180.618 197.238 179.356C198.948 177.02 200.746 174.749 202.62 172.547C202.651 173.968 202.841 177.331 203.88 181.031C205.26 185.923 207.609 189.534 207.609 189.534C207.609 189.534 207.723 185.219 206.343 180.333C205.241 176.418 203.519 173.327 202.873 172.249C203.924 171.024 204.994 169.812 206.096 168.632C206.172 170.561 206.469 174.133 207.571 178.023C209.204 183.81 211.984 188.081 211.984 188.081C211.984 188.081 212.117 182.979 210.483 177.192C209.299 173.004 207.52 169.615 206.627 168.054C207.653 166.963 208.71 165.897 209.78 164.85C210.103 166.227 211.097 169.907 213.167 173.759C215.782 178.632 219.131 181.919 219.131 181.919C219.131 181.919 218.239 177.306 215.618 172.433C213.509 168.505 210.926 165.611 210.002 164.634C210.983 163.676 211.984 162.736 212.997 161.816C213.237 162.521 214.674 166.582 217.555 170.707C220.727 175.237 224.437 178.112 224.437 178.112C224.437 178.112 223.006 173.638 219.834 169.107C216.941 164.97 213.604 162.222 213.041 161.778C214.029 160.883 215.029 160.001 216.042 159.145C216.485 159.868 218.783 163.441 222.449 166.753C226.552 170.459 230.806 172.426 230.806 172.426C230.806 172.426 228.413 168.384 224.317 164.678C220.67 161.385 216.909 159.468 216.118 159.081C216.738 158.555 217.359 158.022 217.992 157.508C218.416 157.159 218.859 156.835 219.296 156.492C220.277 157.558 222.424 159.716 225.33 161.62C229.363 164.259 233.294 165.383 233.294 165.383C233.294 165.383 230.692 162.222 226.659 159.583C223.886 157.768 221.164 156.67 219.733 156.162C220.524 155.547 221.316 154.931 222.12 154.341L222.113 154.373Z" fill="#666EF8"/>
<path d="M205.931 195.004C203.525 194.224 201.277 195.436 201.277 195.436C201.277 195.436 202.696 197.314 205.342 197.771C206.108 197.904 206.855 197.447 207.02 196.686C207.184 195.924 206.678 195.245 205.937 195.004H205.931Z" fill="#7A81FD"/>
<path d="M215.358 194.484C215.618 193.748 215.2 193.012 214.497 192.682C213.092 192.015 211.648 192.11 210.743 192.275C212.661 191.717 214.586 191.184 216.523 190.702C217.131 190.549 216.935 189.598 216.327 189.75C215.966 189.839 215.605 189.94 215.25 190.029C215.757 189.744 216.339 189.299 216.745 188.614C217.011 188.163 216.973 187.599 216.555 187.288C216.137 186.977 215.561 187.072 215.231 187.478C214.307 188.614 214.212 189.864 214.206 190.302C212.313 190.803 210.432 191.336 208.565 191.914C209.375 191.514 210.42 190.816 211.123 189.648C211.521 188.982 211.458 188.151 210.838 187.688C210.217 187.224 209.369 187.37 208.881 187.973C207.375 189.826 207.356 191.888 207.368 192.294C205.747 192.808 204.127 193.342 202.525 193.913C202.303 193.995 202.075 194.078 201.854 194.16C202.854 193.64 204.076 192.777 204.912 191.381C205.412 190.537 205.336 189.483 204.551 188.893C203.766 188.309 202.689 188.493 202.069 189.255C200.075 191.711 200.138 194.452 200.151 194.795C198.916 195.258 197.694 195.74 196.472 196.235C197.105 195.747 197.72 195.112 198.207 194.3C198.707 193.456 198.631 192.402 197.846 191.812C197.061 191.228 195.985 191.412 195.364 192.174C193.585 194.363 193.44 196.775 193.44 197.517C192.028 198.132 190.616 198.767 189.223 199.427C188.704 199.674 188.185 199.922 187.672 200.176C188.216 199.763 188.843 199.141 189.21 198.266C189.445 197.701 189.305 197.054 188.767 196.762C188.229 196.47 187.583 196.679 187.267 197.206C186.323 198.78 186.494 200.353 186.558 200.734C185.038 201.496 183.525 202.283 182.037 203.101C181.486 203.399 181.923 204.275 182.474 203.97C184.291 202.981 186.134 202.035 187.989 201.121C188.178 201.578 188.837 202.904 190.337 203.736C190.876 204.034 191.54 203.888 191.857 203.361C192.173 202.835 191.971 202.206 191.483 201.838C190.369 200.994 189.065 200.906 188.387 200.925C190.692 199.801 193.028 198.735 195.39 197.739C195.447 197.714 195.504 197.695 195.567 197.669C195.687 197.822 197.086 199.554 199.619 199.985C200.385 200.119 201.132 199.662 201.297 198.9C201.461 198.139 200.955 197.46 200.214 197.219C198.815 196.768 197.479 196.984 196.593 197.25C200.581 195.607 204.633 194.141 208.755 192.872C209.116 192.758 209.483 192.663 209.85 192.548C209.989 192.783 211.167 194.617 213.566 195.353C214.313 195.582 215.105 195.226 215.364 194.49L215.358 194.484Z" fill="#7A81FD"/>
<path d="M118.176 127.476L118.98 121.365C119.41 118.103 117.334 115.457 114.345 115.457H65.6334L64.0506 127.476L63.0756 134.894L53.9271 204.315C52.9331 211.879 57.7384 218.009 64.6647 218.009H171.003C177.929 218.009 184.355 211.879 185.349 204.315L195.479 127.482H118.176V127.476Z" fill="#BBBBBB"/>
<path d="M156.746 142.647C134.276 129.347 111.807 116.04 89.3379 102.739C121.513 85.1746 105.147 38.8831 137.322 21.3184C159.791 34.6188 182.26 47.9256 204.729 61.2261C172.554 78.7908 188.921 125.082 156.746 142.647Z" fill="#14142D"/>
<path d="M141.944 88.2824C133.264 83.1424 124.584 78.0024 115.904 72.8688C120.26 56.9095 122.508 39.7001 135.246 28.7031C143.926 33.8431 152.606 38.9831 161.286 44.1167C148.548 55.1137 146.3 72.3231 141.944 88.2824Z" fill="#D9D9D9"/>
<path d="M190.832 65.9163C181.64 60.4718 172.447 55.0336 163.254 49.589C164.121 48.6689 165.046 47.7805 166.027 46.9238C175.22 52.3684 184.413 57.8066 193.605 63.2512C192.618 64.1015 191.693 64.9899 190.832 65.9163Z" fill="#7A81FD"/>
<path d="M174.916 62.6992C169.895 59.7231 164.868 56.7533 159.848 53.7772C160.303 53.13 160.785 52.4891 161.285 51.8672C166.305 54.8433 171.332 57.8131 176.353 60.7892C175.853 61.411 175.378 62.0519 174.916 62.6992Z" fill="#868686"/>
<path d="M129.838 85.7196C124.817 82.7435 119.79 79.7737 114.77 76.7976C115.01 76.0171 115.238 75.2302 115.46 74.4434C120.48 77.4195 125.507 80.3892 130.528 83.3653C130.306 84.1522 130.072 84.939 129.838 85.7196Z" fill="#868686"/>
<path d="M140.114 94.401C131.434 89.261 122.754 84.121 114.074 78.9874C114.201 78.6003 114.327 78.2133 114.448 77.8262C123.128 82.9661 131.808 88.1061 140.488 93.2397C140.367 93.6268 140.241 94.0139 140.114 94.401Z" fill="#D9D9D9"/>
<path d="M139.374 96.5597C130.694 91.4197 122.014 86.2797 113.334 81.1461C113.473 80.7654 113.606 80.3846 113.733 80.0039C122.413 85.1439 131.093 90.2838 139.773 95.4175C139.64 95.7982 139.507 96.1789 139.374 96.5597Z" fill="#D9D9D9"/>
<path d="M184.957 74.0371C175.765 68.5925 166.572 63.1543 157.379 57.7097C157.512 57.4686 157.651 57.2275 157.79 56.9863C166.983 62.4309 176.176 67.8691 185.369 73.3137C185.23 73.5548 185.09 73.7959 184.957 74.0371Z" fill="#D9D9D9"/>
<path d="M182.977 77.9853C173.784 72.5407 164.591 67.1025 155.398 61.658C155.512 61.4041 155.633 61.1503 155.747 60.8965C164.939 66.341 174.132 71.7793 183.325 77.2238C183.205 77.4776 183.091 77.7315 182.977 77.9853Z" fill="#D9D9D9"/>
<path d="M181.286 82.103C172.093 76.6584 162.9 71.2202 153.707 65.7756C153.808 65.5091 153.903 65.2489 154.005 64.9824C163.197 70.427 172.39 75.8652 181.583 81.3098C181.482 81.5699 181.38 81.8365 181.286 82.103Z" fill="#D9D9D9"/>
<path d="M179.828 86.3622C170.636 80.9177 161.443 75.4795 152.25 70.0349C152.339 69.762 152.421 69.4892 152.51 69.2227C161.702 74.6672 170.895 80.1054 180.088 85.55C179.999 85.8229 179.911 86.0894 179.828 86.3622Z" fill="#D9D9D9"/>
<path d="M178.551 90.7153C169.358 85.2707 160.165 79.8325 150.973 74.3879C151.049 74.1087 151.125 73.8358 151.207 73.5566C160.4 79.0012 169.593 84.4394 178.785 89.884C178.709 90.1632 178.627 90.4361 178.551 90.7153Z" fill="#D9D9D9"/>
<path d="M177.377 95.144C168.184 89.6994 158.992 84.2612 149.799 78.8166C149.868 78.5374 149.944 78.2582 150.014 77.9727C159.207 83.4172 168.4 88.8554 177.593 94.3C177.523 94.5792 177.447 94.8584 177.377 95.144Z" fill="#D9D9D9"/>
<path d="M176.264 99.599C167.071 94.1545 157.878 88.7163 148.686 83.2717C148.755 82.9925 148.825 82.7069 148.894 82.4277C158.087 87.8723 167.28 93.3105 176.473 98.7551C176.403 99.0343 176.334 99.3198 176.264 99.599Z" fill="#D9D9D9"/>
<path d="M175.151 104.06C165.958 98.6154 156.765 93.1772 147.572 87.7326C147.642 87.4534 147.718 87.1742 147.788 86.8887C156.98 92.3332 166.173 97.7714 175.366 103.216C175.296 103.495 175.227 103.774 175.151 104.06Z" fill="#D9D9D9"/>
<path d="M173.973 108.475C164.78 103.03 155.587 97.5922 146.395 92.1477C146.471 91.8685 146.546 91.5956 146.622 91.3164C155.815 96.761 165.008 102.199 174.201 107.644C174.125 107.923 174.049 108.196 173.973 108.475Z" fill="#D9D9D9"/>
<path d="M172.668 112.823C163.476 107.379 154.283 101.94 145.09 96.4958C145.178 96.223 145.261 95.9501 145.349 95.6836C154.542 101.128 163.735 106.566 172.928 112.011C172.846 112.284 172.757 112.557 172.668 112.823Z" fill="#D9D9D9"/>
<path d="M171.188 117.062C161.995 111.617 152.802 106.179 143.609 100.735C143.711 100.468 143.806 100.208 143.907 99.9414C153.1 105.386 162.293 110.824 171.485 116.269C171.39 116.535 171.289 116.795 171.188 117.062Z" fill="#D9D9D9"/>
<path d="M169.465 121.161C160.272 115.717 151.08 110.278 141.887 104.834C142.007 104.58 142.121 104.326 142.235 104.072C151.428 109.517 160.621 114.955 169.813 120.4C169.699 120.653 169.585 120.907 169.465 121.161Z" fill="#D9D9D9"/>
<path d="M61.7012 158.612H156.497L166.507 52.9883H71.7107L61.7012 158.612Z" fill="#D9D9D9"/>
<path d="M59.9922 158.271H154.782L163.253 49.8809H68.4569L59.9922 158.271Z" fill="#FE811A"/>
<path d="M58.207 154.773H154.415L161.468 46.3828H77.5993L58.207 154.773Z" fill="#7A81FD"/>
<path d="M155.27 158.511H60.4805V55.451L71.8955 44.0098H155.27V158.511Z" fill="#14142D"/>
<path d="M103.627 52.9883H67.0078V110.975H103.627V52.9883Z" fill="#D9D9D9"/>
<path d="M101.051 55.2344L69.3379 108.379" stroke="white" stroke-linecap="round" stroke-linejoin="round"/>
<path d="M69.3379 55.2344L101.051 108.379" stroke="white" stroke-linecap="round" stroke-linejoin="round"/>
<path d="M149.071 52.9883H110.293V57.4746H149.071V52.9883Z" fill="#7A81FD"/>
<path d="M131.483 61.0684H110.293V63.9493H131.483V61.0684Z" fill="#868686"/>
<path d="M88.1982 112.893H67.0078V115.773H88.1982V112.893Z" fill="#868686"/>
<path d="M103.627 117.041H67.0078V118.481H103.627V117.041Z" fill="#D9D9D9"/>
<path d="M103.627 119.746H67.0078V121.187H103.627V119.746Z" fill="#D9D9D9"/>
<path d="M149.071 68.5664H110.293V69.5754H149.071V68.5664Z" fill="#D9D9D9"/>
<path d="M149.071 73.8984H110.293V74.9074H149.071V73.8984Z" fill="#D9D9D9"/>
<path d="M149.071 79.2344H110.293V80.2433H149.071V79.2344Z" fill="#D9D9D9"/>
<path d="M149.071 84.5703H110.293V85.5793H149.071V84.5703Z" fill="#D9D9D9"/>
<path d="M149.071 89.9062H110.293V90.9152H149.071V89.9062Z" fill="#D9D9D9"/>
<path d="M149.071 95.2383H110.293V96.2472H149.071V95.2383Z" fill="#D9D9D9"/>
<path d="M149.071 100.574H110.293V101.583H149.071V100.574Z" fill="#D9D9D9"/>
<path d="M149.071 105.912H110.293V106.921H149.071V105.912Z" fill="#D9D9D9"/>
<path d="M149.071 111.248H110.293V112.257H149.071V111.248Z" fill="#D9D9D9"/>
<path d="M149.071 116.584H110.293V117.593H149.071V116.584Z" fill="#D9D9D9"/>
<path d="M149.071 121.916H110.293V122.925H149.071V121.916Z" fill="#D9D9D9"/>
<path d="M149.071 127.252H110.293V128.261H149.071V127.252Z" fill="#D9D9D9"/>
<g style="mix-blend-mode:multiply">
<path d="M155.251 134.766L108.122 132.463V128.326C108.122 124.81 105.28 121.955 101.772 121.948L60.4805 121.885V129.157L113.339 153.492" fill="#D9D9D9"/>
</g>
<path d="M106.242 134.886V129.277C106.242 126.281 103.817 123.857 100.835 123.857H52.123V205.437C52.123 212.379 57.7388 218.008 64.665 218.008H171.003C177.929 218.008 183.545 212.379 183.545 205.437V134.892H106.242V134.886Z" fill="#F5F5F5"/>
<path d="M110.299 178.164H60.7637V205.52H110.299V178.164Z" fill="#EDEDED"/>
<path d="M85.5319 181.963H65.3672V202.174H85.5319V181.963Z" fill="#7A81FD"/>
<path d="M107.109 181.963H89.4512V186.259H107.109V181.963Z" fill="#7A81FD"/>
<path d="M107.109 187.67H89.4512V188.838H107.109V187.67Z" fill="#7A81FD"/>
<path d="M107.109 190.252H89.4512V191.42H107.109V190.252Z" fill="#7A81FD"/>
<path d="M91.8127 194.389H89.4512V196.756H91.8127V194.389Z" fill="#7A81FD"/>
<path d="M96.4357 194.389H94.0742V196.756H96.4357V194.389Z" fill="#7A81FD"/>
<path d="M101.051 194.389H98.6895V196.756H101.051V194.389Z" fill="#7A81FD"/>
<path d="M107.11 199.809H104.748V202.176H107.11V199.809Z" fill="#7A81FD"/>
<g style="mix-blend-mode:multiply">
<path d="M60.4785 55.451L71.8936 44.0098L70.1145 56.9231L60.4785 55.451Z" fill="#D9D9D9"/>
</g>
<path d="M60.4785 55.451L71.8936 44.0098V55.451H60.4785Z" fill="#EBE6FC"/>
<path d="M46.8926 115.005H40.7387V108.837C40.7387 108.59 40.5361 108.387 40.2892 108.387C40.0423 108.387 39.8397 108.59 39.8397 108.837V115.005H33.6858C33.4389 115.005 33.2363 115.208 33.2363 115.456C33.2363 115.703 33.4389 115.906 33.6858 115.906H39.8397V122.074C39.8397 122.322 40.0423 122.525 40.2892 122.525C40.5361 122.525 40.7387 122.322 40.7387 122.074V115.906H46.8926C47.1395 115.906 47.3421 115.703 47.3421 115.456C47.3421 115.208 47.1395 115.005 46.8926 115.005Z" fill="#14142D"/>
<path d="M198.922 97.3392H192.768V91.1712C192.768 90.9238 192.565 90.7207 192.319 90.7207C192.072 90.7207 191.869 90.9238 191.869 91.1712V97.3392H185.715C185.468 97.3392 185.266 97.5423 185.266 97.7897C185.266 98.0372 185.468 98.2403 185.715 98.2403H191.869V104.408C191.869 104.656 192.072 104.859 192.319 104.859C192.565 104.859 192.768 104.656 192.768 104.408V98.2403H198.922C199.169 98.2403 199.371 98.0372 199.371 97.7897C199.371 97.5423 199.169 97.3392 198.922 97.3392Z" fill="#14142D"/>
<path d="M71.1856 150.939H65.0317V144.771C65.0317 144.523 64.8291 144.32 64.5822 144.32C64.3353 144.32 64.1327 144.523 64.1327 144.771V150.939H57.9788C57.7319 150.939 57.5293 151.142 57.5293 151.389C57.5293 151.637 57.7319 151.84 57.9788 151.84H64.1327V158.008C64.1327 158.255 64.3353 158.458 64.5822 158.458C64.8291 158.458 65.0317 158.255 65.0317 158.008V151.84H71.1856C71.4325 151.84 71.6351 151.637 71.6351 151.389C71.6351 151.142 71.4325 150.939 71.1856 150.939Z" fill="#7A81FD"/>
<path d="M78.5424 142.817H75.6618V139.93C75.6618 139.816 75.5668 139.721 75.4528 139.721C75.3389 139.721 75.2439 139.816 75.2439 139.93V142.817H72.3632C72.2493 142.817 72.1543 142.913 72.1543 143.027C72.1543 143.141 72.2493 143.236 72.3632 143.236H75.2439V146.123C75.2439 146.238 75.3389 146.333 75.4528 146.333C75.5668 146.333 75.6618 146.238 75.6618 146.123V143.236H78.5424C78.6564 143.236 78.7514 143.141 78.7514 143.027C78.7514 142.913 78.6564 142.817 78.5424 142.817Z" fill="#7A81FD"/>
<path d="M211.997 135.266H208.723V131.985C208.723 131.852 208.616 131.744 208.483 131.744C208.35 131.744 208.242 131.852 208.242 131.985V135.266H204.969C204.836 135.266 204.729 135.374 204.729 135.507C204.729 135.64 204.836 135.748 204.969 135.748H208.242V139.029C208.242 139.162 208.35 139.27 208.483 139.27C208.616 139.27 208.723 139.162 208.723 139.029V135.748H211.997C212.13 135.748 212.237 135.64 212.237 135.507C212.237 135.374 212.13 135.266 211.997 135.266Z" fill="#1D262D"/>
<path d="M219.575 126.815H217.834V125.07C217.834 125 217.777 124.943 217.707 124.943C217.638 124.943 217.581 125 217.581 125.07V126.815H215.84C215.77 126.815 215.713 126.872 215.713 126.942C215.713 127.012 215.77 127.069 215.84 127.069H217.581V128.814C217.581 128.884 217.638 128.941 217.707 128.941C217.777 128.941 217.834 128.884 217.834 128.814V127.069H219.575C219.645 127.069 219.702 127.012 219.702 126.942C219.702 126.872 219.645 126.815 219.575 126.815Z" fill="#1D262D"/>
<path d="M52.9133 95.4537H48.8994V91.4306C48.8994 91.2656 48.7664 91.1387 48.6081 91.1387C48.4499 91.1387 48.3169 91.2719 48.3169 91.4306V95.4537H44.303C44.1383 95.4537 44.0117 95.587 44.0117 95.7456C44.0117 95.9042 44.1447 96.0375 44.303 96.0375H48.3169V100.061C48.3169 100.226 48.4499 100.353 48.6081 100.353C48.7664 100.353 48.8994 100.219 48.8994 100.061V96.0375H52.9133C53.0779 96.0375 53.2045 95.9042 53.2045 95.7456C53.2045 95.587 53.0716 95.4537 52.9133 95.4537Z" fill="#14142D"/>
<path d="M48.0073 130.673H44.5378V127.195C44.5378 127.056 44.4238 126.941 44.2846 126.941C44.1453 126.941 44.0313 127.056 44.0313 127.195V130.673H40.5618C40.4226 130.673 40.3086 130.787 40.3086 130.926C40.3086 131.066 40.4226 131.18 40.5618 131.18H44.0313V134.658C44.0313 134.797 44.1453 134.912 44.2846 134.912C44.4238 134.912 44.5378 134.797 44.5378 134.658V131.18H48.0073C48.1466 131.18 48.2605 131.066 48.2605 130.926C48.2605 130.787 48.1466 130.673 48.0073 130.673Z" fill="#14142D"/>
<path d="M31.4439 140.64H29.5952V138.788C29.5952 138.711 29.5319 138.654 29.4623 138.654C29.3926 138.654 29.3293 138.718 29.3293 138.788V140.64H27.4806C27.4046 140.64 27.3477 140.704 27.3477 140.774C27.3477 140.844 27.411 140.907 27.4806 140.907H29.3293V142.76C29.3293 142.836 29.3926 142.893 29.4623 142.893C29.5319 142.893 29.5952 142.83 29.5952 142.76V140.907H31.4439C31.5199 140.907 31.5769 140.844 31.5769 140.774C31.5769 140.704 31.5136 140.64 31.4439 140.64Z" fill="#14142D"/>
<path d="M198.784 46.7889H196.935V44.936C196.935 44.8598 196.872 44.8027 196.802 44.8027C196.732 44.8027 196.669 44.8662 196.669 44.936V46.7889H194.82C194.744 46.7889 194.688 46.8524 194.688 46.9222C194.688 46.992 194.751 47.0554 194.82 47.0554H196.669V48.9084C196.669 48.9845 196.732 49.0416 196.802 49.0416C196.872 49.0416 196.935 48.9782 196.935 48.9084V47.0554H198.784C198.86 47.0554 198.917 46.992 198.917 46.9222C198.917 46.8524 198.853 46.7889 198.784 46.7889Z" fill="#14142D"/>
<path d="M189.501 36.8705H184.981V32.3397C184.981 32.1557 184.835 32.0098 184.652 32.0098C184.468 32.0098 184.322 32.1621 184.322 32.3397V36.8705H179.802C179.618 36.8705 179.473 37.0165 179.473 37.2005C179.473 37.3845 179.625 37.5305 179.802 37.5305H184.322V42.0613C184.322 42.2453 184.468 42.3912 184.652 42.3912C184.835 42.3912 184.981 42.2453 184.981 42.0613V37.5305H189.501C189.685 37.5305 189.83 37.3782 189.83 37.2005C189.83 37.0228 189.685 36.8705 189.501 36.8705Z" fill="#14142D"/>
<path d="M118.952 37.6264H114.432V33.0956C114.432 32.9116 114.28 32.7656 114.103 32.7656C113.925 32.7656 113.773 32.9179 113.773 33.0956V37.6264H109.253C109.069 37.6264 108.924 37.7723 108.924 37.9564C108.924 38.1404 109.069 38.2863 109.253 38.2863H113.773V42.8171C113.773 43.0011 113.919 43.1471 114.103 43.1471C114.286 43.1471 114.432 43.0011 114.432 42.8171V38.2863H118.952C119.136 38.2863 119.282 38.134 119.282 37.9564C119.282 37.7787 119.136 37.6264 118.952 37.6264Z" fill="#14142D"/>
<path d="M106.316 39.8605H103.91V37.4492C103.91 37.354 103.834 37.2715 103.733 37.2715C103.632 37.2715 103.556 37.3476 103.556 37.4492V39.8605H101.15C101.055 39.8605 100.973 39.9367 100.973 40.0382C100.973 40.1397 101.049 40.2159 101.15 40.2159H103.556V42.6272C103.556 42.7224 103.632 42.8049 103.733 42.8049C103.834 42.8049 103.91 42.7287 103.91 42.6272V40.2159H106.316C106.411 40.2159 106.493 40.1334 106.493 40.0382C106.493 39.943 106.417 39.8605 106.316 39.8605Z" fill="#14142D"/>
</g>
<defs>
<clipPath id="clip0_4724_1167">
<rect width="246" height="218" fill="white"/>
</clipPath>
</defs>
</svg>
