<svg width="282" height="206" viewBox="0 0 282 206" fill="none" xmlns="http://www.w3.org/2000/svg">
<path d="M152.158 15.6991C127.287 41.4301 114.278 43.2894 82.7668 57.5237C57.0044 69.161 31.4945 91.7809 22.7923 119.966C-0.132339 194.214 101.763 203.499 149.875 191.378C183.749 182.844 197.3 163.189 205.878 130.584C209.214 117.903 210.187 104.187 215.682 92.119C221.585 79.1534 233.675 72.841 239.693 61.4575C268.864 6.28017 185.311 -18.5993 152.158 15.6991Z" fill="#7A81FD"/>
<path opacity="0.9" d="M152.158 15.6991C127.287 41.4301 114.278 43.2894 82.7668 57.5237C57.0044 69.161 31.4945 91.7809 22.7923 119.966C-0.132339 194.214 101.763 203.499 149.875 191.378C183.749 182.844 197.3 163.189 205.878 130.584C209.214 117.903 210.187 104.187 215.682 92.119C221.585 79.1534 233.675 72.841 239.693 61.4575C268.864 6.28017 185.311 -18.5993 152.158 15.6991Z" fill="#31324E"/>
<path d="M0 25.8076C0 23.5494 1.84755 21.7012 4.10647 21.7012H187.37C189.629 21.7012 191.477 23.5487 191.477 25.8076V39.0256H0V25.8076Z" fill="#263238"/>
<path d="M33.2012 33.8323C31.2889 33.8323 29.7324 32.2764 29.7324 30.3642C29.7324 28.4519 31.2883 26.896 33.2012 26.896C35.1135 26.896 36.6694 28.4519 36.6694 30.3642C36.6694 32.2764 35.1135 33.8323 33.2012 33.8323ZM33.2012 27.6226C31.6898 27.6226 30.4597 28.8528 30.4597 30.3642C30.4597 31.8755 31.6892 33.1057 33.2012 33.1057C34.7126 33.1057 35.9428 31.8755 35.9428 30.3642C35.9422 28.8521 34.7126 27.6226 33.2012 27.6226Z" fill="#F0F0F0"/>
<path d="M22.2006 33.8323C20.2883 33.8323 18.7324 32.2764 18.7324 30.3642C18.7324 28.4519 20.2883 26.896 22.2006 26.896C24.1129 26.896 25.6694 28.4519 25.6694 30.3642C25.6687 32.2764 24.1129 33.8323 22.2006 33.8323ZM22.2006 27.6226C20.6892 27.6226 19.459 28.8528 19.459 30.3642C19.459 31.8755 20.6885 33.1057 22.2006 33.1057C23.7126 33.1057 24.9421 31.8755 24.9421 30.3642C24.9415 28.8521 23.712 27.6226 22.2006 27.6226Z" fill="#F0F0F0"/>
<path d="M11.1973 33.8323C9.28504 33.8323 7.72852 32.2764 7.72852 30.3642C7.72852 28.4519 9.28438 26.896 11.1973 26.896C13.1096 26.896 14.6655 28.4519 14.6655 30.3642C14.6661 32.2764 13.1103 33.8323 11.1973 33.8323ZM11.1973 27.6226C9.68594 27.6226 8.45577 28.8528 8.45577 30.3642C8.45577 31.8755 9.68528 33.1057 11.1973 33.1057C12.7087 33.1057 13.9389 31.8755 13.9389 30.3642C13.9389 28.8521 12.7094 27.6226 11.1973 27.6226Z" fill="#F0F0F0"/>
<path d="M187.371 165.141H4.10647C1.8482 165.141 0 163.293 0 161.034V39.0254H191.477V161.034C191.477 163.293 189.629 165.141 187.371 165.141Z" fill="#7A81FD"/>
<path d="M190.315 42.5376H1.16406V150.665H190.315V42.5376Z" fill="white"/>
<path d="M84.9739 66.4127H12.9253C11.5493 66.4127 10.4336 65.297 10.4336 63.921V54.2994C10.4336 52.9233 11.5493 51.8076 12.9253 51.8076H84.9745C86.3506 51.8076 87.4663 52.9233 87.4663 54.2994V63.921C87.4656 65.297 86.3499 66.4127 84.9739 66.4127Z" fill="#7A81FD"/>
<path d="M178.553 52.4606C179.566 52.4606 180.39 53.2853 180.39 54.299V63.9207C180.39 64.9337 179.566 65.7584 178.553 65.7584H106.504C105.49 65.7584 104.666 64.9337 104.666 63.9207V54.299C104.666 53.2853 105.49 52.4606 106.504 52.4606H178.553ZM178.553 51.8066H106.504C105.128 51.8066 104.012 52.9224 104.012 54.299V63.9207C104.012 65.2967 105.127 66.4124 106.504 66.4124H178.553C179.929 66.4124 181.044 65.2967 181.044 63.9207V54.299C181.045 52.9224 179.929 51.8066 178.553 51.8066Z" fill="#7A81FD"/>
<path d="M23.237 72.9533C29.9372 72.9533 35.3883 78.4044 35.3883 85.1046C35.3883 91.8049 29.9372 97.2559 23.237 97.2559C16.5367 97.2559 11.0856 91.8049 11.0856 85.1046C11.0856 78.4044 16.5367 72.9533 23.237 72.9533ZM23.237 72.2993C16.1646 72.2993 10.4316 78.0329 10.4316 85.1046C10.4316 92.1763 16.1646 97.9099 23.237 97.9099C30.3087 97.9099 36.0423 92.177 36.0423 85.1046C36.0423 78.0329 30.3093 72.2993 23.237 72.2993Z" fill="#7A81FD"/>
<path opacity="0.4" d="M32.5281 90.1381C30.7453 93.4323 27.2549 95.6722 23.2367 95.6722C19.2192 95.6722 15.7281 93.4316 13.9453 90.1381C16.6058 88.3605 19.7986 87.3232 23.2367 87.3232C26.6748 87.3226 29.8676 88.3605 32.5281 90.1381Z" fill="#7A81FD"/>
<path opacity="0.4" d="M23.2368 86.1953C25.8367 86.1953 27.9443 84.0876 27.9443 81.4878C27.9443 78.8879 25.8367 76.7803 23.2368 76.7803C20.6369 76.7803 18.5293 78.8879 18.5293 81.4878C18.5293 84.0876 20.6369 86.1953 23.2368 86.1953Z" fill="#7A81FD"/>
<path opacity="0.4" d="M174.462 91.687H49.8188C46.1833 91.687 43.2363 88.7401 43.2363 85.1045C43.2363 81.4689 46.1833 78.522 49.8188 78.522H174.462C178.098 78.522 181.045 81.4689 181.045 85.1045C181.045 88.7401 178.097 91.687 174.462 91.687Z" fill="#7A81FD"/>
<path d="M23.237 107.833C29.9372 107.833 35.3883 113.284 35.3883 119.985C35.3883 126.685 29.9372 132.136 23.237 132.136C16.5367 132.136 11.0856 126.685 11.0856 119.985C11.0856 113.284 16.5367 107.833 23.237 107.833ZM23.237 107.179C16.1646 107.179 10.4316 112.912 10.4316 119.985C10.4316 127.056 16.1646 132.79 23.237 132.79C30.3087 132.79 36.0423 127.057 36.0423 119.985C36.0423 112.912 30.3093 107.179 23.237 107.179Z" fill="#7A81FD"/>
<path opacity="0.4" d="M32.5281 125.017C30.7453 128.311 27.2549 130.551 23.2367 130.551C19.2192 130.551 15.7281 128.311 13.9453 125.017C16.6058 123.239 19.7986 122.202 23.2367 122.202C26.6748 122.202 29.8676 123.24 32.5281 125.017Z" fill="#7A81FD"/>
<path opacity="0.4" d="M23.2368 121.075C25.8367 121.075 27.9443 118.967 27.9443 116.367C27.9443 113.767 25.8367 111.66 23.2368 111.66C20.6369 111.66 18.5293 113.767 18.5293 116.367C18.5293 118.967 20.6369 121.075 23.2368 121.075Z" fill="#7A81FD"/>
<path opacity="0.4" d="M174.462 126.567H49.8188C46.1833 126.567 43.2363 123.62 43.2363 119.984C43.2363 116.349 46.1833 113.402 49.8188 113.402H174.462C178.098 113.402 181.045 116.349 181.045 119.984C181.045 123.62 178.097 126.567 174.462 126.567Z" fill="#7A81FD"/>
<path opacity="0.1" d="M143.763 126.377C143.763 130.386 144.155 134.375 144.933 138.293C137.635 142.622 132.906 150.594 132.906 159.371C132.906 161.359 133.142 163.288 133.593 165.139H187.371C189.628 165.139 191.478 163.295 191.478 161.032V66.8823C164.207 72.9384 143.763 97.3129 143.763 126.377Z" fill="black"/>
<path d="M243.172 167.424C264.419 146.177 264.419 111.73 243.172 90.4834C221.926 69.2369 187.478 69.2369 166.232 90.4834C144.985 111.73 144.985 146.177 166.232 167.424C187.478 188.67 221.926 188.67 243.172 167.424Z" fill="#7A81FD"/>
<path d="M240.028 163.952C259.396 144.584 259.396 113.181 240.028 93.8125C220.659 74.4439 189.257 74.4439 169.888 93.8125C150.52 113.181 150.52 144.584 169.888 163.952C189.257 183.321 220.659 183.321 240.028 163.952Z" fill="white"/>
<path d="M188.229 95.6055L185.063 99.659C185.063 99.659 182.283 101.769 181.231 103.572C180 104.791 178.872 106.037 177.761 107.349C176.51 108.839 175.321 110.395 174.206 112.065C173.114 113.757 172.048 115.503 171.248 117.683C170.862 118.787 170.491 119.983 170.457 121.601C170.45 122.409 170.552 123.358 170.952 124.38C171.344 125.402 172.121 126.44 173.026 127.126L173.722 127.653L174.761 127.85C176.856 128.246 178.939 128.441 180.989 128.46C181.033 128.461 181.77 128.392 181.813 128.392L180.982 120.117C180.279 120.144 178.778 120.255 178.088 120.24C178.113 120.112 178.139 119.982 178.171 119.85C178.504 118.459 179.138 116.844 179.876 115.278C180.608 113.693 181.451 112.103 182.329 110.515C183.099 109.119 183.926 107.712 184.734 106.339L188.648 103.869L190.949 99.7924L188.229 95.6055ZM178.018 121.44C178.005 121.391 177.998 121.325 177.993 121.25C178.021 121.305 178.042 121.358 178.051 121.401C178.097 121.556 178.047 121.566 178.018 121.44Z" fill="#7F3E3B"/>
<path d="M210.516 104.368C210.616 103.866 210.456 103.832 210.328 103.835C210.228 103.837 209.912 104.08 209.839 104.383C209.231 105.326 208.481 106.14 207.489 106.856C207.36 106.949 207.235 107.044 207.097 107.133C205.838 107.957 204.52 108.352 203.242 108.403C203.268 108.54 203.293 108.677 203.314 108.815C203.364 109.137 203.4 109.456 203.422 109.774C203.568 111.86 203.025 113.798 200.676 114.906C200.667 115.036 200.357 115.172 200.252 115.265C199.596 115.849 198.685 117.13 198.695 118.24C198.703 119.094 199.495 119.765 200.434 120.576L201.756 121.461L203.547 121.29C209.049 119.674 211.613 114.648 211.495 114.276C210.07 111.949 210.09 107.89 210.516 104.368Z" fill="#7F3E3B"/>
<path d="M222.408 116.285C222.408 116.285 222.039 116.218 221.409 116.117C220.107 115.908 214.27 114.588 211.454 114.334C211.453 114.336 211.452 114.337 211.45 114.339C210.788 115.726 208.654 119.128 203.152 120.743L201.791 121.066L200.51 120.385C199.571 119.574 199.09 118.73 199.083 117.877C199.073 116.767 199.852 115.838 200.508 115.254C200.558 115.21 200.594 115.159 200.621 115.103C200.61 114.945 200.608 114.843 200.624 114.828C200.214 114.879 194.998 115.673 194.556 115.743C187.766 116.82 180.123 119.75 180.123 119.75L180.177 120.219L181.122 128.46L181.479 131.577C181.479 131.577 184.101 131.284 187.529 130.679C186.589 139.013 186.411 151.085 189.267 166.606C192.276 166.549 200.432 166.387 200.432 166.396C208.448 166.246 216.859 166.088 219.828 166.032C219.908 164.727 219.765 162.019 219.623 158.317L219.449 152.605C219.343 147.556 219.365 141.5 219.818 134.994C219.889 133.97 219.973 132.934 220.067 131.89C220.068 131.891 220.069 131.893 220.07 131.894C224.034 136.182 228.004 140.276 228.004 140.276L229.877 138.47C232.278 137.309 234.169 135.24 235.818 132.743L238.02 130.621C238.021 130.621 227.77 117.186 222.408 116.285Z" fill="#7A81FD"/>
<path opacity="0.3" d="M217.035 128.564C217.178 129.91 217.615 131.23 218.31 132.419L219.817 134.995C219.888 133.971 219.972 132.935 220.066 131.891C219.032 130.772 217.998 129.64 217.035 128.564Z" fill="black"/>
<path opacity="0.3" d="M220.071 131.895C220.069 131.893 220.069 131.892 220.068 131.891C219.973 132.934 219.89 133.971 219.818 134.995L219.82 134.996C219.89 133.974 219.977 132.937 220.071 131.895Z" fill="black"/>
<path d="M203.24 108.403C203.266 108.54 203.291 108.678 203.313 108.815C203.292 108.678 203.266 108.54 203.24 108.403Z" fill="#7F3E3B"/>
<path opacity="0.2" d="M203.42 109.774C203.398 109.457 203.363 109.137 203.312 108.815C203.362 109.137 203.401 109.457 203.42 109.774Z" fill="black"/>
<path d="M207.487 106.856C207.358 106.949 207.233 107.044 207.096 107.133C205.837 107.957 204.518 108.352 203.24 108.403C203.266 108.54 203.291 108.677 203.312 108.815C203.363 109.136 203.398 109.456 203.42 109.774C203.421 109.792 203.425 109.811 203.427 109.83C204.833 109.601 206.665 108.308 207.487 106.856Z" fill="#7F3E3B"/>
<path d="M214.828 115.328C214.71 114.799 214.305 114.352 213.744 114.219L212.385 113.895C212.028 113.809 211.676 113.969 211.493 114.276C211.479 114.299 211.46 114.316 211.449 114.339C210.786 115.727 208.653 119.128 203.151 120.744L202.723 120.845L201.79 121.066L200.509 120.385C199.569 119.574 199.088 118.731 199.081 117.877C199.071 116.767 199.851 115.839 200.507 115.255C200.556 115.211 200.667 115.068 200.694 115.012C200.753 114.862 200.741 114.786 200.636 114.72C199.197 113.681 195.959 115.284 195.831 115.563C195.693 115.696 195.556 115.843 195.422 116.005C194.763 116.798 194.208 117.939 194.376 119.471C194.749 122.873 197.57 124.482 197.689 124.549C197.719 124.565 197.751 124.573 197.783 124.573C197.819 124.573 197.855 124.562 197.886 124.543C197.946 124.505 197.98 124.437 197.975 124.367C197.968 124.269 197.849 122.001 200.396 120.762L201.543 121.371C196.621 141.557 199.96 165.745 200.052 166.401C200.294 166.397 200.431 166.395 200.431 166.396C200.431 166.387 200.439 166.381 200.437 166.372C200.402 166.127 196.967 141.724 201.925 121.43L203.126 121.145C204.518 122.846 203.858 125.371 203.851 125.396C203.832 125.468 203.854 125.544 203.911 125.593C203.947 125.623 203.991 125.64 204.037 125.64C204.063 125.64 204.089 125.634 204.114 125.624C204.376 125.509 210.561 122.797 212.723 120.215C214.008 118.681 214.578 117.057 214.83 115.965C214.88 115.749 214.873 115.533 214.828 115.328Z" fill="white"/>
<path opacity="0.2" d="M207.487 106.856C207.358 106.949 207.233 107.044 207.096 107.133C205.837 107.957 204.518 108.352 203.24 108.403C203.266 108.54 203.291 108.677 203.312 108.815C203.363 109.136 203.398 109.456 203.42 109.774C203.421 109.792 203.425 109.811 203.427 109.83C204.833 109.601 206.665 108.308 207.487 106.856Z" fill="black"/>
<path d="M197.971 91.5976C198.629 90.423 199.427 89.3596 200.372 88.5075C199.924 88.1706 199.546 87.7907 199.262 87.3643C198.232 87.8476 197.259 89.2164 196.754 92.2745C196.624 93.0652 196.624 93.7911 196.7 94.4647C196.898 93.8892 197.123 93.3209 197.376 92.7689L197.971 91.5976Z" fill="#263238"/>
<path d="M210.127 99.626C213.079 96.2102 211.202 91.8598 209.475 90.8807C209.794 86.3145 203.226 85.7174 200.373 88.5067C199.428 89.3589 198.63 90.4223 197.973 91.5968L197.378 92.7675C197.125 93.3195 196.9 93.8878 196.702 94.4633C195.943 96.6654 195.58 98.9727 195.59 100.891C195.612 105.267 199.221 108.56 203.242 108.402H203.242C204.52 108.352 205.839 107.956 207.098 107.133C207.235 107.043 207.361 106.949 207.49 106.855C208.482 106.139 209.232 105.325 209.839 104.382C211.308 102.032 210.924 100.848 210.127 99.626Z" fill="#7F3E3B"/>
<path d="M197.018 92.3791C196.925 92.4955 196.944 92.6662 197.06 92.7597C197.112 92.8009 197.173 92.8205 197.235 92.8192C197.286 92.8186 197.334 92.7977 197.377 92.7689C197.4 92.7538 197.423 92.7401 197.441 92.7185C198.204 91.7683 199.186 91.8173 199.229 91.8199C199.373 91.8291 199.506 91.7166 199.516 91.5681C199.526 91.4197 199.415 91.2908 199.266 91.2797C199.231 91.2771 198.642 91.2516 197.972 91.5976C197.655 91.7611 197.322 92.0011 197.018 92.3791Z" fill="#263238"/>
<path d="M204.092 100.22C204.039 100.166 203.954 100.165 203.9 100.217C203.888 100.229 202.631 101.422 200.648 101.027C200.575 101.013 200.504 101.06 200.489 101.134C200.475 101.207 200.522 101.278 200.596 101.293C200.932 101.36 201.248 101.385 201.541 101.379C203.105 101.35 204.043 100.456 204.089 100.41C204.143 100.359 204.144 100.273 204.092 100.22Z" fill="#263238"/>
<path d="M200.566 95.5479C200.566 95.5479 198.928 97.933 197.502 98.9572C198.127 99.8577 199.567 99.7897 199.567 99.7897L200.566 95.5479Z" fill="#630F0F"/>
<path d="M198.267 95.7066C198.563 95.7655 198.888 95.4489 198.994 95.0003C199.1 94.551 198.946 94.1396 198.651 94.0808C198.355 94.0219 198.03 94.3385 197.924 94.7871C197.818 95.2364 197.972 95.6484 198.267 95.7066Z" fill="#263238"/>
<path d="M203.377 96.7252C203.672 96.784 203.997 96.4675 204.103 96.0188C204.209 95.5702 204.056 95.1588 203.76 95.0993C203.464 95.0405 203.139 95.357 203.033 95.8056C202.927 96.2549 203.082 96.6663 203.377 96.7252Z" fill="#263238"/>
<path d="M210.073 90.8639C209.893 90.8743 209.692 90.8802 209.475 90.8809C209.161 91.6061 208.895 92.5355 208.698 93.7231C208.266 96.3398 209.152 98.3142 210.127 99.6261C211.468 101.904 213.185 101.84 214.673 100.105C217.069 97.8054 219.376 93.2209 214.611 89.6206C213.863 90.2609 212.456 90.7245 210.073 90.8639Z" fill="#263238"/>
<path d="M213.403 98.7591C212.323 98.3163 211.099 98.8363 210.126 99.6263C209.571 100.076 209.097 100.613 208.778 101.111C207.853 102.556 208.181 104.24 209.837 104.383C209.929 104.391 210.023 104.397 210.123 104.395C210.251 104.393 210.382 104.382 210.515 104.368C211.687 104.255 212.987 103.731 213.964 102.733C214.705 101.975 214.945 100.954 214.673 100.105C214.488 99.5315 214.077 99.0351 213.403 98.7591Z" fill="#7F3E3B"/>
<path d="M200.37 88.5075C202.762 90.3087 207.118 90.8914 209.473 90.8816C209.69 90.8809 209.891 90.875 210.071 90.8646C212.454 90.7253 213.861 90.2616 214.609 89.6213C217.374 87.2551 211.073 82.4502 211.073 82.4502C211.073 82.4502 211.776 84.1748 210.31 84.6503C208.844 85.1257 198.516 81.2841 198.692 85.6437C198.718 86.2885 198.924 86.8588 199.261 87.365C199.545 87.7908 199.923 88.1701 200.37 88.5075Z" fill="#263238"/>
<path d="M189.267 166.606C189.267 166.606 189.09 168.132 188.816 170.703C193.806 172.39 199.146 173.318 204.705 173.318C209.948 173.318 214.997 172.499 219.741 170.992C219.811 167.888 219.854 166.032 219.854 166.032L200.431 166.397L200.053 166.404L189.267 166.606Z" fill="#263238"/>
<path d="M239.833 140.271C239.78 139.724 239.649 139.165 239.456 138.639C239.355 138.38 239.25 138.116 239.122 137.882L238.929 137.525L238.824 137.347C237.895 135.736 236.881 134.213 235.818 132.744L229.877 138.47C230.668 139.448 231.429 140.435 232.137 141.441C232.039 141.699 231.87 142.038 231.635 142.386C230.858 143.536 229.677 144.813 228.396 145.989C225.964 148.254 223.141 150.413 220.355 152.482L219.448 152.605L215.797 153.101L212.209 155.524L214.568 160.328L217.536 158.808C217.536 158.808 218.531 158.692 219.623 158.318C220.629 157.972 221.717 157.407 222.192 156.499C223.965 155.805 225.621 155.03 227.292 154.171C229.044 153.261 230.762 152.258 232.454 151.107C233.297 150.527 234.128 149.903 234.953 149.213C235.779 148.525 236.594 147.765 237.377 146.841C238.149 145.902 238.953 144.835 239.508 143.2C239.778 142.386 239.944 141.371 239.833 140.271ZM232.19 141.3C232.187 141.267 232.177 141.231 232.177 141.202C232.176 141.044 232.232 140.987 232.233 141.081C232.234 141.129 232.219 141.206 232.19 141.3Z" fill="#7F3E3B"/>
<path d="M175.126 159.592C176.714 149.805 170.068 140.583 160.281 138.995C150.494 137.407 141.273 144.053 139.685 153.84C138.096 163.627 144.742 172.848 154.529 174.437C164.316 176.025 173.538 169.379 175.126 159.592Z" fill="#263238"/>
<path d="M167.27 155.034H159.081V146.845C159.081 145.921 158.325 145.165 157.4 145.165C156.476 145.165 155.72 145.921 155.72 146.845V155.034H147.53C146.606 155.034 145.85 155.79 145.85 156.715C145.85 157.639 146.606 158.396 147.53 158.396H155.72V166.585C155.72 167.509 156.476 168.265 157.4 168.265C158.324 168.265 159.081 167.509 159.081 166.585V158.396H167.27C168.194 158.396 168.951 157.64 168.951 156.715C168.95 155.79 168.194 155.034 167.27 155.034Z" fill="white"/>
<path d="M204.357 93.3246C204.408 93.3318 205.361 93.4803 205.845 94.5378C205.891 94.6392 205.992 94.698 206.096 94.6961C206.132 94.6954 206.168 94.6876 206.203 94.6719C206.339 94.6097 206.399 94.4489 206.337 94.3128C205.722 92.9675 204.478 92.7949 204.426 92.7884C204.279 92.7694 204.142 92.874 204.123 93.0225C204.104 93.1696 204.208 93.3057 204.357 93.3246Z" fill="#263238"/>
</svg>
