<svg width="150" height="151" viewBox="0 0 150 151" fill="none" xmlns="http://www.w3.org/2000/svg">
<path d="M5.64145 147.8C5.20169 147.423 4.22047 146.228 4.97697 144.838C5.25436 144.328 5.84349 144.076 6.37694 143.852C6.91006 143.627 7.47051 143.432 7.91194 143.057C8.74412 142.348 8.97384 141.173 9.52596 140.228C10.1601 139.144 11.3437 138.332 12.5943 138.388C14.0263 138.453 15.2209 139.623 15.762 140.957C16.3034 142.29 16.3224 143.771 16.3334 145.211C16.3398 146.008 16.3044 146.905 15.7196 147.443C15.1805 147.939 14.369 147.945 13.6385 147.922C11.03 147.842 8.42105 147.762 5.81248 147.682" fill="#F5F5F5"/>
<path d="M20.6088 126.28H0.0273438L3.73482 148.386C3.89685 149.352 4.59534 150.096 5.49187 150.354C5.51554 150.362 5.53988 150.367 5.56388 150.374C5.62523 150.39 5.68424 150.41 5.74725 150.421C5.88295 150.449 6.02332 150.464 6.16568 150.469C6.16668 150.476 6.16801 150.484 6.16901 150.491L6.26937 150.475H6.27004H15.4427C15.6154 150.475 15.7838 150.457 15.9468 150.424C17.03 150.257 17.8972 149.388 18.0289 148.264L19.8163 133.032L19.897 132.427H19.8873L20.5952 126.394L20.6088 126.28ZM16.7263 140.381H14.6142L14.8272 133.965H17.2744L16.7263 140.381ZM17.4795 133.965H19.5016L18.7488 140.381H16.9314L17.4795 133.965ZM11.4452 147.493L11.3168 141.919H14.3585L14.1734 147.493H11.4452ZM8.15711 141.92H11.1124L11.2408 147.493H8.59021L8.15711 141.92ZM8.3855 147.493H5.90762C5.67224 145.988 5.36584 144.032 5.0341 141.919H7.9524L8.3855 147.493ZM8.03742 140.381L7.53898 133.965H10.9294L11.0771 140.381H8.03742ZM11.2815 140.381L11.1338 133.965H14.6229L14.4098 140.381H11.2815ZM11.0981 132.427L10.9614 126.485H14.8712L14.6739 132.427H11.0981ZM10.8937 132.427H7.41929L6.95752 126.485H10.757L10.8937 132.427ZM7.21424 132.427H3.53811C3.40808 131.606 3.28439 130.829 3.17303 130.13C2.78961 127.728 2.64525 126.825 2.56523 126.485H6.75247L7.21424 132.427ZM7.33393 133.965L7.83238 140.381H4.79205C4.68969 139.73 4.58634 139.071 4.48265 138.413C4.24426 136.898 4.00554 135.384 3.78149 133.965H7.33393ZM4.58567 140.381H2.59957L1.52334 133.965H3.57478C3.88818 135.948 4.23593 138.154 4.58567 140.381ZM4.82706 141.92C5.12979 143.848 5.42785 145.75 5.70058 147.493H3.7925L2.85763 141.92H4.82706ZM14.3778 147.493L14.5628 141.919H16.5946L16.1185 147.493H14.3778ZM14.8782 132.427L15.0756 126.485H17.9136L17.4061 132.427H14.8782ZM2.37085 126.485C2.45254 126.914 2.82795 129.253 3.3314 132.427H1.26528L0.268729 126.485H2.37085ZM17.9142 147.493H16.3236L16.7997 141.919H18.568L17.9142 147.493ZM19.682 132.427H17.6108L18.1186 126.485H20.3794L19.682 132.427Z" fill="#E0E0E0"/>
<path d="M145.732 32.1772H117.992V56.995H145.732V32.1772Z" fill="#FAFAFA"/>
<path d="M145.724 56.9945C145.724 56.9945 145.72 56.8355 145.717 56.5338C145.716 56.2294 145.713 55.7839 145.71 55.2041C145.706 54.0389 145.701 52.3359 145.694 50.1664C145.686 45.8301 145.675 39.6341 145.661 32.1768L145.724 32.2395C137.735 32.2428 128.201 32.2465 117.987 32.2508H117.985L118.059 32.1768C118.055 41.2058 118.052 49.7019 118.05 56.9945L117.984 56.9292C126.26 56.9429 133.186 56.9542 138.048 56.9622C140.48 56.9695 142.395 56.9755 143.706 56.9795C144.36 56.9829 144.862 56.9855 145.204 56.9872C145.372 56.9889 145.501 56.9902 145.591 56.9909C145.678 56.9919 145.724 56.9945 145.724 56.9945C145.724 56.9945 145.683 56.9969 145.599 56.9982C145.51 56.9992 145.384 57.0002 145.219 57.0019C144.879 57.0035 144.382 57.0062 143.734 57.0095C142.426 57.0135 140.516 57.0195 138.09 57.0269C133.218 57.0349 126.277 57.0462 117.985 57.0599H117.919V56.9945C117.916 49.7023 117.913 41.2058 117.91 32.1768V32.1028H117.984H117.987C128.201 32.1068 137.735 32.1108 145.724 32.1141H145.787V32.1771C145.774 39.6508 145.762 45.8608 145.755 50.2064C145.748 52.3695 145.742 54.0682 145.738 55.2298C145.735 55.8046 145.733 56.2457 145.731 56.5474C145.729 56.8445 145.724 56.9945 145.724 56.9945Z" fill="#E0E0E0"/>
<path d="M128.627 36.586C128.627 36.627 127.167 36.66 125.367 36.66C123.565 36.66 122.105 36.6267 122.105 36.586C122.105 36.545 123.565 36.512 125.367 36.512C127.167 36.5116 128.627 36.545 128.627 36.586Z" fill="#E0E0E0"/>
<path d="M140.379 38.45C140.379 38.491 136.367 38.524 131.42 38.524C126.471 38.524 122.461 38.491 122.461 38.45C122.461 38.409 126.471 38.376 131.42 38.376C136.367 38.3756 140.379 38.409 140.379 38.45Z" fill="#E0E0E0"/>
<path d="M123.319 41.6062H122.15V42.7748H123.319V41.6062Z" fill="#E0E0E0"/>
<path d="M126.198 41.6062H125.029V42.7748H126.198V41.6062Z" fill="#E0E0E0"/>
<path d="M129.126 41.5532H127.957V42.7218H129.126V41.5532Z" fill="#E0E0E0"/>
<path d="M131.954 41.6062H130.785V42.7748H131.954V41.6062Z" fill="#E0E0E0"/>
<path d="M134.827 41.6064H133.658V42.775H134.827V41.6064Z" fill="#E0E0E0"/>
<path d="M137.702 41.6062H136.533V42.7748H137.702V41.6062Z" fill="#E0E0E0"/>
<path d="M140.581 41.6062H139.412V42.7748H140.581V41.6062Z" fill="#EBEBEB"/>
<path d="M123.319 44.0908H122.15V45.2594H123.319V44.0908Z" fill="#EBEBEB"/>
<path d="M126.198 44.0908H125.029V45.2594H126.198V44.0908Z" fill="#E0E0E0"/>
<path d="M129.073 44.0908H127.904V45.2594H129.073V44.0908Z" fill="#EBEBEB"/>
<path d="M131.954 44.0908H130.785V45.2594H131.954V44.0908Z" fill="#E0E0E0"/>
<path d="M134.827 44.0908H133.658V45.2594H134.827V44.0908Z" fill="#E0E0E0"/>
<path d="M137.758 44.0378H136.59V45.2064H137.758V44.0378Z" fill="#E0E0E0"/>
<path d="M140.581 44.0908H139.412V45.2594H140.581V44.0908Z" fill="#E0E0E0"/>
<path d="M123.319 46.5754H122.15V47.744H123.319V46.5754Z" fill="#E0E0E0"/>
<path d="M126.251 46.5222H125.082V47.6908H126.251V46.5222Z" fill="#E0E0E0"/>
<path d="M129.073 46.5754H127.904V47.744H129.073V46.5754Z" fill="#E0E0E0"/>
<path d="M131.954 46.5754H130.785V47.744H131.954V46.5754Z" fill="#EBEBEB"/>
<path d="M134.827 46.5754H133.658V47.744H134.827V46.5754Z" fill="#E0E0E0"/>
<path d="M137.702 46.5754H136.533V47.744H137.702V46.5754Z" fill="#E0E0E0"/>
<path d="M140.581 46.5754H139.412V47.744H140.581V46.5754Z" fill="#E0E0E0"/>
<path d="M123.319 49.0601H122.15V50.2286H123.319V49.0601Z" fill="#E0E0E0"/>
<path d="M126.198 49.0601H125.029V50.2286H126.198V49.0601Z" fill="#E0E0E0"/>
<path d="M129.073 49.0598H127.904V50.2284H129.073V49.0598Z" fill="#E0E0E0"/>
<path d="M132.005 49.0068H130.836V50.1754H132.005V49.0068Z" fill="#E0E0E0"/>
<path d="M134.827 49.0598H133.658V50.2284H134.827V49.0598Z" fill="#E0E0E0"/>
<path d="M137.702 49.0601H136.533V50.2286H137.702V49.0601Z" fill="#EBEBEB"/>
<path d="M140.581 49.0601H139.412V50.2286H140.581V49.0601Z" fill="#E0E0E0"/>
<path d="M123.319 51.5447H122.15V52.7133H123.319V51.5447Z" fill="#E0E0E0"/>
<path d="M126.198 51.5447H125.029V52.7133H126.198V51.5447Z" fill="#EBEBEB"/>
<path d="M129.073 51.5444H127.904V52.713H129.073V51.5444Z" fill="#E0E0E0"/>
<path d="M131.954 51.5447H130.785V52.7133H131.954V51.5447Z" fill="#E0E0E0"/>
<path d="M134.827 51.5444H133.658V52.713H134.827V51.5444Z" fill="#E0E0E0"/>
<path d="M137.758 51.4915H136.59V52.66H137.758V51.4915Z" fill="#E0E0E0"/>
<path d="M140.581 51.5447H139.412V52.7133H140.581V51.5447Z" fill="#E0E0E0"/>
<path d="M140.382 16.1275C141.268 10.6154 137.518 5.42875 132.005 4.54273C126.493 3.65671 121.307 7.40686 120.421 12.9189C119.535 18.431 123.285 23.6177 128.797 24.5037C134.309 25.3897 139.496 21.6396 140.382 16.1275Z" fill="#E0E0E0"/>
<path d="M130.506 23.5652C135.558 23.5652 139.654 19.4694 139.654 14.4169C139.654 9.3644 135.558 5.26855 130.506 5.26855C125.453 5.26855 121.357 9.3644 121.357 14.4169C121.357 19.4694 125.453 23.5652 130.506 23.5652Z" fill="white"/>
<path d="M121.27 13.8671C121.27 13.8671 121.272 13.9178 121.273 14.0165C121.272 14.1182 121.272 14.2639 121.271 14.4543C121.27 14.5506 121.269 14.6583 121.269 14.7767C121.273 14.895 121.29 15.0241 121.301 15.1641C121.314 15.3041 121.328 15.4548 121.343 15.6159C121.351 15.7779 121.4 15.9446 121.43 16.1246C121.544 16.8448 121.821 17.7053 122.285 18.6288C122.755 19.5487 123.455 20.5239 124.441 21.3771C124.565 21.4828 124.691 21.5895 124.817 21.6978C124.95 21.7979 125.091 21.8912 125.23 21.9899C125.372 22.0836 125.505 22.195 125.659 22.277C125.81 22.3623 125.964 22.4487 126.119 22.5357C126.196 22.579 126.274 22.6224 126.353 22.6661C126.435 22.7021 126.517 22.7384 126.6 22.7751C126.766 22.8481 126.933 22.9218 127.102 22.9965C127.273 23.0658 127.453 23.1148 127.631 23.1758C127.811 23.2292 127.987 23.3055 128.176 23.3375C128.55 23.4159 128.927 23.5189 129.323 23.5473C129.52 23.5669 129.717 23.5993 129.917 23.6093C130.118 23.6119 130.32 23.6149 130.524 23.6176C130.626 23.6173 130.728 23.6246 130.83 23.6179C130.933 23.6089 131.035 23.5999 131.138 23.5909C131.344 23.5706 131.552 23.5603 131.759 23.5316C132.17 23.4482 132.593 23.3939 133.001 23.2542L133.311 23.1628C133.363 23.1472 133.415 23.1335 133.466 23.1158L133.617 23.0548C133.819 22.9735 134.022 22.8911 134.226 22.8088C134.426 22.7167 134.619 22.607 134.817 22.5064C134.915 22.4527 135.018 22.408 135.111 22.3467L135.394 22.1629C135.782 21.9326 136.127 21.6352 136.487 21.3504C136.652 21.1911 136.819 21.0307 136.985 20.8697L137.11 20.7486L137.224 20.6166L137.452 20.3506L137.68 20.0835L137.884 19.7951L138.087 19.5047L138.189 19.359C138.22 19.3087 138.248 19.256 138.278 19.2043C138.395 18.9973 138.512 18.7892 138.63 18.5805C138.727 18.3611 138.825 18.1414 138.922 17.9204C139.28 17.0232 139.505 16.0603 139.583 15.0701C139.635 14.0782 139.539 13.0936 139.301 12.1571C139.233 11.9254 139.166 11.6943 139.098 11.4643C139.008 11.2419 138.919 11.0202 138.83 10.7998L138.763 10.6348L138.68 10.4771L138.517 10.1623L138.353 9.8496L138.161 9.55487L137.97 9.26114L137.874 9.11544L137.766 8.97908C137.622 8.79771 137.478 8.617 137.335 8.43729C137.015 8.10789 136.712 7.76781 136.357 7.48842L136.101 7.26937C136.016 7.19602 135.92 7.13834 135.83 7.07233C135.647 6.94664 135.47 6.81261 135.284 6.69525C135.092 6.58689 134.902 6.47887 134.712 6.37151L134.571 6.29116C134.522 6.26716 134.472 6.24682 134.423 6.22415L134.127 6.09312C133.741 5.90108 133.328 5.79205 132.932 5.65569C132.73 5.60001 132.525 5.56267 132.324 5.51566C132.223 5.49332 132.123 5.47098 132.022 5.44864C131.921 5.42864 131.819 5.42264 131.718 5.40897C131.516 5.3853 131.315 5.36162 131.115 5.33795C130.915 5.32195 130.716 5.32795 130.518 5.32195C130.122 5.29828 129.735 5.35129 129.354 5.37996C129.162 5.38696 128.977 5.43964 128.792 5.46898C128.608 5.50632 128.423 5.53133 128.244 5.578C128.067 5.62968 127.891 5.68103 127.717 5.7317C127.63 5.75704 127.544 5.78238 127.457 5.80739C127.374 5.8404 127.291 5.8734 127.208 5.90608C127.043 5.97242 126.88 6.03777 126.719 6.10279C126.556 6.16447 126.409 6.25715 126.256 6.3315C126.106 6.41119 125.954 6.48487 125.809 6.56689C125.669 6.65757 125.531 6.74693 125.394 6.83561C124.305 7.55277 123.484 8.42796 122.898 9.27881C122.316 10.1333 121.93 10.9505 121.722 11.6493C121.669 11.8237 121.599 11.9827 121.57 12.1424C121.534 12.3001 121.501 12.4475 121.47 12.5849C121.44 12.7222 121.407 12.8479 121.387 12.9646C121.372 13.082 121.359 13.1887 121.347 13.2844C121.322 13.4731 121.304 13.6174 121.291 13.7184C121.279 13.8171 121.27 13.8671 121.27 13.8671C121.27 13.8671 121.272 13.8168 121.282 13.7184C121.292 13.6171 121.307 13.4721 121.327 13.2823C121.338 13.1863 121.35 13.079 121.363 12.9609C121.381 12.8436 121.413 12.7172 121.441 12.5792C121.471 12.4412 121.503 12.2928 121.537 12.1341C121.565 11.9737 121.634 11.8134 121.685 11.638C121.888 10.9342 122.271 10.1103 122.852 9.24714C123.437 8.38795 124.26 7.50309 125.355 6.77627C125.493 6.68658 125.632 6.59589 125.772 6.50421C125.918 6.42086 126.071 6.34584 126.223 6.26515C126.377 6.18981 126.524 6.09578 126.689 6.0331C126.851 5.96709 127.016 5.90041 127.182 5.83339C127.265 5.80005 127.348 5.76671 127.432 5.73304C127.519 5.70737 127.607 5.68169 127.694 5.65569C127.87 5.60401 128.047 5.552 128.225 5.49932C128.405 5.45198 128.592 5.42597 128.778 5.38796C128.965 5.35762 129.151 5.30428 129.345 5.29661C129.729 5.2666 130.12 5.21226 130.52 5.23526C130.719 5.24093 130.921 5.23426 131.123 5.25027C131.324 5.27361 131.527 5.29694 131.732 5.32062C131.834 5.33429 131.937 5.34029 132.039 5.36029C132.14 5.38263 132.242 5.40463 132.344 5.42731C132.547 5.47432 132.754 5.51199 132.958 5.568C133.358 5.7047 133.775 5.81472 134.166 6.00777L134.465 6.13979C134.515 6.16247 134.566 6.1828 134.615 6.20714L134.758 6.28816C134.949 6.39618 135.142 6.50487 135.336 6.61423C135.524 6.73259 135.704 6.86762 135.889 6.99465C135.98 7.06133 136.077 7.11934 136.163 7.19336L136.421 7.4144C136.78 7.69647 137.088 8.03954 137.411 8.37261C137.556 8.55432 137.701 8.73669 137.847 8.92007L137.957 9.05776L138.054 9.20513L138.247 9.50186L138.441 9.79992L138.607 10.116L138.773 10.4341L138.856 10.5934L138.924 10.7601C139.014 10.9832 139.105 11.2072 139.195 11.4319C139.264 11.6647 139.332 11.898 139.401 12.1324C139.642 13.0793 139.739 14.0752 139.686 15.0781C139.607 16.079 139.38 17.0528 139.018 17.96C138.919 18.1834 138.82 18.4058 138.722 18.6272C138.603 18.8382 138.484 19.0483 138.366 19.2577C138.336 19.3097 138.308 19.3627 138.276 19.4137L138.173 19.561L137.967 19.8544L137.761 20.1458L137.53 20.4159L137.3 20.6846L137.184 20.818L137.058 20.94C136.889 21.1027 136.721 21.2644 136.554 21.4255C136.19 21.7132 135.84 22.0129 135.448 22.2456L135.162 22.431C135.067 22.493 134.963 22.538 134.865 22.592C134.664 22.6937 134.469 22.8041 134.267 22.8968C134.061 22.9798 133.855 23.0625 133.652 23.1445L133.499 23.2058C133.447 23.2235 133.394 23.2372 133.342 23.2532L133.028 23.3449C132.616 23.4852 132.188 23.5399 131.773 23.6229C131.564 23.6516 131.353 23.6619 131.146 23.6819C131.042 23.6909 130.938 23.6996 130.835 23.7083C130.732 23.715 130.628 23.7073 130.525 23.7076C130.319 23.7043 130.115 23.701 129.913 23.6976C129.711 23.6869 129.511 23.6543 129.313 23.6336C128.913 23.6039 128.533 23.4996 128.156 23.4192C127.965 23.3862 127.788 23.3092 127.607 23.2549C127.427 23.1928 127.245 23.1425 127.073 23.0721C126.903 22.9965 126.734 22.9218 126.567 22.8474C126.483 22.8104 126.4 22.7734 126.318 22.7367C126.239 22.6924 126.16 22.6484 126.082 22.6047C125.926 22.5164 125.772 22.429 125.619 22.3423C125.464 22.259 125.33 22.1463 125.187 22.0513C125.048 21.9512 124.906 21.8569 124.772 21.7555C124.645 21.6462 124.519 21.5378 124.394 21.4311C123.404 20.5676 122.702 19.5824 122.235 18.6542C121.772 17.7226 121.5 16.8558 121.391 16.1313C121.363 15.9506 121.315 15.7826 121.308 15.6199C121.295 15.4582 121.283 15.3068 121.272 15.1661C121.262 15.0254 121.247 14.896 121.244 14.7773C121.247 14.6586 121.249 14.551 121.251 14.4543C121.256 14.2639 121.26 14.1179 121.263 14.0162C121.266 13.9175 121.27 13.8671 121.27 13.8671Z" fill="#EBEBEB"/>
<path d="M134.672 14.6682C134.672 14.6759 134.557 14.6832 134.347 14.6896C134.117 14.6942 133.816 14.7002 133.452 14.7076C132.693 14.7179 131.636 14.7252 130.442 14.7272H130.383V14.6682C130.383 14.4772 130.383 14.2758 130.383 14.0714C130.383 12.7381 130.389 11.5315 130.4 10.658C130.408 10.2369 130.414 9.88853 130.419 9.6238C130.426 9.37941 130.434 9.24438 130.442 9.24438C130.45 9.24438 130.458 9.37941 130.465 9.6238C130.47 9.88853 130.477 10.2369 130.484 10.658C130.495 11.5315 130.502 12.7381 130.502 14.0714C130.502 14.2758 130.502 14.4772 130.502 14.6682L130.443 14.6092C131.636 14.6112 132.694 14.6182 133.453 14.6289C133.817 14.6362 134.117 14.6422 134.347 14.6469C134.556 14.6536 134.672 14.6606 134.672 14.6682Z" fill="#E0E0E0"/>
<path d="M130.462 6.69434C130.495 6.69434 130.521 7.04041 130.521 7.46717C130.521 7.89426 130.495 8.24034 130.462 8.24034C130.429 8.24034 130.402 7.89426 130.402 7.46717C130.402 7.04041 130.429 6.69434 130.462 6.69434Z" fill="#E0E0E0"/>
<path d="M134.65 7.93552C134.673 7.95886 134.451 8.21891 134.153 8.51631C133.855 8.81404 133.595 9.03609 133.572 9.01309C133.549 8.98975 133.771 8.72969 134.069 8.43229C134.366 8.13456 134.626 7.91218 134.65 7.93552Z" fill="#E0E0E0"/>
<path d="M137.115 10.6148C137.13 10.6448 136.839 10.8205 136.481 11.0379C136.124 11.2549 135.833 11.433 135.813 11.406C135.794 11.38 136.057 11.1559 136.419 10.9362C136.782 10.7158 137.101 10.5861 137.115 10.6148Z" fill="#E0E0E0"/>
<path d="M138.553 14.589C138.553 14.622 138.081 14.6487 137.5 14.6487C136.917 14.6487 136.445 14.622 136.445 14.589C136.445 14.556 136.917 14.5293 137.5 14.5293C138.081 14.5293 138.553 14.556 138.553 14.589Z" fill="#E0E0E0"/>
<path d="M123.934 14.4481C123.934 14.4808 123.489 14.5078 122.939 14.5078C122.389 14.5078 121.943 14.4811 121.943 14.4481C121.943 14.4151 122.389 14.3884 122.939 14.3884C123.489 14.3884 123.934 14.4151 123.934 14.4481Z" fill="#E0E0E0"/>
<path d="M124.97 17.4061C124.992 17.4308 124.655 17.7365 124.218 18.0886C123.781 18.4407 123.411 18.7048 123.391 18.6784C123.372 18.6521 123.709 18.3467 124.144 17.9959C124.579 17.6452 124.949 17.3815 124.97 17.4061Z" fill="#E0E0E0"/>
<path d="M127.527 19.6941C127.555 19.7141 127.305 20.0982 127.015 20.5816C126.725 21.0644 126.502 21.4651 126.472 21.4501C126.443 21.4365 126.619 21.0084 126.913 20.5199C127.206 20.0315 127.502 19.6751 127.527 19.6941Z" fill="#E0E0E0"/>
<path d="M130.462 22.6463C130.429 22.6463 130.402 22.1742 130.402 21.5921C130.402 21.0099 130.429 20.5378 130.462 20.5378C130.495 20.5378 130.521 21.0096 130.521 21.5921C130.521 22.1742 130.495 22.6463 130.462 22.6463Z" fill="#E0E0E0"/>
<path d="M135.007 21.2416C134.99 21.268 134.578 21.0309 134.138 20.6462C133.696 20.2627 133.405 19.8867 133.429 19.8663C133.455 19.8436 133.782 20.1791 134.216 20.5565C134.649 20.9352 135.026 21.2129 135.007 21.2416Z" fill="#E0E0E0"/>
<path d="M137.151 18.9459C137.128 18.9692 136.815 18.6942 136.453 18.3321C136.091 17.9697 135.816 17.6573 135.839 17.634C135.863 17.6106 136.175 17.8853 136.537 18.2478C136.9 18.6102 137.174 18.9226 137.151 18.9459Z" fill="#E0E0E0"/>
<path d="M124.868 11.6134C124.845 11.6367 124.569 11.3983 124.252 11.0816C123.935 10.7645 123.697 10.4888 123.72 10.4654C123.744 10.4421 124.019 10.6802 124.336 10.9972C124.653 11.314 124.891 11.59 124.868 11.6134Z" fill="#E0E0E0"/>
<path d="M127.513 8.84081C127.49 8.86415 127.219 8.63177 126.908 8.32203C126.596 8.0123 126.363 7.74224 126.386 7.7189C126.409 7.69556 126.68 7.92795 126.992 8.23768C127.303 8.54741 127.536 8.81747 127.513 8.84081Z" fill="#E0E0E0"/>
<path d="M122.316 14.5069C122.316 9.63715 126.122 5.65762 130.921 5.37622C130.741 5.36556 130.56 5.35889 130.377 5.35889C125.324 5.35889 121.229 9.45478 121.229 14.5072C121.229 19.5596 125.324 23.6552 130.377 23.6552C130.56 23.6552 130.741 23.6482 130.921 23.6379C126.121 23.3558 122.316 19.3766 122.316 14.5069Z" fill="#F5F5F5"/>
<path d="M28.5847 6.35938H2.83008V47.0602H28.5847V6.35938Z" fill="#E0E0E0"/>
<path d="M27.8043 7.12378H3.52539V46.391H27.8043V7.12378Z" fill="#F5F5F5"/>
<path d="M25.3432 9.41138H15.6621V24.434H25.3432V9.41138Z" fill="white"/>
<path d="M21.0177 10.7396C21.0177 10.9393 20.856 11.101 20.6563 11.101C20.4566 11.101 20.2949 10.9393 20.2949 10.7396C20.2949 10.5399 20.4566 10.3782 20.6563 10.3782C20.856 10.3782 21.0177 10.5399 21.0177 10.7396Z" fill="#E0E0E0"/>
<path d="M15.5893 28.6147H5.9082V43.6374H15.5893V28.6147Z" fill="white"/>
<path d="M11.2619 29.9425C11.2619 30.1422 11.1002 30.3039 10.9005 30.3039C10.7008 30.3039 10.5391 30.1422 10.5391 29.9425C10.5391 29.7431 10.7008 29.5811 10.9005 29.5811C11.1002 29.5814 11.2619 29.7431 11.2619 29.9425Z" fill="#E0E0E0"/>
<path d="M14.0416 9.41138H5.77344V21.1423H14.0416V9.41138Z" fill="white"/>
<path d="M10.2056 10.4766C10.2056 10.6423 10.0712 10.7766 9.90553 10.7766C9.73983 10.7766 9.60547 10.6423 9.60547 10.4766C9.60547 10.3109 9.73983 10.1765 9.90553 10.1765C10.0712 10.1765 10.2056 10.3109 10.2056 10.4766Z" fill="#E0E0E0"/>
<path d="M25.6625 28.8218L16.8203 29.8193L17.373 34.7183L26.2152 33.7209L25.6625 28.8218Z" fill="white"/>
<path d="M21.6492 30.2494C21.6492 30.4185 21.5122 30.5555 21.3432 30.5555C21.1741 30.5555 21.0371 30.4185 21.0371 30.2494C21.0371 30.0804 21.1741 29.9434 21.3432 29.9434C21.5122 29.943 21.6492 30.0804 21.6492 30.2494Z" fill="#E0E0E0"/>
<path d="M14.2944 32.041C14.2944 32.0807 12.7741 32.113 10.8993 32.113C9.0239 32.113 7.50391 32.0807 7.50391 32.041C7.50391 32.0013 9.0239 31.969 10.8993 31.969C12.7741 31.969 14.2944 32.0013 14.2944 32.041Z" fill="#E0E0E0"/>
<path d="M14.2944 33.116C14.2944 33.156 12.7741 33.1883 10.8993 33.1883C9.0239 33.1883 7.50391 33.156 7.50391 33.116C7.50391 33.0763 9.0239 33.0439 10.8993 33.0439C12.7741 33.0439 14.2944 33.076 14.2944 33.116Z" fill="#E0E0E0"/>
<path d="M14.2944 34.1907C14.2944 34.2303 12.7741 34.2627 10.8993 34.2627C9.0239 34.2627 7.50391 34.2303 7.50391 34.1907C7.50391 34.1507 9.0239 34.1187 10.8993 34.1187C12.7741 34.1183 14.2944 34.1507 14.2944 34.1907Z" fill="#E0E0E0"/>
<path d="M14.2944 35.2656C14.2944 35.3056 12.7741 35.3376 10.8993 35.3376C9.0239 35.3376 7.50391 35.3053 7.50391 35.2656C7.50391 35.2259 9.0239 35.1936 10.8993 35.1936C12.7741 35.1936 14.2944 35.2259 14.2944 35.2656Z" fill="#E0E0E0"/>
<path d="M14.2944 36.3403C14.2944 36.3803 12.7741 36.4127 10.8993 36.4127C9.0239 36.4127 7.50391 36.3803 7.50391 36.3403C7.50391 36.3007 9.0239 36.2683 10.8993 36.2683C12.7741 36.2683 14.2944 36.3007 14.2944 36.3403Z" fill="#E0E0E0"/>
<path d="M14.2944 37.4153C14.2944 37.4553 12.7741 37.4873 10.8993 37.4873C9.0239 37.4873 7.50391 37.455 7.50391 37.4153C7.50391 37.3756 9.0239 37.3433 10.8993 37.3433C12.7741 37.3429 14.2944 37.3753 14.2944 37.4153Z" fill="#E0E0E0"/>
<path d="M14.2944 38.4902C14.2944 38.5302 12.7741 38.5622 10.8993 38.5622C9.0239 38.5622 7.50391 38.5299 7.50391 38.4902C7.50391 38.4506 9.0239 38.4182 10.8993 38.4182C12.7741 38.4179 14.2944 38.4502 14.2944 38.4902Z" fill="#E0E0E0"/>
<path d="M24.8351 30.8897C24.8408 30.929 23.3398 31.1734 21.4834 31.4354C19.6263 31.6975 18.1167 31.8779 18.1113 31.8385C18.1057 31.7992 19.6063 31.5548 21.4634 31.2928C23.3198 31.0307 24.8295 30.8503 24.8351 30.8897Z" fill="#E0E0E0"/>
<path d="M24.968 31.5623C24.9736 31.6016 23.4726 31.846 21.6162 32.1081C19.7592 32.3701 18.2495 32.5505 18.2442 32.5111C18.2388 32.4718 19.7391 32.2274 21.5962 31.9654C23.4523 31.7033 24.9623 31.5229 24.968 31.5623Z" fill="#E0E0E0"/>
<path d="M25.091 32.1829C25.0967 32.2222 23.5957 32.4669 21.7393 32.7287C19.8822 32.9907 18.3729 33.1711 18.3672 33.1317C18.3615 33.0924 19.8622 32.848 21.7193 32.586C23.5753 32.3239 25.0853 32.1435 25.091 32.1829Z" fill="#E0E0E0"/>
<path d="M24.4916 12.554C24.4916 12.594 22.7743 12.626 20.6561 12.626C18.5374 12.626 16.8203 12.5936 16.8203 12.554C16.8203 12.5143 18.5374 12.4819 20.6561 12.4819C22.7739 12.4819 24.4916 12.5143 24.4916 12.554Z" fill="#E0E0E0"/>
<path d="M24.4916 13.1929C24.4916 13.2325 22.7743 13.2649 20.6561 13.2649C18.5374 13.2649 16.8203 13.2325 16.8203 13.1929C16.8203 13.1532 18.5374 13.1208 20.6561 13.1208C22.7739 13.1208 24.4916 13.1529 24.4916 13.1929Z" fill="#E0E0E0"/>
<path d="M24.4916 13.8323C24.4916 13.8723 22.7743 13.9043 20.6561 13.9043C18.5374 13.9043 16.8203 13.8719 16.8203 13.8323C16.8203 13.7926 18.5374 13.7603 20.6561 13.7603C22.7739 13.7599 24.4916 13.7923 24.4916 13.8323Z" fill="#E0E0E0"/>
<path d="M24.4916 14.4709C24.4916 14.5106 22.7743 14.543 20.6561 14.543C18.5374 14.543 16.8203 14.5106 16.8203 14.4709C16.8203 14.4313 18.5374 14.3989 20.6561 14.3989C22.7739 14.3989 24.4916 14.4313 24.4916 14.4709Z" fill="#E0E0E0"/>
<path d="M24.4916 15.1101C24.4916 15.1498 22.7743 15.1821 20.6561 15.1821C18.5374 15.1821 16.8203 15.1498 16.8203 15.1101C16.8203 15.0704 18.5374 15.0381 20.6561 15.0381C22.7739 15.0381 24.4916 15.0704 24.4916 15.1101Z" fill="#E0E0E0"/>
<path d="M24.4916 15.7493C24.4916 15.7889 22.7743 15.8213 20.6561 15.8213C18.5374 15.8213 16.8203 15.7889 16.8203 15.7493C16.8203 15.7096 18.5374 15.6772 20.6561 15.6772C22.7739 15.6772 24.4916 15.7096 24.4916 15.7493Z" fill="#E0E0E0"/>
<path d="M24.4916 16.3882C24.4916 16.4279 22.7743 16.4602 20.6561 16.4602C18.5374 16.4602 16.8203 16.4279 16.8203 16.3882C16.8203 16.3485 18.5374 16.3162 20.6561 16.3162C22.7739 16.3162 24.4916 16.3485 24.4916 16.3882Z" fill="#E0E0E0"/>
<path d="M24.4916 18.2849C24.4916 18.3249 22.7743 18.3569 20.6561 18.3569C18.5374 18.3569 16.8203 18.3246 16.8203 18.2849C16.8203 18.2452 18.5374 18.2129 20.6561 18.2129C22.7739 18.2129 24.4916 18.2452 24.4916 18.2849Z" fill="#E0E0E0"/>
<path d="M24.5424 18.9595C24.5424 18.9991 22.8251 19.0315 20.7069 19.0315C18.5881 19.0315 16.8711 18.9991 16.8711 18.9595C16.8711 18.9198 18.5881 18.8875 20.7069 18.8875C22.8251 18.8871 24.5424 18.9195 24.5424 18.9595Z" fill="#E0E0E0"/>
<path d="M24.603 19.635C24.603 19.675 22.8856 19.707 20.7675 19.707C18.6487 19.707 16.9316 19.6747 16.9316 19.635C16.9316 19.5953 18.6487 19.563 20.7675 19.563C22.8856 19.563 24.603 19.5953 24.603 19.635Z" fill="#E0E0E0"/>
<path d="M24.6538 20.3098C24.6538 20.3495 22.9364 20.3818 20.8183 20.3818C18.6995 20.3818 16.9824 20.3495 16.9824 20.3098C16.9824 20.2701 18.6995 20.2378 20.8183 20.2378C22.9364 20.2378 24.6538 20.2701 24.6538 20.3098Z" fill="#E0E0E0"/>
<path d="M24.7065 20.9851C24.7065 21.0248 22.9891 21.0571 20.871 21.0571C18.7522 21.0571 17.0352 21.0248 17.0352 20.9851C17.0352 20.9454 18.7522 20.9131 20.871 20.9131C22.9891 20.9131 24.7065 20.9454 24.7065 20.9851Z" fill="#E0E0E0"/>
<path d="M24.7592 21.6597C24.7592 21.6997 23.0419 21.7317 20.9237 21.7317C18.8049 21.7317 17.0879 21.6993 17.0879 21.6597C17.0879 21.62 18.8049 21.5876 20.9237 21.5876C23.0419 21.5876 24.7592 21.62 24.7592 21.6597Z" fill="#E0E0E0"/>
<path d="M108.933 115.205H38.8739C37.1736 115.205 35.7949 113.826 35.7949 112.126V10.1049C35.7949 8.40418 37.1736 7.02588 38.8739 7.02588H108.933C110.634 7.02588 112.012 8.40451 112.012 10.1049V112.126C112.012 113.826 110.633 115.205 108.933 115.205Z" fill="#E0E0E0"/>
<path d="M108.931 115.205C108.931 115.205 109.01 115.199 109.167 115.19C109.323 115.179 109.556 115.143 109.853 115.057C110.146 114.96 110.502 114.798 110.86 114.51C111.213 114.222 111.567 113.8 111.784 113.237C111.899 112.958 111.964 112.641 111.984 112.306C112.002 111.97 111.988 111.612 111.992 111.239C111.991 110.492 111.989 109.675 111.988 108.79C111.986 107.02 111.984 104.977 111.982 102.678C111.976 93.4797 111.968 80.1711 111.958 63.7269C111.956 55.5044 111.953 46.4978 111.949 36.829C111.948 31.9946 111.947 26.9945 111.946 21.8444C111.945 19.2692 111.945 16.6566 111.944 14.008C111.942 12.6844 111.94 11.3521 111.938 10.0112C111.925 9.35336 111.673 8.70822 111.259 8.19511C110.836 7.68933 110.249 7.31325 109.598 7.17122C109.273 7.0972 108.942 7.09053 108.598 7.09487C108.257 7.09487 107.916 7.09487 107.574 7.09487C106.89 7.09487 106.205 7.0952 105.517 7.0952C104.141 7.09553 102.758 7.09553 101.366 7.09587C98.5822 7.0962 95.7669 7.09653 92.9216 7.09687C87.231 7.09753 81.4204 7.0982 75.5055 7.09887C63.6752 7.0992 51.4266 7.09987 38.8812 7.1002C38.1137 7.09753 37.3542 7.40027 36.8031 7.93005C36.2473 8.4545 35.9072 9.19666 35.8749 9.95716C35.8595 11.5088 35.8705 13.0685 35.8672 14.6162C35.8672 17.7145 35.8669 20.7925 35.8669 23.8478C35.8665 29.9588 35.8662 35.9802 35.8659 41.8968C35.8645 53.73 35.8629 65.1438 35.8615 76.0169C35.8592 86.8899 35.8569 97.2222 35.8545 106.892C35.8542 108.1 35.8539 109.299 35.8535 110.486C35.8562 111.079 35.8465 111.674 35.8595 112.257C35.8789 112.835 36.0772 113.399 36.406 113.866C36.7354 114.335 37.1988 114.701 37.7216 114.919C37.9847 115.026 38.2607 115.094 38.5404 115.129C38.8195 115.153 39.1076 115.148 39.394 115.148C40.5382 115.148 41.6718 115.149 42.7937 115.149C47.282 115.151 51.5893 115.152 55.7005 115.154C72.1451 115.164 85.4523 115.172 94.6497 115.177C99.247 115.183 102.817 115.188 105.239 115.191C106.449 115.194 107.371 115.197 107.993 115.198C108.613 115.2 108.931 115.205 108.931 115.205C108.931 115.205 108.613 115.21 107.993 115.213C107.371 115.215 106.448 115.217 105.239 115.22C102.817 115.223 99.2467 115.228 94.6493 115.234C85.452 115.24 72.1448 115.248 55.7002 115.258C51.5889 115.259 47.2817 115.261 42.7934 115.262C41.6715 115.263 40.5379 115.263 39.3936 115.263C39.1079 115.263 38.8215 115.269 38.5274 115.244C38.2367 115.208 37.9496 115.137 37.6766 115.027C37.1331 114.8 36.6517 114.42 36.3093 113.933C35.9672 113.448 35.7608 112.862 35.7402 112.262C35.7265 111.668 35.7362 111.081 35.7328 110.486C35.7325 109.298 35.7322 108.1 35.7318 106.891C35.7298 97.2215 35.7275 86.8892 35.7252 76.0162C35.7238 65.1432 35.7225 53.729 35.7208 41.8961C35.7205 35.9795 35.7202 29.9582 35.7198 23.8472C35.7198 20.7918 35.7195 17.7138 35.7195 14.6155C35.7228 13.0648 35.7118 11.5155 35.7272 9.94949C35.7612 9.15165 36.1182 8.37248 36.701 7.82269C37.2788 7.26724 38.077 6.94917 38.8808 6.95217C51.4262 6.9525 63.6749 6.95317 75.5052 6.95384C81.4204 6.9545 87.2307 6.95517 92.9213 6.9555C95.7666 6.95584 98.5818 6.95617 101.365 6.95684C102.757 6.95717 104.141 6.95717 105.517 6.9575C106.205 6.9575 106.89 6.95784 107.574 6.95784C107.916 6.95784 108.257 6.95784 108.598 6.95784C108.935 6.95384 109.289 6.96017 109.628 7.03785C110.308 7.18722 110.921 7.57997 111.363 8.10875C111.796 8.64454 112.059 9.31968 112.072 10.0065C112.074 11.3488 112.075 12.6828 112.076 14.0077C112.076 16.6559 112.075 19.2689 112.075 21.8441C112.073 26.9945 112.072 31.9943 112.071 36.8287C112.068 46.4974 112.065 55.5041 112.062 63.7265C112.052 80.1711 112.044 93.4793 112.039 102.678C112.036 104.977 112.034 107.019 112.032 108.79C112.031 109.675 112.03 110.492 112.029 111.239C112.024 111.613 112.037 111.968 112.018 112.307C111.996 112.646 111.929 112.966 111.812 113.247C111.59 113.815 111.231 114.239 110.875 114.527C110.513 114.815 110.153 114.976 109.858 115.07C109.558 115.155 109.324 115.188 109.167 115.197C109.01 115.204 108.931 115.205 108.931 115.205Z" fill="#14142D"/>
<g opacity="0.3">
<path d="M42.4473 112.76H106.415L105.713 99.4554V92.3735L42.4473 102.259V112.76Z" fill="black"/>
</g>
<g opacity="0.3">
<path d="M93.1365 7.24634L94.5902 11.5576V13.6697H92.9512L93.1365 7.24634Z" fill="black"/>
</g>
<path d="M39.1953 11.3601V110.733H91.0359H108.614V11.3601H39.1953Z" fill="white"/>
<path d="M108.612 92.964C108.612 92.964 108.608 92.8353 108.607 92.5819C108.605 92.3272 108.604 91.9498 108.601 91.4527C108.599 90.4551 108.596 88.9781 108.591 87.054C108.587 83.2025 108.581 77.563 108.573 70.4037C108.567 56.082 108.557 35.6815 108.546 11.3599L108.612 11.4252C88.1015 11.4276 64.3666 11.4306 39.1928 11.4336L39.2665 11.3599C39.2665 11.3879 39.2665 11.4179 39.2665 11.4482C39.2595 49.6492 39.2532 84.5351 39.2482 110.733L39.1928 110.678C55.1623 110.688 68.1221 110.697 77.0907 110.702C81.5737 110.709 85.0591 110.714 87.425 110.717C88.6066 110.721 89.5081 110.723 90.1159 110.725C90.7224 110.728 91.0334 110.734 91.0334 110.734C91.0334 110.734 90.7224 110.739 90.1159 110.742C89.5081 110.744 88.6062 110.746 87.425 110.75C85.0591 110.753 81.5737 110.758 77.0907 110.765C68.1218 110.771 55.1623 110.779 39.1928 110.789H39.1375V110.734C39.1325 84.5358 39.1261 49.6499 39.1191 11.4489C39.1191 11.4186 39.1191 11.3882 39.1191 11.3605V11.2869H39.1928C64.3666 11.2899 88.1015 11.2929 108.612 11.2952H108.677V11.3605C108.666 35.6822 108.657 56.0826 108.65 70.4044C108.643 77.564 108.636 83.2035 108.632 87.0547C108.628 88.9788 108.624 90.4558 108.622 91.4533C108.62 91.9504 108.618 92.3278 108.617 92.5826C108.616 92.8353 108.612 92.964 108.612 92.964Z" fill="#14142D"/>
<path d="M93.1396 14.5186H58.0156V6.44018C58.0156 5.27559 58.9598 4.33105 60.1248 4.33105H91.0305C92.1951 4.33105 93.1396 5.27526 93.1396 6.44018V14.5186Z" fill="#14142D"/>
<path d="M80.0509 0.5H71.1113L72.1562 8.16267H78.89L80.0509 0.5Z" fill="#14142D"/>
<path d="M90.8828 4.33101C90.8828 4.37168 84.0297 4.40469 75.5778 4.40469C67.123 4.40469 60.2715 4.37168 60.2715 4.33101C60.2715 4.29033 67.123 4.25732 75.5778 4.25732C84.0297 4.25732 90.8828 4.29033 90.8828 4.33101Z" fill="#455A64"/>
<path d="M58.8022 12.8753C58.7615 12.8753 58.7285 11.4343 58.7285 9.65693C58.7285 7.87888 58.7615 6.43823 58.8022 6.43823C58.8429 6.43823 58.8759 7.87888 58.8759 9.65693C58.8759 11.4343 58.8429 12.8753 58.8022 12.8753Z" fill="#455A64"/>
<path d="M92.0034 12.1127C91.9627 12.1127 91.9297 10.8045 91.9297 9.19077C91.9297 7.57675 91.9627 6.2688 92.0034 6.2688C92.044 6.2688 92.0771 7.57675 92.0771 9.19077C92.0771 10.8045 92.044 12.1127 92.0034 12.1127Z" fill="#455A64"/>
<path d="M90.3089 13.4677C90.3089 13.5084 83.2744 13.5414 74.5985 13.5414C65.9196 13.5414 58.8867 13.5084 58.8867 13.4677C58.8867 13.4271 65.9199 13.394 74.5985 13.394C83.274 13.394 90.3089 13.4271 90.3089 13.4677Z" fill="#455A64"/>
<path d="M99.8292 30.4316H61.4922V32.7882H99.8292V30.4316Z" fill="#E0E0E0"/>
<path d="M78.8846 35.2454H61.4922V37.5855H78.8846V35.2454Z" fill="#E0E0E0"/>
<path d="M56.3045 38.2887H50.0165C49.3053 38.2887 48.7285 37.7123 48.7285 37.0008V30.7128C48.7285 30.0016 49.305 29.4248 50.0165 29.4248H56.3045C57.0156 29.4248 57.5924 30.0013 57.5924 30.7128V37.0008C57.5924 37.7123 57.016 38.2887 56.3045 38.2887Z" fill="#7A81FD"/>
<path d="M53.0298 35.9686L50.5469 34.0499L51.2164 33.1833L52.8814 34.47L55.2492 31.7454L56.0757 32.4639L53.0298 35.9686Z" fill="white"/>
<path d="M99.8272 45.0222H61.4902V47.3787H99.8272V45.0222Z" fill="#E0E0E0"/>
<path d="M78.8827 49.8357H61.4902V52.1759H78.8827V49.8357Z" fill="#E0E0E0"/>
<path d="M56.3045 52.8788H50.0165C49.3053 52.8788 48.7285 52.3024 48.7285 51.5909V45.3028C48.7285 44.5917 49.305 44.0149 50.0165 44.0149H56.3045C57.0156 44.0149 57.5924 44.5914 57.5924 45.3028V51.5909C57.5924 52.3024 57.016 52.8788 56.3045 52.8788Z" fill="#7A81FD"/>
<path d="M53.0298 50.5585L50.5469 48.6397L51.2164 47.7732L52.8814 49.0598L55.2492 46.3352L56.0757 47.0537L53.0298 50.5585Z" fill="white"/>
<path d="M99.8272 60.6545H61.4902V63.0111H99.8272V60.6545Z" fill="#E0E0E0"/>
<path d="M78.8827 65.4683H61.4902V67.8084H78.8827V65.4683Z" fill="#E0E0E0"/>
<path d="M99.8272 75.1072H61.4902V77.4637H99.8272V75.1072Z" fill="#E0E0E0"/>
<path d="M78.8827 79.9209H61.4902V82.2611H78.8827V79.9209Z" fill="#E0E0E0"/>
<path d="M56.3045 68.5124H50.0165C49.3053 68.5124 48.7285 67.9359 48.7285 67.2244V60.9364C48.7285 60.2252 49.305 59.6484 50.0165 59.6484H56.3045C57.0156 59.6484 57.5924 60.2249 57.5924 60.9364V67.2244C57.5924 67.9356 57.016 68.5124 56.3045 68.5124Z" fill="#7A81FD"/>
<path d="M53.0298 66.192L50.5469 64.2733L51.2164 63.4067L52.8814 64.6933L55.2492 61.9688L56.0757 62.6869L53.0298 66.192Z" fill="white"/>
<path d="M56.4289 83.5261H49.8875C49.1643 83.5261 48.5762 82.9379 48.5762 82.2144V75.6734C48.5762 74.9502 49.1646 74.3621 49.8875 74.3621H56.4289C57.152 74.3621 57.7405 74.9502 57.7405 75.6734V82.2144C57.7405 82.9379 57.1524 83.5261 56.4289 83.5261ZM49.8878 74.6625C49.3303 74.6625 48.8769 75.1159 48.8769 75.6734V82.2144C48.8769 82.7719 49.3303 83.2257 49.8878 83.2257H56.4292C56.9867 83.2257 57.4401 82.7722 57.4401 82.2144V75.6734C57.4401 75.1162 56.9867 74.6625 56.4292 74.6625H49.8878Z" fill="#7A81FD"/>
<path d="M99.8272 91.6392H61.4902V93.9957H99.8272V91.6392Z" fill="#E0E0E0"/>
<path d="M78.8827 96.4529H61.4902V98.7931H78.8827V96.4529Z" fill="#E0E0E0"/>
<path d="M56.4289 100.058H49.8875C49.1643 100.058 48.5762 99.4699 48.5762 98.7464V92.2053C48.5762 91.4822 49.1646 90.894 49.8875 90.894H56.4289C57.152 90.894 57.7405 91.4822 57.7405 92.2053V98.7464C57.7405 99.4699 57.1524 100.058 56.4289 100.058ZM49.8878 91.1944C49.3303 91.1944 48.8769 91.6479 48.8769 92.2053V98.7464C48.8769 99.3039 49.3303 99.7576 49.8878 99.7576H56.4292C56.9867 99.7576 57.4401 99.3042 57.4401 98.7464V92.2053C57.4401 91.6482 56.9867 91.1944 56.4292 91.1944H49.8878Z" fill="#7A81FD"/>
<path d="M95.0996 21.3066H56.877V24.579H95.0996V21.3066Z" fill="#7A81FD"/>
<path d="M63.4724 142.637C63.4724 142.637 62.3218 134.726 62.4178 130.124C62.5138 125.521 62.4121 120.344 62.4121 120.344H62.9422C62.9422 120.344 62.5832 129.479 62.9739 134.989C63.3643 140.494 64.3932 142.637 64.3932 142.637H63.4724Z" fill="#14142D"/>
<path d="M66.8996 111.443C66.7929 111.172 66.6619 110.891 66.4165 110.736C66.0801 110.523 65.6393 110.611 65.2636 110.744C63.6615 111.31 62.2416 114.297 61.5938 115.868L63.7206 123.035C67.5597 119.473 68.2245 114.801 66.8996 111.443Z" fill="#455A64"/>
<path d="M66.2915 111.026C66.2942 111.027 66.2835 111.059 66.2605 111.119C66.2332 111.188 66.1985 111.274 66.1565 111.38C66.0631 111.605 65.9324 111.934 65.7761 112.341C65.4627 113.154 65.0639 114.292 64.7072 115.574C64.3521 116.856 64.1074 118.037 63.9563 118.896C63.8807 119.325 63.8237 119.674 63.7873 119.915C63.769 120.028 63.754 120.119 63.742 120.192C63.7306 120.256 63.7233 120.289 63.7203 120.288C63.7173 120.288 63.7186 120.254 63.7246 120.19C63.7323 120.117 63.742 120.024 63.7536 119.91C63.7796 119.668 63.8273 119.317 63.8953 118.885C64.0307 118.022 64.2667 116.836 64.6228 115.55C64.9806 114.265 65.3897 113.127 65.7184 112.318C65.8824 111.913 66.0221 111.588 66.1252 111.366C66.1735 111.263 66.2132 111.179 66.2445 111.112C66.2728 111.054 66.2889 111.024 66.2915 111.026Z" fill="#14142D"/>
<path d="M62.7762 124.753C60.7828 123.651 59.6079 121.579 59.4982 119.304C59.4215 117.713 59.9103 116.153 60.4637 114.66C60.5118 114.531 60.5688 114.391 60.6888 114.323C60.8562 114.228 61.0652 114.313 61.2322 114.408C62.6809 115.232 63.5584 116.805 64.0255 118.406C64.3362 119.47 64.4973 120.593 64.3536 121.693C64.2099 122.793 63.5811 123.99 62.7762 124.753Z" fill="#455A64"/>
<path d="M62.7754 124.752C62.7724 124.752 62.7698 124.719 62.7678 124.656C62.7664 124.584 62.7648 124.493 62.7624 124.381C62.7618 124.143 62.7521 123.797 62.7324 123.371C62.6941 122.519 62.5824 121.344 62.3623 120.06C62.1413 118.777 61.8729 117.628 61.6752 116.797C61.5778 116.39 61.4978 116.057 61.4391 115.813C61.4141 115.704 61.3938 115.616 61.3778 115.544C61.3648 115.483 61.3591 115.45 61.3621 115.449C61.3651 115.449 61.3761 115.48 61.3948 115.54C61.4151 115.61 61.4408 115.697 61.4721 115.804C61.5378 116.034 61.6282 116.368 61.7352 116.782C61.9486 117.609 62.227 118.759 62.4487 120.046C62.6694 121.333 62.7718 122.513 62.7941 123.369C62.8058 123.796 62.8061 124.142 62.7961 124.381C62.7914 124.493 62.7878 124.584 62.7848 124.656C62.7818 124.72 62.7784 124.753 62.7754 124.752Z" fill="#14142D"/>
<g opacity="0.3">
<path d="M62.7743 124.753C60.7809 123.651 59.6059 121.579 59.4962 119.304C59.4196 117.714 59.9083 116.153 60.4618 114.66C60.5098 114.531 60.5668 114.391 60.6868 114.323C60.8542 114.229 61.0632 114.313 61.2303 114.408C62.6789 115.233 63.5565 116.805 64.0236 118.406C64.3343 119.471 64.4953 120.593 64.3516 121.693C64.2079 122.793 63.5791 123.99 62.7743 124.753Z" fill="black"/>
</g>
<path d="M65.0254 136.856C66.9875 137.288 68.6028 138.671 70.4959 139.344C71.7482 139.789 73.1645 139.947 74.1644 140.823C73.9243 140.217 73.3555 139.813 72.8031 139.468C71.2464 138.496 69.5797 137.7 67.845 137.101C66.9545 136.794 65.9883 136.537 65.0807 136.79" fill="#455A64"/>
<path d="M62.1872 138.604C59.73 138.565 57.1428 136.473 54.6973 136.348C57.2568 135.521 60.9213 136.197 62.1872 138.604Z" fill="#455A64"/>
<path d="M63.1484 132.71C64.396 132.26 65.766 132.239 67.0766 132.443C68.3872 132.646 69.6529 133.066 70.9115 133.485C70.7854 132.632 70.0949 131.991 69.4465 131.424C68.9584 130.997 68.4666 130.567 67.9065 130.24C67.3464 129.913 66.7075 129.692 66.0597 129.719C65.2782 129.752 64.5341 130.156 64.0213 130.746C63.5088 131.337 63.2331 131.932 63.1484 132.71Z" fill="#455A64"/>
<path d="M58.1046 129.997C56.5579 128.676 54.2151 128.805 52.1816 128.851C55.3073 130.346 58.6754 132.394 61.3673 134.575C61.45 133.138 60.0587 131.665 58.1046 129.997Z" fill="#455A64"/>
<g opacity="0.3">
<path d="M58.1046 129.997C56.5579 128.676 54.2151 128.805 52.1816 128.851C55.3073 130.346 58.6754 132.395 61.3673 134.576C61.45 133.138 60.0587 131.665 58.1046 129.997Z" fill="black"/>
</g>
<path d="M63.8423 128.174C64.6201 127.656 65.4069 127.161 66.2211 126.791C67.0353 126.422 67.7948 125.832 68.581 125.406C69.6005 124.854 70.4837 124.087 71.4196 123.403C72.3555 122.718 73.3833 122.1 74.5286 121.919C73.5947 121.726 72.6192 121.831 71.6993 122.083C70.7794 122.334 69.9056 122.727 69.0364 123.119C67.8298 123.662 66.6022 124.22 65.616 125.102C64.6298 125.984 63.7382 126.855 63.8423 128.174Z" fill="#455A64"/>
<path d="M70.4513 138.604C70.45 138.607 70.4229 138.595 70.3736 138.571C70.3156 138.541 70.2449 138.504 70.1592 138.46C69.9742 138.361 69.7085 138.215 69.3741 138.047C69.2083 137.96 69.025 137.868 68.8259 137.775C68.6289 137.677 68.4148 137.581 68.1878 137.482C67.734 137.289 67.2276 137.086 66.6748 136.955C66.124 136.82 65.5749 136.79 65.0988 136.915C64.8584 136.973 64.6324 137.031 64.431 137.115C64.2289 137.197 64.0489 137.292 63.8919 137.391C63.5771 137.589 63.3571 137.8 63.2144 137.951C63.072 138.104 63.0027 138.197 62.9963 138.192C62.994 138.191 63.009 138.166 63.0403 138.12C63.071 138.074 63.1207 138.009 63.1887 137.928C63.3251 137.768 63.5414 137.548 63.8579 137.339C64.0156 137.235 64.1976 137.134 64.403 137.047C64.608 136.958 64.8394 136.897 65.0798 136.837C65.5666 136.704 66.137 136.732 66.6948 136.87C67.2559 137.003 67.7654 137.209 68.2198 137.408C68.4472 137.509 68.6609 137.608 68.8573 137.709C69.056 137.806 69.2384 137.901 69.4024 137.992C69.7341 138.168 69.9955 138.322 70.1756 138.43C70.2579 138.48 70.3263 138.521 70.3819 138.555C70.4293 138.585 70.453 138.602 70.4513 138.604Z" fill="#14142D"/>
<path d="M60.3556 137.387C60.3579 137.381 60.4123 137.397 60.5096 137.432C60.6073 137.465 60.7447 137.524 60.91 137.606C61.2408 137.769 61.6755 138.047 62.084 138.438C62.4914 138.831 62.7864 139.254 62.9628 139.578C63.0515 139.74 63.1158 139.875 63.1529 139.971C63.1912 140.067 63.2095 140.121 63.2039 140.123C63.1899 140.13 63.0978 139.921 62.9091 139.609C62.7211 139.297 62.4234 138.888 62.0229 138.502C61.6215 138.117 61.2001 137.836 60.8807 137.661C60.5616 137.484 60.3499 137.401 60.3556 137.387Z" fill="#14142D"/>
<path d="M54.9199 129.874C54.9209 129.871 54.9569 129.882 55.0246 129.905C55.1006 129.932 55.1983 129.967 55.3197 130.01C55.4507 130.058 55.6061 130.115 55.7848 130.181C55.9662 130.248 56.1629 130.348 56.3856 130.446C57.2701 130.847 58.4474 131.523 59.5846 132.484C60.1454 132.972 60.6522 133.468 61.0763 133.953C61.4987 134.439 61.8565 134.896 62.1352 135.294C62.4156 135.691 62.6286 136.023 62.7743 136.252C62.8433 136.36 62.899 136.447 62.9424 136.515C62.9804 136.575 62.9994 136.608 62.9967 136.61C62.9944 136.612 62.9707 136.583 62.9277 136.525C62.8847 136.468 62.8223 136.383 62.7456 136.271C62.5909 136.047 62.3706 135.722 62.0848 135.33C61.8004 134.938 61.4394 134.487 61.0159 134.006C60.5908 133.527 60.0851 133.036 59.5276 132.551C58.3977 131.596 57.2334 130.916 56.3593 130.502C56.1392 130.401 55.9448 130.298 55.7661 130.226C55.5901 130.155 55.4371 130.094 55.3077 130.042C55.1893 129.992 55.0933 129.952 55.019 129.921C54.9529 129.893 54.9189 129.877 54.9199 129.874Z" fill="#14142D"/>
<path d="M66.8357 131.329C66.834 131.335 66.7643 131.326 66.6396 131.304C66.572 131.291 66.4973 131.277 66.4139 131.262C66.3262 131.245 66.2235 131.245 66.1122 131.233C65.6704 131.201 65.0266 131.237 64.4235 131.566C64.1191 131.72 63.864 131.928 63.655 132.136C63.4429 132.343 63.2822 132.558 63.1609 132.747C62.9145 133.124 62.8381 133.397 62.8231 133.392C62.8185 133.39 62.8321 133.321 62.8731 133.2C62.9182 133.081 62.9878 132.909 63.1082 132.714C63.2249 132.518 63.3836 132.294 63.5973 132.079C63.8077 131.863 64.0687 131.647 64.3821 131.489C65.0043 131.15 65.6701 131.122 66.1172 131.171C66.2302 131.187 66.3339 131.192 66.4219 131.214C66.5049 131.235 66.5796 131.253 66.647 131.27C66.7703 131.303 66.8373 131.323 66.8357 131.329Z" fill="#14142D"/>
<path d="M69.3035 123.668C69.3048 123.671 69.2728 123.69 69.2105 123.725C69.1398 123.764 69.0488 123.813 68.9364 123.874C68.698 124.003 68.355 124.192 67.9382 124.438C67.5234 124.686 67.0347 124.992 66.5149 125.364C65.9964 125.736 65.4397 126.169 64.9255 126.696C64.6721 126.96 64.4384 127.237 64.2754 127.537C64.1144 127.846 63.9607 128.145 63.8193 128.432C63.5352 129.005 63.3039 129.532 63.1365 129.986C62.9698 130.439 62.8661 130.817 62.8044 131.08C62.7414 131.343 62.7187 131.491 62.7101 131.49C62.7071 131.489 62.7104 131.452 62.7197 131.381C62.7287 131.31 62.7437 131.206 62.7707 131.072C62.8224 130.806 62.9178 130.423 63.0778 129.965C63.2385 129.506 63.4652 128.973 63.7463 128.396C63.8863 128.107 64.0387 127.807 64.1987 127.497C64.3678 127.183 64.6051 126.903 64.8619 126.635C65.3823 126.102 65.9438 125.669 66.4675 125.298C66.9927 124.928 67.4864 124.627 67.9065 124.384C68.3286 124.145 68.6767 123.963 68.9204 123.844C69.0361 123.789 69.1295 123.744 69.2025 123.709C69.2675 123.68 69.3022 123.665 69.3035 123.668Z" fill="#14142D"/>
<path d="M62.4151 131.108C62.4091 131.109 62.3921 131.034 62.3664 130.9C62.3378 130.749 62.3017 130.559 62.2591 130.333C62.1654 129.854 62.0224 129.196 61.7943 128.489C61.5683 127.781 61.2935 127.165 61.0925 126.721C60.9971 126.512 60.9168 126.336 60.8528 126.195C60.7967 126.07 60.7687 126 60.7741 125.997C60.7794 125.995 60.8181 126.06 60.8834 126.18C60.9488 126.3 61.0405 126.475 61.1485 126.695C61.3642 127.133 61.6499 127.748 61.8777 128.462C62.1074 129.174 62.2417 129.839 62.3198 130.322C62.3581 130.563 62.3858 130.759 62.4001 130.895C62.4154 131.031 62.4211 131.107 62.4151 131.108Z" fill="#14142D"/>
<path d="M62.2368 125.517C62.1751 124.589 61.8727 123.687 61.4376 122.865C60.245 120.61 58.0035 118.938 55.502 118.438C57.3337 121.168 59.1654 123.898 60.9971 126.628L61.7066 128.09C62.1911 127.295 62.2984 126.445 62.2368 125.517Z" fill="#455A64"/>
<path d="M70.1212 141.658H57.3438V143.923H70.1212V141.658Z" fill="#7A81FD"/>
<path d="M58.2988 143.473L59.3867 150.5H67.8696L69.1679 143.473H58.2988Z" fill="#7A81FD"/>
<path d="M70.1144 143.925C70.1144 143.95 67.2321 143.97 63.6776 143.97C60.1219 143.97 57.2402 143.95 57.2402 143.925C57.2402 143.901 60.1219 143.88 63.6776 143.88C67.2321 143.88 70.1144 143.9 70.1144 143.925Z" fill="#14142D"/>
<path d="M117.375 62.895L116.698 61.287C117.101 60.0311 117.136 58.6384 116.706 57.2668C115.691 54.0311 112.318 52.0627 109 52.7641C105.167 53.575 102.852 57.5025 104.035 61.2683C105.039 64.4654 108.345 66.4291 111.634 65.7873C113.266 65.4686 114.629 64.5864 115.575 63.3905L115.574 63.3938L117.375 62.895Z" fill="white"/>
<path d="M117.373 62.8949C117.376 62.8962 117.339 62.9082 117.264 62.9312C117.18 62.9562 117.067 62.9899 116.924 63.0329C116.61 63.1246 116.159 63.2553 115.58 63.424C115.564 63.429 115.546 63.4193 115.541 63.4026C115.539 63.3953 115.54 63.3873 115.543 63.381L115.544 63.3776L115.598 63.41C115.09 64.0604 114.277 64.8546 113.065 65.3921C112.463 65.6615 111.767 65.8545 111.007 65.9365C110.247 66.0119 109.423 65.9555 108.596 65.7301C107.772 65.5014 106.949 65.099 106.212 64.5205C105.478 63.9428 104.819 63.1923 104.374 62.2884C103.922 61.3905 103.664 60.36 103.651 59.2981C103.632 58.2348 103.901 57.1469 104.412 56.1664C104.925 55.1718 105.678 54.3243 106.571 53.7265C107.458 53.1194 108.467 52.7533 109.471 52.612C110.478 52.4649 111.479 52.5906 112.378 52.8747C113.278 53.1621 114.078 53.6235 114.734 54.1833C115.388 54.7461 115.898 55.4026 116.263 56.078C116.345 56.2511 116.427 56.4211 116.507 56.5885C116.583 56.7575 116.636 56.9329 116.7 57.0996C116.823 57.436 116.899 57.7731 116.958 58.0978C117.186 59.4064 116.98 60.5207 116.726 61.2965L116.725 61.2752C116.935 61.7943 117.099 62.1997 117.214 62.4844C117.266 62.6141 117.306 62.7165 117.337 62.7932C117.363 62.8615 117.376 62.8959 117.373 62.8949C117.371 62.8935 117.353 62.8569 117.321 62.7865C117.287 62.7095 117.241 62.6068 117.183 62.4764C117.062 62.1994 116.889 61.8046 116.667 61.2988C116.664 61.2922 116.664 61.2838 116.666 61.2772C116.905 60.504 117.095 59.4018 116.859 58.1148C116.798 57.7954 116.72 57.464 116.597 57.1339C116.533 56.9702 116.48 56.7982 116.404 56.6328C116.324 56.4688 116.243 56.3021 116.16 56.1327C115.798 55.4716 115.293 54.8304 114.649 54.2813C114.003 53.7355 113.217 53.2868 112.334 53.0087C111.454 52.7336 110.475 52.6136 109.491 52.7597C108.509 52.9004 107.524 53.2601 106.658 53.8536C105.787 54.438 105.052 55.2662 104.551 56.2381C104.052 57.1956 103.788 58.2582 103.806 59.2964C103.817 60.3336 104.067 61.3419 104.507 62.22C104.94 63.1046 105.582 63.8401 106.299 64.4085C107.018 64.9773 107.823 65.3754 108.631 65.6034C109.44 65.8282 110.249 65.8882 110.995 65.8192C111.742 65.7435 112.428 65.5588 113.023 65.2987C114.221 64.7803 115.033 64.0061 115.548 63.3703C115.558 63.3563 115.578 63.354 115.592 63.3646C115.604 63.3736 115.607 63.3896 115.602 63.4026L115.601 63.406L115.563 63.3626C116.138 63.2116 116.585 63.0946 116.897 63.0126C117.046 62.9749 117.162 62.9452 117.248 62.9229C117.329 62.9032 117.371 62.8935 117.373 62.8949Z" fill="#14142D"/>
<path d="M108.1 60.1695C108.501 60.1695 108.826 59.8443 108.826 59.443C108.826 59.0418 108.501 58.7166 108.1 58.7166C107.698 58.7166 107.373 59.0418 107.373 59.443C107.373 59.8443 107.698 60.1695 108.1 60.1695Z" fill="#14142D"/>
<path d="M111.274 59.443C111.274 59.8445 110.948 60.1695 110.547 60.1695C110.146 60.1695 109.82 59.8441 109.82 59.443C109.82 59.0416 110.146 58.7166 110.547 58.7166C110.948 58.7166 111.274 59.042 111.274 59.443Z" fill="#14142D"/>
<path d="M112.93 60.1695C113.331 60.1695 113.656 59.8443 113.656 59.443C113.656 59.0418 113.331 58.7166 112.93 58.7166C112.528 58.7166 112.203 59.0418 112.203 59.443C112.203 59.8443 112.528 60.1695 112.93 60.1695Z" fill="#14142D"/>
<path d="M29.1438 49.1933L29.4599 47.3385C28.9004 46.3587 28.596 45.2171 28.6364 44.0065C28.7524 40.5254 31.6684 37.7975 35.1495 37.9135C38.6305 38.0295 41.3585 40.9455 41.2424 44.4266C41.1264 47.9077 38.2105 50.6356 34.7294 50.5196C33.2757 50.4712 31.9548 49.9331 30.9159 49.0712L30.9179 49.0742L29.1438 49.1933Z" fill="white"/>
<path d="M29.143 49.1932C29.1413 49.1949 29.1784 49.1939 29.2537 49.1906C29.3357 49.1866 29.4474 49.1809 29.5911 49.1739C29.8998 49.1569 30.3453 49.1322 30.9194 49.1002C30.9337 49.0995 30.9451 49.0869 30.9441 49.0725C30.9437 49.0675 30.9417 49.0625 30.9391 49.0585L30.9371 49.0555L30.8987 49.0912C31.5022 49.598 32.4201 50.1731 33.6577 50.4352C33.9657 50.4988 34.2915 50.5425 34.6309 50.5599C34.8006 50.5712 34.9739 50.5589 35.15 50.5595C35.238 50.5565 35.327 50.5609 35.4164 50.5519C35.5054 50.5415 35.5951 50.5312 35.6854 50.5209C36.4079 50.4395 37.1671 50.2261 37.8912 49.847C38.6147 49.4696 39.3019 48.9275 39.8673 48.2354C40.4331 47.5449 40.8749 46.7034 41.1133 45.7731C41.3547 44.8443 41.369 43.8281 41.153 42.8388C41.0569 42.3401 40.8646 41.8606 40.6495 41.3902C40.4058 40.9341 40.1351 40.4813 39.782 40.0872C39.4503 39.6812 39.0518 39.3428 38.6427 39.0337C38.217 38.7476 37.7786 38.4826 37.3061 38.3082C36.3736 37.9354 35.3764 37.7861 34.4278 37.8711C33.4786 37.9501 32.5811 38.2418 31.8109 38.6803C31.0388 39.118 30.393 39.6998 29.9002 40.344C28.9076 41.6406 28.5505 43.1469 28.5932 44.3948C28.6329 45.6565 29.0363 46.665 29.4361 47.3525L29.4327 47.3345C29.3371 47.937 29.2634 48.4031 29.212 48.7255C29.189 48.8762 29.1714 48.9929 29.1583 49.0782C29.1463 49.1559 29.1413 49.1949 29.143 49.1932C29.143 49.1932 29.1533 49.1496 29.169 49.0685C29.1854 48.9822 29.2077 48.8638 29.2364 48.7111C29.294 48.3941 29.3777 47.9356 29.4858 47.3432C29.4871 47.3368 29.4854 47.3302 29.4824 47.3252C29.0957 46.6377 28.7072 45.6371 28.6776 44.3922C28.6446 43.1602 29.0053 41.6803 29.9859 40.4103C30.473 39.7792 31.1094 39.2104 31.8683 38.783C32.6258 38.3549 33.506 38.0708 34.4368 37.9955C35.367 37.9134 36.3442 38.0618 37.2571 38.4276C37.7199 38.5983 38.149 38.859 38.5661 39.139C38.9665 39.4421 39.3572 39.7735 39.682 40.1716C40.028 40.5577 40.2931 41.0014 40.5322 41.4479C40.7425 41.9086 40.9319 42.3781 41.0263 42.8665C41.2386 43.8351 41.2263 44.8316 40.9916 45.7425C40.7599 46.6547 40.3284 47.4809 39.7753 48.1603C39.2225 48.8415 38.5497 49.3766 37.8399 49.7503C37.1297 50.1261 36.3846 50.3398 35.6734 50.4238C35.5844 50.4348 35.4961 50.4455 35.4084 50.4562C35.3207 50.4655 35.2327 50.4618 35.1463 50.4652C34.9729 50.4655 34.8019 50.4792 34.6345 50.4688C34.2995 50.4538 33.9781 50.4132 33.6737 50.3528C32.4511 50.1038 31.5375 49.5446 30.9317 49.0509C30.9204 49.0415 30.9041 49.0429 30.8944 49.0542C30.8864 49.0635 30.8864 49.0772 30.8931 49.0865L30.8951 49.0892L30.9147 49.0475C30.3489 49.0925 29.9102 49.1272 29.6058 49.1515C29.4594 49.1639 29.3457 49.1736 29.2624 49.1806C29.1857 49.1876 29.143 49.1932 29.143 49.1932Z" fill="#14142D"/>
<path d="M32.209 44.649L32.9051 43.9529L34.2478 45.1465L36.883 42.6106L37.5295 43.3067L34.1484 46.4888L32.209 44.649Z" fill="#7A81FD"/>
<path d="M143.995 117.352C144.004 117.273 144.011 117.195 144.014 117.117C144.081 115.617 143.472 114.179 142.886 112.796C141.313 109.088 139.792 105.154 140.234 101.153C140.818 95.8613 144.709 91.485 146.098 86.3672C146.261 85.7648 146.814 85.3503 147.44 85.3503C148.379 85.3503 149.061 86.2605 148.773 87.1521C147.226 91.9381 143.697 96.1337 143.143 101.153C142.701 105.154 144.222 109.088 145.795 112.796C146.381 114.179 146.99 115.617 146.923 117.117C146.857 118.618 145.892 120.194 144.405 120.435H144.261H141.496H122.293C121.523 120.435 120.898 119.812 120.898 119.044V118.743C120.898 117.974 121.523 117.352 122.293 117.352H143.995Z" fill="#455A64"/>
<path d="M148.441 150.5H116.354C115.906 150.5 115.489 150.28 115.21 149.896C114.891 149.455 114.803 148.875 114.976 148.345L124.11 120.356L124.586 120.512L115.452 148.501C115.329 148.879 115.39 149.29 115.616 149.601C115.799 149.854 116.068 149.999 116.354 149.999H148.441C148.723 149.999 148.98 149.864 149.166 149.62C149.39 149.323 149.462 148.924 149.358 148.551L141.508 120.502L141.991 120.367L149.84 148.416C149.987 148.939 149.883 149.502 149.564 149.923C149.287 150.29 148.877 150.5 148.441 150.5Z" fill="#E0E0E0"/>
<path d="M103.439 99.6972C103.439 99.6972 104.608 96.8576 105.762 96.2568C106.917 95.6563 108.387 95.2722 108.387 95.2722H113.526L113.577 98.5993C113.577 98.5993 112.834 99.3434 111.817 99.2027C110.8 99.062 108.26 98.4342 108.26 98.4342L107.007 98.5029L105.852 99.9846C105.852 99.9846 104.914 100.27 105.244 99.3821C105.574 98.4946 105.721 98.1035 105.721 98.1035C105.721 98.1035 104.612 99.8302 104.186 99.9096C103.76 99.9889 103.439 99.6972 103.439 99.6972Z" fill="#6F4439"/>
<path d="M124.678 88.988L120.588 94.8703L113.524 95.2724L113.428 98.4994L118.75 99.5473C121.515 100.091 124.37 99.2439 126.39 97.2792L127.169 90.1646L124.678 88.988Z" fill="#FFBF9D"/>
<path d="M121.521 137.776L126.275 142.425C126.275 142.425 122.843 149.05 123.633 149.999L133.555 140.662L126.465 133.101L121.521 137.776Z" fill="#14142D"/>
<path d="M128.928 139.13C129.167 138.999 129.493 139.078 129.622 139.303C129.751 139.528 129.655 139.862 129.418 139.998C129.181 140.133 128.787 140.05 128.685 139.811C128.583 139.572 128.717 139.184 128.976 139.107" fill="#E0E0E0"/>
<path d="M133.529 140.66L132.783 139.927L123.548 149.154C123.548 149.154 123.278 149.751 123.606 149.997L133.529 140.66Z" fill="#455A64"/>
<path d="M126.065 142.528C126.11 142.573 126.372 142.365 126.75 142.288C127.126 142.201 127.436 142.283 127.464 142.223C127.5 142.173 127.169 141.967 126.713 142.069C126.256 142.166 126.015 142.496 126.065 142.528Z" fill="white"/>
<path d="M125.384 143.915C125.415 143.969 125.699 143.85 126.047 143.888C126.396 143.916 126.636 144.086 126.682 144.039C126.734 144.003 126.514 143.704 126.08 143.664C125.647 143.621 125.344 143.87 125.384 143.915Z" fill="white"/>
<path d="M125.922 145.645C125.975 145.614 125.826 145.322 125.465 145.189C125.104 145.053 124.782 145.169 124.797 145.226C124.806 145.29 125.08 145.286 125.375 145.4C125.673 145.506 125.87 145.686 125.922 145.645Z" fill="white"/>
<path d="M125.087 141.342C125.147 141.365 125.309 141.092 125.599 140.852C125.886 140.606 126.181 140.492 126.169 140.429C126.165 140.37 125.797 140.397 125.458 140.684C125.118 140.969 125.029 141.329 125.087 141.342Z" fill="white"/>
<path d="M122.064 104.642C121.195 104.642 100.021 110.81 97.7298 112.895C95.4386 114.98 93.7246 140.781 93.7246 140.781L102.603 143.825C102.603 143.825 104.474 131.224 105.608 127.154C106.51 123.919 106.302 120.898 106.302 120.898L123.882 113.243L122.064 104.642Z" fill="#14142D"/>
<path d="M122.599 106.006C122.204 106.18 106.82 112.748 105.374 117.149C104.196 120.735 105.566 123.892 107.211 126.36C109.069 129.146 122.695 141.58 122.695 141.58L130.386 136.081L117.201 122.465C117.201 122.465 124.119 118.194 124.356 118.194C124.593 118.194 131.784 117.719 134.063 117.461C136.192 117.22 137.357 114.167 137.357 114.167L139.256 105.416L124.988 102.123L122.599 106.006Z" fill="#14142D"/>
<path d="M122.601 106.006C122.601 106.006 122.65 105.919 122.751 105.751C122.854 105.581 123.004 105.332 123.203 105.005C123.605 104.347 124.198 103.376 124.97 102.111L124.979 102.096L124.996 102.1C128.178 102.829 133.08 103.953 139.268 105.371L139.312 105.381L139.303 105.425C138.734 108.056 138.096 111.012 137.412 114.179L137.411 114.183L137.409 114.187C137.084 114.969 136.645 115.723 136.055 116.38C135.759 116.707 135.41 116.997 135.011 117.211C134.913 117.266 134.812 117.319 134.703 117.353C134.594 117.387 134.492 117.443 134.377 117.457C134.265 117.478 134.152 117.505 134.039 117.521L133.702 117.556C131.901 117.734 130.038 117.867 128.122 118.007C127.163 118.072 126.192 118.139 125.208 118.206C124.962 118.221 124.715 118.236 124.466 118.251L124.371 118.255C124.35 118.254 124.353 118.261 124.344 118.262C124.338 118.263 124.319 118.273 124.307 118.278C124.254 118.301 124.199 118.332 124.145 118.359L123.819 118.54C123.386 118.786 122.954 119.042 122.521 119.3C120.788 120.336 119.027 121.415 117.236 122.519L117.249 122.42C120.532 125.811 123.991 129.383 127.545 133.052C128.516 134.055 129.48 135.05 130.434 136.036L130.487 136.09L130.426 136.134C127.803 138.009 125.234 139.845 122.734 141.632L122.692 141.662L122.654 141.627C119.901 139.103 117.256 136.633 114.746 134.233C113.491 133.033 112.27 131.85 111.097 130.676C109.923 129.502 108.783 128.348 107.757 127.147C107.622 127.002 107.512 126.837 107.39 126.683C107.27 126.526 107.148 126.372 107.048 126.205C106.835 125.879 106.632 125.549 106.445 125.214C106.068 124.545 105.743 123.858 105.49 123.157C105.237 122.456 105.053 121.741 104.96 121.024C104.869 120.307 104.867 119.593 104.945 118.901C105.02 118.207 105.18 117.538 105.424 116.91C105.694 116.287 106.122 115.773 106.559 115.304C107.456 114.38 108.439 113.634 109.397 112.967C111.322 111.639 113.16 110.61 114.78 109.742C116.403 108.876 117.82 108.184 118.98 107.633C120.141 107.082 121.046 106.677 121.661 106.406C121.968 106.274 122.201 106.172 122.361 106.103C122.519 106.037 122.601 106.006 122.601 106.006C122.601 106.006 122.522 106.045 122.365 106.115C122.207 106.187 121.975 106.291 121.67 106.428C121.059 106.705 120.156 107.118 118.999 107.674C117.842 108.231 116.429 108.929 114.811 109.8C113.195 110.673 111.361 111.707 109.444 113.036C108.49 113.703 107.512 114.45 106.625 115.368C106.193 115.833 105.772 116.343 105.512 116.948C105.275 117.561 105.115 118.229 105.043 118.913C104.967 119.597 104.97 120.304 105.061 121.012C105.154 121.721 105.337 122.428 105.589 123.122C105.841 123.817 106.164 124.497 106.54 125.162C106.726 125.495 106.928 125.822 107.14 126.146C107.241 126.313 107.361 126.464 107.479 126.618C107.6 126.77 107.708 126.932 107.843 127.077C108.865 128.27 110.006 129.423 111.18 130.594C112.353 131.766 113.575 132.948 114.83 134.147C117.342 136.544 119.987 139.012 122.741 141.534L122.661 141.529C125.16 139.741 127.728 137.904 130.35 136.029L130.341 136.127C129.387 135.141 128.423 134.146 127.452 133.143C123.899 129.473 120.441 125.901 117.158 122.51L117.103 122.453L117.17 122.411C118.962 121.308 120.723 120.23 122.458 119.195C122.892 118.936 123.324 118.681 123.759 118.434L124.087 118.252C124.144 118.224 124.197 118.194 124.258 118.167C124.275 118.16 124.283 118.154 124.307 118.146C124.328 118.14 124.359 118.132 124.37 118.133L124.461 118.129C124.708 118.115 124.955 118.1 125.2 118.085C126.184 118.019 127.155 117.953 128.113 117.889C130.029 117.751 131.893 117.619 133.69 117.444C134.145 117.415 134.573 117.324 134.959 117.112C135.343 116.907 135.684 116.626 135.974 116.306C136.552 115.665 136.99 114.915 137.31 114.149L137.307 114.157C137.997 110.991 138.64 108.037 139.213 105.407L139.248 105.461C133.064 104.024 128.165 102.885 124.985 102.147L125.011 102.136C124.228 103.397 123.628 104.366 123.221 105.022C123.018 105.346 122.865 105.593 122.76 105.76C122.656 105.925 122.601 106.006 122.601 106.006Z" fill="#455A64"/>
<path d="M123.99 63.9254C123.297 64.0665 122.534 63.615 122.324 62.9402C122.114 62.2651 122.487 61.4612 123.137 61.1842C122.663 60.7764 122.49 60.0543 122.728 59.4758C122.966 58.8973 123.597 58.5059 124.22 58.5493C124.192 57.9325 124.508 57.3107 125.023 56.9699C125.538 56.6289 126.234 56.5808 126.791 56.8476C127.419 56.2054 128.513 56.0881 129.264 56.5815C129.851 56.4188 130.531 56.6802 130.858 57.1946C131.186 57.7091 131.135 58.4352 130.739 58.8987" fill="#14142D"/>
<path d="M129.701 57.9731L129.385 58.0011C126.207 58.2819 123.778 60.9554 123.803 64.1455C123.826 67.1124 123.889 70.3898 124.048 71.9685C124.378 75.2372 127.696 75.4566 127.696 75.4566L127.767 79.4124L135.687 78.4642L135.129 64.1438C135.121 60.7204 133.123 57.8711 129.701 57.9731Z" fill="#FFBF9D"/>
<path d="M127.695 75.4563C127.695 75.4563 129.773 75.3953 131.849 73.8203C131.849 73.8203 131.006 76.3239 127.715 76.3179L127.695 75.4563Z" fill="#6F4439"/>
<path d="M124.993 67.18C125.006 67.4273 125.226 67.6207 125.485 67.6117C125.744 67.6027 125.943 67.3953 125.93 67.148C125.917 66.9006 125.696 66.7072 125.438 66.7159C125.179 66.7249 124.979 66.9326 124.993 67.18Z" fill="#14142D"/>
<path d="M124.662 65.6831C124.725 65.7391 125.056 65.4457 125.559 65.4023C126.061 65.352 126.453 65.578 126.502 65.5117C126.526 65.482 126.458 65.377 126.287 65.2743C126.118 65.1716 125.838 65.0822 125.525 65.1113C125.212 65.1406 124.959 65.2793 124.818 65.4107C124.673 65.5437 124.631 65.6584 124.662 65.6831Z" fill="#14142D"/>
<path d="M129.499 66.9197C129.512 67.1671 129.732 67.3602 129.991 67.3512C130.249 67.3425 130.449 67.1348 130.436 66.8874C130.423 66.64 130.202 66.4466 129.944 66.4556C129.685 66.4643 129.486 66.6723 129.499 66.9197Z" fill="#14142D"/>
<path d="M129.603 65.3408C129.667 65.3965 129.998 65.1034 130.5 65.0604C131.002 65.0101 131.394 65.2361 131.443 65.1698C131.468 65.1401 131.4 65.0351 131.228 64.9327C131.06 64.8304 130.78 64.7407 130.467 64.7697C130.154 64.799 129.9 64.9377 129.759 65.0691C129.615 65.2011 129.572 65.3161 129.603 65.3408Z" fill="#14142D"/>
<path d="M128.099 69.2311C128.099 69.2021 127.781 69.1757 127.269 69.1557C127.139 69.1537 127.016 69.139 126.986 69.0534C126.948 68.9633 126.989 68.82 127.038 68.6653C127.132 68.3439 127.229 68.0071 127.331 67.6541C127.736 66.2154 128.016 65.0368 127.958 65.0212C127.9 65.0055 127.525 66.1587 127.121 67.5974C127.024 67.9518 126.932 68.2899 126.844 68.6129C126.809 68.7633 126.74 68.936 126.822 69.1227C126.865 69.2157 126.966 69.2771 127.05 69.2917C127.135 69.3094 127.207 69.3048 127.271 69.3028C127.783 69.2854 128.099 69.2597 128.099 69.2311Z" fill="#14142D"/>
<path d="M129.003 63.4439C129.081 63.5656 129.5 63.3892 130.029 63.3252C130.556 63.2492 131.012 63.3095 131.049 63.1728C131.064 63.1078 130.96 63.0018 130.76 62.9164C130.561 62.8311 130.265 62.7777 129.949 62.8194C129.632 62.8617 129.365 62.9894 129.201 63.1228C129.035 63.2568 128.968 63.3858 129.003 63.4439Z" fill="#14142D"/>
<path d="M124.446 63.6129C124.562 63.7176 124.966 63.5625 125.465 63.5129C125.962 63.4485 126.394 63.5082 126.48 63.3802C126.518 63.3185 126.441 63.2098 126.247 63.1181C126.055 63.0264 125.743 62.9654 125.401 63.0044C125.059 63.0438 124.771 63.1735 124.608 63.3058C124.441 63.4388 124.394 63.5615 124.446 63.6129Z" fill="#14142D"/>
<path d="M123.992 62.6163C123.992 62.6163 124.674 60.4908 125.62 59.925C126.764 59.2405 127.396 60.5078 128.508 60.0884C129.619 59.669 130.712 59.0125 131.955 59.7907C133.316 60.6425 132.778 61.372 132.985 62.817C133.825 68.6753 135.047 70.2449 135.108 67.445C135.115 67.1383 135.936 66.8222 135.948 65.5276C135.962 63.8489 135.848 61.8228 135.372 60.6745C134.971 59.7066 134.342 59.0692 133.258 58.4007C131.545 57.3458 129.336 57.5152 127.851 57.7986C126.365 58.0823 123.628 60.0624 123.992 62.6163Z" fill="#14142D"/>
<path d="M134.882 67.3745C134.858 66.8677 135.258 66.4303 135.765 66.4336C136.381 66.4376 137.09 66.724 137.161 67.989C137.288 70.2324 135.009 69.8964 135.002 69.8324C134.997 69.7887 134.927 68.3137 134.882 67.3745Z" fill="#FFBF9D"/>
<path d="M135.437 68.9606C135.447 68.9529 135.478 68.9859 135.546 69.0122C135.612 69.0382 135.724 69.0522 135.838 69.0019C136.07 68.9015 136.249 68.5141 136.237 68.109C136.231 67.9047 136.178 67.7126 136.096 67.5556C136.018 67.3952 135.905 67.2865 135.785 67.2722C135.665 67.2512 135.584 67.3275 135.56 67.3922C135.534 67.4566 135.55 67.5006 135.539 67.5052C135.533 67.5112 135.489 67.4702 135.502 67.3765C135.508 67.3315 135.532 67.2772 135.582 67.2312C135.633 67.1845 135.711 67.1575 135.795 67.1618C135.968 67.1642 136.133 67.3145 136.223 67.4866C136.322 67.6589 136.387 67.8746 136.393 68.104C136.404 68.5571 136.197 68.9932 135.878 69.1049C135.722 69.1549 135.588 69.1149 135.517 69.0659C135.444 69.0146 135.43 68.9652 135.437 68.9606Z" fill="#6F4439"/>
<path d="M134.453 63.0454C134.18 63.2694 133.892 63.5011 133.545 63.5668C133.197 63.6325 132.779 63.4668 132.69 63.125C132.649 62.9717 132.671 62.7876 132.558 62.6763C132.424 62.5436 132.202 62.6083 132.017 62.6449C131.372 62.7713 130.549 62.1202 130.327 61.502C130.183 61.7651 129.827 61.8724 129.561 61.7327C129.296 61.593 129.196 61.509 128.98 61.3013C128.763 61.0936 128.47 60.9169 128.178 60.9849C128.014 61.0229 127.868 61.1353 127.701 61.1353C127.405 61.1353 127.23 60.8039 127.16 60.5161C127.09 60.2284 127.025 59.8913 126.763 59.755C126.519 59.6283 126.228 59.7396 125.961 59.8037C125.694 59.8673 125.339 59.8347 125.247 59.5763C125.198 59.4409 125.245 59.2895 125.311 59.1618C125.611 58.5827 126.349 58.272 126.973 58.462C127.126 57.7035 127.767 57.0671 128.526 56.9184C129.286 56.7697 130.119 57.1177 130.547 57.7622C130.982 57.2914 131.653 57.0507 132.288 57.1377C132.923 57.2248 133.505 57.6369 133.797 58.2073C134.329 58.0159 134.968 58.1716 135.352 58.5857C135.736 59.0001 135.843 59.649 135.612 60.1644C136.034 60.3584 136.414 60.7279 136.463 61.19C136.512 61.6524 136.102 62.1535 135.645 62.0711C135.857 62.4156 135.753 62.918 135.422 63.1504C135.09 63.3828 134.583 63.3088 134.331 62.9914" fill="#14142D"/>
<path d="M126.882 59.1347C126.88 59.135 126.881 59.1487 126.886 59.1757C126.891 59.2023 126.896 59.2427 126.91 59.294C126.94 59.3954 126.995 59.5448 127.111 59.7108C127.227 59.8742 127.401 60.0589 127.654 60.1959C127.902 60.3349 128.233 60.4279 128.593 60.3763L128.551 60.3303C128.498 60.5276 128.538 60.7557 128.65 60.9441C128.758 61.1361 128.916 61.3008 129.082 61.4605C129.166 61.5365 129.242 61.6282 129.355 61.6952C129.465 61.7592 129.593 61.7906 129.721 61.7956C129.976 61.8056 130.254 61.7022 130.418 61.4738L130.332 61.4575C130.429 61.8973 130.721 62.3197 131.147 62.5557C131.373 62.6908 131.645 62.7615 131.903 62.7314C132.162 62.7061 132.396 62.6087 132.613 62.5084L132.551 62.4874C132.695 62.7548 132.901 62.9758 133.141 63.1312C133.377 63.2866 133.68 63.3632 133.939 63.2746C134.457 63.1162 134.769 62.6461 134.803 62.2263L134.754 62.2543C135.029 62.374 135.311 62.3627 135.533 62.2993C135.758 62.2373 135.929 62.122 136.048 62.013C136.167 61.9016 136.234 61.7926 136.273 61.7176C136.309 61.6402 136.322 61.5979 136.32 61.5969C136.308 61.5885 136.261 61.7736 136.022 61.9849C135.903 62.0863 135.736 62.1927 135.519 62.247C135.305 62.3034 135.037 62.3073 134.783 62.192L134.739 62.172L134.734 62.22C134.697 62.6121 134.396 63.0515 133.915 63.1929C133.68 63.2706 133.413 63.2019 133.19 63.0548C132.966 62.9081 132.769 62.6951 132.635 62.4437L132.613 62.4037L132.572 62.4224C132.358 62.5204 132.133 62.6121 131.893 62.6348C131.654 62.6611 131.411 62.5984 131.195 62.4707C130.793 62.2477 130.518 61.8522 130.425 61.4362L130.402 61.3315L130.339 61.4195C130.201 61.6149 129.953 61.7119 129.724 61.7036C129.609 61.6999 129.495 61.6725 129.399 61.6175C129.306 61.5649 129.228 61.4745 129.142 61.3978C128.976 61.2415 128.823 61.0831 128.721 60.9044C128.614 60.7283 128.579 60.5283 128.623 60.3496L128.636 60.2946L128.58 60.3032C128.241 60.3566 127.923 60.2736 127.681 60.1442C127.435 60.0172 127.262 59.8421 127.144 59.6874C126.912 59.3657 126.897 59.128 126.882 59.1347Z" fill="#455A64"/>
<path d="M128.164 70.8421C128.169 70.7577 128.73 70.8237 129.186 70.392C129.642 69.9612 129.651 69.3561 129.73 69.3614C129.766 69.3577 129.823 69.5074 129.799 69.7605C129.778 70.0089 129.655 70.3606 129.377 70.6247C129.098 70.8877 128.757 70.9744 128.525 70.9661C128.288 70.9594 128.156 70.8801 128.164 70.8421Z" fill="#14142D"/>
<path d="M95.7166 137.461L94.6827 144.638C94.6827 144.638 86.6396 145.881 86.3125 147.186L100.921 149.914L103.015 138.805L95.7166 137.461Z" fill="#14142D"/>
<path d="M99.3488 144.883C99.6182 145.009 99.7582 145.346 99.6432 145.605C99.5282 145.863 99.1718 145.994 98.9 145.872C98.6287 145.751 98.4473 145.35 98.5923 145.106C98.7373 144.863 99.1651 144.731 99.3998 144.91" fill="#E0E0E0"/>
<path d="M100.921 149.913L101.085 148.784L87.0177 146.591C87.0177 146.591 86.3182 146.738 86.3125 147.185L100.921 149.913Z" fill="#455A64"/>
<path d="M94.4768 144.524C94.4668 144.592 94.8178 144.69 95.1289 144.972C95.4476 145.248 95.5753 145.574 95.6457 145.56C95.7137 145.559 95.6814 145.135 95.2983 144.799C94.9189 144.459 94.4728 144.459 94.4768 144.524Z" fill="white"/>
<path d="M92.8359 144.839C92.8076 144.901 93.0956 145.074 93.2857 145.405C93.4857 145.731 93.4904 146.051 93.5621 146.061C93.6271 146.085 93.7488 145.698 93.5044 145.29C93.2637 144.881 92.8493 144.774 92.8359 144.839Z" fill="white"/>
<path d="M91.6704 146.412C91.7328 146.439 91.8935 146.12 91.7781 145.715C91.6658 145.31 91.356 145.102 91.3154 145.152C91.265 145.2 91.4451 145.439 91.5347 145.772C91.6324 146.103 91.6008 146.392 91.6704 146.412Z" fill="white"/>
<path d="M94.9192 142.919C94.9379 142.986 95.2823 142.954 95.6807 143.055C96.0811 143.149 96.3715 143.335 96.4192 143.284C96.4695 143.243 96.2088 142.936 95.738 142.823C95.2679 142.706 94.8938 142.859 94.9192 142.919Z" fill="white"/>
<path d="M127.411 79.9212L127.711 78.5633L135.69 74.6011L136.386 75.687C136.386 75.687 139.372 78.1168 140.515 80.2256C141.658 82.3344 140.302 99.6029 140.112 102.123C139.727 107.202 137.829 113.848 137.829 113.848C137.829 113.848 135.269 112.066 127.737 108.973C120.205 105.881 119.801 104.481 119.801 104.481L124.239 98.8517L127.411 79.9212Z" fill="#7A81FD"/>
<path d="M127.532 80.3965C127.487 80.6469 123.881 89.3071 123.881 89.3071C123.881 89.3071 125.755 90.3523 126.016 90.4047C126.277 90.457 127.532 80.3965 127.532 80.3965Z" fill="#7A81FD"/>
<path d="M127.166 81.8162C127.202 81.8218 126.882 84.0223 126.452 86.7309C126.021 89.4402 125.644 91.631 125.608 91.6253C125.573 91.6196 125.893 89.4195 126.323 86.7102C126.753 84.002 127.131 81.8105 127.166 81.8162Z" fill="#14142D"/>
<path d="M101.855 99.1414C101.855 99.1414 104.005 95.9704 105.286 95.4136C106.566 94.8568 108.169 94.5554 108.169 94.5554L113.573 95.2779L113.477 98.5049C113.477 98.5049 112.627 99.2461 111.548 99.0194C110.47 98.7927 107.797 97.9308 107.797 97.9308L106.45 97.9105L105.103 99.4105C105.103 99.4105 104.077 99.6455 104.497 98.72C104.916 97.7945 105.104 97.3867 105.104 97.3867C105.104 97.3867 103.787 99.1524 103.325 99.2058C102.863 99.2594 101.855 99.1414 101.855 99.1414Z" fill="#FFBF9D"/>
<path d="M130.097 86.4404L126.35 95.1473L113.522 95.2723L113.426 98.4994C113.426 98.4994 125.796 102.861 129.09 102.014C132.384 101.167 137.847 89.5184 137.847 89.5184L130.097 86.4404Z" fill="#FFBF9D"/>
<path d="M133.13 79.0942C132.78 79.4119 131.621 80.7736 130.383 83.7332C129.146 86.6932 127.41 90.1519 127.41 90.1519L136.254 93.677C136.254 93.677 138.27 89.0387 139.205 86.9749C139.918 85.4036 140.417 82.3129 139.768 80.8172C139.118 79.3216 136.21 76.3016 133.13 79.0942Z" fill="#7A81FD"/>
<path d="M133.129 79.0945C133.129 79.0945 133.155 79.0665 133.21 79.0168C133.267 78.9685 133.346 78.8908 133.46 78.8018C133.687 78.6224 134.038 78.3677 134.55 78.1573C135.061 77.9583 135.761 77.8246 136.534 78.0103C137.306 78.184 138.109 78.6581 138.801 79.3652C139.146 79.7197 139.47 80.1311 139.724 80.6125C139.973 81.1013 140.08 81.6701 140.109 82.2499C140.165 83.4138 139.999 84.6584 139.649 85.917C139.479 86.5505 139.188 87.1623 138.917 87.7831C138.643 88.4065 138.364 89.043 138.079 89.6912C137.509 90.9871 136.918 92.3291 136.313 93.704L136.287 93.762L136.229 93.7387C136.188 93.7227 136.144 93.705 136.101 93.6877C132.969 92.4368 130.002 91.2522 127.387 90.2076L127.328 90.1839L127.357 90.1266C128.183 88.4712 128.914 86.9289 129.541 85.5466C130.173 84.168 130.649 82.9214 131.172 81.9498C131.679 80.9726 132.158 80.2431 132.521 79.773C132.701 79.5373 132.852 79.3656 132.958 79.2542C133.065 79.1429 133.129 79.0945 133.129 79.0945C133.13 79.0959 133.117 79.1105 133.09 79.1389C133.06 79.1712 133.021 79.2132 132.972 79.2666C132.871 79.3816 132.725 79.5566 132.55 79.795C132.198 80.2701 131.731 81.0029 131.234 81.9815C130.723 82.953 130.256 84.2006 129.63 85.5859C129.01 86.9732 128.285 88.5186 127.462 90.1786L127.431 90.0976C130.048 91.1385 133.015 92.3191 136.149 93.5657C136.193 93.5833 136.237 93.6007 136.277 93.6167L136.193 93.6514C136.8 92.2764 137.391 90.9344 137.962 89.6385C138.248 88.9907 138.529 88.3545 138.804 87.7314C139.078 87.1059 139.364 86.5088 139.534 85.883C139.884 84.6391 140.052 83.4025 140.002 82.2552C139.975 81.6827 139.873 81.1296 139.635 80.6579C139.39 80.1878 139.073 79.7797 138.735 79.4289C138.057 78.7281 137.272 78.2573 136.518 78.0806C135.762 77.8923 135.076 78.0153 134.569 78.2043C134.06 78.4047 133.707 78.6504 133.476 78.8225C133.36 78.9075 133.278 78.9822 133.219 79.0268C133.161 79.0732 133.129 79.0945 133.129 79.0945Z" fill="#14142D"/>
<path d="M107.525 96.185C107.529 96.2267 106.861 96.1677 106.158 96.5311C105.448 96.8819 105.1 97.4547 105.068 97.427C105.055 97.4197 105.121 97.2673 105.289 97.0596C105.455 96.8522 105.734 96.5998 106.099 96.4144C106.465 96.2304 106.834 96.1554 107.099 96.1447C107.365 96.1334 107.527 96.1704 107.525 96.185Z" fill="#6F4439"/>
<path d="M128.337 90.5228C128.34 90.5241 128.331 90.5548 128.309 90.6128C128.283 90.6804 128.25 90.7641 128.21 90.8668C128.113 91.1005 127.982 91.4206 127.818 91.8197C127.468 92.6486 126.979 93.8038 126.401 95.1708L126.387 95.2058L126.348 95.2061C125.181 95.2194 123.855 95.2348 122.452 95.2508C119.992 95.2674 117.765 95.2821 116.136 95.2931C115.339 95.2921 114.688 95.2915 114.222 95.2911C114.006 95.2881 113.833 95.2858 113.701 95.2838C113.582 95.2808 113.52 95.2768 113.52 95.2725C113.52 95.2678 113.582 95.2628 113.701 95.2574C113.833 95.2531 114.006 95.2474 114.221 95.2401C114.688 95.2304 115.338 95.2171 116.135 95.2008C117.764 95.1801 119.99 95.1514 122.45 95.1201C123.853 95.1087 125.18 95.0981 126.347 95.0887L126.293 95.1241C126.889 93.7648 127.392 92.6159 127.753 91.7917C127.93 91.3979 128.072 91.0825 128.175 90.8518C128.222 90.7521 128.26 90.6708 128.291 90.6051C128.319 90.5494 128.334 90.5214 128.337 90.5228Z" fill="#6F4439"/>
<path d="M14.8403 102.123H12.3711V150.437H14.8403V102.123Z" fill="#455A64"/>
<path d="M116.194 102.463H113.725V150.442H116.194V102.463Z" fill="#455A64"/>
<path d="M118.64 101.646H6.20117V104.561H118.64V101.646Z" fill="#455A64"/>
<path d="M117.559 104.562C117.559 104.598 104.438 104.627 88.2562 104.627C72.069 104.627 58.9512 104.598 58.9512 104.562C58.9512 104.526 72.069 104.497 88.2562 104.497C104.438 104.497 117.559 104.526 117.559 104.562Z" fill="#14142D"/>
<path d="M85.196 84.5928C85.4917 84.5371 85.7768 84.7315 85.8328 85.0272L88.8755 101.151H103.671C103.893 101.151 104.072 101.331 104.072 101.552C104.072 101.773 103.892 101.952 103.671 101.952H87.9793V101.888L87.9076 101.902L84.7616 85.2292C84.7055 84.9335 84.9002 84.6484 85.196 84.5928Z" fill="#14142D"/>
<path d="M11.0451 46.9694C12.4531 44.8973 14.4762 43.596 16.9674 43.3323C18.373 43.1836 18.9815 43.424 20.0197 43.6073C21.058 43.7904 22.0212 44.2528 22.7023 45.0573C23.5115 46.0129 24.2166 47.1008 24.463 48.3284C24.7161 49.5893 24.7298 50.8439 24.5794 51.8921C24.3963 53.1651 23.7105 55.1475 23.0507 56.2518L20.9136 56.7069C19.1239 56.9279 17.3091 57.149 15.5238 56.8956C13.7384 56.6418 11.9553 55.8523 10.8821 54.4034C9.39108 52.3899 9.63714 49.0419 11.0451 46.9694Z" fill="#14142D"/>
<path d="M13.9343 46.6903L18.1139 44.5815L19.2574 44.6122C21.8053 44.3942 23.8124 47.0467 24.0131 49.1082C24.2359 51.3984 24.4179 54.2033 24.2042 55.9253C23.7748 59.3874 20.9008 59.9286 20.9008 59.9286C20.9008 59.9286 21.3826 63.9664 21.5059 65.105L14.5681 62.9846L12.8924 47.9556C12.8587 47.3275 13.3111 46.7777 13.9343 46.6903Z" fill="#FFBF9D"/>
<path d="M19.0376 55.5843C19.0453 55.4032 19.1307 55.2359 19.248 55.1158C19.4824 54.8758 19.8515 54.8215 20.1399 54.9848C20.4283 55.1482 20.618 55.5186 20.5987 55.8807C20.465 56.1037 20.2442 56.2661 19.9879 56.3114C19.9482 56.3184 19.9078 56.3234 19.8672 56.3261C19.6708 56.3384 19.4657 56.2901 19.3034 56.1591C19.1413 56.0284 19.0283 55.808 19.0376 55.5843Z" fill="#FF9A6C"/>
<path d="M23.3493 52.2012C23.3656 52.4342 23.1816 52.64 22.9385 52.6613C22.6961 52.6826 22.4858 52.5116 22.4698 52.2789C22.4534 52.0458 22.6375 51.8398 22.8798 51.8184C23.1229 51.7971 23.3329 51.9685 23.3493 52.2012Z" fill="#14142D"/>
<path d="M23.3384 50.323C23.2857 50.3824 22.9426 50.1463 22.4672 50.1637C21.9924 50.1743 21.6517 50.4307 21.5983 50.374C21.572 50.349 21.6243 50.2433 21.7724 50.1277C21.9181 50.0126 22.1695 49.8969 22.4655 49.8879C22.7616 49.8796 23.0143 49.98 23.1613 50.0866C23.3114 50.194 23.3647 50.2964 23.3384 50.323Z" fill="#14142D"/>
<path d="M20.6302 54.3028C20.6272 54.2758 20.9206 54.2147 21.3974 54.1374C21.5184 54.1207 21.6324 54.0927 21.6501 54.009C21.6758 53.9204 21.6204 53.7913 21.5567 53.6523C21.4327 53.3626 21.3027 53.0588 21.1663 52.7404C20.6232 51.4418 20.2254 50.3722 20.2781 50.3509C20.3308 50.3296 20.8136 51.3648 21.3567 52.6634C21.4877 52.9838 21.6131 53.2892 21.7321 53.5813C21.7828 53.7176 21.8671 53.8713 21.8115 54.0554C21.7818 54.1471 21.6951 54.2161 21.6181 54.2398C21.5411 54.2661 21.473 54.2698 21.413 54.2754C20.9316 54.3174 20.6329 54.3298 20.6302 54.3028Z" fill="#14142D"/>
<path d="M20.9056 59.9242C20.9056 59.9242 18.5941 60.1526 16.252 58.8513C16.252 58.8513 17.5619 61.1965 20.9973 60.7567L20.9056 59.9242Z" fill="#FF9A6C"/>
<path d="M23.3401 48.8675C23.2641 48.9862 22.8977 48.9212 22.4736 48.9709C22.0481 49.0072 21.7011 49.1446 21.604 49.0432C21.5607 48.9936 21.6034 48.8789 21.7467 48.7572C21.8881 48.6361 22.1352 48.5198 22.4272 48.4901C22.719 48.4608 22.9837 48.5248 23.1454 48.6155C23.3094 48.7062 23.3728 48.8102 23.3401 48.8675Z" fill="#14142D"/>
<path d="M18.471 52.5576C18.4793 52.791 18.684 52.9764 18.9277 52.9717C19.1711 52.9674 19.3622 52.7753 19.3535 52.5419C19.3448 52.3086 19.1404 52.1232 18.8971 52.1275C18.6533 52.1319 18.4626 52.3242 18.471 52.5576Z" fill="#14142D"/>
<path d="M16.9226 50.7109C16.9813 50.7642 17.2977 50.4935 17.7721 50.4605C18.2455 50.4211 18.611 50.6402 18.6583 50.5782C18.6816 50.5508 18.6186 50.4508 18.4593 50.3515C18.3022 50.2524 18.0398 50.1638 17.7448 50.1861C17.4494 50.2091 17.2086 50.3355 17.074 50.4572C16.9359 50.5795 16.8939 50.6869 16.9226 50.7109Z" fill="#14142D"/>
<path d="M17.5473 49.0348C17.6467 49.1375 18.0071 49.0054 18.4472 48.9761C18.8863 48.9331 19.2647 49.0041 19.3444 48.8867C19.3791 48.8301 19.3144 48.7254 19.1457 48.632C18.9797 48.539 18.7066 48.4706 18.4042 48.4953C18.1021 48.5207 17.8451 48.6323 17.698 48.7514C17.5483 48.8704 17.5033 48.9844 17.5473 49.0348Z" fill="#14142D"/>
<path d="M13.9947 53.6618C13.9854 53.4054 13.6683 52.811 13.4136 52.78C12.7338 52.6976 11.5165 52.7933 11.5638 54.5113C11.6285 56.8598 13.973 56.3104 13.9754 56.243C13.9767 56.1904 14.027 54.5473 13.9947 53.6618Z" fill="#FFBF9D"/>
<path d="M13.3035 55.4033C13.2929 55.396 13.2635 55.433 13.1952 55.4666C13.1285 55.4993 13.0131 55.524 12.8894 55.4813C12.6387 55.397 12.4193 55.0089 12.3963 54.5861C12.3843 54.3724 12.4237 54.1677 12.4947 53.997C12.5617 53.8233 12.6694 53.7002 12.7938 53.6746C12.9171 53.6426 13.0078 53.7149 13.0381 53.7799C13.0715 53.845 13.0578 53.8923 13.0702 53.896C13.0768 53.9016 13.1195 53.8553 13.0982 53.7589C13.0872 53.7126 13.0582 53.6579 13.0015 53.6142C12.9438 53.5699 12.8604 53.5489 12.7738 53.5606C12.593 53.5782 12.4347 53.7493 12.3563 53.9363C12.2683 54.1247 12.2193 54.3547 12.2326 54.5948C12.2606 55.0676 12.515 55.5036 12.8571 55.5927C13.0235 55.631 13.1598 55.5777 13.2295 55.52C13.3009 55.46 13.3119 55.407 13.3035 55.4033Z" fill="#FF9A6C"/>
<path d="M13.3176 52.795L13.9661 53.3578C17.7042 50.899 21.5054 44.2058 20.5235 44.4796C20.5235 44.4796 18.7038 43.9141 16.827 44.4085C14.9506 44.903 11.4215 46.1789 11.6772 48.4214C11.933 50.6632 13.3176 52.795 13.3176 52.795Z" fill="#14142D"/>
<path d="M12.22 43.4072C13.1298 43.9389 13.9407 45.4896 13.5686 46.4758C13.7366 47.5071 13.3389 48.613 12.5524 49.3008C11.7659 49.9886 10.6169 50.2357 9.61739 49.9316C8.92691 49.7215 8.31244 49.2578 7.94136 48.639C7.50093 47.9051 7.41825 46.9956 7.57561 46.1544C7.76899 45.1182 8.33744 44.1297 9.22064 43.5549C10.1038 42.9801 11.3101 42.875 12.22 43.4072Z" fill="#14142D"/>
<path d="M12.0139 52.801C12.0192 52.8113 12.1722 52.747 12.4416 52.6159C12.7113 52.4853 13.0964 52.2855 13.5622 52.0191C14.4904 51.487 15.7483 50.6745 16.9303 49.5289C18.1135 48.3837 18.9354 47.1111 19.3671 46.1262C19.5865 45.6344 19.7252 45.2207 19.8022 44.9303C19.8799 44.6399 19.9072 44.4758 19.8969 44.4735C19.8632 44.4635 19.7169 45.1146 19.2531 46.0732C18.7977 47.0321 17.9735 48.2717 16.8062 49.4019C15.64 50.5328 14.4057 51.3543 13.4982 51.9115C13.0431 52.1902 12.6683 52.4059 12.4093 52.5553C12.1499 52.704 12.0079 52.7893 12.0139 52.801Z" fill="#455A64"/>
<path d="M9.96482 51.038C9.99716 51.0393 10.0108 50.6005 10.1419 49.911C10.2709 49.2222 10.5499 48.2857 11.0577 47.3438C11.5695 46.4036 12.2016 45.6581 12.7081 45.1737C13.2142 44.6869 13.5739 44.4359 13.5553 44.4099C13.5483 44.3998 13.4536 44.4549 13.2872 44.5642C13.1192 44.6706 12.8901 44.8466 12.6224 45.0817C12.0863 45.5494 11.4235 46.2989 10.9014 47.2591C10.3826 48.221 10.1168 49.1852 10.0178 49.89C9.96715 50.2425 9.94481 50.5305 9.94748 50.7296C9.94715 50.9283 9.95248 51.0376 9.96482 51.038Z" fill="#455A64"/>
<path d="M12.459 56.485C12.459 56.9708 12.8527 57.3645 13.3385 57.3645C13.8243 57.3645 14.218 56.9708 14.218 56.485C14.218 55.9992 13.8243 55.6055 13.3385 55.6055C12.8527 55.6055 12.459 55.9992 12.459 56.485Z" fill="#14142D"/>
<path d="M20.7403 55.957C20.7307 55.8739 20.1816 55.9696 19.7091 55.5685C19.2354 55.1684 19.194 54.5723 19.1167 54.5817C19.081 54.58 19.033 54.731 19.07 54.9791C19.1043 55.2228 19.2444 55.5629 19.5334 55.8086C19.8231 56.053 20.1636 56.12 20.3919 56.099C20.625 56.079 20.7503 55.994 20.7403 55.957Z" fill="#14142D"/>
<path d="M8.2093 85.8572C8.2093 85.8572 5.58673 95.1102 7.14474 100.134C8.07928 103.147 21.1965 119.749 21.8283 120.463C22.268 120.96 16.2197 136.643 15.1131 139.909L22.0673 143.28C22.0673 143.28 30.7695 124.776 31.3013 121.534C31.9845 117.369 22.195 99.5542 22.5548 99.3152L26.0735 91.9759L23.1532 84.4172C23.1532 84.4172 10.8455 84.5506 8.33233 84.7516L8.2093 85.8572Z" fill="#14142D"/>
<path d="M23.4235 91.3137C23.4235 91.3137 40.3892 97.333 42.3019 98.3519C44.3874 99.4625 45.9624 103.359 44.2237 106.671C42.485 109.983 27.2323 119.466 27.2323 119.466L23.4235 113.67L34.4615 104.976L22.5126 102.16L18.6211 97.5488L23.4235 91.3137Z" fill="#14142D"/>
<path d="M31.3033 121.428C31.2797 121.425 31.3817 121.006 31.295 120.248C31.2167 119.491 30.9223 118.422 30.4362 117.149C30.1944 116.511 29.9047 115.822 29.5993 115.078C29.4443 114.708 29.2976 114.315 29.1445 113.917C28.9935 113.52 28.8145 113.117 28.6368 112.703C27.9133 111.049 27.0894 109.241 26.2232 107.345C24.8236 104.303 23.5303 101.494 22.4928 99.239L22.4824 99.2167L22.4881 99.1933C22.9295 97.3653 23.3183 95.87 23.613 94.8354C23.7617 94.3186 23.8874 93.9172 23.9851 93.6481C24.0378 93.5144 24.0751 93.4118 24.1124 93.3467C24.1505 93.2821 24.1708 93.2507 24.1738 93.2531C24.1765 93.2554 24.1618 93.2911 24.1314 93.3564C24.1014 93.4218 24.0701 93.5274 24.0244 93.6615C23.9397 93.9335 23.8267 94.3373 23.6897 94.8564C23.4183 95.8953 23.0499 97.3953 22.6241 99.2253L22.6195 99.1797C23.6757 101.419 24.9853 104.225 26.3809 107.273C27.2471 109.17 28.067 110.979 28.7835 112.639C28.9598 113.056 29.1359 113.459 29.2872 113.864C29.4389 114.265 29.58 114.652 29.7327 115.024C30.0314 115.769 30.3155 116.463 30.5508 117.106C31.0243 118.39 31.3033 119.474 31.362 120.242C31.429 121.01 31.3033 121.428 31.3033 121.428Z" fill="#455A64"/>
<path opacity="0.3" d="M23.6629 94.7979C23.6296 94.9199 23.6629 99.2552 23.6629 99.2552L25.8397 102.945L24.1014 102.535L22.5547 99.3152L23.6629 94.7979Z" fill="black"/>
<path d="M33.2905 94.1354C32.8007 93.655 31.3647 92.3063 30.3555 91.3615C29.9694 91.0001 30.2185 90.3532 30.7473 90.3422L42.3658 90.1049C42.5382 90.1012 42.7035 90.1735 42.8182 90.3022L45.2468 93.0302C45.5805 93.4049 45.3234 93.9987 44.8217 94.0117L33.7176 94.3028C33.5582 94.3068 33.4045 94.2471 33.2905 94.1354Z" fill="#455A64"/>
<path d="M30.0015 92.0474C30.0015 92.0474 31.3518 91.4483 32.7018 91.3139C34.0521 91.1795 34.7272 91.748 35.4504 91.6806C36.1735 91.6133 38.1506 91.8063 38.1506 92.3368C38.1506 92.8672 35.402 93.0599 35.402 93.0599L37.8129 93.8314C37.8129 93.8314 40.5615 93.494 40.6098 93.8314C40.6582 94.1689 38.1506 94.5066 36.9934 94.6513C35.8361 94.796 29.1333 94.8924 28.1691 94.6513C27.2046 94.4102 20.3574 90.2633 20.3574 90.2633L23.6365 86.8879L30.0015 92.0474Z" fill="#FFBF9D"/>
<path d="M13.1151 61.865C13.1151 61.865 9.96141 62.3468 8.88285 65.7808C7.98598 68.6358 9.69669 80.3687 10.4238 82.4868C11.151 84.6049 18.9807 91.4228 19.6689 90.843C20.357 90.2632 24.1725 86.8878 24.1725 86.8878L18.0468 79.6482C18.0468 79.6482 18.3712 71.052 17.9658 69.43C17.5604 67.8083 14.8181 61.7026 13.1151 61.865Z" fill="#7A81FD"/>
<path d="M9.28779 76.1747C9.73589 80.2493 8.86103 82.001 8.86103 82.001C8.15254 82.5371 7.79713 83.424 7.72078 84.0888C7.67911 84.4512 7.96984 84.7643 8.33425 84.7516L23.1551 84.4172C23.1551 84.4172 25.2293 84.6149 25.1852 82.6485C25.1359 80.4533 25.7407 72.7407 24.9439 69.7087C24.6688 68.6624 21.2844 63.5607 21.2844 63.5607L14.2192 59.5544L13.4717 61.4799C13.4717 61.4799 11.2302 62.298 10.2063 63.6177C9.39681 64.6609 9.11242 65.3807 8.78801 66.4983C8.17488 68.6098 9.0474 73.9893 9.28779 76.1747Z" fill="#7A81FD"/>
<path d="M46.5498 69.3738C46.5498 69.3738 46.4205 69.2577 45.971 69.4028C45.5216 69.5478 44.244 70.1749 43.6645 70.3243C43.0851 70.4737 41.8288 70.9575 41.8288 70.9575C41.8288 70.9575 41.1293 70.8768 40.2411 71.4909C39.3526 72.105 36.8457 73.7611 36.8457 73.7611L37.7069 76.1993C37.7069 76.1993 38.6754 76.0369 38.9508 76.1186C39.2262 76.2003 40.0461 76.2506 40.7275 76.0459C41.409 75.8412 42.3316 75.4724 42.3316 75.4724C42.3316 75.4724 43.2301 75.5461 43.4658 75.22C43.7015 74.894 43.4481 74.3052 43.4481 74.3052C43.4481 74.3052 44.33 73.4963 43.9509 73.0416C43.5722 72.5868 43.1007 72.0834 43.1007 72.0834C43.1007 72.0834 45.7163 70.6971 46.2104 70.3296C46.7038 69.9626 46.8012 69.6678 46.5498 69.3738Z" fill="#FFBF9D"/>
<path d="M36.845 73.761L28.7105 76.4986L25.4238 78.1593L30.0375 80.6465L37.7062 76.1992L36.845 73.761Z" fill="#FFBF9D"/>
<path d="M41.7734 71.7509C41.8141 71.7366 41.9935 72.7044 41.6734 73.847C41.6607 73.891 41.6481 73.9347 41.6361 73.9757L41.5684 73.8654C42.1078 73.9624 42.5883 74.0574 42.934 74.1347C43.2894 74.2058 43.4771 74.3555 43.4595 74.3738C43.4465 74.3918 43.2608 74.2904 42.9123 74.2518C42.5629 74.2051 42.0775 74.1301 41.538 74.0357L41.4434 74.0191L41.4704 73.9254C41.4817 73.8857 41.494 73.8433 41.506 73.8007C41.8164 72.6981 41.7194 71.7519 41.7734 71.7509Z" fill="#FF9A6C"/>
<path d="M41.734 72.9079C41.74 72.8936 41.8067 72.9006 41.9017 72.9626C41.9944 73.0233 42.1151 73.1476 42.1668 73.3417L42.0794 73.281C42.2158 73.2563 42.3731 73.2393 42.5398 73.236C43.1366 73.223 43.5934 73.406 43.5771 73.4487C43.5637 73.4974 43.1083 73.3963 42.5432 73.4097C42.3841 73.413 42.2334 73.423 42.1014 73.436L42.0274 73.4433L42.0141 73.3753C41.9517 73.0596 41.7107 72.9376 41.734 72.9079Z" fill="#FF9A6C"/>
<path d="M42.9601 72.2839C42.9881 72.3256 42.769 72.511 42.572 72.793C42.3713 73.0727 42.2693 73.3405 42.2206 73.3281C42.1756 73.3208 42.2082 73.0037 42.4303 72.6927C42.65 72.3803 42.9381 72.2439 42.9601 72.2839Z" fill="#FF9A6C"/>
<path d="M21.1289 61.7715L21.9457 63.966C22.8349 64.8091 25.0491 67.1783 25.4695 68.809C26.0193 70.9415 28.4978 76.302 28.4978 76.302C28.4978 76.302 34.1184 73.9058 34.5061 74.2992C34.8939 74.6926 36.863 79.3116 36.2152 80.2808C35.5674 81.2501 29.8275 83.7909 27.5056 83.2201C25.1838 82.649 22.982 79.288 22.982 79.288L21.1289 61.7715Z" fill="#7A81FD"/>
<path d="M24.8201 68.8306C24.8314 68.8266 24.8961 69.0047 25.0038 69.3311C25.0612 69.4934 25.1228 69.6945 25.1729 69.9339C25.2272 70.1719 25.2996 70.4413 25.3392 70.7467C25.4509 71.3525 25.5049 72.0843 25.5326 72.8962C25.5459 73.7084 25.5179 74.6009 25.4596 75.5341C25.3316 77.4002 25.1992 79.0835 25.2142 80.3055C25.2079 80.6112 25.2262 80.8866 25.2325 81.129C25.2365 81.3717 25.2522 81.5801 25.2669 81.7501C25.2922 82.0909 25.3005 82.2806 25.2889 82.2822C25.2772 82.2839 25.2459 82.0972 25.1995 81.7568C25.1742 81.5867 25.1489 81.3784 25.1355 81.1346C25.1198 80.8916 25.0928 80.6142 25.0915 80.3075C25.0452 79.0789 25.1585 77.3848 25.2862 75.5234C25.3446 74.5922 25.3772 73.7054 25.3726 72.8989C25.3539 72.0933 25.3132 71.3672 25.2179 70.7654C25.0452 69.5578 24.7821 68.842 24.8201 68.8306Z" fill="#14142D"/>
<path d="M28.4142 79.4794C28.3661 79.4787 28.3378 78.7489 28.3508 77.8494C28.3638 76.9495 28.4132 76.221 28.4612 76.2217C28.5092 76.2223 28.5375 76.9522 28.5245 77.852C28.5115 78.7512 28.4622 79.4801 28.4142 79.4794Z" fill="#14142D"/>
<path d="M17.9273 68.4492C17.9333 68.4496 17.9377 68.5172 17.9404 68.6463C17.942 68.794 17.944 68.9807 17.9467 69.2101C17.9537 69.7228 17.963 70.4256 17.9747 71.2835C17.9954 73.0332 18.0867 75.4554 18.0147 78.1273C18.008 78.7868 18.0667 79.4433 18.3568 79.9844C18.6472 80.5242 19.0829 80.9606 19.4583 81.3997C20.2175 82.2669 20.903 83.0504 21.4845 83.7145C22.0449 84.3644 22.504 84.8965 22.8391 85.2852C22.9861 85.4613 23.1058 85.6046 23.2008 85.718C23.2822 85.8183 23.3225 85.8727 23.3179 85.8767C23.3132 85.8807 23.2642 85.8337 23.1742 85.741C23.0728 85.633 22.9451 85.4969 22.7877 85.3296C22.4423 84.9498 21.9692 84.43 21.3914 83.7952C20.802 83.1377 20.1065 82.3626 19.337 81.5047C18.9599 81.0693 18.5188 80.6379 18.2057 80.0641C17.8927 79.484 17.8337 78.7938 17.8403 78.1263C17.9123 75.4547 17.8403 73.0372 17.851 71.2845C17.851 70.4083 17.8613 69.6992 17.8783 69.2094C17.8857 68.9643 17.896 68.7743 17.9047 68.6456C17.9137 68.5162 17.9213 68.4489 17.9273 68.4492Z" fill="#14142D"/>
<path d="M12.8378 61.8646C12.8451 61.8842 12.5017 61.9809 11.9426 62.2833C11.3911 62.5874 10.6153 63.1235 9.94182 64.039C9.60508 64.4925 9.29801 65.0383 9.08497 65.6671C8.97261 65.9791 8.89559 66.3145 8.83925 66.6626C8.79057 67.0107 8.76223 67.3798 8.73789 67.7538C8.69221 68.504 8.69055 69.2945 8.74189 70.1107C8.79624 70.9252 8.90926 71.7707 8.99561 72.6372C9.17865 74.37 9.35336 76.0197 9.51206 77.5233C9.66709 79.0253 9.78879 80.3809 10.0995 81.4755C10.3979 82.5724 10.859 83.3859 11.2508 83.883C11.4451 84.1341 11.6159 84.3128 11.7349 84.4308C11.8549 84.5475 11.9196 84.6079 11.9152 84.6132C11.9132 84.6155 11.8949 84.6032 11.8602 84.5772C11.8262 84.5505 11.7742 84.5125 11.7109 84.4565C11.5832 84.3461 11.4028 84.1731 11.1978 83.9254C10.7847 83.4349 10.2989 82.6168 9.98116 81.5092C9.65142 80.4039 9.51639 79.0386 9.35303 77.5406C9.18999 76.0373 9.01095 74.388 8.82291 72.6559C8.73656 71.7887 8.62487 70.9469 8.57185 70.1214C8.52218 69.2975 8.52718 68.5 8.57786 67.7435C8.60486 67.3644 8.6352 66.999 8.68821 66.6393C8.74856 66.2819 8.83091 65.9385 8.94894 65.6197C9.17332 64.9772 9.49372 64.4235 9.84346 63.9657C10.5433 63.0422 11.3431 62.5134 11.9109 62.224C12.1973 62.0793 12.4294 61.9856 12.5907 61.9362C12.7511 61.8836 12.8361 61.8589 12.8378 61.8646Z" fill="#14142D"/>
<path d="M21.2362 64.0393C21.2292 64.049 21.1078 63.976 20.8931 63.8346C20.6511 63.6702 20.349 63.4649 19.9892 63.2208L20.0853 63.1728C20.0809 63.6342 20.0759 64.1747 20.0706 64.7695L20.0696 64.8962L19.9556 64.8388C19.3814 64.5501 18.749 64.232 18.0835 63.8976C16.8069 63.2501 15.6556 62.6553 14.8265 62.2169C14.4384 62.0079 14.111 61.8315 13.8482 61.6898C13.6192 61.5618 13.4948 61.4861 13.5002 61.4754C13.5055 61.4648 13.6402 61.5201 13.8786 61.6295C14.148 61.7578 14.4834 61.9175 14.8815 62.1072C15.725 62.5173 16.8849 63.0951 18.1618 63.7426C18.825 64.082 19.4551 64.4044 20.0273 64.6971L19.9119 64.7661C19.9312 64.172 19.9489 63.6316 19.9639 63.1705L19.9679 63.0524L20.0603 63.1221C20.4073 63.3842 20.6984 63.6042 20.9321 63.7806C21.1348 63.9386 21.2432 64.03 21.2362 64.0393Z" fill="#14142D"/>
<path d="M23.8513 138.156L21.1107 143.894C21.1107 143.894 26.3719 148.716 25.9748 149.828L13.9922 144.705L17.8737 135.582L23.8513 138.156Z" fill="#14142D"/>
<path d="M17.6186 141.82C17.3609 141.781 17.0942 141.959 17.0525 142.203C17.0108 142.447 17.2068 142.716 17.4642 142.76C17.7213 142.803 18.0487 142.599 18.0617 142.351C18.0747 142.103 17.8266 141.798 17.5683 141.815" fill="#E0E0E0"/>
<path d="M13.9922 144.706L14.4216 143.802L25.7497 149.052C25.7497 149.052 26.1885 149.499 25.9748 149.829L13.9922 144.706Z" fill="#455A64"/>
<path d="M21.3398 143.919C21.3141 143.974 21.0104 143.874 20.646 143.928C20.2795 143.974 20.0275 144.15 19.9831 144.105C19.9338 144.071 20.1639 143.778 20.6069 143.719C21.049 143.657 21.3744 143.874 21.3398 143.919Z" fill="white"/>
<path d="M22.3785 144.947C22.3685 145.006 22.0748 144.992 21.775 145.141C21.4706 145.281 21.3109 145.513 21.2539 145.485C21.1953 145.471 21.2946 145.13 21.671 144.951C22.0458 144.769 22.4002 144.893 22.3785 144.947Z" fill="white"/>
<path d="M22.4843 146.676C22.426 146.665 22.464 146.354 22.7451 146.116C23.0245 145.875 23.3519 145.873 23.3565 145.93C23.3699 145.99 23.1222 146.076 22.8948 146.276C22.6621 146.47 22.5447 146.696 22.4843 146.676Z" fill="white"/>
</svg>
