<svg width="602" height="287" viewBox="0 0 602 287" fill="none" xmlns="http://www.w3.org/2000/svg">
<path d="M301 287C467.238 287 602 151.342 602 -16C602 -183.342 467.238 -319 301 -319C134.762 -319 0 -183.342 0 -16C0 151.342 134.762 287 301 287Z" fill="#1A0224"/>
<path d="M240.187 58.1875C238.198 60.1766 238.094 61.6422 238.094 104.25C238.094 146.858 238.198 148.323 240.187 150.313C242.177 152.302 243.642 152.406 273.687 152.406H305.094V169.156V185.906H336.5H367.906V162.875V139.844H363.719C360.264 139.844 359.531 139.53 359.531 137.75C359.531 135.97 360.264 135.656 363.719 135.656H367.906V112.625V89.5938H363.719H359.531V74.9375C359.531 61.6422 359.322 60.0719 357.437 58.1875C355.344 56.0938 353.983 56.0938 298.812 56.0938C243.642 56.0938 242.281 56.0938 240.187 58.1875ZM355.134 70.9593L355.448 81.2188H298.812H242.281V71.4828C242.281 66.0391 242.595 61.328 243.014 61.014C243.328 60.5952 268.662 60.3859 299.231 60.4906L354.82 60.8046L355.134 70.9593ZM355.344 87.5C355.344 89.4891 354.611 89.5938 332.312 89.5938H309.281V112.625V135.656H332.312C354.611 135.656 355.344 135.761 355.344 137.75C355.344 139.739 354.611 139.844 330.219 139.844H305.094V144.031V148.219L274.002 148.009L242.805 147.695L242.491 116.498L242.281 85.4063H298.812C354.611 85.4063 355.344 85.4063 355.344 87.5ZM363.719 109.17L363.614 124.664L359.217 116.289C355.972 110.113 354.087 107.705 351.994 106.972C346.864 105.192 343.723 107.181 339.85 114.509L336.395 121.105L332.731 117.859C327.811 113.567 323.728 113.672 319.331 118.173C317.552 120.058 315.562 122.466 314.83 123.617C313.887 125.292 313.573 122.57 313.573 109.694L313.469 93.7813H338.594H363.719V109.17ZM352.412 112.311C353.355 113.358 355.972 118.069 358.38 122.78L362.672 131.469H349.062H335.453L339.745 122.78C344.666 113.044 346.55 110.531 349.062 110.531C350.005 110.531 351.575 111.369 352.412 112.311ZM330.114 121.209C333.045 124.245 333.673 126.758 332.312 129.375C331.37 131.155 330.219 131.469 323.309 131.469H315.458L317.761 127.281C322.577 118.697 326.136 116.917 330.114 121.209ZM363.719 162.875V181.719H336.5H309.281V162.875V144.031H336.5H363.719V162.875Z" fill="white"/>
<path d="M247.725 65.725C246.05 67.4 246.05 74.1 247.725 75.775C248.458 76.5078 250.656 77.0312 252.75 77.0312C254.844 77.0312 257.042 76.5078 257.775 75.775C259.45 74.1 259.45 67.4 257.775 65.725C256.1 64.05 249.4 64.05 247.725 65.725ZM254.844 70.75C254.844 72.1109 254.111 72.8438 252.75 72.8438C251.389 72.8438 250.656 72.1109 250.656 70.75C250.656 69.3891 251.389 68.6563 252.75 68.6563C254.111 68.6563 254.844 69.3891 254.844 70.75Z" fill="white"/>
<path d="M264.475 65.725C262.8 67.4 262.8 74.1 264.475 75.775C265.208 76.5078 267.406 77.0312 269.5 77.0312C271.594 77.0312 273.792 76.5078 274.525 75.775C276.2 74.1 276.2 67.4 274.525 65.725C272.85 64.05 266.15 64.05 264.475 65.725ZM271.594 70.75C271.594 72.1109 270.861 72.8438 269.5 72.8438C268.139 72.8438 267.406 72.1109 267.406 70.75C267.406 69.3891 268.139 68.6563 269.5 68.6563C270.861 68.6563 271.594 69.3891 271.594 70.75Z" fill="white"/>
<path d="M281.225 65.725C280.492 66.4578 279.969 68.6563 279.969 70.75C279.969 75.4609 281.539 77.0312 286.25 77.0312C288.344 77.0312 290.542 76.5078 291.275 75.775C292.95 74.1 292.95 67.4 291.275 65.725C289.6 64.05 282.9 64.05 281.225 65.725ZM288.344 70.75C288.344 72.1109 287.611 72.8438 286.25 72.8438C284.889 72.8438 284.156 72.1109 284.156 70.75C284.156 69.3891 284.889 68.6563 286.25 68.6563C287.611 68.6563 288.344 69.3891 288.344 70.75Z" fill="white"/>
<path d="M246.469 112.625V135.656H275.781H305.094V112.625V89.5938H275.781H246.469V112.625ZM300.906 112.625V131.469H275.781H250.656V112.625V93.7812H275.781H300.906V112.625Z" fill="white"/>
<path d="M259.764 98.7018C259.345 99.0158 259.031 105.402 259.031 112.835C259.031 122.885 259.345 126.444 260.392 126.863C262.486 127.595 292.008 114.405 292.008 112.625C292.008 111.683 286.564 108.647 277.352 104.564C262.172 97.9689 260.916 97.4455 259.764 98.7018ZM282.377 111.264C283.319 111.578 284.156 112.206 284.156 112.625C284.156 113.044 283.319 113.672 282.377 113.986C281.33 114.196 276.619 116.185 271.908 118.174L263.219 121.942V112.625V103.308L271.908 107.077C276.619 109.066 281.33 111.055 282.377 111.264Z" fill="white"/>
<path d="M319.75 100.063C318.598 101.214 317.656 103.098 317.656 104.25C317.656 105.402 318.598 107.286 319.75 108.438C320.902 109.589 322.786 110.531 323.937 110.531C325.089 110.531 326.973 109.589 328.125 108.438C329.277 107.286 330.219 105.402 330.219 104.25C330.219 103.098 329.277 101.214 328.125 100.063C326.973 98.9109 325.089 97.9688 323.937 97.9688C322.786 97.9688 320.902 98.9109 319.75 100.063ZM325.612 103.308C326.659 105.088 324.252 107.077 322.786 105.611C321.53 104.355 322.367 102.156 323.937 102.156C324.461 102.156 325.194 102.68 325.612 103.308Z" fill="white"/>
<path d="M330.219 160.781C330.219 172.611 330.114 173.344 328.125 173.344C326.345 173.344 326.031 172.611 326.031 169.156V164.969H319.75H313.469V171.25V177.531H336.5H359.531V167.063V156.594H353.25H346.969V164.969C346.969 172.611 346.759 173.344 344.875 173.344C342.886 173.344 342.781 172.611 342.781 160.781V148.219H336.5H330.219V160.781ZM338.594 162.875C338.594 172.611 338.489 173.344 336.5 173.344C334.511 173.344 334.406 172.611 334.406 162.875C334.406 153.139 334.511 152.406 336.5 152.406C338.489 152.406 338.594 153.139 338.594 162.875ZM355.344 167.063C355.344 172.611 355.134 173.344 353.25 173.344C351.366 173.344 351.156 172.611 351.156 167.063C351.156 161.514 351.366 160.781 353.25 160.781C355.134 160.781 355.344 161.514 355.344 167.063ZM321.844 171.25C321.844 172.611 321.111 173.344 319.75 173.344C318.389 173.344 317.656 172.611 317.656 171.25C317.656 169.889 318.389 169.156 319.75 169.156C321.111 169.156 321.844 169.889 321.844 171.25Z" fill="white"/>
<path d="M242.281 167.063V173.344H250.656H259.031V167.063V160.781H250.656H242.281V167.063ZM254.844 167.063C254.844 168.842 254.111 169.156 250.656 169.156C247.202 169.156 246.469 168.842 246.469 167.063C246.469 165.283 247.202 164.969 250.656 164.969C254.111 164.969 254.844 165.283 254.844 167.063Z" fill="white"/>
<path d="M263.219 167.063V173.344H271.594H279.969V167.063V160.781H271.594H263.219V167.063ZM275.781 167.063C275.781 168.842 275.048 169.156 271.594 169.156C268.139 169.156 267.406 168.842 267.406 167.063C267.406 165.283 268.139 164.969 271.594 164.969C275.048 164.969 275.781 165.283 275.781 167.063Z" fill="white"/>
<path d="M284.156 167.063V173.344H292.531H300.906V167.063V160.781H292.531H284.156V167.063ZM296.719 167.063C296.719 168.842 295.986 169.156 292.531 169.156C289.077 169.156 288.344 168.842 288.344 167.063C288.344 165.283 289.077 164.969 292.531 164.969C295.986 164.969 296.719 165.283 296.719 167.063Z" fill="white"/>
</svg>
