<svg width="276" height="200" viewBox="0 0 276 200" fill="none" xmlns="http://www.w3.org/2000/svg">
<path d="M276 179.821H2.94141V179.958H276V179.821Z" fill="#EBEBEB"/>
<path d="M248.638 188.609H230.551V188.746H248.638V188.609Z" fill="#EBEBEB"/>
<path d="M183.828 190.093H179.082V190.229H183.828V190.093Z" fill="#EBEBEB"/>
<path d="M230.003 183.54H219.523V183.677H230.003V183.54Z" fill="#EBEBEB"/>
<path d="M55.1786 184.458H31.5918V184.595H55.1786V184.458Z" fill="#EBEBEB"/>
<path d="M63.5018 184.458H60.0449V184.595H63.5018V184.458Z" fill="#EBEBEB"/>
<path d="M125.901 186.763H74.7402V186.899H125.901V186.763Z" fill="#EBEBEB"/>
<path d="M132.377 155.464H26.9269C25.2067 155.464 23.8086 154.066 23.8086 152.346V4.11345C23.8086 2.39318 25.2067 0.995117 26.9269 0.995117H132.382C134.102 0.995117 135.501 2.39318 135.501 4.11345V152.346C135.495 154.066 134.097 155.464 132.377 155.464ZM26.9269 1.13165C25.2831 1.13165 23.9451 2.46963 23.9451 4.11345V152.346C23.9451 153.99 25.2831 155.328 26.9269 155.328H132.382C134.026 155.328 135.364 153.99 135.364 152.346V4.11345C135.364 2.46963 134.026 1.13165 132.382 1.13165H26.9269Z" fill="#212121"/>
<path d="M250.501 155.464H145.046C143.326 155.464 141.928 154.066 141.928 152.346V4.11345C141.928 2.39318 143.326 0.995117 145.046 0.995117H250.501C252.222 0.995117 253.62 2.39318 253.62 4.11345V152.346C253.62 154.066 252.222 155.464 250.501 155.464ZM145.046 1.13165C143.402 1.13165 142.064 2.46963 142.064 4.11345V152.346C142.064 153.99 143.402 155.328 145.046 155.328H250.501C252.145 155.328 253.483 153.99 253.483 152.346V4.11345C253.483 2.46963 252.145 1.13165 250.501 1.13165H145.046Z" fill="#212121"/>
<path d="M19.5641 159.847C19.5696 159.629 20.2959 138.177 23.7856 134.786C27.177 131.488 31.0763 134.666 31.2401 134.802L31.5896 134.382C31.5459 134.344 27.1497 130.756 23.4088 134.398C19.7607 137.943 19.0507 158.941 19.0234 159.831L19.5641 159.847Z" fill="#899447"/>
<path d="M19.2719 164.057C19.2992 163.8 21.6584 138.302 12.3471 127.62L11.9375 127.981C21.0959 138.488 18.7585 163.751 18.7312 164.008L19.2719 164.057Z" fill="#899447"/>
<path d="M19.6153 161.364L20.1615 161.326C20.1396 161.036 18.3374 132.338 25.1694 126.057L24.798 125.653C17.7749 132.114 19.5334 160.168 19.6153 161.364Z" fill="#899447"/>
<path d="M18.7254 161.349L19.2715 161.344C19.2661 160.552 19.0476 141.962 13.7667 138.931C12.5925 138.26 11.4457 138.145 10.348 138.598C7.15318 139.92 5.56944 145.605 5.50391 145.845L6.02818 145.987C6.04456 145.933 7.60646 140.318 10.55 139.101C11.4784 138.718 12.4669 138.817 13.4881 139.401C18.5015 142.279 18.7254 161.158 18.7254 161.349Z" fill="#899447"/>
<path d="M20.7755 161.359L21.3216 161.326C21.3107 161.179 20.5243 146.636 24.4509 141.507C25.4011 140.268 26.4333 139.673 27.5255 139.749C30.0977 139.929 32.2549 143.692 32.2767 143.73L32.7519 143.463C32.659 143.299 30.4309 139.405 27.5637 139.203C26.2804 139.11 25.0844 139.776 24.014 141.174C19.9672 146.466 20.7427 160.753 20.7755 161.359Z" fill="#899447"/>
<path d="M19.9196 163.336C20.0288 161.927 22.4864 128.712 18.1611 122.857L17.7188 123.185C21.9239 128.876 19.4008 162.953 19.3735 163.297L19.9196 163.336Z" fill="#899447"/>
<path d="M9.16574 141.966C9.16574 141.966 11.7598 142.922 10.9898 145.183C10.2197 147.444 2.0116 151.163 2.0116 151.163C2.0116 151.163 -1.42894 148.012 1.73308 142.889C4.88964 137.756 9.09474 140.35 9.16574 141.966Z" fill="#939778"/>
<path d="M20.456 137.663C20.456 137.663 17.6926 137.548 17.5343 139.929C17.3759 142.31 23.5252 148.902 23.5252 148.902C23.5252 148.902 27.9105 147.318 26.9712 141.371C26.0209 135.429 21.1441 136.199 20.456 137.663Z" fill="#939778"/>
<path d="M22.7912 126.26C22.7912 126.26 20.9508 126.063 21.0983 124.938C21.2457 123.813 28.2633 120.925 32.4029 125.599C32.4029 125.599 29.7542 130.154 25.9205 130.214C22.0867 130.274 22.7912 126.26 22.7912 126.26Z" fill="#939778"/>
<path d="M19.3576 123.535C19.3576 123.535 21.0287 124.343 21.4929 123.311C21.9626 122.279 17.5336 116.118 11.5481 117.893C11.5481 117.893 11.3898 123.158 14.6119 125.239C17.834 127.308 19.3576 123.535 19.3576 123.535Z" fill="#939778"/>
<path d="M28.0884 141.055C28.0884 141.055 26.816 140.028 28.1867 139.526C29.5575 139.023 36.2965 139.165 36.3675 145.839C36.3675 145.839 28.5253 147.144 27.5532 144.599C26.5811 142.065 28.0884 141.055 28.0884 141.055Z" fill="#939778"/>
<path d="M12.0897 126.091C12.0897 126.091 13.3621 125.064 11.9914 124.562C10.6206 124.059 3.88154 124.201 3.81055 130.875C3.81055 130.875 11.6528 132.18 12.6249 129.635C13.597 127.096 12.0897 126.091 12.0897 126.091Z" fill="#939778"/>
<path d="M16.2347 131.464C16.2347 131.464 16.3439 130.214 15.339 130.705C14.3287 131.197 10.8172 134.981 14.4598 138.575C14.4598 138.575 19.3585 134.949 18.4738 133.059C17.5945 131.169 16.2347 131.464 16.2347 131.464Z" fill="#939778"/>
<path d="M29.2256 133.246C29.2256 133.246 28.4665 132.252 29.5806 132.126C30.6947 132.001 35.6862 133.333 34.5229 138.319C34.5229 138.319 28.4447 137.86 28.1825 135.791C27.9149 133.721 29.2256 133.246 29.2256 133.246Z" fill="#939778"/>
<path d="M8.68164 179.839H29.5433L31.7933 157H6.43164L8.68164 179.839Z" fill="#E1E7BF"/>
<path d="M5.3203 159.521H32.9102V154.481H5.3203V159.521Z" fill="#C6CD9A"/>
<path d="M132.776 40.7627H77.2246V152.466H132.776V40.7627Z" fill="#FAFAFA"/>
<path d="M134.059 39.2441H75.9414V44.7272H134.059V39.2441Z" fill="#F0F0F0"/>
<path d="M134.059 45.333H75.9414V48.0745H134.059V45.333Z" fill="#F0F0F0"/>
<path d="M134.059 49.4014H75.9414V52.1429H134.059V49.4014Z" fill="#F0F0F0"/>
<path d="M134.059 53.4697H75.9414V56.2112H134.059V53.4697Z" fill="#F0F0F0"/>
<path d="M134.059 57.5381H75.9414V60.2796H134.059V57.5381Z" fill="#F0F0F0"/>
<path d="M134.059 61.6016H75.9414V64.3431H134.059V61.6016Z" fill="#F0F0F0"/>
<path d="M134.059 65.6699H75.9414V68.4114H134.059V65.6699Z" fill="#F0F0F0"/>
<path d="M134.059 69.7402H75.9414V72.4817H134.059V69.7402Z" fill="#F0F0F0"/>
<path d="M134.059 73.8076H75.9414V76.5491H134.059V73.8076Z" fill="#F0F0F0"/>
<path d="M134.059 77.877H75.9414V80.6185H134.059V77.877Z" fill="#F0F0F0"/>
<path d="M134.059 81.9453H75.9414V84.6868H134.059V81.9453Z" fill="#F0F0F0"/>
<path d="M134.059 86.0078H75.9414V88.7493H134.059V86.0078Z" fill="#F0F0F0"/>
<path d="M134.059 90.0752H75.9414V92.8167H134.059V90.0752Z" fill="#F0F0F0"/>
<path d="M134.059 94.1445H75.9414V96.886H134.059V94.1445Z" fill="#F0F0F0"/>
<path d="M134.059 98.2129H75.9414V100.954H134.059V98.2129Z" fill="#F0F0F0"/>
<path d="M134.059 102.282H75.9414V105.024H134.059V102.282Z" fill="#F0F0F0"/>
<path d="M134.059 106.346H75.9414V109.087H134.059V106.346Z" fill="#F0F0F0"/>
<path d="M134.059 110.415H75.9414V113.157H134.059V110.415Z" fill="#F0F0F0"/>
<path d="M134.059 114.483H75.9414V117.225H134.059V114.483Z" fill="#F0F0F0"/>
<path d="M134.059 118.551H75.9414V121.292H134.059V118.551Z" fill="#F0F0F0"/>
<path d="M134.059 122.619H75.9414V125.361H134.059V122.619Z" fill="#F0F0F0"/>
<path d="M134.059 126.688H75.9414V129.429H134.059V126.688Z" fill="#F0F0F0"/>
<path d="M134.059 130.751H75.9414V133.492H134.059V130.751Z" fill="#F0F0F0"/>
<path d="M134.059 134.819H75.9414V137.561H134.059V134.819Z" fill="#F0F0F0"/>
<path d="M134.059 138.888H75.9414V141.629H134.059V138.888Z" fill="#F0F0F0"/>
<path d="M134.059 142.957H75.9414V145.699H134.059V142.957Z" fill="#F0F0F0"/>
<path d="M134.059 147.026H75.9414V149.768H134.059V147.026Z" fill="#F0F0F0"/>
<path d="M134.059 151.09H75.9414V153.831H134.059V151.09Z" fill="#F0F0F0"/>
<path d="M201.717 40.7627H146.166V152.466H201.717V40.7627Z" fill="#FAFAFA"/>
<path d="M202.999 39.2441H144.881V44.7272H202.999V39.2441Z" fill="#F0F0F0"/>
<path d="M202.999 45.333H144.881V45.8354H202.999V45.333Z" fill="#F0F0F0"/>
<path d="M202.999 46.4785H144.881V46.9809H202.999V46.4785Z" fill="#F0F0F0"/>
<path d="M202.999 47.6211H144.881V48.1235H202.999V47.6211Z" fill="#F0F0F0"/>
<path d="M202.999 48.7695H144.881V49.272H202.999V48.7695Z" fill="#F0F0F0"/>
<path d="M202.999 49.9102H144.881V50.4126H202.999V49.9102Z" fill="#F0F0F0"/>
<path d="M202.999 51.0566H144.881V51.5591H202.999V51.0566Z" fill="#F0F0F0"/>
<path d="M202.999 52.1982H144.881V52.7007H202.999V52.1982Z" fill="#F0F0F0"/>
<path d="M202.999 53.3438H144.881V53.8462H202.999V53.3438Z" fill="#F0F0F0"/>
<path d="M202.999 54.4922H144.881V54.9946H202.999V54.4922Z" fill="#F0F0F0"/>
<path d="M202.999 55.6338H144.881V56.1362H202.999V55.6338Z" fill="#F0F0F0"/>
<path d="M202.999 56.7793H144.881V57.2817H202.999V56.7793Z" fill="#F0F0F0"/>
<path d="M202.999 57.9209H144.881V58.4233H202.999V57.9209Z" fill="#F0F0F0"/>
<path d="M202.999 59.0684H144.881V59.5708H202.999V59.0684Z" fill="#F0F0F0"/>
<path d="M202.999 60.21H144.881V60.7124H202.999V60.21Z" fill="#F0F0F0"/>
<path d="M202.999 61.3555H144.881V61.8579H202.999V61.3555Z" fill="#F0F0F0"/>
<path d="M202.999 62.5029H144.881V63.0054H202.999V62.5029Z" fill="#F0F0F0"/>
<path d="M202.999 63.6445H144.881V64.147H202.999V63.6445Z" fill="#F0F0F0"/>
<path d="M202.999 64.791H144.881V65.2934H202.999V64.791Z" fill="#F0F0F0"/>
<path opacity="0.5" d="M242.394 167.868H142.612C141.509 167.868 140.619 166.973 140.619 165.875V56.9465C140.619 55.8433 141.515 54.9531 142.612 54.9531H242.394C243.497 54.9531 244.387 55.8488 244.387 56.9465V165.875C244.392 166.978 243.497 167.868 242.394 167.868Z" fill="#462682"/>
<path d="M239.116 165.685H139.335C138.232 165.685 137.342 164.789 137.342 163.691V54.7629C137.342 53.6597 138.237 52.7695 139.335 52.7695H239.116C240.219 52.7695 241.11 53.6652 241.11 54.7629V163.691C241.115 164.795 240.219 165.685 239.116 165.685Z" fill="#462682"/>
<path opacity="0.8" d="M239.116 165.685H139.335C138.232 165.685 137.342 164.789 137.342 163.691V54.7629C137.342 53.6597 138.237 52.7695 139.335 52.7695H239.116C240.219 52.7695 241.11 53.6652 241.11 54.7629V163.691C241.115 164.795 240.219 165.685 239.116 165.685Z" fill="white"/>
<path opacity="0.5" d="M106.204 148.817H55.5734C54.4702 148.817 53.5801 147.921 53.5801 146.824V54.2785C53.5801 53.1753 54.4757 52.2852 55.5734 52.2852H106.204C107.307 52.2852 108.197 53.1808 108.197 54.2785V146.824C108.203 147.927 107.307 148.817 106.204 148.817Z" fill="#462682"/>
<path d="M102.927 145.54H52.2961C51.1929 145.54 50.3027 144.644 50.3027 143.546V51.0011C50.3027 49.898 51.1984 49.0078 52.2961 49.0078H102.927C104.03 49.0078 104.92 49.9035 104.92 51.0011V143.546C104.925 144.649 104.03 145.54 102.927 145.54Z" fill="#462682"/>
<path opacity="0.8" d="M102.927 145.54H52.2961C51.1929 145.54 50.3027 144.644 50.3027 143.546V51.0011C50.3027 49.898 51.1984 49.0078 52.2961 49.0078H102.927C104.03 49.0078 104.92 49.9035 104.92 51.0011V143.546C104.925 144.649 104.03 145.54 102.927 145.54Z" fill="white"/>
<path d="M239.445 33.5468H52.4053C51.2421 33.5468 50.3027 32.6075 50.3027 31.4443V22.9522C50.3027 21.7889 51.2421 20.8496 52.4053 20.8496H239.445C240.608 20.8496 241.548 21.7889 241.548 22.9522V31.4443C241.553 32.6075 240.608 33.5468 239.445 33.5468Z" fill="#BB0070"/>
<path opacity="0.6" d="M222.142 27.2001C222.142 28.5708 221.045 29.6795 219.69 29.6795C218.336 29.6795 217.238 28.5708 217.238 27.2001C217.238 25.8293 218.336 24.7207 219.69 24.7207C221.045 24.7207 222.142 25.8293 222.142 27.2001Z" fill="white"/>
<path opacity="0.6" d="M229.812 27.2001C229.812 28.5708 228.715 29.6795 227.36 29.6795C226.006 29.6795 224.908 28.5708 224.908 27.2001C224.908 25.8293 226.006 24.7207 227.36 24.7207C228.715 24.7207 229.812 25.8293 229.812 27.2001Z" fill="white"/>
<path opacity="0.6" d="M237.474 27.2001C237.474 28.5708 236.377 29.6795 235.022 29.6795C233.668 29.6795 232.57 28.5708 232.57 27.2001C232.57 25.8293 233.668 24.7207 235.022 24.7207C236.377 24.7207 237.474 25.8293 237.474 27.2001Z" fill="white"/>
<path opacity="0.6" d="M61.062 24.0117H54.7598V30.3849H61.062V24.0117Z" fill="white"/>
<path d="M101.528 64.3926H42.6348V75.659H101.528V64.3926Z" fill="#ADC804"/>
<path opacity="0.2" d="M101.528 64.3926H42.6348V75.659H101.528V64.3926Z" fill="black"/>
<path d="M51.1103 67.6748H46.4082V72.3769H51.1103V67.6748Z" fill="white"/>
<path d="M47.4355 70.039L48.3148 71.164L50.0842 68.8867" stroke="#ADC804" stroke-width="1.5" stroke-miterlimit="10" stroke-linecap="round" stroke-linejoin="round"/>
<path d="M98.4266 72.6657H93.6973V69.471H98.4266V72.6657ZM96.062 67.1172C94.9533 67.1172 94.0577 68.0183 94.0577 69.1214H94.6038C94.6038 68.3186 95.2592 67.6633 96.062 67.6633C96.8647 67.6633 97.5201 68.3186 97.5201 69.1214H98.0662C98.0662 68.0183 97.1651 67.1172 96.062 67.1172Z" fill="#ADC804"/>
<path d="M92.8699 85.2227H33.9766V96.4891H92.8699V85.2227Z" fill="#ADC804"/>
<path opacity="0.4" d="M92.8699 85.2227H33.9766V96.4891H92.8699V85.2227Z" fill="white"/>
<path d="M42.4521 88.499H37.75V93.2011H42.4521V88.499Z" fill="white"/>
<path d="M89.7645 90.2979H85.0352V93.4926H89.7645V90.2979Z" fill="white"/>
<path d="M89.405 89.9466H88.8589C88.8589 89.1438 88.2035 88.4885 87.4007 88.4885C86.5979 88.4885 85.9426 89.1438 85.9426 89.9466H85.3965C85.3965 88.838 86.2976 87.9424 87.4007 87.9424C88.5094 87.9424 89.405 88.8435 89.405 89.9466Z" fill="white"/>
<path d="M101.827 107.022H42.9336V118.289H101.827V107.022Z" fill="#ADC804"/>
<path opacity="0.4" d="M101.827 107.022H42.9336V118.289H101.827V107.022Z" fill="white"/>
<path d="M51.4111 110.306H46.709V115.008H51.4111V110.306Z" fill="white"/>
<path d="M47.7363 112.664L48.6156 113.795L50.385 111.518" stroke="#ADC804" stroke-width="1.5" stroke-miterlimit="10" stroke-linecap="round" stroke-linejoin="round"/>
<g opacity="0.6">
<path d="M98.7216 112.095H93.9922V115.29H98.7216V112.095Z" fill="white"/>
<path d="M98.3601 111.751H97.8139C97.8139 110.949 97.1586 110.293 96.3558 110.293C95.553 110.293 94.8977 110.949 94.8977 111.751H94.3516C94.3516 110.643 95.2527 109.747 96.3558 109.747C97.459 109.742 98.3601 110.643 98.3601 111.751Z" fill="white"/>
</g>
<path d="M227.494 94.7441H181.506V124.655H227.494V94.7441Z" fill="#462682"/>
<path opacity="0.5" d="M227.494 94.7441H181.506V124.655H227.494V94.7441Z" fill="white"/>
<path d="M225.814 100.348H183.189V123.154H225.814V100.348Z" fill="#462682"/>
<path d="M218.188 103.755H186.66V104.738H218.188V103.755Z" fill="white"/>
<path d="M201.788 106.764H186.66V107.747H201.788V106.764Z" fill="white"/>
<path d="M205.714 109.767H186.66V110.75H205.714V109.767Z" fill="white"/>
<path d="M193.377 112.771H186.66V113.754H193.377V112.771Z" fill="white"/>
<path d="M191.007 115.775H186.66V116.758H191.007V115.775Z" fill="white"/>
<path d="M228.811 153.724V170.403C228.811 171.353 228.112 172.134 227.205 172.265C227.112 172.281 227.019 172.287 226.921 172.287H205.497C204.459 172.287 203.607 171.446 203.607 170.397V153.719C203.607 153.424 203.673 153.14 203.799 152.894C204.099 152.261 204.749 151.824 205.492 151.824H213.885C214.295 151.824 214.677 151.693 214.999 151.463C215.311 151.239 215.556 150.917 215.682 150.524C215.939 149.743 216.66 149.219 217.479 149.219H221.952C222.771 149.219 223.497 149.743 223.748 150.524C223.999 151.299 224.726 151.824 225.545 151.824H226.916C227.964 151.835 228.811 152.681 228.811 153.724Z" fill="#462682"/>
<path opacity="0.3" d="M227.204 154.511V172.259C227.193 172.27 227.187 172.276 227.182 172.281H205.501C204.463 172.281 203.611 171.44 203.611 170.392V153.713C203.611 153.418 203.677 153.134 203.802 152.889H225.593C226.483 152.9 227.204 153.626 227.204 154.511Z" fill="white"/>
<path d="M177.684 129.177V150.033L173.61 154.107H158.668V129.177H177.684Z" fill="#462682"/>
<path opacity="0.4" d="M177.684 129.177V150.033L173.61 154.107H158.668V129.177H177.684Z" fill="white"/>
<path d="M177.685 150.033H173.611V154.107L177.685 150.033Z" fill="#462682"/>
<path d="M175.382 133.409H161.041V134.19H175.382V133.409Z" fill="#462682"/>
<path d="M173.105 135.802H161.041V136.583H173.105V135.802Z" fill="#462682"/>
<path d="M175.382 138.197H161.041V138.978H175.382V138.197Z" fill="#462682"/>
<path d="M166.398 140.597H161.041V141.378H166.398V140.597Z" fill="#462682"/>
<path d="M164.509 142.993H161.041V143.774H164.509V142.993Z" fill="#462682"/>
<path d="M190.501 49.5703H151.623V81.6929H190.501V49.5703Z" fill="#BB0070"/>
<path opacity="0.6" d="M151.623 49.5703V81.6929H190.501V49.5703H151.623ZM189.234 80.4259H152.895V50.8373H189.234V80.4259Z" fill="white"/>
<path opacity="0.3" d="M152.898 71.656L164.039 63.5625L172.318 71.656L180.598 66.9266L189.237 72.2458V80.4266H152.898V71.656Z" fill="white"/>
<path opacity="0.6" d="M179.141 58.1391C179.141 59.6082 177.951 60.7987 176.482 60.7987C175.013 60.7987 173.822 59.6082 173.822 58.1391C173.822 56.67 175.013 55.4795 176.482 55.4795C177.951 55.474 179.141 56.6646 179.141 58.1391Z" fill="white"/>
<path d="M193.041 83.0293V84.1215H191.949" stroke="#263238" stroke-miterlimit="10"/>
<path d="M190.235 84.1221H151.133" stroke="#263238" stroke-miterlimit="10" stroke-dasharray="4.18 3.14"/>
<path d="M150.276 84.1215H149.184V83.0293" stroke="#263238" stroke-miterlimit="10"/>
<path d="M149.184 81.4459V49.083" stroke="#263238" stroke-miterlimit="10" stroke-dasharray="3.85 2.89"/>
<path d="M149.184 48.2905V47.1982H150.276" stroke="#263238" stroke-miterlimit="10"/>
<path d="M151.99 47.1982H191.092" stroke="#263238" stroke-miterlimit="10" stroke-dasharray="4.18 3.14"/>
<path d="M191.949 47.1982H193.041V48.2905" stroke="#263238" stroke-miterlimit="10"/>
<path d="M193.041 49.8682V82.2365" stroke="#263238" stroke-miterlimit="10" stroke-dasharray="3.85 2.89"/>
<path d="M193.894 46.3359H192.174V48.0562H193.894V46.3359Z" fill="#263238"/>
<path d="M193.894 83.2598H192.174V84.98H193.894V83.2598Z" fill="#263238"/>
<path d="M150.037 83.2598H148.316V84.98H150.037V83.2598Z" fill="#263238"/>
<path d="M150.037 46.3359H148.316V48.0562H150.037V46.3359Z" fill="#263238"/>
<path d="M171.92 46.3359H170.199V48.0562H171.92V46.3359Z" fill="#263238"/>
<path d="M171.97 83.2598H170.25V84.98H171.97V83.2598Z" fill="#263238"/>
<path d="M193.894 64.8008H192.174V66.5211H193.894V64.8008Z" fill="#263238"/>
<path d="M150.037 64.8008H148.316V66.5211H150.037V64.8008Z" fill="#263238"/>
<path d="M98.5118 100.205L92.7011 104.924C92.7011 104.924 91.2812 104.951 90.8334 105.421C90.3856 105.89 88.6708 109.374 88.9165 109.85C89.1623 110.325 92.0294 111.264 92.6301 110.701C93.2363 110.139 94.2849 106.911 94.263 106.567L101.685 101.587L98.5118 100.205Z" fill="#EBB376"/>
<path d="M95.3926 102.383L96.6923 105.217C96.6923 105.217 104.682 101.476 106.413 99.2974C106.856 98.7349 107.467 97.8392 108.128 96.818C109.215 95.1305 110.444 93.0989 111.296 91.6736C111.929 90.6086 112.355 89.8823 112.355 89.8823L107.833 82.75C106.845 83.5091 103.819 95.6984 103.279 96.3538C102.738 97.0091 95.3926 102.383 95.3926 102.383Z" fill="#462682"/>
<path opacity="0.1" d="M108.129 96.8179C109.215 95.1304 110.444 93.0988 111.296 91.6735L109.194 86.4854C109.194 86.4854 108.052 92.438 108.129 96.8179Z" fill="black"/>
<path d="M144.965 73.2428L150.694 68.7974C150.694 68.7974 151.158 67.454 151.742 67.17C152.327 66.8915 156.171 66.3235 156.548 66.7003C156.925 67.0772 156.941 70.0972 156.22 70.4959C155.499 70.9 152.108 70.9109 151.786 70.7853L145.533 75.3563L144.965 73.2428Z" fill="#EBB376"/>
<path d="M96.6172 195.437L100.047 196.043L101.456 191.368L102.739 187.076L98.7853 185.694L97.6384 190.85L96.6172 195.437Z" fill="#EBB376"/>
<path opacity="0.2" d="M97.6172 190.96L101.44 191.462L102.729 187.126L98.7804 185.723L97.6172 190.96Z" fill="black"/>
<path d="M119.506 195.525H122.99L123.558 190.85L124.077 186.492L119.943 185.864L119.713 190.987L119.506 195.525Z" fill="#EBB376"/>
<path opacity="0.2" d="M119.713 191.291L123.558 191.121L124.076 186.627L119.942 185.928L119.713 191.291Z" fill="black"/>
<path d="M97.2969 187.209L102.933 188.203C108.618 174.031 112.665 162.208 115.521 152.394C117.061 147.097 118.279 142.389 119.202 138.211L118.967 153.634V188.427H124.652C138.572 122.347 128.71 106.984 128.71 106.984L112.053 104.199C111.419 106.684 110.939 110.747 110.66 113.549L109.907 119.07L103.397 152.694L97.2969 187.209Z" fill="#263238"/>
<path d="M103.815 187.507L96.8242 185.186L96.9171 188.162L102.7 190.002L103.815 187.507Z" fill="#462682"/>
<path opacity="0.6" d="M103.815 187.507L96.8242 185.186L96.9171 188.162L102.7 190.002L103.815 187.507Z" fill="white"/>
<path d="M125.393 187.83L118.107 186.76L118.714 189.676L124.726 190.484L125.393 187.83Z" fill="#462682"/>
<path opacity="0.6" d="M125.393 187.83L118.107 186.76L118.714 189.676L124.726 190.484L125.393 187.83Z" fill="white"/>
<path opacity="0.2" d="M114.754 154.986C115.016 154.107 115.295 153.244 115.546 152.392C116.938 147.586 117.872 143.261 118.964 139.383V139.373L119.532 132.229C119.532 132.229 115.972 124.382 117.304 118.86C117.179 119.172 114.825 125.19 115.748 131.203C115.748 131.197 116.196 142.043 114.754 154.986Z" fill="black"/>
<path d="M114.273 75.5818C114.316 75.6146 114.371 75.6419 114.42 75.6638C115.097 76.0242 115.857 76.3519 116.687 76.4283C119.008 76.6577 120.509 76.1443 121.383 74.992C121.389 74.992 121.389 74.992 121.389 74.992C122.596 73.2772 122.596 70.5193 121.973 67.2754C121.689 65.7845 121.307 64.5066 120.761 63.5454C120.755 63.5345 120.75 63.4963 120.744 63.4908C120.717 63.4526 120.695 63.398 120.668 63.3597C119.865 62.0217 118.718 61.2353 117.031 61.0606C116.446 61.0005 115.796 61.0114 115.07 61.0934C108.681 61.8579 108.91 72.5782 114.273 75.5818Z" fill="#EBB376"/>
<path opacity="0.2" d="M114.42 75.6639C115.097 76.0243 115.845 76.2591 116.675 76.341C119.002 76.5704 120.493 75.9861 121.361 74.8174C120.285 75.2051 118.805 75.4946 117.271 75.014C116.304 74.7136 115.316 75.0577 114.42 75.6639Z" fill="black"/>
<path d="M113.939 80.8895C113.366 82.6753 115.654 83.6474 115.654 83.6474C119.679 82.3749 120.596 80.3925 120.596 80.3925C117.538 78.3937 118.936 73.7354 118.936 73.7354L118.248 73.992L113.557 74.4398C113.557 74.4398 114.594 77.0175 114.709 77.5909C114.709 77.5964 114.714 77.6019 114.714 77.6073C115.293 80.611 113.939 80.8895 113.939 80.8895Z" fill="#EBB376"/>
<path d="M120.762 63.5074C120.762 63.5074 121.696 67.9364 117.704 70.4104C117.704 70.4104 116.486 75.2926 113.815 75.7077C110.173 76.2702 106.274 71.4917 106.852 66.0305C107.601 58.9528 117.933 57.0414 120.762 63.5074Z" fill="#263238"/>
<path d="M119.684 68.8441C119.591 68.1451 118.876 67.0474 117.816 67.3478C116.713 67.6591 116.451 70.5098 119.291 70.7665C119.695 70.8047 119.875 70.3023 119.684 68.8441Z" fill="#EBB376"/>
<path d="M123.353 194.864H119.47C119.306 194.864 119.159 194.978 119.126 195.142L118.329 198.746C118.263 199.069 118.465 199.385 118.787 199.456C118.831 199.467 118.875 199.467 118.919 199.467C120.508 199.44 120.639 199.342 122.632 199.342C123.861 199.342 127.575 199.473 129.273 199.473C130.971 199.473 131.195 197.796 130.496 197.638C127.378 196.961 125.03 196.016 124.03 195.12C123.85 194.951 123.604 194.858 123.353 194.864Z" fill="#263238"/>
<path d="M123.633 195.42C123.594 195.409 123.567 195.376 123.562 195.338C123.556 195.3 123.573 195.262 123.605 195.245C123.747 195.153 125.058 194.35 125.506 194.579C125.61 194.628 125.675 194.732 125.67 194.847C125.697 195.043 125.62 195.234 125.468 195.36C125.238 195.513 124.965 195.589 124.692 195.568C124.337 195.562 123.982 195.513 123.633 195.42ZM123.911 195.289C124.381 195.447 124.9 195.42 125.353 195.218C125.451 195.131 125.5 195 125.484 194.874C125.478 194.798 125.446 194.759 125.424 194.759C125.386 194.738 125.342 194.732 125.298 194.732C124.801 194.83 124.332 195.016 123.911 195.289Z" fill="#462682"/>
<path d="M123.605 195.443C123.578 195.422 123.556 195.389 123.561 195.356C123.567 195.301 123.665 194.138 124.135 193.756C124.244 193.658 124.397 193.614 124.539 193.63C124.686 193.63 124.817 193.734 124.85 193.882C124.932 194.307 124.124 195.198 123.709 195.427H123.665C123.643 195.438 123.627 195.443 123.605 195.443ZM124.255 193.871C123.971 194.237 123.802 194.673 123.774 195.138C124.189 194.826 124.708 194.149 124.654 193.887C124.648 193.86 124.637 193.789 124.517 193.789H124.473C124.391 193.789 124.315 193.816 124.255 193.871Z" fill="#462682"/>
<path d="M100.181 194.864H96.2982C96.1344 194.864 95.9869 194.978 95.9542 195.142L95.1569 198.746C95.0913 199.069 95.2934 199.385 95.6156 199.456C95.6593 199.467 95.703 199.467 95.7467 199.467C97.3359 199.44 97.4669 199.342 99.4603 199.342C100.689 199.342 104.403 199.473 106.101 199.473C107.799 199.473 108.023 197.796 107.324 197.638C104.206 196.961 101.858 196.016 100.858 195.12C100.673 194.951 100.432 194.858 100.181 194.864Z" fill="#263238"/>
<path d="M100.455 195.42C100.417 195.409 100.389 195.376 100.384 195.338C100.378 195.3 100.395 195.262 100.428 195.245C100.57 195.153 101.88 194.35 102.328 194.579C102.432 194.628 102.497 194.732 102.492 194.847C102.519 195.043 102.443 195.234 102.29 195.36C102.06 195.513 101.787 195.589 101.514 195.568C101.159 195.562 100.804 195.513 100.455 195.42ZM100.733 195.289C101.203 195.447 101.722 195.42 102.175 195.218C102.273 195.131 102.323 195 102.306 194.874C102.301 194.798 102.268 194.759 102.246 194.759C102.208 194.738 102.164 194.732 102.121 194.732C101.629 194.83 101.159 195.016 100.733 195.289Z" fill="#462682"/>
<path d="M100.433 195.443C100.406 195.422 100.384 195.389 100.39 195.356C100.395 195.301 100.493 194.138 100.963 193.756C101.072 193.658 101.225 193.614 101.367 193.63C101.515 193.63 101.646 193.734 101.678 193.882C101.76 194.307 100.952 195.198 100.537 195.427H100.493C100.466 195.438 100.45 195.443 100.433 195.443ZM101.078 193.871C100.794 194.237 100.624 194.673 100.597 195.138C101.012 194.826 101.531 194.149 101.476 193.887C101.471 193.86 101.46 193.789 101.34 193.789H101.296C101.214 193.789 101.138 193.816 101.078 193.871Z" fill="#462682"/>
<path d="M128.702 107.043C128.702 107.043 131.88 87.6827 126.419 79.0049C126.419 79.0049 115.513 78.3277 107.84 82.7567C107.84 82.7567 111.013 91.3745 111.482 107.043H128.702Z" fill="#462682"/>
<path opacity="0.1" d="M129.696 92.2259C129.93 89.5991 129.171 87.0705 129.04 84.8424C127.036 83.1713 125.452 80.752 125.452 80.752C125.452 80.752 124.458 88.5942 129.696 92.2259Z" fill="black"/>
<path d="M125.064 78.9676C125.064 78.9676 135.872 77.7006 137.5 77.018C138.515 76.592 146.461 71.3984 146.461 71.3984L148.324 74.1727C148.324 74.1727 140.197 80.7371 138.821 81.4907C135.599 83.2601 128.358 85.7559 128.358 85.7559C128.358 85.7559 123.983 82.7195 125.064 78.9676Z" fill="#462682"/>
<path d="M120.595 66.4388C120.595 66.4388 125.09 61.9443 120.852 58.9242C116.614 55.8987 112.354 59.8472 112.354 59.8472C112.354 59.8472 102.213 62.2938 104.37 69.0383C106.527 75.7774 107.936 76.3508 104.731 79.8132C101.52 83.2701 98.2373 88.3927 101.52 91.664C104.802 94.9352 116.276 91.5711 119.754 86.6288C123.239 81.6755 117.089 71.0753 120.595 66.4388Z" fill="#263238"/>
<path d="M111.481 107.043L111.41 105.208L128.897 105.65V107.349L111.481 107.043Z" fill="black"/>
<path d="M117.025 105.334H116.32V107.142H117.025V105.334Z" fill="#263238"/>
<path d="M125.097 105.536H124.475V107.513H125.097V105.536Z" fill="#263238"/>
<path d="M112.488 105.235H111.893V107.349H112.488V105.235Z" fill="#263238"/>
</svg>
