<svg width="174" height="167" viewBox="0 0 174 167" fill="none" xmlns="http://www.w3.org/2000/svg">
<path d="M97.9433 165.616C91.1713 162.409 88.4672 154.784 87.5121 147.686C87.351 146.499 87.013 145.28 87.3982 144.152C87.7833 143.024 88.9742 142.097 90.1101 142.415C91.0534 142.679 91.6076 143.634 92.2403 144.392C93.0814 145.402 94.2094 146.165 95.4514 146.566C96.2689 146.829 97.2358 146.908 97.9079 146.377C98.8315 145.646 98.7136 144.219 98.5053 143.048C98.1201 140.867 97.7389 138.681 97.3537 136.5C97.1493 135.329 96.941 134.134 97.1179 132.959C97.2947 131.784 97.9236 130.616 98.9887 130.113C100.05 129.614 101.54 130.023 101.968 131.131C102.149 131.591 102.133 132.106 102.247 132.585C102.361 133.065 102.679 133.568 103.167 133.623C103.658 133.682 104.071 133.269 104.361 132.868C105.372 131.481 105.934 129.815 106.445 128.172C106.956 126.525 107.439 124.847 108.315 123.369C109.196 121.891 110.54 120.614 112.203 120.232C113.865 119.855 115.83 120.586 116.534 122.162C117.237 123.742 116.557 125.582 115.736 127.099C114.514 129.347 112.969 131.414 111.165 133.214C110.839 133.541 110.489 133.89 110.418 134.35C110.296 135.176 111.169 135.824 111.982 135.954C112.906 136.095 113.838 135.848 114.769 135.801C115.701 135.753 116.762 135.989 117.253 136.795C117.937 137.911 117.147 139.338 116.298 140.328C114.604 142.309 112.568 143.991 110.312 145.28C109.502 145.74 108.642 146.173 108.048 146.896C107.455 147.619 107.215 148.743 107.773 149.498C108.335 150.252 109.455 150.335 110.332 150.017C111.208 149.698 111.931 149.069 112.737 148.598C114.246 147.717 116.345 147.478 117.611 148.692C118.444 149.494 118.719 150.755 118.562 151.907C118.405 153.055 117.866 154.112 117.277 155.106C115.205 158.573 112.313 161.572 108.795 163.498C105.289 165.408 101.885 166.347 97.9433 165.616Z" fill="#F5F5F5"/>
<path d="M99.0215 160.878C99.4578 157.14 100.275 153.08 101.277 148.862C101.533 147.809 101.784 146.768 102.032 145.742C102.284 144.72 102.527 143.706 102.834 142.727C103.431 140.77 104.158 138.934 104.897 137.209C105.64 135.488 106.407 133.88 107.134 132.379C107.865 130.881 108.572 129.498 109.272 128.268C110.663 125.795 112.019 123.94 112.998 122.702C113.489 122.081 113.882 121.613 114.157 121.299C114.287 121.15 114.393 121.032 114.468 120.945C114.538 120.867 114.578 120.827 114.578 120.831C114.582 120.835 114.55 120.878 114.483 120.961C114.409 121.051 114.31 121.173 114.189 121.33C113.929 121.653 113.544 122.132 113.065 122.757C112.106 124.007 110.773 125.874 109.405 128.346C108.718 129.58 108.018 130.964 107.295 132.461C106.576 133.963 105.817 135.57 105.082 137.292C104.347 139.013 103.628 140.845 103.038 142.79C102.74 143.761 102.492 144.767 102.244 145.793C101.997 146.819 101.745 147.856 101.494 148.91C100.491 153.123 99.67 157.171 99.2259 160.897" fill="#E0E0E0"/>
<path d="M102.889 142.714C102.873 142.718 102.806 142.549 102.688 142.235C102.57 141.92 102.417 141.46 102.236 140.89C101.875 139.751 101.427 138.163 100.939 136.406C100.452 134.649 99.9842 133.069 99.603 131.941C99.4143 131.375 99.2571 130.919 99.147 130.605C99.037 130.29 98.982 130.113 98.9938 130.106C99.0095 130.102 99.0881 130.267 99.2257 130.573C99.3632 130.88 99.544 131.328 99.7484 131.89C100.169 133.01 100.66 134.59 101.148 136.347C101.623 138.08 102.055 139.648 102.386 140.847C102.539 141.386 102.665 141.842 102.771 142.207C102.857 142.529 102.901 142.71 102.889 142.714Z" fill="#E0E0E0"/>
<path d="M117.482 137.342C117.486 137.357 117.274 137.416 116.893 137.515C116.511 137.613 115.961 137.754 115.285 137.951C113.929 138.332 112.078 138.926 110.062 139.672C108.045 140.419 106.249 141.178 104.968 141.759C104.323 142.046 103.809 142.294 103.455 142.463C103.097 142.632 102.897 142.718 102.893 142.706C102.885 142.691 103.074 142.581 103.419 142.384C103.765 142.192 104.272 141.924 104.909 141.618C106.179 140.997 107.971 140.215 109.991 139.464C112.015 138.717 113.882 138.143 115.25 137.801C115.934 137.625 116.492 137.503 116.881 137.432C117.266 137.361 117.478 137.326 117.482 137.342Z" fill="#E0E0E0"/>
<path d="M99.1644 160.573C99.1565 160.577 99.1133 160.522 99.0308 160.408C98.9364 160.271 98.8225 160.105 98.681 159.905C98.3783 159.469 97.9578 158.824 97.4508 158.022C96.4328 156.419 95.0926 154.159 93.6501 151.647C92.2077 149.132 90.8911 146.864 89.9085 145.241C89.429 144.451 89.032 143.802 88.7372 143.323C88.6115 143.115 88.5053 142.942 88.4228 142.8C88.3521 142.678 88.3206 142.615 88.3245 142.608C88.3324 142.604 88.3756 142.663 88.4582 142.773C88.5525 142.91 88.6665 143.075 88.808 143.276C89.1106 143.712 89.5312 144.357 90.0382 145.158C91.0561 146.762 92.3964 149.022 93.8388 151.537C95.2812 154.049 96.5979 156.321 97.5805 157.944C98.0639 158.73 98.4569 159.382 98.7517 159.862C98.8775 160.07 98.9836 160.243 99.0661 160.385C99.1369 160.502 99.1723 160.569 99.1644 160.573Z" fill="#E0E0E0"/>
<path d="M118.097 150.726C118.101 150.734 118.038 150.773 117.912 150.84C117.763 150.919 117.582 151.017 117.362 151.135C116.855 151.398 116.167 151.756 115.334 152.192C113.624 153.084 111.274 154.346 108.68 155.745C106.086 157.144 103.72 158.382 101.99 159.243C101.126 159.671 100.422 160.013 99.9307 160.237C99.7027 160.34 99.518 160.426 99.3647 160.493C99.235 160.548 99.1643 160.575 99.1603 160.567C99.1564 160.56 99.2193 160.52 99.3451 160.45C99.4944 160.371 99.6752 160.273 99.8953 160.155C100.402 159.891 101.09 159.534 101.923 159.098C103.633 158.205 105.983 156.944 108.581 155.545C111.175 154.145 113.538 152.907 115.271 152.047C116.135 151.618 116.839 151.276 117.33 151.052C117.558 150.95 117.743 150.863 117.896 150.797C118.022 150.746 118.093 150.718 118.097 150.726Z" fill="#E0E0E0"/>
<path d="M48.7994 81.2479C48.7994 81.2479 44.1302 81.8964 46.7517 92.1231C49.3733 102.35 51.5978 107.62 51.5978 107.62C51.5978 107.62 51.9516 109.935 50.0807 109.865C48.2138 109.794 44.4053 108.277 43.1122 110.293C41.772 112.384 42.9432 114.899 45.8713 117.537C48.7994 120.174 55.0054 126.183 55.5635 126.73C56.1138 127.264 56.5304 128.4 55.2491 128.553C53.9678 128.707 44.8809 127.642 44.6293 131.985C44.3817 136.328 53.7477 142.329 54.7578 143.005C55.7679 143.681 55.9291 144.208 55.7011 144.797C55.4731 145.383 52.4546 144.739 49.8567 144.542C47.2587 144.345 44.2127 144.57 44.2795 147.089C44.3464 149.608 49.2632 155.971 63.6129 160.7L70.4045 162.456L75.4235 157.512C85.5245 146.275 86.6289 138.312 85.438 136.092C84.2432 133.875 81.488 135.192 79.3303 136.654C77.1725 138.116 74.8733 140.179 74.3859 139.782C73.8985 139.385 73.7728 138.847 74.3152 137.758C74.8576 136.67 80.0024 126.804 77.6284 123.161C75.2545 119.514 67.8969 124.957 66.71 125.46C65.523 125.963 65.3186 124.768 65.5309 124.034C65.7431 123.283 68.1445 114.982 69.3747 111.24C70.6049 107.499 70.373 104.732 68.1721 103.584C66.0497 102.476 63.4989 105.687 61.915 106.673C60.331 107.664 59.486 105.478 59.486 105.478C59.486 105.478 58.7982 99.7991 55.988 89.6195C53.1818 79.4399 48.7051 81.2636 48.7051 81.2636" fill="#EBEBEB"/>
<path d="M70.4052 164.155C68.3732 156.672 64.9853 143.312 62.014 131.856C59.0466 120.403 56.3503 110.038 54.3537 102.543C53.3554 98.8053 52.5458 95.775 51.9837 93.6723C51.7047 92.6308 51.4885 91.8211 51.3392 91.2591C51.2684 90.9879 51.2173 90.7796 51.178 90.6302C51.1426 90.4887 51.1309 90.4141 51.1309 90.4141C51.1309 90.4141 51.1584 90.4848 51.2016 90.6263C51.2448 90.7756 51.3077 90.984 51.3824 91.2512C51.5396 91.8093 51.7715 92.619 52.0663 93.6527C52.6558 95.7397 53.4891 98.766 54.5031 102.508C56.5351 109.991 59.2549 120.351 62.2223 131.804C65.1897 143.261 68.558 156.628 70.5506 164.12" fill="#E0E0E0"/>
<path d="M48.3519 112.632C48.3597 112.62 48.5169 112.707 48.7999 112.872C49.0829 113.037 49.4799 113.288 49.9712 113.603C50.9498 114.236 52.2822 115.139 53.7325 116.169C55.1592 117.187 56.4484 118.107 57.4388 118.81C57.8869 119.125 58.2642 119.392 58.5668 119.604C58.8341 119.789 58.9795 119.899 58.9716 119.911C58.9638 119.923 58.8026 119.84 58.5236 119.675C58.2445 119.51 57.8436 119.258 57.3563 118.936C56.3815 118.296 55.0649 117.372 53.6146 116.342C52.18 115.336 50.883 114.424 49.8926 113.728C49.4445 113.414 49.0672 113.151 48.7606 112.938C48.4855 112.754 48.344 112.644 48.3519 112.632Z" fill="#E0E0E0"/>
<path d="M59.5421 119.581C59.491 119.549 61.24 116.723 63.4449 113.269C65.6538 109.814 67.4814 107.039 67.5325 107.071C67.5836 107.102 65.8346 109.928 63.6257 113.383C61.4208 116.837 59.5932 119.612 59.5421 119.581Z" fill="#E0E0E0"/>
<path d="M63.305 137.375C63.2972 137.364 63.4308 137.238 63.6784 137.014C63.9614 136.766 64.3151 136.456 64.7396 136.086C65.6318 135.304 66.862 134.216 68.1747 132.966C69.4914 131.72 70.643 130.549 71.4683 129.696C71.8574 129.295 72.1876 128.957 72.447 128.686C72.6789 128.45 72.8125 128.32 72.8243 128.332C72.8361 128.344 72.7221 128.489 72.5099 128.744C72.2976 129 71.9793 129.362 71.5784 129.802C70.7805 130.682 69.6407 131.873 68.3241 133.127C67.0074 134.381 65.7575 135.454 64.8378 136.208C64.378 136.585 64.0007 136.884 63.7334 137.085C63.4662 137.281 63.3129 137.387 63.305 137.375Z" fill="#E0E0E0"/>
<path d="M51.8089 133.319C51.8128 133.303 51.9779 133.346 52.2727 133.433C52.6107 133.539 53.0273 133.664 53.5146 133.818C54.5601 134.152 56.0025 134.627 57.5904 135.166C59.1782 135.704 60.6128 136.203 61.6465 136.573C62.126 136.75 62.5348 136.899 62.8688 137.025C63.1558 137.135 63.313 137.206 63.309 137.217C63.3051 137.233 63.14 137.19 62.8453 137.104C62.5072 136.997 62.0906 136.872 61.6033 136.718C60.5578 136.384 59.1154 135.909 57.5275 135.37C55.9397 134.832 54.5051 134.333 53.4714 133.963C52.9919 133.786 52.5831 133.637 52.2491 133.511C51.9582 133.401 51.801 133.334 51.8089 133.319Z" fill="#E0E0E0"/>
<path d="M53.1389 149.452C53.1428 149.436 53.3551 149.491 53.7324 149.601C54.149 149.727 54.6835 149.892 55.3281 150.089C56.6723 150.509 58.5235 151.103 60.5672 151.775C62.611 152.443 64.4543 153.064 65.7867 153.52C66.4234 153.744 66.9501 153.929 67.3588 154.074C67.7283 154.208 67.9327 154.29 67.9248 154.306C67.9209 154.322 67.7086 154.267 67.3313 154.156C66.9147 154.031 66.3802 153.866 65.7356 153.669C64.3914 153.249 62.5403 152.655 60.4965 151.983C58.4566 151.315 56.6094 150.694 55.277 150.238C54.6403 150.014 54.1136 149.829 53.7049 149.684C53.3354 149.546 53.131 149.464 53.1389 149.452Z" fill="#E0E0E0"/>
<path d="M67.6061 154.085C67.5943 154.073 67.7593 153.908 68.0659 153.618C68.4 153.303 68.8402 152.89 69.3668 152.395C70.4634 151.362 71.9727 149.927 73.5959 148.296C75.2191 146.669 76.6537 145.156 77.6834 144.051C78.1787 143.521 78.5874 143.084 78.9018 142.746C79.1927 142.44 79.3578 142.275 79.3695 142.282C79.3813 142.294 79.2359 142.475 78.9687 142.801C78.6975 143.128 78.3005 143.591 77.7974 144.153C76.7952 145.285 75.3803 146.814 73.7531 148.449C72.1299 150.084 70.597 151.503 69.473 152.509C68.9109 153.012 68.4471 153.413 68.1249 153.684C67.7986 153.952 67.6139 154.097 67.6061 154.085Z" fill="#E0E0E0"/>
<path d="M28.5224 20.2611L24.6864 19.0662C24.6864 19.0662 23.6803 22.2852 20.3159 21.2987C18.5669 20.7877 18.0206 19.3649 17.9302 18.3784C17.8201 17.2347 18.3114 16.1185 19.1722 15.356C20.1587 14.4874 21.888 13.9568 24.3288 15.2184L27.025 6.5717L23.2322 5.38867L21.6522 10.4549C21.6522 10.4549 15.9021 10.1719 14.0745 16.032C12.3255 21.6406 16.9476 24.5137 19.1014 25.1858C20.7522 25.6967 26.4826 27.0487 28.5224 20.2611Z" fill="#F5F5F5"/>
<path d="M23.7443 3.59404L27.5938 4.79492L28.715 1.20061L24.8656 -0.000280315L23.7443 3.59404Z" fill="#F5F5F5"/>
<path d="M39.1081 10.4982L40.6448 10.0934C40.6448 10.0934 40.3029 8.80422 41.6392 8.42691C42.3309 8.23039 42.8144 8.59199 43.0502 8.90248C43.3292 9.26407 43.3961 9.73964 43.2703 10.1759C43.1249 10.6751 42.6532 11.2135 41.5724 11.3039L42.4842 14.7665L44.0013 14.3656L43.4668 12.3376C43.4668 12.3376 45.4516 11.2253 44.8306 8.8789C44.2371 6.63468 42.0872 6.64254 41.2226 6.8705C40.5701 7.04343 38.3652 7.79413 39.1081 10.4982Z" fill="#EBEBEB"/>
<path d="M44.2148 15.0714L42.6719 15.4785L43.0519 16.9188L44.5948 16.5117L44.2148 15.0714Z" fill="#EBEBEB"/>
<path d="M165.982 50.2774L167.476 50.8198C167.476 50.8198 167.932 49.566 169.241 50.014C169.921 50.2459 170.113 50.8197 170.133 51.2089C170.156 51.6648 169.944 52.0932 169.587 52.3801C169.182 52.7063 168.49 52.8832 167.547 52.3408L166.328 55.7091L167.806 56.2436L168.521 54.2706C168.521 54.2706 170.785 54.4867 171.615 52.2032C172.405 50.018 170.632 48.8035 169.791 48.4969C169.15 48.265 166.91 47.6322 165.982 50.2774Z" fill="#EBEBEB"/>
<path d="M167.576 56.9439L166.076 56.4004L165.569 57.8009L167.069 58.3444L167.576 56.9439Z" fill="#EBEBEB"/>
<path d="M7.47935 67.3827L10.6393 66.1643C10.6393 66.1643 9.61746 63.5113 12.3569 62.399C13.7797 61.8212 14.8841 62.4737 15.4619 63.0789C16.134 63.7785 16.3934 64.769 16.2243 65.7241C16.0278 66.8128 15.1632 68.0705 12.8875 68.5146L15.6309 75.6442L18.7555 74.4415L17.148 70.2675C17.148 70.2675 21.094 67.4455 19.235 62.6152C17.4545 57.9931 12.8954 58.5158 11.1228 59.1997C9.76681 59.7185 5.27051 61.8291 7.47935 67.3827Z" fill="#F5F5F5"/>
<path d="M19.3578 75.8901L16.1855 77.1123L17.3272 80.0756L20.4995 78.8533L19.3578 75.8901Z" fill="#F5F5F5"/>
<path d="M167.212 79.3747L164.972 80.2394C164.972 80.2394 165.695 82.122 163.753 82.9081C162.743 83.3168 161.961 82.8531 161.552 82.4286C161.077 81.9334 160.892 81.2298 161.014 80.5538C161.151 79.7795 161.764 78.8913 163.376 78.5768L161.43 73.5264L159.214 74.3792L160.353 77.3388C160.353 77.3388 157.555 79.3393 158.876 82.7627C160.137 86.0366 163.368 85.6672 164.626 85.1837C165.593 84.8025 168.776 83.309 167.212 79.3747Z" fill="#F5F5F5"/>
<path d="M158.797 73.3476L161.045 72.4814L160.237 70.3837L157.989 71.2498L158.797 73.3476Z" fill="#F5F5F5"/>
<path d="M173.54 166.284C173.54 166.339 134.689 166.386 86.7739 166.386C38.8435 166.386 0 166.339 0 166.284C0 166.229 38.8435 166.182 86.7739 166.182C134.689 166.182 173.54 166.229 173.54 166.284Z" fill="#263238"/>
<path d="M24.9262 156.076C25.2996 154.629 24.3524 153.179 23.2872 152.129C22.2261 151.08 20.9566 150.141 20.4024 148.753C19.5063 146.505 20.7089 143.597 19.184 141.722C18.2839 140.618 16.6725 140.252 15.8746 139.073C15.458 138.456 15.3205 137.697 15.1554 136.966C14.3182 133.252 12.4592 129.778 9.83764 127.015C9.65685 130.32 10.384 133.673 11.9247 136.605C12.5417 137.784 13.3042 138.931 13.5086 140.248C13.8427 142.382 12.6478 144.583 13.1745 146.682C13.7758 149.08 16.4681 150.687 16.5978 153.155C16.7039 155.242 14.8881 157.074 15.0218 159.161C15.0807 160.049 15.4934 160.874 15.9493 161.637C17.5647 164.321 19.9347 166.169 23.527 166.106L27.929 166.259L24.9262 156.076Z" fill="#BB0070"/>
<g opacity="0.3">
<path d="M24.9262 156.075C25.2996 154.628 24.3524 153.178 23.2872 152.129C22.2261 151.079 20.9566 150.14 20.4024 148.752C19.5063 146.504 20.7089 143.596 19.184 141.721C18.2839 140.617 16.6725 140.251 15.8746 139.072C15.458 138.455 15.3205 137.696 15.1554 136.965C14.3182 133.251 12.4592 129.777 9.83764 127.014C9.65685 130.319 10.384 133.672 11.9247 136.604C12.5417 137.783 13.3042 138.93 13.5086 140.247C13.8427 142.381 12.6478 144.582 13.1745 146.681C13.7758 149.079 16.4681 150.686 16.5978 153.154C16.7039 155.241 14.8881 157.073 15.0218 159.16C15.0807 160.048 15.4934 160.874 15.9493 161.636C17.5647 164.32 19.9347 166.168 23.527 166.105L27.929 166.258L24.9262 156.075Z" fill="black"/>
</g>
<path d="M28.8175 166.382C28.8175 166.382 29.2381 166.48 30.0281 166.354C30.4211 166.295 30.9085 166.193 31.4587 165.993C32.005 165.792 32.63 165.509 33.2234 165.026C33.5104 164.774 33.7973 164.468 33.9506 164.059C34.1038 163.65 34.1314 163.202 34.1589 162.742C34.1824 162.282 34.1824 161.803 34.2611 161.319C34.3357 160.836 34.5244 160.36 34.7995 159.904C35.3183 158.993 36.1791 158.132 36.4581 156.894C36.7607 155.675 36.5446 154.359 36.3402 153.034C36.1358 151.714 35.9393 150.275 36.4424 148.9C36.914 147.524 37.8809 146.282 38.3604 144.729C38.8399 143.161 38.6159 141.475 38.7181 139.813C38.7652 138.979 38.9264 138.142 39.2919 137.368C39.6495 136.59 40.1408 135.855 40.526 135.033C41.3081 133.375 41.4457 131.496 41.6579 129.657C41.7641 128.729 41.8662 127.79 41.9724 126.846C42.0785 125.895 42.161 124.948 42.4597 124.032C42.7309 123.109 43.124 122.217 43.5131 121.309C43.7017 120.853 43.9061 120.393 44.024 119.886C44.1105 119.367 44.1341 118.88 44.1655 118.373C44.2166 117.363 44.1734 116.341 44.0476 115.327C43.9297 114.313 43.745 113.303 43.6349 112.285C43.627 112.226 43.6231 112.163 43.6153 112.108L43.5917 111.903L43.4109 111.994C42.4676 112.465 41.6619 113.169 41.0409 113.994C40.412 114.812 39.9522 115.735 39.5867 116.679C38.8517 118.569 38.5884 120.55 38.215 122.441C37.8534 124.331 37.3778 126.19 36.407 127.762C35.9236 128.544 35.3419 129.26 34.831 130.026C34.32 130.785 33.8719 131.618 33.7383 132.534C33.4789 134.397 34.5047 136.032 34.2886 137.678C34.2139 138.496 33.8877 139.262 33.4868 139.962C33.0859 140.666 32.6182 141.318 32.1701 141.974C31.726 142.631 31.3015 143.295 30.9871 144.006C30.6687 144.714 30.4958 145.472 30.4447 146.211C30.3386 147.697 30.5469 149.104 30.4408 150.432C30.3504 151.765 29.8827 152.971 29.356 154.048C28.8254 155.133 28.2319 156.112 27.7367 157.059C27.4852 157.535 27.2572 157.998 27.0685 158.462C26.8681 158.926 26.7738 159.401 26.6834 159.853C26.5379 160.765 26.5537 161.614 26.6519 162.365C26.8445 163.874 27.4066 164.959 27.9096 165.568C28.0236 165.729 28.1612 165.847 28.2673 165.953C28.3695 166.063 28.4717 166.138 28.5581 166.197C28.7311 166.327 28.8175 166.382 28.8175 166.382C28.8372 166.358 28.456 166.158 27.9647 165.541C27.4812 164.927 26.9428 163.851 26.7698 162.357C26.6834 161.618 26.6755 160.777 26.8249 159.881C26.9192 159.437 27.0174 158.973 27.214 158.521C27.4026 158.065 27.6345 157.605 27.8861 157.138C28.3852 156.198 28.9826 155.22 29.5289 154.131C30.0674 153.046 30.5547 151.816 30.653 150.452C30.767 149.096 30.5626 147.681 30.6766 146.231C30.7277 145.508 30.8967 144.785 31.2072 144.101C31.5138 143.413 31.9304 142.76 32.3745 142.112C32.8186 141.459 33.2942 140.807 33.7069 140.088C34.1196 139.376 34.4615 138.579 34.548 137.71C34.7602 135.953 33.7422 134.306 34.0056 132.577C34.1314 131.72 34.5598 130.922 35.0589 130.179C35.562 129.429 36.1476 128.713 36.6428 127.908C37.6411 126.292 38.1285 124.394 38.494 122.496C38.8674 120.593 39.1347 118.632 39.8539 116.781C40.2116 115.861 40.6636 114.961 41.2728 114.167C41.8741 113.369 42.6445 112.701 43.5406 112.249L43.3441 112.139C43.3519 112.194 43.3558 112.257 43.3637 112.316C43.4738 113.346 43.6585 114.356 43.7764 115.358C43.8982 116.36 43.9415 117.363 43.8943 118.357C43.8668 118.848 43.8353 119.363 43.7607 119.827C43.6546 120.291 43.4541 120.747 43.2655 121.199C42.8803 122.103 42.4794 123.01 42.2043 123.954C41.8977 124.893 41.8112 125.876 41.709 126.815C41.6029 127.762 41.5007 128.702 41.3985 129.629C41.1863 131.48 41.0487 133.328 40.298 134.927C39.9247 135.725 39.4334 136.46 39.0679 137.266C38.6905 138.068 38.5215 138.952 38.4783 139.801C38.384 141.499 38.6041 143.161 38.1442 144.663C37.6883 146.16 36.7293 147.41 36.2419 148.829C35.7231 150.263 35.9393 151.749 36.1476 153.066C36.3599 154.39 36.5721 155.679 36.2891 156.851C36.0336 158.034 35.1965 158.887 34.6698 159.826C34.3947 160.29 34.1982 160.797 34.1235 161.296C34.0449 161.799 34.0488 162.278 34.0292 162.738C34.0056 163.19 33.982 163.634 33.8405 164.016C33.7029 164.397 33.4318 164.696 33.1566 164.943C32.5828 165.419 31.9697 165.71 31.4312 165.914C30.8888 166.118 30.4093 166.232 30.0202 166.295C29.6311 166.366 29.3285 166.378 29.1241 166.382C28.9237 166.378 28.8175 166.382 28.8175 166.382Z" fill="#263238"/>
<path d="M42.7252 114.536C42.7213 114.536 42.7056 114.579 42.682 114.67C42.6545 114.776 42.623 114.906 42.5837 115.067C42.4973 115.413 42.3951 115.935 42.2261 116.592C42.0531 117.244 41.6522 117.983 41.3142 118.891C40.9605 119.791 40.5989 120.836 40.2688 122.012C39.9347 123.187 39.636 124.488 39.3255 125.883C39.0032 127.278 38.6848 128.772 37.9184 130.183C37.5568 130.898 37.152 131.621 36.8297 132.411C36.4996 133.201 36.3188 134.07 36.1969 134.938C35.9847 136.684 35.6663 138.452 35.2497 140.264C34.3654 143.872 33.5282 147.307 32.7618 150.432C31.9797 153.549 31.2722 156.359 30.6748 158.725C30.0971 161.071 29.6254 162.977 29.2913 164.322C29.1381 164.966 29.0162 165.477 28.9298 165.847C28.8944 166.008 28.8669 166.137 28.8433 166.244C28.8236 166.334 28.8197 166.381 28.8236 166.381C28.8276 166.381 28.8433 166.338 28.8708 166.251C28.9022 166.149 28.9376 166.02 28.9848 165.858C29.087 165.493 29.2245 164.986 29.3975 164.345C29.7512 163.005 30.2503 161.107 30.8674 158.768C31.4805 156.406 32.2077 153.6 33.0134 150.491C33.7876 147.362 34.6327 143.927 35.5249 140.319C35.9415 138.511 36.2638 136.707 36.4721 134.974C36.5939 134.113 36.7629 133.276 37.0813 132.51C37.3918 131.739 37.7927 131.02 38.1542 130.297C38.9285 128.862 39.2508 127.322 39.5574 125.934C39.86 124.535 40.143 123.234 40.4653 122.063C40.7836 120.891 41.1256 119.846 41.4675 118.946C41.7898 118.038 42.1789 117.295 42.3401 116.619C42.4933 115.951 42.5759 115.432 42.6466 115.079C42.6741 114.917 42.6977 114.784 42.7174 114.678C42.7252 114.583 42.7331 114.536 42.7252 114.536Z" fill="#263238"/>
<path d="M29.592 166.393C32.465 164.683 33.2904 159.499 32.0917 156.375C30.8929 153.254 28.7941 150.4 28.4718 147.071C28.2242 144.513 29.0614 141.887 28.464 139.388C27.6583 136.011 24.3646 133.398 24.4039 129.931C24.4236 127.986 25.5319 126.154 25.4455 124.209C25.3354 121.823 23.5078 119.932 22.372 117.83C20.6347 114.615 20.5208 110.81 19.9273 107.206C19.3338 103.602 17.9582 99.7384 14.7628 97.9658C14.2912 101.028 13.4855 103.122 13.737 107.273C13.8274 108.762 15.5568 111.612 15.7926 114.878C15.9341 116.827 16.0323 118.785 16.1502 120.734C16.2681 122.633 16.39 124.57 17.0699 126.347C17.5927 127.711 18.4298 128.945 18.8189 130.352C19.546 132.997 18.591 135.862 19.1805 138.543C19.6797 140.814 21.2518 142.768 21.5741 145.071C22.0261 148.306 19.9312 151.67 21.0042 154.755C21.5348 156.288 22.7964 157.518 23.1541 159.098C23.4331 160.324 23.1305 161.625 23.382 162.856C23.7869 164.84 27.5757 166.385 29.5959 166.259" fill="#BB0070"/>
<path d="M15.5542 101.001C15.5503 101.001 15.5542 101.06 15.566 101.174C15.5817 101.304 15.6053 101.469 15.6289 101.677C15.6957 102.117 15.7704 102.77 15.9197 103.607C16.0809 104.452 16.5171 105.403 16.863 106.547C17.2285 107.69 17.5941 109.007 17.9163 110.485C18.2426 111.959 18.5177 113.594 18.8085 115.351C19.1072 117.096 19.4099 119.022 20.2824 120.849C20.6872 121.769 21.1392 122.689 21.4772 123.667C21.827 124.642 21.9842 125.695 22.0825 126.772C22.2318 128.942 22.5188 131.198 22.9275 133.469C23.8079 138.005 24.6451 142.325 25.4115 146.259C26.2172 150.177 26.9404 153.707 27.5496 156.678C28.1667 159.626 28.6658 162.019 29.0156 163.698C29.1925 164.511 29.33 165.148 29.4283 165.604C29.4755 165.808 29.5148 165.973 29.5423 166.099C29.5698 166.209 29.5855 166.268 29.5894 166.264C29.5934 166.264 29.5855 166.205 29.5698 166.091C29.5462 165.965 29.5187 165.8 29.4833 165.592C29.3968 165.136 29.275 164.496 29.1217 163.678C28.7916 162 28.3239 159.598 27.7422 156.643C27.1487 153.667 26.4452 150.134 25.663 146.212C24.9084 142.281 24.0752 137.962 23.2026 133.426C22.7978 131.151 22.5109 128.93 22.3576 126.753C22.2554 125.668 22.0904 124.583 21.7288 123.585C21.379 122.582 20.9191 121.659 20.5182 120.751C19.6535 118.947 19.347 117.068 19.0365 115.315C18.7378 113.562 18.4509 111.923 18.1089 110.446C17.7709 108.968 17.3936 107.647 17.0084 106.503C16.6429 105.352 16.1949 104.413 16.0219 103.587C15.8568 102.762 15.7664 102.105 15.68 101.669C15.6407 101.461 15.6092 101.3 15.5857 101.17C15.5739 101.06 15.5581 101.001 15.5542 101.001Z" fill="#263238"/>
<path d="M154.163 18.8993H152.599C152.599 18.8993 152.599 20.212 151.235 20.2356C150.527 20.2474 150.158 19.7836 150.008 19.4259C149.836 19.0132 149.887 18.5416 150.119 18.1604C150.386 17.7241 150.964 17.3232 152.021 17.5119V13.9824H150.472V16.0498C150.472 16.0498 148.303 16.6118 148.303 19.0015C148.303 21.2889 150.354 21.8195 151.231 21.8195C151.907 21.8234 154.194 21.6623 154.163 18.8993Z" fill="#BB0070"/>
<path d="M150.457 13.2568H152.025V11.7908H150.457V13.2568Z" fill="#BB0070"/>
<path d="M162.735 16.8059C162.739 16.8059 162.739 16.7391 162.739 16.6094C162.735 16.464 162.731 16.2714 162.723 16.0277C162.716 15.898 162.72 15.7566 162.704 15.5993C162.68 15.4421 162.657 15.2692 162.633 15.0845C162.606 14.8997 162.578 14.6993 162.547 14.4871C162.495 14.2787 162.44 14.0547 162.382 13.8189C162.138 12.8795 161.725 11.7397 160.967 10.5764C160.22 9.41299 159.151 8.20245 157.7 7.2238C156.246 6.26086 154.419 5.51803 152.363 5.32151C151.848 5.30186 151.325 5.23898 150.795 5.29007C150.532 5.30972 150.26 5.30186 149.993 5.34117C149.726 5.38047 149.455 5.4237 149.183 5.46301C148.11 5.6831 147.014 6.00146 145.992 6.55171C144.966 7.09016 143.991 7.78583 143.123 8.63479C142.274 9.49946 141.535 10.5135 140.965 11.6376C140.391 12.7616 139.994 14.0036 139.841 15.2967C139.778 15.619 139.778 15.9452 139.758 16.2714C139.739 16.5976 139.723 16.9278 139.739 17.2579C139.766 17.9182 139.849 18.5825 139.99 19.2349C140.293 20.6577 140.871 21.994 141.645 23.1692L141.633 23.0513C141.087 24.4151 140.548 25.7553 140.026 27.0602L139.931 27.296L140.179 27.2292C141.649 26.8244 143.08 26.4313 144.467 26.0501L144.361 26.0304C145.854 27.1545 147.564 27.8738 149.258 28.1685C150.103 28.3179 150.952 28.3808 151.766 28.3258C152.174 28.31 152.579 28.2904 152.972 28.2118C153.169 28.1803 153.365 28.1528 153.558 28.1214C153.75 28.086 153.939 28.0271 154.124 27.9799C157.142 27.2056 159.371 25.3466 160.644 23.5072C161.293 22.5875 161.761 21.6756 162.047 20.8463C162.122 20.638 162.193 20.4376 162.264 20.245C162.315 20.0485 162.362 19.8559 162.409 19.6751C162.452 19.4943 162.495 19.3214 162.539 19.1524C162.57 18.9834 162.59 18.8222 162.609 18.6729C162.649 18.3702 162.7 18.103 162.712 17.8711C162.72 17.6431 162.727 17.4466 162.731 17.2815C162.735 17.1322 162.739 17.0143 162.739 16.9199C162.739 16.8453 162.735 16.8059 162.735 16.8059C162.731 16.8059 162.727 16.8453 162.72 16.9278C162.712 17.0182 162.704 17.1361 162.692 17.2855C162.68 17.4466 162.668 17.6431 162.653 17.8711C162.633 18.103 162.578 18.3663 162.531 18.665C162.315 19.8441 161.843 21.6127 160.522 23.4207C159.245 25.2247 157.04 27.0366 154.073 27.7794C153.888 27.8227 153.703 27.8816 153.515 27.9131C153.322 27.9406 153.133 27.972 152.937 27.9995C152.552 28.0742 152.155 28.0899 151.754 28.1057C150.952 28.1568 150.123 28.0939 149.293 27.9445C147.635 27.6458 145.964 26.9384 144.502 25.8339L144.455 25.7986L144.396 25.8143C143.013 26.1916 141.578 26.5807 140.108 26.9855L140.258 27.1545C140.784 25.8496 141.323 24.5094 141.873 23.1456L141.897 23.0827L141.857 23.0277C141.099 21.8761 140.537 20.5673 140.238 19.1799C140.1 18.5392 140.022 17.8947 139.994 17.2461C139.979 16.9239 139.99 16.6016 140.01 16.2793C140.03 15.9609 140.03 15.6386 140.089 15.3242C140.238 14.0586 140.623 12.8442 141.185 11.7437C141.739 10.6432 142.459 9.65274 143.292 8.79986C144.141 7.96663 145.092 7.28275 146.094 6.75216C147.092 6.20977 148.169 5.89141 149.219 5.67524C149.486 5.63594 149.749 5.59271 150.009 5.5534C150.272 5.5141 150.535 5.51803 150.795 5.49838C151.318 5.44729 151.829 5.50624 152.336 5.52196C154.352 5.70669 156.152 6.42594 157.59 7.36136C159.025 8.31643 160.09 9.49946 160.837 10.6432C161.599 11.7869 162.02 12.9071 162.275 13.8346C162.338 14.0665 162.397 14.2866 162.452 14.4949C162.488 14.7072 162.519 14.9037 162.551 15.0884C162.582 15.2731 162.609 15.4421 162.633 15.5954C162.649 15.7526 162.653 15.8941 162.664 16.0199C162.684 16.2636 162.696 16.4562 162.708 16.5976C162.72 16.7391 162.727 16.8059 162.735 16.8059Z" fill="#263238"/>
<path d="M45.5265 63.1573H68.2242C68.2242 63.1573 68.2242 44.0991 88.0291 43.7572C98.3148 43.5803 103.648 50.3169 105.814 55.4813C108.329 61.4751 107.567 68.306 104.199 73.8675C100.347 80.2149 92.0577 86.5939 76.7608 83.8977L76.6154 134.469H99.0616V104.489C99.0616 104.489 130.54 96.3529 130.54 61.6598C130.54 28.4682 103.699 21.2992 89.2711 20.8354C81.2453 20.58 78.333 20.2341 68.405 21.6451C55.7571 23.4413 45.2592 38.1328 45.5265 63.1573Z" fill="#ADC804"/>
<path d="M99.333 145.01H76.5527V166.285H99.333V145.01Z" fill="#ADC804"/>
<path opacity="0.1" d="M99.333 145.01H76.5527V166.285H99.333V145.01Z" fill="black"/>
<path opacity="0.1" d="M45.5265 63.1573H68.2242C68.2242 63.1573 68.2242 44.0991 88.0291 43.7572C98.3148 43.5803 103.648 50.3169 105.814 55.4813C108.329 61.4751 107.567 68.306 104.199 73.8675C100.347 80.2149 92.0577 86.5939 76.7608 83.8977L76.6154 134.469H99.0616V104.489C99.0616 104.489 130.54 96.3529 130.54 61.6598C130.54 28.4682 103.699 21.2992 89.2711 20.8354C81.2453 20.58 78.333 20.2341 68.405 21.6451C55.7571 23.4413 45.2592 38.1328 45.5265 63.1573Z" fill="black"/>
<path d="M36.1213 63.1582H58.819C58.819 63.1582 58.819 44.1 78.6239 43.7581C88.9096 43.5812 94.2431 50.3178 96.4087 55.4823C98.9241 61.4761 98.1616 68.307 94.7933 73.8684C90.9416 80.2159 82.5071 85.9856 67.2102 83.2894V134.47H89.6564V104.49C89.6564 104.49 121.134 96.3538 121.134 61.6608C121.134 28.4691 91.37 20.7578 78.6279 20.7617C68.8885 20.7617 35.6929 23.116 36.1213 63.1582Z" fill="#ADC804"/>
<path opacity="0.3" d="M36.1213 63.1582H58.819C58.819 63.1582 58.819 44.1 78.6239 43.7581C88.9096 43.5812 94.2431 50.3178 96.4087 55.4823C98.9241 61.4761 98.1616 68.307 94.7933 73.8684C90.9416 80.2159 82.5071 85.9856 67.2102 83.2894V134.47H89.6564V104.49C89.6564 104.49 121.134 96.3538 121.134 61.6608C121.134 28.4691 91.37 20.7578 78.6279 20.7617C68.8885 20.7617 35.6929 23.116 36.1213 63.1582Z" fill="black"/>
<path d="M89.9326 145.012H67.1523V166.287H89.9326V145.012Z" fill="#ADC804"/>
<path opacity="0.3" d="M89.9326 145.012H67.1523V166.287H89.9326V145.012Z" fill="black"/>
<path d="M81.1906 43.8639C81.1906 43.8718 81.0727 43.8639 80.8526 43.8443C80.6286 43.8325 80.3063 43.7696 79.8857 43.7657C79.0447 43.7106 77.8223 43.7303 76.3249 43.915C74.8313 44.1037 73.0666 44.4731 71.1879 45.1216C70.2525 45.4596 69.2817 45.8448 68.3266 46.3518C67.3637 46.8392 66.4086 47.4366 65.5282 48.1637C64.64 48.883 63.8893 49.724 63.2369 50.5848C62.5805 51.4455 62.0106 52.322 61.5193 53.1867C60.5524 54.9278 59.8961 56.6061 59.4873 58.0564C59.0707 59.5027 58.886 60.7133 58.8034 61.5504C58.7563 61.971 58.7405 62.2972 58.7327 62.5173C58.7209 62.7374 58.7091 62.8553 58.7012 62.8553C58.6934 62.8553 58.6895 62.7374 58.6895 62.5173C58.6895 62.2933 58.6895 61.967 58.7248 61.5426C58.7838 60.6975 58.9449 59.4752 59.3458 58.0131C59.7389 56.551 60.3874 54.8531 61.3542 53.0923C61.8455 52.2198 62.4154 51.3316 63.0757 50.459C63.7321 49.5904 64.4906 48.7336 65.3946 48.0026C66.2907 47.2637 67.2576 46.6623 68.2323 46.171C69.1992 45.6601 70.1818 45.2749 71.125 44.9408C73.0234 44.2923 74.8038 43.9347 76.3091 43.7657C77.8145 43.6006 79.0486 43.6006 79.8897 43.6831C80.3142 43.6988 80.6364 43.7775 80.8565 43.801C81.0766 43.8364 81.1945 43.86 81.1906 43.8639Z" fill="#263238"/>
<path d="M115.393 39.8121C115.389 39.8121 115.366 39.7846 115.318 39.7217C115.267 39.651 115.2 39.5606 115.118 39.4466C114.937 39.1911 114.69 38.8374 114.371 38.3854C114.206 38.1574 114.037 37.8941 113.829 37.6229C113.609 37.3596 113.373 37.0727 113.121 36.7622C112.866 36.4517 112.595 36.1215 112.308 35.7717C112.013 35.4298 111.667 35.0957 111.325 34.7262C110.971 34.3686 110.622 33.9716 110.225 33.5943C109.816 33.2249 109.395 32.8436 108.955 32.4467C108.735 32.2501 108.519 32.0418 108.283 31.8453C108.043 31.6567 107.8 31.4641 107.552 31.2676C107.053 30.8824 106.558 30.4658 106.019 30.0767C103.865 28.5163 101.346 27.0149 98.583 25.6825C97.8834 25.3681 97.1917 25.0537 96.5117 24.7471C95.816 24.4759 95.1282 24.2087 94.4522 23.9493C93.784 23.6702 93.1002 23.4737 92.4399 23.2575C91.7756 23.0532 91.135 22.8134 90.4865 22.6601C89.8419 22.4911 89.217 22.326 88.6078 22.1649C87.9986 22.0038 87.3933 21.9094 86.8156 21.7837C86.2339 21.6736 85.6797 21.5321 85.1334 21.4614C84.591 21.3828 84.0683 21.3081 83.5691 21.2334C82.5747 21.0644 81.6629 21.029 80.869 20.9504C80.472 20.919 80.0986 20.8757 79.7567 20.86C79.4147 20.8522 79.1042 20.8443 78.8213 20.8364C78.271 20.8168 77.8347 20.805 77.5243 20.7932C77.3867 20.7853 77.2727 20.7814 77.1862 20.7775C77.1116 20.7736 77.0723 20.7696 77.0723 20.7657C77.0723 20.7618 77.1116 20.7578 77.1862 20.7578C77.2727 20.7578 77.3867 20.7539 77.5243 20.7539C77.8347 20.7539 78.271 20.7539 78.8213 20.7578C79.1042 20.7618 79.4187 20.7618 79.7606 20.7657C80.1026 20.7775 80.4759 20.8129 80.8729 20.8404C81.6708 20.9111 82.5865 20.9347 83.5848 21.0958C84.084 21.1627 84.6106 21.2334 85.153 21.3081C85.6993 21.371 86.2575 21.5125 86.8431 21.6186C87.4248 21.7404 88.03 21.8347 88.6432 21.992C89.2563 22.1492 89.8852 22.3142 90.5337 22.4793C91.1861 22.6287 91.8267 22.8645 92.4949 23.0728C93.1591 23.289 93.8469 23.4855 94.519 23.7645C95.195 24.0279 95.8868 24.2912 96.5864 24.5624C97.2703 24.8729 97.9659 25.1834 98.6655 25.5018C101.44 26.8381 103.968 28.3512 106.125 29.9273C106.668 30.3164 107.163 30.7409 107.662 31.13C107.91 31.3265 108.153 31.523 108.393 31.7117C108.629 31.9082 108.845 32.1204 109.065 32.317C109.501 32.7178 109.926 33.1069 110.331 33.4764C110.728 33.8576 111.078 34.2585 111.427 34.6201C111.769 34.9896 112.111 35.3315 112.406 35.6774C112.689 36.0311 112.96 36.3652 113.208 36.6796C113.459 36.994 113.691 37.2849 113.903 37.5522C114.104 37.8312 114.273 38.0945 114.43 38.3304C114.737 38.7902 114.976 39.1557 115.145 39.4151C115.22 39.533 115.279 39.6274 115.326 39.6981C115.377 39.7767 115.397 39.8121 115.393 39.8121Z" fill="#263238"/>
<path d="M113.028 88.547C113.031 88.551 112.973 88.6335 112.855 88.7828C112.721 88.9479 112.548 89.1641 112.332 89.4353C112.104 89.7183 111.821 90.0602 111.475 90.4414C111.129 90.8266 110.752 91.2747 110.292 91.7345C109.844 92.2062 109.353 92.7171 108.795 93.2399C108.252 93.7783 107.639 94.3168 106.998 94.8906C105.697 96.0107 104.216 97.1859 102.589 98.3178C100.954 99.438 99.3264 100.405 97.8172 101.222C97.0547 101.615 96.3315 102.001 95.6358 102.315C94.948 102.649 94.2956 102.928 93.6942 103.18C93.1008 103.443 92.5466 103.64 92.0671 103.824C91.5876 104.013 91.167 104.154 90.8212 104.268C90.491 104.374 90.2277 104.461 90.0272 104.528C89.8464 104.583 89.7482 104.61 89.7443 104.602C89.7403 104.595 89.8347 104.555 90.0115 104.488C90.208 104.414 90.4674 104.316 90.7937 104.194C91.1356 104.072 91.5483 103.919 92.0238 103.718C92.4994 103.522 93.0497 103.317 93.6353 103.046C94.2288 102.787 94.8773 102.504 95.5572 102.162C96.249 101.843 96.9643 101.454 97.7228 101.057C99.2242 100.236 100.836 99.265 102.467 98.1488C104.09 97.0248 105.568 95.8575 106.869 94.7491C107.509 94.1831 108.126 93.6525 108.669 93.118C109.227 92.6031 109.726 92.0961 110.178 91.6363C110.642 91.1843 111.027 90.7441 111.377 90.3668C111.731 89.9934 112.021 89.6593 112.257 89.3842C112.485 89.1248 112.67 88.9165 112.811 88.7593C112.953 88.6138 113.024 88.5431 113.028 88.547Z" fill="#263238"/>
<path d="M89.2643 132.685C89.2093 132.685 89.1621 126.372 89.1621 118.586C89.1621 110.796 89.2093 104.484 89.2643 104.484C89.3193 104.484 89.3665 110.796 89.3665 118.586C89.3665 126.372 89.3193 132.685 89.2643 132.685Z" fill="#263238"/>
<path d="M90.1295 164.843C90.0745 164.843 90.0273 160.413 90.0273 154.95C90.0273 149.483 90.0745 145.054 90.1295 145.054C90.1845 145.054 90.2317 149.483 90.2317 154.95C90.2317 160.413 90.1845 164.843 90.1295 164.843Z" fill="#263238"/>
<path d="M112.477 60.1425C112.08 60.9325 113.55 61.5731 114.395 61.8286C115.244 62.0841 116.148 62.0566 117.028 62.0094C118.199 61.9465 119.414 61.8365 120.432 61.2548C121.336 60.736 122.012 59.8831 122.483 58.9555C122.955 58.0241 123.242 57.014 123.525 56.0117C123.529 56.0117 114.242 56.617 112.477 60.1425Z" fill="#462682"/>
<g opacity="0.4">
<path d="M112.477 60.1425C112.08 60.9325 113.55 61.5731 114.395 61.8286C115.244 62.0841 116.148 62.0566 117.028 62.0094C118.199 61.9465 119.414 61.8365 120.432 61.2548C121.336 60.736 122.012 59.8831 122.483 58.9555C122.955 58.0241 123.242 57.014 123.525 56.0117C123.529 56.0117 114.242 56.617 112.477 60.1425Z" fill="black"/>
</g>
<path d="M138.705 57.6273C140.222 58.7082 142.085 59.2938 143.948 59.2741C144.84 59.2623 145.787 59.0894 146.444 58.4881C146.746 58.2129 146.974 57.8553 147.285 57.5919C147.497 57.4111 147.745 57.2736 147.945 57.0771C148.146 56.8806 148.295 56.6015 148.236 56.3303C148.173 56.0513 147.941 55.6032 147.694 55.4617C146.628 54.8564 145.355 54.88 144.129 54.9075C142.902 54.935 141.696 55.2219 140.532 55.6111C139.581 55.9294 138.587 56.3814 138.104 57.2618" fill="#462682"/>
<g opacity="0.4">
<path d="M148.232 56.3297C148.169 56.0506 147.784 55.6812 147.536 55.5397C146.471 54.9344 145.351 54.8794 144.125 54.9069C142.899 54.9344 141.692 55.2213 140.529 55.6104C139.577 55.9288 138.583 56.3808 138.1 57.2612L138.705 57.6228C140.222 58.7036 142.085 59.2892 143.948 59.2696C144.84 59.2578 145.783 59.0849 146.444 58.4835C146.746 58.2084 146.974 57.8507 147.285 57.5874C147.497 57.4066 147.745 57.269 147.945 57.0725C148.142 56.8799 148.295 56.6009 148.232 56.3297Z" fill="black"/>
</g>
<path d="M120.58 71.7325L140.173 71.988C140.346 71.9919 140.468 71.8229 140.417 71.6578L138.118 64.4889C138.118 64.4889 138.456 60.9084 138.923 56.5968C139.635 50.0567 140.578 41.8305 140.59 41.8502C139.253 38.0928 131.346 37.4561 131.346 37.4561L122.333 37.9906L122.015 37.46L119.421 38.6666C118.855 38.9299 118.313 39.2365 117.794 39.5824C116.084 40.73 111.953 43.3555 111.199 46.2875C109.458 53.0634 112.405 60.6293 112.405 60.6293L114.296 59.1515C114.791 58.7781 115.259 58.4519 115.797 58.1493L119.594 68.3249C119.594 68.3249 118.804 68.8044 118.768 69.6298C118.745 70.4591 119.185 71.4495 120.58 71.7325Z" fill="#462682"/>
<g opacity="0.3">
<path d="M128.979 59.737C129.6 56.3963 129.274 52.9611 128.94 49.5811C127.851 52.348 127.89 55.4648 126.739 58.2042C126.613 58.499 126.475 58.7938 126.432 59.1121C126.389 59.4305 126.456 59.7803 126.696 59.9964C127.01 60.2834 127.474 60.1301 127.894 60.079C128.342 60.0279 128.578 59.8746 128.979 59.737Z" fill="black"/>
</g>
<g opacity="0.4">
<path d="M121.763 67.4713C123.343 68.0215 125.01 67.0036 126.672 66.8228C127.773 66.7049 128.873 66.9564 129.966 67.1333C132.171 67.4909 134.427 67.546 136.647 67.2984C136.985 67.2591 137.335 67.2119 137.63 67.0429C137.929 66.8739 138.165 66.4062 138.145 66.0682C134.446 65.6869 130.744 65.4629 127.046 65.0817C126.118 64.9873 125.159 64.893 124.271 65.1681C123.151 65.514 122.29 66.3944 121.504 67.2591" fill="black"/>
</g>
<path d="M147.669 55.0372C146.065 51.4371 140.429 41.4697 140.429 41.4697L136.062 46.9447L137.08 57.6941C137.08 57.6941 139.388 55.1198 145.837 55.0687C147.339 55.0569 148.239 56.3343 148.239 56.3343L147.669 55.0372Z" fill="#462682"/>
<path d="M121.449 53.1299C121.394 53.1456 121.064 52.0923 120.714 50.7796C120.361 49.4668 120.121 48.3899 120.176 48.3742C120.231 48.3585 120.561 49.4118 120.911 50.7245C121.261 52.0412 121.504 53.1181 121.449 53.1299Z" fill="#212121"/>
<path d="M135.732 46.2127C135.74 46.2009 135.885 46.3267 136.137 46.5546C136.38 46.7904 136.73 47.1442 137.111 47.6237C137.874 48.5669 138.805 50.0447 139.198 51.892C139.395 52.8117 139.426 53.7157 139.324 54.5253C139.222 55.331 139.069 56.0385 138.97 56.6359C138.868 57.2333 138.805 57.7207 138.774 58.0587C138.742 58.3967 138.734 58.5854 138.719 58.5854C138.707 58.5854 138.687 58.3967 138.695 58.0548C138.703 57.7128 138.742 57.2176 138.829 56.6163C138.911 56.011 139.049 55.2996 139.139 54.5057C139.23 53.7157 139.19 52.8353 139.002 51.9392C138.621 50.1351 137.728 48.6731 137.001 47.718C136.266 46.7472 135.7 46.2441 135.732 46.2127Z" fill="#212121"/>
<path d="M131.729 70.8761C131.733 70.8919 131.58 70.9351 131.301 71.0019C131.163 71.0373 130.991 71.0766 130.79 71.1002C130.59 71.1277 130.362 71.1709 130.102 71.1827C129.591 71.2338 128.978 71.2299 128.302 71.1709C127.626 71.1002 126.891 70.9665 126.14 70.7386C125.394 70.5028 124.71 70.1962 124.112 69.87C123.523 69.5359 123.016 69.19 122.623 68.8599C122.418 68.7066 122.253 68.5415 122.104 68.404C121.951 68.2703 121.833 68.1406 121.738 68.0306C121.546 67.8183 121.448 67.6965 121.456 67.6886C121.483 67.6611 121.908 68.1328 122.709 68.7459C123.106 69.0564 123.613 69.3826 124.199 69.7049C124.788 70.0154 125.464 70.3102 126.195 70.5421C126.93 70.7661 127.654 70.9037 128.318 70.9823C128.982 71.0491 129.583 71.0648 130.09 71.0373C131.104 70.9862 131.722 70.8368 131.729 70.8761Z" fill="#212121"/>
<path d="M137.78 68.6358C137.804 68.6319 137.882 68.8441 137.929 69.2096C137.977 69.5712 137.984 70.0939 137.823 70.6403C137.666 71.1905 137.34 71.6228 137.053 71.8587C136.766 72.0984 136.546 72.1731 136.534 72.1534C136.518 72.1259 136.707 72.0041 136.955 71.7525C137.198 71.5049 137.481 71.0962 137.627 70.5813C137.929 69.5437 137.705 68.6397 137.78 68.6358Z" fill="#212121"/>
<path d="M136.714 70.0187C136.765 70.0069 136.867 70.5808 136.615 71.2293C136.368 71.8778 135.904 72.2315 135.873 72.1883C135.829 72.145 136.195 71.7559 136.423 71.1546C136.663 70.5572 136.655 70.0227 136.714 70.0187Z" fill="#212121"/>
<path d="M133.207 57.0879C133.25 57.1311 132.884 57.5399 132.507 58.0941C132.126 58.6443 131.874 59.1317 131.819 59.1081C131.768 59.0884 131.945 58.55 132.338 57.9801C132.727 57.4063 133.167 57.0486 133.207 57.0879Z" fill="#212121"/>
<path d="M119.761 47.5685C119.737 47.5921 119.427 47.3445 118.892 46.9947C118.358 46.6449 117.583 46.2126 116.668 45.8667C115.752 45.5287 114.883 45.3479 114.25 45.2614C113.618 45.175 113.217 45.1592 113.217 45.1278C113.217 45.1042 113.618 45.0688 114.266 45.1199C114.915 45.171 115.807 45.3322 116.738 45.678C117.67 46.0278 118.452 46.4916 118.971 46.8768C119.497 47.262 119.777 47.5528 119.761 47.5685Z" fill="#212121"/>
<path d="M140.429 41.3347C140.469 41.3897 139.408 42.0343 138.445 43.1937C137.47 44.3414 137.01 45.4969 136.951 45.4694C136.928 45.4615 137.01 45.1628 137.226 44.7069C137.439 44.2549 137.796 43.6536 138.287 43.064C138.783 42.4784 139.313 42.0225 139.726 41.7356C140.139 41.4447 140.418 41.3111 140.429 41.3347Z" fill="#212121"/>
<path d="M132.339 38.0969C132.347 38.0929 132.375 38.1558 132.43 38.2777C132.489 38.3995 132.548 38.5842 132.615 38.8279C132.74 39.3153 132.807 40.066 132.607 40.9581C132.402 41.8385 131.911 42.8604 131.003 43.6661C130.103 44.4758 128.775 44.9592 127.387 44.9553C125.996 44.9474 124.687 44.4679 123.736 43.7369C122.773 43.0098 122.132 42.1058 121.728 41.3001C121.327 40.4865 121.142 39.7712 121.059 39.276C121.02 39.0283 120.993 38.8318 120.989 38.7021C120.981 38.5685 120.977 38.5017 120.985 38.5017C121.004 38.4977 121.028 38.7768 121.138 39.2642C121.244 39.7515 121.449 40.4472 121.857 41.2372C122.274 42.0154 122.907 42.8919 123.85 43.5875C124.778 44.2911 126.043 44.7431 127.391 44.7548C128.735 44.7588 130.013 44.2989 130.881 43.5286C131.762 42.7622 132.253 41.7796 132.469 40.9267C132.681 40.066 132.638 39.3349 132.54 38.8475C132.434 38.3563 132.316 38.1047 132.339 38.0969Z" fill="#212121"/>
<g opacity="0.3">
<path d="M133.715 57.7832C133.707 57.5867 133.683 57.3548 133.514 57.2565C133.408 57.1937 133.271 57.2094 133.157 57.2644C133.047 57.3194 132.956 57.4098 132.874 57.5002C132.398 58.0151 132.064 58.5182 131.824 59.1785L133.75 59.0134C133.734 58.6046 133.726 58.188 133.715 57.7832Z" fill="black"/>
</g>
<g opacity="0.3">
<path d="M140.11 53.7312C139.961 52.6307 139.399 51.6206 138.715 50.7441C139.544 53.4639 139.265 55.0007 138.801 56.8597L138.904 56.6003C139.434 55.5156 140.256 54.8317 140.11 53.7312Z" fill="black"/>
</g>
<path d="M136.261 145.097L135.086 162.724L127.421 162.634L126.211 144.307L136.261 145.097Z" fill="#FFBE9D"/>
<path d="M135.298 160.402V160.913C135.298 160.913 143.937 164.392 144.027 166.031L126.867 165.929L127.134 160.222C129.681 161.417 132.35 161.566 135.298 160.402Z" fill="#462682"/>
<path d="M128.866 162.058C128.532 162.149 128.3 162.518 128.379 162.856C128.453 163.194 128.831 163.43 129.165 163.347C129.499 163.265 129.79 162.825 129.68 162.502C129.566 162.176 129.11 161.921 128.807 162.082" fill="white"/>
<path d="M126.873 165.93L126.936 164.559L143.361 165.156C143.361 165.156 144.123 165.494 144.033 166.029L126.873 165.93Z" fill="#212121"/>
<path d="M135.359 160.963C135.355 161.046 134.938 161.081 134.522 161.348C134.101 161.604 133.885 161.965 133.81 161.934C133.732 161.918 133.861 161.415 134.368 161.101C134.871 160.782 135.378 160.885 135.359 160.963Z" fill="#212121"/>
<path d="M137.158 161.717C137.178 161.799 136.812 161.937 136.525 162.29C136.227 162.636 136.156 163.017 136.069 163.014C135.991 163.025 135.936 162.534 136.301 162.102C136.663 161.669 137.154 161.638 137.158 161.717Z" fill="#212121"/>
<path d="M138.168 163.879C138.093 163.895 137.979 163.478 138.195 163.018C138.412 162.558 138.805 162.381 138.84 162.448C138.887 162.519 138.632 162.763 138.459 163.14C138.274 163.517 138.25 163.871 138.168 163.879Z" fill="#212121"/>
<path d="M134.861 16.1776C135.301 15.0771 134.766 13.7408 133.811 13.0372C132.856 12.3337 131.579 12.1804 130.408 12.3691C129.236 12.5538 128.136 13.0451 127.051 13.5285C126.069 12.542 124.512 12.1647 123.188 12.597C121.863 13.0294 120.829 14.2478 120.617 15.6273C119.772 15.4112 118.821 15.702 118.235 16.3466C117.65 16.9951 117.461 17.9698 117.764 18.7873L123.078 20.6542L128.879 30.8613C130.577 32.3077 133.348 32.2684 135.002 30.7748C136.657 29.2813 136.975 26.5222 135.706 24.6907C136.032 24.4038 136.303 24.0579 136.519 23.6845C137.439 23.1146 138.158 22.2303 138.398 21.1691C138.905 18.9288 137.144 16.4448 134.861 16.1776Z" fill="#212121"/>
<path d="M131.343 37.4606C131.013 35.7981 130.785 34.6622 130.785 34.674C130.785 34.674 133.917 33.4556 133.701 29.0772C133.595 26.8998 132.762 23.4726 131.995 20.686C131.304 18.1784 128.965 15.4154 126.489 16.2132L119.006 19.8684C118.255 20.1121 118.121 20.8157 118.298 21.586L118.31 21.9633L121.222 34.0137L122.453 39.3983C122.999 41.6897 125.2 43.1871 127.531 42.8491C130.113 42.4757 131.85 40.0153 131.343 37.4606Z" fill="#FFBE9D"/>
<path d="M131.955 23.5938C132.026 23.8768 131.841 24.1716 131.547 24.2502C131.252 24.3288 130.953 24.1637 130.882 23.8768C130.812 23.5938 130.996 23.2991 131.291 23.2205C131.586 23.1419 131.885 23.3109 131.955 23.5938Z" fill="#212121"/>
<path d="M131.617 22.756C131.566 22.8424 131.09 22.6223 130.504 22.7481C129.919 22.8621 129.553 23.2551 129.475 23.1962C129.435 23.1726 129.479 23.0271 129.636 22.8542C129.793 22.6813 130.076 22.4848 130.441 22.4062C130.807 22.3315 131.141 22.4022 131.345 22.5005C131.554 22.6027 131.64 22.7206 131.617 22.756Z" fill="#212121"/>
<path d="M126.262 24.9005C126.333 25.1835 126.148 25.4782 125.853 25.5568C125.558 25.6355 125.26 25.4704 125.189 25.1835C125.118 24.9005 125.303 24.6057 125.598 24.5271C125.892 24.4485 126.191 24.6175 126.262 24.9005Z" fill="#212121"/>
<path d="M125.98 24.1446C125.929 24.2311 125.453 24.011 124.868 24.1368C124.282 24.2507 123.916 24.6438 123.838 24.5848C123.799 24.5612 123.842 24.4158 123.999 24.2429C124.156 24.0699 124.439 23.8734 124.805 23.7948C125.17 23.7202 125.504 23.7909 125.709 23.8892C125.917 23.9913 126.007 24.1053 125.98 24.1446Z" fill="#212121"/>
<path d="M128.943 27.842C128.935 27.8105 129.285 27.669 129.855 27.4725C130 27.4253 130.134 27.3664 130.138 27.2603C130.15 27.1463 130.055 26.9969 129.945 26.8397C129.729 26.5096 129.501 26.1598 129.265 25.7943C128.314 24.3047 127.591 23.0666 127.65 23.0312C127.709 22.9919 128.53 24.171 129.481 25.6606C129.713 26.0301 129.933 26.3799 130.146 26.714C130.236 26.8712 130.374 27.0441 130.346 27.2838C130.33 27.4057 130.236 27.5079 130.146 27.555C130.055 27.6061 129.973 27.6219 129.898 27.6415C129.32 27.7987 128.951 27.8773 128.943 27.842Z" fill="#212121"/>
<path d="M130.796 34.668C130.796 34.668 127.986 35.4501 124.807 34.3457C124.807 34.3457 126.862 37.034 131.02 35.7488L130.796 34.668Z" fill="#EB996E"/>
<path d="M126.076 23.3078C126.037 23.4768 125.435 23.4728 124.751 23.6419C124.064 23.7951 123.525 24.0703 123.415 23.9366C123.364 23.8737 123.447 23.7087 123.651 23.5239C123.855 23.3392 124.197 23.1506 124.61 23.0523C125.023 22.954 125.412 22.9737 125.679 23.0484C125.946 23.1152 126.092 23.2292 126.076 23.3078Z" fill="#212121"/>
<path d="M131.406 20.9015C131.312 21.0587 130.808 21.0234 130.235 21.1373C129.657 21.2356 129.197 21.4478 129.056 21.3339C128.993 21.2749 129.04 21.1295 129.228 20.9565C129.409 20.7875 129.739 20.6107 130.136 20.5399C130.533 20.4692 130.899 20.5163 131.127 20.6107C131.351 20.7011 131.445 20.8229 131.406 20.9015Z" fill="#212121"/>
<path d="M120.849 17.0544C121.022 17.9034 121.588 18.6619 122.35 19.0707C123.113 19.4795 124.06 19.5306 124.862 19.2043C125.483 18.9528 126.127 18.4772 126.756 18.7052C127.421 18.9449 127.629 19.8293 128.246 20.1751C129.126 20.6664 130.188 19.8135 131.194 19.9C131.972 19.9668 132.573 20.5721 133.182 21.0594C133.792 21.5468 134.637 21.9556 135.324 21.5861C135.14 20.9376 134.955 20.2812 134.629 19.6917C134.303 19.1021 133.815 18.5755 133.19 18.3318C132.844 18.1982 132.471 18.151 132.141 17.982C131.43 17.6165 131.115 16.7911 130.596 16.1858C129.928 15.4037 128.867 14.9753 127.845 15.0814C126.992 15.1679 126.186 15.5963 125.334 15.5609C124.701 15.5334 124.096 15.2543 123.463 15.2622C122.233 15.2819 121.305 16.3627 120.621 17.3846" fill="#212121"/>
<path d="M124.992 17.9548C124.429 17.9116 123.27 17.7936 122.889 17.3928C122.063 16.5202 120.829 16.0643 119.729 16.3551C118.628 16.646 117.74 17.7504 117.756 18.9727C116.408 19.2636 115.268 20.3837 114.887 21.7908C114.505 23.1979 114.894 24.8407 115.869 25.9176C116.125 26.2006 116.514 26.8531 116.514 26.8531C116.514 26.8531 116.007 27.4859 115.814 27.9143C114.918 29.903 117.355 30.6655 117.355 30.6655C117.363 32.0018 118.593 31.9979 119.383 31.99C120.141 31.9861 120.609 34.0927 121.226 34.0102L120.601 27.5016C120.676 27.533 120.77 27.5527 120.888 27.5527C122.378 27.5802 121.989 24.7621 121.505 24.0311C121.926 23.4691 122.35 22.8952 122.622 22.2349C122.893 21.5707 122.912 19.916 122.68 19.2204C123.203 19.1457 125.235 17.9705 124.992 17.9548Z" fill="#212121"/>
<path d="M120.826 27.8504C120.594 26.9582 119.486 26.5613 118.798 27.1744C118.421 27.5124 118.197 28.0784 118.433 29.0256C119.065 31.5567 121.475 30.3973 121.463 30.3226C121.459 30.2794 121.101 28.8959 120.826 27.8504Z" fill="#FFBE9D"/>
<path d="M120.453 29.557C120.441 29.5531 120.418 29.6003 120.351 29.6514C120.288 29.7025 120.166 29.7575 120.025 29.7418C119.734 29.7103 119.4 29.3409 119.274 28.8889C119.211 28.6609 119.203 28.429 119.239 28.2286C119.27 28.0242 119.357 27.8631 119.486 27.808C119.612 27.7452 119.726 27.8002 119.777 27.8631C119.828 27.926 119.824 27.981 119.84 27.981C119.848 27.9849 119.883 27.926 119.836 27.8238C119.812 27.7766 119.769 27.7255 119.698 27.6901C119.624 27.6548 119.529 27.6548 119.439 27.6862C119.246 27.7491 119.117 27.9731 119.077 28.1932C119.026 28.4172 119.03 28.6806 119.101 28.936C119.246 29.4431 119.628 29.8518 120.017 29.8675C120.205 29.8675 120.343 29.7771 120.402 29.6985C120.465 29.6199 120.465 29.561 120.453 29.557Z" fill="#EB996E"/>
<path d="M134.394 24.3142C134.378 24.2946 134.622 24.1374 134.944 23.7443C135.259 23.3513 135.644 22.6871 135.734 21.7792C135.778 21.3311 135.754 20.8241 135.593 20.321C135.432 19.8219 135.141 19.3148 134.693 18.9257C133.82 18.1318 132.378 17.7663 131.081 18.2222C130.963 18.2615 130.853 18.3205 130.739 18.3676C130.633 18.4227 130.531 18.4855 130.428 18.5445L130.271 18.631L130.267 18.458C130.263 18.1515 130.149 17.8567 129.949 17.6327C129.752 17.4047 129.497 17.2318 129.222 17.1139C128.672 16.8702 128.078 16.8662 127.536 16.992C126.451 17.2396 125.531 17.7349 124.663 17.8331C123.802 17.9432 123.087 17.7309 122.701 17.4401C122.501 17.3025 122.391 17.1453 122.316 17.047C122.253 16.937 122.222 16.882 122.23 16.878C122.249 16.8623 122.355 17.1178 122.745 17.3772C123.126 17.6366 123.814 17.8174 124.643 17.6956C125.056 17.6366 125.496 17.4872 125.964 17.3143C126.431 17.1414 126.934 16.937 127.496 16.8112C127.779 16.7523 128.074 16.7051 128.385 16.7208C128.691 16.7366 129.002 16.8073 129.3 16.9331C129.595 17.0588 129.878 17.2475 130.102 17.503C130.33 17.7545 130.468 18.1043 130.472 18.462L130.314 18.3755C130.421 18.3165 130.531 18.2458 130.645 18.1868C130.762 18.1357 130.88 18.0729 131.006 18.0336C132.386 17.5501 133.895 17.9432 134.815 18.7882C135.282 19.2048 135.589 19.7472 135.75 20.2738C135.911 20.8044 135.927 21.3311 135.872 21.7988C135.762 22.7382 135.341 23.4142 134.999 23.7994C134.826 23.9919 134.673 24.1295 134.559 24.2042C134.461 24.2828 134.398 24.3182 134.394 24.3142Z" fill="#455A64"/>
<path d="M133.882 15.4259C133.866 15.4535 133.615 15.2255 133.069 15.1469C132.801 15.1115 132.459 15.1115 132.102 15.2334C131.744 15.3434 131.367 15.5832 131.107 15.9565L131.013 16.0941L130.954 15.9369C130.636 15.0879 129.708 14.2822 128.557 14.1564C127.692 14.0582 126.906 14.4473 126.253 14.8207C125.593 15.2058 124.992 15.5832 124.426 15.7639C123.868 15.9605 123.368 15.984 123.042 15.9251C122.877 15.8976 122.755 15.8583 122.677 15.8229C122.598 15.7875 122.555 15.7679 122.559 15.76C122.567 15.7404 122.736 15.8111 123.054 15.8426C123.372 15.874 123.84 15.8308 124.379 15.6225C124.921 15.4299 125.495 15.0526 126.159 14.6517C126.493 14.4551 126.855 14.2547 127.26 14.1132C127.664 13.9678 128.12 13.897 128.58 13.9442C129.814 14.0818 130.797 14.9504 131.119 15.8661L130.962 15.8465C131.257 15.4338 131.677 15.1901 132.062 15.084C132.448 14.9661 132.809 14.9818 133.088 15.0329C133.371 15.0879 133.576 15.1901 133.705 15.2687C133.827 15.367 133.886 15.422 133.882 15.4259Z" fill="#455A64"/>
<path d="M128.705 29.0021C128.528 28.8292 128.261 28.7741 128.013 28.8016C127.781 28.8292 127.498 29.0335 127.349 29.2851C127.345 29.289 127.341 29.2929 127.337 29.3008C127.329 29.3126 127.321 29.3204 127.313 29.3322L127.321 29.3244C127.266 29.4148 127.235 29.517 127.247 29.6231C127.27 29.855 127.447 30.0515 127.655 30.1537C127.986 30.3188 128.426 30.2716 128.685 30.0043C128.956 29.7371 128.972 29.2615 128.705 29.0021Z" fill="#462682"/>
<path d="M128.903 30.2249C128.872 30.2328 128.832 30.107 128.73 29.942C128.628 29.7769 128.443 29.5725 128.184 29.4507C127.921 29.3328 127.645 29.3288 127.457 29.3603C127.264 29.3878 127.146 29.4428 127.131 29.4153C127.115 29.3956 127.213 29.2934 127.421 29.2227C127.626 29.148 127.952 29.1244 128.27 29.2659C128.585 29.4114 128.781 29.6747 128.86 29.8751C128.942 30.0834 128.931 30.221 128.903 30.2249Z" fill="#212121"/>
<path d="M120.881 30.7119C120.901 30.7001 120.995 30.9084 120.846 31.2071C120.771 31.3486 120.638 31.5058 120.425 31.5844C120.217 31.667 119.946 31.6355 119.734 31.5019C119.517 31.3683 119.376 31.1403 119.36 30.9124C119.341 30.6883 119.427 30.4997 119.521 30.37C119.726 30.1066 119.954 30.1027 119.954 30.1263C119.965 30.1577 119.781 30.2167 119.643 30.4525C119.576 30.5665 119.525 30.7276 119.549 30.8927C119.569 31.0578 119.679 31.2229 119.844 31.329C120.009 31.4312 120.209 31.4587 120.366 31.4076C120.528 31.3565 120.649 31.2425 120.724 31.1325C120.877 30.9045 120.85 30.7119 120.881 30.7119Z" fill="#462682"/>
<path d="M119.556 30.5587C119.58 30.5705 119.544 30.6923 119.371 30.7749C119.289 30.8142 119.171 30.8378 119.045 30.8063C118.915 30.7749 118.793 30.6806 118.723 30.5509C118.652 30.4212 118.64 30.2639 118.683 30.1421C118.727 30.0203 118.809 29.9338 118.888 29.8866C119.053 29.7884 119.175 29.8277 119.171 29.8513C119.175 29.8827 119.073 29.9024 118.978 30.0006C118.876 30.0949 118.805 30.2797 118.904 30.4526C118.998 30.6295 119.19 30.6688 119.324 30.6373C119.458 30.6137 119.528 30.543 119.556 30.5587Z" fill="#462682"/>
<path d="M123.877 65.4641C123.877 65.4641 133.609 66.0301 139.359 66.0812C143.816 66.1205 145.801 64.9375 146.689 62.0762C147.436 59.6708 145.828 55.0645 145.828 55.0645C142.817 55.0802 140.954 55.4968 139.017 56.4047L139.532 58.5114L123.85 59.8634L123.877 65.4641Z" fill="#FFBE9D"/>
<path d="M142.81 60.7593C142.755 60.7947 142.299 59.9418 141.34 59.3011C140.393 58.6448 139.43 58.5308 139.446 58.4679C139.449 58.4443 139.689 58.4365 140.07 58.5229C140.448 58.6055 140.963 58.7981 141.454 59.1361C141.945 59.4741 142.315 59.8789 142.527 60.2012C142.751 60.5235 142.833 60.7475 142.81 60.7593Z" fill="#EB996E"/>
<path d="M120.317 56.3892C120.317 56.3892 117.307 57.1124 115.098 58.5902L117.448 64.9809C118.234 67.0797 120.639 68.1095 122.542 67.0208C125.501 65.3307 126.547 60.3942 126.547 60.3942L129.801 46.2922L124.413 42.916L120.317 56.3892Z" fill="#FFBE9D"/>
<path d="M124.41 42.9153L124.626 38.2775L123.423 33.5807C123.357 33.3213 123.325 32.9951 123.533 32.8379C123.754 32.6728 124.084 32.6807 124.261 32.8615C124.591 33.1995 126.163 37.3224 126.163 37.3224C126.163 37.3224 128.549 35.8878 128.973 35.821C129.397 35.7503 129.928 37.0355 129.963 37.1338C129.995 37.2359 129.967 37.9945 129.967 37.9945C129.967 37.9945 131.441 38.0377 131.575 38.2421C131.709 38.4426 131.744 39.492 131.744 39.492C131.744 39.492 132.369 39.6924 132.467 40.1641C132.569 40.6357 132.77 41.4139 132.475 41.5868C132.18 41.7558 131.559 42.0978 131.559 42.0978C131.559 42.0978 131.308 44.5031 131.245 44.7232C131.182 44.9433 129.798 46.2914 129.798 46.2914L124.41 42.9153Z" fill="#FFBE9D"/>
<path d="M119.398 67.1185C119.406 67.1067 119.544 67.201 119.85 67.3032C120.153 67.4054 120.629 67.4958 121.238 67.4133C121.843 67.3307 122.586 67.0674 123.25 66.4857C123.907 65.8922 124.571 65.1062 125.121 64.1196C125.396 63.6244 125.644 63.082 125.848 62.4964C126.06 61.9108 126.198 61.2741 126.351 60.6138C126.662 59.2893 126.992 57.8626 127.346 56.3494C128.053 53.3191 128.847 49.9272 129.704 46.2759L129.712 46.2484L129.731 46.2288C130.002 45.9615 130.274 45.6903 130.545 45.4113C130.678 45.2698 130.812 45.1283 130.942 44.9829C131.005 44.9082 131.072 44.8335 131.119 44.7628C131.166 44.7156 131.166 44.6213 131.186 44.5191C131.292 43.733 131.374 42.9194 131.461 42.1019L131.465 42.0508L131.512 42.0233C131.759 41.8857 132.007 41.7443 132.262 41.6028C132.321 41.5674 132.404 41.5281 132.439 41.5006C132.471 41.477 132.498 41.4298 132.51 41.3669C132.538 41.249 132.53 41.0997 132.514 40.9582C132.479 40.6831 132.412 40.3608 132.341 40.1053C132.243 39.8656 131.976 39.6966 131.716 39.6022L131.649 39.5786L131.645 39.5118C131.638 39.2839 131.622 39.048 131.594 38.8162C131.582 38.6982 131.567 38.5843 131.543 38.4703C131.531 38.4192 131.516 38.3563 131.5 38.3249C131.488 38.2974 131.492 38.317 131.476 38.3013C131.457 38.2934 131.437 38.2816 131.41 38.2738C130.973 38.1519 130.458 38.1362 129.971 38.1126L129.869 38.1087L129.873 38.0065C129.881 37.7628 129.892 37.4916 129.881 37.2401C129.888 37.1733 129.826 37.0711 129.79 36.9768C129.747 36.8824 129.704 36.7881 129.657 36.6977C129.562 36.513 129.456 36.3361 129.334 36.1789C129.271 36.1003 129.205 36.0296 129.134 35.9824C129.055 35.9352 129.02 35.9234 128.926 35.9588C128.745 36.0217 128.556 36.1199 128.371 36.2143C127.636 36.5955 126.925 37.0121 126.225 37.4287L126.123 37.4877L126.08 37.3777C125.707 36.4462 125.341 35.5265 124.98 34.6225C124.799 34.1705 124.618 33.7185 124.441 33.2744C124.374 33.0504 124.217 32.9207 124.009 32.8696C123.8 32.8145 123.596 32.8814 123.498 33.0582C123.451 33.1408 123.427 33.2429 123.439 33.3373C123.451 33.4237 123.494 33.5574 123.517 33.6635C123.576 33.8914 123.635 34.1155 123.694 34.3395C123.812 34.7876 123.93 35.2356 124.044 35.6758C124.276 36.5562 124.504 37.4248 124.724 38.2698L124.728 38.2856V38.3013C124.649 39.9167 124.575 41.4652 124.504 42.9391V42.9509L124.5 42.9627C123.014 47.797 121.784 51.8059 120.919 54.6122C120.487 56.0035 120.145 57.1001 119.909 57.8547C119.791 58.2202 119.701 58.5032 119.638 58.7036C119.575 58.8962 119.536 58.9945 119.536 58.9945C119.536 58.9945 119.56 58.8923 119.611 58.6997C119.67 58.4953 119.752 58.2124 119.858 57.8429C120.082 57.0844 120.409 55.9839 120.825 54.5847C121.67 51.7705 122.881 47.7537 124.335 42.9116L124.331 42.9312C124.398 41.4573 124.469 39.9088 124.543 38.2934L124.547 38.3209C124.323 37.4759 124.095 36.6112 123.859 35.7269C123.741 35.2867 123.624 34.8426 123.506 34.3906C123.447 34.1666 123.388 33.9386 123.325 33.7146C123.297 33.5927 123.262 33.5023 123.238 33.3569C123.223 33.2194 123.254 33.0779 123.325 32.956C123.396 32.8342 123.506 32.7359 123.643 32.6888C123.781 32.6416 123.918 32.6455 124.048 32.677C124.178 32.7084 124.303 32.7674 124.41 32.8617C124.516 32.9482 124.586 33.0975 124.622 33.1997C124.799 33.6438 124.98 34.0958 125.16 34.5478C125.522 35.4518 125.891 36.3715 126.265 37.303L126.119 37.2519C126.823 36.8353 127.534 36.4187 128.277 36.0296C128.466 35.9352 128.647 35.837 128.859 35.7623C128.918 35.7466 128.973 35.723 129.055 35.7348C129.126 35.7466 129.193 35.7741 129.24 35.8095C129.346 35.8763 129.421 35.9627 129.488 36.0492C129.625 36.2221 129.731 36.4108 129.83 36.6034C129.877 36.6977 129.924 36.796 129.971 36.8942C130.006 36.9964 130.073 37.079 130.081 37.2283C130.093 37.5074 130.081 37.7707 130.073 38.0183L129.975 37.9122C130.482 37.9397 130.969 37.9476 131.476 38.0851C131.508 38.093 131.543 38.1126 131.579 38.1283C131.61 38.1441 131.673 38.1991 131.681 38.2305C131.72 38.3052 131.728 38.3642 131.744 38.431C131.771 38.5568 131.787 38.6747 131.799 38.7965C131.826 39.0363 131.842 39.2721 131.85 39.5079L131.779 39.4136C132.082 39.5275 132.384 39.7044 132.53 40.0346C132.624 40.3568 132.675 40.632 132.718 40.9425C132.734 41.0958 132.746 41.253 132.71 41.418C132.695 41.5006 132.652 41.5949 132.569 41.6617C132.486 41.7207 132.435 41.7403 132.369 41.7796C132.113 41.9211 131.862 42.0626 131.614 42.2002L131.665 42.1216C131.579 42.943 131.492 43.7527 131.386 44.5466L131.362 44.6999C131.358 44.747 131.323 44.8335 131.288 44.8728C131.225 44.9632 131.158 45.0379 131.095 45.1126C130.961 45.2619 130.828 45.4073 130.69 45.5488C130.419 45.8318 130.144 46.103 129.873 46.3703L129.9 46.3231C129.036 49.9704 128.234 53.3584 127.515 56.3887C127.153 57.9019 126.815 59.3286 126.501 60.6492C126.343 61.3095 126.198 61.954 125.982 62.5436C125.77 63.1371 125.514 63.6834 125.235 64.1825C124.669 65.1769 123.993 65.9669 123.321 66.5604C122.633 67.1499 121.871 67.4093 121.257 67.4801C120.636 67.5548 120.149 67.4486 119.85 67.3386C119.697 67.2836 119.587 67.2285 119.516 67.1892C119.434 67.1421 119.398 67.1224 119.398 67.1185Z" fill="#EB996E"/>
<path d="M129.967 37.9908C129.967 38.0183 129.833 38.034 129.625 38.0458C129.417 38.0576 129.134 38.0654 128.843 38.1401C128.552 38.2148 128.316 38.3602 128.175 38.4978C128.029 38.6314 127.966 38.7454 127.939 38.7336C127.915 38.7257 127.931 38.5842 128.065 38.4034C128.194 38.2226 128.458 38.0301 128.788 37.9436C129.118 37.861 129.421 37.8807 129.629 37.9043C129.841 37.9279 129.967 37.9632 129.967 37.9908Z" fill="#EB996E"/>
<path d="M128.81 38.0339C128.759 38.0142 128.755 37.8924 128.803 37.7627C128.85 37.633 128.932 37.5426 128.987 37.5623C129.038 37.5819 129.042 37.7037 128.995 37.8334C128.948 37.9631 128.865 38.0536 128.81 38.0339Z" fill="#EB996E"/>
<path d="M131.804 39.46C131.804 39.5189 131.278 39.5818 130.637 39.6211C130.319 39.6486 130.083 39.7626 129.989 39.9316C129.886 40.0927 129.918 40.2264 129.89 40.2342C129.871 40.2539 129.765 40.1006 129.859 39.8648C129.902 39.7547 130 39.6329 130.142 39.5543C130.279 39.4757 130.448 39.4364 130.613 39.4167C131.274 39.3735 131.808 39.4049 131.804 39.46Z" fill="#EB996E"/>
<path d="M131.548 40.875C131.603 40.879 131.638 41.1698 131.622 41.5235C131.606 41.8812 131.548 42.1642 131.492 42.1642C131.437 42.1603 131.402 41.8694 131.418 41.5157C131.43 41.158 131.489 40.8711 131.548 40.875Z" fill="#EB996E"/>
<path d="M133.176 51.4599L133.526 50.2533C133.596 50.0096 133.899 49.9349 134.076 50.1157L134.532 50.5795L134.815 49.4475C134.889 49.1488 135.298 49.1095 135.432 49.3847L136.076 50.7249L133.176 51.4599Z" fill="white"/>
<path d="M136.084 51.2433C136.096 51.2984 135.475 51.4988 134.696 51.6914C133.914 51.884 133.274 51.998 133.258 51.9429C133.246 51.8879 133.867 51.6875 134.645 51.4949C135.428 51.3023 136.072 51.1883 136.084 51.2433Z" fill="white"/>
<path d="M112.711 44.5283C112.719 44.5362 112.566 44.6777 112.362 44.996C112.161 45.3105 111.937 45.8175 111.827 46.4817C111.713 47.142 111.705 47.9477 111.756 48.836C111.8 49.7242 111.87 50.7029 111.98 51.7248C112.197 53.7685 112.527 55.604 112.81 56.9207C112.951 57.581 113.077 58.1116 113.163 58.4771C113.203 58.6382 113.234 58.7797 113.266 58.8976C113.289 58.9959 113.297 59.047 113.297 59.047C113.297 59.047 113.277 58.9998 113.25 58.9016C113.218 58.7836 113.179 58.6461 113.132 58.4849C113.034 58.1194 112.9 57.5928 112.755 56.9325C112.456 55.6158 112.118 53.7803 111.902 51.7326C111.792 50.7107 111.725 49.7321 111.686 48.8399C111.638 47.9516 111.65 47.1381 111.776 46.4699C111.894 45.8017 112.126 45.2908 112.338 44.9803C112.55 44.662 112.711 44.5283 112.711 44.5283Z" fill="white"/>
<path d="M120.986 39.1814C120.986 39.1853 120.959 39.2011 120.9 39.2286C120.821 39.2679 120.735 39.3072 120.64 39.3504C120.416 39.4565 120.09 39.6138 119.701 39.8299C118.915 40.2505 117.869 40.9029 116.749 41.6772C115.629 42.4475 114.631 43.1786 113.908 43.6974C113.574 43.9332 113.287 44.1376 113.043 44.3066C112.957 44.3655 112.878 44.4206 112.807 44.4677C112.752 44.5031 112.725 44.5227 112.721 44.5188C112.721 44.5149 112.744 44.4952 112.795 44.452C112.866 44.397 112.941 44.3419 113.023 44.2791C113.259 44.1022 113.542 43.89 113.872 43.6463C114.592 43.1157 115.578 42.3768 116.702 41.6064C117.826 40.8322 118.88 40.1876 119.673 39.7788C120.066 39.5705 120.397 39.4172 120.629 39.319C120.727 39.2797 120.813 39.2443 120.896 39.2089C120.951 39.1893 120.982 39.1775 120.986 39.1814Z" fill="white"/>
<path d="M139.728 41.7409C139.724 41.7448 139.705 41.7251 139.661 41.6898C139.606 41.6426 139.547 41.5915 139.485 41.5365C139.331 41.4068 139.099 41.222 138.797 41.0216C138.195 40.6128 137.299 40.153 136.27 39.7442C135.24 39.3316 134.277 39.0407 133.577 38.8481C133.227 38.7499 132.941 38.6791 132.744 38.632C132.665 38.6123 132.591 38.5927 132.516 38.573C132.465 38.5573 132.438 38.5494 132.438 38.5455C132.438 38.5416 132.465 38.5455 132.52 38.5533C132.595 38.5651 132.669 38.5809 132.752 38.5966C132.952 38.6359 133.239 38.6988 133.593 38.7892C134.3 38.966 135.267 39.2529 136.301 39.6656C137.335 40.0783 138.235 40.55 138.828 40.9705C139.43 41.391 139.728 41.7409 139.728 41.7409Z" fill="white"/>
<path d="M121.094 71.7415C121.09 71.7455 121.035 71.7297 120.941 71.6904C120.847 71.6511 120.709 71.5843 120.552 71.4821C120.241 71.2856 119.825 70.9044 119.699 70.3227C119.569 69.7567 119.691 69.2183 119.852 68.8842C119.931 68.7152 120.014 68.5855 120.08 68.5029C120.143 68.4204 120.186 68.3811 120.19 68.385C120.202 68.3929 120.049 68.5698 119.907 68.9078C119.766 69.2418 119.656 69.7607 119.782 70.303C119.9 70.8533 120.293 71.2267 120.587 71.431C120.886 71.6433 121.102 71.7258 121.094 71.7415Z" fill="white"/>
<path d="M119.848 67.4836C119.871 67.4757 119.954 67.6998 120.037 67.9788C120.119 68.2579 120.166 68.4898 120.147 68.4937C120.123 68.5016 120.04 68.2775 119.958 67.9985C119.871 67.7233 119.824 67.4915 119.848 67.4836Z" fill="white"/>
<path d="M125.16 155.607L137.147 155.548L136.931 114.098L136.821 71.9377L120.585 71.7373L117.664 77.2398C116.485 79.4604 115.688 81.8736 115.42 84.3733C115.216 86.2795 116.643 92.4895 117.142 94.0695L121.611 108.242L125.16 155.607Z" fill="#212121"/>
<path d="M140.333 71.9935L153.508 107.905C155.056 112.72 154.538 117.491 151.885 121.936L136.592 151.787L127.992 141.03L140.789 114.288L129.509 96.0117L131.408 72.0328L136.721 71.9463L140.333 71.9935Z" fill="#212121"/>
<path d="M135.723 84.0225C135.723 84.0225 135.731 84.0853 135.742 84.2072C135.75 84.3369 135.762 84.5177 135.778 84.7496C135.805 85.2369 135.841 85.9365 135.888 86.8326C135.974 88.6524 136.104 91.2661 136.257 94.4929C136.407 97.7315 136.583 101.579 136.78 105.852C136.874 107.99 136.976 110.234 137.083 112.561C137.157 113.724 137.122 114.911 137.138 116.11C137.142 117.312 137.145 118.531 137.149 119.769C137.165 129.646 137.181 138.587 137.193 145.068C137.189 148.299 137.185 150.917 137.181 152.736C137.177 153.633 137.169 154.336 137.169 154.82C137.165 155.051 137.161 155.232 137.161 155.362C137.157 155.484 137.149 155.547 137.149 155.547C137.149 155.547 137.142 155.484 137.138 155.362C137.134 155.232 137.13 155.051 137.126 154.82C137.122 154.332 137.11 153.633 137.102 152.736C137.09 150.917 137.071 148.299 137.047 145.068C137.02 138.587 136.984 129.646 136.945 119.769C136.941 118.535 136.937 117.312 136.933 116.114C136.921 114.911 136.957 113.724 136.882 112.565C136.78 110.238 136.686 107.994 136.591 105.855C136.41 101.583 136.249 97.7315 136.112 94.4968C135.982 91.27 135.88 88.6563 135.805 86.8366C135.774 85.9405 135.75 85.2409 135.734 84.7535C135.731 84.5216 135.723 84.3408 135.719 84.2111C135.719 84.0853 135.723 84.0225 135.723 84.0225Z" fill="#455A64"/>
<path d="M135.422 72.7002C135.438 72.7002 135.466 72.8378 135.505 73.0893C135.544 73.3408 135.595 73.7103 135.647 74.1623C135.753 75.0702 135.863 76.3318 135.926 77.7271C135.988 79.1224 135.992 80.3879 135.969 81.3037C135.957 81.7596 135.941 82.133 135.926 82.3885C135.91 82.6439 135.89 82.7854 135.878 82.7854C135.847 82.7854 135.839 82.2195 135.827 81.3076C135.812 80.3958 135.788 79.1342 135.725 77.7428C135.662 76.3515 135.576 75.0938 135.505 74.1819C135.438 73.2701 135.395 72.7041 135.422 72.7002Z" fill="#455A64"/>
<path d="M132.78 73.5101C132.799 73.5376 132.575 73.6398 132.512 73.9581C132.485 74.1114 132.516 74.3079 132.666 74.4376C132.807 74.5713 133.055 74.6341 133.255 74.5437C133.456 74.4534 133.566 74.2215 133.558 74.0289C133.558 73.8284 133.428 73.6791 133.295 73.6005C133.012 73.4393 132.788 73.5415 132.784 73.5101C132.78 73.4983 132.823 73.459 132.921 73.4275C133.019 73.4 133.185 73.3922 133.361 73.4708C133.534 73.5454 133.731 73.742 133.747 74.0171C133.766 74.2804 133.633 74.5909 133.338 74.7285C133.039 74.8582 132.717 74.756 132.532 74.5713C132.332 74.3787 132.312 74.1035 132.371 73.9228C132.426 73.7341 132.536 73.6162 132.626 73.5612C132.717 73.5061 132.776 73.4983 132.78 73.5101Z" fill="#455A64"/>
<path d="M126.492 72.7989C126.504 72.795 126.551 72.9286 126.598 73.1762C126.645 73.4238 126.677 73.7933 126.633 74.2453C126.59 74.6973 126.453 75.2318 126.181 75.7663C125.91 76.3048 125.486 76.8393 124.92 77.252C124.346 77.6568 123.705 77.8848 123.108 77.9712C122.51 78.0577 121.96 78.0184 121.52 77.9123C121.076 77.8101 120.738 77.6647 120.518 77.5389C120.298 77.4131 120.191 77.3267 120.195 77.3149C120.215 77.2756 120.679 77.6057 121.547 77.7708C122.392 77.9398 123.701 77.8612 124.798 77.083C125.887 76.293 126.378 75.0785 126.488 74.2256C126.614 73.3492 126.449 72.8028 126.492 72.7989Z" fill="#455A64"/>
<path d="M141.916 76.2411C141.916 76.2607 141.617 76.2843 141.161 76.1507C140.705 76.021 140.108 75.7026 139.612 75.1602C139.121 74.6178 138.862 73.989 138.775 73.5252C138.689 73.0575 138.74 72.7627 138.76 72.7666C138.795 72.7666 138.799 73.0536 138.917 73.4937C139.031 73.93 139.298 74.5117 139.762 75.0266C140.229 75.5375 140.78 75.8598 141.204 76.017C141.629 76.1742 141.92 76.2018 141.916 76.2411Z" fill="#455A64"/>
<path d="M146.594 114.955C146.61 114.974 146.366 115.214 145.899 115.509C145.663 115.65 145.368 115.807 145.003 115.898C144.645 115.992 144.209 116.004 143.796 115.866C142.959 115.591 142.436 114.962 142.118 114.53C141.799 114.086 141.638 113.787 141.658 113.775C141.681 113.756 141.89 114.027 142.232 114.444C142.574 114.848 143.092 115.422 143.859 115.674C144.629 115.929 145.364 115.631 145.824 115.383C146.3 115.127 146.575 114.927 146.594 114.955Z" fill="#455A64"/>
<path d="M143.592 117.25C143.544 117.282 142.99 116.582 142.35 115.682C141.709 114.782 141.229 114.028 141.277 113.996C141.324 113.965 141.878 114.664 142.519 115.564C143.159 116.46 143.639 117.215 143.592 117.25Z" fill="#455A64"/>
<path d="M123.454 85.418C123.403 85.4377 123.261 85.2137 123.14 84.911C123.018 84.6123 122.967 84.349 123.018 84.3293C123.069 84.3097 123.21 84.5337 123.328 84.8363C123.45 85.135 123.505 85.3944 123.454 85.418Z" fill="#212121"/>
<path d="M131.063 86.5024C131.008 86.5024 130.961 86.3059 130.961 86.0662C130.961 85.8264 131.008 85.6299 131.063 85.6299C131.118 85.6299 131.165 85.8264 131.165 86.0662C131.165 86.3098 131.118 86.5024 131.063 86.5024Z" fill="#212121"/>
<path d="M127.935 90.6376C127.88 90.6415 127.817 90.4018 127.797 90.0991C127.778 89.8004 127.805 89.5528 127.864 89.5489C127.919 89.5449 127.982 89.7847 128.002 90.0873C128.021 90.386 127.99 90.6336 127.935 90.6376Z" fill="#212121"/>
<path d="M122.217 93.6801C122.17 93.7155 122.009 93.57 121.797 93.4167C121.588 93.2635 121.4 93.1534 121.419 93.0984C121.435 93.0473 121.679 93.0787 121.919 93.2517C122.158 93.4246 122.264 93.6486 122.217 93.6801Z" fill="#212121"/>
<path d="M132.292 97.5207C132.244 97.4892 132.303 97.3163 132.425 97.1394C132.547 96.9586 132.681 96.8368 132.728 96.8682C132.775 96.8997 132.716 97.0726 132.594 97.2495C132.476 97.4342 132.339 97.5521 132.292 97.5207Z" fill="#212121"/>
<path d="M126.059 98.6085C126.004 98.6085 125.957 98.2823 125.957 97.8853C125.957 97.4844 126.004 97.1621 126.059 97.1621C126.114 97.1621 126.161 97.4883 126.161 97.8853C126.161 98.2823 126.118 98.6085 126.059 98.6085Z" fill="#212121"/>
<path d="M124.039 103.019C124.008 103.066 123.8 102.971 123.579 102.81C123.359 102.649 123.206 102.484 123.241 102.437C123.273 102.39 123.481 102.484 123.701 102.645C123.921 102.806 124.075 102.971 124.039 103.019Z" fill="#212121"/>
<path d="M130.335 104.551C130.358 104.602 130.229 104.708 130.052 104.79C129.871 104.869 129.706 104.892 129.682 104.841C129.659 104.79 129.789 104.684 129.965 104.602C130.15 104.523 130.315 104.499 130.335 104.551Z" fill="#212121"/>
<path d="M126.059 111.728C126.008 111.752 125.804 111.449 125.607 111.048C125.407 110.647 125.285 110.301 125.336 110.278C125.387 110.254 125.591 110.557 125.788 110.958C125.988 111.359 126.11 111.7 126.059 111.728Z" fill="#212121"/>
<path d="M133.022 111.075C132.971 111.048 133.061 110.785 133.223 110.482C133.384 110.183 133.553 109.959 133.604 109.987C133.655 110.014 133.564 110.278 133.403 110.58C133.242 110.879 133.069 111.103 133.022 111.075Z" fill="#212121"/>
<path d="M129.974 117.164C129.915 117.156 129.919 116.845 129.86 116.476C129.805 116.106 129.703 115.812 129.758 115.788C129.805 115.76 130.002 116.04 130.065 116.444C130.127 116.849 130.029 117.175 129.974 117.164Z" fill="#212121"/>
<path d="M126.714 120.642C126.671 120.681 126.474 120.532 126.278 120.312C126.077 120.092 125.948 119.883 125.991 119.844C126.034 119.805 126.23 119.954 126.427 120.174C126.627 120.394 126.757 120.603 126.714 120.642Z" fill="#212121"/>
<path d="M134.628 121.963C134.588 121.924 134.734 121.712 134.95 121.492C135.17 121.272 135.378 121.122 135.417 121.162C135.457 121.201 135.311 121.413 135.095 121.633C134.879 121.853 134.671 122.003 134.628 121.963Z" fill="#212121"/>
<path d="M130.077 127.171C130.022 127.164 130.022 126.865 130.073 126.503C130.128 126.142 130.218 125.855 130.273 125.867C130.328 125.874 130.328 126.173 130.273 126.535C130.222 126.892 130.132 127.179 130.077 127.171Z" fill="#212121"/>
<path d="M127.016 129.698C126.969 129.726 126.796 129.525 126.631 129.246C126.469 128.967 126.375 128.719 126.422 128.692C126.469 128.664 126.642 128.865 126.807 129.144C126.969 129.419 127.063 129.667 127.016 129.698Z" fill="#212121"/>
<path d="M134.392 132.885C134.424 132.932 134.223 133.132 133.944 133.333C133.665 133.533 133.41 133.659 133.378 133.612C133.347 133.565 133.547 133.364 133.826 133.164C134.105 132.963 134.361 132.841 134.392 132.885Z" fill="#212121"/>
<path d="M128.245 137.024C128.19 137.004 128.261 136.686 128.292 136.297C128.327 135.908 128.316 135.581 128.371 135.574C128.426 135.562 128.532 135.896 128.493 136.316C128.461 136.737 128.296 137.047 128.245 137.024Z" fill="#212121"/>
<path d="M130.701 142.967C130.658 143.003 130.493 142.869 130.332 142.668C130.171 142.468 130.076 142.279 130.123 142.244C130.167 142.209 130.332 142.342 130.493 142.543C130.65 142.739 130.744 142.932 130.701 142.967Z" fill="#212121"/>
<path d="M128.016 146.952C127.969 146.984 127.753 146.752 127.532 146.43C127.312 146.107 127.171 145.824 127.218 145.793C127.265 145.761 127.481 145.993 127.701 146.316C127.922 146.634 128.063 146.921 128.016 146.952Z" fill="#212121"/>
<path d="M135.411 141.949C135.359 141.929 135.363 141.784 135.422 141.623C135.481 141.462 135.576 141.348 135.627 141.367C135.678 141.387 135.674 141.533 135.615 141.694C135.556 141.859 135.466 141.973 135.411 141.949Z" fill="#212121"/>
<path d="M132.149 151.444C132.098 151.416 132.196 151.137 132.271 150.787C132.349 150.437 132.381 150.143 132.436 150.139C132.491 150.135 132.554 150.449 132.467 150.83C132.389 151.212 132.196 151.471 132.149 151.444Z" fill="#212121"/>
<path d="M134.27 90.7006C134.219 90.7241 134.093 90.5669 133.991 90.3468C133.889 90.1267 133.845 89.9302 133.897 89.9066C133.948 89.8831 134.073 90.0403 134.176 90.2604C134.278 90.4805 134.321 90.677 134.27 90.7006Z" fill="#212121"/>
<path d="M128.815 78.4616C128.846 78.5127 128.571 78.7328 128.276 79.0472C127.982 79.3577 127.777 79.6486 127.726 79.621C127.679 79.5975 127.809 79.2437 128.127 78.9057C128.442 78.5677 128.787 78.4105 128.815 78.4616Z" fill="#212121"/>
<path d="M133.674 78.3164C133.619 78.3282 133.524 78.0963 133.387 77.8251C133.253 77.5539 133.123 77.3417 133.167 77.3024C133.206 77.2631 133.422 77.436 133.571 77.7347C133.721 78.0295 133.725 78.3046 133.674 78.3164Z" fill="#212121"/>
<path d="M118.541 82.3096C118.49 82.29 118.541 82.0266 118.663 81.7279C118.781 81.4253 118.922 81.2013 118.974 81.2209C119.025 81.2406 118.974 81.5039 118.852 81.8026C118.734 82.1013 118.596 82.3293 118.541 82.3096Z" fill="#212121"/>
<path d="M119.034 88.2444C118.998 88.2876 118.774 88.1618 118.534 87.9614C118.295 87.7609 118.13 87.5644 118.165 87.5212C118.2 87.478 118.424 87.6037 118.664 87.8042C118.904 88.0046 119.069 88.2011 119.034 88.2444Z" fill="#212121"/>
<path d="M128.96 73.7494C128.909 73.7691 128.799 73.6236 128.721 73.4232C128.642 73.2227 128.619 73.0419 128.67 73.0223C128.721 73.0026 128.831 73.1481 128.909 73.3485C128.992 73.549 129.012 73.7297 128.96 73.7494Z" fill="#212121"/>
<path d="M138.466 76.6493C138.411 76.6375 138.415 76.4016 138.478 76.1187C138.541 75.8396 138.635 75.6234 138.69 75.6352C138.745 75.647 138.741 75.8828 138.678 76.1658C138.616 76.4449 138.521 76.661 138.466 76.6493Z" fill="#212121"/>
<path d="M140.7 81.1414C140.649 81.1218 140.72 80.827 140.857 80.4851C140.999 80.1431 141.152 79.8877 141.207 79.9073C141.258 79.927 141.188 80.2217 141.05 80.5637C140.909 80.9056 140.755 81.1611 140.7 81.1414Z" fill="#212121"/>
<path d="M139.107 84.7663C139.056 84.7898 138.871 84.5187 138.69 84.161C138.509 83.7994 138.403 83.4889 138.454 83.4614C138.505 83.4378 138.69 83.709 138.871 84.0667C139.052 84.4283 139.158 84.7387 139.107 84.7663Z" fill="#212121"/>
<path d="M142.511 88.3899C142.46 88.3703 142.496 88.1423 142.598 87.8829C142.696 87.6235 142.822 87.427 142.873 87.4467C142.924 87.4663 142.889 87.6943 142.787 87.9537C142.688 88.217 142.566 88.4096 142.511 88.3899Z" fill="#212121"/>
<path d="M139.471 91.9388C139.423 91.9702 139.302 91.8641 139.203 91.703C139.105 91.5418 139.062 91.3885 139.109 91.3571C139.156 91.3256 139.278 91.4318 139.376 91.5929C139.474 91.758 139.518 91.9113 139.471 91.9388Z" fill="#212121"/>
<path d="M140.119 99.2651C140.075 99.3044 139.832 99.1079 139.572 98.8289C139.313 98.5498 139.136 98.2904 139.175 98.2511C139.219 98.2118 139.462 98.4083 139.722 98.6874C139.985 98.9664 140.162 99.2258 140.119 99.2651Z" fill="#212121"/>
<path d="M144.108 95.0552C144.065 95.0906 143.849 94.8901 143.629 94.6111C143.409 94.332 143.267 94.0765 143.311 94.0412C143.354 94.0058 143.57 94.2062 143.79 94.4853C144.01 94.7683 144.152 95.0237 144.108 95.0552Z" fill="#212121"/>
<path d="M146.296 100.861C146.244 100.838 146.335 100.543 146.496 100.201C146.657 99.8628 146.83 99.6034 146.881 99.6309C146.932 99.6545 146.842 99.9493 146.681 100.291C146.52 100.629 146.347 100.889 146.296 100.861Z" fill="#212121"/>
<path d="M141.643 105.641C141.592 105.672 141.411 105.452 141.155 105.22C140.904 104.988 140.672 104.823 140.699 104.768C140.723 104.717 141.018 104.812 141.297 105.067C141.572 105.326 141.69 105.613 141.643 105.641Z" fill="#212121"/>
<path d="M141.933 110.568C141.933 110.623 141.737 110.67 141.497 110.67C141.257 110.67 141.061 110.623 141.061 110.568C141.061 110.513 141.257 110.466 141.497 110.466C141.737 110.466 141.933 110.509 141.933 110.568Z" fill="#212121"/>
<path d="M146.719 109.189C146.668 109.157 146.77 108.914 146.845 108.603C146.923 108.297 146.951 108.033 147.01 108.029C147.065 108.022 147.132 108.312 147.045 108.654C146.959 109 146.762 109.22 146.719 109.189Z" fill="#212121"/>
<path d="M151.469 110.844C151.414 110.864 151.268 110.588 151.146 110.231C151.021 109.873 150.962 109.567 151.017 109.547C151.072 109.527 151.213 109.802 151.339 110.16C151.465 110.518 151.524 110.824 151.469 110.844Z" fill="#212121"/>
<path d="M150.709 117.604C150.658 117.576 150.78 117.246 150.98 116.869C151.181 116.488 151.381 116.201 151.432 116.228C151.483 116.256 151.361 116.586 151.161 116.963C150.964 117.341 150.76 117.628 150.709 117.604Z" fill="#212121"/>
<path d="M146.374 121.577C146.323 121.597 146.162 121.326 146.013 120.968C145.867 120.61 145.789 120.304 145.84 120.28C145.891 120.261 146.052 120.532 146.201 120.889C146.351 121.247 146.425 121.554 146.374 121.577Z" fill="#212121"/>
<path d="M141.573 123.107C141.573 123.162 141.412 123.209 141.211 123.209C141.011 123.209 140.85 123.162 140.85 123.107C140.85 123.052 141.011 123.005 141.211 123.005C141.408 123.005 141.573 123.052 141.573 123.107Z" fill="#212121"/>
<path d="M144.323 129.412C144.268 129.427 144.158 129.196 144.079 128.893C144 128.594 143.977 128.339 144.032 128.323C144.087 128.307 144.197 128.539 144.276 128.842C144.358 129.144 144.378 129.4 144.323 129.412Z" fill="#212121"/>
<path d="M140.847 127.308C140.8 127.28 140.855 127.092 140.977 126.891C141.098 126.691 141.232 126.553 141.283 126.581C141.33 126.608 141.275 126.797 141.153 126.997C141.032 127.202 140.898 127.339 140.847 127.308Z" fill="#212121"/>
<path d="M140.776 134.269C140.721 134.277 140.643 134.006 140.603 133.664C140.564 133.322 140.576 133.043 140.631 133.035C140.686 133.027 140.764 133.299 140.804 133.641C140.843 133.983 140.831 134.262 140.776 134.269Z" fill="#212121"/>
</svg>
