<svg width="334" height="242" viewBox="0 0 334 242" fill="none" xmlns="http://www.w3.org/2000/svg">
<g clip-path="url(#clip0_5881_5080)">
<path d="M306.695 100.832C305.89 100.515 303.848 97.752 303.848 97.752C303.848 97.752 304.843 101.11 304.544 101.875C304.177 102.81 301.182 104.554 301.182 104.554C301.182 104.554 304.372 103.889 305.14 104.191C306.069 104.557 307.969 107.228 307.969 107.228C307.969 107.228 307.245 104.181 307.611 103.25C307.911 102.48 310.635 100.425 310.635 100.425C310.635 100.425 307.587 101.182 306.696 100.83L306.695 100.832Z" fill="white"/>
<path d="M63.2498 39.3044C62.4444 38.9874 60.4032 36.2246 60.4032 36.2246C60.4032 36.2246 61.398 39.5824 61.0985 40.3478C60.732 41.2822 57.7363 43.0268 57.7363 43.0268C57.7363 43.0268 60.9271 42.3619 61.6948 42.6636C62.6242 43.0296 64.5233 45.7002 64.5233 45.7002C64.5233 45.7002 63.8002 42.6539 64.1652 41.7222C64.4662 40.9526 67.1902 38.898 67.1902 38.898C67.1902 38.898 64.1415 39.655 63.2512 39.3031L63.2498 39.3044Z" fill="white"/>
<path d="M273.873 120.878C273.067 120.561 271.026 117.798 271.026 117.798C271.026 117.798 272.021 121.156 271.722 121.921C271.355 122.855 268.359 124.6 268.359 124.6C268.359 124.6 271.55 123.935 272.318 124.237C273.247 124.603 275.146 127.273 275.146 127.273C275.146 127.273 274.423 124.227 274.788 123.295C275.089 122.526 277.813 120.471 277.813 120.471C277.813 120.471 274.765 121.228 273.874 120.876L273.873 120.878Z" fill="white"/>
<path d="M45.4314 88.5134C44.6261 88.1964 42.5848 85.4336 42.5848 85.4336C42.5848 85.4336 43.5797 88.7914 43.2801 89.5568C42.9137 90.4912 39.918 92.2358 39.918 92.2358C39.918 92.2358 43.1087 91.5709 43.8765 91.8726C44.8058 92.2386 46.705 94.9092 46.705 94.9092C46.705 94.9092 45.9818 91.8629 46.3469 90.9312C46.6478 90.1616 49.3718 88.107 49.3718 88.107C49.3718 88.107 46.3232 88.864 45.4328 88.512L45.4314 88.5134Z" fill="white"/>
<path d="M266.209 81.4057C266.209 81.4057 262.367 83.3011 261.382 83.0944C260.181 82.843 257.464 79.5718 257.464 79.5718C257.464 79.5718 258.92 83.2997 258.714 84.29C258.463 85.4912 255.635 88.3378 255.635 88.3378C255.635 88.3378 259.157 86.8363 260.355 87.0877C261.345 87.2944 264.379 90.1717 264.379 90.1717C264.379 90.1717 262.841 86.6352 263.082 85.4842C263.3 84.4437 266.209 81.4043 266.209 81.4043V81.4057Z" fill="white"/>
<path d="M216.037 0.991695C216.037 0.991695 213.959 2.01691 213.426 1.90517C212.776 1.76829 211.306 0 211.306 0C211.306 0 212.094 2.01691 211.981 2.55326C211.846 3.20275 210.316 4.74337 210.316 4.74337C210.316 4.74337 212.223 3.93186 212.87 4.06734C213.405 4.17908 215.048 5.73507 215.048 5.73507C215.048 5.73507 214.216 3.82152 214.346 3.19996C214.463 2.63707 216.037 0.993091 216.037 0.993091V0.991695Z" fill="white"/>
<path d="M164.12 3.66941C164.12 3.66941 162.44 4.49769 162.009 4.40829C161.484 4.29795 160.295 2.86768 160.295 2.86768C160.295 2.86768 160.932 4.49769 160.841 4.93208C160.731 5.45726 159.494 6.70316 159.494 6.70316C159.494 6.70316 161.035 6.04669 161.559 6.15703C161.991 6.24782 163.32 7.50629 163.32 7.50629C163.32 7.50629 162.647 5.96009 162.753 5.45586C162.848 5.00052 164.121 3.67081 164.121 3.67081L164.12 3.66941Z" fill="white"/>
<path d="M205.497 21.3021C205.497 21.3021 202.179 22.9391 201.327 22.7603C200.289 22.5424 197.941 19.7168 197.941 19.7168C197.941 19.7168 199.2 22.9377 199.021 23.7939C198.805 24.8317 196.361 27.2914 196.361 27.2914C196.361 27.2914 199.406 25.9938 200.44 26.2117C201.294 26.3905 203.917 28.8767 203.917 28.8767C203.917 28.8767 202.588 25.822 202.796 24.8275C202.984 23.928 205.497 21.3021 205.497 21.3021Z" fill="white"/>
<path d="M254.279 33.2303C254.279 33.2303 250.96 34.8673 250.108 34.6885C249.07 34.4707 246.723 31.645 246.723 31.645C246.723 31.645 247.981 34.8659 247.802 35.7221C247.586 36.7599 245.143 39.2196 245.143 39.2196C245.143 39.2196 248.187 37.922 249.221 38.1399C250.075 38.3187 252.699 40.8049 252.699 40.8049C252.699 40.8049 251.369 37.7502 251.577 36.7557C251.765 35.8562 254.279 33.2303 254.279 33.2303Z" fill="white"/>
<path d="M285.983 56.2471C285.983 56.2471 283.926 57.2611 283.398 57.1508C282.754 57.0153 281.3 55.2651 281.3 55.2651C281.3 55.2651 282.08 57.2611 281.969 57.7919C281.835 58.4344 280.32 59.9596 280.32 59.9596C280.32 59.9596 282.207 59.1565 282.848 59.2906C283.377 59.4009 285.002 60.9415 285.002 60.9415C285.002 60.9415 284.178 59.0489 284.307 58.4316C284.422 57.8743 285.98 56.2471 285.98 56.2471H285.983Z" fill="white"/>
<path d="M28.8637 53.4106C28.8637 53.4106 26.8071 54.4247 26.2791 54.3143C25.6353 54.1788 24.1807 52.4287 24.1807 52.4287C24.1807 52.4287 24.961 54.4247 24.8495 54.9554C24.7157 55.5979 23.2012 57.1232 23.2012 57.1232C23.2012 57.1232 25.0878 56.3201 25.7287 56.4542C26.2582 56.5645 27.8828 58.1051 27.8828 58.1051C27.8828 58.1051 27.0593 56.2125 27.1875 55.5952C27.3032 55.0378 28.8609 53.4106 28.8609 53.4106H28.8637Z" fill="white"/>
<path d="M98.4282 6.16795C98.4282 6.16795 96.3716 7.182 95.8435 7.07165C95.1998 6.93617 93.7451 5.18604 93.7451 5.18604C93.7451 5.18604 94.5254 7.182 94.4139 7.71276C94.2802 8.35527 92.7656 9.88052 92.7656 9.88052C92.7656 9.88052 94.6522 9.07739 95.2931 9.21148C95.8226 9.32182 97.4473 10.8624 97.4473 10.8624C97.4473 10.8624 96.6238 8.96984 96.752 8.35247C96.8676 7.79517 98.4254 6.16795 98.4254 6.16795H98.4282Z" fill="white"/>
<path d="M19.002 109.633C19.002 109.633 17.5683 110.339 17.2004 110.263C16.7518 110.169 15.7374 108.948 15.7374 108.948C15.7374 108.948 16.2808 110.339 16.2042 110.71C16.1108 111.158 15.0547 112.221 15.0547 112.221C15.0547 112.221 16.37 111.661 16.8173 111.754C17.1865 111.831 18.3193 112.905 18.3193 112.905C18.3193 112.905 17.7452 111.585 17.8344 111.155C17.9152 110.767 19.002 109.633 19.002 109.633Z" fill="white"/>
<path d="M54.8575 121.243C54.8575 121.243 53.4237 121.949 53.0559 121.872C52.6072 121.779 51.5929 120.558 51.5929 120.558C51.5929 120.558 52.1363 121.949 52.0597 122.319C51.9663 122.768 50.9102 123.831 50.9102 123.831C50.9102 123.831 52.2255 123.271 52.6727 123.364C53.042 123.441 54.1748 124.515 54.1748 124.515C54.1748 124.515 53.6007 123.195 53.6899 122.765C53.7707 122.377 54.8575 121.243 54.8575 121.243Z" fill="white"/>
<path d="M288.955 180.704C288.863 180.834 288.813 180.905 288.814 180.905C288.814 180.905 288.865 180.836 288.955 180.704Z" fill="#A9D9ED"/>
<path d="M328.107 177.295C324.076 176.399 320.544 178.453 318.395 179.618C307.435 185.57 296.914 187.752 296.593 187.131C296.113 186.201 318.128 178.177 321.3 163.75C321.643 162.188 322.942 156.286 319.876 153.647C318.077 152.098 315.539 152.328 314.764 152.398C309.673 152.861 306.187 157.316 304.239 159.878C298.789 167.042 290.153 179.02 288.954 180.704C288.862 180.836 288.813 180.905 288.813 180.905C288.813 180.905 288.862 180.833 288.954 180.704C290.534 178.41 304.747 156.956 301.328 140.536C301.009 139.001 300.021 134.262 297.494 133.731C294.503 133.104 290.999 138.712 289.588 140.97C285.856 146.943 284.717 152.559 284.191 155.35C281.612 169.056 281.331 181.201 280.985 181.194C280.73 181.188 281.515 174.561 278.555 167.103C277.874 165.387 275.217 158.691 271.798 158.779C270.967 158.8 269.397 159.18 267.629 162.382C255.416 184.508 270.661 216.986 276.603 221.973C291.048 234.094 327.896 211.783 327.853 204.228C327.81 196.58 295.679 210.03 294.636 205.425C294.484 204.756 313.904 202.176 327.021 191.993C328.795 190.616 335.009 185.792 333.856 181.632C333.186 179.215 330.232 177.768 328.105 177.294L328.107 177.295Z" fill="#89DCD2"/>
<path d="M288.955 180.704C288.863 180.834 288.813 180.905 288.814 180.905C288.814 180.905 288.865 180.836 288.955 180.704Z" fill="#A9D9ED"/>
<path d="M297.496 133.731C294.505 133.104 291.001 138.712 289.59 140.97C285.858 146.943 284.719 152.559 284.193 155.35C281.614 169.056 281.333 181.201 280.987 181.194C280.732 181.188 281.517 174.561 278.557 167.103C277.876 165.387 275.219 158.691 271.799 158.779C270.969 158.8 269.399 159.18 267.631 162.382C255.418 184.508 270.663 216.986 276.605 221.973C279.71 224.578 283.849 225.592 288.435 225.504C290.564 218.975 292.01 210.598 287.778 205.756C285.75 203.433 281.749 201.162 280.706 202.077C279.321 203.29 283.749 209.586 283.276 209.891C282.569 210.352 269.906 197.972 270.741 184.247C270.802 183.236 271.21 176.524 273.986 175.811C274.569 175.66 275.638 175.679 277.541 177.389C283.524 182.762 283.297 191.848 284.085 191.809C284.951 191.766 284.528 180.799 286.418 167.267C286.673 165.441 287.348 160.874 288.89 155.093C290.451 149.243 291.363 145.93 293.767 142.307C294.907 140.59 296.786 138.193 299.802 135.837C299.232 134.788 298.481 133.939 297.494 133.732L297.496 133.731Z" fill="#14B9A4"/>
<path d="M295.399 149.647C294.274 151.277 293.062 153.829 293.277 154.503C293.468 155.105 294.771 154.147 295.712 152.99C297.269 151.078 298.512 147.792 298.234 147.155C297.981 146.572 296.427 148.156 295.4 149.645L295.399 149.647Z" fill="#14B9A4"/>
<path d="M290.64 162.065C289.043 164.881 289.567 170.587 290.137 170.704C290.876 170.858 292.853 161.892 292.074 160.855C291.746 160.42 290.984 161.456 290.639 162.064L290.64 162.065Z" fill="#14B9A4"/>
<path d="M307.625 160.687C306.452 162.445 305.703 165.011 306.235 165.317C307.281 165.917 313.673 158.015 312.871 157.132C312.416 156.629 309.355 158.094 307.625 160.687Z" fill="#14B9A4"/>
<path d="M308.815 169.451C307.165 170.106 305.192 171.534 305.453 172.358C305.707 173.16 308.064 173.345 309.888 172.686C311.913 171.954 313.66 170.044 313.288 169.257C312.921 168.481 310.484 168.788 308.815 169.451Z" fill="#14B9A4"/>
<path d="M301.009 168.609C300.547 168.323 298.158 170.594 297.232 173.588C296.755 175.13 296.507 177.379 296.942 177.51C297.839 177.781 301.803 169.103 301.008 168.609H301.009Z" fill="#14B9A4"/>
<path d="M273.341 181.02C272.687 181.335 273.311 184.639 274.985 187.19C275.732 188.328 277.153 190.027 277.681 189.756C278.299 189.439 277.62 186.459 276.26 184.128C275.451 182.743 273.91 180.745 273.342 181.019L273.341 181.02Z" fill="#14B9A4"/>
<path d="M291.525 190.52C289.619 191.954 288.981 194.628 289.613 195.111C290.704 195.946 296.643 191.057 296.038 189.802C295.702 189.105 293.218 189.246 291.526 190.52H291.525Z" fill="#14B9A4"/>
<path d="M305.139 194.419C303.405 194.22 301.193 194.499 301.168 194.914C301.118 195.741 309.705 197.407 309.96 196.617C310.102 196.175 307.725 194.717 305.139 194.419Z" fill="#14B9A4"/>
<path d="M311.398 187.785C310.678 188.427 309.251 189.918 309.621 190.545C309.977 191.151 311.931 190.82 313.331 190.031C315.386 188.872 316.792 186.415 316.267 185.779C315.732 185.13 313.097 186.268 311.397 187.785H311.398Z" fill="#14B9A4"/>
<path d="M325.551 184.363C323.134 184.947 321.105 186.886 321.388 187.472C321.896 188.53 330.34 186.151 330.227 184.972C330.167 184.343 327.654 183.855 325.551 184.363Z" fill="#14B9A4"/>
<path d="M295.517 211.061C293.032 213.448 292.08 217.051 292.687 217.424C293.744 218.072 300.71 209.703 299.884 208.755C299.47 208.28 297.044 209.594 295.517 211.061Z" fill="#14B9A4"/>
<path d="M305.221 214.671C304.346 214.6 303.468 214.706 303.468 214.706C302.724 214.797 301.532 214.942 301.51 215.185C301.45 215.849 310.051 217.678 310.302 216.888C310.455 216.409 307.567 214.862 305.219 214.671H305.221Z" fill="#14B9A4"/>
<path d="M311.313 206.71C309.566 207.984 308.206 210.228 308.658 210.72C309.517 211.657 317.377 206.708 316.908 205.546C316.642 204.888 313.555 205.076 311.313 206.71Z" fill="#14B9A4"/>
<path d="M66.5498 158.705C64.4249 156.949 59.4103 157.762 57.5418 164.666C55.254 173.117 56.4606 183.686 56.1847 183.687C56.0092 183.687 55.3501 174.664 53.5429 165.333C50.0108 147.092 44.7537 141.437 42.9201 139.667C41.7622 138.551 37.6463 134.577 34.946 135.935C32.6302 137.099 31.7914 141.711 32.5174 146.76C35.1578 165.115 44.0738 184.433 41.634 184.781C41.634 184.781 32.4881 160.86 23.4885 151.676C19.3475 147.45 10.7422 142.81 7.08605 146.129C5.0852 147.944 5.10192 151.716 5.10889 153.246C5.1284 157.685 6.89237 161.324 10.4997 167.25C16.3518 176.866 24.5642 186.076 24.1308 186.605C23.6919 187.14 15.8209 177.195 9.13983 176.582C6.03407 176.297 1.7579 177.388 0.416106 180.817C-1.19739 184.937 2.15221 190.587 5.81114 196.61C9.23737 202.249 14.3231 210.436 23.9302 217.191C30.6475 221.914 38.839 227.675 47.6937 226.047C65.4714 222.778 69.8297 192.678 70.5919 187.408C71.2969 182.543 73.8718 164.754 66.5498 158.706V158.705Z" fill="#89DCD2"/>
<path d="M66.5506 158.705C64.4257 156.949 59.4111 157.762 57.5426 164.666C55.2547 173.117 56.4614 183.686 56.1855 183.687C56.0099 183.687 55.3509 174.664 53.5437 165.333C50.0116 147.092 44.7545 141.437 42.9208 139.667C41.763 138.551 37.647 134.577 34.9467 135.935C33.9059 136.457 33.1646 137.678 32.7285 139.319C33.8961 139.209 35.1376 139.298 36.3763 139.737C39.1908 140.733 40.7639 143.099 41.7616 144.846C51.5791 162.021 50.0966 184.205 50.0966 184.205C49.3149 195.905 46.7302 206.037 47.3071 206.165C47.9508 206.308 50.2958 193.539 53.056 193.635C55.1126 193.706 56.5519 200.89 56.9699 204.12C57.4437 207.784 57.6471 214.434 53.9505 223.537C66.5394 215.394 69.928 191.997 70.5927 187.41C71.2977 182.545 73.8726 164.756 66.5506 158.708V158.705Z" fill="#14B9A4"/>
<path d="M11.7016 191.749C10.2358 191.313 6.86396 190.633 6.26482 191.784C5.54028 193.177 8.75333 197.494 12.6171 197.697C14.4981 197.796 16.8278 196.935 17.0173 195.719C17.2569 194.174 13.9784 192.425 11.7016 191.749Z" fill="#14B9A4"/>
<path d="M25.1641 191.202C24.5412 191.268 24.1497 193.311 24.2263 194.94C24.3601 197.811 26.0042 200.609 26.7497 200.437C27.4603 200.272 27.445 197.395 27.0729 195.384C26.7371 193.568 25.8649 191.129 25.1641 191.203V191.202Z" fill="#14B9A4"/>
<path d="M26.4793 207.462C24.4701 206.686 20.878 205.643 20.4921 206.41C20.0908 207.209 23.2007 209.903 26.5879 211.402C29.6101 212.74 33.5031 213.413 33.8514 212.592C34.236 211.685 30.2984 208.934 26.4793 207.46V207.462Z" fill="#14B9A4"/>
<path d="M20.0478 152.433C19.4514 152.499 19.1797 154.938 19.2383 156.631C19.3678 160.416 21.2656 163.975 21.9817 163.803C22.6324 163.647 22.3468 160.394 22.2688 159.504C21.9734 156.153 20.8113 152.348 20.0492 152.432L20.0478 152.433Z" fill="#14B9A4"/>
<path d="M22.2716 170.174C20.4017 168.581 17.7168 167.27 17.1761 167.879C16.6369 168.486 18.3061 170.914 19.6716 172.39C21.8898 174.787 25.2478 176.773 25.9054 176.103C26.5436 175.452 24.7002 172.239 22.2716 170.172V170.174Z" fill="#14B9A4"/>
<path d="M34.3822 177.204C33.7441 177.216 33.0613 179.589 33.177 181.76C33.3539 185.083 35.4077 188.098 36.1225 187.883C36.9014 187.649 36.259 183.527 36.0877 182.433C35.979 181.736 35.2698 177.186 34.3822 177.204Z" fill="#14B9A4"/>
<path d="M34.218 194.374C33.2956 194.906 33.8418 198.296 35.4915 200.718C37.2137 203.247 40.3571 205.039 41.2028 204.328C42.1016 203.574 40.4546 199.961 38.5889 197.616C37.4715 196.212 35.1432 193.84 34.2194 194.374H34.218Z" fill="#14B9A4"/>
<path d="M40.2177 210.561C38.7784 209.795 36.712 209.306 36.3247 209.914C35.674 210.932 39.9822 214.642 40.162 214.794C41.2906 215.758 43.9825 218.056 44.6332 217.512C45.3731 216.895 43.7108 212.417 40.2191 210.559L40.2177 210.561Z" fill="#14B9A4"/>
<path d="M36.5908 146.06C35.7799 146.281 36.0098 150.033 37.0102 152.892C37.2624 153.611 37.849 155.287 38.4049 155.231C39.0096 155.17 39.4472 153.071 39.2786 151.263C39.0236 148.528 37.3237 145.861 36.5894 146.06H36.5908Z" fill="#14B9A4"/>
<path d="M44.0033 161.106C43.2063 161.123 42.61 163.714 42.44 165.267C42.047 168.848 43.2843 172.721 44.2639 172.698C45.104 172.677 45.7589 169.792 45.8634 167.782C46.032 164.571 44.9313 161.088 44.0019 161.107L44.0033 161.106Z" fill="#14B9A4"/>
<path d="M46.4919 184.233C45.7715 184.034 44.5119 186.566 43.818 187.961C43.6146 188.369 41.4577 192.705 42.3467 193.337C42.9179 193.744 44.6708 192.562 45.6991 191.157C47.672 188.461 47.3293 184.467 46.4919 184.235V184.233Z" fill="#14B9A4"/>
<path d="M53.7398 199.574C53.0961 199.524 52.4301 201.907 52.0483 203.274C51.1287 206.568 50.5045 211.375 51.4115 211.642C52.189 211.871 54.1508 208.78 54.6566 205.521C55.0941 202.701 54.4574 199.63 53.7412 199.574H53.7398Z" fill="#14B9A4"/>
<path d="M169.133 242C245.049 242 306.591 236.783 306.591 230.347C306.591 223.911 245.049 218.694 169.133 218.694C93.2177 218.694 31.6758 223.911 31.6758 230.347C31.6758 236.783 93.2177 242 169.133 242Z" fill="#F1F0FF"/>
<path d="M172.496 93.2823L145.17 120.8L185.938 161.483L213.264 133.965L172.496 93.2823Z" fill="#FAFCFF"/>
<path d="M180.209 130.745L213.28 133.952L172.514 93.2686L175.862 126.413C176.157 128.658 177.96 130.457 180.208 130.743L180.209 130.745Z" fill="#B3D9E8"/>
<path d="M181.288 129.65L213.28 133.952L172.514 93.2686L176.949 125.32C177.258 127.55 179.061 129.349 181.288 129.65Z" fill="white"/>
<path d="M182.59 128.348C182.295 126.095 180.492 124.296 178.251 124.011L145.172 120.803L185.938 161.486L182.59 128.348Z" fill="#B3D9E8"/>
<path d="M181.501 129.435C181.192 127.204 179.389 125.405 177.163 125.105L145.17 120.803L185.936 161.486L181.501 129.435Z" fill="white"/>
<path d="M205.67 102.481L182.393 155.214L217.813 170.926L241.091 118.194L205.67 102.481Z" fill="#DBDBDB"/>
<path d="M208.974 138.846L217.839 170.946L241.119 118.215L211.45 133.227C209.465 134.307 208.435 136.639 208.974 138.846Z" fill="#F2F2F5"/>
<path d="M210.38 139.464L217.837 170.946L241.117 118.215L212.857 133.851C210.89 134.94 209.86 137.272 210.38 139.464Z" fill="#DBDBDB"/>
<path d="M212.06 140.215C214.052 139.131 215.082 136.798 214.544 134.6L205.678 102.493L182.398 155.224L212.06 140.216V140.215Z" fill="#F2F2F5"/>
<path d="M210.658 139.586C212.626 138.498 213.655 136.166 213.136 133.974L205.678 102.491L182.398 155.223L210.658 139.586Z" fill="#DBDBDB"/>
<path d="M228.401 235.178H164.004L157.615 135.273H234.79L228.401 235.178Z" fill="#5A5789"/>
<path d="M228.401 235.178H164.004L157.615 135.273H234.79L228.401 235.178Z" fill="#5A5789"/>
<path d="M221.118 135.273L218.389 177.956C216.64 205.309 193.998 226.598 166.655 226.598H163.453L164.002 235.18H228.4L234.788 135.273H221.117H221.118Z" fill="#43406F"/>
<path d="M233.769 151.215L158.707 151.795L158.917 155.653H233.485L233.769 151.215Z" fill="#353263"/>
<path d="M234.455 141.498L158.061 142.391L158.401 147.57H234.002L234.455 141.498Z" fill="#353263"/>
<path d="M236.578 145.263H155.825L154.803 135.273H237.599L236.578 145.263Z" fill="#3D3884"/>
<path d="M223.714 135.273L222.691 145.263H236.579L237.6 135.273H223.714Z" fill="#5A55AC"/>
<path d="M234.009 149.618H158.393C157.575 149.618 156.912 150.282 156.912 151.102V151.336C156.912 152.156 157.575 152.82 158.393 152.82H234.009C234.827 152.82 235.49 152.156 235.49 151.336V151.102C235.49 150.282 234.827 149.618 234.009 149.618Z" fill="#3D3884"/>
<path d="M223.172 149.618H234.009C234.827 149.618 235.49 150.283 235.49 151.102V151.336C235.49 152.156 234.827 152.82 234.009 152.82H223.172V149.618Z" fill="#5A55AC"/>
<path d="M196.546 158.585H195.858C193.437 158.585 191.475 160.552 191.475 162.979V223.357C191.475 225.783 193.437 227.751 195.858 227.751H196.546C198.967 227.751 200.93 225.783 200.93 223.357V162.979C200.93 160.552 198.967 158.585 196.546 158.585Z" fill="#43406F"/>
<path d="M195.985 158.585H196.419C197.942 158.585 199.178 159.824 199.178 161.351V224.987C199.178 226.513 197.942 227.752 196.419 227.752H195.985C194.462 227.752 193.227 226.513 193.227 224.987V161.351C193.227 159.824 194.462 158.585 195.985 158.585Z" fill="#353263"/>
<path d="M210.974 227.751C208.609 227.751 206.7 225.816 206.727 223.446L207.398 162.795C207.425 160.462 209.318 158.585 211.645 158.585H212.541C214.929 158.585 216.849 160.559 216.787 162.953L215.218 223.604C215.158 225.911 213.276 227.751 210.972 227.751H210.974Z" fill="#353263"/>
<path d="M223.376 227.751C221.506 227.751 220.012 226.191 220.089 224.319L222.632 161.749C222.704 159.98 224.155 158.585 225.919 158.585H227.305C229.203 158.585 230.707 160.191 230.589 162.091L226.658 224.661C226.55 226.399 225.112 227.752 223.374 227.752L223.376 227.751Z" fill="#353263"/>
<path d="M212.541 158.585H211.645C211.315 158.585 210.995 158.624 210.687 158.695C212.608 159.139 214.027 160.89 213.974 162.953L212.405 223.604C212.357 225.417 211.184 226.941 209.566 227.511C210.007 227.666 210.479 227.751 210.974 227.751C213.277 227.751 215.159 225.911 215.219 223.604L216.788 162.953C216.849 160.559 214.931 158.585 212.543 158.585H212.541Z" fill="#43406F"/>
<path d="M227.305 158.585H225.918C225.674 158.585 225.436 158.613 225.206 158.663C226.752 159.007 227.879 160.437 227.774 162.089L223.844 224.66C223.766 225.894 223.017 226.935 221.967 227.434C222.393 227.636 222.87 227.751 223.374 227.751C225.112 227.751 226.548 226.397 226.658 224.66L230.589 162.089C230.709 160.19 229.204 158.583 227.305 158.583V158.585Z" fill="#43406F"/>
<path d="M181.43 227.751C183.794 227.751 185.703 225.816 185.677 223.446L185.005 162.795C184.979 160.462 183.085 158.585 180.758 158.585H179.862C177.474 158.585 175.554 160.559 175.617 162.953L177.186 223.604C177.246 225.911 179.128 227.751 181.431 227.751H181.43Z" fill="#353263"/>
<path d="M169.027 227.751C170.896 227.751 172.39 226.191 172.313 224.319L169.771 161.749C169.698 159.98 168.248 158.585 166.484 158.585H165.097C163.2 158.585 161.695 160.191 161.813 162.091L165.744 224.661C165.852 226.399 167.29 227.752 169.028 227.752L169.027 227.751Z" fill="#353263"/>
<path d="M179.999 223.604L178.43 162.953C178.377 160.89 179.794 159.139 181.717 158.695C181.409 158.624 181.087 158.585 180.758 158.585H179.862C177.474 158.585 175.554 160.559 175.617 162.953L177.186 223.604C177.246 225.911 179.128 227.751 181.431 227.751C181.924 227.751 182.398 227.666 182.838 227.511C181.221 226.941 180.048 225.417 180 223.604H179.999Z" fill="#43406F"/>
<path d="M168.558 224.66L164.628 162.089C164.523 160.436 165.65 159.005 167.196 158.663C166.966 158.613 166.728 158.585 166.484 158.585H165.097C163.2 158.585 161.695 160.191 161.813 162.091L165.744 224.661C165.852 226.399 167.29 227.752 169.028 227.752C169.532 227.752 170.009 227.638 170.435 227.435C169.385 226.936 168.636 225.896 168.558 224.661V224.66Z" fill="#43406F"/>
<path d="M172.077 140.893H160.83C159.865 140.893 159.059 140.161 158.963 139.199C158.852 138.091 159.719 137.132 160.83 137.132H172.077C173.113 137.132 173.954 137.974 173.954 139.013C173.954 140.052 173.113 140.895 172.077 140.895V140.893Z" fill="#736FAF"/>
<path d="M263.524 209.251L249.977 187.125L251.576 186.141C257.261 182.642 264.726 184.433 268.215 190.133L270.087 193.189C273.577 198.888 271.791 206.372 266.105 209.869L264.505 210.853L263.524 209.249V209.251ZM255.249 188.545L265.629 205.499C268.338 202.828 268.958 198.539 266.889 195.159L265.018 192.103C262.947 188.723 258.851 187.336 255.25 188.547L255.249 188.545Z" fill="#353263"/>
<path d="M275.199 217.381L249.012 174.612C245.704 169.21 240.174 165.56 233.916 164.649L277.228 235.387C279.25 229.381 278.507 222.785 275.199 217.382V217.381Z" fill="#5A5789"/>
<path d="M277.228 235.384C279.25 229.378 278.507 222.782 275.199 217.38L265.783 202C269.091 207.403 269.834 213.998 267.812 220.004L277.228 235.384Z" fill="#43406F"/>
<path d="M248.19 185.664L238.768 170.276C238.175 169.305 241.927 170.386 242.611 171.503L249.545 182.827C250.183 183.87 248.828 186.707 248.19 185.664Z" fill="#5A55AC"/>
<path d="M124.808 98.6891C127.624 99.6388 149.082 95.2377 170.478 80.0312C171.811 79.0842 169.93 75.2683 169.292 71.6619C168.501 67.1979 140.967 84.7606 122.876 81.2925C121.283 80.9866 118.276 85.2062 118.4 87.163C118.623 90.6647 120.312 97.1736 124.808 98.6877V98.6891Z" fill="#6068F0"/>
<path d="M124.419 5.18021L95.5898 51.9917L164.94 94.9115L193.77 48.1L124.419 5.18021Z" fill="#C6C6D4"/>
<path d="M142.238 45.7397L95.582 52.0223L164.929 94.9473L149.63 50.3057C148.5 47.3041 145.433 45.4059 142.238 45.7383V45.7397Z" fill="#F3F3F6"/>
<path d="M141.102 47.6004L95.5801 52.0239L164.927 94.9489L148.481 52.1691C147.336 49.1913 144.269 47.2931 141.101 47.6004H141.102Z" fill="#C6C6D4"/>
<path d="M139.728 49.817C140.862 52.8284 143.929 54.728 147.111 54.3955L193.778 48.1101L124.432 5.18652L139.728 49.817Z" fill="#F3F3F6"/>
<path d="M140.879 47.9663C142.024 50.9441 145.091 52.8423 148.259 52.535L193.781 48.1115L124.432 5.18652L140.877 47.9663H140.879Z" fill="#C6C6D4"/>
<path d="M113.177 229.445C113.12 229.576 113.238 230.24 113.316 230.817C113.403 231.461 113.308 231.631 113.441 231.824C113.651 232.132 114.169 232.096 114.614 232.075C115.581 232.029 116.55 232.118 117.516 232.075C118.227 232.043 118.794 232.054 119.925 232.075C121.355 232.102 121.827 232.199 124.063 232.389C127.611 232.692 126.967 232.493 128.634 232.704C129.775 232.848 130.92 233.049 132.401 232.892C132.662 232.864 133.538 232.762 134.44 232.199C134.798 231.976 135.111 231.773 135.305 231.381C135.696 230.582 135.386 229.396 134.873 229.24C134.303 229.067 133.932 230.296 132.527 230.877C131.855 231.155 131.263 231.153 130.18 231.065C127.968 230.886 126.839 230.6 125.301 230.372C123.19 230.061 121.452 230.03 119.433 229.994C117.317 229.956 117.633 230.074 116.468 229.994C114.81 229.881 113.379 228.976 113.179 229.441L113.177 229.445Z" fill="#43406F"/>
<path d="M70.6224 231.209C70.6224 231.209 71.2103 231.803 71.7537 232.153C72.7974 232.828 73.7532 233.089 74.2673 233.224C76.9732 233.931 79.0423 234.169 79.0423 234.169C79.0423 234.169 81.3316 234.431 84.8219 234.169C85.1299 234.145 86.1177 234.06 86.9579 233.413C87.5362 232.967 87.6741 232.541 87.7117 232.406C87.734 232.328 87.8274 231.965 87.7117 231.525C87.5668 230.973 87.1237 230.425 86.5803 230.265C85.8126 230.038 85.3681 230.742 84.0667 231.146C83.3715 231.363 82.8072 231.353 81.6799 231.335C79.7975 231.305 79.3642 230.98 76.466 230.516C74.1169 230.14 73.7588 230.251 73.0732 229.761C71.6576 228.749 71.6646 227.193 71.1253 227.241C70.4538 227.299 70.6224 231.209 70.6224 231.209Z" fill="#43406F"/>
<path d="M113.028 214.979C112.224 216.567 113.499 217.434 113.594 221.024C113.701 225.109 113.216 228.108 113.216 228.108C113.216 228.108 114.445 227.988 116.892 227.825C120.493 227.585 122.031 228.814 123.771 227.636C124.013 227.471 124.802 226.939 124.808 226.218C124.815 225.399 123.804 225.008 122.829 223.952C121.981 223.034 121.653 222.148 121.133 220.739C119.624 216.659 121.542 214.285 120.192 212.993C118.68 211.546 114.243 212.576 113.03 214.976L113.028 214.979Z" fill="#EB8E6C"/>
<path d="M72.6021 214.128C71.7187 215.078 72.9769 216.942 72.6021 220.322C72.2273 223.698 71.4707 225.18 71.4707 225.18C71.4707 225.18 73.3085 226.919 74.8635 227.542C77.0246 228.407 80.6069 229.111 81.3662 227.826C81.6017 227.428 81.9194 226.848 80.4243 224.331C77.7853 219.891 79.9241 216.395 79.1996 215.073C78.149 213.157 74.0331 212.591 72.6035 214.129L72.6021 214.128Z" fill="#EB8E6C"/>
<path d="M91.449 148.19C90.6729 157.106 96.5612 165.317 98.2346 167.65C101.626 172.379 105.619 177.759 107.35 180.082C107.918 180.846 108.214 181.776 108.19 182.729C108.144 184.509 108.045 187.837 107.847 192.4C107.505 200.316 111.193 217.389 113.609 221.765C114.861 224.035 121.066 222.643 121.134 220.74C121.572 208.689 122.979 183.571 123.255 178.685C123.286 178.141 123.209 177.596 123.029 177.081C122.213 174.734 119.661 167.113 116.706 155.368C111.891 136.228 112.827 129.784 108.979 128.539C103.443 126.75 92.4118 137.149 91.4504 148.189L91.449 148.19Z" fill="#534F86"/>
<path d="M113.374 230.061C113.147 229.732 113.055 228.709 112.871 226.66C112.715 224.915 113.377 224.08 113.573 224.034C113.816 223.978 113.344 225.19 114.379 225.778C114.978 226.118 115.584 226.102 115.824 226.092C116.844 226.053 117.241 225.503 118.651 224.833C119.504 224.428 120.03 224.177 120.787 224.077C122.254 223.881 123.55 224.387 124.368 224.707C124.988 224.948 125.648 225.284 125.875 225.4C126.583 225.759 126.727 225.883 127.258 226.155C127.377 226.217 128.297 226.686 129.456 227.037C130.016 227.207 130.667 227.317 131.97 227.541C133.628 227.824 134.092 227.848 134.609 228.296C134.772 228.438 135.329 228.921 135.3 229.556C135.268 230.237 134.581 230.691 134.295 230.879C132.629 231.977 130.243 231.593 129.27 231.446C129.27 231.446 124.996 230.799 120.663 230.691C116.324 230.582 114.269 231.355 113.376 230.061H113.374Z" fill="#FAFAFF"/>
<path d="M120.16 223.007C120.255 222.539 120.306 222.278 120.538 222.063C120.99 221.638 121.612 221.397 122.087 221.597C122.76 221.88 123.249 222.816 123.365 223.007C124.662 225.154 127.734 226.514 127.637 226.66C127.525 226.827 124.312 223.787 121.732 224.581C121.325 224.707 120.65 225.014 120.287 224.707C119.887 224.369 120.069 223.463 120.161 223.007H120.16Z" fill="#FAFAFF"/>
<path d="M111.951 183.649C112.084 181.702 111.53 179.773 110.386 178.194C105.948 172.065 96.0456 162.582 99.8049 141.829C98.8268 144.022 91.6552 145.824 91.449 148.19C90.6729 157.105 96.5612 165.317 98.2346 167.649C101.626 172.379 105.619 177.759 107.35 180.082C107.918 180.846 108.214 181.776 108.19 182.729C108.144 184.508 108.045 187.837 107.847 192.4C107.505 200.315 111.193 217.389 113.609 221.765C114.009 222.489 114.913 222.839 115.959 222.92C114.446 218.107 113.035 212.34 112.193 205.751C111.193 197.917 111.625 188.416 111.951 183.651V183.649Z" fill="#43406F"/>
<path d="M79.1042 131.186C76.3914 135.481 76.025 141.814 75.7115 147.246C75.6153 148.902 75.6474 150.681 75.7115 154.237C75.9288 166.363 76.6645 168.802 76.0891 174.263C75.7087 177.867 75.2517 178.111 73.6396 185.032C69.9151 201.018 72.1515 219.221 72.6029 220.323C73.7789 223.19 78.7991 222.492 79.0722 220.887C80.5366 212.329 81.3698 204.837 86.266 188.433C86.5294 187.553 87.7611 184.257 90.2245 177.664C95.5137 163.508 95.6098 164.073 97.952 157.449C103.655 141.314 100.931 144.054 105.302 132.887C106.995 128.562 107.845 127.025 106.998 125.519C104.134 120.427 85.1792 121.572 79.1042 131.187V131.186Z" fill="#43406F"/>
<path d="M70.758 227.917C71.0214 225.518 72.0427 223.489 72.0427 223.489C72.0427 223.489 73.0306 224.676 73.4514 225.084C73.4514 225.084 74.1397 225.753 75.0844 226.218C75.278 226.313 76.9445 227.116 77.4085 226.597C77.5868 226.397 77.4238 226.186 77.4085 225.274C77.3945 224.441 77.3848 223.869 77.722 223.511C78.0508 223.162 79.1864 222.821 80.1687 223.365C80.3178 223.447 81.7041 225.873 82.026 226.412C83.0153 228.072 85.887 229.534 86.8721 230.221C87.2246 230.467 87.3374 230.894 87.3346 231.195C87.3291 231.739 86.2005 232.135 85.827 232.266C83.9739 232.916 82.3312 232.633 78.728 232.14C77.4572 231.966 75.455 231.699 73.7022 231.07C73.7022 231.07 70.5713 229.621 70.758 227.919V227.917Z" fill="#FAFAFF"/>
<path d="M76.4444 184.535C77.3152 181.616 78.6598 177.906 79.4679 172.055C80.8571 161.995 79.0457 157.294 79.2896 148.165C79.4024 143.923 80.3374 136.534 83.0251 127.841C83.1227 127.524 83.2216 127.214 83.3205 126.906C81.6248 128.082 80.166 129.504 79.1042 131.186C76.3914 135.481 76.025 141.814 75.7115 147.246C75.6153 148.902 75.6474 150.68 75.7115 154.237C75.9288 166.363 76.6645 168.802 76.0891 174.263C75.7087 177.867 75.2517 178.111 73.6396 185.032C69.9151 201.018 72.1515 219.22 72.6029 220.322C73.0167 221.331 73.9043 221.897 74.895 222.138C72.2699 204.457 74.084 192.46 76.4471 184.535H76.4444Z" fill="#534F86"/>
<path d="M107.185 63.9464C106.144 64.8082 106.348 66.8126 105.259 74.4863C104.607 79.0816 101.145 77.5089 100.143 78.1304C98.7385 79.002 102.055 80.8457 103.738 81.9492C106.105 83.4996 110.941 89.3017 113.281 88.2164C117.305 86.3503 117.334 80.5692 116.693 79.9085C116.207 79.4071 115.599 79.6459 115.736 75.457C115.801 73.4625 114.474 71.8311 114.05 70.1201C113.04 66.0346 108.915 62.5147 107.185 63.9478V63.9464Z" fill="#EB8E6C"/>
<path d="M103.479 77.4529C95.2755 78.122 90.5256 80.6166 87.7598 82.8192C85.0706 84.9605 84.0869 88.2973 83.2384 90.7542C82.2449 93.6301 81.016 104.582 78.3505 119.471C75.8843 133.243 75.2949 141.262 75.2949 141.262C81.8422 148.43 108.182 147.469 114.07 141.829C114.07 141.829 114.112 123.987 116.967 112.922C117.761 109.845 118.929 105.315 121.978 100.326C123.534 97.7785 124.1 97.5368 124.911 95.5395C127.244 89.7946 131.594 84.6867 128.852 83.5414C128.107 83.2299 122.455 81.1306 120.754 80.861C118.03 80.4294 117.239 79.9252 116.298 79.5997C116.298 79.5997 116.18 81.1194 115.745 82.1879C115.199 83.533 113.746 84.3403 112.689 84.5805C109.929 85.2091 106.899 82.6432 105.479 80.2981C104.512 78.7016 103.803 77.4236 103.479 77.4501V77.4529Z" fill="#9DA2FF"/>
<path d="M131.781 74.5533C131.841 74.1944 132.107 73.6846 132.394 72.38C132.472 72.0266 132.524 71.7375 132.442 71.3883C132.312 70.8422 131.958 70.6047 131.64 70.208C131.082 69.5097 130.963 68.7317 130.887 68.2247C130.692 66.9424 131.367 66.8628 131.5 65.0121C131.585 63.8179 131.36 63.0692 131.877 62.6502C132.047 62.5133 132.536 62.3667 133.102 64.6811C133.254 65.2999 133.328 65.6099 133.526 65.6728C133.856 65.7775 134.331 65.2216 134.562 64.8697C135.058 64.1154 135.334 62.9268 134.986 61.7521C134.707 60.8121 134.144 60.2702 134.42 59.8162C134.56 59.5871 134.986 59.3441 134.986 59.3441C134.986 59.3441 134.891 58.4935 135.677 58.1261C136.064 57.9446 136.917 58.8706 136.917 58.8706C136.917 58.8706 137.456 58.6932 137.859 58.7295C138.342 58.7714 138.664 59.3273 138.99 59.9098C139.601 61.0007 139.885 61.8457 139.885 61.8457C139.885 61.8457 140.111 60.928 140.356 60.9015C140.625 60.8721 141.008 61.9155 141.204 62.8849C141.418 63.9338 141.415 64.906 141.299 65.9549C141.14 67.3908 140.757 70.8603 139.085 72.0476C138.929 72.1579 138.512 72.4261 138.143 72.9457C137.714 73.5491 137.59 74.1483 137.53 74.457C136.948 77.4614 137.143 78.0382 136.729 78.3302C135.561 79.1542 131.486 76.3426 131.781 74.5519V74.5533Z" fill="#EB8E6C"/>
<path d="M136.429 65.1059C136.323 65.4299 136.079 65.2916 136.18 65.0123C136.454 64.2427 136.578 63.3725 136.456 62.5764C136.346 61.8598 136.078 61.2899 135.901 60.9128C135.709 60.5036 135.326 60.0063 135.071 59.6781C134.994 59.5789 134.927 59.4909 134.877 59.4225L134.981 59.2646C135.03 59.3317 135.937 60.3611 136.142 60.7983C136.326 61.1894 136.603 61.7802 136.719 62.5358C136.849 63.3781 136.747 64.1323 136.429 65.1059Z" fill="#C36252"/>
<path d="M137.726 65.4297C137.594 65.7356 137.382 65.5289 137.546 65.2035C137.921 64.4646 138.017 63.2299 137.98 62.8192C137.93 62.2703 137.854 61.7996 137.623 61.0188C137.461 60.4727 136.96 58.974 136.918 58.8706L137.096 58.8203C137.138 58.9223 137.712 60.3819 137.878 60.942C138.115 61.7437 138.191 62.2284 138.244 62.7941C138.302 63.4212 138.282 64.1461 137.726 65.4283V65.4297Z" fill="#C36252"/>
<path d="M139.683 65.4298C139.515 65.9634 139.282 65.8069 139.43 65.3502C139.88 63.9534 139.876 62.0455 139.832 61.6977L139.984 61.5161C140.033 61.9114 140.04 63.1322 140.019 63.5554C139.987 64.1895 139.876 64.8208 139.683 65.4312V65.4298Z" fill="#C36252"/>
<path d="M108.347 85.0065C109.111 85.4116 110.761 86.2874 112.816 85.8753C113.044 85.8292 115.498 85.2999 116.617 83.2005C116.954 82.5678 117.038 82.0412 117.151 81.3289C117.213 80.9378 117.284 80.4867 117.36 80.0118C116.96 79.8595 116.636 79.717 116.296 79.5997C116.296 79.5997 116.178 81.1194 115.743 82.1879C115.197 83.533 113.744 84.3403 112.688 84.5805C109.927 85.2091 106.897 82.6432 105.477 80.2981C104.51 78.7016 103.801 77.4236 103.478 77.4501C103.004 77.4892 102.541 77.5339 102.09 77.5842C102.512 78.2812 103.085 79.1793 103.811 80.1905C105.672 82.7829 106.638 84.0973 108.346 85.0038L108.347 85.0065Z" fill="white"/>
<path d="M180.589 68.567C181.12 69.169 181.003 69.3533 181.58 70.1118C182.169 70.887 182.587 71.0811 182.501 71.3828C182.405 71.7194 181.747 71.9583 181.498 72.0491C181.204 72.1552 181.066 72.1524 181.014 72.2726C180.911 72.5086 181.365 72.7293 181.533 73.2545C181.705 73.7978 181.528 74.5367 181.102 74.7979C180.726 75.0284 180.397 74.7378 180.138 74.9823C179.845 75.2574 180.199 75.6862 179.9 76.2561C179.692 76.6514 179.3 76.8637 179.073 76.9866C178.807 77.1319 178.722 77.1137 178.359 77.2478C177.523 77.5565 177.491 77.8247 176.937 77.9587C176.323 78.1096 175.661 77.949 175.623 77.7506C175.584 77.5425 175.948 77.2869 176.044 76.8162C176.114 76.4726 176.139 76.2896 175.962 76.0787C175.689 75.7533 175.499 75.7197 174.722 75.1694C174.14 74.7574 174.053 74.6401 174.042 74.499C174.015 74.1442 174.498 73.9682 174.431 73.6986C174.368 73.4458 173.931 73.5324 173.582 73.1511C173.545 73.1106 173.189 72.7083 173.313 72.246C173.402 71.9178 173.706 71.6678 174.013 71.6077C174.595 71.4932 175.111 72.0756 175.23 71.9513C175.339 71.8396 174.872 71.4108 175.005 71.0155C175.104 70.7194 175.485 70.6006 175.639 70.5532C176.225 70.3716 176.752 70.5406 177.401 70.7585C179.326 71.4038 179.759 71.6077 179.994 71.3954C180.24 71.1747 180.106 70.6481 180.04 70.3897C179.784 69.3771 178.979 69.1829 178.942 68.3407C178.94 68.2723 178.919 67.7904 179.161 67.6633C179.586 67.4412 180.502 68.465 180.589 68.5656V68.567Z" fill="#EB8E6C"/>
<path d="M175.143 71.6636C175.799 71.9052 176.545 72.2223 177.201 72.4891C177.726 72.7014 178.266 72.9109 178.783 73.1539C179.089 73.2978 179.09 73.5785 178.664 73.4263C178.129 73.2349 177.612 72.9765 177.09 72.7642C176.436 72.4988 175.788 72.2041 175.135 71.9625L175.142 71.6636H175.143Z" fill="#C36252"/>
<path d="M174.374 73.6064C175.057 73.7224 176.229 74.038 176.839 74.3146C177.045 74.4068 177.249 74.4934 177.436 74.5981C177.845 74.8286 177.725 74.9613 177.294 74.8077C177.094 74.7364 176.92 74.6764 176.718 74.5856C176.118 74.3146 175.05 74.0227 174.42 73.8271L174.373 73.6078L174.374 73.6064Z" fill="#C36252"/>
<path d="M114.862 109.477C113.774 109.558 112.718 109.556 111.688 109.489C110.481 109.411 109.315 109.241 108.184 108.999C103.835 108.071 100.016 106.101 96.5422 104.307C88.8175 100.317 85.2102 93.0913 84.664 93.6514C84.1066 94.224 84.6027 100.562 92.0961 105.911C95.1155 108.066 98.4971 110.327 103.301 111.973C105.012 112.558 106.75 113.044 108.482 113.442C109.152 113.596 109.819 113.737 110.485 113.864C112.775 114.304 114.39 114.597 116.528 114.767C116.569 114.58 117.309 111.642 117.348 111.466C117.807 109.365 118.246 110.528 118.834 108.963C117.582 109.099 116.495 109.355 114.862 109.477Z" fill="#6068F0"/>
<path d="M102.382 84.5822C101.32 84.0068 99.5154 83.0486 96.9781 82.6924C95.5193 82.4871 92.8566 82.1142 90.0671 83.5738C87.4253 84.958 86.2187 87.176 85.7951 87.9819C85.2629 88.9932 84.1384 91.1316 84.6637 93.65C84.9326 94.9392 85.5332 95.8429 86.0459 96.5468C89.3105 101.035 93.3331 103.726 93.3331 103.726C94.5621 104.549 99.8665 108.007 108.285 110.276C108.285 110.276 114.076 111.836 121.101 111.41C122.422 111.33 124.426 111.125 125.876 109.647C125.876 109.647 127.067 108.433 127.384 106.624C128.137 102.311 121.954 97.4701 115.95 92.7686C112.504 90.0715 109.129 88.2417 102.38 84.5822H102.382Z" fill="#7A81FD"/>
<path d="M130.935 74.3173C126.475 78.4741 117.892 99.8235 117.585 101.713C117.403 102.833 116.295 104.603 116.957 106.5C117.606 108.359 121.98 110.919 122.551 110.928C128.516 111.016 134.328 96.6067 135.176 92.897C137.581 82.378 137.626 78.2855 137.344 76.1862C137.121 74.5283 132.394 72.9597 130.936 74.3187L130.935 74.3173Z" fill="#7A81FD"/>
<path d="M120.231 96.5381L119.939 96.2951C119.794 96.1749 105.484 84.3556 96.7592 82.9379C96.6157 82.9142 96.5181 82.7829 96.5376 82.639C96.5585 82.491 96.6951 82.3862 96.8428 82.4099C104.806 83.7005 116.892 93.1426 119.702 95.4123C119.844 95.5268 120.053 95.4682 120.117 95.2978C120.973 92.9764 123.782 85.4982 125.778 81.8233C125.849 81.6934 126.012 81.6473 126.142 81.7199C126.27 81.7912 126.315 81.9518 126.245 82.0817C123.897 86.4047 120.399 96.0828 120.362 96.1819L120.233 96.5395L120.231 96.5381Z" fill="#6F6FD8"/>
<path d="M123.244 100.745C123.107 100.79 122.96 100.716 122.913 100.579C122.602 99.7031 122.17 98.8804 121.627 98.1276C121.156 97.4753 120.606 96.8831 119.988 96.3649C119.877 96.2713 119.857 96.1079 119.948 95.9933C120.041 95.876 120.213 95.8565 120.328 95.9514C120.98 96.499 121.561 97.1233 122.059 97.8133C122.633 98.6081 123.088 99.4782 123.416 100.401C123.466 100.543 123.387 100.698 123.244 100.744V100.745Z" fill="#6F6FD8"/>
<path d="M106.797 66.5082C109.28 65.9746 115.881 71.4904 115.089 75.0745C114.831 76.2421 117.976 75.1848 116.678 76.5983C115.692 77.6738 115.735 78.91 116.295 79.6013C105.647 78.8108 106.747 68.4078 106.797 66.5082Z" fill="#C36252"/>
<path d="M121.74 59.8036C121.965 61.0649 122.009 62.1083 122.022 62.4658C122.073 63.9855 121.878 63.7466 121.924 65.3431C121.951 66.2678 122.025 66.6379 121.754 67.0849C121.473 67.5486 121.104 67.6254 120.844 68.1911C120.644 68.6297 120.667 69.011 120.666 69.2792C120.663 70.2332 120.344 70.9707 119.709 72.4386C119.119 73.8019 118.824 74.4821 118.194 75.1022C118.001 75.2922 117.662 75.5883 117.353 76.1177C117.027 76.6764 117.059 76.939 116.854 77.2505C116.344 78.0257 115.066 78.0368 114.676 78.0396C112.689 78.0578 111.106 76.425 110.058 75.3173C107.631 72.7487 106.752 69.9384 106.38 68.7009C105.828 66.867 105.703 65.4088 105.596 64.1433C105.438 62.3108 105.29 60.5844 105.8 58.4683C106.175 56.9151 118.742 52.9917 120.302 55.2516C121.151 56.4793 121.404 57.9152 121.74 59.8022V59.8036Z" fill="#EB8E6C"/>
<path d="M113.631 65.1742C114.233 65.1686 114.833 65.2314 115.42 65.3599C115.788 65.441 116.153 65.5485 116.508 65.6812C116.649 65.7343 116.717 65.8921 116.66 66.0318C116.606 66.1631 116.458 66.2287 116.326 66.1798C115.993 66.0555 115.651 65.9536 115.306 65.8781C114.758 65.758 114.195 65.6994 113.631 65.7049C113.489 65.7049 113.373 65.5932 113.367 65.4521C113.361 65.3013 113.482 65.177 113.631 65.1756V65.1742Z" fill="#49302A"/>
<path d="M121.701 66.8405C121.296 66.596 120.864 66.4145 120.412 66.2971C120.128 66.2231 119.835 66.1756 119.539 66.1533C119.422 66.1449 119.307 66.2594 119.286 66.4075C119.267 66.5471 119.339 66.6645 119.449 66.6729C119.728 66.6924 120.001 66.7385 120.267 66.8069C120.689 66.9159 121.095 67.0877 121.474 67.3168C121.569 67.374 121.695 67.3196 121.76 67.1938C121.828 67.0612 121.8 66.9019 121.698 66.8405H121.701Z" fill="#49302A"/>
<path d="M116.373 70.5251C116.407 70.4482 116.502 70.4119 116.587 70.444C117.292 70.7066 117.802 70.7388 118.03 70.5292C118.217 70.3588 118.203 70.0488 118.175 69.4314C118.165 69.2093 118.153 68.9579 118.148 68.6604C118.139 68.0388 118.165 67.4131 118.225 66.7999C118.233 66.7133 118.318 66.6547 118.412 66.6672C118.504 66.6798 118.572 66.758 118.564 66.8432C118.504 67.4466 118.479 68.0612 118.488 68.6716C118.493 68.9649 118.504 69.2135 118.515 69.4342C118.547 70.1186 118.564 70.4957 118.277 70.7569C117.995 71.0125 117.521 71.0474 116.868 70.8617C116.744 70.8268 116.614 70.7835 116.478 70.7318C116.387 70.6983 116.34 70.6033 116.375 70.5223L116.373 70.5251Z" fill="#C36252"/>
<path d="M115.373 66.6913C115.635 66.7374 115.79 67.1075 115.719 67.5182C115.646 67.9288 115.376 68.2235 115.113 68.1774C114.851 68.1313 114.696 67.7612 114.767 67.3505C114.84 66.9399 115.11 66.6452 115.373 66.6913Z" fill="#49302A"/>
<path d="M119.899 67.4901C120.162 67.5362 120.315 67.9063 120.244 68.317C120.172 68.7276 119.902 69.0223 119.638 68.9762C119.376 68.9301 119.222 68.56 119.293 68.1494C119.365 67.7387 119.635 67.444 119.899 67.4901Z" fill="#49302A"/>
<path d="M114.682 72.3619L115.505 72.6189C116.139 72.8158 116.797 72.9318 117.459 72.9611L117.917 72.9821C118.116 72.9904 118.228 73.2097 118.111 73.3592C117.765 73.7978 117.117 74.2992 116.247 74.1344C115.37 73.9696 114.537 73.186 114.375 72.6468C114.321 72.4667 114.495 72.3046 114.682 72.3633V72.3619Z" fill="white"/>
<path d="M113.409 68.3128C114.08 68.5209 114.517 69.0308 114.387 69.4512C114.258 69.8716 113.609 70.042 112.938 69.8339C112.268 69.6258 111.831 69.116 111.96 68.6955C112.09 68.2751 112.739 68.1047 113.409 68.3128Z" fill="#DD8064"/>
<path d="M122.021 62.4659C121.756 62.7802 121.95 60.3917 117.02 59.6752C108.715 58.4684 110.224 64.2384 109.747 63.8794C107.493 62.1852 106.984 63.656 106.934 64.2174C106.813 65.5416 107.286 66.5277 108.224 68.4133C109.087 70.1495 110.171 71.4973 111.78 72.3898C112.543 72.8145 113.279 74.228 115.539 74.7057C116.818 74.9752 117.756 74.5939 118.612 73.7712C119.346 73.0659 119.11 72.9108 119.346 73.0659C119.531 73.1874 118.797 76.4739 118.568 77.0885C118.053 78.4797 116.074 81.1684 108.352 74.4501C107.142 73.3969 105.757 72.0602 105.45 71.1579C105.33 70.8045 105.007 70.6188 104.376 68.6074C104.032 67.5068 101.866 62.1014 106.102 56.4697C109.177 52.3814 121.443 52.2668 123.051 57.4334C123.512 58.914 123.467 60.7507 122.025 62.4659H122.021Z" fill="#090F51"/>
<path d="M111.857 74.4459C111.5 73.559 112.512 72.4765 112.59 72.3955C113.054 71.9108 114.516 69.8967 118.405 71.7516C119.529 72.288 119.58 73.1037 119.206 73.8719C118.981 74.3342 118.775 75.2756 118.607 75.1541C118.438 75.0326 118.077 74.6275 118.314 74.0311C119.157 71.9053 114.576 71.672 114.113 72.5282C113.599 73.478 113.921 74.0814 114.571 74.4166C114.867 74.5689 112.01 74.8287 111.857 74.4459Z" fill="#090F51"/>
<path d="M107.651 63.5595C108.411 63.4854 108.946 64.5149 108.973 64.5693C109.756 66.1253 108.916 69.3141 108.02 69.4105C107.763 69.4384 107.582 68.9537 107.301 68.6087C106.695 67.8657 106.05 66.4982 106.287 65.3725C106.431 64.6825 106.919 63.6307 107.651 63.5595Z" fill="#EB8E6C"/>
<path d="M107.848 67.4048C107.873 67.4425 107.888 67.4662 107.888 67.469C107.888 67.469 107.871 67.4425 107.848 67.4048Z" fill="#C36252"/>
<path d="M108.31 65.2928C108.561 65.4199 108.732 65.6908 108.777 66.0149C108.794 66.1336 108.705 66.2426 108.596 66.2412C108.514 66.2412 108.45 66.1713 108.437 66.0819C108.408 65.8794 108.306 65.7132 108.158 65.6378C107.955 65.5344 107.697 65.628 107.573 65.7733C107.439 65.9311 107.41 66.237 107.49 66.6113C107.55 66.8865 107.678 67.1309 107.772 67.2887C107.703 67.177 107.65 67.0932 107.777 67.2957C107.798 67.3292 107.816 67.36 107.832 67.3851C107.849 67.4116 107.866 67.4382 107.887 67.4703C108.133 67.8642 107.86 67.8488 107.835 67.8446C107.604 67.8027 107.419 67.4563 107.325 67.2385C107.098 66.7147 106.963 65.952 107.327 65.5218C107.534 65.276 107.951 65.1126 108.31 65.2956V65.2928Z" fill="#C36252"/>
<path d="M107.833 67.3835C107.812 67.3486 107.793 67.3192 107.778 67.2941C107.778 67.2927 107.775 67.2899 107.773 67.2871C107.799 67.3276 107.825 67.3695 107.846 67.403C107.842 67.3961 107.838 67.3905 107.832 67.3821L107.833 67.3835Z" fill="#C36252"/>
<path d="M106.67 64.2703C106.46 64.6111 106.213 65.1963 106.227 66.0456C106.247 67.2314 106.751 68.3083 107.221 68.5709C107.221 68.5765 107.223 68.5821 107.223 68.5877C107.268 68.8181 107.385 69.4285 107.942 69.5291C108.37 69.6059 108.536 69.3014 108.619 69.0346C108.653 68.9285 108.599 68.8181 108.502 68.793C108.415 68.7706 108.326 68.8293 108.296 68.9243C108.225 69.1547 108.157 69.1813 108.011 69.1547C107.715 69.1017 107.62 68.8069 107.561 68.4955C107.538 68.3809 107.52 68.2818 107.418 68.2455C107.09 68.1281 106.589 67.142 106.571 66.0232C106.562 65.4226 106.69 64.9002 106.953 64.4728C107.058 64.3038 107.2 64.0734 107.453 63.9812C107.724 63.8834 107.969 63.9965 108.075 64.0454C108.445 64.2158 108.636 64.5734 108.727 64.8178C108.76 64.9058 108.849 64.9491 108.933 64.917C109.029 64.8807 109.081 64.7619 109.043 64.66C108.93 64.3583 108.689 63.9127 108.215 63.6948C108.089 63.6362 107.75 63.4797 107.357 63.6222C106.986 63.7563 106.79 64.0761 106.672 64.2689L106.67 64.2703Z" fill="#C36252"/>
<path d="M108.715 66.1867C108.728 66.2454 108.546 66.2859 108.385 66.4702C108.071 66.8278 108.151 67.3558 108.081 67.3586C108.029 67.3614 107.954 67.0695 107.993 66.7747C108.011 66.6393 108.048 66.3641 108.247 66.2202C108.436 66.0833 108.701 66.1183 108.715 66.1867Z" fill="#C36252"/>
<path d="M227.2 79.5113C233.382 73.3148 233.382 63.2683 227.2 57.0718C221.019 50.8753 210.997 50.8753 204.815 57.0718C198.634 63.2683 198.634 73.3148 204.815 79.5112C210.997 85.7077 221.019 85.7077 227.2 79.5113Z" fill="#6068F0"/>
<path d="M224.811 74.1247L218.423 68.2486L224.719 62.4576C225.384 61.8459 225.429 60.8109 224.818 60.1446C224.21 59.4784 223.176 59.4337 222.511 60.0455L216.005 66.0277L209.501 60.0455C208.837 59.4351 207.804 59.4784 207.194 60.1446C206.585 60.8109 206.628 61.8459 207.293 62.4576L213.589 68.2486L207.201 74.1247C206.536 74.7365 206.492 75.7715 207.102 76.4377C207.712 77.104 208.745 77.1487 209.409 76.5369L216.007 70.4708L222.603 76.5369C223.268 77.1473 224.3 77.104 224.91 76.4377C225.519 75.7715 225.476 74.7365 224.811 74.1247Z" fill="white"/>
</g>
<defs>
<clipPath id="clip0_5881_5080">
<rect width="334" height="242" fill="white"/>
</clipPath>
</defs>
</svg>
