<svg width="196" height="196" viewBox="0 0 196 196" fill="none" xmlns="http://www.w3.org/2000/svg">
<path d="M22.5995 171.091L26.2906 195.349H47.7351L52.7133 171.444L22.5995 171.091Z" fill="#D7C9E0"/>
<path d="M49.7046 186.627C49.7046 186.696 44.2116 186.753 37.4314 186.753C30.6512 186.753 25.1581 186.696 25.1581 186.627C25.1581 186.557 30.6512 186.5 37.4314 186.5C44.2072 186.5 49.7046 186.557 49.7046 186.627Z" fill="#FAFAFA"/>
<path d="M49.8023 185.436C49.8023 185.506 44.27 185.563 37.4461 185.563C30.6223 185.563 25.09 185.506 25.09 185.436C25.09 185.366 30.6223 185.31 37.4461 185.31C44.27 185.31 49.8023 185.366 49.8023 185.436Z" fill="#FAFAFA"/>
<path d="M49.7535 184.094C49.7535 184.164 44.2211 184.22 37.3973 184.22C30.5735 184.22 25.0411 184.164 25.0411 184.094C25.0411 184.024 30.5735 183.967 37.3973 183.967C44.2211 183.967 49.7535 184.024 49.7535 184.094Z" fill="#FAFAFA"/>
<path d="M28.7539 193.954C28.6841 193.967 28.3918 192.597 28.0951 190.9C27.7984 189.202 27.6152 187.815 27.685 187.802C27.7548 187.789 28.0471 189.159 28.3438 190.856C28.6361 192.558 28.8194 193.945 28.7539 193.954Z" fill="#FAFAFA"/>
<path d="M30.2029 193.697C30.1331 193.697 30.0502 192.362 29.9368 190.717C29.8277 189.072 29.7274 187.737 29.7972 187.729C29.8626 187.72 30.0764 189.046 30.1899 190.7C30.3033 192.353 30.2727 193.697 30.2029 193.697Z" fill="#FAFAFA"/>
<path d="M32.8645 193.7C32.7991 193.713 32.5068 192.347 32.3061 190.646C32.1054 188.94 32.0748 187.548 32.1446 187.543C32.2144 187.539 32.3584 188.918 32.5591 190.615C32.7555 192.312 32.9343 193.687 32.8645 193.7Z" fill="#FAFAFA"/>
<path d="M34.7352 193.833C34.6698 193.837 34.4909 192.449 34.4385 190.726C34.3818 189.003 34.4647 187.606 34.5345 187.606C34.6043 187.606 34.6349 188.998 34.6916 190.717C34.7439 192.432 34.8094 193.824 34.7352 193.833Z" fill="#FAFAFA"/>
<path d="M38.0302 193.704C37.9604 193.708 37.86 192.386 37.8033 190.758C37.7466 189.127 37.7597 187.805 37.8295 187.805C37.8993 187.8 37.9997 189.122 38.0564 190.75C38.1131 192.382 38.1 193.704 38.0302 193.704Z" fill="#FAFAFA"/>
<path d="M40.4456 193.832C40.3758 193.832 40.3321 192.466 40.3452 190.782C40.3583 189.098 40.4281 187.737 40.4979 187.737C40.5677 187.737 40.6114 189.102 40.5983 190.787C40.5808 192.466 40.5154 193.832 40.4456 193.832Z" fill="#FAFAFA"/>
<path d="M42.7117 193.503C42.6419 193.494 42.7248 192.072 42.8949 190.318C43.0651 188.564 43.2571 187.15 43.3269 187.155C43.3967 187.164 43.3138 188.586 43.1436 190.34C42.9735 192.098 42.7815 193.512 42.7117 193.503Z" fill="#FAFAFA"/>
<path d="M45.6266 193.19C45.5611 193.182 45.6658 191.96 45.9887 190.481C46.3072 189.002 46.7217 187.846 46.7872 187.867C46.857 187.889 46.5515 189.067 46.2374 190.533C45.9102 191.999 45.6964 193.199 45.6266 193.19Z" fill="#FAFAFA"/>
<path d="M43.5701 123.223C43.5745 123.223 43.5657 123.266 43.5439 123.34C43.5178 123.432 43.4829 123.546 43.4436 123.685C43.3432 124.004 43.208 124.44 43.0378 124.994C42.8546 125.561 42.6364 126.255 42.4095 127.071C42.1783 127.882 41.8903 128.803 41.6373 129.837C41.3668 130.867 41.0701 131.992 40.7996 133.214C40.5029 134.431 40.2498 135.74 39.9706 137.119C39.4558 139.885 38.9889 142.944 38.6573 146.172C38.3432 149.405 38.1992 152.494 38.1556 155.309C38.1556 156.713 38.1425 158.053 38.1948 159.301C38.2166 160.553 38.2821 161.714 38.3475 162.778C38.3955 163.843 38.4915 164.798 38.5613 165.64C38.6224 166.482 38.7009 167.207 38.7664 167.8C38.8275 168.376 38.8711 168.834 38.906 169.166C38.9191 169.31 38.9278 169.427 38.9365 169.519C38.9409 169.598 38.9409 169.641 38.9365 169.641C38.9322 169.641 38.9235 169.602 38.9104 169.523C38.8973 169.427 38.8755 169.314 38.8536 169.17C38.81 168.838 38.7446 168.385 38.666 167.813C38.5831 167.224 38.4915 166.5 38.4173 165.658C38.3388 164.816 38.2254 163.856 38.1686 162.791C38.0945 161.727 38.0159 160.562 37.9854 159.31C37.9243 158.057 37.933 156.718 37.9243 155.309C37.9549 152.49 38.0945 149.392 38.4086 146.151C38.7402 142.913 39.2158 139.85 39.7437 137.08C40.0317 135.701 40.2891 134.383 40.5945 133.17C40.8737 131.949 41.1792 130.823 41.4628 129.793C41.7289 128.759 42.03 127.843 42.2743 127.036C42.5143 126.224 42.7455 125.535 42.9462 124.972C43.1382 124.427 43.2909 123.991 43.4 123.676C43.4479 123.541 43.4916 123.432 43.5221 123.34C43.5483 123.258 43.5658 123.223 43.5701 123.223Z" fill="#D7C9E0"/>
<path d="M39.6979 138.249C40.2782 136.517 41.478 134.999 43.0313 134.039C43.5636 133.712 44.2311 133.441 44.7939 133.716C45.54 134.078 45.6011 135.13 45.3786 135.932C45.0034 137.281 44.122 138.476 42.9527 139.24C41.7791 140.003 40.6927 140.361 39.3096 140.16" fill="#D7C9E0"/>
<path d="M38.3836 148.386C38.9378 146.292 40.6088 143.316 42.3409 142.02C42.6158 141.815 42.9081 141.623 43.2397 141.54C43.5713 141.462 43.9553 141.51 44.204 141.75C44.5574 142.09 44.5225 142.661 44.4178 143.137C43.7546 146.191 41.2109 148.752 38.1611 149.437" fill="#D7C9E0"/>
<path d="M38.038 157.314C38.8931 155.324 40.2849 153.57 42.0302 152.292C42.4403 151.991 42.9246 151.703 43.422 151.795C44.1811 151.93 44.5215 152.859 44.456 153.623C44.3164 155.202 43.1122 156.467 41.8687 157.449C40.5293 158.505 38.1732 159.347 38.1732 159.347" fill="#D7C9E0"/>
<path d="M38.2384 163.734C39.1154 162.242 40.2061 160.841 41.6372 159.864C41.947 159.654 42.283 159.458 42.6582 159.406C43.029 159.353 43.4479 159.476 43.6573 159.785C43.9976 160.287 43.6748 160.963 43.3083 161.443C42.0474 163.11 40.4548 164.375 38.4609 164.999" fill="#D7C9E0"/>
<path d="M38.0747 161.128C36.6131 159.334 34.9813 157.676 33.2143 156.18C32.9394 155.944 32.5904 155.7 32.2457 155.813C31.9795 155.901 31.8181 156.189 31.8006 156.468C31.7832 156.747 31.8792 157.022 31.9839 157.279C33.0441 159.845 35.5485 161.856 38.2405 162.541" fill="#D7C9E0"/>
<path d="M38.2223 152.77C36.9483 151.221 35.6787 149.668 34.4047 148.114C34.0425 147.674 33.6673 147.22 33.1655 146.941C32.6638 146.661 32.005 146.592 31.5381 146.923C31.0713 147.25 30.9142 147.896 31.0146 148.459C31.1193 149.022 31.4334 149.519 31.7606 149.986C32.5373 151.103 33.423 152.172 34.5399 152.94C35.6612 153.712 36.6778 154.214 38.026 154.013" fill="#D7C9E0"/>
<path d="M38.7578 143.372C38.0161 141.155 36.6766 139.144 34.9183 137.604C34.626 137.346 34.3031 137.093 33.9191 137.019C33.1556 136.871 32.4139 137.508 32.1696 138.25C31.8903 139.079 32.0823 140.017 32.5186 140.776C32.9549 141.535 33.6181 142.141 34.3118 142.674C35.5946 143.655 37.0344 144.432 38.5571 144.964" fill="#D7C9E0"/>
<path d="M40.2775 134.986C39.9066 132.289 38.5017 130.042 36.8787 127.861C36.534 127.403 36.0584 126.914 35.4912 126.997C35.1291 127.054 34.8368 127.346 34.6928 127.682C34.5488 128.018 34.5313 128.393 34.5401 128.76C34.6273 132.019 36.8743 135.117 39.9459 136.203" fill="#D7C9E0"/>
<path d="M41.3462 130.706C41.211 129.318 41.0801 127.922 41.2066 126.535C41.3331 125.147 41.7432 123.756 42.5897 122.652C42.9562 122.176 43.4143 121.753 43.9771 121.548C44.54 121.343 45.2162 121.391 45.6787 121.775C46.1063 122.128 46.2808 122.717 46.259 123.271C46.2372 123.825 46.0409 124.358 45.8271 124.868C44.8105 127.311 43.1176 130.021 41.3462 130.706Z" fill="#D7C9E0"/>
<path d="M24.7125 133.918C24.7212 133.918 24.7299 134.036 24.7343 134.258C24.7387 134.507 24.7387 134.834 24.7474 135.236C24.7474 135.659 24.7474 136.182 24.7736 136.784C24.7954 137.387 24.7998 138.076 24.8478 138.835C24.9132 140.353 25.0615 142.155 25.2928 144.149C25.5415 146.143 25.8774 148.325 26.3486 150.594C26.8286 152.858 27.3958 154.996 27.9717 156.92C28.5607 158.84 29.1541 160.55 29.6995 161.964C29.9569 162.679 30.2318 163.308 30.4543 163.87C30.6768 164.433 30.8819 164.909 31.0564 165.297C31.2135 165.668 31.3443 165.969 31.4403 166.196C31.5276 166.401 31.5669 166.514 31.5581 166.519C31.5494 166.523 31.4927 166.418 31.3923 166.218C31.2833 165.995 31.1436 165.698 30.9648 165.336C30.7771 164.952 30.559 164.481 30.3234 163.923C30.0878 163.369 29.7998 162.74 29.5337 162.025C28.9621 160.616 28.3513 158.905 27.7492 156.981C27.1602 155.057 26.5842 152.915 26.1043 150.642C25.6331 148.364 25.2971 146.174 25.0659 144.176C24.8478 142.173 24.7169 140.362 24.6732 138.839C24.634 138.08 24.6427 137.391 24.6383 136.784C24.6296 136.178 24.6427 135.659 24.6558 135.236C24.6689 134.83 24.682 134.507 24.6907 134.258C24.6907 134.031 24.7038 133.918 24.7125 133.918Z" fill="#B29DC0"/>
<path d="M25.3218 144.974C25.3436 143.67 25.8323 142.378 26.6831 141.388C26.9754 141.052 27.3724 140.725 27.8131 140.786C28.4021 140.873 28.6682 141.575 28.6901 142.169C28.725 143.168 28.3846 144.171 27.7476 144.944C27.115 145.716 26.4518 146.192 25.4658 146.353" fill="#B29DC0"/>
<path d="M26.6115 152.16C26.5373 150.616 27.0347 148.229 27.9379 146.972C28.0819 146.772 28.2389 146.58 28.4484 146.453C28.6578 146.327 28.9283 146.279 29.1464 146.388C29.4606 146.54 29.5609 146.938 29.5915 147.287C29.7965 149.507 28.6185 151.798 26.6857 152.924" fill="#B29DC0"/>
<path d="M28.2815 158.323C28.4342 156.787 29.0058 155.291 29.9176 154.043C30.1314 153.751 30.4019 153.45 30.7597 153.406C31.3051 153.336 31.737 153.89 31.8592 154.431C32.1035 155.535 31.5582 156.656 30.9211 157.594C30.2361 158.602 28.8138 159.68 28.8138 159.68" fill="#B29DC0"/>
<path d="M29.8003 162.643C30.0752 161.439 30.5158 160.248 31.2794 159.279C31.4452 159.07 31.6328 158.865 31.8771 158.747C32.1214 158.633 32.4312 158.625 32.6406 158.791C32.981 159.057 32.9068 159.589 32.7584 159.995C32.2611 161.404 31.4452 162.604 30.2235 163.459" fill="#B29DC0"/>
<path d="M29.1301 160.91C27.747 160.002 26.281 159.226 24.7583 158.584C24.5184 158.484 24.2304 158.392 24.021 158.545C23.8595 158.663 23.8115 158.89 23.8595 159.086C23.9075 159.282 24.0297 159.444 24.1606 159.597C25.4346 161.115 27.5725 161.944 29.5533 161.835" fill="#B29DC0"/>
<path d="M27.4481 155.186C26.2483 154.405 25.0484 153.62 23.8486 152.839C23.5039 152.616 23.1549 152.389 22.7534 152.307C22.352 152.224 21.8896 152.32 21.6409 152.643C21.3922 152.965 21.4227 153.441 21.6147 153.803C21.8067 154.165 22.1295 154.436 22.4524 154.684C23.2203 155.278 24.0536 155.814 24.983 156.098C25.9123 156.382 26.7151 156.504 27.5877 156.081" fill="#B29DC0"/>
<path d="M25.7751 148.671C24.7934 147.323 23.4496 146.241 21.9182 145.573C21.6608 145.46 21.3903 145.359 21.111 145.39C20.5569 145.455 20.1948 146.049 20.1817 146.603C20.173 147.227 20.5002 147.824 20.9627 148.248C21.4252 148.671 22.0054 148.941 22.5945 149.155C23.6809 149.548 24.8283 149.766 25.9802 149.801" fill="#B29DC0"/>
<path d="M25.007 142.63C24.1736 140.871 22.7338 139.645 21.1587 138.511C20.8271 138.271 20.3952 138.044 20.0287 138.223C19.7931 138.336 19.6578 138.602 19.6317 138.86C19.6055 139.122 19.6753 139.379 19.7626 139.628C20.5217 141.827 22.7207 143.454 25.0462 143.533" fill="#B29DC0"/>
<path d="M24.8114 139.484C24.4231 138.568 24.0304 137.647 23.8166 136.674C23.6029 135.701 23.581 134.667 23.9214 133.729C24.0697 133.328 24.2879 132.939 24.6282 132.678C24.9685 132.416 25.4397 132.302 25.8324 132.464C26.1989 132.612 26.4476 132.974 26.5523 133.358C26.657 133.742 26.6395 134.144 26.6046 134.541C26.4432 136.43 25.8716 138.638 24.8114 139.484Z" fill="#B29DC0"/>
<path d="M51.8334 133.69C51.8421 133.69 51.8508 133.808 51.8639 134.03C51.8726 134.279 51.8857 134.606 51.8988 135.008C51.9163 135.435 51.925 135.954 51.9163 136.556C51.9119 137.163 51.9163 137.848 51.8814 138.611C51.8377 140.134 51.7068 141.945 51.4887 143.943C51.2531 145.941 50.9215 148.132 50.4503 150.409C49.966 152.682 49.3944 154.825 48.8054 156.749C48.1989 158.668 47.5925 160.379 47.0209 161.792C46.7504 162.504 46.4668 163.132 46.2312 163.686C45.9956 164.244 45.7774 164.716 45.5898 165.1C45.4153 165.466 45.2713 165.758 45.1623 165.981C45.0619 166.182 45.0052 166.286 44.9965 166.282C44.9877 166.278 45.0314 166.169 45.1143 165.959C45.2103 165.728 45.3411 165.431 45.4982 165.06C45.6684 164.672 45.8778 164.196 46.1003 163.634C46.3228 163.075 46.5977 162.443 46.8551 161.727C47.4049 160.309 47.9939 158.599 48.5829 156.683C49.1588 154.759 49.7217 152.626 50.206 150.357C50.6772 148.088 51.0131 145.907 51.2618 143.917C51.4931 141.923 51.637 140.121 51.7068 138.603C51.7548 137.844 51.7592 137.159 51.781 136.556C51.8028 135.954 51.8072 135.435 51.8072 135.008C51.8116 134.602 51.8159 134.279 51.8203 134.03C51.8159 133.808 51.8246 133.69 51.8334 133.69Z" fill="#D7C9E0"/>
<path d="M51.2256 144.741C51.2038 143.436 50.7151 142.145 49.8643 141.154C49.572 140.818 49.1749 140.491 48.7343 140.552C48.1453 140.64 47.8791 141.342 47.8573 141.935C47.8224 142.935 48.1627 143.938 48.7997 144.71C49.4324 145.483 50.0956 145.958 51.0816 146.12" fill="#D7C9E0"/>
<path d="M49.9272 151.932C50.0014 150.387 49.504 148 48.6009 146.744C48.4569 146.543 48.2998 146.351 48.0904 146.225C47.881 146.098 47.6104 146.05 47.3923 146.159C47.0782 146.312 46.9778 146.709 46.9473 147.058C46.7422 149.279 47.9202 151.574 49.8531 152.695" fill="#D7C9E0"/>
<path d="M48.2469 158.085C48.0942 156.549 47.5226 155.052 46.6108 153.805C46.397 153.512 46.1265 153.211 45.7687 153.168C45.2233 153.098 44.7914 153.652 44.6692 154.189C44.4249 155.292 44.9703 156.414 45.6073 157.352C46.2923 158.36 47.7146 159.437 47.7146 159.437" fill="#D7C9E0"/>
<path d="M46.7384 162.412C46.4635 161.207 46.0228 160.016 45.2593 159.048C45.0935 158.838 44.9059 158.633 44.6616 158.515C44.4172 158.402 44.1075 158.393 43.898 158.559C43.5577 158.825 43.6319 159.358 43.7802 159.763C44.2776 161.173 45.0892 162.372 46.3152 163.228" fill="#D7C9E0"/>
<path d="M47.4185 160.672C48.8015 159.764 50.2675 158.987 51.7902 158.346C52.0302 158.246 52.3182 158.154 52.5276 158.307C52.689 158.425 52.737 158.651 52.689 158.848C52.641 159.04 52.5189 159.206 52.388 159.358C51.114 160.877 48.9761 161.706 46.9952 161.597" fill="#D7C9E0"/>
<path d="M49.107 154.948C50.3069 154.167 51.5067 153.382 52.7066 152.601C53.0469 152.378 53.4003 152.151 53.8017 152.068C54.2031 151.985 54.6656 152.081 54.9143 152.404C55.163 152.727 55.1324 153.203 54.9404 153.56C54.7485 153.923 54.4256 154.193 54.1027 154.442C53.3348 155.035 52.5015 155.572 51.5722 155.855C50.6428 156.139 49.84 156.261 48.9674 155.838" fill="#D7C9E0"/>
<path d="M50.7623 148.433C51.744 147.084 53.0878 146.002 54.6193 145.335C54.8767 145.221 55.1472 145.121 55.4264 145.152C55.9805 145.217 56.3427 145.81 56.3558 146.364C56.3645 146.988 56.0373 147.586 55.5748 148.009C55.1123 148.433 54.532 148.703 53.943 148.912C52.8566 149.305 51.7135 149.523 50.5573 149.558" fill="#D7C9E0"/>
<path d="M51.5263 142.401C52.3597 140.643 53.7995 139.417 55.3745 138.282C55.7061 138.042 56.1381 137.816 56.5046 137.994C56.7402 138.108 56.8754 138.374 56.9016 138.631C56.9278 138.893 56.858 139.151 56.7707 139.399C56.0116 141.598 53.8126 143.226 51.4871 143.304" fill="#D7C9E0"/>
<path d="M51.7315 139.254C52.1198 138.337 52.5125 137.417 52.7263 136.444C52.9357 135.471 52.9619 134.437 52.6216 133.499C52.4732 133.097 52.2551 132.709 51.9147 132.447C51.5744 132.185 51.1032 132.072 50.7105 132.233C50.344 132.386 50.0953 132.744 49.9906 133.128C49.8859 133.512 49.9034 133.913 49.9383 134.31C50.0997 136.195 50.6713 138.403 51.7315 139.254Z" fill="#D7C9E0"/>
<path d="M20.1375 166.284V170.821C20.1375 171.807 20.9359 172.61 21.9263 172.61H52.9782C53.9642 172.61 54.767 171.812 54.767 170.821V166.284H20.1375Z" fill="#D7C9E0"/>
<path d="M22.8156 172.612L23.073 174.056L51.7252 176.098L52.4538 172.612H22.8156Z" fill="#B29DC0"/>
<path d="M27.9773 62.3271L21.4371 59.6394C21.4371 59.6394 19.1814 65.1325 13.4309 62.8812C10.4465 61.7119 9.70917 59.142 9.69608 57.3968C9.68299 55.3723 10.7083 53.4919 12.3401 52.292C14.2031 50.9177 17.3925 50.0712 21.4807 52.6629L27.4668 38.099L21.0008 35.4419L17.4492 44.0808C17.4492 44.0808 7.4142 42.6977 3.3042 52.6934C-0.626914 62.2573 7.37057 68.143 11.8383 69.9799C14.6438 71.1273 23.3568 73.9197 27.9773 62.3271Z" fill="#B6A5A5"/>
<path d="M24.6912 26.2404L22.1708 32.3701L28.7364 35.0698L31.2568 28.94L24.6912 26.2404Z" fill="#B6A5A5"/>
<path d="M25.7615 61.4067L19.2213 58.719C19.2213 58.719 16.9656 64.2121 11.2151 61.9608C8.23076 60.7915 7.49341 58.2216 7.48032 56.4764C7.46723 54.4519 8.49255 52.5715 10.1243 51.3716C11.9874 49.9973 15.0982 49.3341 19.1908 51.9257L25.2554 37.1786L18.7894 34.5215L15.2378 43.1603C15.2378 43.1603 5.2028 41.7773 1.0928 51.773C-2.83832 61.3368 4.82322 67.083 8.49691 68.5926C11.298 69.7445 21.1411 72.9949 25.7615 61.4067Z" fill="#E0E0E0"/>
<path d="M22.4744 25.3204L19.954 31.4502L26.5196 34.1498L29.04 28.0201L22.4744 25.3204Z" fill="#E0E0E0"/>
<path d="M182.75 174.263L178.697 174.599C178.697 174.599 178.981 178.003 175.447 178.36C173.61 178.544 172.558 177.418 172.096 176.528C171.559 175.494 171.594 174.263 172.113 173.221C172.707 172.03 174.12 170.76 176.891 171.013L176.14 161.981L172.131 162.313L172.576 167.671C172.576 167.671 167.074 169.591 167.589 175.791C168.082 181.72 173.723 182.641 176.489 182.409C178.226 182.265 183.422 181.41 182.75 174.263Z" fill="#282121"/>
<path d="M175.686 156.296L171.616 156.634L171.932 160.434L176.002 160.096L175.686 156.296Z" fill="#282121"/>
<path d="M181.371 174.366L177.318 174.702C177.318 174.702 177.602 178.105 174.068 178.463C172.231 178.646 171.179 177.52 170.717 176.63C170.18 175.596 170.215 174.366 170.734 173.323C171.328 172.132 172.75 170.976 175.521 171.229L174.761 162.084L170.752 162.416L171.197 167.773C171.197 167.773 165.695 169.693 166.21 175.893C166.703 181.822 172.135 182.761 174.412 182.569C176.144 182.429 182.043 181.517 181.371 174.366Z" fill="#E0E0E0"/>
<path d="M174.305 156.405L170.235 156.743L170.551 160.544L174.621 160.205L174.305 156.405Z" fill="#E0E0E0"/>
<path d="M159.19 27.1767L167.222 24.0048C167.222 24.0048 164.556 17.2595 171.52 14.3711C175.137 12.8702 177.964 14.5108 179.452 16.0335C181.18 17.8049 181.865 20.3267 181.45 22.7657C180.975 25.5493 178.885 28.9961 173.095 30.1829L180.159 48.0714L188.104 44.9344L183.915 34.3234C183.915 34.3234 193.92 27.0458 189.068 14.7682C184.43 3.02282 172.406 4.61533 166.921 6.78377C163.47 8.14069 153.439 13.0622 159.19 27.1767Z" fill="#B9A9A9"/>
<path d="M189.675 48.6258L181.612 51.8101L184.585 59.3378L192.648 56.1535L189.675 48.6258Z" fill="#B9A9A9"/>
<path d="M155.984 28.4418L164.017 25.2699C164.017 25.2699 161.351 18.5246 168.314 15.6363C171.931 14.1354 174.759 15.7759 176.246 17.2986C177.974 19.07 178.659 21.5918 178.245 24.0308C177.769 26.8144 175.592 30.0387 169.798 31.2211L176.949 49.3322L184.894 46.1951L180.706 35.5842C180.706 35.5842 190.71 28.3066 185.858 16.0289C181.22 4.28358 169.606 5.71467 165.099 7.49479C161.656 8.85607 150.238 14.3273 155.984 28.4418Z" fill="#E0E0E0"/>
<path d="M186.475 49.8895L178.411 53.0737L181.384 60.6015L189.448 57.4172L186.475 49.8895Z" fill="#E0E0E0"/>
<path d="M94.0497 17.7682C94.789 9.43691 88.621 2.08249 80.2729 1.34163C71.9248 0.600769 64.558 6.75402 63.8186 15.0853C63.0792 23.4166 69.2473 30.771 77.5954 31.5119C85.9435 32.2527 93.3103 26.0995 94.0497 17.7682Z" fill="white"/>
<path d="M88.6768 28.0469C88.6768 28.0469 88.7423 27.9946 88.8644 27.8855C88.991 27.7721 89.1655 27.6106 89.4011 27.4012C89.5189 27.2921 89.6498 27.1743 89.7938 27.0434C89.9334 26.9038 90.0686 26.738 90.2257 26.5679C90.3784 26.3933 90.5486 26.2057 90.7231 26.0094C90.9107 25.8174 91.0547 25.5687 91.2379 25.3288C91.9753 24.3732 92.6996 23.0643 93.2798 21.45C93.8514 19.8357 94.2266 17.881 94.1306 15.7169C94.1176 15.4464 94.1001 15.1716 94.087 14.8967C94.0565 14.6218 94.0085 14.3469 93.9648 14.0677C93.9169 13.7885 93.895 13.5005 93.8209 13.2213C93.7511 12.942 93.6769 12.6584 93.6071 12.3705C93.5373 12.148 93.4282 11.7858 93.3627 11.5633C93.3584 11.5459 93.3497 11.5328 93.3453 11.5153C93.2449 11.2317 93.1402 10.9438 93.0355 10.6558C92.9221 10.3722 92.7737 10.0973 92.6472 9.81372C92.5032 9.53449 92.3941 9.2378 92.2153 8.97165C91.8793 8.43063 91.5739 7.85907 91.1507 7.3486C90.95 7.09117 90.7624 6.8163 90.5442 6.56324C90.2344 6.22729 89.9203 5.89133 89.6062 5.55102C89.5756 5.51611 89.5407 5.48557 89.5058 5.45503C89.3793 5.34159 89.2484 5.22815 89.1219 5.11471C88.8601 4.89219 88.6114 4.65222 88.3365 4.43407C87.7649 4.03267 87.2152 3.58764 86.5738 3.25605C85.9674 2.8721 85.2955 2.59286 84.6279 2.29181C84.2876 2.15656 83.9342 2.05184 83.5851 1.92531C83.4062 1.86859 83.2361 1.79878 83.0528 1.75515L82.5075 1.62426C81.9272 1.46283 81.3251 1.37993 80.723 1.3014C80.4176 1.27522 80.1121 1.24904 79.8111 1.22286L78.8338 1.18359L78.5414 1.19668L77.9612 1.22722L77.3765 1.25777L76.7962 1.34503L76.2116 1.43229L75.9192 1.47592L75.6313 1.54573C75.0423 1.72461 74.078 2.01694 73.489 2.19582C73.441 2.21328 73.3887 2.23073 73.3407 2.24818C71.8485 2.85028 70.4305 3.68799 69.1478 4.73512C67.8912 5.8128 66.8179 7.065 65.9627 8.43063C65.9409 8.4699 65.9147 8.51353 65.8929 8.5528C65.6137 9.10691 65.1556 10.0101 64.872 10.5598L64.7498 10.8303L64.6538 11.1096L64.4618 11.668L64.2742 12.2265L64.139 12.7981L64.0037 13.3653L63.9383 13.6489L63.8074 14.6218C63.7812 14.9272 63.755 15.2283 63.7245 15.5337C63.6983 16.1445 63.6721 16.751 63.7289 17.3487L63.7594 17.9072C63.7681 18.0948 63.8117 18.2737 63.8336 18.4613C63.8946 18.8278 63.9383 19.1943 64.0125 19.5521C64.1957 20.2632 64.3528 20.9701 64.6233 21.6376C64.8371 22.3226 65.1818 22.9465 65.4741 23.5792C65.6399 23.8846 65.8318 24.1769 66.0064 24.4692C66.098 24.6176 66.1853 24.7616 66.2725 24.9099C66.2943 24.9492 66.3205 24.9884 66.3511 25.0233C66.6303 25.3942 66.9095 25.7607 67.1844 26.1272C67.3938 26.3846 67.6338 26.6202 67.8519 26.8646C68.2795 27.3663 68.79 27.7721 69.2656 28.1953C69.4968 28.4178 69.7717 28.5792 70.0204 28.7668C70.2778 28.9457 70.5221 29.1377 70.7839 29.2991C71.0501 29.4518 71.3162 29.6046 71.5824 29.7573C71.8005 29.8663 72.1496 30.0496 72.3677 30.1587H72.3721C72.6426 30.2808 72.9087 30.3986 73.1705 30.5164C73.4323 30.6386 73.7115 30.7084 73.9777 30.8088C74.2482 30.896 74.51 30.992 74.7761 31.0705C75.0466 31.1316 75.3128 31.1971 75.5746 31.2582C77.6863 31.7337 79.6802 31.7076 81.3687 31.424C83.0572 31.1316 84.4752 30.6517 85.5441 30.0889C85.8103 29.9492 86.0808 29.8489 86.3033 29.7005C86.5302 29.5609 86.744 29.43 86.9403 29.3079C87.1367 29.1857 87.3243 29.0766 87.4857 28.9676C87.6428 28.8497 87.7824 28.7407 87.9089 28.6447C88.1576 28.4527 88.3452 28.3044 88.4805 28.204C88.6157 28.1037 88.6768 28.0469 88.6768 28.0469C88.6768 28.0469 88.607 28.0906 88.4761 28.1866C88.3409 28.2869 88.1489 28.4265 87.8958 28.6141C87.7693 28.7101 87.6253 28.8148 87.4683 28.9326C87.3068 29.0417 87.1192 29.1464 86.9229 29.2642C86.7222 29.382 86.5127 29.5129 86.2815 29.6482C86.059 29.7965 85.7885 29.8925 85.5223 30.0278C84.4534 30.5775 83.0397 31.0444 81.36 31.3236C79.6802 31.5941 77.7037 31.6116 75.6095 31.1316C75.3477 31.0705 75.0859 31.0051 74.8197 30.944C74.558 30.8655 74.2962 30.7695 74.03 30.6779C73.7682 30.5819 73.489 30.5121 73.2316 30.3855C72.9698 30.2677 72.708 30.1456 72.4419 30.0278C72.2368 29.9231 71.8965 29.7485 71.6914 29.6438C71.6783 29.6351 71.6653 29.6307 71.6565 29.622C71.3991 29.4737 71.1373 29.321 70.8755 29.1683C70.6181 29.0068 70.3782 28.8148 70.1207 28.6403C69.8764 28.4527 69.6015 28.2956 69.3746 28.0731C68.9078 27.6499 68.4017 27.2529 67.9785 26.7511C67.7603 26.5111 67.5247 26.2799 67.3197 26.0225C67.0491 25.6604 66.7699 25.2939 66.495 24.9274C66.4689 24.8925 66.4427 24.8575 66.4209 24.8183C66.3336 24.6743 66.2463 24.5303 66.1591 24.382C65.9846 24.0896 65.7969 23.8017 65.6355 23.5006C65.3475 22.8724 65.0072 22.2572 64.7978 21.5809C64.5273 20.9221 64.3746 20.2196 64.1957 19.5172C64.1215 19.1638 64.0823 18.7973 64.0212 18.4395C63.9994 18.2562 63.9557 18.0774 63.947 17.8941L63.9165 17.34C63.8467 16.5983 63.9034 15.8522 63.9339 15.0974C63.9863 14.7222 64.0386 14.3469 64.0866 13.9674L64.1259 13.6838L64.1913 13.4045L64.3222 12.8417L64.4531 12.2789L64.6364 11.7291L64.824 11.175L64.92 10.8958L65.0378 10.6296C65.317 10.0799 65.7751 9.18544 66.0544 8.6357C66.0762 8.60079 66.098 8.56153 66.1198 8.52662C66.9619 7.17844 68.0265 5.94369 69.2656 4.87474C70.5309 3.8407 71.9358 3.01172 73.4105 2.41834C73.4541 2.40089 73.5021 2.38343 73.5457 2.37035C74.1304 2.19146 75.0859 1.9035 75.6705 1.72461L75.9541 1.6548L76.2421 1.61117L76.818 1.52391L77.394 1.43665L77.9699 1.40611L78.5458 1.37557L78.8338 1.36248L79.1217 1.37557C79.5013 1.38866 79.8809 1.40611 80.2605 1.4192C81.0109 1.52391 81.757 1.59808 82.4726 1.79442L83.0136 1.92095C83.1925 1.96022 83.3626 2.03439 83.5371 2.09111C83.8818 2.21328 84.2309 2.31799 84.5712 2.44888C85.23 2.74993 85.8976 3.02044 86.4953 3.40003C87.1279 3.72726 87.6733 4.16793 88.2405 4.5606C88.511 4.77439 88.7597 5.01 89.0171 5.23251C89.1437 5.34595 89.2746 5.45503 89.4011 5.56847C89.436 5.59901 89.4665 5.62955 89.4971 5.66009C89.8112 5.99605 90.121 6.332 90.4308 6.6636C90.6489 6.91229 90.8322 7.1828 91.0329 7.44022C91.4517 7.94197 91.7571 8.50917 92.0887 9.04146C92.2676 9.30325 92.3767 9.59993 92.5163 9.87481C92.6472 10.154 92.7912 10.4246 92.9046 10.7082C93.0093 10.9917 93.1097 11.2753 93.2144 11.5589C93.2668 11.6986 93.3148 11.8382 93.3671 11.9778C93.3715 11.9909 93.3758 12.004 93.3802 12.0171C93.4849 12.4316 93.5896 12.8417 93.6943 13.2475C93.7729 13.5223 93.7903 13.8103 93.8427 14.0852C93.8819 14.3644 93.9343 14.6349 93.9648 14.9098C93.9823 15.1846 93.9954 15.4552 94.0128 15.7213C94.1176 17.8679 93.7554 19.8095 93.1969 21.4151C92.6254 23.0207 91.9186 24.3296 91.1899 25.2851C91.0111 25.5251 90.8671 25.7738 90.6838 25.9658C90.5093 26.1665 90.3435 26.3541 90.1952 26.5286C90.0425 26.7031 89.9072 26.8689 89.7719 27.0085C89.6323 27.1438 89.5014 27.2616 89.3836 27.3707C89.1568 27.5845 88.9822 27.7503 88.8601 27.8681C88.7335 27.9859 88.6768 28.0469 88.6768 28.0469Z" fill="#E0E0E0"/>
<path d="M91.8661 36.4069C90.7447 37.8685 88.537 37.6722 87.6862 36.0404C87.2587 35.2158 87.3503 34.1861 87.9131 33.4488C89.0344 31.9871 91.2421 32.1835 92.0929 33.8153C92.5205 34.6399 92.4289 35.6739 91.8661 36.4069Z" fill="white"/>
<path d="M91.4742 36.8162C91.4786 36.8206 91.5222 36.79 91.6007 36.7246C91.6836 36.6591 91.7927 36.5501 91.9149 36.393C92.1549 36.0876 92.4385 35.5378 92.4166 34.8092C92.4036 34.4514 92.3163 34.0544 92.1069 33.6835C91.8974 33.317 91.5877 32.9636 91.1688 32.7237C90.7587 32.4793 90.2482 32.3441 89.729 32.379C89.2054 32.4052 88.6775 32.6146 88.2499 32.968C87.8267 33.3258 87.53 33.8101 87.4122 34.3205C87.2857 34.8266 87.3293 35.3546 87.4995 35.7996C87.6609 36.2534 87.9576 36.6199 88.2805 36.8904C88.6077 37.1609 88.9829 37.318 89.3363 37.3921C90.0475 37.5405 90.6365 37.3616 90.9812 37.1783C91.1557 37.0867 91.2822 36.9995 91.3608 36.9296C91.4393 36.8598 91.4786 36.8206 91.4742 36.8162C91.4611 36.7987 91.2997 36.9471 90.9463 37.1129C90.6016 37.27 90.03 37.427 89.3581 37.2656C89.0265 37.1871 88.6775 37.03 88.3721 36.7726C88.071 36.5152 87.7962 36.1661 87.6522 35.7429C87.4995 35.324 87.4602 34.8354 87.5824 34.3642C87.6915 33.8886 87.9707 33.4436 88.3634 33.1076C88.7604 32.7804 89.2491 32.584 89.7334 32.5579C90.2177 32.523 90.6932 32.6451 91.0772 32.8676C91.4699 33.0858 91.7622 33.413 91.9672 33.7577C92.1679 34.1024 92.2596 34.4776 92.2814 34.8136C92.3207 35.5029 92.0676 36.0352 91.8538 36.3494C91.6357 36.6679 91.4568 36.8031 91.4742 36.8162Z" fill="#E0E0E0"/>
<path d="M74.2776 13.9408H76.5726C76.5726 13.9408 76.5726 12.0167 78.5753 11.9818C79.6137 11.9643 80.1547 12.645 80.3728 13.1642C80.6259 13.7706 80.5517 14.46 80.2114 15.0228C79.8231 15.6642 78.9679 16.2489 77.4234 15.974V21.1486H79.6922V18.1206C79.6922 18.1206 82.8729 17.3004 82.8729 13.7925C82.8729 10.4373 79.8667 9.66064 78.5796 9.66064C77.5848 9.66064 74.234 9.89625 74.2776 13.9408Z" fill="#E0E0E0"/>
<path d="M79.7112 22.2139H77.4119V24.3649H79.7112V22.2139Z" fill="#E0E0E0"/>
<path d="M47.9754 78.7152H50.2704C50.2704 78.7152 50.2704 76.7911 52.273 76.7562C53.3114 76.7387 53.8524 77.4194 54.0706 77.9386C54.3236 78.545 54.2495 79.2344 53.9092 79.7972C53.5208 80.4386 52.6657 81.0232 51.1212 80.7484V85.9186H53.39V82.8906C53.39 82.8906 56.5706 82.0704 56.5706 78.5625C56.5706 75.2073 53.5645 74.4307 52.2774 74.4307C51.287 74.4307 47.9318 74.6706 47.9754 78.7152Z" fill="#B29DC0"/>
<path d="M53.4099 86.9883H51.1106V89.1393H53.4099V86.9883Z" fill="#B29DC0"/>
<path d="M150.863 95.4925L148.289 93.8563C148.289 93.8563 146.915 96.016 144.646 94.6286C143.468 93.9087 143.346 92.7612 143.472 92.0195C143.621 91.16 144.197 90.44 144.978 90.0517C145.872 89.6111 147.242 89.5631 148.782 90.968L152.469 85.1651L149.925 83.5508L147.766 86.9496C147.766 86.9496 143.612 85.6058 141.112 89.5413C138.721 93.3066 141.544 96.3215 142.988 97.2421C144.096 97.9445 148.032 100.065 150.863 95.4925Z" fill="#B29DC0"/>
<path d="M152.196 79.9239L150.664 82.3364L153.246 83.9761L154.778 81.5635L152.196 79.9239Z" fill="#B29DC0"/>
<path d="M48.9521 14.9023L46.8185 15.7444C46.8185 15.7444 47.5253 17.5333 45.6754 18.3012C44.7155 18.6982 43.9651 18.2663 43.5681 17.8605C43.1099 17.3893 42.9267 16.7217 43.0358 16.0717C43.1623 15.3343 43.7426 14.4791 45.2784 14.1606L43.3804 9.35254L41.2731 10.1859L42.3857 13.0044C42.3857 13.0044 39.7286 14.9373 41.0157 18.1965C42.246 21.316 45.3307 20.9365 46.5262 20.4609C47.4468 20.1031 50.4791 18.6502 48.9521 14.9023Z" fill="#B29DC0"/>
<path d="M42.2079 6.36591L40.0693 7.21045L40.8594 9.21108L42.998 8.36654L42.2079 6.36591Z" fill="#B29DC0"/>
<path d="M195.315 194.26C195.315 194.321 152.108 194.373 98.822 194.373C45.5185 194.373 2.31982 194.321 2.31982 194.26C2.31982 194.199 45.5185 194.146 98.822 194.146C152.108 194.146 195.315 194.194 195.315 194.26Z" fill="#263238"/>
<path d="M164.242 117.338L160.887 115.838L180.865 90.6802L184.129 91.5833C184.618 91.7186 185.05 91.9978 185.377 92.3818L188.623 96.2038C189.09 96.7536 189.024 97.5782 188.47 98.045L166.044 117.081C165.542 117.509 164.84 117.609 164.242 117.338Z" fill="#BB0070"/>
<path d="M186.921 115.568L183.291 118.648C182.885 118.993 182.326 119.093 181.829 118.91L179.115 117.915C178.775 117.788 178.491 117.544 178.321 117.221L163.461 89.2104L166.811 90.1834C167.243 90.3099 167.627 90.5586 167.92 90.9033L187.095 113.495C187.619 114.106 187.54 115.04 186.921 115.568Z" fill="#BB0070"/>
<g opacity="0.3">
<path d="M164.242 117.338L160.887 115.838L180.865 90.6802L184.129 91.5833C184.618 91.7186 185.05 91.9978 185.377 92.3818L188.623 96.2038C189.09 96.7536 189.024 97.5782 188.47 98.045L166.044 117.081C165.542 117.509 164.84 117.609 164.242 117.338Z" fill="black"/>
<path d="M186.921 115.568L183.291 118.648C182.885 118.993 182.326 119.093 181.829 118.91L179.115 117.915C178.775 117.788 178.491 117.544 178.321 117.221L163.461 89.2104L166.811 90.1834C167.243 90.3099 167.627 90.5586 167.92 90.9033L187.095 113.495C187.619 114.106 187.54 115.04 186.921 115.568Z" fill="black"/>
</g>
<path d="M160.525 115.529L157.226 111.641C156.868 111.222 156.921 110.59 157.34 110.232L180.058 90.9473C180.477 90.5895 181.109 90.6419 181.467 91.0607L184.766 94.9482C185.123 95.3671 185.071 95.9997 184.652 96.3575L161.934 115.642C161.515 116.004 160.882 115.952 160.525 115.529Z" fill="#BB0070"/>
<path d="M183.231 113.771L179.343 117.069C178.924 117.427 178.292 117.375 177.934 116.956L158.649 94.2373C158.291 93.8184 158.344 93.1858 158.763 92.828L162.759 89.4335C163.117 89.1281 163.658 89.1717 163.963 89.5339L183.344 112.366C183.702 112.785 183.649 113.413 183.231 113.771Z" fill="#BB0070"/>
<path d="M165.153 104.725C165.192 104.773 163.713 106.104 161.85 107.701C159.983 109.297 158.438 110.554 158.399 110.506C158.36 110.458 159.839 109.127 161.702 107.53C163.569 105.929 165.114 104.677 165.153 104.725Z" fill="white"/>
<path d="M180.184 91.8581C180.223 91.9061 178.561 93.3808 176.471 95.1479C174.381 96.9193 172.653 98.3155 172.609 98.2675C172.566 98.2195 174.232 96.7448 176.322 94.9777C178.417 93.2063 180.144 91.8101 180.184 91.8581Z" fill="white"/>
<path d="M165.882 101.142C165.834 101.181 164.542 99.6151 163.002 97.6474C161.462 95.6796 160.253 94.0522 160.301 94.0129C160.349 93.9737 161.641 95.54 163.181 97.5077C164.725 99.4755 165.934 101.103 165.882 101.142Z" fill="white"/>
<path d="M177.381 114.223C177.333 114.267 176.003 112.897 174.406 111.165C172.809 109.433 171.552 107.993 171.596 107.949C171.644 107.906 172.975 109.276 174.572 111.008C176.168 112.744 177.429 114.18 177.381 114.223Z" fill="white"/>
<path d="M5.85144 112.596L5.15771 110.013L23.8621 113.743L40.385 90.5054L42.4008 94.2576C42.7149 94.8379 42.7106 95.536 42.3964 96.1163L28.055 122.378C26.9817 124.345 24.4948 125.039 22.5576 123.913L8.08096 115.506C6.98147 114.869 6.17867 113.822 5.85144 112.596Z" fill="#ADC804"/>
<g opacity="0.3">
<path d="M5.85144 112.596L5.15771 110.013L23.8621 113.743L40.385 90.5054L42.4008 94.2576C42.7149 94.8379 42.7106 95.536 42.3964 96.1163L28.055 122.378C26.9817 124.345 24.4948 125.039 22.5576 123.913L8.08096 115.506C6.98147 114.869 6.17867 113.822 5.85144 112.596Z" fill="black"/>
</g>
<path d="M5.20935 108.783L7.90572 104.01C8.28967 103.325 9.14483 103.063 9.84728 103.407L20.672 108.709C21.3876 109.062 22.2558 108.778 22.631 108.076L33.3511 87.9361C33.7525 87.1813 34.708 86.9238 35.4366 87.3689L39.7997 90.0521C40.4716 90.4666 40.7028 91.3305 40.3232 92.0242L26.3135 117.683C25.371 119.411 23.2113 120.057 21.4748 119.136L5.80709 110.825C5.06973 110.428 4.79922 109.507 5.20935 108.783Z" fill="#ADC804"/>
<path d="M19.9356 109.929C19.9269 109.942 19.7218 109.86 19.3553 109.702C18.9539 109.519 18.4347 109.284 17.8152 109.004C16.5194 108.402 14.7349 107.56 12.7715 106.618C12.2828 106.382 11.8029 106.151 11.3404 105.928C11.1092 105.815 10.8823 105.706 10.6598 105.597C10.4416 105.483 10.2322 105.414 10.0097 105.396C9.56464 105.352 9.14143 105.518 8.84474 105.776C8.54369 106.029 8.39971 106.404 8.21209 106.709C7.87178 107.298 7.59254 107.796 7.37002 108.18C7.16932 108.524 7.04716 108.712 7.03407 108.703C7.02098 108.695 7.1126 108.494 7.29149 108.136C7.49655 107.743 7.75397 107.237 8.06811 106.631C8.15101 106.474 8.23827 106.308 8.3299 106.133C8.42588 105.955 8.55241 105.776 8.71821 105.632C9.04544 105.335 9.52101 105.143 10.0271 105.182C10.2758 105.2 10.5332 105.283 10.7558 105.396C10.9783 105.501 11.2052 105.61 11.4408 105.723C11.9032 105.946 12.3832 106.177 12.8762 106.408C14.8396 107.351 16.6153 108.219 17.8937 108.856C18.5002 109.166 19.0063 109.419 19.4033 109.62C19.748 109.807 19.94 109.916 19.9356 109.929Z" fill="white"/>
<path d="M23.9012 109.062C23.8445 109.032 26.1176 104.538 28.9798 99.0271C31.842 93.5122 34.2067 89.0662 34.2591 89.0924C34.3158 89.1229 32.0427 93.6125 29.1805 99.1318C26.3183 104.642 23.9535 109.088 23.9012 109.062Z" fill="white"/>
<path d="M68.9752 49.0312C69.9721 41.0011 64.2705 33.6832 56.2404 32.6864C48.2103 31.6895 40.8925 37.391 39.8956 45.4211C38.8987 53.4512 44.6003 60.7691 52.6304 61.766C60.6605 62.7628 67.9783 57.0613 68.9752 49.0312Z" fill="white"/>
<path d="M69.0844 47.2248C69.0844 47.2248 69.0844 47.1463 69.08 46.9892C69.0756 46.8278 69.0669 46.5922 69.0538 46.2911C69.0494 46.1384 69.0407 45.9639 69.032 45.7763C69.0145 45.5887 68.9796 45.3836 68.9491 45.1611C68.9186 44.9386 68.8793 44.6986 68.8444 44.4455C68.8182 44.1881 68.7222 43.9263 68.6611 43.6427C68.4124 42.504 67.8889 41.1558 67.0555 39.7203C66.2178 38.2936 65.0005 36.8015 63.3338 35.5318C63.1244 35.3747 62.915 35.2177 62.7012 35.0562C62.4787 34.9079 62.2431 34.7726 62.0118 34.6286C61.7762 34.4934 61.5494 34.3276 61.2963 34.2098C61.0432 34.0876 60.7902 33.9655 60.5328 33.8389C60.4019 33.7779 60.2753 33.7168 60.1444 33.6557C60.0092 33.6077 59.8739 33.5553 59.7387 33.5073C59.4638 33.407 59.1889 33.3066 58.9097 33.2019C58.6305 33.1103 58.3338 33.0492 58.0414 32.9663C57.7491 32.9009 57.4568 32.7962 57.1514 32.7613C56.5449 32.674 55.9297 32.5475 55.2884 32.5431C54.9699 32.53 54.6514 32.4995 54.3285 32.5038C54.0056 32.5213 53.6828 32.5344 53.3555 32.5518C53.1941 32.5649 53.0283 32.5606 52.8625 32.5824C52.7011 32.6086 52.5353 32.6304 52.3695 32.6565C52.0422 32.7089 51.7063 32.7482 51.3791 32.8136C50.729 32.9881 50.0527 33.119 49.4113 33.3852C48.7481 33.5946 48.1286 33.9218 47.4872 34.2272C47.1774 34.3974 46.8764 34.5894 46.571 34.7726C46.4183 34.8686 46.2612 34.9515 46.1172 35.0606L45.6809 35.3835C45.0832 35.7936 44.5552 36.3084 44.0099 36.8015C43.7612 37.0763 43.5125 37.3512 43.2594 37.6261L43.0718 37.8355L42.9016 38.058L42.5657 38.5074L42.2254 38.9612L41.9287 39.4455L41.632 39.9341L41.4836 40.1785L41.3571 40.4359C41.1913 40.7806 41.0255 41.1296 40.8554 41.4743C40.7201 41.8364 40.5892 42.1986 40.454 42.5651C39.974 44.0441 39.7122 45.6148 39.6904 47.2161C39.7122 48.8173 39.9697 50.388 40.4496 51.8671C40.5849 52.2336 40.7157 52.5957 40.851 52.9579C41.0168 53.3069 41.187 53.6516 41.3528 53.9963L41.4793 54.2537L41.6276 54.498L41.9243 54.9867L42.221 55.471L42.5613 55.9247L42.8973 56.3741L43.0674 56.5967L43.255 56.8061C43.5081 57.0809 43.7568 57.3558 44.0055 57.6307C44.5552 58.1281 45.0788 58.6386 45.6809 59.0487L46.1172 59.3716C46.2612 59.4806 46.4226 59.5635 46.571 59.6595C46.8807 59.8428 47.1774 60.0391 47.4916 60.2049C48.1329 60.5103 48.7525 60.8375 49.4157 61.047C50.0571 61.3131 50.729 61.444 51.3834 61.6185C51.715 61.684 52.0466 61.7232 52.3738 61.78C52.5396 61.8061 52.7011 61.828 52.8669 61.8541C53.0283 61.876 53.1941 61.8759 53.3599 61.8847C53.6871 61.9021 54.01 61.9152 54.3328 61.9327C54.6557 61.937 54.9742 61.9065 55.2927 61.8934C55.9297 61.889 56.5449 61.7625 57.1557 61.6753C57.4612 61.6447 57.7535 61.54 58.0458 61.4702C58.3381 61.3917 58.6305 61.3306 58.9141 61.2346C59.1933 61.1342 59.4682 61.0295 59.743 60.9292C59.8783 60.8768 60.0136 60.8288 60.1488 60.7808C60.2797 60.7197 60.4062 60.6587 60.5371 60.5932C60.7945 60.471 61.0476 60.3445 61.3007 60.2224C61.5537 60.1045 61.7806 59.9387 62.0162 59.8035C62.2474 59.6595 62.483 59.5243 62.7056 59.3759C62.9193 59.2145 63.1331 59.0574 63.3382 58.9003C65.0005 57.6307 66.2178 56.1385 67.0599 54.7118C67.8932 53.2807 68.4168 51.9282 68.6655 50.7894C68.7309 50.5058 68.8226 50.244 68.8487 49.9866C68.888 49.7292 68.9229 49.4936 68.9535 49.2711C68.984 49.0486 69.0189 48.8435 69.0364 48.6559C69.0451 48.4683 69.0538 48.2937 69.0582 48.141C69.0713 47.84 69.08 47.6044 69.0844 47.443C69.0887 47.3077 69.0844 47.2248 69.0844 47.2248C69.0844 47.2248 69.0756 47.3033 69.0625 47.4604C69.0538 47.6218 69.0364 47.8531 69.0189 48.1541C69.0102 48.3068 69.0015 48.477 68.9884 48.6646C68.9709 48.8522 68.9273 49.0573 68.8967 49.2754C68.8618 49.498 68.8226 49.7336 68.7833 49.9866C68.7528 50.244 68.6568 50.5015 68.5913 50.7851C68.3339 51.9151 67.806 53.2545 66.9683 54.6725C66.1262 56.0862 64.9133 57.5609 63.2553 58.8131C63.0459 58.9658 62.8365 59.1229 62.6227 59.2843C62.4001 59.4283 62.1689 59.5635 61.9377 59.7031C61.7021 59.8384 61.4795 59.9998 61.2265 60.1133C60.9778 60.2311 60.7247 60.3532 60.4673 60.4754C60.3408 60.5365 60.2099 60.5976 60.0834 60.6587C59.9481 60.7066 59.8129 60.7546 59.6776 60.807C59.4071 60.9073 59.1322 61.0033 58.8573 61.1081C58.5781 61.1997 58.2858 61.2608 57.9978 61.3393C57.7055 61.4047 57.4175 61.5095 57.1165 61.54C56.5144 61.6273 55.9036 61.7494 55.2753 61.7538C54.9611 61.7625 54.6426 61.7974 54.3241 61.7887C54.0056 61.7712 53.6828 61.7538 53.3599 61.7407C53.1985 61.7276 53.0327 61.732 52.8712 61.7102C52.7098 61.684 52.5484 61.6622 52.3869 61.636C52.0641 61.5836 51.7325 61.5444 51.4052 61.4789C50.7639 61.3044 50.0963 61.1735 49.4637 60.9074C48.8092 60.6979 48.194 60.3751 47.5614 60.074C47.2516 59.9082 46.9593 59.7119 46.6539 59.533C46.5055 59.437 46.3441 59.3541 46.2045 59.2494L45.7769 58.9265C45.1835 58.5208 44.6687 58.0103 44.1233 57.5216C43.879 57.2511 43.6303 56.9806 43.3816 56.7057L43.194 56.5007L43.0282 56.2781L42.6966 55.8331L42.3606 55.3837L42.0683 54.9038L41.776 54.4195L41.6276 54.1795L41.5055 53.9265C41.3397 53.5861 41.1782 53.2415 41.0124 52.9011C40.8815 52.5434 40.7507 52.1812 40.6154 51.8235C40.1398 50.3618 39.8868 48.8086 39.8649 47.2248C39.8868 45.6454 40.1398 44.0921 40.6154 42.6305C40.7463 42.2684 40.8815 41.9106 41.0124 41.5528C41.1782 41.2081 41.344 40.8678 41.5055 40.5275L41.632 40.2744L41.7803 40.0345L42.0727 39.5502L42.365 39.0702L42.7009 38.6208L43.0325 38.1758L43.1983 37.9533L43.3859 37.7482C43.6346 37.4734 43.879 37.2029 44.1277 36.9323C44.6687 36.4437 45.1879 35.9332 45.7813 35.5274L46.2088 35.2046C46.3528 35.0955 46.5099 35.017 46.6582 34.921C46.9636 34.7421 47.256 34.5458 47.5657 34.38C48.1984 34.0789 48.8136 33.756 49.468 33.5466C50.1007 33.2805 50.7682 33.1496 51.4096 32.9751C51.7368 32.9096 52.0641 32.8703 52.3913 32.818C52.5527 32.7918 52.7142 32.77 52.8756 32.7438C53.037 32.722 53.2028 32.722 53.3643 32.7133C53.6871 32.6958 54.01 32.6784 54.3285 32.6653C54.647 32.6609 54.9655 32.6915 55.2796 32.7002C55.9123 32.7045 56.5187 32.8267 57.1208 32.914C57.4263 32.9445 57.7099 33.0492 58.0022 33.1147C58.2901 33.1932 58.5825 33.2543 58.8617 33.3459C59.1366 33.4463 59.4115 33.5466 59.682 33.647C59.8172 33.695 59.9525 33.7473 60.0877 33.7953C60.2186 33.8564 60.3451 33.9175 60.4717 33.9786C60.7247 34.1007 60.9778 34.2229 61.2309 34.3407C61.4839 34.4541 61.7064 34.6199 61.942 34.7508C62.1733 34.8948 62.4045 35.0257 62.627 35.1697C62.8408 35.3267 63.0502 35.4838 63.2597 35.6409C64.9133 36.8931 66.1306 38.3678 66.9726 39.7814C67.806 41.1994 68.3383 42.5389 68.5957 43.6689C68.6611 43.9525 68.7571 44.2099 68.7877 44.4673C68.8269 44.7204 68.8662 44.9604 68.9011 45.1785C68.936 45.401 68.9753 45.6017 68.9927 45.7894C69.0058 45.977 69.0145 46.1471 69.0233 46.2998C69.0407 46.6009 69.0582 46.8321 69.0669 46.9936C69.0756 47.1463 69.0844 47.2248 69.0844 47.2248Z" fill="#263238"/>
<path d="M74.6544 56.4345C74.6544 57.7521 73.5898 58.8167 72.2721 58.8167C70.9545 58.8167 69.8899 57.7521 69.8899 56.4345C69.8899 55.1168 70.9545 54.0522 72.2721 54.0522C73.5898 54.0522 74.6544 55.1212 74.6544 56.4345Z" fill="white"/>
<path d="M74.653 56.4347C74.6573 56.4347 74.6617 56.3823 74.6617 56.282C74.666 56.1816 74.653 56.0333 74.6093 55.8457C74.5308 55.4748 74.2995 54.9251 73.7454 54.4931C73.4706 54.2837 73.1215 54.1004 72.7201 54.0263C72.3187 53.9521 71.865 53.9608 71.4287 54.1223C70.9923 54.275 70.5779 54.5673 70.2812 54.9774C69.9758 55.3788 69.8012 55.9024 69.7969 56.4347C69.8012 56.9713 69.9758 57.4905 70.2812 57.8963C70.5779 58.3064 70.9967 58.5988 71.4287 58.7515C71.865 58.9129 72.3187 58.9216 72.7201 58.8474C73.1259 58.7733 73.4749 58.59 73.7454 58.3806C74.2995 57.9487 74.5308 57.3945 74.6093 57.028C74.653 56.8404 74.6617 56.6921 74.6617 56.5917C74.6617 56.487 74.6617 56.4347 74.653 56.4347C74.6355 56.4347 74.6442 56.6485 74.5439 57.0062C74.4479 57.3596 74.2079 57.8788 73.6713 58.2759C73.4051 58.4722 73.0735 58.6337 72.6939 58.6991C72.3144 58.7602 71.8868 58.7471 71.4854 58.59C71.0796 58.4417 70.6957 58.1668 70.4208 57.7872C70.1372 57.412 69.9801 56.9277 69.9758 56.4303C69.9801 55.9329 70.1372 55.4486 70.4208 55.0734C70.6957 54.6938 71.0796 54.4146 71.4854 54.2706C71.8911 54.1135 72.3187 54.1004 72.6939 54.1615C73.0735 54.227 73.4051 54.3928 73.6713 54.5847C74.2036 54.9818 74.4479 55.501 74.5439 55.8544C74.6442 56.2209 74.6355 56.4347 74.653 56.4347Z" fill="#263238"/>
<path d="M49.616 48.3796V50.3691H48.0453V48.3534L45.9292 44.8149H47.5872L48.9048 47.0183L50.2224 44.8149H51.7452L49.616 48.3796Z" fill="#263238"/>
<path d="M56.5663 49.1601V50.373H52.1116V44.8232H56.4659V46.0362H53.6648V46.9699H56.13V48.1435H53.6648V49.1601H56.5663Z" fill="#263238"/>
<path d="M57.0465 49.8715L57.5614 48.7153C58.0544 49.0425 58.7525 49.2606 59.3938 49.2606C60.0439 49.2606 60.297 49.0774 60.297 48.8069C60.297 47.9255 57.1425 48.5669 57.1425 46.5075C57.1425 45.5171 57.9497 44.71 59.5989 44.71C60.3188 44.71 61.0649 44.8758 61.6146 45.1943L61.1303 46.3592C60.598 46.0756 60.0745 45.9316 59.5902 45.9316C58.9314 45.9316 58.6957 46.1541 58.6957 46.4334C58.6957 47.2798 61.8415 46.6472 61.8415 48.6934C61.8415 49.662 61.0343 50.4867 59.3851 50.4867C58.4732 50.4823 57.5701 50.238 57.0465 49.8715Z" fill="#263238"/>
<path d="M150.27 72.0544C158.889 70.9587 164.989 63.0828 163.893 54.4631C162.797 45.8435 154.922 39.7441 146.302 40.8398C137.682 41.9355 131.583 49.8114 132.679 58.4311C133.774 67.0507 141.65 73.1501 150.27 72.0544Z" fill="white"/>
<path d="M132.557 56.4424C132.557 56.4424 132.557 56.3552 132.562 56.1894C132.57 56.0149 132.579 55.7662 132.592 55.4389C132.601 55.2731 132.605 55.0899 132.614 54.8848C132.631 54.6841 132.671 54.4616 132.706 54.226C132.74 53.986 132.78 53.7286 132.819 53.4537C132.85 53.1789 132.95 52.8953 133.015 52.5899C133.282 51.3638 133.844 49.9153 134.739 48.3795C135.642 46.8481 136.946 45.2468 138.735 43.8812C138.958 43.711 139.189 43.5409 139.416 43.3707C139.656 43.2136 139.909 43.0653 140.158 42.9126C140.411 42.7686 140.655 42.5897 140.926 42.4632C141.196 42.3323 141.471 42.2014 141.746 42.0662C141.885 42.0007 142.025 41.9353 142.165 41.8655C142.309 41.8131 142.457 41.7564 142.601 41.704C142.893 41.595 143.19 41.4859 143.491 41.3768C143.792 41.2764 144.111 41.211 144.42 41.1237C144.735 41.0496 145.049 40.9405 145.376 40.9056C146.03 40.8096 146.689 40.6743 147.374 40.67C147.715 40.6569 148.059 40.622 148.404 40.6264C148.749 40.6438 149.098 40.6613 149.451 40.6787C149.626 40.6918 149.804 40.6874 149.979 40.7136C150.153 40.7398 150.328 40.766 150.507 40.7921C150.86 40.8489 151.218 40.8925 151.571 40.9623C152.27 41.1499 152.994 41.2895 153.683 41.5775C154.394 41.8044 155.062 42.1534 155.747 42.4807C156.083 42.6595 156.401 42.8733 156.733 43.0697C156.894 43.1744 157.069 43.2616 157.222 43.3794L157.688 43.7285C158.334 44.1692 158.897 44.7189 159.486 45.2512C159.752 45.5435 160.023 45.8402 160.293 46.1369L160.494 46.3594L160.677 46.5994L161.039 47.0837L161.401 47.5723L161.72 48.0915L162.038 48.6151L162.2 48.8769L162.335 49.1518C162.514 49.5226 162.693 49.8935 162.872 50.2687C163.016 50.657 163.16 51.0497 163.304 51.4424C163.819 53.0305 164.098 54.719 164.12 56.4337C164.098 58.1528 163.819 59.8413 163.304 61.4294C163.16 61.8221 163.016 62.2104 162.872 62.6031C162.693 62.9783 162.514 63.3492 162.335 63.72L162.2 63.9949L162.038 64.2567L161.72 64.7802L161.401 65.2994L161.039 65.7881L160.677 66.2724L160.494 66.5124L160.293 66.7349C160.023 67.0316 159.757 67.3283 159.486 67.6206C158.897 68.1529 158.334 68.7026 157.688 69.1433L157.222 69.4923C157.069 69.6102 156.894 69.6974 156.733 69.8021C156.401 69.9985 156.083 70.2079 155.747 70.3911C155.062 70.7184 154.39 71.0674 153.683 71.2943C152.994 71.5823 152.27 71.7219 151.571 71.9095C151.218 71.9837 150.86 72.0229 150.507 72.0796C150.332 72.1058 150.153 72.132 149.979 72.1582C149.804 72.18 149.626 72.18 149.451 72.1931C149.098 72.2105 148.749 72.228 148.404 72.2454C148.059 72.2498 147.715 72.2149 147.374 72.2018C146.689 72.1974 146.03 72.0622 145.376 71.9662C145.044 71.9313 144.735 71.8179 144.42 71.7481C144.106 71.6608 143.792 71.5953 143.491 71.495C143.19 71.3859 142.898 71.2768 142.601 71.1678C142.453 71.1154 142.309 71.0587 142.165 71.0063C142.025 70.9409 141.885 70.8711 141.746 70.8056C141.471 70.6704 141.196 70.5395 140.926 70.4086C140.651 70.2821 140.411 70.1075 140.158 69.9592C139.909 69.8021 139.656 69.6581 139.416 69.5011C139.185 69.3266 138.958 69.1564 138.735 68.9906C136.951 67.6293 135.642 66.0237 134.739 64.4923C133.844 62.9521 133.286 61.5036 133.015 60.2819C132.946 59.9765 132.85 59.6973 132.819 59.418C132.78 59.1432 132.74 58.8858 132.706 58.6458C132.675 58.4058 132.631 58.1877 132.614 57.987C132.605 57.7863 132.597 57.5986 132.592 57.4329C132.579 57.11 132.57 56.8569 132.562 56.6824C132.557 56.5297 132.557 56.4424 132.557 56.4424C132.557 56.4424 132.566 56.5297 132.579 56.6955C132.592 56.87 132.605 57.1187 132.627 57.4416C132.636 57.6074 132.649 57.7906 132.658 57.9913C132.679 58.192 132.723 58.4102 132.758 58.6501C132.797 58.8857 132.836 59.1432 132.88 59.4137C132.911 59.6886 133.015 59.9678 133.085 60.2732C133.36 61.4905 133.932 62.9259 134.826 64.4487C135.729 65.967 137.034 67.5508 138.81 68.8946C139.032 69.0604 139.259 69.2306 139.486 69.4007C139.726 69.5578 139.974 69.7018 140.223 69.8545C140.476 69.9985 140.716 70.173 140.987 70.2952C141.253 70.4217 141.528 70.5526 141.798 70.6835C141.933 70.7489 142.073 70.8144 142.213 70.8798C142.357 70.9322 142.501 70.9845 142.649 71.0369C142.941 71.1416 143.234 71.2507 143.53 71.3597C143.831 71.4601 144.141 71.5212 144.451 71.6084C144.765 71.6782 145.07 71.7917 145.398 71.8222C146.043 71.9138 146.698 72.0491 147.379 72.0535C147.715 72.0666 148.055 72.0971 148.4 72.0927C148.744 72.0753 149.089 72.0578 149.434 72.0404C149.608 72.0273 149.783 72.0273 149.957 72.0055C150.132 71.9793 150.306 71.9531 150.481 71.9269C150.83 71.8702 151.183 71.8266 151.532 71.7568C152.222 71.5692 152.937 71.4295 153.618 71.1459C154.32 70.9234 154.979 70.5744 155.66 70.2472C155.991 70.0683 156.305 69.8588 156.633 69.6669C156.794 69.5622 156.964 69.4749 157.117 69.3615L157.579 69.0168C158.216 68.5805 158.771 68.0351 159.355 67.5072C159.617 67.2148 159.883 66.9225 160.149 66.6302L160.35 66.412L160.529 66.1721L160.887 65.6921L161.244 65.2122L161.559 64.6973L161.873 64.1781L162.03 63.9164L162.165 63.6415C162.339 63.275 162.518 62.9085 162.697 62.5376C162.837 62.1537 162.981 61.7654 163.12 61.3771C163.631 59.8064 163.906 58.1397 163.928 56.4424C163.906 54.7452 163.631 53.0785 163.12 51.5078C162.977 51.1195 162.837 50.7356 162.697 50.3516C162.518 49.9808 162.344 49.6143 162.165 49.2478L162.03 48.9729L161.873 48.7111L161.559 48.1919L161.244 47.6771L160.887 47.1971L160.529 46.7172L160.35 46.4772L160.149 46.2591C159.883 45.9667 159.617 45.6744 159.355 45.3821C158.775 44.8585 158.216 44.3088 157.579 43.8725L157.117 43.5278C156.964 43.4143 156.794 43.3227 156.633 43.2224C156.305 43.0304 155.987 42.821 155.66 42.6421C154.983 42.3149 154.32 41.9702 153.618 41.7433C152.937 41.4597 152.222 41.3201 151.532 41.1325C151.183 41.0583 150.83 41.019 150.481 40.9623C150.306 40.9361 150.132 40.91 149.957 40.8838C149.783 40.862 149.608 40.862 149.434 40.8489C149.085 40.8314 148.74 40.814 148.4 40.7965C148.055 40.7922 147.719 40.8227 147.379 40.8358C146.702 40.8401 146.048 40.971 145.398 41.0627C145.07 41.0976 144.765 41.2066 144.451 41.2764C144.141 41.3593 143.827 41.4248 143.53 41.5251C143.234 41.6342 142.941 41.7389 142.649 41.848C142.505 41.9004 142.357 41.9527 142.213 42.0051C142.073 42.0705 141.938 42.136 141.798 42.2014C141.523 42.3323 141.253 42.4632 140.987 42.5897C140.716 42.7119 140.476 42.8864 140.223 43.0304C139.974 43.1831 139.726 43.3271 139.486 43.4798C139.259 43.65 139.032 43.8201 138.81 43.9859C137.034 45.3297 135.729 46.9135 134.826 48.4319C133.927 49.9546 133.36 51.39 133.085 52.6073C133.015 52.9127 132.911 53.192 132.88 53.4668C132.836 53.7417 132.797 53.9948 132.758 54.2347C132.723 54.4703 132.679 54.6885 132.658 54.8936C132.645 55.0943 132.636 55.2775 132.627 55.4433C132.605 55.7662 132.592 56.0149 132.579 56.1894C132.57 56.3552 132.557 56.4424 132.557 56.4424Z" fill="#263238"/>
<path d="M126.575 66.3282C126.575 67.7419 127.719 68.885 129.132 68.885C130.546 68.885 131.689 67.7419 131.689 66.3282C131.689 64.9146 130.541 63.7715 129.132 63.7715C127.723 63.7715 126.575 64.9146 126.575 66.3282Z" fill="white"/>
<path d="M126.575 66.3276C126.567 66.3276 126.567 66.2708 126.567 66.1618C126.562 66.0527 126.575 65.8912 126.623 65.6905C126.706 65.2935 126.955 64.7045 127.548 64.2377C127.841 64.0108 128.216 63.8144 128.652 63.7359C129.084 63.6574 129.573 63.6661 130.04 63.8406C130.507 64.0064 130.956 64.3205 131.274 64.7569C131.602 65.1888 131.789 65.7473 131.794 66.3232C131.789 66.8991 131.602 67.4576 131.274 67.8895C130.956 68.3302 130.507 68.6443 130.04 68.8058C129.573 68.9803 129.084 68.989 128.652 68.9105C128.216 68.8276 127.845 68.6356 127.548 68.4087C126.955 67.9419 126.706 67.3529 126.623 66.9558C126.58 66.7551 126.567 66.5937 126.567 66.4846C126.567 66.3843 126.571 66.3276 126.575 66.3276C126.597 66.3276 126.589 66.5544 126.693 66.9428C126.798 67.3223 127.055 67.8808 127.627 68.3084C127.911 68.5178 128.268 68.6923 128.678 68.7621C129.084 68.8276 129.542 68.8145 129.979 68.6487C130.415 68.4916 130.829 68.1949 131.122 67.7848C131.423 67.3791 131.593 66.8642 131.602 66.3276C131.597 65.7909 131.427 65.2761 131.122 64.8703C130.829 64.4602 130.415 64.1635 129.979 64.0064C129.542 63.8406 129.084 63.8232 128.678 63.893C128.268 63.9628 127.915 64.1417 127.627 64.3467C127.055 64.7743 126.794 65.3328 126.693 65.7124C126.589 66.1007 126.597 66.3276 126.575 66.3276Z" fill="#263238"/>
<path d="M147.565 52.895V59.5443H146.016L143.08 56.0015V59.5443H141.239V52.895H142.788L145.724 56.4378V52.895H147.565Z" fill="#263238"/>
<path d="M148.555 56.2197C148.555 54.2258 150.122 52.7598 152.251 52.7598C154.38 52.7598 155.946 54.2214 155.946 56.2197C155.946 58.2136 154.38 59.6796 152.251 59.6796C150.122 59.6796 148.555 58.2136 148.555 56.2197ZM154.049 56.2197C154.049 55.0722 153.259 54.3217 152.251 54.3217C151.243 54.3217 150.453 55.0722 150.453 56.2197C150.453 57.3672 151.243 58.1176 152.251 58.1176C153.259 58.122 154.049 57.3715 154.049 56.2197Z" fill="#263238"/>
<path d="M125.221 34.2399C132.199 31.4938 135.625 23.6003 132.873 16.6091C130.122 9.61803 122.235 6.17674 115.257 8.92282C108.28 11.6689 104.854 19.5624 107.605 26.5536C110.356 33.5447 118.243 36.986 125.221 34.2399Z" fill="white"/>
<path d="M114.827 34.0462C114.827 34.0462 114.897 34.0767 115.032 34.1334C115.172 34.1901 115.372 34.2687 115.634 34.369C115.769 34.4214 115.918 34.4781 116.079 34.5392C116.245 34.5959 116.433 34.6395 116.633 34.6963C116.834 34.7486 117.052 34.8097 117.283 34.8708C117.515 34.9406 117.772 34.9624 118.034 35.0104C119.094 35.2198 120.438 35.2722 121.965 35.0933C123.488 34.9057 125.207 34.4214 126.904 33.4746C127.113 33.3568 127.327 33.2346 127.545 33.1125C127.755 32.9772 127.955 32.8289 128.165 32.6849C128.37 32.5322 128.592 32.4013 128.784 32.2311C128.981 32.061 129.177 31.8908 129.378 31.7207C129.531 31.5767 129.775 31.3411 129.928 31.1971C129.936 31.1884 129.949 31.1753 129.958 31.1666C130.146 30.9702 130.333 30.7739 130.521 30.5732C130.704 30.3681 130.866 30.1412 131.04 29.9231C131.206 29.6962 131.402 29.4911 131.542 29.2424C131.843 28.7581 132.175 28.2826 132.419 27.7415C132.545 27.4754 132.689 27.2136 132.807 26.9387C132.951 26.5548 133.095 26.1708 133.243 25.7782C133.257 25.7389 133.27 25.6996 133.283 25.6604C133.322 25.512 133.361 25.3637 133.401 25.2153C133.475 24.9186 133.566 24.6176 133.632 24.3122C133.723 23.6926 133.859 23.0731 133.872 22.4273C133.937 21.786 133.889 21.1359 133.867 20.4814C133.841 20.1542 133.785 19.827 133.741 19.4997C133.715 19.3339 133.706 19.1681 133.667 19.0067L133.553 18.518C133.449 17.9857 133.274 17.4753 133.095 16.9561C132.995 16.703 132.894 16.4456 132.794 16.1925L132.432 15.3897L132.305 15.1629L132.048 14.7091L131.786 14.251L131.485 13.819L131.18 13.3871L131.027 13.1689L130.853 12.9682C130.473 12.5668 129.853 11.9124 129.474 11.511C129.439 11.4804 129.404 11.4455 129.373 11.415C128.291 10.4595 127.052 9.65667 125.7 9.05021C124.33 8.47865 122.899 8.11651 121.459 7.97689C121.415 7.97253 121.376 7.97253 121.332 7.96817C120.778 7.96381 119.871 7.95944 119.312 7.95508L119.046 7.96817L118.784 8.00307L118.261 8.07724L117.737 8.15142L117.227 8.27358L116.716 8.39575L116.463 8.45683L115.63 8.74043C115.377 8.84078 115.119 8.94113 114.866 9.04148C114.365 9.264 113.872 9.48651 113.413 9.77447L112.977 10.0232C112.833 10.1061 112.702 10.2108 112.563 10.3068C112.292 10.5031 112.017 10.682 111.76 10.8871C111.262 11.319 110.756 11.7291 110.333 12.2134C109.871 12.6585 109.508 13.1864 109.12 13.675C108.941 13.9325 108.784 14.1986 108.618 14.4604C108.535 14.5913 108.453 14.7222 108.374 14.8531C108.352 14.888 108.33 14.9229 108.313 14.9622C108.13 15.3374 107.946 15.7082 107.763 16.0747C107.641 16.3496 107.549 16.6332 107.44 16.9081C107.209 17.4535 107.091 18.025 106.939 18.5748C106.851 18.8496 106.834 19.1332 106.782 19.4081C106.742 19.6873 106.686 19.9579 106.659 20.2327C106.642 20.5076 106.629 20.7825 106.611 21.0573C106.607 21.2755 106.607 21.6289 106.603 21.8471V21.8514C106.611 22.1176 106.624 22.3794 106.633 22.6368C106.638 22.8986 106.694 23.1472 106.725 23.4003C106.76 23.6534 106.79 23.9021 106.834 24.1464C106.891 24.3864 106.947 24.6263 107.004 24.8619C107.471 26.7468 108.291 28.3349 109.194 29.574C110.106 30.8131 111.062 31.7556 111.939 32.3882C112.157 32.5453 112.344 32.7242 112.554 32.842C112.759 32.9685 112.947 33.0863 113.125 33.1954C113.304 33.3044 113.461 33.4092 113.618 33.4964C113.776 33.575 113.92 33.6404 114.046 33.7059C114.299 33.828 114.495 33.9196 114.631 33.9851C114.757 34.0156 114.827 34.0462 114.827 34.0462C114.827 34.0462 114.762 34.0069 114.635 33.9415C114.5 33.8716 114.308 33.7757 114.059 33.6491C113.933 33.5837 113.789 33.5139 113.636 33.4353C113.483 33.3481 113.326 33.239 113.147 33.1299C112.973 33.0165 112.785 32.8987 112.58 32.7722C112.375 32.65 112.187 32.4755 111.969 32.314C111.101 31.677 110.159 30.7302 109.26 29.4999C108.37 28.2608 107.563 26.6813 107.109 24.8139C107.052 24.5783 107 24.3427 106.943 24.1028C106.899 23.8584 106.873 23.6141 106.838 23.3654C106.812 23.1167 106.755 22.8636 106.751 22.6062C106.742 22.3488 106.734 22.0914 106.72 21.8296C106.725 21.6202 106.725 21.2799 106.729 21.0748C106.729 21.0617 106.729 21.0486 106.734 21.0355C106.751 20.7694 106.764 20.4989 106.782 20.2284C106.808 19.9579 106.864 19.6873 106.904 19.4125C106.956 19.142 106.974 18.8584 107.061 18.5879C107.209 18.0425 107.331 17.4796 107.558 16.9386C107.663 16.6681 107.755 16.3845 107.877 16.1184C108.056 15.7562 108.239 15.3854 108.422 15.0145C108.44 14.9796 108.457 14.9447 108.479 14.9098C108.562 14.7833 108.64 14.6524 108.723 14.5215C108.889 14.2641 109.042 13.9979 109.22 13.7449C109.609 13.2606 109.962 12.7414 110.425 12.3007C110.844 11.8207 111.345 11.4193 111.838 10.9918C112.096 10.7911 112.366 10.6122 112.637 10.4202C112.772 10.3286 112.903 10.2239 113.047 10.141L113.479 9.89664C114.042 9.54323 114.666 9.29017 115.285 9.01094C115.608 8.90186 115.931 8.79279 116.254 8.68371L116.498 8.60081L116.747 8.53973L117.249 8.42193L117.755 8.30412L118.269 8.22995L118.789 8.16014L119.05 8.12524L119.312 8.11215C119.866 8.11651 120.765 8.12087 121.319 8.12524C121.359 8.1296 121.393 8.1296 121.433 8.13396C122.851 8.26922 124.269 8.62699 125.621 9.19419C126.956 9.79629 128.187 10.586 129.251 11.5328C129.282 11.5633 129.312 11.5939 129.347 11.6244C129.723 12.0214 130.338 12.6715 130.717 13.0686L130.887 13.2693L131.04 13.4831L131.341 13.9107L131.642 14.3382L131.9 14.7876L132.157 15.237L132.284 15.4595L132.388 15.6951C132.528 16.0049 132.668 16.3191 132.807 16.6245C133.025 17.2658 133.265 17.8941 133.392 18.5486L133.505 19.0329C133.545 19.1943 133.553 19.3601 133.579 19.5215C133.619 19.8488 133.675 20.1716 133.706 20.4945C133.732 21.1446 133.78 21.786 133.715 22.4186C133.706 23.0556 133.571 23.6708 133.483 24.2816C133.422 24.5827 133.331 24.8794 133.257 25.1761C133.217 25.3244 133.178 25.4728 133.139 25.6167C133.13 25.656 133.117 25.6953 133.104 25.7302C132.96 26.1185 132.816 26.5024 132.672 26.882C132.558 27.1569 132.415 27.4143 132.288 27.6761C132.052 28.2128 131.721 28.684 131.424 29.1639C131.284 29.4126 131.093 29.6177 130.927 29.8402C130.752 30.0583 130.595 30.2808 130.412 30.4859C130.224 30.6822 130.037 30.8786 129.853 31.0749C129.762 31.1709 129.67 31.2669 129.579 31.3629C129.57 31.3716 129.561 31.3803 129.552 31.3891C129.26 31.6421 128.976 31.8908 128.693 32.1351C128.501 32.3097 128.283 32.4362 128.082 32.5889C127.877 32.7329 127.676 32.8812 127.471 33.0165C127.257 33.1387 127.048 33.2608 126.839 33.3786C125.163 34.3254 123.457 34.8141 121.943 35.006C120.429 35.1937 119.094 35.15 118.034 34.9493C117.768 34.9013 117.515 34.8839 117.283 34.8184C117.052 34.7573 116.834 34.705 116.633 34.6526C116.433 34.6003 116.245 34.5566 116.079 34.5043C115.913 34.4432 115.765 34.3909 115.634 34.3385C115.372 34.2425 115.167 34.1683 115.028 34.1203C114.901 34.068 114.827 34.0462 114.827 34.0462Z" fill="#263238"/>
<path d="M109.408 39.9552C107.784 39.6411 107.056 37.7911 108.029 36.456C108.517 35.7841 109.381 35.4438 110.197 35.6009C111.82 35.915 112.549 37.7649 111.576 39.1C111.087 39.772 110.223 40.1123 109.408 39.9552Z" fill="white"/>
<path d="M108.919 39.8031C108.915 39.8075 108.958 39.8293 109.045 39.8686C109.128 39.9078 109.264 39.9515 109.438 39.9864C109.783 40.0562 110.337 40.0605 110.908 39.7508C111.188 39.598 111.471 39.3668 111.685 39.0527C111.894 38.7385 112.056 38.3458 112.078 37.9183C112.108 37.4907 112.012 37.0282 111.777 36.6268C111.545 36.2167 111.166 35.8807 110.712 35.6757C110.254 35.4793 109.748 35.4357 109.294 35.5448C108.836 35.6451 108.435 35.8938 108.142 36.2079C107.841 36.5177 107.667 36.9017 107.579 37.2725C107.497 37.6434 107.518 38.0099 107.601 38.3197C107.767 38.9479 108.151 39.3493 108.435 39.5544C108.579 39.6591 108.701 39.7246 108.788 39.7595C108.871 39.7944 108.919 39.8118 108.919 39.8031C108.928 39.7857 108.744 39.7158 108.469 39.4977C108.203 39.2839 107.85 38.8869 107.71 38.2891C107.641 37.9924 107.623 37.6478 107.71 37.2987C107.798 36.954 107.968 36.5963 108.247 36.3083C108.522 36.016 108.897 35.7935 109.325 35.6975C109.748 35.5971 110.219 35.6407 110.642 35.8196C111.066 36.0072 111.415 36.3214 111.633 36.701C111.855 37.0762 111.947 37.5038 111.925 37.9052C111.908 38.3066 111.764 38.6731 111.567 38.9741C111.371 39.2752 111.109 39.4977 110.847 39.6504C110.311 39.9558 109.783 39.9689 109.442 39.9209C109.107 39.8729 108.928 39.79 108.919 39.8031Z" fill="#263238"/>
<path d="M116.397 19.3004H118.452C118.452 19.3004 118.452 17.5727 120.245 17.5421C121.179 17.5247 121.659 18.1355 121.855 18.6023C122.082 19.1434 122.012 19.7629 121.707 20.269C121.358 20.845 120.594 21.3685 119.207 21.1242V25.7578H121.24V23.0439C121.24 23.0439 124.093 22.3066 124.093 19.1652C124.093 16.159 121.397 15.4609 120.245 15.4609C119.364 15.4609 116.358 15.6704 116.397 19.3004Z" fill="#263238"/>
<path d="M121.27 26.7119H119.207V28.6404H121.27V26.7119Z" fill="#263238"/>
<path d="M45.191 141.805C45.191 141.805 41.4649 138.306 40.0338 137.377C38.6027 136.447 35.3872 135.169 34.1873 135.055C32.9875 134.938 27.3722 136.565 27.3722 136.565C27.3722 136.565 19.0868 135.828 17.6906 136.796C16.2988 137.765 16.4122 138.773 16.9925 139.506C17.5728 140.243 19.8198 140.007 22.298 140.047C24.7762 140.086 25.435 140.317 25.435 140.317L21.8355 144.152L31.1681 146.748L36.8619 146.535L38.9125 149.118L45.191 141.805Z" fill="#FFBF9D"/>
<path d="M16.7789 133.144L17.0058 141.399L17.4072 142.424L21.4779 147.39L31.417 146.735L23.5024 143.65L20.6882 141.513L19.6018 137.983C19.5931 137.983 19.9334 132.542 16.7789 133.144Z" fill="#FFBF9D"/>
<path d="M17.4768 142.617H15.0553C15.0553 142.617 11.8964 137.425 9.0081 139.187L9.67129 140.213C9.67129 140.213 8.3711 139.624 7.54211 140.719L15.5091 147.708H15.8756L24.3617 147.163L17.4768 142.617Z" fill="#FFBF9D"/>
<path d="M18.9234 144.196C18.919 144.223 18.6659 144.209 18.2384 144.227C17.8151 144.253 17.1869 144.279 16.563 144.563L16.4801 144.598L16.4277 144.524C16.1834 144.179 15.878 143.804 15.5682 143.415C14.9224 142.621 14.3422 141.901 13.8491 141.295C13.4128 140.75 13.1423 140.409 13.1685 140.392C13.1903 140.37 13.5044 140.671 13.9713 141.19C14.4425 141.709 15.0708 142.442 15.7427 143.271C16.0568 143.664 16.3535 144.035 16.6022 144.406L16.467 144.366C17.1651 144.07 17.8021 144.083 18.234 144.092C18.6747 144.113 18.9234 144.17 18.9234 144.196Z" fill="#FF9A6C"/>
<path d="M36.1382 139.392C36.16 139.466 34.7988 139.741 33.3371 140.579C31.8711 141.408 30.9418 142.438 30.8851 142.381C30.8633 142.363 31.0727 142.084 31.4741 141.692C31.8755 141.299 32.4776 140.806 33.2237 140.383C33.9698 139.959 34.7028 139.693 35.2438 139.549C35.7848 139.401 36.1295 139.366 36.1382 139.392Z" fill="#FF9A6C"/>
<path d="M28.1986 137.255C28.2422 137.303 27.6925 137.892 27.0598 138.656C26.4228 139.415 25.9342 140.06 25.8818 140.021C25.8295 139.986 26.2396 139.279 26.8853 138.507C27.531 137.735 28.1593 137.211 28.1986 137.255Z" fill="#FF9A6C"/>
<path d="M19.8985 145.347C19.8941 145.352 19.8287 145.286 19.7065 145.16C19.5712 145.011 19.4054 144.824 19.196 144.588C18.9691 144.331 18.703 144.025 18.3976 143.676C18.2405 143.497 18.0747 143.305 17.9002 143.105C17.7257 142.904 17.5293 142.69 17.3635 142.433C17.0319 141.922 16.8007 141.263 16.7963 140.543C16.7832 139.841 16.7701 139.091 16.7527 138.301C16.7265 136.717 16.696 134.981 16.6698 133.148V133.048L16.7658 133.035C16.8487 133.022 16.9403 133.013 17.0276 133C17.6122 132.934 18.2405 133.139 18.6332 133.571C19.0302 133.99 19.2527 134.514 19.4011 135.02C19.689 136.05 19.737 137.057 19.6978 137.995L19.6934 137.961C20.0948 139.3 20.4569 140.491 20.758 141.495L20.7318 141.455C21.587 142.123 22.2763 142.664 22.7781 143.052C23.0006 143.231 23.1795 143.375 23.3191 143.489C23.4413 143.589 23.5023 143.646 23.498 143.65C23.4936 143.654 23.4238 143.611 23.2929 143.519C23.1446 143.414 22.957 143.279 22.7257 143.113C22.2152 142.734 21.5084 142.215 20.6358 141.569L20.6184 141.556L20.6096 141.53C20.2955 140.53 19.9203 139.344 19.4971 138.009L19.4927 137.991V137.969C19.5189 137.062 19.4665 136.054 19.1829 135.068C19.0389 134.579 18.8208 134.091 18.463 133.711C18.1096 133.331 17.5773 133.157 17.0407 133.209C16.9578 133.222 16.8749 133.231 16.8007 133.244L16.8923 133.131C16.9141 134.959 16.9359 136.695 16.9578 138.283C17.0232 139.85 16.7789 141.346 17.4944 142.337C17.6471 142.585 17.8347 142.79 18.0093 143C18.1794 143.205 18.3409 143.401 18.4936 143.585C18.7902 143.947 19.0477 144.256 19.2658 144.523C19.4622 144.767 19.6192 144.968 19.7458 145.12C19.8505 145.269 19.9072 145.343 19.8985 145.347Z" fill="#FF9A6C"/>
<path d="M15.8801 147.704C15.8845 147.717 15.71 147.726 15.4569 147.582C15.2038 147.447 14.881 147.189 14.5232 146.836C13.8033 146.129 12.9263 145.051 12.0275 143.817C11.1287 142.582 10.3652 141.426 9.82856 140.584C9.56241 140.16 9.34862 139.816 9.209 139.571C9.06939 139.327 8.99958 139.192 9.01266 139.183C9.02575 139.174 9.12174 139.296 9.28317 139.523C9.47079 139.794 9.69766 140.117 9.95945 140.492C10.5266 141.312 11.312 142.451 12.2108 143.681C13.1096 144.912 13.956 145.998 14.6366 146.722C14.977 147.085 15.2737 147.355 15.5005 147.503C15.7274 147.665 15.8801 147.687 15.8801 147.704Z" fill="#FF9A6C"/>
<path d="M30.3788 142.377L25.994 142.08L24.685 138.485L24.4451 136.068C24.3273 134.885 23.3412 133.956 22.1545 133.973C22.1414 133.973 22.1283 133.973 22.1108 133.973L22.3552 139.894L23.254 143.572L26.8186 145.675H31.1773L30.3788 142.377Z" fill="#FFBF9D"/>
<path d="M30.3783 142.377L25.9935 142.08L24.6846 138.485L24.4446 136.068C24.3268 134.885 23.3407 133.956 22.154 133.973C22.1409 133.973 22.1278 133.973 22.1104 133.973L22.3547 139.894L23.2535 143.572L26.8181 145.675" fill="#FFBF9D"/>
<path d="M26.8123 145.679C26.808 145.688 26.7207 145.644 26.5549 145.552C26.3717 145.448 26.1317 145.317 25.8394 145.155C25.198 144.785 24.3036 144.274 23.2084 143.646L23.1779 143.628L23.1692 143.593C22.903 142.538 22.5932 141.294 22.2486 139.92L22.2442 139.911V139.902C22.1657 138.122 22.0784 136.106 21.9868 133.982L21.9824 133.868L22.0959 133.864C22.1351 133.864 22.1788 133.864 22.2224 133.864C23.3262 133.872 24.2643 134.732 24.4825 135.714C24.5435 135.962 24.5566 136.207 24.5784 136.438C24.6003 136.674 24.6221 136.905 24.6482 137.136C24.6919 137.594 24.7355 138.044 24.7791 138.476L24.7748 138.449C25.2547 139.789 25.691 140.997 26.0662 142.049L25.9964 141.997C27.3272 142.101 28.4179 142.188 29.2033 142.25C29.5611 142.284 29.849 142.311 30.0759 142.332C30.2766 142.354 30.3769 142.367 30.3769 142.376C30.3769 142.385 30.2722 142.385 30.0715 142.38C29.849 142.372 29.5567 142.359 29.1989 142.346C28.4136 142.302 27.3228 142.241 25.9877 142.167L25.9354 142.162L25.9179 142.11C25.5296 141.063 25.0802 139.859 24.5872 138.524L24.5828 138.51V138.497C24.5392 138.061 24.4912 137.616 24.4432 137.158C24.4214 136.927 24.3952 136.695 24.3734 136.464C24.3472 136.229 24.3341 135.993 24.2774 135.77C24.0767 134.876 23.2215 134.099 22.2311 134.095C22.1918 134.095 22.1526 134.091 22.1133 134.095L22.2224 133.977C22.3053 136.106 22.3882 138.118 22.458 139.898L22.4536 139.876C22.7809 141.255 23.0819 142.503 23.335 143.558L23.2957 143.51C24.3734 144.165 25.2547 144.697 25.8874 145.081C26.1753 145.26 26.4022 145.404 26.5811 145.517C26.7382 145.613 26.8167 145.67 26.8123 145.679Z" fill="#FF9A6C"/>
<path d="M124.304 72.5116C120.543 58.1877 117.074 41.5164 96.1314 43.0173C96.1314 43.0173 83.2254 45.4999 77.0953 55.0245C73.4914 60.6266 70.3675 84.7805 69.7436 103.856C69.7436 103.86 69.7436 103.865 69.7436 103.865C69.7174 104.641 70.0403 110.056 70.0185 110.815L125.455 115.431H135.443C135.443 115.431 134.814 105.309 131.808 95.4962C128.885 85.9455 125.634 77.5815 124.304 72.5116Z" fill="#263238"/>
<path d="M93.3477 48.4754L94.6566 47.2275L108.815 52.9344C110.865 53.0479 112.484 54.7102 112.545 56.7608L112.419 102.896C112.436 106.024 111.808 108.734 109.923 111.229L107.933 113.856C103.4 119.842 94.072 119.349 90.4812 112.752C90.2281 112.289 90.058 111.888 89.9794 111.561C89.9053 111.151 89.7918 110.88 89.77 110.531C89.3468 106.818 89.325 103.603 89.325 103.603C89.0719 99.5275 88.989 97.8565 88.989 97.8914C88.989 97.8914 80.3153 96.8966 77.9723 85.7621C76.8074 80.2253 77.0255 72.6075 77.3527 65.1117C77.8109 54.732 85.0099 48.4623 93.3477 48.4754Z" fill="#FFBF9D"/>
<path d="M96.9919 72.5073C97.005 73.2708 97.6551 73.886 98.4535 73.8904C99.2476 73.8948 99.8846 73.2796 99.8715 72.5204C99.8584 71.7612 99.204 71.1417 98.4143 71.1373C97.6158 71.1286 96.9832 71.7438 96.9919 72.5073Z" fill="#263238"/>
<path d="M82.2085 72.891C82.2215 73.6546 82.8716 74.2698 83.6701 74.2741C84.4641 74.2785 85.1012 73.6633 85.0881 72.9041C85.075 72.1449 84.4205 71.5254 83.6308 71.521C82.8324 71.5167 82.1954 72.1318 82.2085 72.891Z" fill="#263238"/>
<path d="M78.8406 68.0701C79.0282 68.249 80.0797 67.3895 81.6286 67.3153C83.1731 67.2193 84.3512 67.961 84.5082 67.7603C84.5868 67.6731 84.3861 67.3415 83.8756 67.0055C83.3695 66.6696 82.523 66.3642 81.5588 66.4165C80.5946 66.4689 79.8005 66.8659 79.3511 67.2542C78.893 67.6425 78.749 67.9916 78.8406 68.0701Z" fill="#263238"/>
<path d="M94.1986 67.5414C94.4037 67.6985 95.3636 66.7342 96.895 66.503C98.4221 66.2499 99.6699 66.8651 99.8052 66.6513C99.875 66.5554 99.6437 66.2499 99.0984 65.9663C98.5617 65.6871 97.6847 65.4689 96.7336 65.6173C95.7781 65.77 95.032 66.2456 94.6262 66.6775C94.2117 67.1095 94.1027 67.4716 94.1986 67.5414Z" fill="#263238"/>
<path d="M89.1459 79.5011C89.1502 79.4138 88.1773 79.296 86.6066 79.1739C86.2095 79.152 85.8299 79.091 85.7514 78.8248C85.6423 78.5456 85.7863 78.1093 85.9565 77.6381C86.2793 76.6607 86.6196 75.6398 86.9731 74.5665C88.3823 70.199 89.3815 66.6126 89.2026 66.5603C89.0281 66.5035 87.741 70.0027 86.3317 74.3701C85.9957 75.4478 85.6685 76.4731 85.3631 77.4548C85.2366 77.9129 85.0053 78.4365 85.2366 79.0168C85.3587 79.3091 85.6598 79.5054 85.9172 79.5622C86.1746 79.6276 86.3971 79.6189 86.5935 79.6232C88.1685 79.632 89.1415 79.5927 89.1459 79.5011Z" fill="#263238"/>
<path d="M88.9928 97.8827C88.9928 97.8827 96.5671 97.9917 103.818 93.1226C103.818 93.1226 100.428 101.081 89.1455 100.592L88.9928 97.8827Z" fill="#FF9A6C"/>
<path d="M93.985 82.6514C93.5487 82.1235 92.8549 81.8355 92.1787 81.7962C91.2057 81.7395 90.5207 81.8617 89.9971 82.6296C89.7528 83.0528 89.7746 83.7029 89.8881 83.8818C90.0015 84.0606 89.9186 84.065 90.0888 84.1915C90.717 84.6453 91.4413 84.9376 92.1918 85.1121C92.9422 85.2867 93.8061 85.1078 94.1944 84.497C94.5434 83.9516 94.4213 83.1793 93.985 82.6514Z" fill="#FF9A6C"/>
<path d="M93.8282 60.4298C94.0289 60.8269 95.3596 60.4211 97.0001 60.3906C98.6363 60.3251 100.011 60.6524 100.168 60.2466C100.233 60.0546 99.9496 59.6969 99.3649 59.374C98.7846 59.0511 97.8989 58.7937 96.9172 58.8242C95.9355 58.8548 95.0804 59.1602 94.5394 59.518C93.9853 59.867 93.7409 60.2379 93.8282 60.4298Z" fill="#263238"/>
<path d="M79.0622 65.2686C79.3501 65.6045 80.4016 65.19 81.6844 65.1071C82.9627 64.9806 84.0666 65.2249 84.2978 64.8454C84.3982 64.6621 84.2106 64.3174 83.7175 64.0076C83.2332 63.6979 82.4392 63.4666 81.5578 63.5364C80.6765 63.6106 79.9304 63.964 79.5028 64.348C79.0622 64.7319 78.9313 65.1028 79.0622 65.2686Z" fill="#263238"/>
<path d="M112.267 76.4473C112.267 76.4473 106.307 77.8871 97.8471 59.6713C94.9675 53.4714 89.374 47.2235 89.374 47.2235L94.6228 46.4644C94.6228 46.4644 110.264 50.871 110.526 51.0674C110.788 51.2637 114.47 59.1565 114.47 59.1565L112.267 76.4473Z" fill="#263238"/>
<path d="M110.311 75.7179C110.272 74.8802 111.14 72.8645 111.956 72.6943C114.142 72.2406 118.125 72.2188 118.44 77.8122C118.872 85.4607 111.105 84.3175 111.079 84.0994C111.062 83.9292 110.451 78.6019 110.311 75.7179Z" fill="#FFBF9D"/>
<path d="M113.257 81.0678C113.287 81.0416 113.396 81.155 113.628 81.2423C113.855 81.3295 114.234 81.3775 114.627 81.2074C115.417 80.8671 116.027 79.5451 115.984 78.162C115.962 77.4639 115.779 76.8094 115.504 76.2771C115.238 75.7317 114.854 75.3609 114.444 75.3129C114.033 75.2431 113.759 75.5005 113.68 75.723C113.588 75.9412 113.645 76.0939 113.606 76.107C113.584 76.1288 113.436 75.9892 113.479 75.6707C113.501 75.518 113.58 75.3303 113.754 75.1733C113.929 75.0118 114.195 74.9202 114.478 74.9377C115.072 74.9464 115.63 75.4569 115.936 76.0459C116.272 76.6349 116.494 77.3679 116.52 78.1532C116.56 79.6978 115.853 81.1856 114.762 81.5651C114.234 81.7353 113.776 81.6001 113.532 81.4299C113.279 81.2554 113.231 81.0852 113.257 81.0678Z" fill="#FF9A6C"/>
<path d="M94.9701 82.9603C94.9483 83.1566 93.6394 83.1261 92.0905 83.4271C90.5372 83.7107 89.3287 84.2125 89.237 84.0379C89.1411 83.8852 90.2885 83.065 91.964 82.7552C93.6394 82.4367 95.005 82.7857 94.9701 82.9603Z" fill="#263238"/>
<path d="M154.744 142.233C154.744 142.233 161.149 136.744 163.007 136.6C164.861 136.452 169.748 137.36 169.748 137.36C169.748 137.36 172.833 137.386 174.364 137.194C176.672 136.906 178.252 137.146 179.177 137.429C179.639 137.569 180.215 138.721 178.858 139.502C178.282 139.833 172.68 140.213 172.68 140.213L186.694 144.218L184.875 145.719C184.635 145.92 184.334 146.033 184.02 146.042L163.841 146.758L162.916 149.013L154.744 142.233Z" fill="#FFBF9D"/>
<path d="M170.041 142.238H176.585C176.585 142.238 178.88 139.188 179.714 137.919C180.438 136.806 181.315 136.483 182.079 136.745C182.275 136.815 182.441 136.963 182.541 137.142C182.694 137.412 182.698 137.744 182.554 138.015L179.675 143.385L181.184 142.875C181.184 142.875 184.208 139.917 184.792 139.232C185.377 138.547 187.528 135.667 189.435 137.766L186.795 140.698L189.435 138.844C189.435 138.844 191.533 137.037 192.659 139.184L184.814 145.798" fill="#FFBF9D"/>
<path d="M163.227 139.528C163.222 139.519 163.314 139.488 163.488 139.436C163.663 139.388 163.916 139.288 164.265 139.257C164.95 139.139 165.997 139.161 167.206 139.563C167.808 139.768 168.445 140.051 169.095 140.431C169.418 140.623 169.745 140.828 170.077 141.059C170.238 141.177 170.404 141.295 170.574 141.413C170.731 141.526 170.927 141.674 171.058 141.744C172.716 141.875 174.61 141.984 176.595 142.124L176.503 142.163C177.114 141.434 177.721 140.645 178.305 139.816C178.532 139.493 178.75 139.17 178.964 138.847C179.174 138.524 179.374 138.188 179.61 137.878C179.841 137.569 180.09 137.272 180.382 137.023C180.526 136.897 180.688 136.783 180.858 136.696C181.037 136.613 181.211 136.53 181.46 136.565L181.421 136.561C181.765 136.526 182.162 136.565 182.455 136.809C182.747 137.063 182.825 137.446 182.799 137.787V137.804L182.791 137.822C181.543 140.056 180.461 142.002 179.619 143.511L179.623 143.494C179.431 144.139 178.916 144.515 178.467 144.715C178.004 144.916 177.572 144.955 177.232 144.977C176.892 144.995 176.626 144.977 176.451 144.968C176.272 144.96 176.181 144.947 176.181 144.942C176.181 144.934 176.272 144.929 176.451 144.929C176.63 144.925 176.892 144.925 177.228 144.899C177.564 144.868 177.982 144.816 178.419 144.611C178.842 144.41 179.322 144.039 179.479 143.454L179.483 143.446L179.488 143.437C180.312 141.919 181.381 139.964 182.603 137.713L182.59 137.752C182.612 137.473 182.537 137.145 182.315 136.962C182.097 136.779 181.765 136.735 181.442 136.77H181.434L181.403 136.766C181.29 136.748 181.102 136.805 180.958 136.884C180.805 136.967 180.661 137.063 180.526 137.185C180.256 137.42 180.016 137.704 179.793 138.005C179.361 138.611 178.96 139.296 178.497 139.938C177.908 140.771 177.302 141.565 176.678 142.298L176.643 142.342L176.586 142.337C174.588 142.189 172.729 142.076 171.019 141.927C170.77 141.81 170.644 141.683 170.469 141.561C170.303 141.439 170.142 141.321 169.981 141.203C169.658 140.972 169.335 140.762 169.016 140.57C168.379 140.191 167.755 139.899 167.171 139.689C165.993 139.275 164.967 139.235 164.287 139.323C163.942 139.34 163.685 139.427 163.51 139.462C163.323 139.515 163.231 139.532 163.227 139.528Z" fill="#FF9A6C"/>
<path d="M189.429 137.775C189.442 137.784 189.351 137.915 189.172 138.133C188.997 138.355 188.735 138.669 188.413 139.058C187.762 139.834 186.855 140.89 185.843 142.051C184.813 143.194 183.954 144.311 183.199 145C182.828 145.349 182.501 145.602 182.256 145.751C182.012 145.899 181.859 145.947 181.855 145.938C181.846 145.921 181.986 145.847 182.208 145.681C182.431 145.515 182.736 145.244 183.09 144.887C183.805 144.18 184.634 143.059 185.668 141.907C186.685 140.746 187.614 139.699 188.295 138.953C188.635 138.578 188.914 138.277 189.111 138.076C189.303 137.871 189.42 137.766 189.429 137.775Z" fill="#FF9A6C"/>
<path d="M185.841 138.079C185.863 138.101 185.558 138.459 185.047 139.013C184.537 139.571 183.817 140.331 183.014 141.155C182.355 141.836 181.74 142.455 181.251 142.94L181.234 142.957L181.216 142.961C180.243 143.267 179.606 143.433 179.593 143.38C179.593 143.367 179.742 143.31 180.012 143.206C180.344 143.084 180.723 142.944 181.155 142.787L181.12 142.809C181.592 142.303 182.194 141.67 182.852 140.994C183.655 140.165 184.393 139.423 184.934 138.895C185.475 138.376 185.819 138.057 185.841 138.079Z" fill="#FF9A6C"/>
<path d="M133.029 109.676C133.029 109.676 142.435 112.102 143.36 124.886C143.884 132.172 140.01 155.571 140.01 155.571L153.902 141.304L166.284 149.917C166.284 149.917 149.443 170.51 145.555 173.608C141.668 176.706 135.476 181.684 133.461 181.278C131.445 180.873 131.445 171.588 131.445 171.588V120.305L133.029 109.676Z" fill="#13B4CA"/>
<path d="M65.4016 111.243C65.4016 111.243 57.0333 113.996 57.3736 130.34C57.7139 146.689 57.4478 152.19 57.4478 152.19L44.904 138.918L34.485 150.41C34.485 150.41 46.1431 167.727 54.2976 176.144C61.9853 184.076 68.8179 177.186 71.0387 171.61C72.8363 167.095 74.2848 149.922 74.2848 149.922L65.4016 111.243Z" fill="#13B4CA"/>
<g opacity="0.3">
<path d="M133.76 139.127C134.515 134.345 134.715 129.131 132.534 124.738C127.172 137.997 127.411 153.215 129.331 167.26L133.581 179.411C136.26 171.27 133.712 162.596 133.773 154.088C133.808 149.258 133.005 143.913 133.76 139.127Z" fill="black"/>
</g>
<path d="M63.66 121.653C63.66 121.653 69.2535 159.28 70.3399 162.578C71.4219 165.872 71.4219 175.584 71.4219 175.584C71.4219 175.584 65.5492 186.514 65.1871 194.114L135.899 194.258L131.305 163.036C131.148 161.871 131.135 158.281 131.2 157.107C131.497 151.609 131.924 139.812 133.5 132.56C135.332 124.131 132.867 109.707 132.867 109.707L111.745 104.506C106.745 111.692 94.2713 111.788 89.3541 104.506L65.5143 111.247L63.66 121.653Z" fill="#13B4CA"/>
<path d="M132.695 161.541C132.682 161.532 132.76 161.414 132.904 161.205C133.053 160.995 133.275 160.703 133.554 160.349C134.122 159.643 134.929 158.665 135.98 157.749C137.036 156.833 138.149 156.205 138.973 155.825C139.388 155.637 139.733 155.502 139.972 155.419C140.212 155.336 140.348 155.297 140.352 155.31C140.4 155.397 138.21 156.104 136.124 157.915C135.086 158.814 134.27 159.765 133.672 160.445C133.088 161.135 132.721 161.562 132.695 161.541Z" fill="#263238"/>
<path d="M67.2135 160.741C67.1698 160.754 67.0084 159.977 66.4717 158.825C65.9438 157.682 64.9839 156.177 63.5136 154.929C62.0432 153.681 60.3983 152.974 59.1854 152.643C57.9638 152.302 57.1697 152.267 57.1784 152.224C57.1784 152.211 57.3791 152.206 57.7325 152.237C58.0903 152.263 58.6051 152.337 59.2291 152.49C60.4725 152.787 62.1567 153.48 63.6619 154.759C65.1672 156.033 66.127 157.586 66.6201 158.764C66.8731 159.353 67.0258 159.85 67.1131 160.2C67.2004 160.544 67.2265 160.741 67.2135 160.741Z" fill="#263238"/>
<path d="M67.6673 140.353C67.6586 140.366 67.5451 140.305 67.3488 140.178C67.1481 140.056 66.8732 139.864 66.5373 139.611C65.8654 139.109 64.9884 138.354 64.1071 137.429C63.2301 136.5 62.5145 135.597 62.0128 134.925C61.5154 134.257 61.2318 133.825 61.2536 133.808C61.2798 133.786 61.6114 134.183 62.1393 134.825C62.6716 135.466 63.4002 136.352 64.2729 137.268C65.1411 138.188 65.9963 138.952 66.6376 139.48C67.2746 140.017 67.6848 140.322 67.6673 140.353Z" fill="#263238"/>
<path d="M117.027 160.719C117.031 160.723 117.01 160.749 116.97 160.806C116.918 160.871 116.857 160.95 116.783 161.046C116.613 161.251 116.381 161.574 116.037 161.949C115.378 162.721 114.352 163.782 112.974 164.973C111.599 166.168 109.854 167.46 107.812 168.729C105.775 170.003 103.436 171.251 100.94 172.451C98.436 173.646 96.0189 174.707 93.833 175.688C91.6427 176.67 89.6837 177.578 88.065 178.394C86.442 179.205 85.1549 179.907 84.2735 180.414C83.8285 180.658 83.4969 180.867 83.2613 180.998C83.1566 181.059 83.0693 181.107 82.9952 181.147C82.9341 181.177 82.9035 181.195 82.8992 181.19C82.8992 181.186 82.9253 181.164 82.9821 181.125C83.0519 181.081 83.1348 181.024 83.2351 180.955C83.462 180.811 83.7892 180.592 84.2255 180.331C85.0938 179.798 86.3722 179.074 87.9865 178.241C89.6008 177.407 91.5555 176.482 93.7414 175.488C95.9273 174.493 98.34 173.428 100.84 172.237C103.336 171.042 105.666 169.803 107.703 168.546C109.741 167.29 111.49 166.016 112.869 164.842C114.252 163.673 115.291 162.63 115.967 161.879C116.32 161.513 116.56 161.203 116.743 161.007C116.826 160.915 116.892 160.841 116.948 160.78C117.001 160.741 117.027 160.719 117.027 160.719Z" fill="#263238"/>
<path d="M65.3481 193.52C65.3438 193.52 65.3438 193.49 65.3481 193.429C65.3525 193.359 65.3568 193.267 65.3612 193.154C65.3787 192.901 65.4005 192.547 65.4267 192.089C65.5532 191.169 65.7452 189.812 66.2251 188.158C67.137 184.838 68.9346 180.261 71.6702 175.178L71.6571 175.235C71.3779 171.142 70.9503 166.57 70.4616 161.757C69.5279 152.678 68.5506 144.471 67.8351 138.533C67.4773 135.575 67.185 133.175 66.9799 131.499C66.8839 130.679 66.8054 130.038 66.753 129.588C66.7312 129.379 66.7138 129.213 66.7007 129.091C66.6876 128.978 66.6876 128.921 66.6919 128.921C66.6963 128.921 66.7094 128.978 66.7268 129.087C66.7443 129.209 66.7705 129.375 66.8054 129.58C66.8708 130.029 66.9581 130.67 67.0759 131.486C67.294 133.157 67.6125 135.553 68.0009 138.511C68.7557 144.445 69.7592 152.652 70.6929 161.735C71.1815 166.548 71.6004 171.12 71.8665 175.222V175.252L71.8534 175.278C69.1134 180.335 67.294 184.89 66.3473 188.189C65.8542 189.834 65.6404 191.182 65.4965 192.098C65.4528 192.552 65.4223 192.905 65.3961 193.154C65.383 193.267 65.3743 193.355 65.3656 193.424C65.3568 193.49 65.3525 193.52 65.3481 193.52Z" fill="#263238"/>
<path d="M134.369 122.529C134.373 122.529 134.377 122.59 134.377 122.717C134.377 122.852 134.377 123.031 134.377 123.262C134.373 123.742 134.386 124.453 134.338 125.365C134.286 127.193 134.098 129.833 133.775 133.088C133.457 136.343 132.981 140.204 132.506 144.497C132.03 148.791 131.555 153.516 131.402 158.498C131.24 163.481 131.729 168.219 132.366 172.486C132.994 176.758 133.736 180.58 134.308 183.795C134.892 187.011 135.324 189.62 135.564 191.435C135.695 192.338 135.769 193.045 135.822 193.525C135.843 193.756 135.865 193.935 135.878 194.07C135.891 194.193 135.896 194.258 135.891 194.258C135.887 194.258 135.874 194.197 135.856 194.075C135.839 193.944 135.813 193.765 135.778 193.534C135.713 193.058 135.621 192.356 135.477 191.453C135.206 189.646 134.753 187.041 134.151 183.83C133.557 180.619 132.798 176.797 132.157 172.521C131.507 168.25 131.009 163.494 131.171 158.498C131.323 153.507 131.803 148.773 132.292 144.48C132.781 140.187 133.269 136.325 133.61 133.079C133.954 129.829 134.168 127.193 134.242 125.37C134.299 124.458 134.303 123.747 134.321 123.267C134.329 123.035 134.338 122.852 134.343 122.721C134.36 122.595 134.364 122.529 134.369 122.529Z" fill="#263238"/>
<g opacity="0.3">
<path d="M66.899 130.592C65.638 142.416 67.1476 155.021 71.0002 166.273L66.899 130.592Z" fill="black"/>
</g>
<g opacity="0.3">
<path d="M110.639 172.281C105.282 177.202 99.9063 181.408 93.3137 183.751C98.2832 184.175 103.296 182.272 107.136 179.096C110.975 175.915 113.711 172.564 115.469 167.9L110.639 172.281Z" fill="black"/>
</g>
<path d="M104.533 177.7C104.489 177.652 107.822 174.594 111.976 170.872C116.13 167.146 119.533 164.166 119.572 164.214C119.616 164.262 116.282 167.316 112.129 171.042C107.975 174.768 104.576 177.748 104.533 177.7Z" fill="#263238"/>
<path d="M116.384 85.365C116.384 86.8747 115.158 88.1007 113.648 88.1007C112.139 88.1007 110.913 86.879 110.913 85.365C110.913 83.8554 112.134 82.6294 113.648 82.6294C115.162 82.6294 116.384 83.8511 116.384 85.365Z" fill="#455A64"/>
<path d="M132.661 121.29C131.854 114.606 131.051 107.926 130.244 101.242L112.945 96.0195C112.609 107.957 110.519 121.365 107.517 132.922C113.892 134.99 120.702 135.697 127.369 134.99C127.666 131.762 127.958 128.533 128.255 125.304C128.687 127.739 129.119 130.174 129.551 132.604C131.366 131.587 132.435 129.558 132.801 127.512C133.159 125.461 132.91 123.358 132.661 121.29Z" fill="#263238"/>
<path d="M119.123 135.043C119.123 135.043 119.136 134.956 119.175 134.79C119.215 134.615 119.271 134.371 119.346 134.057C119.498 133.402 119.725 132.451 120.013 131.234C120.58 128.777 121.418 125.23 122.234 120.802C123.054 116.378 123.853 111.063 124.119 105.117C124.381 99.1828 124.018 92.5858 122.374 85.9147C120.755 79.2436 117.923 73.2139 114.354 68.4625C113.9 67.8735 113.473 67.2757 112.989 66.7391C112.513 66.1937 112.068 65.6309 111.575 65.1291C111.335 64.8717 111.095 64.6186 110.855 64.3656C110.611 64.1212 110.366 63.8769 110.122 63.6369C109.642 63.1483 109.145 62.6989 108.665 62.2451C106.723 60.4476 104.825 58.8681 103.128 57.3847C101.431 55.9056 99.9125 54.5356 98.6603 53.2572C98.3418 52.9431 98.0539 52.6202 97.7659 52.3192C97.4779 52.0181 97.2074 51.7214 96.9631 51.4291C96.7144 51.1368 96.4744 50.8619 96.2432 50.5958C96.0294 50.3209 95.8243 50.0591 95.628 49.8104C95.2266 49.3218 94.9256 48.8505 94.6463 48.4535C94.3627 48.0608 94.1489 47.7074 93.9831 47.4195C93.8173 47.1402 93.6908 46.9221 93.5992 46.7694C93.5119 46.621 93.4727 46.5425 93.4727 46.5425C93.4727 46.5425 93.525 46.6123 93.6166 46.7563C93.7126 46.909 93.8479 47.1184 94.0224 47.3933C94.1969 47.6769 94.4151 48.0216 94.703 48.4099C94.9866 48.8025 95.2964 49.2694 95.7022 49.7493C95.8985 49.9937 96.1079 50.2554 96.3217 50.526C96.553 50.7877 96.7929 51.0626 97.046 51.3506C97.2947 51.6429 97.5652 51.9352 97.8532 52.2319C98.1411 52.5286 98.4335 52.8515 98.752 53.1612C100.013 54.4309 101.531 55.7878 103.233 57.2582C104.934 58.7329 106.837 60.3036 108.791 62.1011C109.276 62.5549 109.777 63.0043 110.257 63.493C110.502 63.7329 110.746 63.9773 110.995 64.2216C111.235 64.4747 111.475 64.7277 111.719 64.9851C112.216 65.4869 112.666 66.0497 113.141 66.5995C113.63 67.1405 114.062 67.7382 114.516 68.3316C118.115 73.1004 120.964 79.1607 122.592 85.8536C124.241 92.5509 124.599 99.1697 124.324 105.117C124.049 111.076 123.233 116.399 122.391 120.824C121.553 125.252 120.694 128.799 120.1 131.247C119.799 132.469 119.559 133.42 119.394 134.061C119.311 134.375 119.245 134.62 119.202 134.79C119.154 134.96 119.123 135.043 119.123 135.043Z" fill="#455A64"/>
</svg>
