<svg width="196" height="196" viewBox="0 0 196 196" fill="none" xmlns="http://www.w3.org/2000/svg">
<path d="M22.5996 171.092L26.2908 195.35H47.7352L52.7134 171.445L22.5996 171.092Z" fill="#D7C9E0"/>
<path d="M49.7067 186.628C49.7067 186.697 44.2136 186.754 37.4334 186.754C30.6532 186.754 25.1602 186.697 25.1602 186.628C25.1602 186.558 30.6532 186.501 37.4334 186.501C44.2093 186.501 49.7067 186.558 49.7067 186.628Z" fill="#FAFAFA"/>
<path d="M49.8042 185.437C49.8042 185.507 44.2718 185.564 37.448 185.564C30.6242 185.564 25.0918 185.507 25.0918 185.437C25.0918 185.367 30.6242 185.311 37.448 185.311C44.2718 185.311 49.8042 185.367 49.8042 185.437Z" fill="#FAFAFA"/>
<path d="M49.7553 184.094C49.7553 184.164 44.223 184.221 37.3991 184.221C30.5753 184.221 25.043 184.164 25.043 184.094C25.043 184.024 30.5753 183.968 37.3991 183.968C44.223 183.968 49.7553 184.024 49.7553 184.094Z" fill="#FAFAFA"/>
<path d="M28.7557 193.955C28.6858 193.968 28.3935 192.598 28.0968 190.901C27.8001 189.203 27.6169 187.816 27.6867 187.803C27.7565 187.79 28.0488 189.16 28.3455 190.857C28.6379 192.559 28.8211 193.946 28.7557 193.955Z" fill="#FAFAFA"/>
<path d="M30.2043 193.698C30.1345 193.698 30.0516 192.363 29.9381 190.718C29.8291 189.073 29.7287 187.738 29.7985 187.73C29.864 187.721 30.0778 189.047 30.1912 190.701C30.3046 192.354 30.2741 193.698 30.2043 193.698Z" fill="#FAFAFA"/>
<path d="M32.8671 193.7C32.8017 193.713 32.5093 192.348 32.3086 190.646C32.1079 188.94 32.0774 187.548 32.1472 187.544C32.217 187.54 32.361 188.918 32.5617 190.616C32.758 192.313 32.9369 193.687 32.8671 193.7Z" fill="#FAFAFA"/>
<path d="M34.7374 193.834C34.672 193.838 34.4931 192.45 34.4407 190.727C34.384 189.004 34.4669 187.607 34.5367 187.607C34.6065 187.607 34.637 188.999 34.6938 190.718C34.7461 192.433 34.8116 193.825 34.7374 193.834Z" fill="#FAFAFA"/>
<path d="M38.0319 193.704C37.9621 193.708 37.8617 192.386 37.805 190.758C37.7483 189.127 37.7614 187.805 37.8312 187.805C37.901 187.8 38.0014 189.122 38.0581 190.75C38.1148 192.382 38.1017 193.704 38.0319 193.704Z" fill="#FAFAFA"/>
<path d="M40.4484 193.832C40.3786 193.832 40.3349 192.467 40.348 190.783C40.3611 189.099 40.4309 187.737 40.5007 187.737C40.5705 187.737 40.6142 189.103 40.6011 190.787C40.5836 192.467 40.5182 193.832 40.4484 193.832Z" fill="#FAFAFA"/>
<path d="M42.7142 193.504C42.6444 193.495 42.7273 192.072 42.8975 190.319C43.0676 188.565 43.2596 187.151 43.3294 187.155C43.3992 187.164 43.3163 188.586 43.1462 190.34C42.976 192.099 42.784 193.512 42.7142 193.504Z" fill="#FAFAFA"/>
<path d="M45.6279 193.19C45.5625 193.182 45.6672 191.96 45.9901 190.481C46.3086 189.002 46.723 187.846 46.7885 187.867C46.8583 187.889 46.5529 189.067 46.2388 190.533C45.9115 191.999 45.6977 193.199 45.6279 193.19Z" fill="#FAFAFA"/>
<path d="M43.5716 123.223C43.5759 123.223 43.5672 123.266 43.5454 123.34C43.5192 123.432 43.4843 123.546 43.4451 123.685C43.3447 124.004 43.2094 124.44 43.0393 124.994C42.856 125.561 42.6379 126.255 42.411 127.071C42.1798 127.882 41.8918 128.803 41.6387 129.837C41.3682 130.867 41.0715 131.992 40.801 133.214C40.5043 134.431 40.2513 135.74 39.9721 137.119C39.4572 139.885 38.9904 142.944 38.6588 146.172C38.3446 149.405 38.2007 152.494 38.157 155.309C38.157 156.713 38.1439 158.053 38.1963 159.301C38.2181 160.553 38.2836 161.714 38.349 162.778C38.397 163.843 38.493 164.798 38.5628 165.64C38.6239 166.482 38.7024 167.207 38.7679 167.8C38.8289 168.376 38.8726 168.834 38.9075 169.166C38.9206 169.31 38.9293 169.427 38.938 169.519C38.9424 169.598 38.9424 169.641 38.938 169.641C38.9336 169.641 38.9249 169.602 38.9118 169.523C38.8987 169.427 38.8769 169.314 38.8551 169.17C38.8115 168.838 38.746 168.385 38.6675 167.813C38.5846 167.224 38.493 166.5 38.4188 165.658C38.3403 164.816 38.2268 163.856 38.1701 162.791C38.0959 161.727 38.0174 160.562 37.9869 159.31C37.9258 158.057 37.9345 156.718 37.9258 155.309C37.9563 152.49 38.0959 149.392 38.4101 146.151C38.7417 142.913 39.2172 139.85 39.7452 137.08C40.0331 135.701 40.2906 134.383 40.596 133.17C40.8752 131.949 41.1806 130.823 41.4642 129.793C41.7304 128.759 42.0314 127.843 42.2758 127.036C42.5157 126.224 42.747 125.535 42.9477 124.972C43.1396 124.427 43.2923 123.991 43.4014 123.676C43.4494 123.541 43.493 123.432 43.5236 123.34C43.5498 123.258 43.5672 123.223 43.5716 123.223Z" fill="#D7C9E0"/>
<path d="M39.6989 138.25C40.2791 136.518 41.479 135 43.0322 134.04C43.5645 133.713 44.2321 133.442 44.7949 133.717C45.541 134.079 45.6021 135.131 45.3796 135.933C45.0043 137.282 44.123 138.477 42.9537 139.241C41.78 140.004 40.6936 140.362 39.3105 140.161" fill="#D7C9E0"/>
<path d="M38.3846 148.386C38.9387 146.292 40.6098 143.316 42.3419 142.021C42.6168 141.816 42.9091 141.624 43.2407 141.541C43.5723 141.462 43.9563 141.51 44.2049 141.75C44.5584 142.09 44.5234 142.662 44.4187 143.138C43.7555 146.192 41.2119 148.753 38.1621 149.438" fill="#D7C9E0"/>
<path d="M38.0391 157.315C38.8942 155.325 40.286 153.571 42.0313 152.293C42.4414 151.992 42.9257 151.704 43.4231 151.796C44.1822 151.931 44.5226 152.86 44.4571 153.624C44.3175 155.203 43.1133 156.468 41.8698 157.45C40.5304 158.506 38.1743 159.348 38.1743 159.348" fill="#D7C9E0"/>
<path d="M38.2402 163.734C39.1172 162.242 40.208 160.842 41.6391 159.864C41.9488 159.655 42.2848 159.459 42.66 159.406C43.0309 159.354 43.4497 159.476 43.6592 159.786C43.9995 160.288 43.6766 160.964 43.3101 161.444C42.0492 163.11 40.4567 164.376 38.4628 165" fill="#D7C9E0"/>
<path d="M38.075 161.128C36.6133 159.335 34.9816 157.677 33.2145 156.18C32.9397 155.945 32.5906 155.7 32.2459 155.814C31.9798 155.901 31.8183 156.189 31.8009 156.468C31.7834 156.748 31.8794 157.022 31.9841 157.28C33.0444 159.845 35.5488 161.857 38.2408 162.542" fill="#D7C9E0"/>
<path d="M38.2231 152.77C36.9491 151.221 35.6794 149.668 34.4054 148.115C34.0433 147.674 33.668 147.22 33.1663 146.941C32.6645 146.662 32.0057 146.592 31.5389 146.924C31.072 147.251 30.9149 147.897 31.0153 148.459C31.12 149.022 31.4341 149.52 31.7614 149.987C32.538 151.103 33.4237 152.172 34.5406 152.94C35.6619 153.713 36.6785 154.214 38.0267 154.014" fill="#D7C9E0"/>
<path d="M38.758 143.372C38.0163 141.156 36.6768 139.144 34.9185 137.604C34.6262 137.347 34.3033 137.094 33.9194 137.02C33.1559 136.871 32.4141 137.508 32.1698 138.25C31.8906 139.079 32.0825 140.017 32.5189 140.776C32.9552 141.535 33.6183 142.142 34.3121 142.674C35.5948 143.656 37.0346 144.433 38.5573 144.965" fill="#D7C9E0"/>
<path d="M40.2783 134.986C39.9075 132.29 38.5026 130.043 36.8795 127.861C36.5348 127.403 36.0593 126.915 35.4921 126.998C35.1299 127.054 34.8376 127.347 34.6936 127.683C34.5496 128.019 34.5322 128.394 34.5409 128.76C34.6282 132.019 36.8752 135.117 39.9467 136.204" fill="#D7C9E0"/>
<path d="M41.3472 130.706C41.2119 129.319 41.081 127.923 41.2076 126.535C41.3341 125.148 41.7442 123.756 42.5907 122.652C42.9571 122.177 43.4153 121.753 43.9781 121.548C44.5409 121.343 45.2172 121.391 45.6797 121.775C46.1073 122.129 46.2818 122.718 46.26 123.272C46.2382 123.826 46.0418 124.358 45.828 124.869C44.8115 127.312 43.1186 130.021 41.3472 130.706Z" fill="#D7C9E0"/>
<path d="M24.7137 133.918C24.7224 133.918 24.7312 134.036 24.7355 134.258C24.7399 134.507 24.7399 134.834 24.7486 135.236C24.7486 135.659 24.7486 136.182 24.7748 136.784C24.7966 137.387 24.801 138.076 24.849 138.835C24.9144 140.353 25.0628 142.155 25.294 144.149C25.5427 146.143 25.8787 148.325 26.3499 150.594C26.8298 152.858 27.397 154.996 27.9729 156.92C28.5619 158.84 29.1553 160.55 29.7007 161.964C29.9581 162.679 30.233 163.308 30.4555 163.87C30.678 164.433 30.8831 164.909 31.0576 165.297C31.2147 165.668 31.3456 165.969 31.4416 166.196C31.5288 166.401 31.5681 166.514 31.5594 166.519C31.5506 166.523 31.4939 166.418 31.3936 166.218C31.2845 165.995 31.1449 165.698 30.966 165.336C30.7784 164.952 30.5602 164.481 30.3246 163.923C30.089 163.369 29.801 162.74 29.5349 162.025C28.9633 160.616 28.3525 158.905 27.7504 156.981C27.1614 155.057 26.5855 152.915 26.1055 150.642C25.6343 148.364 25.2984 146.174 25.0671 144.176C24.849 142.173 24.7181 140.362 24.6744 138.839C24.6352 138.08 24.6439 137.391 24.6395 136.784C24.6308 136.178 24.6439 135.659 24.657 135.236C24.6701 134.83 24.6832 134.507 24.6919 134.258C24.6919 134.031 24.705 133.918 24.7137 133.918Z" fill="#B29DC0"/>
<path d="M25.3223 144.974C25.3441 143.67 25.8327 142.378 26.6835 141.388C26.9759 141.052 27.3729 140.725 27.8136 140.786C28.4026 140.873 28.6687 141.575 28.6905 142.169C28.7255 143.168 28.3851 144.171 27.7481 144.944C27.1155 145.716 26.4523 146.192 25.4662 146.353" fill="#B29DC0"/>
<path d="M26.6127 152.16C26.5386 150.616 27.036 148.229 27.9391 146.972C28.0831 146.772 28.2402 146.58 28.4496 146.453C28.659 146.327 28.9295 146.279 29.1477 146.388C29.4618 146.54 29.5622 146.938 29.5927 147.287C29.7978 149.507 28.6197 151.798 26.6869 152.924" fill="#B29DC0"/>
<path d="M28.2832 158.324C28.4359 156.788 29.0075 155.291 29.9194 154.043C30.1331 153.751 30.4036 153.45 30.7614 153.406C31.3068 153.337 31.7387 153.891 31.8609 154.432C32.1052 155.536 31.5599 156.657 30.9229 157.595C30.2379 158.603 28.8155 159.68 28.8155 159.68" fill="#B29DC0"/>
<path d="M29.8008 162.644C30.0757 161.439 30.5163 160.248 31.2799 159.28C31.4457 159.07 31.6333 158.865 31.8776 158.747C32.1219 158.634 32.4317 158.625 32.6411 158.791C32.9814 159.057 32.9073 159.589 32.7589 159.995C32.2615 161.404 31.4457 162.604 30.224 163.459" fill="#B29DC0"/>
<path d="M29.1301 160.91C27.747 160.002 26.281 159.226 24.7583 158.584C24.5184 158.484 24.2304 158.392 24.021 158.545C23.8595 158.663 23.8115 158.89 23.8595 159.086C23.9075 159.282 24.0297 159.444 24.1606 159.597C25.4346 161.115 27.5725 161.944 29.5533 161.835" fill="#B29DC0"/>
<path d="M27.4485 155.186C26.2486 154.405 25.0488 153.62 23.8489 152.839C23.5043 152.616 23.1552 152.389 22.7538 152.307C22.3524 152.224 21.8899 152.32 21.6412 152.643C21.3925 152.965 21.4231 153.441 21.6151 153.803C21.807 154.165 22.1299 154.436 22.4528 154.684C23.2207 155.278 24.054 155.814 24.9833 156.098C25.9127 156.382 26.7155 156.504 27.5881 156.081" fill="#B29DC0"/>
<path d="M25.7753 148.671C24.7936 147.323 23.4497 146.241 21.9183 145.574C21.6609 145.46 21.3904 145.36 21.1111 145.39C20.557 145.456 20.1949 146.049 20.1818 146.603C20.1731 147.227 20.5003 147.825 20.9628 148.248C21.4253 148.671 22.0056 148.942 22.5946 149.156C23.681 149.548 24.8285 149.766 25.9803 149.801" fill="#B29DC0"/>
<path d="M25.0078 142.63C24.1745 140.872 22.7347 139.646 21.1596 138.511C20.828 138.271 20.3961 138.045 20.0296 138.223C19.794 138.337 19.6587 138.603 19.6325 138.86C19.6063 139.122 19.6762 139.38 19.7634 139.628C20.5226 141.827 22.7216 143.455 25.0471 143.533" fill="#B29DC0"/>
<path d="M24.8115 139.484C24.4232 138.568 24.0306 137.648 23.8168 136.675C23.603 135.702 23.5812 134.668 23.9215 133.73C24.0698 133.328 24.288 132.94 24.6283 132.678C24.9686 132.416 25.4398 132.303 25.8325 132.464C26.199 132.613 26.4477 132.975 26.5524 133.359C26.6571 133.743 26.6397 134.144 26.6048 134.541C26.4433 136.43 25.8718 138.638 24.8115 139.484Z" fill="#B29DC0"/>
<path d="M51.8341 133.69C51.8428 133.69 51.8516 133.808 51.8646 134.031C51.8734 134.279 51.8865 134.607 51.8996 135.008C51.917 135.436 51.9257 135.955 51.917 136.557C51.9126 137.163 51.917 137.848 51.8821 138.612C51.8385 140.135 51.7076 141.945 51.4894 143.944C51.2538 145.942 50.9222 148.132 50.451 150.41C49.9667 152.683 49.3952 154.825 48.8061 156.749C48.1997 158.669 47.5932 160.379 47.0217 161.793C46.7511 162.504 46.4675 163.132 46.2319 163.686C45.9963 164.245 45.7782 164.716 45.5906 165.1C45.416 165.467 45.2721 165.759 45.163 165.981C45.0626 166.182 45.0059 166.287 44.9972 166.282C44.9885 166.278 45.0321 166.169 45.115 165.96C45.211 165.728 45.3419 165.432 45.4989 165.061C45.6691 164.673 45.8785 164.197 46.101 163.634C46.3236 163.076 46.5984 162.443 46.8559 161.727C47.4056 160.309 47.9946 158.599 48.5836 156.684C49.1596 154.76 49.7224 152.626 50.2067 150.357C50.6779 148.089 51.0139 145.907 51.2625 143.917C51.4938 141.924 51.6378 140.122 51.7076 138.603C51.7556 137.844 51.7599 137.159 51.7817 136.557C51.8036 135.955 51.8079 135.436 51.8079 135.008C51.8123 134.602 51.8167 134.279 51.821 134.031C51.8167 133.808 51.8254 133.69 51.8341 133.69Z" fill="#D7C9E0"/>
<path d="M51.2262 144.741C51.2044 143.436 50.7157 142.145 49.8649 141.154C49.5726 140.818 49.1756 140.491 48.7349 140.552C48.1459 140.64 47.8797 141.342 47.8579 141.935C47.823 142.935 48.1633 143.938 48.8003 144.71C49.433 145.483 50.0962 145.958 51.0822 146.12" fill="#D7C9E0"/>
<path d="M49.9288 151.932C50.003 150.387 49.5056 148 48.6024 146.744C48.4585 146.543 48.3014 146.351 48.092 146.225C47.8825 146.098 47.612 146.05 47.3939 146.159C47.0797 146.312 46.9794 146.709 46.9488 147.058C46.7438 149.279 47.9218 151.574 49.8546 152.695" fill="#D7C9E0"/>
<path d="M48.2486 158.085C48.0959 156.549 47.5244 155.053 46.6125 153.805C46.3987 153.513 46.1282 153.212 45.7704 153.168C45.225 153.098 44.7931 153.652 44.6709 154.189C44.4266 155.293 44.972 156.414 45.609 157.352C46.294 158.36 47.7163 159.438 47.7163 159.438" fill="#D7C9E0"/>
<path d="M46.7391 162.412C46.4642 161.208 46.0236 160.017 45.26 159.048C45.0942 158.839 44.9066 158.634 44.6623 158.516C44.418 158.402 44.1082 158.394 43.8988 158.56C43.5584 158.826 43.6326 159.358 43.781 159.764C44.2784 161.173 45.0899 162.373 46.3159 163.228" fill="#D7C9E0"/>
<path d="M47.4193 160.672C48.8024 159.764 50.2684 158.987 51.7911 158.346C52.0311 158.246 52.319 158.154 52.5284 158.307C52.6899 158.425 52.7379 158.651 52.6899 158.848C52.6419 159.04 52.5197 159.206 52.3888 159.358C51.1148 160.877 48.9769 161.706 46.9961 161.597" fill="#D7C9E0"/>
<path d="M49.1084 154.948C50.3082 154.167 51.5081 153.382 52.7079 152.601C53.0482 152.378 53.4016 152.151 53.803 152.068C54.2044 151.985 54.6669 152.081 54.9156 152.404C55.1643 152.727 55.1338 153.203 54.9418 153.56C54.7498 153.923 54.4269 154.193 54.1041 154.442C53.3362 155.035 52.5028 155.572 51.5735 155.855C50.6442 156.139 49.8414 156.261 48.9688 155.838" fill="#D7C9E0"/>
<path d="M50.7637 148.433C51.7453 147.085 53.0892 146.003 54.6206 145.335C54.878 145.222 55.1485 145.121 55.4278 145.152C55.9819 145.217 56.344 145.811 56.3571 146.365C56.3658 146.989 56.0386 147.587 55.5761 148.01C55.1136 148.433 54.5333 148.704 53.9443 148.913C52.8579 149.306 51.7148 149.524 50.5586 149.559" fill="#D7C9E0"/>
<path d="M51.5276 142.402C52.3609 140.643 53.8007 139.417 55.3758 138.283C55.7074 138.043 56.1393 137.816 56.5058 137.995C56.7414 138.108 56.8767 138.374 56.9028 138.632C56.929 138.894 56.8592 139.151 56.7719 139.4C56.0128 141.599 53.8138 143.226 51.4883 143.305" fill="#D7C9E0"/>
<path d="M51.7324 139.254C52.1207 138.338 52.5133 137.417 52.7271 136.444C52.9366 135.471 52.9627 134.437 52.6224 133.499C52.4741 133.098 52.2559 132.709 51.9156 132.448C51.5753 132.186 51.1041 132.072 50.7114 132.234C50.3449 132.387 50.0962 132.744 49.9915 133.128C49.8868 133.512 49.9042 133.914 49.9391 134.311C50.1006 136.196 50.6721 138.403 51.7324 139.254Z" fill="#D7C9E0"/>
<path d="M20.1387 166.284V170.822C20.1387 171.808 20.9371 172.611 21.9275 172.611H52.9794C53.9655 172.611 54.7683 171.812 54.7683 170.822V166.284H20.1387Z" fill="#D7C9E0"/>
<path d="M22.8164 172.613L23.0738 174.057L51.726 176.099L52.4547 172.613H22.8164Z" fill="#B29DC0"/>
<path d="M27.9782 62.3266L21.4379 59.6389C21.4379 59.6389 19.1822 65.132 13.4317 62.8807C10.4474 61.7114 9.71003 59.1415 9.69694 57.3963C9.68385 55.3719 10.7092 53.4914 12.341 52.2915C14.204 50.9172 17.3934 50.0707 21.4816 52.6624L27.4677 38.0985L21.0016 35.4414L17.4501 44.0803C17.4501 44.0803 7.41506 42.6972 3.30506 52.6929C-0.62606 62.2568 7.37143 68.1425 11.8392 69.9794C14.6446 71.1269 23.3577 73.9192 27.9782 62.3266Z" fill="#B6A5A5"/>
<path d="M24.6923 26.2404L22.1719 32.3701L28.7375 35.0698L31.2579 28.94L24.6923 26.2404Z" fill="#B6A5A5"/>
<path d="M25.7615 61.4067L19.2213 58.719C19.2213 58.719 16.9656 64.2121 11.2151 61.9608C8.23076 60.7915 7.49341 58.2216 7.48032 56.4764C7.46723 54.4519 8.49255 52.5715 10.1243 51.3716C11.9874 49.9973 15.0982 49.3341 19.1908 51.9257L25.2554 37.1786L18.7894 34.5215L15.2378 43.1603C15.2378 43.1603 5.2028 41.7773 1.0928 51.773C-2.83832 61.3368 4.82322 67.083 8.49691 68.5926C11.298 69.7445 21.1411 72.9949 25.7615 61.4067Z" fill="#E0E0E0"/>
<path d="M22.4736 25.3204L19.9531 31.4502L26.5187 34.1498L29.0391 28.0201L22.4736 25.3204Z" fill="#E0E0E0"/>
<path d="M182.75 174.263L178.697 174.599C178.697 174.599 178.981 178.003 175.447 178.36C173.61 178.544 172.558 177.418 172.096 176.528C171.559 175.494 171.594 174.263 172.113 173.221C172.707 172.03 174.12 170.76 176.891 171.013L176.14 161.981L172.131 162.313L172.576 167.671C172.576 167.671 167.074 169.591 167.589 175.791C168.082 181.72 173.723 182.641 176.489 182.409C178.226 182.265 183.422 181.41 182.75 174.263Z" fill="#282121"/>
<path d="M175.687 156.295L171.617 156.633L171.933 160.433L176.003 160.095L175.687 156.295Z" fill="#282121"/>
<path d="M181.371 174.366L177.318 174.702C177.318 174.702 177.602 178.105 174.068 178.463C172.231 178.646 171.179 177.52 170.717 176.63C170.18 175.596 170.215 174.366 170.734 173.323C171.328 172.132 172.75 170.976 175.521 171.229L174.761 162.084L170.752 162.416L171.197 167.773C171.197 167.773 165.695 169.693 166.21 175.893C166.703 181.822 172.135 182.761 174.412 182.569C176.144 182.429 182.043 181.517 181.371 174.366Z" fill="#E0E0E0"/>
<path d="M174.304 156.404L170.234 156.742L170.55 160.543L174.62 160.204L174.304 156.404Z" fill="#E0E0E0"/>
<path d="M159.19 27.1767L167.223 24.0048C167.223 24.0048 164.557 17.2595 171.52 14.3711C175.137 12.8702 177.964 14.5108 179.452 16.0335C181.18 17.8049 181.865 20.3267 181.45 22.7657C180.975 25.5493 178.885 28.9961 173.095 30.1829L180.159 48.0714L188.104 44.9344L183.916 34.3234C183.916 34.3234 193.92 27.0458 189.068 14.7682C184.43 3.02282 172.406 4.61533 166.921 6.78377C163.47 8.14069 153.44 13.0622 159.19 27.1767Z" fill="#B9A9A9"/>
<path d="M189.675 48.6263L181.611 51.8105L184.584 59.3383L192.647 56.154L189.675 48.6263Z" fill="#B9A9A9"/>
<path d="M155.984 28.4418L164.017 25.2699C164.017 25.2699 161.351 18.5246 168.314 15.6363C171.931 14.1354 174.759 15.7759 176.246 17.2986C177.974 19.07 178.659 21.5918 178.245 24.0308C177.769 26.8144 175.592 30.0387 169.798 31.2211L176.949 49.3322L184.894 46.1951L180.706 35.5842C180.706 35.5842 190.71 28.3066 185.858 16.0289C181.22 4.28358 169.606 5.71467 165.099 7.49479C161.656 8.85607 150.238 14.3273 155.984 28.4418Z" fill="#E0E0E0"/>
<path d="M186.476 49.8899L178.412 53.0742L181.385 60.602L189.448 57.4177L186.476 49.8899Z" fill="#E0E0E0"/>
<path d="M94.0503 17.7677C94.7897 9.43642 88.6216 2.082 80.2735 1.34114C71.9254 0.60028 64.5586 6.75353 63.8192 15.0848C63.0798 23.4161 69.2479 30.7705 77.596 31.5114C85.9441 32.2522 93.3109 26.099 94.0503 17.7677Z" fill="white"/>
<path d="M88.6771 28.0469C88.6771 28.0469 88.7425 27.9946 88.8647 27.8855C88.9912 27.7721 89.1657 27.6106 89.4013 27.4012C89.5191 27.2921 89.65 27.1743 89.794 27.0434C89.9336 26.9038 90.0689 26.738 90.226 26.5679C90.3787 26.3933 90.5488 26.2057 90.7233 26.0094C90.911 25.8174 91.0549 25.5687 91.2382 25.3288C91.9755 24.3732 92.6998 23.0643 93.2801 21.45C93.8517 19.8357 94.2269 17.881 94.1309 15.7169C94.1178 15.4464 94.1003 15.1716 94.0873 14.8967C94.0567 14.6218 94.0087 14.3469 93.9651 14.0677C93.9171 13.7885 93.8953 13.5005 93.8211 13.2213C93.7513 12.942 93.6771 12.6584 93.6073 12.3705C93.5375 12.148 93.4284 11.7858 93.363 11.5633C93.3586 11.5459 93.3499 11.5328 93.3455 11.5153C93.2452 11.2317 93.1405 10.9438 93.0358 10.6558C92.9223 10.3722 92.774 10.0973 92.6475 9.81372C92.5035 9.53449 92.3944 9.2378 92.2155 8.97165C91.8795 8.43063 91.5741 7.85907 91.1509 7.3486C90.9502 7.09117 90.7626 6.8163 90.5445 6.56324C90.2347 6.22729 89.9205 5.89133 89.6064 5.55102C89.5759 5.51611 89.5409 5.48557 89.506 5.45503C89.3795 5.34159 89.2486 5.22815 89.1221 5.11471C88.8603 4.89219 88.6116 4.65222 88.3367 4.43407C87.7652 4.03267 87.2154 3.58764 86.5741 3.25605C85.9676 2.8721 85.2957 2.59286 84.6281 2.29181C84.2878 2.15656 83.9344 2.05184 83.5854 1.92531C83.4065 1.86859 83.2363 1.79878 83.0531 1.75515L82.5077 1.62426C81.9274 1.46283 81.3253 1.37993 80.7232 1.3014C80.4178 1.27522 80.1124 1.24904 79.8113 1.22286L78.834 1.18359L78.5417 1.19668L77.9614 1.22722L77.3767 1.25777L76.7965 1.34503L76.2118 1.43229L75.9195 1.47592L75.6315 1.54573C75.0425 1.72461 74.0783 2.01694 73.4893 2.19582C73.4413 2.21328 73.3889 2.23073 73.3409 2.24818C71.8488 2.85028 70.4308 3.68799 69.148 4.73512C67.8915 5.8128 66.8181 7.065 65.963 8.43063C65.9412 8.4699 65.915 8.51353 65.8932 8.5528C65.6139 9.10691 65.1558 10.0101 64.8722 10.5598L64.7501 10.8303L64.6541 11.1096L64.4621 11.668L64.2745 12.2265L64.1392 12.7981L64.004 13.3653L63.9385 13.6489L63.8076 14.6218C63.7815 14.9272 63.7553 15.2283 63.7247 15.5337C63.6986 16.1445 63.6724 16.751 63.7291 17.3487L63.7596 17.9072C63.7684 18.0948 63.812 18.2737 63.8338 18.4613C63.8949 18.8278 63.9385 19.1943 64.0127 19.5521C64.1959 20.2632 64.353 20.9701 64.6235 21.6376C64.8373 22.3226 65.182 22.9465 65.4743 23.5792C65.6401 23.8846 65.8321 24.1769 66.0066 24.4692C66.0982 24.6176 66.1855 24.7616 66.2728 24.9099C66.2946 24.9492 66.3208 24.9884 66.3513 25.0233C66.6305 25.3942 66.9098 25.7607 67.1846 26.1272C67.3941 26.3846 67.634 26.6202 67.8522 26.8646C68.2798 27.3663 68.7902 27.7721 69.2658 28.1953C69.4971 28.4178 69.7719 28.5792 70.0206 28.7668C70.278 28.9457 70.5224 29.1377 70.7842 29.2991C71.0503 29.4518 71.3165 29.6046 71.5826 29.7573C71.8008 29.8663 72.1498 30.0496 72.3679 30.1587H72.3723C72.6428 30.2808 72.909 30.3986 73.1708 30.5164C73.4325 30.6386 73.7118 30.7084 73.9779 30.8088C74.2484 30.896 74.5102 30.992 74.7764 31.0705C75.0469 31.1316 75.313 31.1971 75.5748 31.2582C77.6865 31.7337 79.6804 31.7076 81.3689 31.424C83.0574 31.1316 84.4754 30.6517 85.5444 30.0889C85.8105 29.9492 86.081 29.8489 86.3036 29.7005C86.5304 29.5609 86.7442 29.43 86.9406 29.3079C87.1369 29.1857 87.3245 29.0766 87.486 28.9676C87.643 28.8497 87.7826 28.7407 87.9092 28.6447C88.1579 28.4527 88.3455 28.3044 88.4807 28.204C88.616 28.1037 88.6771 28.0469 88.6771 28.0469C88.6771 28.0469 88.6073 28.0906 88.4764 28.1866C88.3411 28.2869 88.1491 28.4265 87.8961 28.6141C87.7696 28.7101 87.6256 28.8148 87.4685 28.9326C87.3071 29.0417 87.1195 29.1464 86.9231 29.2642C86.7224 29.382 86.513 29.5129 86.2817 29.6482C86.0592 29.7965 85.7887 29.8925 85.5226 30.0278C84.4536 30.5775 83.04 31.0444 81.3602 31.3236C79.6804 31.5941 77.704 31.6116 75.6097 31.1316C75.3479 31.0705 75.0861 31.0051 74.82 30.944C74.5582 30.8655 74.2964 30.7695 74.0303 30.6779C73.7685 30.5819 73.4893 30.5121 73.2318 30.3855C72.9701 30.2677 72.7083 30.1456 72.4421 30.0278C72.2371 29.9231 71.8967 29.7485 71.6917 29.6438C71.6786 29.6351 71.6655 29.6307 71.6568 29.622C71.3994 29.4737 71.1376 29.321 70.8758 29.1683C70.6184 29.0068 70.3784 28.8148 70.121 28.6403C69.8766 28.4527 69.6018 28.2956 69.3749 28.0731C68.908 27.6499 68.4019 27.2529 67.9787 26.7511C67.7606 26.5111 67.525 26.2799 67.3199 26.0225C67.0494 25.6604 66.7701 25.2939 66.4953 24.9274C66.4691 24.8925 66.4429 24.8575 66.4211 24.8183C66.3338 24.6743 66.2466 24.5303 66.1593 24.382C65.9848 24.0896 65.7972 23.8017 65.6358 23.5006C65.3478 22.8724 65.0075 22.2572 64.798 21.5809C64.5275 20.9221 64.3748 20.2196 64.1959 19.5172C64.1218 19.1638 64.0825 18.7973 64.0214 18.4395C63.9996 18.2562 63.956 18.0774 63.9473 17.8941L63.9167 17.34C63.8469 16.5983 63.9036 15.8522 63.9342 15.0974C63.9865 14.7222 64.0389 14.3469 64.0869 13.9674L64.1261 13.6838L64.1916 13.4045L64.3225 12.8417L64.4534 12.2789L64.6366 11.7291L64.8242 11.175L64.9202 10.8958L65.038 10.6296C65.3173 10.0799 65.7754 9.18544 66.0546 8.6357C66.0764 8.60079 66.0982 8.56153 66.1201 8.52662C66.9621 7.17844 68.0267 5.94369 69.2658 4.87474C70.5311 3.8407 71.936 3.01172 73.4107 2.41834C73.4544 2.40089 73.5024 2.38343 73.546 2.37035C74.1306 2.19146 75.0861 1.9035 75.6708 1.72461L75.9544 1.6548L76.2423 1.61117L76.8183 1.52391L77.3942 1.43665L77.9701 1.40611L78.546 1.37557L78.834 1.36248L79.122 1.37557C79.5016 1.38866 79.8811 1.40611 80.2607 1.4192C81.0112 1.52391 81.7573 1.59808 82.4728 1.79442L83.0138 1.92095C83.1927 1.96022 83.3629 2.03439 83.5374 2.09111C83.8821 2.21328 84.2311 2.31799 84.5714 2.44888C85.2302 2.74993 85.8978 3.02044 86.4955 3.40003C87.1282 3.72726 87.6736 4.16793 88.2408 4.5606C88.5113 4.77439 88.76 5.01 89.0174 5.23251C89.1439 5.34595 89.2748 5.45503 89.4013 5.56847C89.4362 5.59901 89.4668 5.62955 89.4973 5.66009C89.8115 5.99605 90.1212 6.332 90.431 6.6636C90.6492 6.91229 90.8324 7.1828 91.0331 7.44022C91.452 7.94197 91.7574 8.50917 92.089 9.04146C92.2679 9.30325 92.3769 9.59993 92.5166 9.87481C92.6474 10.154 92.7914 10.4246 92.9049 10.7082C93.0096 10.9917 93.1099 11.2753 93.2146 11.5589C93.267 11.6986 93.315 11.8382 93.3674 11.9778C93.3717 11.9909 93.3761 12.004 93.3804 12.0171C93.4852 12.4316 93.5899 12.8417 93.6946 13.2475C93.7731 13.5223 93.7906 13.8103 93.8429 14.0852C93.8822 14.3644 93.9345 14.6349 93.9651 14.9098C93.9825 15.1846 93.9956 15.4552 94.0131 15.7213C94.1178 17.8679 93.7557 19.8095 93.1972 21.4151C92.6256 23.0207 91.9188 24.3296 91.1902 25.2851C91.0113 25.5251 90.8673 25.7738 90.6841 25.9658C90.5096 26.1665 90.3438 26.3541 90.1954 26.5286C90.0427 26.7031 89.9074 26.8689 89.7722 27.0085C89.6326 27.1438 89.5017 27.2616 89.3839 27.3707C89.157 27.5845 88.9825 27.7503 88.8603 27.8681C88.7338 27.9859 88.6771 28.0469 88.6771 28.0469Z" fill="#E0E0E0"/>
<path d="M91.8673 36.4074C90.746 37.869 88.5383 37.6727 87.6875 36.0409C87.2599 35.2163 87.3515 34.1866 87.9143 33.4492C89.0357 31.9876 91.2434 32.184 92.0942 33.8157C92.5217 34.6404 92.4301 35.6744 91.8673 36.4074Z" fill="white"/>
<path d="M91.4748 36.8167C91.4792 36.8211 91.5228 36.7905 91.6014 36.7251C91.6843 36.6596 91.7933 36.5505 91.9155 36.3935C92.1555 36.0881 92.4391 35.5383 92.4173 34.8097C92.4042 34.4519 92.3169 34.0549 92.1075 33.684C91.898 33.3175 91.5883 32.9641 91.1694 32.7241C90.7593 32.4798 90.2488 32.3446 89.7296 32.3795C89.206 32.4056 88.6781 32.6151 88.2505 32.9685C87.8273 33.3262 87.5306 33.8105 87.4128 34.321C87.2863 34.8271 87.3299 35.3551 87.5001 35.8001C87.6615 36.2539 87.9582 36.6204 88.2811 36.8909C88.6083 37.1614 88.9835 37.3184 89.3369 37.3926C90.0481 37.541 90.6371 37.3621 90.9818 37.1788C91.1563 37.0872 91.2829 36.9999 91.3614 36.9301C91.4399 36.8603 91.4792 36.8211 91.4748 36.8167C91.4617 36.7992 91.3003 36.9476 90.9469 37.1134C90.6022 37.2704 90.0307 37.4275 89.3587 37.2661C89.0272 37.1876 88.6781 37.0305 88.3727 36.7731C88.0716 36.5156 87.7968 36.1666 87.6528 35.7434C87.5001 35.3245 87.4608 34.8359 87.583 34.3647C87.6921 33.8891 87.9713 33.444 88.364 33.1081C88.761 32.7809 89.2497 32.5845 89.734 32.5583C90.2183 32.5234 90.6938 32.6456 91.0778 32.8681C91.4705 33.0863 91.7628 33.4135 91.9679 33.7582C92.1686 34.1029 92.2602 34.4781 92.282 34.814C92.3213 35.5034 92.0682 36.0357 91.8544 36.3498C91.6363 36.6683 91.4574 36.8036 91.4748 36.8167Z" fill="#E0E0E0"/>
<path d="M74.2778 13.9403H76.5727C76.5727 13.9403 76.5727 12.0162 78.5754 11.9813C79.6138 11.9639 80.1548 12.6445 80.373 13.1637C80.626 13.7702 80.5518 14.4595 80.2115 15.0224C79.8232 15.6637 78.9681 16.2484 77.4235 15.9735V21.1481H79.6923V18.1201C79.6923 18.1201 82.873 17.2999 82.873 13.792C82.873 10.4368 79.8668 9.66016 78.5797 9.66016C77.585 9.66016 74.2341 9.89576 74.2778 13.9403Z" fill="#E0E0E0"/>
<path d="M79.7114 22.2129H77.4121V24.3639H79.7114V22.2129Z" fill="#E0E0E0"/>
<path d="M47.975 78.7152H50.27C50.27 78.7152 50.27 76.7911 52.2726 76.7562C53.3111 76.7387 53.8521 77.4194 54.0702 77.9386C54.3233 78.545 54.2491 79.2344 53.9088 79.7972C53.5205 80.4386 52.6653 81.0232 51.1208 80.7484V85.9186H53.3896V82.8906C53.3896 82.8906 56.5703 82.0704 56.5703 78.5625C56.5703 75.2073 53.5641 74.4307 52.277 74.4307C51.2866 74.4307 47.9314 74.6706 47.975 78.7152Z" fill="#B29DC0"/>
<path d="M53.4087 86.9883H51.1094V89.1393H53.4087V86.9883Z" fill="#B29DC0"/>
<path d="M150.864 95.4925L148.29 93.8563C148.29 93.8563 146.915 96.016 144.646 94.6286C143.468 93.9087 143.346 92.7612 143.473 92.0195C143.621 91.16 144.197 90.44 144.978 90.0517C145.872 89.6111 147.242 89.5631 148.783 90.968L152.469 85.1651L149.926 83.5508L147.766 86.9496C147.766 86.9496 143.612 85.6058 141.112 89.5413C138.721 93.3066 141.544 96.3215 142.989 97.2421C144.097 97.9445 148.032 100.065 150.864 95.4925Z" fill="#B29DC0"/>
<path d="M152.196 79.9234L150.664 82.3359L153.246 83.9756L154.778 81.563L152.196 79.9234Z" fill="#B29DC0"/>
<path d="M48.9524 14.9023L46.8189 15.7444C46.8189 15.7444 47.5257 17.5333 45.6758 18.3012C44.7159 18.6982 43.9655 18.2663 43.5684 17.8605C43.1103 17.3893 42.9271 16.7217 43.0361 16.0717C43.1627 15.3343 43.7429 14.4791 45.2787 14.1606L43.3808 9.35254L41.2735 10.1859L42.386 13.0044C42.386 13.0044 39.7289 14.9373 41.016 18.1965C42.2464 21.316 45.3311 20.9365 46.5266 20.4609C47.4472 20.1031 50.4795 18.6502 48.9524 14.9023Z" fill="#B29DC0"/>
<path d="M42.2089 6.36639L40.0703 7.21094L40.8604 9.21157L42.999 8.36703L42.2089 6.36639Z" fill="#B29DC0"/>
<path d="M195.316 194.26C195.316 194.321 152.108 194.373 98.8224 194.373C45.519 194.373 2.32031 194.321 2.32031 194.26C2.32031 194.199 45.519 194.146 98.8224 194.146C152.108 194.146 195.316 194.194 195.316 194.26Z" fill="#263238"/>
<path d="M164.242 117.338L160.887 115.837L180.865 90.6797L184.129 91.5828C184.617 91.7181 185.049 91.9973 185.377 92.3813L188.623 96.2033C189.09 96.7531 189.024 97.5777 188.47 98.0445L166.044 117.081C165.542 117.508 164.84 117.608 164.242 117.338Z" fill="#BB0070"/>
<path d="M186.921 115.567L183.291 118.648C182.885 118.992 182.327 119.093 181.829 118.909L179.116 117.915C178.775 117.788 178.492 117.544 178.322 117.221L163.461 89.21L166.812 90.1829C167.244 90.3094 167.628 90.5581 167.92 90.9028L187.096 113.495C187.619 114.106 187.541 115.039 186.921 115.567Z" fill="#BB0070"/>
<g opacity="0.3">
<path d="M164.242 117.338L160.887 115.837L180.865 90.6797L184.129 91.5828C184.617 91.7181 185.049 91.9973 185.377 92.3813L188.623 96.2033C189.09 96.7531 189.024 97.5777 188.47 98.0445L166.044 117.081C165.542 117.508 164.84 117.608 164.242 117.338Z" fill="black"/>
<path d="M186.921 115.567L183.291 118.648C182.885 118.992 182.327 119.093 181.829 118.909L179.116 117.915C178.775 117.788 178.492 117.544 178.322 117.221L163.461 89.21L166.812 90.1829C167.244 90.3094 167.628 90.5581 167.92 90.9028L187.096 113.495C187.619 114.106 187.541 115.039 186.921 115.567Z" fill="black"/>
</g>
<path d="M160.525 115.528L157.226 111.641C156.868 111.222 156.921 110.589 157.34 110.232L180.058 90.9468C180.477 90.589 181.109 90.6414 181.467 91.0602L184.766 94.9477C185.123 95.3666 185.071 95.9992 184.652 96.357L161.934 115.642C161.515 116.004 160.882 115.952 160.525 115.528Z" fill="#BB0070"/>
<path d="M183.231 113.77L179.344 117.068C178.925 117.426 178.292 117.374 177.935 116.955L158.65 94.2363C158.292 93.8174 158.345 93.1848 158.763 92.827L162.76 89.4326C163.118 89.1271 163.659 89.1708 163.964 89.5329L183.345 112.365C183.703 112.784 183.65 113.412 183.231 113.77Z" fill="#BB0070"/>
<path d="M165.153 104.724C165.192 104.772 163.713 106.103 161.85 107.7C159.983 109.296 158.438 110.553 158.399 110.505C158.36 110.457 159.839 109.126 161.702 107.529C163.569 105.928 165.114 104.676 165.153 104.724Z" fill="white"/>
<path d="M180.184 91.8576C180.224 91.9056 178.561 93.3804 176.472 95.1474C174.382 96.9188 172.654 98.315 172.61 98.267C172.567 98.219 174.233 96.7443 176.323 94.9772C178.417 93.2058 180.145 91.8097 180.184 91.8576Z" fill="white"/>
<path d="M165.883 101.142C165.835 101.181 164.543 99.6146 163.003 97.6469C161.463 95.6791 160.254 94.0517 160.302 94.0124C160.35 93.9732 161.642 95.5395 163.182 97.5073C164.726 99.475 165.935 101.102 165.883 101.142Z" fill="white"/>
<path d="M177.382 114.222C177.334 114.266 176.003 112.896 174.407 111.164C172.81 109.432 171.553 107.992 171.597 107.948C171.645 107.905 172.976 109.275 174.572 111.007C176.169 112.743 177.43 114.179 177.382 114.222Z" fill="white"/>
<path d="M5.85193 112.595L5.1582 110.012L23.8626 113.743L40.3855 90.5049L42.4013 94.2571C42.7154 94.8374 42.711 95.5355 42.3969 96.1158L28.0555 122.377C26.9822 124.345 24.4953 125.038 22.5581 123.913L8.08145 115.505C6.98196 114.868 6.17916 113.821 5.85193 112.595Z" fill="#ADC804"/>
<g opacity="0.3">
<path d="M5.85193 112.595L5.1582 110.012L23.8626 113.743L40.3855 90.5049L42.4013 94.2571C42.7154 94.8374 42.711 95.5355 42.3969 96.1158L28.0555 122.377C26.9822 124.345 24.4953 125.038 22.5581 123.913L8.08145 115.505C6.98196 114.868 6.17916 113.821 5.85193 112.595Z" fill="black"/>
</g>
<path d="M5.20923 108.783L7.9056 104.01C8.28955 103.325 9.14471 103.063 9.84716 103.407L20.6719 108.709C21.3875 109.062 22.2557 108.778 22.6309 108.076L33.351 87.9361C33.7524 87.1813 34.7079 86.9238 35.4365 87.3689L39.7996 90.0521C40.4715 90.4666 40.7027 91.3305 40.3231 92.0242L26.3133 117.683C25.3709 119.411 23.2112 120.057 21.4747 119.136L5.80697 110.825C5.06961 110.428 4.7991 109.507 5.20923 108.783Z" fill="#ADC804"/>
<path d="M19.936 109.929C19.9273 109.942 19.7222 109.859 19.3557 109.702C18.9543 109.519 18.4351 109.283 17.8156 109.004C16.5197 108.402 14.7352 107.56 12.7719 106.617C12.2832 106.382 11.8033 106.15 11.3408 105.928C11.1095 105.814 10.8827 105.705 10.6601 105.596C10.442 105.483 10.2326 105.413 10.01 105.396C9.56501 105.352 9.14179 105.518 8.8451 105.775C8.54405 106.028 8.40007 106.403 8.21246 106.709C7.87214 107.298 7.59291 107.795 7.37039 108.179C7.16969 108.524 7.04752 108.712 7.03443 108.703C7.02135 108.694 7.11297 108.493 7.29186 108.136C7.49692 107.743 7.75434 107.237 8.06848 106.63C8.15138 106.473 8.23864 106.308 8.33026 106.133C8.42625 105.954 8.55278 105.775 8.71858 105.631C9.0458 105.335 9.52138 105.143 10.0275 105.182C10.2762 105.199 10.5336 105.282 10.7561 105.396C10.9786 105.5 11.2055 105.609 11.4411 105.723C11.9036 105.945 12.3835 106.177 12.8766 106.408C14.8399 107.35 16.6157 108.219 17.8941 108.856C18.5006 109.165 19.0067 109.418 19.4037 109.619C19.7484 109.807 19.9404 109.916 19.936 109.929Z" fill="white"/>
<path d="M23.9014 109.062C23.8447 109.031 26.1179 104.537 28.98 99.0266C31.8422 93.5117 34.207 89.0657 34.2593 89.0919C34.316 89.1225 32.0429 93.612 29.1807 99.1313C26.3186 104.642 23.9538 109.088 23.9014 109.062Z" fill="white"/>
<path d="M68.9745 49.0312C69.9714 41.0011 64.2698 33.6832 56.2397 32.6864C48.2096 31.6895 40.8918 37.391 39.8949 45.4211C38.898 53.4512 44.5995 60.7691 52.6296 61.766C60.6598 62.7628 67.9776 57.0613 68.9745 49.0312Z" fill="white"/>
<path d="M69.0834 47.2243C69.0834 47.2243 69.0834 47.1458 69.079 46.9887C69.0746 46.8273 69.0659 46.5917 69.0528 46.2906C69.0485 46.1379 69.0397 45.9634 69.031 45.7758C69.0136 45.5882 68.9787 45.3831 68.9481 45.1606C68.9176 44.9381 68.8783 44.6981 68.8434 44.445C68.8172 44.1876 68.7212 43.9258 68.6602 43.6422C68.4115 42.5035 67.8879 41.1553 67.0546 39.7199C66.2168 38.2931 64.9996 36.801 63.3329 35.5313C63.1234 35.3742 62.914 35.2172 62.7002 35.0557C62.4777 34.9074 62.2421 34.7721 62.0109 34.6282C61.7753 34.4929 61.5484 34.3271 61.2953 34.2093C61.0423 34.0871 60.7892 33.965 60.5318 33.8384C60.4009 33.7774 60.2744 33.7163 60.1435 33.6552C60.0082 33.6072 59.873 33.5548 59.7377 33.5069C59.4628 33.4065 59.188 33.3062 58.9087 33.2014C58.6295 33.1098 58.3328 33.0487 58.0405 32.9658C57.7481 32.9004 57.4558 32.7957 57.1504 32.7608C56.5439 32.6735 55.9288 32.547 55.2874 32.5426C54.9689 32.5295 54.6504 32.499 54.3275 32.5034C54.0046 32.5208 53.6818 32.5339 53.3546 32.5513C53.1931 32.5644 53.0273 32.5601 52.8615 32.5819C52.7001 32.6081 52.5343 32.6299 52.3685 32.6561C52.0413 32.7084 51.7053 32.7477 51.3781 32.8131C50.728 32.9877 50.0517 33.1185 49.4103 33.3847C48.7472 33.5941 48.1276 33.9213 47.4862 34.2268C47.1765 34.3969 46.8754 34.5889 46.57 34.7721C46.4173 34.8681 46.2602 34.951 46.1162 35.0601L45.6799 35.383C45.0822 35.7931 44.5543 36.3079 44.0089 36.801C43.7602 37.0758 43.5115 37.3507 43.2584 37.6256L43.0708 37.835L42.9007 38.0575L42.5647 38.5069L42.2244 38.9607L41.9277 39.445L41.631 39.9336L41.4827 40.178L41.3561 40.4354C41.1903 40.7801 41.0245 41.1291 40.8544 41.4738C40.7191 41.8359 40.5882 42.1981 40.453 42.5646C39.9731 44.0436 39.7113 45.6143 39.6895 47.2156C39.7113 48.8168 39.9687 50.3875 40.4486 51.8666C40.5839 52.2331 40.7148 52.5952 40.85 52.9574C41.0158 53.3064 41.186 53.6511 41.3518 53.9958L41.4783 54.2532L41.6266 54.4975L41.9233 54.9862L42.22 55.4705L42.5603 55.9242L42.8963 56.3736L43.0665 56.5962L43.2541 56.8056C43.5071 57.0805 43.7558 57.3553 44.0045 57.6302C44.5543 58.1276 45.0778 58.6381 45.6799 59.0482L46.1162 59.3711C46.2602 59.4801 46.4217 59.563 46.57 59.659C46.8798 59.8423 47.1765 60.0386 47.4906 60.2044C48.132 60.5098 48.7515 60.8371 49.4147 61.0465C50.0561 61.3126 50.728 61.4435 51.3824 61.618C51.714 61.6835 52.0456 61.7228 52.3729 61.7795C52.5387 61.8057 52.7001 61.8275 52.8659 61.8536C53.0273 61.8755 53.1931 61.8755 53.3589 61.8842C53.6861 61.9016 54.009 61.9147 54.3319 61.9322C54.6547 61.9365 54.9732 61.906 55.2918 61.8929C55.9288 61.8886 56.5439 61.762 57.1548 61.6748C57.4602 61.6442 57.7525 61.5395 58.0448 61.4697C58.3372 61.3912 58.6295 61.3301 58.9131 61.2341C59.1923 61.1337 59.4672 61.029 59.7421 60.9287C59.8773 60.8763 60.0126 60.8283 60.1478 60.7803C60.2787 60.7193 60.4053 60.6582 60.5361 60.5927C60.7936 60.4706 61.0466 60.344 61.2997 60.2219C61.5527 60.1041 61.7796 59.9383 62.0152 59.803C62.2465 59.659 62.4821 59.5238 62.7046 59.3754C62.9184 59.214 63.1322 59.0569 63.3372 58.8999C64.9996 57.6302 66.2169 56.138 67.0589 54.7113C67.8923 53.2802 68.4158 51.9277 68.6645 50.7889C68.73 50.5053 68.8216 50.2435 68.8478 49.9861C68.887 49.7287 68.9219 49.4931 68.9525 49.2706C68.983 49.0481 69.0179 48.843 69.0354 48.6554C69.0441 48.4678 69.0528 48.2933 69.0572 48.1406C69.0703 47.8395 69.079 47.6039 69.0834 47.4425C69.0877 47.3072 69.0834 47.2243 69.0834 47.2243C69.0834 47.2243 69.0747 47.3028 69.0616 47.4599C69.0528 47.6213 69.0354 47.8526 69.0179 48.1536C69.0092 48.3063 69.0005 48.4765 68.9874 48.6641C68.9699 48.8517 68.9263 49.0568 68.8958 49.275C68.8609 49.4975 68.8216 49.7331 68.7823 49.9861C68.7518 50.2435 68.6558 50.501 68.5904 50.7846C68.3329 51.9146 67.805 53.2541 66.9673 54.6721C66.1252 56.0857 64.9123 57.5604 63.2543 58.8126C63.0449 58.9653 62.8355 59.1224 62.6217 59.2838C62.3992 59.4278 62.1679 59.563 61.9367 59.7027C61.7011 59.8379 61.4786 59.9993 61.2255 60.1128C60.9768 60.2306 60.7238 60.3528 60.4663 60.4749C60.3398 60.536 60.2089 60.5971 60.0824 60.6582C59.9471 60.7062 59.8119 60.7542 59.6766 60.8065C59.4061 60.9069 59.1312 61.0028 58.8564 61.1076C58.5771 61.1992 58.2848 61.2603 57.9968 61.3388C57.7045 61.4043 57.4166 61.509 57.1155 61.5395C56.5134 61.6268 55.9026 61.7489 55.2743 61.7533C54.9602 61.762 54.6417 61.7969 54.3232 61.7882C54.0046 61.7707 53.6818 61.7533 53.3589 61.7402C53.1975 61.7271 53.0317 61.7315 52.8703 61.7097C52.7088 61.6835 52.5474 61.6617 52.386 61.6355C52.0631 61.5831 51.7315 61.5439 51.4043 61.4784C50.7629 61.3039 50.0953 61.173 49.4627 60.9069C48.8082 60.6974 48.1931 60.3746 47.5604 60.0735C47.2506 59.9077 46.9583 59.7114 46.6529 59.5325C46.5045 59.4365 46.3431 59.3536 46.2035 59.2489L45.7759 58.926C45.1825 58.5203 44.6677 58.0098 44.1223 57.5211C43.878 57.2506 43.6293 56.9801 43.3806 56.7052L43.193 56.5002L43.0272 56.2777L42.6956 55.8326L42.3596 55.3832L42.0673 54.9033L41.775 54.419L41.6266 54.179L41.5045 53.926C41.3387 53.5857 41.1773 53.241 41.0115 52.9007C40.8806 52.5429 40.7497 52.1807 40.6144 51.823C40.1388 50.3614 39.8858 48.8081 39.864 47.2243C39.8858 45.6449 40.1388 44.0916 40.6144 42.63C40.7453 42.2679 40.8806 41.9101 41.0115 41.5523C41.1773 41.2077 41.3431 40.8673 41.5045 40.527L41.631 40.274L41.7794 40.034L42.0717 39.5497L42.364 39.0698L42.7 38.6204L43.0316 38.1753L43.1973 37.9528L43.385 37.7477C43.6337 37.4729 43.878 37.2024 44.1267 36.9319C44.6677 36.4432 45.1869 35.9327 45.7803 35.527L46.2079 35.2041C46.3518 35.095 46.5089 35.0165 46.6573 34.9205C46.9627 34.7416 47.255 34.5453 47.5648 34.3795C48.1974 34.0784 48.8126 33.7556 49.4671 33.5461C50.0997 33.28 50.7673 33.1491 51.4086 32.9746C51.7359 32.9091 52.0631 32.8698 52.3903 32.8175C52.5517 32.7913 52.7132 32.7695 52.8746 32.7433C53.036 32.7215 53.2018 32.7215 53.3633 32.7128C53.6861 32.6953 54.009 32.6779 54.3275 32.6648C54.646 32.6604 54.9645 32.691 55.2787 32.6997C55.9113 32.7041 56.5178 32.8262 57.1199 32.9135C57.4253 32.944 57.7089 33.0487 58.0012 33.1142C58.2892 33.1927 58.5815 33.2538 58.8607 33.3454C59.1356 33.4458 59.4105 33.5461 59.681 33.6465C59.8162 33.6945 59.9515 33.7468 60.0867 33.7948C60.2176 33.8559 60.3442 33.917 60.4707 33.9781C60.7238 34.1002 60.9768 34.2224 61.2299 34.3402C61.4829 34.4536 61.7054 34.6194 61.941 34.7503C62.1723 34.8943 62.4035 35.0252 62.6261 35.1692C62.8398 35.3263 63.0493 35.4833 63.2587 35.6404C64.9123 36.8926 66.1296 38.3673 66.9717 39.7809C67.805 41.1989 68.3373 42.5384 68.5947 43.6684C68.6602 43.952 68.7561 44.2094 68.7867 44.4669C68.826 44.7199 68.8652 44.9599 68.9001 45.178C68.935 45.4006 68.9743 45.6013 68.9918 45.7889C69.0048 45.9765 69.0136 46.1466 69.0223 46.2993C69.0397 46.6004 69.0572 46.8316 69.0659 46.9931C69.0746 47.1458 69.0834 47.2243 69.0834 47.2243Z" fill="#263238"/>
<path d="M74.6551 56.435C74.6551 57.7526 73.5905 58.8172 72.2729 58.8172C70.9552 58.8172 69.8906 57.7526 69.8906 56.435C69.8906 55.1173 70.9552 54.0527 72.2729 54.0527C73.5905 54.0527 74.6551 55.1217 74.6551 56.435Z" fill="white"/>
<path d="M74.653 56.4347C74.6573 56.4347 74.6617 56.3823 74.6617 56.282C74.666 56.1816 74.653 56.0333 74.6093 55.8457C74.5308 55.4748 74.2995 54.9251 73.7454 54.4931C73.4706 54.2837 73.1215 54.1004 72.7201 54.0263C72.3187 53.9521 71.865 53.9608 71.4287 54.1223C70.9923 54.275 70.5779 54.5673 70.2812 54.9774C69.9758 55.3788 69.8012 55.9024 69.7969 56.4347C69.8012 56.9713 69.9758 57.4905 70.2812 57.8963C70.5779 58.3064 70.9967 58.5988 71.4287 58.7515C71.865 58.9129 72.3187 58.9216 72.7201 58.8474C73.1259 58.7733 73.4749 58.59 73.7454 58.3806C74.2995 57.9487 74.5308 57.3945 74.6093 57.028C74.653 56.8404 74.6617 56.6921 74.6617 56.5917C74.6617 56.487 74.6617 56.4347 74.653 56.4347C74.6355 56.4347 74.6442 56.6485 74.5439 57.0062C74.4479 57.3596 74.2079 57.8788 73.6713 58.2759C73.4051 58.4722 73.0735 58.6337 72.6939 58.6991C72.3144 58.7602 71.8868 58.7471 71.4854 58.59C71.0796 58.4417 70.6957 58.1668 70.4208 57.7872C70.1372 57.412 69.9801 56.9277 69.9758 56.4303C69.9801 55.9329 70.1372 55.4486 70.4208 55.0734C70.6957 54.6938 71.0796 54.4146 71.4854 54.2706C71.8911 54.1135 72.3187 54.1004 72.6939 54.1615C73.0735 54.227 73.4051 54.3928 73.6713 54.5847C74.2036 54.9818 74.4479 55.501 74.5439 55.8544C74.6442 56.2209 74.6355 56.4347 74.653 56.4347Z" fill="#263238"/>
<path d="M49.6145 48.3791V50.3686H48.0438V48.3529L45.9277 44.8145H47.5857L48.9033 47.0178L50.221 44.8145H51.7437L49.6145 48.3791Z" fill="#263238"/>
<path d="M56.5641 49.1601V50.373H52.1094V44.8232H56.4637V46.0362H53.6626V46.9699H56.1278V48.1435H53.6626V49.1601H56.5641Z" fill="#263238"/>
<path d="M57.0449 49.8715L57.5598 48.7153C58.0528 49.0425 58.7509 49.2606 59.3922 49.2606C60.0423 49.2606 60.2954 49.0774 60.2954 48.8069C60.2954 47.9255 57.1409 48.5669 57.1409 46.5075C57.1409 45.5171 57.9481 44.71 59.5973 44.71C60.3172 44.71 61.0633 44.8758 61.613 45.1943L61.1287 46.3592C60.5965 46.0756 60.0729 45.9316 59.5886 45.9316C58.9298 45.9316 58.6942 46.1541 58.6942 46.4334C58.6942 47.2798 61.8399 46.6472 61.8399 48.6934C61.8399 49.662 61.0328 50.4867 59.3835 50.4867C58.4716 50.4823 57.5685 50.238 57.0449 49.8715Z" fill="#263238"/>
<path d="M150.269 72.0539C158.888 70.9582 164.988 63.0823 163.892 54.4627C162.796 45.843 154.92 39.7436 146.301 40.8393C137.681 41.935 131.582 49.8109 132.677 58.4306C133.773 67.0503 141.649 73.1496 150.269 72.0539Z" fill="white"/>
<path d="M132.557 56.4424C132.557 56.4424 132.557 56.3552 132.561 56.1894C132.57 56.0149 132.578 55.7662 132.592 55.4389C132.6 55.2731 132.605 55.0899 132.613 54.8848C132.631 54.6841 132.67 54.4616 132.705 54.226C132.74 53.986 132.779 53.7286 132.818 53.4537C132.849 53.1789 132.949 52.8953 133.015 52.5899C133.281 51.3638 133.844 49.9153 134.738 48.3795C135.641 46.8481 136.946 45.2468 138.735 43.8812C138.957 43.711 139.188 43.5409 139.415 43.3707C139.655 43.2136 139.908 43.0653 140.157 42.9126C140.41 42.7686 140.654 42.5897 140.925 42.4632C141.195 42.3323 141.47 42.2014 141.745 42.0662C141.885 42.0007 142.024 41.9353 142.164 41.8655C142.308 41.8131 142.456 41.7564 142.6 41.704C142.893 41.595 143.189 41.4859 143.49 41.3768C143.792 41.2764 144.11 41.211 144.42 41.1237C144.734 41.0496 145.048 40.9405 145.375 40.9056C146.03 40.8096 146.689 40.6743 147.374 40.67C147.714 40.6569 148.059 40.622 148.403 40.6264C148.748 40.6438 149.097 40.6613 149.45 40.6787C149.625 40.6918 149.804 40.6874 149.978 40.7136C150.153 40.7398 150.327 40.766 150.506 40.7921C150.86 40.8489 151.217 40.8925 151.571 40.9623C152.269 41.1499 152.993 41.2895 153.683 41.5775C154.394 41.8044 155.061 42.1534 155.746 42.4807C156.082 42.6595 156.401 42.8733 156.732 43.0697C156.894 43.1744 157.068 43.2616 157.221 43.3794L157.688 43.7285C158.334 44.1692 158.896 44.7189 159.485 45.2512C159.752 45.5435 160.022 45.8402 160.293 46.1369L160.493 46.3594L160.677 46.5994L161.039 47.0837L161.401 47.5723L161.719 48.0915L162.038 48.6151L162.199 48.8769L162.335 49.1518C162.513 49.5226 162.692 49.8935 162.871 50.2687C163.015 50.657 163.159 51.0497 163.303 51.4424C163.818 53.0305 164.097 54.719 164.119 56.4337C164.097 58.1528 163.818 59.8413 163.303 61.4294C163.159 61.8221 163.015 62.2104 162.871 62.6031C162.692 62.9783 162.513 63.3492 162.335 63.72L162.199 63.9949L162.038 64.2567L161.719 64.7802L161.401 65.2994L161.039 65.7881L160.677 66.2724L160.493 66.5124L160.293 66.7349C160.022 67.0316 159.756 67.3283 159.485 67.6206C158.896 68.1529 158.334 68.7026 157.688 69.1433L157.221 69.4923C157.068 69.6102 156.894 69.6974 156.732 69.8021C156.401 69.9985 156.082 70.2079 155.746 70.3911C155.061 70.7184 154.389 71.0674 153.683 71.2943C152.993 71.5823 152.269 71.7219 151.571 71.9095C151.217 71.9837 150.86 72.0229 150.506 72.0796C150.332 72.1058 150.153 72.132 149.978 72.1582C149.804 72.18 149.625 72.18 149.45 72.1931C149.097 72.2105 148.748 72.228 148.403 72.2454C148.059 72.2498 147.714 72.2149 147.374 72.2018C146.689 72.1974 146.03 72.0622 145.375 71.9662C145.044 71.9313 144.734 71.8179 144.42 71.7481C144.106 71.6608 143.792 71.5953 143.49 71.495C143.189 71.3859 142.897 71.2768 142.6 71.1678C142.452 71.1154 142.308 71.0587 142.164 71.0063C142.024 70.9409 141.885 70.8711 141.745 70.8056C141.47 70.6704 141.195 70.5395 140.925 70.4086C140.65 70.2821 140.41 70.1075 140.157 69.9592C139.908 69.8021 139.655 69.6581 139.415 69.5011C139.184 69.3266 138.957 69.1564 138.735 68.9906C136.95 67.6293 135.641 66.0237 134.738 64.4923C133.844 62.9521 133.285 61.5036 133.015 60.2819C132.945 59.9765 132.849 59.6973 132.818 59.418C132.779 59.1432 132.74 58.8858 132.705 58.6458C132.674 58.4058 132.631 58.1877 132.613 57.987C132.605 57.7863 132.596 57.5986 132.592 57.4329C132.578 57.11 132.57 56.8569 132.561 56.6824C132.557 56.5297 132.557 56.4424 132.557 56.4424C132.557 56.4424 132.565 56.5297 132.578 56.6955C132.592 56.87 132.605 57.1187 132.626 57.4416C132.635 57.6074 132.648 57.7906 132.657 57.9913C132.679 58.192 132.722 58.4102 132.757 58.6501C132.797 58.8857 132.836 59.1432 132.88 59.4137C132.91 59.6886 133.015 59.9678 133.085 60.2732C133.359 61.4905 133.931 62.9259 134.825 64.4487C135.729 65.967 137.033 67.5508 138.809 68.8946C139.031 69.0604 139.258 69.2306 139.485 69.4007C139.725 69.5578 139.974 69.7018 140.223 69.8545C140.476 69.9985 140.716 70.173 140.986 70.2952C141.252 70.4217 141.527 70.5526 141.798 70.6835C141.933 70.7489 142.072 70.8144 142.212 70.8798C142.356 70.9322 142.5 70.9845 142.648 71.0369C142.941 71.1416 143.233 71.2507 143.53 71.3597C143.831 71.4601 144.141 71.5212 144.45 71.6084C144.764 71.6782 145.07 71.7917 145.397 71.8222C146.043 71.9138 146.697 72.0491 147.378 72.0535C147.714 72.0666 148.054 72.0971 148.399 72.0927C148.744 72.0753 149.088 72.0578 149.433 72.0404C149.607 72.0273 149.782 72.0273 149.957 72.0055C150.131 71.9793 150.306 71.9531 150.48 71.9269C150.829 71.8702 151.183 71.8266 151.532 71.7568C152.221 71.5692 152.936 71.4295 153.617 71.1459C154.32 70.9234 154.978 70.5744 155.659 70.2472C155.991 70.0683 156.305 69.8588 156.632 69.6669C156.793 69.5622 156.964 69.4749 157.116 69.3615L157.579 69.0168C158.216 68.5805 158.77 68.0351 159.355 67.5072C159.616 67.2148 159.882 66.9225 160.149 66.6302L160.349 66.412L160.528 66.1721L160.886 65.6921L161.244 65.2122L161.558 64.6973L161.872 64.1781L162.029 63.9164L162.164 63.6415C162.339 63.275 162.518 62.9085 162.697 62.5376C162.836 62.1537 162.98 61.7654 163.12 61.3771C163.63 59.8064 163.905 58.1397 163.927 56.4424C163.905 54.7452 163.63 53.0785 163.12 51.5078C162.976 51.1195 162.836 50.7356 162.697 50.3516C162.518 49.9808 162.343 49.6143 162.164 49.2478L162.029 48.9729L161.872 48.7111L161.558 48.1919L161.244 47.6771L160.886 47.1971L160.528 46.7172L160.349 46.4772L160.149 46.2591C159.882 45.9667 159.616 45.6744 159.355 45.3821C158.774 44.8585 158.216 44.3088 157.579 43.8725L157.116 43.5278C156.964 43.4143 156.793 43.3227 156.632 43.2224C156.305 43.0304 155.986 42.821 155.659 42.6421C154.983 42.3149 154.32 41.9702 153.617 41.7433C152.936 41.4597 152.221 41.3201 151.532 41.1325C151.183 41.0583 150.829 41.019 150.48 40.9623C150.306 40.9361 150.131 40.91 149.957 40.8838C149.782 40.862 149.607 40.862 149.433 40.8489C149.084 40.8314 148.739 40.814 148.399 40.7965C148.054 40.7922 147.718 40.8227 147.378 40.8358C146.702 40.8401 146.047 40.971 145.397 41.0627C145.07 41.0976 144.764 41.2066 144.45 41.2764C144.141 41.3593 143.826 41.4248 143.53 41.5251C143.233 41.6342 142.941 41.7389 142.648 41.848C142.504 41.9004 142.356 41.9527 142.212 42.0051C142.072 42.0705 141.937 42.136 141.798 42.2014C141.523 42.3323 141.252 42.4632 140.986 42.5897C140.716 42.7119 140.476 42.8864 140.223 43.0304C139.974 43.1831 139.725 43.3271 139.485 43.4798C139.258 43.65 139.031 43.8201 138.809 43.9859C137.033 45.3297 135.729 46.9135 134.825 48.4319C133.927 49.9546 133.359 51.39 133.085 52.6073C133.015 52.9127 132.91 53.192 132.88 53.4668C132.836 53.7417 132.797 53.9948 132.757 54.2347C132.722 54.4703 132.679 54.6885 132.657 54.8936C132.644 55.0943 132.635 55.2775 132.626 55.4433C132.605 55.7662 132.592 56.0149 132.578 56.1894C132.57 56.3552 132.557 56.4424 132.557 56.4424Z" fill="#263238"/>
<path d="M126.574 66.3273C126.574 67.7409 127.717 68.884 129.131 68.884C130.545 68.884 131.688 67.7409 131.688 66.3273C131.688 64.9136 130.54 63.7705 129.131 63.7705C127.722 63.7705 126.574 64.9136 126.574 66.3273Z" fill="white"/>
<path d="M126.574 66.3266C126.565 66.3266 126.565 66.2699 126.565 66.1608C126.561 66.0517 126.574 65.8903 126.622 65.6896C126.705 65.2925 126.954 64.7035 127.547 64.2367C127.839 64.0098 128.214 63.8135 128.651 63.7349C129.083 63.6564 129.571 63.6651 130.038 63.8396C130.505 64.0054 130.954 64.3196 131.273 64.7559C131.6 65.1878 131.788 65.7463 131.792 66.3222C131.788 66.8981 131.6 67.4566 131.273 67.8886C130.954 68.3292 130.505 68.6434 130.038 68.8048C129.571 68.9793 129.083 68.988 128.651 68.9095C128.214 68.8266 127.844 68.6346 127.547 68.4078C126.954 67.9409 126.705 67.3519 126.622 66.9549C126.578 66.7542 126.565 66.5927 126.565 66.4837C126.565 66.3833 126.57 66.3266 126.574 66.3266C126.596 66.3266 126.587 66.5535 126.692 66.9418C126.796 67.3214 127.054 67.8798 127.625 68.3074C127.909 68.5168 128.267 68.6914 128.677 68.7612C129.083 68.8266 129.541 68.8135 129.977 68.6477C130.413 68.4907 130.828 68.194 131.12 67.7838C131.421 67.3781 131.591 66.8632 131.6 66.3266C131.596 65.7899 131.426 65.2751 131.12 64.8693C130.828 64.4592 130.413 64.1625 129.977 64.0054C129.541 63.8396 129.083 63.8222 128.677 63.892C128.267 63.9618 127.913 64.1407 127.625 64.3458C127.054 64.7733 126.792 65.3318 126.692 65.7114C126.587 66.0997 126.596 66.3266 126.574 66.3266Z" fill="#263238"/>
<path d="M147.563 52.8945V59.5438H146.014L143.078 56.001V59.5438H141.236V52.8945H142.785L145.722 56.4373V52.8945H147.563Z" fill="#263238"/>
<path d="M148.553 56.2197C148.553 54.2258 150.119 52.7598 152.248 52.7598C154.377 52.7598 155.944 54.2214 155.944 56.2197C155.944 58.2136 154.377 59.6796 152.248 59.6796C150.119 59.6796 148.553 58.2136 148.553 56.2197ZM154.046 56.2197C154.046 55.0722 153.256 54.3217 152.248 54.3217C151.24 54.3217 150.451 55.0722 150.451 56.2197C150.451 57.3672 151.24 58.1176 152.248 58.1176C153.256 58.122 154.046 57.3715 154.046 56.2197Z" fill="#263238"/>
<path d="M125.221 34.2394C132.198 31.4933 135.625 23.5998 132.873 16.6087C130.122 9.61754 122.235 6.17625 115.257 8.92233C108.28 11.6684 104.853 19.562 107.605 26.5531C110.356 33.5442 118.243 36.9855 125.221 34.2394Z" fill="white"/>
<path d="M114.826 34.0452C114.826 34.0452 114.896 34.0757 115.031 34.1325C115.171 34.1892 115.371 34.2677 115.633 34.3681C115.768 34.4204 115.917 34.4771 116.078 34.5382C116.244 34.5949 116.432 34.6386 116.632 34.6953C116.833 34.7476 117.051 34.8087 117.282 34.8698C117.514 34.9396 117.771 34.9614 118.033 35.0094C119.093 35.2189 120.437 35.2712 121.964 35.0923C123.487 34.9047 125.206 34.4204 126.903 33.4736C127.112 33.3558 127.326 33.2337 127.544 33.1115C127.754 32.9762 127.954 32.8279 128.164 32.6839C128.369 32.5312 128.591 32.4003 128.783 32.2302C128.98 32.06 129.176 31.8898 129.377 31.7197C129.529 31.5757 129.774 31.3401 129.926 31.1961C129.935 31.1874 129.948 31.1743 129.957 31.1656C130.145 30.9692 130.332 30.7729 130.52 30.5722C130.703 30.3671 130.865 30.1403 131.039 29.9221C131.205 29.6952 131.401 29.4902 131.541 29.2415C131.842 28.7572 132.173 28.2816 132.418 27.7406C132.544 27.4744 132.688 27.2126 132.806 26.9378C132.95 26.5538 133.094 26.1699 133.242 25.7772C133.255 25.7379 133.269 25.6987 133.282 25.6594C133.321 25.511 133.36 25.3627 133.399 25.2144C133.474 24.9177 133.565 24.6166 133.631 24.3112C133.722 23.6917 133.858 23.0721 133.871 22.4264C133.936 21.785 133.888 21.1349 133.866 20.4804C133.84 20.1532 133.783 19.826 133.74 19.4988C133.714 19.333 133.705 19.1672 133.666 19.0057L133.552 18.5171C133.447 17.9848 133.273 17.4743 133.094 16.9551C132.994 16.702 132.893 16.4446 132.793 16.1916L132.431 15.3888L132.304 15.1619L132.047 14.7081L131.785 14.25L131.484 13.8181L131.179 13.3861L131.026 13.168L130.851 12.9673C130.472 12.5659 129.852 11.9114 129.473 11.51C129.438 11.4795 129.403 11.4445 129.372 11.414C128.29 10.4585 127.051 9.6557 125.699 9.04923C124.329 8.47767 122.898 8.11553 121.458 7.97592C121.414 7.97155 121.375 7.97155 121.331 7.96719C120.777 7.96283 119.87 7.95846 119.311 7.9541L119.045 7.96719L118.783 8.0021L118.26 8.07627L117.736 8.15044L117.226 8.2726L116.715 8.39477L116.462 8.45585L115.629 8.73945C115.376 8.8398 115.118 8.94015 114.865 9.0405C114.363 9.26302 113.87 9.48554 113.412 9.7735L112.976 10.0222C112.832 10.1051 112.701 10.2098 112.562 10.3058C112.291 10.5021 112.016 10.681 111.759 10.8861C111.261 11.318 110.755 11.7281 110.332 12.2124C109.869 12.6575 109.507 13.1854 109.119 13.6741C108.94 13.9315 108.783 14.1976 108.617 14.4594C108.534 14.5903 108.451 14.7212 108.373 14.8521C108.351 14.887 108.329 14.9219 108.312 14.9612C108.129 15.3364 107.945 15.7073 107.762 16.0738C107.64 16.3486 107.548 16.6322 107.439 16.9071C107.208 17.4525 107.09 18.024 106.938 18.5738C106.85 18.8487 106.833 19.1323 106.78 19.4071C106.741 19.6864 106.684 19.9569 106.658 20.2317C106.641 20.5066 106.628 20.7815 106.61 21.0564C106.606 21.2745 106.606 21.6279 106.602 21.8461V21.8504C106.61 22.1166 106.623 22.3784 106.632 22.6358C106.636 22.8976 106.693 23.1463 106.724 23.3993C106.759 23.6524 106.789 23.9011 106.833 24.1454C106.89 24.3854 106.946 24.6253 107.003 24.861C107.47 26.7458 108.29 28.334 109.193 29.5731C110.105 30.8122 111.061 31.7546 111.938 32.3872C112.156 32.5443 112.343 32.7232 112.553 32.841C112.758 32.9675 112.945 33.0853 113.124 33.1944C113.303 33.3035 113.46 33.4082 113.617 33.4954C113.774 33.574 113.918 33.6394 114.045 33.7049C114.298 33.827 114.494 33.9187 114.63 33.9841C114.756 34.0147 114.826 34.0452 114.826 34.0452C114.826 34.0452 114.76 34.0059 114.634 33.9405C114.499 33.8707 114.307 33.7747 114.058 33.6482C113.931 33.5827 113.788 33.5129 113.635 33.4344C113.482 33.3471 113.325 33.238 113.146 33.129C112.972 33.0155 112.784 32.8977 112.579 32.7712C112.374 32.649 112.186 32.4745 111.968 32.3131C111.1 31.6761 110.157 30.7293 109.259 29.4989C108.369 28.2598 107.561 26.6803 107.108 24.813C107.051 24.5774 106.999 24.3418 106.942 24.1018C106.898 23.8575 106.872 23.6131 106.837 23.3644C106.811 23.1157 106.754 22.8627 106.75 22.6053C106.741 22.3478 106.732 22.0904 106.719 21.8286C106.724 21.6192 106.724 21.2789 106.728 21.0738C106.728 21.0607 106.728 21.0476 106.732 21.0346C106.75 20.7684 106.763 20.4979 106.78 20.2274C106.807 19.9569 106.863 19.6864 106.903 19.4115C106.955 19.141 106.972 18.8574 107.06 18.5869C107.208 18.0415 107.33 17.4787 107.557 16.9376C107.662 16.6671 107.753 16.3835 107.876 16.1174C108.054 15.7552 108.238 15.3844 108.421 15.0135C108.438 14.9786 108.456 14.9437 108.478 14.9088C108.561 14.7823 108.639 14.6514 108.722 14.5205C108.888 14.2631 109.041 13.9969 109.219 13.7439C109.608 13.2596 109.961 12.7404 110.424 12.2997C110.842 11.8198 111.344 11.4184 111.837 10.9908C112.095 10.7901 112.365 10.6112 112.636 10.4192C112.771 10.3276 112.902 10.2229 113.046 10.14L113.478 9.89566C114.041 9.54226 114.664 9.2892 115.284 9.00996C115.607 8.90089 115.93 8.79181 116.253 8.68273L116.497 8.59983L116.746 8.53875L117.247 8.42095L117.754 8.30315L118.268 8.22897L118.788 8.15917L119.049 8.12426L119.311 8.11117C119.865 8.11553 120.764 8.1199 121.318 8.12426C121.357 8.12862 121.392 8.12862 121.432 8.13299C122.85 8.26824 124.268 8.62601 125.62 9.19321C126.955 9.79531 128.186 10.585 129.25 11.5318C129.281 11.5624 129.311 11.5929 129.346 11.6234C129.721 12.0205 130.337 12.6706 130.716 13.0676L130.886 13.2683L131.039 13.4821L131.34 13.9097L131.641 14.3373L131.899 14.7867L132.156 15.236L132.283 15.4586L132.387 15.6942C132.527 16.0039 132.666 16.3181 132.806 16.6235C133.024 17.2649 133.264 17.8931 133.391 18.5476L133.504 19.0319C133.543 19.1933 133.552 19.3591 133.578 19.5206C133.618 19.8478 133.674 20.1707 133.705 20.4935C133.731 21.1436 133.779 21.785 133.714 22.4176C133.705 23.0546 133.57 23.6698 133.482 24.2807C133.421 24.5817 133.33 24.8784 133.255 25.1751C133.216 25.3234 133.177 25.4718 133.138 25.6158C133.129 25.655 133.116 25.6943 133.103 25.7292C132.959 26.1175 132.815 26.5015 132.671 26.881C132.557 27.1559 132.413 27.4133 132.287 27.6751C132.051 28.2118 131.72 28.683 131.423 29.1629C131.283 29.4116 131.091 29.6167 130.926 29.8392C130.751 30.0574 130.594 30.2799 130.411 30.4849C130.223 30.6813 130.036 30.8776 129.852 31.0739C129.761 31.1699 129.669 31.2659 129.577 31.3619C129.569 31.3706 129.56 31.3794 129.551 31.3881C129.259 31.6411 128.975 31.8898 128.692 32.1342C128.5 32.3087 128.282 32.4352 128.081 32.5879C127.876 32.7319 127.675 32.8803 127.47 33.0155C127.256 33.1377 127.047 33.2598 126.837 33.3776C125.162 34.3244 123.456 34.8131 121.942 35.0051C120.428 35.1927 119.093 35.149 118.033 34.9483C117.767 34.9004 117.514 34.8829 117.282 34.8175C117.051 34.7564 116.833 34.704 116.632 34.6517C116.432 34.5993 116.244 34.5557 116.078 34.5033C115.912 34.4422 115.764 34.3899 115.633 34.3375C115.371 34.2415 115.166 34.1674 115.027 34.1194C114.9 34.067 114.826 34.0452 114.826 34.0452Z" fill="#263238"/>
<path d="M109.407 39.9547C107.784 39.6406 107.055 37.7906 108.028 36.4555C108.517 35.7836 109.381 35.4433 110.197 35.6004C111.82 35.9145 112.548 37.7645 111.575 39.0996C111.087 39.7715 110.223 40.1118 109.407 39.9547Z" fill="white"/>
<path d="M108.919 39.8021C108.915 39.8065 108.958 39.8283 109.046 39.8676C109.129 39.9068 109.264 39.9505 109.438 39.9854C109.783 40.0552 110.337 40.0596 110.909 39.7498C111.188 39.5971 111.472 39.3658 111.685 39.0517C111.895 38.7375 112.056 38.3449 112.078 37.9173C112.109 37.4897 112.013 37.0272 111.777 36.6258C111.546 36.2157 111.166 35.8797 110.712 35.6747C110.254 35.4783 109.748 35.4347 109.294 35.5438C108.836 35.6441 108.435 35.8928 108.143 36.207C107.841 36.5167 107.667 36.9007 107.58 37.2716C107.497 37.6424 107.519 38.0089 107.601 38.3187C107.767 38.947 108.151 39.3484 108.435 39.5534C108.579 39.6581 108.701 39.7236 108.788 39.7585C108.871 39.7934 108.919 39.8109 108.919 39.8021C108.928 39.7847 108.745 39.7149 108.47 39.4967C108.204 39.2829 107.85 38.8859 107.711 38.2882C107.641 37.9915 107.623 37.6468 107.711 37.2977C107.798 36.9531 107.968 36.5953 108.247 36.3073C108.522 36.015 108.897 35.7925 109.325 35.6965C109.748 35.5961 110.219 35.6398 110.643 35.8187C111.066 36.0063 111.415 36.3204 111.633 36.7C111.855 37.0752 111.947 37.5028 111.925 37.9042C111.908 38.3056 111.764 38.6721 111.568 38.9732C111.371 39.2742 111.109 39.4967 110.848 39.6494C110.311 39.9548 109.783 39.9679 109.443 39.9199C109.107 39.8719 108.928 39.789 108.919 39.8021Z" fill="#263238"/>
<path d="M116.397 19.3004H118.452C118.452 19.3004 118.452 17.5727 120.245 17.5421C121.179 17.5247 121.659 18.1355 121.855 18.6023C122.082 19.1434 122.012 19.7629 121.707 20.269C121.358 20.845 120.594 21.3685 119.207 21.1242V25.7578H121.24V23.0439C121.24 23.0439 124.093 22.3066 124.093 19.1652C124.093 16.159 121.397 15.4609 120.245 15.4609C119.364 15.4609 116.358 15.6704 116.397 19.3004Z" fill="#263238"/>
<path d="M121.271 26.7119H119.207V28.6404H121.271V26.7119Z" fill="#263238"/>
<path d="M45.1916 141.806C45.1916 141.806 41.4655 138.306 40.0344 137.377C38.6034 136.448 35.3878 135.169 34.1879 135.056C32.9881 134.938 27.3728 136.566 27.3728 136.566C27.3728 136.566 19.0874 135.828 17.6912 136.797C16.2994 137.765 16.4128 138.773 16.9931 139.506C17.5734 140.244 19.8204 140.008 22.2986 140.047C24.7768 140.087 25.4356 140.318 25.4356 140.318L21.8361 144.153L31.1687 146.749L36.8625 146.535L38.9131 149.118L45.1916 141.806Z" fill="#FFBF9D"/>
<path d="M16.7793 133.145L17.0062 141.4L17.4076 142.425L21.4783 147.391L31.4174 146.736L23.5028 143.651L20.6886 141.514L19.6022 137.984C19.5935 137.984 19.9338 132.543 16.7793 133.145Z" fill="#FFBF9D"/>
<path d="M17.4777 142.617H15.0562C15.0562 142.617 11.8973 137.425 9.00895 139.187L9.67214 140.213C9.67214 140.213 8.37195 139.624 7.54297 140.719L15.5099 147.708H15.8764L24.3626 147.163L17.4777 142.617Z" fill="#FFBF9D"/>
<path d="M18.9246 144.197C18.9202 144.223 18.6672 144.21 18.2396 144.228C17.8164 144.254 17.1881 144.28 16.5642 144.564L16.4813 144.599L16.4289 144.525C16.1846 144.18 15.8792 143.805 15.5694 143.416C14.9237 142.622 14.3434 141.902 13.8503 141.296C13.414 140.75 13.1435 140.41 13.1697 140.393C13.1915 140.371 13.5057 140.672 13.9725 141.191C14.4437 141.71 15.072 142.443 15.7439 143.272C16.0581 143.665 16.3547 144.036 16.6034 144.407L16.4682 144.367C17.1663 144.071 17.8033 144.084 18.2352 144.093C18.6759 144.114 18.9246 144.171 18.9246 144.197Z" fill="#FF9A6C"/>
<path d="M36.1394 139.393C36.1613 139.467 34.8 139.742 33.3384 140.579C31.8724 141.408 30.943 142.438 30.8863 142.381C30.8645 142.364 31.0739 142.085 31.4753 141.692C31.8767 141.299 32.4788 140.806 33.2249 140.383C33.971 139.96 34.704 139.694 35.245 139.55C35.786 139.401 36.1307 139.367 36.1394 139.393Z" fill="#FF9A6C"/>
<path d="M28.2002 137.255C28.2438 137.303 27.6941 137.892 27.0614 138.656C26.4244 139.415 25.9358 140.061 25.8834 140.022C25.831 139.987 26.2412 139.28 26.8869 138.508C27.5326 137.735 28.1609 137.212 28.2002 137.255Z" fill="#FF9A6C"/>
<path d="M19.8986 145.348C19.8942 145.352 19.8288 145.287 19.7066 145.16C19.5714 145.012 19.4056 144.824 19.1961 144.589C18.9693 144.331 18.7031 144.026 18.3977 143.677C18.2406 143.498 18.0748 143.306 17.9003 143.105C17.7258 142.904 17.5294 142.691 17.3636 142.433C17.0321 141.923 16.8008 141.264 16.7965 140.544C16.7834 139.842 16.7703 139.091 16.7528 138.301C16.7266 136.718 16.6961 134.981 16.6699 133.149V133.048L16.7659 133.035C16.8488 133.022 16.9404 133.013 17.0277 133C17.6123 132.935 18.2406 133.14 18.6333 133.572C19.0303 133.991 19.2529 134.514 19.4012 135.02C19.6892 136.05 19.7372 137.058 19.6979 137.996L19.6935 137.961C20.0949 139.3 20.4571 140.492 20.7581 141.495L20.7319 141.456C21.5871 142.123 22.2765 142.664 22.7782 143.053C23.0007 143.232 23.1796 143.376 23.3192 143.489C23.4414 143.589 23.5025 143.646 23.4981 143.65C23.4937 143.655 23.4239 143.611 23.293 143.52C23.1447 143.415 22.9571 143.28 22.7258 143.114C22.2154 142.734 21.5086 142.215 20.6359 141.569L20.6185 141.556L20.6098 141.53C20.2956 140.531 19.9204 139.344 19.4972 138.009L19.4928 137.992V137.97C19.519 137.062 19.4666 136.054 19.183 135.068C19.0391 134.58 18.8209 134.091 18.4631 133.711C18.1097 133.332 17.5774 133.157 17.0408 133.21C16.9579 133.223 16.875 133.231 16.8008 133.245L16.8924 133.131C16.9143 134.959 16.9361 136.696 16.9579 138.284C17.0233 139.85 16.779 141.347 17.4945 142.337C17.6472 142.586 17.8349 142.791 18.0094 143C18.1795 143.205 18.341 143.402 18.4937 143.585C18.7904 143.947 19.0478 144.257 19.2659 144.523C19.4623 144.767 19.6193 144.968 19.7459 145.121C19.8506 145.269 19.9073 145.343 19.8986 145.348Z" fill="#FF9A6C"/>
<path d="M15.8807 147.705C15.8851 147.718 15.7106 147.727 15.4575 147.583C15.2045 147.448 14.8816 147.19 14.5238 146.837C13.8039 146.13 12.9269 145.052 12.0281 143.818C11.1294 142.583 10.3658 141.427 9.82917 140.585C9.56302 140.161 9.34923 139.817 9.20961 139.572C9.07 139.328 9.00019 139.193 9.01328 139.184C9.02636 139.175 9.12235 139.297 9.28378 139.524C9.4714 139.795 9.69827 140.118 9.96006 140.493C10.5273 141.313 11.3126 142.452 12.2114 143.682C13.1102 144.913 13.9566 145.999 14.6373 146.723C14.9776 147.086 15.2743 147.356 15.5011 147.504C15.728 147.666 15.8807 147.688 15.8807 147.705Z" fill="#FF9A6C"/>
<path d="M30.3793 142.377L25.9945 142.08L24.6855 138.485L24.4456 136.068C24.3278 134.886 23.3417 133.956 22.155 133.974C22.1419 133.974 22.1288 133.974 22.1113 133.974L22.3557 139.895L23.2545 143.573L26.8191 145.676H31.1778L30.3793 142.377Z" fill="#FFBF9D"/>
<path d="M30.3774 142.377L25.9925 142.08L24.6836 138.485L24.4436 136.068C24.3258 134.886 23.3398 133.956 22.153 133.974C22.1399 133.974 22.1268 133.974 22.1094 133.974L22.3537 139.895L23.2525 143.573L26.8171 145.676" fill="#FFBF9D"/>
<path d="M26.8123 145.679C26.808 145.688 26.7207 145.645 26.5549 145.553C26.3717 145.448 26.1317 145.317 25.8394 145.156C25.198 144.785 24.3036 144.275 23.2084 143.646L23.1779 143.629L23.1692 143.594C22.903 142.538 22.5932 141.295 22.2486 139.92L22.2442 139.911V139.903C22.1657 138.123 22.0784 136.107 21.9868 133.982L21.9824 133.869L22.0959 133.864C22.1351 133.864 22.1788 133.864 22.2224 133.864C23.3262 133.873 24.2643 134.733 24.4825 135.714C24.5435 135.963 24.5566 136.207 24.5784 136.438C24.6003 136.674 24.6221 136.905 24.6482 137.137C24.6919 137.595 24.7355 138.044 24.7791 138.476L24.7748 138.45C25.2547 139.789 25.691 140.998 26.0662 142.049L25.9964 141.997C27.3272 142.102 28.4179 142.189 29.2033 142.25C29.5611 142.285 29.849 142.311 30.0759 142.333C30.2766 142.355 30.3769 142.368 30.3769 142.377C30.3769 142.385 30.2722 142.385 30.0715 142.381C29.849 142.372 29.5567 142.359 29.1989 142.346C28.4136 142.302 27.3228 142.241 25.9877 142.167L25.9354 142.163L25.9179 142.11C25.5296 141.063 25.0802 139.859 24.5872 138.524L24.5828 138.511V138.498C24.5392 138.062 24.4912 137.616 24.4432 137.158C24.4214 136.927 24.3952 136.696 24.3734 136.465C24.3472 136.229 24.3341 135.993 24.2774 135.771C24.0767 134.876 23.2215 134.1 22.2311 134.095C22.1918 134.095 22.1526 134.091 22.1133 134.095L22.2224 133.978C22.3053 136.107 22.3882 138.118 22.458 139.898L22.4536 139.877C22.7809 141.255 23.0819 142.503 23.335 143.559L23.2957 143.511C24.3734 144.165 25.2547 144.698 25.8874 145.082C26.1753 145.261 26.4022 145.405 26.5811 145.518C26.7382 145.614 26.8167 145.671 26.8123 145.679Z" fill="#FF9A6C"/>
<path d="M124.304 72.5116C120.543 58.1877 117.074 41.5164 96.1315 43.0173C96.1315 43.0173 83.2256 45.4999 77.0955 55.0245C73.4916 60.6266 70.3676 84.7805 69.7437 103.856C69.7437 103.86 69.7437 103.865 69.7437 103.865C69.7175 104.641 70.0404 110.056 70.0186 110.815L125.456 115.431H135.443C135.443 115.431 134.814 105.309 131.808 95.4962C128.885 85.9455 125.634 77.5815 124.304 72.5116Z" fill="#263238"/>
<path d="M93.3471 48.4754L94.656 47.2275L108.814 52.9344C110.865 53.0479 112.483 54.7102 112.545 56.7608L112.418 102.896C112.435 106.024 111.807 108.734 109.922 111.229L107.933 113.856C103.4 119.842 94.0714 119.349 90.4806 112.752C90.2275 112.289 90.0574 111.888 89.9788 111.561C89.9047 111.151 89.7912 110.88 89.7694 110.531C89.3462 106.818 89.3244 103.603 89.3244 103.603C89.0713 99.5275 88.9884 97.8565 88.9884 97.8914C88.9884 97.8914 80.3146 96.8966 77.9717 85.7621C76.8067 80.2253 77.0249 72.6075 77.3521 65.1117C77.8103 54.732 85.0093 48.4623 93.3471 48.4754Z" fill="#FFBF9D"/>
<path d="M96.9923 72.5078C97.0054 73.2713 97.6555 73.8865 98.4539 73.8909C99.248 73.8952 99.885 73.28 99.8719 72.5209C99.8588 71.7617 99.2043 71.1422 98.4146 71.1378C97.6162 71.1291 96.9836 71.7443 96.9923 72.5078Z" fill="#263238"/>
<path d="M82.2092 72.8915C82.2223 73.655 82.8724 74.2702 83.6708 74.2746C84.4649 74.279 85.1019 73.6638 85.0888 72.9046C85.0757 72.1454 84.4213 71.5259 83.6315 71.5215C82.8331 71.5171 82.1961 72.1323 82.2092 72.8915Z" fill="#263238"/>
<path d="M78.8406 68.0706C79.0282 68.2495 80.0797 67.39 81.6286 67.3158C83.1731 67.2198 84.3512 67.9615 84.5082 67.7608C84.5868 67.6736 84.3861 67.342 83.8756 67.006C83.3695 66.6701 82.523 66.3647 81.5588 66.417C80.5946 66.4694 79.8005 66.8664 79.3511 67.2547C78.893 67.643 78.749 67.9921 78.8406 68.0706Z" fill="#263238"/>
<path d="M94.1985 67.5414C94.4036 67.6985 95.3635 66.7342 96.8949 66.503C98.422 66.2499 99.6698 66.8651 99.8051 66.6513C99.8749 66.5554 99.6436 66.2499 99.0982 65.9663C98.5616 65.6871 97.6846 65.4689 96.7335 65.6173C95.778 65.77 95.0319 66.2456 94.6261 66.6775C94.2116 67.1095 94.1025 67.4716 94.1985 67.5414Z" fill="#263238"/>
<path d="M89.1466 79.5011C89.151 79.4138 88.178 79.296 86.6073 79.1739C86.2103 79.152 85.8307 79.091 85.7521 78.8248C85.6431 78.5456 85.787 78.1093 85.9572 77.6381C86.2801 76.6607 86.6204 75.6398 86.9738 74.5665C88.3831 70.199 89.3822 66.6126 89.2033 66.5603C89.0288 66.5035 87.7417 70.0027 86.3324 74.3701C85.9965 75.4478 85.6692 76.4731 85.3638 77.4548C85.2373 77.9129 85.0061 78.4365 85.2373 79.0168C85.3595 79.3091 85.6605 79.5054 85.9179 79.5622C86.1753 79.6276 86.3979 79.6189 86.5942 79.6232C88.1693 79.632 89.1422 79.5927 89.1466 79.5011Z" fill="#263238"/>
<path d="M88.9922 97.8822C88.9922 97.8822 96.5665 97.9912 103.818 93.1221C103.818 93.1221 100.428 101.08 89.1449 100.592L88.9922 97.8822Z" fill="#FF9A6C"/>
<path d="M93.9852 82.6514C93.5489 82.1235 92.8552 81.8355 92.1789 81.7962C91.2059 81.7395 90.5209 81.8617 89.9974 82.6296C89.753 83.0528 89.7749 83.7029 89.8883 83.8818C90.0017 84.0606 89.9188 84.065 90.089 84.1915C90.7173 84.6453 91.4416 84.9376 92.192 85.1121C92.9425 85.2867 93.8063 85.1078 94.1946 84.497C94.5437 83.9516 94.4215 83.1793 93.9852 82.6514Z" fill="#FF9A6C"/>
<path d="M93.8278 60.4303C94.0285 60.8274 95.3592 60.4216 96.9998 60.3911C98.6359 60.3256 100.01 60.6528 100.167 60.2471C100.233 60.0551 99.9492 59.6973 99.3645 59.3745C98.7842 59.0516 97.8985 58.7942 96.9169 58.8247C95.9352 58.8553 95.08 59.1607 94.539 59.5185C93.9849 59.8675 93.7406 60.2384 93.8278 60.4303Z" fill="#263238"/>
<path d="M79.062 65.2691C79.35 65.605 80.4015 65.1905 81.6842 65.1076C82.9626 64.9811 84.0665 65.2254 84.2977 64.8458C84.3981 64.6626 84.2104 64.3179 83.7174 64.0081C83.2331 63.6984 82.439 63.4671 81.5577 63.5369C80.6764 63.6111 79.9303 63.9645 79.5027 64.3485C79.062 64.7324 78.9311 65.1033 79.062 65.2691Z" fill="#263238"/>
<path d="M112.268 76.4468C112.268 76.4468 106.308 77.8866 97.8481 59.6708C94.9684 53.4709 89.375 47.223 89.375 47.223L94.6238 46.4639C94.6238 46.4639 110.265 50.8706 110.527 51.0669C110.789 51.2632 114.471 59.156 114.471 59.156L112.268 76.4468Z" fill="#263238"/>
<path d="M110.312 75.7179C110.273 74.8802 111.141 72.8645 111.957 72.6943C114.143 72.2406 118.126 72.2188 118.44 77.8122C118.872 85.4607 111.106 84.3175 111.08 84.0994C111.062 83.9292 110.451 78.6019 110.312 75.7179Z" fill="#FFBF9D"/>
<path d="M113.256 81.0678C113.287 81.0416 113.396 81.155 113.627 81.2423C113.854 81.3295 114.234 81.3775 114.626 81.2074C115.416 80.8671 116.027 79.5451 115.983 78.162C115.961 77.4639 115.778 76.8094 115.503 76.2771C115.237 75.7317 114.853 75.3609 114.443 75.3129C114.033 75.2431 113.758 75.5005 113.68 75.723C113.588 75.9412 113.645 76.0939 113.605 76.107C113.584 76.1288 113.435 75.9892 113.479 75.6707C113.501 75.518 113.579 75.3303 113.754 75.1733C113.928 75.0118 114.194 74.9202 114.478 74.9377C115.071 74.9464 115.63 75.4569 115.935 76.0459C116.271 76.6349 116.494 77.3679 116.52 78.1532C116.559 79.6978 115.852 81.1856 114.762 81.5651C114.234 81.7353 113.776 81.6001 113.531 81.4299C113.278 81.2554 113.23 81.0852 113.256 81.0678Z" fill="#FF9A6C"/>
<path d="M94.9711 82.9603C94.9493 83.1566 93.6403 83.1261 92.0915 83.4271C90.5382 83.7107 89.3296 84.2125 89.238 84.0379C89.142 83.8852 90.2895 83.065 91.9649 82.7552C93.6403 82.4367 95.006 82.7857 94.9711 82.9603Z" fill="#263238"/>
<path d="M154.744 142.233C154.744 142.233 161.149 136.744 163.008 136.6C164.862 136.452 169.749 137.36 169.749 137.36C169.749 137.36 172.833 137.386 174.365 137.194C176.673 136.906 178.252 137.146 179.177 137.429C179.64 137.569 180.216 138.721 178.859 139.502C178.283 139.833 172.681 140.213 172.681 140.213L186.695 144.218L184.875 145.719C184.635 145.92 184.334 146.033 184.02 146.042L163.841 146.758L162.916 149.013L154.744 142.233Z" fill="#FFBF9D"/>
<path d="M170.041 142.238H176.586C176.586 142.238 178.881 139.188 179.714 137.919C180.438 136.806 181.315 136.483 182.079 136.745C182.275 136.815 182.441 136.963 182.541 137.142C182.694 137.412 182.698 137.744 182.554 138.015L179.675 143.385L181.184 142.875C181.184 142.875 184.208 139.917 184.793 139.232C185.377 138.547 187.528 135.667 189.435 137.766L186.795 140.698L189.435 138.844C189.435 138.844 191.533 137.037 192.659 139.184L184.814 145.798" fill="#FFBF9D"/>
<path d="M163.227 139.528C163.222 139.519 163.314 139.488 163.488 139.436C163.663 139.388 163.916 139.288 164.265 139.257C164.95 139.139 165.997 139.161 167.206 139.563C167.808 139.768 168.445 140.051 169.095 140.431C169.418 140.623 169.745 140.828 170.077 141.059C170.238 141.177 170.404 141.295 170.574 141.413C170.731 141.526 170.928 141.674 171.058 141.744C172.716 141.875 174.61 141.984 176.595 142.124L176.503 142.163C177.114 141.434 177.721 140.645 178.305 139.816C178.532 139.493 178.75 139.17 178.964 138.847C179.174 138.524 179.374 138.188 179.61 137.878C179.841 137.569 180.09 137.272 180.382 137.023C180.526 136.897 180.688 136.783 180.858 136.696C181.037 136.613 181.211 136.53 181.46 136.565L181.421 136.561C181.765 136.526 182.162 136.565 182.455 136.809C182.747 137.063 182.826 137.446 182.799 137.787V137.804L182.791 137.822C181.543 140.056 180.461 142.002 179.619 143.511L179.623 143.494C179.431 144.139 178.916 144.515 178.467 144.715C178.004 144.916 177.572 144.955 177.232 144.977C176.892 144.995 176.626 144.977 176.451 144.968C176.272 144.96 176.181 144.947 176.181 144.942C176.181 144.934 176.272 144.929 176.451 144.929C176.63 144.925 176.892 144.925 177.228 144.899C177.564 144.868 177.983 144.816 178.419 144.611C178.842 144.41 179.322 144.039 179.479 143.454L179.483 143.446L179.488 143.437C180.312 141.919 181.381 139.964 182.603 137.713L182.59 137.752C182.612 137.473 182.538 137.145 182.315 136.962C182.097 136.779 181.765 136.735 181.442 136.77H181.434L181.403 136.766C181.29 136.748 181.102 136.805 180.958 136.884C180.805 136.967 180.661 137.063 180.526 137.185C180.256 137.42 180.016 137.704 179.793 138.005C179.361 138.611 178.96 139.296 178.497 139.938C177.908 140.771 177.302 141.565 176.678 142.298L176.643 142.342L176.586 142.337C174.588 142.189 172.729 142.076 171.019 141.927C170.77 141.81 170.644 141.683 170.469 141.561C170.304 141.439 170.142 141.321 169.981 141.203C169.658 140.972 169.335 140.762 169.016 140.57C168.379 140.191 167.756 139.899 167.171 139.689C165.993 139.275 164.968 139.235 164.287 139.323C163.942 139.34 163.685 139.427 163.51 139.462C163.323 139.515 163.231 139.532 163.227 139.528Z" fill="#FF9A6C"/>
<path d="M189.43 137.775C189.443 137.784 189.352 137.915 189.173 138.133C188.998 138.355 188.736 138.669 188.414 139.058C187.763 139.834 186.856 140.89 185.844 142.051C184.814 143.194 183.954 144.311 183.2 145C182.829 145.349 182.502 145.602 182.257 145.751C182.013 145.899 181.86 145.947 181.856 145.938C181.847 145.921 181.987 145.847 182.209 145.681C182.432 145.515 182.737 145.244 183.091 144.887C183.806 144.18 184.635 143.059 185.669 141.907C186.686 140.746 187.615 139.699 188.296 138.953C188.636 138.578 188.915 138.277 189.112 138.076C189.304 137.871 189.421 137.766 189.43 137.775Z" fill="#FF9A6C"/>
<path d="M185.842 138.079C185.863 138.101 185.558 138.459 185.048 139.013C184.537 139.571 183.817 140.331 183.014 141.155C182.356 141.836 181.74 142.455 181.252 142.94L181.234 142.957L181.217 142.961C180.244 143.267 179.607 143.433 179.594 143.38C179.594 143.367 179.742 143.31 180.013 143.206C180.344 143.084 180.724 142.944 181.156 142.787L181.121 142.809C181.592 142.303 182.194 141.67 182.853 140.994C183.656 140.165 184.393 139.423 184.934 138.895C185.475 138.376 185.82 138.057 185.842 138.079Z" fill="#FF9A6C"/>
<path d="M133.031 109.676C133.031 109.676 142.438 112.102 143.363 124.885C143.886 132.172 140.012 155.571 140.012 155.571L153.904 141.304L166.286 149.916C166.286 149.916 149.445 170.51 145.557 173.608C141.67 176.705 135.479 181.684 133.463 181.278C131.447 180.872 131.447 171.588 131.447 171.588V120.304L133.031 109.676Z" fill="#462682"/>
<path d="M65.403 111.243C65.403 111.243 57.0346 113.996 57.3749 130.34C57.7153 146.689 57.4491 152.19 57.4491 152.19L44.9053 138.918L34.4863 150.41C34.4863 150.41 46.1444 167.727 54.299 176.144C61.9867 184.076 68.8192 177.186 71.04 171.61C72.8376 167.095 74.2861 149.922 74.2861 149.922L65.403 111.243Z" fill="#462682"/>
<g opacity="0.3">
<path d="M133.761 139.127C134.516 134.345 134.717 129.131 132.535 124.737C127.173 137.997 127.413 153.215 129.333 167.26L133.583 179.411C136.261 171.269 133.713 162.596 133.775 154.088C133.809 149.258 133.007 143.913 133.761 139.127Z" fill="black"/>
</g>
<path d="M63.6621 121.653C63.6621 121.653 69.2556 159.28 70.342 162.578C71.424 165.872 71.424 175.584 71.424 175.584C71.424 175.584 65.5513 186.514 65.1892 194.114L135.901 194.258L131.307 163.036C131.15 161.871 131.137 158.281 131.202 157.107C131.499 151.609 131.927 139.812 133.502 132.56C135.334 124.131 132.869 109.707 132.869 109.707L111.747 104.506C106.747 111.692 94.2733 111.788 89.3562 104.506L65.5164 111.247L63.6621 121.653Z" fill="#462682"/>
<path d="M132.697 161.541C132.684 161.532 132.762 161.414 132.906 161.205C133.055 160.995 133.277 160.703 133.556 160.349C134.123 159.643 134.931 158.665 135.982 157.749C137.038 156.833 138.151 156.205 138.975 155.825C139.39 155.637 139.734 155.502 139.974 155.419C140.214 155.336 140.35 155.297 140.354 155.31C140.402 155.397 138.212 156.104 136.126 157.915C135.088 158.814 134.272 159.765 133.674 160.445C133.089 161.135 132.723 161.562 132.697 161.541Z" fill="#263238"/>
<path d="M67.2148 160.741C67.1712 160.754 67.0097 159.977 66.4731 158.825C65.9451 157.682 64.9853 156.177 63.5149 154.929C62.0446 153.681 60.3997 152.974 59.1868 152.643C57.9651 152.302 57.171 152.267 57.1798 152.224C57.1798 152.211 57.3805 152.206 57.7339 152.237C58.0916 152.263 58.6065 152.337 59.2304 152.49C60.4739 152.787 62.158 153.48 63.6633 154.759C65.1685 156.033 66.1284 157.586 66.6214 158.764C66.8745 159.353 67.0272 159.85 67.1144 160.2C67.2017 160.544 67.2279 160.741 67.2148 160.741Z" fill="#263238"/>
<path d="M67.6688 140.352C67.66 140.365 67.5466 140.304 67.3503 140.178C67.1496 140.055 66.8747 139.863 66.5387 139.61C65.8668 139.109 64.9899 138.354 64.1085 137.429C63.2315 136.499 62.516 135.596 62.0142 134.924C61.5169 134.257 61.2333 133.825 61.2551 133.807C61.2813 133.786 61.6128 134.183 62.1408 134.824C62.6731 135.465 63.4017 136.351 64.2743 137.267C65.1426 138.188 65.9977 138.952 66.6391 139.479C67.2761 140.016 67.6862 140.322 67.6688 140.352Z" fill="#263238"/>
<path d="M117.028 160.719C117.033 160.723 117.011 160.749 116.972 160.806C116.919 160.871 116.858 160.95 116.784 161.046C116.614 161.251 116.382 161.574 116.038 161.949C115.379 162.721 114.354 163.782 112.975 164.973C111.601 166.168 109.855 167.46 107.813 168.729C105.776 170.003 103.437 171.251 100.942 172.451C98.4372 173.646 96.0201 174.707 93.8342 175.688C91.644 176.67 89.6849 177.578 88.0663 178.394C86.4432 179.205 85.1561 179.907 84.2748 180.414C83.8297 180.658 83.4981 180.867 83.2625 180.998C83.1578 181.059 83.0706 181.107 82.9964 181.147C82.9353 181.177 82.9048 181.195 82.9004 181.19C82.9004 181.186 82.9266 181.164 82.9833 181.125C83.0531 181.081 83.136 181.024 83.2363 180.955C83.4632 180.811 83.7905 180.592 84.2268 180.331C85.095 179.798 86.3734 179.074 87.9877 178.241C89.602 177.407 91.5567 176.482 93.7426 175.488C95.9285 174.493 98.3413 173.428 100.841 172.237C103.337 171.042 105.667 169.803 107.704 168.546C109.742 167.29 111.492 166.016 112.87 164.842C114.253 163.673 115.292 162.63 115.968 161.879C116.321 161.513 116.561 161.203 116.745 161.007C116.828 160.915 116.893 160.841 116.95 160.78C117.002 160.741 117.028 160.719 117.028 160.719Z" fill="#263238"/>
<path d="M65.349 193.52C65.3446 193.52 65.3446 193.49 65.349 193.429C65.3533 193.359 65.3577 193.267 65.3621 193.154C65.3795 192.901 65.4013 192.547 65.4275 192.089C65.554 191.169 65.746 189.812 66.2259 188.158C67.1378 184.838 68.9354 180.261 71.671 175.178L71.658 175.235C71.3787 171.142 70.9511 166.57 70.4625 161.757C69.5288 152.678 68.5515 144.471 67.8359 138.533C67.4781 135.575 67.1858 133.175 66.9808 131.499C66.8848 130.679 66.8062 130.038 66.7539 129.588C66.7321 129.379 66.7146 129.213 66.7015 129.091C66.6884 128.978 66.6884 128.921 66.6928 128.921C66.6972 128.921 66.7103 128.978 66.7277 129.087C66.7452 129.209 66.7713 129.375 66.8062 129.58C66.8717 130.029 66.9589 130.67 67.0767 131.486C67.2949 133.157 67.6134 135.553 68.0017 138.511C68.7565 144.445 69.76 152.652 70.6937 161.735C71.1824 166.548 71.6012 171.12 71.8674 175.222V175.252L71.8543 175.278C69.1143 180.335 67.2949 184.89 66.3481 188.189C65.8551 189.834 65.6413 191.182 65.4973 192.098C65.4537 192.552 65.4231 192.905 65.397 193.154C65.3839 193.267 65.3752 193.355 65.3664 193.424C65.3577 193.49 65.3533 193.52 65.349 193.52Z" fill="#263238"/>
<path d="M134.369 122.529C134.374 122.529 134.378 122.59 134.378 122.717C134.378 122.852 134.378 123.031 134.378 123.262C134.374 123.742 134.387 124.453 134.339 125.365C134.287 127.193 134.099 129.833 133.776 133.088C133.458 136.343 132.982 140.204 132.506 144.497C132.031 148.791 131.555 153.516 131.403 158.498C131.241 163.481 131.73 168.219 132.367 172.486C132.995 176.758 133.737 180.58 134.308 183.795C134.893 187.011 135.325 189.62 135.565 191.435C135.696 192.338 135.77 193.045 135.822 193.525C135.844 193.756 135.866 193.935 135.879 194.07C135.892 194.193 135.896 194.258 135.892 194.258C135.888 194.258 135.875 194.197 135.857 194.075C135.84 193.944 135.814 193.765 135.779 193.534C135.713 193.058 135.622 192.356 135.478 191.453C135.207 189.646 134.753 187.041 134.151 183.83C133.558 180.619 132.799 176.797 132.157 172.521C131.507 168.25 131.01 163.494 131.171 158.498C131.324 153.507 131.804 148.773 132.293 144.48C132.781 140.187 133.27 136.325 133.61 133.079C133.955 129.829 134.169 127.193 134.243 125.37C134.3 124.458 134.304 123.747 134.321 123.267C134.33 123.035 134.339 122.852 134.343 122.721C134.361 122.595 134.365 122.529 134.369 122.529Z" fill="#263238"/>
<g opacity="0.3">
<path d="M66.9004 130.593C65.6395 142.417 67.1491 155.022 71.0017 166.274L66.9004 130.593Z" fill="black"/>
</g>
<g opacity="0.3">
<path d="M110.64 172.281C105.282 177.202 99.907 181.408 93.3145 183.751C98.284 184.175 103.297 182.272 107.137 179.096C110.976 175.915 113.712 172.564 115.47 167.9L110.64 172.281Z" fill="black"/>
</g>
<path d="M104.534 177.701C104.49 177.653 107.823 174.594 111.977 170.872C116.131 167.146 119.534 164.166 119.573 164.214C119.617 164.262 116.283 167.317 112.13 171.043C107.976 174.769 104.577 177.749 104.534 177.701Z" fill="#263238"/>
<path d="M116.385 85.3655C116.385 86.8751 115.159 88.1012 113.65 88.1012C112.14 88.1012 110.914 86.8795 110.914 85.3655C110.914 83.8559 112.136 82.6299 113.65 82.6299C115.164 82.6299 116.385 83.8515 116.385 85.3655Z" fill="#455A64"/>
<path d="M132.662 121.29C131.855 114.606 131.052 107.926 130.245 101.242L112.945 96.0195C112.609 107.957 110.519 121.365 107.518 132.922C113.892 134.99 120.703 135.697 127.369 134.99C127.666 131.762 127.959 128.533 128.255 125.304C128.687 127.739 129.119 130.174 129.551 132.604C131.366 131.587 132.435 129.558 132.801 127.512C133.159 125.461 132.911 123.358 132.662 121.29Z" fill="#263238"/>
<path d="M119.123 135.042C119.123 135.042 119.136 134.955 119.175 134.789C119.215 134.615 119.271 134.37 119.346 134.056C119.498 133.402 119.725 132.451 120.013 131.233C120.58 128.777 121.418 125.23 122.234 120.801C123.054 116.377 123.853 111.063 124.119 105.116C124.381 99.1823 124.018 92.5854 122.374 85.9142C120.755 79.2431 117.923 73.2134 114.354 68.462C113.9 67.873 113.473 67.2752 112.989 66.7386C112.513 66.1932 112.068 65.6304 111.575 65.1286C111.335 64.8712 111.095 64.6181 110.855 64.3651C110.611 64.1208 110.366 63.8764 110.122 63.6365C109.642 63.1478 109.145 62.6984 108.665 62.2446C106.723 60.4471 104.825 58.8676 103.128 57.3842C101.431 55.9051 99.9125 54.5351 98.6603 53.2567C98.3418 52.9426 98.0539 52.6197 97.7659 52.3187C97.4779 52.0176 97.2074 51.7209 96.9631 51.4286C96.7144 51.1363 96.4744 50.8614 96.2432 50.5953C96.0294 50.3204 95.8243 50.0586 95.628 49.8099C95.2266 49.3213 94.9256 48.8501 94.6463 48.453C94.3627 48.0603 94.1489 47.7069 93.9831 47.419C93.8173 47.1397 93.6908 46.9216 93.5992 46.7689C93.5119 46.6205 93.4727 46.542 93.4727 46.542C93.4727 46.542 93.525 46.6118 93.6166 46.7558C93.7126 46.9085 93.8479 47.1179 94.0224 47.3928C94.1969 47.6764 94.4151 48.0211 94.703 48.4094C94.9866 48.8021 95.2964 49.2689 95.7022 49.7488C95.8985 49.9932 96.1079 50.255 96.3217 50.5255C96.553 50.7873 96.7929 51.0621 97.046 51.3501C97.2947 51.6424 97.5652 51.9347 97.8532 52.2314C98.1411 52.5281 98.4335 52.851 98.752 53.1608C100.013 54.4304 101.531 55.7873 103.233 57.2577C104.934 58.7324 106.837 60.3031 108.791 62.1007C109.276 62.5544 109.777 63.0038 110.257 63.4925C110.502 63.7324 110.746 63.9768 110.995 64.2211C111.235 64.4742 111.475 64.7272 111.719 64.9846C112.216 65.4864 112.666 66.0492 113.141 66.599C113.63 67.14 114.062 67.7377 114.516 68.3311C118.115 73.0999 120.964 79.1602 122.592 85.8532C124.241 92.5504 124.599 99.1692 124.324 105.116C124.049 111.076 123.233 116.399 122.391 120.823C121.553 125.252 120.694 128.799 120.1 131.246C119.799 132.468 119.559 133.419 119.394 134.061C119.311 134.375 119.245 134.619 119.202 134.789C119.154 134.959 119.123 135.042 119.123 135.042Z" fill="#455A64"/>
</svg>
