<svg width="234" height="150" viewBox="0 0 234 150" fill="none" xmlns="http://www.w3.org/2000/svg">
<path d="M148.439 118.088C148.54 112.83 150.479 107.802 151.48 102.639C153.44 92.532 151.494 82.5367 146.421 73.5809C148.891 79.804 148.221 86.7904 147.219 93.4115C146.216 100.033 144.921 106.803 146.256 113.365C146.481 114.47 146.811 115.617 147.615 116.406L148.439 118.088Z" fill="#5376DB"/>
<path d="M145.642 128.22C145.8 121.091 144.566 113.932 142.022 107.27C140.548 103.409 138.635 99.6964 137.628 95.6874C136.61 91.6335 136.552 87.4098 136.07 83.2578C135.907 81.8471 135.659 80.3631 134.75 79.2728C135.824 81.5023 135.439 84.3079 135.262 86.777C135.112 88.8551 134.963 90.9333 134.813 93.0119C134.489 97.5134 134.201 102.231 136.045 106.349C136.778 107.988 137.823 109.463 138.715 111.021C141.692 116.22 142.902 122.234 143.417 128.221H145.642V128.22Z" fill="#5376DB"/>
<path d="M143.939 128.22H147.573C148.275 122.471 148.05 116.639 147.769 110.848C147.672 108.835 147.566 106.806 147.075 104.852C146.563 102.816 145.646 100.908 144.936 98.9324C143.131 93.9067 142.689 88.3972 143.67 83.1474C143.962 81.5862 144.377 80.0467 144.573 78.4705C144.787 76.7573 144.74 75.0235 144.693 73.298C144.621 70.6784 144.542 68.0147 143.72 65.5263C142.441 61.6469 139.207 58.8477 136.262 56.02C139.578 59.6026 140.18 64.9455 139.714 69.8071C139.247 74.6688 137.888 79.4521 137.946 84.3359C138.004 89.324 139.536 94.1601 140.963 98.9398C143.802 108.455 146.282 118.61 143.939 128.22Z" fill="#7E85FD"/>
<path d="M152.574 128.22C152.242 120.324 155.499 112.581 158.984 105.402C159.923 103.468 160.891 101.52 161.352 99.4197C162.157 95.7567 161.035 92.0917 159.707 88.5844C161.099 93.3432 159.489 98.4902 157.097 102.833C154.705 107.175 151.535 111.075 149.429 115.562C147.882 118.86 146.937 122.439 146.653 126.071C146.598 126.78 146.574 127.513 146.661 128.219H152.574V128.22Z" fill="#5376DB"/>
<path d="M147.878 127.188C146.159 126.181 146.199 124.736 145.923 122.764C145.643 120.775 145.545 118.759 145.624 116.751C145.783 112.736 146.655 108.746 148.221 105.044C148.919 103.394 149.75 101.8 150.407 100.133C152.221 95.533 152.662 90.4168 151.774 85.5519C150.57 78.958 147.027 72.9702 145.821 66.3767C145.34 63.7492 145.281 60.879 146.638 58.579C147.879 65.1465 150.935 71.4255 154.56 77.0383C155.804 78.9639 157.151 80.8632 157.892 83.0328C158.325 84.3024 158.541 85.6386 158.643 86.9768C159.101 92.9773 157.314 98.9277 155.033 104.496C152.753 110.064 149.953 115.438 148.219 121.2C147.674 123.011 146.226 124.671 146.671 126.509C146.667 126.494 146.663 126.479 146.659 126.464" fill="#7E85FD"/>
<path d="M147.531 126.171H147.439H139.984C139.242 126.171 138.641 126.773 138.641 127.515V140.202C138.641 143.344 139.839 146.399 142.088 148.591C142.213 148.713 142.339 148.83 142.465 148.941C143.249 149.631 144.264 149.998 145.309 149.998H149.662C150.705 149.998 151.72 149.632 152.504 148.942C152.629 148.832 152.754 148.716 152.878 148.595C155.129 146.403 156.33 143.346 156.33 140.202V127.515C156.33 126.773 155.729 126.171 154.987 126.171H147.531Z" fill="#8CA4EA"/>
<path d="M50.802 90.9711H9.56774C7.96183 90.9711 6.33114 89.668 5.92533 88.0603L0.0921336 64.9506C-0.313671 63.3429 0.658921 62.0398 2.26482 62.0398H43.4991C45.105 62.0398 46.7357 63.3429 47.1415 64.9506L52.9751 88.0603C53.3805 89.668 52.4079 90.9711 50.802 90.9711Z" fill="#14142D"/>
<path fill-rule="evenodd" clip-rule="evenodd" d="M5.99219 66.8031H14.0211L16.0471 74.8295H8.01817L5.99219 66.8031ZM6.44476 67.1559L8.29262 74.4767H15.5945L13.7467 67.1559H6.44476Z" fill="white"/>
<path d="M30.2419 71.6424C29.2892 71.6424 28.4282 70.998 28.2085 70.1277C27.9888 69.2574 28.5245 68.613 29.4773 68.613C30.4257 68.613 31.2899 69.2532 31.5107 70.1277C31.7314 71.0022 31.1903 71.6424 30.2419 71.6424ZM30.0962 71.065C30.635 71.065 30.9442 70.6842 30.8037 70.1277C30.6632 69.5712 30.1619 69.1905 29.623 69.1905C29.0841 69.1905 28.775 69.5712 28.9155 70.1277C29.056 70.6842 29.5573 71.065 30.0962 71.065Z" fill="white"/>
<path d="M25.2061 71.5921L24.4668 68.6632H25.8377C26.8249 68.6632 27.6474 69.2406 27.8713 70.1277C28.0953 71.0147 27.5642 71.5921 26.577 71.5921H25.2061ZM25.764 71.0356H26.402C27.0013 71.0356 27.3059 70.6884 27.1644 70.1277C27.0228 69.567 26.5429 69.2197 25.9437 69.2197H25.3056L25.764 71.0356Z" fill="white"/>
<path d="M23.1789 70.6759L23.0469 70.1528H24.2669L24.3989 70.6759H23.1789Z" fill="white"/>
<path d="M21.363 71.6424C20.4103 71.6424 19.5493 70.998 19.3296 70.1277C19.1099 69.2574 19.6456 68.613 20.5983 68.613C21.5467 68.613 22.411 69.2532 22.6318 70.1277C22.8525 71.0022 22.3114 71.6424 21.363 71.6424ZM21.2173 71.065C21.7561 71.065 22.0653 70.6842 21.9248 70.1277C21.7843 69.5712 21.283 69.1905 20.7441 69.1905C20.2052 69.1905 19.8961 69.5712 20.0366 70.1277C20.1771 70.6842 20.6784 71.065 21.2173 71.065Z" fill="white"/>
<path d="M17.8925 71.5921L17.2926 69.2155H16.3269L16.1875 68.6632H18.8172L18.9566 69.2155H17.9909L18.5908 71.5921H17.8925Z" fill="white"/>
<path fill-rule="evenodd" clip-rule="evenodd" d="M8.86523 78.1815H16.8942L18.9206 86.2083H10.8916L8.86523 78.1815ZM9.31782 78.5343L11.1661 85.8555H18.468L16.6197 78.5343H9.31782Z" fill="white"/>
<path d="M33.1365 83.1089C32.1838 83.1089 31.3227 82.4646 31.103 81.5943C30.8834 80.724 31.4191 80.0796 32.3718 80.0796C33.3202 80.0796 34.1845 80.7198 34.4052 81.5943C34.6259 82.4688 34.0849 83.1089 33.1365 83.1089ZM32.9907 82.5315C33.5296 82.5315 33.8387 82.1508 33.6982 81.5943C33.5577 81.0378 33.0564 80.657 32.5175 80.657C31.9787 80.657 31.6696 81.0378 31.81 81.5943C31.9505 82.1508 32.4518 82.5315 32.9907 82.5315Z" fill="white"/>
<path d="M28.1007 83.0587L27.3613 80.1298H28.7322C29.7194 80.1298 30.542 80.7072 30.7659 81.5942C30.9898 82.4813 30.4587 83.0587 29.4715 83.0587H28.1007ZM28.6586 82.5022H29.2966C29.8958 82.5022 30.2004 82.1549 30.0589 81.5942C29.9174 81.0335 29.4374 80.6863 28.8382 80.6863H28.2002L28.6586 82.5022Z" fill="white"/>
<path d="M26.0734 82.1424L25.9414 81.6194H27.1614L27.2934 82.1424H26.0734Z" fill="white"/>
<path d="M24.2595 83.1089C23.3068 83.1089 22.4458 82.4646 22.2261 81.5943C22.0064 80.724 22.5421 80.0796 23.4948 80.0796C24.4432 80.0796 25.3075 80.7198 25.5283 81.5943C25.749 82.4688 25.2079 83.1089 24.2595 83.1089ZM24.1138 82.5315C24.6526 82.5315 24.9617 82.1508 24.8213 81.5943C24.6808 81.0378 24.1794 80.657 23.6406 80.657C23.1017 80.657 22.7926 81.0378 22.9331 81.5943C23.0736 82.1508 23.5749 82.5315 24.1138 82.5315Z" fill="white"/>
<path d="M20.787 83.0587L20.1871 80.6821H19.2214L19.082 80.1298H21.7117L21.8511 80.6821H20.8855L21.4854 83.0587H20.787Z" fill="white"/>
<path d="M29.7742 5.71326C29.7742 5.71326 26.5387 10.149 27.0882 14.7569L52.7862 140.01C53.2018 142.036 53.9662 143.982 55.1057 145.706C56.4475 147.738 58.4938 149.793 61.3116 149.888L122.83 149.912C122.83 149.912 120.641 147.308 120.813 142.195L35.8345 16.8181L32.2936 6.81342L29.7742 5.71326Z" fill="#01124A"/>
<path d="M121.824 149.996L67.1326 148.144C63.2072 148.011 59.3003 144.689 58.4061 140.725L29.0216 10.4725C28.1273 6.50803 30.5842 3.4022 34.5096 3.53499L89.2008 5.38698C93.1262 5.51978 97.0331 8.84155 97.9274 12.806L127.312 143.058C128.206 147.023 125.749 150.129 121.824 149.996Z" fill="#021D75"/>
<path d="M119.825 146.175L67.8566 145.701C64.0878 145.573 60.3376 142.385 59.4787 138.579L50.4983 98.7784L34.0102 25.6983L31.4313 14.2541L31.0846 12.7244C30.2257 8.918 32.587 5.93707 36.3522 6.06474L88.4818 7.83005C92.247 7.95772 96.0008 11.1455 96.8596 14.952L97.1725 16.3358L99.775 27.8158L116.04 99.5681L125.093 139.516C125.952 143.322 123.594 146.303 119.825 146.175Z" fill="#7E85FD"/>
<path d="M99.775 27.8162L34.0102 25.6986L31.4313 14.2545L31.0846 12.7248C30.2257 8.91837 32.587 5.93744 36.3522 6.06511L88.4818 7.83042C92.247 7.95809 96.0008 11.1459 96.8596 14.9523L97.1725 16.3362L99.775 27.8162Z" fill="white"/>
<path d="M73.787 24.2605L76.1986 24.3422L76.3755 25.1472L72.9449 25.0309L71.9922 20.6964L75.3405 20.81L75.5175 21.6149L73.1882 21.5359L73.3951 22.4771L75.4522 22.5469L75.6236 23.3271L73.5665 23.2573L73.787 24.2605Z" fill="#021D75"/>
<path d="M69.9297 20.6265L70.9425 20.6609L71.8952 24.9953L71.0534 24.9668L68.2659 22.2602L68.8444 24.8919L67.8316 24.8575L66.8789 20.5231L67.7271 20.5518L70.5082 23.2582L69.9297 20.6265Z" fill="#021D75"/>
<path d="M64.829 24.8295C63.5695 24.7868 62.6674 24.0555 62.387 22.78L61.8535 20.3527L62.8789 20.3874L63.4043 22.7776C63.5853 23.6011 64.0273 23.9541 64.6475 23.9752C65.2742 23.9964 65.5601 23.6681 65.3791 22.8445L64.8537 20.4544L65.8664 20.4887L66.4 22.916C66.6803 24.1916 66.0886 24.8722 64.829 24.8295Z" fill="#021D75"/>
<path d="M60.2531 24.674C59.6581 24.6538 59.0837 24.4131 58.671 23.9935L59.0935 23.3441C59.4035 23.668 59.7048 23.838 60.0212 23.8488C60.4326 23.8627 60.5947 23.6285 60.4898 23.1517L60.0361 21.0899L58.479 21.0371L58.3019 20.2322L60.878 20.3195L61.4966 23.1305C61.7323 24.2017 61.2975 24.7094 60.2531 24.674Z" fill="#021D75"/>
<path d="M82.0392 22.825L82.1762 23.4484L80.1067 24.2396L79.9748 23.6403L81.4288 23.1134L79.7186 22.4751L79.5879 21.8805L82.0392 22.825Z" fill="#01124A"/>
<path d="M54.0559 21.016L54.1866 21.6106L52.7338 22.1422L54.4428 22.7758L54.5747 23.3751L52.1233 22.4306L51.9863 21.8072L54.0559 21.016Z" fill="#01124A"/>
<path d="M67.0834 81.1752C67.3361 82.3254 66.6177 83.2265 65.479 83.1879C64.34 83.1493 63.2119 82.1859 62.9588 81.0357C62.7061 79.8855 63.4244 78.9847 64.5635 79.0229C65.7022 79.0615 66.8307 80.0253 67.0834 81.1752Z" fill="#FF5757"/>
<path d="M51.5435 56.8583L51.8976 56.8703L52.2308 58.3862L51.9364 58.3762L50.9616 57.4297L51.1639 58.35L50.8097 58.338L50.4766 56.8221L50.7732 56.8322L51.7458 57.7786L51.5435 56.8583Z" fill="white"/>
<path d="M49.7593 58.3282C49.3188 58.3132 49.0034 58.0575 48.9053 57.6114L48.7188 56.7626L49.0773 56.7747L49.2611 57.6106C49.3244 57.8986 49.4789 58.0221 49.6959 58.0294C49.915 58.0368 50.015 57.922 49.9517 57.634L49.768 56.7982L50.1221 56.8102L50.3087 57.659C50.4068 58.1051 50.1998 58.3431 49.7593 58.3282Z" fill="white"/>
<path d="M48.1692 58.2741C47.9235 58.2658 47.6598 58.186 47.4997 58.0774L47.5634 57.8173C47.7144 57.9149 47.9235 57.9864 48.1095 57.9927C48.322 57.9999 48.393 57.9335 48.3725 57.8404C48.3101 57.5568 47.4521 57.7211 47.3282 57.1582C47.2715 56.9005 47.4368 56.6933 47.8773 56.7082C48.0721 56.7148 48.2814 56.767 48.4448 56.8607L48.3927 57.1233C48.2312 57.0383 48.0743 56.9943 47.9371 56.9896C47.7246 56.9824 47.6598 57.0576 47.6808 57.1529C47.7423 57.4322 48.6008 57.27 48.7232 57.8265C48.779 58.0799 48.6119 58.2891 48.1692 58.2741Z" fill="white"/>
<path d="M54.081 68.8224C54.3798 68.8325 54.6554 69.0267 54.7182 69.3126C54.7863 69.6222 54.5701 69.8083 54.2425 69.7972C53.8153 69.7827 53.4921 69.5117 53.3845 69.0223C53.2693 68.4983 53.5283 68.2169 53.9953 68.2327C54.1591 68.2383 54.3266 68.2805 54.4498 68.3513L54.3736 68.6045C54.2749 68.5453 54.171 68.5224 54.067 68.5189C53.808 68.5101 53.6748 68.6539 53.7275 68.9437C53.7988 68.858 53.9194 68.8169 54.081 68.8224ZM54.165 69.5345C54.3177 69.5397 54.4049 69.4567 54.3745 69.3181C54.344 69.1795 54.2205 69.0872 54.0611 69.0818C53.9039 69.0765 53.8142 69.168 53.8432 69.3001C53.8718 69.43 53.9923 69.5287 54.165 69.5345Z" fill="white"/>
<path d="M55.4715 74.7333C55.7599 74.7861 55.9387 74.9598 55.9877 75.1828C56.0439 75.4384 55.8938 75.6654 55.4533 75.6505C55.2364 75.6431 55 75.5771 54.8266 75.468L54.9071 75.2042C55.0434 75.2948 55.2182 75.3502 55.3798 75.3557C55.5591 75.3617 55.654 75.294 55.6269 75.1706C55.6017 75.0558 55.4996 74.9815 55.296 74.9745L55.1322 74.969L55.0813 74.7373L55.3224 74.3951L54.6628 74.3728L54.6009 74.0913L55.6855 74.128L55.7355 74.3554L55.4715 74.7333Z" fill="white"/>
<path d="M53.6738 74.0598L54.3431 74.0825L54.6763 75.5984L54.3173 75.5862L54.0459 74.3519L53.7357 74.3413L53.6738 74.0598Z" fill="white"/>
<path d="M56.7157 81.5046C56.335 81.4917 55.9893 81.1984 55.8793 80.6982C55.7694 80.198 55.9904 79.9239 56.3711 79.9368C56.754 79.9498 57.0975 80.243 57.2074 80.7432C57.3174 81.2435 57.0986 81.5176 56.7157 81.5046ZM56.6505 81.2079C56.8298 81.214 56.9223 81.0753 56.8466 80.731C56.771 80.3867 56.6156 80.2396 56.4363 80.2335C56.2592 80.2275 56.1667 80.3662 56.2424 80.7105C56.318 81.0548 56.4734 81.2019 56.6505 81.2079Z" fill="white"/>
<path d="M55.1741 81.1427L55.8404 81.1653L55.9033 81.4511L54.7324 81.4114L54.6823 81.1841L55.1585 80.6522C55.2676 80.529 55.2748 80.4519 55.2586 80.3783C55.2324 80.2592 55.133 80.1871 54.9692 80.1815C54.8364 80.177 54.7345 80.223 54.6816 80.3222L54.3842 80.1488C54.4661 79.9818 54.6587 79.8787 54.9376 79.8882C55.2829 79.8999 55.5513 80.0809 55.6118 80.3559C55.6442 80.5031 55.6317 80.6359 55.4581 80.8256L55.1741 81.1427Z" fill="white"/>
<path d="M57.0977 85.7985L58.3394 85.8406L58.3894 86.0679L58.0971 87.3369L57.7075 87.3237L57.9928 86.1125L57.4792 86.0951L57.5335 86.342L57.2147 86.3312L57.0977 85.7985Z" fill="white"/>
<path d="M56.5879 87.0019L57.2542 87.0245L57.317 87.3104L56.1461 87.2706L56.0961 87.0433L56.5724 86.5113C56.6815 86.3882 56.6887 86.3111 56.6725 86.2375C56.6464 86.1184 56.547 86.0462 56.3832 86.0407C56.2504 86.0362 56.1485 86.0822 56.0956 86.1814L55.7982 86.0079C55.8801 85.8409 56.0728 85.7379 56.3517 85.7473C56.697 85.759 56.9653 85.9401 57.0257 86.2151C57.0581 86.3623 57.0456 86.4952 56.8719 86.6849L56.5879 87.0019Z" fill="white"/>
<path d="M62.082 68.5322L63.3238 68.5743L63.3738 68.8017L63.0815 70.0706L62.6919 70.0574L62.9771 68.8463L62.4636 68.8289L62.5179 69.0757L62.1991 69.0649L62.082 68.5322Z" fill="white"/>
<path d="M64.8772 75.3443L64.94 75.6301L64.6877 75.6216L64.7577 75.9399L64.4079 75.928L64.3379 75.6097L63.5034 75.5814L63.4516 75.3454L63.9707 74.4087L64.347 74.4214L63.87 75.3101L64.2862 75.3242L64.2238 75.0406L64.5625 75.0521L64.6249 75.3357L64.8772 75.3443Z" fill="white"/>
<path d="M62.3203 74.3527L62.9895 74.3754L63.3227 75.8913L62.9638 75.8791L62.6924 74.6447L62.3822 74.6342L62.3203 74.3527Z" fill="white"/>
<path d="M65.127 80.259L65.7962 80.2817L66.1294 81.7976L65.7704 81.7855L65.4991 80.5511L65.1888 80.5406L65.127 80.259Z" fill="white"/>
<path d="M64.6543 81.4638L65.3206 81.4864L65.3834 81.7723L64.2125 81.7326L64.1625 81.5052L64.6388 80.9733C64.7479 80.8502 64.7551 80.773 64.7389 80.6994C64.7128 80.5803 64.6134 80.5082 64.4496 80.5026C64.3168 80.4981 64.2149 80.5441 64.162 80.6433L63.8646 80.4699C63.9465 80.3028 64.1392 80.1998 64.4181 80.2092C64.7634 80.2209 65.0317 80.402 65.0921 80.677C65.1245 80.8242 65.112 80.9571 64.9383 81.1468L64.6543 81.4638Z" fill="white"/>
<path d="M67.1215 86.8514C67.2882 86.9301 67.4012 87.0543 67.4369 87.2167C67.4998 87.5025 67.2781 87.6734 66.8841 87.66C66.4923 87.6468 66.1938 87.4582 66.1309 87.1724C66.0952 87.01 66.1549 86.8917 66.287 86.8231C66.1567 86.7499 66.0692 86.6416 66.0392 86.5052C65.9807 86.2388 66.1875 86.0803 66.5394 86.0923C66.8958 86.1043 67.176 86.2793 67.2345 86.5457C67.2645 86.6821 67.2214 86.786 67.1215 86.8514ZM66.5961 86.3499C66.4522 86.3451 66.3727 86.4133 66.3989 86.5324C66.4241 86.6472 66.5328 86.7218 66.6789 86.7267C66.8272 86.7318 66.9067 86.6635 66.8815 86.5488C66.8553 86.4297 66.7422 86.3549 66.5961 86.3499ZM66.8274 87.4024C67.0067 87.4084 67.101 87.3278 67.0715 87.1936C67.042 87.0593 66.911 86.9732 66.7317 86.9671C66.5547 86.9611 66.4621 87.0396 66.4916 87.1739C66.5211 87.3081 66.6503 87.3964 66.8274 87.4024Z" fill="white"/>
<path d="M65.3594 87.2988L66.0257 87.3214L66.0885 87.6072L64.9175 87.5675L64.8676 87.3401L65.3438 86.8082C65.453 86.6851 65.4602 86.608 65.444 86.5344C65.4178 86.4153 65.3185 86.3431 65.1547 86.3376C65.0219 86.3331 64.9199 86.379 64.8671 86.4783L64.5697 86.3048C64.6516 86.1378 64.8443 86.0347 65.1232 86.0442C65.4685 86.0559 65.7368 86.2369 65.7972 86.5119C65.8296 86.6592 65.817 86.792 65.6434 86.9817L65.3594 87.2988Z" fill="white"/>
<path d="M60.4224 57.159L60.7766 57.171L61.1097 58.6868L60.8153 58.6768L59.8405 57.7303L60.0428 58.6506L59.6887 58.6386L59.3555 57.1228L59.6521 57.1329L60.6247 58.0793L60.4224 57.159Z" fill="white"/>
<path d="M58.5772 58.6268C58.088 58.6102 57.6561 58.2646 57.5571 57.8142C57.4581 57.3638 57.7434 57.0424 58.2325 57.059C58.7195 57.0755 59.1532 57.4191 59.2526 57.8717C59.3521 58.3242 59.0641 58.6433 58.5772 58.6268ZM58.5115 58.328C58.7882 58.3374 58.9529 58.1474 58.8896 57.8594C58.8263 57.5714 58.5749 57.3672 58.2982 57.3579C58.0215 57.3485 57.8568 57.5385 57.9201 57.8265C57.9834 58.1145 58.2348 58.3186 58.5115 58.328Z" fill="white"/>
<path d="M57.4527 58.5628L57.1162 58.5514L56.9141 57.6419L56.6228 58.3756L56.4612 58.3702L55.8471 57.625L56.0427 58.515L55.7062 58.5036L55.373 56.9878L55.6697 56.9979L56.4567 57.9595L56.8207 57.0369L57.1151 57.0469L57.4527 58.5628Z" fill="white"/>
<path d="M69.1094 62.9591L69.7786 62.9818L70.1118 64.4977L69.7528 64.4855L69.4815 63.2512L69.1713 63.2406L69.1094 62.9591Z" fill="white"/>
<path d="M71.1001 69.5514C71.2668 69.6302 71.3797 69.7544 71.4154 69.9168C71.4783 70.2026 71.2566 70.3735 70.8626 70.3601C70.4708 70.3468 70.1723 70.1583 70.1095 69.8725C70.0738 69.7101 70.1334 69.5917 70.2656 69.5231C70.1352 69.4499 70.0477 69.3417 70.0177 69.2052C69.9592 68.9389 70.166 68.7804 70.518 68.7923C70.8743 68.8044 71.1545 68.9794 71.213 69.2458C71.243 69.3822 71.1999 69.486 71.1001 69.5514ZM70.5746 69.05C70.4307 69.0451 70.3513 69.1134 70.3774 69.2325C70.4027 69.3472 70.5113 69.4219 70.6574 69.4268C70.8057 69.4318 70.8852 69.3636 70.86 69.2488C70.8338 69.1297 70.7207 69.055 70.5746 69.05ZM70.8059 70.1024C70.9852 70.1085 71.0796 70.0279 71.05 69.8936C71.0205 69.7594 70.8896 69.6733 70.7103 69.6672C70.5332 69.6612 70.4406 69.7397 70.4701 69.874C70.4996 70.0082 70.6288 70.0964 70.8059 70.1024Z" fill="white"/>
<path d="M71.9823 75.2452C72.4405 75.2608 72.6663 75.4683 72.7253 75.7368C72.7844 76.0053 72.6343 76.2324 72.1916 76.2174C71.9769 76.2101 71.7383 76.144 71.5649 76.0349L71.6476 75.7712C71.7839 75.8618 71.9565 75.9171 72.118 75.9226C72.2973 75.9286 72.3918 75.8588 72.3647 75.7353C72.3385 75.6162 72.2417 75.5356 71.9606 75.526L71.5644 75.5126L71.4565 74.6621L72.4017 74.6942L72.4636 74.9757L71.8172 74.9538L71.8562 75.2409L71.9823 75.2452Z" fill="white"/>
<path d="M70.3867 74.6259L71.0559 74.6485L71.3891 76.1644L71.0302 76.1523L70.7588 74.9179L70.4486 74.9074L70.3867 74.6259Z" fill="white"/>
<path d="M73.3926 81.7599L74.0589 81.7824L74.1217 82.0683L72.9507 82.0286L72.9008 81.8012L73.377 81.2693C73.4862 81.1462 73.4934 81.069 73.4772 80.9954C73.4511 80.8763 73.3517 80.8042 73.1879 80.7986C73.0551 80.7941 72.9532 80.8401 72.9003 80.9393L72.6029 80.7659C72.6848 80.5989 72.8775 80.4958 73.1564 80.5052C73.5017 80.517 73.77 80.698 73.8304 80.973C73.8628 81.1203 73.8502 81.2531 73.6766 81.4428L73.3926 81.7599Z" fill="white"/>
<path d="M72.0879 81.7155L72.7542 81.7381L72.817 82.024L71.6461 81.9843L71.5961 81.7569L72.0724 81.225C72.1815 81.1019 72.1887 81.0247 72.1725 80.9511C72.1464 80.832 72.047 80.7599 71.8832 80.7543C71.7504 80.7498 71.6485 80.7958 71.5956 80.895L71.2982 80.7216C71.3801 80.5546 71.5728 80.4515 71.8517 80.4609C72.197 80.4726 72.4653 80.6537 72.5257 80.9287C72.5581 81.0759 72.5456 81.2088 72.3719 81.3985L72.0879 81.7155Z" fill="white"/>
<path d="M74.3542 86.3569C74.7836 86.3715 75.1046 86.6424 75.2122 87.1318C75.3273 87.6559 75.0706 87.9373 74.6014 87.9214C74.4376 87.9159 74.2723 87.8737 74.1491 87.8029L74.2253 87.5497C74.3218 87.6089 74.4257 87.6317 74.5319 87.6353C74.7887 87.6441 74.9241 87.5003 74.8709 87.2084C74.7996 87.2941 74.6773 87.3372 74.5157 87.3317C74.2169 87.3216 73.9413 87.1274 73.8785 86.8416C73.8104 86.5319 74.0266 86.3458 74.3542 86.3569ZM74.5378 87.0724C74.695 87.0778 74.7825 86.9862 74.7534 86.8541C74.7249 86.7241 74.6043 86.6255 74.4339 86.6197C74.2812 86.6145 74.1939 86.6975 74.2244 86.8361C74.2549 86.9747 74.3784 87.067 74.5378 87.0724Z" fill="white"/>
<path d="M73.2715 87.5669L73.9378 87.5895L74.0006 87.8753L72.8296 87.8356L72.7797 87.6082L73.256 87.0763C73.3651 86.9532 73.3723 86.8761 73.3561 86.8024C73.33 86.6833 73.2306 86.6112 73.0668 86.6056C72.934 86.6011 72.8321 86.6471 72.7792 86.7463L72.4818 86.5729C72.5637 86.4059 72.7564 86.3028 73.0353 86.3122C73.3806 86.324 73.6489 86.505 73.7093 86.78C73.7417 86.9273 73.7291 87.0601 73.5555 87.2498L73.2715 87.5669Z" fill="white"/>
<path d="M68.1277 58.6451L68.971 58.6737L69.0329 58.9552L67.8332 58.9145L67.5 57.3987L68.671 57.4384L68.7328 57.7199L67.9183 57.6923L67.9906 58.0214L68.71 58.0458L68.77 58.3187L68.0506 58.2943L68.1277 58.6451Z" fill="white"/>
<path d="M66.7828 58.9046C66.3423 58.8897 66.0268 58.6339 65.9288 58.1878L65.7422 57.339L66.1008 57.3511L66.2845 58.187C66.3478 58.475 66.5024 58.5985 66.7193 58.6058C66.9384 58.6133 67.0384 58.4984 66.9751 58.2104L66.7914 57.3746L67.1456 57.3866L67.3321 58.2354C67.4302 58.6815 67.2233 58.9195 66.7828 58.9046Z" fill="white"/>
<path d="M65.0673 58.8206L64.7969 57.5906L64.3011 57.5738L64.2383 57.288L65.5885 57.3338L65.6514 57.6196L65.1555 57.6028L65.4259 58.8328L65.0673 58.8206Z" fill="white"/>
<path d="M78.5938 64.5011L79.26 64.5237L79.3229 64.8095L78.1519 64.7698L78.1019 64.5424L78.5782 64.0105C78.6874 63.8874 78.6946 63.8103 78.6784 63.7366C78.6522 63.6175 78.5529 63.5454 78.3891 63.5398C78.2563 63.5353 78.1543 63.5813 78.1014 63.6805L77.8041 63.5071C77.886 63.3401 78.0786 63.237 78.3575 63.2465C78.7029 63.2582 78.9711 63.4392 79.0316 63.7142C79.064 63.8615 79.0514 63.9943 78.8778 64.184L78.5938 64.5011Z" fill="white"/>
<path d="M79.5553 69.0983C79.9848 69.1128 80.3058 69.3838 80.4133 69.8732C80.5285 70.3972 80.2718 70.6787 79.8025 70.6627C79.6387 70.6572 79.4735 70.6151 79.3503 70.5442L79.4264 70.2911C79.5229 70.3502 79.6268 70.3731 79.7331 70.3767C79.9898 70.3854 80.1252 70.2417 80.072 69.9497C80.0008 70.0354 79.8785 70.0786 79.7169 70.0731C79.418 70.0629 79.1425 69.8688 79.0797 69.5829C79.0116 69.2733 79.2277 69.0872 79.5553 69.0983ZM79.739 69.8138C79.8961 69.8191 79.9836 69.7275 79.9546 69.5954C79.9261 69.4655 79.8055 69.3668 79.6351 69.361C79.4823 69.3559 79.3951 69.4389 79.4256 69.5775C79.456 69.716 79.5796 69.8084 79.739 69.8138Z" fill="white"/>
<path d="M81.1864 75.5527C81.4853 75.5629 81.7608 75.7571 81.8237 76.0429C81.8917 76.3526 81.6756 76.5387 81.348 76.5276C80.9208 76.5131 80.5976 76.242 80.49 75.7527C80.3748 75.2286 80.6337 74.9472 81.1008 74.9631C81.2646 74.9686 81.432 75.0108 81.5553 75.0817L81.4791 75.3348C81.3804 75.2756 81.2765 75.2527 81.1725 75.2492C80.9135 75.2404 80.7803 75.3842 80.833 75.674C80.9043 75.5883 81.0249 75.5473 81.1864 75.5527ZM81.2705 76.2649C81.4232 76.27 81.5104 76.187 81.48 76.0484C81.4495 75.9099 81.3259 75.8175 81.1666 75.8121C81.0094 75.8068 80.9197 75.8983 80.9487 76.0304C80.9773 76.1604 81.0978 76.259 81.2705 76.2649Z" fill="white"/>
<path d="M79.3789 74.9304L80.0481 74.9531L80.3813 76.469L80.0223 76.4568L79.751 75.2225L79.4408 75.2119L79.3789 74.9304Z" fill="white"/>
<path d="M82.5691 81.4625C82.8575 81.5152 83.0363 81.6889 83.0854 81.912C83.1415 82.1675 82.9915 82.3945 82.551 82.3796C82.3341 82.3722 82.0977 82.3062 81.9243 82.1971L82.0047 81.9334C82.1411 82.024 82.3158 82.0793 82.4774 82.0848C82.6567 82.0909 82.7517 82.0232 82.7245 81.8997C82.6993 81.785 82.5973 81.7106 82.3936 81.7037L82.2298 81.6981L82.1789 81.4664L82.4201 81.1243L81.7604 81.1019L81.6986 80.8204L82.7832 80.8572L82.8332 81.0845L82.5691 81.4625Z" fill="white"/>
<path d="M81.166 82.023L81.8323 82.0456L81.8951 82.3315L80.7242 82.2918L80.6742 82.0644L81.1505 81.5325C81.2596 81.4094 81.2669 81.3322 81.2507 81.2586C81.2245 81.1395 81.1251 81.0674 80.9613 81.0618C80.8285 81.0573 80.7266 81.1033 80.6737 81.2025L80.3763 81.0291C80.4583 80.8621 80.6509 80.759 80.9298 80.7684C81.2751 80.7801 81.5434 80.9612 81.6039 81.2362C81.6362 81.3834 81.6237 81.5163 81.4501 81.706L81.166 82.023Z" fill="white"/>
<path d="M83.8094 88.2334C83.4287 88.2205 83.083 87.9272 82.9731 87.427C82.8631 86.9267 83.0841 86.6527 83.4648 86.6656C83.8478 86.6786 84.1912 86.9718 84.3012 87.472C84.4112 87.9722 84.1924 88.2464 83.8094 88.2334ZM83.7442 87.9367C83.9235 87.9428 84.0161 87.8041 83.9404 87.4598C83.8647 87.1155 83.7093 86.9683 83.53 86.9623C83.353 86.9562 83.2604 87.095 83.3361 87.4393C83.4118 87.7836 83.5672 87.9307 83.7442 87.9367Z" fill="white"/>
<path d="M82.3562 87.2663C82.6446 87.3191 82.8234 87.4928 82.8725 87.7158C82.9286 87.9713 82.7786 88.1984 82.3381 88.1834C82.1212 88.1761 81.8848 88.11 81.7114 88.001L81.7918 87.7372C81.9282 87.8278 82.1029 87.8831 82.2645 87.8886C82.4438 87.8947 82.5388 87.827 82.5117 87.7036C82.4864 87.5888 82.3844 87.5144 82.1808 87.5075L82.0169 87.502L81.966 87.2702L82.2072 86.9281L81.5476 86.9057L81.4857 86.6242L82.5703 86.661L82.6203 86.8884L82.3562 87.2663Z" fill="white"/>
<path d="M76.5929 59.2111L76.2598 57.6953L76.9637 57.7192C77.4706 57.7364 77.8838 58.047 77.9847 58.5061C78.0856 58.9651 77.8037 59.2522 77.2968 59.235L76.5929 59.2111ZM76.8882 58.9353L77.2158 58.9464C77.5235 58.9568 77.6854 58.7839 77.6217 58.4938C77.5579 58.2036 77.3169 58.017 77.0093 58.0066L76.6817 57.9955L76.8882 58.9353Z" fill="white"/>
<path d="M75.4011 58.8914L76.2445 58.92L76.3064 59.2015L75.1066 59.1608L74.7734 57.645L75.9444 57.6847L76.0063 57.9662L75.1917 57.9386L75.264 58.2678L75.9834 58.2922L76.0434 58.565L75.324 58.5406L75.4011 58.8914Z" fill="white"/>
<path d="M74.2315 57.6266L74.5746 57.6382L74.4009 59.1368L74.0157 59.1238L73.4492 58.0858L73.3229 59.1003L72.94 59.0873L72.0977 57.5542L72.4695 57.5668L73.0534 58.6441L73.1845 57.5911L73.5165 57.6023L74.1068 58.6884L74.2315 57.6266Z" fill="white"/>
<path d="M86.6707 64.1664C86.9591 64.2192 87.1379 64.3929 87.1869 64.616C87.2431 64.8715 87.0931 65.0985 86.6526 65.0836C86.4356 65.0762 86.1992 65.0102 86.0259 64.9011L86.1063 64.6373C86.2426 64.7279 86.4174 64.7833 86.579 64.7888C86.7583 64.7949 86.8532 64.7271 86.8261 64.6037C86.8009 64.4889 86.6988 64.4146 86.4952 64.4077L86.3314 64.4021L86.2805 64.1704L86.5216 63.8282L85.862 63.8059L85.8001 63.5244L86.8848 63.5611L86.9347 63.7885L86.6707 64.1664Z" fill="white"/>
<path d="M87.9227 70.938C87.542 70.9251 87.1963 70.6318 87.0864 70.1316C86.9764 69.6313 87.1974 69.3573 87.5781 69.3702C87.9611 69.3832 88.3045 69.6764 88.4145 70.1766C88.5244 70.6768 88.3057 70.951 87.9227 70.938ZM87.8575 70.6413C88.0368 70.6474 88.1294 70.5087 88.0537 70.1644C87.978 69.82 87.8226 69.6729 87.6433 69.6668C87.4662 69.6608 87.3737 69.7996 87.4494 70.1439C87.5251 70.4882 87.6804 70.6353 87.8575 70.6413Z" fill="white"/>
<path d="M85.9824 69.3418L86.6517 69.3645L86.9852 70.8803L86.6262 70.8681L86.3546 69.6338L86.0444 69.6233L85.9824 69.3418Z" fill="white"/>
<path d="M88.3066 75.2329L89.5484 75.275L89.5984 75.5024L89.3061 76.7713L88.9165 76.7581L89.2018 75.547L88.6882 75.5296L88.7425 75.7764L88.4237 75.7656L88.3066 75.2329Z" fill="white"/>
<path d="M87.3984 75.202L88.0677 75.2247L88.4009 76.7406L88.0419 76.7284L87.7706 75.4941L87.4603 75.4835L87.3984 75.202Z" fill="white"/>
<path d="M91.0979 82.0435L91.1607 82.3293L90.9084 82.3208L90.9784 82.6391L90.6286 82.6272L90.5587 82.3089L89.7242 82.2806L89.6723 82.0446L90.1914 81.1079L90.5677 81.1207L90.0907 82.0093L90.5069 82.0235L90.4445 81.7398L90.7832 81.7513L90.8456 82.0349L91.0979 82.0435Z" fill="white"/>
<path d="M88.9571 82.2868L89.6233 82.3094L89.6862 82.5953L88.5152 82.5556L88.4652 82.3282L88.9415 81.7963C89.0507 81.6732 89.0579 81.596 89.0417 81.5224C89.0155 81.4033 88.9162 81.3312 88.7524 81.3256C88.6195 81.3211 88.5176 81.3671 88.4647 81.4663L88.1673 81.2929C88.2493 81.1258 88.4419 81.0228 88.7208 81.0322C89.0661 81.0439 89.3344 81.225 89.3949 81.5C89.4272 81.6472 89.4147 81.7801 89.2411 81.9698L88.9571 82.2868Z" fill="white"/>
<path d="M85.3394 59.5331C84.8989 59.5182 84.5835 59.2625 84.4854 58.8164L84.2988 57.9675L84.6574 57.9797L84.8411 58.8156C84.9045 59.1036 85.059 59.227 85.2759 59.2344C85.4951 59.2418 85.5951 59.127 85.5318 58.839L85.348 58.0031L85.7022 58.0151L85.8888 58.864C85.9868 59.3101 85.7799 59.5481 85.3394 59.5331Z" fill="white"/>
<path d="M83.5859 57.9434L83.9445 57.9555L84.2777 59.4714L83.9191 59.4592L83.7825 58.8377L83.0786 58.8138L83.2152 59.4353L82.8566 59.4232L82.5234 57.9073L82.882 57.9195L83.0134 58.5172L83.7173 58.541L83.5859 57.9434Z" fill="white"/>
<path d="M81.8095 59.3876L81.5391 58.1576L81.0433 58.1408L80.9805 57.855L82.3307 57.9008L82.3935 58.1866L81.8977 58.1698L82.1681 59.3998L81.8095 59.3876Z" fill="white"/>
<path d="M95.1135 64.7448L95.1764 65.0306L94.924 65.0221L94.994 65.3404L94.6442 65.3285L94.5743 65.0102L93.7398 64.9819L93.6879 64.7459L94.207 63.8092L94.5833 63.822L94.1064 64.7106L94.5225 64.7248L94.4602 64.4411L94.7988 64.4526L94.8612 64.7362L95.1135 64.7448Z" fill="white"/>
<path d="M95.3711 69.6598L96.0403 69.6825L96.3735 71.1984L96.0145 71.1862L95.7432 69.9518L95.433 69.9413L95.3711 69.6598Z" fill="white"/>
<path d="M94.5039 69.6304L95.1731 69.653L95.5067 71.1689L95.1477 71.1567L94.8761 69.9224L94.5659 69.9119L94.5039 69.6304Z" fill="white"/>
<path d="M97.3598 76.2531C97.5265 76.3318 97.6395 76.456 97.6752 76.6184C97.738 76.9043 97.5163 77.0751 97.1223 77.0618C96.7305 77.0485 96.4321 76.86 96.3692 76.5741C96.3335 76.4117 96.3932 76.2934 96.5253 76.2248C96.395 76.1516 96.3075 76.0433 96.2775 75.9069C96.2189 75.6405 96.4258 75.4821 96.7777 75.494C97.1341 75.5061 97.4142 75.6811 97.4728 75.9474C97.5028 76.0838 97.4597 76.1877 97.3598 76.2531ZM96.8344 75.7517C96.6905 75.7468 96.611 75.815 96.6372 75.9341C96.6624 76.0489 96.7711 76.1235 96.9172 76.1285C97.0655 76.1335 97.145 76.0653 97.1197 75.9505C97.0936 75.8314 96.9805 75.7566 96.8344 75.7517ZM97.0657 76.8041C97.245 76.8102 97.3393 76.7295 97.3098 76.5953C97.2803 76.461 97.1493 76.3749 96.97 76.3688C96.7929 76.3628 96.7004 76.4414 96.7299 76.5756C96.7594 76.7099 96.8886 76.7981 97.0657 76.8041Z" fill="white"/>
<path d="M95.2051 75.4664L95.8743 75.4891L96.2075 77.005L95.8485 76.9928L95.5772 75.7585L95.267 75.748L95.2051 75.4664Z" fill="white"/>
<path d="M98.2382 81.9458C98.6964 81.9613 98.9222 82.1689 98.9812 82.4374C99.0402 82.7059 98.8902 82.9329 98.4475 82.9179C98.2328 82.9106 97.9941 82.8445 97.8208 82.7355L97.9034 82.4718C98.0398 82.5624 98.2123 82.6176 98.3739 82.6231C98.5532 82.6292 98.6477 82.5593 98.6206 82.4359C98.5944 82.3168 98.4976 82.2361 98.2164 82.2266L97.8202 82.2132L97.7124 81.3627L98.6575 81.3947L98.7194 81.6762L98.0731 81.6543L98.112 81.9415L98.2382 81.9458Z" fill="white"/>
<path d="M97.0374 82.5604L97.7037 82.583L97.7666 82.8688L96.5956 82.8292L96.5456 82.6018L97.0218 82.0699C97.1309 81.9468 97.1381 81.8696 97.1219 81.796C97.0957 81.6769 96.9963 81.6048 96.8325 81.5992C96.6997 81.5947 96.5978 81.6407 96.5449 81.7399L96.2475 81.5665C96.3294 81.3995 96.522 81.2964 96.8009 81.3059C97.1462 81.3176 97.4145 81.4986 97.4751 81.7736C97.5075 81.9208 97.4949 82.0537 97.3214 82.2434L97.0374 82.5604Z" fill="white"/>
<path d="M93.5383 59.7853L93.2051 58.2694L93.5641 58.2816L93.8973 59.7975L93.5383 59.7853Z" fill="white"/>
<path d="M93.2837 59.7766L92.8985 59.7635L92.5069 59.3311L92.4892 59.3305L92.1771 59.3199L92.2699 59.7422L91.9113 59.7301L91.5781 58.2142L92.2488 58.237C92.6628 58.251 92.9679 58.4698 93.0426 58.8098C93.0926 59.0372 93.0119 59.2 92.8291 59.2776L93.2837 59.7766ZM92.6796 58.7975C92.643 58.6308 92.5109 58.5296 92.2917 58.5221L91.9995 58.5122L92.1157 59.0406L92.4079 59.0505C92.627 59.0579 92.7158 58.9621 92.6796 58.7975Z" fill="white"/>
<path d="M91.3969 58.4875L90.5845 58.4599L90.6726 58.8605L91.3898 58.8849L91.4516 59.1664L90.7345 59.142L90.8558 59.6942L90.4972 59.6821L90.1641 58.1663L91.335 58.206L91.3969 58.4875Z" fill="white"/>
<path d="M103.119 64.6763C103.577 64.6918 103.803 64.8993 103.862 65.1679C103.921 65.4364 103.771 65.6634 103.328 65.6484C103.114 65.6411 102.875 65.575 102.702 65.4659L102.784 65.2022C102.921 65.2928 103.093 65.3481 103.255 65.3536C103.434 65.3597 103.529 65.2898 103.501 65.1664C103.475 65.0473 103.378 64.9666 103.097 64.9571L102.701 64.9436L102.593 64.0932L103.538 64.1252L103.6 64.4067L102.954 64.3848L102.993 64.672L103.119 64.6763Z" fill="white"/>
<path d="M104.539 71.191L105.205 71.2136L105.268 71.4994L104.097 71.4597L104.047 71.2324L104.524 70.7004C104.633 70.5773 104.64 70.5002 104.624 70.4266C104.598 70.3075 104.498 70.2353 104.334 70.2298C104.202 70.2253 104.1 70.2712 104.047 70.3705L103.749 70.197C103.831 70.03 104.024 69.9269 104.303 69.9364C104.648 69.9481 104.916 70.1291 104.977 70.4042C105.009 70.5514 104.997 70.6842 104.823 70.8739L104.539 71.191Z" fill="white"/>
<path d="M102.838 69.9126L103.507 69.9353L103.84 71.4512L103.481 71.439L103.21 70.2046L102.9 70.1941L102.838 69.9126Z" fill="white"/>
<path d="M105.495 75.7893C105.924 75.8039 106.245 76.0748 106.353 76.5642C106.468 77.0882 106.211 77.3697 105.742 77.3538C105.578 77.3482 105.413 77.3061 105.29 77.2353L105.366 76.9821C105.462 77.0413 105.566 77.0641 105.673 77.0677C105.929 77.0764 106.065 76.9327 106.011 76.6408C105.94 76.7265 105.818 76.7696 105.656 76.7641C105.358 76.754 105.082 76.5598 105.019 76.274C104.951 75.9643 105.167 75.7782 105.495 75.7893ZM105.678 76.5048C105.836 76.5101 105.923 76.4185 105.894 76.2864C105.866 76.1565 105.745 76.0579 105.575 76.0521C105.422 76.0469 105.335 76.1299 105.365 76.2685C105.395 76.4071 105.519 76.4994 105.678 76.5048Z" fill="white"/>
<path d="M104.02 75.765L104.689 75.7877L105.022 77.3036L104.663 77.2914L104.392 76.0571L104.081 76.0465L104.02 75.765Z" fill="white"/>
<path d="M107.122 82.2424C107.421 82.2526 107.696 82.4468 107.759 82.7326C107.827 83.0423 107.611 83.2284 107.284 83.2173C106.856 83.2028 106.533 82.9317 106.426 82.4424C106.31 81.9183 106.569 81.6369 107.036 81.6528C107.2 81.6583 107.368 81.7005 107.491 81.7714L107.415 82.0245C107.316 81.9653 107.212 81.9424 107.108 81.9389C106.849 81.9301 106.716 82.0739 106.769 82.3637C106.84 82.278 106.96 82.237 107.122 82.2424ZM107.206 82.9546C107.359 82.9597 107.446 82.8767 107.415 82.7381C107.385 82.5996 107.261 82.5072 107.102 82.5018C106.945 82.4965 106.855 82.588 106.884 82.7201C106.913 82.8501 107.033 82.9487 107.206 82.9546Z" fill="white"/>
<path d="M105.713 82.8545L106.379 82.8771L106.442 83.1629L105.271 83.1232L105.221 82.8958L105.697 82.3639C105.807 82.2408 105.814 82.1637 105.798 82.09C105.771 81.9709 105.672 81.8988 105.508 81.8932C105.375 81.8887 105.273 81.9347 105.221 82.0339L104.923 81.8605C105.005 81.6935 105.198 81.5904 105.477 81.5998C105.822 81.6116 106.09 81.7926 106.151 82.0676C106.183 82.2149 106.171 82.3477 105.997 82.5374L105.713 82.8545Z" fill="white"/>
<path d="M101.989 60.0713L101.719 58.8414L101.223 58.8245L101.16 58.5387L102.51 58.5845L102.573 58.8703L102.077 58.8535L102.348 60.0835L101.989 60.0713Z" fill="white"/>
<path d="M101.208 60.0449L101 59.7154L100.28 59.691L100.214 60.0112L99.8469 59.9987L100.204 58.5063L100.558 58.5183L101.584 60.0577L101.208 60.0449ZM100.337 59.4286L100.828 59.4452L100.455 58.8566L100.337 59.4286Z" fill="white"/>
<path d="M99.1555 60.0009C98.9098 59.9926 98.6462 59.9128 98.4861 59.8042L98.5497 59.5441C98.7008 59.6417 98.9099 59.7132 99.0958 59.7195C99.3083 59.7267 99.3794 59.6604 99.3589 59.5672C99.2965 59.2836 98.4384 59.4479 98.3145 58.885C98.2578 58.6273 98.4232 58.4201 98.8637 58.435C99.0585 58.4416 99.2677 58.4939 99.4311 58.5875L99.379 58.8501C99.2175 58.7651 99.0606 58.7211 98.9234 58.7165C98.7109 58.7093 98.6462 58.7844 98.6671 58.8797C98.7286 59.159 99.5871 58.9968 99.7095 59.5533C99.7653 59.8067 99.5982 60.0159 99.1555 60.0009Z" fill="white"/>
<path d="M71.1328 31.4226L76.7628 31.6135L79.5689 44.3798L76.5488 44.2774L74.2639 33.882L71.6539 33.7935L71.1328 31.4226Z" fill="white"/>
<path d="M67.1486 41.5691L72.76 41.7594L73.2891 44.1668L63.4273 43.8324L63.0064 41.9174L67.0176 37.4375C67.9369 36.4007 67.9977 35.7511 67.8614 35.1311C67.6409 34.128 66.8042 33.5204 65.4247 33.4736C64.3061 33.4357 63.4476 33.8229 63.0021 34.6585L60.4977 33.1979C61.1877 31.7913 62.8102 30.9231 65.1591 31.0028C68.0673 31.1014 70.3268 32.6261 70.8359 34.9423C71.1085 36.1825 71.0029 37.3012 69.5407 38.8988L67.1486 41.5691Z" fill="white"/>
<path d="M81.394 49.8193L80.7975 51.2967L80.9794 52.1245L80.4266 52.1058L80.2432 51.2712L78.9883 49.7377L79.5752 49.7576L80.4415 50.8174L80.8514 49.8009L81.394 49.8193Z" fill="white"/>
<path d="M79.1532 52.0626L78.8316 51.5547L77.7226 51.5171L77.6211 52.0106L77.0546 51.9914L77.6057 49.6908L78.1516 49.7093L79.7333 52.0823L79.1532 52.0626ZM77.8098 51.1125L78.5673 51.1382L77.9919 50.2307L77.8098 51.1125Z" fill="white"/>
<path d="M74.582 51.9076L74.0684 49.5708L75.1535 49.6076C75.9349 49.6341 76.5719 50.1129 76.7275 50.8206C76.883 51.5283 76.4485 51.9709 75.6671 51.9444L74.582 51.9076ZM75.0372 51.4823L75.5422 51.4994C76.0165 51.5155 76.2662 51.249 76.1678 50.8017C76.0695 50.3543 75.6981 50.0667 75.2238 50.0507L74.7187 50.0335L75.0372 51.4823Z" fill="white"/>
<path d="M72.9553 49.5331L73.5013 49.5516L74.0149 51.8883L73.561 51.8729L72.0583 50.4138L72.3701 51.8326L71.8242 51.814L71.3105 49.4773L71.7678 49.4928L73.2671 50.9518L72.9553 49.5331Z" fill="white"/>
<path d="M70.1116 51.7958C69.3575 51.7702 68.6917 51.2374 68.5391 50.543C68.3864 49.8487 68.8262 49.3533 69.5804 49.3789C70.3311 49.4044 70.9995 49.934 71.1529 50.6317C71.3063 51.3294 70.8623 51.8212 70.1116 51.7958ZM70.0103 51.3351C70.4369 51.3496 70.6909 51.0567 70.5933 50.6127C70.4957 50.1687 70.1082 49.8541 69.6816 49.8396C69.2551 49.8251 69.0011 50.118 69.0987 50.562C69.1963 51.006 69.5838 51.3206 70.0103 51.3351Z" fill="white"/>
<path d="M68.3798 51.6972L67.8611 51.6796L67.5495 50.2775L67.1005 51.4086L66.8514 51.4002L65.9046 50.2515L66.2061 51.6235L65.6875 51.6059L65.1738 49.2692L65.6311 49.2847L66.8443 50.7671L67.4055 49.3448L67.8593 49.3602L68.3798 51.6972Z" fill="white"/>
<path d="M97.1725 16.3358L31.4313 14.2541L31.0846 12.7244C30.2257 8.918 32.587 5.93707 36.3522 6.06474L88.4818 7.83005C92.247 7.95772 96.0008 11.1455 96.8596 14.952L97.1725 16.3358Z" fill="#303A9E"/>
<path d="M119.825 146.175L67.8563 145.701C64.0876 145.573 60.3373 142.385 59.4785 138.579L50.498 98.7785C51.138 95.8102 53.8854 93.1882 56.8299 93.2879L108.78 95.0473C111.64 95.1442 114.479 97.0089 116.04 99.5682L125.093 139.516C125.951 143.322 123.594 146.303 119.825 146.175Z" fill="white"/>
<path d="M73.8921 108.097C73.1625 108.072 72.4999 107.51 72.2892 106.551C72.0785 105.593 72.502 105.067 73.2317 105.092C73.9656 105.117 74.6239 105.679 74.8346 106.638C75.0453 107.596 74.6261 108.122 73.8921 108.097ZM73.7672 107.528C74.1108 107.54 74.2881 107.274 74.1431 106.614C73.9981 105.954 73.7003 105.672 73.3567 105.661C73.0173 105.649 72.8399 105.915 72.985 106.575C73.13 107.235 73.4278 107.517 73.7672 107.528Z" fill="#01124A"/>
<path d="M71.1079 106.244C71.6607 106.345 72.0034 106.678 72.0973 107.105C72.205 107.595 71.9174 108.03 71.0732 108.001C70.6575 107.987 70.2044 107.861 69.8721 107.652L70.0263 107.146C70.2876 107.32 70.6225 107.426 70.9322 107.436C71.2758 107.448 71.4578 107.318 71.4058 107.082C71.3575 106.862 71.1619 106.719 70.7716 106.706L70.4577 106.695L70.3601 106.251L70.8223 105.595L69.5581 105.552L69.4395 105.013L71.5182 105.083L71.614 105.519L71.1079 106.244Z" fill="#01124A"/>
<path d="M69.0596 106.438C68.8303 106.43 68.6103 106.254 68.5583 106.017C68.5054 105.776 68.6533 105.625 68.8827 105.633C69.112 105.64 69.3293 105.804 69.3822 106.045C69.4342 106.281 69.289 106.445 69.0596 106.438ZM69.3872 107.928C69.1578 107.92 68.9378 107.744 68.8858 107.507C68.8329 107.266 68.9808 107.115 69.2102 107.122C69.4395 107.13 69.6568 107.294 69.7097 107.535C69.7617 107.771 69.6165 107.935 69.3872 107.928Z" fill="#01124A"/>
<path d="M67.8843 106.328C68.2038 106.479 68.4204 106.717 68.4888 107.028C68.6092 107.576 68.1843 107.903 67.4292 107.878C66.6783 107.852 66.1062 107.491 65.9858 106.943C65.9174 106.632 66.0318 106.405 66.285 106.274C66.0352 106.133 65.8675 105.926 65.81 105.664C65.6978 105.154 66.0942 104.85 66.7687 104.873C67.4517 104.896 67.9886 105.232 68.1008 105.742C68.1583 106.003 68.0757 106.203 67.8843 106.328ZM66.8773 105.367C66.6015 105.358 66.4492 105.488 66.4994 105.717C66.5477 105.936 66.756 106.079 67.036 106.089C67.3202 106.099 67.4726 105.968 67.4242 105.748C67.374 105.52 67.1573 105.376 66.8773 105.367ZM67.3206 107.384C67.6643 107.396 67.845 107.241 67.7885 106.984C67.7319 106.726 67.4809 106.561 67.1373 106.55C66.7979 106.538 66.6204 106.689 66.677 106.946C66.7335 107.203 66.9812 107.372 67.3206 107.384Z" fill="#01124A"/>
<path d="M106.293 106.954C106.84 106.973 107.281 107.292 107.424 107.94L107.702 109.206L107.294 109.192L107.026 107.972C106.931 107.54 106.673 107.321 106.304 107.309C105.896 107.295 105.685 107.539 105.79 108.016L106.039 109.149L105.631 109.136L105.363 107.915C105.268 107.484 105.01 107.265 104.641 107.252C104.233 107.239 104.022 107.483 104.127 107.96L104.376 109.093L103.969 109.079L103.485 106.88L103.875 106.893L103.947 107.221C104.059 107.002 104.308 106.887 104.647 106.898C104.991 106.91 105.308 107.053 105.517 107.332C105.632 107.088 105.911 106.941 106.293 106.954Z" fill="#01124A"/>
<path d="M102.303 106.839L102.711 106.853L103.194 109.053L102.808 109.04L102.735 108.708C102.62 108.93 102.368 109.049 102.05 109.039C101.469 109.019 101.014 108.695 100.872 108.047L100.594 106.781L101.001 106.795L101.269 108.015C101.364 108.447 101.632 108.67 102.018 108.683C102.442 108.698 102.657 108.45 102.553 107.977L102.303 106.839Z" fill="#01124A"/>
<path d="M99.6218 108.956C99.2485 108.944 98.8548 108.819 98.6362 108.668L98.7365 108.358C98.9566 108.497 99.2831 108.603 99.5758 108.613C99.9534 108.626 100.086 108.519 100.045 108.332C99.9361 107.838 98.6089 108.218 98.4164 107.342C98.3297 106.948 98.6319 106.694 99.2089 106.714C99.5016 106.724 99.8489 106.81 100.071 106.941L99.9668 107.25C99.7349 107.115 99.5001 107.062 99.2795 107.054C98.9231 107.042 98.7774 107.165 98.8158 107.339C98.9298 107.858 100.262 107.483 100.45 108.338C100.538 108.736 100.22 108.977 99.6218 108.956Z" fill="#01124A"/>
<path d="M96.7858 106.632C97.4434 106.654 98.0213 107.118 98.1691 107.791C98.3178 108.467 97.9369 108.899 97.2794 108.877C96.9612 108.866 96.6547 108.736 96.4161 108.493L96.666 109.63L96.2588 109.617L95.5983 106.612L95.9886 106.625L96.0652 106.974C96.1938 106.735 96.4549 106.62 96.7858 106.632ZM97.1688 108.527C97.6015 108.542 97.8607 108.246 97.7576 107.777C97.6554 107.312 97.2612 106.994 96.8285 106.979C96.4001 106.965 96.1409 107.261 96.2431 107.725C96.3462 108.194 96.7403 108.513 97.1688 108.527Z" fill="#01124A"/>
<path d="M94.5229 106.155C94.3658 106.15 94.2222 106.034 94.1903 105.889C94.1584 105.744 94.2517 105.631 94.4089 105.637C94.566 105.642 94.7096 105.758 94.7406 105.899C94.7734 106.049 94.6843 106.161 94.5229 106.155ZM94.8956 108.772L94.4121 106.572L94.8198 106.586L95.3033 108.785L94.8956 108.772Z" fill="#01124A"/>
<path d="M91.5998 106.456C92.147 106.474 92.5879 106.794 92.7302 107.441L93.0084 108.707L92.6011 108.693L92.3329 107.473C92.2381 107.042 91.9794 106.823 91.6103 106.81C91.2031 106.797 90.9915 107.041 91.0964 107.518L91.3454 108.651L90.9381 108.637L90.6699 107.417C90.5751 106.985 90.3164 106.766 89.9474 106.754C89.5401 106.74 89.3285 106.984 89.4334 107.462L89.6824 108.595L89.2752 108.581L88.7917 106.381L89.182 106.394L89.254 106.722C89.366 106.504 89.6144 106.388 89.9537 106.4C90.2974 106.412 90.615 106.554 90.8237 106.833C90.9387 106.59 91.218 106.443 91.5998 106.456Z" fill="#01124A"/>
<path d="M88.4695 107.474C88.4767 107.507 88.4835 107.557 88.4874 107.594L86.6632 107.532C86.799 107.92 87.1737 108.188 87.6191 108.203C87.8822 108.212 88.0836 108.133 88.2098 107.96L88.4912 108.225C88.3387 108.45 88.0564 108.564 87.683 108.552C86.9576 108.527 86.3709 108.042 86.2268 107.386C86.0836 106.734 86.4599 106.282 87.1089 106.304C87.758 106.326 88.3208 106.798 88.4695 107.474ZM87.1828 106.64C86.7925 106.626 86.5606 106.874 86.6003 107.246L88.0427 107.295C87.9191 106.924 87.5774 106.653 87.1828 106.64Z" fill="#01124A"/>
<path d="M84.9741 106.618C85.0618 106.366 85.3126 106.243 85.7071 106.256L85.7919 106.642C85.7571 106.637 85.7274 106.636 85.6977 106.635C85.2607 106.62 85.0467 106.872 85.1525 107.353L85.3934 108.449L84.9861 108.435L84.5026 106.236L84.8929 106.249L84.9741 106.618Z" fill="#01124A"/>
<path d="M83.2621 108.402C82.5875 108.379 81.9881 107.893 81.844 107.237C81.6998 106.581 82.094 106.133 82.7685 106.156C83.4431 106.179 84.0373 106.661 84.1815 107.316C84.3256 107.972 83.9366 108.424 83.2621 108.402ZM83.1854 108.053C83.6181 108.068 83.8731 107.771 83.77 107.302C83.6669 106.833 83.2779 106.52 82.8452 106.505C82.4124 106.49 82.1524 106.782 82.2555 107.251C82.3585 107.72 82.7527 108.038 83.1854 108.053Z" fill="#01124A"/>
<path d="M79.8632 108.262L79.2246 105.356L79.6488 105.371L80.208 107.915L81.8159 107.969L81.8952 108.33L79.8632 108.262Z" fill="#01124A"/>
<path d="M76.6851 120.816C75.9554 120.791 75.2929 120.229 75.0822 119.271C74.8715 118.312 75.295 117.787 76.0246 117.811C76.7586 117.836 77.4168 118.398 77.6276 119.357C77.8383 120.316 77.419 120.841 76.6851 120.816ZM76.5601 120.248C76.9038 120.259 77.0811 119.993 76.9361 119.334C76.791 118.674 76.4933 118.392 76.1496 118.38C75.8102 118.369 75.6329 118.634 75.7779 119.294C75.923 119.954 76.2207 120.236 76.5601 120.248Z" fill="#01124A"/>
<path d="M73.8989 118.963C74.4517 119.064 74.7944 119.397 74.8883 119.824C74.996 120.314 74.7085 120.749 73.8642 120.721C73.4485 120.706 72.9954 120.58 72.6631 120.371L72.8173 119.865C73.0786 120.039 73.4135 120.145 73.7232 120.156C74.0668 120.167 74.2488 120.037 74.1968 119.801C74.1485 119.581 73.9529 119.438 73.5627 119.425L73.2487 119.414L73.1511 118.97L73.6133 118.315L72.3491 118.272L72.2305 117.732L74.3092 117.803L74.405 118.238L73.8989 118.963Z" fill="#01124A"/>
<path d="M71.8507 119.157C71.6213 119.149 71.4013 118.973 71.3493 118.736C71.2964 118.496 71.4443 118.344 71.6737 118.352C71.903 118.36 72.1203 118.524 72.1732 118.764C72.2252 119.001 72.08 119.165 71.8507 119.157ZM72.1782 120.647C71.9488 120.639 71.7288 120.463 71.6768 120.226C71.6239 119.986 71.7718 119.834 72.0012 119.842C72.2305 119.85 72.4478 120.014 72.5007 120.254C72.5527 120.491 72.4075 120.655 72.1782 120.647Z" fill="#01124A"/>
<path d="M69.4738 117.589C70.2968 117.617 70.9122 118.136 71.1186 119.074C71.3395 120.079 70.8477 120.618 69.9483 120.587C69.6344 120.577 69.3177 120.496 69.0815 120.36L69.2273 119.875C69.4123 119.989 69.6114 120.032 69.815 120.039C70.3072 120.056 70.5666 119.781 70.4645 119.221C70.328 119.385 70.0936 119.468 69.7839 119.457C69.2111 119.438 68.6829 119.066 68.5624 118.518C68.4318 117.925 68.846 117.568 69.4738 117.589ZM69.8261 118.96C70.1273 118.971 70.295 118.795 70.2393 118.542C70.1845 118.293 69.9534 118.104 69.6267 118.093C69.334 118.083 69.1669 118.242 69.2254 118.508C69.2838 118.773 69.5206 118.95 69.8261 118.96Z" fill="#01124A"/>
<path d="M109.09 119.674C109.637 119.692 110.078 120.012 110.22 120.66L110.499 121.925L110.091 121.912L109.823 120.691C109.728 120.26 109.47 120.041 109.101 120.028C108.693 120.015 108.482 120.259 108.587 120.736L108.836 121.869L108.428 121.855L108.16 120.635C108.065 120.203 107.807 119.985 107.438 119.972C107.03 119.958 106.819 120.202 106.924 120.68L107.173 121.813L106.765 121.799L106.282 119.599L106.672 119.612L106.744 119.94C106.856 119.722 107.105 119.607 107.444 119.618C107.788 119.63 108.105 119.772 108.314 120.051C108.429 119.808 108.708 119.661 109.09 119.674Z" fill="#01124A"/>
<path d="M105.1 119.559L105.508 119.573L105.991 121.773L105.605 121.76L105.532 121.428C105.417 121.65 105.165 121.769 104.847 121.759C104.266 121.739 103.811 121.414 103.669 120.767L103.391 119.501L103.798 119.515L104.066 120.735C104.161 121.167 104.429 121.39 104.815 121.403C105.239 121.418 105.454 121.169 105.35 120.696L105.1 119.559Z" fill="#01124A"/>
<path d="M102.421 121.676C102.047 121.664 101.654 121.539 101.435 121.387L101.535 121.078C101.755 121.217 102.082 121.323 102.375 121.333C102.752 121.346 102.885 121.239 102.843 121.052C102.735 120.558 101.408 120.937 101.215 120.062C101.129 119.667 101.431 119.414 102.008 119.434C102.3 119.444 102.648 119.53 102.87 119.661L102.766 119.97C102.534 119.835 102.299 119.781 102.078 119.774C101.722 119.762 101.576 119.884 101.615 120.059C101.729 120.578 103.061 120.203 103.249 121.058C103.336 121.456 103.019 121.696 102.421 121.676Z" fill="#01124A"/>
<path d="M99.5827 119.351C100.24 119.374 100.818 119.838 100.966 120.511C101.115 121.187 100.734 121.619 100.076 121.597C99.7581 121.586 99.4516 121.456 99.213 121.213L99.4629 122.35L99.0556 122.337L98.3952 119.332L98.7855 119.345L98.8621 119.694C98.9907 119.455 99.2518 119.34 99.5827 119.351ZM99.9657 121.247C100.398 121.262 100.658 120.966 100.554 120.497C100.452 120.032 100.058 119.714 99.6254 119.699C99.1969 119.684 98.9378 119.98 99.0399 120.445C99.143 120.914 99.5372 121.232 99.9657 121.247Z" fill="#01124A"/>
<path d="M97.3198 118.875C97.1626 118.87 97.0191 118.754 96.9872 118.609C96.9552 118.463 97.0486 118.351 97.2057 118.356C97.3629 118.362 97.5064 118.478 97.5375 118.619C97.5703 118.768 97.4812 118.881 97.3198 118.875ZM97.6925 121.491L97.209 119.292L97.6167 119.305L98.1002 121.505L97.6925 121.491Z" fill="#01124A"/>
<path d="M94.3966 119.176C94.9439 119.194 95.3847 119.514 95.527 120.161L95.8053 121.427L95.398 121.413L95.1298 120.193C95.0349 119.762 94.7763 119.543 94.4072 119.53C94 119.516 93.7883 119.76 93.8932 120.238L94.1423 121.371L93.735 121.357L93.4668 120.137C93.3719 119.705 93.1133 119.486 92.7442 119.474C92.337 119.46 92.1253 119.704 92.2303 120.181L92.4793 121.314L92.072 121.301L91.5885 119.101L91.9788 119.114L92.0509 119.442C92.1629 119.223 92.4112 119.108 92.7506 119.12C93.0942 119.131 93.4119 119.274 93.6206 119.553C93.7356 119.31 94.0148 119.163 94.3966 119.176Z" fill="#01124A"/>
<path d="M91.2663 120.194C91.2736 120.227 91.2803 120.277 91.2843 120.314L89.4601 120.252C89.5958 120.64 89.9706 120.908 90.416 120.923C90.679 120.932 90.8805 120.852 91.0067 120.68L91.2881 120.945C91.1356 121.17 90.8532 121.284 90.4799 121.271C89.7545 121.247 89.1678 120.761 89.0236 120.106C88.8804 119.454 89.2567 119.001 89.9058 119.023C90.5549 119.045 91.1176 119.518 91.2663 120.194ZM89.9797 119.36C89.5894 119.346 89.3575 119.594 89.3972 119.966L90.8395 120.015C90.7159 119.644 90.3742 119.373 89.9797 119.36Z" fill="#01124A"/>
<path d="M87.771 119.338C87.8586 119.086 88.1094 118.962 88.504 118.976L88.5888 119.362C88.554 119.356 88.5243 119.355 88.4946 119.354C88.0576 119.34 87.8436 119.592 87.9494 120.073L88.1902 121.169L87.783 121.155L87.2995 118.956L87.6898 118.969L87.771 119.338Z" fill="#01124A"/>
<path d="M86.0589 121.121C85.3844 121.099 84.785 120.613 84.6408 119.957C84.4967 119.301 84.8909 118.853 85.5654 118.876C86.2399 118.899 86.8342 119.381 86.9784 120.036C87.1225 120.692 86.7335 121.144 86.0589 121.121ZM85.9823 120.773C86.415 120.787 86.6699 120.491 86.5668 120.022C86.4638 119.553 86.0748 119.239 85.642 119.225C85.2093 119.21 84.9493 119.502 85.0523 119.971C85.1554 120.44 85.5496 120.758 85.9823 120.773Z" fill="#01124A"/>
<path d="M82.66 120.981L82.0215 118.076L82.4457 118.091L83.0049 120.635L84.6128 120.689L84.6921 121.05L82.66 120.981Z" fill="#01124A"/>
<path d="M79.4898 133.435C78.7601 133.41 78.0976 132.848 77.8869 131.889C77.6761 130.931 78.0997 130.405 78.8293 130.43C79.5633 130.455 80.2215 131.017 80.4323 131.976C80.643 132.934 80.2237 133.46 79.4898 133.435ZM79.3648 132.866C79.7084 132.878 79.8858 132.612 79.7408 131.952C79.5957 131.292 79.2979 131.01 78.9543 130.999C78.6149 130.987 78.4376 131.253 78.5826 131.913C78.7277 132.573 79.0254 132.855 79.3648 132.866Z" fill="#01124A"/>
<path d="M76.7056 131.581C77.2584 131.683 77.601 132.015 77.695 132.443C77.8026 132.933 77.5151 133.368 76.6709 133.339C76.2551 133.325 75.802 133.198 75.4698 132.989L75.6239 132.484C75.8852 132.658 76.2202 132.764 76.5298 132.774C76.8735 132.786 77.0555 132.656 77.0035 132.419C76.9551 132.2 76.7596 132.057 76.3693 132.044L76.0554 132.033L75.9578 131.589L76.42 130.933L75.1557 130.89L75.0372 130.351L77.1159 130.421L77.2117 130.857L76.7056 131.581Z" fill="#01124A"/>
<path d="M74.6554 131.776C74.426 131.768 74.206 131.591 74.154 131.355C74.1011 131.114 74.249 130.963 74.4784 130.97C74.7077 130.978 74.925 131.142 74.9779 131.383C75.0299 131.619 74.8847 131.783 74.6554 131.776ZM74.9829 133.266C74.7535 133.258 74.5335 133.081 74.4815 132.845C74.4286 132.604 74.5765 132.453 74.8059 132.46C75.0352 132.468 75.2525 132.632 75.3054 132.873C75.3574 133.109 75.2122 133.273 74.9829 133.266Z" fill="#01124A"/>
<path d="M72.9898 133.214C72.2601 133.19 71.5976 132.628 71.3869 131.669C71.1761 130.71 71.5997 130.185 72.3293 130.21C73.0633 130.235 73.7215 130.796 73.9323 131.755C74.143 132.714 73.7237 133.239 72.9898 133.214ZM72.8648 132.646C73.2084 132.657 73.3858 132.392 73.2408 131.732C73.0957 131.072 72.7979 130.79 72.4543 130.778C72.1149 130.767 71.9376 131.033 72.0826 131.692C72.2277 132.352 72.5254 132.634 72.8648 132.646Z" fill="#01124A"/>
<path d="M69.2715 130.155L70.5527 130.199L71.1912 133.104L70.504 133.081L69.984 130.715L69.3901 130.695L69.2715 130.155Z" fill="#01124A"/>
<path d="M111.889 132.394C112.436 132.412 112.877 132.732 113.019 133.379L113.297 134.645L112.89 134.631L112.622 133.411C112.527 132.98 112.268 132.761 111.899 132.748C111.492 132.734 111.281 132.979 111.385 133.456L111.634 134.589L111.227 134.575L110.959 133.355C110.864 132.923 110.605 132.704 110.236 132.692C109.829 132.678 109.618 132.922 109.722 133.399L109.971 134.532L109.564 134.519L109.081 132.319L109.471 132.332L109.543 132.66C109.655 132.441 109.903 132.326 110.243 132.338C110.586 132.349 110.904 132.492 111.113 132.771C111.228 132.528 111.507 132.381 111.889 132.394Z" fill="#01124A"/>
<path d="M107.899 132.279L108.306 132.293L108.79 134.492L108.404 134.479L108.331 134.147C108.216 134.37 107.964 134.489 107.646 134.478C107.064 134.459 106.61 134.134 106.468 133.487L106.189 132.221L106.597 132.235L106.865 133.455C106.96 133.887 107.228 134.11 107.614 134.123C108.038 134.137 108.253 133.889 108.149 133.416L107.899 132.279Z" fill="#01124A"/>
<path d="M105.219 134.396C104.846 134.383 104.452 134.259 104.234 134.107L104.334 133.798C104.554 133.937 104.881 134.043 105.173 134.053C105.551 134.065 105.683 133.959 105.642 133.772C105.534 133.278 104.207 133.657 104.014 132.782C103.927 132.387 104.23 132.134 104.807 132.154C105.099 132.163 105.447 132.249 105.669 132.38L105.564 132.69C105.333 132.554 105.098 132.501 104.877 132.494C104.521 132.482 104.375 132.604 104.413 132.779C104.527 133.297 105.86 132.922 106.048 133.777C106.135 134.176 105.818 134.416 105.219 134.396Z" fill="#01124A"/>
<path d="M102.382 132.071C103.039 132.093 103.617 132.558 103.765 133.23C103.913 133.907 103.533 134.339 102.875 134.316C102.557 134.306 102.25 134.176 102.012 133.933L102.262 135.07L101.854 135.056L101.194 132.052L101.584 132.065L101.661 132.413C101.79 132.175 102.051 132.06 102.382 132.071ZM102.764 133.967C103.197 133.981 103.456 133.685 103.353 133.216C103.251 132.752 102.857 132.433 102.424 132.419C101.996 132.404 101.737 132.7 101.839 133.165C101.942 133.634 102.336 133.952 102.764 133.967Z" fill="#01124A"/>
<path d="M100.119 131.595C99.9615 131.59 99.8179 131.474 99.786 131.328C99.7541 131.183 99.8474 131.071 100.005 131.076C100.162 131.081 100.305 131.198 100.336 131.339C100.369 131.488 100.28 131.6 100.119 131.595ZM100.491 134.211L100.008 132.011L100.416 132.025L100.899 134.225L100.491 134.211Z" fill="#01124A"/>
<path d="M97.1955 131.895C97.7427 131.914 98.1836 132.234 98.3259 132.881L98.6041 134.147L98.1968 134.133L97.9286 132.913C97.8338 132.481 97.5751 132.262 97.206 132.25C96.7988 132.236 96.5872 132.48 96.6921 132.957L96.9411 134.09L96.5338 134.077L96.2656 132.857C96.1708 132.425 95.9121 132.206 95.5431 132.194C95.1358 132.18 94.9242 132.424 95.0291 132.901L95.2781 134.034L94.8709 134.02L94.3874 131.821L94.7777 131.834L94.8497 132.162C94.9617 131.943 95.2101 131.828 95.5495 131.839C95.8931 131.851 96.2107 131.994 96.4194 132.273C96.5344 132.029 96.8137 131.882 97.1955 131.895Z" fill="#01124A"/>
<path d="M94.0652 132.914C94.0725 132.947 94.0792 132.997 94.0831 133.034L92.2589 132.972C92.3947 133.36 92.7694 133.628 93.2148 133.643C93.4779 133.652 93.6793 133.572 93.8055 133.399L94.0869 133.664C93.9344 133.89 93.6521 134.004 93.2787 133.991C92.5533 133.966 91.9666 133.481 91.8225 132.825C91.6793 132.174 92.0556 131.721 92.7046 131.743C93.3537 131.765 93.9165 132.237 94.0652 132.914ZM92.7785 132.079C92.3882 132.066 92.1563 132.314 92.196 132.686L93.6384 132.735C93.5148 132.364 93.1731 132.093 92.7785 132.079Z" fill="#01124A"/>
<path d="M90.5698 132.058C90.6575 131.805 90.9083 131.682 91.3028 131.696L91.3876 132.082C91.3528 132.076 91.3231 132.075 91.2934 132.074C90.8564 132.059 90.6424 132.312 90.7482 132.793L90.9891 133.889L90.5818 133.875L90.0983 131.675L90.4886 131.689L90.5698 132.058Z" fill="#01124A"/>
<path d="M88.8578 133.841C88.1832 133.818 87.5838 133.332 87.4397 132.677C87.2955 132.021 87.6897 131.573 88.3642 131.596C89.0388 131.619 89.633 132.1 89.7772 132.756C89.9213 133.412 89.5323 133.864 88.8578 133.841ZM88.7811 133.492C89.2138 133.507 89.4688 133.211 89.3657 132.742C89.2626 132.273 88.8736 131.959 88.4409 131.944C88.0081 131.93 87.7481 132.222 87.8512 132.691C87.9542 133.16 88.3484 133.478 88.7811 133.492Z" fill="#01124A"/>
<path d="M85.4589 133.701L84.8203 130.796L85.2445 130.81L85.8037 133.354L87.4116 133.409L87.4909 133.77L85.4589 133.701Z" fill="#01124A"/>
<path d="M57.5582 112.027L57.5469 112.362L116.404 114.354L116.415 114.02L57.5582 112.027Z" fill="#7E85FD"/>
<path d="M60.5289 125.535L60.5176 125.87L119.375 127.862L119.386 127.528L60.5289 125.535Z" fill="#7E85FD"/>
<path d="M35.4004 49.2818C35.1619 49.2739 34.9513 49.1036 34.9009 48.8593L29.677 23.4413C29.618 23.1552 29.8022 22.8754 30.0883 22.8163C30.3753 22.7576 30.6536 22.9416 30.7126 23.2281L35.9365 48.6462C35.9951 48.9322 35.8113 49.212 35.5252 49.2711C35.4831 49.2798 35.4413 49.2833 35.4004 49.2818Z" fill="#7E85FD"/>
<g opacity="0.19">
<path d="M50.6414 99.404C53.7536 102.738 56.8658 106.072 59.978 109.406C71.3465 121.584 82.7149 133.762 94.0837 145.94L119.827 146.175C123.275 146.292 125.533 143.805 125.237 140.467L123.868 139.001C95.607 108.727 67.3455 78.4528 39.084 48.1786L50.5001 98.7779L50.6414 99.404Z" fill="url(#paint0_linear_10042_2468)"/>
<path d="M52.3594 107.015L59.4812 138.579C60.3401 142.385 64.0899 145.573 67.8591 145.701L88.6512 145.891C76.5538 132.932 64.4564 119.973 52.3594 107.015Z" fill="url(#paint1_linear_10042_2468)"/>
<path d="M63.6147 6.98793L36.3549 6.06469C36.2403 6.06075 36.1313 6.06863 36.0195 6.0706C43.694 14.2915 51.3681 22.5124 59.0426 30.7333L113.715 89.2989L105.14 51.4701L63.6147 6.98793Z" fill="url(#paint2_linear_10042_2468)"/>
</g>
<path d="M138.338 50.5555H97.1039C95.498 50.5555 93.8767 49.2524 93.4823 47.6447L87.8137 24.5349C87.4193 22.9272 88.4013 21.6241 90.0072 21.6241H131.241C132.847 21.6241 134.469 22.9272 134.863 24.5349L140.532 47.6447C140.926 49.2524 139.944 50.5555 138.338 50.5555Z" fill="#FF5757"/>
<path d="M128.373 30.4851C128.393 30.5653 128.407 30.679 128.421 30.7659H125.622C125.835 31.2139 126.294 31.4881 126.858 31.4881C127.25 31.4881 127.504 31.3744 127.701 31.1404L128.42 31.7422C128.17 32.1233 127.703 32.3239 127.036 32.3239C125.757 32.3239 124.732 31.5416 124.47 30.4717C124.206 29.3952 124.862 28.6195 125.99 28.6195C127.076 28.6195 128.089 29.3283 128.373 30.4851ZM126.19 29.4085C125.702 29.4085 125.421 29.6961 125.459 30.1574H127.282C127.094 29.7027 126.671 29.4085 126.19 29.4085Z" fill="white"/>
<path d="M124.185 31.361L124.655 32.0966C124.472 32.2504 124.167 32.3239 123.837 32.3239C122.964 32.3239 122.348 31.8893 122.138 31.0334L121.776 29.5557H121.205L121.008 28.7533H121.579L121.364 27.8773H122.437L122.652 28.7533H123.573L123.77 29.5557H122.848L123.208 31.02C123.283 31.3276 123.496 31.4948 123.785 31.4948C123.943 31.4948 124.09 31.448 124.185 31.361Z" fill="white"/>
<path d="M118.663 28.6195C119.791 28.6195 120.569 29.1277 120.836 30.2176L121.34 32.2704H120.336L120.226 31.8224C120.107 32.15 119.764 32.3239 119.221 32.3239C118.354 32.3239 117.724 31.8558 117.571 31.234C117.415 30.5987 117.768 30.1574 118.896 30.1574H119.749C119.639 29.7094 119.3 29.4486 118.722 29.4486C118.33 29.4486 117.955 29.5757 117.738 29.783L117.174 29.0541C117.511 28.7733 118.071 28.6195 118.663 28.6195ZM119.317 31.6218C119.675 31.6218 119.945 31.4613 119.988 31.1337L119.898 30.7659H119.162C118.66 30.7659 118.546 30.9465 118.605 31.1872C118.669 31.4479 118.939 31.6218 119.317 31.6218Z" fill="white"/>
<path d="M112.459 32.2704L111.311 27.5897H113.498C115.073 27.5897 116.379 28.5125 116.727 29.93C117.074 31.3476 116.221 32.2704 114.646 32.2704H112.459ZM113.355 31.381H114.373C115.329 31.381 115.818 30.826 115.599 29.93C115.379 29.034 114.617 28.479 113.661 28.479H112.643L113.355 31.381Z" fill="white"/>
<path d="M109.285 30.4851C109.305 30.5653 109.319 30.679 109.333 30.7659H106.534C106.747 31.2139 107.206 31.4881 107.77 31.4881C108.162 31.4881 108.417 31.3744 108.614 31.1404L109.332 31.7422C109.082 32.1233 108.615 32.3239 107.948 32.3239C106.669 32.3239 105.645 31.5416 105.382 30.4717C105.118 29.3952 105.774 28.6195 106.902 28.6195C107.988 28.6195 109.001 29.3283 109.285 30.4851ZM107.102 29.4085C106.614 29.4085 106.334 29.6961 106.371 30.1574H108.194C108.006 29.7027 107.584 29.4085 107.102 29.4085Z" fill="white"/>
<path d="M103.148 28.673H104.221L105.104 32.2704H104.086L103.981 31.8424C103.776 32.1567 103.404 32.3239 102.95 32.3239C102.022 32.3239 101.244 31.8157 100.971 30.7057L100.473 28.673H101.546L102.007 30.5519C102.154 31.1537 102.495 31.4212 102.969 31.4212C103.465 31.4212 103.747 31.1136 103.584 30.4516L103.148 28.673Z" fill="white"/>
<path d="M95.7694 32.2704L94.6211 27.5897H96.8082C98.3832 27.5897 99.6893 28.5125 100.037 29.93C100.385 31.3476 99.5315 32.2704 97.9565 32.2704H95.7694ZM96.6654 31.381H97.6833C98.6393 31.381 99.129 30.826 98.9092 29.93C98.6894 29.034 97.9273 28.479 96.9713 28.479H95.9534L96.6654 31.381Z" fill="white"/>
<path d="M129.152 41.4035C129.172 41.4838 129.186 41.5974 129.2 41.6844H126.401C126.614 42.1324 127.074 42.4065 127.638 42.4065C128.03 42.4065 128.284 42.2929 128.481 42.0588L129.199 42.6606C128.949 43.0418 128.482 43.2424 127.815 43.2424C126.536 43.2424 125.512 42.46 125.249 41.3902C124.985 40.3136 125.641 39.538 126.769 39.538C127.855 39.538 128.868 40.2467 129.152 41.4035ZM126.969 40.327C126.481 40.327 126.201 40.6145 126.238 41.0759H128.061C127.874 40.6212 127.451 40.327 126.969 40.327Z" fill="white"/>
<path d="M123.066 39.5915H124.084L124.819 42.5871C125.147 43.9244 124.555 44.5396 123.221 44.5396C122.519 44.5396 121.797 44.3724 121.284 44.0447L121.526 43.2958C121.903 43.5432 122.459 43.7037 122.933 43.7037C123.69 43.7037 123.938 43.3694 123.779 42.7208L123.741 42.567C123.533 42.8679 123.163 43.015 122.682 43.015C121.657 43.015 120.663 42.3263 120.405 41.2765C120.147 40.2267 120.804 39.538 121.829 39.538C122.344 39.538 122.812 39.7051 123.179 40.0528L123.066 39.5915ZM122.685 42.1591C123.249 42.1591 123.568 41.8047 123.438 41.2765C123.308 40.7482 122.816 40.3939 122.252 40.3939C121.688 40.3939 121.362 40.7482 121.492 41.2765C121.621 41.8047 122.121 42.1591 122.685 42.1591Z" fill="white"/>
<path d="M117.708 39.538C118.581 39.538 119.363 40.0328 119.632 41.1294L120.137 43.1889H119.064L118.599 41.2899C118.456 40.7081 118.115 40.4407 117.641 40.4407C117.125 40.4407 116.829 40.7482 116.991 41.4102L117.428 43.1889H116.355L115.472 39.5915H116.497L116.6 40.0127C116.814 39.7051 117.206 39.538 117.708 39.538Z" fill="white"/>
<path d="M112.706 39.538C113.834 39.538 114.612 40.0461 114.879 41.1361L115.383 43.1889H114.379L114.269 42.7409C114.15 43.0685 113.807 43.2424 113.264 43.2424C112.397 43.2424 111.767 42.7743 111.614 42.1524C111.458 41.5172 111.811 41.0759 112.939 41.0759H113.792C113.682 40.6279 113.343 40.3671 112.765 40.3671C112.373 40.3671 111.998 40.4942 111.781 40.7014L111.217 39.9726C111.554 39.6918 112.114 39.538 112.706 39.538ZM113.36 42.5403C113.717 42.5403 113.988 42.3798 114.031 42.0521L113.941 41.6844H113.205C112.703 41.6844 112.589 41.8649 112.648 42.1056C112.712 42.3664 112.982 42.5403 113.36 42.5403Z" fill="white"/>
<path d="M108.709 39.538C109.583 39.538 110.364 40.0328 110.633 41.1294L111.139 43.1889H110.066L109.6 41.2899C109.457 40.7082 109.116 40.4407 108.642 40.4407C108.126 40.4407 107.83 40.7483 107.992 41.4102L108.429 43.1889H107.356L106.139 38.2274H107.212L107.638 39.9659C107.858 39.6851 108.235 39.538 108.709 39.538Z" fill="white"/>
<path d="M104.71 43.2691C103.218 43.2691 101.856 42.2594 101.51 40.8485C101.164 39.4377 102.03 38.428 103.53 38.428C104.362 38.428 105.129 38.7222 105.714 39.2571L105.156 39.899C104.744 39.538 104.292 39.3507 103.811 39.3507C102.91 39.3507 102.421 39.9659 102.638 40.8485C102.854 41.7312 103.645 42.3463 104.546 42.3463C105.027 42.3463 105.387 42.1591 105.62 41.7913L106.493 42.4333C106.172 42.9749 105.549 43.2691 104.71 43.2691Z" fill="white"/>
<path d="M131.652 35.0053H95.5784L95.4961 34.6692H131.57L131.652 35.0053Z" fill="white"/>
<path d="M200.99 148.867H210.456C210.313 147.93 209.726 146.763 209.581 146.485C209.758 145.897 209.861 145.457 209.861 145.457C209.861 145.457 210.123 144.477 210.511 142.924H205.639L205.939 145.857C204.682 146.729 202.336 148.311 201.215 148.772C201.136 148.804 201.063 148.836 200.99 148.867Z" fill="#FFBF9D"/>
<path d="M199.167 149.984H207.794L208.482 149.295V149.984H210.772C211.105 149.18 210.474 148.128 210.385 147.62C210.287 147.062 209.549 146.551 209.549 146.551C208.975 146.566 208.286 148.014 208.056 148.014C207.827 148.014 207.63 146.504 207.072 146.175C206.514 145.847 205.438 145.712 205.038 146.208C203.53 148.079 201.102 148.506 199.626 149.064C198.717 149.408 198.755 149.771 198.917 149.998C198.997 149.99 199.08 149.984 199.167 149.984Z" fill="#01124A"/>
<path d="M188.551 148.867H198.016C197.902 147.947 197.366 146.805 197.217 146.501C197.34 145.797 197.398 145.252 197.398 145.252C197.398 145.252 197.519 144.358 197.693 142.924H192.807L193.495 145.918C192.194 146.801 189.884 148.322 188.778 148.772C188.698 148.804 188.624 148.836 188.551 148.867Z" fill="#E79E6C"/>
<path d="M186.638 149.984H195.264L195.953 149.295V149.984H198.242C198.575 149.18 197.945 148.128 197.856 147.62C197.757 147.062 197.019 146.551 197.019 146.551C196.446 146.566 195.757 148.014 195.527 148.014C195.297 148.014 195.101 146.504 194.543 146.175C193.985 145.847 192.909 145.712 192.509 146.208C191 148.079 188.573 148.506 187.097 149.064C186.187 149.408 186.225 149.771 186.387 149.998C186.468 149.99 186.551 149.984 186.638 149.984Z" fill="#01124A"/>
<path d="M213.96 64.6409L201.631 65.2047L201.627 65.1007L189.097 65.6918C189.097 65.6918 186.998 70.3545 186.408 75.9369C185.817 81.5193 185.293 112.846 185.489 114.487C185.686 116.129 192.968 145.616 192.968 145.616H198.019C198.019 145.616 200.708 125.783 196.313 113.436L199.889 96.3494C201.376 109.523 205.301 145.288 205.301 145.288H210.286C210.286 145.288 214.747 130.577 214.55 123.682C214.353 116.786 212.582 111.007 212.582 111.007C212.582 111.007 214.813 74.6235 214.944 71.3396C215.075 68.056 213.96 64.6409 213.96 64.6409Z" fill="#01124A"/>
<path d="M199.662 96.0988C199.406 94.8072 199.194 93.5096 198.987 92.2112C198.777 90.9136 198.597 89.6117 198.417 88.3098C198.247 87.0067 198.077 85.7036 197.937 84.3962L197.729 82.435C197.674 81.7794 197.606 81.1256 197.562 80.4684C197.694 81.1138 197.801 81.7624 197.921 82.4094L198.238 84.356C198.448 85.6536 198.628 86.9555 198.807 88.2574C198.977 89.5605 199.147 90.864 199.286 92.171C199.43 93.4777 199.567 94.7855 199.662 96.0988Z" fill="#4E609C"/>
<path d="M198.873 89.6626L195.507 103.284C194.963 105.558 194.39 107.826 193.891 110.106C193.768 110.674 193.642 111.25 193.56 111.812L193.539 112.012C193.542 112.026 193.54 112.037 193.534 112.051C193.539 112.071 193.558 112.097 193.569 112.119C193.628 112.212 193.715 112.307 193.823 112.394C194.032 112.57 194.281 112.727 194.519 112.922C194.639 113.017 194.755 113.131 194.86 113.264C194.963 113.399 195.041 113.577 195.056 113.769C195.051 113.863 195.053 113.962 195.019 114.046L194.98 114.172C194.978 114.192 194.973 114.21 194.967 114.231C194.958 114.349 194.96 114.486 194.976 114.626C195.032 115.187 195.159 115.761 195.279 116.329C195.777 118.605 196.38 120.868 196.896 123.153C197.151 124.296 197.404 125.441 197.548 126.617C197.659 127.808 197.608 128.971 197.604 130.143C197.531 134.823 197.374 139.498 197.167 144.172L197.244 137.155C197.275 134.817 197.302 132.478 197.301 130.141C197.298 129.557 197.299 128.973 197.287 128.39C197.278 127.806 197.279 127.224 197.21 126.656C197.064 125.511 196.807 124.369 196.547 123.233C196.021 120.957 195.406 118.702 194.895 116.411C194.776 115.835 194.651 115.263 194.594 114.66C194.579 114.509 194.572 114.354 194.589 114.18C194.599 114.129 194.613 114.077 194.628 114.026L194.653 113.942C194.678 113.889 194.669 113.839 194.677 113.787C194.667 113.588 194.497 113.384 194.281 113.212C194.068 113.034 193.822 112.878 193.584 112.677C193.465 112.579 193.347 112.461 193.252 112.307C193.231 112.264 193.206 112.227 193.19 112.179C193.179 112.121 193.173 112.059 193.172 111.999L193.197 111.764C193.287 111.169 193.415 110.602 193.541 110.029C194.06 107.744 194.624 105.474 195.215 103.211C196.387 98.6818 197.601 94.1645 198.873 89.6626Z" fill="#4E609C"/>
<path d="M212.649 67.9902C212.725 69.5912 212.791 71.193 212.839 72.7956C212.878 74.3966 212.94 76.005 212.825 77.6088L212.295 87.2108C211.957 93.6124 211.587 100.014 211.366 106.418C211.313 108.017 211.251 109.622 211.276 111.213C211.28 111.412 211.288 111.609 211.303 111.803C211.31 111.9 211.321 111.994 211.336 112.079L211.349 112.129C211.36 112.16 211.338 112.099 211.324 112.11L211.443 112.208C211.756 112.474 212.067 112.794 212.229 113.221C212.31 113.432 212.339 113.662 212.329 113.883C212.33 113.989 212.295 114.118 212.303 114.192C212.3 114.275 212.298 114.364 212.307 114.466C212.326 114.856 212.37 115.257 212.41 115.653C212.743 118.837 213.193 122.018 213.328 125.234C213.36 126.035 213.373 126.852 213.261 127.658C213.155 128.461 212.993 129.246 212.835 130.034C212.508 131.606 212.142 133.167 211.768 134.726C211.005 137.84 210.199 140.944 209.369 144.04C210.136 140.927 210.881 137.809 211.58 134.682C211.933 133.119 212.284 131.555 212.591 129.984C212.74 129.199 212.893 128.411 212.987 127.624C213.087 126.84 213.066 126.045 213.025 125.247C212.843 122.057 212.406 118.88 212.054 115.691C212.011 115.29 211.967 114.893 211.945 114.483C211.936 114.385 211.935 114.274 211.941 114.156C211.94 114.03 211.966 113.963 211.964 113.867C211.972 113.688 211.949 113.513 211.885 113.35C211.761 113.021 211.499 112.74 211.204 112.493L211.091 112.4C211.053 112.368 210.995 112.268 210.997 112.25L210.971 112.154C210.95 112.042 210.939 111.937 210.93 111.834C210.914 111.628 210.905 111.425 210.9 111.223C210.869 109.609 210.924 108.008 210.973 106.404C211.228 99.9935 211.592 93.5919 211.994 87.1927L212.634 77.5962C212.78 76.0019 212.751 74.3997 212.743 72.7972C212.727 71.1954 212.694 69.5928 212.649 67.9902Z" fill="#4E609C"/>
<path d="M189.919 67.3337C190.018 68.0651 190.015 68.8098 189.941 69.5471C189.866 70.2847 189.72 71.0192 189.479 71.7281C189.229 72.4326 188.893 73.1124 188.441 73.7145C187.975 74.3071 187.381 74.7906 186.721 75.1157C187.302 74.6574 187.787 74.1266 188.19 73.536C188.569 72.928 188.872 72.2786 189.107 71.6004C189.345 70.9227 189.503 70.2166 189.638 69.5045C189.761 68.7905 189.866 68.0678 189.919 67.3337Z" fill="#4E609C"/>
<path d="M211.026 69.0084L211.113 70.7572C211.15 71.3356 211.193 71.9113 211.275 72.4784C211.353 73.045 211.468 73.6065 211.668 74.1302C211.869 74.644 212.184 75.1507 212.748 75.362C212.45 75.3411 212.167 75.1909 211.933 74.9919C211.702 74.7863 211.525 74.5282 211.388 74.2571C211.11 73.7129 210.974 73.1202 210.885 72.5327C210.733 71.353 210.775 70.1606 211.026 69.0084Z" fill="#4E609C"/>
<path d="M166.864 35.4657C166.864 35.4657 167.602 38.1503 167.725 38.6429C167.848 39.1354 168.882 40.6872 168.882 40.6872L165.856 42.0419L163.248 37.3134L164.33 35.1213L166.864 35.4657Z" fill="#FFBF9D"/>
<path d="M166.628 36.6435L164.553 38.1062L164.432 38.1885C164.266 38.3075 164.034 38.2661 163.915 38.0998L160.045 32.586C159.926 32.4158 159.967 32.1837 160.133 32.0647L160.253 31.9784L162.329 30.5197C162.488 30.4062 162.712 30.4448 162.821 30.6048L166.717 36.1501C166.827 36.3101 166.788 36.5335 166.628 36.6435Z" fill="black"/>
<path d="M164.553 38.1061L164.432 38.1885C164.266 38.3075 164.034 38.2661 163.915 38.0998L160.045 32.586C159.926 32.4158 159.967 32.1837 160.133 32.0647L160.253 31.9784L164.553 38.1061Z" fill="#00005E"/>
<path d="M166.632 36.6371L164.683 37.9863L164.562 38.0691C164.396 38.1885 164.164 38.1475 164.045 37.9816L160.165 32.4749C160.045 32.305 160.086 32.0729 160.251 31.9535L160.371 31.8669L162.321 30.5212C162.48 30.4073 162.703 30.4455 162.813 30.6055L166.72 36.1434C166.83 36.3034 166.791 36.5272 166.632 36.6371Z" fill="#7E85FD"/>
<path d="M167.428 38.0763C167.404 38.1011 167.354 35.3424 167.035 34.7513C166.715 34.1603 164.772 33.3722 164.772 33.3722C164.772 33.3722 164.427 34.3573 165.436 34.7269L165.928 35.3672C165.928 35.3672 165.756 36.6234 165.953 37.3374L167.428 38.0763Z" fill="#FFBF9D"/>
<path d="M163.863 38.2241C163.863 38.2241 164.379 38.0764 164.379 37.8793C164.379 37.6823 163.1 37.0172 163.1 37.0172C163.1 37.0172 163.395 37.1405 163.543 36.8938C163.691 36.6472 162.19 35.5391 162.19 35.5391C162.19 35.5391 162.608 35.3173 162.51 35.1695C162.411 35.0218 161.649 34.8984 161.649 34.8984L161.181 34.2333C161.181 34.2333 160.984 35.588 161.624 35.7602C161.624 35.7602 162.288 36.9423 162.805 37.0901C162.805 37.0913 163.075 38.1256 163.863 38.2241Z" fill="#FFBF9D"/>
<path d="M195.524 21.0339C195.524 21.0339 187.357 23.6937 184.799 26.3535C182.24 29.0133 177.615 49.1094 177.615 49.1094C177.615 49.1094 176.828 48.4198 176.533 48.2228C176.238 48.0258 168.464 39.0613 168.464 39.0613C168.464 39.0613 164.43 40.342 164.331 41.3271C164.233 42.3122 170.727 59.8471 174.86 62.1128C178.993 64.3785 180.371 62.9009 180.666 62.5068C180.961 62.1128 191.982 48.5183 192.572 46.7452C193.163 44.972 195.524 21.0339 195.524 21.0339Z" fill="#14142D"/>
<path d="M181.156 52.7543C180.504 52.218 179.897 51.6415 179.314 51.0418C178.733 50.4409 178.168 49.8238 177.631 49.1823L177.275 48.7579L177.786 48.9274C178.056 49.0168 178.324 49.1138 178.591 49.2123C178.855 49.321 179.123 49.416 179.384 49.5366C179.099 49.5035 178.82 49.4455 178.538 49.401C178.259 49.3466 177.98 49.2899 177.703 49.2264L177.858 48.9715C178.457 49.5559 179.03 50.1643 179.586 50.7896C180.14 51.415 180.669 52.0643 181.156 52.7543Z" fill="white"/>
<path d="M178.27 48.5511C178.382 48.332 178.543 48.2237 178.715 48.1409C178.893 48.0696 179.082 48.0251 179.319 48.0913C179.207 48.3111 179.046 48.4195 178.873 48.5015C178.695 48.572 178.506 48.6169 178.27 48.5511Z" fill="white"/>
<path d="M188.031 48.9045C187.812 49.5787 187.416 50.1844 186.994 50.7526C186.561 51.3153 186.085 51.8378 185.656 52.3879C185.233 52.9387 184.823 53.5038 184.598 54.1418C184.542 54.3002 184.486 54.4586 184.455 54.6233C184.41 54.7844 184.393 54.9464 184.348 55.1446C184.31 55.3329 184.18 55.5757 183.975 55.6884C183.782 55.803 183.595 55.8369 183.449 55.8929C182.852 56.099 182.502 56.7243 182.224 57.3481C182.079 57.6637 181.946 57.9919 181.782 58.3158C181.619 58.639 181.428 58.9439 181.222 59.2359C180.39 60.3944 179.441 61.4331 178.51 62.4935C178.915 61.9138 179.339 61.3515 179.752 60.7814C180.176 60.221 180.598 59.6544 180.97 59.0681C181.154 58.7729 181.324 58.4723 181.472 58.1629C181.619 57.8536 181.743 57.5254 181.883 57.1968C182.024 56.8689 182.184 56.5379 182.408 56.2333C182.628 55.9287 182.941 55.6592 183.314 55.5225C183.498 55.4586 183.663 55.4228 183.773 55.355C183.881 55.2924 183.935 55.2005 183.975 55.0484C184.011 54.9034 184.035 54.7147 184.085 54.5358C184.122 54.3534 184.183 54.1796 184.251 54.0082C184.519 53.3194 184.957 52.7303 185.423 52.1956C185.89 51.6581 186.389 51.1608 186.846 50.6308C187.312 50.1095 187.73 49.5441 188.031 48.9045Z" fill="white"/>
<path d="M180.818 57.4371C181.142 57.4269 181.41 57.5242 181.666 57.6468C181.917 57.7804 182.154 57.9399 182.336 58.2075C182.013 58.2185 181.744 58.1212 181.488 57.9979C181.238 57.8635 181.001 57.7039 180.818 57.4371Z" fill="white"/>
<path d="M165.107 41.8933C165.637 41.4552 166.221 41.125 166.817 40.82C167.12 40.6742 167.418 40.53 167.74 40.4113C168.059 40.2931 168.412 40.2041 168.757 40.2439C168.436 40.368 168.156 40.5256 167.87 40.6899C167.588 40.8586 167.29 41.0213 166.993 41.1722C166.391 41.4654 165.776 41.733 165.107 41.8933Z" fill="white"/>
<path d="M194.226 23.3308C196.394 24.7438 198.771 25.5008 201.351 25.6363C203.915 25.7711 206.694 25.8302 208.976 24.4897C209.594 24.1264 210.174 23.6992 210.729 23.2358C206.659 21.6782 205.602 20.3688 205.602 20.3688C204.297 18.9412 203.463 13.7213 203.463 13.7213L200.506 15.8677L197.559 15.6832C197.559 15.6832 197.302 19.1457 195.945 20.5051C195.945 20.5051 195.274 21.2302 192.746 22.3536C193.248 22.6905 193.746 23.0175 194.226 23.3308Z" fill="#FFBF9D"/>
<path d="M197.377 17.0341C198.73 17.3911 200.398 17.2886 201.907 16.205C202.571 15.729 203.12 15.0599 203.567 14.3254C203.546 14.2064 203.526 14.104 203.509 14.0177C203.198 14.4117 202.841 14.7648 202.443 15.0517C200.795 16.2338 198.959 16.2499 197.549 15.7739C197.532 15.967 197.483 16.4387 197.377 17.0341Z" fill="#E27F5C"/>
<path d="M188.586 65.2651V66.2502L196.999 68.9592L198.524 67.0383L199.459 69.2055L215.007 66.4965L214.662 64.9203L188.586 65.2651Z" fill="white"/>
<path d="M213.628 58.4679C213.628 58.4679 215.104 63.0979 215.104 65.6592C215.104 65.6592 198.179 68.122 188.437 65.6592C188.437 65.6592 188.315 56.5135 188.15 49.5311C188.059 45.6182 187.953 42.3871 187.847 41.8197C187.811 41.6266 187.76 41.2562 187.693 40.7439C187.245 37.0715 186.233 26.3063 186.666 25.2699C187.158 24.0878 195.522 21.034 195.522 21.034C195.522 21.034 196.703 23.9893 199.261 23.8908C201.82 23.7923 205.602 20.368 205.602 20.368C205.602 20.368 211.168 23.0042 212.25 23.2012C213.333 23.3982 215.694 26.5506 215.793 27.6342C215.84 28.1504 215.348 35.1998 214.824 42.4265C214.608 45.3621 214.387 48.3292 214.199 50.8945C213.872 55.2526 213.628 58.4679 213.628 58.4679Z" fill="#14142D"/>
<path opacity="0.5" d="M214.824 42.4266C214.608 45.3622 214.388 48.3293 214.199 50.8945L209.897 46.5877L205.653 50.8315L200.954 46.1266L196.711 50.3744L192.011 45.6656L188.15 49.5312C188.059 45.6183 187.953 42.3872 187.847 41.8198C187.811 41.6267 187.76 41.2563 187.693 40.744L191.976 45.0312L196.219 40.7874L200.918 45.4922L205.161 41.2445L209.861 45.9533L214.104 41.7055L214.824 42.4266Z" fill="#14142D"/>
<path d="M188.306 52.5574C188.17 50.9675 188.077 49.3763 187.991 47.7848C187.904 46.1933 187.852 44.6006 187.781 43.0086C187.742 41.4155 187.685 39.8228 187.662 38.2293L187.635 35.8386C187.64 35.0411 187.632 34.2443 187.649 33.4464C187.721 34.2412 187.768 35.0368 187.828 35.8319L187.965 38.219C188.051 39.8106 188.104 41.4033 188.174 42.9952C188.212 44.5883 188.27 46.1811 188.292 47.7746C188.316 49.3681 188.332 50.962 188.306 52.5574Z" fill="white"/>
<path d="M186.6 34.1687C186.956 34.8019 187.197 35.4702 187.411 36.1468C187.613 36.8269 187.788 37.5161 187.846 38.2403C187.489 37.6075 187.248 36.9392 187.035 36.2622C186.833 35.5817 186.659 34.893 186.6 34.1687Z" fill="white"/>
<path d="M196.832 23.8251C197.209 24.3129 197.624 24.7609 198.075 25.1506C198.526 25.5384 199.034 25.8552 199.583 26.0022C199.858 26.0672 200.141 26.1003 200.419 26.066C200.697 26.0333 200.965 25.9383 201.218 25.802C201.719 25.5179 202.142 25.0643 202.474 24.5474C202.279 25.1313 201.922 25.6909 201.382 26.0624C201.115 26.2512 200.799 26.3741 200.472 26.4352C200.141 26.4888 199.806 26.4537 199.485 26.3832C198.848 26.2047 198.299 25.8296 197.866 25.3733C197.424 24.9229 197.079 24.3917 196.832 23.8251Z" fill="white"/>
<path d="M199.26 23.8905L198.055 20.8738L196.812 23.1643C196.812 23.1643 198.276 24.1613 199.26 23.8905Z" fill="#BCD8E0"/>
<path d="M202.706 24.4075L200.48 21.5137L199.262 23.8901C199.262 23.8901 200.898 24.506 202.706 24.4075Z" fill="#BCD8E0"/>
<path d="M199.262 23.8906L200.172 20.4427L204.895 18.7925L207.429 20.8368L202.829 24.7279L200.492 21.7234L199.262 23.8906Z" fill="white"/>
<path d="M199.26 23.8906L198.522 20.4179L196.702 18.891L193.627 21.7234L195.521 21.0338L196.727 23.4965L198.129 21.4523L199.26 23.8906Z" fill="white"/>
<path d="M215.69 58.9832C215.659 58.9292 215.63 58.8744 215.6 58.8204C212.258 62.502 209.493 66.055 210.587 66.7344C211.595 67.3605 215.054 65.7918 218.759 63.7132C217.584 62.2447 216.604 60.6007 215.69 58.9832Z" fill="#E79E6C"/>
<path d="M207.621 69.1026C207.621 69.1026 205.162 70.1488 204.823 70.2008C204.484 70.2528 203.755 70.1708 203.7 70.0329C203.644 69.895 204.618 69.6881 204.618 69.6881L207.447 68.1616L207.621 69.1026Z" fill="#E6965F"/>
<path d="M211.615 64.0809C211.615 64.0809 212.972 65.9022 212.517 66.788C212.061 67.6738 208.957 69.9175 208.288 70.1559C207.62 70.3943 204.198 71.6197 203.919 71.3695C203.639 71.1193 207.082 68.824 207.082 68.824C207.082 68.824 207.649 68.4442 207.029 68.0162C207.029 68.0162 207.707 66.113 208.336 65.661C208.965 65.2091 210.723 64.3225 211.615 64.0809Z" fill="#E79E6C"/>
<path d="M207.86 67.8472C207.86 67.8472 206.197 68.1857 205.906 68.3559C205.614 68.5261 204.875 68.7023 204.858 68.4328C204.84 68.1636 207.75 65.7718 208.543 65.6189C209.336 65.466 209.431 66.7171 209.431 66.7171L207.86 67.8472Z" fill="#E79E6C"/>
<path d="M214.121 23.4967C213.515 23.0251 209.755 21.7362 207.437 20.9678C206.507 21.9647 205.586 22.9734 204.688 23.9995L202.805 31.4757L222.682 49.5031L211.759 62.2109L215.105 65.6588C215.105 65.6588 233.998 55.7093 233.998 49.7001C233.998 43.691 215.006 24.1863 214.121 23.4967Z" fill="#14142D"/>
<path d="M208.441 36.6641C209.606 37.5239 210.691 38.4719 211.756 39.4413C212.813 40.4193 213.849 41.4198 214.804 42.5089C213.639 41.6495 212.554 40.7014 211.49 39.7317C210.434 38.7529 209.397 37.7524 208.441 36.6641Z" fill="white"/>
<path d="M207.854 38.4372C208.383 38.3718 208.892 38.425 209.396 38.5058C209.898 38.5991 210.395 38.7209 210.871 38.9625C210.341 39.0286 209.833 38.9754 209.329 38.8939C208.827 38.7997 208.33 38.6779 207.854 38.4372Z" fill="white"/>
<path d="M222.744 48.814C222.873 48.4991 223.079 48.2753 223.305 48.0736C223.538 47.8809 223.791 47.7103 224.122 47.6318C223.994 47.9475 223.787 48.1709 223.561 48.3722C223.327 48.5641 223.075 48.7348 222.744 48.814Z" fill="white"/>
<path d="M223.072 49.208C223.309 48.9912 223.574 48.8916 223.846 48.8194C224.121 48.7595 224.403 48.7276 224.712 48.8139C224.475 49.0314 224.21 49.1311 223.938 49.2025C223.663 49.2616 223.382 49.2931 223.072 49.208Z" fill="white"/>
<path d="M223.139 49.7991C223.303 49.6438 223.467 49.6087 223.631 49.6021C223.795 49.608 223.959 49.6426 224.123 49.7991C223.959 49.9551 223.795 49.9902 223.631 49.9961C223.467 49.989 223.302 49.9543 223.139 49.7991Z" fill="white"/>
<path d="M212.312 62.4738C212.559 61.8781 212.903 61.3536 213.269 60.8465C213.646 60.3464 214.046 59.8637 214.543 59.4531C214.296 60.0497 213.953 60.5738 213.585 61.0805C213.209 61.5802 212.809 62.0629 212.312 62.4738Z" fill="white"/>
<path d="M209.231 28.453C209.158 28.1839 209.229 27.8895 209.329 27.6294C209.439 27.3674 209.584 27.1337 209.727 26.9016C210.018 26.4371 210.354 26.0009 210.716 25.5887C211.45 24.775 212.306 24.061 213.281 23.5637C212.488 24.3148 211.718 25.0504 211.009 25.8511C210.651 26.2471 210.312 26.6601 209.977 27.0786C209.814 27.2921 209.639 27.4974 209.5 27.7177C209.352 27.9344 209.248 28.1783 209.231 28.453Z" fill="white"/>
<path d="M207.543 21.681C208.715 22.5503 210.035 23.1819 211.435 23.5724C211.782 23.6855 212.132 23.8136 212.459 24.0035C212.622 24.0985 212.777 24.2096 212.918 24.3392C213.062 24.4685 213.176 24.6139 213.301 24.727C213.428 24.8428 213.554 24.9134 213.715 24.9323C213.874 24.9555 214.067 24.9433 214.267 24.9886C214.663 25.0769 214.99 25.3157 215.263 25.5702C215.798 26.0982 216.26 26.6416 216.753 27.1838L218.203 28.8179L221.072 32.1133C222.952 34.3384 224.822 36.5711 226.657 38.8321L229.399 42.2319C230.284 43.3793 231.283 44.4779 231.898 45.8098C231.205 44.5221 230.189 43.4656 229.251 42.3548L226.424 39.0256C224.541 36.8055 222.674 34.5721 220.773 32.369C218.894 30.1541 216.986 27.9341 215.055 25.7889C214.806 25.5442 214.524 25.3354 214.205 25.2566C214.05 25.2152 213.874 25.2223 213.675 25.1908C213.471 25.1655 213.267 25.0446 213.133 24.9082C212.991 24.7727 212.883 24.6265 212.758 24.5103C212.634 24.3905 212.495 24.2853 212.346 24.1934C212.047 24.0082 211.712 23.8778 211.373 23.7541C209.988 23.3017 208.657 22.6196 207.543 21.681Z" fill="white"/>
<path d="M213.588 62.014C213.987 62.4514 214.444 62.7233 214.911 63.0681C215.139 63.2427 215.373 63.4275 215.569 63.658C215.766 63.8842 215.931 64.1592 215.975 64.4579C215.593 64.0047 215.141 63.7289 214.676 63.3841C214.449 63.21 214.215 63.0275 214.016 62.8009C213.816 62.5791 213.645 62.3104 213.588 62.014Z" fill="white"/>
<path d="M206.766 8.66569C206.471 8.45763 206.082 8.51989 205.828 8.59712C206.572 5.78839 205.443 2.85869 202.965 1.65608C200.112 0.272991 196.57 1.69312 195.045 4.83245C194.868 5.206 194.725 5.58349 194.618 5.96532C194.614 5.96926 194.614 5.97359 194.61 5.98187C194.266 6.92166 193.938 8.42769 193.967 9.99952C193.983 11.1485 194.196 12.3346 194.737 13.3524C194.987 13.8284 195.307 14.2717 195.717 14.6532C196.869 15.9129 199.89 16.8858 202.448 15.0511C203.395 14.3698 204.102 13.3028 204.623 12.2117C206.885 12.5923 207.224 8.98919 206.766 8.66569Z" fill="#FFBF9D"/>
<path d="M199.826 11.8532C199.826 12.8966 200.671 13.7426 201.713 13.7426C202.756 13.7426 203.601 12.8966 203.601 11.8532C203.601 10.8098 202.756 9.96375 201.713 9.96375C200.671 9.96375 199.826 10.8098 199.826 11.8532Z" fill="#EDBA95"/>
<path d="M193.967 9.99963C193.983 11.1487 194.196 12.3347 194.737 13.3525C195.189 13.0121 195.479 12.4659 195.479 11.8548C195.48 10.9394 194.832 10.1762 193.967 9.99963Z" fill="#EDBA95"/>
<path d="M206.038 10.3081C206.157 10.0618 206.222 9.79388 206.213 9.5279C206.213 9.39235 206.197 9.26823 206.103 9.20321C206.014 9.13346 205.891 9.12282 205.779 9.16104C205.552 9.24104 205.388 9.45224 205.274 9.68788C205.161 9.92627 205.05 10.1824 204.955 10.4306C204.855 10.6777 204.775 10.9354 204.746 11.1908C204.74 11.2487 204.746 11.3074 204.763 11.3385C204.78 11.3677 204.799 11.3779 204.84 11.3716C204.926 11.3535 205.032 11.2526 205.117 11.1624C205.289 10.9721 205.403 10.7238 205.432 10.463C205.468 10.2076 205.415 9.91445 205.198 9.73792C205.448 9.87702 205.539 10.1934 205.533 10.4704C205.522 10.7549 205.417 11.0355 205.238 11.2637C205.144 11.3712 205.059 11.4918 204.876 11.545C204.784 11.573 204.651 11.5233 204.604 11.4276C204.556 11.3373 204.556 11.253 204.56 11.1762C204.586 10.8873 204.665 10.6166 204.764 10.3562C204.871 10.0969 204.982 9.85377 205.109 9.60237C205.237 9.35964 205.427 9.09012 205.736 9.01013C205.885 8.96915 206.065 8.99476 206.186 9.1047C206.319 9.21661 206.325 9.40141 206.313 9.53105C206.288 9.81122 206.197 10.0843 206.038 10.3081Z" fill="#01124A"/>
<path d="M198.122 10.0832C198.116 10.1352 198.036 10.1695 197.943 10.1596C197.849 10.1498 197.778 10.0998 197.784 10.0477C197.789 9.99572 197.869 9.96144 197.962 9.97129C198.056 9.98075 198.127 10.0312 198.122 10.0832Z" fill="#F1CEB7"/>
<path d="M197.813 8.74109C197.82 8.92826 197.794 9.11543 197.747 9.29787C197.705 9.4811 197.615 9.65566 197.552 9.81958C197.478 9.98074 197.451 10.1451 197.513 10.2999C197.572 10.454 197.702 10.5903 197.878 10.6522C197.687 10.6557 197.5 10.5296 197.403 10.3507C197.297 10.1675 197.337 9.93346 197.407 9.76087C197.488 9.58552 197.567 9.43066 197.633 9.26044C197.701 9.09297 197.757 8.9192 197.813 8.74109Z" fill="#01124A"/>
<path d="M198.236 10.6159C198.243 10.5194 198.286 10.4729 198.326 10.4216C198.379 10.3834 198.427 10.3432 198.524 10.3405C198.525 10.4299 198.477 10.4811 198.435 10.5347C198.379 10.5753 198.325 10.6202 198.236 10.6159Z" fill="#01124A"/>
<path d="M198.659 12.3494C198.501 12.4593 198.303 12.4869 198.115 12.4916C198.02 12.4845 197.925 12.4782 197.833 12.453C197.741 12.4313 197.653 12.3939 197.57 12.3498C197.944 12.3888 198.29 12.4152 198.659 12.3494Z" fill="#01124A"/>
<path d="M199.601 11.2039C199.417 11.4001 199.178 11.5416 198.924 11.6397C198.67 11.739 198.394 11.7894 198.119 11.7831C197.845 11.7697 197.568 11.7295 197.319 11.618C197.189 11.575 197.074 11.499 196.954 11.4407C196.841 11.3662 196.732 11.287 196.629 11.2039C196.879 11.3016 197.117 11.4064 197.368 11.4683C197.615 11.5396 197.869 11.5691 198.121 11.5778C198.375 11.5884 198.627 11.5479 198.876 11.4899C199.125 11.4277 199.368 11.3315 199.601 11.2039Z" fill="#01124A"/>
<path d="M196.584 9.80679C196.784 9.80679 196.945 9.479 196.945 9.07466C196.945 8.67032 196.784 8.34253 196.584 8.34253C196.384 8.34253 196.223 8.67032 196.223 9.07466C196.223 9.479 196.384 9.80679 196.584 9.80679Z" fill="#01124A"/>
<path d="M196.775 9.90067L196.863 9.71547C196.836 9.70286 196.186 9.39669 195.768 9.654L195.875 9.82856C196.145 9.66307 196.616 9.82423 196.775 9.90067Z" fill="#FFBF9D"/>
<path d="M196.983 7.3242C196.757 7.44281 196.597 7.42981 196.426 7.41011C196.256 7.40065 196.088 7.41405 195.923 7.44636C195.759 7.48064 195.595 7.53265 195.438 7.61501C195.275 7.68909 195.127 7.79942 194.965 7.9129L194.957 7.91842C194.91 7.95152 194.845 7.94009 194.812 7.89281C194.789 7.8601 194.787 7.81873 194.804 7.78563C194.9 7.59728 195.025 7.41326 195.193 7.26589C195.355 7.11142 195.56 6.99794 195.777 6.92346C195.993 6.84702 196.225 6.8151 196.452 6.82377C196.677 6.82338 196.913 6.88051 197.06 7.13388C197.095 7.19417 197.075 7.2718 197.015 7.30726C197.013 7.30805 197.012 7.30884 197.01 7.30963L196.983 7.3242Z" fill="#01124A"/>
<path d="M197.13 6.87109C197.033 6.9633 196.98 7.04093 196.926 7.10988L196.847 7.21115C196.818 7.24701 196.78 7.27617 196.729 7.32464C196.844 7.40463 197.012 7.3404 197.089 7.2344C197.164 7.12643 197.19 6.99364 197.13 6.87109Z" fill="#01124A"/>
<path d="M200.018 9.07466C200.018 9.47895 199.856 9.80679 199.656 9.80679C199.457 9.80679 199.295 9.47895 199.295 9.07466C199.295 8.67037 199.456 8.34253 199.656 8.34253C199.856 8.34214 200.018 8.66998 200.018 9.07466Z" fill="#01124A"/>
<path d="M199.467 9.9007C199.473 9.89794 200.043 9.63039 200.367 9.82898L200.475 9.65442C200.056 9.39632 199.406 9.70289 199.379 9.71589L199.467 9.9007Z" fill="#FFBF9D"/>
<path d="M199.183 7.13378C199.331 6.88002 199.566 6.82288 199.792 6.82367C200.019 6.8154 200.25 6.84692 200.467 6.92336C200.683 6.99823 200.888 7.11172 201.05 7.26579C201.218 7.41316 201.343 7.59718 201.439 7.78553C201.465 7.83675 201.445 7.8998 201.393 7.92581C201.358 7.94393 201.317 7.9396 201.286 7.91832L201.278 7.91241C201.116 7.79893 200.969 7.68859 200.805 7.61451C200.648 7.53216 200.485 7.47975 200.32 7.44587C200.155 7.41316 199.987 7.39976 199.817 7.40961C199.646 7.42931 199.486 7.44232 199.261 7.32371L199.234 7.30953C199.172 7.27722 199.148 7.20037 199.181 7.13851C199.181 7.13733 199.182 7.13536 199.183 7.13378Z" fill="#01124A"/>
<path d="M199.113 6.87097C199.21 6.96318 199.263 7.0408 199.318 7.10976L199.397 7.21103C199.426 7.24689 199.463 7.27605 199.515 7.32451C199.399 7.4045 199.232 7.34028 199.155 7.23428C199.08 7.12631 199.053 6.99352 199.113 6.87097Z" fill="#01124A"/>
<path d="M206.616 3.69603C206.616 3.69603 206.561 2.33265 205.927 1.59579C205.14 0.673735 198.413 -1.29647 195.725 1.2648C194.068 2.84491 193.981 5.73323 194.154 7.7192C194.154 7.7192 195.848 3.96714 196.241 3.86863C196.635 3.77012 197.914 5.37111 198.972 5.59256C199.737 5.75293 201.43 5.06257 202.308 4.66853C202.835 4.43171 203.483 4.6902 203.635 5.24817C203.678 5.40657 203.682 5.58704 203.622 5.78958C203.351 6.701 203.007 7.48908 203.105 7.93238C203.203 8.37567 203.941 10.2229 203.941 10.2229C204.304 10.1599 204.635 9.981 204.887 9.71187C205.216 9.36118 205.693 8.86626 206.057 8.5459C206.153 8.53054 206.254 8.52108 206.356 8.52778C206.703 7.88943 207.135 7.02648 207.336 6.38813C207.698 5.24068 206.974 3.96004 206.616 3.69603Z" fill="#01124A"/>
<path opacity="0.5" d="M204.347 3.54989C202.676 3.13536 201.168 2.24561 199.586 1.59386C198.766 1.25617 197.845 0.840062 196.904 0.505127C196.461 0.694661 196.061 0.944089 195.724 1.26484C195.054 1.90437 194.644 2.75905 194.4 3.68032C196.234 3.35917 198.241 3.63973 199.929 4.24458C200.509 4.45264 201.07 4.69852 201.625 4.95937C201.878 4.85653 202.114 4.75487 202.307 4.66857C202.834 4.43175 203.483 4.69024 203.634 5.24821C203.677 5.40661 203.682 5.58708 203.621 5.78962C203.608 5.83454 203.594 5.87749 203.58 5.92202C204.311 6.28493 205.047 6.63602 205.809 6.92722C206.191 7.07341 206.606 7.14434 207.033 7.15734C207.153 6.88624 207.263 6.62065 207.336 6.38738C207.64 5.42631 207.18 4.37343 206.813 3.90177C205.996 3.8734 205.17 3.7544 204.347 3.54989Z" fill="#01124A"/>
<defs>
<linearGradient id="paint0_linear_10042_2468" x1="9.94354" y1="32.1341" x2="119.854" y2="155.587" gradientUnits="userSpaceOnUse">
<stop stop-color="white"/>
<stop offset="0.6475" stop-color="#708FEA"/>
</linearGradient>
<linearGradient id="paint1_linear_10042_2468" x1="-9.2613" y1="49.2325" x2="100.648" y2="172.685" gradientUnits="userSpaceOnUse">
<stop stop-color="white"/>
<stop offset="0.6475" stop-color="#708FEA"/>
</linearGradient>
<linearGradient id="paint2_linear_10042_2468" x1="45.4711" y1="0.505098" x2="155.381" y2="123.957" gradientUnits="userSpaceOnUse">
<stop stop-color="white"/>
<stop offset="0.6475" stop-color="#708FEA"/>
</linearGradient>
</defs>
</svg>
