<svg width="124" height="182" viewBox="0 0 124 182" fill="none" xmlns="http://www.w3.org/2000/svg">
<rect x="1.25" y="1.25" width="121.5" height="156.5" rx="3.75" fill="#D9D9D9" stroke="#1A0224" stroke-width="1.5"/>
<path d="M2 4.26922C2 3.01597 3.0116 2 4.25946 2H119.741C120.988 2 122 3.01597 122 4.26922V154.731C122 155.984 120.988 157 119.741 157H4.25946C3.0116 157 2 155.984 2 154.731V4.26922Z" fill="white"/>
<path fill-rule="evenodd" clip-rule="evenodd" d="M119.741 2.22692H4.25946C3.13638 2.22692 2.22595 3.14129 2.22595 4.26922V154.731C2.22595 155.859 3.13638 156.773 4.25946 156.773H119.741C120.864 156.773 121.774 155.859 121.774 154.731V4.26922C121.774 3.14129 120.864 2.22692 119.741 2.22692ZM4.25946 2C3.0116 2 2 3.01597 2 4.26922V154.731C2 155.984 3.0116 157 4.25946 157H119.741C120.988 157 122 155.984 122 154.731V4.26922C122 3.01597 120.988 2 119.741 2H4.25946Z" fill="#E7E7E7"/>
<path d="M25.3327 17.0646C25.3327 21.6869 21.6017 25.434 16.9993 25.434C12.397 25.434 8.66602 21.6869 8.66602 17.0646C8.66602 12.4424 12.397 8.69531 16.9993 8.69531C21.6017 8.69531 25.3327 12.4424 25.3327 17.0646Z" fill="#DBDBDB"/>
<path fill-rule="evenodd" clip-rule="evenodd" d="M16.9993 25.0992C21.4176 25.0992 24.9993 21.502 24.9993 17.0646C24.9993 12.6273 21.4176 9.03009 16.9993 9.03009C12.5811 9.03009 8.99935 12.6273 8.99935 17.0646C8.99935 21.502 12.5811 25.0992 16.9993 25.0992ZM16.9993 25.434C21.6017 25.434 25.3327 21.6869 25.3327 17.0646C25.3327 12.4424 21.6017 8.69531 16.9993 8.69531C12.397 8.69531 8.66602 12.4424 8.66602 17.0646C8.66602 21.6869 12.397 25.434 16.9993 25.434Z" fill="black"/>
<path d="M25.3327 17.0646C25.3327 12.4623 21.6017 8.69531 16.9993 8.69531V8.69531C12.397 8.69531 8.66602 12.4623 8.66602 17.0646V17.0646C8.66602 21.667 12.397 25.434 16.9993 25.434V25.434C21.6017 25.434 25.3327 21.667 25.3327 17.0646V17.0646Z" fill="#1877F2"/>
<path d="M21.1659 17.0645C21.1659 14.763 19.2909 12.8799 16.9992 12.8799C14.7075 12.8799 12.8325 14.763 12.8325 17.0645C12.8325 19.1569 14.3429 20.8831 16.3221 21.1969V18.2676H15.2804V17.0645H16.3221V16.123C16.3221 15.0768 16.9471 14.5014 17.8846 14.5014C18.3534 14.5014 18.8221 14.6061 18.8221 14.6061V15.6522H18.3013C17.7804 15.6522 17.6242 15.9661 17.6242 16.2799V17.0645H18.77L18.5617 18.2676H17.5721V21.2492C19.6554 20.9354 21.1659 19.1569 21.1659 17.0645Z" fill="white"/>
<path d="M112 17.2317C112 17.5098 111.777 17.7338 111.5 17.7338C111.223 17.7338 111 17.5098 111 17.2317C111 16.9535 111.223 16.7295 111.5 16.7295C111.777 16.7295 112 16.9535 112 17.2317Z" fill="black"/>
<path d="M112.662 17.2317C112.662 16.9535 112.885 16.7295 113.162 16.7295C113.439 16.7295 113.662 16.9535 113.662 17.2317C113.662 17.5098 113.439 17.7338 113.162 17.7338C112.885 17.7338 112.662 17.5098 112.662 17.2317Z" fill="black"/>
<path d="M114.315 17.2317C114.315 16.9535 114.539 16.7295 114.815 16.7295C115.092 16.7295 115.315 16.9535 115.315 17.2317C115.315 17.5098 115.092 17.7338 114.815 17.7338C114.539 17.7338 114.315 17.5098 114.315 17.2317Z" fill="black"/>
<path d="M33.2803 15.3908V13.7638L31.9736 11.012H32.8003L33.2736 12.1301C33.3359 12.2953 33.3981 12.456 33.4603 12.6122C33.5225 12.764 33.5892 12.9247 33.6603 13.0943H33.687C33.7581 12.9247 33.827 12.764 33.8936 12.6122C33.9603 12.456 34.0247 12.2953 34.087 12.1301L34.5603 11.012H35.367L34.0536 13.7638V15.3908H33.2803Z" fill="#212121"/>
<path d="M36.8478 15.4712C36.5767 15.4712 36.3234 15.4042 36.0878 15.2703C35.8522 15.1319 35.6611 14.9355 35.5145 14.6811C35.3678 14.4222 35.2945 14.112 35.2945 13.7505C35.2945 13.3844 35.3678 13.0742 35.5145 12.8198C35.6611 12.5609 35.8522 12.3645 36.0878 12.2306C36.3234 12.0922 36.5767 12.023 36.8478 12.023C37.1234 12.023 37.3789 12.0922 37.6145 12.2306C37.85 12.3645 38.0411 12.5609 38.1878 12.8198C38.3345 13.0742 38.4078 13.3844 38.4078 13.7505C38.4078 14.112 38.3345 14.4222 38.1878 14.6811C38.0411 14.9355 37.85 15.1319 37.6145 15.2703C37.3789 15.4042 37.1234 15.4712 36.8478 15.4712ZM36.8478 14.8418C37.0078 14.8418 37.1456 14.7972 37.2611 14.7079C37.3767 14.6186 37.4656 14.4914 37.5278 14.3263C37.59 14.1611 37.6211 13.9692 37.6211 13.7505C37.6211 13.5317 37.59 13.3398 37.5278 13.1746C37.4656 13.0095 37.3767 12.8823 37.2611 12.793C37.1456 12.6993 37.0078 12.6524 36.8478 12.6524C36.6878 12.6524 36.55 12.6993 36.4345 12.793C36.3234 12.8823 36.2367 13.0095 36.1745 13.1746C36.1122 13.3398 36.0811 13.5317 36.0811 13.7505C36.0811 13.9692 36.1122 14.1611 36.1745 14.3263C36.2367 14.4914 36.3234 14.6186 36.4345 14.7079C36.55 14.7972 36.6878 14.8418 36.8478 14.8418Z" fill="#212121"/>
<path d="M40.14 15.4712C39.7889 15.4712 39.5333 15.3574 39.3733 15.1297C39.2133 14.9021 39.1333 14.5807 39.1333 14.1656V12.1034H39.9V14.0651C39.9 14.3374 39.94 14.5294 40.02 14.6409C40.1 14.7525 40.2289 14.8083 40.4067 14.8083C40.5489 14.8083 40.6733 14.7726 40.78 14.7012C40.8911 14.6298 41.0089 14.5137 41.1333 14.353V12.1034H41.9V15.3908H41.2733L41.2133 14.9088H41.1933C41.0511 15.0784 40.8955 15.2145 40.7267 15.3172C40.5578 15.4199 40.3622 15.4712 40.14 15.4712Z" fill="#212121"/>
<path d="M42.8711 15.3908V12.1034H43.5044L43.5577 12.6859H43.5844C43.7 12.4716 43.8377 12.3087 43.9977 12.1971C44.1622 12.081 44.3333 12.023 44.5111 12.023C44.5955 12.023 44.6666 12.0275 44.7244 12.0364C44.7822 12.0453 44.8355 12.0632 44.8844 12.09L44.7311 12.7461C44.6777 12.7327 44.6289 12.7238 44.5844 12.7193C44.54 12.7104 44.4822 12.706 44.4111 12.706C44.2822 12.706 44.1466 12.7573 44.0044 12.86C43.8622 12.9582 43.74 13.1322 43.6377 13.3822V15.3908H42.8711Z" fill="#212121"/>
<path d="M46.7594 15.3908V11.012H48.1327C48.4571 11.012 48.746 11.0544 48.9994 11.1392C49.2527 11.224 49.4527 11.3646 49.5994 11.561C49.746 11.7574 49.8194 12.0253 49.8194 12.3645C49.8194 12.6859 49.746 12.9515 49.5994 13.1613C49.4571 13.371 49.2594 13.5273 49.006 13.6299C48.7571 13.7326 48.4749 13.7839 48.1594 13.7839H47.5327V15.3908H46.7594ZM47.5327 13.1613H48.0994C48.4238 13.1613 48.6638 13.0943 48.8194 12.9604C48.9794 12.8265 49.0594 12.6278 49.0594 12.3645C49.0594 12.0877 48.9749 11.898 48.806 11.7954C48.6416 11.6882 48.3971 11.6347 48.0727 11.6347H47.5327V13.1613Z" fill="#212121"/>
<path d="M50.5729 15.3908V12.1034H51.2062L51.2596 12.6859H51.2862C51.4018 12.4716 51.5396 12.3087 51.6996 12.1971C51.864 12.081 52.0351 12.023 52.2129 12.023C52.2974 12.023 52.3685 12.0275 52.4262 12.0364C52.484 12.0453 52.5374 12.0632 52.5862 12.09L52.4329 12.7461C52.3796 12.7327 52.3307 12.7238 52.2862 12.7193C52.2418 12.7104 52.184 12.706 52.1129 12.706C51.984 12.706 51.8485 12.7573 51.7062 12.86C51.564 12.9582 51.4418 13.1322 51.3396 13.3822V15.3908H50.5729Z" fill="#212121"/>
<path d="M54.3348 15.4712C54.0637 15.4712 53.8103 15.4042 53.5748 15.2703C53.3392 15.1319 53.1481 14.9355 53.0014 14.6811C52.8548 14.4222 52.7814 14.112 52.7814 13.7505C52.7814 13.3844 52.8548 13.0742 53.0014 12.8198C53.1481 12.5609 53.3392 12.3645 53.5748 12.2306C53.8103 12.0922 54.0637 12.023 54.3348 12.023C54.6103 12.023 54.8659 12.0922 55.1014 12.2306C55.337 12.3645 55.5281 12.5609 55.6748 12.8198C55.8214 13.0742 55.8948 13.3844 55.8948 13.7505C55.8948 14.112 55.8214 14.4222 55.6748 14.6811C55.5281 14.9355 55.337 15.1319 55.1014 15.2703C54.8659 15.4042 54.6103 15.4712 54.3348 15.4712ZM54.3348 14.8418C54.4948 14.8418 54.6326 14.7972 54.7481 14.7079C54.8637 14.6186 54.9526 14.4914 55.0148 14.3263C55.077 14.1611 55.1081 13.9692 55.1081 13.7505C55.1081 13.5317 55.077 13.3398 55.0148 13.1746C54.9526 13.0095 54.8637 12.8823 54.7481 12.793C54.6326 12.6993 54.4948 12.6524 54.3348 12.6524C54.1748 12.6524 54.037 12.6993 53.9214 12.793C53.8103 12.8823 53.7237 13.0095 53.6614 13.1746C53.5992 13.3398 53.5681 13.5317 53.5681 13.7505C53.5681 13.9692 53.5992 14.1611 53.6614 14.3263C53.7237 14.4914 53.8103 14.6186 53.9214 14.7079C54.037 14.7972 54.1748 14.8418 54.3348 14.8418Z" fill="#212121"/>
<path d="M56.7609 15.3908V11.7619C56.7609 11.5343 56.7965 11.3312 56.8676 11.1526C56.9432 10.9741 57.0609 10.8357 57.2209 10.7375C57.3809 10.6348 57.5898 10.5835 57.8476 10.5835C57.9676 10.5835 58.0787 10.5947 58.1809 10.617C58.2876 10.6393 58.3765 10.6661 58.4476 10.6973L58.2876 11.253C58.172 11.2129 58.0565 11.1928 57.9409 11.1928C57.8076 11.1928 57.7054 11.2374 57.6343 11.3267C57.5632 11.416 57.5276 11.5566 57.5276 11.7485V15.3908H56.7609ZM56.2743 12.7127V12.1368L56.8076 12.1034H58.1676V12.7127H56.2743Z" fill="#212121"/>
<path d="M58.7435 15.3908V12.1034H59.5101V15.3908H58.7435ZM59.1235 11.5276C58.9901 11.5276 58.879 11.4874 58.7901 11.407C58.7057 11.3267 58.6635 11.2196 58.6635 11.0857C58.6635 10.9517 58.7057 10.8469 58.7901 10.771C58.879 10.6906 58.9901 10.6505 59.1235 10.6505C59.2613 10.6505 59.3724 10.6906 59.4568 10.771C59.5413 10.8469 59.5835 10.9517 59.5835 11.0857C59.5835 11.2196 59.5413 11.3267 59.4568 11.407C59.3724 11.4874 59.2613 11.5276 59.1235 11.5276Z" fill="#212121"/>
<path d="M61.2349 15.4578C61.0527 15.4578 60.906 15.4221 60.7949 15.3507C60.6883 15.2748 60.6105 15.1677 60.5616 15.0293C60.5127 14.8909 60.4883 14.7258 60.4883 14.5338V10.6638H61.2549V14.574C61.2549 14.6722 61.2727 14.7391 61.3083 14.7749C61.3438 14.8106 61.3838 14.8284 61.4283 14.8284C61.4461 14.8284 61.4616 14.8284 61.4749 14.8284C61.4927 14.824 61.5149 14.8195 61.5416 14.815L61.6416 15.3908C61.5972 15.4087 61.5394 15.4243 61.4683 15.4377C61.4016 15.4511 61.3238 15.4578 61.2349 15.4578Z" fill="#212121"/>
<path d="M63.7048 15.4712C63.3982 15.4712 63.1204 15.4042 62.8715 15.2703C62.6271 15.1319 62.4337 14.9355 62.2915 14.6811C62.1493 14.4222 62.0782 14.1098 62.0782 13.7438C62.0782 13.3867 62.1515 13.0809 62.2982 12.8265C62.4448 12.5676 62.6337 12.369 62.8648 12.2306C63.0959 12.0922 63.3404 12.023 63.5982 12.023C63.8959 12.023 64.1448 12.09 64.3448 12.2239C64.5448 12.3578 64.6937 12.543 64.7915 12.7796C64.8937 13.0117 64.9448 13.2795 64.9448 13.5831C64.9448 13.6545 64.9404 13.7237 64.9315 13.7906C64.9271 13.8576 64.9182 13.9223 64.9048 13.9848H62.6515V13.3956H64.2648C64.2648 13.159 64.2115 12.9738 64.1048 12.8399C63.9982 12.7015 63.8337 12.6323 63.6115 12.6323C63.4871 12.6323 63.3648 12.6658 63.2448 12.7327C63.1293 12.7997 63.0315 12.9135 62.9515 13.0742C62.8759 13.2349 62.8382 13.4581 62.8382 13.7438C62.8382 14.0026 62.8826 14.2147 62.9715 14.3798C63.0604 14.5405 63.1782 14.661 63.3248 14.7414C63.4715 14.8173 63.6293 14.8552 63.7982 14.8552C63.9404 14.8552 64.0737 14.8351 64.1982 14.7949C64.3271 14.7548 64.4471 14.699 64.5582 14.6276L64.8248 15.123C64.6737 15.2301 64.5004 15.315 64.3048 15.3774C64.1137 15.4399 63.9137 15.4712 63.7048 15.4712Z" fill="#212121"/>
<path d="M32.1864 23.4254V23.1911C32.4819 22.8973 32.7339 22.638 32.9424 22.413C33.1539 22.185 33.3141 21.9787 33.423 21.7944C33.5319 21.61 33.5864 21.4382 33.5864 21.2788C33.5864 21.107 33.5397 20.9664 33.4464 20.857C33.353 20.7477 33.2115 20.693 33.0217 20.693C32.8973 20.693 32.7821 20.7273 32.6764 20.7961C32.5706 20.8648 32.4741 20.9508 32.387 21.0539L32.1724 20.843C32.2968 20.7024 32.429 20.5899 32.569 20.5055C32.7121 20.4211 32.8786 20.379 33.0684 20.379C33.2519 20.379 33.4106 20.4165 33.5444 20.4914C33.6781 20.5633 33.7808 20.6649 33.8524 20.7961C33.9239 20.9273 33.9597 21.0804 33.9597 21.2554C33.9597 21.4491 33.9053 21.6413 33.7964 21.8319C33.6906 22.0225 33.5444 22.2224 33.3577 22.4318C33.171 22.6411 32.9564 22.8708 32.7137 23.1208C32.7946 23.1114 32.8786 23.1051 32.9657 23.102C33.0528 23.0958 33.1353 23.0926 33.213 23.0926H34.109V23.4254H32.1864Z" fill="#666666"/>
<path d="M34.702 23.4254V20.0884H35.0847V20.9976L35.0707 21.4663C35.1796 21.3632 35.2931 21.2757 35.4114 21.2038C35.5327 21.1289 35.6711 21.0914 35.8267 21.0914C36.0662 21.0914 36.2405 21.1679 36.3494 21.321C36.4614 21.471 36.5174 21.6913 36.5174 21.9819V23.4254H36.1347V22.0334C36.1347 21.8178 36.1005 21.6632 36.032 21.5694C35.9667 21.4726 35.8578 21.4241 35.7054 21.4241C35.5902 21.4241 35.486 21.4538 35.3927 21.5132C35.3025 21.5725 35.1998 21.66 35.0847 21.7756V23.4254H34.702Z" fill="#666666"/>
<path d="M9.14697 37.4856V33.9718H10.1443C10.4074 33.9718 10.6368 34.0058 10.8323 34.0736C11.0279 34.1379 11.1808 34.245 11.291 34.395C11.4012 34.545 11.4563 34.7485 11.4563 35.0056C11.4563 35.252 11.4012 35.4555 11.291 35.6162C11.1843 35.7734 11.0332 35.893 10.8376 35.9751C10.6456 36.0537 10.4216 36.093 10.1656 36.093H9.58964V37.4856H9.14697ZM9.58964 35.7287H10.1123C10.4181 35.7287 10.6439 35.6698 10.7896 35.552C10.939 35.4341 11.0136 35.252 11.0136 35.0056C11.0136 34.7521 10.9354 34.5771 10.779 34.4807C10.6261 34.3807 10.3968 34.3307 10.091 34.3307H9.58964V35.7287Z" fill="#666666"/>
<path d="M12.8825 37.5499C12.6087 37.5499 12.4078 37.4642 12.2798 37.2928C12.1554 37.1178 12.0931 36.8643 12.0931 36.5322V34.8824H12.5305V36.4733C12.5305 36.7161 12.5678 36.8928 12.6425 37.0035C12.7207 37.1107 12.8451 37.1642 13.0158 37.1642C13.1474 37.1642 13.2647 37.1303 13.3678 37.0625C13.4745 36.991 13.59 36.8803 13.7145 36.7304V34.8824H14.1518V37.4856H13.7891L13.7518 37.0785H13.7358C13.6185 37.2214 13.4905 37.3356 13.3518 37.4213C13.2167 37.507 13.0603 37.5499 12.8825 37.5499Z" fill="#666666"/>
<path d="M16.1728 37.5499C16.052 37.5499 15.9275 37.5213 15.7995 37.4642C15.6715 37.4035 15.5488 37.3213 15.4315 37.2178H15.4155L15.3782 37.4856H15.0262V33.6719H15.4635V34.711L15.4528 35.1824C15.5702 35.0788 15.6982 34.9931 15.8368 34.9253C15.9791 34.8538 16.1213 34.8181 16.2635 34.8181C16.4875 34.8181 16.676 34.8735 16.8288 34.9842C16.9817 35.0913 17.0973 35.2449 17.1755 35.4448C17.2537 35.6412 17.2928 35.8733 17.2928 36.1412C17.2928 36.4375 17.2395 36.6911 17.1328 36.9018C17.0297 37.1125 16.8928 37.2731 16.7222 37.3838C16.5515 37.4945 16.3684 37.5499 16.1728 37.5499ZM16.0982 37.1803C16.2404 37.1803 16.3666 37.1392 16.4768 37.0571C16.5906 36.975 16.6795 36.8571 16.7435 36.7036C16.8075 36.5465 16.8395 36.3608 16.8395 36.1465C16.8395 35.9573 16.8164 35.7912 16.7702 35.6484C16.724 35.502 16.6511 35.3895 16.5515 35.3109C16.452 35.2288 16.3204 35.1877 16.1568 35.1877C16.0502 35.1877 15.9382 35.2181 15.8208 35.2788C15.7071 35.3359 15.588 35.4234 15.4635 35.5412V36.9071C15.5773 37.0071 15.6893 37.0785 15.7995 37.1214C15.9133 37.1607 16.0128 37.1803 16.0982 37.1803Z" fill="#666666"/>
<path d="M18.4381 37.5338C18.3279 37.5338 18.239 37.5124 18.1714 37.4695C18.1039 37.4231 18.0541 37.3571 18.0221 37.2714C17.9901 37.1821 17.9741 37.075 17.9741 36.95V33.6719H18.4114V36.9821C18.4114 37.0535 18.4239 37.1035 18.4488 37.1321C18.4737 37.1571 18.5039 37.1696 18.5394 37.1696C18.5537 37.1696 18.5661 37.1696 18.5768 37.1696C18.591 37.166 18.6088 37.1624 18.6301 37.1589L18.6941 37.491C18.6621 37.5017 18.6248 37.5106 18.5821 37.5178C18.543 37.5285 18.495 37.5338 18.4381 37.5338Z" fill="#666666"/>
<path d="M19.3335 37.4856V34.8824H19.7708V37.4856H19.3335ZM19.5521 34.3468C19.4668 34.3468 19.3957 34.32 19.3388 34.2664C19.2855 34.2129 19.2588 34.1432 19.2588 34.0575C19.2588 33.9718 19.2855 33.9022 19.3388 33.8486C19.3957 33.7951 19.4668 33.7683 19.5521 33.7683C19.6375 33.7683 19.7068 33.7951 19.7601 33.8486C19.817 33.9022 19.8455 33.9718 19.8455 34.0575C19.8455 34.1432 19.817 34.2129 19.7601 34.2664C19.7068 34.32 19.6375 34.3468 19.5521 34.3468Z" fill="#666666"/>
<path d="M21.3233 37.5499C21.1349 37.5499 20.9553 37.5178 20.7846 37.4535C20.6175 37.3856 20.4753 37.2928 20.358 37.1749L20.5606 36.9178C20.6744 37.0107 20.7918 37.0821 20.9126 37.1321C21.0371 37.1821 21.1793 37.2071 21.3393 37.2071C21.51 37.2071 21.638 37.1678 21.7233 37.0892C21.8086 37.0071 21.8513 36.9107 21.8513 36.8C21.8513 36.7107 21.8211 36.6375 21.7606 36.5804C21.7038 36.5197 21.6309 36.4697 21.542 36.4304C21.4566 36.3876 21.3642 36.3483 21.2646 36.3126C21.1366 36.2661 21.014 36.2126 20.8966 36.1519C20.7793 36.0876 20.6833 36.009 20.6086 35.9162C20.5375 35.8198 20.502 35.7002 20.502 35.5573C20.502 35.3466 20.5802 35.1717 20.7366 35.0324C20.8966 34.8896 21.1171 34.8181 21.398 34.8181C21.558 34.8181 21.7073 34.8467 21.846 34.9038C21.9846 34.9574 22.1038 35.027 22.2033 35.1127L22.0006 35.3645C21.9082 35.3002 21.814 35.2502 21.718 35.2145C21.622 35.1788 21.5153 35.1609 21.398 35.1609C21.2344 35.1609 21.1135 35.1984 21.0353 35.2734C20.9606 35.3484 20.9233 35.4359 20.9233 35.5359C20.9233 35.6145 20.9464 35.6805 20.9926 35.7341C21.0389 35.7841 21.1029 35.8287 21.1846 35.868C21.27 35.9073 21.366 35.9448 21.4726 35.9805C21.6078 36.0305 21.7358 36.0876 21.8566 36.1519C21.9811 36.2126 22.0806 36.2929 22.1553 36.3929C22.2335 36.4893 22.2726 36.6161 22.2726 36.7732C22.2726 36.9161 22.2353 37.0464 22.1606 37.1642C22.0895 37.2785 21.9829 37.3713 21.8406 37.4428C21.702 37.5142 21.5295 37.5499 21.3233 37.5499Z" fill="#666666"/>
<path d="M22.8804 37.4856V33.6719H23.3177V34.711L23.3017 35.2466C23.4261 35.1288 23.5559 35.0288 23.691 34.9467C23.8297 34.861 23.9879 34.8181 24.1657 34.8181C24.4395 34.8181 24.6386 34.9056 24.763 35.0806C24.891 35.252 24.955 35.5038 24.955 35.8358V37.4856H24.5177V35.8948C24.5177 35.6484 24.4786 35.4716 24.4004 35.3645C24.3257 35.2538 24.2012 35.1984 24.027 35.1984C23.8955 35.1984 23.7764 35.2324 23.6697 35.3002C23.5666 35.3681 23.4492 35.468 23.3177 35.6002V37.4856H22.8804Z" fill="#666666"/>
<path d="M27.4571 37.4856V36.1251L26.4064 33.9718H26.8811L27.3344 34.9628C27.3878 35.0913 27.4411 35.2181 27.4944 35.3431C27.5513 35.468 27.61 35.5966 27.6704 35.7287H27.6918C27.7558 35.5966 27.8162 35.468 27.8731 35.3431C27.9335 35.2181 27.9904 35.0913 28.0438 34.9628L28.4918 33.9718H28.9558L27.8998 36.1251V37.4856H27.4571Z" fill="#666666"/>
<path d="M30.1748 37.5499C29.965 37.5499 29.7677 37.4963 29.5828 37.3892C29.4015 37.2821 29.2539 37.1267 29.1401 36.9232C29.0299 36.7197 28.9748 36.475 28.9748 36.1894C28.9748 35.8966 29.0299 35.6484 29.1401 35.4448C29.2539 35.2413 29.4015 35.086 29.5828 34.9788C29.7677 34.8717 29.965 34.8181 30.1748 34.8181C30.3881 34.8181 30.5855 34.8717 30.7668 34.9788C30.9481 35.086 31.0939 35.2413 31.2041 35.4448C31.3179 35.6484 31.3748 35.8966 31.3748 36.1894C31.3748 36.475 31.3179 36.7197 31.2041 36.9232C31.0939 37.1267 30.9481 37.2821 30.7668 37.3892C30.5855 37.4963 30.3881 37.5499 30.1748 37.5499ZM30.1748 37.1857C30.3241 37.1857 30.4557 37.1446 30.5695 37.0625C30.6833 36.9768 30.7704 36.8589 30.8308 36.7089C30.8913 36.559 30.9215 36.3858 30.9215 36.1894C30.9215 35.9894 30.8913 35.8144 30.8308 35.6644C30.7704 35.5109 30.6833 35.3931 30.5695 35.3109C30.4557 35.2252 30.3241 35.1824 30.1748 35.1824C30.0255 35.1824 29.8939 35.2252 29.7801 35.3109C29.6699 35.3931 29.5828 35.5109 29.5188 35.6644C29.4584 35.8144 29.4281 35.9894 29.4281 36.1894C29.4281 36.3858 29.4584 36.559 29.5188 36.7089C29.5828 36.8589 29.6699 36.9768 29.7801 37.0625C29.8939 37.1446 30.0255 37.1857 30.1748 37.1857Z" fill="#666666"/>
<path d="M32.8148 37.5499C32.541 37.5499 32.3401 37.4642 32.2121 37.2928C32.0877 37.1178 32.0254 36.8643 32.0254 36.5322V34.8824H32.4628V36.4733C32.4628 36.7161 32.5001 36.8928 32.5748 37.0035C32.653 37.1107 32.7774 37.1642 32.9481 37.1642C33.0797 37.1642 33.197 37.1303 33.3001 37.0625C33.4068 36.991 33.5223 36.8803 33.6468 36.7304V34.8824H34.0841V37.4856H33.7214L33.6841 37.0785H33.6681C33.5508 37.2214 33.4228 37.3356 33.2841 37.4213C33.149 37.507 32.9925 37.5499 32.8148 37.5499Z" fill="#666666"/>
<path d="M34.9585 37.4856V34.8824H35.3211L35.3585 35.3538H35.3745C35.4598 35.1895 35.5665 35.0592 35.6945 34.9628C35.8225 34.8663 35.9611 34.8181 36.1105 34.8181C36.1674 34.8181 36.2171 34.8217 36.2598 34.8289C36.3025 34.836 36.3451 34.8503 36.3878 34.8717L36.2918 35.2466C36.2527 35.2359 36.2154 35.2288 36.1798 35.2252C36.1478 35.2181 36.1051 35.2145 36.0518 35.2145C35.9416 35.2145 35.826 35.2591 35.7051 35.3484C35.5878 35.4377 35.4847 35.593 35.3958 35.8144V37.4856H34.9585Z" fill="#666666"/>
<path d="M37.9178 37.4856V33.9718H38.9151C39.1783 33.9718 39.4076 34.0058 39.6031 34.0736C39.7987 34.1379 39.9516 34.245 40.0618 34.395C40.172 34.545 40.2271 34.7485 40.2271 35.0056C40.2271 35.252 40.172 35.4555 40.0618 35.6162C39.9551 35.7734 39.804 35.893 39.6085 35.9751C39.4165 36.0537 39.1925 36.093 38.9365 36.093H38.3605V37.4856H37.9178ZM38.3605 35.7287H38.8831C39.1889 35.7287 39.4147 35.6698 39.5605 35.552C39.7098 35.4341 39.7845 35.252 39.7845 35.0056C39.7845 34.7521 39.7063 34.5771 39.5498 34.4807C39.3969 34.3807 39.1676 34.3307 38.8618 34.3307H38.3605V35.7287Z" fill="#666666"/>
<path d="M41.7738 37.5499C41.564 37.5499 41.3667 37.4963 41.1818 37.3892C41.0004 37.2821 40.8529 37.1267 40.7391 36.9232C40.6289 36.7197 40.5738 36.475 40.5738 36.1894C40.5738 35.8966 40.6289 35.6484 40.7391 35.4448C40.8529 35.2413 41.0004 35.086 41.1818 34.9788C41.3667 34.8717 41.564 34.8181 41.7738 34.8181C41.9871 34.8181 42.1844 34.8717 42.3658 34.9788C42.5471 35.086 42.6929 35.2413 42.8031 35.4448C42.9169 35.6484 42.9738 35.8966 42.9738 36.1894C42.9738 36.475 42.9169 36.7197 42.8031 36.9232C42.6929 37.1267 42.5471 37.2821 42.3658 37.3892C42.1844 37.4963 41.9871 37.5499 41.7738 37.5499ZM41.7738 37.1857C41.9231 37.1857 42.0547 37.1446 42.1684 37.0625C42.2822 36.9768 42.3693 36.8589 42.4298 36.7089C42.4902 36.559 42.5204 36.3858 42.5204 36.1894C42.5204 35.9894 42.4902 35.8144 42.4298 35.6644C42.3693 35.5109 42.2822 35.3931 42.1684 35.3109C42.0547 35.2252 41.9231 35.1824 41.7738 35.1824C41.6244 35.1824 41.4929 35.2252 41.3791 35.3109C41.2689 35.3931 41.1818 35.5109 41.1178 35.6644C41.0573 35.8144 41.0271 35.9894 41.0271 36.1894C41.0271 36.3858 41.0573 36.559 41.1178 36.7089C41.1818 36.8589 41.2689 36.9768 41.3791 37.0625C41.4929 37.1446 41.6244 37.1857 41.7738 37.1857Z" fill="#666666"/>
<path d="M44.3233 37.5499C44.1349 37.5499 43.9553 37.5178 43.7846 37.4535C43.6175 37.3856 43.4753 37.2928 43.358 37.1749L43.5606 36.9178C43.6744 37.0107 43.7918 37.0821 43.9126 37.1321C44.0371 37.1821 44.1793 37.2071 44.3393 37.2071C44.51 37.2071 44.638 37.1678 44.7233 37.0892C44.8086 37.0071 44.8513 36.9107 44.8513 36.8C44.8513 36.7107 44.8211 36.6375 44.7606 36.5804C44.7038 36.5197 44.6309 36.4697 44.542 36.4304C44.4566 36.3876 44.3642 36.3483 44.2646 36.3126C44.1366 36.2661 44.014 36.2126 43.8966 36.1519C43.7793 36.0876 43.6833 36.009 43.6086 35.9162C43.5375 35.8198 43.502 35.7002 43.502 35.5573C43.502 35.3466 43.5802 35.1717 43.7366 35.0324C43.8966 34.8896 44.1171 34.8181 44.398 34.8181C44.558 34.8181 44.7073 34.8467 44.846 34.9038C44.9846 34.9574 45.1038 35.027 45.2033 35.1127L45.0006 35.3645C44.9082 35.3002 44.814 35.2502 44.718 35.2145C44.622 35.1788 44.5153 35.1609 44.398 35.1609C44.2344 35.1609 44.1135 35.1984 44.0353 35.2734C43.9606 35.3484 43.9233 35.4359 43.9233 35.5359C43.9233 35.6145 43.9464 35.6805 43.9926 35.7341C44.0389 35.7841 44.1029 35.8287 44.1846 35.868C44.27 35.9073 44.366 35.9448 44.4726 35.9805C44.6078 36.0305 44.7358 36.0876 44.8566 36.1519C44.9811 36.2126 45.0806 36.2929 45.1553 36.3929C45.2335 36.4893 45.2726 36.6161 45.2726 36.7732C45.2726 36.9161 45.2353 37.0464 45.1606 37.1642C45.0895 37.2785 44.9829 37.3713 44.8406 37.4428C44.702 37.5142 44.5295 37.5499 44.3233 37.5499Z" fill="#666666"/>
<path d="M46.5922 37.5338C46.3184 37.5338 46.1264 37.4535 46.0162 37.2928C45.906 37.1321 45.8509 36.9232 45.8509 36.6661V35.2413H45.4669V34.9092L45.8722 34.8824L45.9255 34.0468H46.2935V34.8824H46.9975V35.2413H46.2935V36.6714C46.2935 36.8286 46.322 36.9518 46.3789 37.041C46.4393 37.1303 46.5442 37.1749 46.6935 37.1749C46.7397 37.1749 46.7877 37.1714 46.8375 37.1642C46.8873 37.1535 46.9371 37.1357 46.9869 37.1107L47.0829 37.4213C47.0153 37.4535 46.9389 37.4803 46.8535 37.5017C46.7682 37.5231 46.6811 37.5338 46.5922 37.5338Z" fill="#666666"/>
<path d="M49.9793 37.5499C49.6878 37.5499 49.4282 37.4749 49.2006 37.3249C48.9766 37.1749 48.8006 36.9625 48.6726 36.6875C48.5482 36.4126 48.486 36.0876 48.486 35.7127C48.486 35.3377 48.5482 35.0163 48.6726 34.7485C48.8006 34.4771 48.9766 34.27 49.2006 34.1272C49.4282 33.9808 49.6878 33.9076 49.9793 33.9076C50.2744 33.9076 50.534 33.9808 50.758 34.1272C50.982 34.27 51.158 34.4771 51.286 34.7485C51.414 35.0163 51.478 35.3377 51.478 35.7127C51.478 36.0876 51.414 36.4126 51.286 36.6875C51.158 36.9625 50.982 37.1749 50.758 37.3249C50.534 37.4749 50.2744 37.5499 49.9793 37.5499ZM49.9793 37.1535C50.1891 37.1535 50.3704 37.0946 50.5233 36.9768C50.6798 36.8589 50.8006 36.6929 50.886 36.4786C50.9713 36.2608 51.014 36.0055 51.014 35.7127C51.014 35.4234 50.9713 35.1734 50.886 34.9628C50.8006 34.7521 50.6798 34.5896 50.5233 34.4753C50.3704 34.3575 50.1891 34.2986 49.9793 34.2986C49.7731 34.2986 49.5918 34.3575 49.4353 34.4753C49.2789 34.5896 49.158 34.7521 49.0726 34.9628C48.9873 35.1734 48.9446 35.4234 48.9446 35.7127C48.9446 36.0055 48.9873 36.2608 49.0726 36.4786C49.158 36.6929 49.2789 36.8589 49.4353 36.9768C49.5918 37.0946 49.7731 37.1535 49.9793 37.1535Z" fill="#666666"/>
<path d="M52.1876 37.4856V34.8824H52.5503L52.5876 35.2574H52.6036C52.7281 35.1324 52.8596 35.0288 52.9983 34.9467C53.137 34.861 53.2952 34.8181 53.473 34.8181C53.7468 34.8181 53.9459 34.9056 54.0703 35.0806C54.1983 35.252 54.2623 35.5038 54.2623 35.8358V37.4856H53.825V35.8948C53.825 35.6484 53.7859 35.4716 53.7076 35.3645C53.633 35.2538 53.5085 35.1984 53.3343 35.1984C53.2028 35.1984 53.0836 35.2324 52.977 35.3002C52.8739 35.3681 52.7565 35.468 52.625 35.6002V37.4856H52.1876Z" fill="#666666"/>
<path d="M56.2147 37.4856V33.9718H58.2307V34.3468H56.6574V35.5359H57.9907V35.9108H56.6574V37.4856H56.2147Z" fill="#666666"/>
<path d="M59.2225 37.5499C59.0803 37.5499 58.9505 37.5213 58.8331 37.4642C58.7194 37.4035 58.6287 37.3196 58.5611 37.2124C58.4936 37.1017 58.4598 36.9678 58.4598 36.8107C58.4598 36.5179 58.5878 36.2965 58.8438 36.1465C59.0998 35.9965 59.5051 35.8912 60.0598 35.8305C60.0563 35.7234 60.0385 35.6198 60.0065 35.5198C59.978 35.4198 59.9247 35.3395 59.8465 35.2788C59.7683 35.2181 59.6598 35.1877 59.5211 35.1877C59.3718 35.1877 59.2314 35.2163 59.0998 35.2734C58.9683 35.327 58.8509 35.3877 58.7478 35.4555L58.5771 35.1556C58.6554 35.102 58.7478 35.0502 58.8545 35.0003C58.9611 34.9467 59.0767 34.9038 59.2011 34.8717C59.3256 34.836 59.4571 34.8181 59.5958 34.8181C59.8056 34.8181 59.9763 34.8628 60.1078 34.952C60.2429 35.0377 60.3407 35.1609 60.4011 35.3216C60.4651 35.4823 60.4971 35.6716 60.4971 35.8894V37.4856H60.1345L60.0971 37.1749H60.0811C59.9567 37.2785 59.8234 37.3678 59.6811 37.4428C59.5389 37.5142 59.386 37.5499 59.2225 37.5499ZM59.3451 37.1857C59.4731 37.1857 59.5923 37.1571 59.7025 37.1C59.8163 37.0428 59.9354 36.9589 60.0598 36.8482V36.1465C59.7683 36.1822 59.5371 36.2287 59.3665 36.2858C59.1994 36.3393 59.0785 36.4072 59.0038 36.4893C58.9291 36.5715 58.8918 36.6697 58.8918 36.7839C58.8918 36.9268 58.9363 37.0303 59.0251 37.0946C59.114 37.1553 59.2207 37.1857 59.3451 37.1857Z" fill="#666666"/>
<path d="M62.342 37.5499C62.1109 37.5499 61.9029 37.4963 61.718 37.3892C61.5331 37.2821 61.3873 37.1267 61.2806 36.9232C61.174 36.7197 61.1206 36.475 61.1206 36.1894C61.1206 35.8966 61.1775 35.6484 61.2913 35.4448C61.4086 35.2413 61.5615 35.086 61.75 34.9788C61.942 34.8717 62.1482 34.8181 62.3686 34.8181C62.5393 34.8181 62.6851 34.8467 62.806 34.9038C62.9304 34.961 63.0371 35.0342 63.126 35.1235L62.9073 35.3966C62.8433 35.3324 62.7669 35.2824 62.678 35.2466C62.5926 35.2074 62.4949 35.1877 62.3846 35.1877C62.2318 35.1877 62.0931 35.2306 61.9686 35.3163C61.8478 35.3984 61.7518 35.5145 61.6806 35.6644C61.6095 35.8144 61.574 35.9894 61.574 36.1894C61.574 36.3858 61.6078 36.559 61.6753 36.7089C61.7429 36.8589 61.8371 36.9768 61.958 37.0625C62.0789 37.1446 62.2193 37.1857 62.3793 37.1857C62.5002 37.1857 62.6122 37.1624 62.7153 37.116C62.8184 37.0696 62.9073 37.0107 62.982 36.9393L63.174 37.2071C63.0638 37.3106 62.9393 37.3946 62.8006 37.4588C62.662 37.5195 62.5091 37.5499 62.342 37.5499Z" fill="#666666"/>
<path d="M64.6862 37.5499C64.4551 37.5499 64.2436 37.4963 64.0516 37.3892C63.8631 37.2785 63.7138 37.1232 63.6036 36.9232C63.4933 36.7197 63.4382 36.4733 63.4382 36.184C63.4382 35.9019 63.4951 35.6591 63.6089 35.4555C63.7227 35.252 63.8685 35.0949 64.0462 34.9842C64.224 34.8735 64.4125 34.8181 64.6116 34.8181C64.832 34.8181 65.0187 34.8699 65.1716 34.9735C65.328 35.0735 65.4453 35.2145 65.5236 35.3966C65.6018 35.5787 65.6409 35.793 65.6409 36.0394C65.6409 36.0858 65.6391 36.1304 65.6356 36.1733C65.6356 36.2162 65.6302 36.259 65.6196 36.3019H63.7529V35.9537H65.2462C65.2462 35.7037 65.1911 35.5127 65.0809 35.3806C64.9742 35.2449 64.8196 35.177 64.6169 35.177C64.4996 35.177 64.384 35.2109 64.2702 35.2788C64.1565 35.3431 64.0622 35.4484 63.9876 35.5948C63.9165 35.7412 63.8809 35.9358 63.8809 36.1787C63.8809 36.4001 63.9182 36.5857 63.9929 36.7357C64.0711 36.8857 64.176 37 64.3076 37.0785C64.4391 37.1535 64.5831 37.191 64.7396 37.191C64.864 37.191 64.9796 37.1732 65.0862 37.1374C65.1965 37.1017 65.296 37.0535 65.3849 36.9928L65.5449 37.2821C65.4311 37.3606 65.3031 37.4249 65.1609 37.4749C65.0222 37.5249 64.864 37.5499 64.6862 37.5499Z" fill="#666666"/>
<path d="M67.4281 37.5499C67.3072 37.5499 67.1827 37.5213 67.0547 37.4642C66.9267 37.4035 66.8041 37.3213 66.6867 37.2178H66.6707L66.6334 37.4856H66.2814V33.6719H66.7187V34.711L66.7081 35.1824C66.8254 35.0788 66.9534 34.9931 67.0921 34.9253C67.2343 34.8538 67.3765 34.8181 67.5187 34.8181C67.7427 34.8181 67.9312 34.8735 68.0841 34.9842C68.2369 35.0913 68.3525 35.2449 68.4307 35.4448C68.509 35.6412 68.5481 35.8733 68.5481 36.1412C68.5481 36.4375 68.4947 36.6911 68.3881 36.9018C68.285 37.1125 68.1481 37.2731 67.9774 37.3838C67.8067 37.4945 67.6236 37.5499 67.4281 37.5499ZM67.3534 37.1803C67.4956 37.1803 67.6218 37.1392 67.7321 37.0571C67.8458 36.975 67.9347 36.8571 67.9987 36.7036C68.0627 36.5465 68.0947 36.3608 68.0947 36.1465C68.0947 35.9573 68.0716 35.7912 68.0254 35.6484C67.9792 35.502 67.9063 35.3895 67.8067 35.3109C67.7072 35.2288 67.5756 35.1877 67.4121 35.1877C67.3054 35.1877 67.1934 35.2181 67.0761 35.2788C66.9623 35.3359 66.8432 35.4234 66.7187 35.5412V36.9071C66.8325 37.0071 66.9445 37.0785 67.0547 37.1214C67.1685 37.1607 67.2681 37.1803 67.3534 37.1803Z" fill="#666666"/>
<path d="M70.2373 37.5499C70.0275 37.5499 69.8302 37.4963 69.6453 37.3892C69.464 37.2821 69.3164 37.1267 69.2026 36.9232C69.0924 36.7197 69.0373 36.475 69.0373 36.1894C69.0373 35.8966 69.0924 35.6484 69.2026 35.4448C69.3164 35.2413 69.464 35.086 69.6453 34.9788C69.8302 34.8717 70.0275 34.8181 70.2373 34.8181C70.4506 34.8181 70.648 34.8717 70.8293 34.9788C71.0107 35.086 71.1564 35.2413 71.2666 35.4448C71.3804 35.6484 71.4373 35.8966 71.4373 36.1894C71.4373 36.475 71.3804 36.7197 71.2666 36.9232C71.1564 37.1267 71.0107 37.2821 70.8293 37.3892C70.648 37.4963 70.4506 37.5499 70.2373 37.5499ZM70.2373 37.1857C70.3867 37.1857 70.5182 37.1446 70.632 37.0625C70.7458 36.9768 70.8329 36.8589 70.8933 36.7089C70.9538 36.559 70.984 36.3858 70.984 36.1894C70.984 35.9894 70.9538 35.8144 70.8933 35.6644C70.8329 35.5109 70.7458 35.3931 70.632 35.3109C70.5182 35.2252 70.3867 35.1824 70.2373 35.1824C70.088 35.1824 69.9564 35.2252 69.8426 35.3109C69.7324 35.3931 69.6453 35.5109 69.5813 35.6644C69.5209 35.8144 69.4907 35.9894 69.4907 36.1894C69.4907 36.3858 69.5209 36.559 69.5813 36.7089C69.6453 36.8589 69.7324 36.9768 69.8426 37.0625C69.9564 37.1446 70.088 37.1857 70.2373 37.1857Z" fill="#666666"/>
<path d="M73.1279 37.5499C72.9182 37.5499 72.7208 37.4963 72.5359 37.3892C72.3546 37.2821 72.2071 37.1267 72.0933 36.9232C71.9831 36.7197 71.9279 36.475 71.9279 36.1894C71.9279 35.8966 71.9831 35.6484 72.0933 35.4448C72.2071 35.2413 72.3546 35.086 72.5359 34.9788C72.7208 34.8717 72.9182 34.8181 73.1279 34.8181C73.3413 34.8181 73.5386 34.8717 73.7199 34.9788C73.9013 35.086 74.0471 35.2413 74.1573 35.4448C74.2711 35.6484 74.3279 35.8966 74.3279 36.1894C74.3279 36.475 74.2711 36.7197 74.1573 36.9232C74.0471 37.1267 73.9013 37.2821 73.7199 37.3892C73.5386 37.4963 73.3413 37.5499 73.1279 37.5499ZM73.1279 37.1857C73.2773 37.1857 73.4088 37.1446 73.5226 37.0625C73.6364 36.9768 73.7235 36.8589 73.7839 36.7089C73.8444 36.559 73.8746 36.3858 73.8746 36.1894C73.8746 35.9894 73.8444 35.8144 73.7839 35.6644C73.7235 35.5109 73.6364 35.3931 73.5226 35.3109C73.4088 35.2252 73.2773 35.1824 73.1279 35.1824C72.9786 35.1824 72.847 35.2252 72.7333 35.3109C72.6231 35.3931 72.5359 35.5109 72.4719 35.6644C72.4115 35.8144 72.3813 35.9894 72.3813 36.1894C72.3813 36.3858 72.4115 36.559 72.4719 36.7089C72.5359 36.8589 72.6231 36.9768 72.7333 37.0625C72.847 37.1446 72.9786 37.1857 73.1279 37.1857Z" fill="#666666"/>
<path d="M75.0106 37.4856V33.6719H75.4479V36.2483H75.4586L76.5572 34.8824H77.0479L76.1839 35.9323L77.1652 37.4856H76.6852L75.9279 36.2322L75.4479 36.8V37.4856H75.0106Z" fill="#666666"/>
<path d="M77.943 37.5499C77.8577 37.5499 77.783 37.5195 77.719 37.4588C77.655 37.3946 77.623 37.3142 77.623 37.2178C77.623 37.1142 77.655 37.0321 77.719 36.9714C77.783 36.9071 77.8577 36.875 77.943 36.875C78.0319 36.875 78.1066 36.9071 78.167 36.9714C78.2275 37.0321 78.2577 37.1142 78.2577 37.2178C78.2577 37.3142 78.2275 37.3946 78.167 37.4588C78.1066 37.5195 78.0319 37.5499 77.943 37.5499Z" fill="#666666"/>
<path d="M79.2711 37.5499C79.1858 37.5499 79.1112 37.5195 79.0471 37.4588C78.9832 37.3946 78.9511 37.3142 78.9511 37.2178C78.9511 37.1142 78.9832 37.0321 79.0471 36.9714C79.1112 36.9071 79.1858 36.875 79.2711 36.875C79.36 36.875 79.4347 36.9071 79.4951 36.9714C79.5556 37.0321 79.5858 37.1142 79.5858 37.2178C79.5858 37.3142 79.5556 37.3946 79.4951 37.4588C79.4347 37.5195 79.36 37.5499 79.2711 37.5499Z" fill="#666666"/>
<path d="M80.5993 37.5499C80.5139 37.5499 80.4393 37.5195 80.3753 37.4588C80.3113 37.3946 80.2793 37.3142 80.2793 37.2178C80.2793 37.1142 80.3113 37.0321 80.3753 36.9714C80.4393 36.9071 80.5139 36.875 80.5993 36.875C80.6882 36.875 80.7628 36.9071 80.8233 36.9714C80.8837 37.0321 80.9139 37.1142 80.9139 37.2178C80.9139 37.3142 80.8837 37.3946 80.8233 37.4588C80.7628 37.5195 80.6882 37.5499 80.5993 37.5499Z" fill="#666666"/>
<path d="M2.33301 46.5244H121.666V129.548H2.33301V46.5244Z" fill="#EAF3FF"/>
<g opacity="0.5">
<path d="M8.66602 56.5679C8.66602 54.719 10.1584 53.2202 11.9993 53.2202H111.999C113.84 53.2202 115.333 54.719 115.333 56.5679V72.6371C115.333 74.486 113.84 75.9848 111.999 75.9848H11.9993C10.1584 75.9848 8.66602 74.486 8.66602 72.6371V56.5679Z" fill="white"/>
<path d="M8.66602 103.436C8.66602 101.587 10.1584 100.088 11.9993 100.088H80.9994C82.8403 100.088 84.3327 101.587 84.3327 103.436V119.505C84.3327 121.354 82.8403 122.853 80.9994 122.853H11.9993C10.1584 122.853 8.66602 121.354 8.66602 119.505V103.436Z" fill="white"/>
<path d="M86.6665 103.436C86.6665 101.587 88.1589 100.088 89.9998 100.088H112C113.841 100.088 115.333 101.587 115.333 103.436V119.505C115.333 121.354 113.841 122.853 112 122.853H89.9998C88.1589 122.853 86.6665 121.354 86.6665 119.505V103.436Z" fill="white"/>
<path d="M8.66602 82.8481C8.66602 80.9068 10.233 79.333 12.166 79.333H47.4993C49.4323 79.333 50.9993 80.9068 50.9993 82.8481C50.9993 84.7895 49.4323 86.3632 47.4993 86.3632H12.166C10.233 86.3632 8.66602 84.7895 8.66602 82.8481Z" fill="white"/>
<path d="M54.3335 82.8481C54.3335 80.9068 55.9005 79.333 57.8335 79.333H111.834C113.767 79.333 115.334 80.9068 115.334 82.8481C115.334 84.7895 113.767 86.3632 111.834 86.3632H57.8335C55.9005 86.3632 54.3335 84.7895 54.3335 82.8481Z" fill="white"/>
<path d="M8.66602 93.2256C8.66602 91.2842 10.233 89.7104 12.166 89.7104H30.8327C32.7657 89.7104 34.3327 91.2842 34.3327 93.2256C34.3327 95.1669 32.7657 96.7407 30.8327 96.7407H12.166C10.233 96.7407 8.66602 95.1669 8.66602 93.2256Z" fill="white"/>
<path d="M36.3335 93.2256C36.3335 91.2842 37.9005 89.7104 39.8335 89.7104H69.8335C71.7665 89.7104 73.3335 91.2842 73.3335 93.2256C73.3335 95.1669 71.7665 96.7407 69.8335 96.7407H39.8335C37.9005 96.7407 36.3335 95.1669 36.3335 93.2256Z" fill="white"/>
<path d="M75.3335 93.2256C75.3335 91.2842 76.9005 89.7104 78.8335 89.7104H111.833C113.766 89.7104 115.333 91.2842 115.333 93.2256C115.333 95.1669 113.766 96.7407 111.833 96.7407H78.8335C76.9005 96.7407 75.3335 95.1669 75.3335 93.2256Z" fill="white"/>
</g>
<path d="M21.0182 136.059C21.2538 134.601 20.2679 133.227 18.816 132.99C17.3642 132.753 15.9962 133.744 15.7606 135.202C15.525 136.66 16.5109 138.034 17.9628 138.27C19.4146 138.507 20.7826 137.517 21.0182 136.059Z" fill="#FAE361"/>
<path d="M18.3996 137.832C18.8008 137.832 19.126 137.365 19.126 136.79C19.126 136.214 18.8008 135.748 18.3996 135.748C17.9985 135.748 17.6733 136.214 17.6733 136.79C17.6733 137.365 17.9985 137.832 18.3996 137.832Z" fill="#1E1E1E"/>
<path d="M16.7397 134.879C16.7743 134.601 16.9818 134.358 17.1547 134.392C17.3622 134.427 17.5006 134.67 17.466 134.983C17.4314 135.261 17.2239 135.504 17.051 135.469C16.8434 135.435 16.7051 135.157 16.7397 134.879Z" fill="#1E1E1E"/>
<path d="M17.5691 133.732C17.5345 133.732 17.4999 133.732 17.4999 133.698C17.4999 133.698 17.4307 133.593 17.2578 133.593C17.0849 133.593 16.9465 133.732 16.9465 133.732C16.9119 133.767 16.8428 133.767 16.8082 133.732C16.7736 133.698 16.7736 133.628 16.8082 133.593C16.8082 133.593 16.9811 133.42 17.2232 133.42C17.4653 133.42 17.6036 133.593 17.6036 133.628C17.6382 133.663 17.6036 133.732 17.5691 133.732C17.6036 133.732 17.5691 133.732 17.5691 133.732Z" fill="#1E1E1E"/>
<path d="M19.9562 134.879C19.9216 134.601 19.7141 134.358 19.5412 134.392C19.3337 134.427 19.1953 134.67 19.2299 134.983C19.2645 135.261 19.472 135.504 19.6449 135.469C19.8525 135.435 19.9908 135.157 19.9562 134.879Z" fill="#1E1E1E"/>
<path d="M19.1607 133.732C19.1953 133.732 19.2299 133.732 19.2299 133.698C19.2299 133.698 19.2991 133.593 19.472 133.593C19.6449 133.593 19.7833 133.732 19.7833 133.732C19.8179 133.767 19.887 133.767 19.9216 133.732C19.9562 133.698 19.9562 133.628 19.9216 133.593C19.9216 133.593 19.7487 133.42 19.5066 133.42C19.2645 133.42 19.1261 133.593 19.1261 133.628C19.0916 133.663 19.1261 133.732 19.1607 133.732C19.1261 133.732 19.1261 133.732 19.1607 133.732Z" fill="#1E1E1E"/>
<path d="M14.6672 138.253C16.1399 138.253 17.3338 137.054 17.3338 135.575C17.3338 134.096 16.1399 132.896 14.6672 132.896C13.1944 132.896 12.0005 134.096 12.0005 135.575C12.0005 137.054 13.1944 138.253 14.6672 138.253Z" fill="#F4415F"/>
<path d="M16.3335 135.071C16.3335 134.61 15.9791 134.236 15.543 134.236C15.2159 134.236 14.9433 134.437 14.8343 134.725C14.7252 134.437 14.4254 134.236 14.1256 134.236C13.6894 134.236 13.3351 134.61 13.3351 135.071C13.3351 135.071 13.226 135.935 14.8343 136.914C15.9519 136.223 16.2517 135.589 16.3062 135.273C16.3335 135.215 16.3335 135.157 16.3335 135.071Z" fill="white"/>
<g clip-path="url(#clip0_5144_2606)">
<path d="M13.9378 135.577C13.9358 137.018 12.767 138.191 11.3337 138.19C9.89722 138.189 8.7243 137.009 8.72951 135.569C8.73576 134.125 9.90555 132.955 11.3378 132.959C12.7743 132.963 13.9399 134.137 13.9378 135.577Z" fill="#0089E7"/>
<path d="M12.7197 135.98C12.8478 136.182 12.8166 136.324 12.6155 136.418C12.6655 136.472 12.6999 136.534 12.7009 136.61C12.703 136.747 12.5936 136.863 12.4509 136.862C11.9874 136.859 11.5239 136.853 11.0603 136.845C10.9249 136.843 10.8634 136.771 10.8634 136.634C10.8634 136.189 10.8655 135.744 10.8614 135.3C10.8603 135.202 10.8916 135.127 10.9541 135.058C11.0791 134.918 11.2259 134.803 11.3645 134.677C11.4332 134.614 11.502 134.551 11.5614 134.478C11.6041 134.425 11.6259 134.366 11.628 134.296C11.6322 134.179 11.6311 134.062 11.652 133.947C11.6676 133.859 11.6884 133.845 11.777 133.855C11.977 133.879 12.0864 134.014 12.0947 134.256C12.102 134.452 12.0447 134.638 11.977 134.82C11.9489 134.895 11.9166 134.968 11.8832 135.051C11.9072 135.051 11.927 135.051 11.9468 135.051C12.2009 135.051 12.4551 135.051 12.7093 135.051C12.8686 135.051 12.9645 135.118 12.9936 135.248C13.0207 135.37 12.9561 135.478 12.8155 135.541C12.9509 135.73 12.9186 135.878 12.7197 135.98Z" fill="#FEFEFE"/>
<path d="M10.6772 135.948C10.6772 136.175 10.6772 136.403 10.6772 136.63C10.6772 136.776 10.6095 136.843 10.4626 136.844C10.3147 136.844 10.1657 136.845 10.0178 136.844C9.8876 136.843 9.81572 136.775 9.81572 136.644C9.81468 136.178 9.81468 135.713 9.81572 135.247C9.81572 135.121 9.8876 135.052 10.0136 135.051C10.1678 135.05 10.323 135.05 10.4772 135.051C10.6053 135.052 10.6761 135.123 10.6761 135.254C10.6772 135.485 10.6772 135.716 10.6772 135.948Z" fill="#FEFEFE"/>
</g>
<path d="M8.77832 147.416C8.77832 144.181 11.39 141.558 14.6117 141.558H36.2783C39.5 141.558 42.1117 144.181 42.1117 147.416C42.1117 150.652 39.5 153.275 36.2783 153.275H14.6117C11.39 153.275 8.77832 150.652 8.77832 147.416Z" fill="#F7F7F7"/>
<path fill-rule="evenodd" clip-rule="evenodd" d="M22.7142 147.165C22.7784 147.104 22.8619 147.077 22.9449 147.077H23.9546C24.0376 147.077 24.1211 147.104 24.1853 147.165C24.2503 147.226 24.2818 147.31 24.2818 147.397V149.94C24.2818 150.027 24.2503 150.11 24.1853 150.172C24.1211 150.233 24.0376 150.26 23.9546 150.26H22.9449C22.8619 150.26 22.7784 150.233 22.7142 150.172C22.6491 150.11 22.6177 150.027 22.6177 149.94V147.397C22.6177 147.31 22.6491 147.226 22.7142 147.165ZM22.9566 147.418V149.919H23.9429V147.418H22.9566Z" fill="#212121"/>
<path fill-rule="evenodd" clip-rule="evenodd" d="M25.9505 144.565C25.9506 144.565 25.9507 144.565 25.9423 144.735L25.9507 144.565C25.9555 144.565 25.9602 144.565 25.965 144.566C26.2592 144.606 26.4535 144.8 26.5537 145.058C26.6512 145.309 26.6646 145.626 26.6147 145.957C26.5646 146.289 26.4647 146.573 26.3777 146.774C26.3679 146.796 26.3582 146.818 26.3488 146.838H27.6777C28.0144 146.838 28.2889 147.085 28.2889 147.427C28.2889 147.615 28.2004 147.782 28.0603 147.891C28.1271 147.989 28.1627 148.109 28.1627 148.235C28.1627 148.4 28.0775 148.546 27.9676 148.651C27.9514 148.666 27.9344 148.681 27.9166 148.695C27.9907 148.78 28.0365 148.89 28.0365 149.013C28.0365 149.158 27.9722 149.286 27.8725 149.376C27.9354 149.458 27.9734 149.559 27.9734 149.671C27.9734 149.954 27.7304 150.17 27.4568 150.17H24.554C24.4082 150.17 24.2877 150.136 24.1921 150.072C24.0969 150.009 24.0377 149.926 24.0017 149.847C23.9661 149.769 23.9519 149.694 23.9462 149.64C23.9433 149.612 23.9425 149.589 23.9424 149.572C23.9423 149.563 23.9425 149.556 23.9427 149.551C23.9427 149.549 23.9428 149.548 23.9428 149.547V147.368C23.9428 147.328 23.9563 147.29 23.9809 147.26C24.2952 146.873 24.6335 146.44 24.8935 146.104C25.0234 145.936 25.1336 145.792 25.2114 145.69C25.2448 145.647 25.2722 145.611 25.2926 145.584C25.2453 145.128 25.3654 144.854 25.5521 144.703C25.6448 144.628 25.7422 144.594 25.8151 144.578C25.8517 144.57 25.8832 144.567 25.9064 144.565C25.9181 144.565 25.9279 144.564 25.9353 144.564C25.9391 144.564 25.9422 144.564 25.9448 144.565L25.9482 144.565L25.9496 144.565L25.9502 144.565L25.9505 144.565ZM25.469 145.632L25.6039 145.735L25.5713 145.778C25.5501 145.806 25.5192 145.847 25.4802 145.898C25.4021 146 25.2915 146.144 25.1611 146.313C24.9109 146.636 24.5874 147.05 24.2817 147.428V149.552C24.2817 149.555 24.2816 149.559 24.2814 149.562C24.2814 149.562 24.2814 149.562 24.2814 149.563C24.2814 149.564 24.2813 149.566 24.2813 149.57C24.2813 149.577 24.2817 149.589 24.2833 149.604C24.2864 149.634 24.294 149.671 24.3097 149.705C24.3249 149.738 24.3465 149.767 24.3785 149.788C24.4101 149.809 24.4632 149.83 24.554 149.83H27.4568C27.5619 149.83 27.6344 149.748 27.6344 149.671C27.6344 149.595 27.5619 149.512 27.4568 149.512C27.3632 149.512 27.2874 149.436 27.2874 149.342C27.2874 149.248 27.3632 149.172 27.4568 149.172H27.5199C27.625 149.172 27.6975 149.089 27.6975 149.013C27.6975 148.937 27.625 148.854 27.5199 148.854C27.4302 148.854 27.356 148.784 27.3508 148.694C27.3455 148.604 27.411 148.525 27.5001 148.515C27.5876 148.504 27.6727 148.462 27.7349 148.403C27.7985 148.343 27.8238 148.28 27.8238 148.235C27.8238 148.118 27.7651 148.037 27.6809 148.005C27.6083 147.978 27.5636 147.904 27.5724 147.827C27.5812 147.749 27.6412 147.688 27.7181 147.678C27.8593 147.658 27.95 147.547 27.95 147.427C27.95 147.291 27.8458 147.179 27.6777 147.179H26.0685C26.0067 147.179 25.9498 147.145 25.92 147.09C25.8903 147.036 25.8923 146.97 25.9254 146.917L25.9255 146.917L26.0685 147.008M25.9255 146.917L25.9273 146.914C25.9289 146.912 25.9316 146.907 25.9351 146.901C25.942 146.889 25.9525 146.871 25.9655 146.847C25.9916 146.799 26.0278 146.728 26.067 146.638C26.1456 146.456 26.235 146.202 26.2796 145.906C26.3244 145.609 26.3062 145.357 26.238 145.182C26.1742 145.018 26.0722 144.928 25.9303 144.905C25.9293 144.905 25.9283 144.905 25.9272 144.905C25.9181 144.906 25.9038 144.907 25.8862 144.911C25.8506 144.919 25.806 144.935 25.7646 144.968C25.6926 145.027 25.5787 145.181 25.6369 145.609C25.643 145.654 25.6311 145.699 25.6039 145.735L25.469 145.632" fill="#212121"/>
<path d="M45.333 147.459C45.333 144.223 47.9447 141.6 51.1663 141.6H72.833C76.0547 141.6 78.6663 144.223 78.6663 147.459C78.6663 150.694 76.0547 153.317 72.833 153.317H51.1663C47.9447 153.317 45.333 150.694 45.333 147.459Z" fill="#F7F7F7"/>
<path fill-rule="evenodd" clip-rule="evenodd" d="M59.167 145.758C59.167 145.201 59.6302 144.781 60.1531 144.781H63.5401C64.0591 144.781 64.5295 145.198 64.4989 145.763V148.215C64.4989 148.772 64.0357 149.192 63.5128 149.192H61.9941L61.0315 150.092C60.9829 150.138 60.9122 150.15 60.8514 150.123C60.7906 150.097 60.7513 150.036 60.7513 149.97V149.192H60.1531C59.5956 149.192 59.167 148.738 59.167 148.215V145.758ZM60.1531 145.116C59.8019 145.116 59.5003 145.398 59.5003 145.758V148.215C59.5003 148.556 59.7819 148.857 60.1531 148.857H60.9179C61.01 148.857 61.0846 148.932 61.0846 149.025V149.585L61.815 148.902C61.8459 148.873 61.8864 148.857 61.9286 148.857H63.5128C63.864 148.857 64.1656 148.575 64.1656 148.215V145.758C64.1656 145.755 64.1657 145.751 64.1659 145.748C64.1868 145.397 63.8937 145.116 63.5401 145.116H60.1531Z" fill="#212121"/>
<path d="M82 147.459C82 144.223 84.6117 141.6 87.8333 141.6H109.5C112.722 141.6 115.333 144.223 115.333 147.459C115.333 150.694 112.722 153.317 109.5 153.317H87.8333C84.6117 153.317 82 150.694 82 147.459Z" fill="#F7F7F7"/>
<path fill-rule="evenodd" clip-rule="evenodd" d="M98.8647 144.791C98.9299 144.767 99.0034 144.786 99.0489 144.839L101.126 147.251C101.18 147.314 101.18 147.407 101.126 147.47L99.0489 149.883C99.0034 149.936 98.9299 149.955 98.8647 149.93C98.7995 149.906 98.7562 149.843 98.7562 149.773V148.396C98.4072 148.39 98.0776 148.387 97.5498 148.66L97.5488 148.66L97.5488 148.66C96.8198 149.031 96.3574 149.724 96.14 150.061C96.0998 150.123 96.0237 150.151 95.9529 150.13C95.8821 150.109 95.8335 150.044 95.8335 149.97C95.8335 147.981 96.977 146.311 98.7562 146.268V144.948C98.7562 144.878 98.7995 144.816 98.8647 144.791ZM99.0895 145.398V146.435C99.0895 146.527 99.0149 146.602 98.9229 146.602H98.8262C97.4251 146.602 96.3983 147.772 96.2012 149.393C96.4747 149.043 96.8712 148.63 97.3979 148.362C98.0067 148.048 98.4105 148.055 98.7735 148.061C98.8239 148.062 98.8736 148.063 98.9229 148.063C99.0149 148.063 99.0895 148.138 99.0895 148.23V149.324L100.78 147.361L99.0895 145.398Z" fill="#212121"/>
<path d="M34.163 176V166.872H39.917V168.608H36.221V170.722H39.385V172.458H36.221V176H34.163ZM42.5536 176.168C42.1336 176.168 41.7649 176.075 41.4476 175.888C41.1396 175.701 40.9016 175.449 40.7336 175.132C40.5656 174.815 40.4816 174.46 40.4816 174.068C40.4816 173.321 40.7896 172.747 41.4056 172.346C42.0216 171.935 43.0156 171.66 44.3876 171.52C44.3782 171.315 44.3316 171.142 44.2476 171.002C44.1729 170.853 44.0562 170.741 43.8976 170.666C43.7389 170.582 43.5382 170.54 43.2956 170.54C43.0062 170.54 42.7122 170.591 42.4136 170.694C42.1149 170.797 41.7929 170.946 41.4476 171.142L40.7196 169.798C41.0182 169.611 41.3262 169.453 41.6436 169.322C41.9609 169.182 42.2876 169.075 42.6236 169C42.9689 168.925 43.3236 168.888 43.6876 168.888C44.2849 168.888 44.7842 169.005 45.1856 169.238C45.5962 169.462 45.9089 169.807 46.1236 170.274C46.3382 170.731 46.4456 171.319 46.4456 172.038V176H44.7656L44.6256 175.286H44.5696C44.2709 175.547 43.9582 175.762 43.6316 175.93C43.3049 176.089 42.9456 176.168 42.5536 176.168ZM43.2396 174.558C43.4729 174.558 43.6782 174.507 43.8556 174.404C44.0329 174.301 44.2102 174.161 44.3876 173.984V172.808C43.9022 172.873 43.5149 172.957 43.2256 173.06C42.9456 173.163 42.7449 173.289 42.6236 173.438C42.5116 173.578 42.4556 173.737 42.4556 173.914C42.4556 174.129 42.5256 174.292 42.6656 174.404C42.8149 174.507 43.0062 174.558 43.2396 174.558ZM51.2524 176.168C50.599 176.168 50.0064 176.023 49.4744 175.734C48.9517 175.445 48.5364 175.029 48.2284 174.488C47.9297 173.947 47.7804 173.293 47.7804 172.528C47.7804 171.763 47.9484 171.109 48.2844 170.568C48.6204 170.027 49.0637 169.611 49.6144 169.322C50.165 169.033 50.7577 168.888 51.3924 168.888C51.8217 168.888 52.2044 168.958 52.5404 169.098C52.8857 169.229 53.1797 169.406 53.4224 169.63L52.4564 170.904C52.335 170.801 52.195 170.717 52.0364 170.652C51.887 170.587 51.7144 170.554 51.5184 170.554C51.1917 170.554 50.907 170.633 50.6644 170.792C50.4217 170.951 50.2304 171.179 50.0904 171.478C49.9504 171.777 49.8804 172.127 49.8804 172.528C49.8804 172.929 49.9504 173.279 50.0904 173.578C50.2304 173.877 50.417 174.105 50.6504 174.264C50.893 174.423 51.1637 174.502 51.4624 174.502C51.6957 174.502 51.915 174.46 52.1204 174.376C52.3257 174.292 52.517 174.185 52.6944 174.054L53.5064 175.314C53.217 175.575 52.8764 175.785 52.4844 175.944C52.0924 176.093 51.6817 176.168 51.2524 176.168ZM57.4604 176.168C56.7977 176.168 56.2004 176.023 55.6684 175.734C55.1364 175.445 54.7164 175.029 54.4084 174.488C54.1004 173.947 53.9464 173.293 53.9464 172.528C53.9464 171.772 54.1004 171.123 54.4084 170.582C54.7257 170.041 55.1364 169.625 55.6404 169.336C56.1444 169.037 56.6717 168.888 57.2224 168.888C57.885 168.888 58.4357 169.037 58.8744 169.336C59.313 169.625 59.6397 170.022 59.8544 170.526C60.069 171.03 60.1764 171.595 60.1764 172.22C60.1764 172.397 60.167 172.575 60.1484 172.752C60.1297 172.92 60.111 173.055 60.0924 173.158H55.5424L55.5144 171.73H58.4124C58.4124 171.366 58.3237 171.067 58.1464 170.834C57.969 170.591 57.675 170.47 57.2644 170.47C57.0404 170.47 56.821 170.531 56.6064 170.652C56.3917 170.773 56.2144 170.983 56.0744 171.282C55.9344 171.581 55.869 171.996 55.8784 172.528C55.8877 173.051 55.981 173.461 56.1584 173.76C56.345 174.059 56.5784 174.273 56.8584 174.404C57.1384 174.525 57.4324 174.586 57.7404 174.586C58.011 174.586 58.2677 174.549 58.5104 174.474C58.7624 174.39 59.0097 174.278 59.2524 174.138L59.9244 175.398C59.579 175.641 59.187 175.832 58.7484 175.972C58.3097 176.103 57.8804 176.168 57.4604 176.168ZM65.2385 176.168C64.9305 176.168 64.6225 176.093 64.3145 175.944C64.0065 175.785 63.7125 175.557 63.4325 175.258H63.3765L63.2085 176H61.5985V166.186H63.6565V168.594L63.6005 169.658C63.8618 169.415 64.1511 169.229 64.4685 169.098C64.7858 168.958 65.1078 168.888 65.4345 168.888C65.9945 168.888 66.4798 169.033 66.8905 169.322C67.3011 169.611 67.6138 170.022 67.8285 170.554C68.0525 171.077 68.1645 171.693 68.1645 172.402C68.1645 173.195 68.0245 173.877 67.7445 174.446C67.4645 175.006 67.1005 175.435 66.6525 175.734C66.2138 176.023 65.7425 176.168 65.2385 176.168ZM64.7625 174.488C64.9958 174.488 65.2105 174.418 65.4065 174.278C65.6118 174.138 65.7705 173.919 65.8825 173.62C65.9945 173.312 66.0505 172.92 66.0505 172.444C66.0505 172.024 66.0038 171.679 65.9105 171.408C65.8265 171.128 65.6958 170.918 65.5185 170.778C65.3411 170.638 65.1171 170.568 64.8465 170.568C64.6411 170.568 64.4405 170.619 64.2445 170.722C64.0578 170.815 63.8618 170.974 63.6565 171.198V174.04C63.8338 174.199 64.0205 174.315 64.2165 174.39C64.4125 174.455 64.5945 174.488 64.7625 174.488ZM72.6059 176.168C72.0179 176.168 71.4672 176.028 70.9539 175.748C70.4405 175.459 70.0205 175.043 69.6939 174.502C69.3765 173.951 69.2179 173.293 69.2179 172.528C69.2179 171.763 69.3765 171.109 69.6939 170.568C70.0205 170.017 70.4405 169.602 70.9539 169.322C71.4672 169.033 72.0179 168.888 72.6059 168.888C73.1845 168.888 73.7305 169.033 74.2439 169.322C74.7572 169.602 75.1725 170.017 75.4899 170.568C75.8165 171.109 75.9799 171.763 75.9799 172.528C75.9799 173.293 75.8165 173.951 75.4899 174.502C75.1725 175.043 74.7572 175.459 74.2439 175.748C73.7305 176.028 73.1845 176.168 72.6059 176.168ZM72.6059 174.502C72.8859 174.502 73.1192 174.423 73.3059 174.264C73.5019 174.105 73.6465 173.877 73.7399 173.578C73.8332 173.279 73.8799 172.929 73.8799 172.528C73.8799 172.127 73.8332 171.777 73.7399 171.478C73.6465 171.179 73.5019 170.951 73.3059 170.792C73.1192 170.633 72.8859 170.554 72.6059 170.554C72.3165 170.554 72.0785 170.633 71.8919 170.792C71.7052 170.951 71.5652 171.179 71.4719 171.478C71.3785 171.777 71.3319 172.127 71.3319 172.528C71.3319 172.929 71.3785 173.279 71.4719 173.578C71.5652 173.877 71.7052 174.105 71.8919 174.264C72.0785 174.423 72.3165 174.502 72.6059 174.502ZM80.3715 176.168C79.7835 176.168 79.2328 176.028 78.7195 175.748C78.2062 175.459 77.7862 175.043 77.4595 174.502C77.1422 173.951 76.9835 173.293 76.9835 172.528C76.9835 171.763 77.1422 171.109 77.4595 170.568C77.7862 170.017 78.2062 169.602 78.7195 169.322C79.2328 169.033 79.7835 168.888 80.3715 168.888C80.9502 168.888 81.4962 169.033 82.0095 169.322C82.5228 169.602 82.9382 170.017 83.2555 170.568C83.5822 171.109 83.7455 171.763 83.7455 172.528C83.7455 173.293 83.5822 173.951 83.2555 174.502C82.9382 175.043 82.5228 175.459 82.0095 175.748C81.4962 176.028 80.9502 176.168 80.3715 176.168ZM80.3715 174.502C80.6515 174.502 80.8848 174.423 81.0715 174.264C81.2675 174.105 81.4122 173.877 81.5055 173.578C81.5988 173.279 81.6455 172.929 81.6455 172.528C81.6455 172.127 81.5988 171.777 81.5055 171.478C81.4122 171.179 81.2675 170.951 81.0715 170.792C80.8848 170.633 80.6515 170.554 80.3715 170.554C80.0822 170.554 79.8442 170.633 79.6575 170.792C79.4708 170.951 79.3308 171.179 79.2375 171.478C79.1442 171.777 79.0975 172.127 79.0975 172.528C79.0975 172.929 79.1442 173.279 79.2375 173.578C79.3308 173.877 79.4708 174.105 79.6575 174.264C79.8442 174.423 80.0822 174.502 80.3715 174.502ZM85.1551 176V166.186H87.1851V171.786H87.2411L89.3971 169.056H91.6511L89.2431 171.94L91.8331 176H89.6071L88.0391 173.298L87.1851 174.264V176H85.1551Z" fill="#212121"/>
<defs>
<clipPath id="clip0_5144_2606">
<rect width="5.33333" height="5.35637" fill="white" transform="translate(8.66699 132.896)"/>
</clipPath>
</defs>
</svg>
