<svg width="16" height="16" viewBox="0 0 16 16" fill="none" xmlns="http://www.w3.org/2000/svg">
<path fill-rule="evenodd" clip-rule="evenodd" d="M7.99996 6.48096C7.10841 6.48096 6.39062 7.19879 6.39062 8.09162C6.39062 8.53672 6.56721 8.93095 6.86054 9.22376C7.05597 9.41885 7.05624 9.73544 6.86115 9.93087C6.66606 10.1263 6.34948 10.1266 6.15405 9.93148C5.6807 9.45897 5.39062 8.81319 5.39062 8.09162C5.39062 6.64712 6.55551 5.48096 7.99996 5.48096C8.7135 5.48096 9.37341 5.76985 9.84296 6.24687C10.0367 6.44367 10.0342 6.76025 9.83737 6.95396C9.64057 7.14767 9.324 7.14517 9.13029 6.94837C8.84651 6.66007 8.44242 6.48096 7.99996 6.48096Z" fill="white"/>
<path fill-rule="evenodd" clip-rule="evenodd" d="M10.1588 7.9738C10.4306 8.02268 10.6113 8.28263 10.5624 8.55441C10.3709 9.61963 9.53306 10.4592 8.4683 10.6525C8.1966 10.7019 7.93636 10.5216 7.88703 10.2499C7.83771 9.97818 8.01798 9.71794 8.28968 9.66861C8.94359 9.54991 9.46046 9.03218 9.57822 8.3774C9.6271 8.10562 9.88705 7.92492 10.1588 7.9738Z" fill="white"/>
<path fill-rule="evenodd" clip-rule="evenodd" d="M8.00065 3.72266C6.85941 3.72266 5.74605 4.13183 4.76695 4.90672L4.76575 4.90767L4.76575 4.90767C3.82309 5.64905 3.00075 6.72795 2.38061 8.09187C2.99435 9.44851 3.81054 10.5202 4.74609 11.2547C4.96328 11.4252 5.00112 11.7396 4.83059 11.9568C4.66006 12.174 4.34575 12.2118 4.12855 12.0413C2.99311 11.1498 2.05054 9.86337 1.37453 8.28855C1.32033 8.16228 1.32048 8.01928 1.37494 7.89312C2.05748 6.31234 3.00563 5.01993 4.14695 4.12212C5.28372 3.22264 6.61147 2.72266 8.00065 2.72266C9.39916 2.72266 10.7263 3.23068 11.8684 4.13538C12.0849 4.30685 12.1214 4.62132 11.9499 4.83778C11.7785 5.05424 11.464 5.09072 11.2475 4.91926C10.2603 4.1373 9.14748 3.72266 8.00065 3.72266Z" fill="white"/>
<path fill-rule="evenodd" clip-rule="evenodd" d="M12.6653 5.59421C12.8859 5.42813 13.1994 5.47236 13.3654 5.69298C13.8504 6.33727 14.2729 7.07563 14.6262 7.89255C14.6809 8.01908 14.681 8.16259 14.6264 8.28917C13.2651 11.4428 10.8027 13.459 8.00064 13.459C7.37084 13.459 6.75009 13.3568 6.15435 13.158C5.89241 13.0705 5.75093 12.7873 5.83835 12.5254C5.92577 12.2635 6.20898 12.122 6.47092 12.2094C6.96585 12.3746 7.47976 12.459 8.00064 12.459C10.2226 12.459 12.3475 10.8895 13.6204 8.09116C13.3144 7.41919 12.9605 6.81779 12.5665 6.29438C12.4004 6.07376 12.4446 5.76028 12.6653 5.59421Z" fill="white"/>
<path fill-rule="evenodd" clip-rule="evenodd" d="M13.6117 2.47945C13.807 2.67472 13.807 2.9913 13.6117 3.18656L3.09574 13.7026C2.90048 13.8978 2.5839 13.8978 2.38863 13.7026C2.19337 13.5073 2.19337 13.1907 2.38863 12.9955L12.9046 2.47945C13.0999 2.28419 13.4165 2.28419 13.6117 2.47945Z" fill="white"/>
</svg>
