<svg width="24" height="24" viewBox="0 0 24 24" fill="none" xmlns="http://www.w3.org/2000/svg">
<path d="M12 0C11.6114 0 11.2969 0.314484 11.2969 0.703125C11.2969 1.09177 11.6114 1.40625 12 1.40625C17.8159 1.40625 22.5938 6.18412 22.5938 12C22.5938 17.8159 17.8159 22.5938 12 22.5938C6.18412 22.5938 1.40625 17.8159 1.40625 12C1.40625 9.17264 2.6438 6.46402 4.64062 4.49292V5.67188C4.64062 6.06052 4.95511 6.375 5.34375 6.375C5.73239 6.375 6.04688 6.06052 6.04688 5.67188V2.85938C6.04688 2.47073 5.70895 2.15625 5.32031 2.15625H2.50781C2.11917 2.15625 1.80469 2.47073 1.80469 2.85938C1.80469 3.24802 2.11917 3.55781 2.50781 3.55781H3.56541C1.34498 5.78531 0 8.82797 0 12C0 18.5911 5.40891 24 12 24C18.5911 24 24 18.5911 24 12C24 5.40891 18.5911 0 12 0Z" fill="#13B4CA"/>
<path d="M19.0312 12.7036C18.6426 12.7036 18.3281 12.3891 18.3281 12.0005C18.3281 11.6119 18.6426 11.2974 19.0312 11.2974H19.6987C19.5532 9.69224 18.9178 8.22721 17.94 7.05487L17.469 7.52582C17.1942 7.80065 16.7494 7.80065 16.4747 7.52582C16.1998 7.25099 16.1998 6.80629 16.4747 6.53146L16.9456 6.06051C15.7733 5.08274 14.3082 4.4473 12.7031 4.30176V4.96926C12.7031 5.3579 12.3886 5.67238 12 5.67238C11.6113 5.67238 11.2969 5.3579 11.2969 4.96926V4.30176C9.69172 4.4473 8.22669 5.08274 7.05435 6.06051L7.5253 6.53146C7.80013 6.80629 7.80013 7.25099 7.5253 7.52582C7.25057 7.80065 6.80577 7.80065 6.53094 7.52582L6.05999 7.05487C5.08222 8.22721 4.44679 9.69229 4.30124 11.2974H4.96874C5.35738 11.2974 5.67186 11.6119 5.67186 12.0005C5.67186 12.3891 5.35738 12.7036 4.96874 12.7036H4.30124C4.44679 14.3088 5.08222 15.7737 6.05999 16.9461L6.53094 16.4751C6.80577 16.2004 7.25057 16.2004 7.5253 16.4751C7.80013 16.7499 7.80013 17.1947 7.5253 17.4696L7.05435 17.9405C8.22669 18.9183 9.69177 19.5537 11.2969 19.6993V19.0318C11.2969 18.6431 11.6113 18.3286 12 18.3286C12.3886 18.3286 12.7031 18.6431 12.7031 19.0318V19.6993C14.3083 19.5537 15.7733 18.9183 16.9456 17.9405L16.4747 17.4696C16.1998 17.1947 16.1998 16.7499 16.4747 16.4751C16.7494 16.2004 17.1942 16.2004 17.469 16.4751L17.94 16.9461C18.9178 15.7737 19.5532 14.3087 19.6987 12.7036H19.0312ZM13.9033 13.9039C13.6287 14.1786 13.1838 14.1786 12.9091 13.9039L11.5028 12.4976C11.371 12.3658 11.2969 12.1873 11.2969 12.0005V9.18801C11.2969 8.79937 11.6113 8.48488 12 8.48488C12.3886 8.48488 12.7031 8.79937 12.7031 9.18801V11.7094L13.9033 12.9096C14.178 13.1842 14.178 13.6292 13.9033 13.9039Z" fill="#13B4CA"/>
</svg>
