<svg width="124" height="182" viewBox="0 0 124 182" fill="none" xmlns="http://www.w3.org/2000/svg">
<rect x="1.25" y="1.25" width="121.5" height="156.5" rx="3.75" fill="#D9D9D9" stroke="#F0F0F0" stroke-width="1.5"/>
<path d="M2 5.34773C2 3.49883 3.49238 2 5.33333 2H118.667C120.508 2 122 3.49883 122 5.34773V153.652C122 155.501 120.508 157 118.667 157H5.33333C3.49239 157 2 155.501 2 153.652V5.34773Z" fill="white"/>
<path fill-rule="evenodd" clip-rule="evenodd" d="M118.667 2.33477H5.33333C3.67648 2.33477 2.33333 3.68372 2.33333 5.34773V153.652C2.33333 155.316 3.67648 156.665 5.33333 156.665H118.667C120.324 156.665 121.667 155.316 121.667 153.652V5.34773C121.667 3.68372 120.324 2.33477 118.667 2.33477ZM5.33333 2C3.49238 2 2 3.49883 2 5.34773V153.652C2 155.501 3.49239 157 5.33333 157H118.667C120.508 157 122 155.501 122 153.652V5.34773C122 3.49883 120.508 2 118.667 2H5.33333Z" fill="#E7E7E7"/>
<path d="M25.3332 17.0646C25.3332 21.6869 21.6022 25.434 16.9998 25.434C12.3975 25.434 8.6665 21.6869 8.6665 17.0646C8.6665 12.4424 12.3975 8.69531 16.9998 8.69531C21.6022 8.69531 25.3332 12.4424 25.3332 17.0646Z" fill="#DBDBDB"/>
<path fill-rule="evenodd" clip-rule="evenodd" d="M16.9998 25.0992C21.4181 25.0992 24.9998 21.502 24.9998 17.0646C24.9998 12.6273 21.4181 9.03009 16.9998 9.03009C12.5816 9.03009 8.99984 12.6273 8.99984 17.0646C8.99984 21.502 12.5816 25.0992 16.9998 25.0992ZM16.9998 25.434C21.6022 25.434 25.3332 21.6869 25.3332 17.0646C25.3332 12.4424 21.6022 8.69531 16.9998 8.69531C12.3975 8.69531 8.6665 12.4424 8.6665 17.0646C8.6665 21.6869 12.3975 25.434 16.9998 25.434Z" fill="black"/>
<path d="M25.3332 17.0646C25.3332 12.4623 21.6022 8.69531 16.9998 8.69531C12.3975 8.69531 8.6665 12.4623 8.6665 17.0646C8.6665 21.667 12.3975 25.434 16.9998 25.434C21.6022 25.434 25.3332 21.667 25.3332 17.0646Z" fill="url(#paint0_linear_5144_2609)"/>
<path d="M16.9997 13.5078C18.1455 13.5078 18.3018 13.5078 18.7705 13.5078C19.1872 13.5078 19.3955 13.6124 19.5518 13.6647C19.7601 13.7693 19.9163 13.8216 20.0726 13.9785C20.2288 14.1355 20.333 14.2924 20.3851 14.5016C20.4372 14.6586 20.4893 14.8678 20.5413 15.2863C20.5413 15.757 20.5413 15.8616 20.5413 17.0647C20.5413 18.2678 20.5413 18.3724 20.5413 18.8432C20.5413 19.2617 20.4372 19.4709 20.3851 19.6278C20.2809 19.8371 20.2288 19.994 20.0726 20.1509C19.9163 20.3079 19.7601 20.4125 19.5518 20.4648C19.3955 20.5171 19.1872 20.5694 18.7705 20.6217C18.3018 20.6217 18.1976 20.6217 16.9997 20.6217C15.8018 20.6217 15.6976 20.6217 15.2288 20.6217C14.8122 20.6217 14.6038 20.5171 14.4476 20.4648C14.2393 20.3602 14.083 20.3079 13.9268 20.1509C13.7705 19.994 13.6663 19.8371 13.6143 19.6278C13.5622 19.4709 13.5101 19.2617 13.458 18.8432C13.458 18.3724 13.458 18.2678 13.458 17.0647C13.458 15.8616 13.458 15.757 13.458 15.2863C13.458 14.8678 13.5622 14.6586 13.6143 14.5016C13.7184 14.2924 13.7705 14.1355 13.9268 13.9785C14.083 13.8216 14.2393 13.717 14.4476 13.6647C14.6038 13.6124 14.8122 13.5601 15.2288 13.5078C15.6976 13.5078 15.8538 13.5078 16.9997 13.5078ZM16.9997 12.7231C15.8018 12.7231 15.6976 12.7231 15.2288 12.7231C14.7601 12.7231 14.4476 12.8278 14.1872 12.9324C13.9268 13.037 13.6663 13.1939 13.4059 13.4555C13.1455 13.717 13.0413 13.9262 12.8851 14.2401C12.7809 14.5016 12.7288 14.8155 12.6768 15.2863C12.6768 15.757 12.6768 15.914 12.6768 17.0647C12.6768 18.2678 12.6768 18.3724 12.6768 18.8432C12.6768 19.314 12.7809 19.6278 12.8851 19.8894C12.9893 20.1509 13.1455 20.4125 13.4059 20.674C13.6663 20.9356 13.8747 21.0402 14.1872 21.1971C14.4476 21.3017 14.7601 21.354 15.2288 21.4063C15.6976 21.4063 15.8538 21.4063 16.9997 21.4063C18.1455 21.4063 18.3018 21.4063 18.7705 21.4063C19.2393 21.4063 19.5518 21.3017 19.8122 21.1971C20.0726 21.0925 20.333 20.9356 20.5934 20.674C20.8538 20.4125 20.958 20.2032 21.1143 19.8894C21.2184 19.6278 21.2705 19.314 21.3226 18.8432C21.3226 18.3724 21.3226 18.2155 21.3226 17.0647C21.3226 15.914 21.3226 15.757 21.3226 15.2863C21.3226 14.8155 21.2184 14.5016 21.1143 14.2401C21.0101 13.9785 20.8538 13.717 20.5934 13.4555C20.333 13.1939 20.1247 13.0893 19.8122 12.9324C19.5518 12.8278 19.2393 12.7755 18.7705 12.7231C18.3018 12.7231 18.1976 12.7231 16.9997 12.7231Z" fill="white"/>
<path d="M16.9997 14.8155C15.7497 14.8155 14.7601 15.8093 14.7601 17.0647C14.7601 18.3201 15.7497 19.314 16.9997 19.314C18.2497 19.314 19.2393 18.3201 19.2393 17.0647C19.2393 15.8093 18.2497 14.8155 16.9997 14.8155ZM16.9997 18.5294C16.2184 18.5294 15.5413 17.9017 15.5413 17.0647C15.5413 16.2801 16.1663 15.6001 16.9997 15.6001C17.7809 15.6001 18.458 16.2278 18.458 17.0647C18.458 17.8494 17.7809 18.5294 16.9997 18.5294Z" fill="white"/>
<path d="M19.2913 15.2863C19.579 15.2863 19.8122 15.0521 19.8122 14.7632C19.8122 14.4743 19.579 14.2401 19.2913 14.2401C19.0037 14.2401 18.7705 14.4743 18.7705 14.7632C18.7705 15.0521 19.0037 15.2863 19.2913 15.2863Z" fill="white"/>
<path d="M113.158 16.0697C112.881 16.0697 112.658 15.8457 112.658 15.5676C112.658 15.2895 112.881 15.0654 113.158 15.0654C113.435 15.0654 113.658 15.2895 113.658 15.5676C113.658 15.8457 113.435 16.0697 113.158 16.0697Z" fill="black"/>
<path d="M113.158 16.7339C113.435 16.7339 113.658 16.9579 113.658 17.236C113.658 17.5142 113.435 17.7382 113.158 17.7382C112.881 17.7382 112.658 17.5142 112.658 17.236C112.658 16.9579 112.881 16.7339 113.158 16.7339Z" fill="black"/>
<path d="M113.158 18.395C113.435 18.395 113.658 18.6191 113.658 18.8972C113.658 19.1753 113.435 19.3993 113.158 19.3993C112.881 19.3993 112.658 19.1753 112.658 18.8972C112.658 18.6191 112.881 18.395 113.158 18.395Z" fill="black"/>
<path d="M33.2803 18.739V17.112L31.9736 14.3602H32.8003L33.2736 15.4783C33.3359 15.6434 33.3981 15.8041 33.4603 15.9604C33.5225 16.1121 33.5892 16.2728 33.6603 16.4424H33.687C33.7581 16.2728 33.827 16.1121 33.8936 15.9604C33.9603 15.8041 34.0247 15.6434 34.087 15.4783L34.5603 14.3602H35.367L34.0536 17.112V18.739H33.2803Z" fill="#212121"/>
<path d="M36.8478 18.8193C36.5767 18.8193 36.3234 18.7524 36.0878 18.6185C35.8522 18.4801 35.6611 18.2837 35.5145 18.0293C35.3678 17.7704 35.2945 17.4602 35.2945 17.0986C35.2945 16.7326 35.3678 16.4224 35.5145 16.1679C35.6611 15.909 35.8522 15.7126 36.0878 15.5787C36.3234 15.4404 36.5767 15.3712 36.8478 15.3712C37.1234 15.3712 37.3789 15.4404 37.6145 15.5787C37.85 15.7126 38.0411 15.909 38.1878 16.1679C38.3345 16.4224 38.4078 16.7326 38.4078 17.0986C38.4078 17.4602 38.3345 17.7704 38.1878 18.0293C38.0411 18.2837 37.85 18.4801 37.6145 18.6185C37.3789 18.7524 37.1234 18.8193 36.8478 18.8193ZM36.8478 18.19C37.0078 18.19 37.1456 18.1453 37.2611 18.056C37.3767 17.9668 37.4656 17.8396 37.5278 17.6744C37.59 17.5093 37.6211 17.3173 37.6211 17.0986C37.6211 16.8799 37.59 16.6879 37.5278 16.5228C37.4656 16.3576 37.3767 16.2304 37.2611 16.1411C37.1456 16.0474 37.0078 16.0005 36.8478 16.0005C36.6878 16.0005 36.55 16.0474 36.4345 16.1411C36.3234 16.2304 36.2367 16.3576 36.1745 16.5228C36.1122 16.6879 36.0811 16.8799 36.0811 17.0986C36.0811 17.3173 36.1122 17.5093 36.1745 17.6744C36.2367 17.8396 36.3234 17.9668 36.4345 18.056C36.55 18.1453 36.6878 18.19 36.8478 18.19Z" fill="#212121"/>
<path d="M40.14 18.8193C39.7889 18.8193 39.5333 18.7055 39.3733 18.4779C39.2133 18.2502 39.1333 17.9288 39.1333 17.5137V15.4515H39.9V17.4133C39.9 17.6856 39.94 17.8775 40.02 17.9891C40.1 18.1007 40.2289 18.1565 40.4067 18.1565C40.5489 18.1565 40.6733 18.1208 40.78 18.0494C40.8911 17.9779 41.0089 17.8619 41.1333 17.7012V15.4515H41.9V18.739H41.2733L41.2133 18.2569H41.1933C41.0511 18.4265 40.8955 18.5627 40.7267 18.6653C40.5578 18.768 40.3622 18.8193 40.14 18.8193Z" fill="#212121"/>
<path d="M42.8711 18.739V15.4515H43.5044L43.5577 16.034H43.5844C43.7 15.8198 43.8377 15.6568 43.9977 15.5452C44.1622 15.4292 44.3333 15.3712 44.5111 15.3712C44.5955 15.3712 44.6666 15.3756 44.7244 15.3846C44.7822 15.3935 44.8355 15.4113 44.8844 15.4381L44.7311 16.0943C44.6777 16.0809 44.6289 16.072 44.5844 16.0675C44.54 16.0586 44.4822 16.0541 44.4111 16.0541C44.2822 16.0541 44.1466 16.1054 44.0044 16.2081C43.8622 16.3063 43.74 16.4804 43.6377 16.7303V18.739H42.8711Z" fill="#212121"/>
<path d="M44.9514 19.6295V19.1675H48.1247V19.6295H44.9514Z" fill="#212121"/>
<path d="M48.7581 18.739V14.3602H50.1314C50.4558 14.3602 50.7447 14.4026 50.9981 14.4874C51.2514 14.5722 51.4514 14.7128 51.5981 14.9092C51.7447 15.1056 51.8181 15.3734 51.8181 15.7126C51.8181 16.034 51.7447 16.2996 51.5981 16.5094C51.4558 16.7192 51.2581 16.8754 51.0047 16.9781C50.7558 17.0807 50.4736 17.1321 50.1581 17.1321H49.5314V18.739H48.7581ZM49.5314 16.5094H50.0981C50.4225 16.5094 50.6625 16.4424 50.8181 16.3085C50.9781 16.1746 51.0581 15.976 51.0581 15.7126C51.0581 15.4359 50.9736 15.2462 50.8047 15.1435C50.6403 15.0364 50.3958 14.9828 50.0714 14.9828H49.5314V16.5094Z" fill="#212121"/>
<path d="M52.5716 18.739V15.4515H53.2049L53.2583 16.034H53.2849C53.4005 15.8198 53.5383 15.6568 53.6983 15.5452C53.8627 15.4292 54.0338 15.3712 54.2116 15.3712C54.296 15.3712 54.3672 15.3756 54.4249 15.3846C54.4827 15.3935 54.536 15.4113 54.5849 15.4381L54.4316 16.0943C54.3783 16.0809 54.3294 16.072 54.2849 16.0675C54.2405 16.0586 54.1827 16.0541 54.1116 16.0541C53.9827 16.0541 53.8472 16.1054 53.7049 16.2081C53.5627 16.3063 53.4405 16.4804 53.3383 16.7303V18.739H52.5716Z" fill="#212121"/>
<path d="M56.3335 18.8193C56.0624 18.8193 55.809 18.7524 55.5735 18.6185C55.3379 18.4801 55.1468 18.2837 55.0001 18.0293C54.8535 17.7704 54.7801 17.4602 54.7801 17.0986C54.7801 16.7326 54.8535 16.4224 55.0001 16.1679C55.1468 15.909 55.3379 15.7126 55.5735 15.5787C55.809 15.4404 56.0624 15.3712 56.3335 15.3712C56.609 15.3712 56.8646 15.4404 57.1001 15.5787C57.3357 15.7126 57.5268 15.909 57.6735 16.1679C57.8201 16.4224 57.8935 16.7326 57.8935 17.0986C57.8935 17.4602 57.8201 17.7704 57.6735 18.0293C57.5268 18.2837 57.3357 18.4801 57.1001 18.6185C56.8646 18.7524 56.609 18.8193 56.3335 18.8193ZM56.3335 18.19C56.4935 18.19 56.6313 18.1453 56.7468 18.056C56.8624 17.9668 56.9513 17.8396 57.0135 17.6744C57.0757 17.5093 57.1068 17.3173 57.1068 17.0986C57.1068 16.8799 57.0757 16.6879 57.0135 16.5228C56.9513 16.3576 56.8624 16.2304 56.7468 16.1411C56.6313 16.0474 56.4935 16.0005 56.3335 16.0005C56.1735 16.0005 56.0357 16.0474 55.9201 16.1411C55.809 16.2304 55.7224 16.3576 55.6601 16.5228C55.5979 16.6879 55.5668 16.8799 55.5668 17.0986C55.5668 17.3173 55.5979 17.5093 55.6601 17.6744C55.7224 17.8396 55.809 17.9668 55.9201 18.056C56.0357 18.1453 56.1735 18.19 56.3335 18.19Z" fill="#212121"/>
<path d="M58.7596 18.739V15.11C58.7596 14.8824 58.7952 14.6793 58.8663 14.5008C58.9418 14.3222 59.0596 14.1838 59.2196 14.0856C59.3796 13.983 59.5885 13.9316 59.8463 13.9316C59.9663 13.9316 60.0774 13.9428 60.1796 13.9651C60.2863 13.9874 60.3752 14.0142 60.4463 14.0455L60.2863 14.6012C60.1707 14.561 60.0552 14.5409 59.9396 14.5409C59.8063 14.5409 59.7041 14.5856 59.633 14.6748C59.5618 14.7641 59.5263 14.9047 59.5263 15.0967V18.739H58.7596ZM58.273 16.0608V15.485L58.8063 15.4515H60.1663V16.0608H58.273Z" fill="#212121"/>
<path d="M60.7422 18.739V15.4515H61.5088V18.739H60.7422ZM61.1222 14.8757C60.9888 14.8757 60.8777 14.8355 60.7888 14.7552C60.7044 14.6748 60.6622 14.5677 60.6622 14.4338C60.6622 14.2999 60.7044 14.195 60.7888 14.1191C60.8777 14.0388 60.9888 13.9986 61.1222 13.9986C61.26 13.9986 61.3711 14.0388 61.4555 14.1191C61.54 14.195 61.5822 14.2999 61.5822 14.4338C61.5822 14.5677 61.54 14.6748 61.4555 14.7552C61.3711 14.8355 61.26 14.8757 61.1222 14.8757Z" fill="#212121"/>
<path d="M63.2336 18.8059C63.0514 18.8059 62.9047 18.7702 62.7936 18.6988C62.687 18.6229 62.6092 18.5158 62.5603 18.3774C62.5114 18.2391 62.487 18.0739 62.487 17.882V14.012H63.2536V17.9221C63.2536 18.0203 63.2714 18.0873 63.307 18.123C63.3425 18.1587 63.3825 18.1766 63.427 18.1766C63.4447 18.1766 63.4603 18.1766 63.4736 18.1766C63.4914 18.1721 63.5136 18.1676 63.5403 18.1632L63.6403 18.739C63.5959 18.7568 63.5381 18.7725 63.467 18.7859C63.4003 18.7992 63.3225 18.8059 63.2336 18.8059Z" fill="#212121"/>
<path d="M65.7035 18.8193C65.3969 18.8193 65.1191 18.7524 64.8702 18.6185C64.6258 18.4801 64.4324 18.2837 64.2902 18.0293C64.148 17.7704 64.0769 17.4579 64.0769 17.0919C64.0769 16.7348 64.1502 16.429 64.2969 16.1746C64.4435 15.9157 64.6324 15.7171 64.8635 15.5787C65.0946 15.4404 65.3391 15.3712 65.5969 15.3712C65.8946 15.3712 66.1435 15.4381 66.3435 15.572C66.5435 15.7059 66.6924 15.8912 66.7902 16.1278C66.8924 16.3599 66.9435 16.6277 66.9435 16.9312C66.9435 17.0026 66.9391 17.0718 66.9302 17.1388C66.9258 17.2057 66.9169 17.2704 66.9035 17.3329H64.6502V16.7437H66.2635C66.2635 16.5072 66.2102 16.3219 66.1035 16.188C65.9969 16.0496 65.8324 15.9805 65.6102 15.9805C65.4858 15.9805 65.3635 16.0139 65.2435 16.0809C65.128 16.1478 65.0302 16.2617 64.9502 16.4224C64.8746 16.583 64.8369 16.8062 64.8369 17.0919C64.8369 17.3508 64.8813 17.5628 64.9702 17.728C65.0591 17.8887 65.1769 18.0092 65.3235 18.0895C65.4702 18.1654 65.628 18.2033 65.7969 18.2033C65.9391 18.2033 66.0724 18.1833 66.1969 18.1431C66.3258 18.1029 66.4458 18.0471 66.5569 17.9757L66.8235 18.4712C66.6724 18.5783 66.4991 18.6631 66.3035 18.7256C66.1124 18.7881 65.9124 18.8193 65.7035 18.8193Z" fill="#212121"/>
<path d="M2.3335 32.1294H121.667V115.153H2.3335V32.1294Z" fill="#FFECF7"/>
<g opacity="0.5">
<path d="M8.6665 42.1729C8.6665 40.324 10.1589 38.8252 11.9998 38.8252H112C113.841 38.8252 115.333 40.324 115.333 42.1729V58.242C115.333 60.0909 113.841 61.5898 112 61.5898H11.9998C10.1589 61.5898 8.6665 60.0909 8.6665 58.242V42.1729Z" fill="white"/>
<path d="M8.6665 89.0411C8.6665 87.1922 10.1589 85.6934 11.9998 85.6934H80.9998C82.8408 85.6934 84.3332 87.1922 84.3332 89.0411V105.11C84.3332 106.959 82.8408 108.458 80.9998 108.458H11.9998C10.1589 108.458 8.6665 106.959 8.6665 105.11V89.0411Z" fill="white"/>
<path d="M86.667 89.0411C86.667 87.1922 88.1594 85.6934 90.0003 85.6934H112C113.841 85.6934 115.334 87.1922 115.334 89.0411V105.11C115.334 106.959 113.841 108.458 112 108.458H90.0003C88.1594 108.458 86.667 106.959 86.667 105.11V89.0411Z" fill="white"/>
<path d="M8.6665 68.4526C8.6665 66.5113 10.2335 64.9375 12.1665 64.9375H47.4998C49.4328 64.9375 50.9998 66.5113 50.9998 68.4526C50.9998 70.394 49.4328 71.9677 47.4998 71.9677H12.1665C10.2335 71.9677 8.6665 70.394 8.6665 68.4526Z" fill="white"/>
<path d="M54.3335 68.4526C54.3335 66.5113 55.9005 64.9375 57.8335 64.9375H111.833C113.766 64.9375 115.333 66.5113 115.333 68.4526C115.333 70.394 113.766 71.9677 111.833 71.9677H57.8335C55.9005 71.9677 54.3335 70.394 54.3335 68.4526Z" fill="white"/>
<path d="M8.6665 78.8301C8.6665 76.8887 10.2335 75.3149 12.1665 75.3149H30.8332C32.7662 75.3149 34.3332 76.8887 34.3332 78.8301C34.3332 80.7714 32.7662 82.3452 30.8332 82.3452H12.1665C10.2335 82.3452 8.6665 80.7714 8.6665 78.8301Z" fill="white"/>
<path d="M36.3335 78.8301C36.3335 76.8887 37.9005 75.3149 39.8335 75.3149H69.8335C71.7665 75.3149 73.3335 76.8887 73.3335 78.8301C73.3335 80.7714 71.7665 82.3452 69.8335 82.3452H39.8335C37.9005 82.3452 36.3335 80.7714 36.3335 78.8301Z" fill="white"/>
<path d="M75.3335 78.8301C75.3335 76.8887 76.9005 75.3149 78.8335 75.3149H111.833C113.766 75.3149 115.333 76.8887 115.333 78.8301C115.333 80.7714 113.766 82.3452 111.833 82.3452H78.8335C76.9005 82.3452 75.3335 80.7714 75.3335 78.8301Z" fill="white"/>
</g>
<path d="M13.287 126.202C13.225 126.202 13.1698 126.18 13.1215 126.129L10.5219 123.388C9.8254 122.654 9.8254 121.461 10.5219 120.727C11.2183 119.993 12.3492 119.993 13.0457 120.727L13.287 120.982L13.5284 120.727C14.2248 119.993 15.3557 119.993 16.0522 120.727C16.3901 121.083 16.5763 121.556 16.5763 122.058C16.5763 122.559 16.3901 123.032 16.0522 123.388L13.4525 126.129C13.4042 126.18 13.3422 126.202 13.287 126.202ZM11.7838 120.669C11.4321 120.669 11.1011 120.814 10.8528 121.076C10.6046 121.338 10.4667 121.687 10.4667 122.058C10.4667 122.428 10.6046 122.778 10.8528 123.039L13.287 125.606L15.7212 123.039C16.2384 122.494 16.2384 121.614 15.7212 121.076C15.204 120.531 14.3696 120.531 13.8594 121.076L13.4525 121.505C13.3629 121.6 13.2181 121.6 13.1215 121.505L12.7147 121.076C12.4664 120.814 12.1354 120.669 11.7838 120.669Z" fill="black"/>
<path d="M25.9306 126.193C25.91 126.193 25.8893 126.193 25.8687 126.186L24.6164 125.82C24.176 126.069 23.6737 126.2 23.1646 126.2C21.5063 126.2 20.1646 124.846 20.1646 123.187C20.1646 121.522 21.5132 120.174 23.1646 120.174C24.8159 120.174 26.1645 121.529 26.1645 123.187C26.1645 123.699 26.0338 124.203 25.7861 124.645L26.1508 125.903C26.1714 125.986 26.1508 126.076 26.0889 126.131C26.0545 126.173 25.9925 126.193 25.9306 126.193ZM23.1646 120.63C21.7678 120.63 20.6256 121.771 20.6256 123.18C20.6256 124.583 21.7609 125.73 23.1646 125.73C23.6256 125.73 24.0728 125.606 24.4719 125.371C24.5269 125.336 24.5957 125.33 24.6577 125.35L25.6003 125.627L25.3251 124.68C25.3045 124.618 25.3182 124.549 25.3457 124.493C25.5797 124.099 25.7035 123.643 25.7035 123.18C25.7035 121.778 24.5613 120.63 23.1646 120.63Z" fill="black"/>
<path d="M36.7576 120.608C36.7576 120.601 36.7646 120.601 36.7646 120.594C36.7646 120.586 36.7716 120.579 36.7716 120.571C36.7716 120.564 36.7785 120.557 36.7785 120.549C36.7785 120.542 36.7785 120.535 36.7855 120.527C36.7855 120.52 36.7855 120.513 36.7925 120.505C36.7925 120.498 36.7925 120.491 36.7925 120.483C36.7925 120.476 36.7925 120.468 36.7925 120.461C36.7925 120.454 36.7925 120.446 36.7925 120.439C36.7925 120.432 36.7925 120.424 36.7925 120.417C36.7925 120.417 36.7925 120.417 36.7925 120.41C36.7925 120.402 36.7925 120.402 36.7855 120.395C36.7855 120.388 36.7785 120.38 36.7785 120.373C36.7785 120.366 36.7716 120.358 36.7716 120.358C36.7716 120.351 36.7646 120.343 36.7646 120.336C36.7576 120.329 36.7576 120.321 36.7507 120.321C36.7507 120.314 36.7437 120.314 36.7437 120.307C36.7367 120.299 36.7367 120.299 36.7297 120.292C36.7228 120.285 36.7228 120.285 36.7158 120.277C36.7088 120.27 36.7088 120.27 36.7019 120.263C36.6949 120.255 36.6879 120.255 36.6809 120.248C36.674 120.248 36.674 120.241 36.667 120.241C36.66 120.241 36.6531 120.233 36.6461 120.233C36.6391 120.233 36.6322 120.233 36.6322 120.226C36.6252 120.226 36.6182 120.218 36.6112 120.218C36.6043 120.218 36.5973 120.218 36.5973 120.218C36.5903 120.218 36.5834 120.218 36.5764 120.218C36.5764 120.218 36.5764 120.218 36.5694 120.218L30.0306 120.174C29.933 120.174 29.8423 120.241 29.8075 120.336C29.7726 120.432 29.8005 120.542 29.8702 120.608L32.1498 122.756L32.3728 125.977C32.3798 126.08 32.4425 126.161 32.5332 126.19H32.5401C32.6308 126.22 32.7353 126.183 32.7911 126.102L36.7437 120.616C36.7437 120.616 36.7437 120.616 36.7437 120.608C36.7507 120.623 36.7507 120.616 36.7576 120.608ZM35.5586 120.726L32.4077 122.359L30.637 120.689L35.5586 120.726ZM32.7911 125.3L32.6168 122.8L35.7677 121.167L32.7911 125.3Z" fill="black"/>
<path d="M113.537 126.2C113.481 126.2 113.43 126.181 113.386 126.137L111.105 123.826L108.823 126.137C108.76 126.2 108.672 126.219 108.591 126.181C108.509 126.149 108.459 126.068 108.459 125.986V120.388C108.459 120.269 108.553 120.174 108.672 120.174H113.531C113.65 120.174 113.744 120.269 113.744 120.388V125.986C113.744 126.074 113.694 126.149 113.612 126.181C113.593 126.193 113.562 126.2 113.537 126.2ZM111.105 123.31C111.161 123.31 111.217 123.335 111.255 123.373L113.324 125.469V120.596H108.885V125.469L110.954 123.373C110.998 123.335 111.048 123.31 111.105 123.31Z" fill="black"/>
<path d="M10.8961 142.94V141.801L9.98145 139.875H10.5601L10.8914 140.658C10.935 140.773 10.9786 140.886 11.0221 140.995C11.0657 141.102 11.1123 141.214 11.1621 141.333H11.1808C11.2306 141.214 11.2788 141.102 11.3254 140.995C11.3721 140.886 11.4172 140.773 11.4608 140.658L11.7921 139.875H12.3568L11.4374 141.801V142.94H10.8961Z" fill="#666666"/>
<path d="M13.3934 142.997C13.2036 142.997 13.0263 142.95 12.8614 142.856C12.6965 142.759 12.5627 142.622 12.46 142.444C12.3574 142.262 12.306 142.045 12.306 141.792C12.306 141.536 12.3574 141.319 12.46 141.141C12.5627 140.959 12.6965 140.822 12.8614 140.728C13.0263 140.631 13.2036 140.583 13.3934 140.583C13.5863 140.583 13.7651 140.631 13.93 140.728C14.0949 140.822 14.2287 140.959 14.3314 141.141C14.434 141.319 14.4854 141.536 14.4854 141.792C14.4854 142.045 14.434 142.262 14.3314 142.444C14.2287 142.622 14.0949 142.759 13.93 142.856C13.7651 142.95 13.5863 142.997 13.3934 142.997ZM13.3934 142.556C13.5054 142.556 13.6018 142.525 13.6827 142.462C13.7636 142.4 13.8258 142.311 13.8694 142.195C13.9129 142.08 13.9347 141.945 13.9347 141.792C13.9347 141.639 13.9129 141.505 13.8694 141.389C13.8258 141.273 13.7636 141.184 13.6827 141.122C13.6018 141.056 13.5054 141.023 13.3934 141.023C13.2814 141.023 13.1849 141.056 13.104 141.122C13.0263 141.184 12.9656 141.273 12.922 141.389C12.8785 141.505 12.8567 141.639 12.8567 141.792C12.8567 141.945 12.8785 142.08 12.922 142.195C12.9656 142.311 13.0263 142.4 13.104 142.462C13.1849 142.525 13.2814 142.556 13.3934 142.556Z" fill="#666666"/>
<path d="M15.6979 142.997C15.4521 142.997 15.2732 142.917 15.1612 142.758C15.0492 142.598 14.9932 142.373 14.9932 142.083V140.639H15.5299V142.012C15.5299 142.203 15.5579 142.337 15.6139 142.415C15.6699 142.494 15.7601 142.533 15.8846 142.533C15.9841 142.533 16.0712 142.508 16.1459 142.458C16.2237 142.408 16.3061 142.326 16.3932 142.214V140.639H16.9299V142.94H16.4912L16.4492 142.603H16.4352C16.3357 142.722 16.2268 142.817 16.1086 142.889C15.9903 142.961 15.8534 142.997 15.6979 142.997Z" fill="#666666"/>
<path d="M17.6097 142.94V140.639H18.053L18.0903 141.047H18.109C18.1899 140.897 18.2863 140.783 18.3983 140.705C18.5134 140.623 18.6332 140.583 18.7577 140.583C18.8168 140.583 18.8665 140.586 18.907 140.592C18.9474 140.598 18.9848 140.611 19.019 140.63L18.9117 141.089C18.8743 141.08 18.8401 141.073 18.809 141.07C18.7779 141.064 18.7374 141.061 18.6877 141.061C18.5974 141.061 18.5025 141.097 18.403 141.169C18.3034 141.237 18.2179 141.359 18.1463 141.534V142.94H17.6097Z" fill="#666666"/>
<path d="M19.0659 143.564V143.24H21.2872V143.564H19.0659Z" fill="#666666"/>
<path d="M21.7305 142.94V139.875H22.6919C22.919 139.875 23.1212 139.905 23.2985 139.964C23.4759 140.024 23.6159 140.122 23.7185 140.259C23.8212 140.397 23.8725 140.584 23.8725 140.822C23.8725 141.047 23.8212 141.233 23.7185 141.38C23.619 141.526 23.4805 141.636 23.3032 141.708C23.129 141.78 22.9314 141.815 22.7105 141.815H22.2719V142.94H21.7305ZM22.2719 141.38H22.6685C22.8957 141.38 23.0637 141.333 23.1725 141.239C23.2845 141.145 23.3405 141.006 23.3405 140.822C23.3405 140.628 23.2814 140.495 23.1632 140.424C23.0481 140.349 22.877 140.311 22.6499 140.311H22.2719V141.38Z" fill="#666666"/>
<path d="M24.4 142.94V140.639H24.8434L24.8807 141.047H24.8994C24.9802 140.897 25.0767 140.783 25.1887 140.705C25.3038 140.623 25.4236 140.583 25.548 140.583C25.6071 140.583 25.6569 140.586 25.6974 140.592C25.7378 140.598 25.7751 140.611 25.8094 140.63L25.702 141.089C25.6647 141.08 25.6305 141.073 25.5994 141.07C25.5682 141.064 25.5278 141.061 25.478 141.061C25.3878 141.061 25.2929 141.097 25.1934 141.169C25.0938 141.237 25.0082 141.359 24.9367 141.534V142.94H24.4Z" fill="#666666"/>
<path d="M27.0333 142.997C26.8436 142.997 26.6662 142.95 26.5013 142.856C26.3364 142.759 26.2027 142.622 26.1 142.444C25.9973 142.262 25.946 142.045 25.946 141.792C25.946 141.536 25.9973 141.319 26.1 141.141C26.2027 140.959 26.3364 140.822 26.5013 140.728C26.6662 140.631 26.8436 140.583 27.0333 140.583C27.2262 140.583 27.4051 140.631 27.57 140.728C27.7349 140.822 27.8687 140.959 27.9713 141.141C28.074 141.319 28.1253 141.536 28.1253 141.792C28.1253 142.045 28.074 142.262 27.9713 142.444C27.8687 142.622 27.7349 142.759 27.57 142.856C27.4051 142.95 27.2262 142.997 27.0333 142.997ZM27.0333 142.556C27.1453 142.556 27.2418 142.525 27.3227 142.462C27.4036 142.4 27.4658 142.311 27.5093 142.195C27.5529 142.08 27.5747 141.945 27.5747 141.792C27.5747 141.639 27.5529 141.505 27.5093 141.389C27.4658 141.273 27.4036 141.184 27.3227 141.122C27.2418 141.056 27.1453 141.023 27.0333 141.023C26.9213 141.023 26.8249 141.056 26.744 141.122C26.6662 141.184 26.6056 141.273 26.562 141.389C26.5184 141.505 26.4967 141.639 26.4967 141.792C26.4967 141.945 26.5184 142.08 26.562 142.195C26.6056 142.311 26.6662 142.4 26.744 142.462C26.8249 142.525 26.9213 142.556 27.0333 142.556Z" fill="#666666"/>
<path d="M28.7316 142.94V140.4C28.7316 140.241 28.7565 140.099 28.8063 139.974C28.8592 139.849 28.9416 139.752 29.0536 139.683C29.1656 139.611 29.3119 139.575 29.4923 139.575C29.5763 139.575 29.6541 139.583 29.7256 139.599C29.8003 139.614 29.8625 139.633 29.9123 139.655L29.8003 140.044C29.7194 140.016 29.6385 140.002 29.5576 140.002C29.4643 140.002 29.3928 140.033 29.343 140.095C29.2932 140.158 29.2683 140.256 29.2683 140.391V142.94H28.7316ZM28.391 141.066V140.663L28.7643 140.639H29.7163V141.066H28.391Z" fill="#666666"/>
<path d="M30.1194 142.94V140.639H30.6561V142.94H30.1194ZM30.3854 140.236C30.2921 140.236 30.2143 140.208 30.1521 140.152C30.093 140.095 30.0634 140.02 30.0634 139.927C30.0634 139.833 30.093 139.76 30.1521 139.706C30.2143 139.65 30.2921 139.622 30.3854 139.622C30.4819 139.622 30.5596 139.65 30.6188 139.706C30.6779 139.76 30.7074 139.833 30.7074 139.927C30.7074 140.02 30.6779 140.095 30.6188 140.152C30.5596 140.208 30.4819 140.236 30.3854 140.236Z" fill="#666666"/>
<path d="M31.8634 142.987C31.7359 142.987 31.6332 142.962 31.5554 142.912C31.4808 142.859 31.4263 142.784 31.3921 142.687C31.3579 142.59 31.3408 142.475 31.3408 142.34V139.631H31.8774V142.369C31.8774 142.437 31.8899 142.484 31.9148 142.509C31.9397 142.534 31.9677 142.547 31.9988 142.547C32.0112 142.547 32.0221 142.547 32.0314 142.547C32.0439 142.544 32.0594 142.54 32.0781 142.537L32.1481 142.94C32.117 142.953 32.0766 142.964 32.0268 142.973C31.9801 142.983 31.9257 142.987 31.8634 142.987Z" fill="#666666"/>
<path d="M33.5924 142.997C33.3777 142.997 33.1833 142.95 33.009 142.856C32.8379 142.759 32.7026 142.622 32.603 142.444C32.5035 142.262 32.4537 142.044 32.4537 141.787C32.4537 141.537 32.505 141.323 32.6077 141.145C32.7104 140.964 32.8426 140.825 33.0044 140.728C33.1662 140.631 33.3373 140.583 33.5177 140.583C33.7262 140.583 33.9004 140.63 34.0404 140.723C34.1804 140.817 34.2846 140.947 34.353 141.112C34.4246 141.275 34.4604 141.462 34.4604 141.675C34.4604 141.725 34.4573 141.773 34.451 141.82C34.4479 141.867 34.4417 141.912 34.4324 141.956H32.855V141.544H33.9844C33.9844 141.378 33.947 141.248 33.8724 141.155C33.7977 141.058 33.6826 141.009 33.527 141.009C33.4399 141.009 33.3544 141.033 33.2704 141.08C33.1895 141.127 33.121 141.206 33.065 141.319C33.0122 141.431 32.9857 141.587 32.9857 141.787C32.9857 141.969 33.0168 142.117 33.079 142.233C33.1413 142.345 33.2237 142.429 33.3264 142.486C33.429 142.539 33.5395 142.565 33.6577 142.565C33.7573 142.565 33.8506 142.551 33.9377 142.523C34.0279 142.495 34.1119 142.456 34.1897 142.406L34.3764 142.753C34.2706 142.828 34.1493 142.887 34.0124 142.931C33.8786 142.975 33.7386 142.997 33.5924 142.997Z" fill="#666666"/>
<path d="M36.9208 142.94V139.866H37.7934C38.0237 139.866 38.2243 139.895 38.3954 139.955C38.5665 140.011 38.7003 140.105 38.7968 140.236C38.8932 140.367 38.9414 140.545 38.9414 140.77C38.9414 140.986 38.8932 141.164 38.7968 141.305C38.7034 141.442 38.5712 141.547 38.4001 141.619C38.2321 141.687 38.0361 141.722 37.8121 141.722H37.3081V142.94H36.9208ZM37.3081 141.403H37.7654C38.033 141.403 38.2305 141.352 38.3581 141.248C38.4888 141.145 38.5541 140.986 38.5541 140.77C38.5541 140.548 38.4857 140.395 38.3488 140.311C38.215 140.224 38.0143 140.18 37.7468 140.18H37.3081V141.403Z" fill="#666666"/>
<path d="M40.1893 142.997C39.9498 142.997 39.774 142.922 39.662 142.772C39.5531 142.619 39.4987 142.397 39.4987 142.106V140.663H39.8813V142.055C39.8813 142.267 39.914 142.422 39.9793 142.519C40.0478 142.612 40.1567 142.659 40.306 142.659C40.4211 142.659 40.5238 142.629 40.614 142.57C40.7073 142.508 40.8084 142.411 40.9173 142.279V140.663H41.3V142.94H40.9827L40.95 142.584H40.936C40.8333 142.709 40.7213 142.809 40.6 142.884C40.4818 142.959 40.3449 142.997 40.1893 142.997Z" fill="#666666"/>
<path d="M43.0684 142.997C42.9626 142.997 42.8537 142.972 42.7417 142.922C42.6297 142.868 42.5224 142.797 42.4197 142.706H42.4057L42.3731 142.94H42.0651V139.603H42.4477V140.513L42.4384 140.925C42.5411 140.834 42.6531 140.759 42.7744 140.7C42.8989 140.638 43.0233 140.606 43.1477 140.606C43.3437 140.606 43.5086 140.655 43.6424 140.752C43.7762 140.845 43.8773 140.98 43.9457 141.155C44.0142 141.327 44.0484 141.53 44.0484 141.764C44.0484 142.023 44.0017 142.245 43.9084 142.429C43.8182 142.614 43.6984 142.754 43.5491 142.851C43.3997 142.948 43.2395 142.997 43.0684 142.997ZM43.0031 142.673C43.1275 142.673 43.238 142.637 43.3344 142.565C43.434 142.494 43.5117 142.39 43.5677 142.256C43.6237 142.119 43.6517 141.956 43.6517 141.769C43.6517 141.603 43.6315 141.458 43.5911 141.333C43.5506 141.205 43.4869 141.106 43.3997 141.037C43.3126 140.966 43.1975 140.93 43.0544 140.93C42.9611 140.93 42.8631 140.956 42.7604 141.009C42.6609 141.059 42.5566 141.136 42.4477 141.239V142.434C42.5473 142.522 42.6453 142.584 42.7417 142.622C42.8413 142.656 42.9284 142.673 43.0031 142.673Z" fill="#666666"/>
<path d="M45.0505 142.983C44.9541 142.983 44.8763 142.964 44.8172 142.926C44.7581 142.886 44.7145 142.828 44.6865 142.753C44.6585 142.675 44.6445 142.581 44.6445 142.472V139.603H45.0272V142.5C45.0272 142.562 45.0381 142.606 45.0598 142.631C45.0816 142.653 45.1081 142.664 45.1392 142.664C45.1516 142.664 45.1625 142.664 45.1718 142.664C45.1843 142.661 45.1998 142.658 45.2185 142.654L45.2745 142.945C45.2465 142.954 45.2138 142.962 45.1765 142.968C45.1423 142.978 45.1003 142.983 45.0505 142.983Z" fill="#666666"/>
<path d="M45.834 142.94V140.663H46.2166V142.94H45.834ZM46.0253 140.194C45.9506 140.194 45.8884 140.17 45.8386 140.124C45.792 140.077 45.7686 140.016 45.7686 139.941C45.7686 139.866 45.792 139.805 45.8386 139.758C45.8884 139.711 45.9506 139.688 46.0253 139.688C46.1 139.688 46.1606 139.711 46.2073 139.758C46.2571 139.805 46.282 139.866 46.282 139.941C46.282 140.016 46.2571 140.077 46.2073 140.124C46.1606 140.17 46.1 140.194 46.0253 140.194Z" fill="#666666"/>
<path d="M47.5751 142.997C47.4102 142.997 47.2531 142.968 47.1037 142.912C46.9575 142.853 46.8331 142.772 46.7304 142.668L46.9077 142.444C47.0073 142.525 47.1099 142.587 47.2157 142.631C47.3246 142.675 47.4491 142.697 47.5891 142.697C47.7384 142.697 47.8504 142.662 47.9251 142.594C47.9997 142.522 48.0371 142.437 48.0371 142.34C48.0371 142.262 48.0106 142.198 47.9577 142.148C47.9079 142.095 47.8442 142.051 47.7664 142.017C47.6917 141.98 47.6108 141.945 47.5237 141.914C47.4117 141.873 47.3044 141.826 47.2017 141.773C47.0991 141.717 47.0151 141.648 46.9497 141.567C46.8875 141.483 46.8564 141.378 46.8564 141.253C46.8564 141.069 46.9248 140.916 47.0617 140.794C47.2017 140.669 47.3946 140.606 47.6404 140.606C47.7804 140.606 47.9111 140.631 48.0324 140.681C48.1537 140.728 48.2579 140.789 48.3451 140.864L48.1677 141.084C48.0868 141.028 48.0044 140.984 47.9204 140.953C47.8364 140.922 47.7431 140.906 47.6404 140.906C47.4973 140.906 47.3915 140.939 47.3231 141.005C47.2577 141.07 47.2251 141.147 47.2251 141.234C47.2251 141.303 47.2453 141.361 47.2857 141.408C47.3262 141.451 47.3822 141.491 47.4537 141.525C47.5284 141.559 47.6124 141.592 47.7057 141.623C47.8239 141.667 47.936 141.717 48.0417 141.773C48.1506 141.826 48.2377 141.897 48.3031 141.984C48.3715 142.069 48.4057 142.18 48.4057 142.317C48.4057 142.442 48.3731 142.556 48.3077 142.659C48.2455 142.759 48.1522 142.84 48.0277 142.903C47.9064 142.965 47.7555 142.997 47.5751 142.997Z" fill="#666666"/>
<path d="M48.9375 142.94V139.603H49.3201V140.513L49.3061 140.981C49.415 140.878 49.5286 140.791 49.6468 140.719C49.7681 140.644 49.9066 140.606 50.0621 140.606C50.3017 140.606 50.4759 140.683 50.5848 140.836C50.6968 140.986 50.7528 141.206 50.7528 141.497V142.94H50.3701V141.548C50.3701 141.333 50.3359 141.178 50.2675 141.084C50.2021 140.987 50.0932 140.939 49.9408 140.939C49.8257 140.939 49.7215 140.969 49.6281 141.028C49.5379 141.087 49.4352 141.175 49.3201 141.291V142.94H48.9375Z" fill="#666666"/>
<path d="M52.9421 142.94V141.75L52.0228 139.866H52.4381L52.8348 140.733C52.8815 140.845 52.9281 140.956 52.9748 141.066C53.0246 141.175 53.0759 141.287 53.1288 141.403H53.1475C53.2035 141.287 53.2563 141.175 53.3061 141.066C53.359 140.956 53.4088 140.845 53.4555 140.733L53.8475 139.866H54.2535L53.3295 141.75V142.94H52.9421Z" fill="#666666"/>
<path d="M55.3201 142.997C55.1366 142.997 54.9639 142.95 54.8021 142.856C54.6435 142.762 54.5143 142.626 54.4148 142.448C54.3183 142.27 54.2701 142.056 54.2701 141.806C54.2701 141.55 54.3183 141.333 54.4148 141.155C54.5143 140.977 54.6435 140.841 54.8021 140.747C54.9639 140.653 55.1366 140.606 55.3201 140.606C55.5068 140.606 55.6795 140.653 55.8381 140.747C55.9968 140.841 56.1243 140.977 56.2208 141.155C56.3203 141.333 56.3701 141.55 56.3701 141.806C56.3701 142.056 56.3203 142.27 56.2208 142.448C56.1243 142.626 55.9968 142.762 55.8381 142.856C55.6795 142.95 55.5068 142.997 55.3201 142.997ZM55.3201 142.678C55.4508 142.678 55.5659 142.642 55.6655 142.57C55.765 142.495 55.8412 142.392 55.8941 142.261C55.947 142.13 55.9735 141.978 55.9735 141.806C55.9735 141.631 55.947 141.478 55.8941 141.347C55.8412 141.212 55.765 141.109 55.6655 141.037C55.5659 140.962 55.4508 140.925 55.3201 140.925C55.1895 140.925 55.0743 140.962 54.9748 141.037C54.8783 141.109 54.8021 141.212 54.7461 141.347C54.6932 141.478 54.6668 141.631 54.6668 141.806C54.6668 141.978 54.6932 142.13 54.7461 142.261C54.8021 142.392 54.8783 142.495 54.9748 142.57C55.0743 142.642 55.1895 142.678 55.3201 142.678Z" fill="#666666"/>
<path d="M57.6301 142.997C57.3905 142.997 57.2148 142.922 57.1028 142.772C56.9939 142.619 56.9394 142.397 56.9394 142.106V140.663H57.3221V142.055C57.3221 142.267 57.3548 142.422 57.4201 142.519C57.4885 142.612 57.5974 142.659 57.7468 142.659C57.8619 142.659 57.9645 142.629 58.0548 142.57C58.1481 142.508 58.2492 142.411 58.3581 142.279V140.663H58.7408V142.94H58.4234L58.3908 142.584H58.3768C58.2741 142.709 58.1621 142.809 58.0408 142.884C57.9225 142.959 57.7856 142.997 57.6301 142.997Z" fill="#666666"/>
<path d="M59.5058 142.94V140.663H59.8232L59.8558 141.075H59.8698C59.9445 140.931 60.0378 140.817 60.1498 140.733C60.2618 140.648 60.3832 140.606 60.5138 140.606C60.5636 140.606 60.6072 140.609 60.6445 140.616C60.6818 140.622 60.7192 140.634 60.7565 140.653L60.6725 140.981C60.6383 140.972 60.6056 140.966 60.5745 140.962C60.5465 140.956 60.5092 140.953 60.4625 140.953C60.3661 140.953 60.2649 140.992 60.1592 141.07C60.0565 141.148 59.9663 141.284 59.8885 141.478V142.94H59.5058Z" fill="#666666"/>
<path d="M62.0952 142.94V139.866H62.9679C63.1981 139.866 63.3988 139.895 63.5699 139.955C63.741 140.011 63.8748 140.105 63.9712 140.236C64.0677 140.367 64.1159 140.545 64.1159 140.77C64.1159 140.986 64.0677 141.164 63.9712 141.305C63.8779 141.442 63.7457 141.547 63.5746 141.619C63.4066 141.687 63.2106 141.722 62.9866 141.722H62.4826V142.94H62.0952ZM62.4826 141.403H62.9399C63.2075 141.403 63.405 141.352 63.5326 141.248C63.6632 141.145 63.7286 140.986 63.7286 140.77C63.7286 140.548 63.6601 140.395 63.5233 140.311C63.3895 140.224 63.1888 140.18 62.9212 140.18H62.4826V141.403Z" fill="#666666"/>
<path d="M65.4692 142.997C65.2857 142.997 65.113 142.95 64.9512 142.856C64.7925 142.762 64.6634 142.626 64.5639 142.448C64.4674 142.27 64.4192 142.056 64.4192 141.806C64.4192 141.55 64.4674 141.333 64.5639 141.155C64.6634 140.977 64.7925 140.841 64.9512 140.747C65.113 140.653 65.2857 140.606 65.4692 140.606C65.6559 140.606 65.8285 140.653 65.9872 140.747C66.1459 140.841 66.2734 140.977 66.3699 141.155C66.4694 141.333 66.5192 141.55 66.5192 141.806C66.5192 142.056 66.4694 142.27 66.3699 142.448C66.2734 142.626 66.1459 142.762 65.9872 142.856C65.8285 142.95 65.6559 142.997 65.4692 142.997ZM65.4692 142.678C65.5999 142.678 65.715 142.642 65.8145 142.57C65.9141 142.495 65.9903 142.392 66.0432 142.261C66.0961 142.13 66.1225 141.978 66.1225 141.806C66.1225 141.631 66.0961 141.478 66.0432 141.347C65.9903 141.212 65.9141 141.109 65.8145 141.037C65.715 140.962 65.5999 140.925 65.4692 140.925C65.3385 140.925 65.2234 140.962 65.1239 141.037C65.0274 141.109 64.9512 141.212 64.8952 141.347C64.8423 141.478 64.8159 141.631 64.8159 141.806C64.8159 141.978 64.8423 142.13 64.8952 142.261C64.9512 142.392 65.0274 142.495 65.1239 142.57C65.2234 142.642 65.3385 142.678 65.4692 142.678Z" fill="#666666"/>
<path d="M67.7001 142.997C67.5352 142.997 67.3781 142.968 67.2287 142.912C67.0825 142.853 66.9581 142.772 66.8554 142.668L67.0327 142.444C67.1323 142.525 67.235 142.587 67.3407 142.631C67.4496 142.675 67.5741 142.697 67.7141 142.697C67.8634 142.697 67.9754 142.662 68.0501 142.594C68.1247 142.522 68.1621 142.437 68.1621 142.34C68.1621 142.262 68.1356 142.198 68.0827 142.148C68.033 142.095 67.9692 142.051 67.8914 142.017C67.8167 141.98 67.7358 141.945 67.6487 141.914C67.5367 141.873 67.4294 141.826 67.3267 141.773C67.2241 141.717 67.1401 141.648 67.0747 141.567C67.0125 141.483 66.9814 141.378 66.9814 141.253C66.9814 141.069 67.0498 140.916 67.1867 140.794C67.3267 140.669 67.5196 140.606 67.7654 140.606C67.9054 140.606 68.0361 140.631 68.1574 140.681C68.2787 140.728 68.383 140.789 68.4701 140.864L68.2927 141.084C68.2118 141.028 68.1294 140.984 68.0454 140.953C67.9614 140.922 67.8681 140.906 67.7654 140.906C67.6223 140.906 67.5165 140.939 67.4481 141.005C67.3827 141.07 67.3501 141.147 67.3501 141.234C67.3501 141.303 67.3703 141.361 67.4107 141.408C67.4512 141.451 67.5072 141.491 67.5787 141.525C67.6534 141.559 67.7374 141.592 67.8307 141.623C67.9489 141.667 68.061 141.717 68.1667 141.773C68.2756 141.826 68.3627 141.897 68.4281 141.984C68.4965 142.069 68.5307 142.18 68.5307 142.317C68.5307 142.442 68.4981 142.556 68.4327 142.659C68.3705 142.759 68.2772 142.84 68.1527 142.903C68.0314 142.965 67.8805 142.997 67.7001 142.997Z" fill="#666666"/>
<path d="M69.6853 142.983C69.4458 142.983 69.2778 142.912 69.1813 142.772C69.0849 142.631 69.0367 142.448 69.0367 142.223V140.977H68.7007V140.686L69.0553 140.663L69.102 139.931H69.424V140.663H70.04V140.977H69.424V142.228C69.424 142.365 69.4489 142.473 69.4987 142.551C69.5515 142.629 69.6433 142.668 69.774 142.668C69.8144 142.668 69.8564 142.665 69.9 142.659C69.9436 142.65 69.9871 142.634 70.0307 142.612L70.1147 142.884C70.0555 142.912 69.9887 142.936 69.914 142.954C69.8393 142.973 69.7631 142.983 69.6853 142.983Z" fill="#666666"/>
<path d="M72.6491 142.997C72.3939 142.997 72.1668 142.931 71.9677 142.8C71.7717 142.669 71.6177 142.483 71.5057 142.242C71.3968 142.001 71.3424 141.717 71.3424 141.389C71.3424 141.061 71.3968 140.78 71.5057 140.545C71.6177 140.308 71.7717 140.127 71.9677 140.002C72.1668 139.874 72.3939 139.81 72.6491 139.81C72.9073 139.81 73.1344 139.874 73.3304 140.002C73.5264 140.127 73.6804 140.308 73.7924 140.545C73.9044 140.78 73.9604 141.061 73.9604 141.389C73.9604 141.717 73.9044 142.001 73.7924 142.242C73.6804 142.483 73.5264 142.669 73.3304 142.8C73.1344 142.931 72.9073 142.997 72.6491 142.997ZM72.6491 142.65C72.8326 142.65 72.9913 142.598 73.1251 142.495C73.262 142.392 73.3677 142.247 73.4424 142.059C73.5171 141.869 73.5544 141.645 73.5544 141.389C73.5544 141.136 73.5171 140.917 73.4424 140.733C73.3677 140.548 73.262 140.406 73.1251 140.306C72.9913 140.203 72.8326 140.152 72.6491 140.152C72.4686 140.152 72.31 140.203 72.1731 140.306C72.0362 140.406 71.9304 140.548 71.8557 140.733C71.7811 140.917 71.7437 141.136 71.7437 141.389C71.7437 141.645 71.7811 141.869 71.8557 142.059C71.9304 142.247 72.0362 142.392 72.1731 142.495C72.31 142.598 72.4686 142.65 72.6491 142.65Z" fill="#666666"/>
<path d="M74.5814 142.94V140.663H74.8987L74.9314 140.991H74.9454C75.0542 140.881 75.1694 140.791 75.2907 140.719C75.412 140.644 75.5505 140.606 75.706 140.606C75.9456 140.606 76.1198 140.683 76.2287 140.836C76.3407 140.986 76.3967 141.206 76.3967 141.497V142.94H76.014V141.548C76.014 141.333 75.9798 141.178 75.9114 141.084C75.846 140.987 75.7371 140.939 75.5847 140.939C75.4696 140.939 75.3654 140.969 75.272 141.028C75.1818 141.087 75.0791 141.175 74.964 141.291V142.94H74.5814Z" fill="#666666"/>
<path d="M78.105 142.94V139.866H78.4923V142.94H78.105Z" fill="#666666"/>
<path d="M79.2936 142.94V140.663H79.6109L79.6436 140.991H79.6576C79.7665 140.881 79.8816 140.791 80.0029 140.719C80.1243 140.644 80.2627 140.606 80.4183 140.606C80.6578 140.606 80.832 140.683 80.9409 140.836C81.0529 140.986 81.1089 141.206 81.1089 141.497V142.94H80.7263V141.548C80.7263 141.333 80.692 141.178 80.6236 141.084C80.5583 140.987 80.4494 140.939 80.2969 140.939C80.1818 140.939 80.0776 140.969 79.9843 141.028C79.894 141.087 79.7914 141.175 79.6763 141.291V142.94H79.2936Z" fill="#666666"/>
<path d="M82.4383 142.997C82.2735 142.997 82.1163 142.968 81.967 142.912C81.8208 142.853 81.6963 142.772 81.5937 142.668L81.771 142.444C81.8706 142.525 81.9732 142.587 82.079 142.631C82.1879 142.675 82.3123 142.697 82.4523 142.697C82.6017 142.697 82.7137 142.662 82.7883 142.594C82.863 142.522 82.9003 142.437 82.9003 142.34C82.9003 142.262 82.8739 142.198 82.821 142.148C82.7712 142.095 82.7075 142.051 82.6297 142.017C82.555 141.98 82.4741 141.945 82.387 141.914C82.275 141.873 82.1677 141.826 82.065 141.773C81.9623 141.717 81.8783 141.648 81.813 141.567C81.7508 141.483 81.7197 141.378 81.7197 141.253C81.7197 141.069 81.7881 140.916 81.925 140.794C82.065 140.669 82.2579 140.606 82.5037 140.606C82.6437 140.606 82.7743 140.631 82.8957 140.681C83.017 140.728 83.1212 140.789 83.2083 140.864L83.031 141.084C82.9501 141.028 82.8677 140.984 82.7837 140.953C82.6997 140.922 82.6063 140.906 82.5037 140.906C82.3606 140.906 82.2548 140.939 82.1863 141.005C82.121 141.07 82.0883 141.147 82.0883 141.234C82.0883 141.303 82.1086 141.361 82.149 141.408C82.1895 141.451 82.2455 141.491 82.317 141.525C82.3917 141.559 82.4757 141.592 82.569 141.623C82.6872 141.667 82.7992 141.717 82.905 141.773C83.0139 141.826 83.101 141.897 83.1663 141.984C83.2348 142.069 83.269 142.18 83.269 142.317C83.269 142.442 83.2363 142.556 83.171 142.659C83.1088 142.759 83.0155 142.84 82.891 142.903C82.7697 142.965 82.6188 142.997 82.4383 142.997Z" fill="#666666"/>
<path d="M84.4236 142.983C84.1841 142.983 84.0161 142.912 83.9196 142.772C83.8232 142.631 83.7749 142.448 83.7749 142.223V140.977H83.4389V140.686L83.7936 140.663L83.8403 139.931H84.1623V140.663H84.7783V140.977H84.1623V142.228C84.1623 142.365 84.1872 142.473 84.2369 142.551C84.2898 142.629 84.3816 142.668 84.5123 142.668C84.5527 142.668 84.5947 142.665 84.6383 142.659C84.6818 142.65 84.7254 142.634 84.7689 142.612L84.8529 142.884C84.7938 142.912 84.7269 142.936 84.6523 142.954C84.5776 142.973 84.5014 142.983 84.4236 142.983Z" fill="#666666"/>
<path d="M85.7088 142.997C85.5844 142.997 85.4708 142.972 85.3682 142.922C85.2686 142.868 85.1893 142.795 85.1302 142.701C85.0711 142.604 85.0415 142.487 85.0415 142.35C85.0415 142.094 85.1535 141.9 85.3775 141.769C85.6015 141.637 85.9562 141.545 86.4415 141.492C86.4384 141.398 86.4228 141.308 86.3948 141.22C86.3699 141.133 86.3233 141.062 86.2548 141.009C86.1864 140.956 86.0915 140.93 85.9702 140.93C85.8395 140.93 85.7166 140.955 85.6015 141.005C85.4864 141.052 85.3837 141.105 85.2935 141.164L85.1442 140.902C85.2126 140.855 85.2935 140.809 85.3868 140.766C85.4802 140.719 85.5813 140.681 85.6902 140.653C85.7991 140.622 85.9142 140.606 86.0355 140.606C86.2191 140.606 86.3684 140.645 86.4835 140.723C86.6017 140.798 86.6873 140.906 86.7402 141.047C86.7962 141.187 86.8242 141.353 86.8242 141.544V142.94H86.5068L86.4742 142.668H86.4602C86.3513 142.759 86.2346 142.837 86.1102 142.903C85.9857 142.965 85.852 142.997 85.7088 142.997ZM85.8162 142.678C85.9282 142.678 86.0324 142.653 86.1288 142.603C86.2284 142.553 86.3326 142.479 86.4415 142.383V141.769C86.1864 141.8 85.9842 141.84 85.8348 141.89C85.6886 141.937 85.5828 141.997 85.5175 142.069C85.4522 142.14 85.4195 142.226 85.4195 142.326C85.4195 142.451 85.4584 142.542 85.5362 142.598C85.614 142.651 85.7073 142.678 85.8162 142.678Z" fill="#666666"/>
<path d="M88.3031 143.99C88.1195 143.99 87.9562 143.965 87.8131 143.915C87.6731 143.868 87.5626 143.8 87.4817 143.709C87.404 143.618 87.3651 143.507 87.3651 143.376C87.3651 143.279 87.3946 143.186 87.4537 143.095C87.5128 143.008 87.5937 142.929 87.6964 142.861V142.842C87.6404 142.804 87.5922 142.756 87.5517 142.697C87.5144 142.634 87.4957 142.559 87.4957 142.472C87.4957 142.375 87.5222 142.29 87.5751 142.219C87.6311 142.147 87.6871 142.09 87.7431 142.05V142.031C87.6715 141.969 87.6046 141.884 87.5424 141.778C87.4802 141.672 87.4491 141.551 87.4491 141.417C87.4491 141.252 87.488 141.108 87.5657 140.986C87.6466 140.864 87.7508 140.77 87.8784 140.705C88.0091 140.639 88.1506 140.606 88.3031 140.606C88.3653 140.606 88.4244 140.613 88.4804 140.625C88.5364 140.634 88.5846 140.647 88.6251 140.663H89.4137V140.958H88.9424V140.977C88.9984 141.027 89.0435 141.089 89.0777 141.164C89.1151 141.239 89.1337 141.328 89.1337 141.431C89.1337 141.594 89.0964 141.734 89.0217 141.853C88.9471 141.969 88.8475 142.059 88.7231 142.125C88.5986 142.187 88.4586 142.219 88.3031 142.219C88.2471 142.219 88.1895 142.212 88.1304 142.2C88.0713 142.184 88.0153 142.164 87.9624 142.139C87.9251 142.173 87.8908 142.211 87.8597 142.251C87.8317 142.292 87.8177 142.345 87.8177 142.411C87.8177 142.483 87.8457 142.542 87.9017 142.589C87.9608 142.636 88.0666 142.659 88.2191 142.659H88.6577C88.9222 142.659 89.1197 142.703 89.2504 142.79C89.3842 142.875 89.4511 143.012 89.4511 143.203C89.4511 143.343 89.4044 143.473 89.3111 143.592C89.2177 143.711 89.084 143.806 88.9097 143.878C88.7386 143.953 88.5364 143.99 88.3031 143.99ZM88.3031 141.961C88.3902 141.961 88.4695 141.939 88.5411 141.895C88.6157 141.848 88.6749 141.784 88.7184 141.703C88.762 141.622 88.7837 141.526 88.7837 141.417C88.7837 141.248 88.7371 141.119 88.6437 141.028C88.5504 140.934 88.4368 140.888 88.3031 140.888C88.1693 140.888 88.0557 140.934 87.9624 141.028C87.8691 141.119 87.8224 141.248 87.8224 141.417C87.8224 141.526 87.8442 141.622 87.8877 141.703C87.9313 141.784 87.9888 141.848 88.0604 141.895C88.1351 141.939 88.216 141.961 88.3031 141.961ZM88.3591 143.723C88.5022 143.723 88.6266 143.701 88.7324 143.657C88.8413 143.614 88.9253 143.556 88.9844 143.484C89.0466 143.412 89.0777 143.337 89.0777 143.259C89.0777 143.153 89.0373 143.079 88.9564 143.039C88.8786 142.998 88.7666 142.978 88.6204 142.978H88.2284C88.1848 142.978 88.1366 142.975 88.0837 142.968C88.034 142.962 87.9842 142.953 87.9344 142.94C87.8504 143 87.7897 143.062 87.7524 143.128C87.7182 143.193 87.7011 143.259 87.7011 143.325C87.7011 143.447 87.7586 143.543 87.8737 143.615C87.992 143.687 88.1537 143.723 88.3591 143.723Z" fill="#666666"/>
<path d="M89.8893 142.94V140.663H90.2066L90.2393 141.075H90.2533C90.328 140.931 90.4213 140.817 90.5333 140.733C90.6453 140.648 90.7666 140.606 90.8973 140.606C90.9471 140.606 90.9906 140.609 91.028 140.616C91.0653 140.622 91.1026 140.634 91.14 140.653L91.056 140.981C91.0217 140.972 90.9891 140.966 90.958 140.962C90.93 140.956 90.8926 140.953 90.846 140.953C90.7495 140.953 90.6484 140.992 90.5426 141.07C90.44 141.148 90.3497 141.284 90.272 141.478V142.94H89.8893Z" fill="#666666"/>
<path d="M91.9204 142.997C91.796 142.997 91.6824 142.972 91.5798 142.922C91.4802 142.868 91.4009 142.795 91.3418 142.701C91.2826 142.604 91.2531 142.487 91.2531 142.35C91.2531 142.094 91.3651 141.9 91.5891 141.769C91.8131 141.637 92.1678 141.545 92.6531 141.492C92.65 141.398 92.6344 141.308 92.6064 141.22C92.5815 141.133 92.5349 141.062 92.4664 141.009C92.398 140.956 92.3031 140.93 92.1818 140.93C92.0511 140.93 91.9282 140.955 91.8131 141.005C91.698 141.052 91.5953 141.105 91.5051 141.164L91.3558 140.902C91.4242 140.855 91.5051 140.809 91.5984 140.766C91.6918 140.719 91.7929 140.681 91.9018 140.653C92.0107 140.622 92.1258 140.606 92.2471 140.606C92.4306 140.606 92.58 140.645 92.6951 140.723C92.8133 140.798 92.8989 140.906 92.9518 141.047C93.0078 141.187 93.0358 141.353 93.0358 141.544V142.94H92.7184L92.6858 142.668H92.6718C92.5629 142.759 92.4462 142.837 92.3218 142.903C92.1973 142.965 92.0635 142.997 91.9204 142.997ZM92.0278 142.678C92.1398 142.678 92.244 142.653 92.3404 142.603C92.44 142.553 92.5442 142.479 92.6531 142.383V141.769C92.398 141.8 92.1958 141.84 92.0464 141.89C91.9002 141.937 91.7944 141.997 91.7291 142.069C91.6638 142.14 91.6311 142.226 91.6311 142.326C91.6311 142.451 91.67 142.542 91.7478 142.598C91.8255 142.651 91.9189 142.678 92.0278 142.678Z" fill="#666666"/>
<path d="M93.7493 142.94V140.663H94.0667L94.0993 140.991H94.1133C94.2129 140.884 94.3202 140.794 94.4353 140.719C94.5535 140.644 94.6811 140.606 94.818 140.606C94.9922 140.606 95.1275 140.645 95.224 140.723C95.3235 140.802 95.3967 140.908 95.4433 141.042C95.5616 140.911 95.6813 140.806 95.8027 140.728C95.924 140.647 96.0531 140.606 96.19 140.606C96.4264 140.606 96.6007 140.683 96.7127 140.836C96.8247 140.986 96.8807 141.206 96.8807 141.497V142.94H96.498V141.548C96.498 141.333 96.4638 141.178 96.3953 141.084C96.3269 140.987 96.2211 140.939 96.078 140.939C95.9878 140.939 95.896 140.969 95.8027 141.028C95.7124 141.084 95.6144 141.172 95.5087 141.291V142.94H95.126V141.548C95.126 141.333 95.0918 141.178 95.0233 141.084C94.9549 140.987 94.8475 140.939 94.7013 140.939C94.5302 140.939 94.3404 141.056 94.132 141.291V142.94H93.7493Z" fill="#666666"/>
<path d="M97.8191 142.997C97.7445 142.997 97.6791 142.97 97.6231 142.917C97.5671 142.861 97.5391 142.79 97.5391 142.706C97.5391 142.615 97.5671 142.544 97.6231 142.49C97.6791 142.434 97.7445 142.406 97.8191 142.406C97.8969 142.406 97.9622 142.434 98.0151 142.49C98.068 142.544 98.0945 142.615 98.0945 142.706C98.0945 142.79 98.068 142.861 98.0151 142.917C97.9622 142.97 97.8969 142.997 97.8191 142.997Z" fill="#666666"/>
<path d="M98.9812 142.997C98.9066 142.997 98.8412 142.97 98.7852 142.917C98.7292 142.861 98.7012 142.79 98.7012 142.706C98.7012 142.615 98.7292 142.544 98.7852 142.49C98.8412 142.434 98.9066 142.406 98.9812 142.406C99.059 142.406 99.1244 142.434 99.1772 142.49C99.2301 142.544 99.2566 142.615 99.2566 142.706C99.2566 142.79 99.2301 142.861 99.1772 142.917C99.1244 142.97 99.059 142.997 98.9812 142.997Z" fill="#666666"/>
<path d="M100.143 142.997C100.069 142.997 100.003 142.97 99.9473 142.917C99.8913 142.861 99.8633 142.79 99.8633 142.706C99.8633 142.615 99.8913 142.544 99.9473 142.49C100.003 142.434 100.069 142.406 100.143 142.406C100.221 142.406 100.286 142.434 100.339 142.49C100.392 142.544 100.419 142.615 100.419 142.706C100.419 142.79 100.392 142.861 100.339 142.917C100.286 142.97 100.221 142.997 100.143 142.997Z" fill="#666666"/>
<path d="M10.2896 150.305V150.055H10.8249V148.324H10.3996V148.129C10.5047 148.109 10.5976 148.086 10.6782 148.059C10.7589 148.03 10.831 147.995 10.8946 147.956H11.1256V150.055H11.6096V150.305H10.2896Z" fill="#666666"/>
<path d="M12.9371 150.305V148.733C12.9371 148.672 12.9396 148.597 12.9445 148.508C12.9494 148.418 12.953 148.341 12.9555 148.28H12.9408C12.9115 148.337 12.8809 148.392 12.8491 148.446C12.8174 148.497 12.7844 148.553 12.7501 148.612L12.2038 149.414H13.5421V149.657H11.8848V149.458L12.8858 147.956H13.2231V150.305H12.9371Z" fill="#666666"/>
<path d="M14.7091 150.305V147.89H15.0941L15.5488 149.182C15.5781 149.263 15.605 149.344 15.6294 149.425C15.6563 149.506 15.6832 149.592 15.7101 149.683H15.7248C15.7517 149.592 15.7773 149.506 15.8018 149.425C15.8262 149.344 15.8519 149.263 15.8788 149.182L16.3334 147.89H16.7148V150.305H16.4288V148.976C16.4288 148.905 16.4312 148.825 16.4361 148.737C16.441 148.648 16.4459 148.561 16.4508 148.475C16.4581 148.387 16.4654 148.307 16.4728 148.236H16.4581L16.2711 148.818L15.8201 150.066H15.5964L15.1454 148.818L14.9584 148.236H14.9438C14.9511 148.307 14.9572 148.387 14.9621 148.475C14.9694 148.561 14.9756 148.648 14.9804 148.737C14.9853 148.825 14.9878 148.905 14.9878 148.976V150.305H14.7091Z" fill="#666666"/>
<path d="M17.3438 150.305V148.516H17.6445V150.305H17.3438ZM17.4942 148.148C17.4355 148.148 17.3866 148.129 17.3475 148.092C17.3108 148.055 17.2925 148.008 17.2925 147.949C17.2925 147.89 17.3108 147.842 17.3475 147.805C17.3866 147.768 17.4355 147.75 17.4942 147.75C17.5528 147.75 17.6005 147.768 17.6372 147.805C17.6763 147.842 17.6958 147.89 17.6958 147.949C17.6958 148.008 17.6763 148.055 17.6372 148.092C17.6005 148.129 17.5528 148.148 17.4942 148.148Z" fill="#666666"/>
<path d="M18.2462 150.305V148.516H18.4955L18.5212 148.774H18.5322C18.6177 148.688 18.7082 148.616 18.8035 148.56C18.8989 148.501 19.0076 148.472 19.1299 148.472C19.3181 148.472 19.455 148.532 19.5405 148.652C19.6285 148.77 19.6725 148.943 19.6725 149.171V150.305H19.3719V149.212C19.3719 149.042 19.345 148.921 19.2912 148.847C19.2399 148.771 19.1543 148.733 19.0345 148.733C18.9441 148.733 18.8622 148.756 18.7889 148.803C18.718 148.85 18.6373 148.918 18.5469 149.009V150.305H18.2462Z" fill="#666666"/>
<path d="M20.7721 150.35C20.5838 150.35 20.4457 150.291 20.3577 150.173C20.2722 150.053 20.2294 149.878 20.2294 149.65V148.516H20.5301V149.609C20.5301 149.776 20.5557 149.898 20.6071 149.974C20.6608 150.048 20.7464 150.085 20.8637 150.085C20.9542 150.085 21.0348 150.061 21.1057 150.015C21.1791 149.965 21.2585 149.889 21.3441 149.786V148.516H21.6447V150.305H21.3954L21.3697 150.026H21.3587C21.2781 150.124 21.1901 150.202 21.0947 150.261C21.0018 150.32 20.8943 150.35 20.7721 150.35Z" fill="#666666"/>
<path d="M22.8069 150.339C22.6186 150.339 22.4866 150.283 22.4109 150.173C22.3351 150.062 22.2972 149.919 22.2972 149.742V148.762H22.0332V148.534L22.3119 148.516L22.3485 147.941H22.6015V148.516H23.0855V148.762H22.6015V149.746C22.6015 149.854 22.6211 149.938 22.6602 150C22.7018 150.061 22.7739 150.092 22.8765 150.092C22.9083 150.092 22.9413 150.089 22.9755 150.085C23.0098 150.077 23.044 150.065 23.0782 150.048L23.1442 150.261C23.0978 150.283 23.0452 150.302 22.9865 150.317C22.9279 150.331 22.868 150.339 22.8069 150.339Z" fill="#666666"/>
<path d="M24.157 150.35C23.9981 150.35 23.8527 150.313 23.7207 150.239C23.5911 150.163 23.4884 150.056 23.4127 149.919C23.3369 149.779 23.299 149.609 23.299 149.411C23.299 149.217 23.3381 149.05 23.4163 148.91C23.4946 148.77 23.5948 148.662 23.717 148.586C23.8392 148.51 23.9688 148.472 24.1057 148.472C24.2572 148.472 24.3856 148.507 24.4907 148.578C24.5982 148.647 24.6789 148.744 24.7327 148.869C24.7864 148.994 24.8133 149.142 24.8133 149.311C24.8133 149.343 24.8121 149.374 24.8097 149.403C24.8097 149.433 24.806 149.462 24.7987 149.492H23.5153V149.252H24.542C24.542 149.08 24.5041 148.949 24.4283 148.858C24.355 148.765 24.2487 148.718 24.1093 148.718C24.0287 148.718 23.9492 148.742 23.871 148.788C23.7928 148.832 23.728 148.905 23.6767 149.006C23.6278 149.106 23.6033 149.24 23.6033 149.407C23.6033 149.559 23.629 149.687 23.6803 149.79C23.7341 149.893 23.8062 149.972 23.8967 150.026C23.9871 150.077 24.0861 150.103 24.1937 150.103C24.2792 150.103 24.3587 150.091 24.432 150.066C24.5078 150.042 24.5762 150.008 24.6373 149.967L24.7473 150.166C24.6691 150.22 24.5811 150.264 24.4833 150.298C24.388 150.332 24.2792 150.35 24.157 150.35Z" fill="#666666"/>
<path d="M25.7193 150.35C25.5898 150.35 25.4663 150.328 25.349 150.283C25.2341 150.237 25.1363 150.173 25.0557 150.092L25.195 149.915C25.2732 149.979 25.3539 150.028 25.437 150.062C25.5226 150.097 25.6203 150.114 25.7303 150.114C25.8477 150.114 25.9357 150.087 25.9943 150.033C26.053 149.976 26.0823 149.91 26.0823 149.834C26.0823 149.773 26.0616 149.722 26.02 149.683C25.9809 149.641 25.9308 149.607 25.8697 149.58C25.811 149.551 25.7475 149.524 25.679 149.499C25.591 149.467 25.5067 149.43 25.426 149.389C25.3453 149.344 25.2793 149.29 25.228 149.226C25.1791 149.16 25.1547 149.078 25.1547 148.98C25.1547 148.835 25.2085 148.715 25.316 148.619C25.426 148.521 25.5776 148.472 25.7707 148.472C25.8807 148.472 25.9833 148.491 26.0787 148.53C26.174 148.567 26.2559 148.615 26.3243 148.674L26.185 148.847C26.1215 148.803 26.0567 148.769 25.9907 148.744C25.9247 148.72 25.8513 148.707 25.7707 148.707C25.6582 148.707 25.5751 148.733 25.5213 148.785C25.47 148.836 25.4443 148.896 25.4443 148.965C25.4443 149.019 25.4602 149.064 25.492 149.101C25.5238 149.136 25.5678 149.166 25.624 149.193C25.6827 149.22 25.7487 149.246 25.822 149.271C25.9149 149.305 26.0029 149.344 26.086 149.389C26.1716 149.43 26.24 149.485 26.2913 149.554C26.3451 149.621 26.372 149.708 26.372 149.816C26.372 149.914 26.3463 150.003 26.295 150.085C26.2461 150.163 26.1728 150.227 26.075 150.276C25.9797 150.325 25.8611 150.35 25.7193 150.35Z" fill="#666666"/>
<path d="M27.2342 150.305L28.0482 147.89H28.3929L29.2069 150.305H28.8842L28.4625 148.954C28.4185 148.819 28.377 148.685 28.3379 148.553C28.2987 148.418 28.2596 148.28 28.2205 148.14H28.2059C28.1692 148.28 28.1313 148.418 28.0922 148.553C28.0531 148.685 28.0115 148.819 27.9675 148.954L27.5422 150.305H27.2342ZM27.6595 149.569V149.326H28.7705V149.569H27.6595Z" fill="#666666"/>
<path d="M30.1161 151.13C29.9719 151.13 29.8435 151.111 29.7311 151.071C29.6211 151.035 29.5343 150.981 29.4707 150.909C29.4096 150.838 29.3791 150.751 29.3791 150.648C29.3791 150.572 29.4023 150.498 29.4487 150.427C29.4952 150.358 29.5587 150.297 29.6394 150.243V150.228C29.5954 150.199 29.5575 150.161 29.5257 150.114C29.4964 150.065 29.4817 150.006 29.4817 149.937C29.4817 149.861 29.5025 149.795 29.5441 149.738C29.5881 149.682 29.6321 149.638 29.6761 149.606V149.591C29.6199 149.542 29.5673 149.476 29.5184 149.392C29.4695 149.309 29.4451 149.214 29.4451 149.109C29.4451 148.979 29.4756 148.866 29.5367 148.77C29.6003 148.674 29.6822 148.6 29.7824 148.549C29.8851 148.497 29.9963 148.472 30.1161 148.472C30.165 148.472 30.2114 148.476 30.2554 148.486C30.2994 148.494 30.3373 148.503 30.3691 148.516H30.9887V148.748H30.6184V148.762C30.6624 148.802 30.6979 148.851 30.7247 148.91C30.7541 148.969 30.7687 149.039 30.7687 149.12C30.7687 149.247 30.7394 149.358 30.6807 149.451C30.6221 149.542 30.5439 149.613 30.4461 149.665C30.3483 149.714 30.2383 149.738 30.1161 149.738C30.0721 149.738 30.0269 149.733 29.9804 149.724C29.934 149.711 29.89 149.695 29.8484 149.676C29.8191 149.703 29.7922 149.732 29.7677 149.764C29.7457 149.796 29.7347 149.838 29.7347 149.889C29.7347 149.946 29.7567 149.992 29.8007 150.029C29.8472 150.066 29.9303 150.085 30.0501 150.085H30.3947C30.6025 150.085 30.7577 150.119 30.8604 150.188C30.9655 150.254 31.0181 150.362 31.0181 150.512C31.0181 150.622 30.9814 150.724 30.9081 150.817C30.8347 150.911 30.7296 150.985 30.5927 151.042C30.4583 151.101 30.2994 151.13 30.1161 151.13ZM30.1161 149.536C30.1845 149.536 30.2469 149.519 30.3031 149.484C30.3617 149.447 30.4082 149.397 30.4424 149.333C30.4766 149.269 30.4937 149.195 30.4937 149.109C30.4937 148.976 30.4571 148.874 30.3837 148.803C30.3104 148.729 30.2212 148.693 30.1161 148.693C30.011 148.693 29.9217 148.729 29.8484 148.803C29.7751 148.874 29.7384 148.976 29.7384 149.109C29.7384 149.195 29.7555 149.269 29.7897 149.333C29.824 149.397 29.8692 149.447 29.9254 149.484C29.9841 149.519 30.0476 149.536 30.1161 149.536ZM30.1601 150.92C30.2725 150.92 30.3703 150.903 30.4534 150.869C30.539 150.835 30.605 150.789 30.6514 150.733C30.7003 150.676 30.7247 150.617 30.7247 150.556C30.7247 150.472 30.693 150.415 30.6294 150.383C30.5683 150.351 30.4803 150.335 30.3654 150.335H30.0574C30.0232 150.335 29.9853 150.332 29.9437 150.328C29.9046 150.323 29.8655 150.315 29.8264 150.305C29.7604 150.352 29.7127 150.401 29.6834 150.453C29.6565 150.504 29.6431 150.556 29.6431 150.607C29.6431 150.703 29.6883 150.779 29.7787 150.836C29.8716 150.892 29.9987 150.92 30.1601 150.92Z" fill="#666666"/>
<path d="M32.0053 150.35C31.861 150.35 31.7254 150.313 31.5983 150.239C31.4736 150.166 31.3722 150.059 31.2939 149.919C31.2182 149.779 31.1803 149.611 31.1803 149.414C31.1803 149.213 31.2182 149.042 31.2939 148.902C31.3722 148.762 31.4736 148.656 31.5983 148.582C31.7254 148.508 31.861 148.472 32.0053 148.472C32.1519 148.472 32.2876 148.508 32.4123 148.582C32.5369 148.656 32.6372 148.762 32.7129 148.902C32.7912 149.042 32.8303 149.213 32.8303 149.414C32.8303 149.611 32.7912 149.779 32.7129 149.919C32.6372 150.059 32.5369 150.166 32.4123 150.239C32.2876 150.313 32.1519 150.35 32.0053 150.35ZM32.0053 150.099C32.1079 150.099 32.1984 150.071 32.2766 150.015C32.3548 149.956 32.4147 149.875 32.4563 149.771C32.4978 149.668 32.5186 149.549 32.5186 149.414C32.5186 149.277 32.4978 149.157 32.4563 149.053C32.4147 148.948 32.3548 148.867 32.2766 148.81C32.1984 148.751 32.1079 148.722 32.0053 148.722C31.9026 148.722 31.8122 148.751 31.7339 148.81C31.6582 148.867 31.5983 148.948 31.5543 149.053C31.5127 149.157 31.4919 149.277 31.4919 149.414C31.4919 149.549 31.5127 149.668 31.5543 149.771C31.5983 149.875 31.6582 149.956 31.7339 150.015C31.8122 150.071 31.9026 150.099 32.0053 150.099Z" fill="#666666"/>
<path d="M34.9253 150.35C34.8667 150.35 34.8153 150.329 34.7713 150.287C34.7273 150.243 34.7053 150.188 34.7053 150.121C34.7053 150.05 34.7273 149.994 34.7713 149.952C34.8153 149.908 34.8667 149.886 34.9253 149.886C34.9865 149.886 35.0378 149.908 35.0793 149.952C35.1209 149.994 35.1417 150.05 35.1417 150.121C35.1417 150.188 35.1209 150.243 35.0793 150.287C35.0378 150.329 34.9865 150.35 34.9253 150.35Z" fill="#666666"/>
<path d="M37.8529 150.35C37.6866 150.35 37.529 150.319 37.3799 150.258C37.2332 150.196 37.1024 150.109 36.9875 149.996L37.2185 149.716C37.3041 149.8 37.4031 149.865 37.5155 149.911C37.6304 149.956 37.7453 149.978 37.8602 149.978C37.9971 149.978 38.101 149.949 38.1719 149.893C38.2427 149.837 38.2782 149.762 38.2782 149.668C38.2782 149.602 38.2623 149.549 38.2305 149.51C38.1987 149.468 38.1547 149.433 38.0985 149.403C38.0447 149.374 37.9812 149.344 37.9079 149.315L37.5779 149.171C37.4996 149.137 37.4226 149.093 37.3469 149.039C37.2735 148.982 37.2124 148.913 37.1635 148.832C37.1171 148.749 37.0939 148.648 37.0939 148.53C37.0939 148.403 37.1281 148.289 37.1965 148.188C37.2674 148.085 37.3627 148.004 37.4825 147.945C37.6047 147.884 37.7441 147.853 37.9005 147.853C38.0447 147.853 38.1804 147.88 38.3075 147.934C38.4371 147.985 38.5471 148.057 38.6375 148.148L38.4139 148.427C38.3356 148.364 38.2537 148.314 38.1682 148.28C38.0826 148.243 37.9934 148.225 37.9005 148.225C37.7881 148.225 37.6964 148.251 37.6255 148.302C37.5571 148.351 37.5229 148.42 37.5229 148.508C37.5229 148.57 37.54 148.621 37.5742 148.663C37.6109 148.702 37.6585 148.737 37.7172 148.766C37.7783 148.793 37.8406 148.82 37.9042 148.847L38.2305 148.983C38.3259 149.025 38.4102 149.074 38.4835 149.131C38.5569 149.187 38.6131 149.256 38.6522 149.337C38.6937 149.418 38.7145 149.517 38.7145 149.635C38.7145 149.765 38.6803 149.884 38.6119 149.992C38.5434 150.1 38.4444 150.188 38.3149 150.254C38.1877 150.318 38.0337 150.35 37.8529 150.35Z" fill="#666666"/>
<path d="M39.8876 150.35C39.7189 150.35 39.5661 150.313 39.4292 150.239C39.2948 150.163 39.1885 150.055 39.1102 149.915C39.032 149.773 38.9929 149.601 38.9929 149.4C38.9929 149.203 39.0332 149.035 39.1139 148.895C39.1946 148.753 39.2985 148.643 39.4256 148.567C39.5527 148.491 39.6871 148.453 39.8289 148.453C39.9927 148.453 40.1296 148.49 40.2396 148.564C40.3496 148.637 40.4315 148.739 40.4852 148.869C40.5415 148.997 40.5696 149.144 40.5696 149.311C40.5696 149.35 40.5671 149.389 40.5622 149.425C40.5598 149.462 40.5549 149.498 40.5476 149.532H39.3082V149.208H40.1956C40.1956 149.078 40.1662 148.976 40.1076 148.902C40.0489 148.826 39.9585 148.788 39.8362 148.788C39.7678 148.788 39.7006 148.807 39.6346 148.844C39.571 148.88 39.5172 148.943 39.4732 149.031C39.4317 149.12 39.4109 149.242 39.4109 149.4C39.4109 149.542 39.4354 149.659 39.4842 149.749C39.5331 149.838 39.5979 149.904 39.6786 149.948C39.7592 149.99 39.846 150.011 39.9389 150.011C40.0171 150.011 40.0905 150 40.1589 149.978C40.2298 149.956 40.2958 149.925 40.3569 149.886L40.5036 150.158C40.4205 150.217 40.3251 150.264 40.2176 150.298C40.1125 150.332 40.0025 150.35 39.8876 150.35Z" fill="#666666"/>
<path d="M41.746 150.35C41.5773 150.35 41.4245 150.313 41.2876 150.239C41.1532 150.163 41.0469 150.055 40.9686 149.915C40.8904 149.773 40.8513 149.601 40.8513 149.4C40.8513 149.203 40.8916 149.035 40.9723 148.895C41.053 148.753 41.1569 148.643 41.284 148.567C41.4111 148.491 41.5455 148.453 41.6873 148.453C41.8511 148.453 41.988 148.49 42.098 148.564C42.208 148.637 42.2899 148.739 42.3436 148.869C42.3999 148.997 42.428 149.144 42.428 149.311C42.428 149.35 42.4255 149.389 42.4206 149.425C42.4182 149.462 42.4133 149.498 42.406 149.532H41.1666V149.208H42.054C42.054 149.078 42.0246 148.976 41.966 148.902C41.9073 148.826 41.8169 148.788 41.6946 148.788C41.6262 148.788 41.559 148.807 41.493 148.844C41.4294 148.88 41.3756 148.943 41.3316 149.031C41.2901 149.12 41.2693 149.242 41.2693 149.4C41.2693 149.542 41.2937 149.659 41.3426 149.749C41.3915 149.838 41.4563 149.904 41.537 149.948C41.6176 149.99 41.7044 150.011 41.7973 150.011C41.8755 150.011 41.9489 150 42.0173 149.978C42.0882 149.956 42.1542 149.925 42.2153 149.886L42.362 150.158C42.2789 150.217 42.1835 150.264 42.076 150.298C41.9709 150.332 41.8609 150.35 41.746 150.35Z" fill="#666666"/>
<path d="M44.0854 150.305V148.258H43.3924V147.897H45.2038V148.258H44.5107V150.305H44.0854Z" fill="#666666"/>
<path d="M45.4052 150.305V148.497H45.7536L45.7829 148.818H45.7976C45.8611 148.7 45.9369 148.61 46.0249 148.549C46.1154 148.485 46.2095 148.453 46.3072 148.453C46.3537 148.453 46.3928 148.456 46.4246 148.461C46.4564 148.465 46.4857 148.475 46.5126 148.49L46.4282 148.851C46.3989 148.844 46.372 148.839 46.3476 148.836C46.3231 148.831 46.2914 148.829 46.2522 148.829C46.1814 148.829 46.1068 148.857 46.0286 148.913C45.9504 148.967 45.8831 149.063 45.8269 149.201V150.305H45.4052Z" fill="#666666"/>
<path d="M47.1163 150.35C47.0112 150.35 46.9183 150.328 46.8377 150.283C46.757 150.239 46.6934 150.178 46.647 150.099C46.603 150.018 46.581 149.925 46.581 149.819C46.581 149.616 46.6653 149.462 46.834 149.359C47.0051 149.253 47.2752 149.181 47.6443 149.142C47.6419 149.08 47.6297 149.024 47.6077 148.972C47.5881 148.921 47.5539 148.88 47.505 148.851C47.4585 148.819 47.395 148.803 47.3143 148.803C47.2263 148.803 47.1395 148.819 47.054 148.851C46.9709 148.883 46.889 148.923 46.8083 148.972L46.6543 148.685C46.7203 148.643 46.7924 148.605 46.8707 148.571C46.9489 148.534 47.032 148.506 47.12 148.486C47.208 148.464 47.2997 148.453 47.395 148.453C47.5441 148.453 47.6675 148.484 47.7653 148.545C47.8655 148.604 47.9401 148.693 47.989 148.81C48.0403 148.926 48.066 149.068 48.066 149.238V150.305H47.7177L47.6883 150.107H47.6737C47.5905 150.175 47.5038 150.233 47.4133 150.28C47.3229 150.326 47.2239 150.35 47.1163 150.35ZM47.2483 150.003C47.3217 150.003 47.3889 149.989 47.45 149.959C47.5135 149.927 47.5783 149.881 47.6443 149.819V149.436C47.4805 149.456 47.351 149.482 47.2557 149.514C47.1603 149.546 47.0919 149.585 47.0503 149.632C47.0112 149.676 46.9917 149.729 46.9917 149.79C46.9917 149.866 47.0161 149.921 47.065 149.956C47.1139 149.988 47.175 150.003 47.2483 150.003Z" fill="#666666"/>
<path d="M48.5706 150.305V148.497H48.9189L48.9483 148.74H48.9629C49.0436 148.662 49.1316 148.594 49.2269 148.538C49.3223 148.481 49.4311 148.453 49.5533 148.453C49.7464 148.453 49.8869 148.516 49.9749 148.641C50.0629 148.766 50.1069 148.943 50.1069 149.171V150.305H49.6853V149.226C49.6853 149.077 49.6633 148.971 49.6193 148.91C49.5753 148.848 49.5032 148.818 49.4029 148.818C49.3247 148.818 49.2551 148.837 49.1939 148.877C49.1353 148.913 49.0681 148.969 48.9923 149.042V150.305H48.5706Z" fill="#666666"/>
<path d="M51.1247 150.35C51 150.35 50.8766 150.326 50.7544 150.28C50.6346 150.233 50.5307 150.168 50.4427 150.085L50.6297 149.841C50.7104 149.908 50.7923 149.956 50.8754 149.985C50.9585 150.015 51.0465 150.029 51.1394 150.029C51.2371 150.029 51.3093 150.008 51.3557 149.967C51.4021 149.925 51.4254 149.873 51.4254 149.812C51.4254 149.763 51.407 149.721 51.3704 149.687C51.3361 149.652 51.2909 149.623 51.2347 149.598C51.1785 149.574 51.1161 149.549 51.0477 149.525C50.9597 149.493 50.8778 149.455 50.802 149.411C50.7263 149.364 50.6639 149.307 50.615 149.241C50.5686 149.172 50.5454 149.09 50.5454 148.994C50.5454 148.835 50.604 148.705 50.7214 148.604C50.8387 148.503 50.9976 148.453 51.198 148.453C51.3203 148.453 51.4327 148.474 51.5354 148.516C51.638 148.555 51.726 148.607 51.7994 148.67L51.6124 148.91C51.5488 148.863 51.484 148.829 51.418 148.807C51.352 148.785 51.2824 148.774 51.209 148.774C51.1186 148.774 51.0514 148.793 51.0074 148.832C50.9634 148.872 50.9414 148.918 50.9414 148.972C50.9414 149.017 50.9548 149.055 50.9817 149.087C51.011 149.116 51.0526 149.143 51.1064 149.168C51.1601 149.19 51.2249 149.213 51.3007 149.238C51.3936 149.269 51.4804 149.309 51.561 149.355C51.6417 149.4 51.7053 149.457 51.7517 149.528C51.8006 149.597 51.825 149.684 51.825 149.79C51.825 149.893 51.7981 149.988 51.7444 150.073C51.6906 150.157 51.6111 150.224 51.506 150.276C51.4034 150.325 51.2763 150.35 51.1247 150.35Z" fill="#666666"/>
<path d="M52.6121 150.342C52.5119 150.342 52.4312 150.323 52.3701 150.283C52.3115 150.242 52.2687 150.183 52.2418 150.107C52.2149 150.03 52.2015 149.94 52.2015 149.834V147.706H52.6231V149.856C52.6231 149.91 52.6329 149.947 52.6525 149.967C52.672 149.986 52.694 149.996 52.7185 149.996C52.7282 149.996 52.7368 149.996 52.7441 149.996C52.7539 149.994 52.7661 149.991 52.7808 149.989L52.8358 150.305C52.8114 150.315 52.7796 150.324 52.7405 150.331C52.7038 150.339 52.661 150.342 52.6121 150.342Z" fill="#666666"/>
<path d="M53.6332 150.35C53.5281 150.35 53.4352 150.328 53.3546 150.283C53.2739 150.239 53.2104 150.178 53.1639 150.099C53.1199 150.018 53.0979 149.925 53.0979 149.819C53.0979 149.616 53.1822 149.462 53.3509 149.359C53.522 149.253 53.7921 149.181 54.1612 149.142C54.1588 149.08 54.1466 149.024 54.1246 148.972C54.105 148.921 54.0708 148.88 54.0219 148.851C53.9755 148.819 53.9119 148.803 53.8312 148.803C53.7432 148.803 53.6565 148.819 53.5709 148.851C53.4878 148.883 53.4059 148.923 53.3252 148.972L53.1712 148.685C53.2372 148.643 53.3094 148.605 53.3876 148.571C53.4658 148.534 53.5489 148.506 53.6369 148.486C53.7249 148.464 53.8166 148.453 53.9119 148.453C54.061 148.453 54.1845 148.484 54.2822 148.545C54.3825 148.604 54.457 148.693 54.5059 148.81C54.5572 148.926 54.5829 149.068 54.5829 149.238V150.305H54.2346L54.2052 150.107H54.1906C54.1075 150.175 54.0207 150.233 53.9302 150.28C53.8398 150.326 53.7408 150.35 53.6332 150.35ZM53.7652 150.003C53.8386 150.003 53.9058 149.989 53.9669 149.959C54.0305 149.927 54.0952 149.881 54.1612 149.819V149.436C53.9975 149.456 53.8679 149.482 53.7726 149.514C53.6772 149.546 53.6088 149.585 53.5672 149.632C53.5281 149.676 53.5086 149.729 53.5086 149.79C53.5086 149.866 53.533 149.921 53.5819 149.956C53.6308 149.988 53.6919 150.003 53.7652 150.003Z" fill="#666666"/>
<path d="M55.6646 150.342C55.4568 150.342 55.3089 150.282 55.2209 150.162C55.1354 150.039 55.0926 149.881 55.0926 149.687V148.832H54.8359V148.516L55.1146 148.497L55.1659 147.93H55.5179V148.497H55.9762V148.832H55.5179V149.687C55.5179 149.792 55.5387 149.872 55.5802 149.926C55.6218 149.978 55.6854 150.003 55.7709 150.003C55.8027 150.003 55.8345 150.001 55.8662 149.996C55.898 149.991 55.9286 149.981 55.9579 149.967L56.0349 150.265C55.9885 150.287 55.9335 150.305 55.8699 150.32C55.8064 150.335 55.7379 150.342 55.6646 150.342Z" fill="#666666"/>
<path d="M56.3551 150.305V148.497H56.7768V150.305H56.3551ZM56.5641 148.181C56.4908 148.181 56.4297 148.159 56.3808 148.114C56.3343 148.07 56.3111 148.011 56.3111 147.938C56.3111 147.864 56.3343 147.806 56.3808 147.765C56.4297 147.72 56.4908 147.698 56.5641 147.698C56.6399 147.698 56.701 147.72 56.7474 147.765C56.7939 147.806 56.8171 147.864 56.8171 147.938C56.8171 148.011 56.7939 148.07 56.7474 148.114C56.701 148.159 56.6399 148.181 56.5641 148.181Z" fill="#666666"/>
<path d="M58.0518 150.35C57.9026 150.35 57.7633 150.313 57.6338 150.239C57.5042 150.163 57.3991 150.055 57.3184 149.915C57.2378 149.773 57.1974 149.602 57.1974 149.403C57.1974 149.202 57.2378 149.031 57.3184 148.891C57.3991 148.749 57.5042 148.641 57.6338 148.567C57.7633 148.491 57.9026 148.453 58.0518 148.453C58.2033 148.453 58.3439 148.491 58.4734 148.567C58.603 148.641 58.7081 148.749 58.7888 148.891C58.8694 149.031 58.9098 149.202 58.9098 149.403C58.9098 149.602 58.8694 149.773 58.7888 149.915C58.7081 150.055 58.603 150.163 58.4734 150.239C58.3439 150.313 58.2033 150.35 58.0518 150.35ZM58.0518 150.003C58.1398 150.003 58.2155 149.979 58.2791 149.93C58.3426 149.881 58.3915 149.811 58.4258 149.72C58.46 149.629 58.4771 149.524 58.4771 149.403C58.4771 149.283 58.46 149.177 58.4258 149.087C58.3915 148.996 58.3426 148.926 58.2791 148.877C58.2155 148.825 58.1398 148.799 58.0518 148.799C57.9638 148.799 57.888 148.825 57.8244 148.877C57.7633 148.926 57.7156 148.996 57.6814 149.087C57.6472 149.177 57.6301 149.283 57.6301 149.403C57.6301 149.524 57.6472 149.629 57.6814 149.72C57.7156 149.811 57.7633 149.881 57.8244 149.93C57.888 149.979 57.9638 150.003 58.0518 150.003Z" fill="#666666"/>
<path d="M59.3271 150.305V148.497H59.6755L59.7048 148.74H59.7195C59.8001 148.662 59.8881 148.594 59.9835 148.538C60.0788 148.481 60.1876 148.453 60.3098 148.453C60.5029 148.453 60.6435 148.516 60.7315 148.641C60.8195 148.766 60.8635 148.943 60.8635 149.171V150.305H60.4418V149.226C60.4418 149.077 60.4198 148.971 60.3758 148.91C60.3318 148.848 60.2597 148.818 60.1595 148.818C60.0812 148.818 60.0116 148.837 59.9505 148.877C59.8918 148.913 59.8246 148.969 59.7488 149.042V150.305H59.3271Z" fill="#666666"/>
<path d="M10.3267 133.564V133.007H10.9707V131.287H10.4153V130.86C10.5771 130.829 10.714 130.791 10.826 130.748C10.9411 130.704 11.05 130.651 11.1527 130.588H11.6567V133.007H12.212V133.564H10.3267Z" fill="#212121"/>
<path d="M13.1655 133.564C13.181 133.318 13.2059 133.091 13.2402 132.885C13.2744 132.675 13.3226 132.477 13.3848 132.29C13.4502 132.102 13.5326 131.918 13.6322 131.736C13.7317 131.555 13.8546 131.366 14.0008 131.169H12.6708V130.588H14.7335V131.01C14.5593 131.223 14.4162 131.421 14.3042 131.605C14.1953 131.79 14.1113 131.977 14.0522 132.168C13.993 132.358 13.9495 132.566 13.9215 132.791C13.8935 133.016 13.8717 133.274 13.8562 133.564H13.1655Z" fill="#212121"/>
<path d="M16.2246 133.564V130.509H16.9106V132.983H18.1146V133.564H16.2246Z" fill="#212121"/>
<path d="M18.5839 133.564V131.24H19.2699V133.564H18.5839ZM18.9246 130.898C18.8095 130.898 18.7161 130.865 18.6446 130.799C18.573 130.734 18.5373 130.646 18.5373 130.537C18.5373 130.427 18.573 130.34 18.6446 130.274C18.7161 130.209 18.8095 130.176 18.9246 130.176C19.0397 130.176 19.133 130.209 19.2046 130.274C19.2761 130.34 19.3119 130.427 19.3119 130.537C19.3119 130.646 19.2761 130.734 19.2046 130.799C19.133 130.865 19.0397 130.898 18.9246 130.898Z" fill="#212121"/>
<path d="M19.8736 133.564V130.279H20.5503V132.154H20.569L21.2876 131.24H22.039L21.2363 132.205L22.0996 133.564H21.3576L20.835 132.66L20.5503 132.983V133.564H19.8736Z" fill="#212121"/>
<path d="M23.3341 133.621C23.1132 133.621 22.9141 133.572 22.7368 133.475C22.5595 133.378 22.4195 133.239 22.3168 133.058C22.2141 132.877 22.1628 132.658 22.1628 132.402C22.1628 132.149 22.2141 131.932 22.3168 131.751C22.4226 131.569 22.5595 131.43 22.7275 131.333C22.8955 131.233 23.0712 131.183 23.2548 131.183C23.4757 131.183 23.6592 131.233 23.8055 131.333C23.9517 131.43 24.0606 131.563 24.1321 131.732C24.2037 131.901 24.2395 132.09 24.2395 132.299C24.2395 132.358 24.2363 132.418 24.2301 132.477C24.2239 132.533 24.2177 132.579 24.2115 132.613H22.6948L22.6855 132.135H23.6515C23.6515 132.013 23.6219 131.913 23.5628 131.835C23.5037 131.754 23.4057 131.713 23.2688 131.713C23.1941 131.713 23.121 131.733 23.0495 131.774C22.9779 131.815 22.9188 131.885 22.8721 131.985C22.8255 132.085 22.8037 132.224 22.8068 132.402C22.8099 132.577 22.841 132.714 22.9001 132.814C22.9623 132.914 23.0401 132.986 23.1335 133.03C23.2268 133.071 23.3248 133.091 23.4275 133.091C23.5177 133.091 23.6032 133.078 23.6841 133.053C23.7681 133.025 23.8506 132.988 23.9315 132.941L24.1555 133.363C24.0403 133.444 23.9097 133.508 23.7635 133.555C23.6172 133.599 23.4741 133.621 23.3341 133.621Z" fill="#212121"/>
<path d="M25.3948 133.621C25.2424 133.621 25.0853 133.591 24.9235 133.532C24.7617 133.472 24.6233 133.386 24.5082 133.274L24.7975 132.885C24.9033 132.969 25.0075 133.028 25.1101 133.063C25.2159 133.094 25.317 133.11 25.4135 133.11C25.5161 133.11 25.5908 133.093 25.6375 133.058C25.6841 133.021 25.7075 132.972 25.7075 132.913C25.7075 132.86 25.6857 132.816 25.6421 132.782C25.6017 132.747 25.5473 132.718 25.4788 132.693C25.4135 132.664 25.3388 132.635 25.2548 132.604C25.1428 132.563 25.0402 132.511 24.9468 132.449C24.8535 132.386 24.7773 132.311 24.7182 132.224C24.6622 132.136 24.6342 132.032 24.6342 131.91C24.6342 131.691 24.715 131.516 24.8768 131.385C25.0417 131.251 25.2564 131.183 25.5208 131.183C25.6888 131.183 25.8413 131.212 25.9781 131.268C26.1181 131.321 26.2379 131.391 26.3375 131.479L26.0435 131.863C25.9595 131.804 25.8755 131.761 25.7915 131.736C25.7075 131.708 25.625 131.694 25.5442 131.694C25.4539 131.694 25.387 131.711 25.3435 131.746C25.2999 131.78 25.2782 131.824 25.2782 131.877C25.2782 131.921 25.2937 131.958 25.3248 131.99C25.3559 132.021 25.4026 132.051 25.4648 132.079C25.5302 132.104 25.611 132.132 25.7075 132.163C25.8257 132.204 25.933 132.255 26.0295 132.318C26.129 132.377 26.2068 132.452 26.2628 132.543C26.3188 132.633 26.3468 132.743 26.3468 132.871C26.3468 133.011 26.3095 133.138 26.2348 133.25C26.1633 133.363 26.0575 133.453 25.9175 133.522C25.7775 133.588 25.6033 133.621 25.3948 133.621Z" fill="#212121"/>
<path d="M34.4338 176V166.816H35.5958V176H34.4338ZM37.9996 176V169.196H38.9516L39.0496 170.176H39.0916C39.4182 169.849 39.7636 169.579 40.1276 169.364C40.4916 169.14 40.9069 169.028 41.3736 169.028C42.0922 169.028 42.6149 169.257 42.9416 169.714C43.2776 170.162 43.4456 170.82 43.4456 171.688V176H42.2976V171.842C42.2976 171.198 42.1949 170.736 41.9896 170.456C41.7936 170.167 41.4669 170.022 41.0096 170.022C40.6642 170.022 40.3516 170.111 40.0716 170.288C39.8009 170.465 39.4929 170.727 39.1476 171.072V176H37.9996ZM47.4338 176.168C46.9391 176.168 46.4678 176.084 46.0198 175.916C45.5811 175.739 45.2078 175.496 44.8998 175.188L45.4318 174.516C45.7305 174.759 46.0385 174.945 46.3558 175.076C46.6825 175.207 47.0558 175.272 47.4758 175.272C47.9238 175.272 48.2598 175.169 48.4838 174.964C48.7078 174.749 48.8198 174.497 48.8198 174.208C48.8198 173.975 48.7405 173.783 48.5818 173.634C48.4325 173.475 48.2411 173.345 48.0078 173.242C47.7838 173.13 47.5411 173.027 47.2798 172.934C46.9438 172.813 46.6218 172.673 46.3138 172.514C46.0058 172.346 45.7538 172.141 45.5578 171.898C45.3711 171.646 45.2778 171.333 45.2778 170.96C45.2778 170.409 45.4831 169.952 45.8938 169.588C46.3138 169.215 46.8925 169.028 47.6298 169.028C48.0498 169.028 48.4418 169.103 48.8058 169.252C49.1698 169.392 49.4825 169.574 49.7438 169.798L49.2118 170.456C48.9691 170.288 48.7218 170.157 48.4698 170.064C48.2178 169.971 47.9378 169.924 47.6298 169.924C47.2005 169.924 46.8831 170.022 46.6778 170.218C46.4818 170.414 46.3838 170.643 46.3838 170.904C46.3838 171.109 46.4445 171.282 46.5658 171.422C46.6871 171.553 46.8551 171.669 47.0698 171.772C47.2938 171.875 47.5458 171.973 47.8258 172.066C48.1805 172.197 48.5165 172.346 48.8338 172.514C49.1605 172.673 49.4218 172.883 49.6178 173.144C49.8231 173.396 49.9258 173.727 49.9258 174.138C49.9258 174.511 49.8278 174.852 49.6318 175.16C49.4451 175.459 49.1651 175.701 48.7918 175.888C48.4278 176.075 47.9751 176.168 47.4338 176.168ZM53.3896 176.126C52.6709 176.126 52.1669 175.916 51.8776 175.496C51.5883 175.076 51.4436 174.53 51.4436 173.858V170.134H50.4356V169.266L51.4996 169.196L51.6396 167.012H52.6056V169.196H54.4536V170.134H52.6056V173.872C52.6056 174.283 52.6803 174.605 52.8296 174.838C52.9883 175.071 53.2636 175.188 53.6556 175.188C53.7769 175.188 53.9029 175.179 54.0336 175.16C54.1643 175.132 54.2949 175.085 54.4256 175.02L54.6776 175.832C54.5003 175.916 54.2996 175.986 54.0756 176.042C53.8516 176.098 53.6229 176.126 53.3896 176.126ZM57.2453 176.168C56.872 176.168 56.5313 176.093 56.2233 175.944C55.9246 175.785 55.6866 175.566 55.5093 175.286C55.332 174.997 55.2433 174.647 55.2433 174.236C55.2433 173.471 55.5793 172.892 56.2513 172.5C56.9233 172.108 57.9873 171.833 59.4433 171.674C59.434 171.394 59.3873 171.123 59.3033 170.862C59.2286 170.601 59.0886 170.391 58.8833 170.232C58.678 170.073 58.3933 169.994 58.0293 169.994C57.6373 169.994 57.2686 170.069 56.9233 170.218C56.578 170.358 56.27 170.517 55.9993 170.694L55.5513 169.91C55.7566 169.77 55.9993 169.635 56.2793 169.504C56.5593 169.364 56.8626 169.252 57.1893 169.168C57.516 169.075 57.8613 169.028 58.2253 169.028C58.776 169.028 59.224 169.145 59.5693 169.378C59.924 169.602 60.1806 169.924 60.3393 170.344C60.5073 170.764 60.5913 171.259 60.5913 171.828V176H59.6393L59.5413 175.188H59.4993C59.1726 175.459 58.8226 175.692 58.4493 175.888C58.076 176.075 57.6746 176.168 57.2453 176.168ZM57.5673 175.216C57.9033 175.216 58.216 175.141 58.5053 174.992C58.804 174.843 59.1166 174.623 59.4433 174.334V172.5C58.678 172.593 58.0713 172.715 57.6233 172.864C57.1846 173.004 56.8673 173.181 56.6713 173.396C56.4753 173.611 56.3773 173.867 56.3773 174.166C56.3773 174.539 56.494 174.81 56.7273 174.978C56.9606 175.137 57.2406 175.216 57.5673 175.216ZM65.028 179.136C64.4773 179.136 63.9873 179.061 63.558 178.912C63.138 178.772 62.8067 178.567 62.564 178.296C62.3307 178.025 62.214 177.694 62.214 177.302C62.214 177.013 62.3027 176.733 62.48 176.462C62.6573 176.201 62.9 175.967 63.208 175.762V175.706C63.04 175.594 62.8953 175.449 62.774 175.272C62.662 175.085 62.606 174.861 62.606 174.6C62.606 174.311 62.6853 174.059 62.844 173.844C63.012 173.629 63.18 173.461 63.348 173.34V173.284C63.1333 173.097 62.9327 172.845 62.746 172.528C62.5593 172.211 62.466 171.851 62.466 171.45C62.466 170.955 62.5827 170.526 62.816 170.162C63.0587 169.798 63.3713 169.518 63.754 169.322C64.146 169.126 64.5707 169.028 65.028 169.028C65.2147 169.028 65.392 169.047 65.56 169.084C65.728 169.112 65.8727 169.149 65.994 169.196H68.36V170.078H66.946V170.134C67.114 170.283 67.2493 170.47 67.352 170.694C67.464 170.918 67.52 171.184 67.52 171.492C67.52 171.977 67.408 172.397 67.184 172.752C66.96 173.097 66.6613 173.368 66.288 173.564C65.9147 173.751 65.4947 173.844 65.028 173.844C64.86 173.844 64.6873 173.825 64.51 173.788C64.3327 173.741 64.1647 173.681 64.006 173.606C63.894 173.709 63.7913 173.821 63.698 173.942C63.614 174.063 63.572 174.222 63.572 174.418C63.572 174.633 63.656 174.81 63.824 174.95C64.0013 175.09 64.3187 175.16 64.776 175.16H66.092C66.8853 175.16 67.478 175.291 67.87 175.552C68.2713 175.804 68.472 176.215 68.472 176.784C68.472 177.204 68.332 177.591 68.052 177.946C67.772 178.301 67.3707 178.585 66.848 178.8C66.3347 179.024 65.728 179.136 65.028 179.136ZM65.028 173.074C65.2893 173.074 65.5273 173.009 65.742 172.878C65.966 172.738 66.1433 172.547 66.274 172.304C66.4047 172.061 66.47 171.777 66.47 171.45C66.47 170.946 66.33 170.559 66.05 170.288C65.77 170.008 65.4293 169.868 65.028 169.868C64.6267 169.868 64.286 170.008 64.006 170.288C63.726 170.559 63.586 170.946 63.586 171.45C63.586 171.777 63.6513 172.061 63.782 172.304C63.9127 172.547 64.0853 172.738 64.3 172.878C64.524 173.009 64.7667 173.074 65.028 173.074ZM65.196 178.338C65.6253 178.338 65.9987 178.273 66.316 178.142C66.6427 178.011 66.8947 177.839 67.072 177.624C67.2587 177.409 67.352 177.185 67.352 176.952C67.352 176.635 67.2307 176.415 66.988 176.294C66.7547 176.173 66.4187 176.112 65.98 176.112H64.804C64.6733 176.112 64.5287 176.103 64.37 176.084C64.2207 176.065 64.0713 176.037 63.922 176C63.67 176.177 63.488 176.364 63.376 176.56C63.2733 176.756 63.222 176.952 63.222 177.148C63.222 177.512 63.3947 177.801 63.74 178.016C64.0947 178.231 64.58 178.338 65.196 178.338ZM69.7867 176V169.196H70.7387L70.8367 170.428H70.8787C71.1027 169.999 71.3827 169.658 71.7187 169.406C72.0547 169.154 72.4187 169.028 72.8107 169.028C72.96 169.028 73.0907 169.037 73.2027 169.056C73.3147 169.075 73.4267 169.112 73.5387 169.168L73.2867 170.148C73.184 170.12 73.086 170.101 72.9927 170.092C72.9087 170.073 72.7967 170.064 72.6567 170.064C72.3673 170.064 72.064 170.181 71.7467 170.414C71.4387 170.647 71.168 171.053 70.9347 171.632V176H69.7867ZM75.8801 176.168C75.5067 176.168 75.1661 176.093 74.8581 175.944C74.5594 175.785 74.3214 175.566 74.1441 175.286C73.9667 174.997 73.8781 174.647 73.8781 174.236C73.8781 173.471 74.2141 172.892 74.8861 172.5C75.5581 172.108 76.6221 171.833 78.0781 171.674C78.0687 171.394 78.0221 171.123 77.9381 170.862C77.8634 170.601 77.7234 170.391 77.5181 170.232C77.3127 170.073 77.0281 169.994 76.6641 169.994C76.2721 169.994 75.9034 170.069 75.5581 170.218C75.2127 170.358 74.9047 170.517 74.6341 170.694L74.1861 169.91C74.3914 169.77 74.6341 169.635 74.9141 169.504C75.1941 169.364 75.4974 169.252 75.8241 169.168C76.1507 169.075 76.4961 169.028 76.8601 169.028C77.4107 169.028 77.8587 169.145 78.2041 169.378C78.5587 169.602 78.8154 169.924 78.9741 170.344C79.1421 170.764 79.2261 171.259 79.2261 171.828V176H78.2741L78.1761 175.188H78.1341C77.8074 175.459 77.4574 175.692 77.0841 175.888C76.7107 176.075 76.3094 176.168 75.8801 176.168ZM76.2021 175.216C76.5381 175.216 76.8507 175.141 77.1401 174.992C77.4387 174.843 77.7514 174.623 78.0781 174.334V172.5C77.3127 172.593 76.7061 172.715 76.2581 172.864C75.8194 173.004 75.5021 173.181 75.3061 173.396C75.1101 173.611 75.0121 173.867 75.0121 174.166C75.0121 174.539 75.1287 174.81 75.3621 174.978C75.5954 175.137 75.8754 175.216 76.2021 175.216ZM81.3668 176V169.196H82.3188L82.4168 170.176H82.4588C82.7574 169.859 83.0794 169.588 83.4248 169.364C83.7794 169.14 84.1621 169.028 84.5728 169.028C85.0954 169.028 85.5014 169.145 85.7908 169.378C86.0894 169.611 86.3088 169.929 86.4488 170.33C86.8034 169.938 87.1628 169.625 87.5268 169.392C87.8908 169.149 88.2781 169.028 88.6888 169.028C89.3981 169.028 89.9208 169.257 90.2568 169.714C90.5928 170.162 90.7608 170.82 90.7608 171.688V176H89.6128V171.842C89.6128 171.198 89.5101 170.736 89.3048 170.456C89.0994 170.167 88.7821 170.022 88.3528 170.022C88.0821 170.022 87.8068 170.111 87.5268 170.288C87.2561 170.456 86.9621 170.717 86.6448 171.072V176H85.4968V171.842C85.4968 171.198 85.3941 170.736 85.1888 170.456C84.9834 170.167 84.6614 170.022 84.2228 170.022C83.7094 170.022 83.1401 170.372 82.5148 171.072V176H81.3668Z" fill="#212121"/>
<defs>
<linearGradient id="paint0_linear_5144_2609" x1="25.3332" y1="8.69531" x2="8.59467" y2="25.3618" gradientUnits="userSpaceOnUse">
<stop stop-color="#C938A8"/>
<stop offset="0.34375" stop-color="#E34673"/>
<stop offset="0.625" stop-color="#FA5245"/>
<stop offset="1" stop-color="#FECB52"/>
</linearGradient>
</defs>
</svg>
