<svg width="447" height="374" viewBox="0 0 447 374" fill="none" xmlns="http://www.w3.org/2000/svg">
<g clip-path="url(#clip0_4774_4024)">
<path fill-rule="evenodd" clip-rule="evenodd" d="M234.673 0L0 151.24L31.9754 373.243H400.998L447 182.369L234.673 0Z" fill="#E7ECFF" fill-opacity="0.99"/>
<path fill-rule="evenodd" clip-rule="evenodd" d="M164.681 159.436C164.681 157.742 164.029 156.14 162.839 154.939C161.649 153.753 160.038 153.091 158.361 153.091H48.2503C46.5734 153.091 44.9623 153.753 43.7724 154.939C42.5824 156.14 41.916 157.742 41.916 159.436V229.196C41.916 230.875 42.5824 232.491 43.7724 233.674C44.9623 234.875 46.5734 235.537 48.2503 235.537H158.365C160.042 235.537 161.653 234.875 162.843 233.674C164.032 232.491 164.684 230.875 164.684 229.196V159.436H164.681Z" fill="#000045"/>
<path fill-rule="evenodd" clip-rule="evenodd" d="M150.387 107.91C150.387 105.001 148.04 102.643 145.133 102.643H61.9995C59.0923 102.643 56.7344 105.001 56.7344 107.91V163.568C56.7344 163.568 85.8099 185.569 98.1453 194.9C101.349 197.332 105.772 197.332 108.976 194.9C121.311 185.569 150.387 163.568 150.387 163.568V107.91Z" fill="white"/>
<path fill-rule="evenodd" clip-rule="evenodd" d="M151.156 107.91C151.156 104.575 148.446 101.878 145.133 101.878H61.9996C58.6714 101.878 55.9766 104.575 55.9766 107.91V163.568C55.9766 163.818 56.0901 164.031 56.2878 164.171C56.2878 164.171 85.3523 186.19 97.6877 195.502C101.166 198.147 105.959 198.147 109.437 195.502C121.773 186.186 150.848 164.171 150.848 164.171C151.046 164.027 151.159 163.814 151.159 163.568V107.91H151.156ZM149.629 107.91V163.194C146.524 165.537 120.118 185.532 108.529 194.294C105.585 196.513 101.536 196.513 98.5921 194.294L57.4887 163.194V107.91C57.4887 105.427 59.5135 103.385 61.9996 103.385H145.133C147.615 103.385 149.629 105.423 149.629 107.91Z" fill="#000045"/>
<path fill-rule="evenodd" clip-rule="evenodd" d="M43.7075 154.678C43.7075 154.678 82.9472 184.375 97.6479 195.477C101.141 198.129 105.981 198.129 109.474 195.477C124.157 184.375 163.415 154.678 163.415 154.678C163.733 154.421 163.806 153.943 163.558 153.609C163.309 153.279 162.829 153.205 162.492 153.462C162.492 153.462 123.252 183.159 108.57 194.261C105.608 196.505 101.514 196.505 98.5522 194.261C83.8699 183.159 44.6302 153.462 44.6302 153.462C44.2933 153.205 43.8137 153.279 43.5647 153.609C43.3157 153.94 43.3706 154.421 43.7075 154.678Z" fill="white"/>
<path fill-rule="evenodd" clip-rule="evenodd" d="M71.3719 122.344H104.57C104.995 122.344 105.335 122.002 105.335 121.576C105.335 121.15 104.995 120.823 104.57 120.823H71.3719C70.9655 120.823 70.625 121.164 70.625 121.576C70.625 121.987 70.9655 122.344 71.3719 122.344Z" fill="#3D61FF"/>
<path fill-rule="evenodd" clip-rule="evenodd" d="M71.3248 135.741H135.188C135.627 135.741 135.971 135.396 135.971 134.955C135.971 134.547 135.627 134.202 135.188 134.202H71.3248C70.9184 134.202 70.5742 134.547 70.5742 134.955C70.5742 135.396 70.9184 135.741 71.3248 135.741Z" fill="#3D61FF"/>
<path fill-rule="evenodd" clip-rule="evenodd" d="M71.3248 149.142H135.188C135.627 149.142 135.971 148.797 135.971 148.356C135.971 147.948 135.627 147.603 135.188 147.603H71.3248C70.9184 147.603 70.5742 147.948 70.5742 148.356C70.5742 148.797 70.9184 149.142 71.3248 149.142Z" fill="#3D61FF"/>
<path fill-rule="evenodd" clip-rule="evenodd" d="M71.3248 162.521H135.188C135.627 162.521 135.971 162.176 135.971 161.735C135.971 161.327 135.627 160.982 135.188 160.982H71.3248C70.9184 160.982 70.5742 161.327 70.5742 161.735C70.5742 162.176 70.9184 162.521 71.3248 162.521Z" fill="#3D61FF"/>
<path fill-rule="evenodd" clip-rule="evenodd" d="M154.74 204.301L158.064 210.303C158.269 210.681 158.731 210.806 159.093 210.604C159.456 210.402 159.595 209.932 159.39 209.572L156.065 203.551C155.86 203.191 155.399 203.048 155.036 203.25C154.674 203.467 154.535 203.922 154.74 204.301Z" fill="#000045"/>
<path fill-rule="evenodd" clip-rule="evenodd" d="M53.0246 98.1647L32.2679 77.3394C31.9713 77.0418 31.4917 77.0418 31.1951 77.3394C30.8985 77.6369 30.8985 78.1182 31.1951 78.4157L51.9518 99.2411C52.2484 99.5386 52.728 99.5386 53.0246 99.2411C53.3212 98.9435 53.3212 98.4623 53.0246 98.1647Z" fill="#3D61FF"/>
<path fill-rule="evenodd" clip-rule="evenodd" d="M61.9842 88.9585L57.8798 73.5883C57.7699 73.1842 57.3562 72.9418 56.9498 73.052C56.547 73.1622 56.3054 73.5773 56.4152 73.9814L60.5197 89.3515C60.6295 89.7593 61.0433 89.9981 61.4497 89.8879C61.8524 89.7777 62.0941 89.3625 61.9842 88.9585Z" fill="#3D61FF"/>
<path fill-rule="evenodd" clip-rule="evenodd" d="M43.1681 106.764L26.6111 102.316C26.2083 102.205 25.7909 102.448 25.6847 102.852C25.5749 103.256 25.8165 103.675 26.2193 103.785L42.7763 108.234C43.1791 108.344 43.5965 108.102 43.7064 107.697C43.8162 107.293 43.5745 106.875 43.1681 106.764Z" fill="#3D61FF"/>
<path fill-rule="evenodd" clip-rule="evenodd" d="M271.265 140.223C272.796 140.417 274.326 140.55 275.842 140.631C276.263 140.664 276.622 140.337 276.64 139.911C276.655 139.484 276.347 139.143 275.923 139.11C274.44 139.044 272.961 138.897 271.445 138.717C271.038 138.65 270.647 138.944 270.599 139.371C270.551 139.778 270.844 140.171 271.265 140.219V140.223ZM285.04 140.417C286.588 140.252 288.119 140.043 289.598 139.764C290.023 139.683 290.301 139.29 290.217 138.882C290.136 138.474 289.745 138.195 289.338 138.261C287.874 138.54 286.391 138.75 284.893 138.897C284.472 138.93 284.179 139.304 284.209 139.731C284.26 140.138 284.633 140.451 285.04 140.417ZM257.85 137.019C259.314 137.541 260.783 138 262.247 138.408C262.639 138.507 263.06 138.276 263.174 137.868C263.287 137.46 263.045 137.053 262.635 136.939C261.222 136.546 259.787 136.09 258.355 135.583C257.963 135.451 257.524 135.664 257.396 136.057C257.249 136.45 257.458 136.891 257.85 137.019ZM298.507 137.413C299.971 136.906 301.403 136.332 302.805 135.73C303.178 135.55 303.358 135.109 303.197 134.716C303.017 134.341 302.578 134.161 302.186 134.323C300.835 134.926 299.433 135.484 298.016 135.972C297.609 136.119 297.415 136.546 297.547 136.953C297.694 137.346 298.115 137.559 298.507 137.413ZM245.346 131.256C246.697 132.038 248.048 132.758 249.399 133.427C249.773 133.621 250.216 133.474 250.41 133.1C250.589 132.725 250.443 132.266 250.069 132.071C248.747 131.417 247.429 130.697 246.097 129.948C245.738 129.735 245.265 129.867 245.068 130.227C244.859 130.587 244.987 131.061 245.346 131.256ZM310.911 131.355C312.215 130.506 313.467 129.606 314.675 128.677C314.998 128.431 315.064 127.957 314.818 127.615C314.558 127.288 314.086 127.222 313.745 127.483C312.574 128.383 311.351 129.246 310.084 130.065C309.74 130.293 309.626 130.767 309.853 131.127C310.08 131.469 310.553 131.586 310.911 131.355ZM233.948 123.662C235.006 124.364 236.064 125.117 237.122 125.9C237.302 126.014 237.467 126.146 237.646 126.26C237.986 126.506 238.459 126.44 238.704 126.094C238.946 125.753 238.865 125.279 238.525 125.033C238.36 124.9 238.199 124.787 238.034 124.658C236.943 123.857 235.856 123.104 234.779 122.402C234.42 122.156 233.948 122.255 233.721 122.615C233.494 122.957 233.589 123.431 233.948 123.662ZM321.478 122.454C322.537 121.311 323.532 120.136 324.473 118.924C324.719 118.597 324.653 118.108 324.331 117.862C324.005 117.601 323.514 117.667 323.269 117.994C322.357 119.17 321.398 120.312 320.373 121.425C320.094 121.738 320.113 122.211 320.42 122.505C320.713 122.784 321.204 122.766 321.478 122.458V122.454ZM170.319 121.848C170.319 121.848 171.689 120.9 174.179 119.625C174.537 119.445 174.698 118.99 174.504 118.611C174.31 118.237 173.853 118.09 173.479 118.27C170.891 119.611 169.455 120.606 169.455 120.606C169.115 120.834 169.016 121.308 169.261 121.653C169.507 122.013 169.979 122.094 170.319 121.848ZM222.015 117.373C223.381 117.913 224.75 118.534 226.134 119.203C226.508 119.383 226.962 119.217 227.141 118.843C227.321 118.468 227.174 118.009 226.801 117.829C225.384 117.142 223.967 116.521 222.583 115.966C222.195 115.805 221.755 115.999 221.605 116.392C221.444 116.767 221.638 117.226 222.015 117.373ZM182.464 116.198C183.815 115.757 185.247 115.331 186.778 114.956C187.184 114.857 187.429 114.434 187.33 114.027C187.232 113.619 186.81 113.373 186.419 113.472C184.841 113.865 183.372 114.306 181.988 114.747C181.582 114.875 181.37 115.32 181.501 115.709C181.633 116.117 182.054 116.33 182.461 116.201L182.464 116.198ZM209.054 113.828C210.504 114.041 211.968 114.317 213.466 114.677C213.872 114.776 214.282 114.515 214.378 114.104C214.458 113.696 214.216 113.288 213.81 113.189C212.279 112.829 210.764 112.554 209.281 112.322C208.856 112.256 208.483 112.55 208.417 112.958C208.351 113.384 208.644 113.759 209.05 113.825L209.054 113.828ZM195.62 113.454C197.07 113.321 198.567 113.241 200.113 113.226C200.519 113.208 200.863 112.866 200.863 112.458C200.848 112.032 200.504 111.69 200.098 111.709C198.52 111.723 196.971 111.808 195.488 111.936C195.063 111.97 194.756 112.344 194.803 112.77C194.836 113.178 195.21 113.49 195.616 113.457L195.62 113.454Z" fill="#000045"/>
<path fill-rule="evenodd" clip-rule="evenodd" d="M176.028 359.427C177.511 359.512 179.041 359.559 180.601 359.574C181.026 359.574 181.366 359.247 181.366 358.825C181.366 358.402 181.026 358.057 180.616 358.057C179.067 358.038 177.569 357.991 176.105 357.91C175.68 357.892 175.321 358.218 175.307 358.626C175.274 359.052 175.6 359.412 176.024 359.427H176.028ZM189.755 359.265C191.252 359.152 192.768 359.005 194.313 358.825C194.738 358.773 195.031 358.398 194.98 357.976C194.932 357.565 194.559 357.256 194.134 357.304C192.618 357.484 191.12 357.631 189.641 357.745C189.216 357.778 188.909 358.138 188.942 358.564C188.975 358.972 189.348 359.298 189.755 359.265ZM162.385 357.664C163.85 357.972 165.366 358.252 166.911 358.498C167.317 358.564 167.709 358.27 167.775 357.858C167.841 357.436 167.548 357.058 167.138 356.995C165.607 356.749 164.143 356.488 162.693 356.176C162.287 356.095 161.88 356.356 161.796 356.764C161.715 357.19 161.975 357.583 162.382 357.664H162.385ZM203.364 357.451C204.829 357.175 206.326 356.863 207.842 356.521C208.249 356.437 208.509 356.029 208.413 355.621C208.333 355.213 207.926 354.953 207.516 355.034C206.019 355.375 204.536 355.669 203.071 355.948C202.665 356.029 202.387 356.422 202.467 356.83C202.548 357.256 202.94 357.517 203.361 357.451H203.364ZM149.197 353.726C150.596 354.284 152.031 354.806 153.528 355.294C153.92 355.427 154.341 355.214 154.473 354.806C154.605 354.413 154.392 353.99 154.001 353.858C152.536 353.369 151.119 352.862 149.768 352.308C149.376 352.157 148.937 352.355 148.776 352.749C148.629 353.138 148.809 353.579 149.201 353.726H149.197ZM216.699 354.332C218.149 353.939 219.614 353.546 221.097 353.138C221.503 353.024 221.745 352.616 221.631 352.209C221.518 351.801 221.097 351.555 220.705 351.669C219.222 352.076 217.757 352.469 216.307 352.844C215.901 352.958 215.656 353.384 215.769 353.777C215.886 354.185 216.293 354.431 216.699 354.332ZM229.869 350.673C231.305 350.265 232.769 349.839 234.234 349.413C234.64 349.284 234.871 348.877 234.757 348.469C234.64 348.057 234.219 347.83 233.813 347.944C232.345 348.37 230.898 348.792 229.448 349.218C229.042 349.332 228.811 349.74 228.928 350.148C229.042 350.559 229.463 350.787 229.869 350.673ZM136.92 347.503C138.172 348.304 139.494 349.071 140.878 349.839C141.252 350.034 141.709 349.887 141.903 349.531C142.116 349.152 141.969 348.697 141.61 348.498C140.241 347.749 138.956 346.996 137.718 346.213C137.359 346 136.887 346.099 136.675 346.459C136.448 346.816 136.561 347.29 136.92 347.503ZM242.977 346.834C244.409 346.408 245.877 345.967 247.324 345.526C247.734 345.412 247.961 344.986 247.847 344.579C247.715 344.186 247.294 343.958 246.903 344.072C245.438 344.512 243.988 344.939 242.538 345.379C242.132 345.493 241.905 345.919 242.033 346.309C242.146 346.72 242.571 346.948 242.977 346.834ZM256.052 342.929C257.502 342.488 258.952 342.062 260.417 341.621C260.805 341.508 261.036 341.081 260.922 340.674C260.805 340.284 260.384 340.053 259.978 340.167C258.528 340.611 257.063 341.034 255.613 341.474C255.221 341.588 254.994 342.014 255.108 342.408C255.221 342.815 255.646 343.043 256.052 342.929ZM125.994 339.076C127.052 340.071 128.191 341.1 129.447 342.128C129.773 342.389 130.26 342.341 130.524 342.014C130.783 341.688 130.736 341.214 130.425 340.953C129.187 339.939 128.063 338.943 127.038 337.981C126.727 337.687 126.258 337.702 125.965 338.014C125.672 338.308 125.687 338.796 125.998 339.076H125.994ZM269.142 339.057C270.592 338.635 272.042 338.209 273.507 337.783C273.898 337.669 274.14 337.246 274.026 336.853C273.913 336.445 273.488 336.214 273.082 336.328C271.617 336.754 270.167 337.162 268.721 337.588C268.311 337.72 268.084 338.143 268.197 338.536C268.311 338.943 268.736 339.171 269.142 339.057ZM282.25 335.299C283.715 334.891 285.165 334.498 286.629 334.091C287.036 333.977 287.281 333.569 287.167 333.161C287.054 332.753 286.629 332.522 286.237 332.621C284.773 333.029 283.308 333.437 281.844 333.848C281.434 333.944 281.207 334.37 281.32 334.778C281.437 335.185 281.844 335.417 282.25 335.299ZM117.057 328.503C117.057 328.503 117.921 329.991 119.744 332.313C120.004 332.64 120.495 332.687 120.817 332.426C121.143 332.166 121.19 331.692 120.931 331.365C119.188 329.142 118.36 327.735 118.36 327.735C118.148 327.379 117.694 327.247 117.335 327.46C116.962 327.673 116.848 328.147 117.057 328.503ZM295.42 331.754C296.889 331.38 298.353 331.005 299.818 330.63C300.224 330.531 300.469 330.123 300.371 329.715C300.272 329.304 299.851 329.062 299.444 329.157C297.98 329.517 296.511 329.892 295.032 330.285C294.622 330.384 294.38 330.81 294.494 331.218C294.589 331.607 295.014 331.853 295.42 331.754ZM308.642 328.503C310.125 328.162 311.604 327.82 313.072 327.493C313.493 327.412 313.738 327.001 313.658 326.593C313.559 326.185 313.167 325.924 312.746 326.005C311.282 326.332 309.799 326.674 308.301 327.019C307.895 327.115 307.65 327.526 307.748 327.934C307.829 328.342 308.235 328.588 308.642 328.503ZM389.106 325.123C390.541 325.597 391.94 326.137 393.309 326.707C393.697 326.872 394.136 326.692 394.301 326.317C394.462 325.924 394.283 325.483 393.895 325.318C392.511 324.716 391.061 324.176 389.596 323.687C389.186 323.54 388.765 323.768 388.633 324.161C388.505 324.55 388.718 324.991 389.106 325.123ZM321.962 325.645C323.46 325.351 324.939 325.076 326.422 324.811C326.846 324.73 327.106 324.341 327.041 323.93C326.96 323.507 326.568 323.246 326.162 323.309C324.664 323.588 323.181 323.867 321.684 324.161C321.259 324.242 320.999 324.635 321.08 325.043C321.164 325.45 321.556 325.726 321.962 325.645ZM335.378 323.342C336.89 323.114 338.391 322.919 339.87 322.721C340.295 322.673 340.588 322.28 340.522 321.872C340.474 321.446 340.097 321.152 339.676 321.219C338.179 321.399 336.677 321.612 335.165 321.839C334.741 321.891 334.466 322.28 334.514 322.688C334.579 323.114 334.971 323.408 335.378 323.342ZM375.95 322.133C377.466 322.346 378.949 322.592 380.413 322.868C380.82 322.952 381.212 322.673 381.292 322.265C381.373 321.858 381.094 321.446 380.688 321.365C379.209 321.09 377.693 320.844 376.162 320.631C375.756 320.565 375.364 320.859 375.317 321.285C375.251 321.692 375.544 322.085 375.95 322.133ZM348.892 321.773C350.404 321.645 351.92 321.545 353.399 321.465C353.824 321.432 354.15 321.072 354.117 320.664C354.102 320.238 353.743 319.914 353.319 319.944C351.821 320.028 350.291 320.124 348.76 320.256C348.335 320.289 348.028 320.664 348.061 321.072C348.108 321.498 348.467 321.806 348.892 321.773ZM362.454 321.237C363.966 321.237 365.482 321.285 366.965 321.351C367.386 321.365 367.745 321.039 367.759 320.616C367.778 320.208 367.452 319.848 367.027 319.83C365.53 319.764 363.999 319.716 362.454 319.716C362.048 319.701 361.703 320.043 361.703 320.469C361.689 320.877 362.029 321.219 362.454 321.237Z" fill="#3D61FF"/>
<path fill-rule="evenodd" clip-rule="evenodd" d="M165.841 322.567C163.479 322.567 161.561 324.495 161.561 326.865C161.561 329.234 163.483 331.174 165.841 331.174C168.199 331.174 170.139 329.249 170.139 326.865C170.139 324.481 168.217 322.567 165.841 322.567ZM165.841 324.087C167.386 324.087 168.623 325.329 168.623 326.865C168.623 328.4 167.386 329.657 165.841 329.657C164.296 329.657 163.073 328.415 163.073 326.865C163.073 325.314 164.31 324.087 165.841 324.087Z" fill="#3D61FF"/>
<path fill-rule="evenodd" clip-rule="evenodd" d="M356.921 205.219C355.065 205.219 353.582 206.725 353.582 208.569C353.582 210.413 355.065 211.919 356.921 211.919C358.778 211.919 360.257 210.413 360.257 208.569C360.257 206.725 358.756 205.219 356.921 205.219ZM356.921 206.743C357.921 206.743 358.737 207.562 358.737 208.565C358.737 209.568 357.921 210.387 356.921 210.387C355.922 210.387 355.083 209.568 355.083 208.565C355.083 207.562 355.9 206.743 356.921 206.743Z" fill="#000045"/>
<path fill-rule="evenodd" clip-rule="evenodd" d="M333.013 172.095L353.074 162.782C353.447 162.602 353.608 162.147 353.447 161.768C353.268 161.375 352.81 161.214 352.437 161.394L332.379 170.721C332.002 170.901 331.841 171.342 332.021 171.735C332.182 172.109 332.639 172.275 333.013 172.095Z" fill="#3D61FF"/>
<path fill-rule="evenodd" clip-rule="evenodd" d="M92.0408 284.237C91.7882 284.094 91.4623 284.108 91.2206 284.292C90.979 284.476 90.8801 284.788 90.9533 285.071L100.598 325.259C100.656 325.487 100.825 325.685 101.037 325.77C101.264 325.869 101.517 325.854 101.718 325.73L118.93 315.767L135.55 309.551C135.817 309.452 136.018 309.195 136.029 308.897C136.059 308.6 135.901 308.317 135.649 308.174L92.0445 284.237H92.0408ZM92.817 286.393C92.817 286.393 126.041 304.64 133.452 308.714L118.33 314.36C118.286 314.375 118.26 314.389 118.216 314.419L101.839 323.911L92.8134 286.393H92.817Z" fill="#000045"/>
<path fill-rule="evenodd" clip-rule="evenodd" d="M344.667 81.6115C344.74 81.3139 344.631 81.0164 344.393 80.8254C344.155 80.6454 343.836 80.6233 343.572 80.7666L306.888 100.905C306.639 101.048 306.486 101.335 306.497 101.632C306.522 101.919 306.713 102.18 306.998 102.29L320.967 107.506L335.433 115.886C335.638 116.007 335.887 116.029 336.114 115.933C336.326 115.838 336.495 115.647 336.542 115.408L344.667 81.6115ZM342.8 82.923L335.305 114.056L321.67 106.154C321.633 106.132 321.596 106.107 321.549 106.096L309.078 101.441L342.8 82.9266V82.923Z" fill="#3D61FF"/>
<path fill-rule="evenodd" clip-rule="evenodd" d="M118.785 314.474L92.9025 285.144C92.6352 284.832 92.1519 284.788 91.8407 285.071C91.5295 285.357 91.4855 285.839 91.7711 286.151L117.654 315.481C117.921 315.793 118.404 315.822 118.716 315.539C119.042 315.271 119.071 314.786 118.785 314.474Z" fill="#000045"/>
<path fill-rule="evenodd" clip-rule="evenodd" d="M322.177 107.231L343.941 82.5555C344.226 82.2469 344.19 81.7694 343.882 81.4828C343.571 81.2073 343.084 81.244 342.81 81.5526L321.035 106.228C320.764 106.54 320.786 107.029 321.108 107.304C321.416 107.58 321.892 107.554 322.177 107.234V107.231Z" fill="#3D61FF"/>
<path fill-rule="evenodd" clip-rule="evenodd" d="M117.258 315.143L112.831 324.224L109.551 320.238C109.283 319.911 108.8 319.867 108.474 320.124C108.148 320.392 108.108 320.873 108.375 321.2L112.407 326.097C112.575 326.295 112.831 326.395 113.084 326.365C113.337 326.339 113.564 326.182 113.677 325.954L118.613 315.807C118.796 315.44 118.642 314.985 118.272 314.801C117.891 314.617 117.437 314.771 117.254 315.143H117.258Z" fill="#000045"/>
<path fill-rule="evenodd" clip-rule="evenodd" d="M321.157 107.495L325.32 116.018C325.441 116.246 325.668 116.411 325.917 116.437C326.177 116.473 326.429 116.363 326.594 116.161L329.984 112.043C330.248 111.72 330.2 111.242 329.878 110.982C329.556 110.706 329.08 110.754 328.82 111.077L326.166 114.288L322.526 106.827C322.336 106.445 321.882 106.29 321.512 106.47C321.131 106.661 320.977 107.113 321.157 107.495Z" fill="#3D61FF"/>
<path fill-rule="evenodd" clip-rule="evenodd" d="M395.803 238.34C395.166 235.956 392.731 234.549 390.351 235.188C381.439 237.583 361.034 243.068 352.115 245.466C349.742 246.106 348.332 248.548 348.969 250.933C350.573 256.939 353.462 267.757 355.066 273.764C355.699 276.14 358.141 277.555 360.514 276.919C369.433 274.52 389.839 269.036 398.75 266.637C401.13 265.998 402.533 263.551 401.899 261.174C400.296 255.165 397.407 244.35 395.803 238.34Z" fill="#000045"/>
<path fill-rule="evenodd" clip-rule="evenodd" d="M348.887 247.858C348.887 247.858 365.466 254.588 372.548 257.457C374.719 258.342 377.216 257.67 378.655 255.815C383.342 249.798 394.289 235.728 394.289 235.728C394.549 235.401 394.487 234.923 394.157 234.666C393.828 234.409 393.348 234.468 393.088 234.795L377.465 254.878C376.44 256.201 374.66 256.678 373.115 256.046L349.455 246.451C349.07 246.297 348.627 246.484 348.47 246.87C348.312 247.259 348.499 247.707 348.887 247.858Z" fill="white"/>
<path fill-rule="evenodd" clip-rule="evenodd" d="M214.732 152.283C214.732 152.283 216.732 163.833 218.998 168.961C218.998 168.961 215.304 180.312 223.099 177.961C223.099 177.961 229.429 196.061 246.312 187.582L249.3 196.535L281.466 190.767L274.278 173.075L258.018 144.341L214.732 152.279V152.283Z" fill="white"/>
<path fill-rule="evenodd" clip-rule="evenodd" d="M214.582 151.534C214.179 151.615 213.908 152.008 213.978 152.415C213.978 152.415 215.959 163.704 218.192 169.012C217.958 169.813 217.335 172.183 217.368 174.354C217.401 176.183 217.958 177.833 219.316 178.6C220.092 179.027 221.165 179.207 222.644 178.88C223.552 181.018 226.928 187.865 233.629 189.97C236.887 190.999 240.937 190.933 245.858 188.648L248.578 196.785C248.695 197.145 249.065 197.358 249.435 197.291L281.601 191.509C281.835 191.476 282.022 191.329 282.139 191.135C282.238 190.94 282.256 190.694 282.172 190.481L274.981 172.789C274.981 172.789 274.948 172.741 274.933 172.708L258.673 143.974C258.523 143.694 258.201 143.551 257.882 143.599L214.582 151.537V151.534ZM215.607 152.889L257.629 145.193C257.629 145.193 272.898 172.197 273.59 173.406L280.407 190.183L249.805 195.671L247.033 187.34C246.967 187.127 246.799 186.965 246.597 186.884C246.392 186.803 246.158 186.803 245.975 186.903C241.138 189.335 237.206 189.515 234.083 188.519C226.76 186.216 223.82 177.722 223.82 177.722C223.684 177.329 223.267 177.12 222.879 177.249C221.586 177.623 220.678 177.623 220.056 177.267C219.133 176.76 218.913 175.57 218.88 174.343C218.847 171.907 219.722 169.196 219.722 169.196C219.788 169.035 219.77 168.836 219.704 168.656C217.789 164.358 216.094 155.505 215.607 152.893V152.889Z" fill="#000045"/>
<path fill-rule="evenodd" clip-rule="evenodd" d="M256.696 153.812C256.696 153.812 252.727 155.891 249.051 160.457C248.791 160.784 248.831 161.262 249.157 161.526C249.494 161.794 249.97 161.739 250.226 161.412C253.672 157.125 257.41 155.16 257.41 155.16C257.776 154.965 257.93 154.506 257.729 154.131C257.527 153.756 257.08 153.617 256.696 153.808V153.812Z" fill="#000045"/>
<path fill-rule="evenodd" clip-rule="evenodd" d="M256.613 159.63C256.613 159.63 254.182 158.124 252.362 157.54C251.952 157.412 251.527 157.632 251.403 158.032C251.275 158.433 251.505 158.863 251.897 158.991C253.581 159.531 255.811 160.927 255.811 160.927C256.174 161.148 256.639 161.037 256.866 160.681C257.074 160.321 256.975 159.854 256.613 159.634V159.63Z" fill="#000045"/>
<path fill-rule="evenodd" clip-rule="evenodd" d="M245.925 154.146C245.925 154.146 246.624 157.349 246.478 162.885C246.478 163.017 246.379 163.146 246.251 163.212C246.119 163.278 245.973 163.245 245.859 163.146C244.783 162.117 242.359 159.553 239.95 155.192C239.95 155.192 223.601 157.544 214.938 153.102L215.495 155.846C215.495 155.846 208.443 152.14 210.072 143.628L206.799 147.092C206.799 147.092 209.402 115.272 239.95 109.097C264.5 104.149 274.678 119.306 274.678 119.306C274.678 119.306 293.905 128.6 287.896 148.139C282.752 164.883 280.328 167.433 276.077 177.002L272.005 177.785L258.528 164.178C258.528 164.178 264.111 159.784 259.974 153.102C257.711 149.458 250.872 147.989 245.925 154.149V154.146Z" fill="#000045"/>
<path fill-rule="evenodd" clip-rule="evenodd" d="M221.661 159.035C221.661 159.035 223.034 157.353 225.985 156.379C226.373 156.251 226.593 155.817 226.461 155.413C226.329 155.024 225.908 154.796 225.502 154.939C222.068 156.074 220.489 158.076 220.489 158.076C220.226 158.414 220.281 158.885 220.607 159.153C220.929 159.421 221.397 159.355 221.661 159.035Z" fill="#000045"/>
<path fill-rule="evenodd" clip-rule="evenodd" d="M237.65 173.627C237.65 173.627 237.016 179.324 230.832 179.655C230.429 179.695 230.107 180.059 230.122 180.456C230.14 180.878 230.502 181.216 230.931 181.172C238.429 180.764 239.162 173.799 239.162 173.799C239.191 173.369 238.898 172.991 238.481 172.947C238.067 172.903 237.682 173.222 237.65 173.627Z" fill="#000045"/>
<path d="M225.78 165.482C226.955 165.32 227.779 164.237 227.621 163.058C227.46 161.878 226.38 161.052 225.205 161.21C224.029 161.368 223.206 162.455 223.363 163.634C223.524 164.814 224.604 165.64 225.78 165.482Z" fill="#000045"/>
<path fill-rule="evenodd" clip-rule="evenodd" d="M237.606 373.247L229.576 269.091V220.74L283.063 213.551L317.059 227.977C323.199 228.598 343.096 306.01 350.078 373.247H237.606Z" fill="white"/>
<path fill-rule="evenodd" clip-rule="evenodd" d="M236.84 373.298C236.873 373.688 237.214 374 237.605 374H350.078C350.29 374 350.502 373.919 350.649 373.754C350.795 373.592 350.861 373.379 350.843 373.166C345.244 319.293 331.353 258.915 322.888 236.602C321.357 232.583 319.991 229.787 318.882 228.417C318.315 227.697 317.743 227.341 317.271 227.242C315.415 226.456 283.355 212.849 283.355 212.849C283.242 212.801 283.095 212.783 282.967 212.801L229.481 219.99C229.107 220.038 228.811 220.365 228.811 220.743V269.098C228.811 269.098 228.814 269.127 228.829 269.146L236.84 373.302V373.298ZM238.305 372.479C237.605 363.479 230.473 270.938 230.341 269.061V221.408C236.221 220.607 279.613 214.777 282.967 214.336C285.684 215.497 316.751 228.663 316.751 228.663C316.832 228.696 316.898 228.711 316.978 228.726C317.092 228.744 317.205 228.843 317.337 228.972C317.597 229.2 317.857 229.545 318.15 229.967C319.109 231.422 320.218 233.858 321.471 237.142C329.874 259.275 343.597 318.981 349.246 372.479H238.305Z" fill="#000045"/>
<path fill-rule="evenodd" clip-rule="evenodd" d="M233.355 208.536C233.355 208.536 232.788 200.631 239.528 196.024C246.284 191.436 287.918 179.626 306.738 186.745C313.786 189.408 315.382 196.252 318.022 206.2C319.406 211.442 318.509 213.095 322.581 220.56C326.634 228.025 320.172 234.593 311.703 234.56C303.237 234.508 281.47 233.27 259.926 225.133C238.386 216.982 233.78 220.968 228.976 223.451C228.976 223.451 225.476 213.062 233.355 208.536Z" fill="#3D61FF"/>
<path fill-rule="evenodd" clip-rule="evenodd" d="M236.609 208.838C236.609 208.838 242.793 207.449 247.634 208.562C248.033 208.654 248.436 208.397 248.527 207.996C248.633 207.578 248.381 207.173 247.96 207.085C242.848 205.899 236.28 207.342 236.28 207.342C235.881 207.434 235.624 207.853 235.716 208.253C235.807 208.672 236.206 208.929 236.609 208.838Z" fill="#000045"/>
<path fill-rule="evenodd" clip-rule="evenodd" d="M316.792 213.984C316.792 213.984 308.77 218.348 289.573 213.929C289.174 213.818 288.757 214.076 288.665 214.494C288.574 214.895 288.826 215.317 289.229 215.405C309.188 219.986 317.521 215.314 317.521 215.314C317.884 215.112 318.012 214.656 317.81 214.292C317.613 213.929 317.159 213.782 316.792 213.984Z" fill="#000045"/>
<path fill-rule="evenodd" clip-rule="evenodd" d="M20.2032 373.996H415.54C415.958 373.996 416.298 373.655 416.298 373.247C416.298 372.839 415.958 372.479 415.54 372.479H20.2032C19.7858 372.479 19.4453 372.821 19.4453 373.247C19.4453 373.673 19.7895 373.996 20.2032 373.996Z" fill="#000045"/>
<path fill-rule="evenodd" clip-rule="evenodd" d="M167.739 223.293C167.739 223.293 164.89 217.136 164.293 213.44C163.696 209.726 161.393 205.674 159.691 203.962C157.988 202.251 155.326 203.962 155.326 203.962C155.326 203.962 147.022 192.674 143.544 187.935C142.709 186.807 141.105 186.568 139.981 187.387C138.82 188.243 138.513 189.852 139.249 191.083C141.995 195.686 148.164 205.965 148.164 205.965C148.164 205.965 144.518 207.247 143.423 210.362C143.423 210.362 139.725 212.312 139.534 215.802C139.534 215.802 137.081 218.216 137.931 221.941C138.784 225.669 143.419 228.869 146.03 230.427C148.637 231.999 151.094 235.063 151.094 235.063L159.054 232.668L167.731 223.293H167.739Z" fill="white"/>
<path fill-rule="evenodd" clip-rule="evenodd" d="M168.284 223.807C168.507 223.583 168.555 223.241 168.419 222.969C168.419 222.969 165.622 216.948 165.043 213.319C164.428 209.454 162.008 205.211 160.218 203.415C159.383 202.577 158.325 202.386 157.373 202.489C156.655 202.559 156.007 202.798 155.564 202.985L144.14 187.487C143.068 186.017 141.002 185.69 139.538 186.785C138.055 187.861 137.663 189.9 138.601 191.472L147.073 205.619C145.879 206.218 143.73 207.57 142.811 209.825C141.94 210.373 139.128 212.342 138.787 215.472C138.172 216.192 136.418 218.635 137.202 222.11C137.575 223.733 138.582 225.258 139.864 226.606C141.672 228.542 144.041 230.114 145.641 231.088C148.164 232.594 150.519 235.536 150.519 235.536C150.705 235.775 151.031 235.878 151.32 235.794L159.28 233.398C159.401 233.365 159.518 233.277 159.621 233.193L168.28 223.803L168.284 223.807ZM166.834 223.138L158.651 231.999L151.372 234.188C150.588 233.299 148.56 231.058 146.429 229.776C144.913 228.869 142.679 227.381 140.955 225.567C139.882 224.42 138.996 223.138 138.688 221.772C137.938 218.488 140.069 216.331 140.069 216.331C140.204 216.195 140.274 216.023 140.292 215.835C140.464 212.738 143.789 211.027 143.789 211.027C143.957 210.942 144.096 210.788 144.148 210.6C145.136 207.812 148.41 206.684 148.41 206.684C148.633 206.6 148.801 206.427 148.871 206.222C148.955 206.001 148.94 205.759 148.82 205.571L139.904 190.69C139.358 189.801 139.596 188.636 140.431 188.004C141.233 187.424 142.357 187.593 142.936 188.379L154.718 204.407C154.956 204.73 155.385 204.818 155.725 204.613C155.725 204.613 156.56 204.098 157.534 203.995C158.079 203.944 158.676 204.014 159.152 204.491C160.789 206.133 162.989 210.016 163.55 213.558C164.062 216.706 166.157 221.614 166.841 223.135L166.834 223.138Z" fill="#000045"/>
<path fill-rule="evenodd" clip-rule="evenodd" d="M176.256 229.839C178.518 229.887 179.983 230.574 181.66 232.176C186.332 236.668 195.712 246.712 210.933 267.346C210.933 267.346 221.255 232.076 228.761 223.793C236.267 215.527 265.738 227.47 258.411 259.716C251.099 291.977 239.049 321.726 218.812 322.199C198.557 322.673 184.377 303.758 169.577 282.83C154.759 261.906 152.416 249.423 153.899 245.128C153.899 245.128 153.95 244.948 154.093 244.64C153.686 243.806 152.284 241.569 151.131 239.379C150.073 237.352 150.431 234.868 152.009 233.219C154.712 230.427 159.695 226.081 166.941 223.025C168.471 222.389 170.247 222.815 171.32 224.086C173.304 226.39 176.252 229.839 176.252 229.839H176.256Z" fill="white"/>
<path fill-rule="evenodd" clip-rule="evenodd" d="M176.613 229.086C175.895 228.252 173.566 225.508 171.889 223.583C170.604 222.081 168.488 221.574 166.646 222.323C159.287 225.427 154.208 229.854 151.455 232.697C149.646 234.574 149.24 237.403 150.463 239.721C151.488 241.697 152.725 243.692 153.264 244.669C153.216 244.802 153.183 244.868 153.183 244.882C152.564 246.697 152.55 249.867 153.787 254.441C155.578 261.024 160.008 270.612 168.96 283.271C176.386 293.792 183.679 303.788 191.639 311.109C199.716 318.522 208.507 323.195 218.829 322.967C227.152 322.773 234.152 317.806 239.996 309.735C248.593 297.91 254.748 279.351 259.16 259.896C264.403 236.749 251.086 223.844 240.047 221.081C235.112 219.84 230.601 220.641 228.191 223.289C225.914 225.802 223.34 230.802 220.898 236.551C216.259 247.498 211.975 261.237 210.642 265.678C195.908 245.815 186.791 236.047 182.182 231.636C180.439 229.968 178.894 229.2 176.613 229.086ZM175.686 230.328C175.833 230.493 176.03 230.589 176.239 230.589C178.29 230.64 179.608 231.276 181.138 232.73C185.796 237.205 195.14 247.237 210.316 267.802C210.496 268.029 210.77 268.147 211.067 268.095C211.345 268.048 211.572 267.835 211.653 267.555C211.653 267.555 216.702 250.323 222.304 237.157C224.662 231.588 227.104 226.75 229.319 224.318C231.421 221.996 235.375 221.475 239.674 222.555C250.193 225.181 262.682 237.532 257.684 259.555C253.32 278.797 247.279 297.142 238.78 308.853C233.244 316.483 226.665 321.252 218.785 321.446C208.87 321.678 200.438 317.119 192.668 309.981C184.77 302.726 177.557 292.811 170.198 282.389C161.388 269.943 157.009 260.517 155.252 254.033C154.113 249.9 154.047 247.006 154.618 245.375C154.618 245.375 154.666 245.209 154.798 244.934C154.878 244.735 154.864 244.508 154.783 244.313C154.377 243.461 152.974 241.224 151.803 239.019C150.906 237.289 151.199 235.162 152.553 233.759C155.208 230.996 160.125 226.735 167.239 223.73C168.477 223.223 169.876 223.565 170.754 224.579C172.743 226.882 175.686 230.328 175.686 230.328Z" fill="#000045"/>
<path fill-rule="evenodd" clip-rule="evenodd" d="M210.281 267.728C210.281 267.728 216.139 277.713 218.523 289.615C218.596 290.015 218.995 290.291 219.416 290.217C219.816 290.126 220.086 289.725 219.999 289.321C217.578 277.147 211.592 266.96 211.592 266.96C211.372 266.597 210.918 266.468 210.556 266.688C210.193 266.905 210.065 267.361 210.281 267.728Z" fill="#000045"/>
<path fill-rule="evenodd" clip-rule="evenodd" d="M157.808 243.468C157.808 243.468 167.049 234.541 173.182 232.66C173.581 232.532 173.819 232.113 173.691 231.713C173.563 231.308 173.145 231.092 172.746 231.202C166.379 233.153 156.753 242.373 156.753 242.373C156.46 242.663 156.445 243.156 156.735 243.45C157.028 243.758 157.5 243.758 157.808 243.468Z" fill="#000045"/>
</g>
<defs>
<clipPath id="clip0_4774_4024">
<rect width="447" height="374" fill="white"/>
</clipPath>
</defs>
</svg>
