<svg width="1918" height="688" viewBox="0 0 1918 688" fill="none" xmlns="http://www.w3.org/2000/svg">
<g opacity="0.8">
<mask id="mask0_4815_2543" style="mask-type:luminance" maskUnits="userSpaceOnUse" x="418" y="532" width="109" height="109">
<path d="M526.19 532.273H418.514V640.063H526.19V532.273Z" fill="white"/>
</mask>
<g mask="url(#mask0_4815_2543)">
<path d="M551.101 587.802L548.988 589.917L543.803 595.108L538.617 600.299L533.432 605.49L528.246 610.681L523.061 615.872L517.875 621.063L512.689 626.254L507.504 631.445L497.37 641.59L497.121 641.838L491.936 647.029L486.75 652.22L481.565 657.411L476.379 662.602L474.029 664.955C474.357 664.955 474.685 664.944 475.012 664.932L477.611 662.331L482.796 657.14L487.982 651.949L493.167 646.758L498.353 641.567L503.538 636.376L508.724 631.185L513.91 625.994L519.095 620.803L524.281 615.612L529.466 610.421L534.652 605.23L539.837 600.039L545.023 594.848L550.208 589.657L551.056 588.809C551.056 588.481 551.078 588.153 551.078 587.825L551.101 587.802Z" fill="#373854"/>
<path d="M550.796 593.299L548.988 595.108L543.802 600.299L538.617 605.49L533.431 610.681L523.297 620.826L523.049 621.074L517.863 626.265L512.678 631.456L507.492 636.647L502.307 641.838L497.121 647.029L491.936 652.22L486.75 657.411L481.564 662.602L479.52 664.649C479.87 664.616 480.22 664.593 480.57 664.548L487.733 657.378L487.981 657.129L493.167 651.938L498.352 646.747L503.538 641.556L508.724 636.365L513.909 631.174L519.095 625.983L524.28 620.792L529.466 615.601L534.651 610.41L539.837 605.219L545.023 600.028L550.208 594.837L550.683 594.362C550.716 594.011 550.75 593.66 550.784 593.31L550.796 593.299Z" fill="#373854"/>
<path d="M508.859 656.054C509.559 655.681 510.26 655.308 510.96 654.912L513.886 651.983L519.072 646.792L524.257 641.601L529.443 636.41L534.629 631.219L539.814 626.028L540.989 624.852C541.385 624.162 541.757 623.461 542.13 622.748L538.583 626.299L533.397 631.49L523.263 641.635L523.015 641.884L517.829 647.075L512.644 652.266L508.848 656.066L508.859 656.054Z" fill="#373854"/>
<path d="M499.527 660.205C500.047 660.013 500.555 659.82 501.075 659.617L503.515 657.174L508.701 651.983L513.886 646.792L519.072 641.601L524.258 636.41L529.443 631.219L534.629 626.028L539.814 620.837L545 615.646L545.689 614.956C545.892 614.447 546.084 613.927 546.276 613.407L543.768 615.917L538.583 621.108L533.397 626.299L528.212 631.49L523.026 636.681L517.841 641.872L512.655 647.063L507.469 652.254L499.527 660.205Z" fill="#373854"/>
<path d="M498.318 657.174L503.504 651.983L508.69 646.792L513.875 641.601L519.061 636.41L524.246 631.219L529.432 626.028L534.617 620.837L539.803 615.646L544.988 610.455L548.253 607.187C548.378 606.746 548.491 606.316 548.604 605.875L543.746 610.738L538.56 615.929L533.375 621.12L528.189 626.311L523.003 631.502L517.818 636.693L512.632 641.884L507.447 647.075L502.261 652.266L497.076 657.457L491.98 662.557C492.421 662.444 492.85 662.32 493.291 662.207L498.307 657.185L498.318 657.174Z" fill="#373854"/>
<path d="M493.133 657.174L498.319 651.983L503.505 646.792L513.638 636.647L513.887 636.399L519.073 631.208L524.258 626.017L534.641 615.623L539.826 610.432L545.012 605.241L549.813 600.435C549.881 600.05 549.949 599.666 550.016 599.281L546.379 602.923L543.78 605.524L538.595 610.715L533.409 615.906L528.224 621.097L523.038 626.288L517.852 631.479L512.667 636.67L507.481 641.861L502.296 647.052L497.11 652.243L491.925 657.434L486.739 662.625L485.451 663.914C485.835 663.846 486.219 663.79 486.604 663.711L487.971 662.342L493.156 657.151L493.133 657.174Z" fill="#373854"/>
<path d="M422.976 524.764C418.57 528.315 414.559 532.33 411.012 536.741L415.271 532.477L420.456 527.286L422.976 524.764Z" fill="#373854"/>
<path d="M550.062 573.247L548.988 574.322L543.803 579.513L538.617 584.704L533.432 589.895L528.246 595.086L523.061 600.277L517.875 605.468L512.69 610.659L507.504 615.85L502.318 621.041L497.133 626.232L491.947 631.423L486.762 636.614L481.576 641.805L476.391 646.996L471.205 652.187L466.02 657.378L460.834 662.569L459.523 663.881C459.795 663.926 460.066 663.971 460.348 664.016L467.262 657.095L472.448 651.904L477.633 646.713L487.767 636.568L488.016 636.32L493.201 631.129L498.387 625.938L503.572 620.747L508.758 615.556L513.944 610.365L519.129 605.174L524.315 599.983L529.5 594.792L534.686 589.601L539.871 584.41L545.057 579.219L550.22 574.05C550.175 573.779 550.13 573.507 550.084 573.225L550.062 573.247Z" fill="#373854"/>
<path d="M550.683 577.827L548.988 579.524L543.803 584.715L538.617 589.906L533.432 595.097L525.648 602.889L523.049 605.49L517.864 610.681L512.678 615.872L507.493 621.063L502.307 626.254L497.121 631.445L491.936 636.636L486.75 641.827L481.565 647.018L476.379 652.209L471.194 657.4L466.008 662.591L464.076 664.525C464.37 664.559 464.664 664.582 464.946 664.616L467.239 662.32L472.425 657.129L477.611 651.938L482.796 646.747L487.982 641.556L493.167 636.365L498.353 631.174L503.538 625.983L513.921 615.589L519.106 610.398L524.292 605.207L532.686 596.805L534.674 594.825L539.86 589.634L545.045 584.443L550.231 579.252L550.773 578.71C550.751 578.415 550.717 578.121 550.683 577.839V577.827Z" fill="#373854"/>
<path d="M551.045 582.668L549.001 584.715L543.815 589.906L538.63 595.097L533.444 600.288L528.258 605.479L523.073 610.67L517.887 615.861L512.702 621.052L507.516 626.243L502.331 631.434L497.145 636.625L491.959 641.816L486.774 647.007L481.588 652.198L471.206 662.591L468.924 664.876C469.229 664.887 469.534 664.898 469.85 664.91L472.449 662.309L477.634 657.118L482.82 651.927L488.005 646.736L493.191 641.545L498.376 636.354L503.562 631.163L508.748 625.972L513.933 620.781L519.119 615.59L524.304 610.399L529.49 605.208L534.675 600.017L539.861 594.826L545.046 589.635L550.232 584.444L551.079 583.595C551.079 583.29 551.057 582.973 551.045 582.668Z" fill="#373854"/>
<path d="M543.995 553.354L543.803 553.546L538.618 558.737L533.432 563.928L528.246 569.119L523.061 574.31L517.875 579.501L512.69 584.692L507.504 589.883L502.319 595.074L497.133 600.265L491.947 605.456L486.762 610.647L481.576 615.838L476.391 621.029L471.205 626.22L466.02 631.411L460.834 636.602L455.649 641.793L450.463 646.984L445.277 652.175L440.092 657.366L439.674 657.785C439.888 657.887 440.114 657.988 440.329 658.09L441.075 657.344L441.323 657.095L446.509 651.904L451.694 646.713L456.88 641.522L462.066 636.331L467.251 631.14L472.437 625.949L477.622 620.758L482.808 615.567L487.993 610.376L493.179 605.185L498.364 599.994L503.55 594.803L508.736 589.612L513.921 584.421L519.107 579.23L524.292 574.039L529.478 568.848L534.663 563.657L539.849 558.466L544.289 554.021C544.187 553.806 544.085 553.58 543.995 553.365V553.354Z" fill="#373854"/>
<path d="M545.814 557.674C545.724 557.448 545.633 557.211 545.543 556.984L543.803 558.726L538.618 563.917L533.432 569.108L528.246 574.299L523.061 579.49L517.875 584.681L512.69 589.872L507.504 595.063L499.72 602.855L497.122 605.456L491.936 610.647L486.751 615.838L481.565 621.029L476.379 626.22L471.194 631.411L466.008 636.602L460.823 641.793L455.637 646.984L450.452 652.175L445.266 657.366L443.289 659.346C443.515 659.436 443.752 659.527 443.978 659.617L446.509 657.084L451.694 651.893L456.88 646.702L467.262 636.308L472.448 631.117L477.634 625.926L488.016 615.533L493.201 610.342L498.387 605.151L503.573 599.96L508.758 594.769L513.944 589.578L519.129 584.387L524.315 579.196L529.5 574.005L534.686 568.814L539.872 563.623L545.057 558.432L545.837 557.652L545.814 557.674Z" fill="#373854"/>
<path d="M538.46 543.3L533.421 548.344L528.236 553.535L523.05 558.726L517.864 563.917L512.679 569.108L507.493 574.299L502.308 579.49L497.122 584.681L491.937 589.872L486.751 595.063L481.566 600.254L476.38 605.445L471.194 610.636L466.009 615.827L460.823 621.018L455.638 626.209L450.452 631.4L445.267 636.591L440.081 641.782L434.896 646.973L429.71 652.164L429.631 652.243C429.823 652.368 430.015 652.492 430.207 652.616L430.941 651.881L436.127 646.69L441.312 641.499L446.498 636.308L451.684 631.117L456.869 625.926L467.252 615.533L472.437 610.342L477.623 605.151L486.017 596.748L487.994 594.769L493.179 589.578L498.365 584.387L503.551 579.196L508.736 574.005L513.922 568.814L519.107 563.623L524.293 558.432L529.478 553.241L534.664 548.05L538.844 543.865C538.72 543.673 538.595 543.481 538.471 543.289L538.46 543.3Z" fill="#373854"/>
<path d="M540.797 547.122C540.684 546.919 540.56 546.715 540.447 546.512L538.617 548.344L533.431 553.535L528.245 558.726L523.06 563.917L517.874 569.108L512.689 574.299L507.503 579.49L502.318 584.681L497.132 589.872L491.946 595.063L486.761 600.254L481.575 605.445L476.39 610.636L471.204 615.827L466.019 621.018L460.833 626.209L455.648 631.4L450.462 636.591L445.276 641.782L440.091 646.973L434.905 652.164L432.838 654.234C433.041 654.347 433.245 654.471 433.448 654.584L436.137 651.893L441.322 646.702L446.508 641.511L451.693 636.32L456.879 631.129L462.065 625.938L467.25 620.747L472.436 615.556L477.621 610.365L482.807 605.173L487.992 599.982L493.178 594.791L498.363 589.6L503.549 584.409L508.735 579.218L513.92 574.027L519.106 568.836L524.291 563.645L529.477 558.454L534.662 553.263L539.848 548.072L540.797 547.122Z" fill="#373854"/>
<path d="M532.211 534.931C532.064 534.761 531.917 534.592 531.77 534.411L528.234 537.951L523.049 543.142L517.863 548.333L512.677 553.524L507.492 558.715L502.306 563.906L497.121 569.097L491.935 574.288L486.75 579.479L481.564 584.67L476.379 589.861L471.193 595.052L466.007 600.243L460.822 605.434L455.636 610.625L450.451 615.816L445.265 621.007L440.08 626.198L434.894 631.389L424.512 641.782L420.738 645.559C420.908 645.706 421.077 645.853 421.258 646.001L425.743 641.511L430.929 636.32L436.114 631.129L441.3 625.938L446.485 620.747L451.671 615.556L456.856 610.365L462.042 605.174L467.228 599.983L472.413 594.792L477.599 589.601L482.784 584.41L487.97 579.219L493.155 574.028L498.341 568.837L503.526 563.646L508.712 558.455L513.898 553.264L519.083 548.073L524.269 542.882L529.454 537.691L532.2 534.942L532.211 534.931Z" fill="#373854"/>
<path d="M529.761 532.194C529.602 532.025 529.456 531.866 529.297 531.697L528.235 532.76L523.05 537.951L517.864 543.142L512.679 548.333L507.493 553.524L502.308 558.715L497.122 563.906L491.937 569.097L486.751 574.288L481.565 579.479L476.38 584.67L471.194 589.861L466.009 595.052L460.823 600.243L455.638 605.434L450.452 610.625L445.267 615.816L440.081 621.007L434.895 626.198L429.71 631.389L424.524 636.58L419.339 641.771L418.051 643.06C418.209 643.218 418.378 643.365 418.548 643.524L420.581 641.488L425.767 636.297L430.953 631.106L436.138 625.915L441.324 620.724L446.509 615.533L451.695 610.342L456.88 605.151L466.879 595.142L467.263 594.758L472.448 589.567L477.634 584.376L482.819 579.185L488.005 573.994L493.191 568.803L498.376 563.612L503.562 558.421L508.747 553.23L513.933 548.039L519.118 542.848L524.304 537.657L529.49 532.466L529.783 532.172L529.761 532.194Z" fill="#373854"/>
<path d="M534.55 537.792C534.415 537.611 534.268 537.43 534.132 537.261L533.432 537.962L528.246 543.153L523.061 548.344L517.875 553.535L512.689 558.726L507.504 563.917L502.318 569.108L497.133 574.299L491.947 579.49L486.762 584.681L481.576 589.872L476.391 595.063L471.205 600.254L466.019 605.445L460.834 610.636L450.7 620.781L450.451 621.029L445.266 626.22L440.08 631.411L434.895 636.602L429.709 641.793L424.524 646.984L423.586 647.923C423.767 648.07 423.947 648.206 424.128 648.341L425.766 646.702L430.952 641.511L436.137 636.32L441.323 631.129L446.509 625.938L451.694 620.747L456.88 615.556L462.065 610.365L467.251 605.174L472.436 599.983L477.622 594.792L482.808 589.601L487.993 584.41L493.179 579.219L498.364 574.028L503.55 568.837L508.735 563.646L513.921 558.455L519.106 553.264L524.292 548.073L529.478 542.882L534.561 537.792H534.55Z" fill="#373854"/>
<path d="M527.185 529.57C527.027 529.412 526.868 529.254 526.699 529.095L523.039 532.76L517.853 537.951L512.667 543.142L507.482 548.333L502.296 553.524L497.111 558.715L491.925 563.906L486.74 569.097L481.554 574.288L476.369 579.479L471.183 584.67L465.997 589.861L460.812 595.052L453.028 602.844L450.429 605.445L445.244 610.636L440.058 615.827L434.873 621.018L429.687 626.209L424.502 631.4L419.316 636.591L415.43 640.482C415.588 640.64 415.746 640.81 415.904 640.968L420.547 636.32L425.733 631.129L430.919 625.938L441.301 615.544L446.487 610.353L451.672 605.162L456.858 599.971L462.043 594.78L467.229 589.589L472.414 584.398L477.6 579.207L482.785 574.016L487.971 568.825L493.157 563.634L498.342 558.443L503.528 553.252L508.713 548.061L513.899 542.87L519.084 537.679L524.27 532.488L527.173 529.582L527.185 529.57Z" fill="#373854"/>
<path d="M481.508 511.973L476.322 517.164L471.137 522.355L465.951 527.546L460.766 532.737L455.58 537.928L450.394 543.119L445.209 548.31L440.023 553.501L434.838 558.692L429.652 563.883L424.467 569.074L419.281 574.265L414.096 579.456L408.91 584.647L403.724 589.838L398.539 595.029L394.709 598.863C394.754 599.134 394.799 599.417 394.845 599.688L399.77 594.758L404.956 589.567L410.141 584.376L415.327 579.185L420.513 573.994L425.698 568.803L430.884 563.611L436.069 558.42L441.255 553.229L446.44 548.038L451.626 542.847L456.811 537.656L461.997 532.465L467.183 527.274L472.368 522.083L477.554 516.892L482.739 511.701L485.925 508.512C485.654 508.467 485.383 508.422 485.1 508.376L481.497 511.984L481.508 511.973Z" fill="#373854"/>
<path d="M476.323 511.973L471.137 517.164L465.952 522.355L460.766 527.546L455.581 532.737L450.395 537.928L445.21 543.119L440.024 548.31L434.838 553.501L429.653 558.692L424.467 563.883L419.282 569.074L414.096 574.265L408.911 579.456L403.725 584.647L398.54 589.838L394.1 594.283C394.134 594.565 394.167 594.859 394.201 595.142L394.585 594.758L399.771 589.567L404.957 584.376L410.142 579.185L415.328 573.994L420.513 568.803L425.699 563.612L430.884 558.421L436.07 553.23L441.255 548.039L446.441 542.848L451.627 537.657L456.812 532.466L461.998 527.275L467.183 522.084L472.369 516.893L477.554 511.702L481.396 507.856C481.113 507.822 480.819 507.789 480.537 507.755L476.323 511.973Z" fill="#373854"/>
<path d="M471.127 511.973L465.941 517.164L460.756 522.355L455.57 527.546L450.384 532.737L445.199 537.928L440.013 543.119L434.828 548.31L429.642 553.501L424.457 558.692L419.271 563.883L414.086 569.074L408.9 574.265L403.714 579.456L398.529 584.647L393.75 589.431C393.761 589.736 393.773 590.042 393.795 590.347L394.586 589.555L399.772 584.364L404.957 579.173L410.143 573.982L415.328 568.791L420.514 563.6L425.699 558.409L430.885 553.218L436.071 548.027L441.256 542.836L446.442 537.645L451.627 532.454L456.813 527.263L461.998 522.072L467.184 516.881L472.369 511.69L476.617 507.438C476.312 507.427 476.007 507.415 475.702 507.393L471.138 511.962L471.127 511.973Z" fill="#373854"/>
<path d="M465.941 511.973L460.755 517.164L455.569 522.355L450.384 527.546L445.198 532.737L440.013 537.928L434.827 543.119L429.642 548.31L424.456 553.501L419.271 558.692L414.085 563.883L408.899 569.074L403.714 574.265L398.528 579.456L393.693 584.296C393.693 584.624 393.693 584.941 393.682 585.269L394.574 584.376L399.76 579.185L404.945 573.994L410.131 568.803L415.316 563.612L420.502 558.421L425.688 553.23L430.873 548.039L436.059 542.848L441.244 537.657L446.43 532.466L451.615 527.275L456.801 522.084L461.986 516.893L467.172 511.702L471.522 507.347C471.194 507.347 470.878 507.347 470.55 507.359L465.941 511.973Z" fill="#373854"/>
<path d="M455.559 511.973L450.373 517.164L445.188 522.355L440.002 527.546L434.816 532.737L429.631 537.928L424.445 543.119L419.26 548.31L414.074 553.501L408.889 558.692L403.703 563.883L398.517 569.074L394.778 572.806C394.71 573.191 394.642 573.575 394.586 573.96L399.749 568.791L404.934 563.6L410.12 558.409L415.306 553.218L420.491 548.027L425.677 542.836L430.862 537.645L436.048 532.454L441.233 527.263L446.419 522.072L451.605 516.881L456.79 511.69L460.213 508.263C459.829 508.32 459.445 508.388 459.061 508.456L455.547 511.973H455.559Z" fill="#373854"/>
<path d="M456.79 662.377L461.975 657.186L467.161 651.995L472.347 646.803L477.532 641.612L482.718 636.421L487.903 631.23L493.089 626.039L498.274 620.848L503.46 615.657L508.646 610.466L513.831 605.275L519.017 600.084L524.202 594.893L529.388 589.702L534.573 584.511L539.759 579.32L544.944 574.129L549.294 569.775C549.238 569.515 549.181 569.255 549.125 568.984L548.899 569.21L543.713 574.401L538.527 579.592L533.342 584.783L528.156 589.974L522.971 595.165L517.785 600.356L512.6 605.547L507.414 610.738L497.28 620.882L497.032 621.131L491.846 626.322L486.661 631.513L481.475 636.704L476.289 641.895L471.104 647.086L465.918 652.277L460.733 657.468L455.547 662.659L455.084 663.123C455.344 663.179 455.604 663.236 455.875 663.293L456.79 662.377Z" fill="#373854"/>
<path d="M456.789 657.174L461.975 651.983L467.16 646.792L472.346 641.601L477.531 636.41L482.717 631.219L487.903 626.028L493.088 620.837L498.274 615.646L503.459 610.455L508.645 605.264L513.83 600.073L519.016 594.882L524.201 589.691L529.387 584.5L534.573 579.309L539.758 574.118L544.944 568.927L548.288 565.58C548.22 565.331 548.152 565.071 548.084 564.822L543.712 569.199L538.527 574.39L533.341 579.581L528.156 584.772L522.97 589.963L517.785 595.154L512.599 600.345L507.413 605.536L502.228 610.727L497.042 615.918L491.857 621.109L486.671 626.3L481.486 631.491L471.103 641.884L465.918 647.075L460.732 652.266L450.926 662.082C451.174 662.15 451.423 662.218 451.683 662.286L456.778 657.185L456.789 657.174Z" fill="#373854"/>
<path d="M451.604 657.174L456.789 651.983L461.975 646.792L467.16 641.601L472.346 636.41L477.531 631.219L482.717 626.028L487.902 620.837L493.088 615.646L498.274 610.455L503.459 605.264L511.853 596.861L513.83 594.882L519.016 589.691L524.201 584.5L529.387 579.309L534.573 574.118L539.758 568.927L544.944 563.736L547.09 561.587C547.011 561.35 546.932 561.101 546.853 560.864L543.712 564.008L538.527 569.199L533.341 574.39L528.156 579.581L522.97 584.772L517.784 589.963L512.599 595.154L507.413 600.345L502.228 605.536L497.042 610.727L491.857 615.918L486.671 621.109L481.485 626.3L476.3 631.491L471.114 636.682L465.929 641.873L460.743 647.064L455.558 652.255L450.372 657.446L446.994 660.827C447.231 660.906 447.48 660.985 447.717 661.065L451.615 657.163L451.604 657.174Z" fill="#373854"/>
<path d="M446.373 511.735C445.876 511.905 445.379 512.086 444.882 512.278L439.99 517.175L434.805 522.366L429.619 527.557L424.434 532.748L419.248 537.939L414.062 543.13L408.877 548.321L403.691 553.512L398.574 558.635C398.393 559.133 398.212 559.631 398.031 560.128L399.726 558.432L404.911 553.241L410.097 548.05L415.283 542.859L420.468 537.668L425.654 532.477L430.839 527.286L436.025 522.095L441.21 516.904L446.362 511.747L446.373 511.735Z" fill="#373854"/>
<path d="M441.222 651.983L446.407 646.792L451.593 641.601L456.778 636.41L461.964 631.219L467.149 626.028L472.335 620.837L477.52 615.646L482.706 610.455L487.892 605.264L493.077 600.073L498.263 594.882L503.448 589.691L508.634 584.5L513.819 579.309L519.005 574.118L524.191 568.927L529.376 563.736L534.562 558.545L539.747 553.354L542.515 550.583C542.402 550.368 542.3 550.165 542.187 549.95L538.516 553.625L533.33 558.817L528.145 564.008L522.959 569.199L517.774 574.39L512.588 579.581L507.402 584.772L502.217 589.963L497.031 595.154L491.846 600.345L486.66 605.536L481.475 610.727L471.092 621.12L465.907 626.311L460.721 631.502L450.587 641.646L450.339 641.895L445.153 647.086L439.968 652.277L436.059 656.19C436.273 656.303 436.477 656.405 436.691 656.518L441.199 652.006L441.222 651.983Z" fill="#373854"/>
<path d="M435.449 516.519L434.793 517.175L429.608 522.366L424.422 527.557L419.237 532.748L414.051 537.939L408.866 543.13L403.68 548.321L402.81 549.192C402.46 549.848 402.132 550.504 401.805 551.16L404.923 548.038L410.108 542.847L415.294 537.656L420.479 532.465L425.665 527.274L430.851 522.083L436.036 516.892L437.414 515.513C436.748 515.841 436.093 516.18 435.449 516.519Z" fill="#373854"/>
<path d="M430.84 646.781L440.974 636.636L441.222 636.388L446.408 631.197L451.594 626.006L456.779 620.815L461.965 615.624L467.15 610.433L472.336 605.242L477.521 600.051L482.707 594.86L487.893 589.669L493.078 584.478L498.264 579.286L503.449 574.096L508.635 568.904L513.82 563.713L519.006 558.522L524.191 553.331L529.377 548.14L534.563 542.949L536.664 540.846C536.528 540.654 536.404 540.473 536.268 540.292L533.331 543.232L528.146 548.423L522.96 553.614L517.774 558.805L512.589 563.996L507.403 569.187L502.218 574.378L497.032 579.569L491.847 584.76L486.661 589.951L481.476 595.142L471.093 605.536L465.908 610.727L460.722 615.918L455.536 621.109L450.351 626.3L445.165 631.491L439.98 636.682L434.794 641.873L429.609 647.064L426.445 650.23C426.626 650.366 426.818 650.502 426.999 650.626L430.84 646.781Z" fill="#373854"/>
<path d="M412.865 637.835C413.012 638.005 413.17 638.174 413.317 638.344L415.272 636.387L420.457 631.196L425.643 626.005L430.828 620.814L436.014 615.623L441.199 610.432L446.385 605.241L451.571 600.05L456.756 594.859L461.942 589.668L467.127 584.477L472.313 579.286L477.498 574.095L482.684 568.904L487.869 563.713L493.055 558.522L498.241 553.331L503.426 548.14L508.612 542.949L513.797 537.758L518.983 532.567L524.168 527.376L524.383 527.161C524.214 527.014 524.044 526.856 523.875 526.709L522.937 527.648L517.751 532.839L512.566 538.03L507.38 543.221L502.195 548.412L497.009 553.603L491.824 558.794L486.638 563.985L481.452 569.176L476.267 574.367L471.081 579.558L465.896 584.749L460.71 589.94L455.525 595.131L450.339 600.322L445.154 605.513L439.968 610.704L434.782 615.895L429.597 621.086L424.411 626.277L419.226 631.468L414.04 636.659L412.877 637.824L412.865 637.835Z" fill="#373854"/>
<path d="M408.289 632.033C408.425 632.214 408.56 632.406 408.696 632.587L410.085 631.196L415.271 626.005L420.456 620.814L425.642 615.623L430.828 610.432L436.013 605.241L441.199 600.05L446.384 594.859L451.57 589.668L456.755 584.477L461.941 579.286L467.127 574.095L472.312 568.904L477.498 563.713L482.683 558.522L487.869 553.331L493.054 548.14L498.24 542.949L503.425 537.758L508.611 532.567L513.797 527.376L518.632 522.536C518.451 522.4 518.259 522.264 518.078 522.129L517.751 522.457L512.565 527.648L507.38 532.839L502.194 538.03L497.008 543.221L491.823 548.412L486.637 553.603L481.452 558.794L476.266 563.985L471.081 569.176L465.895 574.367L460.71 579.558L455.524 584.749L450.338 589.94L445.153 595.131L439.967 600.322L434.782 605.513L429.596 610.704L424.411 615.895L419.225 621.086L414.04 626.277L408.854 631.468L408.3 632.022L408.289 632.033Z" fill="#373854"/>
<path d="M410.074 626.005L420.457 615.612L425.642 610.421L430.828 605.23L439.222 596.827L441.199 594.848L446.384 589.657L451.57 584.466L456.756 579.275L461.941 574.084L467.127 568.893L472.312 563.702L477.498 558.511L482.683 553.32L487.869 548.129L493.055 542.938L498.24 537.747L503.426 532.556L508.611 527.365L513.797 522.174L515.57 520.398C515.378 520.274 515.186 520.138 514.994 520.014L512.565 522.445L507.38 527.636L502.194 532.827L497.009 538.018L491.823 543.209L486.638 548.4L481.452 553.591L476.266 558.782L471.081 563.973L465.895 569.164L460.71 574.355L455.524 579.547L450.339 584.738L445.153 589.929L439.967 595.12L434.782 600.311L429.596 605.502L424.411 610.693L419.225 615.884L414.04 621.075L408.854 626.266L406.199 628.923C406.323 629.115 406.448 629.308 406.583 629.5L410.097 625.983L410.074 626.005Z" fill="#373854"/>
<path d="M410.945 635.528L415.272 631.196L420.457 626.005L425.643 620.814L430.829 615.623L436.014 610.432L441.2 605.241L446.385 600.05L451.571 594.859L456.756 589.668L461.942 584.477L467.127 579.286L472.313 574.095L477.499 568.904L482.684 563.713L487.87 558.522L493.055 553.331L498.241 548.14L503.426 542.949L508.612 537.758L513.798 532.567L518.983 527.376L521.57 524.786C521.389 524.639 521.22 524.504 521.039 524.357L517.752 527.648L512.566 532.839L507.381 538.03L502.195 543.221L497.009 548.412L491.824 553.603L486.638 558.794L481.453 563.985L476.267 569.176L471.082 574.367L465.896 579.558L460.71 584.749L455.525 589.94L450.339 595.131L445.154 600.322L439.968 605.513L434.783 610.704L424.4 621.097L419.215 626.288L414.029 631.479L410.516 634.996C410.651 635.177 410.798 635.347 410.945 635.528Z" fill="#373854"/>
<path d="M403.646 621.086L402.369 622.364C402.482 622.579 402.584 622.782 402.697 622.997L404.877 620.814L410.063 615.623L415.248 610.432L420.434 605.241L425.619 600.05L430.805 594.859L435.991 589.668L441.176 584.477L446.362 579.286L451.547 574.095L456.733 568.904L461.918 563.713L467.104 558.522L472.289 553.331L477.475 548.14L482.661 542.949L487.846 537.758L493.032 532.567L498.217 527.376L503.403 522.185L508.588 516.994L509.029 516.553C508.826 516.44 508.611 516.327 508.408 516.225L507.357 517.277L502.171 522.468L496.986 527.659L491.8 532.85L486.615 538.041L481.429 543.232L476.244 548.423L471.058 553.614L465.872 558.805L460.687 563.996L455.501 569.187L450.316 574.378L445.13 579.569L439.945 584.76L434.759 589.951L429.574 595.142L424.388 600.333L419.202 605.524L414.017 610.715L403.883 620.86L403.634 621.109L403.646 621.086Z" fill="#373854"/>
<path d="M404.89 615.612L410.075 610.421L415.261 605.23L420.446 600.039L425.632 594.848L430.818 589.657L436.003 584.466L441.189 579.275L446.374 574.084L451.56 568.893L456.745 563.702L461.931 558.511L467.116 553.32L472.302 548.129L477.488 542.938L482.673 537.747L487.859 532.556L493.044 527.365L498.23 522.174L503.415 516.983L505.585 514.812C505.37 514.71 505.155 514.608 504.929 514.506L502.173 517.266L496.987 522.457L491.802 527.648L486.616 532.839L481.43 538.03L476.245 543.221L471.059 548.412L465.874 553.603L460.688 558.794L455.503 563.985L450.317 569.176L445.132 574.367L439.946 579.558L434.76 584.749L429.575 589.94L424.389 595.131L419.204 600.322L414.018 605.513L408.833 610.704L403.647 615.895L400.676 618.869C400.777 619.084 400.879 619.31 400.981 619.525L404.89 615.612Z" fill="#373854"/>
<path d="M404.572 626.322L404.888 626.005L410.074 620.814L415.259 615.623L420.445 610.432L425.631 605.241L430.816 600.05L436.002 594.859L441.187 589.668L446.373 584.477L451.558 579.286L456.744 574.095L461.93 568.904L467.115 563.713L472.301 558.522L477.486 553.331L482.672 548.14L487.857 542.949L493.043 537.758L498.228 532.567L503.414 527.376L508.6 522.185L512.373 518.408C512.17 518.284 511.978 518.17 511.774 518.057L507.368 522.468L502.183 527.659L496.997 532.85L491.811 538.041L486.626 543.232L481.44 548.423L476.255 553.614L471.069 558.805L465.884 563.996L460.698 569.187L455.513 574.378L450.327 579.569L445.141 584.76L439.956 589.951L434.77 595.142L424.388 605.535L419.202 610.726L414.017 615.917L408.831 621.108L404.199 625.745C404.312 625.949 404.436 626.152 404.549 626.345L404.572 626.322Z" fill="#373854"/>
<path d="M399.691 563.657L404.877 558.466L410.063 553.275L415.248 548.084L420.434 542.893L425.619 537.702L430.805 532.511L435.99 527.32L441.176 522.129L446.362 516.938L451.547 511.747L453.682 509.609C453.253 509.711 452.835 509.813 452.406 509.926L450.304 512.03L445.119 517.221L439.933 522.412L434.748 527.603L429.562 532.794L424.377 537.985L419.191 543.176L414.005 548.367L408.82 553.558L403.634 558.749L398.449 563.94L396.133 566.258C396.02 566.677 395.918 567.106 395.816 567.536L399.691 563.657Z" fill="#373854"/>
<path d="M399.692 600.028L404.878 594.837L410.063 589.646L415.249 584.455L420.434 579.264L425.62 574.073L430.805 568.882L435.991 563.691L441.177 558.5L446.362 553.309L451.548 548.118L456.733 542.927L461.919 537.736L467.104 532.545L472.29 527.354L477.475 522.163L482.661 516.972L487.847 511.781L490.163 509.462C489.903 509.406 489.643 509.349 489.383 509.293L486.615 512.064L481.43 517.255L476.244 522.446L471.058 527.637L465.873 532.828L460.687 538.019L455.502 543.21L450.316 548.401L445.131 553.592L439.945 558.783L434.76 563.974L429.574 569.165L424.388 574.356L419.203 579.547L414.017 584.738L408.832 589.929L403.646 595.12L398.461 600.311L395.467 603.308C395.523 603.568 395.58 603.828 395.636 604.088L399.692 600.028Z" fill="#373854"/>
<path d="M397.975 612.14L399.692 610.421L404.877 605.23L410.063 600.039L415.249 594.848L420.434 589.657L425.62 584.466L430.805 579.275L435.991 574.084L441.176 568.893L446.362 563.702L451.548 558.511L456.733 553.32L461.919 548.129L467.104 542.938L472.29 537.747L477.475 532.556L482.661 527.365L487.846 522.174L493.032 516.983L498.206 511.803C497.969 511.724 497.732 511.634 497.495 511.554L496.986 512.063L491.801 517.254L486.615 522.445L481.429 527.636L476.244 532.827L471.058 538.018L465.873 543.209L460.687 548.4L455.502 553.591L450.316 558.782L445.131 563.973L439.945 569.164L434.759 574.355L429.574 579.546L424.388 584.737L419.203 589.928L414.017 595.119L406.233 602.912L403.635 605.513L398.449 610.704L397.715 611.439C397.794 611.676 397.884 611.914 397.963 612.151L397.975 612.14Z" fill="#373854"/>
<path d="M399.692 605.219L404.877 600.028L410.063 594.837L415.248 589.646L420.434 584.455L425.62 579.264L430.805 574.073L435.991 568.882L441.176 563.691L446.362 558.5L451.547 553.309L456.733 548.118L461.918 542.927L467.104 537.736L472.29 532.545L477.475 527.354L482.661 522.163L487.846 516.972L493.032 511.781L494.275 510.537C494.026 510.469 493.777 510.39 493.529 510.322L491.8 512.052L486.615 517.243L481.429 522.434L476.244 527.625L471.058 532.816L465.873 538.007L460.687 543.198L455.501 548.389L450.316 553.58L445.13 558.771L439.945 563.962L434.759 569.153L429.574 574.344L424.388 579.535L419.203 584.726L414.017 589.917L408.831 595.108L403.646 600.299L398.46 605.49L396.506 607.447C396.574 607.696 396.641 607.944 396.721 608.193L399.692 605.219Z" fill="#373854"/>
<path d="M399.398 615.906L399.692 615.612L404.877 610.421L410.063 605.23L420.061 595.221L420.445 594.837L425.631 589.646L430.816 584.455L436.002 579.264L441.188 574.073L446.373 568.882L451.559 563.691L456.744 558.5L461.93 553.309L467.115 548.118L472.301 542.927L477.487 537.736L482.672 532.545L487.858 527.354L493.043 522.163L498.229 516.972L501.98 513.217C501.754 513.127 501.528 513.025 501.302 512.934L496.997 517.243L491.812 522.434L486.626 527.625L481.441 532.816L476.255 538.007L471.07 543.198L465.884 548.389L460.698 553.58L455.513 558.771L450.327 563.962L445.142 569.153L439.956 574.344L434.771 579.535L429.585 584.726L424.4 589.917L419.214 595.108L414.028 600.299L408.843 605.49L403.657 610.681L399.127 615.216C399.217 615.443 399.308 615.669 399.409 615.895L399.398 615.906Z" fill="#373854"/>
<path d="M394.507 579.241L399.692 574.05L404.878 568.859L410.063 563.668L415.249 558.477L420.435 553.286L425.62 548.095L430.806 542.904L435.991 537.713L441.177 532.522L446.362 527.331L451.548 522.14L456.734 516.949L461.919 511.758L466.031 507.641C465.681 507.664 465.331 507.698 464.981 507.732L460.688 512.029L455.502 517.22L450.317 522.411L445.131 527.602L439.945 532.793L434.76 537.984L429.574 543.175L424.389 548.366L419.203 553.557L414.018 558.748L408.832 563.939L403.647 569.13L398.461 574.321L393.942 578.845C393.908 579.196 393.874 579.546 393.852 579.897L394.507 579.241Z" fill="#373854"/>
</g>
<path d="M1636 470H1543V638H1636V470Z" fill="#7A81FD"/>
<path d="M1636 470H1543V638H1636V470Z" fill="#7A81FD"/>
<path d="M640.309 533.879H547.297V639.554H640.309V533.879Z" fill="#373854"/>
<path d="M399 479H299V638H399V479Z" fill="white"/>
<path d="M513.937 453.472C513.937 455.395 512.389 456.944 510.468 456.944C508.548 456.944 507 455.395 507 453.472C507 451.549 508.548 450 510.468 450C512.389 450 513.937 451.549 513.937 453.472Z" stroke="#6D6D6D" stroke-linecap="round" stroke-linejoin="round"/>
<path d="M1298.87 394.118C1298.87 397.952 1295.77 401.062 1291.94 401.062C1288.11 401.062 1285 397.952 1285 394.118C1285 390.284 1288.11 387.174 1291.94 387.174C1295.77 387.174 1298.87 390.284 1298.87 394.118Z" stroke="#CBCBCB" stroke-linecap="round" stroke-linejoin="round"/>
<path d="M1369.42 281.318L1351.61 260.09H1369.42V281.318Z" stroke="#7A81FD" stroke-linecap="round" stroke-linejoin="round"/>
<path d="M1290 260.079V204.324H1369.42V247.367V260.079V260.09H1351.61L1351.59 260.079H1290Z" stroke="#D0D0D5" stroke-linecap="round" stroke-linejoin="round"/>
<path d="M1350.14 224.047H1304.59" stroke="#D0D0D5" stroke-linecap="round" stroke-linejoin="round"/>
<path d="M1350.14 240.763H1315.83" stroke="#D0D0D5" stroke-linecap="round" stroke-linejoin="round"/>
<path d="M399 399.742L426.25 367.273H399V399.742Z" stroke="#7A81FD" stroke-linecap="round" stroke-linejoin="round"/>
<path d="M520.46 367.261V282H399V347.821V367.261V367.273H426.25L426.261 367.261H520.46Z" stroke="#D0D0D5" stroke-linecap="round" stroke-linejoin="round"/>
<path d="M428.486 312.151H498.169" stroke="#D0D0D5" stroke-linecap="round" stroke-linejoin="round"/>
<path d="M428.486 337.721H480.963" stroke="#D0D0D5" stroke-linecap="round" stroke-linejoin="round"/>
<path d="M647.866 257.421C648.092 261.515 643.844 265.225 639.822 264.444C635.145 263.528 632.874 258.292 629.248 255.205C627.632 253.825 625.463 252.818 623.407 253.361C622.447 253.61 621.599 254.175 620.854 254.809C618.041 257.206 616.437 260.701 614.482 263.845C612.528 266.989 609.794 270.054 606.144 270.653C602.597 271.23 599.027 269.228 596.734 266.446C594.452 263.664 593.209 260.192 592 256.799" stroke="#373854" stroke-linecap="round" stroke-linejoin="round"/>
<path d="M617.012 478.745C609.33 477.184 602.653 471.337 600.089 463.907C597.524 456.488 599.174 447.757 604.258 441.786C605.952 439.795 608.178 438.02 610.776 437.771C613.386 437.522 616.289 439.354 616.414 441.967C616.459 442.985 616.109 443.991 615.6 444.873C611.793 451.591 600.767 450.426 596.033 444.331C591.311 438.235 591.435 429.685 592.892 422.108C597.366 399.014 612.765 378.284 633.586 367.359" stroke="#D0D0D5" stroke-linecap="round" stroke-linejoin="round"/>
<path d="M615.713 364C619.068 364.554 633.597 367.359 633.597 367.359V386.947" stroke="#D0D0D5" stroke-linecap="round" stroke-linejoin="round"/>
<path d="M574.4 620.385C596.046 606.044 608.383 578.811 604.892 553.06" stroke="black" stroke-linecap="round" stroke-linejoin="round"/>
<path d="M597.086 563.363L604.893 553.06L613.388 562.707" stroke="black" stroke-linecap="round" stroke-linejoin="round"/>
<path d="M1696.53 203.509C1698.45 203.509 1700 201.955 1700 200.037C1700 198.12 1698.45 196.565 1696.53 196.565C1694.62 196.565 1693.06 198.12 1693.06 200.037C1693.06 201.955 1694.62 203.509 1696.53 203.509Z" stroke="#E8E8E8" stroke-linecap="round" stroke-linejoin="round"/>
<path d="M1562 252.434C1566.18 259.412 1576.57 260.339 1583.69 256.403C1590.81 252.468 1595.27 245.094 1598.94 237.833C1604.69 226.456 1588.13 230.81 1594.8 246.892C1597.54 253.52 1602.48 260.328 1609.62 260.95C1619.79 261.832 1625.93 250.534 1631.9 242.244C1635.98 236.578 1640.91 225.156 1647.5 224.047C1657.45 222.373 1657.8 236.838 1658.88 240.808C1659.95 244.777 1662.54 248.973 1666.62 249.459C1671.53 250.036 1675.07 245.184 1678.61 241.735C1686.52 234.056 1699.48 232.201 1709.22 237.347" stroke="#E8E8E8" stroke-linecap="round" stroke-linejoin="round"/>
<circle cx="1555" cy="488" r="4" fill="#7178FF"/>
<circle cx="1576" cy="498" r="4" fill="#7178FF"/>
<circle cx="1559" cy="534" r="4" fill="#7178FF"/>
<circle cx="1602" cy="542" r="4" fill="#7178FF"/>
<circle cx="1565" cy="562" r="4" fill="#7178FF"/>
<circle cx="1596" cy="592" r="4" fill="#7178FF"/>
<circle cx="1556" cy="617" r="4" fill="#7178FF"/>
<circle cx="1622" cy="625" r="4" fill="#7178FF"/>
<circle cx="1607" cy="516" r="4" fill="#7178FF"/>
<circle cx="1596" cy="483" r="4" fill="#7178FF"/>
<circle cx="1624" cy="483" r="4" fill="#7178FF"/>
<circle cx="315.84" cy="497.64" r="3.84" fill="#F0F0F0"/>
<circle cx="336" cy="507.24" r="3.84" fill="#F0F0F0"/>
<circle cx="319.68" cy="541.8" r="3.84" fill="#F0F0F0"/>
<circle cx="360.959" cy="549.48" r="3.84" fill="#F0F0F0"/>
<circle cx="325.44" cy="568.68" r="3.84" fill="#F0F0F0"/>
<circle cx="355.199" cy="597.48" r="3.84" fill="#F0F0F0"/>
<circle cx="316.801" cy="621.48" r="3.84" fill="#F0F0F0"/>
<circle cx="380.16" cy="629.16" r="3.84" fill="#F0F0F0"/>
<circle cx="365.76" cy="524.52" r="3.84" fill="#F0F0F0"/>
<circle cx="355.199" cy="492.84" r="3.84" fill="#F0F0F0"/>
<circle cx="382.08" cy="492.84" r="3.84" fill="#F0F0F0"/>
<path d="M1522.72 434.379H1399.07V639.35H1522.72V434.379Z" fill="#373854" stroke="#373854" stroke-linecap="round" stroke-linejoin="round"/>
<path d="M1402.88 104C1389.77 130.962 1355.29 145.291 1326.97 135.553C1322.69 134.083 1318.46 132.059 1315.42 128.711C1312.38 125.363 1310.74 120.455 1312.22 116.169C1314.38 109.915 1322.76 107.382 1328.77 110.118C1334.8 112.867 1338.33 119.483 1339.07 126.065C1340.73 141.072 1329.44 155.265 1315.56 161.135C1301.67 167.005 1285.87 166.145 1271.01 163.555" stroke="#373854" stroke-linecap="round" stroke-linejoin="round"/>
<path d="M1290.83 152.167L1271 163.566L1285.25 181.062" stroke="#373854" stroke-linecap="round" stroke-linejoin="round"/>
<g opacity="0.5">
<path d="M715.4 93.2834L714.033 94.6518L710.655 98.0333L707.277 101.415L703.899 104.796L700.522 108.178L697.144 111.559L693.766 114.941L690.388 118.322L687.01 121.704L680.423 128.297L680.254 128.467L676.876 131.848L673.498 135.23L670.12 138.611L666.742 141.993L665.217 143.52C665.431 143.52 665.646 143.52 665.861 143.497L667.555 141.801L670.933 138.419L674.311 135.038L677.689 131.656L681.067 128.275L684.445 124.893L687.823 121.512L691.201 118.13L694.579 114.749L697.957 111.367L701.335 107.986L704.713 104.604L708.091 101.223L711.469 97.841L714.847 94.4595L715.4 93.9054C715.4 93.6905 715.412 93.4756 715.423 93.2607L715.4 93.2834Z" fill="#7A81FD"/>
<path d="M715.197 96.8569L714.022 98.0331L710.644 101.415L707.266 104.796L703.888 108.178L697.302 114.771L697.132 114.941L693.754 118.322L690.376 121.704L686.998 125.085L683.62 128.467L680.242 131.848L676.864 135.23L673.486 138.611L670.108 141.993L668.775 143.327C669.001 143.305 669.239 143.293 669.465 143.259L674.119 138.6L674.289 138.43L677.667 135.049L681.044 131.667L684.422 128.286L687.8 124.904L691.178 121.523L694.556 118.141L697.934 114.76L701.312 111.378L704.69 107.997L708.068 104.615L711.446 101.234L714.824 97.8522L715.129 97.5468C715.152 97.3206 715.174 97.0944 715.197 96.8569Z" fill="#7A81FD"/>
<path d="M687.947 137.639C688.41 137.401 688.862 137.152 689.314 136.892L691.224 134.981L694.602 131.6L697.979 128.218L701.357 124.837L704.735 121.455L708.113 118.074L708.882 117.304C709.13 116.852 709.379 116.4 709.627 115.936L707.323 118.243L703.945 121.625L697.358 128.218L697.189 128.388L693.811 131.769L690.433 135.151L687.97 137.616L687.947 137.639Z" fill="#7A81FD"/>
<path d="M681.881 140.341C682.22 140.217 682.547 140.093 682.886 139.957L684.468 138.374L687.846 134.992L691.224 131.611L694.602 128.229L697.98 124.848L701.358 121.466L704.736 118.085L708.114 114.703L711.492 111.322L711.932 110.881C712.068 110.541 712.192 110.213 712.316 109.874L710.69 111.503L707.312 114.884L703.934 118.266L700.556 121.647L697.178 125.029L693.8 128.41L690.422 131.792L687.044 135.173L681.881 140.341Z" fill="#7A81FD"/>
<path d="M681.101 138.374L684.479 134.992L687.856 131.611L691.234 128.229L694.612 124.848L697.99 121.466L701.368 118.085L704.746 114.703L708.124 111.322L711.502 107.94L713.626 105.814C713.705 105.531 713.784 105.249 713.852 104.966L710.7 108.121L707.322 111.503L703.944 114.884L700.566 118.266L697.188 121.647L693.81 125.029L690.432 128.41L687.054 131.792L683.676 135.173L680.298 138.555L676.988 141.868C677.271 141.8 677.553 141.721 677.836 141.642L681.101 138.374Z" fill="#7A81FD"/>
<path d="M677.724 138.374L681.102 134.992L684.48 131.611L691.067 125.017L691.236 124.848L694.614 121.466L697.992 118.085L704.737 111.333L708.115 107.952L711.493 104.57L714.611 101.449C714.656 101.2 714.701 100.951 714.735 100.691L712.362 103.055L710.679 104.74L707.301 108.121L703.923 111.503L700.545 114.884L697.167 118.266L693.789 121.647L690.411 125.029L687.033 128.41L683.655 131.792L680.277 135.173L676.9 138.555L673.522 141.936L672.686 142.773C672.934 142.728 673.183 142.694 673.442 142.649L674.335 141.755L677.713 138.374H677.724Z" fill="#7A81FD"/>
<path d="M632.138 52.3209C629.28 54.628 626.67 57.2405 624.365 60.1017L627.133 57.3309L630.511 53.9494L632.149 52.3096L632.138 52.3209Z" fill="#7A81FD"/>
<path d="M714.723 83.8286L714.023 84.5298L710.645 87.9113L707.267 91.2928L703.889 94.6743L700.511 98.0558L697.133 101.437L693.755 104.819L690.377 108.2L686.999 111.582L683.621 114.963L680.243 118.345L676.865 121.726L673.487 125.108L670.109 128.489L666.731 131.871L663.353 135.252L659.975 138.634L656.597 142.015L655.75 142.864C655.931 142.898 656.1 142.92 656.281 142.954L660.777 138.453L664.155 135.071L667.533 131.69L674.12 125.097L674.289 124.927L677.667 121.545L681.045 118.164L684.423 114.782L687.801 111.401L691.179 108.019L694.557 104.638L697.935 101.256L701.313 97.8749L704.691 94.4934L708.069 91.1119L711.447 87.7304L714.802 84.3715C714.78 84.1905 714.746 84.0209 714.712 83.8399L714.723 83.8286Z" fill="#7A81FD"/>
<path d="M715.13 86.8032L714.034 87.9002L710.656 91.2817L707.278 94.6632L703.9 98.0447L698.839 103.111L697.156 104.796L693.778 108.178L690.4 111.559L687.022 114.941L683.644 118.322L680.266 121.704L676.888 125.085L673.51 128.467L670.132 131.848L666.754 135.23L663.376 138.611L659.998 141.993L658.744 143.248C658.936 143.271 659.117 143.282 659.309 143.305L660.8 141.812L664.178 138.431L667.556 135.049L670.934 131.668L674.312 128.286L677.69 124.905L681.068 121.523L684.446 118.142L691.191 111.39L694.569 108.008L697.947 104.627L703.403 99.1644L704.691 97.8751L708.069 94.4936L711.447 91.1121L714.825 87.7306L715.175 87.38C715.153 87.1877 715.141 86.9955 715.119 86.8145L715.13 86.8032Z" fill="#7A81FD"/>
<path d="M715.355 89.9469L714.022 91.2814L710.644 94.6629L707.266 98.0444L703.889 101.426L700.511 104.807L697.133 108.189L693.755 111.57L690.377 114.952L686.999 118.333L683.621 121.715L680.243 125.096L676.865 128.478L673.487 131.859L670.109 135.241L663.364 141.993L661.873 143.485C662.076 143.485 662.268 143.497 662.472 143.508L664.166 141.812L667.544 138.43L670.922 135.049L674.3 131.667L677.678 128.286L681.056 124.904L684.434 121.523L687.812 118.141L691.19 114.76L694.568 111.378L697.946 107.997L701.324 104.615L704.702 101.234L708.08 97.8521L711.458 94.4706L714.836 91.0891L715.389 90.5349C715.389 90.3314 715.378 90.1391 715.367 89.9355L715.355 89.9469Z" fill="#7A81FD"/>
<path d="M710.781 70.9019L710.656 71.0263L707.279 74.4078L703.901 77.7893L700.523 81.1708L697.145 84.5523L693.767 87.9338L690.389 91.3153L687.011 94.6968L683.633 98.0783L680.255 101.46L676.877 104.841L673.499 108.223L670.121 111.604L666.743 114.986L663.365 118.367L659.987 121.749L656.609 125.13L653.231 128.512L649.853 131.893L646.475 135.275L643.097 138.656L642.826 138.928C642.973 138.996 643.109 139.063 643.255 139.12L643.741 138.634L643.911 138.464L647.289 135.083L650.667 131.701L654.045 128.32L657.423 124.938L660.801 121.557L664.178 118.175L667.556 114.794L670.934 111.412L674.312 108.031L677.69 104.649L681.068 101.268L684.446 97.886L687.824 94.5045L691.202 91.123L694.58 87.7415L697.958 84.36L701.336 80.9785L704.714 77.597L708.092 74.2155L710.984 71.3316C710.916 71.1846 710.86 71.0489 710.792 70.9019H710.781Z" fill="#7A81FD"/>
<path d="M711.966 73.7068C711.909 73.5597 711.853 73.4127 711.785 73.2544L710.655 74.3853L707.277 77.7668L703.899 81.1483L700.521 84.5298L697.143 87.9113L693.765 91.2929L690.387 94.6744L687.009 98.0559L681.948 103.122L680.265 104.808L676.887 108.189L673.509 111.571L670.131 114.952L666.753 118.334L663.375 121.715L659.997 125.097L656.619 128.478L653.241 131.86L649.863 135.241L646.485 138.623L645.197 139.912C645.344 139.968 645.491 140.025 645.649 140.093L647.287 138.453L650.665 135.071L654.043 131.69L660.788 124.938L664.166 121.557L667.544 118.175L674.288 111.424L677.666 108.042L681.044 104.661L684.422 101.279L687.8 97.8975L691.178 94.516L694.556 91.1345L697.934 87.753L701.312 84.3715L704.69 80.99L708.068 77.6085L711.446 74.227L711.954 73.7181L711.966 73.7068Z" fill="#7A81FD"/>
<path d="M707.187 64.3652L703.911 67.645L700.533 71.0265L697.155 74.408L693.777 77.7895L690.399 81.171L687.021 84.5525L683.643 87.934L680.265 91.3155L676.887 94.697L673.509 98.0785L670.131 101.46L666.753 104.842L663.375 108.223L659.997 111.605L656.619 114.986L653.241 118.368L649.863 121.749L646.485 125.131L643.107 128.512L639.729 131.894L636.351 135.275L636.295 135.332C636.419 135.411 636.543 135.501 636.668 135.58L637.142 135.105L640.52 131.724L643.898 128.342L647.276 124.961L650.654 121.579L654.032 118.198L660.777 111.446L664.155 108.065L667.533 104.683L672.989 99.2207L674.277 97.9315L677.655 94.55L681.033 91.1685L684.411 87.787L687.789 84.4055L691.167 81.024L694.545 77.6425L697.923 74.2609L701.301 70.8794L704.679 67.4979L707.401 64.7724C707.322 64.648 707.243 64.5236 707.153 64.3992L707.187 64.3652Z" fill="#7A81FD"/>
<path d="M708.701 66.8534C708.621 66.7176 708.554 66.5932 708.475 66.4575L707.288 67.645L703.91 71.0265L700.532 74.408L697.154 77.7895L693.776 81.171L690.399 84.5525L687.021 87.934L683.643 91.3155L680.265 94.6971L676.887 98.0785L673.509 101.46L670.131 104.842L666.753 108.223L663.375 111.605L659.997 114.986L656.619 118.368L653.241 121.749L649.863 125.131L646.485 128.512L643.107 131.894L639.729 135.275L638.385 136.621C638.52 136.7 638.645 136.779 638.78 136.847L640.531 135.094L643.909 131.713L647.287 128.331L650.665 124.95L654.043 121.568L657.421 118.187L660.799 114.805L664.177 111.424L667.555 108.042L670.933 104.661L674.311 101.279L677.689 97.8976L681.067 94.5161L684.445 91.1346L687.823 87.7531L691.201 84.3716L694.579 80.9901L697.957 77.6086L701.335 74.2271L704.712 70.8456L708.09 67.4641L708.701 66.8534Z" fill="#7A81FD"/>
<path d="M703.12 58.9252C703.029 58.8121 702.928 58.699 702.837 58.5859L700.533 60.8931L697.155 64.2746L693.777 67.6561L690.399 71.0376L687.021 74.4191L683.643 77.8006L680.265 81.1821L676.887 84.5636L673.509 87.9451L670.131 91.3266L666.753 94.7081L663.375 98.0896L659.997 101.471L656.619 104.853L653.241 108.234L649.863 111.616L646.485 114.997L643.107 118.379L639.729 121.76L632.985 128.512L630.533 130.966C630.646 131.068 630.759 131.158 630.872 131.249L633.787 128.331L637.165 124.949L640.543 121.568L643.921 118.186L647.299 114.805L650.677 111.423L654.055 108.042L657.433 104.66L660.811 101.279L664.189 97.8974L667.566 94.5158L670.944 91.1343L674.322 87.7528L677.7 84.3713L681.078 80.9898L684.456 77.6083L687.834 74.2268L691.212 70.8453L694.59 67.4638L697.968 64.0823L701.346 60.7008L703.131 58.9139L703.12 58.9252Z" fill="#7A81FD"/>
<path d="M701.527 57.1497C701.425 57.0479 701.324 56.9348 701.222 56.833L700.533 57.5229L697.155 60.9044L693.777 64.2859L690.399 67.6674L687.021 71.0489L683.643 74.4304L680.265 77.8119L676.887 81.1934L673.509 84.5749L670.131 87.9564L666.753 91.3379L663.375 94.7194L659.997 98.1009L656.619 101.482L653.241 104.864L649.864 108.245L646.486 111.627L643.108 115.008L639.73 118.39L636.352 121.771L632.974 125.153L629.596 128.534L628.76 129.371C628.861 129.473 628.974 129.575 629.076 129.677L630.398 128.354L633.776 124.972L637.154 121.591L640.532 118.209L643.91 114.827L647.288 111.446L650.666 108.064L654.044 104.683L660.54 98.1801L660.788 97.9313L664.166 94.5498L667.544 91.1683L670.922 87.7868L674.3 84.4053L677.678 81.0238L681.056 77.6423L684.434 74.2608L687.812 70.8793L691.19 67.4978L694.568 64.1162L697.946 60.7347L701.324 57.3532L701.516 57.161L701.527 57.1497Z" fill="#7A81FD"/>
<path d="M704.634 60.7803C704.543 60.6672 704.453 60.5428 704.362 60.4297L703.91 60.8821L700.533 64.2636L697.155 67.6451L693.777 71.0266L690.399 74.4081L687.021 77.7896L683.643 81.1711L680.265 84.5526L676.887 87.9341L673.509 91.3156L670.131 94.6971L666.753 98.0786L663.375 101.46L659.997 104.842L656.619 108.223L650.033 114.816L649.863 114.986L646.485 118.368L643.107 121.749L639.729 125.131L636.351 128.512L632.973 131.894L632.363 132.504C632.476 132.595 632.601 132.685 632.714 132.776L633.775 131.713L637.153 128.331L640.531 124.95L643.909 121.568L647.287 118.187L650.665 114.805L654.043 111.424L657.421 108.042L660.799 104.661L664.177 101.279L667.555 97.8977L670.933 94.5162L674.311 91.1346L677.689 87.7531L681.067 84.3716L684.445 80.9901L687.823 77.6086L691.201 74.2271L694.579 70.8456L697.957 67.4641L701.335 64.0826L704.634 60.7803Z" fill="#7A81FD"/>
<path d="M699.856 55.4421C699.754 55.3403 699.652 55.2385 699.539 55.1367L697.167 57.5117L693.789 60.8932L690.411 64.2747L687.033 67.6562L683.655 71.0377L680.277 74.4192L676.899 77.8007L673.521 81.1822L670.143 84.5637L666.765 87.9452L663.387 91.3267L660.009 94.7082L656.631 98.0897L651.57 103.156L649.887 104.841L646.509 108.223L643.131 111.604L639.753 114.986L636.375 118.367L632.997 121.749L629.619 125.13L627.1 127.652C627.201 127.754 627.303 127.867 627.405 127.969L630.421 124.95L633.799 121.568L637.177 118.187L643.922 111.435L647.3 108.053L650.678 104.672L654.055 101.29L657.433 97.9088L660.811 94.5273L664.189 91.1458L667.567 87.7643L670.945 84.3828L674.323 81.0013L677.701 77.6198L681.079 74.2383L684.457 70.8568L687.835 67.4752L691.213 64.0937L694.591 60.7122L697.969 57.3307L699.856 55.4421Z" fill="#7A81FD"/>
<path d="M670.177 44.0085L666.799 47.39L663.421 50.7715L660.043 54.153L656.665 57.5345L653.288 60.9161L649.91 64.2976L646.532 67.6791L643.154 71.0606L639.776 74.4421L636.398 77.8236L633.02 81.2051L629.642 84.5866L626.264 87.9681L622.886 91.3496L619.508 94.7311L616.13 98.1126L613.645 100.601C613.678 100.782 613.701 100.963 613.735 101.132L616.932 97.9317L620.31 94.5501L623.688 91.1686L627.066 87.7871L630.444 84.4056L633.822 81.0241L637.2 77.6426L640.578 74.2611L643.956 70.8796L647.334 67.4981L650.712 64.1166L654.09 60.7351L657.468 57.3536L660.846 53.9721L664.224 50.5906L667.601 47.2091L670.979 43.8276L673.047 41.758C672.866 41.724 672.697 41.7014 672.516 41.6675L670.177 44.0085Z" fill="#7A81FD"/>
<path d="M666.798 44.0085L663.42 47.39L660.042 50.7715L656.664 54.153L653.286 57.5345L649.908 60.916L646.531 64.2975L643.153 67.679L639.775 71.0605L636.397 74.4421L633.019 77.8236L629.641 81.2051L626.263 84.5866L622.885 87.9681L619.507 91.3496L616.129 94.7311L613.248 97.615C613.271 97.8072 613.293 97.9882 613.316 98.1691L613.564 97.9203L616.942 94.5388L620.32 91.1573L623.698 87.7758L627.076 84.3943L630.454 81.0128L633.832 77.6313L637.21 74.2498L640.588 70.8683L643.966 67.4868L647.344 64.1053L650.722 60.7238L654.1 57.3423L657.478 53.9608L660.856 50.5793L664.234 47.1978L667.612 43.8162L670.108 41.3169C669.928 41.2943 669.736 41.2716 669.555 41.249L666.81 43.9972L666.798 44.0085Z" fill="#7A81FD"/>
<path d="M663.431 44.0085L660.053 47.39L656.676 50.7715L653.298 54.153L649.92 57.5345L646.542 60.916L643.164 64.2975L639.786 67.679L636.408 71.0605L633.03 74.442L629.652 77.8235L626.274 81.205L622.896 84.5865L619.518 87.968L616.14 91.3495L613.033 94.4596C613.033 94.6632 613.044 94.8554 613.056 95.059L613.564 94.5501L616.942 91.1686L620.32 87.7871L623.698 84.4056L627.076 81.0241L630.454 77.6426L633.832 74.2611L637.21 70.8795L640.588 67.498L643.966 64.1165L647.344 60.735L650.722 57.3535L654.1 53.972L657.478 50.5905L660.856 47.209L664.234 43.8275L666.99 41.068C666.787 41.068 666.595 41.0454 666.391 41.0454L663.431 44.0085Z" fill="#7A81FD"/>
<path d="M660.054 44.0083L656.676 47.3898L653.298 50.7713L649.92 54.1528L646.542 57.5343L643.164 60.9158L639.786 64.2973L636.408 67.6788L633.03 71.0603L629.653 74.4418L626.275 77.8233L622.897 81.2048L619.519 84.5863L616.141 87.9678L613 91.1119C613 91.3267 613 91.5303 613 91.7452L613.576 91.1684L616.954 87.7869L620.332 84.4054L623.71 81.0239L627.088 77.6424L630.466 74.2609L633.844 70.8794L637.222 67.4979L640.6 64.1164L643.978 60.7349L647.356 57.3534L650.734 53.9719L654.112 50.5903L657.49 47.2088L660.868 43.8273L663.692 41C663.477 41 663.274 41 663.059 41L660.065 43.997L660.054 44.0083Z" fill="#7A81FD"/>
<path d="M653.31 44.0085L649.932 47.39L646.554 50.7715L643.177 54.153L639.799 57.5345L636.421 60.916L633.043 64.2975L629.665 67.679L626.287 71.0605L622.909 74.442L619.531 77.8236L616.153 81.2051L613.724 83.6366C613.679 83.8854 613.634 84.1342 613.6 84.383L616.955 81.0241L620.333 77.6426L623.711 74.2611L627.089 70.8796L630.467 67.4981L633.845 64.1166L637.223 60.7351L640.601 57.3536L643.979 53.9721L647.357 50.5906L650.735 47.2091L654.113 43.8276L656.338 41.5996C656.09 41.6335 655.841 41.6788 655.592 41.724L653.31 44.0085Z" fill="#7A81FD"/>
<path d="M654.113 141.744L657.491 138.362L660.869 134.981L664.246 131.599L667.624 128.218L671.002 124.836L674.38 121.455L677.758 118.073L681.136 114.692L684.514 111.31L687.892 107.929L691.27 104.547L694.648 101.166L698.026 97.7842L701.404 94.4027L704.782 91.0212L708.16 87.6396L711.538 84.2581L714.362 81.4308C714.328 81.2612 714.294 81.0915 714.249 80.9219L714.102 81.0689L710.724 84.4504L707.347 87.8319L703.969 91.2134L700.591 94.5949L697.213 97.9764L693.835 101.358L690.457 104.739L687.079 108.121L680.492 114.714L680.323 114.884L676.945 118.265L673.567 121.647L670.189 125.028L666.811 128.41L663.433 131.791L660.055 135.173L656.677 138.554L653.299 141.936L652.994 142.241C653.164 142.275 653.333 142.321 653.503 142.354L654.101 141.755L654.113 141.744Z" fill="#7A81FD"/>
<path d="M654.112 138.374L657.49 134.992L660.868 131.611L664.246 128.229L667.624 124.848L671.002 121.466L674.38 118.085L677.758 114.703L681.136 111.322L684.514 107.94L687.892 104.559L691.27 101.177L694.648 97.7957L698.026 94.4142L701.404 91.0327L704.782 87.6512L708.16 84.2697L711.538 80.8882L713.707 78.7168C713.662 78.5584 713.616 78.3888 713.571 78.2305L710.724 81.0804L707.346 84.4619L703.968 87.8434L700.59 91.2249L697.212 94.6065L693.834 97.9879L690.456 101.369L687.079 104.751L683.701 108.132L680.323 111.514L676.945 114.895L673.567 118.277L670.189 121.658L663.444 128.41L660.066 131.792L656.688 135.173L650.316 141.552C650.475 141.597 650.644 141.642 650.802 141.687L654.112 138.374Z" fill="#7A81FD"/>
<path d="M650.733 138.374L654.111 134.992L657.489 131.611L660.867 128.229L664.245 124.848L667.623 121.466L671.001 118.085L674.379 114.703L677.757 111.322L681.135 107.94L684.513 104.559L689.97 99.0961L691.257 97.8069L694.635 94.4253L698.013 91.0438L701.391 87.6623L704.769 84.2808L708.147 80.8993L711.525 77.5178L712.915 76.1268C712.858 75.9684 712.813 75.8101 712.757 75.6631L710.712 77.7101L707.334 81.0916L703.956 84.4731L700.578 87.8546L697.2 91.2361L693.822 94.6176L690.444 97.9991L687.066 101.381L683.688 104.762L680.31 108.144L676.932 111.525L673.554 114.907L670.176 118.288L666.798 121.67L663.42 125.051L660.042 128.433L656.664 131.814L653.286 135.196L649.909 138.577L647.717 140.771C647.875 140.828 648.033 140.873 648.18 140.93L650.711 138.396L650.733 138.374Z" fill="#7A81FD"/>
<path d="M647.344 43.8502C647.016 43.9633 646.7 44.0764 646.372 44.2008L643.187 47.39L639.809 50.7715L636.431 54.153L633.053 57.5345L629.675 60.916L626.297 64.2975L622.919 67.679L619.541 71.0605L616.219 74.3855C616.095 74.7135 615.982 75.0301 615.869 75.3581L616.976 74.2498L620.354 70.8683L623.732 67.4868L627.11 64.1053L630.488 60.7238L633.866 57.3423L637.244 53.9608L640.622 50.5793L644 47.1978L647.355 43.8389L647.344 43.8502Z" fill="#7A81FD"/>
<path d="M643.989 134.992L647.367 131.611L650.745 128.229L654.123 124.848L657.501 121.466L660.879 118.085L664.257 114.703L667.635 111.322L671.013 107.94L674.391 104.559L677.769 101.177L681.147 97.7959L684.525 94.4144L687.902 91.0329L691.28 87.6514L694.658 84.2699L698.036 80.8884L701.414 77.5069L704.792 74.1254L708.17 70.7439L709.967 68.9457C709.899 68.81 709.831 68.6743 709.752 68.5386L707.368 70.9249L703.99 74.3064L700.612 77.6879L697.234 81.0694L693.856 84.4509L690.478 87.8324L687.1 91.2139L683.722 94.5954L680.344 97.9769L676.966 101.358L673.589 104.74L670.211 108.121L663.466 114.873L660.088 118.255L656.71 121.636L650.124 128.229L649.954 128.399L646.576 131.781L643.198 135.162L640.656 137.707C640.792 137.775 640.927 137.854 641.063 137.922L644 134.981L643.989 134.992Z" fill="#7A81FD"/>
<path d="M640.237 46.9601L639.808 47.3899L636.43 50.7714L633.052 54.1529L629.674 57.5344L626.296 60.9159L622.918 64.2974L619.54 67.6789L618.976 68.2444C618.75 68.6628 618.535 69.0926 618.32 69.5224L620.343 67.498L623.721 64.1165L627.098 60.735L630.476 57.3535L633.854 53.972L637.232 50.5905L640.61 47.209L641.514 46.3042C641.085 46.5191 640.656 46.734 640.237 46.9601Z" fill="#7A81FD"/>
<path d="M637.245 131.622L643.832 125.029L644.001 124.859L647.379 121.478L650.757 118.096L654.135 114.715L657.513 111.333L660.891 107.952L664.269 104.57L667.647 101.189L671.025 97.8071L674.403 94.4256L677.781 91.0441L681.159 87.6626L684.537 84.2811L687.915 80.8996L691.293 77.5181L694.671 74.1366L698.049 70.7551L701.427 67.3736L704.805 63.9921L706.172 62.6236C706.081 62.4992 706.002 62.3861 705.912 62.2617L704.002 64.173L700.624 67.5545L697.247 70.936L693.869 74.3175L690.491 77.699L687.113 81.0805L683.735 84.462L680.357 87.8435L676.979 91.225L673.601 94.6066L670.223 97.988L663.478 104.74L660.1 108.121L656.722 111.503L653.344 114.884L649.966 118.266L646.588 121.647L643.211 125.029L639.833 128.41L636.455 131.792L634.398 133.85C634.523 133.941 634.636 134.02 634.76 134.11L637.257 131.611L637.245 131.622Z" fill="#7A81FD"/>
<path d="M625.562 125.809C625.664 125.922 625.755 126.024 625.856 126.137L627.122 124.871L630.5 121.489L633.877 118.108L637.255 114.726L640.633 111.345L644.011 107.963L647.389 104.582L650.767 101.2L654.145 97.8185L657.523 94.437L660.901 91.0555L664.279 87.674L667.657 84.2925L671.035 80.911L674.413 77.5295L677.791 74.148L681.169 70.7665L684.547 67.385L687.925 64.0035L691.303 60.622L694.681 57.2405L698.059 53.859L698.194 53.7232C698.081 53.6215 697.98 53.531 697.867 53.4292L697.257 54.0399L693.879 57.4214L690.501 60.8029L687.123 64.1844L683.745 67.5659L680.367 70.9474L676.989 74.3289L673.611 77.7104L670.233 81.0919L666.855 84.4734L663.477 87.855L660.099 91.2364L656.721 94.618L653.343 97.9995L649.965 101.381L646.587 104.762L643.209 108.144L639.831 111.525L636.453 114.907L633.075 118.288L629.697 121.67L626.319 125.051L625.562 125.809Z" fill="#7A81FD"/>
<path d="M622.591 122.032C622.682 122.156 622.761 122.269 622.851 122.394L623.755 121.489L627.133 118.107L630.511 114.726L633.889 111.344L637.267 107.963L640.645 104.581L644.023 101.2L647.401 97.8183L650.779 94.4368L654.157 91.0553L657.535 87.6738L660.913 84.2923L664.291 80.9107L667.668 77.5292L671.046 74.1477L674.424 70.7662L677.802 67.3847L681.18 64.0032L684.558 60.6217L687.936 57.2402L691.314 53.8587L694.455 50.7147C694.331 50.6242 694.218 50.5338 694.093 50.4546L693.879 50.6695L690.501 54.051L687.123 57.4325L683.745 60.814L680.367 64.1955L676.989 67.577L673.611 70.9585L670.233 74.34L666.855 77.7215L663.477 81.103L660.099 84.4845L656.721 87.866L653.343 91.2475L649.965 94.629L646.587 98.0105L643.209 101.392L639.831 104.774L636.453 108.155L633.075 111.537L629.698 114.918L626.32 118.3L622.942 121.681L622.58 122.043L622.591 122.032Z" fill="#7A81FD"/>
<path d="M623.754 118.107L630.499 111.356L633.877 107.974L637.255 104.593L642.712 99.1304L644 97.8411L647.378 94.4596L650.755 91.0781L654.133 87.6966L657.511 84.3151L660.889 80.9336L664.267 77.5521L667.645 74.1706L671.023 70.789L674.401 67.4075L677.779 64.026L681.157 60.6445L684.535 57.263L687.913 53.8815L691.291 50.5L692.443 49.3465C692.319 49.2673 692.195 49.1768 692.071 49.0977L690.489 50.681L687.111 54.0625L683.733 57.444L680.355 60.8255L676.977 64.207L673.599 67.5885L670.221 70.97L666.843 74.3515L663.465 77.733L660.087 81.1145L656.709 84.496L653.331 87.8775L649.953 91.259L646.575 94.6405L643.197 98.022L639.819 101.404L636.442 104.785L633.064 108.167L629.686 111.548L626.308 114.93L622.93 118.311L621.201 120.041C621.28 120.166 621.371 120.29 621.45 120.415L623.732 118.13L623.754 118.107Z" fill="#7A81FD"/>
<path d="M624.321 124.305L627.134 121.489L630.512 118.108L633.89 114.726L637.268 111.345L640.646 107.963L644.024 104.582L647.402 101.2L650.78 97.8185L654.158 94.437L657.536 91.0555L660.913 87.674L664.291 84.2925L667.669 80.911L671.047 77.5295L674.425 74.148L677.803 70.7665L681.181 67.385L684.559 64.0035L687.937 60.622L691.315 57.2405L694.693 53.8589L696.376 52.1738C696.263 52.0834 696.15 51.9929 696.037 51.8911L693.902 54.0286L690.524 57.4101L687.146 60.7916L683.768 64.1731L680.39 67.5546L677.012 70.9361L673.634 74.3176L670.257 77.6991L666.879 81.0806L663.501 84.4621L660.123 87.8436L656.745 91.2251L653.367 94.6066L649.989 97.9881L646.611 101.37L643.233 104.751L639.855 108.133L633.11 114.884L629.732 118.266L626.354 121.647L624.072 123.932C624.163 124.045 624.253 124.158 624.355 124.282L624.321 124.305Z" fill="#7A81FD"/>
<path d="M619.575 114.918L618.75 115.744C618.818 115.88 618.897 116.015 618.965 116.151L620.388 114.726L623.766 111.344L627.144 107.963L630.522 104.581L633.9 101.2L637.278 97.8184L640.656 94.4369L644.034 91.0554L647.412 87.6739L650.79 84.2924L654.168 80.9109L657.546 77.5294L660.924 74.1479L664.302 70.7664L667.68 67.3849L671.058 64.0034L674.435 60.6219L677.813 57.2404L681.191 53.8588L684.569 50.4773L687.947 47.0958L688.241 46.8018C688.105 46.7339 687.97 46.6548 687.834 46.5869L687.145 47.2768L683.767 50.6583L680.389 54.0398L677.011 57.4213L673.633 60.8028L670.255 64.1843L666.877 67.5658L663.499 70.9473L660.122 74.3288L656.744 77.7103L653.366 81.0918L649.988 84.4733L646.61 87.8549L643.232 91.2363L639.854 94.6179L636.476 97.9994L633.098 101.381L629.72 104.762L626.342 108.144L619.755 114.737L619.586 114.907L619.575 114.918Z" fill="#7A81FD"/>
<path d="M620.377 111.356L623.755 107.974L627.132 104.593L630.51 101.211L633.888 97.8295L637.266 94.4481L640.644 91.0665L644.022 87.685L647.4 84.3035L650.778 80.922L654.156 77.5405L657.534 74.159L660.912 70.7775L664.29 67.396L667.668 64.0145L671.046 60.633L674.424 57.2515L677.802 53.87L681.18 50.4885L684.558 47.107L685.97 45.6933C685.834 45.6255 685.688 45.5576 685.541 45.4897L683.756 47.2766L680.378 50.6581L677 54.0396L673.622 57.4211L670.244 60.8026L666.866 64.1841L663.488 67.5657L660.11 70.9472L656.732 74.3287L653.354 77.7102L649.976 81.0917L646.598 84.4732L643.22 87.8547L639.842 91.2362L636.464 94.6177L633.086 97.9992L629.708 101.381L626.33 104.762L622.952 108.144L619.574 111.525L617.643 113.459C617.71 113.606 617.778 113.742 617.846 113.889L620.388 111.344L620.377 111.356Z" fill="#7A81FD"/>
<path d="M620.174 118.322L620.377 118.119L623.755 114.737L627.133 111.356L630.511 107.974L633.889 104.593L637.267 101.211L640.645 97.8295L644.023 94.448L647.401 91.0665L650.779 87.685L654.157 84.3035L657.535 80.922L660.912 77.5405L664.29 74.159L667.668 70.7775L671.046 67.396L674.424 64.0145L677.802 60.6329L681.18 57.2514L684.558 53.8699L687.936 50.4884L690.388 48.0343C690.252 47.9551 690.128 47.876 689.992 47.8081L687.134 50.6694L683.756 54.0509L680.378 57.4324L677 60.8139L673.622 64.1954L670.244 67.5769L666.866 70.9584L663.488 74.3399L660.11 77.7214L656.732 81.1029L653.354 84.4844L649.976 87.8659L646.599 91.2474L643.221 94.6289L639.843 98.0104L633.098 104.762L629.72 108.144L626.342 111.525L622.964 114.907L619.959 117.915C620.038 118.051 620.117 118.175 620.185 118.311L620.174 118.322Z" fill="#7A81FD"/>
<path d="M617.01 77.5972L620.388 74.2157L623.766 70.8342L627.144 67.4527L630.522 64.0712L633.9 60.6897L637.278 57.3082L640.656 53.9267L644.034 50.5452L647.412 47.1637L650.79 43.7822L652.179 42.3911C651.908 42.459 651.626 42.5268 651.354 42.5947L649.987 43.9631L646.61 47.3446L643.232 50.7261L639.854 54.1076L636.476 57.4891L633.098 60.8706L629.72 64.2521L626.342 67.6336L622.964 71.0152L619.586 74.3967L616.208 77.7782L614.705 79.2823C614.638 79.5537 614.57 79.8365 614.502 80.1079L617.021 77.5859L617.01 77.5972Z" fill="#7A81FD"/>
<path d="M617.011 101.234L620.389 97.8522L623.767 94.4707L627.145 91.0892L630.523 87.7077L633.901 84.3262L637.279 80.9447L640.657 77.5631L644.035 74.1816L647.413 70.8001L650.791 67.4186L654.168 64.0371L657.546 60.6556L660.924 57.2741L664.302 53.8926L667.68 50.5111L671.058 47.1296L674.436 43.7481L675.939 42.244C675.769 42.21 675.6 42.1648 675.43 42.1309L673.634 43.929L670.256 47.3105L666.878 50.6921L663.5 54.0736L660.122 57.4551L656.744 60.8366L653.366 64.2181L649.988 67.5996L646.61 70.9811L643.232 74.3626L639.855 77.7441L636.477 81.1256L633.099 84.5071L629.721 87.8886L626.343 91.2701L622.965 94.6516L619.587 98.0331L616.209 101.415L614.266 103.36C614.3 103.529 614.333 103.699 614.379 103.869L617.011 101.234Z" fill="#7A81FD"/>
<path d="M615.893 109.105L617.011 107.985L620.389 104.604L623.767 101.222L627.145 97.8409L630.523 94.4594L633.901 91.0779L637.279 87.6964L640.657 84.3148L644.035 80.9333L647.413 77.5518L650.791 74.1703L654.169 70.7888L657.546 67.4073L660.924 64.0258L664.302 60.6443L667.68 57.2628L671.058 53.8813L674.436 50.4998L677.814 47.1183L681.17 43.7594C681.011 43.7029 680.865 43.6463 680.706 43.6011L680.379 43.929L677.001 47.3105L673.623 50.6921L670.245 54.0736L666.867 57.4551L663.489 60.8366L660.111 64.2181L656.733 67.5996L653.355 70.9811L649.977 74.3626L646.599 77.7441L643.221 81.1256L639.843 84.5071L636.465 87.8886L633.087 91.2701L629.709 94.6516L626.331 98.0331L621.27 103.1L619.587 104.785L616.209 108.166L615.734 108.641C615.791 108.8 615.847 108.947 615.893 109.105Z" fill="#7A81FD"/>
<path d="M617.01 104.604L620.388 101.223L623.766 97.8411L627.144 94.4596L630.522 91.0781L633.9 87.6966L637.278 84.3151L640.656 80.9336L644.034 77.5521L647.412 74.1706L650.79 70.7891L654.168 67.4076L657.546 64.0261L660.924 60.6445L664.302 57.263L667.68 53.8815L671.058 50.5L674.436 47.1185L677.814 43.737L678.616 42.9341C678.458 42.8888 678.288 42.8436 678.13 42.7983L677 43.9293L673.622 47.3108L670.244 50.6923L666.866 54.0738L663.488 57.4553L660.11 60.8368L656.732 64.2183L653.355 67.5998L649.977 70.9813L646.599 74.3628L643.221 77.7443L639.843 81.1258L636.465 84.5073L633.087 87.8888L629.709 91.2703L626.331 94.6518L622.953 98.0334L619.575 101.415L616.197 104.796L614.932 106.063C614.977 106.221 615.022 106.391 615.067 106.549L616.999 104.615L617.01 104.604Z" fill="#7A81FD"/>
<path d="M616.819 111.548L617.011 111.356L620.389 107.974L623.767 104.593L630.263 98.0898L630.512 97.841L633.89 94.4595L637.268 91.078L640.646 87.6965L644.024 84.315L647.402 80.9334L650.78 77.5519L654.158 74.1704L657.536 70.7889L660.914 67.4074L664.292 64.0259L667.67 60.6444L671.048 57.2629L674.425 53.8814L677.803 50.4999L681.181 47.1184L683.622 44.6756C683.475 44.619 683.328 44.5512 683.181 44.4946L680.379 47.2994L677.001 50.6809L673.623 54.0624L670.245 57.4439L666.867 60.8254L663.489 64.2069L660.112 67.5884L656.734 70.9699L653.356 74.3514L649.978 77.7329L646.6 81.1144L643.222 84.4959L639.844 87.8774L636.466 91.2589L633.088 94.6404L629.71 98.0219L626.332 101.403L622.954 104.785L619.576 108.166L616.639 111.107C616.695 111.254 616.763 111.401 616.819 111.548Z" fill="#7A81FD"/>
<path d="M613.633 87.7189L617.011 84.3374L620.389 80.9559L623.767 77.5744L627.145 74.1929L630.523 70.8114L633.901 67.4299L637.279 64.0484L640.657 60.6669L644.034 57.2854L647.412 53.9039L650.79 50.5224L654.168 47.1409L657.546 43.7593L660.213 41.0903C659.987 41.113 659.761 41.1356 659.535 41.1469L656.744 43.9403L653.366 47.3218L649.988 50.7033L646.61 54.0848L643.232 57.4663L639.854 60.8478L636.476 64.2293L633.098 67.6108L629.721 70.9923L626.343 74.3738L622.965 77.7554L619.587 81.1369L616.209 84.5184L613.271 87.4588C613.249 87.685 613.226 87.9112 613.215 88.1374L613.644 87.7076L613.633 87.7189Z" fill="#7A81FD"/>
</g>
<path d="M1445.75 361.739L1370.44 378.149C1368.76 378.511 1367.04 377.708 1366.22 376.181L1331.91 299.662C1330.03 296.111 1325.62 294.765 1322.07 296.642L1319.81 297.841L1355.44 387.592L1355.49 387.694C1356.53 389.65 1358.78 390.634 1360.91 390.069L1452.66 366.127C1451.93 363.028 1448.85 361.083 1445.74 361.739H1445.75Z" fill="#7A81FD"/>
<path d="M1323.09 494.749C1323.09 494.749 1316.94 507.472 1312.38 510.367L1299.85 513.341C1293.97 514.042 1292 518.295 1292 518.295L1325.11 533.63L1341.04 502.507L1323.1 494.749H1323.09Z" fill="#7A81FD"/>
<path d="M1494.68 384.211C1494.68 384.211 1415.83 387.174 1378.84 392.794C1368.14 394.423 1358.89 401.141 1353.92 410.765L1310.41 494.918L1348.95 515.207L1393.58 434.345L1474.71 431.925L1494.68 384.199V384.211Z" fill="white" stroke="#373854" stroke-linecap="round" stroke-linejoin="round"/>
<path d="M1497.77 365.086C1496.74 368.513 1495.19 371.782 1492.97 374.598C1474.51 398.065 1436.24 369.384 1404.95 369.622C1400.64 369.655 1396.81 369.735 1395.88 371.126C1394.32 373.455 1392.48 376.814 1391.35 376.724C1390.05 376.611 1392.08 372.042 1393.24 368.604C1393.24 368.604 1389.38 378.115 1387.97 377.595C1386.27 376.961 1390.62 366.127 1390.62 366.127C1390.62 366.127 1385.08 377.221 1383.66 375.502C1382.23 373.783 1388.25 363.91 1388.25 363.91C1388.25 363.91 1382.56 372.709 1380.73 371.827C1379.25 371.103 1384.07 364.408 1389.03 359.104C1391.97 355.971 1395.79 353.811 1400.02 353.008C1404.05 352.239 1409.98 351.764 1418.45 352.386C1418.45 352.386 1450.06 355.915 1476.39 360.201L1486.59 312.95C1487.84 307.137 1492.24 302.376 1498.03 301.041C1502.56 300.001 1507.66 300.465 1511 305.746C1513.37 309.501 1513.77 314.172 1512.44 318.413L1497.77 365.109V365.086Z" fill="white" stroke="#373854" stroke-linecap="round" stroke-linejoin="round"/>
<path d="M1398.27 513.533C1398.27 513.533 1406.94 529.468 1406.5 534.863L1401.34 546.681C1398.35 551.816 1400.57 555.932 1400.57 555.932L1432.72 538.674L1417.41 507.11L1398.26 513.522L1398.27 513.533Z" fill="#7A81FD"/>
<path d="M1502.61 374.202C1502.61 374.202 1392.46 367.676 1360.72 397.59C1335.14 421.701 1391.55 525.306 1391.55 525.306L1431.69 508.388L1399.07 435.363L1492.8 434.141C1492.8 434.141 1530.91 423.239 1521.1 374.202H1502.6H1502.61Z" fill="white" stroke="#373854" stroke-linecap="round" stroke-linejoin="round"/>
<path d="M1558.04 298.192C1558.04 298.192 1560.39 286.124 1546.8 281.182C1534.64 276.76 1533.51 264.23 1533.51 264.23C1533.51 264.23 1529.62 254.424 1518.65 255.046C1507.68 255.657 1513.19 237.053 1494.51 233.355C1491.71 232.801 1489.12 233.92 1486.86 235.809C1479.92 241.599 1478.79 251.857 1483.74 259.412L1509.17 298.18H1558.04V298.192Z" fill="#373854" stroke="#373854" stroke-linecap="round" stroke-linejoin="round"/>
<path d="M1487.47 308.607L1475.48 278.694L1485.92 263.878L1511.66 301.855L1487.47 308.607Z" fill="white" stroke="#373854" stroke-linecap="round" stroke-linejoin="round"/>
<path d="M1480.13 288.296L1485.34 279.893L1477.57 282.087L1480.13 288.296Z" fill="#373854" stroke="#373854" stroke-linecap="round" stroke-linejoin="round"/>
<path d="M1506.21 243.205C1512.64 255.691 1501.5 274.249 1488.25 281.092C1475 287.934 1464.46 283.478 1459.45 270.359C1454.79 258.111 1457.33 239.835 1470.57 232.993C1483.82 226.151 1499.77 230.72 1506.21 243.205Z" fill="white" stroke="#373854" stroke-linecap="round" stroke-linejoin="round"/>
<path d="M1507.52 246.711C1503.32 233.502 1489.99 227.055 1475.62 231.036C1464.31 234.169 1457.02 245.23 1456.25 256.392C1456.41 256.437 1465.38 256.154 1469.21 246.202C1469.21 246.202 1470.27 262.216 1487.15 259.106L1494.65 276.76C1504.66 272.123 1512.19 261.334 1507.53 246.711H1507.52Z" fill="#373854" stroke="#373854" stroke-linecap="round" stroke-linejoin="round"/>
<path d="M1472.53 274.781C1472.53 274.781 1476.16 274.509 1476.74 270.427L1472.53 274.781Z" fill="white"/>
<path d="M1472.53 274.781C1472.53 274.781 1476.16 274.509 1476.74 270.427" stroke="#373854" stroke-linecap="round" stroke-linejoin="round"/>
<path d="M1489.01 271.151C1490.61 270.687 1492.12 269.59 1493.16 267.973C1495.25 264.738 1494.67 260.656 1491.86 258.835C1489.96 257.602 1487.97 258.043 1486.24 259.468" fill="white"/>
<path d="M1489.01 271.151C1490.61 270.687 1492.12 269.59 1493.16 267.973C1495.25 264.738 1494.67 260.656 1491.86 258.835C1489.96 257.602 1487.97 258.043 1486.24 259.468" stroke="#373854" stroke-linecap="round" stroke-linejoin="round"/>
<path d="M1486.86 266.955C1486.86 266.955 1487.64 263.822 1490.4 264.41L1486.86 266.955Z" fill="white"/>
<path d="M1486.86 266.955C1486.86 266.955 1487.64 263.822 1490.4 264.41" stroke="#373854" stroke-linecap="round" stroke-linejoin="round"/>
<path d="M1496.46 230.347C1496.73 235.13 1500.82 238.783 1505.59 238.512C1510.37 238.24 1514.02 234.146 1513.75 229.374C1513.48 224.59 1509.39 220.937 1504.62 221.209C1499.84 221.48 1496.19 225.574 1496.46 230.347Z" fill="#373854" stroke="#373854" stroke-linecap="round" stroke-linejoin="round"/>
<path d="M1481.46 299.401L1506.96 290.286C1506.96 290.286 1537.53 341.088 1538.62 374.869C1538.62 374.869 1502.61 374.202 1471.6 373.851L1481.46 299.39V299.401Z" fill="#7A81FD"/>
<mask id="mask1_4815_2543" style="mask-type:luminance" maskUnits="userSpaceOnUse" x="1471" y="290" width="68" height="85">
<path d="M1481.46 299.401L1506.96 290.286C1506.96 290.286 1537.53 341.088 1538.62 374.869C1538.62 374.869 1502.61 374.202 1471.6 373.851L1481.46 299.39V299.401Z" fill="white"/>
</mask>
<g mask="url(#mask1_4815_2543)">
<path d="M1487.7 314.296H1497.96" stroke="white" stroke-linecap="round" stroke-linejoin="round"/>
<path d="M1492.84 304.016L1502.4 300.035" stroke="white" stroke-linecap="round" stroke-linejoin="round"/>
<path d="M1508.95 303.077V314.296" stroke="white" stroke-linecap="round" stroke-linejoin="round"/>
<path d="M1504.04 327.845L1510.81 320.833" stroke="white" stroke-linecap="round" stroke-linejoin="round"/>
<path d="M1490.5 326.442L1489.33 334.856" stroke="white" stroke-linecap="round" stroke-linejoin="round"/>
<path d="M1499.14 338.136L1508.95 340.002" stroke="white" stroke-linecap="round" stroke-linejoin="round"/>
<path d="M1517.11 339.063L1523.64 332.527" stroke="white" stroke-linecap="round" stroke-linejoin="round"/>
<path d="M1504.04 347.715L1510.81 353.087" stroke="white" stroke-linecap="round" stroke-linejoin="round"/>
<path d="M1510.81 364.465H1521.08" stroke="white" stroke-linecap="round" stroke-linejoin="round"/>
<path d="M1515.95 354.173L1525.52 350.203" stroke="white" stroke-linecap="round" stroke-linejoin="round"/>
<path d="M1532.05 353.246V364.465" stroke="white" stroke-linecap="round" stroke-linejoin="round"/>
<path d="M1527.14 378.013L1533.92 371.001" stroke="white" stroke-linecap="round" stroke-linejoin="round"/>
<path d="M1464.62 343.158H1474.89" stroke="white" stroke-linecap="round" stroke-linejoin="round"/>
<path d="M1469.75 332.877L1479.32 328.896" stroke="white" stroke-linecap="round" stroke-linejoin="round"/>
<path d="M1480.96 356.718L1487.73 349.706" stroke="white" stroke-linecap="round" stroke-linejoin="round"/>
<path d="M1476.06 366.998L1485.86 368.864" stroke="white" stroke-linecap="round" stroke-linejoin="round"/>
<path d="M1494.03 367.937L1500.57 361.388" stroke="white" stroke-linecap="round" stroke-linejoin="round"/>
</g>
<path d="M1468.83 379.291C1466.77 382.22 1464.27 384.844 1461.29 386.812C1436.4 403.278 1409.05 364.035 1379.28 354.422C1375.17 353.099 1371.51 351.968 1370.2 352.997C1367.99 354.727 1365.18 357.34 1364.15 356.887C1362.95 356.378 1366.31 352.669 1368.48 349.774C1368.48 349.774 1361.84 357.588 1360.67 356.661C1359.24 355.519 1366.77 346.607 1366.77 346.607C1366.77 346.607 1358.03 355.394 1357.22 353.313C1356.41 351.233 1365.22 343.746 1365.22 343.746C1365.22 343.746 1357.05 350.305 1355.59 348.891C1354.41 347.738 1361.09 342.898 1367.47 339.426C1371.24 337.367 1375.54 336.519 1379.8 337.084C1383.87 337.627 1389.65 339.03 1397.51 342.287C1397.51 342.287 1426.42 355.575 1450.05 367.914L1474.57 326.261C1477.58 321.127 1483.25 318.006 1489.17 318.56C1493.81 318.989 1498.5 321.036 1500.01 327.11C1501.08 331.418 1499.99 335.976 1497.4 339.584L1468.84 379.302L1468.83 379.291Z" fill="white" stroke="#373854" stroke-linecap="round" stroke-linejoin="round"/>
<path d="M1451.04 356.695L1479.36 376.724C1479.36 376.724 1524.54 319.77 1503.67 306.018C1483.98 293.034 1451.04 356.695 1451.04 356.695Z" fill="#7A81FD" stroke="#373854" stroke-linecap="round" stroke-linejoin="round"/>
<mask id="mask2_4815_2543" style="mask-type:luminance" maskUnits="userSpaceOnUse" x="1451" y="304" width="59" height="73">
<path d="M1451.04 356.695L1479.36 376.724C1479.36 376.724 1524.54 319.77 1503.67 306.018C1483.98 293.034 1451.04 356.695 1451.04 356.695Z" fill="white"/>
</mask>
<g mask="url(#mask2_4815_2543)">
<path d="M1487.7 314.296H1497.96" stroke="white" stroke-linecap="round" stroke-linejoin="round"/>
<path d="M1492.84 304.016L1502.4 300.035" stroke="white" stroke-linecap="round" stroke-linejoin="round"/>
<path d="M1508.95 303.077V314.296" stroke="white" stroke-linecap="round" stroke-linejoin="round"/>
<path d="M1504.04 327.844L1510.81 320.833" stroke="white" stroke-linecap="round" stroke-linejoin="round"/>
<path d="M1490.5 326.442L1489.33 334.856" stroke="white" stroke-linecap="round" stroke-linejoin="round"/>
<path d="M1499.14 338.136L1508.95 340.002" stroke="white" stroke-linecap="round" stroke-linejoin="round"/>
<path d="M1504.04 347.715L1510.81 353.087" stroke="white" stroke-linecap="round" stroke-linejoin="round"/>
<path d="M1464.62 343.157H1474.89" stroke="white" stroke-linecap="round" stroke-linejoin="round"/>
<path d="M1469.75 332.877L1479.32 328.896" stroke="white" stroke-linecap="round" stroke-linejoin="round"/>
<path d="M1480.96 356.717L1487.73 349.706" stroke="white" stroke-linecap="round" stroke-linejoin="round"/>
<path d="M1467.43 355.315L1466.25 363.729" stroke="white" stroke-linecap="round" stroke-linejoin="round"/>
<path d="M1476.06 366.998L1485.86 368.864" stroke="white" stroke-linecap="round" stroke-linejoin="round"/>
<path d="M1494.03 367.936L1500.57 361.388" stroke="white" stroke-linecap="round" stroke-linejoin="round"/>
<path d="M1480.96 376.577L1487.73 381.949" stroke="white" stroke-linecap="round" stroke-linejoin="round"/>
</g>
</g>
</svg>
