<svg width="588" height="979" viewBox="0 0 588 979" fill="none" xmlns="http://www.w3.org/2000/svg">
<path d="M245.862 0H240.615V187.664H245.862V0Z" fill="#6C757D"/>
<path d="M253.47 210.156C253.47 216.235 248.485 221.098 242.451 221.098C236.33 221.098 231.432 216.148 231.432 210.156V198.346C231.432 192.267 236.417 187.404 242.451 187.404C248.573 187.404 253.47 192.354 253.47 198.346V210.156Z" fill="#FFED00"/>
<path d="M261.69 207.117H223.125L227.672 171.599H257.143L261.69 207.117Z" fill="#6C757D"/>
<path d="M384.147 0H378.9V294.393H384.147V0Z" fill="#6C757D"/>
<path d="M391.667 317.058C391.667 323.137 386.683 328 380.649 328C374.527 328 369.63 323.05 369.63 317.058V305.248C369.63 299.169 374.615 294.306 380.649 294.306C386.77 294.306 391.667 299.256 391.667 305.248V317.058Z" fill="#FFED00"/>
<path d="M399.975 314.019H361.41L365.957 278.587H395.428L399.975 314.019Z" fill="#6C757D"/>
<path d="M51 196C79.1665 196 102 173.167 102 145C102 116.833 79.1665 94 51 94C22.8335 94 0 116.833 0 145C0 173.167 22.8335 196 51 196Z" fill="#1A242D"/>
<path d="M51 191C25.6 191 4.90002 170.3 4.90002 144.9C4.90002 119.5 25.6 98.7998 51 98.7998C76.4 98.7998 97.1 119.5 97.1 144.9C97.1 170.4 76.4 191 51 191Z" fill="#13B4CA"/>
<path d="M52.7 105.1H50.9V112.3H52.7V105.1Z" fill="#1A242D"/>
<path d="M52.7 178.2H50.9V185.4H52.7V178.2Z" fill="#1A242D"/>
<path d="M18.9 144.4H11.7V146.2H18.9V144.4Z" fill="#1A242D"/>
<path d="M92 144.4H84.8V146.2H92V144.4Z" fill="#1A242D"/>
<path d="M52.8 118.9H51V146.3H52.8V118.9Z" fill="#1A242D"/>
<path d="M78.1 145.4H51.3V147.2H78.1V145.4Z" fill="#1A242D"/>
<path d="M52.5 150.2C54.6539 150.2 56.4 148.454 56.4 146.3C56.4 144.146 54.6539 142.4 52.5 142.4C50.3461 142.4 48.6 144.146 48.6 146.3C48.6 148.454 50.3461 150.2 52.5 150.2Z" fill="white"/>
<path d="M482.263 177.541H472.815V239.304H482.263V177.541Z" fill="#00A9A3"/>
<path d="M498.139 185.35L489.714 186.558L497.248 239.117L505.673 237.91L498.139 185.35Z" fill="#EF7B73"/>
<path d="M517.004 186.559L507.289 189.505L522.698 240.318L532.412 237.372L517.004 186.559Z" fill="#1B404C"/>
<path d="M476.641 179.181H474.221V237.43H476.641V179.181Z" fill="#1BC1B5"/>
<path d="M489.759 179.884H482.185V238.211H489.759V179.884Z" fill="#FFF67C"/>
<path d="M486.011 187.926H483.59V236.649H486.011V187.926Z" fill="#EFCABB"/>
<path d="M470.551 242.818H462.274V246.41H470.551V242.818Z" fill="#754C28"/>
<path d="M573.073 243.208H564.796V246.8H573.073V243.208Z" fill="#754C28"/>
<path d="M472.425 167H469.848V239.226H472.425V167Z" fill="#754C28"/>
<path d="M506.966 186.122L498.708 188.183L511.562 239.702L519.82 237.641L506.966 186.122Z" fill="#1A8E4E"/>
<path d="M587.596 237.43H449V243.364H587.596V237.43Z" fill="#754C28"/>
<path d="M580.334 229.935H534.11V237.665H580.334V229.935Z" fill="#EF7B73"/>
<path d="M583.692 221.97H537.467V229.7H583.692V221.97Z" fill="#00A9A3"/>
<path d="M579.163 214.318H540.668V222.048H579.163V214.318Z" fill="#1BC1B5"/>
<path d="M490.923 363H123.704C107.829 363 94.9066 375.923 94.9066 391.798C94.9066 392.323 94.9066 392.782 94.9722 393.307V911.402H462.126V391.798H490.923V363Z" fill="#DCEBED"/>
<path d="M151.124 421.842C151.124 411.937 157.225 405.902 167.196 405.902C173.297 405.902 177.757 408.198 180.709 411.871L175.921 415.938C174.149 413.446 171.263 411.806 167.327 411.806C161.227 411.806 157.487 415.545 157.487 421.842C157.487 428.14 161.227 432.141 167.327 432.141C171.263 432.141 174.084 430.501 175.921 428.008L180.709 432.076C177.757 435.683 173.559 437.914 167.196 437.914C157.225 437.914 151.124 431.748 151.124 421.842Z" fill="#1A242D"/>
<path d="M183.005 421.908C183.005 412.527 189.303 405.836 199.339 405.836C209.048 405.836 215.739 412.199 215.739 421.908C215.739 431.288 209.376 437.913 199.339 437.913C189.696 437.913 183.005 431.616 183.005 421.908ZM209.376 421.908C209.376 415.938 205.505 411.609 199.405 411.609C193.567 411.609 189.499 415.61 189.499 421.908C189.499 427.877 193.37 432.141 199.405 432.141C205.243 432.141 209.376 428.139 209.376 421.908Z" fill="#1A242D"/>
<path d="M248.276 437.323H245.193L226.694 418.234V437.323H220.593V406.492H223.611L242.175 425.581V406.492H248.276V437.323Z" fill="#1A242D"/>
<path d="M252.277 411.871V406.492H278.188V411.871H268.348V437.323H262.117V411.871H252.277Z" fill="#1A242D"/>
<path d="M294.719 428.599H288.356V437.323H282.19V406.492H294.719C302.853 406.492 307.183 410.362 307.183 417.513C307.183 422.433 305.018 425.778 301.016 427.418L308.298 437.323H300.82L294.719 428.599ZM300.754 417.709C300.754 413.839 298.721 411.806 294.26 411.806H288.422V423.285H293.735C298.524 423.285 300.754 420.989 300.754 417.709Z" fill="#1A242D"/>
<path d="M318.465 431.485L315.842 437.323H309.216L323.779 406.426H327.124L341.753 437.323H335.127L332.503 431.485H318.465ZM330.47 426.434L325.419 414.757L320.433 426.434H330.47Z" fill="#1A242D"/>
<path d="M341.294 421.842C341.294 411.937 347.395 405.902 357.365 405.902C363.466 405.902 367.927 408.198 370.879 411.871L366.09 415.938C364.319 413.446 361.433 411.806 357.497 411.806C351.396 411.806 347.657 415.545 347.657 421.842C347.657 428.14 351.396 432.141 357.497 432.141C361.433 432.141 364.253 430.501 366.09 428.008L370.879 432.076C367.927 435.683 363.728 437.914 357.365 437.914C347.46 437.914 341.294 431.748 341.294 421.842Z" fill="#1A242D"/>
<path d="M372.846 411.871V406.492H398.758V411.871H388.918V437.323H382.686V411.871H372.846Z" fill="#1A242D"/>
<path d="M490.923 363C475.049 363 462.191 375.857 462.126 391.732V446.375H519.721V391.863C519.721 375.923 506.798 363 490.923 363Z" fill="#BEDFE4"/>
<path d="M366.811 473.731H267.495C264.937 473.731 262.904 471.697 262.904 469.139C262.904 466.58 264.937 464.547 267.495 464.547H366.811C369.369 464.547 371.403 466.58 371.403 469.139C371.403 471.631 369.369 473.731 366.811 473.731Z" fill="white"/>
<path d="M380.259 535.72H355.659C353.101 535.72 351.067 533.687 351.067 531.128C351.067 528.57 353.101 526.537 355.659 526.537H380.193C382.751 526.537 384.785 528.57 384.785 531.128C384.785 533.687 382.751 535.72 380.259 535.72Z" fill="white"/>
<path d="M347.132 495.378H308.166C305.608 495.378 303.574 493.345 303.574 490.786C303.574 488.228 305.608 486.194 308.166 486.194H347.132C349.69 486.194 351.724 488.228 351.724 490.786C351.724 493.345 349.69 495.378 347.132 495.378Z" fill="white"/>
<path d="M310.725 561.96H269.726C267.167 561.96 265.134 559.927 265.134 557.368C265.134 554.81 267.167 552.776 269.726 552.776H310.659C313.217 552.776 315.251 554.81 315.251 557.368C315.251 559.927 313.217 561.96 310.725 561.96Z" fill="white"/>
<path d="M409.122 588.199H348.444C345.885 588.199 343.852 586.166 343.852 583.608C343.852 581.049 345.885 579.016 348.444 579.016H409.056C411.615 579.016 413.648 581.049 413.648 583.608C413.648 586.166 411.615 588.199 409.122 588.199Z" fill="white"/>
<path d="M422.898 614.439H399.61C397.052 614.439 395.018 612.406 395.018 609.847C395.018 607.289 397.052 605.255 399.61 605.255H422.832C425.39 605.255 427.424 607.289 427.424 609.847C427.424 612.406 425.39 614.439 422.898 614.439Z" fill="white"/>
<path d="M422.897 640.678H374.683C372.124 640.678 370.091 638.645 370.091 636.087C370.091 633.528 372.124 631.495 374.683 631.495H422.832C425.39 631.495 427.424 633.528 427.424 636.087C427.424 638.645 425.39 640.678 422.897 640.678Z" fill="white"/>
<path d="M204.456 666.917H193.632C191.073 666.917 189.04 664.884 189.04 662.325C189.04 659.767 191.073 657.733 193.632 657.733H204.39C206.948 657.733 208.982 659.767 208.982 662.325C208.982 664.884 206.948 666.917 204.456 666.917Z" fill="white"/>
<path d="M196.584 693.157H135.905C133.347 693.157 131.313 691.123 131.313 688.565C131.313 686.007 133.347 683.973 135.905 683.973H196.518C199.076 683.973 201.11 686.007 201.11 688.565C201.176 691.058 199.076 693.157 196.584 693.157Z" fill="white"/>
<path d="M422.898 719.396H379.931C377.372 719.396 375.339 717.363 375.339 714.804C375.339 712.246 377.372 710.212 379.931 710.212H422.832C425.39 710.212 427.424 712.246 427.424 714.804C427.424 717.363 425.39 719.396 422.898 719.396Z" fill="white"/>
<path d="M180.84 588.199H135.905C133.347 588.199 131.313 586.166 131.313 583.608C131.313 581.049 133.347 579.016 135.905 579.016H180.775C183.333 579.016 185.366 581.049 185.366 583.608C185.366 586.166 183.333 588.199 180.84 588.199Z" fill="white"/>
<path d="M422.898 778.435H345.82C343.261 778.435 341.228 776.401 341.228 773.843C341.228 771.285 343.261 769.251 345.82 769.251H422.832C425.39 769.251 427.424 771.285 427.424 773.843C427.424 776.401 425.39 778.435 422.898 778.435Z" fill="white"/>
<path d="M395.346 878.799H326.14C323.582 878.799 321.548 876.766 321.548 874.208C321.548 871.649 323.582 869.616 326.14 869.616H395.281C397.839 869.616 399.873 871.649 399.873 874.208C399.873 876.766 397.839 878.799 395.346 878.799Z" fill="white"/>
<path d="M376.979 856.497H326.14C323.582 856.497 321.548 854.463 321.548 851.905C321.548 849.347 323.582 847.313 326.14 847.313H376.913C379.472 847.313 381.505 849.347 381.505 851.905C381.505 854.463 379.472 856.497 376.979 856.497Z" fill="white"/>
<path d="M193.304 745.635H135.905C133.347 745.635 131.313 743.602 131.313 741.044C131.313 738.485 133.347 736.452 135.905 736.452H193.238C195.797 736.452 197.83 738.485 197.83 741.044C197.83 743.602 195.797 745.635 193.304 745.635Z" fill="white"/>
<path d="M158.537 640.678H135.905C133.347 640.678 131.313 638.645 131.313 636.087C131.313 633.528 133.347 631.495 135.905 631.495H158.471C161.029 631.495 163.063 633.528 163.063 636.087C163.063 638.645 161.029 640.678 158.537 640.678Z" fill="white"/>
<path d="M180.184 614.439H135.905C133.347 614.439 131.313 612.406 131.313 609.847C131.313 607.289 133.347 605.255 135.905 605.255H180.119C182.677 605.255 184.71 607.289 184.71 609.847C184.71 612.406 182.677 614.439 180.184 614.439Z" fill="white"/>
<path d="M331.06 588.199H286.125C283.567 588.199 281.533 586.166 281.533 583.608C281.533 581.049 283.567 579.016 286.125 579.016H330.994C333.553 579.016 335.586 581.049 335.586 583.608C335.586 586.166 333.553 588.199 331.06 588.199Z" fill="white"/>
<path d="M219.543 640.678H175.264C172.706 640.678 170.672 638.645 170.672 636.087C170.672 633.528 172.706 631.495 175.264 631.495H219.477C222.036 631.495 224.069 633.528 224.069 636.087C224.069 638.645 222.036 640.678 219.543 640.678Z" fill="white"/>
<path d="M422.898 666.917H398.954C396.396 666.917 394.362 664.884 394.362 662.325C394.362 659.767 396.396 657.733 398.954 657.733H422.832C425.39 657.733 427.424 659.767 427.424 662.325C427.424 664.884 425.39 666.917 422.898 666.917Z" fill="white"/>
<path d="M178.216 666.917H135.905C133.347 666.917 131.313 664.884 131.313 662.325C131.313 659.767 133.347 657.733 135.905 657.733H178.151C180.709 657.733 182.743 659.767 182.743 662.325C182.743 664.884 180.709 666.917 178.216 666.917Z" fill="white"/>
<path d="M422.898 693.157H393.05C390.492 693.157 388.458 691.123 388.458 688.565C388.458 686.007 390.492 683.973 393.05 683.973H422.832C425.39 683.973 427.424 686.007 427.424 688.565C427.489 691.058 425.39 693.157 422.898 693.157Z" fill="white"/>
<path d="M363.859 719.396H334.012C331.454 719.396 329.42 717.363 329.42 714.804C329.42 712.246 331.454 710.212 334.012 710.212H363.794C366.352 710.212 368.386 712.246 368.386 714.804C368.386 717.363 366.352 719.396 363.859 719.396Z" fill="white"/>
<path d="M382.883 614.439H328.764C326.206 614.439 324.172 612.406 324.172 609.847C324.172 607.289 326.206 605.255 328.764 605.255H382.817C385.375 605.255 387.409 607.289 387.409 609.847C387.409 612.406 385.375 614.439 382.883 614.439Z" fill="white"/>
<path d="M357.299 640.678H306.461C303.902 640.678 301.869 638.645 301.869 636.087C301.869 633.528 303.902 631.495 306.461 631.495H357.234C359.792 631.495 361.826 633.528 361.826 636.087C361.826 638.645 359.792 640.678 357.299 640.678Z" fill="white"/>
<path d="M382.227 666.917H326.14C323.582 666.917 321.548 664.884 321.548 662.325C321.548 659.767 323.582 657.733 326.14 657.733H382.161C384.72 657.733 386.753 659.767 386.753 662.325C386.753 664.884 384.719 666.917 382.227 666.917Z" fill="white"/>
<path d="M376.979 693.157H330.732C328.174 693.157 326.14 691.123 326.14 688.565C326.14 686.007 328.174 683.973 330.732 683.973H376.913C379.471 683.973 381.505 686.007 381.505 688.565C381.571 691.058 379.471 693.157 376.979 693.157Z" fill="white"/>
<path d="M310.725 614.439H289.405C286.847 614.439 284.813 612.406 284.813 609.847C284.813 607.289 286.847 605.255 289.405 605.255H310.659C313.217 605.255 315.251 607.289 315.251 609.847C315.251 612.406 313.217 614.439 310.725 614.439Z" fill="white"/>
<path d="M158.537 561.96H135.905C133.347 561.96 131.313 559.927 131.313 557.368C131.313 554.81 133.347 552.776 135.905 552.776H158.471C161.029 552.776 163.063 554.81 163.063 557.368C163.063 559.927 161.029 561.96 158.537 561.96Z" fill="white"/>
<path d="M397.314 561.96H328.764C326.206 561.96 324.172 559.927 324.172 557.368C324.172 554.81 326.206 552.776 328.764 552.776H397.249C399.807 552.776 401.84 554.81 401.84 557.368C401.84 559.927 399.807 561.96 397.314 561.96Z" fill="white"/>
<path d="M212.983 614.439H196.912C194.353 614.439 192.32 612.406 192.32 609.847C192.32 607.289 194.353 605.255 196.912 605.255H212.918C215.476 605.255 217.51 607.289 217.51 609.847C217.51 612.406 215.476 614.439 212.983 614.439Z" fill="white"/>
<path d="M159.193 535.72H135.905C133.347 535.72 131.313 533.687 131.313 531.128C131.313 528.57 133.347 526.537 135.905 526.537H159.127C161.685 526.537 163.719 528.57 163.719 531.128C163.719 533.687 161.685 535.72 159.193 535.72Z" fill="white"/>
<path d="M337.62 535.72H269.07C266.511 535.72 264.478 533.687 264.478 531.128C264.478 528.57 266.511 526.537 269.07 526.537H337.554C340.113 526.537 342.146 528.57 342.146 531.128C342.146 533.687 340.113 535.72 337.62 535.72Z" fill="white"/>
<path d="M248.734 473.731H184.842C182.283 473.731 180.25 471.697 180.25 469.139C180.25 466.58 182.283 464.547 184.842 464.547H248.734C251.293 464.547 253.326 466.58 253.326 469.139C253.326 471.631 251.293 473.731 248.734 473.731Z" fill="white"/>
<path d="M289.405 495.378H204.521C201.963 495.378 199.929 493.345 199.929 490.786C199.929 488.228 201.963 486.194 204.521 486.194H289.405C291.964 486.194 293.997 488.228 293.997 490.786C293.997 493.345 291.964 495.378 289.405 495.378Z" fill="white"/>
<path d="M415.616 756.459C413.321 762.297 409.516 755.475 407.023 756.197C405.974 756.459 405.055 757.115 404.202 757.837C404.137 756.656 402.759 755.869 401.71 756.525C400.66 757.181 398.495 759.083 396.068 761.576C396.068 761.117 396.068 760.723 396.068 760.461C396.068 758.624 393.903 758.362 392.985 759.608C387.54 759.542 387.54 759.149 393.182 758.427C395.084 758.821 396.068 756.459 394.494 755.41C389.312 751.933 383.867 757.246 379.669 761.445C379.734 760.33 379.865 759.214 379.931 758.099C379.997 757.05 378.816 756.197 377.832 756.459C373.962 757.64 369.173 759.411 364.975 761.904C364.778 760.723 364.581 759.542 364.45 758.296C363.925 753.77 363.859 749.047 369.37 752.851C371.141 754.098 372.846 751.211 371.075 749.965C361.957 743.668 360.252 752.261 361.301 760.067C361.498 761.379 361.695 762.626 361.957 763.937C358.94 766.233 356.447 768.989 355.397 772.4C353.429 778.631 356.316 785.847 363.728 782.764C368.911 780.599 367.402 775.811 366.68 771.35C366.352 769.448 366.024 767.545 365.631 765.643C368.845 763.413 372.715 761.773 376.389 760.526C376.258 762.232 376.126 764.003 376.061 765.709C376.061 767.283 377.832 767.808 378.881 766.889C379.997 765.905 381.833 763.872 383.801 761.97C383.801 762.429 383.801 762.888 383.867 763.413C384.851 768.923 389.246 767.152 392.592 764.593C392.592 764.921 392.591 765.184 392.526 765.512C386.491 772.531 381.046 781.452 387.147 784.207C393.903 787.225 395.478 774.63 395.871 766.43C397.249 764.79 398.692 763.216 400.266 761.838V761.904C400.004 763.609 401.71 764.659 403.022 763.544C405.449 761.51 406.039 759.608 409.385 761.904C410.697 762.822 411.615 763.609 413.255 763.609C416.535 763.609 417.847 759.87 418.765 757.443C419.618 755.344 416.404 754.491 415.616 756.459ZM363.991 777.057C363.991 777.32 363.991 777.582 363.991 777.844C364.056 780.337 362.088 780.468 358.087 778.304C356.512 774.433 360.12 770.366 362.613 767.939C363.203 770.956 363.728 773.974 363.991 777.057ZM390.296 779.091C389.18 782.699 388.393 778.894 388.787 777.516C389.443 775.483 390.689 773.58 391.87 771.744C391.542 774.236 391.017 776.664 390.296 779.091Z" fill="#13B4CA"/>
<path d="M381.637 751.407C381.637 750.948 381.768 750.489 381.899 750.227C382.817 748.324 379.997 746.619 379.013 748.521C378.553 749.439 378.357 750.358 378.291 751.407C378.225 753.507 381.571 753.507 381.637 751.407Z" fill="#13B4CA"/>
<g opacity="0.4">
<path d="M192.91 869.42C215.227 869.42 233.319 851.328 233.319 829.011C233.319 806.694 215.227 788.603 192.91 788.603C170.593 788.603 152.502 806.694 152.502 829.011C152.502 851.328 170.593 869.42 192.91 869.42Z" fill="#13B4CA"/>
<path d="M192.91 779.352L194.222 781.386C195.993 784.076 199.011 785.716 202.225 785.716C204.259 785.716 206.292 785.06 207.932 783.813L209.9 782.304L210.491 784.666C211.54 788.995 215.345 792.013 219.806 792.013C220.724 792.013 221.642 791.882 222.561 791.619L224.857 790.898L224.594 793.325C224.266 795.949 225.119 798.573 226.759 800.606C228.465 802.64 230.892 803.886 233.516 804.017L235.943 804.149L234.828 806.313C233.647 808.675 233.516 811.43 234.368 813.857C235.287 816.35 237.124 818.318 239.551 819.367L241.781 820.351L240.01 821.991C238.107 823.763 236.992 826.321 236.992 828.945C236.992 831.569 238.107 834.127 240.01 835.898L241.781 837.538L239.551 838.522C237.124 839.572 235.287 841.605 234.368 844.032C233.45 846.525 233.647 849.215 234.828 851.576L235.943 853.741L233.516 853.872C230.892 854.003 228.465 855.25 226.759 857.283C225.053 859.317 224.266 861.941 224.594 864.565L224.857 866.992L222.561 866.27C221.642 866.008 220.724 865.877 219.806 865.877C215.345 865.877 211.54 868.894 210.491 873.224L209.9 875.585L207.932 874.142C206.292 872.896 204.324 872.24 202.225 872.24C199.011 872.24 195.993 873.814 194.222 876.569L192.91 878.603L191.598 876.569C189.827 873.88 186.81 872.24 183.595 872.24C181.562 872.24 179.528 872.896 177.888 874.142L175.92 875.651L175.33 873.289C174.28 868.96 170.476 865.942 166.015 865.942C165.097 865.942 164.178 866.073 163.26 866.336L160.964 867.057L161.226 864.63C161.554 862.006 160.702 859.382 159.062 857.349C157.422 855.315 154.929 854.069 152.305 853.938L149.878 853.806L150.927 851.642C152.108 849.28 152.239 846.525 151.387 844.098C150.468 841.605 148.631 839.637 146.204 838.588L143.974 837.604L145.745 835.964C147.648 834.193 148.763 831.634 148.763 829.01C148.763 826.386 147.648 823.828 145.745 822.057L143.974 820.417L146.204 819.433C148.631 818.383 150.468 816.35 151.387 813.923C152.305 811.43 152.108 808.741 150.927 806.379L149.878 804.214L152.305 804.083C154.929 803.952 157.356 802.705 159.062 800.672C160.767 798.638 161.554 796.014 161.226 793.391L160.964 790.963L163.26 791.685C164.178 791.947 165.097 792.079 166.015 792.079C170.476 792.079 174.28 789.061 175.33 784.732L175.92 782.37L177.888 783.813C179.528 785.06 181.496 785.716 183.595 785.716C186.81 785.716 189.827 784.141 191.598 781.386L192.91 779.352ZM192.91 774.433C191.402 774.433 189.893 775.154 188.974 776.532L187.531 778.697C186.613 780.074 185.104 780.796 183.595 780.796C182.611 780.796 181.627 780.468 180.775 779.877L178.675 778.303C177.823 777.647 176.839 777.385 175.855 777.385C173.756 777.385 171.788 778.762 171.263 780.992L170.672 783.485C170.148 785.65 168.18 787.093 166.081 787.093C165.621 787.093 165.162 787.027 164.703 786.896L162.21 786.175C161.751 786.044 161.292 785.978 160.833 785.978C158.143 785.978 155.782 788.339 156.11 791.226L156.372 793.784C156.7 796.474 154.667 798.901 151.977 799.032L149.419 799.163C146.008 799.36 143.974 802.968 145.483 805.985L146.664 808.281C147.844 810.708 146.795 813.66 144.302 814.71L141.94 815.76C138.857 817.137 138.136 821.204 140.563 823.566L142.465 825.337C144.433 827.174 144.433 830.322 142.465 832.225L140.563 833.996C138.07 836.357 138.792 840.424 141.94 841.802L144.302 842.852C146.795 843.967 147.844 846.853 146.664 849.28L145.483 851.576C143.974 854.594 146.073 858.202 149.419 858.398L151.977 858.53C154.667 858.726 156.7 861.088 156.372 863.777L156.11 866.336C155.782 869.222 158.078 871.584 160.833 871.584C161.292 871.584 161.751 871.518 162.21 871.387L164.703 870.665C165.162 870.534 165.621 870.468 166.081 870.468C168.18 870.468 170.148 871.912 170.672 874.076L171.263 876.569C171.788 878.799 173.821 880.177 175.855 880.177C176.839 880.177 177.823 879.915 178.675 879.259L180.775 877.684C181.627 877.028 182.611 876.766 183.595 876.766C185.104 876.766 186.613 877.487 187.531 878.865L188.974 881.03C189.893 882.473 191.402 883.129 192.91 883.129C194.419 883.129 195.928 882.407 196.846 881.03L198.289 878.865C199.208 877.487 200.716 876.766 202.225 876.766C203.209 876.766 204.193 877.094 205.046 877.684L207.145 879.259C207.998 879.915 208.982 880.177 209.966 880.177C212.065 880.177 214.033 878.799 214.558 876.569L215.148 874.076C215.673 871.912 217.641 870.468 219.74 870.468C220.199 870.468 220.658 870.534 221.118 870.665L223.61 871.387C224.069 871.518 224.529 871.584 224.988 871.584C227.677 871.584 230.039 869.222 229.711 866.336L229.449 863.777C229.121 861.088 231.154 858.661 233.844 858.53L236.402 858.398C239.813 858.202 241.847 854.594 240.338 851.576L239.157 849.28C237.976 846.853 239.026 843.901 241.519 842.852L243.88 841.802C246.963 840.424 247.685 836.357 245.258 833.996L243.355 832.225C241.387 830.388 241.387 827.239 243.355 825.337L245.258 823.566C247.75 821.204 247.029 817.137 243.88 815.76L241.519 814.71C239.026 813.66 237.976 810.708 239.157 808.281L240.338 805.985C241.847 802.968 239.747 799.36 236.402 799.163L233.844 799.032C231.154 798.835 229.121 796.474 229.449 793.784L229.711 791.226C230.039 788.339 227.743 785.978 224.988 785.978C224.529 785.978 224.069 786.044 223.61 786.175L221.118 786.896C220.658 787.027 220.199 787.093 219.74 787.093C217.641 787.093 215.673 785.65 215.148 783.485L214.558 780.992C214.033 778.762 211.999 777.385 209.966 777.385C208.982 777.385 207.998 777.647 207.145 778.303L205.046 779.877C204.193 780.533 203.209 780.796 202.225 780.796C200.716 780.796 199.208 780.074 198.289 778.697L196.846 776.532C195.928 775.089 194.419 774.433 192.91 774.433Z" fill="#13B4CA"/>
<path d="M190.549 848.035C189.368 848.035 188.253 847.641 187.335 846.788L173.362 833.997C171.394 832.226 171.263 829.208 173.034 827.24C174.805 825.272 177.823 825.141 179.791 826.912L190.483 836.686L215.476 812.284C217.379 810.447 220.396 810.513 222.233 812.349C224.07 814.252 224.004 817.269 222.167 819.106L193.96 846.657C192.976 847.576 191.795 848.035 190.549 848.035Z" fill="#E3F0F2"/>
</g>
<path d="M392.198 538.278C392.985 518.008 401.119 499.641 413.977 485.734L466.521 538.278H392.198Z" fill="#1A242D"/>
<path d="M472.097 537.295L424.538 489.736C437.067 478.191 453.729 471.106 472.097 471.106C490.464 471.106 507.126 478.191 519.655 489.736L472.097 537.295Z" fill="#FEB447"/>
<path d="M469.801 542.87V604.139C436.542 602.827 409.844 576.128 408.532 542.87H469.801Z" fill="#13B4CA"/>
<path d="M474.393 541.558L514.604 501.347C524.116 511.646 529.954 525.421 529.954 540.574C529.954 571.734 505.289 597.12 474.393 598.366V541.558Z" fill="#18898D"/>
<path d="M453.073 931.54C453.664 933.902 454.516 936.198 455.435 938.428L447.694 945.25C449.006 947.874 450.515 950.367 452.155 952.729L462.06 949.383C463.503 951.22 465.143 952.925 466.849 954.5L462.519 963.946C464.75 965.848 467.177 967.554 469.735 969.062L477.41 962.043C479.444 963.093 481.543 964.011 483.708 964.799L483.642 975.163C486.463 975.95 489.349 976.606 492.367 977L496.499 967.422C497.614 967.488 498.73 967.554 499.91 967.554C501.026 967.554 502.206 967.488 503.321 967.422L507.454 977C510.406 976.606 513.358 976.016 516.179 975.163L516.113 964.799C518.278 964.011 520.377 963.093 522.41 962.043L530.085 969.062C532.644 967.554 535.005 965.783 537.301 963.946L532.972 954.5C534.677 952.925 536.252 951.154 537.761 949.383L547.666 952.729C549.306 950.367 550.815 947.874 552.127 945.25L544.386 938.428C545.37 936.198 546.157 933.902 546.747 931.54L557.112 930.556C557.637 927.801 557.965 924.915 558.096 922.029L548.256 918.945C548.256 916.387 547.994 913.829 547.6 911.402L556.718 906.285C556.062 903.53 555.275 900.84 554.226 898.216L543.927 899.397C542.812 896.97 541.565 894.674 540.122 892.509L546.288 884.113C544.583 881.882 542.746 879.849 540.778 877.881L531.857 883.129C529.823 881.358 527.658 879.718 525.362 878.275L527.593 868.107C525.166 866.795 522.673 865.68 520.115 864.696L514.08 873.158C511.521 872.371 508.832 871.78 506.077 871.452L503.977 861.285C502.6 861.219 501.288 861.153 499.91 861.153C498.533 861.153 497.155 861.219 495.843 861.285L493.744 871.452C490.989 871.78 488.299 872.371 485.741 873.158L479.706 864.696C477.148 865.68 474.589 866.795 472.228 868.107L474.458 878.275C472.162 879.718 469.997 881.292 467.964 883.129L459.043 877.881C457.075 879.849 455.238 881.882 453.532 884.113L459.699 892.509C458.255 894.674 456.943 896.97 455.894 899.397L445.595 898.216C444.611 900.84 443.758 903.53 443.102 906.285L452.22 911.402C451.827 913.829 451.564 916.387 451.564 918.945L441.725 922.029C441.856 924.915 442.184 927.801 442.774 930.556L453.073 931.54ZM472.228 919.077C472.228 903.858 484.56 891.525 499.779 891.525C514.998 891.525 527.33 903.858 527.33 919.077C527.33 934.295 514.998 946.628 499.779 946.628C484.56 946.693 472.228 934.361 472.228 919.077Z" fill="#1A242D"/>
<path d="M499.779 936.919C509.633 936.919 517.622 928.931 517.622 919.077C517.622 909.222 509.633 901.234 499.779 901.234C489.925 901.234 481.936 909.222 481.936 919.077C481.936 928.931 489.925 936.919 499.779 936.919Z" fill="#13B4CA"/>
<path d="M416.272 839.768L409.188 841.343L409.909 850.854L417.125 851.379C417.912 854.265 419.093 857.021 420.733 859.579L416.207 865.483L422.832 872.371L428.867 868.041C431.36 869.747 433.984 871.059 436.739 871.911L437.067 879.521L446.579 880.505L448.481 873.223C451.368 872.961 454.188 872.239 456.878 871.19L462.126 876.831L470.063 871.452L466.783 864.63C467.898 863.515 468.882 862.334 469.801 861.022C470.588 859.907 471.309 858.792 471.9 857.677L479.509 858.66L482.133 849.477L475.311 846.394C475.573 843.442 475.442 840.555 474.852 837.669L481.215 833.602L477.279 824.877L470.194 826.845C468.554 824.418 466.521 822.253 464.094 820.351L466.324 813.266L457.731 809.068L453.663 814.972C450.712 814.185 447.694 813.791 444.676 813.922L441.856 807.231L432.606 809.593L433.328 816.678C430.573 817.924 428.015 819.629 425.719 821.729L419.29 818.449L413.714 826.189L418.765 831.175C417.519 833.864 416.666 836.816 416.272 839.768ZM432.934 834.389C438.051 827.305 447.891 825.73 454.975 830.847C462.06 835.963 463.634 845.803 458.518 852.888C453.401 859.972 443.561 861.547 436.477 856.43C429.392 851.313 427.818 841.408 432.934 834.389Z" fill="#13B4CA"/>
<path d="M445.726 854.462C451.704 854.462 456.55 849.616 456.55 843.639C456.55 837.661 451.704 832.815 445.726 832.815C439.749 832.815 434.903 837.661 434.903 843.639C434.903 849.616 439.749 854.462 445.726 854.462Z" fill="#1A242D"/>
<path d="M432.803 973.129L430.967 963.092C432.41 962.108 433.656 960.928 434.706 959.681L444.873 961.846L446.972 956.992L438.642 951.154C438.969 949.514 439.035 947.808 438.838 946.037L447.563 940.33L445.595 935.41L435.558 937.247C434.574 935.804 433.394 934.557 432.147 933.508L434.312 923.34L429.458 921.241L423.619 929.572C421.98 929.244 420.274 929.178 418.568 929.375L412.861 920.65L407.941 922.618L409.713 932.655C408.27 933.639 407.023 934.82 405.974 936.066L395.74 933.901L393.641 938.755L401.972 944.594C401.644 946.234 401.579 947.939 401.775 949.71L393.051 955.417L395.019 960.337L405.055 958.501C406.039 959.944 407.22 961.19 408.466 962.24L406.302 972.407L411.156 974.507L416.994 966.176C418.634 966.504 420.34 966.569 422.111 966.372L427.818 975.097L432.803 973.129ZM423.357 955.221C419.224 956.861 414.633 954.827 412.993 950.76C411.353 946.627 413.386 942.035 417.453 940.395C421.586 938.755 426.178 940.789 427.818 944.856C429.523 948.989 427.49 953.646 423.357 955.221Z" fill="#13B4CA"/>
<path d="M420.405 953.188C423.376 953.188 425.784 950.78 425.784 947.809C425.784 944.838 423.376 942.43 420.405 942.43C417.434 942.43 415.026 944.838 415.026 947.809C415.026 950.78 417.434 953.188 420.405 953.188Z" fill="#1A242D"/>
<path d="M238.763 567.601H186.088C178.151 567.601 171.591 561.107 171.591 553.104V528.964C171.591 521.027 178.085 514.467 186.088 514.467H238.763C246.766 514.467 253.261 520.961 253.261 528.964V553.104C253.261 561.107 246.766 567.601 238.763 567.601Z" fill="#13B4CA"/>
<path d="M237.845 534.08H187.137C186.088 534.08 185.169 533.227 185.169 532.112C185.169 530.997 186.022 530.144 187.137 530.144H237.845C238.894 530.144 239.813 530.997 239.813 532.112C239.813 533.227 238.96 534.08 237.845 534.08Z" fill="white"/>
<path d="M237.845 543.658H187.137C186.088 543.658 185.169 542.805 185.169 541.69C185.169 540.574 186.022 539.722 187.137 539.722H237.845C238.894 539.722 239.813 540.574 239.813 541.69C239.813 542.805 238.96 543.658 237.845 543.658Z" fill="white"/>
<path d="M237.845 553.301H187.137C186.088 553.301 185.169 552.448 185.169 551.333C185.169 550.283 186.022 549.365 187.137 549.365H237.845C238.894 549.365 239.813 550.218 239.813 551.333C239.813 552.382 238.96 553.301 237.845 553.301Z" fill="white"/>
<path d="M214.295 590.888L191.795 566.158H211.146L214.295 590.888Z" fill="#13B4CA"/>
<path d="M59.3522 530.473H107.633C116.488 530.473 123.704 523.257 123.704 514.402V481.537C123.704 472.681 116.488 465.465 107.633 465.465H59.3522C50.4964 465.465 43.2806 472.681 43.2806 481.537V514.402C43.3462 523.257 50.562 530.473 59.3522 530.473Z" fill="#1A242D"/>
<path d="M98.3179 558.024L71.5539 529.62H95.6284L98.3179 558.024Z" fill="#1A242D"/>
<path d="M70.2418 515.648C67.3554 515.648 64.9939 513.287 64.9939 510.401V495.051C64.9939 492.164 67.3554 489.803 70.2418 489.803C73.1281 489.803 75.4896 492.164 75.4896 495.051V510.401C75.5552 513.287 73.1937 515.648 70.2418 515.648Z" fill="white"/>
<path d="M100.679 491.705H99.8919H86.9035L87.8875 489.934C88.609 488.557 89.1994 487.113 89.593 485.67L89.8554 484.686C90.3146 482.981 89.5274 481.144 88.0186 480.291L87.4282 479.963C86.8378 479.635 86.1162 479.832 85.8538 480.422C83.8203 484.293 81.1308 487.835 77.9165 490.787L76.8013 491.771V513.812H80.3437H96.6776H97.5304C98.8423 513.812 99.9575 512.762 99.9575 511.385V510.729C99.9575 509.417 98.9079 508.302 97.5304 508.302H99.0392C100.417 508.302 101.532 507.186 101.532 505.809V505.35C101.532 503.972 100.417 502.857 99.0392 502.857H99.7607C101.204 502.857 102.319 501.742 102.319 500.299V499.905C102.319 498.462 101.204 497.347 99.7607 497.347H100.679C102.122 497.347 103.303 496.166 103.303 494.723V494.329C103.303 492.886 102.122 491.705 100.679 491.705Z" fill="white"/>
<path d="M77.9822 931.278C82.2461 932.459 86.7724 932.196 91.1675 932.131C92.4139 932.131 93.7258 932.131 94.841 932.655C95.9562 933.18 98.2521 936.132 97.9241 937.379C97.5305 938.822 95.6938 939.74 94.2506 940.068C90.8395 940.79 89.0684 941.314 85.5917 942.036C81.5246 942.889 74.8991 942.758 70.7664 942.233C68.3393 941.905 66.8305 941.446 65.125 941.183C63.6162 940.921 59.0243 940.462 58.2371 941.905C57.778 942.692 57.3844 943.676 56.0725 944.201C52.9237 945.382 48.3974 945.644 45.1831 945.447C37.6393 944.988 37.1146 943.348 37.049 943.086C36.721 941.446 36.8522 939.281 37.049 937.903C37.1146 937.444 37.6393 936.723 37.7705 936.263C37.9673 935.542 37.9673 934.492 38.0329 933.771C38.1641 932.459 38.2297 931.606 38.4921 930.294C38.6233 929.638 38.8201 928.982 38.9512 928.392C39.0824 927.867 39.3449 927.276 39.3449 926.817C40.4601 926.62 41.6408 926.686 42.756 926.555C49.5782 926.096 56.4004 925.702 63.2226 925.243C64.5346 925.177 66.6338 924.587 67.9457 924.98C69.1265 925.308 69.1265 925.702 69.8481 926.62C72.0128 928.916 74.8991 930.425 77.9822 931.278Z" fill="#020F17"/>
<path d="M138.464 945.251C138.07 944.726 137.611 944.267 137.021 943.939C136.102 943.414 135.053 943.283 134.003 943.152C128.099 942.43 123.901 943.349 118.981 941.774C116.685 941.053 114.52 939.544 112.487 938.232C110.65 937.051 108.945 935.214 107.633 933.443C106.977 932.591 106.517 932 105.993 931.082C105.337 929.901 104.615 930.032 103.303 929.835C97.5961 928.917 91.8234 928.655 86.1164 929.048C83.2957 929.245 80.2782 929.639 78.0478 931.41C76.0799 932.919 74.9647 935.346 74.5055 937.773C74.1775 939.61 73.8495 941.381 73.8495 943.349C73.128 944.136 72.9968 946.301 72.9312 947.285C72.9312 948.072 72.9312 948.924 72.9312 949.712C72.9312 950.171 72.9968 950.696 73.2591 951.089C73.5871 951.548 74.1119 951.745 74.6367 951.876C78.4414 952.992 87.494 953.844 90.2491 953.188C90.8395 953.057 91.2987 951.68 92.1515 951.352C93.5946 950.761 96.2185 951.614 97.2025 952.139C101.991 954.697 106.714 955.419 112.159 955.55C120.884 955.747 129.477 955.681 136.955 951.155C137.742 950.696 138.923 949.974 139.382 949.187C139.841 948.334 139.71 947.35 139.185 946.563C139.054 946.038 138.726 945.513 138.464 945.251Z" fill="#031521"/>
<path d="M118.456 853.413L42.1001 841.934C39.8698 841.803 39.017 840.097 39.1482 837.867L44.3305 789.062C45.38 788.012 44.0025 787.159 45.6424 785.978C47.4792 784.732 52.3991 783.092 53.5142 783.158L128.821 794.178C131.248 794.572 130.789 795.228 130.723 797.392L126.066 849.871C126.197 852.561 120.687 853.479 118.456 853.413Z" fill="#BA6B0D"/>
<path d="M126 799.36C126 799.36 126.131 797.851 127.771 797.195C128.559 796.867 130.789 795.752 130.789 795.752C130.789 794.965 130.658 794.506 128.755 794.178L53.5141 783.157C52.399 783.092 47.4135 784.666 45.6423 785.978C43.9368 787.159 45.38 788.012 44.3304 789.061L126 799.36Z" fill="#F28A11"/>
<path d="M118.194 853.741L42.1001 841.934C39.8697 841.802 39.0169 840.097 39.1481 837.866L44.3304 789.061C44.5272 785.781 45.9704 785.519 48.2007 785.65L124.36 796.671C126.394 796.999 126.197 798.179 125.935 800.344L120.818 851.183C120.687 853.348 120.424 853.872 118.194 853.741Z" fill="#F28A11"/>
<path d="M46.8228 847.968C41.1157 871.256 35.3431 894.215 37.967 919.995C38.295 923.275 38.5574 928.326 38.295 931.344C47.3476 932.787 60.4017 931.147 69.9134 926.817C66.5679 894.478 71.6846 893.231 77.0636 876.044C87.2313 843.311 92.9383 809.462 98.5798 775.679C90.5112 775.548 82.4427 774.957 74.4397 773.908C70.307 773.383 66.2399 772.596 62.1728 772.006C58.2369 771.481 58.2369 773.121 58.4337 776.663C59.2865 792.931 57.1217 808.872 53.7106 824.747C51.8738 833.405 48.9875 839.309 46.8228 847.968Z" fill="#051C2B"/>
<path d="M74.1117 940.658C74.7021 941.183 76.9324 941.708 78.5068 941.905C87.9529 943.151 100.351 939.215 107.632 933.377C105.14 927.735 101.663 922.094 100.482 915.993C96.3495 894.805 99.4327 871.846 102.319 850.329C106.058 822.713 110.584 795.03 108.616 767.216C93.7256 766.495 78.8348 765.773 64.0096 765.052C63.2224 764.986 60.4673 760.46 59.8769 761.05C59.2209 761.706 56.925 769.447 58.2369 780.926C58.9585 787.552 62.632 807.297 63.4848 813.922C65.1903 827.173 66.3711 833.077 67.1583 846.393C68.1422 863.58 68.0111 880.833 69.0606 898.019C69.5854 906.678 70.3726 915.272 71.7501 923.799C72.3405 928.063 73.3246 930.687 74.1117 940.658Z" fill="#06263B"/>
<path d="M126.066 597.908C126.131 601.253 122.982 602.631 125.738 607.485C126.328 608.534 126.722 609.453 127.246 610.502C127.509 611.027 127.771 611.88 127.574 612.405C127.378 612.864 126.918 613.258 126.459 613.389C126 613.586 125.803 613.586 125.278 613.717C123.704 613.979 122.523 614.57 122.261 616.209C122.13 617.062 122.195 617.915 122.064 618.702C121.933 619.686 121.539 620.605 121.211 621.457C120.883 622.179 120.359 622.835 120.359 623.622C120.359 624.934 120.686 626.115 120.227 627.164C119.702 628.542 117.538 628.476 116.029 628.542C114.52 628.608 113.143 628.476 111.7 628.476C109.797 628.476 108.682 628.936 107.173 630.116C106.386 630.772 105.796 631.494 105.271 632.347C104.681 633.199 103.893 636.676 103.369 637.66C97.0055 632.609 88.4122 626.574 80.4092 625.59C82.5739 620.605 83.0987 615.094 83.4923 609.65C83.8859 604.205 84.1482 598.76 85.7882 593.578C87.4282 588.396 90.5769 583.41 95.4312 580.983C100.941 578.162 107.567 578.95 113.733 579.802C115.439 580.065 118.259 580.065 119.637 581.246C120.621 582.098 122.326 584.788 122.917 585.837C124.754 589.773 126 593.447 126.066 597.908Z" fill="#F8B690"/>
<path d="M106.124 608.206C106.255 605.976 106.386 603.746 107.042 601.647C107.698 599.547 108.879 597.514 110.781 596.333C111.175 596.071 111.634 595.808 111.765 595.349C111.896 594.759 111.306 594.3 110.912 593.84C109.076 592.069 108.944 589.708 110.06 587.412C111.175 585.116 118.194 583.935 124.229 588.855C126.722 585.837 126.853 579.802 126.066 577.31C125.278 574.817 123.179 573.767 120.818 572.652C116.882 570.881 106.321 571.34 102.122 571.865C98.1864 572.39 87.7563 575.276 82.5084 583.279C81.1964 585.313 80.2124 587.937 79.9501 590.364C79.2285 596.464 82.1804 600.663 83.23 606.763C83.4268 608.075 83.558 609.65 83.3612 612.339C85.3948 610.83 89.0026 611.421 91.0362 605.058C91.7578 602.893 90.8394 599.941 92.2826 597.842C93.5289 595.939 95.9561 595.48 98.1208 596.136C100.089 596.727 101.86 598.695 102.319 601.778C102.582 603.483 102.254 605.648 102.713 607.222C102.975 608.272 106.124 608.797 106.124 608.206Z" fill="#212C55"/>
<path d="M110.65 651.173C111.568 655.372 113.93 660.62 115.504 666.851C114.586 665.999 112.224 663.768 111.306 662.85C109.338 660.948 107.37 659.045 105.927 656.749C103.5 652.945 102.647 648.287 101.794 643.826C101.729 643.433 101.663 642.974 101.86 642.646C102.057 642.252 102.581 642.055 102.975 641.924C104.09 641.53 105.336 640.94 106.517 640.743C107.501 640.612 107.436 640.678 107.895 641.399C109.141 643.433 109.338 643.695 110.06 645.991C110.519 647.303 110.125 649.993 110.65 651.173Z" fill="#18898D"/>
<path d="M106.189 650.518C106.124 650.714 104.09 650.386 103.893 650.255C103.106 649.862 102.385 648.943 101.729 648.353C100.285 647.041 98.9079 645.729 97.4647 644.417C91.4297 638.579 86.0506 632.216 81.1308 625.459C81.0652 625.328 80.2124 624.41 80.2779 624.278L82.6395 618.375C87.625 621.13 92.4136 624.606 96.6775 628.28C99.6294 630.838 106.517 636.742 107.764 640.416C107.895 643.171 107.304 647.697 106.189 650.518Z" fill="#BEDFE4"/>
<path d="M80.2782 621.458C76.6703 636.086 60.7955 638.71 57.778 659.308C54.2357 683.185 66.8306 706.21 62.1075 729.629C60.9267 735.402 58.3028 740.715 56.3348 746.225C53.9077 752.982 52.4645 760.067 52.0053 767.282C51.8741 769.972 51.1526 773.252 52.8581 775.351C54.6949 777.647 58.6963 777.909 61.5827 778.369C76.4735 780.533 91.3643 782.632 106.255 784.797C108.945 785.191 111.7 785.584 114.389 785.191C117.079 784.797 119.112 784.141 120.621 781.845C122.195 779.549 122.655 776.466 123.114 773.252C124.754 761.707 127.378 746.029 127.706 734.942C128.296 716.641 126.919 670 94.7098 633.068C90.7739 628.345 85.6572 624.541 80.2782 621.458Z" fill="#0A3C5F"/>
<path d="M180.775 708.112C179.003 708.309 177.167 707.85 175.395 707.719C173.624 707.587 171.591 707.784 170.279 709.03C169.164 710.08 168.77 711.654 168.442 713.163C167.589 716.771 166.737 720.445 166.999 724.118C167.065 724.84 167.13 725.561 167.458 726.217C167.786 726.873 168.311 727.398 169.032 727.529C169.688 727.66 170.41 727.398 171.066 727.136C173.296 726.217 175.527 725.364 177.757 724.446C179.594 723.724 181.562 722.937 182.874 721.429C184.251 719.92 184.842 717.821 184.776 715.787C184.776 713.754 184.186 711.786 183.399 709.883C183.005 708.768 181.89 708.703 180.775 708.112Z" fill="#F4A086"/>
<path d="M156.963 706.67C158.012 705.751 159.127 704.702 160.505 704.636C162.145 704.57 163.457 705.948 164.834 706.866C166.802 708.113 169.164 708.506 171.263 709.622C173.69 710.934 175.593 713.229 176.183 715.919C176.773 718.608 176.117 721.56 174.215 723.528C173.297 724.512 172.05 725.3 171.329 726.415C170.673 727.464 170.41 728.711 169.82 729.76C169.229 730.81 167.983 731.728 166.802 731.269C166.081 731.007 165.687 730.351 165.162 729.76C163.26 727.53 160.243 726.415 157.291 726.021C154.339 725.628 151.387 725.824 148.369 725.562C146.86 725.431 145.089 725.037 144.433 723.66C143.646 722.151 144.565 720.38 145.483 718.936C147.779 715.263 150.075 711.589 152.436 707.85C153.223 707.85 153.879 708.113 154.667 707.916C155.454 707.85 156.241 707.26 156.963 706.67Z" fill="#F8B690"/>
<path d="M176.118 715.657C175.265 713.689 174.084 712.377 173.034 711.327C171.985 710.146 170.804 709.687 169.426 709.031C168.639 708.637 167.786 708.31 166.868 708.375C165.819 708.441 165.163 708.572 164.31 709.162C163.457 709.753 162.079 710.343 161.03 710.409C159.98 710.474 158.275 709.949 158.209 708.9C158.144 708.244 159.456 707.588 159.849 707.063C161.62 704.964 164.31 703.39 166.868 703.39C168.049 703.39 169.558 704.046 171.001 704.505C171.985 704.767 173.1 705.03 174.084 705.292C176.642 706.079 179.332 707.129 181.497 708.769C182.94 709.884 186.416 714.017 184.055 715.657C181.825 717.1 177.167 718.018 176.118 715.657Z" fill="#F4A086"/>
<path d="M156.241 725.956C158.603 729.498 161.161 730.744 165.294 731.728C165.818 731.86 166.474 731.925 166.868 731.532C167.065 731.335 167.196 731.072 167.327 730.81C167.458 730.613 167.524 730.416 167.524 730.22C167.524 730.023 167.393 729.76 167.196 729.629C166.934 729.432 166.606 729.432 166.474 729.17C166.343 728.973 166.278 728.711 166.212 728.448C166.015 727.924 165.753 727.464 165.228 727.136C164.572 726.809 163.85 727.202 163.326 726.415C163.129 726.152 162.866 725.693 162.538 725.562C161.489 725.169 161.03 725.759 160.439 725.365C160.177 725.169 159.98 724.644 159.652 724.447C159.259 724.25 159.062 724.185 158.668 724.185C157.75 724.185 155.913 724.709 156.241 725.956Z" fill="#F4A086"/>
<path d="M97.3335 663.112C94.7096 656.093 92.4793 648.812 85.5915 645.925C79.0973 643.236 73.259 644.089 68.6016 649.336C63.9441 654.584 63.2881 659.963 64.4688 666.917C65.7808 674.789 76.8013 699.585 80.5404 705.554C84.2795 711.589 86.2474 719.592 92.6761 722.61C97.8583 725.037 105.599 725.299 111.765 726.021C115.045 726.414 118.391 726.742 121.671 727.07C124.688 727.333 146.86 728.71 150.206 729.17C150.862 729.235 151.518 729.366 152.108 729.104C152.961 728.776 153.879 727.53 154.338 726.742C155.716 724.578 156.766 723.659 158.143 715.853C158.799 712.18 158.143 708.178 155.126 707.26C154.798 707.128 151.059 707.26 150.534 707.26C148.828 707.194 123.507 705.292 117.472 703.061C115.767 702.471 111.175 701.487 110.06 700.109C109.01 698.732 107.764 693.418 107.37 691.713C106.189 686.727 104.615 683.448 103.106 678.528C101.269 672.755 99.4327 668.622 97.3335 663.112Z" fill="#0C4770"/>
<path d="M223.676 649.468C221.183 652.616 220.068 656.618 219.215 660.554C217.313 668.885 214.951 677.15 212.393 685.153C211.015 689.417 209.113 693.812 206.883 697.026C205.374 699.191 198.486 700.897 194.485 701.684C187.597 703.127 182.677 703.849 173.493 705.029C176.445 708.178 177.626 712.114 177.626 716.444C177.626 721.363 174.411 724.84 170.935 727.398C180.971 725.758 191.467 726.283 206.358 722.216C209.244 721.429 219.74 718.28 222.101 716.444C224.922 714.213 226.3 710.409 227.743 707.063C229.448 703.193 231.876 699.322 232.86 695.19C233.843 690.795 234.631 686.4 235.221 681.939C236.008 675.51 236.402 668.95 236.271 662.456C236.205 659.176 236.008 655.962 235.746 652.682C235.615 651.042 235.418 649.468 235.221 647.828C235.024 646.581 234.631 646.057 233.253 646.385C230.76 646.844 225.25 647.5 223.676 649.468Z" fill="#00284B"/>
<path d="M314.923 937.247C315.382 939.084 316.104 940.986 315.973 942.888C315.776 945.84 312.627 948.399 309.938 949.711C307.248 951.023 304.887 951.613 300.951 951.613C293.079 951.613 293.341 950.301 292.685 949.842C291.439 948.989 291.505 944.66 291.701 943.216C292.161 940.33 293.079 940.133 293.997 937.706C295.047 934.754 295.44 932.065 295.44 928.982C295.44 927.801 295.375 926.554 296.096 925.636C297.015 924.455 298.655 924.39 300.098 924.39C302.46 924.39 304.821 924.455 307.183 924.455C309.019 924.455 314.136 924.914 314.333 927.473C314.464 929.113 314.202 930.49 314.333 932.196C314.464 933.967 314.464 935.541 314.923 937.247Z" fill="#031521"/>
<path d="M264.281 928.588C264.347 929.966 264.609 931.606 264.281 932.787C263.888 934.164 252.802 936.001 248.8 935.017C247.882 934.82 247.554 933.574 246.636 933.443C243.552 932.983 239.879 935.411 236.993 936.526C228.137 939.937 218.625 940.396 209.376 938.362C208.195 938.1 206.686 937.313 205.965 936.395C205.046 935.214 205.768 933.508 206.686 932.327C207.605 931.147 209.376 929.31 210.884 928.982C212.393 928.72 214.427 928.457 215.935 928.391C223.938 927.932 231.154 923.8 235.681 917.24C236.402 916.256 236.271 916.19 237.452 915.797C238.305 915.469 239.223 915.6 240.076 915.731C244.536 916.321 248.931 916.912 253.392 917.437C255.622 917.699 257.918 918.027 260.149 918.289C262.313 918.552 262.51 919.47 263.035 921.438C263.757 923.865 264.216 925.046 264.281 928.588Z" fill="#031521"/>
<path d="M288.29 736.845C289.799 736.779 291.505 736.779 292.685 737.698C293.997 738.747 294.063 740.65 294.522 742.29C304.034 778.828 297.409 808.938 305.674 840.949C315.251 878.209 309.347 882.736 314.398 927.408C309.085 925.768 300.426 925.243 295.44 927.08C289.733 901.89 286.519 881.752 280.484 860.104C276.942 847.509 271.104 833.143 266.643 818.777C263.363 853.085 266.774 849.477 265.528 882.932C265.134 893.625 263.035 902.809 263.166 921.307C257.262 926.686 242.7 924.653 234.631 918.683C235.549 915.666 240.076 901.234 238.304 872.371C237.32 857.021 234.762 837.801 232.073 822.648C226.038 788.471 231.154 740.191 235.68 738.485C239.223 737.107 242.962 738.616 246.767 738.485C251.227 738.288 255.754 738.091 260.214 737.895C269.529 737.632 278.91 737.239 288.29 736.845Z" fill="#051C2B"/>
<path d="M305.608 841.015C297.343 808.938 303.968 778.894 294.456 742.356C293.997 740.716 293.997 738.813 292.62 737.764C291.439 736.845 289.733 736.845 288.224 736.911C287.765 736.911 287.372 736.977 286.912 736.977C283.501 737.108 280.09 737.239 276.679 737.436C272.743 737.633 275.63 737.305 271.759 737.764C267.758 738.289 263.625 738.289 259.624 737.895C257.852 737.698 252.605 743.668 252.539 744.061C248.866 775.876 261.264 806.445 263.363 812.349C265.2 817.466 267.561 822.32 269.267 827.437C273.006 838.392 277.27 849.15 280.353 860.301C286.388 881.949 290.98 914.223 295.309 927.671C299.967 925.047 308.954 925.834 314.267 927.999C314.267 913.501 312.758 904.514 312.496 896.577C311.905 876.898 312.43 867.451 305.608 841.015Z" fill="#06263B"/>
<path d="M245.586 642.186C249.981 641.006 254.573 640.809 259.099 640.678C265.265 640.546 271.431 640.612 277.532 640.94C280.353 641.071 283.567 641.465 285.272 643.761C286.453 645.335 286.585 647.434 286.65 649.402C287.241 680.43 275.236 710.933 277.926 741.765C266.511 745.7 250.899 745.176 233.188 741.437C234.959 724.381 234.959 707.129 233.253 690.073C232.466 682.661 231.416 675.248 231.351 667.77C231.285 661.735 230.957 651.698 235.746 647.303C238.501 644.81 241.978 643.17 245.586 642.186Z" fill="#A2BDC2"/>
<path d="M246.373 644.023C246.767 645.991 247.554 647.762 248.275 649.14C245.914 653.994 241.256 678.528 240.6 683.382C238.764 696.305 237.583 709.031 237.714 722.479C237.78 725.43 237.321 727.595 238.108 730.416C238.895 733.302 244.143 739.6 244.602 739.468C245.783 739.075 250.834 733.368 251.752 730.613C253.064 726.808 252.343 725.627 252.211 723.134C251.49 710.212 253.589 670.59 253.72 662.915C253.786 658.717 253.654 651.37 254.376 649.468C256.541 648.68 258.771 646.713 260.214 645.401C260.214 645.401 258.115 642.645 257.656 642.383C256.606 641.793 255.163 641.596 254.048 641.465C251.293 641.268 248.407 642.186 246.373 644.023Z" fill="#13B4CA"/>
<path d="M231.81 601.909C231.81 602.303 231.876 602.696 231.941 603.09C232.138 603.943 232.007 604.861 232.072 605.714C232.204 606.895 231.679 608.01 231.023 609.059C230.039 610.568 226.497 612.602 228.071 614.832C228.727 615.75 230.104 615.685 230.76 616.537C231.548 617.521 231.548 619.096 231.613 620.277C231.744 621.392 231.941 622.376 232.532 623.294C233.122 624.278 233.384 625.065 233.253 626.246C233.122 627.296 232.991 628.411 233.516 629.264C233.778 629.657 234.237 629.985 234.696 630.182C237.911 631.756 241.912 630.707 245.389 630.444C245.848 630.444 246.373 630.379 246.766 630.707C247.029 630.903 247.291 631.231 247.291 631.625C247.291 633.987 246.963 633.462 246.832 635.561C246.766 636.479 247.226 637.529 247.422 638.447C247.488 638.775 247.488 639.497 247.619 639.759C247.882 640.218 248.8 640.35 249.325 640.546C252.08 641.334 254.966 641.202 257.787 641.071C260.148 640.94 262.51 640.743 264.675 640.022C266.839 639.3 268.414 638.054 269.923 636.348C271.3 634.774 271.562 632.347 271.431 630.248C271.234 627.689 270.119 625.328 269.726 622.769C268.873 617.128 271.694 611.486 270.972 605.845C270.447 601.647 267.889 597.908 264.937 594.824C261.329 591.151 256.803 588.133 251.752 587.084C248.21 586.297 244.47 586.493 241.125 587.805C239.747 588.33 238.239 588.461 237.123 589.511C235.943 590.692 234.959 590.626 234.368 592.069C234.106 592.725 232.728 598.432 232.4 599.482C231.941 600.335 231.81 601.122 231.81 601.909Z" fill="#F4A086"/>
<path d="M243.618 590.233C241.387 590.167 239.223 590.954 237.32 592.135C236.336 592.726 235.287 593.316 233.844 593.513C230.695 590.364 231.285 583.214 234.04 580.852C239.223 576.326 258.705 577.441 267.036 584.526C270.382 587.346 274.318 592.135 274.843 596.202C276.483 608.01 270.316 612.011 269.529 618.899C267.955 615.357 264.412 616.144 263.888 608.666C263.822 607.551 262.904 604.73 260.214 604.336C257.197 603.877 256.082 606.173 255.491 607.026C254.901 607.944 254.573 608.994 254.376 610.109C254.179 610.962 254.31 612.536 253.589 613.061C253.261 613.323 252.867 613.389 252.474 613.389C252.146 613.389 251.752 613.389 251.555 613.127C251.424 612.93 251.358 612.733 251.358 612.536C251.424 611.946 251.49 611.355 251.49 610.699C251.49 610.043 251.49 609.322 251.424 608.666C251.358 607.354 251.162 606.042 250.768 604.796C250.112 602.696 248.735 601.909 246.963 600.663C245.52 599.613 245.651 599.22 246.767 597.908C247.947 596.53 248.997 595.021 248.275 593.054C247.554 591.282 245.455 590.233 243.618 590.233Z" fill="#212C55"/>
<path d="M253.457 640.875C257.524 637.595 268.414 631.691 269.857 628.411C270.447 627.099 269.922 625.853 269.857 624.475C272.022 626.968 274.252 629.461 276.417 631.953C272.284 638.185 269.332 645.663 263.822 650.714C260.608 647.106 258.18 643.63 253.392 641.465C249.259 642.318 247.226 645.795 246.176 649.468C244.077 643.105 246.504 639.825 246.898 633.724C247.488 634.512 250.637 639.104 253.457 640.875Z" fill="#BEDFE4"/>
<path d="M236.205 643.957C232.072 645.729 227.415 646.188 223.938 650.058C221.183 653.207 221.905 658.52 221.773 662.719C221.446 673.87 221.314 683.12 222.167 694.206C222.561 699.65 224.725 720.576 224.594 725.43C224.266 733.761 222.101 743.273 221.052 754.097C219.871 766.823 220.33 783.944 221.773 788.339C221.905 788.667 222.495 789.782 223.348 789.848C224.266 789.979 225.513 788.995 225.972 788.536C226.825 787.618 227.218 786.371 227.612 785.125C231.154 773.317 233.712 761.181 235.352 748.98C237.058 736.123 237.779 723.069 237.386 710.08C237.32 706.997 237.648 695.846 237.517 693.156C237.123 686.531 237.123 674.723 237.911 668.032C238.698 661.144 239.419 659.439 241.65 652.944C242.634 649.992 245.258 645.991 246.11 642.973C246.504 641.53 246.57 636.217 246.701 636.02C243.88 639.497 240.207 642.252 236.205 643.957Z" fill="#0A3C5F"/>
<path d="M304.952 782.435C296.621 788.864 283.632 792.537 273.071 792.734C267.102 792.865 262.379 791.947 258.574 788.405C253.523 783.747 252.145 776.663 251.489 769.84C249.587 749.899 251.883 740.912 251.489 717.624C251.161 698.798 259.361 660.554 272.35 638.25C273.006 637.07 276.417 632.543 273.793 629.001C276.876 631.297 281.074 635.298 282.78 637.07C289.996 639.956 300.229 644.023 308.232 648.221C313.808 652.223 297.671 687.383 297.408 693.943C296.949 706.997 295.047 721.56 297.539 734.417C299.048 742.355 300.032 750.095 301.541 758.033C302.328 762.1 303.05 766.167 303.64 770.234C303.968 772.333 304.23 774.432 304.427 776.531C304.493 777.253 305.411 782.042 304.952 782.435Z" fill="#0A3C5F"/>
<path d="M289.321 792.971L288.28 793.1L289.031 799.154L290.072 799.025L289.321 792.971Z" fill="#F28A11"/>
<path d="M318.859 785.781L292.292 792.997C291.045 793.325 287.241 794.243 286.978 792.735C286.782 791.357 288.356 789.323 291.57 788.274L315.842 781.714C317.088 781.386 319.777 781.386 320.565 782.895C321.155 784.01 320.105 785.453 318.859 785.781Z" fill="#BA6B0D"/>
<path d="M287.634 858.857L283.305 858.267C283.305 858.267 277.007 858.858 275.302 856.168C274.514 854.922 273.596 849.083 273.596 849.083L266.511 804.542L273.99 804.28L287.634 858.857Z" fill="#BA6B0D"/>
<path d="M340.703 844.36L293.472 858.202C293.472 858.202 287.503 859.776 284.617 859.186C282.124 858.661 280.353 851.314 280.353 851.314L271.3 806.707C271.3 806.707 271.038 805.461 270.841 805.133C270.579 804.739 269.398 804.673 269.398 804.673L267.955 804.608L267.102 804.542L266.38 804.477C266.38 804.477 266.315 803.493 267.692 803.033C268.217 802.837 269.267 802.574 269.267 802.574L269.595 802.509L333.815 785.519C333.815 785.519 334.734 785.256 335.127 785.256C335.39 785.256 336.046 785.322 336.046 785.322L337.423 785.519C337.423 785.519 337.62 785.519 337.751 785.584C337.882 785.65 338.145 785.65 338.21 785.912C338.342 786.175 338.407 786.634 338.407 786.634L347.788 830.126C347.788 830.126 349.1 836.554 348.247 839.965C347.722 842.917 340.703 844.36 340.703 844.36Z" fill="#F28A11"/>
<path d="M292.751 797.261L291.767 797.458L290.586 792.079C290.586 792.079 290.455 791.489 290.914 791.357C291.439 791.226 291.57 791.817 291.57 791.817L292.751 797.261Z" fill="#F28A11"/>
<path d="M320.565 789.324L319.581 789.586L318.006 784.273C318.006 784.273 317.744 783.551 318.269 783.42C318.859 783.223 318.99 784.011 318.99 784.011L320.565 789.324Z" fill="#F28A11"/>
<path d="M316.902 785.532L315.873 785.734L317.049 791.72L318.079 791.517L316.902 785.532Z" fill="#F28A11"/>
<path d="M271.366 806.707L276.286 831.044L287.569 838.26C289.012 839.178 290.783 839.441 292.423 838.982L332.044 827.436C335.324 826.452 338.014 824.156 339.457 821.008L343.852 811.43L338.538 786.7C338.538 786.7 338.473 786.241 338.342 785.978C338.21 785.716 338.014 785.65 337.882 785.65C337.686 785.585 337.554 785.585 337.554 785.585L336.177 785.388C336.177 785.388 335.521 785.322 335.258 785.322C334.93 785.322 333.947 785.585 333.947 785.585L269.726 802.575L269.398 802.64C269.398 802.64 268.348 802.903 267.823 803.099C266.446 803.493 266.511 804.543 266.511 804.543L267.233 804.608L268.086 804.674L269.529 804.739C269.529 804.739 270.71 804.805 270.972 805.199C271.103 805.461 271.366 806.707 271.366 806.707Z" fill="#F79A0F"/>
<path d="M320.04 834.061L310.266 836.948C309.61 837.145 309.019 836.816 308.888 836.226L307.182 828.026C307.051 827.436 307.445 826.846 308.101 826.649L317.875 823.894C318.465 823.697 319.056 824.025 319.187 824.615L320.893 832.684C321.089 833.274 320.63 833.865 320.04 834.061Z" fill="#FFD22C"/>
<path d="M317.416 783.944C317.285 785.519 317.153 787.618 315.907 788.667C314.989 789.454 314.202 789.061 313.414 789.454C312.693 789.848 311.709 790.307 310.79 790.242C310.331 790.176 309.872 790.242 309.413 790.307C308.757 790.438 308.298 790.898 307.642 791.16C305.936 791.882 305.543 791.226 304.296 791.619C303.837 791.816 303.247 792.144 302.394 792.341C302 792.406 301.607 792.406 301.213 792.341C300.426 792.21 299.836 791.75 299.508 790.963C299.311 790.307 299.376 789.651 299.114 788.995C298.917 788.47 298.655 788.011 298.196 787.683C297.671 787.29 296.949 787.093 296.228 787.158C295.375 787.224 294.719 787.486 293.866 787.618C293.735 787.618 292.423 788.011 292.292 788.011C291.898 786.502 292.489 781.714 293.276 780.205C293.997 778.762 295.768 776.204 296.031 775.22C296.228 774.564 296.556 774.432 297.146 774.17C297.736 773.908 298.458 773.908 299.18 774.039C303.05 774.432 305.936 774.826 309.806 774.826C311.774 774.826 313.742 774.695 315.71 774.301C316.432 774.17 316.497 774.039 316.891 774.695C317.153 775.22 317.022 776.728 316.957 777.384C316.891 779.746 317.613 781.583 317.416 783.944Z" fill="#F4A086"/>
<path d="M291.832 687.449C291.57 676.757 293.275 666.064 297.736 656.356C298.72 654.257 299.77 652.157 301.213 650.321C302.197 649.074 303.968 647.697 305.542 647.631C307.117 647.5 308.822 648.156 309.609 649.534C310.397 650.911 314.201 667.507 315.382 673.87C317.088 683.448 318.334 693.288 320.171 702.865C325.419 730.219 320.499 750.752 317.088 777.909C315.251 777.581 296.359 774.695 296.293 775.023C298.261 768.791 299.638 750.096 299.638 744.979C299.835 725.037 292.291 707.326 291.832 687.449Z" fill="#0B456E"/>
<g opacity="0.2" filter="url(#filter0_f)">
<ellipse cx="267" cy="958.5" rx="73" ry="6.5" fill="black"/>
</g>
<g opacity="0.2" filter="url(#filter1_f)">
<ellipse cx="84.0001" cy="962.5" rx="73" ry="6.5" fill="black"/>
</g>
<defs>
<filter id="filter0_f" x="184" y="942" width="166" height="33" filterUnits="userSpaceOnUse" color-interpolation-filters="sRGB">
<feFlood flood-opacity="0" result="BackgroundImageFix"/>
<feBlend mode="normal" in="SourceGraphic" in2="BackgroundImageFix" result="shape"/>
<feGaussianBlur stdDeviation="5" result="effect1_foregroundBlur"/>
</filter>
<filter id="filter1_f" x="1.00006" y="946" width="166" height="33" filterUnits="userSpaceOnUse" color-interpolation-filters="sRGB">
<feFlood flood-opacity="0" result="BackgroundImageFix"/>
<feBlend mode="normal" in="SourceGraphic" in2="BackgroundImageFix" result="shape"/>
<feGaussianBlur stdDeviation="5" result="effect1_foregroundBlur"/>
</filter>
</defs>
</svg>
