<svg width="196" height="50" viewBox="0 0 196 50" fill="none" xmlns="http://www.w3.org/2000/svg">
<g clip-path="url(#clip0_4786_15574)">
<path d="M79.2633 34.273H72.4617L68.3729 27.4897C68.0667 26.9754 67.7744 26.5156 67.4925 26.1113C67.2106 25.707 66.9275 25.3607 66.6398 25.0723C66.3521 24.785 66.0529 24.5638 65.7409 24.4109C65.429 24.2579 65.0905 24.1815 64.7231 24.1815H63.1275V34.273H57.2051V7.9126H66.5924C72.9724 7.9126 76.1635 10.3023 76.1635 15.0816C76.1635 16.0001 76.0225 16.8492 75.7418 17.6276C75.4599 18.406 75.0636 19.108 74.5506 19.7323C74.0376 20.3578 73.4172 20.8964 72.6893 21.3494C71.9614 21.8034 71.1515 22.1579 70.2596 22.4162V22.4892C70.6501 22.6119 71.0302 22.8112 71.3965 23.0869C71.7627 23.3626 72.1174 23.6846 72.4594 24.0518C72.8014 24.419 73.1284 24.8151 73.4403 25.2379C73.7523 25.6607 74.0365 26.0742 74.293 26.4785L79.2622 34.273H79.2633ZM63.1286 12.3618V19.6964H65.6959C66.9668 19.6964 67.9881 19.3292 68.7576 18.5937C69.5398 17.8465 69.9315 16.921 69.9315 15.8183C69.9315 13.5143 68.5566 12.3629 65.8056 12.3629H63.1286V12.3618Z" fill="white"/>
<path d="M96.9188 12.7475H87.6412V19.218H96.1666V24.0344H87.6412V34.273H81.7188V7.9126H96.9188V12.7475Z" fill="white"/>
<path d="M107.169 25.1916V34.2718H101.246V7.9126H110.524C117.149 7.9126 120.461 10.7135 120.461 16.3129C120.461 18.9597 119.51 21.1015 117.61 22.737C115.709 24.3726 113.169 25.1916 109.991 25.1916H107.167H107.169ZM107.169 12.4718V20.6879H109.497C112.65 20.6879 114.227 19.3037 114.227 16.5341C114.227 13.7645 112.65 12.4718 109.497 12.4718H107.169Z" fill="white"/>
<path d="M130.233 25.1916V34.2718H124.311V7.9126H133.588C140.213 7.9126 143.525 10.7135 143.525 16.3129C143.525 18.9597 142.575 21.1015 140.674 22.737C138.773 24.3726 136.234 25.1916 133.056 25.1916H130.232H130.233ZM130.233 12.4718V20.6879H132.561C135.714 20.6879 137.291 19.3037 137.291 16.5341C137.291 13.7645 135.714 12.4718 132.561 12.4718H130.233Z" fill="#7A81FD"/>
<path d="M169.434 34.273H162.632L158.543 27.4897C158.237 26.9754 157.944 26.5156 157.662 26.1113C157.38 25.707 157.097 25.3607 156.81 25.0723C156.522 24.785 156.223 24.5638 155.911 24.4109C155.599 24.2579 155.26 24.1815 154.893 24.1815H153.297V34.273H147.375V7.9126H156.762C163.142 7.9126 166.333 10.3023 166.333 15.0816C166.333 16.0001 166.192 16.8492 165.912 17.6276C165.63 18.406 165.234 19.108 164.719 19.7323C164.206 20.3578 163.586 20.8964 162.858 21.3494C162.131 21.8034 161.321 22.1579 160.428 22.4162V22.4892C160.819 22.6119 161.199 22.8112 161.565 23.0869C161.931 23.3626 162.286 23.6846 162.628 24.0518C162.97 24.419 163.297 24.8151 163.609 25.2379C163.921 25.6607 164.205 26.0742 164.462 26.4785L169.431 34.273H169.434ZM153.3 12.3618V19.6964H155.867C157.138 19.6964 158.159 19.3292 158.929 18.5937C159.711 17.8465 160.103 16.921 160.103 15.8183C160.103 13.5143 158.728 12.3629 155.977 12.3629H153.3V12.3618Z" fill="#7A81FD"/>
<path d="M183.001 34.7318C179.236 34.7318 176.168 33.5039 173.798 31.0459C171.426 28.5891 170.24 25.3874 170.24 21.441C170.24 17.2744 171.444 13.9048 173.852 11.331C176.26 8.75713 179.45 7.47021 183.423 7.47021C187.176 7.47021 190.21 8.70153 192.526 11.1653C194.843 13.628 196 16.8759 196 20.9081C196 24.9403 194.8 28.3899 192.398 30.9266C189.996 33.4634 186.864 34.7318 183.001 34.7318ZM183.258 12.582C181.179 12.582 179.529 13.3627 178.307 14.9253C177.085 16.4879 176.473 18.5555 176.473 21.1294C176.473 23.7032 177.085 25.8044 178.307 27.3242C179.529 28.8439 181.131 29.6038 183.111 29.6038C185.091 29.6038 186.771 28.8659 187.969 27.389C189.167 25.9122 189.766 23.8631 189.766 21.2406C189.766 18.6181 189.185 16.3813 188.024 14.8616C186.863 13.3418 185.274 12.582 183.257 12.582H183.258Z" fill="#7A81FD"/>
<path d="M0 13.4563L5.35397 15.1625V8.68391L0 7.57422V13.4563Z" fill="url(#paint0_linear_4786_15574)"/>
<path fill-rule="evenodd" clip-rule="evenodd" d="M24.2509 47.178C13.2321 47.178 4.29883 47.6981 4.29883 48.3398C4.29883 48.9815 13.2321 49.5016 24.2509 49.5016C35.2696 49.5016 44.2029 48.9815 44.2029 48.3398C44.2029 47.6981 35.2696 47.178 24.2509 47.178Z" fill="black"/>
<path fill-rule="evenodd" clip-rule="evenodd" d="M42.8904 17.9413L15.3049 1.97361C8.95496 -1.65663 3.64258 -0.551569 3.64258 7.57651V39.5571C3.64258 46.908 7.29238 50.9448 14.3136 46.8813L41.8991 30.9136C48.249 27.2382 49.9116 22.05 42.8904 17.9413ZM31.6348 29.4402L12.8 40.3425C8.0064 43.1167 5.51427 40.361 5.51427 35.3419V13.4922C5.51427 7.94255 9.14097 7.15719 13.4771 9.66616L32.3119 20.6136C37.1055 23.389 35.9709 26.9301 31.6348 29.4402Z" fill="url(#paint1_linear_4786_15574)"/>
<path fill-rule="evenodd" clip-rule="evenodd" d="M42.8903 17.9866L21.1359 5.39314C13.8733 1.18953 5.11444 1.87179 5.53614 12.7683C5.63897 10.0925 6.85442 8.86122 8.42918 8.54731C9.16631 8.4002 9.9277 8.43726 10.6625 8.58322C18.4636 9.53306 33.4949 17.002 40.4178 21.5485C45.156 24.6598 45.907 27.6982 41.9002 30.9137C48.2501 27.2383 49.9127 22.0501 42.8915 17.9866H42.8903Z" fill="url(#paint2_linear_4786_15574)"/>
<path fill-rule="evenodd" clip-rule="evenodd" d="M41.1846 21.4629C33.0207 15.8692 13.019 6.50522 7.81641 8.72923C9.58874 8.0296 11.9099 8.75935 13.4777 9.66633L32.3125 20.6138C32.8093 20.9011 33.1837 21.2069 33.5823 21.4733C38.362 24.6611 36.9155 32.5702 33.4043 35.8321L41.9021 30.9138C47.4132 27.7237 44.4358 23.6892 41.1869 21.4629H41.1846Z" fill="url(#paint3_linear_4786_15574)"/>
<path opacity="0.4" fill-rule="evenodd" clip-rule="evenodd" d="M23.0605 34.3875L25.1691 40.5742L32.553 36.271L30.1857 30.2395L23.0605 34.3875Z" fill="#132E41"/>
<path opacity="0.4" fill-rule="evenodd" clip-rule="evenodd" d="M22.9349 6.3894H3.68417C3.6576 6.76702 3.64258 7.16202 3.64258 7.5767V14.6414H5.51427V13.4924C5.51427 7.94274 9.14097 7.15738 13.4771 9.66635L22.0718 14.6414H25.9966C26.3687 14.6414 27.2456 14.6843 27.5009 15.0295C27.695 15.2924 27.6049 15.9121 27.5425 16.1994L27.2225 17.6682L32.313 20.615C33.1899 21.1223 33.867 21.6552 34.3638 22.2031C34.9184 21.0598 35.3262 19.7845 35.6266 18.4049L36.0056 16.6685C36.1985 15.7835 36.2736 14.938 36.2436 14.1387L22.9349 6.39056V6.3894Z" fill="#132E41"/>
<path fill-rule="evenodd" clip-rule="evenodd" d="M27.269 7.57422H0V13.4563H25.9958C28.221 13.4563 29.1257 14.4814 28.6959 16.4517L28.3215 18.1696C27.9241 19.9905 26.6093 20.8963 24.3748 20.8963H16.9296L17.3559 19.0094H11.6692L7.81722 38.9583H13.6842L15.7719 26.8907H21.7082L29.6976 48.4637H35.5645L27.4839 26.4471C31.7449 25.3351 33.5796 22.2377 34.4715 18.151L34.8505 16.4147C36.0082 11.1083 32.4531 7.57422 27.2701 7.57422H27.269Z" fill="url(#paint4_linear_4786_15574)"/>
</g>
<defs>
<linearGradient id="paint0_linear_4786_15574" x1="4.50593" y1="8.19277" x2="1.09256" y2="14.0892" gradientUnits="userSpaceOnUse">
<stop stop-color="#60CAE7"/>
<stop offset="0.49" stop-color="#00B6BE"/>
<stop offset="1" stop-color="#03466A"/>
</linearGradient>
<linearGradient id="paint1_linear_4786_15574" x1="-3.37743" y1="16.5444" x2="38.5619" y2="40.6951" gradientUnits="userSpaceOnUse">
<stop stop-color="#14142D"/>
<stop offset="0.34" stop-color="#7A81FD"/>
<stop offset="0.66" stop-color="#7ACFFD"/>
<stop offset="1" stop-color="#14142D"/>
</linearGradient>
<linearGradient id="paint2_linear_4786_15574" x1="7.2692" y1="5.56921" x2="45.9601" y2="27.8495" gradientUnits="userSpaceOnUse">
<stop stop-color="#14142D"/>
<stop offset="0.34" stop-color="#7A81FD"/>
<stop offset="0.66" stop-color="#7ACFFD"/>
<stop offset="1" stop-color="#14142D"/>
</linearGradient>
<linearGradient id="paint3_linear_4786_15574" x1="18.0703" y1="2.79389" x2="36.2425" y2="34.1885" gradientUnits="userSpaceOnUse">
<stop stop-color="#14142D"/>
<stop offset="0.34" stop-color="#7A81FD"/>
<stop offset="0.66" stop-color="#7ACFFD"/>
<stop offset="1" stop-color="#14142D"/>
</linearGradient>
<linearGradient id="paint4_linear_4786_15574" x1="39.5852" y1="46.0126" x2="3.97351" y2="5.7758" gradientUnits="userSpaceOnUse">
<stop stop-color="#14142D"/>
<stop offset="0.34" stop-color="#7A81FD"/>
<stop offset="0.66" stop-color="#7ACFFD"/>
<stop offset="1" stop-color="#14142D"/>
</linearGradient>
<clipPath id="clip0_4786_15574">
<rect width="196" height="49.5017" fill="white"/>
</clipPath>
</defs>
</svg>
