<svg width="70" height="70" viewBox="0 0 70 70" fill="none" xmlns="http://www.w3.org/2000/svg">
<path d="M61.7969 9.0918V70H8.20312V9.0918H20.233V11.1426H48.6732V9.0918H61.7969Z" fill="#13B4CA"/>
<path d="M61.7969 9.0918V70H34.9713V11.1426H48.6733V9.0918H61.7969Z" fill="#14818F"/>
<path d="M50.2741 43.1349C50.2741 51.6046 43.4299 58.4761 34.9712 58.5198C34.9438 58.5212 34.9151 58.5212 34.8878 58.5212C26.3907 58.5212 19.5014 51.6319 19.5014 43.1349C19.5014 34.6364 26.3907 27.7485 34.8878 27.7485C34.9151 27.7485 34.9438 27.7485 34.9712 27.7499C43.4299 27.7937 50.2741 34.6638 50.2741 43.1349Z" fill="white"/>
<path d="M50.2741 43.135C50.2741 51.6047 43.4299 58.4762 34.9712 58.5199V27.75C43.4299 27.7937 50.2741 34.6639 50.2741 43.135Z" fill="#CFCFCF"/>
<path d="M44.1573 40.1218L34.9712 48.5327L32.7399 50.5753L25.5622 43.4769L28.4456 40.5606L32.8493 44.9138L34.9712 42.971L41.3874 37.0962L44.1573 40.1218Z" fill="#13B4CA"/>
<path d="M44.1573 40.1218L34.9712 48.5327V42.971L41.3874 37.0962L44.1573 40.1218Z" fill="#14818F"/>
<path d="M51.9641 5.7627V16.6906H18.0359V5.7627H27.0444C27.5926 4.09063 28.6535 2.64961 30.0412 1.62695C31.4221 0.609766 33.1256 0.00683594 34.9713 0H35C38.7119 0 41.8592 2.41719 42.9557 5.7627H51.9641Z" fill="#FFB721"/>
<path d="M51.9641 5.7627V16.6906H34.9713V0H35C38.7119 0 41.8592 2.41719 42.9557 5.7627H51.9641Z" fill="#FE9B2A"/>
</svg>
