<svg width="32" height="27" viewBox="0 0 32 27" fill="none" xmlns="http://www.w3.org/2000/svg">
<path d="M28.3333 2.66675H21.3333V2.33325C21.3333 1.04663 20.2866 0 19 0H13C11.7134 0 10.6667 1.04663 10.6667 2.33325V2.66675H3.66675C1.64404 2.66675 0 4.31055 0 6.33325V23C0 25.0227 1.64404 26.6667 3.66675 26.6667H28.3333C30.356 26.6667 32 25.0227 32 23V6.33325C32 4.31055 30.356 2.66675 28.3333 2.66675ZM18.668 5.33325H13.3333V2.66675H18.6667L18.668 5.33325ZM10 9.3333C11.8374 9.3333 13.3333 10.8293 13.3333 12.6667C13.3333 14.5039 11.8374 16 10 16C8.1626 16 6.66675 14.5039 6.66675 12.6667C6.66675 10.8293 8.1626 9.3333 10 9.3333ZM16 21.6667C16 22.2187 15.552 22.6667 15 22.6667H5C4.448 22.6667 4 22.2187 4 21.6667V21C4 18.9773 5.64404 17.3333 7.66675 17.3333H12.3333C14.356 17.3333 16 18.9773 16 21V21.6667ZM27 22.6667H19.6667C19.1147 22.6667 18.6667 22.2187 18.6667 21.6667C18.6667 21.1147 19.1147 20.6667 19.6667 20.6667H27C27.552 20.6667 28 21.1147 28 21.6667C28 22.2187 27.552 22.6667 27 22.6667ZM27 17.3333H19.6667C19.1147 17.3333 18.6667 16.8853 18.6667 16.3333C18.6667 15.7813 19.1147 15.3333 19.6667 15.3333H27C27.552 15.3333 28 15.7813 28 16.3333C28 16.8853 27.552 17.3333 27 17.3333ZM27 12H19.6667C19.1147 12 18.6667 11.552 18.6667 11C18.6667 10.448 19.1147 10 19.6667 10H27C27.552 10 28 10.448 28 11C28 11.552 27.552 12 27 12Z" fill="#1A0224"/>
</svg>
