<svg width="450" height="185" viewBox="0 0 450 185" fill="none" xmlns="http://www.w3.org/2000/svg">
<path d="M306.601 140.274H156.411C155.638 140.274 155 139.643 155 138.852V47.9431C155 43.1571 158.853 39.2739 163.589 39.2739H299.411C304.147 39.2739 308 43.1571 308 47.9431V138.852C308.012 139.643 307.386 140.274 306.601 140.274Z" fill="#F2F2F2"/>
<path d="M270.417 28.5147C270.761 27.161 271.611 26.0164 272.817 25.3027C273.789 24.7242 274.909 24.4781 276.016 24.5889C276.275 24.6135 276.521 24.6627 276.779 24.7242C279.573 25.438 281.271 28.2809 280.57 31.0745C279.856 33.8682 277.013 35.5665 274.22 34.865C271.401 34.1635 269.703 31.3084 270.417 28.5147Z" fill="#C0C4FF"/>
<path d="M245.68 26.3857V33.1791C245.68 33.376 245.803 33.5483 245.987 33.6221L251.329 35.4681C251.944 38.1141 252.99 40.6 254.381 42.8522L251.895 47.9349C251.808 48.1072 251.845 48.3287 251.981 48.4641L256.78 53.2637C256.916 53.3991 257.137 53.436 257.31 53.3499L262.405 50.8762C264.644 52.2669 267.13 53.3129 269.776 53.9406L271.622 59.294C271.684 59.4786 271.869 59.6017 272.065 59.6017H278.859C279.056 59.6017 279.228 59.4786 279.302 59.294L281.148 53.9529C283.794 53.3375 286.28 52.2915 288.532 50.9008L293.615 53.3868C293.787 53.4729 294.008 53.436 294.144 53.3006L298.943 48.501C299.079 48.3656 299.116 48.1441 299.03 47.9718L296.556 42.8768C297.947 40.637 298.993 38.151 299.62 35.505L304.974 33.659C305.158 33.5975 305.281 33.4129 305.281 33.216V26.4226C305.281 26.2257 305.158 26.0534 304.974 25.9796L299.633 24.1336C299.017 21.4876 297.971 19.0017 296.581 16.7495L299.066 11.6668C299.153 11.4945 299.116 11.273 298.98 11.1376L294.181 6.33799C294.045 6.20261 293.824 6.16569 293.652 6.25184L288.557 8.7255C286.317 7.33484 283.831 6.28876 281.185 5.66112L279.339 0.307669C279.277 0.123068 279.093 0 278.896 0H272.102C271.905 0 271.733 0.123068 271.659 0.307669L269.813 5.64881C267.167 6.26415 264.681 7.31022 262.429 8.70089L257.347 6.21492C257.174 6.12877 256.953 6.16569 256.817 6.30107L252.018 11.1007C251.882 11.2361 251.845 11.4576 251.932 11.6299L254.405 16.7249C253.015 18.9647 251.968 21.4507 251.341 24.0967L245.987 25.9427C245.803 26.0042 245.68 26.1888 245.68 26.3857ZM263.537 17.8079C266.712 14.6451 270.921 12.8975 275.401 12.8975C284.655 12.9098 292.175 20.4415 292.162 29.6839C292.162 30.25 292.138 30.8285 292.076 31.3823C291.83 33.8313 291.042 36.1819 289.775 38.2987C289.664 38.4833 289.418 38.5448 289.233 38.434C289.098 38.3479 289.024 38.2002 289.036 38.0525C289.036 37.991 289.061 37.9418 289.086 37.8925C290.292 35.8865 291.03 33.6344 291.276 31.3084C291.326 30.7669 291.362 30.2254 291.362 29.6839C291.375 20.8723 284.212 13.6974 275.388 13.6851C271.118 13.6851 267.106 15.3465 264.078 18.3617C261.445 20.983 259.845 24.3674 259.476 28.0225C259.414 28.564 259.389 29.1178 259.389 29.6593C259.389 32.8099 260.3 35.7512 261.875 38.2248C264.706 42.6799 269.69 45.6458 275.364 45.6458C276.508 45.6458 277.64 45.5227 278.748 45.2889C278.957 45.2397 279.179 45.3751 279.216 45.5966C279.228 45.6335 279.228 45.6827 279.228 45.7197C279.216 45.8919 279.093 46.0273 278.92 46.0643C278.859 46.0766 278.785 46.0889 278.723 46.1012C278.686 46.1135 278.65 46.1135 278.625 46.1258C278.613 46.1258 278.6 46.1258 278.588 46.1381C277.714 46.3104 276.816 46.4088 275.917 46.4334C275.733 46.4334 275.548 46.4458 275.376 46.4458C274.798 46.4458 274.219 46.4211 273.653 46.3596C269.826 45.9658 266.269 44.2921 263.512 41.523C260.349 38.3479 258.602 34.139 258.602 29.6593C258.602 29.0809 258.626 28.5025 258.688 27.9364C259.094 24.1213 260.78 20.5646 263.537 17.8079ZM274.798 36.588C274.465 36.5511 274.145 36.5019 273.813 36.4157C270.17 35.4927 267.955 31.7761 268.878 28.121C269.321 26.3488 270.429 24.872 272.004 23.9367C273.567 23.0014 275.401 22.7306 277.173 23.186C280.816 24.109 283.031 27.8256 282.108 31.4807C281.259 34.7912 278.108 36.9203 274.798 36.588Z" fill="#7A81FD"/>
<path d="M300.531 55.7004V60.2416C300.531 60.3769 300.617 60.4877 300.74 60.5369L304.322 61.7676C304.74 63.5398 305.429 65.2012 306.365 66.7026L304.703 70.1116C304.642 70.2347 304.666 70.37 304.765 70.4685L307.977 73.6806C308.075 73.779 308.211 73.8036 308.334 73.7421L311.743 72.0807C313.244 73.016 314.906 73.7175 316.678 74.1359L317.908 77.7172C317.958 77.8402 318.068 77.9264 318.204 77.9264H322.745C322.88 77.9264 322.991 77.8402 323.04 77.7172L324.271 74.1359C326.043 73.7175 327.705 73.0283 329.206 72.093L332.615 73.7544C332.738 73.8159 332.873 73.7913 332.972 73.6929L336.184 70.4808C336.282 70.3823 336.307 70.247 336.246 70.1239L334.584 66.7149C335.519 65.2135 336.221 63.5521 336.639 61.7799L340.221 60.5492C340.344 60.5 340.43 60.3892 340.43 60.2539V55.7127C340.43 55.5773 340.344 55.4665 340.221 55.4173L336.639 54.1866C336.221 52.4145 335.532 50.753 334.596 49.2516L336.258 45.8426C336.319 45.7196 336.295 45.5842 336.196 45.4857L332.984 42.2737C332.886 42.1752 332.75 42.1506 332.627 42.2121L329.218 43.8735C327.717 42.9382 326.056 42.2368 324.283 41.8183L323.053 38.2371C323.003 38.114 322.893 38.0278 322.757 38.0278H318.216C318.081 38.0278 317.97 38.114 317.921 38.2371L316.69 41.8183C314.918 42.2368 313.256 42.9259 311.755 43.8612L308.346 42.1998C308.223 42.1383 308.088 42.1629 307.989 42.2614L304.777 45.4734C304.679 45.5719 304.654 45.7073 304.716 45.8303L306.377 49.2393C305.442 50.7407 304.74 52.4021 304.322 54.1743L300.74 55.405C300.605 55.4542 300.531 55.5773 300.531 55.7004ZM312.223 49.7316C314.413 47.541 317.318 46.3472 320.407 46.3472C323.496 46.3472 326.4 47.5533 328.591 49.7439C330.781 51.9345 331.975 54.8389 331.975 57.9279C331.975 58.3217 331.95 58.7155 331.914 59.097C331.741 60.7831 331.2 62.4076 330.326 63.8598C330.154 64.1551 329.772 64.2413 329.477 64.069C329.268 63.9459 329.157 63.7121 329.181 63.4782C329.194 63.3921 329.218 63.3059 329.268 63.2198C330.043 61.9153 330.535 60.4631 330.683 58.9617C330.72 58.6171 330.732 58.2602 330.732 57.9156C330.732 55.1466 329.661 52.5498 327.705 50.593C325.748 48.6363 323.151 47.5656 320.394 47.5533C317.625 47.5533 315.029 48.624 313.072 50.5807C311.374 52.2791 310.327 54.4697 310.094 56.8326C310.057 57.1895 310.044 57.5341 310.044 57.891C310.044 60.66 311.115 63.2567 313.072 65.2135C313.084 65.2258 313.109 65.2504 313.121 65.2627L313.133 65.275C313.81 65.9396 314.561 66.3826 315.361 66.8257C316.85 67.6502 318.511 67.9948 320.259 67.9948C320.296 67.9948 319.742 67.9948 319.742 67.9948V68.204C320.973 68.204 321.539 68.1425 322.253 67.9948C322.585 67.921 323.065 68.1425 323.139 68.4748C323.151 68.5363 323.237 68.6102 323.225 68.6717C323.2 68.9301 323.053 69.1517 322.782 69.2132C322.745 69.2255 322.733 69.2255 322.696 69.2378C321.92 69.3978 321.145 69.4716 320.357 69.4716C319.964 69.4716 319.57 69.447 319.188 69.4101C313.355 68.8194 308.789 63.8721 308.801 57.891C308.801 57.4971 308.826 57.091 308.863 56.6972C309.158 54.0759 310.327 51.6268 312.223 49.7316ZM322.856 61.9891C321.994 62.506 320.997 62.7275 320.013 62.6168C319.791 62.5922 319.558 62.5552 319.336 62.4937C318.13 62.186 317.121 61.4353 316.481 60.3646C315.841 59.2939 315.669 58.051 315.964 56.8449C316.592 54.3589 319.127 52.8575 321.613 53.4851C324.099 54.1128 325.612 56.648 324.973 59.1339C324.677 60.34 323.914 61.3492 322.856 61.9891Z" fill="#7A81FD"/>
<path d="M317.54 59.7371C317.072 58.9494 316.937 58.0387 317.159 57.1527C317.577 55.4912 319.165 54.4205 320.814 54.5928C320.974 54.6051 321.146 54.6421 321.306 54.679C323.127 55.1467 324.247 57.005 323.78 58.8387C323.558 59.7248 323.004 60.4632 322.217 60.9308C321.429 61.3985 320.518 61.5339 319.632 61.3123C318.746 61.0785 317.995 60.5247 317.54 59.7371Z" fill="#C0C4FF"/>
<path d="M156.063 144.274C152.958 144.274 150 141.807 150 138.702V48.4853C150 41.4162 156.185 36.2739 163.255 36.2739H299.114C306.183 36.2739 312 41.4162 312 48.4853V138.702C312 141.807 309.398 144.274 306.293 144.274H156.063Z" fill="white"/>
<path d="M140.973 32.1328H114.132C113.418 32.1328 112.84 31.5544 112.84 30.8406V16.1955C112.84 15.4817 113.418 14.9033 114.132 14.9033H140.973C141.687 14.9033 142.265 15.4817 142.265 16.1955V30.8406C142.265 31.5544 141.687 32.1328 140.973 32.1328ZM114.132 15.4571C113.726 15.4571 113.394 15.7894 113.394 16.1955V30.8406C113.394 31.2467 113.726 31.579 114.132 31.579H140.973C141.379 31.579 141.712 31.2467 141.712 30.8406V16.1955C141.712 15.7894 141.379 15.4571 140.973 15.4571H114.132Z" fill="#7A81FD"/>
<path d="M141.995 20.971H113.123C112.975 20.971 112.84 20.8479 112.84 20.6879V18.4481C112.84 18.3004 112.963 18.165 113.123 18.165H141.995C142.142 18.165 142.278 18.2881 142.278 18.4481V20.6879C142.265 20.8479 142.142 20.971 141.995 20.971ZM113.394 20.4172H141.712V18.7311H113.394V20.4172Z" fill="#7A81FD"/>
<path d="M134.243 28.4405C133.111 28.4405 132.188 27.5175 132.188 26.3853C132.188 25.2531 133.111 24.3301 134.243 24.3301C134.784 24.3301 135.289 24.5393 135.67 24.9085C135.72 24.9577 135.756 25.0316 135.756 25.1054C135.756 25.1792 135.72 25.2531 135.67 25.3023C135.375 25.5854 135.215 25.9792 135.215 26.3853C135.215 26.8037 135.375 27.1853 135.683 27.4683C135.732 27.5175 135.769 27.5914 135.769 27.6652C135.769 27.7391 135.732 27.8129 135.683 27.8621C135.277 28.2436 134.772 28.4405 134.243 28.4405ZM134.243 24.8839C133.418 24.8839 132.741 25.5608 132.741 26.3853C132.741 27.2099 133.418 27.8867 134.243 27.8867C134.538 27.8867 134.833 27.8006 135.067 27.6406C134.797 27.2837 134.649 26.853 134.649 26.3853C134.649 25.93 134.797 25.4869 135.08 25.13C134.833 24.97 134.538 24.8839 134.243 24.8839Z" fill="#7A81FD"/>
<path d="M136.704 28.4405C135.571 28.4405 134.648 27.5175 134.648 26.3853C134.648 25.2531 135.571 24.3301 136.704 24.3301C137.836 24.3301 138.759 25.2531 138.759 26.3853C138.759 27.5175 137.836 28.4405 136.704 28.4405ZM136.704 24.8839C135.879 24.8839 135.202 25.5608 135.202 26.3853C135.202 27.2099 135.879 27.8867 136.704 27.8867C137.528 27.8867 138.205 27.2099 138.205 26.3853C138.205 25.5608 137.528 24.8839 136.704 24.8839Z" fill="#7A81FD"/>
<path d="M126.638 24.3547H114.639C114.491 24.3547 114.355 24.2316 114.355 24.0716C114.355 23.9116 114.479 23.7886 114.639 23.7886H126.638C126.785 23.7886 126.921 23.9116 126.921 24.0716C126.921 24.2316 126.798 24.3547 126.638 24.3547Z" fill="#7A81FD"/>
<path d="M126.638 27.7145H114.639C114.491 27.7145 114.355 27.5915 114.355 27.4315C114.355 27.2838 114.479 27.1484 114.639 27.1484H126.638C126.785 27.1484 126.921 27.2715 126.921 27.4315C126.921 27.5792 126.798 27.7145 126.638 27.7145Z" fill="#7A81FD"/>
<path d="M116.582 17.0939H115.068C114.921 17.0939 114.785 16.9709 114.785 16.8109C114.785 16.6632 114.908 16.5278 115.068 16.5278H116.582C116.73 16.5278 116.865 16.6509 116.865 16.8109C116.865 16.9709 116.742 17.0939 116.582 17.0939Z" fill="#7A81FD"/>
<path d="M119.707 17.0939H118.193C118.046 17.0939 117.91 16.9709 117.91 16.8109C117.91 16.6632 118.033 16.5278 118.193 16.5278H119.707C119.855 16.5278 119.99 16.6509 119.99 16.8109C119.978 16.9709 119.855 17.0939 119.707 17.0939Z" fill="#7A81FD"/>
<path d="M122.824 17.0939H121.31C121.163 17.0939 121.027 16.9709 121.027 16.8109C121.027 16.6632 121.15 16.5278 121.31 16.5278H122.824C122.972 16.5278 123.107 16.6509 123.107 16.8109C123.107 16.9709 122.984 17.0939 122.824 17.0939Z" fill="#7A81FD"/>
<path d="M113.113 27.8374H109.753C109.039 27.8374 108.461 27.259 108.461 26.5452V11.9001C108.461 11.1863 109.039 10.6079 109.753 10.6079H136.594C137.308 10.6079 137.886 11.1863 137.886 11.9001V15.1737C137.886 15.3214 137.763 15.4568 137.603 15.4568H114.122C113.716 15.4568 113.384 15.7891 113.384 16.1952V27.5543C113.396 27.7143 113.273 27.8374 113.113 27.8374ZM109.765 11.1617C109.359 11.1617 109.027 11.494 109.027 11.9001V26.5452C109.027 26.9513 109.359 27.2836 109.765 27.2836H112.842V16.1952C112.842 15.4814 113.421 14.903 114.134 14.903H137.345V11.9001C137.345 11.494 137.013 11.1617 136.607 11.1617H109.765Z" fill="#7A81FD"/>
<path d="M2.65827 81.7784C1.19376 81.7784 0 80.5847 0 79.1202C0 77.6557 1.19376 76.4619 2.65827 76.4619C4.12277 76.4619 5.31653 77.6557 5.31653 79.1202C5.31653 80.5847 4.12277 81.7784 2.65827 81.7784ZM2.65827 77.4342C1.73526 77.4342 0.972246 78.1849 0.972246 79.1202C0.972246 80.0432 1.72295 80.8062 2.65827 80.8062C3.58128 80.8062 4.34429 80.0555 4.34429 79.1202C4.34429 78.1849 3.59358 77.4342 2.65827 77.4342Z" fill="#7A81FD"/>
<path d="M112.065 117.517C110.6 117.517 109.406 116.323 109.406 114.859C109.406 113.394 110.6 112.2 112.065 112.2C113.529 112.2 114.723 113.394 114.723 114.859C114.723 116.323 113.529 117.517 112.065 117.517ZM112.065 113.173C111.142 113.173 110.378 113.923 110.378 114.859C110.378 115.782 111.129 116.545 112.065 116.545C112.988 116.545 113.751 115.794 113.751 114.859C113.751 113.923 113 113.173 112.065 113.173Z" fill="#E6E6E6"/>
<path d="M83.3243 144.309C83.0535 144.309 82.832 144.087 82.832 143.817V137.097C82.832 136.826 83.0535 136.605 83.3243 136.605C83.595 136.605 83.8166 136.826 83.8166 137.097V143.817C83.8166 144.087 83.595 144.309 83.3243 144.309Z" fill="#3E3562"/>
<path d="M86.6844 140.949H79.9649C79.6942 140.949 79.4727 140.727 79.4727 140.457C79.4727 140.186 79.6942 139.964 79.9649 139.964H86.6844C86.9552 139.964 87.1767 140.186 87.1767 140.457C87.1767 140.727 86.9552 140.949 86.6844 140.949Z" fill="#3E3562"/>
<path d="M68.2774 46.4213C68.0067 46.4213 67.7852 46.1998 67.7852 45.9291V39.2095C67.7852 38.9388 68.0067 38.7173 68.2774 38.7173C68.5482 38.7173 68.7697 38.9388 68.7697 39.2095V45.9291C68.7697 46.2121 68.5482 46.4213 68.2774 46.4213Z" fill="#E6E6E6"/>
<path d="M71.6376 43.0617H64.9181C64.6473 43.0617 64.4258 42.8402 64.4258 42.5694C64.4258 42.2987 64.6473 42.0771 64.9181 42.0771H71.6376C71.9083 42.0771 72.1298 42.2987 72.1298 42.5694C72.1298 42.8402 71.9083 43.0617 71.6376 43.0617Z" fill="#E6E6E6"/>
<path d="M46.0079 9.22992C45.7371 9.22992 45.5156 9.0084 45.5156 8.73765V2.01815C45.5156 1.7474 45.7371 1.52588 46.0079 1.52588C46.2786 1.52588 46.5002 1.7474 46.5002 2.01815V8.73765C46.5002 9.0084 46.2786 9.22992 46.0079 9.22992Z" fill="#3E3562"/>
<path d="M49.3798 5.85808H42.6602C42.3895 5.85808 42.168 5.63656 42.168 5.36581C42.168 5.09506 42.3895 4.87354 42.6602 4.87354H49.3798C49.6505 4.87354 49.872 5.09506 49.872 5.36581C49.8597 5.64886 49.6382 5.85808 49.3798 5.85808Z" fill="#3E3562"/>
<path d="M85.09 119.031H17.8088C16.369 119.031 15.1875 117.862 15.1875 116.409C15.1875 114.957 16.3566 113.788 17.8088 113.788H85.09C86.5299 113.788 87.7113 114.957 87.7113 116.409C87.7113 117.862 86.5299 119.031 85.09 119.031ZM17.8088 114.773C16.8981 114.773 16.172 115.511 16.172 116.409C16.172 117.32 16.9105 118.046 17.8088 118.046H85.09C86.0007 118.046 86.7268 117.308 86.7268 116.409C86.7268 115.499 85.9884 114.773 85.09 114.773H17.8088Z" fill="#E6E6E6"/>
<path d="M115.251 79.1202H90.3787C89.788 79.1202 89.3203 78.6402 89.3203 78.0618C89.3203 77.4711 89.8003 77.0034 90.3787 77.0034H115.251C115.841 77.0034 116.309 77.4834 116.309 78.0618C116.321 78.6402 115.841 79.1202 115.251 79.1202Z" fill="#7A81FD"/>
<path d="M60.0807 99.734H41.0545C40.4637 99.734 39.9961 99.254 39.9961 98.6756C39.9961 98.0848 40.476 97.6172 41.0545 97.6172H60.0807C60.6714 97.6172 61.1391 98.0972 61.1391 98.6756C61.1391 99.254 60.6714 99.734 60.0807 99.734Z" fill="#E6E6E6"/>
<path d="M50.3791 86.6259C50.2068 86.6259 50.0469 86.4782 50.0469 86.3059V79.2419C50.0469 79.0696 50.1946 78.9219 50.3669 78.9219H57.394C57.4925 78.9219 57.5786 78.9588 57.6402 79.0326C57.7509 79.1557 57.7509 79.3526 57.6279 79.4757L50.6007 86.5275C50.5392 86.589 50.4653 86.6259 50.3791 86.6259ZM50.6868 79.5618V85.5429L56.6433 79.5618H50.6868Z" fill="#7A81FD"/>
<path d="M50.3669 86.6262H29.2731C29.1008 86.6262 28.9531 86.4785 28.9531 86.3062V48.0568C28.9531 47.8845 29.1008 47.7368 29.2731 47.7368H57.3941C57.5664 47.7368 57.714 47.8845 57.714 48.0568V79.2422C57.714 79.4145 57.5664 79.5621 57.3941 79.5621H50.6868V86.3062C50.6868 86.4908 50.5392 86.6262 50.3669 86.6262ZM29.5931 85.9863H50.0469V79.2422C50.0469 79.0699 50.1946 78.9222 50.3669 78.9222H57.0741V48.3768H29.5931V85.9863ZM37.1371 79.2914C36.6448 79.2914 36.1649 79.0452 35.8818 78.5899L34.8727 76.9039C34.6758 76.5716 34.6142 76.1778 34.7004 75.7963C34.7988 75.4148 35.0327 75.0948 35.3649 74.8979L47.1302 67.7722C47.1917 67.7353 47.2656 67.723 47.3271 67.723L50.613 68.0676C50.7115 68.0799 50.7976 68.1291 50.8468 68.2153C50.8961 68.3014 50.9084 68.3999 50.8838 68.486L49.7885 71.7596C49.7639 71.8335 49.7146 71.895 49.6531 71.9319L38.897 78.4545C38.8847 78.4668 38.8724 78.4668 38.8601 78.4668L37.8878 79.0576C37.654 79.2299 37.3956 79.2914 37.1371 79.2914ZM47.3764 68.3876L35.6972 75.4517C35.5126 75.5624 35.3773 75.747 35.328 75.9562C35.2788 76.1655 35.3034 76.387 35.4142 76.5716L36.4233 78.2576C36.6571 78.6391 37.1617 78.7622 37.5432 78.5284L38.5401 77.913C38.5524 77.9007 38.5647 77.9007 38.577 77.8884L49.2101 71.452L50.1331 68.6706L47.3764 68.3876Z" fill="#7A81FD"/>
<path d="M49.4919 71.9931C49.3811 71.9931 49.2827 71.9316 49.2211 71.8331L47.0305 68.2149C46.969 68.1165 46.969 67.9811 47.0305 67.8826C47.0921 67.7842 47.2151 67.7227 47.3382 67.735L50.6241 68.0796C50.7225 68.0919 50.8087 68.1411 50.8579 68.2272C50.9071 68.3134 50.9194 68.4118 50.8948 68.498L49.7995 71.7716C49.7626 71.8947 49.6519 71.9685 49.5288 71.9931C49.5165 71.9931 49.5042 71.9931 49.4919 71.9931ZM47.9043 68.4488L49.4057 70.9224L50.1564 68.6826L47.9043 68.4488Z" fill="#7A81FD"/>
<path d="M38.737 78.516C38.6262 78.516 38.5155 78.4544 38.454 78.3683L37.3587 76.5592C37.2971 76.4607 37.2971 76.3377 37.3587 76.2392C37.3956 76.1777 37.4448 76.1285 37.5063 76.1038L48.2378 69.6059C48.3117 69.5566 48.3978 69.5443 48.484 69.5689C48.5701 69.5936 48.6317 69.6428 48.6809 69.7166L49.7762 71.5257C49.8623 71.6734 49.8131 71.8703 49.6654 71.9688L38.9093 78.4914C38.8478 78.5037 38.7862 78.516 38.737 78.516ZM38.0724 76.4977L38.8355 77.753L49.0501 71.5626L48.2871 70.295L38.0724 76.4977Z" fill="#7A81FD"/>
<path d="M37.6294 76.7071C37.5186 76.7071 37.4079 76.6455 37.3463 76.5471L36.2634 74.7503C36.2265 74.6888 36.2018 74.6149 36.2141 74.5288C36.2264 74.4303 36.2757 74.3442 36.3618 74.295L47.1302 67.7724C47.2779 67.6739 47.4748 67.7231 47.5733 67.8831L48.6686 69.6922C48.7178 69.7661 48.7301 69.8522 48.7055 69.9384C48.6809 70.0245 48.6317 70.086 48.5578 70.1353L37.7894 76.6578C37.7525 76.6948 37.6909 76.7071 37.6294 76.7071ZM36.9772 74.6888L37.7402 75.9564L47.9548 69.7661L47.1918 68.4985L36.9772 74.6888Z" fill="#7A81FD"/>
<path d="M37.1388 79.2911C36.6465 79.2911 36.1666 79.045 35.8835 78.5896L34.8744 76.9036C34.6775 76.5713 34.6159 76.1775 34.7021 75.796C34.8005 75.4145 35.0344 75.0945 35.3666 74.8976L36.3635 74.2946C36.4865 74.2207 36.6589 74.2331 36.7573 74.3438C36.7696 74.3561 36.7942 74.3807 36.8065 74.4054L38.9971 78.0112C39.0833 78.1589 39.0464 78.3558 38.8987 78.4543L37.8895 79.0696C37.6557 79.2296 37.3973 79.2911 37.1388 79.2911ZM36.425 75.0207L35.6989 75.4637C35.5143 75.5745 35.3789 75.7591 35.3297 75.9683C35.2805 76.1775 35.3051 76.399 35.4159 76.5836L36.425 78.2697C36.6588 78.6512 37.1634 78.7743 37.5449 78.5404L38.271 78.0974L37.4218 76.6944L36.425 75.0207Z" fill="#7A81FD"/>
<path d="M50.3669 86.6262H29.2731C29.1008 86.6262 28.9531 86.4785 28.9531 86.3062V48.0568C28.9531 47.8845 29.1008 47.7368 29.2731 47.7368H57.3941C57.5664 47.7368 57.714 47.8845 57.714 48.0568V79.2422C57.714 79.4145 57.5664 79.5621 57.3941 79.5621H50.6868V86.3062C50.6868 86.4908 50.5392 86.6262 50.3669 86.6262ZM29.5931 85.9863H50.0469V79.2422C50.0469 79.0699 50.1946 78.9222 50.3669 78.9222H57.0741V48.3768H29.5931V85.9863Z" fill="#7A81FD"/>
<path d="M50.3802 86.6266C50.2941 86.6266 50.2202 86.5897 50.1587 86.5281C50.0356 86.4051 50.0356 86.1959 50.1587 86.0728L57.1859 79.021C57.309 78.8979 57.5182 78.8979 57.6412 79.021C57.7643 79.1441 57.7643 79.3533 57.6412 79.4764L50.6141 86.5281C50.5402 86.602 50.4541 86.6266 50.3802 86.6266Z" fill="#7A81FD"/>
<path d="M52.6312 55.4285H33.691C33.5187 55.4285 33.3711 55.2808 33.3711 55.1086C33.3711 54.9363 33.5187 54.7886 33.691 54.7886H52.6312C52.8035 54.7886 52.9512 54.9363 52.9512 55.1086C52.9512 55.2808 52.8158 55.4285 52.6312 55.4285Z" fill="#7A81FD"/>
<path d="M52.6312 60.5111H33.691C33.5187 60.5111 33.3711 60.3634 33.3711 60.1911C33.3711 60.0188 33.5187 59.8711 33.691 59.8711H52.6312C52.8035 59.8711 52.9512 60.0188 52.9512 60.1911C52.9512 60.3634 52.8158 60.5111 52.6312 60.5111Z" fill="#7A81FD"/>
<path d="M52.6312 65.5818H33.691C33.5187 65.5818 33.3711 65.4342 33.3711 65.2619C33.3711 65.0896 33.5187 64.9419 33.691 64.9419H52.6312C52.8035 64.9419 52.9512 65.0896 52.9512 65.2619C52.9512 65.4342 52.8158 65.5818 52.6312 65.5818Z" fill="#7A81FD"/>
<path d="M37.1388 79.2915C36.6465 79.2915 36.1666 79.0454 35.8835 78.59L34.8744 76.904C34.6775 76.5717 34.6159 76.1779 34.7021 75.7964C34.8005 75.4149 35.0344 75.0949 35.3666 74.898L47.1319 67.7724C47.1934 67.7355 47.2673 67.7231 47.3288 67.7231L50.6147 68.0677C50.7132 68.08 50.7993 68.1293 50.8485 68.2154C50.8978 68.3016 50.9101 68.4 50.8855 68.4862L49.7902 71.7598C49.7656 71.8336 49.7163 71.8951 49.6548 71.9321L38.8987 78.4547C38.8864 78.467 38.8741 78.467 38.8618 78.467L37.8895 79.0577C37.6557 79.23 37.3973 79.2915 37.1388 79.2915ZM47.3781 68.3877L35.6989 75.4518C35.5143 75.5626 35.3789 75.7472 35.3297 75.9564C35.2805 76.1656 35.3051 76.3871 35.4159 76.5717L36.425 78.2577C36.6588 78.6392 37.1634 78.7623 37.5449 78.5285L38.5418 77.9132C38.5541 77.9008 38.5664 77.9008 38.5787 77.8885L49.2118 71.4521L50.1348 68.6708L47.3781 68.3877Z" fill="#7A81FD"/>
<path d="M38.7387 78.5162C38.6525 78.5162 38.591 78.4916 38.5295 78.4424C38.5049 78.4177 38.4803 78.3931 38.4557 78.3685L36.265 74.7503C36.1789 74.6026 36.2281 74.4057 36.3758 74.3073C36.5235 74.2211 36.7204 74.2704 36.8188 74.418L38.9848 77.9993C39.0341 78.0485 39.0587 78.1224 39.0587 78.1962C39.0587 78.3685 38.911 78.5162 38.7387 78.5162Z" fill="#7A81FD"/>
<path d="M49.491 71.9935C49.3802 71.9935 49.2817 71.9443 49.2202 71.8335L47.0296 68.2153C46.9435 68.0676 46.9804 67.8707 47.1404 67.7723C47.288 67.6861 47.4849 67.723 47.5834 67.883L49.774 71.5012C49.8601 71.6489 49.8109 71.8458 49.6632 71.9443C49.6017 71.9812 49.5525 71.9935 49.491 71.9935Z" fill="#7A81FD"/>
<path d="M37.6285 76.7071C37.5177 76.7071 37.4193 76.6578 37.3577 76.5471C37.2716 76.3994 37.3085 76.2025 37.4685 76.104L48.2369 69.5814C48.3846 69.483 48.5815 69.5322 48.68 69.6922C48.7661 69.8399 48.7292 70.0368 48.5692 70.1353L37.8008 76.6578C37.7516 76.6948 37.69 76.7071 37.6285 76.7071Z" fill="#7A81FD"/>
<path d="M336.346 95.8578C334.881 95.8578 333.688 94.664 333.688 93.1995C333.688 91.735 334.881 90.5413 336.346 90.5413C337.81 90.5413 339.004 91.735 339.004 93.1995C339.004 94.664 337.81 95.8578 336.346 95.8578ZM336.346 91.5135C335.423 91.5135 334.66 92.2642 334.66 93.1995C334.66 94.1225 335.41 94.8855 336.346 94.8855C337.269 94.8855 338.032 94.1348 338.032 93.1995C338.032 92.2765 337.281 91.5135 336.346 91.5135Z" fill="#E6E6E6"/>
<path d="M445.752 131.596C444.287 131.596 443.094 130.403 443.094 128.938C443.094 127.474 444.287 126.28 445.752 126.28C447.216 126.28 448.41 127.474 448.41 128.938C448.41 130.403 447.216 131.596 445.752 131.596ZM445.752 127.252C444.829 127.252 444.066 128.003 444.066 128.938C444.066 129.861 444.817 130.624 445.752 130.624C446.675 130.624 447.438 129.873 447.438 128.938C447.438 128.003 446.675 127.252 445.752 127.252Z" fill="#6842EF"/>
<path d="M417.016 158.388C416.745 158.388 416.523 158.167 416.523 157.896V151.176C416.523 150.906 416.745 150.684 417.016 150.684C417.286 150.684 417.508 150.906 417.508 151.176V157.896C417.508 158.179 417.286 158.388 417.016 158.388Z" fill="#3E3562"/>
<path d="M420.376 155.028H413.656C413.386 155.028 413.164 154.807 413.164 154.536C413.164 154.265 413.386 154.044 413.656 154.044H420.376C420.647 154.044 420.868 154.265 420.868 154.536C420.868 154.807 420.647 155.028 420.376 155.028Z" fill="#3E3562"/>
<path d="M401.969 60.5126C401.698 60.5126 401.477 60.2911 401.477 60.0204V53.3009C401.477 53.0301 401.698 52.8086 401.969 52.8086C402.24 52.8086 402.461 53.0301 402.461 53.3009V60.0204C402.449 60.2911 402.24 60.5126 401.969 60.5126Z" fill="#E6E6E6"/>
<path d="M405.329 57.1408H398.609C398.339 57.1408 398.117 56.9193 398.117 56.6485C398.117 56.3778 398.339 56.1562 398.609 56.1562H405.329C405.6 56.1562 405.821 56.3778 405.821 56.6485C405.821 56.9316 405.6 57.1408 405.329 57.1408Z" fill="#E6E6E6"/>
<path d="M379.692 23.309C379.421 23.309 379.199 23.0875 379.199 22.8167V16.0973C379.199 15.8265 379.421 15.605 379.692 15.605C379.962 15.605 380.184 15.8265 380.184 16.0973V22.8167C380.184 23.0875 379.962 23.309 379.692 23.309Z" fill="#6842EF"/>
<path d="M383.052 19.9494H376.332C376.061 19.9494 375.84 19.7279 375.84 19.4571C375.84 19.1864 376.061 18.9648 376.332 18.9648H383.052C383.322 18.9648 383.544 19.1864 383.544 19.4571C383.544 19.7279 383.322 19.9494 383.052 19.9494Z" fill="#6842EF"/>
<path d="M418.777 133.11H351.496C350.056 133.11 348.875 131.941 348.875 130.489C348.875 129.037 350.044 127.867 351.496 127.867H418.777C420.217 127.867 421.399 129.037 421.399 130.489C421.399 131.941 420.217 133.11 418.777 133.11ZM351.496 128.864C350.586 128.864 349.86 129.603 349.86 130.501C349.86 131.399 350.598 132.138 351.496 132.138H418.777C419.688 132.138 420.414 131.399 420.414 130.501C420.414 129.603 419.676 128.864 418.777 128.864H351.496Z" fill="#E6E6E6"/>
<path d="M448.938 93.1993H424.066C423.475 93.1993 423.008 92.7193 423.008 92.1409C423.008 91.5502 423.488 91.0825 424.066 91.0825H448.938C449.529 91.0825 449.997 91.5625 449.997 92.1409C450.009 92.7316 449.529 93.1993 448.938 93.1993Z" fill="#3E3562"/>
<path d="M393.768 113.813H374.742C374.151 113.813 373.684 113.333 373.684 112.755C373.684 112.164 374.164 111.697 374.742 111.697H393.768C394.359 111.697 394.827 112.176 394.827 112.755C394.827 113.346 394.359 113.813 393.768 113.813Z" fill="#7A81FD"/>
<path d="M384.299 184.318H353.507C352.695 184.318 352.043 183.654 352.043 182.854V162.092C352.043 161.28 352.695 160.628 353.507 160.628H384.299C385.111 160.628 385.764 161.292 385.764 162.092V182.854C385.764 183.666 385.111 184.318 384.299 184.318ZM353.507 161.169C353.003 161.169 352.597 161.575 352.597 162.08V182.841C352.597 183.346 353.003 183.752 353.507 183.752H384.299C384.804 183.752 385.21 183.346 385.21 182.841V162.08C385.21 161.575 384.804 161.169 384.299 161.169H353.507Z" fill="#7A81FD"/>
<path d="M385.493 165.415H352.326C352.178 165.415 352.043 165.292 352.043 165.132C352.043 164.984 352.166 164.849 352.326 164.849H385.493C385.64 164.849 385.776 164.972 385.776 165.132C385.764 165.292 385.64 165.415 385.493 165.415Z" fill="#7A81FD"/>
<path d="M355.477 164.172H353.717C353.569 164.172 353.434 164.049 353.434 163.889V162.129C353.434 161.982 353.557 161.846 353.717 161.846H355.477C355.624 161.846 355.76 161.969 355.76 162.129V163.889C355.76 164.049 355.624 164.172 355.477 164.172ZM354 163.618H355.206V162.412H354V163.618Z" fill="#7A81FD"/>
<path d="M358.886 164.172H357.139C356.991 164.172 356.855 164.049 356.855 163.889V162.129C356.855 161.982 356.979 161.846 357.139 161.846H358.886C359.034 161.846 359.169 161.969 359.169 162.129V163.889C359.169 164.049 359.046 164.172 358.886 164.172ZM357.409 163.618H358.603V162.412H357.409V163.618Z" fill="#7A81FD"/>
<path d="M362.309 164.172H360.549C360.401 164.172 360.266 164.049 360.266 163.889V162.129C360.266 161.982 360.389 161.846 360.549 161.846H362.309C362.456 161.846 362.592 161.969 362.592 162.129V163.889C362.579 164.049 362.456 164.172 362.309 164.172ZM360.832 163.618H362.026V162.412H360.832V163.618Z" fill="#7A81FD"/>
<path d="M364.623 180.491C364.561 180.491 364.499 180.466 364.45 180.429L357.497 174.645C357.435 174.596 357.398 174.51 357.398 174.436C357.398 174.35 357.435 174.276 357.497 174.226L364.081 168.75C364.204 168.652 364.376 168.664 364.475 168.787C364.573 168.91 364.561 169.082 364.438 169.181L358.112 174.436L364.807 180.011C364.93 180.109 364.942 180.281 364.844 180.404C364.782 180.454 364.709 180.491 364.623 180.491Z" fill="#7A81FD"/>
<path d="M373.189 180.491C373.115 180.491 373.029 180.454 372.98 180.392C372.881 180.269 372.894 180.097 373.017 179.998L379.712 174.423L373.386 169.169C373.263 169.07 373.25 168.898 373.349 168.775C373.447 168.652 373.62 168.639 373.743 168.738L380.327 174.214C380.388 174.263 380.425 174.35 380.425 174.423C380.425 174.51 380.388 174.583 380.327 174.633L373.374 180.417C373.312 180.466 373.25 180.491 373.189 180.491Z" fill="#7A81FD"/>
<path d="M365.438 181.734C365.401 181.734 365.352 181.722 365.315 181.709C365.179 181.635 365.118 181.475 365.192 181.34L372.084 167.593C372.157 167.458 372.317 167.396 372.453 167.47C372.588 167.544 372.65 167.704 372.576 167.84L365.684 181.586C365.635 181.685 365.536 181.734 365.438 181.734Z" fill="#7A81FD"/>
<path d="M299.76 39.2739H163.378C158.622 39.2739 155 43.0799 155 47.8343V138.377C155 139.153 155.382 140.274 156.158 140.274H306.967C307.743 140.274 309 139.165 309 138.377V47.8343C309 43.0799 304.516 39.2739 299.76 39.2739ZM305.304 137.811H157.464V47.8343C157.464 44.6318 160.174 42.969 163.378 42.969H299.76C302.963 42.969 305.304 44.6318 305.304 47.8343V137.811Z" fill="#7A81FD"/>
<path d="M297.584 131.274H165.416C164.64 131.274 164 130.646 164 129.858V50.6896C164 49.9141 164.628 49.2739 165.416 49.2739H297.584C298.36 49.2739 299 49.9018 299 50.6896V129.871C299 130.646 298.372 131.274 297.584 131.274Z" fill="#C4C7FF"/>
<path d="M199.926 94.6979H195.696L188.867 82.8225H188.77C188.906 84.9198 188.974 86.4159 188.974 87.3107V94.6979H186V79H190.198L197.016 90.7573H197.092C196.984 88.7173 196.931 87.2749 196.931 86.4302V79H199.926V94.6979Z" fill="white"/>
<path d="M206.24 88.6743C206.24 89.8626 206.433 90.7609 206.82 91.3694C207.213 91.9778 207.85 92.282 208.731 92.282C209.604 92.282 210.231 91.9814 210.61 91.3801C210.996 90.7717 211.19 89.8697 211.19 88.6743C211.19 87.486 210.996 86.5949 210.61 86.0007C210.223 85.4066 209.59 85.1095 208.709 85.1095C207.836 85.1095 207.206 85.4066 206.82 86.0007C206.433 86.5877 206.24 87.4789 206.24 88.6743ZM214.54 88.6743C214.54 90.6285 214.024 92.1568 212.994 93.2591C211.963 94.3615 210.528 94.9127 208.688 94.9127C207.535 94.9127 206.519 94.6621 205.639 94.1611C204.758 93.6528 204.082 92.9263 203.609 91.9814C203.137 91.0365 202.901 89.9342 202.901 88.6743C202.901 86.713 203.412 85.1883 204.436 84.1002C205.46 83.0122 206.898 82.4681 208.752 82.4681C209.905 82.4681 210.921 82.7187 211.802 83.2198C212.682 83.7208 213.359 84.4402 213.831 85.378C214.304 86.3157 214.54 87.4145 214.54 88.6743Z" fill="white"/>
<path d="M236.24 86.6986C236.24 89.2828 235.503 91.262 234.028 92.6364C232.561 94.0108 230.438 94.6979 227.661 94.6979H223.215V79H228.144C230.707 79 232.697 79.6764 234.114 81.0294C235.531 82.3823 236.24 84.272 236.24 86.6986ZM232.782 86.7845C232.782 83.413 231.294 81.7273 228.316 81.7273H226.544V91.9492H227.972C231.179 91.9492 232.782 90.2276 232.782 86.7845Z" fill="white"/>
<path d="M246.859 94.6979L246.226 93.0659H246.14C245.588 93.7602 245.019 94.2434 244.432 94.5154C243.853 94.7803 243.094 94.9127 242.156 94.9127C241.004 94.9127 240.095 94.5834 239.429 93.9249C238.77 93.2663 238.441 92.3286 238.441 91.1117C238.441 89.8375 238.885 88.8998 239.772 88.2985C240.667 87.6901 242.013 87.3536 243.81 87.2892L245.893 87.2248V86.6986C245.893 85.4818 245.27 84.8733 244.024 84.8733C243.065 84.8733 241.938 85.1632 240.642 85.743L239.558 83.5311C240.939 82.8082 242.471 82.4467 244.153 82.4467C245.764 82.4467 246.999 82.7974 247.858 83.4989C248.717 84.2004 249.146 85.267 249.146 86.6986V94.6979H246.859ZM245.893 89.136L244.626 89.179C243.674 89.2076 242.965 89.3794 242.5 89.6944C242.034 90.0093 241.802 90.4889 241.802 91.1332C241.802 92.0566 242.331 92.5183 243.391 92.5183C244.15 92.5183 244.755 92.2999 245.205 91.8633C245.664 91.4266 245.893 90.8468 245.893 90.1238V89.136Z" fill="white"/>
<path d="M257.586 92.3035C258.158 92.3035 258.845 92.1783 259.647 91.9277V94.3651C258.831 94.7302 257.829 94.9127 256.641 94.9127C255.331 94.9127 254.375 94.5834 253.774 93.9249C253.18 93.2591 252.883 92.2641 252.883 90.9399V85.1525H251.315V83.7674L253.119 82.6722L254.064 80.1382H256.158V82.6936H259.518V85.1525H256.158V90.9399C256.158 91.4052 256.286 91.7488 256.544 91.9707C256.809 92.1926 257.156 92.3035 257.586 92.3035Z" fill="white"/>
<path d="M269.708 94.6979L269.075 93.0659H268.989C268.437 93.7602 267.868 94.2434 267.281 94.5154C266.702 94.7803 265.943 94.9127 265.005 94.9127C263.853 94.9127 262.944 94.5834 262.278 93.9249C261.619 93.2663 261.29 92.3286 261.29 91.1117C261.29 89.8375 261.734 88.8998 262.621 88.2985C263.516 87.6901 264.862 87.3536 266.659 87.2892L268.742 87.2248V86.6986C268.742 85.4818 268.119 84.8733 266.873 84.8733C265.914 84.8733 264.787 85.1632 263.491 85.743L262.407 83.5311C263.788 82.8082 265.32 82.4467 267.002 82.4467C268.613 82.4467 269.848 82.7974 270.707 83.4989C271.566 84.2004 271.995 85.267 271.995 86.6986V94.6979H269.708ZM268.742 89.136L267.475 89.179C266.523 89.2076 265.814 89.3794 265.349 89.6944C264.883 90.0093 264.651 90.4889 264.651 91.1332C264.651 92.0566 265.18 92.5183 266.24 92.5183C266.999 92.5183 267.604 92.2999 268.054 91.8633C268.513 91.4266 268.742 90.8468 268.742 90.1238V89.136Z" fill="white"/>
<path d="M306.673 153.994H156.014C150.217 153.994 145.504 150.253 145.504 145.663V138.746C145.504 137.971 146.132 137.331 146.919 137.331H315.768C316.543 137.331 317.183 137.959 317.183 138.746V145.663C317.171 150.253 312.47 153.994 306.673 153.994ZM148.334 140.149V145.663C148.334 148.653 151.854 151.176 156.026 151.176H306.686C310.845 151.176 314.365 148.653 314.365 145.663V140.149H148.334Z" fill="#F2F2F2"/>
<path d="M231.341 150.093C228.904 150.093 226.91 148.099 226.91 145.65C226.91 143.214 228.904 141.22 231.341 141.22C233.79 141.22 235.783 143.214 235.783 145.65C235.771 148.099 233.777 150.093 231.341 150.093ZM231.341 144.051C230.455 144.051 229.728 144.777 229.728 145.663C229.728 146.549 230.455 147.275 231.341 147.275C232.227 147.275 232.953 146.549 232.953 145.663C232.953 144.777 232.227 144.051 231.341 144.051Z" fill="#F2F2F2"/>
<g filter="url(#filter0_d_6579_2708)">
<path d="M184.631 117.627C177.334 109.8 165.027 109.382 157.212 116.68C149.385 123.978 148.966 136.285 156.264 144.099C163.562 151.926 175.869 152.345 183.684 145.047C191.511 137.749 191.929 125.442 184.631 117.627ZM180.299 141.404C174.478 146.831 165.334 146.511 159.907 140.703C154.48 134.882 154.8 125.738 160.609 120.31C166.43 114.883 175.574 115.203 181.001 121.012C186.428 126.833 186.108 135.977 180.299 141.404Z" fill="white"/>
<path d="M186.069 130.866C186.177 122.35 179.361 115.359 170.846 115.251C162.33 115.143 155.339 121.959 155.231 130.474C155.123 138.99 161.938 145.981 170.454 146.089C178.97 146.197 185.961 139.381 186.069 130.866Z" fill="#F2F2F2"/>
<path opacity="0.35" d="M160.697 131.633C161.574 131.633 162.285 130.922 162.285 130.045C162.285 129.169 161.574 128.458 160.697 128.458C159.82 128.458 159.109 129.169 159.109 130.045C159.109 130.922 159.82 131.633 160.697 131.633Z" fill="white"/>
<path d="M183.837 117.812C176.736 110.539 165.081 110.379 157.808 117.48C150.535 124.581 150.375 136.236 157.476 143.509C164.577 150.782 176.231 150.942 183.505 143.841C190.79 136.74 190.938 125.086 183.837 117.812ZM159.617 141.429C153.673 135.325 153.796 125.566 159.9 119.622C166.004 113.677 175.764 113.8 181.708 119.905C187.652 126.009 187.529 135.768 181.425 141.712C175.321 147.656 165.561 147.533 159.617 141.429Z" fill="#7A81FD"/>
<path d="M135.543 164.886C133.808 163.101 133.845 160.246 135.629 158.511L148.933 145.539L155.221 151.988L141.918 164.959C140.146 166.707 137.29 166.67 135.543 164.886Z" fill="#CCCCCC"/>
<path d="M152.773 151.201L149.671 148.026C148.379 146.696 148.404 144.555 149.733 143.263L150.853 142.18C152.182 140.888 154.323 140.912 155.615 142.241L158.717 145.416C160.009 146.746 159.984 148.887 158.655 150.179L157.535 151.262C156.206 152.554 154.065 152.53 152.773 151.201Z" fill="#FFFFFD"/>
</g>
<defs>
<filter id="filter0_d_6579_2708" x="126.266" y="107.47" width="71.5742" height="70.7771" filterUnits="userSpaceOnUse" color-interpolation-filters="sRGB">
<feFlood flood-opacity="0" result="BackgroundImageFix"/>
<feColorMatrix in="SourceAlpha" type="matrix" values="0 0 0 0 0 0 0 0 0 0 0 0 0 0 0 0 0 0 127 0" result="hardAlpha"/>
<feOffset dy="4"/>
<feGaussianBlur stdDeviation="4"/>
<feComposite in2="hardAlpha" operator="out"/>
<feColorMatrix type="matrix" values="0 0 0 0 0 0 0 0 0 0 0 0 0 0 0 0 0 0 0.59 0"/>
<feBlend mode="normal" in2="BackgroundImageFix" result="effect1_dropShadow_6579_2708"/>
<feBlend mode="normal" in="SourceGraphic" in2="effect1_dropShadow_6579_2708" result="shape"/>
</filter>
</defs>
</svg>
