<svg width="218" height="101" viewBox="0 0 218 101" fill="none" xmlns="http://www.w3.org/2000/svg">
<path d="M172.749 22.5854H169.775C166.444 22.5854 163.826 19.9679 163.826 16.6367C163.826 13.3054 166.444 10.688 169.775 10.688H172.749C176.08 10.688 178.698 13.3054 178.698 16.6367C178.698 19.849 176.08 22.5854 172.749 22.5854Z" fill="#F6EFF9"/>
<path d="M153.357 18.8974H127.183C123.852 18.8974 121.234 16.2799 121.234 12.9487C121.234 9.61742 123.852 7 127.183 7H153.357C156.689 7 159.306 9.61742 159.306 12.9487C159.306 16.161 156.689 18.8974 153.357 18.8974Z" fill="#F6EFF9"/>
<path d="M170.37 36.7431H131.228C127.897 36.7431 125.279 34.1257 125.279 30.7944C125.279 27.4631 127.897 24.8457 131.228 24.8457H170.37C173.702 24.8457 176.319 27.4631 176.319 30.7944C176.319 34.1257 173.702 36.7431 170.37 36.7431Z" fill="#F6EFF9"/>
<path d="M144.792 15.9229H129.92V27.8202H144.792V15.9229Z" fill="#F6EFF9"/>
<path d="M211.892 62.4418H208.917C205.586 62.4418 202.969 59.8244 202.969 56.4931C202.969 53.1619 205.586 50.5444 208.917 50.5444H211.892C215.223 50.5444 217.84 53.1619 217.84 56.4931C217.84 59.8244 215.223 62.4418 211.892 62.4418Z" fill="#F6EFF9"/>
<path d="M188.215 58.5155H73.2866C69.9553 58.5155 67.3379 55.8981 67.3379 52.5668C67.3379 49.2356 69.9553 46.6182 73.2866 46.6182H188.215C191.546 46.6182 194.164 49.2356 194.164 52.5668C194.164 55.8981 191.546 58.5155 188.215 58.5155Z" fill="#F6EFF9"/>
<path d="M175.843 77.6708H124.328C120.996 77.6708 118.379 75.0534 118.379 71.7221C118.379 68.3909 120.996 65.7734 124.328 65.7734H175.843C179.174 65.7734 181.792 68.3909 181.792 71.7221C181.792 74.9344 179.055 77.6708 175.843 77.6708Z" fill="#F6EFF9"/>
<path d="M155.973 55.4224H141.102V67.3197H155.973V55.4224Z" fill="#F6EFF9"/>
<path d="M96.8439 81.12H29.1479C25.8166 81.12 23.1992 78.5026 23.1992 75.1713C23.1992 71.8401 25.8166 69.2227 29.1479 69.2227H96.8439C100.175 69.2227 102.793 71.8401 102.793 75.1713C102.793 78.3836 100.056 81.12 96.8439 81.12Z" fill="#F6EFF9"/>
<path d="M106.957 100.513H5.94868C2.61742 100.513 0 97.8952 0 94.5639C0 91.2327 2.61742 88.6152 5.94868 88.6152H106.957C110.289 88.6152 112.906 91.2327 112.906 94.5639C112.906 97.7762 110.17 100.513 106.957 100.513Z" fill="#F6EFF9"/>
<path d="M82.2104 77.6699H40.0938V89.5673H82.2104V77.6699Z" fill="#F6EFF9"/>
<path d="M77.6988 37.2336C77.6988 33.6398 77.6629 30.1539 77.6988 26.6859C77.7527 22.3375 80.6816 18.8156 84.9402 17.9711C85.6051 17.8453 86.2879 17.8273 86.9707 17.8094C95.1465 17.7914 103.304 17.7914 111.48 17.8094C116.296 17.8273 119.854 20.7563 120.626 25.3203C120.734 25.9852 120.734 26.668 120.734 27.3508C120.752 30.5492 120.752 33.7477 120.752 36.9461C120.752 37 120.788 37.0719 120.824 37.1977C121.83 37.3234 122.89 37.4133 123.914 37.6109C129.305 38.6711 133.456 43.4867 133.51 48.9852C133.582 58.2211 133.6 67.457 133.51 76.693C133.456 82.9641 128.335 88.0312 122.064 88.4086C110.833 89.0734 99.6027 89.2711 88.3723 88.9297C83.916 88.7859 79.4418 88.732 75.0395 88.175C69.2535 87.4563 64.977 82.407 64.923 76.5852C64.8512 67.3852 64.8512 58.1852 64.923 48.9852C64.959 43.0734 69.9004 37.9164 75.7762 37.4133C76.3691 37.3773 76.9801 37.3055 77.6988 37.2336ZM108.695 57.8438C109.036 58.0414 109.288 58.2031 109.539 58.3289C114.643 61.0242 119.746 63.7016 124.867 66.3969C125.118 66.5406 125.46 66.6305 125.604 66.8461C125.765 67.0977 125.891 67.5469 125.783 67.7625C125.657 67.9781 125.208 68.1039 124.921 68.1039C124.669 68.1039 124.4 67.8883 124.148 67.7445C118.704 64.8695 113.241 62.0125 107.814 59.1195C107.293 58.85 106.88 58.7961 106.305 59.0656C101.615 61.2938 96.9074 61.2938 92.2176 59.0656C91.6426 58.7961 91.2473 58.832 90.7082 59.1195C85.2637 62.0125 79.8191 64.8695 74.3566 67.7266C73.8176 68.0141 73.1707 68.607 72.6855 67.7625C72.2004 66.918 73.0449 66.6844 73.602 66.3969C74.8777 65.7141 76.1715 65.0313 77.4473 64.3664C81.5262 62.2102 85.6051 60.0719 89.7918 57.8617C89.4145 57.6641 89.1449 57.5023 88.8754 57.3586C86.6832 56.2086 84.491 55.0406 82.2809 53.8906C79.2621 52.2914 76.2254 50.7281 73.2246 49.075C72.9191 48.9133 72.6137 48.2844 72.6855 47.9789C72.8473 47.4039 73.4043 47.4578 73.8895 47.7273C74.141 47.8711 74.4105 47.9969 74.6621 48.1406C75.6504 48.6617 76.6387 49.1648 77.6629 49.7039C77.6629 46.0023 77.6629 42.4625 77.6629 38.8328C77.034 38.8867 76.477 38.9227 75.902 38.9766C70.8887 39.4258 66.5762 43.7742 66.5223 48.8234C66.4145 58.1852 66.4145 67.5469 66.5223 76.9086C66.5762 82.0656 70.9965 86.5219 76.1355 86.8453C80.1965 87.0969 84.2574 87.2945 88.3184 87.4203C99.4949 87.7438 110.654 87.5641 121.812 86.8992C127.544 86.5578 131.929 82.2453 131.982 76.5133C132.054 67.4031 132.018 58.3109 131.982 49.2008C131.964 46.1641 130.707 43.6305 128.479 41.6C126.322 39.6594 123.753 38.8508 120.842 38.9047C120.842 42.5164 120.842 46.0383 120.842 49.7039C122.136 49.0211 123.321 48.4102 124.507 47.7633C125.011 47.4938 125.514 47.35 125.837 47.9609C126.161 48.5898 125.693 48.8953 125.208 49.1469C125.064 49.2188 124.921 49.3086 124.777 49.3805C121.776 50.9617 118.793 52.525 115.793 54.1063C113.439 55.3461 111.103 56.568 108.695 57.8438ZM88.6418 36.9641C88.6777 42.8219 93.4215 47.5297 99.2793 47.5117C105.065 47.4758 109.791 42.7141 109.809 36.9461C109.827 31.0883 104.993 26.3266 99.0996 26.3805C93.2957 26.4164 88.6059 31.1602 88.6418 36.9641Z" fill="#1A0224"/>
<path d="M122.334 35.7604C122.334 33.7479 122.334 31.7174 122.334 29.5791C123.053 29.7588 123.771 29.9205 124.454 30.1002C131.085 31.8971 137.715 33.676 144.346 35.4729C150.653 37.1799 154.39 43.3072 152.773 49.6143C150.599 58.1135 148.335 66.5768 145.981 75.0221C144.364 80.79 138.847 84.3658 133.349 83.5033C133.87 81.8502 134.463 80.1971 134.876 78.49C135.092 77.6275 135.074 76.6932 135.074 75.7947C135.092 67.1697 135.074 58.5447 135.074 49.9197C135.074 42.3189 130.186 36.8025 122.639 35.8502C122.55 35.8502 122.46 35.7963 122.334 35.7604Z" fill="#1A0224"/>
<path d="M106.251 31.3579C109.18 34.4126 108.911 40.0548 105.568 43.3431C102.262 46.6134 96.6379 46.8649 93.6191 43.936C97.8238 39.7493 102.011 35.5806 106.251 31.3579Z" fill="#1A0224"/>
<path d="M92.1819 42.4984C89.3428 39.3359 89.5405 33.9452 92.7389 30.639C96.0092 27.2609 101.292 26.9554 104.832 29.8663C100.609 34.071 96.4045 38.2757 92.1819 42.4984Z" fill="#1A0224"/>
<path d="M135.846 24.0001C134.282 25.3181 133.478 25.5191 132.718 24.7596C131.914 24.0001 132.093 23.2628 133.344 21.7214C132.964 20.9172 132.517 20.2023 132.271 19.4204C132.182 19.1524 132.495 18.6609 132.763 18.3928C133.478 17.6556 134.058 17.812 135.913 19.1524C137.521 17.7897 138.258 17.6333 139.04 18.4152C139.822 19.2194 139.666 19.9343 138.281 21.5427C139.666 23.2852 139.8 23.9107 139.062 24.6926C138.281 25.5191 137.521 25.3404 135.846 24.0001Z" fill="#BB0070"/>
<path d="M106.818 7.24517C105.098 8.58554 104.361 8.74192 103.601 8.00472C102.864 7.26751 103.021 6.57499 104.339 4.85484C102.998 3.09002 102.842 2.46451 103.601 1.70497C104.361 0.945425 105.12 1.1018 106.64 2.33048C107.444 1.9507 108.181 1.52625 108.963 1.28052C109.231 1.19116 109.722 1.50391 109.968 1.77199C110.75 2.55387 110.549 3.29108 109.298 4.67613C109.678 5.52503 110.102 6.28457 110.348 7.0888C110.415 7.35687 110.08 7.826 109.812 8.09407C109.097 8.76426 108.315 8.54086 106.818 7.24517Z" fill="#BB0070"/>
<path d="M70.3802 26.0108C68.8164 27.3958 68.1015 27.5745 67.275 26.815C66.4484 26.0331 66.6271 25.2289 68.0122 23.6205C67.2526 22.6822 65.957 21.7439 67.342 20.3812C68.0792 19.644 68.7271 19.8451 70.4025 21.2078C72.212 19.8227 72.7482 19.6887 73.5524 20.4482C74.3119 21.1854 74.1556 21.945 72.8599 23.5981C74.1556 25.4076 74.2896 26.1225 73.4854 26.8373C72.6812 27.5522 72.1227 27.4182 70.3802 26.0108Z" fill="#BB0070"/>
</svg>
