<svg width="70" height="70" viewBox="0 0 70 70" fill="none" xmlns="http://www.w3.org/2000/svg">
<g clip-path="url(#clip0)">
<path d="M59.8592 6.7605V68.5915C59.8592 69.3689 59.2282 69.9999 58.4507 69.9999H11.5493C10.7718 69.9999 10.1409 69.3689 10.1409 68.5915V6.7605C10.1409 5.98304 10.7718 5.35205 11.5493 5.35205H58.4507C59.2282 5.35205 59.8592 5.98304 59.8592 6.7605Z" fill="#13B4CA"/>
<path d="M12.3944 12.3026V66.749C12.3944 67.2999 12.8409 67.7464 13.3917 67.7464H41.811C42.1845 67.7464 42.5428 67.5979 42.8069 67.3338L53.662 56.4788V11.5492H15.2009L14.9634 9.83496L13.0211 11.131C12.6294 11.3923 12.3944 11.8319 12.3944 12.3026Z" fill="#14818F"/>
<path d="M55.6338 10.9856V54.5067L47.1831 57.6053L44.3662 65.7743H15.7747C14.9968 65.7743 14.3662 65.1438 14.3662 64.3659V10.9856C14.3662 10.2077 14.9968 9.57715 15.7747 9.57715H54.2254C55.0033 9.57715 55.6338 10.2077 55.6338 10.9856Z" fill="#F5F5F5"/>
<path d="M55.6338 54.5068L44.3662 65.7744V55.9153C44.3662 55.1374 44.9968 54.5068 45.7746 54.5068H55.6338Z" fill="#E6E6E6"/>
<path d="M49.1747 9.57715V12.3138C49.1747 14.2546 47.5944 15.8349 45.6535 15.8349H24.3465C22.4056 15.8349 20.8254 14.2546 20.8254 12.3138V9.57715H49.1747Z" fill="#E6E6E6"/>
<path d="M20.8254 5.35205H49.1747V9.5774H20.8254V5.35205Z" fill="#FE9B2A"/>
<path d="M47.0617 5.34913V12.3135C47.0617 13.0914 46.4311 13.7219 45.6532 13.7219H24.3468C23.5689 13.7219 22.9383 13.0914 22.9383 12.3135V5.34913L30.7562 5.34927C30.6523 4.90265 30.6169 4.42969 30.662 3.94209C30.8566 1.83716 32.582 0.156173 34.6908 0.0106802C37.237 -0.164954 39.357 1.84857 39.357 4.35716C39.357 4.69843 39.3177 5.03068 39.2435 5.34927L47.0617 5.34913Z" fill="#FFB721"/>
<path d="M24.21 27.9007C23.9375 27.9007 23.6749 27.7953 23.4779 27.6057L19.9093 24.1745C19.4887 23.7701 19.4756 23.1014 19.88 22.681C20.2844 22.2605 20.9532 22.2474 21.3735 22.6517L24.1466 25.3183L28.4955 20.3815C28.881 19.9439 29.5486 19.9014 29.9865 20.2872C30.4241 20.6728 30.4665 21.3404 30.0808 21.7781L25.0025 27.5428C24.812 27.759 24.5416 27.888 24.2537 27.8998C24.2392 27.9004 24.2245 27.9007 24.21 27.9007Z" fill="#5ED297"/>
<path d="M48.4507 25.0184H33.5211C32.9376 25.0184 32.4648 24.5456 32.4648 23.9621C32.4648 23.3786 32.9376 22.9058 33.5211 22.9058H48.4507C49.0342 22.9058 49.507 23.3786 49.507 23.9621C49.507 24.5456 49.0342 25.0184 48.4507 25.0184Z" fill="#50758D"/>
<path d="M24.21 40.3279C23.9375 40.3279 23.6749 40.2225 23.4779 40.033L19.9093 36.6017C19.4887 36.1973 19.4756 35.5286 19.88 35.1082C20.2844 34.6876 20.9532 34.6745 21.3735 35.0789L24.1483 37.7469L28.5045 32.8214C28.8908 32.3844 29.5585 32.3434 29.9956 32.73C30.4327 33.1165 30.4737 33.7841 30.087 34.2211L25.0013 39.9714C24.8106 40.1869 24.5403 40.3154 24.2527 40.3271C24.2385 40.3276 24.2241 40.3279 24.21 40.3279Z" fill="#5ED297"/>
<path d="M48.4507 37.3944H33.5211C32.9376 37.3944 32.4648 36.9216 32.4648 36.3381C32.4648 35.7546 32.9376 35.2817 33.5211 35.2817H48.4507C49.0342 35.2817 49.507 35.7546 49.507 36.3381C49.507 36.9216 49.0342 37.3944 48.4507 37.3944Z" fill="#50758D"/>
<path d="M48.4507 50.2298H45.9859C45.4024 50.2298 44.9296 49.757 44.9296 49.1735C44.9296 48.59 45.4024 48.1172 45.9859 48.1172H48.4507C49.0342 48.1172 49.5071 48.59 49.5071 49.1735C49.5071 49.757 49.0342 50.2298 48.4507 50.2298Z" fill="#50758D"/>
<path d="M41.0563 50.2298H33.5211C32.9376 50.2298 32.4648 49.757 32.4648 49.1735C32.4648 48.59 32.9376 48.1172 33.5211 48.1172H41.0563C41.6399 48.1172 42.1127 48.59 42.1127 49.1735C42.1127 49.757 41.6399 50.2298 41.0563 50.2298Z" fill="#50758D"/>
<path d="M28.0282 53.469H21.5493C20.9658 53.469 20.493 52.9962 20.493 52.4127V45.9338C20.493 45.3503 20.9658 44.8774 21.5493 44.8774H28.0282C28.6117 44.8774 29.0845 45.3503 29.0845 45.9338V52.4127C29.0845 52.996 28.6117 53.469 28.0282 53.469ZM22.6056 51.3563H26.9718V46.9901H22.6056V51.3563Z" fill="#FD646F"/>
</g>
<defs>
<clipPath id="clip0">
<rect width="70" height="70" fill="white"/>
</clipPath>
</defs>
</svg>
