<svg width="606" height="294" viewBox="0 0 606 294" fill="none" xmlns="http://www.w3.org/2000/svg">
<g clip-path="url(#clip0_3278_1134)">
<path d="M303 287C469.238 287 604 151.342 604 -16C604 -183.342 469.238 -319 303 -319C136.762 -319 2 -183.342 2 -16C2 151.342 136.762 287 303 287Z" fill="#1A0224"/>
<path d="M316.924 50.9409C316.29 51.2415 315.588 51.9429 315.321 52.5106C314.252 54.8151 279.451 173.48 279.451 174.782C279.485 176.152 280.119 177.254 281.288 177.855C281.655 178.055 283.927 178.757 286.298 179.458C290.506 180.66 290.673 180.694 291.875 180.193C292.71 179.859 293.312 179.291 293.646 178.556C294.714 176.285 329.549 57.5538 329.549 56.2179C329.549 54.2808 328.447 53.2454 325.441 52.377C324.138 51.9763 322.368 51.4753 321.533 51.2081C318.861 50.4065 318.093 50.3397 316.924 50.9409Z" fill="white"/>
<path d="M241.978 91.019C226.648 106.382 219.301 113.964 219.134 114.565C219.034 115.099 219.034 115.901 219.134 116.402C219.301 117.036 226.648 124.618 241.978 139.948L264.589 162.592H266.259H267.895L273.473 157.014C279.218 151.236 279.585 150.702 279.051 148.731C278.85 148.03 274.041 142.987 262.685 131.631L246.554 115.5L262.685 99.3686C273.807 88.2469 278.884 82.9699 279.051 82.2686C279.618 80.3315 279.017 79.4631 273.339 73.8188L267.862 68.4082H266.226H264.589L241.978 91.019Z" fill="white"/>
<path d="M335.66 73.8187C329.982 79.4631 329.381 80.3314 329.949 82.2686C330.116 82.9699 335.193 88.2469 346.314 99.3686L362.446 115.5L346.348 131.598C337.497 140.482 330.116 148.097 329.916 148.598C329.248 150.435 329.749 151.203 335.527 157.014L341.104 162.592H342.741H344.411L367.021 139.981C382.351 124.618 389.699 117.036 389.866 116.402C389.966 115.901 389.966 115.099 389.866 114.565C389.699 113.964 382.351 106.382 367.021 91.0189L344.411 68.4082H342.774H341.138L335.66 73.8187Z" fill="white"/>
</g>
<defs>
<clipPath id="clip0_3278_1134">
<rect width="606" height="294" fill="white"/>
</clipPath>
</defs>
</svg>
