<svg width="312" height="135" viewBox="0 0 312 135" fill="none" xmlns="http://www.w3.org/2000/svg">
<path d="M246.522 22.2408H242.277C237.523 22.2408 233.788 18.5056 233.788 13.7517C233.788 8.99787 237.523 5.2627 242.277 5.2627H246.522C251.275 5.2627 255.011 8.99787 255.011 13.7517C255.011 18.3358 251.275 22.2408 246.522 22.2408Z" fill="#E7F9D1"/>
<path d="M218.847 16.9781H181.495C176.742 16.9781 173.006 13.2429 173.006 8.48904C173.006 3.73518 176.742 0 181.495 0H218.847C223.601 0 227.336 3.73518 227.336 8.48904C227.336 13.0731 223.601 16.9781 218.847 16.9781Z" fill="#E7F9D1"/>
<path d="M243.126 42.4449H187.268C182.514 42.4449 178.779 38.7097 178.779 33.9558C178.779 29.202 182.514 25.4668 187.268 25.4668H243.126C247.88 25.4668 251.615 29.202 251.615 33.9558C251.615 38.7097 247.88 42.4449 243.126 42.4449Z" fill="#E7F9D1"/>
<path d="M206.624 12.7334H185.401V29.7115H206.624V12.7334Z" fill="#E7F9D1"/>
<path d="M302.38 79.1177H298.135C293.381 79.1177 289.646 75.3826 289.646 70.6287C289.646 65.8748 293.381 62.1396 298.135 62.1396H302.38C307.134 62.1396 310.869 65.8748 310.869 70.6287C310.869 75.3826 307.134 79.1177 302.38 79.1177Z" fill="#E7F9D1"/>
<path d="M268.593 73.5147H104.584C99.8306 73.5147 96.0954 69.7795 96.0954 65.0257C96.0954 60.2718 99.8306 56.5366 104.584 56.5366H268.593C273.347 56.5366 277.082 60.2718 277.082 65.0257C277.082 69.7795 273.347 73.5147 268.593 73.5147Z" fill="#E7F9D1"/>
<path d="M250.936 100.85H177.421C172.667 100.85 168.932 97.115 168.932 92.3611C168.932 87.6072 172.667 83.8721 177.421 83.8721H250.936C255.69 83.8721 259.425 87.6072 259.425 92.3611C259.425 96.9452 255.52 100.85 250.936 100.85Z" fill="#E7F9D1"/>
<path d="M222.583 69.1006H201.36V86.0787H222.583V69.1006Z" fill="#E7F9D1"/>
<path d="M138.202 105.773H41.5964C36.8425 105.773 33.1074 102.038 33.1074 97.284C33.1074 92.5301 36.8425 88.7949 41.5964 88.7949H138.202C142.956 88.7949 146.691 92.5301 146.691 97.284C146.691 101.868 142.786 105.773 138.202 105.773Z" fill="#E7F9D1"/>
<path d="M152.633 133.447H8.48904C3.73518 133.447 0 129.712 0 124.958C0 120.204 3.73518 116.469 8.48904 116.469H152.633C157.387 116.469 161.122 120.204 161.122 124.958C161.122 129.542 157.217 133.447 152.633 133.447Z" fill="#E7F9D1"/>
<path d="M117.318 100.849H57.2151V117.827H117.318V100.849Z" fill="#E7F9D1"/>
<path fill-rule="evenodd" clip-rule="evenodd" d="M224.618 110.187C221.712 110.187 219.355 112.543 219.355 115.45C219.355 118.357 221.712 120.713 224.618 120.713C227.525 120.713 229.882 118.357 229.882 115.45C229.882 112.543 227.525 110.187 224.618 110.187ZM217.657 115.45C217.657 111.606 220.774 108.489 224.618 108.489C228.463 108.489 231.579 111.606 231.579 115.45C231.579 119.295 228.463 122.411 224.618 122.411C220.774 122.411 217.657 119.295 217.657 115.45Z" fill="#739E4E"/>
<path fill-rule="evenodd" clip-rule="evenodd" d="M115.279 23.4288C111.81 23.4288 108.997 26.2413 108.997 29.7107C108.997 33.18 111.81 35.9925 115.279 35.9925C118.748 35.9925 121.561 33.18 121.561 29.7107C121.561 26.2413 118.748 23.4288 115.279 23.4288ZM107.299 29.7107C107.299 25.3036 110.872 21.731 115.279 21.731C119.686 21.731 123.259 25.3036 123.259 29.7107C123.259 34.1177 119.686 37.6903 115.279 37.6903C110.872 37.6903 107.299 34.1177 107.299 29.7107Z" fill="#739E4E"/>
<path d="M153.82 132.937C177.637 132.937 196.945 113.63 196.945 89.8128C196.945 65.9959 177.637 46.6885 153.82 46.6885C130.003 46.6885 110.696 65.9959 110.696 89.8128C110.696 113.63 130.003 132.937 153.82 132.937Z" fill="#E4FBCC"/>
<path d="M153.821 134.635C129.033 134.635 108.999 114.6 108.999 89.8124C108.999 65.0244 129.033 44.9902 153.821 44.9902C178.609 44.9902 198.643 65.0244 198.643 89.8124C198.643 114.6 178.609 134.635 153.821 134.635ZM153.821 48.3859C130.901 48.3859 112.395 66.892 112.395 89.8124C112.395 112.733 130.901 131.239 153.821 131.239C176.742 131.239 195.248 112.733 195.248 89.8124C195.248 66.892 176.742 48.3859 153.821 48.3859Z" fill="#60A61C"/>
<path d="M307.3 45.6704V50.0847H311.545V51.9523H307.3V56.5364H305.263V52.1221H301.018V50.2545H305.263V45.8402H307.3V45.6704Z" fill="#739E4E"/>
<path fill-rule="evenodd" clip-rule="evenodd" d="M172.026 76.9883C173.336 78.2917 173.336 80.4049 172.026 81.7082L150.788 102.828C149.478 104.131 147.353 104.131 146.043 102.829L135.42 92.2687C134.109 90.9655 134.108 88.8523 135.419 87.5487C136.729 86.245 138.854 86.2446 140.165 87.5477L148.415 95.7486L167.279 76.9883C168.59 75.6849 170.715 75.6849 172.026 76.9883Z" fill="#60A61C"/>
<path fill-rule="evenodd" clip-rule="evenodd" d="M149.415 96.7541C148.862 97.3042 147.968 97.3043 147.415 96.7544L139.165 88.5534C138.407 87.8003 137.176 87.8006 136.419 88.554C135.666 89.3031 135.666 90.5141 136.419 91.2629L147.042 101.823C147.8 102.576 149.031 102.576 149.788 101.823L171.026 80.7027C171.779 79.9538 171.779 78.7428 171.026 77.9938C170.268 77.2405 169.037 77.2405 168.279 77.9938L149.415 96.7541ZM172.026 81.7082C173.336 80.4049 173.336 78.2917 172.026 76.9883C170.715 75.6849 168.59 75.6849 167.279 76.9883L148.415 95.7486L140.165 87.5477C138.854 86.2446 136.729 86.245 135.419 87.5487C134.108 88.8523 134.109 90.9655 135.42 92.2687L146.043 102.829C147.353 104.131 149.478 104.131 150.788 102.828L172.026 81.7082Z" fill="#E4FBCC"/>
</svg>
