<svg width="100%" height="164" viewBox="0 0 1078 164" fill="none" xmlns="http://www.w3.org/2000/svg">
<mask id="mask0_6080_3638" style="mask-type:alpha" maskUnits="userSpaceOnUse" x="0" y="0" width="1078" height="164">
<path d="M0 19C0 8.50659 8.50659 0 19 0H1059C1069.49 0 1078 8.50659 1078 19V164H0V19Z" fill="#FBF5FE"/>
</mask>
<g mask="url(#mask0_6080_3638)">
<path d="M269.883 275.151C228.56 235.545 215.615 212.423 251.071 170.313C268.544 149.564 227.002 129.106 254.376 113.424C277.018 100.465 301.917 117.938 330.631 78.1283C376.439 14.643 434.523 72.8281 494.12 44.2015C585.009 0.548141 686.28 34.8972 751.629 87.3598C764.296 97.5379 788.031 96.5768 806.712 100.785C862.611 114.894 858.534 140.201 847.424 176.37C842.561 192.212 856.918 197.396 863.674 205.463C884.452 231.25 862.422 255.843 840.377 277.655C840.362 277.655 269.883 275.151 269.883 275.151Z" fill="#EBD9F5"/>
<path d="M585.185 9.35785L585.622 39.8046C585.636 40.9694 584.719 41.9159 583.554 41.9304L530.655 42.7022C529.49 42.7167 528.543 41.7994 528.529 40.6345L528.092 10.1878C528.077 9.02295 528.995 8.07649 530.16 8.06193L583.059 7.29021C584.224 7.27565 585.17 8.20754 585.185 9.35785Z" fill="#ADC804"/>
<path d="M585.185 9.35648L585.214 11.0455L561.363 28.7078C559.048 30.4988 555.845 30.5716 553.442 28.8971L528.107 11.162L528.092 10.201C528.077 9.03614 528.995 8.08968 530.16 8.07512L583.059 7.3034C584.209 7.27428 585.17 8.20617 585.185 9.35648Z" fill="#D1E653"/>
<path d="M651.477 106.043L652.088 101.995C652.088 101.995 649.249 101.558 649.409 99.5636L652.394 99.5344C652.394 99.5344 653.996 98.0638 652.161 93.5936C651.739 89.3855 654.505 91.4968 654.884 90.1718C655.437 88.2061 658.961 92.1375 659.063 96.3019C659.208 101.689 656.34 106.043 656.34 106.043H651.477Z" fill="#F37A50"/>
<path d="M575.358 147.977L572.665 145.531C572.665 145.531 572.839 140.522 569.913 140.872C569.126 140.959 571.354 143.726 569.738 143.886C569.403 143.915 568.296 142.75 566.768 140.872C565.632 138.688 563.331 138.673 562.326 139.081C560.434 139.852 560.201 143.595 563.098 146.58C566.84 150.438 571.966 151.443 571.966 151.443L575.358 147.977Z" fill="#F37A50"/>
<path d="M624.542 131.043C624.542 131.043 624.906 131.32 645.044 127.854H645.059L652.179 133.926C652.194 133.941 652.194 133.941 652.179 133.955C646.864 139.824 623.975 143.42 623.975 143.42L624.542 131.043Z" fill="#462682"/>
<path d="M615.98 126.63L608.903 125.479L601.885 126.95L609.121 135.454L615.98 126.63Z" fill="#607EDB"/>
<path d="M613.388 130.765C610.592 132.95 607.622 133.881 604.549 131.668L604.127 120.777L613.359 120.66L613.388 130.765Z" fill="#F37A50"/>
<path d="M599.804 130.635L601.974 129.936L601.886 126.937L607.42 132.033L609.05 132.411L610.667 131.96L615.967 126.616L616.025 129.616L617.86 130.111L625.635 131.174V165.77L628.533 181.773C619.418 184.146 605.847 184.263 596.149 182.268L597.751 167.692L594.373 132.644L599.804 130.635Z" fill="#462682"/>
<path d="M608.727 136.271C608.727 136.271 609.703 157.427 611.29 168.261C610.78 168.887 608.45 171.682 608.45 171.682C608.45 171.682 605.64 169.018 604.868 168.537C603.136 149.448 606.266 136.372 606.266 136.372L608.727 136.271Z" fill="#BB0070"/>
<path d="M610.503 132.586L607.518 131.814L605.334 132.688L606.266 136.372L608.916 136.357L610.503 132.586Z" fill="#890554"/>
<path d="M607.52 131.814C607.52 131.814 609.922 135.003 612.106 136.255L617.727 130.3L615.994 126.616L607.52 131.814Z" fill="white"/>
<path d="M607.521 131.815C607.521 131.815 605.614 134.582 603.139 136.402L598.756 130.913L601.872 126.938L607.521 131.815Z" fill="white"/>
<path d="M657.071 105.416C653.868 104.674 652.193 104.368 649.776 104.601C645.685 122.147 642.234 128.947 644.389 133.664C646.194 137.596 650.635 136.853 652.528 133.592C655.047 129.296 656.139 113.76 657.071 105.416Z" fill="#462682"/>
<path d="M594.693 132.615C589.917 132.79 584.325 155.155 584.325 155.155L575.006 145.21L569.721 152.549C569.721 152.549 583.422 169.454 588.679 167.882C593.586 166.411 596.09 148.763 596.09 148.763L594.693 132.615Z" fill="#462682"/>
<path d="M616.224 120.284C620.767 120.822 623.141 115.027 623.141 115.027C625.922 114.561 625.456 111.795 625.456 111.795C626.781 111.387 628.543 109.975 627.975 107.456C627.494 105.315 625.398 105.417 625.136 102.927C624.917 100.918 626.359 96.0108 619.952 95.6323C619.952 95.6323 619.792 91.9047 615.948 91.0165C611.23 89.9244 610.065 92.7638 608.012 93.2734C605.711 93.8413 600.746 91.7154 600.091 97.0592C600.091 97.0592 596.8 97.132 595.286 99.5346C593.873 101.762 594.703 104.616 595.65 105.665C595.65 105.665 593.014 106.567 592.403 109.072C591.995 110.746 592.65 112.916 594.325 113.964C595.388 114.634 596.392 114.692 596.392 114.692C597.47 114.867 597.543 117.75 598.489 118.318C600.018 119.221 601.678 119.847 603.352 120.342L616.224 120.284Z" fill="#2C2858"/>
<path d="M598.766 109.188C598.242 117.022 602.537 123.69 608.376 124.084C614.2 124.477 619.355 118.434 619.879 110.6C620.403 102.766 615.744 97.6993 609.92 97.3207C604.081 96.913 599.29 101.354 598.766 109.188Z" fill="#F37A50"/>
<path d="M613.561 113.206C614.187 113.25 614.711 112.784 614.755 112.158C614.799 111.532 614.333 111.007 613.707 110.964C613.08 110.92 612.556 111.386 612.513 112.012C612.469 112.638 612.935 113.177 613.561 113.206Z" fill="black"/>
<path d="M604.62 112.61C605.246 112.654 605.77 112.188 605.814 111.562C605.857 110.936 605.391 110.412 604.765 110.368C604.139 110.324 603.615 110.79 603.571 111.416C603.528 112.043 603.993 112.581 604.62 112.61Z" fill="black"/>
<path d="M602.786 110.355C602.975 110.369 603.15 110.282 603.266 110.122C603.572 109.67 603.922 109.408 604.315 109.35C604.985 109.248 605.625 109.728 605.625 109.743C605.858 109.932 606.193 109.889 606.382 109.656C606.572 109.423 606.528 109.088 606.295 108.898C606.251 108.869 605.305 108.112 604.155 108.287C603.456 108.389 602.844 108.797 602.364 109.51C602.189 109.758 602.262 110.092 602.509 110.267C602.597 110.311 602.684 110.34 602.786 110.355Z" fill="#2C2858"/>
<path d="M615.819 111.285C615.935 111.299 616.052 111.256 616.168 111.183C616.416 111.008 616.474 110.673 616.299 110.426C615.644 109.494 614.901 108.955 614.071 108.839C612.994 108.679 612.208 109.305 612.178 109.319C611.946 109.508 611.902 109.843 612.091 110.076C612.28 110.309 612.615 110.353 612.848 110.164C612.863 110.149 613.329 109.814 613.926 109.902C614.45 109.989 614.945 110.368 615.411 111.037C615.513 111.183 615.673 111.27 615.819 111.285Z" fill="#2C2858"/>
<path d="M607.982 113.191C606.468 114.138 605.988 114.546 605.391 114.851C605.696 116.176 607.677 116.948 608.274 116.846C606.905 116.06 606.774 115.099 606.774 115.099L607.982 113.191Z" fill="#DE623C"/>
<path d="M617.986 111.881C616.894 113.512 616.996 115.478 618.19 116.279C619.398 117.08 621.247 116.424 622.339 114.794C623.432 113.163 623.33 111.197 622.136 110.396C620.942 109.595 619.078 110.265 617.986 111.881Z" fill="#F37A50"/>
<path d="M619.063 114.969C619.107 114.969 619.151 114.969 619.209 114.954C619.398 114.896 619.5 114.678 619.427 114.503C619.209 113.877 619.238 113.396 619.5 113.047C619.908 112.523 620.825 112.406 621.466 112.479C621.67 112.494 621.844 112.348 621.859 112.159C621.873 111.97 621.728 111.78 621.538 111.766C620.665 111.678 619.529 111.853 618.932 112.61C618.641 112.989 618.364 113.659 618.743 114.751C618.801 114.867 618.918 114.954 619.063 114.969Z" fill="#DE623C"/>
<path d="M612.38 118.652C612.554 118.404 612.35 118.055 612.045 118.098C611.258 118.215 609.963 118.361 608.725 118.39C607.487 118.419 606.191 118.317 605.405 118.244C605.099 118.215 604.91 118.564 605.099 118.812C605.682 119.569 606.89 120.705 608.783 120.661C610.691 120.632 611.841 119.438 612.38 118.652Z" fill="white"/>
<path d="M623.576 105.01L611.112 94.5557L596.988 101.414L598.517 111.534C598.969 106.889 601.793 108.447 603.293 107.107C604.822 105.753 605.506 103.613 608.986 105.593C608.986 105.593 611.884 103.685 613.296 106.481C614.388 108.651 615.932 108.257 617.461 108.403C619.266 108.578 618.8 110.325 619.907 110.281L623.576 105.01Z" fill="#2C2858"/>
<path d="M545.52 103.187C544.282 104.046 542.535 104.527 542.258 105.968L538.473 104.745C538.545 99.9547 542.943 95.6738 543.438 95.3098C544.734 94.3633 545.273 93.8391 545.491 93.9556C545.709 94.0721 546.772 95.0914 544.938 96.5183C542.637 98.3093 545.476 99.2995 549.379 94.3779C550.354 93.1402 553.092 92.3248 552.801 93.7663C552.466 95.368 551.141 99.314 545.52 103.187Z" fill="#F37A50"/>
<path d="M510.021 131.319C510.021 131.319 510.779 130.984 529.897 126.368H529.912C529.912 126.368 537.148 131.756 537.148 131.77C532.431 137.755 511.594 144.147 511.594 144.147L510.021 131.319Z" fill="#201D40"/>
<path d="M501.257 131.086L494.384 130.445L487.744 132.309L495.228 140.012L501.257 131.086Z" fill="#95A6DB"/>
<path d="M498.867 134.624C496.072 136.925 492.926 137.347 489.548 135.439L488.66 126.295L498.343 125.538L498.867 134.624Z" fill="#F37A50"/>
<path d="M485.982 135.978L488.02 135.178L487.744 132.309L493.393 136.837L494.995 137.085L496.524 136.546L501.271 131.086L501.518 133.969L503.309 134.333L509.789 135.381L510.56 171.332L513.109 183.563C504.518 186.417 494.908 187.131 485.458 185.835L485.778 173.56L479.051 138.41L485.982 135.978Z" fill="#95A6DB"/>
<path d="M496.217 140.725L500.279 168.172L498.022 171.288L495.096 169.045L494.105 140.943L496.217 140.725Z" fill="#2C2858"/>
<path d="M496.466 137.477L494.981 137.084L493.467 137.754L494.107 141.001L496.233 140.812L496.466 137.477Z" fill="#2C2858"/>
<path d="M501.254 131.086L502.361 164.474L506.743 185.82C506.743 185.82 515.174 186.301 519.426 182.253L514.097 164.94L510.005 131.319L501.254 131.086Z" fill="#2C2858"/>
<path d="M501.254 131.086L502.361 164.037L507.413 138.963L501.254 131.086Z" fill="#494C7F"/>
<path d="M487.219 133.445L496.13 187.189C496.13 187.189 482.108 188.529 477.143 185.995L480.361 169.789L478.671 137.755L487.219 133.445Z" fill="#2C2858"/>
<path d="M487.219 133.445L492.49 164.94L483.055 141.177L487.219 133.445Z" fill="#494C7F"/>
<path d="M544.062 105.253C541.062 104.248 539.475 103.797 537.146 103.797C531.627 120.236 527.696 126.424 529.341 131.142C530.71 135.074 535.034 134.768 537.146 131.812C539.941 127.924 542.417 113.159 544.062 105.253Z" fill="#201D40"/>
<path d="M478.762 137.755C474.189 138.235 461.041 164.94 461.041 164.94L463.662 194.892L471.073 193.698L473.272 168.391L480.523 154.063L478.762 137.755Z" fill="#201D40"/>
<path d="M484.044 119.932C486.737 126.644 493.188 130.386 498.473 128.275C503.744 126.164 505.856 119 503.162 112.287C500.468 105.575 494.018 101.832 488.732 103.944C483.447 106.055 481.35 113.204 484.044 119.932Z" fill="#F37A50"/>
<path d="M500.859 114.484C501.165 114.936 501.791 115.038 502.228 114.732C502.679 114.426 502.781 113.8 502.476 113.363C502.17 112.912 501.544 112.81 501.107 113.116C500.655 113.421 500.539 114.033 500.859 114.484Z" fill="black"/>
<path d="M493.449 117.513C493.784 117.993 494.454 118.124 494.934 117.775C495.415 117.44 495.546 116.77 495.196 116.29C494.861 115.809 494.191 115.678 493.711 116.028C493.23 116.362 493.114 117.018 493.449 117.513Z" fill="black"/>
<path d="M499.172 115.825C500.511 116.874 502.186 118.155 502.186 118.155C502.186 118.155 502.201 119.771 500.322 120.47C501.007 119.859 501.604 119.029 500.89 118.082C500.177 117.121 499.172 115.825 499.172 115.825Z" fill="#DE623C"/>
<path d="M491.516 116.859C491.734 116.859 491.938 116.713 491.996 116.48C492.011 116.422 492.346 115.141 493.438 115.141C493.715 115.141 493.933 114.922 493.933 114.645C493.933 114.369 493.715 114.15 493.438 114.15C491.938 114.15 491.21 115.534 491.035 116.247C490.977 116.509 491.137 116.771 491.399 116.844C491.429 116.859 491.472 116.859 491.516 116.859Z" fill="#2C2858"/>
<path d="M499.827 112.401C499.973 112.401 500.104 112.328 500.177 112.197C500.191 112.182 500.454 111.76 500.89 111.687C501.196 111.629 501.546 111.76 501.939 112.066C502.113 112.212 502.376 112.182 502.521 112.008C502.667 111.833 502.638 111.571 502.463 111.425C501.881 110.959 501.313 110.785 500.745 110.886C499.929 111.032 499.493 111.76 499.478 111.789C499.361 111.979 499.434 112.241 499.624 112.357C499.682 112.372 499.755 112.401 499.827 112.401Z" fill="#2C2858"/>
<path d="M485.631 119.464C485.631 116.843 487.917 117.397 488.165 113.931C488.412 110.466 488.732 107.845 492.023 108.413C495.314 108.981 496.362 108.544 497.425 107.423C498.488 106.301 502.609 111.063 502.609 111.063C502.609 111.063 506.162 105.966 502.667 103.185C498.794 100.098 498.037 102.603 494.499 100.448C490.96 98.2784 485.893 99.749 484.859 101.904C483.767 104.176 483.578 105.806 480.506 107.393C477.433 108.995 475.89 111.645 478.758 114.921C481.627 118.212 476.909 120.6 481.729 123.629C483.593 124.808 486.228 125.099 486.738 124.43C487.422 123.512 485.631 121.153 485.631 119.464Z" fill="#2C2858"/>
<path d="M504.051 115.431C504.051 115.431 504.356 119.318 503.803 120.527C503.221 118.969 501.969 120.614 500.789 120.774C497.935 121.153 492.81 120.207 492.3 124.473C488.82 125.58 485.558 118.124 485.558 118.124C485.122 126.817 491.441 131.171 500.207 129.788C505.973 128.885 506.511 120.847 504.051 115.431Z" fill="#2C2858"/>
<path d="M502.435 123.017C502.581 122.784 502.377 122.478 502.1 122.537C501.416 122.682 500.266 122.901 499.159 123.002C498.052 123.104 496.888 123.09 496.189 123.075C495.912 123.061 495.766 123.396 495.941 123.599C496.509 124.24 497.645 125.187 499.334 125.026C501.037 124.866 501.998 123.745 502.435 123.017Z" fill="white"/>
<path d="M485.778 118.562C487.365 119.32 488.151 120.98 487.54 122.29C486.914 123.586 485.137 124.037 483.536 123.28C481.949 122.523 481.162 120.848 481.774 119.553C482.385 118.242 484.176 117.805 485.778 118.562Z" fill="#F37A50"/>
<path d="M485.792 122.333C485.836 122.304 485.879 122.246 485.894 122.188C486.258 121.387 486.142 120.586 485.574 120.076C484.991 119.552 484.088 119.45 483.433 119.829C483.244 119.931 483.186 120.178 483.302 120.353C483.404 120.542 483.652 120.601 483.826 120.484C484.176 120.266 484.715 120.339 485.049 120.644C485.37 120.936 485.413 121.358 485.195 121.867C485.108 122.057 485.195 122.29 485.384 122.377C485.53 122.45 485.676 122.421 485.792 122.333Z" fill="#DE623C"/>
<path d="M494.98 137.085C494.98 137.085 493.524 139.59 490.728 141.148L486.738 134.479L487.743 132.295L494.98 137.085Z" fill="white"/>
<path d="M494.979 137.085C494.979 137.085 497.541 139.662 499.886 140.332L502.696 132.935L501.254 131.101L494.979 137.085Z" fill="white"/>
<path d="M756.943 35.1021L754.337 42.5718L713.115 30.4863L756.943 35.1021Z" fill="#ADC804"/>
<path d="M750.39 50.5367L743.037 53.7838L714.979 30.9961L750.39 50.5367Z" fill="#ADC804"/>
<path d="M713.115 30.4863L766.83 63.8306L759.331 43.2125L713.115 30.4863Z" fill="#D1E846"/>
<path d="M756.943 35.1021L713.115 30.4863L752.939 21.5605L756.943 35.1021Z" fill="#D1E846"/>
<path d="M416.35 141.482C421.199 139.793 431.493 134.595 426.615 127.576C421.737 120.558 419.67 123.499 421.534 115.068C423.412 106.638 417.471 99.9252 411.72 101.541C405.968 103.158 404.454 107.773 397.45 106.536C390.446 105.284 384.534 111.792 387.112 117.515C389.689 123.237 390.796 125.989 388.291 129.12C385.787 132.25 374.604 135.512 379.176 143.127C383.734 150.728 385.874 150.291 384.214 154.15C382.554 158.008 386.238 162.449 392.689 161.925C399.154 161.401 405.022 159.013 407.468 151.835C409.943 144.627 416.35 141.482 416.35 141.482Z" fill="#2C2858"/>
<path d="M402.922 132.237V144.905C402.922 144.905 407.145 147.162 410.799 144.905C410.231 142.095 409.897 133.126 409.897 133.126L402.922 132.237Z" fill="#F37A50"/>
<path d="M395.382 139.066H416.393C416.393 139.066 420.164 147.541 419.655 154.792C419.145 162.043 418.228 181.773 418.228 181.773C418.228 181.773 405.341 178.847 397.114 176.313C396.459 161.432 392.047 154.647 392.353 149.812C392.644 144.978 395.382 139.066 395.382 139.066Z" fill="#F595AD"/>
<path d="M406.665 133.998C411.941 133.998 416.217 128.248 416.217 121.155C416.217 114.062 411.941 108.312 406.665 108.312C401.39 108.312 397.113 114.062 397.113 121.155C397.113 128.248 401.39 133.998 406.665 133.998Z" fill="#F37A50"/>
<path d="M396.473 121.156C401.744 120.486 406.651 117.545 409.418 113.744C411.209 118.186 416.218 121.156 416.218 121.156C416.218 121.156 419.974 112.667 413.145 108.08C406.637 103.712 391.1 106.697 396.473 121.156Z" fill="#2C2858"/>
<path d="M402.648 123.894C402.08 123.894 401.629 123.443 401.629 122.875C401.629 122.307 402.08 121.855 402.648 121.855C403.216 121.855 403.667 122.307 403.667 122.875C403.653 123.443 403.201 123.894 402.648 123.894Z" fill="black"/>
<path d="M410.728 123.894C410.16 123.894 409.709 123.443 409.709 122.875C409.709 122.307 410.16 121.855 410.728 121.855C411.296 121.855 411.748 122.307 411.748 122.875C411.748 123.443 411.296 123.894 410.728 123.894Z" fill="black"/>
<path d="M412.522 121.956C412.361 121.956 412.187 121.869 412.099 121.723C411.852 121.301 411.546 121.054 411.197 120.966C410.6 120.835 410.003 121.228 409.988 121.243C409.77 121.388 409.464 121.345 409.304 121.112C409.158 120.893 409.202 120.588 409.42 120.442C409.464 120.413 410.367 119.801 411.386 120.02C412.012 120.151 412.536 120.558 412.929 121.228C413.06 121.461 412.987 121.752 412.755 121.898C412.696 121.942 412.609 121.956 412.522 121.956Z" fill="#2C2858"/>
<path d="M400.708 122.017C400.606 122.017 400.49 121.988 400.402 121.915C400.199 121.74 400.155 121.435 400.33 121.231C400.97 120.43 401.684 119.993 402.441 119.935C403.417 119.862 404.086 120.459 404.115 120.488C404.319 120.663 404.334 120.983 404.145 121.173C403.97 121.376 403.664 121.391 403.46 121.202C403.446 121.187 403.052 120.852 402.499 120.896C402.019 120.94 401.553 121.245 401.087 121.828C400.999 121.944 400.854 122.017 400.708 122.017Z" fill="#2C2858"/>
<path d="M407.67 124.214C408.98 125.16 409.388 125.553 409.898 125.859C409.548 127.039 407.714 127.621 407.189 127.475C408.471 126.849 408.646 125.99 408.646 125.99L407.67 124.214Z" fill="#DE623C"/>
<path d="M398.526 122.147C399.618 123.53 399.676 125.321 398.642 126.122C397.608 126.937 395.89 126.471 394.798 125.074C393.706 123.69 393.648 121.899 394.682 121.098C395.716 120.283 397.434 120.749 398.526 122.147Z" fill="#F37A50"/>
<path d="M397.566 125.131C397.522 125.131 397.479 125.116 397.435 125.101C397.275 125.029 397.187 124.839 397.26 124.679C397.493 124.126 397.493 123.689 397.275 123.369C396.925 122.874 396.124 122.713 395.542 122.743C395.367 122.743 395.207 122.612 395.207 122.422C395.207 122.248 395.338 122.087 395.527 122.087C396.314 122.058 397.333 122.291 397.828 123.005C398.076 123.354 398.279 123.98 397.872 124.941C397.813 125.058 397.697 125.131 397.566 125.131Z" fill="#DE623C"/>
<path d="M404.131 129.208C404 128.99 404.189 128.713 404.436 128.757C405.092 128.888 406.155 129.091 407.188 129.193C408.222 129.281 409.314 129.281 409.984 129.252C410.246 129.237 410.392 129.557 410.217 129.747C409.678 130.344 408.615 131.232 407.028 131.086C405.441 130.955 404.538 129.892 404.131 129.208Z" fill="white"/>
<path d="M402.765 138.964L397.654 138.629C397.654 138.629 391.029 124.636 388.481 120.122C386.748 112.856 389.209 93.694 389.209 93.694L381.506 91.8594C381.506 91.8594 377.983 115.244 379.177 121.84C379.497 123.587 389.093 144.06 389.093 144.06C389.093 144.06 392.34 149.812 387.899 178.642C394.16 180.2 398.528 180.287 398.528 180.287L402.765 138.964Z" fill="#840F55"/>
<path d="M410.205 138.964L414.326 180.288C414.326 180.288 416.204 180.928 423.237 178.832C419.83 161.606 420.82 151.05 421.3 147.73C421.402 147.045 421.621 146.39 421.941 145.779C423.412 142.998 428.29 133.504 432.774 121.142C432.498 115.39 428.333 91.8453 428.333 91.8453L421.053 91.4521L423.281 119.132C423.281 119.132 415.491 136.139 414.559 138.95C411.414 139.197 410.205 138.964 410.205 138.964Z" fill="#840F55"/>
<path d="M304.104 136.649C310.685 138.295 321.941 153.671 322.989 165.203C319.378 165.946 315.257 163.077 315.257 163.077L306.317 150.22L304.104 136.649Z" fill="#DE623C"/>
<path d="M297.825 103.379C294.796 98.4138 286.89 95.9239 284.05 101.472C281.196 107.019 280.425 111.053 273.377 107.98C267.757 105.534 260.229 109 257.812 117.226C254.71 127.754 263.214 125.803 259.996 130.506C256.778 135.209 254.128 140.16 261.612 142.548C269.082 144.936 276.784 140.349 278.415 131.54C280.046 122.73 284.603 127.477 287.443 123.721C291.476 118.362 297.825 103.379 297.825 103.379Z" fill="#201D40"/>
<path d="M286.688 116.936C284.984 124.07 288.144 130.958 293.75 132.283C299.356 133.622 305.282 128.919 306.986 121.77C308.689 114.635 305.53 107.748 299.924 106.423C294.318 105.098 288.392 109.801 286.688 116.936Z" fill="#F37A50"/>
<path d="M280.541 134.962C277.367 137.044 263.985 154.459 271.353 168.801C271.688 168.991 277.6 158.987 277.6 158.987L284.574 145.184L280.541 134.962Z" fill="#F37A50"/>
<path d="M287.254 125.905L295.641 130.667C295.641 130.667 296.384 134.059 296.762 135.166C297.534 137.437 294.593 138.428 292.103 137.015C289.627 135.603 288.011 133.71 288.011 133.71L287.254 125.905Z" fill="#F37A50"/>
<path d="M307.813 119.54C305.906 118.914 305.018 115.988 304.217 113.745C300.227 121.783 285.492 120.633 284.866 119.045C283.57 109.683 287.661 102.883 297.737 103.189C311.556 103.611 307.813 119.54 307.813 119.54Z" fill="#2C2858"/>
<path d="M303.955 123.037C304.129 123.561 304.712 123.838 305.236 123.663C305.76 123.488 306.037 122.906 305.862 122.382C305.687 121.857 305.105 121.581 304.581 121.755C304.057 121.945 303.78 122.513 303.955 123.037Z" fill="black"/>
<path d="M296.718 120.983C296.907 121.551 297.533 121.856 298.101 121.653C298.669 121.463 298.975 120.837 298.771 120.269C298.581 119.701 297.955 119.396 297.387 119.599C296.82 119.803 296.514 120.415 296.718 120.983Z" fill="black"/>
<path d="M306.691 121.07C306.735 121.056 306.764 121.041 306.808 121.027C306.982 120.925 307.055 120.692 306.939 120.517C306.123 119.119 304.638 119.192 304.565 119.192C304.361 119.207 304.201 119.381 304.216 119.6C304.23 119.804 304.405 119.964 304.609 119.949C304.653 119.949 305.701 119.906 306.269 120.896C306.371 121.027 306.531 121.1 306.691 121.07Z" fill="#2C2858"/>
<path d="M301.944 123.662C302.119 124.434 302.221 125.176 302.483 125.744C302.57 125.933 302.497 126.166 302.323 126.268C301.565 126.691 300.182 126.56 299.367 126.429C299.25 126.414 299.25 126.239 299.367 126.225C300.371 126.05 300.91 125.802 301.172 125.657C301.303 125.584 301.391 125.438 301.391 125.293C301.42 124.943 301.493 124.244 301.58 123.691C301.638 123.473 301.9 123.473 301.944 123.662Z" fill="#DE623C"/>
<path d="M288.679 120.4C289.568 121.871 289.32 123.662 288.112 124.404C286.903 125.133 285.199 124.536 284.311 123.05C283.423 121.58 283.671 119.789 284.879 119.046C286.088 118.318 287.791 118.915 288.679 120.4Z" fill="#F37A50"/>
<path d="M287.205 123.138C287.263 123.123 287.307 123.094 287.351 123.05C287.962 122.424 288.108 121.652 287.744 120.997C287.38 120.313 286.579 119.92 285.851 120.065C285.647 120.109 285.516 120.298 285.545 120.502C285.589 120.706 285.778 120.837 285.982 120.808C286.375 120.735 286.856 120.968 287.059 121.361C287.263 121.725 287.161 122.148 286.783 122.541C286.637 122.686 286.637 122.934 286.783 123.079C286.928 123.152 287.074 123.181 287.205 123.138Z" fill="#DE623C"/>
<path d="M308.103 180.698C308.103 180.698 304.638 184.789 304.055 185.095L300.954 181.717L300.925 181.775L300.196 183.712L299.337 185.969C298.624 185.969 277.016 181.134 277.016 181.134C277.059 179.183 278.894 172.878 281.85 166.166C281.136 160.473 281.821 154.561 281.602 151.285C283.35 142.49 282.097 139.112 280.525 134.962L286.014 133.346L295.886 136.826L296.615 134.452C296.615 134.452 302.803 135.938 304.099 136.651L306.443 146.407L305.933 167.127C305.933 167.127 306.72 175.47 308.103 180.698Z" fill="#ADC804"/>
<path d="M287.922 132.239L284.049 133.885C284.457 138.53 294.838 141.296 294.838 141.296L295.872 136.811L287.922 132.239Z" fill="#4F5A0B"/>
<path d="M295.889 136.825L298.946 140.218C298.946 140.218 301.597 137.481 300.636 135.792C299.674 134.103 296.165 132.967 296.165 132.967L295.889 136.825Z" fill="#4F5A0B"/>
<path d="M298.262 130.1C298.015 130.071 297.782 130.013 297.549 129.94C295.831 129.372 295.044 127.77 295.015 127.712C294.913 127.508 295.001 127.246 295.205 127.144C295.409 127.042 295.671 127.13 295.773 127.334C295.773 127.348 296.457 128.688 297.826 129.139C298.714 129.43 299.733 129.285 300.825 128.717C301.029 128.615 301.291 128.688 301.393 128.892C301.495 129.095 301.422 129.358 301.218 129.459C300.17 130.013 299.18 130.231 298.262 130.1Z" fill="#DE623C"/>
<path d="M300.939 181.774L300.211 183.71C299.542 179.254 297.066 160.617 298.464 155.462C299.775 150.628 298.129 145.532 296.542 140.61C296.149 139.401 295.756 138.164 295.406 136.955L295.887 136.81L296.367 136.664C296.702 137.858 297.11 139.096 297.488 140.29C299.119 145.357 300.823 150.599 299.425 155.724C298.216 160.18 300.066 175.483 300.939 181.774Z" fill="#4F5A0B"/>
<path d="M295.363 154.473C295.363 154.473 278.065 171.815 271.352 168.801C269.139 165.801 273.842 159.802 278.24 157.778C282.622 155.769 289.99 152.609 289.99 152.609L295.363 154.473Z" fill="#F37A50"/>
<path d="M298.639 148.59L305.818 143.042C305.978 142.926 306.167 142.867 306.371 142.911L311.263 143.799C311.409 143.828 311.686 144.673 311.569 144.76L306.677 147.702C306.648 147.716 306.618 147.731 306.604 147.731L298.916 149.056C298.77 149.056 298.508 148.677 298.639 148.59Z" fill="#F9CD2D"/>
<path d="M299.004 149.114L305.833 143.901C305.993 143.785 306.182 143.727 306.386 143.77L311.439 144.629C311.584 144.659 311.628 144.833 311.511 144.921L306.706 148.561C306.677 148.575 306.648 148.59 306.619 148.59L299.106 149.405C298.96 149.42 298.873 149.216 299.004 149.114Z" fill="#F9F93A"/>
<path d="M289.816 152.711L293.85 150.687C293.85 150.687 296.412 147.906 297.213 147.061C298.233 146.77 300.227 145.911 300.635 145.94C301.043 145.969 301.727 146.202 301.727 146.202L299.397 148.037C299.397 148.037 300.344 148.474 301.683 147.95C303.023 147.411 305.513 145.78 306.474 146.362C306.78 146.756 306.78 146.756 306.78 146.756C306.78 146.756 307.624 146.1 308.134 146.552C309.707 147.95 299.601 153.963 299.601 153.963L295.393 154.473L289.816 152.711Z" fill="#F37A50"/>
<path d="M306.59 145.022C306.299 145.211 305.95 145.196 305.804 144.978C305.658 144.759 305.76 144.425 306.052 144.221C306.343 144.031 306.692 144.046 306.838 144.264C306.984 144.483 306.867 144.818 306.59 145.022Z" fill="#F9CD2D"/>
<path d="M323.001 165.204C323.001 165.204 314.031 175.455 307.799 176.896C307.435 174.843 307.086 173.271 307.086 173.271L315.589 162.073L323.001 165.204Z" fill="#DE623C"/>
<path d="M333.514 43.4746H282.711C276.712 43.4746 271.863 48.3379 271.863 54.3224V74.7513C271.863 80.7503 276.727 85.5991 282.711 85.5991H317.744L316.507 108.416C316.419 110.163 318.807 110.76 319.535 109.159L330.34 85.5991H333.499C339.498 85.5991 344.347 80.7358 344.347 74.7513V54.3224C344.362 48.3234 339.498 43.4746 333.514 43.4746Z" fill="#462682"/>
<path d="M334.896 58.05H282.084C280.031 58.05 278.371 56.3901 278.371 54.337C278.371 52.284 280.031 50.624 282.084 50.624H334.896C336.949 50.624 338.609 52.284 338.609 54.337C338.609 56.3901 336.949 58.05 334.896 58.05Z" fill="white"/>
<path d="M334.896 69.0422H282.084C280.031 69.0422 278.371 67.3823 278.371 65.3292C278.371 63.2761 280.031 61.6162 282.084 61.6162H334.896C336.949 61.6162 338.609 63.2761 338.609 65.3292C338.609 67.3823 336.949 69.0422 334.896 69.0422Z" fill="white"/>
<path d="M336.308 80.0519H298.174C296.907 80.0519 295.873 79.0181 295.873 77.7513V74.9119C295.873 73.6452 296.907 72.6113 298.174 72.6113H336.308C337.575 72.6113 338.609 73.6452 338.609 74.9119V77.7513C338.609 79.0181 337.575 80.0519 336.308 80.0519Z" fill="white"/>
<path d="M824.784 103.9C816.775 100.857 799.783 106.055 801.923 136.342C804.064 166.629 825.905 164.386 825.905 164.386C825.905 164.386 836.039 162.158 838.587 143.258C841.165 124.358 838.252 109.011 824.784 103.9Z" fill="#2C2858"/>
<path d="M793.84 132.339C793.17 134.246 787.142 135.309 786.69 134.77C783.487 126.558 786.865 110.439 786.865 110.439L789.865 109.07C789.865 109.085 790.913 121.549 793.84 132.339Z" fill="#F37A50"/>
<path d="M808.852 148.356C803.232 146.565 787.317 136.489 786.604 134.48L793.258 130.912C793.258 130.912 811.386 138.964 814.342 140.449C819.438 143.012 818.011 151.297 808.852 148.356Z" fill="#F37A50"/>
<path d="M783.229 110.238C784.598 110.529 786.272 110.311 787.044 111.461L789.854 109.044C788.063 104.938 782.734 102.856 782.181 102.725C780.724 102.375 780.069 102.128 779.924 102.303C779.778 102.477 779.225 103.744 781.321 104.312C783.957 105.025 781.86 106.904 776.72 104.064C775.439 103.351 772.774 103.642 773.561 104.763C774.434 106.016 776.997 108.928 783.229 110.238Z" fill="#F37A50"/>
<path d="M813.351 136.576L820.922 135.178L823.762 138.964L817.719 151.326L808.852 143.798L813.351 136.576Z" fill="#F37A50"/>
<path d="M804.079 165.8C804.079 160.98 799.9 153.773 801.91 148.909C803.366 144.992 805.797 138.426 808.782 137.333C810.195 136.809 811.636 136.46 813.384 135.965C813.384 135.965 812.845 139.168 814.898 139.328C818.859 139.649 820.955 134.567 820.955 134.567C823.096 134.363 832.91 137.581 832.895 138.396C832.866 144.701 827.741 153.918 826.066 160.733C825.411 168.101 826.983 172.032 826.983 172.876C826.983 172.876 813.049 177.536 803.701 172.381C803.715 172.381 804.079 169.047 804.079 165.8Z" fill="#BB0070"/>
<path d="M815.251 130.403L821.396 129.485L820.901 135.193C820.901 135.193 819.721 137.77 818.367 137.945L813.344 136.576L815.251 130.403Z" fill="#F37A50"/>
<path d="M827.098 122.145C825.511 128.77 820.007 133.124 814.809 131.886C809.611 130.634 806.669 124.256 808.256 117.631C809.844 111.006 815.348 106.652 820.546 107.89C825.744 109.142 828.685 115.52 827.098 122.145Z" fill="#F37A50"/>
<path d="M810.69 119.379C810.457 119.845 809.903 120.019 809.437 119.801C808.971 119.568 808.797 119.015 809.015 118.549C809.248 118.083 809.801 117.908 810.267 118.127C810.733 118.359 810.923 118.913 810.69 119.379Z" fill="black"/>
<path d="M817.997 121.184C817.749 121.679 817.138 121.883 816.643 121.636C816.148 121.388 815.944 120.776 816.191 120.281C816.439 119.786 817.05 119.582 817.545 119.83C818.041 120.078 818.244 120.689 817.997 121.184Z" fill="black"/>
<path d="M819.115 120.353C819.042 120.324 818.984 120.266 818.955 120.193C818.445 119.101 817.091 118.897 817.077 118.883C816.887 118.854 816.756 118.679 816.785 118.49C816.814 118.3 816.989 118.169 817.178 118.198C817.251 118.213 818.926 118.46 819.596 119.902C819.683 120.077 819.596 120.281 819.421 120.368C819.319 120.397 819.202 120.397 819.115 120.353Z" fill="#2C2858"/>
<path d="M808.66 118.022C808.631 118.008 808.602 117.979 808.573 117.95C808.442 117.819 808.442 117.586 808.573 117.454C809.636 116.392 810.961 116.843 811.019 116.857C811.208 116.916 811.296 117.12 811.237 117.309C811.179 117.498 810.975 117.586 810.801 117.527C810.757 117.513 809.825 117.222 809.083 117.964C808.951 118.066 808.791 118.095 808.66 118.022Z" fill="#2C2858"/>
<path d="M811.284 121.401C810.775 121.926 810.323 122.464 809.843 122.77C809.683 122.872 809.625 123.09 809.726 123.265C810.12 123.964 811.27 124.532 811.969 124.838C812.071 124.881 812.158 124.75 812.071 124.678C811.357 124.051 811.052 123.6 810.92 123.338C810.862 123.207 810.862 123.061 810.92 122.945C811.066 122.654 811.357 122.071 811.547 121.576C811.634 121.416 811.416 121.27 811.284 121.401Z" fill="#DE623C"/>
<path d="M824.594 122.19C823.327 123.18 822.963 124.811 823.764 125.844C824.565 126.878 826.239 126.922 827.506 125.932C828.773 124.942 829.137 123.311 828.336 122.277C827.535 121.258 825.861 121.214 824.594 122.19Z" fill="#F37A50"/>
<path d="M825.307 125.553C825.264 125.524 825.22 125.495 825.191 125.451C824.71 124.811 824.667 124.083 825.074 123.515C825.497 122.932 826.268 122.67 826.924 122.874C827.113 122.932 827.2 123.136 827.142 123.311C827.084 123.5 826.88 123.588 826.705 123.529C826.341 123.413 825.875 123.573 825.642 123.908C825.409 124.228 825.453 124.621 825.759 125.015C825.875 125.175 825.846 125.393 825.686 125.51C825.569 125.597 825.424 125.612 825.307 125.553Z" fill="#DE623C"/>
<path d="M817.038 126.687C817.184 126.483 817.024 126.206 816.776 126.236C816.15 126.308 815.131 126.41 814.141 126.41C813.165 126.41 812.131 126.308 811.505 126.236C811.257 126.206 811.097 126.483 811.243 126.687C811.694 127.298 812.626 128.216 814.126 128.216C815.655 128.216 816.587 127.298 817.038 126.687Z" fill="white"/>
<path d="M827.228 121.562C821.011 120.732 812.333 114.398 811.619 111.151C812.828 107.249 819.22 105.283 822.831 107.103C826.442 108.909 829.849 116.655 827.228 121.562Z" fill="#2C2858"/>
<path d="M776.757 139.754C778.155 139.841 779.786 139.375 780.718 140.395L783.15 137.599C780.776 133.799 775.199 132.517 774.632 132.459C773.146 132.328 772.447 132.168 772.345 132.372C772.229 132.575 771.865 133.9 774.02 134.148C776.728 134.468 774.923 136.638 769.433 134.57C768.065 134.061 765.473 134.73 766.405 135.735C767.438 136.856 770.394 139.375 776.757 139.754Z" fill="#F37A50"/>
<path d="M805.033 148.034C806.343 149.898 803.358 156.1 802.557 156.173C792.947 153.713 780.41 140.084 780.41 140.084L781.124 136.443C781.138 136.443 793.238 143.651 805.033 148.034Z" fill="#F37A50"/>
<path d="M830.864 148.281C825.083 151.557 804.611 157.003 802.412 156.056L804.553 147.829C804.553 147.829 825.069 139.005 828.534 137.71C834.548 135.438 840.314 142.951 830.864 148.281Z" fill="#F37A50"/>
<path d="M779.018 132.643C778.872 132.643 778.727 132.614 778.596 132.541C777.431 131.988 775.625 131.041 773.572 129.716C773.106 129.425 772.975 128.799 773.281 128.348C773.572 127.882 774.198 127.751 774.65 128.056C776.616 129.323 778.348 130.226 779.455 130.765C779.95 130.998 780.154 131.595 779.921 132.09C779.746 132.425 779.382 132.643 779.018 132.643ZM769.583 126.513C769.35 126.513 769.131 126.44 768.942 126.28C767.413 124.97 766.044 123.586 764.85 122.174C764.501 121.752 764.559 121.126 764.981 120.776C765.404 120.427 766.03 120.485 766.379 120.907C767.5 122.247 768.796 123.543 770.238 124.78C770.66 125.13 770.704 125.756 770.34 126.178C770.136 126.397 769.859 126.513 769.583 126.513ZM762.462 117.849C762.098 117.849 761.763 117.66 761.589 117.311C760.788 115.782 760.176 114.195 759.754 112.578C759.681 112.287 759.623 112.01 759.579 111.734C759.492 111.195 759.856 110.685 760.409 110.598C760.948 110.511 761.458 110.875 761.545 111.428C761.574 111.646 761.632 111.865 761.691 112.083C762.069 113.539 762.637 114.995 763.365 116.393C763.613 116.874 763.423 117.485 762.943 117.733C762.783 117.806 762.623 117.849 762.462 117.849ZM761.894 107.278C761.705 107.278 761.501 107.22 761.327 107.103C760.875 106.783 760.773 106.172 761.079 105.72C762.026 104.366 763.423 103.012 765.345 101.599C765.782 101.279 766.408 101.366 766.729 101.803C767.049 102.24 766.962 102.866 766.525 103.187C764.778 104.468 763.54 105.676 762.71 106.856C762.521 107.118 762.2 107.278 761.894 107.278ZM770.66 100.304C770.325 100.304 769.99 100.129 769.816 99.823C769.539 99.3571 769.685 98.7455 770.15 98.4689C770.791 98.0757 771.446 97.6971 772.102 97.304C773.048 96.7361 774.038 96.1537 774.985 95.5858C775.451 95.2946 776.062 95.4402 776.353 95.9207C776.645 96.3867 776.499 96.9982 776.019 97.2894C775.057 97.8719 774.067 98.4689 773.106 99.0222C772.451 99.4008 771.81 99.7939 771.155 100.172C771.01 100.26 770.835 100.304 770.66 100.304ZM780.183 94.2608C779.892 94.2608 779.6 94.1297 779.397 93.8822C779.062 93.4454 779.135 92.8338 779.571 92.4844C781.246 91.1884 782.44 89.9508 783.255 88.6985C783.561 88.2326 784.173 88.1161 784.624 88.4073C785.09 88.7131 785.206 89.3247 784.915 89.776C783.983 91.203 782.629 92.6008 780.794 94.0424C780.62 94.188 780.401 94.2608 780.183 94.2608ZM785.468 84.9127C784.959 84.9127 784.537 84.5341 784.478 84.0245C784.362 82.8596 783.94 81.622 783.255 80.3261C783.051 79.9475 782.833 79.5835 782.615 79.2194C782.323 78.7535 782.469 78.1419 782.935 77.8507C783.401 77.5595 784.012 77.7051 784.304 78.1711C784.537 78.5496 784.77 78.9573 784.988 79.365C785.818 80.8794 786.298 82.3791 786.444 83.8061C786.502 84.3448 786.109 84.8399 785.556 84.8982C785.527 84.9127 785.498 84.9127 785.468 84.9127ZM767.093 84.141C766.801 84.141 766.51 84.1264 766.219 84.0973C762.797 83.7624 761.88 81.9714 761.632 80.9231C761.501 80.3843 761.836 79.8601 762.375 79.7291C762.914 79.598 763.438 79.9329 763.569 80.4717C763.846 81.6365 765.273 82.0151 766.423 82.1316C766.656 82.1607 766.889 82.1607 767.107 82.1607H767.195C767.748 82.1607 768.199 82.5976 768.199 83.1363C768.199 83.6896 767.763 84.141 767.224 84.141H767.093ZM771.956 81.622C771.767 81.622 771.563 81.5637 771.388 81.4472C770.937 81.1415 770.82 80.5153 771.141 80.064C771.956 78.8991 772.495 77.2683 772.771 75.2152C772.844 74.6765 773.339 74.2833 773.878 74.3561C774.417 74.4289 774.81 74.924 774.737 75.4627C774.431 77.8362 773.762 79.7582 772.771 81.1851C772.582 81.4764 772.276 81.622 771.956 81.622ZM764.632 76.6567C764.384 76.6567 764.151 76.5694 763.948 76.3946C763.554 76.016 763.525 75.3899 763.904 74.9968C765.258 73.5553 767.049 72.3613 768.942 71.6624C769.452 71.4731 770.034 71.7352 770.223 72.2448C770.413 72.7544 770.15 73.3369 769.641 73.5261C768.039 74.1231 766.51 75.1424 765.36 76.3655C765.156 76.5548 764.894 76.6567 764.632 76.6567ZM779.848 75.4045C779.63 75.4045 779.397 75.3317 779.222 75.1715C777.809 74.0067 776.281 73.2641 774.664 72.9874C774.126 72.9 773.762 72.3758 773.863 71.8371C773.951 71.2983 774.475 70.9343 775.014 71.0362C776.98 71.3857 778.829 72.2594 780.503 73.6572C780.926 74.0067 780.984 74.6328 780.634 75.055C780.416 75.2735 780.139 75.4045 779.848 75.4045ZM773.849 70.7159C773.339 70.7159 772.902 70.3228 772.859 69.7986C772.728 68.0222 772.451 66.202 772.043 64.3674C771.927 63.8286 772.262 63.3044 772.801 63.188C773.339 63.0715 773.864 63.4064 773.98 63.9451C774.402 65.8671 774.693 67.7892 774.839 69.653C774.883 70.2063 774.475 70.6722 773.922 70.7159C773.907 70.7159 773.878 70.7159 773.849 70.7159ZM771.388 59.7516C770.995 59.7516 770.616 59.5186 770.471 59.1255C769.67 57.087 768.753 55.4853 767.879 54.6116C767.5 54.2185 767.5 53.5924 767.894 53.2138C768.287 52.8352 768.913 52.8352 769.291 53.2283C770.354 54.3058 771.403 56.0968 772.32 58.412C772.524 58.9216 772.276 59.5041 771.767 59.6934C771.636 59.7225 771.505 59.7516 771.388 59.7516Z" fill="#2C2858"/>
<path d="M547.834 92.7746C547.484 92.7746 547.149 92.5854 546.96 92.265C546.698 91.7845 546.873 91.1875 547.353 90.9254C548.285 90.4158 548.838 89.8916 548.838 89.513C548.838 89.3529 548.722 88.8869 547.702 88.1006C547.266 87.7657 547.178 87.1396 547.513 86.7028C547.848 86.266 548.474 86.1786 548.896 86.5135C550.178 87.4891 550.804 88.4646 550.804 89.4985C550.804 90.6924 549.974 91.7263 548.285 92.6582C548.154 92.731 547.994 92.7746 547.834 92.7746ZM543.058 85.5088C542.927 85.5088 542.795 85.4797 542.664 85.436C541.179 84.8099 539.432 84.1255 537.16 83.3101C536.651 83.1208 536.374 82.5529 536.563 82.0433C536.753 81.5337 537.321 81.257 537.83 81.4463C540.131 82.2763 541.922 82.9752 543.436 83.6159C543.946 83.8343 544.179 84.4167 543.96 84.9118C543.815 85.2904 543.451 85.5088 543.058 85.5088ZM531.889 81.3735C531.787 81.3735 531.671 81.359 531.569 81.3153L531.132 81.1551C529.88 80.7183 528.599 80.2814 527.332 79.8301C526.851 79.6553 526.371 79.4806 525.919 79.2913C525.41 79.0875 525.177 78.505 525.381 77.9954C525.585 77.4858 526.167 77.2528 526.677 77.4566C527.099 77.6314 527.55 77.8061 527.987 77.9663C529.254 78.4177 530.535 78.8545 531.787 79.2913L532.224 79.4515C532.748 79.6262 533.011 80.1941 532.836 80.7183C532.69 81.126 532.297 81.3735 531.889 81.3735ZM521.144 76.4083C520.925 76.4083 520.721 76.3355 520.532 76.2044C518.726 74.792 517.329 73.2049 516.353 71.4867C516.091 71.0062 516.251 70.4092 516.732 70.1325C517.212 69.8705 517.809 70.0306 518.086 70.5111C518.916 71.9818 520.182 73.4087 521.755 74.6464C522.192 74.9813 522.265 75.6074 521.93 76.0442C521.726 76.2772 521.435 76.4083 521.144 76.4083ZM516.091 66.2739C516.033 66.2739 515.96 66.2739 515.902 66.2594C515.363 66.1574 515.013 65.6332 515.115 65.0945C515.538 62.9249 516.863 61.0903 518.959 59.7798C519.425 59.4886 520.037 59.6342 520.328 60.1001C520.619 60.5661 520.474 61.1776 520.008 61.4688C518.392 62.4881 517.372 63.8714 517.052 65.4876C516.965 65.939 516.557 66.2739 516.091 66.2739ZM525.089 59.7215C524.609 59.7215 524.187 59.3721 524.114 58.877C524.041 58.3383 524.405 57.8286 524.958 57.7558C525.162 57.7267 525.366 57.6976 525.57 57.6685C527.201 57.4792 528.977 57.3627 531.001 57.319C531.555 57.3045 532.006 57.7413 532.02 58.2946C532.035 58.8479 531.598 59.2993 531.045 59.3138C529.079 59.3575 527.361 59.474 525.803 59.6633C525.614 59.6924 525.424 59.707 525.235 59.7361C525.191 59.707 525.133 59.7215 525.089 59.7215ZM542.927 59.4449C541.587 59.4303 540.247 59.4012 538.82 59.3575C538.194 59.343 537.583 59.3284 536.957 59.3138C536.403 59.2993 535.981 58.8479 535.981 58.2946C535.996 57.7413 536.447 57.319 537 57.319C537.626 57.3336 538.252 57.3481 538.879 57.3627C540.291 57.3918 541.631 57.4355 542.941 57.4501C543.494 57.4501 543.931 57.9014 543.917 58.4548C543.917 59.0081 543.465 59.4449 542.927 59.4449ZM548.867 59.2556C548.358 59.2556 547.935 58.877 547.877 58.3528C547.819 57.8141 548.227 57.319 548.765 57.2753C551.095 57.0569 552.842 56.6055 554.124 55.9212C554.604 55.6591 555.201 55.8484 555.463 56.3289C555.725 56.8094 555.536 57.4064 555.056 57.6685C553.541 58.4839 551.547 58.9935 548.955 59.241C548.94 59.2556 548.911 59.2556 548.867 59.2556ZM557.851 53.1109C557.808 53.1109 557.764 53.1109 557.72 53.0964C557.182 53.0236 556.803 52.5139 556.876 51.9752C556.919 51.6112 556.949 51.218 556.949 50.8103C556.949 50.6356 556.949 50.4609 556.934 50.2716C556.905 49.7183 557.327 49.2523 557.88 49.2377C558.434 49.2086 558.9 49.6309 558.914 50.1842C558.929 50.4026 558.929 50.621 558.929 50.8249C558.929 51.3199 558.9 51.8005 558.842 52.2518C558.769 52.7469 558.332 53.1109 557.851 53.1109Z" fill="#2C2858"/>
<path d="M853.363 79.5569L848.617 72.8589L840.477 73.8782C839.691 73.9801 839.167 73.0774 839.632 72.4367L844.525 65.8552L841.045 58.4292C840.71 57.7011 841.394 56.9294 842.152 57.1769L849.927 59.7979L855.926 54.192C856.508 53.6532 857.469 54.0609 857.455 54.8617L857.368 63.0741L864.546 67.0346C865.245 67.4277 865.143 68.4616 864.371 68.6945L856.538 71.1408L854.98 79.1929C854.834 79.9937 853.815 80.2122 853.363 79.5569Z" fill="#ADC804"/>
<path d="M266.445 45.5126L258.276 44.7409L253.719 51.5553C253.282 52.2251 252.248 52.0358 252.073 51.2496L250.282 43.2411L242.376 41.0133C241.604 40.7949 241.473 39.7611 242.158 39.3534L249.22 35.1744L248.899 26.9766C248.87 26.1758 249.802 25.7244 250.414 26.2632L256.573 31.6944L264.275 28.855C265.018 28.5783 265.746 29.3355 265.426 30.0635L262.164 37.5915L267.246 44.0274C267.741 44.6681 267.231 45.5854 266.445 45.5126Z" fill="#ADC804"/>
<path d="M688.043 26.2049L681.156 25.7099L677.457 31.5488C677.093 32.1166 676.234 31.971 676.074 31.3304L674.414 24.6178L667.716 22.8996C667.061 22.7395 666.93 21.8658 667.497 21.5164L673.365 17.8616L672.929 10.9743C672.885 10.3045 673.671 9.91137 674.181 10.3482L679.466 14.8038L685.888 12.2557C686.514 12.0081 687.125 12.6342 686.878 13.2604L684.286 19.6671L688.698 24.9818C689.12 25.4769 688.713 26.2486 688.043 26.2049Z" fill="#ADC804"/>
<path d="M624.034 61.6174C624.034 65.3741 620.99 68.4027 617.248 68.4027C613.506 68.4027 610.463 65.3595 610.463 61.6174C610.463 57.8607 613.506 54.832 617.248 54.832C620.99 54.832 624.034 57.8752 624.034 61.6174Z" fill="white"/>
<path d="M793.869 41.2007C788.336 41.2007 783.852 36.7015 783.852 31.1829C783.852 25.6643 788.351 21.165 793.869 21.165C799.403 21.165 803.887 25.6643 803.887 31.1829C803.887 36.7015 799.403 41.2007 793.869 41.2007ZM793.869 24.9945C790.462 24.9945 787.681 27.7757 787.681 31.1829C787.681 34.5901 790.462 37.3713 793.869 37.3713C797.277 37.3713 800.058 34.5901 800.058 31.1829C800.058 27.7611 797.291 24.9945 793.869 24.9945Z" fill="#ADC804"/>
<path d="M445.645 44.0698L449.649 90.7955C449.795 92.5719 448.484 94.1445 446.708 94.2901L365.502 101.236C363.726 101.381 362.153 100.071 362.007 98.2943L358.003 51.5686C357.858 49.7922 359.168 48.2196 360.945 48.074L442.15 41.1285C443.927 40.9683 445.485 42.2788 445.645 44.0698Z" fill="#CC3E93"/>
<path d="M445.645 44.0696L445.863 46.6469L411.136 76.3801C407.772 79.3797 402.851 79.8456 398.992 77.5304L358.134 53.0391L358.003 51.5685C357.858 49.7921 359.168 48.2195 360.945 48.0739L442.136 41.1284C443.927 40.9682 445.485 42.2932 445.645 44.0696Z" fill="#BB0070"/>
<path d="M694.248 153.232L687.492 145.646C687.346 145.486 687.143 145.384 686.91 145.384L681.347 145.354C681.187 145.354 680.692 146.228 680.809 146.345L685.57 150.582C685.599 150.611 685.614 150.626 685.657 150.64L693.841 153.669C694.001 153.727 694.365 153.363 694.248 153.232Z" fill="#C4204A"/>
<path d="M693.723 153.741L687.287 146.592C687.142 146.431 686.938 146.329 686.705 146.329L680.968 146.228C680.808 146.228 680.72 146.417 680.837 146.533L685.365 151.528C685.394 151.557 685.409 151.571 685.452 151.586L693.534 154.032C693.723 154.076 693.854 153.872 693.723 153.741Z" fill="#E62552"/>
<path d="M706.448 160.249L701.789 157.963C701.789 157.963 697.187 153.318 696.518 152.27C695.498 151.746 693.562 150.45 693.125 150.406C692.688 150.363 691.8 150.494 691.8 150.494L693.955 152.94C693.955 152.94 692.936 153.144 691.625 152.314C690.315 151.484 688.014 149.256 686.878 149.693C686.471 150.042 686.471 150.042 686.471 150.042C686.471 150.042 685.757 149.285 685.087 149.562C684.417 149.838 685.757 153.202 689.557 156.755C689.805 157.701 691.057 159.376 691.057 159.376L698.731 162.07L706.448 160.249Z" fill="#F37A50"/>
<path d="M686.24 147.671C686.516 147.947 686.909 147.991 687.113 147.787C687.317 147.583 687.273 147.19 686.997 146.913C686.72 146.637 686.327 146.593 686.123 146.797C685.919 147.001 685.963 147.394 686.24 147.671Z" fill="#C4204A"/>
<path d="M728.145 126.002C726.762 127.793 737.581 129.744 739.037 126.017C740.493 122.289 738.003 112.053 738.003 112.053L728.131 114.149C728.131 114.149 729.936 123.672 728.145 126.002Z" fill="#F37A50"/>
<path d="M740.158 103.709C740.988 111.63 736.62 118.576 730.402 119.231C724.185 119.886 718.462 113.989 717.632 106.082C716.802 98.1614 721.171 91.2159 727.388 90.5606C733.606 89.8908 739.328 95.788 740.158 103.709Z" fill="#F37A50"/>
<path d="M721.302 108.399C721.084 109.011 720.414 109.331 719.788 109.112C719.176 108.894 718.856 108.224 719.074 107.598C719.293 106.972 719.963 106.666 720.589 106.885C721.215 107.103 721.521 107.787 721.302 108.399Z" fill="black"/>
<path d="M729.035 106.711C728.802 107.38 728.059 107.715 727.404 107.482C726.734 107.249 726.399 106.507 726.632 105.851C726.865 105.182 727.608 104.847 728.263 105.08C728.933 105.313 729.268 106.041 729.035 106.711Z" fill="black"/>
<path d="M723.558 108.152C723.31 110.002 722.961 112.288 722.961 112.288C722.961 112.288 724.184 113.569 726.208 112.681C725.203 112.71 724.097 112.521 723.922 111.225C723.762 109.943 723.558 108.152 723.558 108.152Z" fill="#DE623C"/>
<path d="M720.966 105.704C720.835 105.777 720.66 105.792 720.514 105.719C720.5 105.704 720.005 105.457 719.553 105.631C719.233 105.748 718.971 106.068 718.782 106.578C718.694 106.811 718.432 106.927 718.199 106.84C717.966 106.753 717.85 106.491 717.937 106.258C718.228 105.486 718.665 104.991 719.248 104.772C720.107 104.452 720.922 104.889 720.951 104.903C721.17 105.02 721.257 105.297 721.126 105.515C721.082 105.602 721.024 105.661 720.966 105.704Z" fill="#201D40"/>
<path d="M726.835 104.424C726.98 104.453 727.155 104.41 727.257 104.293C727.272 104.279 727.65 103.886 728.145 103.9C728.495 103.915 728.844 104.118 729.179 104.541C729.339 104.73 729.63 104.759 729.82 104.599C730.009 104.439 730.038 104.148 729.878 103.958C729.354 103.332 728.771 102.997 728.16 102.997C727.243 102.983 726.616 103.653 726.587 103.682C726.413 103.871 726.427 104.148 726.616 104.322C726.689 104.366 726.762 104.41 726.835 104.424Z" fill="#201D40"/>
<path d="M737.842 108.733C733.751 105.297 734.872 100.07 734.872 100.07C732.891 100.201 732.324 101.045 732.324 101.045C730.722 99.2107 731.115 97.478 731.115 97.478C726.805 97.012 725.553 100.055 722.262 101.846C717.763 104.307 711.298 103.987 709.157 98.2643C708.851 97.4343 709.638 96.6334 710.468 96.9101C711.239 97.1722 712.215 97.2887 713.293 96.9683C713.293 96.9683 711.982 96.1093 711.502 94.5367C711.239 93.6776 712.128 92.935 712.943 93.3136C714.166 93.8814 716.234 94.1581 719.379 92.6583C721.476 91.6536 725.567 86.7612 728.887 86.601C731.61 86.47 734.231 88.1154 735.949 90.9984C735.949 90.9984 742.443 89.95 744.948 96.7354C747.409 103.39 738.177 113.684 738.177 113.684C738.177 113.684 738.92 109.782 737.842 108.733Z" fill="#201D40"/>
<path d="M724.052 115.722C723.79 115.562 723.863 115.169 724.154 115.096C724.911 114.907 726.149 114.586 727.285 114.15C728.421 113.727 729.571 113.159 730.27 112.795C730.546 112.65 730.852 112.912 730.765 113.203C730.503 114.106 729.818 115.591 728.071 116.246C726.324 116.887 724.839 116.232 724.052 115.722Z" fill="white"/>
<path d="M734.93 104.075C733.591 105.385 733.387 107.336 734.464 108.428C735.542 109.52 737.493 109.331 738.832 108.021C740.172 106.71 740.376 104.759 739.298 103.667C738.206 102.575 736.255 102.75 734.93 104.075Z" fill="#F37A50"/>
<path d="M736.21 107.859C736.152 107.845 736.094 107.801 736.05 107.758C735.395 107.073 735.249 106.243 735.642 105.515C736.05 104.787 736.909 104.365 737.695 104.525C737.914 104.569 738.059 104.787 738.016 105.006C737.972 105.224 737.754 105.37 737.535 105.326C737.098 105.238 736.589 105.501 736.356 105.908C736.137 106.301 736.239 106.767 736.633 107.19C736.793 107.35 736.778 107.612 736.618 107.772C736.516 107.889 736.356 107.918 736.21 107.859Z" fill="#DE623C"/>
<path d="M716.117 180.811C723.834 182.383 737.711 185.106 745.064 182.238C747.845 178.248 748.544 155.693 748.544 155.693C749.345 132.483 746.564 129.032 740.288 121.257C737.653 122.465 731.057 123.499 728.159 123.528C728.159 123.528 721.592 132.643 720.311 139.269C719.015 145.981 718.869 157.921 718.738 164.765C718.593 172.365 717.093 176.035 716.117 180.811Z" fill="#ADC804"/>
<path d="M741.193 128.319C745.707 137.113 744.688 146.84 731.554 166.017C722.352 165.216 720.561 157.557 720.561 157.557C720.561 157.557 723.094 148.034 726.37 136.065C729.646 124.096 739.213 124.46 741.193 128.319Z" fill="#7A8C05"/>
<path d="M701.048 155.708L720.735 157.281C720.735 157.281 729.18 155.737 731.553 166.017C727.331 169.308 716.425 170.545 698.529 163.906C700.422 161.314 701.048 155.708 701.048 155.708Z" fill="#7A8C05"/>
<path d="M728.201 122.886L728.012 128.172L741.335 122.595L739.719 118.3L728.201 122.886Z" fill="white"/>
<path d="M684.752 132.717C684.752 136.939 681.33 140.361 677.107 140.361C672.885 140.361 669.463 136.939 669.463 132.717C669.463 128.494 672.885 125.072 677.107 125.072C681.33 125.072 684.752 128.494 684.752 132.717Z" fill="#462682"/>
<path d="M676.481 137.55C676.103 137.55 675.753 137.361 675.549 137.055L672.404 132.367C672.055 131.857 672.2 131.158 672.71 130.809C673.22 130.459 673.918 130.605 674.268 131.115L676.496 134.434L680.267 128.93C680.616 128.421 681.315 128.29 681.825 128.639C682.335 128.989 682.466 129.688 682.116 130.197L677.413 137.055C677.195 137.361 676.845 137.55 676.481 137.55Z" fill="white"/>
<path d="M685.436 141.511C685.436 142.72 684.461 143.71 683.238 143.71C682.029 143.71 681.039 142.734 681.039 141.511C681.039 140.303 682.015 139.312 683.238 139.312C684.461 139.327 685.436 140.303 685.436 141.511Z" fill="#462682"/>
<path d="M677.848 76.3666L678.154 97.6691C678.168 98.4845 677.513 99.1543 676.712 99.1543L639.684 99.693C638.868 99.7076 638.213 99.0524 638.199 98.2515L637.893 76.949C637.878 76.1336 638.534 75.4638 639.334 75.4638L676.363 74.925C677.178 74.9105 677.848 75.5512 677.848 76.3666Z" fill="#2C2858"/>
<path d="M677.849 76.3666L677.863 77.546L661.162 89.9082C659.546 91.1604 657.303 91.2041 655.614 90.0392L637.894 77.6188L637.879 76.949C637.865 76.1336 638.52 75.4638 639.321 75.4638L676.349 74.925C677.179 74.9105 677.849 75.5512 677.849 76.3666Z" fill="#201D40"/>
<path d="M653.053 99.8247C652.324 99.5481 651.888 99.4316 651.771 98.325C651.669 97.2183 651.757 95.8205 650.839 96.2864C649.922 96.7378 649.281 98.9074 649.427 99.7956C650.49 100.436 653.053 99.8247 653.053 99.8247Z" fill="#F37A50"/>
<path d="M589.523 50.8838C589.374 50.8838 589.238 50.8296 589.143 50.7212L584.941 46.4105L582.338 49.7452C582.243 49.8672 582.108 49.9349 581.972 49.9349C581.742 49.9349 581.511 49.7723 581.43 49.5554L575.249 32.909C575.181 32.7057 575.221 32.5159 575.371 32.3803C575.465 32.2583 575.587 32.2041 575.737 32.2041C575.804 32.2041 575.872 32.2177 575.94 32.2448L592.424 38.8328C592.627 38.9142 592.763 39.0768 592.79 39.2802C592.817 39.4835 592.722 39.6733 592.559 39.7953L589.197 42.2895L593.386 46.5867C593.589 46.8036 593.589 47.1425 593.386 47.3458L589.916 50.7347C589.807 50.8296 589.672 50.8838 589.523 50.8838ZM584.887 45.0685C585.036 45.0685 585.185 45.1227 585.28 45.2311L589.536 49.5961L592.234 46.9663L587.991 42.6149C587.882 42.5064 587.828 42.3573 587.842 42.2082C587.855 42.0455 587.95 41.8964 588.086 41.788L591.149 39.5106L576.685 33.7223L582.108 48.3218L584.507 45.2582C584.588 45.1362 584.738 45.0685 584.887 45.0685Z" fill="white"/>
<path d="M593.535 46.4368L591.502 44.3628L589.496 42.3159L590.892 41.2857L592.654 39.9707C592.885 39.7945 593.007 39.537 592.966 39.2659C592.925 38.9947 592.749 38.7643 592.478 38.6558L586.879 36.4056L578.028 32.8676L576.821 32.3796L575.994 32.0542C575.899 32.0136 575.818 32 575.723 32C575.52 32 575.344 32.0949 575.208 32.244C575.005 32.4338 574.95 32.7185 575.045 32.9896L575.262 33.586L577.146 38.6423L580.468 47.589L580.847 48.6193L581.227 49.636C581.335 49.9342 581.647 50.1511 581.959 50.1511C582.176 50.1511 582.352 50.0562 582.487 49.8935L583.816 48.1991L584.955 46.7486L586.527 48.3617L588.425 50.3002L588.994 50.8831C589.13 51.0186 589.319 51.1 589.523 51.1C589.726 51.1 589.916 51.0186 590.051 50.8831L591.759 49.2157L593.522 47.4942C593.82 47.2095 593.82 46.735 593.535 46.4368ZM593.237 47.1959C592.085 48.3211 590.919 49.4597 589.767 50.5849C589.699 50.6526 589.618 50.6797 589.523 50.6797C589.441 50.6797 589.36 50.6526 589.292 50.5849C589.103 50.3951 588.913 50.1917 588.723 50.002C587.462 48.7006 586.188 47.4128 584.927 46.1115C584.006 47.2908 583.097 48.4566 582.176 49.636C582.121 49.7173 582.04 49.7444 581.959 49.7444C581.81 49.7444 581.66 49.636 581.606 49.4868C581.349 48.8091 581.105 48.1177 580.847 47.4399C579.736 44.4577 578.638 41.4754 577.526 38.4932C576.821 36.6089 576.13 34.7247 575.425 32.8405C575.371 32.7049 575.411 32.5829 575.506 32.5151C575.56 32.4473 575.628 32.3931 575.723 32.3931C575.764 32.3931 575.804 32.4067 575.845 32.4202C576.523 32.6913 577.201 32.9625 577.865 33.2336C580.82 34.4129 583.775 35.5923 586.717 36.7716C588.587 37.5172 590.458 38.2627 592.315 39.0083C592.586 39.1167 592.641 39.4421 592.397 39.6183C591.217 40.4859 590.038 41.367 588.872 42.2345C588.967 42.3294 589.075 42.4379 589.17 42.5328C590.526 43.9155 591.881 45.3117 593.223 46.6944C593.359 46.8435 593.373 47.0739 593.237 47.1959Z" fill="white"/>
<path d="M588.139 42.4649C587.976 42.3022 588.031 42.0582 588.207 41.9362C589.332 41.1093 590.444 40.2689 591.569 39.442C591.094 39.2522 590.606 39.0624 590.132 38.8726C587.177 37.6933 584.222 36.5139 581.28 35.3346C579.64 34.6704 577.986 34.0197 576.346 33.3555C576.508 33.8164 576.685 34.2637 576.847 34.7246C577.959 37.7068 579.057 40.6891 580.168 43.6714C580.792 45.3658 581.429 47.0467 582.053 48.7412C582.92 47.6296 583.801 46.5045 584.669 45.3929C584.723 45.3251 584.804 45.298 584.899 45.298C584.994 45.298 585.089 45.3387 585.143 45.3929C585.333 45.5827 585.523 45.786 585.713 45.9758C586.987 47.2772 588.261 48.5921 589.535 49.8934C590.539 48.9174 591.528 47.9414 592.531 46.9789C592.423 46.8705 592.314 46.7485 592.206 46.64C590.85 45.2303 589.495 43.8476 588.139 42.4649ZM589.549 49.297L588.708 48.4294L586.011 45.664L585.93 45.5691L585.442 45.0811C585.306 44.9456 585.103 44.8643 584.899 44.8643C584.682 44.8643 584.479 44.9591 584.357 45.1218L583.042 46.8027L582.175 47.9007L581.524 46.152L580.548 43.5222L577.227 34.5755L577.037 34.0739L581.131 35.7142L585.564 37.49L589.996 39.2658L590.728 39.564L590.755 39.5775L589.685 40.3638L587.976 41.638C587.787 41.7736 587.665 41.9904 587.651 42.2073C587.638 42.4242 587.705 42.6276 587.868 42.7767L589.901 44.8507L591.935 46.9247L591.975 46.9654L589.549 49.297Z" fill="white"/>
<path d="M575.766 32.7598L581.947 49.4062L584.902 45.6106L589.538 50.3551L591.273 48.6606L593.008 46.9661L588.386 42.2216L592.249 39.3478L575.766 32.7598Z" fill="#3B455A"/>
</g>
</svg>
