<svg width="90" height="90" viewBox="0 0 90 90" fill="none" xmlns="http://www.w3.org/2000/svg">
<path d="M10.459 14.3614C7.7168 14.3614 5.53711 12.1642 5.53711 9.42198C5.55469 6.73253 7.7168 4.57042 10.4238 4.55284C13.166 4.53526 15.3984 6.71495 15.3984 9.43956C15.3984 12.1642 13.2012 14.379 10.459 14.3614Z" fill="#462682"/>
<path d="M76.6056 89.3497C74.4083 89.3673 72.6505 87.6447 72.6329 85.465C72.6154 83.2677 74.338 81.5275 76.5353 81.5099C78.7326 81.4923 80.5079 83.215 80.5255 85.3947C80.5255 87.5568 78.7853 89.3146 76.6056 89.3497Z" fill="#462682"/>
<path d="M72.6331 4.44755C71.5081 4.44755 70.6819 3.67411 70.6643 2.58427C70.6468 1.44169 71.4905 0.633094 72.6682 0.650672C73.7932 0.66825 74.6194 1.47684 74.6018 2.56669C74.5843 3.65653 73.7581 4.44755 72.6331 4.44755Z" fill="white"/>
<path d="M86.4669 22.2187C85.3243 22.2363 84.4982 21.4629 84.463 20.3906C84.4278 19.248 85.254 18.4219 86.4317 18.4219C87.5567 18.4219 88.3829 19.2129 88.4005 20.3027C88.4181 21.375 87.5743 22.2012 86.4669 22.2187Z" fill="white"/>
<path d="M3.55078 24.1876C2.42578 24.1876 1.61719 23.3966 1.59961 22.2892C1.59961 21.1642 2.44336 20.3556 3.63867 20.3908C4.74609 20.4083 5.57227 21.2521 5.53711 22.3243C5.50195 23.4142 4.67578 24.1876 3.55078 24.1876Z" fill="#ADC804"/>
<path d="M3.5332 73.512C2.4082 73.4944 1.59961 72.7034 1.59961 71.6136C1.59961 70.4886 2.44336 69.6976 3.63867 69.7151C4.74609 69.7327 5.57227 70.5765 5.53711 71.6663C5.50195 72.7386 4.6582 73.512 3.5332 73.512Z" fill="#BB0070"/>
<path d="M86.4495 73.5117C85.3069 73.5117 84.4807 72.7559 84.4632 71.666C84.4456 70.5234 85.2718 69.7148 86.4495 69.7148C87.5745 69.7148 88.4007 70.5234 88.4007 71.6133C88.4007 72.6855 87.5745 73.4941 86.4495 73.5117Z" fill="#BB0070"/>
<path d="M15.4339 89.2969C14.2913 89.2969 13.4651 88.541 13.4475 87.4512C13.43 86.3086 14.2561 85.5 15.4339 85.5C16.5589 85.5 17.385 86.3086 17.385 87.3984C17.3675 88.4707 16.5413 89.2793 15.4339 89.2969Z" fill="#BB0070"/>
<path d="M45.0352 6.52154C23.2207 6.48638 5.51954 24.17 5.53712 45.9844C5.5547 67.7813 23.2031 85.3946 45 85.3946C66.7969 85.3946 84.4453 67.7637 84.4629 45.9844C84.4629 24.2051 66.8672 6.57427 45.0352 6.52154ZM50.0977 75.0938C49.0606 75.2696 48.041 75.4805 46.9688 75.4454C46.6875 75.1466 46.7051 74.7774 46.7051 74.4258C46.7051 73.1778 46.6875 71.9298 46.7051 70.6817C46.7227 69.504 46.8457 69.3282 48.041 69.17C49.4824 68.9766 50.8887 68.6954 52.2598 68.1856C61.1543 64.9512 66.4453 58.6583 68.1152 49.3594C68.291 48.3751 68.4317 47.3555 68.3789 46.3184C68.3086 45.0352 67.7109 44.3497 66.6387 44.3848C65.6016 44.4024 65.0215 45.0704 64.9688 46.3008C64.6524 53.209 61.7344 58.6934 56.0215 62.5958C53.0508 64.6348 49.7109 65.8301 46.0371 65.8829C45.6152 65.8829 45.1758 65.9356 44.7715 66.0411C43.6992 66.3223 43.2774 66.8321 43.2598 67.9395C43.2246 70.0137 43.2598 72.088 43.2422 74.1446C43.2422 74.6016 43.3301 75.0762 42.9785 75.463C37.4942 75.1817 32.4668 73.4415 28.0371 70.2423C19.2305 63.879 14.959 55.1602 15.3985 44.3145C15.9434 30.7969 26.4375 19.0723 39.7442 16.8751C40.8164 16.6993 41.8711 16.4883 42.9609 16.5235C43.2422 16.8047 43.2246 17.1915 43.2246 17.543C43.2246 18.8262 43.207 20.1094 43.2422 21.3926C43.2598 22.2188 42.9609 22.6583 42.082 22.7637C39.1817 23.1329 36.4219 23.9766 33.8731 25.4004C26.9297 29.2852 22.8692 35.1563 21.7266 43.0489C21.6035 43.9278 21.4981 44.8067 21.5332 45.7032C21.586 46.9161 22.166 47.584 23.2031 47.6016C24.2402 47.6192 24.9082 46.9688 24.9258 45.7559C24.9785 43.4356 25.4531 41.2032 26.209 39.0059C28.7227 31.7989 36.2461 26.2794 43.8574 26.1036C44.2793 26.086 44.7012 26.0508 45.1231 25.9454C46.2129 25.6641 46.6172 25.1368 46.6348 23.8536C46.6699 21.8145 46.6348 19.7754 46.6524 17.7364C46.6524 17.3145 46.582 16.8751 46.916 16.5235C51.7324 16.752 56.2149 18.1583 60.293 20.7247C68.6602 25.9981 73.459 33.5743 74.3731 43.4532C75.8496 58.6583 65.1797 72.5274 50.0977 75.0938Z" fill="white"/>
<path d="M46.9691 16.4883C46.9691 18.8613 46.9691 21.2168 46.9691 23.5898C46.9691 25.4883 46.2835 26.2969 44.4202 26.3145C40.0609 26.3672 36.1761 27.7734 32.8011 30.4805C28.6702 33.8027 26.139 38.0742 25.4359 43.3828C25.3304 44.2266 25.2952 45.0703 25.2425 45.9316C25.1722 47.1797 24.4339 47.8652 23.221 47.8477C22.0433 47.8301 21.305 47.0742 21.3226 45.8262C21.3929 40.0254 23.2913 34.9277 27.0706 30.5332C31.1136 25.8398 36.264 23.2734 42.3284 22.4297C42.9085 22.3418 43.0316 22.1484 43.014 21.6211C42.9964 19.916 43.014 18.1934 43.014 16.4883C44.3499 16.207 45.6683 16.207 46.9691 16.4883Z" fill="white"/>
<path d="M43.0316 75.4456C43.0316 73.1077 43.1195 70.7698 43.0141 68.4495C42.9086 66.2874 43.9633 65.637 45.8617 65.6194C49.4828 65.5843 52.7699 64.4417 55.7582 62.473C60.6449 59.2562 63.5453 54.7034 64.5121 48.9378C64.6703 48.0413 64.7055 47.1097 64.7406 46.1956C64.7934 44.8597 65.4437 44.1038 66.6566 44.0862C67.9398 44.0687 68.6781 44.8069 68.6781 46.1956C68.6781 48.2698 68.3617 50.3089 67.8168 52.2952C66.7094 56.3734 64.6 59.9241 61.5941 62.8421C57.9027 66.4105 53.5082 68.7308 48.3402 69.3636C46.9867 69.5218 46.9867 69.5394 46.9867 70.9105C46.9867 72.4222 46.9867 73.9339 46.9867 75.4456C45.6684 75.7093 44.35 75.7093 43.0316 75.4456Z" fill="white"/>
<path d="M60.8025 39.2521C60.8025 40.5002 60.4333 41.4318 59.6775 42.1877C53.3142 48.5509 46.9509 54.9142 40.5876 61.2951C40.2185 61.6642 40.0251 61.6642 39.656 61.2951C36.5622 58.1662 33.4157 55.09 30.3396 51.9259C28.7575 50.3088 28.8278 47.883 30.3923 46.3537C31.9216 44.8595 34.2946 44.842 35.8942 46.3713C37.1423 47.549 38.3376 48.7619 39.5153 49.9923C39.99 50.5021 40.236 50.4845 40.7282 49.9923C45.1228 45.5627 49.5349 41.133 53.9646 36.7384C56.2497 34.4709 59.8708 35.4025 60.6618 38.4435C60.7673 38.7775 60.7849 39.1115 60.8025 39.2521Z" fill="#ADC804"/>
</svg>
