<svg width="196" height="50" viewBox="0 0 196 50" fill="none" xmlns="http://www.w3.org/2000/svg">
<g clip-path="url(#clip0_4786_8242)">
<path d="M79.2614 34.273H72.4597L68.3709 27.4898C68.0647 26.9754 67.7724 26.5156 67.4905 26.1113C67.2086 25.7071 66.9255 25.3607 66.6379 25.0723C66.3502 24.785 66.0509 24.5638 65.739 24.4109C65.427 24.258 65.0885 24.1815 64.7211 24.1815H63.1255V34.273H57.2031V7.91263H66.5905C72.9704 7.91263 76.1616 10.3023 76.1616 15.0816C76.1616 16.0002 76.0206 16.8492 75.7398 17.6276C75.4579 18.406 75.0616 19.108 74.5487 19.7323C74.0357 20.3578 73.4152 20.8965 72.6874 21.3494C71.9595 21.8035 71.1496 22.1579 70.2576 22.4162V22.4892C70.6481 22.612 71.0283 22.8112 71.3945 23.0869C71.7608 23.3626 72.1155 23.6846 72.4574 24.0518C72.7994 24.419 73.1264 24.8151 73.4383 25.2379C73.7503 25.6607 74.0345 26.0743 74.291 26.4785L79.2602 34.273H79.2614ZM63.1267 12.3618V19.6964H65.6939C66.9648 19.6964 67.9862 19.3292 68.7556 18.5937C69.5378 17.8466 69.9295 16.921 69.9295 15.8183C69.9295 13.5144 68.5546 12.363 65.8037 12.363H63.1267V12.3618Z" fill="black"/>
<path d="M96.9188 12.7475H87.6412V19.218H96.1666V24.0344H87.6412V34.273H81.7188V7.91263H96.9188V12.7475Z" fill="black"/>
<path d="M107.169 25.1916V34.2718H101.246V7.91263H110.524C117.149 7.91263 120.461 10.7135 120.461 16.3129C120.461 18.9597 119.51 21.1015 117.61 22.7371C115.709 24.3727 113.169 25.1916 109.991 25.1916H107.167H107.169ZM107.169 12.4719V20.688H109.497C112.65 20.688 114.227 19.3038 114.227 16.5342C114.227 13.7646 112.65 12.4719 109.497 12.4719H107.169Z" fill="black"/>
<path d="M130.231 25.1916V34.2718H124.309V7.91263H133.586C140.211 7.91263 143.524 10.7135 143.524 16.3129C143.524 18.9597 142.573 21.1015 140.672 22.7371C138.771 24.3727 136.232 25.1916 133.054 25.1916H130.23H130.231ZM130.231 12.4719V20.688H132.559C135.712 20.688 137.289 19.3038 137.289 16.5342C137.289 13.7646 135.712 12.4719 132.559 12.4719H130.231Z" fill="#7A81FD"/>
<path d="M169.431 34.273H162.628L158.539 27.4898C158.233 26.9754 157.94 26.5156 157.658 26.1113C157.377 25.7071 157.094 25.3607 156.806 25.0723C156.518 24.785 156.219 24.5638 155.907 24.4109C155.595 24.258 155.256 24.1815 154.889 24.1815H153.293V34.273H147.371V7.91263H156.758C163.138 7.91263 166.33 10.3023 166.33 15.0816C166.33 16.0002 166.189 16.8492 165.908 17.6276C165.626 18.406 165.23 19.108 164.715 19.7323C164.202 20.3578 163.582 20.8965 162.854 21.3494C162.127 21.8035 161.318 22.1579 160.424 22.4162V22.4892C160.815 22.612 161.195 22.8112 161.561 23.0869C161.928 23.3626 162.282 23.6846 162.624 24.0518C162.966 24.419 163.293 24.8151 163.605 25.2379C163.917 25.6607 164.201 26.0743 164.458 26.4785L169.427 34.273H169.431ZM153.296 12.3618V19.6964H155.863C157.134 19.6964 158.155 19.3292 158.925 18.5937C159.707 17.8466 160.099 16.921 160.099 15.8183C160.099 13.5144 158.724 12.363 155.973 12.363H153.296V12.3618Z" fill="#7A81FD"/>
<path d="M182.999 34.7317C179.234 34.7317 176.166 33.5039 173.796 31.0459C171.424 28.589 170.238 25.3874 170.238 21.4409C170.238 17.2743 171.442 13.9047 173.85 11.3309C176.258 8.75706 179.448 7.47014 183.421 7.47014C187.174 7.47014 190.208 8.70146 192.524 11.1652C194.841 13.6279 195.998 16.8759 195.998 20.9081C195.998 24.9402 194.798 28.3898 192.396 30.9265C189.994 33.4633 186.862 34.7317 182.999 34.7317ZM183.256 12.5819C181.177 12.5819 179.527 13.3626 178.305 14.9252C177.083 16.4878 176.471 18.5555 176.471 21.1293C176.471 23.7031 177.083 25.8044 178.305 27.3241C179.527 28.8438 181.129 29.6037 183.109 29.6037C185.089 29.6037 186.769 28.8659 187.967 27.389C189.166 25.9121 189.764 23.863 189.764 21.2405C189.764 18.618 189.183 16.3813 188.022 14.8615C186.861 13.3418 185.272 12.5819 183.255 12.5819H183.256Z" fill="#7A81FD"/>
<path d="M0 13.4564L5.35397 15.1627V8.68408L0 7.57439V13.4564Z" fill="url(#paint0_linear_4786_8242)"/>
<path fill-rule="evenodd" clip-rule="evenodd" d="M24.2528 47.1781C13.2341 47.1781 4.30078 47.6982 4.30078 48.3399C4.30078 48.9816 13.2341 49.5017 24.2528 49.5017C35.2716 49.5017 44.2049 48.9816 44.2049 48.3399C44.2049 47.6982 35.2716 47.1781 24.2528 47.1781Z" fill="#D1D3D4"/>
<path fill-rule="evenodd" clip-rule="evenodd" d="M42.8924 17.9415L15.3068 1.97381C8.95691 -1.65643 3.64453 -0.551371 3.64453 7.57671V39.5573C3.64453 46.9082 7.29434 50.945 14.3155 46.8815L41.9011 30.9138C48.251 27.2384 49.9135 22.0502 42.8924 17.9415ZM31.6368 29.4404L12.802 40.3427C8.00835 43.1169 5.51623 40.3612 5.51623 35.3421V13.4924C5.51623 7.94274 9.14293 7.15739 13.479 9.66636L32.3138 20.6138C37.1074 23.3892 35.9729 26.9303 31.6368 29.4404Z" fill="url(#paint1_linear_4786_8242)"/>
<path fill-rule="evenodd" clip-rule="evenodd" d="M42.8923 17.9867L21.1379 5.39324C13.8752 1.18962 5.11639 1.87188 5.5381 12.7684C5.64093 10.0926 6.85637 8.86131 8.43114 8.5474C9.16826 8.40029 9.92965 8.43736 10.6645 8.58331C18.4655 9.53315 33.4968 17.0021 40.4198 21.5486C45.158 24.6599 45.9089 27.6983 41.9021 30.9138C48.252 27.2384 49.9146 22.0502 42.8934 17.9867H42.8923Z" fill="url(#paint2_linear_4786_8242)"/>
<path fill-rule="evenodd" clip-rule="evenodd" d="M41.1846 21.4629C33.0207 15.8693 13.019 6.50523 7.81641 8.72925C9.58874 8.02961 11.9099 8.75937 13.4777 9.66635L32.3125 20.6138C32.8093 20.9011 33.1837 21.2069 33.5823 21.4733C38.362 24.6611 36.9155 32.5702 33.4043 35.8321L41.9021 30.9138C47.4132 27.7237 44.4358 23.6892 41.1869 21.4629H41.1846Z" fill="url(#paint3_linear_4786_8242)"/>
<path opacity="0.4" fill-rule="evenodd" clip-rule="evenodd" d="M23.0625 34.3877L25.171 40.5744L32.555 36.2711L30.1876 30.2397L23.0625 34.3877Z" fill="#132E41"/>
<path opacity="0.4" fill-rule="evenodd" clip-rule="evenodd" d="M22.9369 6.3894H3.68612C3.65955 6.76702 3.64453 7.16202 3.64453 7.5767V14.6414H5.51623V13.4924C5.51623 7.94274 9.14293 7.15738 13.479 9.66635L22.0738 14.6414H25.9986C26.3706 14.6414 27.2475 14.6843 27.5029 15.0295C27.697 15.2924 27.6069 15.9121 27.5445 16.1994L27.2244 17.6682L32.315 20.615C33.1919 21.1223 33.8689 21.6552 34.3657 22.2031C34.9203 21.0598 35.3282 19.7845 35.6286 18.4049L36.0075 16.6685C36.2005 15.7835 36.2756 14.938 36.2455 14.1387L22.9369 6.39056V6.3894Z" fill="#132E41"/>
<path fill-rule="evenodd" clip-rule="evenodd" d="M27.269 7.57439H0V13.4564H25.9958C28.221 13.4564 29.1257 14.4816 28.6959 16.4519L28.3215 18.1697C27.9241 19.9906 26.6093 20.8965 24.3748 20.8965H16.9296L17.3559 19.0095H11.6692L7.81722 38.9585H13.6842L15.7719 26.8909H21.7082L29.6976 48.4638H35.5645L27.4839 26.4472C31.7449 25.3352 33.5796 22.2378 34.4715 18.1512L34.8505 16.4148C36.0082 11.1085 32.4531 7.57439 27.2701 7.57439H27.269Z" fill="url(#paint4_linear_4786_8242)"/>
</g>
<defs>
<linearGradient id="paint0_linear_4786_8242" x1="4.50593" y1="8.19294" x2="1.09256" y2="14.0894" gradientUnits="userSpaceOnUse">
<stop stop-color="#60CAE7"/>
<stop offset="0.49" stop-color="#00B6BE"/>
<stop offset="1" stop-color="#03466A"/>
</linearGradient>
<linearGradient id="paint1_linear_4786_8242" x1="-3.37548" y1="16.5446" x2="38.5638" y2="40.6953" gradientUnits="userSpaceOnUse">
<stop stop-color="#14142D"/>
<stop offset="0.34" stop-color="#7A81FD"/>
<stop offset="0.66" stop-color="#7ACFFD"/>
<stop offset="1" stop-color="#14142D"/>
</linearGradient>
<linearGradient id="paint2_linear_4786_8242" x1="7.27115" y1="5.5693" x2="45.962" y2="27.8496" gradientUnits="userSpaceOnUse">
<stop stop-color="#14142D"/>
<stop offset="0.34" stop-color="#7A81FD"/>
<stop offset="0.66" stop-color="#7ACFFD"/>
<stop offset="1" stop-color="#14142D"/>
</linearGradient>
<linearGradient id="paint3_linear_4786_8242" x1="18.0703" y1="2.79391" x2="36.2425" y2="34.1885" gradientUnits="userSpaceOnUse">
<stop stop-color="#14142D"/>
<stop offset="0.34" stop-color="#7A81FD"/>
<stop offset="0.66" stop-color="#7ACFFD"/>
<stop offset="1" stop-color="#14142D"/>
</linearGradient>
<linearGradient id="paint4_linear_4786_8242" x1="39.5852" y1="46.0128" x2="3.97351" y2="5.77596" gradientUnits="userSpaceOnUse">
<stop stop-color="#14142D"/>
<stop offset="0.34" stop-color="#7A81FD"/>
<stop offset="0.66" stop-color="#7ACFFD"/>
<stop offset="1" stop-color="#14142D"/>
</linearGradient>
<clipPath id="clip0_4786_8242">
<rect width="196" height="49.5017" fill="white"/>
</clipPath>
</defs>
</svg>
