<svg width="196" height="55" viewBox="0 0 196 55" fill="none" xmlns="http://www.w3.org/2000/svg">
<path d="M6.59937 19.0377L6.52491 51.0134C6.52015 53.0623 8.17956 54.7259 10.2285 54.7259H38.41C40.4554 54.7259 42.1136 53.0677 42.1136 51.0223V11.4155C42.1136 9.37013 40.4554 7.7119 38.41 7.7119H18.3821L12.7397 13.396L6.59937 19.0377Z" fill="white"/>
<path d="M3.14249 15.7308L3.06446 49.3849C3.0597 51.5411 4.80608 53.2922 6.96284 53.2922H36.6239C38.7765 53.2922 40.5223 51.5471 40.5223 49.3939V7.70773C40.5223 5.55454 38.7771 3.80935 36.6239 3.80935H15.5446L9.60564 9.79183L3.14249 15.7308Z" fill="#7A81FD"/>
<path d="M0.0810172 12.7402L1.1919e-05 47.4861C-0.00534872 49.7125 1.79821 51.5203 4.02466 51.5203H34.6476C36.8705 51.5203 38.6723 49.7185 38.6723 47.4956V4.4568C38.6723 2.23392 36.8705 0.432144 34.6476 0.432144H12.8846L6.75323 6.6088L0.0810172 12.7402Z" fill="white"/>
<path d="M0.540527 12.5597L12.3441 0.928312V8.85193C12.3441 10.8997 10.6841 12.5603 8.63569 12.5603H0.540527V12.5597Z" fill="#7A81FD"/>
<path d="M8.97091 20.7216C9.98902 20.7216 10.8144 19.8962 10.8144 18.8781C10.8144 17.86 9.98902 17.0347 8.97091 17.0347C7.95279 17.0347 7.12744 17.86 7.12744 18.8781C7.12744 19.8962 7.95279 20.7216 8.97091 20.7216Z" fill="#7A81FD"/>
<path d="M31.8094 19.3737H13.1448C12.8708 19.3737 12.6487 19.1515 12.6487 18.8775C12.6487 18.6035 12.8708 18.3813 13.1448 18.3813H31.8094C32.0834 18.3813 32.3056 18.6035 32.3056 18.8775C32.3056 19.1521 32.0834 19.3737 31.8094 19.3737Z" fill="#7A81FD"/>
<path d="M8.97091 27.856C9.98902 27.856 10.8144 27.0307 10.8144 26.0125C10.8144 24.9944 9.98902 24.1691 8.97091 24.1691C7.95279 24.1691 7.12744 24.9944 7.12744 26.0125C7.12744 27.0307 7.95279 27.856 8.97091 27.856Z" fill="#7A81FD"/>
<path d="M31.8094 26.5081H13.1448C12.8708 26.5081 12.6487 26.286 12.6487 26.012C12.6487 25.738 12.8708 25.5158 13.1448 25.5158H31.8094C32.0834 25.5158 32.3056 25.738 32.3056 26.012C32.3056 26.2866 32.0834 26.5081 31.8094 26.5081Z" fill="#7A81FD"/>
<path d="M8.97091 34.9737C9.98902 34.9737 10.8144 34.1484 10.8144 33.1303C10.8144 32.1122 9.98902 31.2868 8.97091 31.2868C7.95279 31.2868 7.12744 32.1122 7.12744 33.1303C7.12744 34.1484 7.95279 34.9737 8.97091 34.9737Z" fill="#7A81FD"/>
<path d="M31.8094 33.6259H13.1448C12.8708 33.6259 12.6487 33.4037 12.6487 33.1297C12.6487 32.8557 12.8708 32.6335 13.1448 32.6335H31.8094C32.0834 32.6335 32.3056 32.8557 32.3056 33.1297C32.3056 33.4037 32.0834 33.6259 31.8094 33.6259Z" fill="#7A81FD"/>
<path d="M8.97091 42.1082C9.98902 42.1082 10.8144 41.2828 10.8144 40.2647C10.8144 39.2466 9.98902 38.4212 8.97091 38.4212C7.95279 38.4212 7.12744 39.2466 7.12744 40.2647C7.12744 41.2828 7.95279 42.1082 8.97091 42.1082Z" fill="#7A81FD"/>
<path d="M31.8094 40.7603H13.1448C12.8708 40.7603 12.6487 40.5381 12.6487 40.2641C12.6487 39.9901 12.8708 39.7679 13.1448 39.7679H31.8094C32.0834 39.7679 32.3056 39.9901 32.3056 40.2641C32.3056 40.5381 32.0834 40.7603 31.8094 40.7603Z" fill="#7A81FD"/>
<path d="M20.9603 10.7484L19.8554 9.15273H19.7899H18.6362V10.7484H17.3103V5.01967H19.7899C21.3201 5.01967 22.2778 5.81364 22.2778 7.09841C22.2778 7.9579 21.8442 8.58807 21.0991 8.90733L22.3839 10.749H20.9603V10.7484ZM19.7166 6.09954H18.6362V8.09668H19.7166C20.5267 8.09668 20.9359 7.72024 20.9359 7.09841C20.9359 6.46824 20.5267 6.09954 19.7166 6.09954Z" fill="black"/>
<path d="M24.6515 6.08349V7.59758H27.3033V8.66137H24.6515V10.7484H23.3257V5.01971H27.6547V6.08349H24.6515Z" fill="black"/>
<path d="M33.5227 7.09845C33.5227 8.37487 32.5649 9.16885 31.0348 9.16885H29.881V10.7484H28.5552V5.01971H31.0348C32.5655 5.01971 33.5227 5.81308 33.5227 7.09845ZM32.1808 7.09845C32.1808 6.46827 31.7716 6.10017 30.9615 6.10017H29.881V8.08897H30.9615C31.7716 8.08838 32.1808 7.72028 32.1808 7.09845Z" fill="black"/>
<path d="M65.2709 35.7427L61.4964 30.2909H61.273H57.3311V35.7427H52.802V16.1721H61.2736C66.502 16.1721 69.7726 18.884 69.7726 23.2738C69.7726 26.2097 68.2907 28.3622 65.7468 29.4528L70.1359 35.7433H65.2709V35.7427ZM61.0211 19.8621H57.3306V26.6838H61.0211C63.7889 26.6838 65.1869 25.3978 65.1869 23.2726C65.1869 21.1206 63.7889 19.8621 61.0211 19.8621Z" fill="#7A81FD"/>
<path d="M77.8792 19.8061V24.9785H86.9375V28.613H77.8792V35.7421H73.3501V16.1715H88.1401V19.8061H77.8792Z" fill="#7A81FD"/>
<path d="M108.186 23.2732C108.186 27.6344 104.915 30.3469 99.6863 30.3469H95.7445V35.7427H91.2153V16.1721H99.6869C104.915 16.1716 108.186 18.8834 108.186 23.2732ZM103.601 23.2732C103.601 21.1206 102.203 19.8621 99.435 19.8621H95.7445V26.6558H99.435C102.203 26.6564 103.601 25.3978 103.601 23.2732Z" fill="#7A81FD"/>
<path d="M110.142 33.8134L111.68 30.4023C113.33 31.6042 115.79 32.4435 118.139 32.4435C120.823 32.4435 121.913 31.5489 121.913 30.3469C121.913 26.6844 110.534 29.2003 110.534 21.9313C110.534 18.6041 113.218 15.8362 118.782 15.8362C121.242 15.8362 123.758 16.4235 125.576 17.5695L124.178 21.008C122.36 19.9734 120.487 19.4701 118.754 19.4701C116.07 19.4701 115.035 20.4767 115.035 21.7067C115.035 25.3132 126.414 22.8253 126.414 30.0103C126.414 33.2815 123.702 36.0774 118.111 36.0774C115.007 36.078 111.876 35.1554 110.142 33.8134Z" fill="white"/>
<path d="M142.517 27.1591V35.7421H138.436V33.8688C137.625 35.2388 136.059 35.9654 133.85 35.9654C130.328 35.9654 128.231 34.0082 128.231 31.4083C128.231 28.7524 130.104 26.9071 134.689 26.9071H138.156C138.156 25.0339 137.037 23.9433 134.689 23.9433C133.095 23.9433 131.446 24.4746 130.355 25.3412L128.789 22.294C130.439 21.12 132.871 20.4767 135.276 20.4767C139.862 20.4773 142.517 22.6019 142.517 27.1591ZM138.156 30.9896V29.4516H135.165C133.124 29.4516 132.481 30.2063 132.481 31.2129C132.481 32.3035 133.404 33.0302 134.942 33.0302C136.394 33.0308 137.653 32.3595 138.156 30.9896Z" fill="white"/>
<path d="M162.143 20.7013V33.2267C162.143 38.8185 159.124 41.3904 153.699 41.3904C150.848 41.3904 148.08 40.6917 146.318 39.3218L148.052 36.1906C149.338 37.2252 151.435 37.8959 153.364 37.8959C156.439 37.8959 157.781 36.4979 157.781 33.786V33.1428C156.634 34.4007 154.985 35.016 153.028 35.016C148.862 35.016 145.507 32.1361 145.507 27.747C145.507 23.3578 148.862 20.4779 153.028 20.4779C155.124 20.4779 156.858 21.1766 158.004 22.6305V20.7013H162.143ZM157.838 27.7464C157.838 25.5378 156.189 24.0559 153.896 24.0559C151.603 24.0559 149.926 25.5378 149.926 27.7464C149.926 29.955 151.603 31.4369 153.896 31.4369C156.189 31.4369 157.838 29.955 157.838 27.7464Z" fill="white"/>
<path d="M180.847 29.4517H169.468C169.887 31.3249 171.481 32.4709 173.774 32.4709C175.368 32.4709 176.514 31.9956 177.548 31.017L179.869 33.5335C178.471 35.1274 176.374 35.966 173.662 35.966C168.461 35.966 165.079 32.6948 165.079 28.2217C165.079 23.7205 168.518 20.4773 173.103 20.4773C177.52 20.4773 180.931 23.4412 180.931 28.2777C180.931 28.613 180.875 29.0883 180.847 29.4517ZM169.412 26.9077H176.821C176.514 25.0065 175.088 23.7765 173.131 23.7765C171.145 23.7765 169.719 24.9785 169.412 26.9077Z" fill="white"/>
<path d="M182.384 34.3447L183.838 31.2135C185.18 32.0802 187.221 32.6674 189.066 32.6674C191.08 32.6674 191.834 32.1361 191.834 31.2975C191.834 28.837 182.748 31.3535 182.748 25.3424C182.748 22.4906 185.32 20.4779 189.71 20.4779C191.779 20.4779 194.071 20.9532 195.497 21.7919L194.043 24.8951C192.561 24.0565 191.079 23.7765 189.709 23.7765C187.752 23.7765 186.913 24.3918 186.913 25.1745C186.913 27.7464 195.999 25.2584 195.999 31.1855C195.999 33.9814 193.4 35.9666 188.898 35.9666C186.354 35.966 183.782 35.2673 182.384 34.3447Z" fill="white"/>
</svg>
