<svg width="286" height="189" viewBox="0 0 286 189" fill="none" xmlns="http://www.w3.org/2000/svg">
<g clip-path="url(#clip0_8415_9251)">
<path d="M58.9216 8.95801H16.3184V70.4219H58.9216V8.95801Z" fill="#E0E0E0"/>
<path d="M56.7859 8.95801H14.1826V70.4219H56.7859V8.95801Z" fill="#F5F5F5"/>
<path d="M51.4963 15.6143H19.4766V63.7621H51.4963V15.6143Z" fill="white"/>
<path d="M51.4965 63.7619C51.4965 63.7619 51.4965 63.6787 51.4918 63.5262C51.4918 63.369 51.4918 63.1425 51.4872 62.8421C51.4872 62.2366 51.4779 61.3492 51.4732 60.2029C51.4686 57.8965 51.4547 54.5317 51.4454 50.284C51.4315 41.7933 51.4129 29.7714 51.3943 15.6141L51.5011 15.7204C41.721 15.7204 30.8775 15.725 19.486 15.7296L19.6021 15.6141C19.5928 33.7787 19.5835 50.5244 19.5789 63.7619L19.486 63.6694C29.2382 63.6879 37.2304 63.7064 42.7891 63.7157C45.5708 63.7249 47.7442 63.7342 49.2256 63.7388C49.964 63.7388 50.5305 63.748 50.916 63.748C51.2968 63.748 51.5011 63.7573 51.5011 63.7573C51.5011 63.7573 51.3107 63.7619 50.9346 63.7665C50.5491 63.7665 49.9918 63.7711 49.2627 63.7758C47.7813 63.7804 45.6173 63.7896 42.8449 63.7989C37.2675 63.8081 29.2568 63.8266 19.4813 63.8451H19.3885V63.7526C19.3838 50.5151 19.3745 33.7648 19.3652 15.6048V15.4893H19.4813C30.8729 15.4893 41.7117 15.4939 51.4965 15.4985H51.6033V15.6048C51.5801 29.7899 51.5615 41.8395 51.5522 50.3441C51.5383 54.5825 51.529 57.9381 51.5243 60.2399C51.5197 61.3815 51.515 62.2597 51.5104 62.8606C51.5104 63.1518 51.5058 63.3736 51.5058 63.5308C51.5058 63.6787 51.5011 63.7526 51.5011 63.7526L51.4965 63.7619Z" fill="#E0E0E0"/>
<path d="M56.9108 8.95767C56.934 8.97616 56.6461 9.39677 56.1492 10.0577C55.6523 10.7187 54.9511 11.6107 54.1523 12.5814C53.3489 13.552 52.6013 14.4071 52.0486 15.0172C51.496 15.6273 51.1338 15.9878 51.1106 15.9693C51.0874 15.9462 51.4031 15.5487 51.9233 14.9109C52.4945 14.2222 53.1957 13.3717 53.9759 12.4334C54.7514 11.4952 55.4526 10.6447 56.0238 9.95603C56.5532 9.32281 56.8876 8.93918 56.9108 8.95767Z" fill="#E0E0E0"/>
<path d="M51.6592 63.6094C53.2474 66.1284 55.1282 68.4625 57.2458 70.5609L51.6592 63.6094Z" fill="white"/>
<path d="M57.2454 70.5606C57.2454 70.5606 56.846 70.2555 56.2702 69.6777C55.699 69.1046 54.9374 68.2773 54.1619 67.3113C53.3863 66.3453 52.7455 65.4255 52.3089 64.746C51.8724 64.062 51.6356 63.6229 51.6588 63.609C51.6867 63.5905 51.9746 64.0019 52.4436 64.6582C52.9126 65.3145 53.5721 66.2112 54.343 67.1726C55.1139 68.1294 55.8476 68.9706 56.3863 69.5714C56.925 70.1723 57.264 70.5421 57.2408 70.5652L57.2454 70.5606Z" fill="#E0E0E0"/>
<path d="M14.1777 70.3711C16.0399 68.0878 17.8975 65.8045 19.7597 63.5166L14.1777 70.3711Z" fill="white"/>
<path d="M19.7596 63.5163C19.8106 63.5579 18.5986 65.1248 17.0614 67.0152C15.5197 68.9102 14.2287 70.4078 14.1822 70.3708C14.1311 70.3292 15.3432 68.7623 16.885 66.8719C18.4268 64.9815 19.7131 63.4793 19.7642 63.5163H19.7596Z" fill="#E0E0E0"/>
<path d="M14.1823 8.95791C14.2334 8.91631 15.4455 10.363 16.8897 12.1795C18.334 14.0006 19.4671 15.5073 19.416 15.5443C19.3649 15.5859 18.1529 14.1392 16.7086 12.3228C15.2644 10.5017 14.1312 8.99488 14.1823 8.95791Z" fill="#E0E0E0"/>
<path d="M41.5206 25.3896H30.7979V55.6871H41.5206V25.3896Z" fill="#E0E0E0"/>
<path d="M116.363 0V26.9142H77.5209L76.123 0.189504L116.363 0Z" fill="#E0E0E0"/>
<path d="M76.123 0.190184V26.8594L114.965 26.8594V0.190184L76.123 0.190184Z" fill="white"/>
<path d="M115.146 27.0438H75.9375V0.00488281H115.146V27.0438ZM76.3044 26.6787H114.775V0.370024H76.3044V26.6741V26.6787Z" fill="#E0E0E0"/>
<path d="M110.757 3.50293H80.3301V23.5441H110.757V3.50293Z" fill="white"/>
<path d="M110.757 3.50331C110.757 3.50331 110.706 3.50331 110.609 3.50794C110.507 3.50794 110.363 3.50793 110.177 3.51256C109.791 3.51256 109.229 3.51718 108.505 3.5218C107.042 3.52642 104.92 3.53567 102.236 3.54491C96.872 3.55416 89.2746 3.57264 80.3304 3.58651L80.4187 3.49869C80.4187 9.6229 80.4233 16.4081 80.4279 23.5399L80.3304 23.4474C91.8102 23.4567 102.389 23.4613 110.757 23.4659L110.683 23.5399C110.702 17.4388 110.716 12.4377 110.725 8.95732C110.734 7.21481 110.739 5.85593 110.743 4.9269C110.743 4.4647 110.748 4.11342 110.753 3.86845C110.753 3.62811 110.762 3.49869 110.762 3.49869C110.762 3.49869 110.767 3.61424 110.771 3.84997C110.771 4.09031 110.776 4.44159 110.781 4.89455C110.781 5.82358 110.79 7.17784 110.799 8.9111C110.808 12.4054 110.822 17.4203 110.841 23.5399V23.6138H110.767C102.398 23.6184 91.8195 23.6277 80.3397 23.6323H80.2422V23.5352C80.2422 16.4034 80.2468 9.61365 80.2515 3.49407V3.40625H80.3397C89.3071 3.42474 96.9185 3.4386 102.301 3.44785C104.976 3.45709 107.093 3.46634 108.551 3.47096C109.271 3.47558 109.824 3.4802 110.205 3.4802C110.386 3.4802 110.525 3.4802 110.627 3.48482C110.72 3.48482 110.767 3.48945 110.767 3.48945L110.757 3.50331Z" fill="#E0E0E0"/>
<path d="M76.1229 0.115234C76.1229 0.115234 76.3922 0.258518 76.7916 0.545084C77.191 0.831651 77.7297 1.23377 78.3148 1.7006C78.9 2.16742 79.4108 2.60652 79.773 2.93468C80.1352 3.26285 80.3442 3.48008 80.3303 3.50319C80.2931 3.54479 79.3597 2.77753 78.1941 1.8485C77.0285 0.924092 76.0904 0.156833 76.1229 0.115234Z" fill="#E0E0E0"/>
<path d="M114.965 0.189245C114.998 0.230843 114.083 1.00735 112.922 1.92251C111.761 2.83768 110.79 3.54485 110.758 3.50325C110.725 3.46165 111.64 2.68515 112.801 1.76998C113.962 0.854819 114.933 0.147647 114.965 0.189245Z" fill="#E0E0E0"/>
<path d="M114.932 26.8634C113.488 25.6986 112.044 24.5339 110.6 23.3691L114.932 26.8634Z" fill="white"/>
<path d="M110.599 23.3688C110.632 23.3272 111.63 24.076 112.824 25.042C114.022 26.008 114.96 26.8215 114.928 26.8631C114.895 26.9047 113.897 26.1559 112.703 25.1899C111.51 24.2239 110.567 23.4104 110.599 23.3688Z" fill="#E0E0E0"/>
<path d="M76.1229 26.8589C76.0904 26.8173 76.996 26.05 78.143 25.1441C79.2947 24.2382 80.2514 23.5402 80.2839 23.5818C80.3164 23.6234 79.4108 24.3907 78.2638 25.2966C77.1121 26.2025 76.1554 26.9005 76.1229 26.8589Z" fill="#E0E0E0"/>
<path d="M86.5068 9.74778V16.459H105.654V9.74778H86.5068Z" fill="#E0E0E0"/>
<path d="M284.987 186.55C284.987 186.615 221.185 186.67 142.498 186.67C63.8118 186.67 -0.00488281 186.615 -0.00488281 186.55C-0.00488281 186.485 63.7839 186.43 142.498 186.43C221.213 186.43 284.987 186.485 284.987 186.55Z" fill="#263238"/>
<path d="M197.506 25.1337L193.098 28.9072L199.015 35.7543L203.423 31.9807L197.506 25.1337Z" fill="#263238"/>
<path d="M201.648 25.1714L192.569 32.9457L186.193 25.5643C188.696 22.0654 191.692 19.417 195.272 17.79L201.648 25.1714Z" fill="#455A64"/>
<path d="M194.088 31.6422C194.037 31.6838 192.5 30.006 190.652 27.8937C188.804 25.7814 187.35 24.0297 187.397 23.9881C187.448 23.9465 188.985 25.6243 190.833 27.7365C192.681 29.8488 194.135 31.6006 194.088 31.6422Z" fill="#263238"/>
<path d="M195.816 30.1583C195.788 30.1814 195.398 29.7469 194.785 29.0305C194.172 28.3141 193.336 27.3203 192.421 26.2111C191.534 25.1249 190.731 24.145 190.095 23.3639C189.83 23.0357 189.598 22.7445 189.393 22.4949C189.226 22.2869 189.143 22.1853 189.143 22.176C189.231 22.0882 190.782 23.8446 192.612 26.0585C193.526 27.1678 194.339 28.18 194.92 28.9242C195.5 29.6683 195.844 30.1352 195.816 30.1583Z" fill="#263238"/>
<path d="M198.119 28.1846C198.091 28.2078 197.701 27.7687 197.084 27.043C196.466 26.3173 195.626 25.3097 194.711 24.182C193.824 23.0819 193.02 22.0835 192.379 21.2886C192.115 20.9511 191.883 20.6553 191.683 20.4011C191.516 20.1839 191.446 20.0868 191.441 20.0637C191.469 20.0267 191.892 20.4612 192.51 21.1776C193.136 21.894 193.977 22.9016 194.896 24.0294C195.816 25.1526 196.633 26.1833 197.214 26.9321C197.794 27.6855 198.143 28.1615 198.119 28.18V28.1846Z" fill="#263238"/>
<path d="M200.222 26.3406C200.171 26.3822 198.644 24.6859 196.814 22.5505C194.979 20.4105 193.535 18.6449 193.586 18.6033C193.637 18.5617 195.165 20.258 196.995 22.398C198.829 24.5334 200.274 26.3036 200.222 26.3452V26.3406Z" fill="#263238"/>
<path d="M275.645 30.3809L271.628 26.1973L265.068 32.437L269.084 36.6206L275.645 30.3809Z" fill="#263238"/>
<path d="M275.835 34.4946L267.56 25.8745L274.632 19.1494C278.278 21.4558 281.087 24.2937 282.908 27.7695L275.835 34.4946Z" fill="#455A64"/>
<path d="M268.943 27.3162C268.897 27.27 270.499 25.6523 272.524 23.7064C274.549 21.7605 276.225 20.2214 276.271 20.2676C276.318 20.3138 274.716 21.9316 272.691 23.8774C270.666 25.8233 268.99 27.3625 268.943 27.3162Z" fill="#263238"/>
<path d="M270.522 28.9617C270.499 28.9386 270.912 28.5272 271.6 27.8801C272.282 27.2331 273.239 26.3502 274.303 25.3842C275.343 24.446 276.285 23.6001 277.038 22.9207C277.354 22.6387 277.632 22.3938 277.869 22.1812C278.069 22.0055 278.166 21.9131 278.18 21.9131C278.273 21.9963 276.592 23.6279 274.465 25.5599C273.402 26.5259 272.426 27.3902 271.711 28.0049C270.996 28.6197 270.541 28.9848 270.522 28.9617Z" fill="#263238"/>
<path d="M272.622 31.1484C272.599 31.1253 273.017 30.7093 273.713 30.0576C274.41 29.4059 275.381 28.5185 276.458 27.5478C277.517 26.605 278.473 25.7545 279.24 25.0797C279.565 24.7977 279.848 24.5528 280.094 24.3448C280.303 24.1691 280.396 24.0906 280.419 24.0859C280.461 24.1137 280.043 24.5528 279.36 25.2091C278.673 25.87 277.707 26.7621 276.625 27.7327C275.543 28.7034 274.559 29.5723 273.834 30.1917C273.11 30.811 272.65 31.1808 272.627 31.153L272.622 31.1484Z" fill="#263238"/>
<path d="M274.586 33.1353C274.539 33.089 276.165 31.4806 278.213 29.5485C280.261 27.6165 281.96 26.0866 282.007 26.1329C282.053 26.1791 280.428 27.7875 278.38 29.7196C276.332 31.6516 274.632 33.1815 274.586 33.1353Z" fill="#263238"/>
<path d="M238.567 10.4043H231.685V21.0951H238.567V10.4043Z" fill="#263238"/>
<path d="M242.259 13.5981H228.081V2.07538C233.045 0.85978 237.782 0.785827 242.259 2.07538V13.5981Z" fill="#462682"/>
<path d="M242.427 2.12662C242.427 2.12662 242.245 2.23293 241.902 2.38545C241.563 2.5426 241.052 2.73211 240.406 2.93086C239.766 3.13423 238.985 3.32373 238.108 3.47164C237.23 3.6103 236.25 3.70736 235.224 3.7166C234.193 3.7166 233.218 3.62878 232.335 3.49937C231.458 3.35608 230.673 3.17582 230.032 2.97708C229.386 2.78295 228.876 2.59807 228.532 2.44554C228.188 2.29764 227.998 2.20982 228.007 2.19133C228.026 2.14973 228.787 2.46865 230.078 2.8153C230.719 2.99094 231.499 3.15271 232.368 3.28213C233.241 3.39768 234.207 3.47626 235.219 3.47626C236.236 3.46701 237.197 3.37919 238.071 3.2544C238.939 3.11574 239.714 2.94934 240.355 2.76908C241.642 2.41319 242.403 2.08502 242.422 2.12662H242.427Z" fill="#263238"/>
<path d="M232.762 13.5655C232.697 13.5655 232.642 11.3516 232.642 8.62456C232.642 5.89755 232.697 3.68359 232.762 3.68359C232.827 3.68359 232.883 5.89755 232.883 8.62456C232.883 11.3516 232.827 13.5655 232.762 13.5655Z" fill="#263238"/>
<path d="M235.461 13.6352C235.396 13.6352 235.34 11.412 235.34 8.67111C235.34 5.93023 235.396 3.70703 235.461 3.70703C235.526 3.70703 235.581 5.93023 235.581 8.67111C235.581 11.412 235.526 13.6352 235.461 13.6352Z" fill="#263238"/>
<path d="M238.159 13.5893C238.094 13.5893 238.038 11.3661 238.038 8.62521C238.038 5.88434 238.094 3.66113 238.159 3.66113C238.224 3.66113 238.28 5.88434 238.28 8.62521C238.28 11.3661 238.224 13.5893 238.159 13.5893Z" fill="#263238"/>
<path d="M240.407 13.5888C240.342 13.5888 240.286 11.1854 240.286 8.22264C240.286 5.25991 240.342 2.85645 240.407 2.85645C240.472 2.85645 240.528 5.25991 240.528 8.22264C240.528 11.1854 240.472 13.5888 240.407 13.5888Z" fill="#263238"/>
<path d="M230.213 13.5195C230.148 13.5195 230.092 11.116 230.092 8.1533C230.092 5.19057 230.148 2.78711 230.213 2.78711C230.278 2.78711 230.333 5.19057 230.333 8.1533C230.333 11.116 230.278 13.5195 230.213 13.5195Z" fill="#263238"/>
<path d="M269.705 102.869C289.261 83.4053 289.261 51.8486 269.705 32.3851C250.15 12.9216 218.444 12.9216 198.888 32.3851C179.332 51.8486 179.332 83.4053 198.888 102.869C218.444 122.332 250.15 122.332 269.705 102.869Z" fill="#462682"/>
<path d="M234.29 109.089C257.516 109.089 276.345 90.3493 276.345 67.2322C276.345 44.1151 257.516 25.375 234.29 25.375C211.063 25.375 192.234 44.1151 192.234 67.2322C192.234 90.3493 211.063 109.089 234.29 109.089Z" fill="#FAFAFA"/>
<path d="M276.35 67.2319C276.35 67.2319 276.336 67.0008 276.322 66.5525C276.294 66.1041 276.313 65.4339 276.234 64.565C276.127 62.8179 275.834 60.2434 275.036 57.0126C274.608 55.4087 274.084 53.6292 273.308 51.7619C272.547 49.89 271.613 47.8933 270.383 45.8734C267.949 41.8338 264.462 37.6046 259.711 33.9994C257.347 32.1922 254.654 30.5699 251.691 29.2295C248.728 27.8891 245.491 26.8168 242.041 26.1974C238.595 25.5642 234.945 25.3146 231.22 25.6058C229.354 25.7167 227.482 26.0171 225.597 26.3869C223.72 26.789 221.844 27.3252 219.987 27.9769C212.584 30.6438 205.554 35.6264 200.487 42.5363C199.205 44.2465 198.081 46.0953 197.069 48.0135C196.554 48.9702 196.112 49.9686 195.662 50.9669C195.258 51.9838 194.84 53.0006 194.506 54.0498C193.818 56.1436 193.247 58.2975 192.908 60.5068C192.56 62.7162 192.374 64.9625 192.36 67.2227C192.374 69.4875 192.56 71.7338 192.908 73.9431C193.247 76.1525 193.818 78.311 194.506 80.4047C194.84 81.4586 195.258 82.4754 195.662 83.4923C196.112 84.4906 196.554 85.489 197.069 86.4458C198.081 88.3639 199.205 90.2127 200.487 91.9275C205.554 98.8375 212.589 103.82 219.991 106.487C221.849 107.143 223.72 107.679 225.601 108.082C227.482 108.451 229.358 108.756 231.225 108.863C234.949 109.154 238.6 108.904 242.045 108.271C245.496 107.652 248.737 106.575 251.695 105.239C254.658 103.899 257.347 102.276 259.715 100.469C264.466 96.8638 267.954 92.6347 270.387 88.595C271.618 86.5752 272.556 84.5784 273.313 82.7065C274.088 80.8346 274.608 79.0597 275.036 77.4559C275.834 74.2297 276.127 71.6506 276.234 69.9035C276.313 69.0299 276.294 68.3643 276.322 67.916C276.336 67.4676 276.35 67.2365 276.35 67.2365C276.35 67.2365 276.35 67.4676 276.345 67.916C276.327 68.3643 276.35 69.0345 276.28 69.9081C276.192 71.6552 275.913 74.2389 275.124 77.479C274.701 79.0875 274.186 80.8716 273.415 82.7527C272.658 84.6339 271.729 86.6399 270.499 88.669C268.07 92.7271 264.582 96.9794 259.818 100.608C257.445 102.429 254.746 104.06 251.77 105.41C248.798 106.76 245.547 107.846 242.078 108.47C238.618 109.112 234.949 109.366 231.206 109.08C229.33 108.969 227.445 108.669 225.555 108.299C223.665 107.897 221.784 107.361 219.912 106.704C212.468 104.028 205.391 99.0223 200.292 92.0754C199.001 90.356 197.872 88.4979 196.851 86.5659C196.331 85.6045 195.89 84.6016 195.434 83.5986C195.026 82.5771 194.608 81.551 194.269 80.4972C193.577 78.3895 193.006 76.2218 192.662 73.9986C192.309 71.78 192.128 69.5152 192.109 67.2412C192.123 64.9671 192.309 62.7069 192.662 60.4837C193.006 58.2605 193.577 56.0928 194.269 53.9898C194.603 52.9313 195.026 51.9098 195.434 50.8884C195.89 49.8854 196.331 48.8824 196.851 47.921C197.872 45.989 199.001 44.1309 200.292 42.4115C205.391 35.4646 212.464 30.4589 219.908 27.7828C221.775 27.1264 223.66 26.5857 225.546 26.1882C227.44 25.8184 229.321 25.5133 231.197 25.407C234.94 25.1205 238.604 25.3747 242.069 26.0125C245.538 26.6365 248.788 27.7227 251.76 29.0723C254.737 30.422 257.435 32.0582 259.808 33.8746C264.573 37.5029 268.065 41.7552 270.494 45.8134C271.725 47.8424 272.658 49.8484 273.41 51.7296C274.181 53.6061 274.697 55.3902 275.119 57.0033C275.909 60.2434 276.183 62.8271 276.276 64.5742C276.345 65.4478 276.322 66.118 276.341 66.5663C276.35 67.0147 276.345 67.2458 276.345 67.2458L276.35 67.2319Z" fill="#263238"/>
<path d="M270.178 65.7121C268.845 65.7675 267.758 65.7167 267.749 65.6011C267.744 65.4856 268.822 65.3284 270.155 65.2499C271.487 65.1759 272.574 65.2268 272.583 65.3608C272.588 65.4995 271.515 65.6566 270.178 65.7121Z" fill="#263238"/>
<path d="M269.282 75.3489C267.982 75.0438 266.946 74.7064 266.974 74.5955C267.002 74.4799 268.079 74.6186 269.384 74.9005C270.689 75.1825 271.72 75.5199 271.692 75.6539C271.66 75.788 270.582 75.6539 269.282 75.3489Z" fill="#263238"/>
<path d="M265.813 84.3895C264.642 83.747 263.737 83.1461 263.792 83.0445C263.848 82.9428 264.851 83.3634 266.031 83.9827C267.21 84.6067 268.116 85.2076 268.046 85.3277C267.981 85.4479 266.978 85.0273 265.808 84.3895H265.813Z" fill="#263238"/>
<path d="M260.032 92.173C259.075 91.244 258.364 90.4212 258.448 90.338C258.532 90.2548 259.382 90.925 260.352 91.8402C261.323 92.7554 262.033 93.5735 261.936 93.6751C261.838 93.7722 260.988 93.102 260.032 92.173Z" fill="#263238"/>
<path d="M252.368 98.1362C251.695 96.9853 251.235 96.0054 251.337 95.9453C251.44 95.8852 252.08 96.7588 252.768 97.9004C253.455 99.0375 253.919 100.017 253.799 100.091C253.678 100.161 253.037 99.287 252.368 98.1362Z" fill="#263238"/>
<path d="M243.383 101.829C243.048 100.54 242.867 99.4718 242.983 99.4441C243.1 99.4118 243.476 100.429 243.833 101.709C244.186 102.989 244.367 104.057 244.233 104.094C244.098 104.131 243.717 103.114 243.383 101.829Z" fill="#263238"/>
<path d="M233.728 102.98C233.751 101.648 233.863 100.572 233.979 100.576C234.095 100.576 234.192 101.658 234.192 102.984C234.192 104.315 234.076 105.392 233.942 105.388C233.802 105.388 233.709 104.306 233.728 102.98Z" fill="#263238"/>
<path d="M224.111 101.528C224.492 100.252 224.891 99.2448 225.007 99.2771C225.123 99.3095 224.924 100.373 224.561 101.653C224.199 102.933 223.8 103.941 223.665 103.899C223.53 103.862 223.73 102.795 224.111 101.523V101.528Z" fill="#263238"/>
<path d="M215.25 97.5485C215.961 96.4207 216.62 95.561 216.718 95.6211C216.82 95.6812 216.337 96.6518 215.645 97.7889C214.953 98.9259 214.294 99.7856 214.178 99.7163C214.061 99.6423 214.54 98.6717 215.25 97.5485Z" fill="#263238"/>
<path d="M207.778 91.3549C208.763 90.4582 209.631 89.8019 209.71 89.8897C209.789 89.9775 209.065 90.7864 208.094 91.6969C207.124 92.6075 206.255 93.2638 206.162 93.1621C206.069 93.0604 206.794 92.2516 207.778 91.3549Z" fill="#263238"/>
<path d="M202.243 83.3961C203.436 82.7953 204.444 82.3932 204.5 82.4995C204.556 82.6058 203.641 83.1882 202.456 83.8075C201.272 84.4269 200.265 84.829 200.2 84.7042C200.135 84.5794 201.049 83.997 202.243 83.3961Z" fill="#263238"/>
<path d="M199.066 74.2538C200.375 73.995 201.457 73.8795 201.48 73.995C201.504 74.1106 200.463 74.4295 199.159 74.7068C197.854 74.9841 196.772 75.0997 196.744 74.9656C196.716 74.8316 197.756 74.5127 199.066 74.2538Z" fill="#263238"/>
<path d="M198.467 64.5888C199.8 64.6858 200.872 64.8615 200.863 64.977C200.854 65.0926 199.767 65.1249 198.434 65.0463C197.102 64.9678 196.029 64.7921 196.038 64.6581C196.047 64.5194 197.134 64.4871 198.467 64.5888Z" fill="#263238"/>
<path d="M200.487 55.1228C201.745 55.5757 202.73 56.0333 202.688 56.1443C202.651 56.2552 201.592 55.9917 200.329 55.5619C199.066 55.1274 198.081 54.6745 198.128 54.545C198.174 54.4156 199.228 54.6744 200.487 55.1274V55.1228Z" fill="#263238"/>
<path d="M204.996 46.5489C206.083 47.3208 206.909 48.0234 206.844 48.1204C206.775 48.2175 205.832 47.6813 204.731 46.9279C203.631 46.1745 202.804 45.472 202.883 45.3564C202.962 45.2455 203.909 45.777 204.996 46.5489Z" fill="#263238"/>
<path d="M211.642 39.4816C212.482 40.5124 213.09 41.409 213.002 41.4876C212.909 41.5616 212.143 40.7989 211.284 39.7775C210.425 38.7606 209.816 37.8593 209.923 37.7715C210.03 37.6837 210.801 38.4509 211.642 39.4816Z" fill="#263238"/>
<path d="M219.945 34.4488C220.479 35.6691 220.822 36.6952 220.711 36.7414C220.604 36.7876 220.07 35.8447 219.517 34.6337C218.965 33.4228 218.621 32.3967 218.751 32.3412C218.877 32.2857 219.411 33.2286 219.945 34.4488Z" fill="#263238"/>
<path d="M229.307 31.828C229.488 33.1453 229.544 34.2268 229.427 34.2453C229.311 34.2638 229.051 33.21 228.847 31.8973C228.643 30.5847 228.592 29.5031 228.726 29.4846C228.861 29.4661 229.121 30.5153 229.302 31.8326L229.307 31.828Z" fill="#263238"/>
<path d="M239.032 31.7909C238.855 33.1082 238.619 34.1666 238.502 34.1527C238.386 34.1389 238.419 33.0573 238.572 31.7354C238.73 30.4135 238.967 29.3597 239.101 29.3782C239.236 29.3967 239.208 30.4782 239.032 31.7955V31.7909Z" fill="#263238"/>
<path d="M248.408 34.3513C247.878 35.5715 247.363 36.5283 247.256 36.4821C247.149 36.4359 247.469 35.4051 247.98 34.1757C248.487 32.9462 249.002 31.9941 249.132 32.0449C249.257 32.1004 248.937 33.1311 248.408 34.3513Z" fill="#263238"/>
<path d="M256.748 39.3298C255.912 40.3651 255.16 41.1462 255.067 41.0769C254.974 41.0029 255.564 40.0924 256.386 39.0432C257.208 37.994 257.96 37.2129 258.067 37.3007C258.174 37.3839 257.584 38.2944 256.748 39.3298Z" fill="#263238"/>
<path d="M263.449 46.3453C262.363 47.1218 261.429 47.6764 261.36 47.5793C261.29 47.4823 262.103 46.7659 263.175 45.9709C264.248 45.1805 265.182 44.6259 265.265 44.7368C265.349 44.8477 264.536 45.5687 263.449 46.3453Z" fill="#263238"/>
<path d="M268.014 54.8875C266.761 55.3451 265.711 55.627 265.669 55.5161C265.627 55.4051 266.607 54.9291 267.852 54.453C269.096 53.9769 270.151 53.695 270.197 53.8244C270.244 53.9538 269.268 54.4299 268.014 54.8875Z" fill="#263238"/>
<path d="M270.095 64.3389C268.762 64.4452 267.675 64.4359 267.666 64.3158C267.657 64.1956 268.725 64.0015 270.058 63.8767C271.386 63.7519 272.473 63.7611 272.486 63.8998C272.5 64.0384 271.428 64.2326 270.099 64.3389H270.095Z" fill="#263238"/>
<path d="M217.962 21.9452C217.962 21.9452 217.916 21.9729 217.818 22.0099C217.712 22.0515 217.568 22.1116 217.391 22.1809C217.02 22.3381 216.453 22.5276 215.747 22.8373C214.326 23.4196 212.306 24.3533 209.933 25.726C208.744 26.4101 207.481 27.2282 206.162 28.148C204.862 29.0955 203.487 30.1401 202.136 31.3464C199.415 33.736 196.712 36.6895 194.334 40.1237C191.984 43.5764 190.196 47.1538 188.952 50.5464C188.311 52.2381 187.837 53.8881 187.419 55.4412C187.039 57.0034 186.727 58.4686 186.523 59.8182C186.101 62.5175 185.961 64.7315 185.933 66.2614C185.896 67.024 185.929 67.6202 185.915 68.0224C185.915 68.2119 185.915 68.3644 185.91 68.4799C185.91 68.5816 185.905 68.6371 185.901 68.6371C185.896 68.6371 185.892 68.5863 185.887 68.4799C185.882 68.3644 185.878 68.2119 185.868 68.0224C185.864 67.6202 185.817 67.024 185.84 66.2567C185.84 64.7268 185.957 62.5036 186.356 59.7905C186.551 58.4316 186.853 56.9618 187.229 55.3903C187.638 53.8281 188.107 52.1688 188.743 50.4678C189.987 47.0568 191.775 43.4562 194.139 39.985C196.526 36.537 199.252 33.5696 201.992 31.18C203.353 29.9737 204.737 28.9337 206.051 27.9862C207.384 27.0664 208.651 26.2529 209.854 25.5781C212.25 24.2192 214.284 23.3041 215.719 22.7494C216.43 22.449 217.001 22.278 217.382 22.1347C217.563 22.0746 217.707 22.0238 217.818 21.9868C217.916 21.9544 217.967 21.9406 217.972 21.9452H217.962Z" fill="white"/>
<path d="M231.941 19.2462C231.941 19.2786 231.388 19.3433 230.492 19.4357C229.596 19.5282 228.356 19.6622 226.995 19.8379C225.63 20.0135 224.399 20.1984 223.508 20.337C222.616 20.4711 222.063 20.5543 222.059 20.5219C222.054 20.4896 222.593 20.3509 223.48 20.1706C224.367 19.9904 225.597 19.7778 226.967 19.6021C228.337 19.4265 229.582 19.3202 230.483 19.2693C231.384 19.2185 231.946 19.2185 231.946 19.2509L231.941 19.2462Z" fill="white"/>
<g opacity="0.4">
<path d="M200.683 92.3943C200.683 92.3943 222.476 126.625 256.284 109.094C291.573 90.7951 272.078 48.8408 272.078 48.8408C272.078 48.8408 288.685 82.2767 254.283 104.074C245.715 109.505 236.385 109.51 229.271 108.798C211.085 106.986 200.683 92.399 200.683 92.399V92.3943Z" fill="black"/>
</g>
<path d="M246.016 44.9863C246.225 51.1244 246.039 57.2717 245.454 63.3867C245.245 65.596 244.971 67.8377 244.131 69.8945C243.29 71.9513 241.804 73.8371 239.747 74.7061C237.694 75.575 235.047 75.2145 233.612 73.5136L246.012 44.9863H246.016Z" fill="#E0E0E0"/>
<path d="M233.38 63.9325L248.663 38.3125L239.436 67.2326L234.727 68.6377L233.38 63.9325Z" fill="#462682"/>
<g opacity="0.4">
<path d="M248.663 38.3125L237.327 64.4871L239.436 67.2326L248.663 38.3125Z" fill="black"/>
</g>
<path d="M234.727 73.5326C237.443 73.5326 239.644 71.3412 239.644 68.6379C239.644 65.9346 237.443 63.7432 234.727 63.7432C232.01 63.7432 229.809 65.9346 229.809 68.6379C229.809 71.3412 232.01 73.5326 234.727 73.5326Z" fill="#FAFAFA"/>
<path d="M239.645 68.6376C239.612 68.6376 239.64 68.2032 239.445 67.4544C239.254 66.7195 238.758 65.6472 237.648 64.8152C237.1 64.4085 236.408 64.0664 235.614 63.9278C234.824 63.7937 233.933 63.8215 233.087 64.145C232.66 64.2929 232.251 64.5148 231.871 64.7967C231.49 65.0741 231.142 65.4161 230.858 65.8136C230.268 66.5947 229.934 67.6023 229.925 68.6376C229.934 69.673 230.268 70.6806 230.858 71.4617C231.142 71.8592 231.49 72.2012 231.871 72.4786C232.247 72.7605 232.66 72.9824 233.087 73.1303C233.933 73.4538 234.824 73.4816 235.614 73.3475C236.408 73.2088 237.1 72.8668 237.648 72.4601C238.758 71.6281 239.25 70.5512 239.445 69.8209C239.64 69.0721 239.612 68.633 239.645 68.6376C239.645 68.6376 239.705 69.0767 239.538 69.844C239.371 70.5974 238.888 71.7159 237.754 72.5987C237.193 73.0286 236.477 73.3937 235.651 73.5463C234.829 73.6942 233.9 73.671 233.008 73.3429C232.563 73.1904 232.131 72.9593 231.731 72.6635C231.332 72.3769 230.965 72.0164 230.663 71.6004C230.041 70.7823 229.688 69.7238 229.679 68.6376C229.688 67.5515 230.041 66.493 230.663 65.6749C230.965 65.2589 231.327 64.903 231.731 64.6118C232.126 64.3207 232.558 64.0849 233.008 63.9324C233.895 63.5996 234.829 63.5811 235.646 63.729C236.473 63.8816 237.188 64.2467 237.75 64.6766C238.883 65.5547 239.366 66.6733 239.533 67.4313C239.705 68.1986 239.64 68.6376 239.64 68.6376H239.645Z" fill="#263238"/>
<path d="M238.328 69.3648C238.728 67.3932 237.447 65.4717 235.466 65.0731C233.485 64.6745 231.554 65.9496 231.154 67.9213C230.753 69.8929 232.035 71.8144 234.016 72.213C235.996 72.6116 237.927 71.3364 238.328 69.3648Z" fill="#455A64"/>
<path d="M195.955 186.12H220.15L208.87 89.3574L195.955 186.12Z" fill="#E0E0E0"/>
<path d="M76.9035 89.3574L61.1514 187.262L195.569 188.999L208.87 89.3574H76.9035Z" fill="#FAFAFA"/>
<path d="M202.883 134.209H69.6865L72.5843 116.179H205.289L202.883 134.209Z" fill="#EBEBEB"/>
<path d="M202.893 134.224H69.6729V134.21L72.5753 116.17H205.303V116.184L202.893 134.224ZM69.7007 134.201H202.874L205.28 116.193H72.5939L69.6961 134.201H69.7007Z" fill="#263238"/>
<path d="M76.9038 89.3574L72.585 116.179H205.289L208.87 89.3574H76.9038Z" fill="#462682"/>
<path d="M76.9035 89.3573C77.8648 89.3573 130.661 89.3111 208.874 89.251H209L208.981 89.3758C205.089 118.545 200.678 151.625 196.02 186.563L196.006 186.67H194.385C144.746 186.661 98.7531 186.656 61.2675 186.647H61.1514L61.1699 186.531C70.6993 127.688 76.7735 90.1615 76.9035 89.3573C76.7735 90.1615 70.7736 127.702 61.365 186.559L61.2675 186.443C98.7531 186.439 144.746 186.429 194.385 186.42H195.899L195.778 186.527C200.446 151.588 204.867 118.509 208.763 89.3388L208.87 89.4636C130.657 89.3989 77.8602 89.3573 76.8989 89.3573H76.9035Z" fill="#263238"/>
<path d="M205.289 116.179C205.289 116.243 175.582 116.299 138.942 116.299C102.301 116.299 72.585 116.243 72.585 116.179C72.585 116.114 102.287 116.059 138.942 116.059C175.596 116.059 205.289 116.114 205.289 116.179Z" fill="#263238"/>
<path d="M202.884 134.21C202.884 134.275 173.009 134.33 136.16 134.33C99.3106 134.33 69.4316 134.275 69.4316 134.21C69.4316 134.145 99.3013 134.09 136.16 134.09C173.019 134.09 202.884 134.145 202.884 134.21Z" fill="#263238"/>
<path d="M200.172 150.798C200.172 150.863 170.298 150.918 133.448 150.918C96.5987 150.918 66.7197 150.863 66.7197 150.798C66.7197 150.733 96.5894 150.678 133.448 150.678C170.307 150.678 200.172 150.733 200.172 150.798Z" fill="#263238"/>
<path d="M197.464 167.387C197.464 167.451 167.59 167.507 130.74 167.507C93.8907 167.507 64.0117 167.451 64.0117 167.387C64.0117 167.322 93.8814 167.267 130.74 167.267C167.599 167.267 197.464 167.322 197.464 167.387Z" fill="#263238"/>
<path d="M80.0198 186.693C79.9548 186.683 82.3929 170.89 85.4671 151.417C88.5414 131.94 91.0909 116.165 91.1559 116.179C91.2209 116.188 88.7829 131.981 85.7086 151.454C82.6343 170.922 80.0895 186.702 80.0198 186.693Z" fill="#263238"/>
<path d="M100.56 186.693C100.495 186.683 102.933 170.89 106.007 151.417C109.081 131.94 111.631 116.165 111.696 116.179C111.761 116.188 109.323 131.981 106.249 151.454C103.174 170.922 100.63 186.702 100.56 186.693Z" fill="#263238"/>
<path d="M119.642 185.99C119.577 185.981 121.992 170.345 125.033 151.071C128.08 131.792 130.602 116.174 130.667 116.184C130.732 116.193 128.317 131.829 125.275 151.108C122.233 170.382 119.712 186 119.642 185.99Z" fill="#263238"/>
<path d="M138.524 186.545C138.459 186.535 140.892 170.774 143.962 151.343C147.031 131.908 149.572 116.165 149.637 116.179C149.702 116.188 147.268 131.949 144.199 151.38C141.129 170.807 138.589 186.554 138.524 186.545Z" fill="#263238"/>
<path d="M157.494 186.545C157.429 186.535 159.863 170.774 162.932 151.343C166.002 131.908 168.542 116.165 168.607 116.179C168.672 116.188 166.239 131.949 163.169 151.38C160.1 170.807 157.559 186.554 157.494 186.545Z" fill="#263238"/>
<path d="M176.45 186.651C176.385 186.642 178.823 170.858 181.893 151.399C184.967 131.936 187.512 116.17 187.577 116.184C187.642 116.193 185.204 131.977 182.129 151.441C179.055 170.899 176.51 186.665 176.445 186.656L176.45 186.651Z" fill="#263238"/>
<g opacity="0.2">
<path d="M164.516 117.441C166.805 116.433 168.231 114.067 168.825 111.645C169.42 109.223 169.322 106.704 169.406 104.217C169.49 101.731 169.791 99.1562 171.073 97.0208C171.83 95.7543 172.894 94.7051 173.734 93.4941C174.575 92.2832 175.197 90.7995 174.886 89.3574L160.592 89.4314L164.516 117.446V117.441Z" fill="black"/>
</g>
<path d="M105.227 135.546C105.227 135.546 105.185 135.61 105.088 135.712C104.972 135.832 104.828 135.98 104.656 136.156C104.28 136.539 103.722 137.085 103.03 137.75C101.647 139.086 99.7008 140.893 97.4949 142.83C95.2891 144.767 93.2457 146.463 91.7411 147.665C90.9888 148.266 90.3758 148.746 89.9486 149.07C89.7535 149.218 89.5863 149.338 89.4517 149.44C89.3356 149.523 89.2752 149.564 89.2659 149.555C89.2613 149.55 89.3124 149.495 89.4192 149.403C89.5492 149.292 89.7024 149.158 89.8882 148.996C90.3294 148.626 90.9191 148.132 91.6297 147.531C93.1018 146.297 95.1265 144.582 97.3277 142.645C99.529 140.709 101.489 138.924 102.905 137.621C103.592 136.992 104.154 136.47 104.582 136.082C104.763 135.92 104.916 135.781 105.041 135.67C105.148 135.578 105.208 135.532 105.213 135.536L105.227 135.546Z" fill="#263238"/>
<path d="M104.177 149.744C104.177 149.744 103.968 149.559 103.62 149.199C103.248 148.806 102.761 148.284 102.166 147.66C100.912 146.329 99.2359 144.545 97.3783 142.576C95.5022 140.62 93.8071 138.855 92.5393 137.533C91.9403 136.909 91.448 136.396 91.0719 136.003C90.7282 135.638 90.5425 135.435 90.5564 135.421C90.5703 135.407 90.7747 135.592 91.1369 135.938C91.4991 136.28 92.0192 136.784 92.6554 137.413C93.9279 138.67 95.6647 140.431 97.5455 142.409C99.4263 144.387 101.093 146.209 102.287 147.544C102.881 148.21 103.36 148.755 103.685 149.139C104.01 149.518 104.182 149.735 104.172 149.744H104.177Z" fill="#263238"/>
<path d="M109.136 139.793C109.136 139.793 109.183 139.673 109.28 139.437C109.383 139.206 109.554 138.864 109.838 138.457C110.4 137.657 111.482 136.548 113.279 135.901C113.725 135.739 114.212 135.61 114.732 135.541C115.252 135.457 115.81 135.448 116.386 135.499C117.537 135.591 118.763 135.998 119.915 136.696C121.067 137.394 122.139 138.411 122.957 139.7C123.755 140.985 124.341 142.58 124.229 144.29C124.173 145.141 123.909 146 123.435 146.758C122.961 147.516 122.302 148.177 121.522 148.686C119.961 149.702 118.002 150.216 116.005 150.114C115.006 150.058 113.994 149.85 113.033 149.471C112.071 149.088 111.157 148.51 110.432 147.72C110.075 147.318 109.773 146.865 109.536 146.375C109.304 145.88 109.15 145.353 109.062 144.808C108.895 143.717 109.02 142.585 109.35 141.512C110.023 139.368 111.57 137.44 113.65 136.312C115.712 135.148 118.378 135.009 120.639 135.994C121.773 136.47 122.799 137.237 123.57 138.226C124.345 139.215 124.8 140.435 124.954 141.692C125.107 142.95 124.916 144.262 124.35 145.427C124.067 146.005 123.695 146.546 123.245 147.017C122.79 147.484 122.274 147.886 121.712 148.214C119.437 149.513 116.65 149.684 114.245 148.912C113.037 148.528 111.909 147.905 110.994 147.045C110.079 146.194 109.415 145.067 109.183 143.856C108.937 142.654 109.081 141.364 109.67 140.292C109.963 139.756 110.372 139.289 110.85 138.924C111.328 138.554 111.872 138.286 112.434 138.092C113.557 137.708 114.742 137.616 115.889 137.639C117.036 137.667 118.173 137.796 119.26 138.11C120.338 138.42 121.373 138.915 122.186 139.673C122.999 140.421 123.551 141.424 123.76 142.474C123.978 143.523 123.899 144.609 123.579 145.593C123.254 146.583 122.673 147.456 121.958 148.159C120.523 149.564 118.61 150.336 116.752 150.414C115.824 150.456 114.9 150.326 114.059 150.021C113.218 149.712 112.461 149.226 111.886 148.593C111.3 147.969 110.883 147.23 110.627 146.462C110.362 145.7 110.256 144.905 110.288 144.142C110.335 142.603 111.027 141.23 111.932 140.241C112.842 139.243 113.961 138.586 115.057 138.231C116.158 137.861 117.24 137.828 118.178 137.935C120.073 138.175 121.387 138.956 122.177 139.539C122.576 139.834 122.855 140.093 123.036 140.269C123.212 140.449 123.3 140.546 123.3 140.546C123.3 140.546 123.203 140.463 123.017 140.287C122.831 140.116 122.548 139.867 122.144 139.576C121.35 139.012 120.036 138.249 118.164 138.027C117.235 137.93 116.172 137.972 115.09 138.337C114.013 138.697 112.917 139.349 112.03 140.329C111.143 141.3 110.479 142.64 110.437 144.142C110.409 144.886 110.511 145.663 110.776 146.407C111.031 147.151 111.44 147.872 112.006 148.473C112.564 149.083 113.297 149.555 114.115 149.85C114.932 150.142 115.833 150.266 116.739 150.225C118.55 150.146 120.421 149.384 121.814 148.011C122.506 147.327 123.068 146.481 123.379 145.524C123.69 144.572 123.76 143.523 123.551 142.511C123.347 141.498 122.822 140.542 122.037 139.825C121.257 139.1 120.254 138.619 119.195 138.318C118.136 138.013 117.013 137.884 115.879 137.861C114.751 137.838 113.59 137.935 112.503 138.309C111.421 138.67 110.423 139.381 109.875 140.403C109.318 141.415 109.178 142.649 109.415 143.809C109.638 144.974 110.27 146.051 111.157 146.874C112.039 147.701 113.139 148.311 114.314 148.686C116.66 149.439 119.386 149.273 121.587 148.011C122.13 147.692 122.632 147.304 123.068 146.855C123.5 146.402 123.858 145.885 124.132 145.33C124.675 144.216 124.861 142.945 124.712 141.729C124.568 140.514 124.122 139.335 123.379 138.383C122.636 137.431 121.647 136.687 120.547 136.225C118.35 135.272 115.773 135.402 113.762 136.53C111.737 137.625 110.223 139.506 109.564 141.591C109.239 142.635 109.118 143.735 109.28 144.785C109.359 145.307 109.513 145.82 109.731 146.291C109.958 146.763 110.246 147.197 110.59 147.586C111.287 148.353 112.174 148.912 113.112 149.291C114.05 149.666 115.039 149.869 116.019 149.929C117.974 150.035 119.901 149.536 121.424 148.547C122.952 147.572 123.978 145.963 124.067 144.299C124.183 142.64 123.621 141.073 122.836 139.802C122.037 138.526 120.983 137.523 119.855 136.83C118.721 136.137 117.519 135.73 116.386 135.633C115.819 135.582 115.271 135.587 114.756 135.665C114.24 135.73 113.757 135.855 113.316 136.012C111.533 136.636 110.451 137.722 109.879 138.508C109.592 138.905 109.41 139.238 109.304 139.469C109.197 139.7 109.136 139.816 109.136 139.816V139.793Z" fill="#462682"/>
<path d="M121.717 152.554C121.759 152.605 118.076 155.739 113.488 159.552C108.9 163.365 105.143 166.416 105.101 166.365C105.059 166.314 108.742 163.18 113.33 159.367C117.918 155.554 121.67 152.503 121.717 152.554Z" fill="#263238"/>
<path d="M122.521 165.959C122.521 165.959 122.288 165.815 121.903 165.52C121.485 165.196 120.937 164.766 120.273 164.249C118.903 163.167 117.022 161.665 114.951 159.992C112.88 158.318 111.013 156.793 109.671 155.679C109.025 155.139 108.496 154.69 108.087 154.353C107.716 154.034 107.516 153.854 107.53 153.84C107.539 153.826 107.762 153.983 108.148 154.279C108.566 154.602 109.114 155.032 109.778 155.55C111.148 156.631 113.028 158.134 115.1 159.807C117.171 161.48 119.033 163.005 120.375 164.119C121.021 164.66 121.55 165.108 121.959 165.446C122.33 165.765 122.53 165.945 122.516 165.959H122.521Z" fill="#263238"/>
<path d="M160.485 152.73C160.527 152.786 157.002 155.466 152.613 158.725C148.225 161.984 144.64 164.581 144.598 164.53C144.556 164.475 148.081 161.794 152.469 158.536C156.853 155.277 160.443 152.679 160.485 152.73Z" fill="#263238"/>
<path d="M161.85 164.106C161.812 164.161 158.074 161.85 153.495 158.948C148.916 156.04 145.234 153.641 145.271 153.586C145.308 153.53 149.046 155.837 153.625 158.744C158.204 161.647 161.887 164.05 161.85 164.106Z" fill="#263238"/>
<path d="M122.321 186.554C122.274 186.508 125.934 182.695 130.494 178.036C135.054 173.377 138.793 169.638 138.839 169.684C138.886 169.73 135.231 173.543 130.666 178.207C126.106 182.866 122.367 186.605 122.321 186.559V186.554Z" fill="#462682"/>
<path d="M137.79 186.545C137.79 186.545 137.729 186.494 137.641 186.388C137.534 186.254 137.404 186.097 137.246 185.903C136.884 185.45 136.401 184.849 135.816 184.114C134.599 182.612 132.886 180.564 130.894 178.387C128.901 176.21 127.011 174.32 125.618 172.975C124.94 172.328 124.383 171.792 123.96 171.39C123.784 171.219 123.635 171.075 123.514 170.955C123.412 170.853 123.366 170.798 123.37 170.793C123.375 170.789 123.435 170.83 123.547 170.923C123.677 171.034 123.835 171.163 124.025 171.325C124.439 171.676 125.024 172.198 125.734 172.855C127.16 174.167 129.073 176.044 131.07 178.226C133.067 180.407 134.767 182.478 135.946 184.012C136.536 184.78 137.005 185.408 137.321 185.847C137.46 186.051 137.581 186.217 137.678 186.36C137.757 186.481 137.794 186.545 137.79 186.55V186.545Z" fill="#462682"/>
<path d="M99.7741 167.11C99.7741 167.11 99.9227 178.466 97.0435 185.265L79.4941 182.289C79.4941 182.289 84.7789 171.529 83.3393 165.548L99.7741 167.11Z" fill="#EBEBEB"/>
<path d="M99.7698 166.685C99.7698 166.685 97.5732 180.611 96.2265 184.761L78.7793 181.336C78.7793 181.336 82.369 167.859 82.318 164.105L99.7698 166.685Z" fill="#462682"/>
<path d="M84.0919 170.354C84.0779 170.419 86.6832 171.02 89.9107 171.695C93.1382 172.369 95.7667 172.869 95.7759 172.804C95.7899 172.739 93.1846 172.138 89.9571 171.464C86.7296 170.789 84.1058 170.29 84.0919 170.354Z" fill="white"/>
<path d="M83.6465 173.303C83.6326 173.368 86.2378 173.969 89.4654 174.644C92.6929 175.319 95.3213 175.818 95.3353 175.753C95.3492 175.688 92.744 175.088 89.5164 174.413C86.2889 173.738 83.6651 173.239 83.6512 173.303H83.6465Z" fill="white"/>
<path d="M86.2002 176.645C86.1956 176.677 86.5578 176.783 87.1569 176.931C87.7559 177.079 88.5826 177.264 89.5021 177.458C90.4216 177.652 91.2575 177.814 91.8612 177.916C92.4695 178.022 92.8457 178.068 92.855 178.04C92.8596 178.008 92.4974 177.902 91.8983 177.754C91.2993 177.606 90.4726 177.421 89.5531 177.227C88.6337 177.033 87.7977 176.871 87.194 176.769C86.5857 176.663 86.2095 176.617 86.2002 176.645Z" fill="white"/>
<path d="M182.794 135.217C182.794 135.217 184.591 146.287 182.771 153.344L165.198 152.97C165.198 152.97 168.793 141.702 166.517 136.067L182.799 135.221L182.794 135.217Z" fill="#EBEBEB"/>
<path d="M182.725 134.806C182.725 134.806 182.604 148.723 181.894 152.97L164.354 152.143C164.354 152.143 165.895 138.462 165.301 134.806H182.72H182.725Z" fill="#455A64"/>
<path d="M167.776 140.994C167.776 141.059 170.414 141.114 173.669 141.119C176.925 141.124 179.567 141.078 179.567 141.013C179.567 140.948 176.929 140.893 173.669 140.888C170.414 140.883 167.776 140.93 167.771 140.994H167.776Z" fill="white"/>
<path d="M167.943 143.939C167.943 144.003 170.581 144.059 173.836 144.063C177.092 144.068 179.734 144.022 179.734 143.957C179.734 143.892 177.096 143.837 173.836 143.832C170.581 143.828 167.943 143.874 167.938 143.939H167.943Z" fill="white"/>
<path d="M171.087 146.657C171.087 146.689 171.463 146.717 172.071 146.74C172.68 146.763 173.52 146.777 174.444 146.777C175.373 146.777 176.214 146.768 176.822 146.745C177.431 146.726 177.807 146.694 177.807 146.666C177.807 146.634 177.431 146.606 176.822 146.583C176.214 146.56 175.373 146.546 174.449 146.546C173.52 146.546 172.68 146.555 172.076 146.578C171.468 146.597 171.092 146.629 171.092 146.657H171.087Z" fill="white"/>
<path d="M186.537 103.312C183.258 103.312 179.957 101.269 178.22 98.0424C176.543 94.9271 176 91.1186 176.734 87.5919C177.7 82.956 180.774 79.1798 184.568 77.9735C187.8 76.9428 193.568 77.5251 196.285 82.0455C198.402 85.5629 198.179 89.2097 198.17 89.3622C198.119 90.1248 197.455 90.7026 196.684 90.6517C195.918 90.6009 195.337 89.94 195.388 89.1773C195.388 89.1218 195.542 86.2053 193.893 83.4691C191.794 79.9794 187.192 80.0442 185.418 80.6127C182.172 81.648 180.087 85.1469 179.46 88.1558C178.856 91.0539 179.297 94.1784 180.672 96.7297C182.042 99.2765 184.814 100.857 187.271 100.478C188.028 100.363 188.743 100.88 188.859 101.638C188.975 102.396 188.455 103.104 187.693 103.219C187.308 103.279 186.922 103.307 186.532 103.307L186.537 103.312Z" fill="#263238"/>
<path d="M96.5751 103.312C93.2965 103.312 89.9947 101.269 88.2579 98.0427C86.5814 94.9274 86.0381 91.1189 86.7718 87.5969C87.5845 83.6959 90.3337 79.2079 94.6433 77.9645C96.6076 77.4006 98.9714 77.5208 100.968 78.2881L99.9652 80.8764C98.2609 80.2201 96.4962 80.3218 95.4141 80.6315C92.2145 81.5512 90.1387 85.0779 89.4932 88.1608C88.8894 91.0588 89.3306 94.1833 90.7052 96.7347C92.0752 99.2814 94.8569 100.862 97.3042 100.483L97.7268 103.224C97.3414 103.284 96.9513 103.312 96.5658 103.312H96.5751Z" fill="#263238"/>
<path d="M185.372 89.4365L184.09 96.4204H202.949L204.621 89.5059L185.372 89.4365Z" fill="#462682"/>
<path d="M101.353 102.211C101.353 103.861 100.011 105.197 98.3535 105.197C96.6956 105.197 95.3535 103.861 95.3535 102.211C95.3535 100.561 96.6956 99.2256 98.3535 99.2256C100.011 99.2256 101.353 100.561 101.353 102.211Z" fill="#263238"/>
<path d="M191.218 102.211C191.218 103.861 189.876 105.197 188.218 105.197C186.56 105.197 185.218 103.861 185.218 102.211C185.218 100.561 186.56 99.2256 188.218 99.2256C189.876 99.2256 191.218 100.561 191.218 102.211Z" fill="#263238"/>
<path d="M141.728 44.4229L136.796 63.0404L119.771 64.8569V67.8659L143.692 68.7024L148.188 47.8154L141.728 44.4229Z" fill="#FFBE9D"/>
<path d="M148.907 69.1964C148.907 69.1964 122.307 67.9345 114.733 73.8369C107.154 79.7392 110.799 89.3623 110.799 89.3623L153.612 89.2514L157.387 67.6572L148.907 69.201V69.1964Z" fill="#263238"/>
<path d="M153.431 83.4459C153.431 83.4459 153.296 83.4459 153.05 83.4181C152.799 83.3904 152.432 83.3534 151.959 83.2933C151.011 83.1778 149.646 82.9837 147.965 82.7017C144.603 82.1425 139.982 81.1764 134.985 79.7159C132.487 78.981 130.128 78.2368 127.945 77.7007C125.762 77.1738 123.756 76.8317 122.061 76.767C120.366 76.6931 118.987 76.8132 118.053 76.9935C117.58 77.0536 117.227 77.1691 116.981 77.2107C116.735 77.2616 116.604 77.2893 116.604 77.2801C116.604 77.2708 116.73 77.2338 116.971 77.1645C117.217 77.109 117.566 76.975 118.039 76.9011C118.973 76.6931 120.361 76.5452 122.07 76.596C123.784 76.6422 125.804 76.9658 128.001 77.4834C130.197 78.0103 132.566 78.7499 135.059 79.4848C140.047 80.9407 144.649 81.9298 148.002 82.5353C149.678 82.8404 151.039 83.0576 151.982 83.2055C152.437 83.2749 152.795 83.3349 153.064 83.3765C153.31 83.4181 153.44 83.4413 153.44 83.4505L153.431 83.4459Z" fill="#455A64"/>
<path d="M128.706 77.5718C128.651 77.6273 127.759 76.6659 126.347 75.9402C124.945 75.1961 123.644 75.0158 123.658 74.9373C123.658 74.9095 123.993 74.9142 124.513 75.0205C125.033 75.1268 125.739 75.3486 126.459 75.723C127.178 76.102 127.764 76.5504 128.149 76.9155C128.534 77.2806 128.725 77.5441 128.706 77.5672V77.5718Z" fill="#455A64"/>
<path d="M151.721 126.741L152.079 137.871L149.813 146.755C149.65 147.397 150.064 148.04 150.718 148.16C151.085 148.224 151.457 148.114 151.721 147.855C153.412 146.209 159.607 140.127 159.537 139.313C159.454 138.37 159.941 127.55 159.941 127.55L151.721 126.741Z" fill="#462682"/>
<g opacity="0.6">
<path d="M150.714 148.16L159.528 138.564V139.036C159.537 139.443 159.398 139.84 159.133 140.154C158.432 140.991 156.44 143.26 151.754 147.859C151.48 148.127 151.09 148.243 150.714 148.164V148.16Z" fill="white"/>
</g>
<g opacity="0.6">
<path d="M157.201 134.991C156.922 135.186 156.834 135.611 157.02 135.893C157.206 136.179 157.638 136.272 157.916 136.078C158.199 135.888 158.32 135.384 158.102 135.121C157.888 134.857 157.373 134.779 157.145 135.028" fill="white"/>
</g>
<path d="M153.226 143.269C153.161 143.302 152.905 142.719 152.237 142.414C151.577 142.086 150.96 142.248 150.946 142.179C150.936 142.151 151.076 142.063 151.336 142.026C151.596 141.984 151.972 142.017 152.339 142.192C152.706 142.368 152.966 142.641 153.096 142.867C153.231 143.094 153.249 143.26 153.221 143.269H153.226Z" fill="#263238"/>
<path d="M152.446 144.767C152.395 144.818 152.032 144.457 151.452 144.296C150.876 144.125 150.374 144.236 150.356 144.166C150.323 144.111 150.857 143.87 151.517 144.06C152.176 144.245 152.501 144.735 152.446 144.762V144.767Z" fill="#263238"/>
<path d="M154.694 141.347C154.643 141.402 154.085 140.847 153.208 140.519C152.335 140.177 151.55 140.223 151.545 140.149C151.527 140.089 152.358 139.928 153.296 140.293C154.239 140.644 154.75 141.319 154.694 141.351V141.347Z" fill="#263238"/>
<path d="M154.87 137.954C154.842 138.019 154.22 137.769 153.416 137.746C152.613 137.714 151.977 137.922 151.953 137.853C151.921 137.797 152.562 137.469 153.425 137.501C154.289 137.524 154.907 137.899 154.87 137.95V137.954Z" fill="#263238"/>
<path d="M154.847 134.682C154.815 134.747 154.188 134.382 153.338 134.428C152.488 134.455 151.898 134.871 151.856 134.811C151.838 134.788 151.959 134.65 152.214 134.497C152.469 134.345 152.869 134.206 153.324 134.183C153.779 134.164 154.192 134.271 154.457 134.4C154.726 134.529 154.856 134.659 154.842 134.682H154.847Z" fill="#263238"/>
<path d="M153.351 133.808C153.351 133.808 153.31 133.66 153.333 133.388C153.356 133.12 153.43 132.722 153.658 132.283C153.779 132.075 153.899 131.807 154.211 131.659C154.364 131.585 154.596 131.608 154.731 131.756C154.865 131.899 154.907 132.08 154.912 132.255C154.907 132.962 154.303 133.651 153.505 133.762C152.701 133.859 151.972 133.406 151.652 132.801C151.582 132.643 151.531 132.449 151.615 132.26C151.698 132.07 151.926 131.992 152.084 132.02C152.418 132.066 152.627 132.255 152.822 132.394C153.212 132.699 153.454 133.022 153.593 133.254C153.737 133.485 153.783 133.633 153.769 133.637C153.732 133.665 153.481 133.092 152.72 132.533C152.529 132.403 152.307 132.241 152.065 132.223C151.949 132.214 151.847 132.26 151.81 132.352C151.768 132.445 151.791 132.583 151.856 132.704C152.13 133.203 152.799 133.61 153.472 133.517C154.146 133.434 154.675 132.824 154.684 132.255C154.684 132.117 154.647 131.983 154.573 131.899C154.499 131.821 154.387 131.798 154.285 131.839C154.067 131.927 153.923 132.163 153.807 132.362C153.342 133.184 153.398 133.817 153.347 133.804L153.351 133.808Z" fill="#263238"/>
<path d="M157.387 67.6529C157.387 67.6529 145.884 89.2979 145.726 93.0603C145.569 96.8226 145.726 131.64 145.726 131.64H163.531C164.005 131.64 166.661 115.958 166.122 112.348C165.579 108.743 163.661 89.3349 163.661 89.3349H173.906C173.906 89.3349 176.715 86.3445 176.613 82.5498C176.557 80.456 175.183 76.176 173.813 73.9065C172.935 72.4506 167.316 64.8242 167.316 64.8242L157.387 67.6483V67.6529Z" fill="#263238"/>
<path d="M156.616 69.1137C156.616 69.1137 156.602 69.1599 156.565 69.2385C156.523 69.3309 156.467 69.4465 156.398 69.5897C156.235 69.9133 156.012 70.3662 155.729 70.9394C155.432 71.5264 155.069 72.2428 154.656 73.0655C154.447 73.4815 154.224 73.9252 153.987 74.392C153.764 74.8681 153.532 75.3765 153.286 75.9035C152.297 78.025 151.117 80.544 149.812 83.3403C149.158 84.7408 148.47 86.206 147.755 87.7313C147.402 88.4939 147.04 89.2658 146.673 90.0515C146.33 90.8419 146.06 91.6739 145.884 92.5382C145.703 93.4025 145.628 94.2715 145.614 95.1404C145.582 96.0047 145.568 96.8598 145.554 97.701C145.531 99.3788 145.521 101.001 145.526 102.545C145.526 105.632 145.563 108.41 145.596 110.744C145.633 113.065 145.661 114.95 145.679 116.272C145.689 116.91 145.693 117.414 145.698 117.775C145.698 117.936 145.698 118.066 145.698 118.167C145.698 118.255 145.698 118.301 145.689 118.301C145.689 118.301 145.679 118.255 145.67 118.167C145.665 118.066 145.656 117.936 145.647 117.775C145.633 117.414 145.61 116.91 145.582 116.272C145.535 114.969 145.475 113.079 145.419 110.744C145.364 108.41 145.317 105.628 145.299 102.54C145.289 100.997 145.294 99.3742 145.313 97.6918C145.326 96.8506 145.34 95.9955 145.373 95.1265C145.387 94.2622 145.461 93.3655 145.647 92.4873C145.828 91.6045 146.102 90.7541 146.455 89.9545C146.822 89.1687 147.189 88.3922 147.546 87.6296C148.266 86.1089 148.958 84.6437 149.617 83.2433C150.941 80.4562 152.134 77.9418 153.138 75.8249C153.388 75.298 153.63 74.7942 153.857 74.3181C154.099 73.8513 154.331 73.4122 154.545 73.0008C154.977 72.1827 155.348 71.4755 155.655 70.8932C155.956 70.3293 156.193 69.8855 156.365 69.5666C156.444 69.428 156.504 69.3124 156.555 69.2246C156.597 69.146 156.625 69.109 156.63 69.1137H156.616Z" fill="#455A64"/>
<path d="M152.892 76.4907C152.827 76.5092 152.441 75.289 151.968 73.7868C151.494 72.2847 151.113 71.0645 151.178 71.0413C151.239 71.0182 151.726 72.2061 152.2 73.7175C152.678 75.2243 152.957 76.4769 152.896 76.4954L152.892 76.4907Z" fill="#455A64"/>
<path d="M166.155 111.687C166.155 111.687 166.127 111.604 166.104 111.442C166.076 111.253 166.044 111.017 166.002 110.735C165.923 110.083 165.812 109.201 165.677 108.124C165.421 105.882 165.078 102.845 164.697 99.4943C164.325 96.1202 164.005 93.0651 163.819 90.8511C163.726 89.7695 163.652 88.8821 163.596 88.2258C163.578 87.9392 163.559 87.7035 163.55 87.5094C163.541 87.3476 163.541 87.2598 163.55 87.2598C163.559 87.2598 163.573 87.343 163.601 87.5047C163.624 87.6942 163.657 87.93 163.694 88.2165C163.768 88.8682 163.87 89.7557 163.991 90.8326C164.237 93.0743 164.572 96.111 164.938 99.4666C165.291 102.822 165.612 105.859 165.849 108.101C165.951 109.182 166.034 110.07 166.099 110.721C166.123 111.008 166.141 111.244 166.155 111.433C166.164 111.595 166.164 111.683 166.155 111.683V111.687Z" fill="#455A64"/>
<path d="M161.636 9.68311C161.362 7.8574 162.955 6.0548 164.799 5.83756C166.642 5.61571 168.486 6.78508 169.336 8.43053C170.186 10.076 170.125 12.0819 169.475 13.8106C169.034 14.98 168.152 16.1632 166.902 16.2557C165.7 16.3435 164.697 15.4006 163.87 14.527" fill="#263238"/>
<path d="M148.564 18.8392C144.862 10.7367 153.667 6.66471 158.469 8.01897C162.983 9.29003 164.91 11.5225 165.653 14.5314C166.396 17.5404 166.359 20.7943 165.175 23.66C164.59 25.0697 163.54 26.5071 162.017 26.6828" fill="#263238"/>
<path d="M161.348 12.5205C162.142 12.6037 162.737 13.2785 162.723 14.0689L161.854 34.6924C161.822 37.1282 158.246 38.5056 155.627 38.4501C152.98 38.3947 152.892 37.1051 152.854 34.7849C152.789 30.9116 152.794 29.4603 152.789 29.4834C152.789 29.4834 149.446 28.9287 148.754 24.5886C148.41 22.4301 148.517 18.8897 148.703 15.9963C148.87 13.394 150.602 10.1956 153.207 10.4729L161.348 12.5205Z" fill="#FFBE9D"/>
<path d="M150.394 18.4697C150.385 18.7655 150.626 19.0151 150.933 19.0336C151.239 19.0521 151.499 18.8256 151.508 18.5298C151.518 18.234 151.276 17.9844 150.97 17.9659C150.663 17.9474 150.403 18.1739 150.394 18.4697Z" fill="#263238"/>
<path d="M149.469 17.8409C149.539 17.9149 149.962 17.6006 150.565 17.6052C151.164 17.5959 151.61 17.9056 151.675 17.8317C151.708 17.7993 151.638 17.6699 151.443 17.5266C151.253 17.3879 150.932 17.2539 150.556 17.2539C150.18 17.2539 149.864 17.3926 149.683 17.5358C149.497 17.6791 149.437 17.8086 149.469 17.8409Z" fill="#263238"/>
<path d="M156.278 18.4687C156.268 18.7645 156.51 19.0141 156.816 19.0326C157.123 19.0511 157.383 18.8246 157.392 18.5288C157.401 18.233 157.16 17.9834 156.853 17.9649C156.547 17.9464 156.287 18.1729 156.278 18.4687Z" fill="#263238"/>
<path d="M155.39 17.9513C155.46 18.0252 155.882 17.7109 156.486 17.7155C157.085 17.7063 157.531 18.016 157.596 17.942C157.629 17.9097 157.559 17.7802 157.364 17.637C157.173 17.4983 156.853 17.3643 156.477 17.3643C156.101 17.3643 155.785 17.5029 155.604 17.6462C155.418 17.7895 155.358 17.9189 155.39 17.9513Z" fill="#263238"/>
<path d="M153.203 22.3974C153.203 22.365 152.832 22.3003 152.223 22.2217C152.07 22.2079 151.926 22.1755 151.898 22.0692C151.861 21.9583 151.926 21.7919 152 21.6163C152.144 21.2465 152.298 20.8582 152.455 20.4515C153.087 18.7922 153.542 17.4287 153.477 17.4056C153.407 17.3825 152.846 18.7044 152.214 20.3637C152.061 20.775 151.917 21.1633 151.777 21.5377C151.717 21.7133 151.62 21.9074 151.699 22.1385C151.74 22.2541 151.852 22.3373 151.949 22.3604C152.047 22.3881 152.135 22.3928 152.209 22.3974C152.818 22.4297 153.198 22.4344 153.198 22.3974H153.203Z" fill="#263238"/>
<path d="M152.789 29.4876C152.789 29.4876 155.724 29.6771 158.631 27.9346C158.631 27.9346 157.215 30.9158 152.849 30.5091L152.789 29.483V29.4876Z" fill="#EB996E"/>
<path d="M153.458 23.8402C153.676 23.5536 154.052 23.4011 154.429 23.4381C154.689 23.4658 154.953 23.5906 155.111 23.8032C155.269 24.0158 155.302 24.3163 155.158 24.5196C154.995 24.7461 154.656 24.8016 154.368 24.7184C154.08 24.6352 153.834 24.4503 153.597 24.2608C153.532 24.21 153.467 24.1545 153.426 24.0852C153.384 24.0158 153.374 23.9234 153.426 23.8633" fill="#EB996E"/>
<path d="M154.977 22.8094C154.879 22.8048 154.879 23.4519 154.317 23.9141C153.76 24.3763 153.064 24.3023 153.059 24.3948C153.05 24.4364 153.212 24.5196 153.509 24.5288C153.797 24.5381 154.22 24.4456 154.559 24.1637C154.898 23.8817 155.047 23.5027 155.07 23.2346C155.093 22.9619 155.023 22.8002 154.977 22.8048V22.8094Z" fill="#263238"/>
<path d="M155.116 16.9022C155.176 17.064 155.775 16.99 156.481 17.0732C157.187 17.1426 157.758 17.3506 157.851 17.2026C157.893 17.1333 157.796 16.9808 157.563 16.8236C157.336 16.6665 156.969 16.5186 156.546 16.4677C156.124 16.4215 155.734 16.4909 155.478 16.5925C155.218 16.6942 155.088 16.8236 155.116 16.9022Z" fill="#263238"/>
<path d="M149.692 16.1072C149.799 16.2413 150.212 16.1026 150.709 16.0934C151.206 16.0703 151.629 16.1858 151.726 16.0425C151.768 15.9732 151.703 15.8392 151.517 15.7097C151.336 15.5803 151.03 15.4786 150.691 15.4879C150.347 15.4971 150.05 15.6219 149.878 15.7606C149.702 15.8993 149.646 16.0425 149.692 16.1072Z" fill="#263238"/>
<path d="M155.371 9.02637C153.783 9.07721 152.576 9.56252 151.182 10.3205C149.789 11.0786 148.619 12.3358 148.192 13.8564C148.099 14.1799 148.048 14.5497 148.229 14.8363C148.466 15.2153 149.018 15.2754 149.427 15.0951C149.831 14.9102 150.124 14.5497 150.402 14.2031C150.606 14.998 151.401 15.6035 152.227 15.5943C153.054 15.585 153.834 14.9611 154.024 14.1615C154.029 14.9934 154.87 15.6821 155.706 15.6544C156.541 15.6266 157.284 14.9796 157.563 14.1938C157.721 14.9333 157.884 15.7006 158.329 16.3153C158.775 16.9301 159.583 17.3507 160.303 17.1149C160.201 17.762 160.099 18.4415 160.331 19.0562C160.563 19.6709 161.487 30.1121 162.109 29.8995C162.713 29.6915 162.709 19.0377 162.848 18.4184C163.122 17.2213 163.354 16.0057 163.317 14.7808C163.28 13.556 162.95 12.308 162.193 11.342C161.413 10.339 160.229 9.70581 158.998 9.38226C157.767 9.05872 156.476 9.02174 155.204 9.04023" fill="#263238"/>
<path d="M164.112 28.0468C164.112 28.0468 164.07 28.0745 163.977 28.1069C163.889 28.1392 163.749 28.1762 163.568 28.204C163.211 28.2594 162.663 28.2594 162.036 28.0468C161.418 27.8481 160.703 27.3997 160.243 26.6463C159.769 25.9022 159.588 24.9131 159.667 23.9286C159.742 22.9394 159.969 22.0335 160.076 21.1969C160.192 20.365 160.248 19.607 160.271 18.9691C160.29 18.3313 160.285 17.8136 160.271 17.4577C160.262 17.1018 160.257 16.9031 160.276 16.8984C160.29 16.8984 160.327 17.0926 160.364 17.4485C160.401 17.8044 160.434 18.3266 160.438 18.9691C160.438 19.6116 160.401 20.3788 160.294 21.2247C160.197 22.0705 159.974 22.981 159.904 23.9424C159.83 24.8992 159.992 25.8282 160.429 26.5308C160.851 27.2426 161.502 27.6724 162.091 27.885C162.681 28.1023 163.206 28.1346 163.554 28.1069C163.907 28.0792 164.098 28.0191 164.107 28.0422L164.112 28.0468Z" fill="#263238"/>
<path d="M153.834 8.46777C153.834 8.46777 154.048 8.83291 154.062 9.49849C154.08 10.1502 153.853 11.1116 153.133 11.8604C152.408 12.6045 151.452 12.868 150.797 12.8726C150.128 12.8864 149.743 12.7062 149.752 12.6877C149.761 12.6461 150.151 12.7617 150.788 12.7016C151.41 12.6507 152.292 12.378 152.961 11.6893C153.625 11.0007 153.867 10.1132 153.894 9.49387C153.927 8.86527 153.797 8.47702 153.839 8.46777H153.834Z" fill="#455A64"/>
<path d="M154.484 13.5791C154.507 13.5791 154.452 13.8795 154.122 14.1985C153.797 14.5174 153.179 14.7993 152.478 14.7577C151.781 14.7115 151.21 14.4249 150.839 14.1985C150.463 13.9674 150.263 13.7825 150.281 13.7594C150.3 13.7316 150.537 13.861 150.922 14.0506C151.308 14.2354 151.856 14.4804 152.497 14.522C153.133 14.559 153.695 14.3325 154.015 14.0737C154.345 13.8148 154.456 13.5606 154.493 13.5837L154.484 13.5791Z" fill="#455A64"/>
<path d="M164.994 12.253C165.022 12.253 165.026 12.7105 164.91 13.4408C164.794 14.1619 164.543 15.1926 163.842 16.117C163.132 17.0414 162.091 17.4897 161.344 17.5313C160.968 17.5591 160.661 17.5082 160.461 17.4435C160.262 17.3788 160.16 17.3233 160.164 17.3095C160.174 17.2633 160.61 17.4574 161.325 17.3603C162.026 17.2771 162.983 16.8288 163.652 15.9691C164.316 15.1001 164.585 14.111 164.743 13.4085C164.896 12.7013 164.957 12.2483 164.994 12.253Z" fill="#455A64"/>
<path d="M165.792 14.3604C165.792 14.3604 165.839 14.4898 165.862 14.7255C165.885 14.9612 165.909 15.3079 165.885 15.7377C165.843 16.5789 165.616 17.8315 164.724 18.853C164.283 19.3568 163.735 19.7265 163.178 19.9022C162.621 20.0824 162.077 20.0778 161.65 19.9946C161.218 19.9068 160.898 19.7404 160.703 19.5971C160.503 19.4538 160.424 19.3475 160.433 19.3383C160.457 19.2967 160.851 19.6988 161.683 19.8282C162.091 19.8883 162.597 19.8698 163.108 19.6942C163.624 19.5186 164.13 19.1673 164.543 18.6958C165.388 17.7344 165.635 16.5512 165.718 15.7285C165.797 14.8919 165.755 14.365 165.792 14.365V14.3604Z" fill="#455A64"/>
<path d="M104.581 70.2267L96.1475 89.4082H107.757L116.019 70.0742L104.581 70.2267Z" fill="#455A64"/>
<path d="M98.4508 49.8298L107.962 68.4381H137.943L136.731 66.0069L128.046 65.7481L120.969 50.0609C120.528 49.0856 119.553 48.457 118.48 48.457H99.3007C98.5948 48.457 98.135 49.2012 98.4555 49.8298H98.4508Z" fill="#E0E0E0"/>
<path d="M113.465 58.1582C113.465 58.7868 112.95 59.2999 112.318 59.2999C111.686 59.2999 111.171 58.7868 111.171 58.1582C111.171 57.5296 111.686 57.0166 112.318 57.0166C112.95 57.0166 113.465 57.5296 113.465 58.1582Z" fill="#263238"/>
<path d="M141.133 68.4658H104.483V70.2453H141.133V68.4658Z" fill="#455A64"/>
<path d="M129.844 69.3535L140.994 89.427H146.325L147.486 87.1345L148.554 84.7126L141.133 70.2456L129.844 69.3535Z" fill="#455A64"/>
<path d="M149.218 34.9434C149.218 34.9434 142.745 37.2128 141.352 44.4232L148.187 47.8158L149.218 34.9434Z" fill="#462682"/>
<path d="M149.218 34.9428C149.218 34.9428 144.686 45.0466 144.862 50.5607C144.923 52.4834 146.191 57.4799 146.191 57.4799L148.54 69.8993C148.54 69.8993 166.563 67.4681 166.963 67.4681C167.362 67.4681 166.359 57.2811 166.359 57.2811L169.299 37.6975C169.299 37.6975 167.952 35.0306 161.878 34.1062C158.228 33.5516 149.223 34.9428 149.223 34.9428H149.218Z" fill="#462682"/>
<path d="M147.528 40.8087C147.569 40.8318 147.091 41.5805 146.524 42.8886C146.237 43.5403 145.949 44.3353 145.689 45.2366C145.442 46.1425 145.224 47.1501 145.099 48.227C144.983 49.304 144.964 50.3347 145.001 51.273C145.057 52.2112 145.154 53.0525 145.289 53.7458C145.549 55.1416 145.846 55.9782 145.8 55.9921C145.786 55.9967 145.702 55.7933 145.572 55.4143C145.503 55.2248 145.424 54.9937 145.354 54.7164C145.28 54.4391 145.187 54.1294 145.122 53.7781C144.964 53.0802 144.843 52.2297 144.778 51.2822C144.727 50.3347 144.737 49.2855 144.857 48.1947C144.987 47.1039 145.21 46.0824 145.475 45.1719C145.754 44.2613 146.06 43.4617 146.371 42.8146C146.511 42.4865 146.678 42.2045 146.808 41.9503C146.938 41.6961 147.068 41.4881 147.175 41.3171C147.388 40.9797 147.514 40.7948 147.528 40.804V40.8087Z" fill="#263238"/>
<path d="M151.41 34.846L151.675 32.082C151.731 31.4858 152.232 31.0236 152.836 31.0143L161.729 30.8849C162.291 30.8757 162.76 31.3055 162.802 31.8602L163.029 34.846C163.029 34.846 162.073 37.1894 159.458 38.4512C156.844 39.713 152.78 39.7546 152.78 39.7546L151.41 34.846Z" fill="#462682"/>
<path d="M153.737 31.0329C153.765 31.0606 153.635 31.2131 153.579 31.5136C153.514 31.814 153.56 32.2485 153.598 32.743C153.663 33.7275 153.667 34.5318 153.598 34.5364C153.533 34.5364 153.421 33.746 153.356 32.7615C153.319 32.2762 153.296 31.8048 153.416 31.472C153.528 31.1392 153.728 31.0098 153.741 31.0329H153.737Z" fill="#263238"/>
<path d="M155.868 34.4667C155.803 34.4667 155.701 33.6901 155.645 32.7288C155.622 32.2481 155.589 31.8136 155.636 31.4808C155.682 31.148 155.822 30.977 155.845 30.9955C155.877 31.014 155.803 31.1896 155.808 31.4947C155.808 31.7951 155.868 32.2342 155.887 32.7149C155.942 33.6763 155.933 34.462 155.868 34.4667Z" fill="#263238"/>
<path d="M158.539 34.3933C158.474 34.4026 158.316 33.6445 158.191 32.7016C158.065 31.7587 158.019 30.9869 158.084 30.9776C158.149 30.9684 158.307 31.7264 158.432 32.6693C158.558 33.6122 158.604 34.3841 158.539 34.3933Z" fill="#263238"/>
<path d="M160.842 34.5871C160.777 34.5963 160.586 33.769 160.507 32.7244C160.424 31.6798 160.489 30.834 160.554 30.834C160.623 30.834 160.67 31.6752 160.749 32.7059C160.828 33.7366 160.911 34.5732 160.842 34.5871Z" fill="#263238"/>
<g opacity="0.3">
<path d="M162.607 45.1533C162.254 48.2686 162.486 53.6255 163.591 56.5605L168.783 48.0236L162.607 45.1533Z" fill="black"/>
</g>
<path d="M168.816 37.0693L168.839 37.0971C170.311 38.6362 171.389 40.5035 171.983 42.5465L172.94 46.8866L162.723 48.4627C162.723 48.4627 161.845 46.0453 162.333 42.7776C162.821 39.5052 168.821 37.074 168.821 37.074L168.816 37.0693Z" fill="#462682"/>
<path d="M172.939 46.8814C172.939 46.8814 172.87 46.9045 172.74 46.9322C172.582 46.96 172.387 46.997 172.155 47.0385C171.607 47.1264 170.873 47.2465 169.967 47.3944C168.073 47.681 165.491 48.0739 162.565 48.5176L162.435 48.5361V48.4021C162.407 47.7873 162.388 47.1495 162.379 46.4978C162.356 44.7876 162.356 43.1607 162.477 41.677C162.565 40.1841 163.053 38.876 163.666 37.9239C164.279 36.9625 165.022 36.3755 165.57 36.0658C165.844 35.9087 166.071 35.8116 166.229 35.7608C166.387 35.7053 166.47 35.6822 166.47 35.6914C166.48 35.7145 166.145 35.8209 165.616 36.149C165.091 36.4772 164.39 37.0734 163.81 38.0209C163.229 38.9638 162.774 40.2349 162.7 41.7001C162.593 43.1699 162.597 44.7969 162.621 46.4978C162.639 47.1495 162.653 47.7873 162.672 48.3974L162.537 48.2865C165.467 47.8751 168.054 47.51 169.949 47.2465C170.854 47.131 171.597 47.0339 172.145 46.9646C172.382 46.9369 172.577 46.9184 172.74 46.8999C172.874 46.886 172.949 46.886 172.949 46.8906L172.939 46.8814Z" fill="#263238"/>
<path d="M151.359 40.5075C151.313 40.5584 150.677 40.0684 149.938 39.4121C149.195 38.7558 148.633 38.1873 148.675 38.1364C148.721 38.0856 149.358 38.5755 150.096 39.2319C150.839 39.8882 151.401 40.4567 151.359 40.5075Z" fill="#FAFAFA"/>
<path d="M149.98 45.8598C150.017 45.9152 149.455 46.3266 148.726 46.7749C147.997 47.2233 147.384 47.5422 147.346 47.4867C147.309 47.4313 147.871 47.0199 148.6 46.5716C149.325 46.1232 149.942 45.8043 149.98 45.8598Z" fill="#FAFAFA"/>
<path d="M155.678 47.1731C155.613 47.1731 155.613 46.2857 155.678 45.1949C155.743 44.1087 155.849 43.2259 155.919 43.2305C155.984 43.2305 155.984 44.1179 155.919 45.2087C155.854 46.2949 155.747 47.1731 155.678 47.1731Z" fill="#FAFAFA"/>
<path d="M161.218 52.5254C161.162 52.567 160.633 51.9014 159.927 51.1342C159.221 50.3623 158.603 49.7799 158.65 49.7291C158.692 49.6782 159.388 50.1913 160.103 50.9724C160.823 51.7535 161.269 52.493 161.218 52.5254Z" fill="#FAFAFA"/>
<path d="M161.999 41.3443C162.036 41.3997 161.428 41.8712 160.643 42.3935C159.858 42.9204 159.189 43.2994 159.152 43.2439C159.115 43.1885 159.723 42.717 160.508 42.1947C161.293 41.6678 161.962 41.2888 161.999 41.3443Z" fill="#FAFAFA"/>
<path d="M156.992 37.3001C157.029 37.3556 156.365 37.8409 155.516 38.3863C154.661 38.9317 153.941 39.3246 153.909 39.2691C153.872 39.2137 154.536 38.7284 155.385 38.183C156.24 37.6376 156.96 37.2447 156.992 37.3001Z" fill="#FAFAFA"/>
<path d="M161.506 38.9088C161.446 38.9319 161.13 38.2802 160.8 37.4574C160.475 36.6301 160.257 35.9414 160.322 35.9137C160.382 35.8906 160.698 36.5423 161.028 37.3696C161.353 38.197 161.571 38.8857 161.506 38.9134V38.9088Z" fill="#FAFAFA"/>
<path d="M167.715 40.9333C167.669 40.9795 167.205 40.5958 166.68 40.0736C166.155 39.5513 165.765 39.0937 165.811 39.0428C165.858 38.9966 166.322 39.3802 166.847 39.9025C167.372 40.4248 167.762 40.8824 167.715 40.9333Z" fill="#FAFAFA"/>
<path d="M165.17 45.4398C165.105 45.4398 165.012 44.8112 164.971 44.03C164.929 43.2443 164.947 42.6064 165.012 42.6064C165.077 42.6064 165.17 43.235 165.212 44.0162C165.254 44.7973 165.235 45.4351 165.17 45.4398Z" fill="#FAFAFA"/>
<path d="M170.316 44.5058C170.316 44.5706 169.582 44.589 168.69 44.4504C167.799 44.3163 167.107 44.0806 167.125 44.0205C167.144 43.9558 167.85 44.0806 168.728 44.2147C169.605 44.3487 170.32 44.4365 170.316 44.5058Z" fill="#FAFAFA"/>
<path d="M149.511 53.8193C149.451 53.847 149.033 53.0936 148.578 52.1322C148.123 51.1709 147.802 50.3712 147.863 50.3435C147.923 50.3158 148.341 51.0692 148.796 52.0306C149.251 52.9919 149.572 53.7916 149.511 53.8193Z" fill="#FAFAFA"/>
<path d="M156.31 61.1133C156.254 61.1502 155.748 60.5494 155.182 59.7682C154.61 58.9871 154.192 58.3215 154.248 58.2799C154.304 58.243 154.81 58.8438 155.377 59.625C155.948 60.4061 156.366 61.0717 156.31 61.1133Z" fill="#FAFAFA"/>
<path d="M161.97 58.0532C161.993 58.1133 161.306 58.4368 160.428 58.7743C159.551 59.1117 158.822 59.3335 158.798 59.2688C158.775 59.2087 159.462 58.8852 160.34 58.5478C161.218 58.2104 161.947 57.9885 161.97 58.0532Z" fill="#FAFAFA"/>
<path d="M148.08 63.9649C148.02 63.9372 148.219 63.3687 148.526 62.6939C148.832 62.0191 149.13 61.4968 149.19 61.5245C149.25 61.5522 149.051 62.1207 148.744 62.7956C148.438 63.4704 148.14 63.9927 148.08 63.9649Z" fill="#FAFAFA"/>
<path d="M143.71 43.078C143.655 43.1057 143.371 42.5973 143.26 41.8947C143.144 41.1968 143.251 40.6237 143.311 40.6329C143.381 40.6375 143.385 41.1922 143.497 41.8578C143.603 42.5233 143.771 43.0502 143.706 43.078H143.71Z" fill="#FAFAFA"/>
<path d="M151.466 59.287C151.434 59.3471 150.816 59.0651 150.087 58.663C149.358 58.2609 148.796 57.8865 148.828 57.8264C148.861 57.7663 149.479 58.0483 150.208 58.4504C150.937 58.8525 151.499 59.2269 151.466 59.287Z" fill="#FAFAFA"/>
<path d="M155.952 51.5827C155.999 51.6336 155.446 52.2021 154.717 52.8584C153.993 53.5147 153.366 54.0047 153.319 53.9538C153.273 53.903 153.825 53.3345 154.554 52.6782C155.279 52.0218 155.906 51.5319 155.952 51.5827Z" fill="#FAFAFA"/>
<g opacity="0.3">
<path d="M153.207 51.4434C153.5 53.0333 154.108 54.6187 155.274 55.7419C156.439 56.865 158.232 57.4381 159.741 56.8465C160.057 56.7217 160.387 56.5137 160.461 56.1856C160.549 55.8019 160.238 55.4229 159.876 55.2704C159.513 55.1179 159.105 55.1318 158.71 55.1086C156.462 54.9838 154.331 53.6111 153.295 51.6236" fill="black"/>
</g>
<path d="M159.245 55.1686C159.245 55.1686 159.133 55.2055 158.934 55.224C158.729 55.2471 158.432 55.2425 158.07 55.2055C157.708 55.1686 157.276 55.0715 156.821 54.9143C156.365 54.7433 155.887 54.5122 155.423 54.1933C154.963 53.8698 154.573 53.5046 154.257 53.1395C153.946 52.7697 153.704 52.4046 153.547 52.0764C153.384 51.7529 153.277 51.4756 153.226 51.2768C153.175 51.0827 153.152 50.9717 153.17 50.9671C153.212 50.9533 153.342 51.3831 153.695 51.9932C153.872 52.3029 154.118 52.6403 154.424 52.9916C154.74 53.3336 155.121 53.6849 155.562 53.9946C156.008 54.2996 156.468 54.5307 156.899 54.7064C157.336 54.8681 157.745 54.9837 158.098 55.0391C158.799 55.1593 159.245 55.127 159.249 55.1732L159.245 55.1686Z" fill="#263238"/>
<path d="M133.68 62.6151L140.409 61.8109L145.151 64.903L163.276 60.5768L163.703 48.2267L171.751 47.1729V62.1252C171.672 65.9291 168.496 68.9381 164.674 68.8364L138.124 68.1061L136.996 65.8598L131.298 65.6934L133.676 62.6197L133.68 62.6151Z" fill="#FFBE9D"/>
<path d="M163.043 60.5818C163.043 60.5818 162.927 60.6234 162.704 60.6835C162.463 60.7482 162.133 60.8314 161.72 60.9377C160.842 61.155 159.602 61.4646 158.084 61.839C154.991 62.5832 150.751 63.6093 146.065 64.737C145.689 64.8249 145.317 64.9173 144.946 65.0051L144.899 65.0144L144.862 64.9913C143.186 63.8958 141.588 62.8512 140.125 61.8899L140.191 61.9037C137.53 62.2088 135.226 62.4769 133.461 62.6756L133.508 62.6525C132.756 63.6046 132.157 64.3627 131.729 64.8988C131.53 65.1484 131.372 65.3425 131.251 65.4904C131.14 65.6245 131.079 65.6892 131.075 65.6846C131.07 65.6799 131.121 65.606 131.218 65.4673C131.33 65.3148 131.483 65.1114 131.669 64.8572C132.082 64.3118 132.667 63.5399 133.396 62.5739L133.415 62.5508H133.443C135.208 62.329 137.506 62.0424 140.167 61.7096H140.204L140.232 61.7235C141.7 62.6756 143.297 63.7156 144.978 64.811L144.895 64.7971C145.262 64.7093 145.638 64.6215 146.014 64.5291C150.704 63.4244 154.949 62.4214 158.046 61.6911C159.574 61.3398 160.819 61.0579 161.701 60.8545C162.119 60.7621 162.453 60.6928 162.695 60.6373C162.922 60.5911 163.043 60.568 163.043 60.5772V60.5818Z" fill="#EB996E"/>
<path d="M137.353 64.5336C137.353 64.5937 136.183 64.6399 134.738 64.6399C134.576 64.6399 134.418 64.6399 134.26 64.6399L134.325 64.6168C133.392 65.3933 132.663 65.9526 132.63 65.9156C132.598 65.8786 133.271 65.25 134.19 64.4596L134.218 64.4365H134.255C134.409 64.4365 134.571 64.4365 134.734 64.4365C136.178 64.4365 137.348 64.4827 137.348 64.5428L137.353 64.5336Z" fill="#EB996E"/>
<path d="M166.378 62.5968C166.322 62.6291 165.974 61.7833 165.059 61.224C164.153 60.6463 163.239 60.6971 163.243 60.6324C163.243 60.6093 163.461 60.5585 163.828 60.5862C164.191 60.6139 164.692 60.748 165.17 61.0438C165.644 61.3442 165.983 61.7371 166.169 62.0468C166.355 62.3611 166.401 62.5829 166.382 62.5922L166.378 62.5968Z" fill="#EB996E"/>
<path d="M50.2417 161.337H19.917V165.483H50.2417V161.337Z" fill="#263238"/>
<path d="M50.2931 165.534H19.8662V161.281H50.2931V165.534ZM19.9684 165.432H50.191V161.388H19.9684V165.432Z" fill="#263238"/>
<path d="M22.7275 164.102L27.0928 185.539H43.2443L47.4657 165.484L22.7275 164.102Z" fill="#263238"/>
<path d="M22.7275 183.509L25.0588 186.693H44.6886L47.4657 183.509H22.7275Z" fill="#455A64"/>
<path d="M33.9425 164.73C33.8822 164.73 33.8079 154.802 33.7707 142.554C33.7382 130.305 33.7568 120.377 33.8171 120.377C33.8775 120.377 33.9518 130.305 33.989 142.554C34.0215 154.797 34.0029 164.73 33.9425 164.73Z" fill="#263238"/>
<path d="M40.6991 139.882C40.6991 139.882 40.6759 139.965 40.6155 140.113C40.5458 140.279 40.4529 140.492 40.3461 140.755C40.2858 140.899 40.2208 141.051 40.1464 141.218C40.0861 141.393 40.0164 141.583 39.9468 141.781C39.8725 141.985 39.7935 142.202 39.7146 142.429C39.6356 142.66 39.5706 142.909 39.4917 143.168C39.1619 144.199 38.8972 145.461 38.6418 146.866C38.4189 148.275 38.2564 149.838 38.1728 151.488C38.0242 154.783 38.2146 157.774 38.4143 159.928C38.5118 161.005 38.6093 161.878 38.6836 162.479C38.7161 162.761 38.7393 162.992 38.7579 163.172C38.7719 163.329 38.7765 163.417 38.7719 163.417C38.7626 163.417 38.744 163.339 38.7161 163.182C38.6836 163.001 38.6465 162.775 38.6 162.493C38.5025 161.897 38.3818 161.023 38.2657 159.946C38.0242 157.792 37.8152 154.793 37.9638 151.479C38.0474 149.824 38.2192 148.252 38.4514 146.833C38.7161 145.424 38.9994 144.157 39.3477 143.127C39.4313 142.868 39.5009 142.618 39.5892 142.392C39.6774 142.165 39.761 141.948 39.84 141.749C39.9189 141.55 39.9932 141.361 40.0582 141.19C40.1325 141.019 40.2115 140.871 40.2765 140.732C40.4019 140.478 40.504 140.27 40.583 140.104C40.6573 139.96 40.6991 139.886 40.7037 139.891L40.6991 139.882Z" fill="#263238"/>
<path d="M39.9237 131.849C39.9237 131.849 39.8958 131.964 39.8261 132.177C39.7472 132.408 39.6404 132.713 39.5103 133.101C39.4407 133.305 39.3617 133.527 39.2781 133.767C39.2038 134.017 39.1203 134.28 39.032 134.567C38.8556 135.14 38.6512 135.796 38.4655 136.531C38.3679 136.896 38.2658 137.28 38.159 137.677C38.0661 138.079 37.9732 138.5 37.8757 138.934C37.6621 139.799 37.5088 140.737 37.3138 141.717C36.9794 143.69 36.6868 145.867 36.4825 148.169C36.2921 150.471 36.2085 152.671 36.176 154.672C36.1714 156.674 36.1946 158.476 36.2782 159.988C36.306 160.746 36.3525 161.425 36.3943 162.026C36.4268 162.627 36.4686 163.145 36.5057 163.565C36.5382 163.972 36.5615 164.296 36.58 164.536C36.594 164.758 36.5986 164.878 36.5893 164.878C36.58 164.878 36.5615 164.762 36.5336 164.54C36.5057 164.3 36.4686 163.977 36.4175 163.57C36.3664 163.149 36.3153 162.632 36.2689 162.031C36.2178 161.43 36.1574 160.746 36.1203 159.988C36.0181 158.476 35.9763 156.669 35.9717 154.663C35.9903 152.657 36.0692 150.452 36.2596 148.146C36.4639 145.84 36.7658 143.653 37.1094 141.68C37.3091 140.695 37.4717 139.757 37.6899 138.893C37.7921 138.458 37.8896 138.038 37.9871 137.636C38.0986 137.238 38.2054 136.854 38.3076 136.489C38.498 135.754 38.7162 135.103 38.9066 134.53C38.9995 134.243 39.0877 133.98 39.1667 133.73C39.2596 133.49 39.3432 133.268 39.4175 133.069C39.5661 132.69 39.6822 132.385 39.7704 132.158C39.854 131.95 39.9004 131.844 39.9097 131.849H39.9237Z" fill="#263238"/>
<path d="M32.0243 166.486C32.0243 166.486 32.015 166.449 32.0058 166.371C31.9965 166.283 31.9872 166.168 31.9779 166.029C31.9547 165.715 31.9268 165.271 31.8897 164.716C31.8154 163.556 31.7132 161.911 31.5878 159.882C31.3231 155.8 30.9423 150.157 30.255 143.954C29.9021 140.853 29.4934 137.908 29.0662 135.237C28.8386 133.906 28.6343 132.635 28.4021 131.456C28.1885 130.273 27.9609 129.177 27.7473 128.174C27.5476 127.171 27.3247 126.275 27.1482 125.48C26.9718 124.685 26.8046 124.005 26.6606 123.455C26.5259 122.91 26.4238 122.485 26.3448 122.175C26.3123 122.036 26.2891 121.93 26.2659 121.842C26.2519 121.768 26.2427 121.727 26.2473 121.727C26.2473 121.727 26.2659 121.764 26.2891 121.838C26.3123 121.925 26.3448 122.032 26.3866 122.166C26.4702 122.471 26.591 122.896 26.7396 123.437C26.8928 123.987 27.0786 124.666 27.2643 125.457C27.4547 126.247 27.6869 127.144 27.8959 128.147C28.1188 129.145 28.3556 130.24 28.5785 131.428C28.82 132.607 29.029 133.878 29.2612 135.209C29.6977 137.881 30.1157 140.829 30.4686 143.935C31.1606 150.143 31.5181 155.791 31.741 159.877C31.8525 161.92 31.9315 163.575 31.9779 164.716C31.9965 165.275 32.015 165.715 32.0243 166.033C32.0243 166.172 32.029 166.288 32.0336 166.376C32.0336 166.454 32.0336 166.491 32.029 166.491L32.0243 166.486Z" fill="#263238"/>
<path d="M33.6964 125.151C33.5664 123.746 32.136 122.683 30.715 122.669C29.294 122.655 27.9704 123.501 27.1067 124.62C26.2383 125.738 25.7599 127.102 25.3699 128.461C24.4132 131.775 23.8931 135.255 24.3018 138.68C24.7104 142.105 26.1082 145.474 28.5742 147.892C28.9735 148.284 29.4936 148.677 30.0463 148.562C30.3481 148.497 30.5943 148.289 30.8218 148.086C35.6701 143.727 38.4703 137.196 38.2799 130.693C38.2428 129.39 38.071 128.035 37.3465 126.949C36.6221 125.863 34.9317 124.712 33.701 125.147" fill="#462682"/>
<path d="M23.0944 113.882C22.4257 115.084 21.7616 116.286 21.0929 117.487C21.0465 117.57 20.9861 117.668 20.8886 117.672C20.7818 117.681 20.7028 117.584 20.6471 117.492C18.887 114.802 17.1223 112.112 15.3623 109.417L16.579 108.729L23.0898 113.877L23.0944 113.882Z" fill="#462682"/>
<g opacity="0.2">
<path d="M23.0944 113.882C22.4257 115.084 21.7616 116.286 21.0929 117.487C21.0465 117.57 20.9861 117.668 20.8886 117.672C20.7818 117.681 20.7028 117.584 20.6471 117.492C18.887 114.802 17.1223 112.112 15.3623 109.417L16.579 108.729L23.0898 113.877L23.0944 113.882Z" fill="black"/>
</g>
<path d="M33.817 120.377C27.8078 116.845 21.7986 113.319 15.7893 109.787C15.6036 109.681 15.4039 109.552 15.3482 109.348C15.2785 109.085 15.4782 108.826 15.6686 108.627C18.1484 106.081 21.7521 104.606 25.3047 104.86C28.8573 105.115 32.2752 107.157 34.0167 110.254C35.7582 113.346 35.8139 117.442 33.817 120.377Z" fill="#462682"/>
<path d="M18.3857 106.408C18.3857 106.408 18.4647 106.39 18.6226 106.381C18.7758 106.371 19.008 106.344 19.3052 106.348C19.8997 106.334 20.7588 106.371 21.8083 106.547C22.8578 106.718 24.0838 107.056 25.3702 107.624C26.6566 108.193 27.9847 109.015 29.1921 110.092C30.3949 111.183 31.3469 112.417 32.0435 113.633C32.7401 114.848 33.1998 116.032 33.4738 117.053C33.7524 118.074 33.8778 118.925 33.9196 119.512C33.9521 119.803 33.9475 120.034 33.9568 120.191C33.9568 120.349 33.9568 120.427 33.9521 120.427C33.9336 120.427 33.9103 120.104 33.8407 119.521C33.771 118.939 33.6224 118.102 33.3299 117.095C32.7586 115.098 31.4351 112.403 29.0482 110.249C26.6612 108.1 23.8331 107.06 21.7804 106.695C20.7449 106.505 19.895 106.441 19.3052 106.432C18.7155 106.418 18.3904 106.432 18.3904 106.408H18.3857Z" fill="#263238"/>
<path d="M31.3742 113.069C31.3835 113.097 31.0352 113.254 30.464 113.48C29.8881 113.707 29.0848 113.993 28.1885 114.275C27.2922 114.557 26.4656 114.784 25.8665 114.931C25.2675 115.079 24.8913 115.144 24.882 115.116C24.8727 115.089 25.2349 114.968 25.8247 114.784C26.4888 114.576 27.2643 114.335 28.1188 114.072C28.9733 113.799 29.7442 113.55 30.4083 113.337C30.9934 113.147 31.3603 113.041 31.3696 113.069H31.3742Z" fill="#263238"/>
<path d="M28.5368 105.475C28.5925 105.47 28.7226 106.362 28.7504 107.476C28.7783 108.59 28.6994 109.487 28.639 109.487C28.5786 109.487 28.5647 108.585 28.5322 107.481C28.5043 106.376 28.4764 105.479 28.5322 105.475H28.5368Z" fill="#263238"/>
<path d="M15.631 109.584C15.6217 109.557 16.1232 109.376 16.9406 109.127C17.7579 108.877 18.9003 108.558 20.1727 108.253C21.4452 107.948 22.6061 107.712 23.4513 107.569C24.2965 107.421 24.8213 107.356 24.8259 107.384C24.8306 107.417 24.3151 107.532 23.4792 107.717C22.6433 107.902 21.4916 108.161 20.2238 108.461C18.956 108.766 17.8136 109.057 16.9824 109.275C16.1557 109.487 15.6403 109.617 15.631 109.589V109.584Z" fill="#263238"/>
<path d="M25.5044 121.818C23.9533 120.649 22.314 120.418 20.3682 120.496C18.4224 120.575 16.5324 121.162 14.7491 121.938C11.7073 123.265 8.85133 125.215 7.03556 127.979C5.21979 130.743 4.58821 134.404 5.94888 137.418C6.08355 137.718 6.26002 138.032 6.56652 138.162C6.88695 138.3 7.25382 138.189 7.58354 138.083C11.0433 136.96 14.5215 135.828 17.7026 134.071C20.8837 132.315 23.7769 129.87 25.4812 126.671C25.8898 125.904 26.2335 125.081 26.2985 124.217C26.3635 123.353 26.1267 122.428 25.5044 121.818Z" fill="#462682"/>
<path d="M25.5319 121.457C25.5319 121.457 25.4483 121.499 25.2811 121.559C25.0953 121.624 24.8538 121.707 24.5566 121.809C24.3987 121.86 24.2223 121.92 24.0319 121.984C23.8415 122.054 23.6371 122.137 23.4189 122.22C22.9823 122.396 22.4715 122.571 21.9375 122.83C21.6681 122.955 21.3848 123.08 21.0876 123.214C20.7951 123.348 20.4979 123.514 20.1914 123.671C19.5644 123.976 18.9282 124.369 18.2548 124.767C16.9313 125.599 15.5242 126.606 14.1589 127.79C12.8029 128.987 11.6233 130.244 10.6249 131.446C10.1419 132.06 9.67289 132.638 9.28745 133.216C9.0924 133.503 8.88807 133.771 8.71624 134.043C8.54442 134.316 8.38188 134.579 8.22399 134.829C7.89892 135.324 7.65743 135.804 7.42524 136.211C7.31378 136.419 7.20233 136.609 7.10945 136.784C7.02122 136.964 6.94227 137.131 6.86797 137.279C6.72865 137.561 6.6172 137.787 6.52896 137.963C6.45002 138.12 6.40358 138.199 6.39893 138.194C6.39429 138.194 6.42215 138.106 6.49181 137.944C6.57076 137.764 6.67292 137.528 6.79366 137.242C6.86332 137.089 6.93763 136.918 7.01657 136.738C7.10481 136.558 7.20697 136.364 7.31843 136.151C7.54133 135.735 7.77353 135.25 8.08932 134.746C8.24257 134.492 8.4051 134.224 8.57228 133.946C8.73946 133.669 8.9438 133.396 9.13884 133.105C9.51964 132.518 9.98868 131.936 10.467 131.312C11.4654 130.096 12.6496 128.825 14.0149 127.619C15.3895 126.426 16.8059 125.419 18.148 124.591C18.8307 124.198 19.4715 123.81 20.1078 123.505C20.4235 123.348 20.7208 123.186 21.018 123.057C21.3152 122.927 21.6031 122.802 21.8771 122.682C22.4204 122.433 22.9313 122.266 23.3771 122.1C23.6 122.021 23.8043 121.943 23.9994 121.878C24.1898 121.823 24.3709 121.767 24.5334 121.721C24.8353 121.633 25.0814 121.564 25.2718 121.513C25.439 121.467 25.5319 121.448 25.5319 121.453V121.457Z" fill="#263238"/>
<path d="M13.4206 127.984C13.4392 128.04 11.7488 128.585 9.64974 129.195C7.55069 129.805 5.83244 130.254 5.81851 130.198C5.79994 130.143 7.49032 129.602 9.58937 128.987C11.6884 128.377 13.4067 127.929 13.4206 127.984Z" fill="#263238"/>
<path d="M13.2632 136.271C13.2353 136.271 13.1982 135.823 13.1796 135.102C13.161 134.381 13.1564 133.378 13.1889 132.278C13.2214 131.173 13.2771 130.175 13.3375 129.454C13.3979 128.733 13.4582 128.289 13.4861 128.289C13.5186 128.289 13.5093 128.737 13.4861 129.458C13.4629 130.249 13.4304 131.215 13.3979 132.278C13.37 133.341 13.3468 134.307 13.3282 135.097C13.3096 135.818 13.291 136.267 13.2585 136.267L13.2632 136.271Z" fill="#263238"/>
<path d="M20.3961 132.652C20.3357 132.652 20.1453 130.623 19.9735 128.113C19.797 125.603 19.7041 123.565 19.7645 123.561C19.8249 123.561 20.0153 125.59 20.1871 128.099C20.3636 130.609 20.4564 132.647 20.3961 132.652Z" fill="#263238"/>
<path d="M11.5173 123.367C11.5173 123.339 11.9817 123.325 12.7248 123.33C13.4724 123.335 14.4987 123.358 15.6365 123.395C16.7742 123.432 17.8006 123.478 18.5436 123.524C19.2866 123.57 19.7464 123.612 19.7464 123.64C19.7464 123.667 19.2866 123.681 18.5389 123.677C17.7913 123.672 16.765 123.649 15.6272 123.612C14.4894 123.575 13.4631 123.529 12.7155 123.483C11.9724 123.436 11.5127 123.395 11.5127 123.367H11.5173Z" fill="#263238"/>
<path d="M29.3404 148.858C29.3404 148.858 29.3265 148.774 29.3125 148.613C29.3032 148.428 29.2939 148.197 29.28 147.905C29.2522 147.295 29.2475 146.408 29.2707 145.308C29.2893 144.212 29.3636 142.909 29.4936 141.462C29.633 140.02 29.8373 138.435 30.1298 136.789C30.4271 135.144 30.7846 133.586 31.1562 132.186C31.537 130.785 31.9178 129.537 32.28 128.502C32.6376 127.467 32.9534 126.635 33.1902 126.071C33.3016 125.807 33.3945 125.59 33.4642 125.419C33.5292 125.271 33.5663 125.197 33.5756 125.197C33.5803 125.197 33.5571 125.28 33.506 125.433C33.4456 125.609 33.3667 125.826 33.2691 126.099C33.0555 126.672 32.7629 127.508 32.4239 128.548C32.0803 129.588 31.7134 130.836 31.3466 132.237C30.989 133.637 30.6407 135.19 30.3388 136.831C30.0509 138.472 29.8419 140.048 29.6887 141.485C29.5494 142.923 29.4611 144.222 29.4193 145.317C29.3775 146.408 29.359 147.295 29.359 147.905C29.359 148.192 29.3543 148.428 29.3497 148.613C29.3497 148.774 29.3404 148.858 29.3311 148.858H29.3404Z" fill="#263238"/>
<path d="M30.2919 136.614C30.2919 136.614 30.0411 136.937 29.5721 137.399C29.1077 137.862 28.4436 138.486 27.6867 139.142C26.9297 139.803 26.2238 140.371 25.7037 140.774C25.1836 141.176 24.8446 141.402 24.826 141.379C24.8074 141.356 25.1093 141.083 25.6062 140.653C26.1588 140.173 26.8182 139.604 27.5427 138.98C28.2625 138.347 28.9173 137.769 29.4653 137.289C29.9575 136.854 30.2687 136.591 30.2872 136.614H30.2919Z" fill="#263238"/>
<path d="M35.9998 141.189C35.9719 141.208 35.6886 140.796 35.2335 140.135C34.7413 139.419 34.1283 138.532 33.4502 137.547C32.7583 136.572 32.136 135.694 31.6298 134.987C31.1608 134.33 30.8775 133.923 30.9007 133.905C30.924 133.886 31.2537 134.265 31.7506 134.894C32.2521 135.527 32.9208 136.415 33.6267 137.427C34.3326 138.435 34.9363 139.368 35.3589 140.057C35.7815 140.741 36.023 141.18 35.9951 141.194L35.9998 141.189Z" fill="#263238"/>
<path d="M33.0089 126.801C33.0414 126.852 31.1467 128.123 28.7736 129.639C26.4006 131.155 24.4548 132.343 24.4223 132.297C24.3898 132.246 26.2845 130.975 28.6575 129.459C31.0259 127.943 32.9764 126.755 33.0089 126.801Z" fill="#263238"/>
<path d="M38.3545 132.541C38.3127 132.583 37.031 131.404 35.4892 129.902C33.9474 128.405 32.7307 127.152 32.7725 127.11C32.8143 127.069 34.096 128.247 35.6378 129.75C37.1796 131.247 38.3963 132.5 38.3545 132.541Z" fill="#263238"/>
<path d="M39.7012 132.426L41.3265 132.292C42.4829 132.195 43.6021 131.857 44.6144 131.289C45.1113 131.007 45.6175 130.734 46.1469 130.522C48.1577 129.717 50.4054 129.861 52.5695 129.754C56.1035 129.579 59.6003 128.687 62.7861 127.152C62.9718 127.064 63.1344 126.93 63.2319 126.75C63.5662 126.145 62.944 125.604 62.4099 125.276C59.67 123.593 56.879 121.892 53.7676 121.056C50.6562 120.219 47.1268 120.362 44.4751 122.179C41.359 124.31 40.2259 128.691 39.7012 132.417" fill="#462682"/>
<path d="M63.2641 126.556C63.2641 126.556 63.1666 126.519 62.9902 126.427C62.7951 126.325 62.5397 126.191 62.2193 126.025C61.5505 125.673 60.5893 125.156 59.3725 124.578C58.1558 124.005 56.6791 123.353 54.9608 122.886C53.2519 122.415 51.2782 122.165 49.2442 122.424C47.2194 122.687 45.3526 123.473 44.0337 124.652C42.7055 125.826 41.8929 127.24 41.3217 128.446C40.7505 129.662 40.3975 130.693 40.1421 131.4C40.0214 131.737 39.9238 132.01 39.8542 132.218C39.7845 132.403 39.7474 132.5 39.7381 132.5C39.7288 132.5 39.7567 132.398 39.8124 132.204C39.8774 131.996 39.961 131.719 40.0632 131.372C40.2954 130.656 40.6251 129.616 41.187 128.382C41.7489 127.162 42.5523 125.715 43.9083 124.504C45.2551 123.288 47.1637 122.479 49.221 122.211C51.2875 121.948 53.2937 122.207 55.0166 122.697C56.7487 123.182 58.2255 123.848 59.4422 124.444C60.6543 125.045 61.6063 125.581 62.2657 125.955C62.5768 126.135 62.8276 126.283 63.018 126.394C63.1898 126.496 63.2781 126.551 63.2734 126.561L63.2641 126.556Z" fill="#263238"/>
<path d="M59.3591 128.645C59.3266 128.696 57.1951 127.323 54.6038 125.585C52.0124 123.847 49.9366 122.396 49.9691 122.345C50.0016 122.294 52.1285 123.667 54.7245 125.405C57.3158 127.143 59.3916 128.594 59.3591 128.645Z" fill="#263238"/>
<path d="M57.3156 122.146C57.3248 122.202 56.5865 122.391 55.653 122.479C54.7196 122.567 53.958 122.512 53.958 122.456C53.958 122.396 54.7103 122.35 55.6345 122.267C56.5586 122.183 57.3063 122.091 57.3156 122.151V122.146Z" fill="#263238"/>
<path d="M47.7719 120.441C47.823 120.473 47.5119 121.092 47.0753 121.832C46.6388 122.572 46.2441 123.145 46.193 123.112C46.1419 123.08 46.453 122.461 46.8896 121.721C47.3261 120.986 47.7208 120.408 47.7719 120.441Z" fill="#263238"/>
<path d="M49.6765 129.893C49.6626 129.916 49.2678 129.713 48.6502 129.338C48.0372 128.968 47.2059 128.423 46.3189 127.781C45.432 127.138 44.6471 126.533 44.0852 126.089C43.5233 125.645 43.1843 125.359 43.2029 125.336C43.2215 125.312 43.593 125.553 44.1781 125.969C44.8143 126.431 45.5898 126.99 46.4443 127.61C47.3313 128.247 48.144 128.811 48.7338 129.213C49.3236 129.616 49.6904 129.865 49.6765 129.893Z" fill="#263238"/>
<path d="M42.0972 139.308C40.5462 138.902 38.6933 140.404 38.3728 141.971C38.0524 143.538 38.6422 145.137 39.3341 146.579C40.862 149.773 42.9749 152.735 45.752 154.935C48.5337 157.14 52.012 158.55 55.5646 158.531C54.9098 155.499 55.7364 152.329 55.3742 149.246C55.0538 146.556 53.7953 143.986 51.8588 142.082C49.9269 140.177 47.3309 138.948 44.6235 138.657C43.6344 138.55 42.4873 138.393 42.0926 139.304" fill="#462682"/>
<path d="M55.5691 158.536C55.5691 158.536 55.4902 158.509 55.3462 158.435C55.2069 158.361 55.0026 158.236 54.7657 158.046C54.2781 157.677 53.7209 156.969 53.2332 156.008C52.9871 155.532 52.7085 155.01 52.4391 154.437C52.1791 153.859 51.8958 153.244 51.6032 152.597C51.306 151.955 50.9809 151.284 50.5769 150.633C50.1729 149.981 49.6946 149.343 49.1652 148.719C48.1017 147.476 46.964 146.403 45.9748 145.373C44.981 144.351 44.1451 143.367 43.5414 142.466C42.933 141.573 42.5615 140.769 42.3526 140.205C42.2504 139.919 42.1807 139.697 42.1436 139.544C42.1064 139.392 42.0879 139.309 42.0925 139.309C42.1111 139.304 42.1993 139.623 42.4269 140.178C42.6591 140.728 43.0445 141.509 43.6621 142.382C44.2751 143.26 45.1157 144.227 46.1141 145.234C47.1079 146.251 48.255 147.323 49.3277 148.576C49.8618 149.204 50.3494 149.852 50.7534 150.517C51.1621 151.183 51.4871 151.862 51.7797 152.509C52.0676 153.156 52.3416 153.776 52.597 154.353C52.8571 154.927 53.1264 155.449 53.3633 155.93C53.8323 156.896 54.3524 157.593 54.8122 157.977C55.2673 158.365 55.5738 158.509 55.5598 158.532L55.5691 158.536Z" fill="#263238"/>
<path d="M47.54 156.012C47.5122 156.007 47.5586 155.61 47.684 154.972C47.8047 154.334 48.0044 153.461 48.2738 152.513C48.5431 151.561 48.831 150.711 49.0632 150.105C49.2908 149.5 49.458 149.134 49.4858 149.144C49.5137 149.153 49.3976 149.537 49.2072 150.156C49.0168 150.771 48.7521 151.626 48.4827 152.573C48.2134 153.521 47.9951 154.385 47.8326 155.009C47.6747 155.633 47.5725 156.021 47.54 156.017V156.012Z" fill="#263238"/>
<path d="M55.277 148.567C55.2677 148.594 54.8544 148.493 54.1857 148.317C53.517 148.141 52.5928 147.906 51.5665 147.674C50.5402 147.443 49.6021 147.263 48.9241 147.138C48.2461 147.009 47.8235 146.93 47.8282 146.898C47.8282 146.87 48.26 146.898 48.9473 146.99C49.6346 147.078 50.582 147.235 51.613 147.466C52.6439 147.698 53.568 147.961 54.2275 148.174C54.8869 148.386 55.2863 148.543 55.277 148.571V148.567Z" fill="#263238"/>
<path d="M41.7811 150.729C41.7532 150.725 41.8136 150.262 41.9483 149.527C42.0829 148.788 42.3012 147.776 42.5938 146.666C42.8863 145.557 43.1928 144.568 43.4343 143.856C43.6758 143.144 43.8523 142.715 43.8801 142.724C43.908 142.733 43.7872 143.181 43.5829 143.902C43.3786 144.623 43.0953 145.617 42.8027 146.722C42.5148 147.827 42.2733 148.829 42.0969 149.56C41.9204 150.285 41.8089 150.738 41.7811 150.734V150.729Z" fill="#263238"/>
<path d="M51.7151 142.077C51.7104 142.137 49.7693 141.98 47.3869 141.73C45.0046 141.48 43.0774 141.226 43.082 141.166C43.0867 141.106 45.0278 141.263 47.4102 141.513C49.7925 141.762 51.7197 142.017 51.7151 142.077Z" fill="#263238"/>
<path d="M50.2931 165.465C50.2931 165.525 43.4805 165.571 35.0797 165.571C26.6788 165.571 19.8662 165.525 19.8662 165.465C19.8662 165.405 26.6742 165.358 35.0797 165.358C43.4852 165.358 50.2931 165.405 50.2931 165.465Z" fill="#455A64"/>
<path d="M45.5568 174.191C45.5568 174.251 40.9686 174.298 35.3077 174.298C29.6468 174.298 25.0586 174.251 25.0586 174.191C25.0586 174.131 29.6468 174.085 35.3077 174.085C40.9686 174.085 45.5568 174.131 45.5568 174.191Z" fill="#455A64"/>
<path d="M45.7336 175.439C45.7336 175.499 41.1454 175.546 35.4845 175.546C29.8235 175.546 25.2354 175.499 25.2354 175.439C25.2354 175.379 29.8235 175.333 35.4845 175.333C41.1454 175.333 45.7336 175.379 45.7336 175.439Z" fill="#455A64"/>
<path d="M45.7334 173.16C45.7334 173.22 40.9873 173.266 35.1313 173.266C29.2754 173.266 24.5293 173.22 24.5293 173.16C24.5293 173.1 29.2754 173.054 35.1313 173.054C40.9873 173.054 45.7334 173.1 45.7334 173.16Z" fill="#455A64"/>
</g>
<defs>
<clipPath id="clip0_8415_9251">
<rect width="286" height="189" fill="white"/>
</clipPath>
</defs>
</svg>
