<svg width="16" height="16" viewBox="0 0 16 16" fill="none" xmlns="http://www.w3.org/2000/svg">
<path d="M7.38462 1.23077V0.615385C7.38462 0.452174 7.44945 0.295649 7.56486 0.180242C7.68026 0.064835 7.83679 0 8 0C8.16321 0 8.31974 0.064835 8.43514 0.180242C8.55055 0.295649 8.61539 0.452174 8.61539 0.615385V1.23077C8.61539 1.39398 8.55055 1.5505 8.43514 1.66591C8.31974 1.78132 8.16321 1.84615 8 1.84615C7.83679 1.84615 7.68026 1.78132 7.56486 1.66591C7.44945 1.5505 7.38462 1.39398 7.38462 1.23077ZM8 3.07692C7.02631 3.07692 6.07448 3.36566 5.26489 3.90661C4.45529 4.44757 3.82429 5.21645 3.45167 6.11602C3.07905 7.0156 2.98156 8.00546 3.17152 8.96044C3.36148 9.91543 3.83035 10.7926 4.51886 11.4811C5.20736 12.1696 6.08457 12.6385 7.03956 12.8285C7.99454 13.0184 8.98441 12.9209 9.88398 12.5483C10.7836 12.1757 11.5524 11.5447 12.0934 10.7351C12.6343 9.92552 12.9231 8.97369 12.9231 8C12.9217 6.69476 12.4025 5.44338 11.4796 4.52043C10.5566 3.59749 9.30524 3.07835 8 3.07692ZM2.64154 3.51231C2.75701 3.62778 2.91362 3.69265 3.07692 3.69265C3.24022 3.69265 3.39684 3.62778 3.51231 3.51231C3.62778 3.39684 3.69265 3.24022 3.69265 3.07692C3.69265 2.91362 3.62778 2.75701 3.51231 2.64154L2.89692 2.02615C2.78145 1.91068 2.62484 1.84581 2.46154 1.84581C2.29824 1.84581 2.14162 1.91068 2.02615 2.02615C1.91068 2.14162 1.84581 2.29824 1.84581 2.46154C1.84581 2.62484 1.91068 2.78145 2.02615 2.89692L2.64154 3.51231ZM2.64154 12.4877L2.02615 13.1031C1.91068 13.2185 1.84581 13.3752 1.84581 13.5385C1.84581 13.7018 1.91068 13.8584 2.02615 13.9738C2.14162 14.0893 2.29824 14.1542 2.46154 14.1542C2.62484 14.1542 2.78145 14.0893 2.89692 13.9738L3.51231 13.3585C3.56948 13.3013 3.61484 13.2334 3.64578 13.1587C3.67672 13.084 3.69265 13.0039 3.69265 12.9231C3.69265 12.8422 3.67672 12.7622 3.64578 12.6874C3.61484 12.6127 3.56948 12.5449 3.51231 12.4877C3.45513 12.4305 3.38726 12.3852 3.31255 12.3542C3.23785 12.3233 3.15778 12.3074 3.07692 12.3074C2.99606 12.3074 2.916 12.3233 2.84129 12.3542C2.76659 12.3852 2.69871 12.4305 2.64154 12.4877ZM12.9231 3.69231C13.0039 3.69237 13.084 3.67651 13.1587 3.64562C13.2334 3.61474 13.3013 3.56944 13.3585 3.51231L13.9738 2.89692C14.0893 2.78145 14.1542 2.62484 14.1542 2.46154C14.1542 2.29824 14.0893 2.14162 13.9738 2.02615C13.8584 1.91068 13.7018 1.84581 13.5385 1.84581C13.3752 1.84581 13.2185 1.91068 13.1031 2.02615L12.4877 2.64154C12.4015 2.7276 12.3428 2.8373 12.3191 2.95673C12.2953 3.07617 12.3075 3.19998 12.3541 3.31249C12.4007 3.42499 12.4796 3.52114 12.5809 3.58875C12.6822 3.65636 12.8013 3.6924 12.9231 3.69231ZM13.3585 12.4877C13.243 12.3722 13.0864 12.3074 12.9231 12.3074C12.7598 12.3074 12.6032 12.3722 12.4877 12.4877C12.3722 12.6032 12.3074 12.7598 12.3074 12.9231C12.3074 13.0864 12.3722 13.243 12.4877 13.3585L13.1031 13.9738C13.1603 14.031 13.2281 14.0764 13.3028 14.1073C13.3775 14.1383 13.4576 14.1542 13.5385 14.1542C13.6193 14.1542 13.6994 14.1383 13.7741 14.1073C13.8488 14.0764 13.9167 14.031 13.9738 13.9738C14.031 13.9167 14.0764 13.8488 14.1073 13.7741C14.1383 13.6994 14.1542 13.6193 14.1542 13.5385C14.1542 13.4576 14.1383 13.3775 14.1073 13.3028C14.0764 13.2281 14.031 13.1603 13.9738 13.1031L13.3585 12.4877ZM1.23077 7.38462H0.615385C0.452174 7.38462 0.295649 7.44945 0.180242 7.56486C0.064835 7.68026 0 7.83679 0 8C0 8.16321 0.064835 8.31974 0.180242 8.43514C0.295649 8.55055 0.452174 8.61539 0.615385 8.61539H1.23077C1.39398 8.61539 1.5505 8.55055 1.66591 8.43514C1.78132 8.31974 1.84615 8.16321 1.84615 8C1.84615 7.83679 1.78132 7.68026 1.66591 7.56486C1.5505 7.44945 1.39398 7.38462 1.23077 7.38462ZM8 14.1538C7.83679 14.1538 7.68026 14.2187 7.56486 14.3341C7.44945 14.4495 7.38462 14.606 7.38462 14.7692V15.3846C7.38462 15.5478 7.44945 15.7044 7.56486 15.8198C7.68026 15.9352 7.83679 16 8 16C8.16321 16 8.31974 15.9352 8.43514 15.8198C8.55055 15.7044 8.61539 15.5478 8.61539 15.3846V14.7692C8.61539 14.606 8.55055 14.4495 8.43514 14.3341C8.31974 14.2187 8.16321 14.1538 8 14.1538ZM15.3846 7.38462H14.7692C14.606 7.38462 14.4495 7.44945 14.3341 7.56486C14.2187 7.68026 14.1538 7.83679 14.1538 8C14.1538 8.16321 14.2187 8.31974 14.3341 8.43514C14.4495 8.55055 14.606 8.61539 14.7692 8.61539H15.3846C15.5478 8.61539 15.7044 8.55055 15.8198 8.43514C15.9352 8.31974 16 8.16321 16 8C16 7.83679 15.9352 7.68026 15.8198 7.56486C15.7044 7.44945 15.5478 7.38462 15.3846 7.38462Z" fill="white"/>
</svg>
