<svg width="57" height="57" viewBox="0 0 57 57" fill="none" xmlns="http://www.w3.org/2000/svg">
<circle cx="28.282" cy="28.2821" r="28.282" fill="white"/>
<mask id="mask0_5034_1822" style="mask-type:alpha" maskUnits="userSpaceOnUse" x="0" y="0" width="57" height="57">
<circle cx="28.282" cy="28.282" r="28.282" fill="#D9D9D9"/>
</mask>
<g mask="url(#mask0_5034_1822)">
<path d="M27.9401 39.2851H19.3848V57.0325H27.9401V39.2851Z" fill="#7B6691"/>
<path d="M27.939 43.4696L21.9844 41.2958V29.3167H27.939V40.9232V43.4696Z" fill="#F9C172"/>
<path d="M27.1265 47.4911L24.2617 53.4302L26.5908 57.0324H27.9416V40.9232L24.9604 45.3716L27.1265 47.4911Z" fill="#204451"/>
<path d="M20.8132 37.6392L27.9401 40.9232L24.959 46.28L19.3848 39.2851L20.8132 37.6392Z" fill="white"/>
<path d="M5.18555 57.0323H27.9404L17.514 42.2506H15.379C5.18555 42.2506 5.18555 57.0323 5.18555 57.0323Z" fill="#7F77D4"/>
<path d="M15.2539 41.9557L19.3841 39.285L27.9395 57.0324L18.3283 49.1369L20.3933 46.28L16.5737 46.7535L15.2539 41.9557Z" fill="#A59BE1"/>
<path d="M36.4968 39.285H27.9414V57.0324H36.4968V39.285Z" fill="#7B6690"/>
<path d="M27.9414 43.4695L33.9038 41.2957V29.3167H27.9414V40.9231V43.4695Z" fill="#FFB45A"/>
<path d="M28.7643 47.4911L31.6213 53.4302L29.2923 57.0324H27.9414V40.9232L30.9226 45.3716L28.7643 47.4911Z" fill="#113240"/>
<path d="M35.0683 37.6392L27.9414 40.9232L30.9226 46.28L36.4968 39.2851L35.0683 37.6392Z" fill="white"/>
<path d="M50.7041 57.0323H27.9492L38.3756 42.2506H40.5106C49.8967 42.2506 50.7118 57.0323 50.7118 57.0323H50.7041Z" fill="#605AA1"/>
<path d="M40.6347 41.9557L36.4968 39.285L27.9414 57.0324L37.5604 49.1369L35.4953 46.28L39.3072 46.7535L40.6347 41.9557Z" fill="#7F77D4"/>
<path d="M19.1289 20.8699L18.9115 20.7767C17.7315 20.2721 17.4442 20.21 17.5296 22.8574C17.5296 22.8574 17.5141 27.6242 19.2842 27.8648C19.455 28.6257 19.6801 29.3477 20.0139 29.9532C21.7529 33.1207 24.8118 36.7696 27.9405 36.7696V13.875C18.2438 12.6794 20.0605 16.8639 19.1289 20.8699Z" fill="#FACB88"/>
<path d="M36.753 20.8699L36.9704 20.7767C38.1504 20.2721 38.4377 20.21 38.3523 22.8574C38.3523 22.8574 38.3678 27.6242 36.5977 27.8648C36.4269 28.6257 36.2018 29.3477 35.8679 29.9532C34.1289 33.1207 31.0701 36.7696 27.9414 36.7696V13.875C37.638 12.6794 35.8214 16.8639 36.753 20.8699Z" fill="#F9C172"/>
<path d="M26.0085 9.02295C24.9604 9.02295 23.9123 9.17046 22.9341 9.55087C16.3507 12.0973 18.9359 20.9943 19.13 23.3854C19.1844 23.9988 19.4794 19.69 19.9995 17.3687C20.3256 15.9247 22.2432 15.6142 23.4698 16.4449C25.3253 17.687 27.9416 17.3687 27.9416 17.3687V9.02295H26.0085Z" fill="#113240"/>
<path d="M29.8745 9.02295C30.9225 9.02295 31.9706 9.17046 32.9488 9.55087C39.5323 12.0973 36.947 20.9943 36.7529 23.3854C36.6986 23.9988 36.4036 19.69 35.8834 17.3687C35.5651 15.9247 33.6398 15.6142 32.4131 16.4449C30.5577 17.687 27.9336 17.3687 27.9336 17.3687V9.02295H29.8667H29.8745Z" fill="#113240"/>
<path d="M34.2281 32.8413H28.9023V32.0649H34.2281C35.4237 32.0649 36.4951 31.3041 36.8988 30.1784L37.8459 27.5L38.5757 27.7562L37.6285 30.4346C37.1239 31.8709 35.7498 32.8413 34.2281 32.8413Z" fill="#474747"/>
<path d="M29.6852 33.7422H30.9352C31.6494 33.7422 32.2317 33.1599 32.2317 32.4457H28.3965C28.3965 33.1599 28.9787 33.7422 29.693 33.7422H29.6852Z" fill="black"/>
<path d="M30.9351 31.1569H29.6852C28.9709 31.1569 28.3887 31.7391 28.3887 32.4534H32.2238C32.2238 31.7391 31.6416 31.1569 30.9273 31.1569H30.9351Z" fill="#474747"/>
<path d="M27.0526 5.92542C21.4085 5.92542 16.8125 10.5447 16.8125 16.2198V17.9511H18.3031V16.2198C18.3031 11.3676 22.2314 7.41601 27.0526 7.41601H27.9454V5.92542H27.0526Z" fill="#474747"/>
<path d="M28.8381 5.92542H27.9453V7.42377H28.8381C33.6593 7.42377 37.5876 11.3754 37.5876 16.2276V17.9589H39.0782V16.2276C39.0782 10.5525 34.4822 5.93318 28.8381 5.93318V5.92542Z" fill="#222222"/>
<path d="M41.5201 18.1374C40.7516 17.1747 39.4783 17.0893 39.4783 17.0893C39.0203 16.9729 38.5933 16.9806 38.2129 17.0893V28.3309C38.5933 28.4396 39.0203 28.4473 39.4783 28.3309C39.4783 28.3309 40.7516 28.2455 41.5201 27.2828C42.2887 26.3201 42.2887 19.1001 41.5201 18.1374Z" fill="#222222"/>
<path d="M36.6758 19.2943V26.1262C36.6758 27.2519 37.3046 28.0748 38.213 28.331V17.0895C37.3046 17.3457 36.6758 18.1608 36.6758 19.2943Z" fill="black"/>
<path d="M16.4288 17.0893C16.4288 17.0893 15.1556 17.1747 14.387 18.1374C13.6184 19.1001 13.6184 26.3201 14.387 27.2828C15.1556 28.2455 16.4288 28.3309 16.4288 28.3309C16.8868 28.4473 17.3138 28.4396 17.6942 28.3309V17.0893C17.3138 16.9806 16.8868 16.9729 16.4288 17.0893Z" fill="#222222"/>
<path d="M17.6953 17.0895V28.331C18.6036 28.0748 19.2325 27.2519 19.2325 26.1262V19.2943C19.2325 18.1686 18.6036 17.3457 17.6953 17.0895Z" fill="black"/>
</g>
</svg>
