<svg width="199" height="152" viewBox="0 0 199 152" fill="none" xmlns="http://www.w3.org/2000/svg">
<path d="M48.0796 142.578C46.9029 141.347 29.6597 106.83 48.8641 75.1938C68.0684 43.5573 116.273 47.2512 135.477 59.5791C154.682 71.907 164.085 87.9289 166.046 104.775C168.008 121.621 155.074 147.92 155.074 147.92L48.0796 142.578Z" fill="#31324E"/>
<path d="M183.3 84.4682H161.147C159.776 84.4682 158.664 83.3561 158.664 81.9857V70.9239C158.664 69.5536 159.776 68.4414 161.147 68.4414H183.3C184.67 68.4414 185.783 69.5536 185.783 70.9239V81.9857C185.783 83.361 184.67 84.4682 183.3 84.4682Z" fill="#7A81FD"/>
<path d="M172.222 90.734L175.732 82.4177H168.707L172.222 90.734Z" fill="#60A8FF"/>
<path d="M172.137 73.7041H178.477V74.6325L181.585 72.8402L178.477 71.0479V71.9763H172.137V73.7041Z" fill="#223A7A"/>
<path d="M181.585 77.3532H175.245V76.4248L172.137 78.2171L175.245 80.0095V79.081H181.585V77.3532Z" fill="white"/>
<path d="M168.242 78.9815L167.939 79.0907C167.939 79.0907 166.996 78.0183 166.509 76.8466C166.023 75.6749 166.003 74.2499 166.003 74.2499L166.222 74.1556L164.881 70.9482C164.643 71.1369 164.414 71.3752 164.231 71.688C163.471 72.969 163.545 74.94 164.31 76.8615C165.075 78.7829 165.889 80.5008 167.378 81.5782C168.257 82.2137 169.012 82.3279 169.593 82.2335L168.242 78.9815Z" fill="#223A7A"/>
<path d="M169.206 78.6044L168.789 78.7583L170.164 82.0451C170.318 81.9954 170.457 81.9309 170.581 81.8663C170.934 81.6727 171.093 81.2457 170.944 80.8684L170.229 79.0612C170.06 78.659 169.608 78.4604 169.206 78.6044Z" fill="#223A7A"/>
<path d="M165.935 70.3875C165.766 70.4471 165.582 70.5315 165.398 70.6407L166.769 73.9176L167.23 73.7239C167.633 73.5551 167.821 73.1033 167.667 72.6962L166.947 70.8492C166.784 70.4471 166.337 70.2386 165.935 70.3875Z" fill="#223A7A"/>
<path d="M41.6697 137.032V100.048C41.6697 100.048 41.2576 90.0837 46.4956 87.209C51.7336 84.3343 73.8177 85.8735 73.8177 85.8735V137.027H41.6697V137.032Z" fill="#14142D"/>
<path d="M80.724 51.2578C80.724 51.2578 79.3885 62.4537 78.8771 63.3772C78.3657 64.3007 78.3657 64.3007 78.3657 64.3007L75.7988 66.0483C75.7988 66.0483 80.729 73.034 86.7912 74.161C92.8534 75.293 92.337 71.6935 92.337 71.6935L91.4135 69.7423L92.6448 59.0577C92.6399 59.0627 81.6475 54.0282 80.724 51.2578Z" fill="#FF9D8C"/>
<path d="M72.6055 66.9718L76.6122 65.2241C76.6122 65.2241 79.179 69.4344 85.137 71.902C91.0949 74.3695 91.1991 72.9297 91.507 71.902C91.8148 70.8742 91.4027 69.7472 91.4027 69.7472L91.8446 66.1526L94.2277 66.947L102.499 133.849L81.2345 134.877L72.6055 66.9718Z" fill="white"/>
<path d="M92.2305 66.2222C92.2305 66.2222 93.6703 69.5437 95.0059 77.3486C96.3414 85.1535 97.5727 98.3056 97.8806 107.342C98.1884 116.383 98.392 137.027 98.392 137.027C98.392 137.027 124.895 137.027 125.203 137.027C125.51 137.027 127.357 126.859 127.357 126.859C127.357 126.859 115.645 116.825 115.029 115.181C114.617 114.084 114.826 93.7825 113.078 84.4335C111.331 75.0846 109.072 73.2029 104.345 70.8743C99.4694 68.4713 92.2305 66.2222 92.2305 66.2222Z" fill="#223A7A"/>
<path d="M106.2 125.26C106.061 125.26 105.952 125.151 105.952 125.012C105.952 124.277 105.823 113.841 105.694 103.752C105.57 93.6583 105.436 83.2221 105.436 82.4873C105.436 82.3482 105.545 82.239 105.684 82.239C105.823 82.239 105.932 82.3482 105.932 82.4873C105.932 83.2221 106.061 93.6584 106.19 103.747C106.314 113.841 106.448 124.277 106.448 125.012C106.448 125.151 106.339 125.26 106.2 125.26Z" fill="#8593B6"/>
<path d="M52.7817 122.753L52.5781 137.032H83.8076C83.8076 137.032 85.1431 124.913 84.6317 123.78C84.1154 122.648 52.7817 122.753 52.7817 122.753Z" fill="#223A7A"/>
<path d="M87.535 63.0694C88.806 64.0971 90.5487 64.9163 91.9041 65.4178L92.6389 59.0627C92.6389 59.0627 84.3823 55.2794 81.582 52.4692C82.1679 55.6667 83.6077 59.9017 87.535 63.0694Z" fill="#8E9BBB"/>
<path d="M102.298 30.405C102.298 30.405 104.453 34.1039 104.865 38.622C105.277 43.1401 104.865 54.7481 101.166 59.6783C97.467 64.6085 89.7615 63.1686 86.2711 60.1897C83.0638 57.454 79.9011 54.4353 79.0819 48.4774C78.2627 42.5195 80.8296 31.2193 88.1231 28.856C95.4165 26.5026 102.298 30.405 102.298 30.405Z" fill="#FF9D8C"/>
<path d="M111.561 130.573C111.561 130.573 111.199 130.573 110.648 130.558C110.518 130.553 110.374 130.558 110.225 130.553C109.694 130.538 109.049 130.523 108.398 130.503C108.254 130.498 108.105 130.493 107.961 130.488C107.316 130.474 106.765 130.553 106.249 130.523H106.234C106.124 130.518 105.966 130.533 105.836 130.538C105.772 130.543 105.712 130.548 105.673 130.543C105.375 130.489 105.315 130.419 104.992 130.275C104.575 130.086 98.9303 128.825 94.3377 128.855C89.7501 128.875 85.6342 129.188 84.9639 128.627C84.2887 128.056 83.8816 122.291 87.7989 121.914L92.6149 123.741C92.6149 123.741 103.612 122.435 107.644 125.409C111.685 128.383 111.561 130.573 111.561 130.573Z" fill="#FF9D8C"/>
<path d="M106.23 130.523C106.121 130.518 105.962 130.533 105.833 130.538C105.734 130.379 105.525 130.091 105.411 129.972C104.17 128.706 101.171 127.886 100.084 127.623C99.9845 127.599 99.92 127.499 99.9448 127.4C99.9646 127.301 100.069 127.241 100.173 127.261C101.757 127.643 105.118 128.621 106.071 130.225C106.101 130.27 106.181 130.424 106.23 130.523Z" fill="#223A7A"/>
<path d="M108.398 130.503C108.254 130.498 108.105 130.498 107.961 130.488C106.606 128.016 104.386 127.306 101.651 126.427L101.487 126.372C101.392 126.343 101.338 126.233 101.368 126.134C101.397 126.04 101.502 125.985 101.606 126.015L101.765 126.07C104.659 126.998 106.993 127.748 108.398 130.503Z" fill="#223A7A"/>
<path d="M110.643 130.558C110.514 130.553 110.37 130.558 110.221 130.553C109.397 128.825 106.676 125.931 103.082 125.261C102.978 125.241 102.913 125.146 102.928 125.042C102.948 124.943 103.047 124.878 103.146 124.893C106.85 125.588 109.844 128.617 110.643 130.558Z" fill="#223A7A"/>
<path d="M81.5448 43.3984C81.5448 43.3984 83.8039 42.321 85.3976 39.2874C86.9914 36.2588 86.7828 33.5331 86.7828 33.5331C86.7828 33.5331 89.6575 33.0714 93.972 34.3573C98.2866 35.6432 103.42 37.3859 107.735 34.9233C112.049 32.4557 112.049 28.5036 109.944 26.8602C107.586 25.0182 102.909 26.1403 102.909 26.1403C102.909 26.1403 104.706 24.3927 103.733 23.3649C102.755 22.3372 99.215 23.6727 99.215 23.6727C99.215 23.6727 94.9005 20.232 86.7332 20.6441C78.5659 21.0562 74.6634 26.756 74.2017 33.126C73.7399 39.496 76.0487 45.866 76.0487 45.866L81.5448 43.3984Z" fill="#223A7A"/>
<path d="M98.1143 44.9426C97.6525 46.0846 97.6624 47.4102 97.5482 48.6167C97.4589 49.56 97.2851 50.6573 98.149 51.2928C98.5611 51.5957 100.512 52.4149 99.5094 53.0802C99.1271 53.3334 98.4866 53.2639 98.0497 53.244C97.7518 53.2291 97.449 53.2192 97.1461 53.1944C96.8234 53.1695 96.5106 53.0752 96.1879 53.0702C95.9992 53.0702 95.9396 53.3185 96.0935 53.4178C96.6099 53.7405 97.3745 53.8448 97.9752 53.8646C98.5809 53.8894 98.9881 53.8597 99.5342 53.5916C99.8669 53.4277 100.195 53.1894 100.244 52.7922C100.304 52.3454 99.9662 51.9432 99.6286 51.69C99.2413 51.402 98.7647 51.268 98.3724 50.985C97.8263 50.5977 97.871 49.9374 97.9107 49.3316C98.005 47.872 98.3377 46.4371 98.4668 44.9824C98.4966 44.7689 98.1887 44.7689 98.1143 44.9426Z" fill="#8E9BBB"/>
<path d="M102.311 48.358C102.157 49.2218 101.527 49.8375 100.906 49.7283C100.28 49.619 99.903 48.8247 100.052 47.9608C100.206 47.0969 100.836 46.4812 101.457 46.5904C102.083 46.6997 102.465 47.4891 102.311 48.358Z" fill="#223A7A"/>
<path d="M94.454 47.6735C94.315 48.6069 93.6547 49.2821 92.9844 49.1828C92.3092 49.0835 91.8772 48.2444 92.0162 47.311C92.1553 46.3776 92.8156 45.7024 93.4859 45.8017C94.1611 45.901 94.5931 46.74 94.454 47.6735Z" fill="#223A7A"/>
<path d="M100.482 44.7887C100.964 44.8681 101.445 44.7887 101.932 44.8234C102.046 44.8334 102.165 44.8483 102.279 44.8582C102.364 44.8681 102.126 44.8334 102.24 44.8532C102.265 44.8582 102.289 44.8632 102.314 44.8632C102.374 44.8731 102.433 44.888 102.493 44.9029C102.597 44.9277 102.697 44.9674 102.801 44.9873C102.895 45.0071 102.999 45.032 103.094 45.027C103.148 45.022 103.198 45.0121 103.253 45.0071C103.218 45.0121 103.188 45.0171 103.153 45.027C103.153 45.0369 103.332 45.0121 103.352 45.0071C103.625 44.9426 103.799 44.6248 103.719 44.3567C103.699 44.2773 103.665 44.2127 103.615 44.1482C103.595 44.1234 103.575 44.0936 103.551 44.0688C103.57 44.0886 103.59 44.1134 103.61 44.1333C103.59 44.1035 103.57 44.0787 103.546 44.0489C103.521 44.0042 103.481 43.9645 103.436 43.9397C103.397 43.9099 103.362 43.8801 103.322 43.8503C103.193 43.7609 103.029 43.7113 102.875 43.6716C102.587 43.5971 102.289 43.5623 101.992 43.5574C101.699 43.5574 101.406 43.5872 101.118 43.6269C100.86 43.6616 100.577 43.751 100.368 43.9049C100.209 44.0241 100.11 44.178 100.135 44.3865C100.155 44.5603 100.294 44.7589 100.482 44.7887Z" fill="#223A7A"/>
<path d="M95.0045 43.4133C94.9399 43.3736 94.8704 43.3388 94.8059 43.309C94.7463 43.2842 94.5874 43.1998 94.7066 43.2643C94.6619 43.2395 94.6172 43.2147 94.5725 43.1948C94.3739 43.0955 94.1654 43.026 93.9519 42.9714C93.4852 42.8522 92.9887 42.8225 92.5071 42.8721C91.9957 42.9267 91.524 43.0508 91.0822 43.3189C91.0176 43.3587 90.9531 43.3934 90.9034 43.448C90.8687 43.4927 90.8339 43.5374 90.7992 43.5821C90.8091 43.5672 90.819 43.5523 90.829 43.5374C90.69 43.6317 90.6105 43.7906 90.6155 43.9545C90.6155 44.1133 90.6999 44.2474 90.8389 44.3219C91.0077 44.4162 91.1666 44.3715 91.3403 44.3268C91.2559 44.3268 91.1666 44.3268 91.0822 44.3268C91.2261 44.3467 91.3255 44.3566 91.4694 44.3219C91.4744 44.3219 91.6084 44.2871 91.5191 44.307C91.4347 44.3268 91.6581 44.2921 91.6829 44.2871C91.7127 44.2821 91.8666 44.2672 91.7028 44.2821C91.7326 44.2772 91.7624 44.2772 91.7922 44.2722C91.8716 44.2623 91.9461 44.2524 92.0255 44.2474C92.3631 44.2226 92.7007 44.2077 93.0433 44.1928C93.3561 44.1828 93.6788 44.1779 93.9966 44.1928C94.1307 44.1977 94.2647 44.2027 94.3988 44.2077C94.4732 44.2077 94.4434 44.2226 94.3888 44.2077C94.4186 44.2176 94.4434 44.2226 94.4732 44.2275C94.5278 44.2424 94.5825 44.2623 94.6371 44.2821C94.8555 44.3665 95.1187 44.2077 95.1981 44.0041C95.2875 43.7906 95.213 43.5374 95.0045 43.4133Z" fill="#223A7A"/>
<path d="M97.4413 57.6925C97.9129 56.7442 98.7719 56.0491 99.7599 55.6022C98.901 55.5129 94.8347 55.1405 93.8119 55.7214C92.665 56.3718 94.0254 58.9933 96.3986 59.1224C96.6469 59.1373 96.8753 59.1174 97.0937 59.0827C97.1136 58.606 97.2228 58.1344 97.4413 57.6925Z" fill="#223A7A"/>
<path d="M78.668 52.1814C78.668 52.1814 79.0801 53.7751 81.4434 55.6221C83.8067 57.469 87.2325 58.8245 87.2325 58.8245L87.5056 57.6279C87.5056 57.6279 83.9606 56.0888 82.3172 54.3908C80.6738 52.6977 80.4702 51.7693 80.4702 51.7693L78.668 52.1814Z" fill="#DEE1EB"/>
<path d="M87.9128 56.7392C89.8144 56.6498 90.8769 58.1542 91.006 59.1273C91.14 60.1004 90.2265 61.1927 88.0866 60.2345C85.4353 59.0429 86.0112 56.8285 87.9128 56.7392Z" fill="#223A7A"/>
<path d="M80.1613 40.4195C80.1613 40.4195 80.9806 34.5162 84.9376 30.5045C92.4893 22.8536 98.9089 23.3153 98.9089 23.3153C98.9089 23.3153 98.8593 22.2379 96.4414 21.4137C94.1724 20.6442 93.1546 21.0562 93.1546 21.0562C93.1546 21.0562 86.9385 21.5676 81.7005 27.3716C76.4625 33.1756 75.8965 40.5734 75.8965 40.5734L80.1613 40.4195Z" fill="#DEE1EB"/>
<path d="M79.5972 39.6992C74.6521 38.8602 71.8916 42.7278 71.688 46.6352C71.4845 50.5377 74.3195 53.5067 78.1077 53.2088C86.6374 52.5385 85.6594 40.727 79.5972 39.6992Z" fill="white"/>
<path d="M77.1341 49.416C75.8283 49.416 74.7261 48.7607 74.0955 47.6038C73.4203 46.3676 73.4749 44.8433 74.2395 43.7213C74.2991 43.6368 74.4133 43.617 74.4977 43.6716C74.5821 43.7312 74.6069 43.8454 74.5473 43.9298C73.8622 44.9377 73.8125 46.308 74.4232 47.4251C74.9991 48.4826 76.0219 49.0834 77.2334 49.0437C78.3654 49.0139 79.3236 48.4975 79.9293 47.5889C80.6244 46.5513 80.7833 45.1214 80.3364 43.9397C79.8896 42.768 78.6732 41.9736 77.566 42.1176C77.4667 42.1325 77.3724 42.058 77.3575 41.9587C77.3426 41.8544 77.4171 41.7651 77.5164 41.7502C78.8122 41.5764 80.1726 42.4651 80.684 43.8106C81.1755 45.1015 80.9968 46.6655 80.2371 47.7975C79.5569 48.8103 78.4945 49.3862 77.2433 49.416C77.2036 49.416 77.1688 49.416 77.1341 49.416Z" fill="#818FB3"/>
<path d="M73.5362 65.5369C73.5362 65.5369 58.5371 69.2357 53.2991 75.1937C48.0611 81.1516 45.5936 110.529 45.4943 115.976C45.39 121.422 49.1932 123.681 51.4522 125.22C53.7113 126.759 63.6758 129.535 71.6892 129.947C79.7026 130.359 87.304 129.947 87.304 129.947C87.304 129.947 87.2791 128.199 88.5104 125.632C89.6524 123.249 91.1021 122.758 91.1021 122.758L84.2208 120.29C84.2208 120.29 83.0143 98.6976 81.1375 88.2415C78.9778 76.2164 73.5362 65.5369 73.5362 65.5369Z" fill="#223A7A"/>
<path d="M98.3963 116.835C98.3615 116.835 98.3268 116.83 98.297 116.815C98.1728 116.76 98.1133 116.611 98.1728 116.487C99.5779 113.314 101.033 107.093 101.852 102.724L101.921 102.372C102.17 101.086 102.477 99.4921 101.862 98.3849C101.549 97.8238 100.839 96.6025 100.154 95.4307C99.4439 94.2143 98.7786 93.0625 98.5899 92.7199C98.2275 92.0496 99.3694 90.2573 101.018 87.7996C101.465 87.1343 101.847 86.5634 102.07 86.1761C102.656 85.1583 102.269 84.2299 101.812 83.1475L101.658 82.7751C101.246 81.7672 100.779 80.7594 100.328 79.7813C100.144 79.3841 99.9602 78.9819 99.7765 78.5798C99.5332 78.0485 99.2949 77.5073 99.0467 76.9612C97.5969 73.7241 96.0925 70.3777 94.1711 67.1455C94.1016 67.0264 94.1413 66.8774 94.2555 66.8029C94.3747 66.7334 94.5236 66.7732 94.5981 66.8874C96.5344 70.1443 98.0437 73.5056 99.4985 76.7527C99.7418 77.2988 99.985 77.84 100.223 78.3663C100.407 78.7684 100.591 79.1656 100.774 79.5628C101.226 80.5459 101.698 81.5587 102.11 82.5765L102.264 82.9439C102.726 84.0412 103.202 85.1831 102.492 86.4095C102.259 86.8116 101.872 87.3925 101.42 88.0628C100.561 89.3437 98.7736 92.0099 99.0169 92.4716C99.2006 92.8093 99.8659 93.9562 100.571 95.1676C101.256 96.3443 101.966 97.5657 102.284 98.1317C102.989 99.3928 102.661 101.091 102.398 102.451L102.328 102.804C102.031 104.392 100.447 112.535 98.6147 116.676C98.58 116.78 98.4906 116.835 98.3963 116.835Z" fill="#8593B6"/>
<path d="M83.7533 117.708C83.6888 117.708 83.6242 117.684 83.5795 117.634C82.4128 116.457 76.7825 106.711 76.3655 104.879C76.1371 103.876 76.713 101.329 77.2691 98.8666C77.7011 96.96 78.1479 94.9889 78.0188 94.4527C77.8301 93.6534 76.3903 92.4767 74.9952 91.3397C73.3121 89.9644 71.5743 88.5445 71.2367 87.2635C70.8544 85.8088 71.1821 76.7031 71.3956 70.6806C71.475 68.5159 71.5346 66.803 71.5346 66.1923C71.5346 66.0533 71.6438 65.9441 71.7828 65.9441C71.9219 65.9441 72.0311 66.0533 72.0311 66.1923C72.0311 66.813 71.9715 68.5259 71.8921 70.6955C71.6885 76.3258 71.3509 85.7492 71.7134 87.1344C72.0112 88.2565 73.7589 89.6864 75.303 90.9475C76.8272 92.1937 78.2621 93.3654 78.4905 94.3286C78.6444 94.9741 78.2273 96.826 77.7408 98.9659C77.2194 101.26 76.6336 103.861 76.8371 104.755C77.2492 106.552 82.7752 116.115 83.9221 117.272C84.0164 117.371 84.0164 117.525 83.9221 117.624C83.8824 117.684 83.8179 117.708 83.7533 117.708Z" fill="#8593B6"/>
<path d="M63.5701 113.448C63.5602 113.448 63.5453 113.448 63.5353 113.448C63.4013 113.429 63.307 113.305 63.3219 113.165C63.5056 111.875 66.3554 86.1563 66.4845 84.1852C66.4944 84.0462 66.6136 83.9419 66.7477 83.9518C66.8867 83.9618 66.986 84.0809 66.981 84.215C66.8519 86.186 63.9971 111.939 63.8134 113.23C63.7985 113.359 63.6893 113.448 63.5701 113.448Z" fill="#8593B6"/>
<path d="M84.0124 120.429C83.9826 120.429 83.9479 120.424 83.9181 120.409C83.2876 120.151 80.4973 119.213 76.9672 118.021C69.8376 115.618 60.0765 112.326 58.2196 111.358C58.0955 111.294 58.0508 111.145 58.1154 111.026C58.1799 110.901 58.3288 110.857 58.448 110.921C60.2701 111.87 70.4135 115.29 77.1261 117.554C80.6661 118.751 83.4613 119.689 84.1068 119.952C84.2359 120.002 84.2955 120.151 84.2458 120.275C84.2011 120.374 84.1117 120.429 84.0124 120.429Z" fill="#8593B6"/>
<path d="M80.5876 130.672C74.312 130.672 62.1529 129.54 52.9131 126.273C52.784 126.228 52.7145 126.084 52.7641 125.955C52.8088 125.826 52.9528 125.757 53.0819 125.806C64.7545 129.937 81.0841 130.642 84.1227 129.957C84.2567 129.927 84.3908 130.012 84.4206 130.146C84.4503 130.28 84.3659 130.414 84.2319 130.444C83.5666 130.588 82.2906 130.672 80.5876 130.672Z" fill="#8593B6"/>
<path d="M8.76859 68.9978C10.7148 70.7107 13.1824 71.808 14.8904 73.789C15.5606 74.5685 16.1663 75.3976 16.7919 76.2168C17.2487 76.8126 18.4601 77.8006 18.6538 78.5454C18.7382 78.8731 18.7233 78.4262 18.6339 78.0985C18.6289 78.0836 18.624 78.0737 18.619 78.0588C18.4502 76.5445 18.3261 75.0252 18.2715 73.501C18.2169 71.9817 18.3112 70.4575 18.2168 68.9432C18.0828 66.8033 17.4125 64.7329 15.6649 63.3924C14.8109 62.737 13.7137 62.3398 12.9242 61.61C12.1795 60.9199 12.4774 60.1304 12.9143 59.3609C13.3264 58.641 13.8229 57.931 13.9818 57.1018C14.1655 56.1585 13.808 55.1854 13.3314 54.386C12.3135 52.6781 10.0595 50.7715 7.91957 51.0297C6.13716 51.2432 5.9336 53.2987 5.96339 54.7286C5.98821 56.1188 6.12725 57.509 6.13718 58.8991C6.15207 60.329 5.90879 61.7341 5.88893 63.159C5.86907 65.5869 6.98618 67.4339 8.76859 68.9978Z" fill="#7A81FD"/>
<path d="M26.8646 91.2357C27.4058 89.9399 28.0313 88.7334 28.7959 87.5567C29.8435 85.9431 31.0103 84.3692 31.7153 82.562C32.4352 80.715 32.331 78.7439 32.4005 76.8026C32.4501 75.3727 32.8771 73.9528 32.7629 72.5179C32.7083 71.8328 32.3111 70.7206 31.4224 70.8348C30.7323 70.9242 30.3202 71.7781 30.0571 72.3292C29.5953 73.2825 29.2726 74.3003 28.93 75.3032C28.796 75.6955 28.6669 76.0927 28.4981 76.47C28.3988 76.6885 28.086 77.2247 27.7881 77.1552C27.2817 77.031 27.7434 74.9706 27.8179 74.6032C28.1952 72.7711 28.7612 71.0682 28.8406 69.1815C28.9548 66.4458 28.7413 63.1888 26.0652 61.6944C25.3652 61.3021 24.4814 61.0688 23.8161 61.6546C23.1608 62.2306 22.9771 63.2285 22.8778 64.0527C22.5799 66.5799 23.1757 68.968 23.985 71.3462C24.6552 73.3073 25.4496 75.333 25.5092 77.4332C25.5638 79.4539 24.5162 81.2413 24.0197 83.1528C23.2352 86.1913 23.3941 87.8049 23.3941 88.788C23.3892 90.0193 23.4338 91.2407 23.5232 92.472C23.6076 93.604 23.7019 94.731 23.841 95.8581C23.8707 96.0864 23.8956 96.3248 23.9253 96.5631C23.4884 95.5155 23.3395 94.3189 22.9771 93.2664C22.3366 91.3995 21.5968 89.5675 20.9811 87.6907C20.4747 86.1417 19.9931 84.5777 19.3278 83.0833C18.7023 81.6832 17.9426 80.2036 16.7709 79.1759C16.0609 78.5553 15.2069 78.1928 14.2586 78.1978C13.6529 78.2028 13.1068 78.4113 12.5309 78.5652C11.8209 78.7539 11.2598 78.6893 10.6739 78.2375C8.75748 76.7629 8.17164 74.1216 6.75663 72.2548C5.6991 70.8646 3.18683 68.4914 1.33988 70.0106C0.361785 70.8149 0.0887275 72.369 0.143342 73.5655C0.207886 75.06 0.863262 76.4303 1.63779 77.6814C2.46693 79.0121 3.53438 80.2036 4.29402 81.569C4.74583 82.3783 4.81535 83.1528 4.74087 84.0614C4.67136 84.9203 4.59688 85.7495 4.88982 86.5786C5.76861 89.066 8.5142 88.7185 10.6491 88.783C12.1436 88.8277 13.7423 89.0511 15.1623 89.5278C16.8007 90.0789 17.8682 91.1463 18.454 92.7649C18.876 93.9366 19.1044 95.2672 19.9038 96.2652C20.2811 96.7319 20.7776 97.0794 21.3237 97.3227C22.1578 97.6901 24.6949 97.849 24.7098 97.6206C24.7744 96.8461 25.1418 96.0269 25.3702 95.2921C25.7971 93.9118 26.3036 92.5663 26.8646 91.2357Z" fill="#7A81FD"/>
<path d="M38.6449 90.7642C38.4265 89.3442 38.4662 87.7753 37.7959 86.4695C37.7462 86.3752 37.6221 86.3504 37.5328 86.4C37.0512 86.6681 37.0313 87.4476 36.9916 87.9242C36.927 88.7186 36.9767 89.513 36.8774 90.3024C36.7086 91.6926 36.3859 93.1225 35.8844 94.4283C35.3184 95.9078 34.2907 96.7469 32.7962 97.2087C31.838 97.5066 30.8947 97.7647 30.0903 98.4002C29.3704 98.9712 28.8739 99.7557 28.5065 100.585C27.5086 102.824 27.0319 105.321 26.5702 107.714C26.2574 109.323 26.0042 110.942 25.612 112.535C25.2197 114.129 24.8027 115.713 24.5792 117.341C24.5395 117.426 24.4998 117.505 24.4651 117.59C24.3608 117.833 24.7431 117.962 24.8722 117.763C26.4163 115.39 28.293 113.255 30.8599 111.95C32.0167 111.359 33.5559 111.235 34.524 110.306C35.2588 109.601 35.3581 108.524 35.2489 107.561C35.1049 106.299 34.4992 105.262 33.8686 104.184C33.5211 103.594 33.114 102.963 33.253 102.243C33.3871 101.568 33.9481 101.066 34.5041 100.719C35.5716 100.059 36.8178 99.7606 37.6867 98.8074C38.496 97.9236 38.9478 96.8164 39.0371 95.6249C39.1613 94.041 38.8882 92.3331 38.6449 90.7642Z" fill="#7A81FD"/>
<path d="M17.6178 98.9614C16.2574 97.2088 14.614 95.6945 12.7671 94.4682C11.7791 93.8128 9.45548 92.5219 8.98381 94.4533C8.71074 95.5853 9.81793 96.6974 10.5478 97.4074C11.645 98.4749 12.9111 99.3934 13.8346 100.625C12.6877 100.992 11.4911 101.062 10.4981 101.851C9.32142 102.789 8.79019 104.597 9.96192 105.749C10.5329 106.31 11.2875 106.652 11.9926 106.995C12.916 107.442 13.8544 107.844 14.7978 108.241C16.8383 109.095 18.9037 109.959 20.6415 111.354C22.4139 112.774 24.0822 115.182 24.2212 117.5C24.2361 117.724 24.1517 117.52 24.2808 117.421C24.3552 117.486 24.5936 117.371 24.5936 117.242C24.5588 113.802 23.9382 110.52 22.5331 107.367C21.2273 104.443 19.5839 101.499 17.6178 98.9614Z" fill="#7A81FD"/>
<path d="M12.9118 66.9126C13.6615 68.4716 14.4459 69.9958 15.28 71.5151C16.0844 72.9797 16.8837 74.4295 17.4845 75.9934C18.2242 77.9149 18.9988 79.8065 19.7783 81.713C20.5925 83.694 21.3174 85.7098 21.8983 87.7702C23.0353 91.7918 23.8793 95.9276 24.2963 100.088C24.5098 102.203 24.6042 104.328 24.5446 106.453C24.4999 108.112 24.3113 109.755 24.1573 111.408C23.9935 113.126 23.8793 114.869 24.0233 116.592C24.1424 118.032 24.3708 119.749 25.4929 120.777C25.7114 120.981 26.0242 120.727 25.8951 120.469C24.5645 117.744 24.6389 114.77 24.8921 111.815C25.0312 110.182 25.2248 108.558 25.2844 106.92C25.3539 104.835 25.2744 102.744 25.0758 100.669C24.6886 96.588 23.8743 92.5564 22.8218 88.5994C22.2806 86.5687 21.6103 84.5778 20.8408 82.6266C20.0662 80.6704 19.1726 78.7639 18.4229 76.7978C17.0674 73.2379 15.002 70.0852 13.1699 66.7686C13.0756 66.5899 12.8274 66.7388 12.9118 66.9126Z" fill="#43588E"/>
<path d="M24.364 96.0118C24.5775 93.4201 24.8109 90.9227 25.6797 88.4552C26.0869 87.3033 26.5784 86.1812 26.9756 85.0244C27.2983 84.0662 27.7849 82.7554 27.5366 81.7376C27.5068 81.6234 27.343 81.6284 27.3132 81.7376C27.1444 82.3185 27.1643 82.954 27.0451 83.5498C26.9259 84.1307 26.772 84.6967 26.5933 85.2627C26.211 86.4593 25.7095 87.6062 25.2776 88.7878C24.4385 91.0667 24.0066 93.5889 24.1903 96.0118C24.1952 96.126 24.3541 96.126 24.364 96.0118Z" fill="#43588E"/>
<path d="M9.35274 81.1172C10.3805 83.5997 13.4736 83.7436 15.7277 84.2997C17.3364 84.6969 18.523 85.7693 19.3769 87.1645C20.3103 88.6887 20.9409 90.4761 21.4622 92.1791C21.4672 92.1989 21.497 92.189 21.492 92.1691C20.8615 89.1902 19.9578 85.6055 16.8895 84.2203C14.4269 83.1081 11.1848 83.6692 9.61589 81.008C9.52652 80.8789 9.28819 80.9682 9.35274 81.1172Z" fill="#43588E"/>
<path d="M22.735 95.615C22.8592 95.7788 22.9684 95.9526 23.0975 96.1164C23.162 96.1959 23.2216 96.2704 23.301 96.3349C23.3805 96.3994 23.4748 96.4838 23.589 96.4789C23.6337 96.4789 23.6684 96.4243 23.6436 96.3845C23.594 96.3001 23.4996 96.2505 23.4301 96.1909C23.3556 96.1264 23.2812 96.0618 23.2116 95.9923C23.0677 95.8583 22.9386 95.7093 22.7946 95.5703C22.7648 95.5455 22.7152 95.5852 22.735 95.615Z" fill="#43588E"/>
<path d="M16.3076 103.499C18.0801 104.954 19.7185 106.677 21.0193 108.569C21.6399 109.472 22.2159 110.426 22.7372 111.389C23.3032 112.441 23.6805 113.553 24.1224 114.661C24.1572 114.745 24.3111 114.745 24.2962 114.636C24.048 112.297 22.5684 110.296 21.3867 108.35C20.7711 107.342 20.0065 106.528 19.1823 105.684C18.3333 104.815 17.4645 103.991 16.4715 103.291C16.3473 103.207 16.1934 103.405 16.3076 103.499Z" fill="#43588E"/>
<path d="M30.4384 100.749C29.5845 101.235 29.5547 102.581 29.5398 103.445C29.51 105.103 29.9171 106.657 29.1922 108.236C28.5369 109.661 27.4892 110.852 26.6651 112.173C25.8955 113.414 25.1309 114.998 25.1508 116.488C25.1508 116.572 25.2848 116.622 25.3245 116.532C25.6373 115.857 25.7466 115.088 25.97 114.378C26.2182 113.578 26.5707 112.853 27.0226 112.153C27.8169 110.922 28.7901 109.805 29.4355 108.484C30.1157 107.089 30.0164 105.709 29.9717 104.199C29.9419 103.236 29.8476 101.687 30.6221 100.972C30.7314 100.863 30.5775 100.669 30.4384 100.749Z" fill="#43588E"/>
<path d="M24.724 116.641C21.2833 116.592 14.7246 116.557 14.7246 116.557L16.3482 128.602C16.7156 131.313 19.0242 133.333 21.7599 133.333H24.585H24.8581H27.6831C30.4187 133.333 32.7324 131.313 33.0949 128.602L34.7184 116.557C34.7184 116.552 28.1647 116.592 24.724 116.641Z" fill="white"/>
<path d="M191.102 94.5022L171.465 133.402L114.215 133.81L131.88 93.9561L191.102 94.5022Z" fill="#F6F7FA"/>
<path d="M76.2207 133.571L76.2306 130.458H113.294L130.343 93.0674H189.615L191.104 94.5072H133.203L115.483 133.541C115.483 133.537 76.2207 133.467 76.2207 133.571Z" fill="#D9DEE8"/>
<path d="M161.374 115.966C160.728 117.907 157.218 119.406 153.534 119.312C149.85 119.218 147.387 117.574 148.038 115.633C148.683 113.692 152.193 112.192 155.877 112.287C159.561 112.381 162.019 114.029 161.374 115.966Z" fill="#D9DEE8"/>
<path d="M115.482 133.785C115.447 133.785 115.412 133.78 115.378 133.765C115.254 133.71 115.199 133.561 115.254 133.437L133.038 94.259H191.098C191.237 94.259 191.346 94.3683 191.346 94.5073C191.346 94.6463 191.237 94.7555 191.098 94.7555H133.356L115.7 133.646C115.666 133.73 115.576 133.785 115.482 133.785Z" fill="white"/>
<path d="M73.6372 136.516H5.5332V151.614H73.6372V136.516Z" fill="#596B9B"/>
<path d="M195.785 136.516H73.25V151.614H195.785V136.516Z" fill="#7A89AF"/>
<path d="M73.6352 136.516H73.248H5.53125V139.291H73.248H73.6352H195.782V136.516H73.6352Z" fill="#BDC4D7"/>
<path d="M76.6158 133.537H2.24609V137.236H76.6158V133.537Z" fill="#6F7FA9"/>
<path d="M198.763 133.537H76.2285V137.236H198.763V133.537Z" fill="#9CA6C3"/>
<path d="M56.4393 54.3113H32.3991C30.9096 54.3113 29.7031 53.1049 29.7031 51.6154V39.6151C29.7031 38.1257 30.9096 36.9192 32.3991 36.9192H56.4393C57.9288 36.9192 59.1353 38.1257 59.1353 39.6151V51.6154C59.1353 53.1049 57.9288 54.3113 56.4393 54.3113Z" fill="white"/>
<path d="M65.9863 45.6178L56.9551 41.8047V49.4259L65.9863 45.6178Z" fill="white"/>
<path d="M38.716 47.2806C39.6346 47.2806 40.3792 46.5359 40.3792 45.6173C40.3792 44.6988 39.6346 43.9541 38.716 43.9541C37.7974 43.9541 37.0527 44.6988 37.0527 45.6173C37.0527 46.5359 37.7974 47.2806 38.716 47.2806Z" fill="#223A7A"/>
<path d="M44.4211 47.2806C45.3396 47.2806 46.0843 46.5359 46.0843 45.6173C46.0843 44.6988 45.3396 43.9541 44.4211 43.9541C43.5025 43.9541 42.7578 44.6988 42.7578 45.6173C42.7578 46.5359 43.5025 47.2806 44.4211 47.2806Z" fill="#223A7A"/>
<path d="M50.1242 47.2806C51.0428 47.2806 51.7874 46.5359 51.7874 45.6173C51.7874 44.6988 51.0428 43.9541 50.1242 43.9541C49.2056 43.9541 48.4609 44.6988 48.4609 45.6173C48.4609 46.5359 49.2056 47.2806 50.1242 47.2806Z" fill="#223A7A"/>
<path d="M178.842 0H123.339C119.774 0 116.885 2.88959 116.885 6.45441V32.7834C116.885 36.3483 119.774 39.2379 123.339 39.2379H128.314C128.453 41.626 128.11 45.1759 126.12 49.7139C132.534 46.7548 136.223 42.3161 138.155 39.2379H178.847C182.412 39.2379 185.302 36.3483 185.302 32.7834V6.45441C185.297 2.88959 182.407 0 178.842 0Z" fill="#7A81FD"/>
<path d="M155.165 12.5466H127.634C126.879 12.5466 126.264 11.9309 126.264 11.1762C126.264 10.4216 126.879 9.80591 127.634 9.80591H155.165C155.919 9.80591 156.535 10.4216 156.535 11.1762C156.535 11.9359 155.919 12.5466 155.165 12.5466Z" fill="white"/>
<path d="M174.905 20.5251H127.103C126.641 20.5251 126.264 20.1477 126.264 19.686C126.264 19.2243 126.641 18.8469 127.103 18.8469H174.905C175.367 18.8469 175.744 19.2243 175.744 19.686C175.744 20.1527 175.367 20.5251 174.905 20.5251Z" fill="#D2E6FF"/>
<path d="M174.905 25.1823H127.103C126.641 25.1823 126.264 24.805 126.264 24.3432C126.264 23.8815 126.641 23.5042 127.103 23.5042H174.905C175.367 23.5042 175.744 23.8815 175.744 24.3432C175.744 24.805 175.367 25.1823 174.905 25.1823Z" fill="#D2E6FF"/>
<path d="M164.478 30.1471H127.107C126.645 30.1471 126.268 29.7698 126.268 29.3081C126.268 28.8463 126.645 28.469 127.107 28.469H164.478C164.939 28.469 165.317 28.8463 165.317 29.3081C165.317 29.7698 164.939 30.1471 164.478 30.1471Z" fill="#D2E6FF"/>
<path d="M174.526 12.5466H161.394C160.639 12.5466 160.023 11.9309 160.023 11.1762C160.023 10.4216 160.639 9.80591 161.394 9.80591H174.526C175.281 9.80591 175.896 10.4216 175.896 11.1762C175.896 11.9359 175.286 12.5466 174.526 12.5466Z" fill="white"/>
<path d="M141.43 73.1034H126.52C125.974 73.1034 125.527 72.6566 125.527 72.1105V61.9224C125.527 61.3763 125.974 60.9294 126.52 60.9294H141.43C141.976 60.9294 142.423 61.3763 142.423 61.9224V72.1105C142.423 72.6566 141.976 73.1034 141.43 73.1034Z" fill="white"/>
<path d="M134.078 68.8337C133.994 68.8337 133.909 68.8039 133.84 68.7493L125.722 62.0466C125.563 61.9175 125.544 61.6792 125.673 61.5203C125.807 61.3614 126.04 61.3416 126.199 61.4707L134.073 67.9747L141.744 61.3019C141.898 61.1678 142.136 61.1827 142.27 61.3366C142.404 61.4905 142.39 61.7288 142.236 61.8629L134.322 68.7443C134.252 68.8039 134.163 68.8337 134.078 68.8337Z" fill="#6F7FA9"/>
<path d="M125.962 72.8255C125.867 72.8255 125.778 72.7908 125.703 72.7213C125.555 72.5773 125.55 72.3439 125.689 72.195L131.363 66.2271C131.502 66.0782 131.741 66.0732 131.89 66.2122C132.039 66.3562 132.044 66.5896 131.905 66.7385L126.23 72.7064C126.16 72.7858 126.061 72.8255 125.962 72.8255Z" fill="#6F7FA9"/>
<path d="M141.989 72.6073C141.895 72.6073 141.8 72.5725 141.726 72.4981L136.071 66.8281C135.927 66.6841 135.927 66.4458 136.071 66.3018C136.215 66.1579 136.453 66.1579 136.597 66.3018L142.252 71.9718C142.396 72.1158 142.396 72.3541 142.252 72.4981C142.178 72.5725 142.083 72.6073 141.989 72.6073Z" fill="#6F7FA9"/>
<path d="M143.197 65.5314C145.947 65.5314 148.176 63.3019 148.176 60.5516C148.176 57.8013 145.947 55.5718 143.197 55.5718C140.446 55.5718 138.217 57.8013 138.217 60.5516C138.217 63.3019 140.446 65.5314 143.197 65.5314Z" fill="#FF5F42"/>
<path d="M141.791 60.1994L141.78 60.0746C141.917 60.1361 142.037 60.2157 142.138 60.3135C142.24 60.4112 142.317 60.518 142.372 60.6338C142.426 60.7497 142.453 60.8691 142.453 60.9922C142.453 61.1985 142.395 61.3886 142.279 61.5623C142.167 61.7324 142.015 61.87 141.823 61.975C141.632 62.0763 141.418 62.127 141.183 62.127C140.947 62.127 140.734 62.0763 140.542 61.975C140.35 61.87 140.196 61.7324 140.08 61.5623C139.968 61.3886 139.912 61.1985 139.912 60.9922C139.912 60.8257 139.946 60.6827 140.015 60.5632C140.088 60.4402 140.176 60.337 140.281 60.2537C140.39 60.1705 140.497 60.1017 140.602 60.0474L140.558 60.1994C140.468 60.1632 140.379 60.1126 140.292 60.0474C140.209 59.9786 140.14 59.8918 140.086 59.7868C140.032 59.6818 140.004 59.5587 140.004 59.4176C140.004 59.2148 140.057 59.032 140.162 58.8691C140.267 58.7026 140.408 58.5705 140.585 58.4728C140.766 58.375 140.965 58.3262 141.183 58.3262C141.403 58.3262 141.601 58.375 141.775 58.4728C141.952 58.5705 142.093 58.7026 142.198 58.8691C142.303 59.032 142.355 59.2148 142.355 59.4176C142.355 59.5732 142.325 59.7035 142.263 59.8085C142.202 59.9135 142.127 59.9967 142.041 60.0583C141.954 60.1198 141.87 60.1669 141.791 60.1994ZM140.656 59.4284C140.656 59.5261 140.678 59.613 140.721 59.689C140.768 59.7651 140.832 59.8266 140.911 59.8737C140.991 59.9171 141.081 59.9388 141.183 59.9388C141.284 59.9388 141.373 59.9171 141.449 59.8737C141.528 59.8266 141.59 59.7651 141.633 59.689C141.68 59.613 141.704 59.5261 141.704 59.4284C141.704 59.2836 141.653 59.1642 141.552 59.07C141.454 58.9723 141.331 58.9234 141.183 58.9234C141.031 58.9234 140.904 58.9723 140.803 59.07C140.705 59.1642 140.656 59.2836 140.656 59.4284ZM141.183 61.5297C141.356 61.5297 141.503 61.4772 141.622 61.3723C141.742 61.2637 141.802 61.1334 141.802 60.9813C141.802 60.8763 141.775 60.7822 141.72 60.699C141.666 60.6157 141.592 60.5506 141.498 60.5035C141.403 60.4528 141.299 60.4275 141.183 60.4275C141.067 60.4275 140.962 60.4528 140.868 60.5035C140.774 60.5506 140.699 60.6157 140.645 60.699C140.591 60.7822 140.564 60.8763 140.564 60.9813C140.564 61.1334 140.623 61.2637 140.743 61.3723C140.862 61.4772 141.009 61.5297 141.183 61.5297Z" fill="white"/>
<path d="M143.978 62.1813C143.844 62.1813 143.701 62.1614 143.549 62.1216C143.397 62.0781 143.272 62.0166 143.175 61.937C143.128 61.8971 143.09 61.8465 143.061 61.7849C143.035 61.7198 143.023 61.6582 143.023 61.6003C143.023 61.5388 143.048 61.4809 143.099 61.4266C143.153 61.3723 143.229 61.3451 143.327 61.3451C143.392 61.3451 143.473 61.3795 143.571 61.4483C143.629 61.4845 143.692 61.5171 143.761 61.546C143.83 61.575 143.9 61.5895 143.973 61.5895C144.147 61.5895 144.297 61.5587 144.423 61.4971C144.55 61.432 144.648 61.3433 144.717 61.2311C144.785 61.1189 144.82 60.9868 144.82 60.8347C144.82 60.6972 144.787 60.5795 144.722 60.4818C144.661 60.384 144.577 60.308 144.472 60.2537C144.371 60.1994 144.261 60.1723 144.141 60.1723C144.029 60.1723 143.931 60.1904 143.848 60.2266C143.765 60.2628 143.689 60.3008 143.62 60.3406C143.551 60.3768 143.482 60.3949 143.413 60.3949C143.294 60.3949 143.205 60.3696 143.147 60.3189C143.09 60.2646 143.053 60.2012 143.039 60.1289C143.024 60.0565 143.021 59.9913 143.028 59.9334L143.196 58.6139C143.211 58.5379 143.247 58.4764 143.305 58.4293C143.366 58.3787 143.439 58.3533 143.522 58.3533H145.091C145.178 58.3533 145.251 58.3823 145.308 58.4402C145.366 58.4981 145.395 58.5705 145.395 58.6574C145.395 58.7406 145.366 58.8112 145.308 58.8691C145.251 58.9234 145.178 58.9506 145.091 58.9506H143.69L143.75 58.9017L143.604 60.004L143.533 59.7976C143.555 59.7614 143.602 59.727 143.674 59.6945C143.747 59.6619 143.83 59.6347 143.924 59.613C144.018 59.5877 144.11 59.575 144.201 59.575C144.443 59.575 144.661 59.6311 144.852 59.7433C145.044 59.8519 145.194 60.0022 145.303 60.194C145.415 60.3822 145.471 60.5958 145.471 60.8347C145.471 61.1062 145.41 61.3433 145.287 61.546C145.164 61.7487 144.99 61.9062 144.766 62.0184C144.545 62.127 144.282 62.1813 143.978 62.1813Z" fill="white"/>
<path d="M193.235 58.7203H164.131C163.033 58.7203 162.145 57.8316 162.145 56.7344V52.1815C162.145 51.0843 163.033 50.1956 164.131 50.1956H193.235C194.332 50.1956 195.221 51.0843 195.221 52.1815V56.7344C195.221 57.8316 194.332 58.7203 193.235 58.7203Z" fill="#223A7A"/>
<path d="M166.233 56.6947C166.104 56.6947 166 56.65 165.92 56.5557C165.841 56.4613 165.806 56.3471 165.816 56.2081L165.94 55.1059C165.95 55.0761 165.945 55.0612 165.925 55.0513C165.905 55.0413 165.885 55.0463 165.856 55.0662L164.947 55.7215C164.833 55.806 164.719 55.8357 164.599 55.8109C164.48 55.7861 164.381 55.7166 164.307 55.5925C164.222 55.4435 164.207 55.3144 164.257 55.2002C164.307 55.086 164.396 55.0116 164.515 54.9619L165.533 54.5002C165.563 54.4902 165.573 54.4753 165.573 54.4605C165.573 54.4406 165.558 54.4257 165.533 54.4207L164.515 53.959C164.386 53.9044 164.302 53.815 164.262 53.6959C164.227 53.5767 164.237 53.4526 164.302 53.3334C164.376 53.2143 164.475 53.1398 164.594 53.115C164.714 53.0901 164.833 53.115 164.942 53.1894L165.851 53.8597C165.88 53.8796 165.9 53.8845 165.92 53.8746C165.94 53.8647 165.945 53.8448 165.935 53.82L165.811 52.7178C165.801 52.5787 165.841 52.4596 165.925 52.3702C166.01 52.2759 166.119 52.2312 166.263 52.2312C166.392 52.2312 166.501 52.2759 166.585 52.3702C166.67 52.4646 166.7 52.5787 166.685 52.7178L166.561 53.82C166.551 53.8498 166.556 53.8647 166.576 53.8746C166.595 53.8845 166.615 53.8796 166.645 53.8597L167.554 53.2043C167.663 53.1199 167.782 53.0901 167.911 53.115C168.035 53.1398 168.13 53.2093 168.199 53.3334C168.283 53.4824 168.298 53.6114 168.249 53.7256C168.199 53.8398 168.11 53.9143 167.991 53.964L166.973 54.4257C166.943 54.4356 166.933 54.4505 166.933 54.4654C166.933 54.4853 166.948 54.5002 166.973 54.5051L167.991 54.9669C168.12 55.0215 168.209 55.1109 168.249 55.23C168.288 55.3492 168.274 55.4733 168.199 55.5925C168.134 55.7116 168.04 55.7861 167.911 55.8109C167.787 55.8357 167.668 55.8109 167.554 55.7364L166.645 55.0662C166.615 55.0463 166.595 55.0413 166.576 55.0513C166.556 55.0612 166.551 55.0811 166.561 55.1059L166.685 56.2081C166.705 56.3471 166.67 56.4663 166.58 56.5557C166.486 56.645 166.372 56.6947 166.233 56.6947Z" fill="white"/>
<path d="M172.252 56.6947C172.123 56.6947 172.019 56.65 171.94 56.5557C171.86 56.4613 171.825 56.3471 171.835 56.2081L171.96 55.1059C171.969 55.0761 171.964 55.0612 171.945 55.0513C171.925 55.0413 171.905 55.0463 171.875 55.0662L170.967 55.7215C170.852 55.806 170.738 55.8357 170.619 55.8109C170.5 55.7861 170.401 55.7166 170.326 55.5925C170.242 55.4435 170.227 55.3144 170.276 55.2002C170.326 55.086 170.415 55.0116 170.535 54.9619L171.552 54.5002C171.582 54.4902 171.592 54.4753 171.592 54.4605C171.592 54.4406 171.577 54.4257 171.552 54.4207L170.535 53.959C170.405 53.9044 170.321 53.815 170.281 53.6959C170.247 53.5767 170.257 53.4526 170.321 53.3334C170.396 53.2143 170.495 53.1398 170.614 53.115C170.733 53.0901 170.852 53.115 170.962 53.1894L171.87 53.8597C171.9 53.8796 171.92 53.8845 171.94 53.8746C171.96 53.8647 171.964 53.8448 171.955 53.82L171.83 52.7178C171.821 52.5787 171.86 52.4596 171.945 52.3702C172.029 52.2759 172.138 52.2312 172.282 52.2312C172.411 52.2312 172.521 52.2759 172.605 52.3702C172.689 52.4646 172.719 52.5787 172.704 52.7178L172.58 53.82C172.57 53.8498 172.575 53.8647 172.595 53.8746C172.615 53.8845 172.635 53.8796 172.665 53.8597L173.573 53.2043C173.682 53.1199 173.802 53.0901 173.931 53.115C174.055 53.1398 174.149 53.2093 174.219 53.3334C174.303 53.4824 174.318 53.6114 174.268 53.7256C174.219 53.8398 174.129 53.9143 174.01 53.964L172.992 54.4257C172.962 54.4356 172.953 54.4505 172.953 54.4654C172.953 54.4853 172.967 54.5002 172.992 54.5051L174.01 54.9669C174.139 55.0215 174.228 55.1109 174.268 55.23C174.308 55.3492 174.293 55.4733 174.219 55.5925C174.154 55.7116 174.06 55.7861 173.931 55.8109C173.806 55.8357 173.687 55.8109 173.573 55.7364L172.665 55.0662C172.635 55.0463 172.615 55.0413 172.595 55.0513C172.575 55.0612 172.57 55.0811 172.58 55.1059L172.704 56.2081C172.724 56.3471 172.689 56.4663 172.6 56.5557C172.506 56.645 172.391 56.6947 172.252 56.6947Z" fill="white"/>
<path d="M178.272 56.6947C178.143 56.6947 178.039 56.65 177.959 56.5557C177.88 56.4613 177.845 56.3471 177.855 56.2081L177.979 55.1059C177.989 55.0761 177.984 55.0612 177.964 55.0513C177.944 55.0413 177.924 55.0463 177.895 55.0662L176.986 55.7215C176.872 55.806 176.758 55.8357 176.639 55.8109C176.519 55.7861 176.42 55.7166 176.346 55.5925C176.261 55.4435 176.246 55.3144 176.296 55.2002C176.346 55.086 176.435 55.0116 176.554 54.9619L177.572 54.5002C177.602 54.4902 177.612 54.4753 177.612 54.4605C177.612 54.4406 177.597 54.4257 177.572 54.4207L176.554 53.959C176.425 53.9044 176.341 53.815 176.301 53.6959C176.266 53.5767 176.276 53.4526 176.341 53.3334C176.415 53.2143 176.514 53.1398 176.634 53.115C176.753 53.0901 176.872 53.115 176.981 53.1894L177.89 53.8597C177.919 53.8796 177.939 53.8845 177.959 53.8746C177.979 53.8647 177.984 53.8448 177.974 53.82L177.85 52.7178C177.84 52.5787 177.88 52.4596 177.964 52.3702C178.049 52.2759 178.158 52.2312 178.302 52.2312C178.431 52.2312 178.54 52.2759 178.624 52.3702C178.709 52.4646 178.739 52.5787 178.724 52.7178L178.6 53.82C178.59 53.8498 178.595 53.8647 178.615 53.8746C178.634 53.8845 178.654 53.8796 178.684 53.8597L179.593 53.2043C179.702 53.1199 179.821 53.0901 179.95 53.115C180.074 53.1398 180.169 53.2093 180.238 53.3334C180.322 53.4824 180.337 53.6114 180.288 53.7256C180.238 53.8398 180.149 53.9143 180.03 53.964L179.012 54.4257C178.982 54.4356 178.972 54.4505 178.972 54.4654C178.972 54.4853 178.987 54.5002 179.012 54.5051L180.03 54.9669C180.159 55.0215 180.248 55.1109 180.288 55.23C180.327 55.3492 180.313 55.4733 180.238 55.5925C180.174 55.7116 180.079 55.7861 179.95 55.8109C179.826 55.8357 179.707 55.8109 179.593 55.7364L178.684 55.0662C178.654 55.0463 178.634 55.0413 178.615 55.0513C178.595 55.0612 178.59 55.0811 178.6 55.1059L178.724 56.2081C178.744 56.3471 178.709 56.4663 178.62 56.5557C178.525 56.645 178.411 56.6947 178.272 56.6947Z" fill="white"/>
<path d="M184.288 56.6947C184.159 56.6947 184.054 56.65 183.975 56.5557C183.895 56.4613 183.861 56.3471 183.871 56.2081L183.995 55.1059C184.005 55.0761 184 55.0612 183.98 55.0513C183.96 55.0413 183.94 55.0463 183.91 55.0662L183.002 55.7215C182.888 55.806 182.773 55.8357 182.654 55.8109C182.535 55.7861 182.436 55.7166 182.361 55.5925C182.277 55.4435 182.262 55.3144 182.312 55.2002C182.361 55.086 182.451 55.0116 182.57 54.9619L183.588 54.5002C183.617 54.4902 183.627 54.4753 183.627 54.4605C183.627 54.4406 183.612 54.4257 183.588 54.4207L182.57 53.959C182.441 53.9044 182.356 53.815 182.317 53.6959C182.282 53.5767 182.292 53.4526 182.356 53.3334C182.431 53.2143 182.53 53.1398 182.649 53.115C182.768 53.0901 182.888 53.115 182.997 53.1894L183.905 53.8597C183.935 53.8796 183.955 53.8845 183.975 53.8746C183.995 53.8647 184 53.8448 183.99 53.82L183.866 52.7178C183.856 52.5787 183.895 52.4596 183.98 52.3702C184.064 52.2759 184.173 52.2312 184.317 52.2312C184.446 52.2312 184.556 52.2759 184.64 52.3702C184.725 52.4646 184.754 52.5787 184.739 52.7178L184.615 53.82C184.605 53.8498 184.61 53.8647 184.63 53.8746C184.65 53.8845 184.67 53.8796 184.7 53.8597L185.608 53.2043C185.718 53.1199 185.837 53.0901 185.966 53.115C186.09 53.1398 186.189 53.2093 186.254 53.3334C186.338 53.4824 186.353 53.6114 186.303 53.7256C186.254 53.8398 186.164 53.9143 186.045 53.964L185.027 54.4257C184.998 54.4356 184.988 54.4505 184.988 54.4654C184.988 54.4853 185.003 54.5002 185.027 54.5051L186.045 54.9669C186.174 55.0215 186.264 55.1109 186.303 55.23C186.343 55.3492 186.328 55.4733 186.254 55.5925C186.189 55.7116 186.095 55.7861 185.966 55.8109C185.842 55.8357 185.722 55.8109 185.608 55.7364L184.7 55.0662C184.67 55.0463 184.65 55.0413 184.63 55.0513C184.61 55.0612 184.605 55.0811 184.615 55.1059L184.739 56.2081C184.759 56.3471 184.724 56.4663 184.635 56.5557C184.546 56.645 184.432 56.6947 184.288 56.6947Z" fill="white"/>
<path d="M190.309 56.6947C190.18 56.6947 190.076 56.65 189.996 56.5557C189.917 56.4613 189.882 56.3471 189.892 56.2081L190.016 55.1059C190.026 55.0761 190.021 55.0612 190.001 55.0513C189.981 55.0413 189.962 55.0463 189.932 55.0662L189.023 55.7215C188.909 55.806 188.795 55.8357 188.676 55.8109C188.556 55.7861 188.457 55.7166 188.383 55.5925C188.298 55.4435 188.283 55.3144 188.333 55.2002C188.383 55.086 188.472 55.0116 188.591 54.9619L189.609 54.5002C189.639 54.4902 189.649 54.4753 189.649 54.4605C189.649 54.4406 189.634 54.4257 189.609 54.4207L188.591 53.959C188.462 53.9044 188.378 53.815 188.338 53.6959C188.303 53.5767 188.313 53.4526 188.378 53.3334C188.452 53.2143 188.551 53.1398 188.671 53.115C188.79 53.0901 188.909 53.115 189.018 53.1894L189.927 53.8597C189.957 53.8796 189.976 53.8845 189.996 53.8746C190.016 53.8647 190.021 53.8448 190.011 53.82L189.887 52.7178C189.877 52.5787 189.917 52.4596 190.001 52.3702C190.086 52.2759 190.195 52.2312 190.339 52.2312C190.468 52.2312 190.577 52.2759 190.662 52.3702C190.746 52.4646 190.776 52.5787 190.761 52.7178L190.637 53.82C190.627 53.8498 190.632 53.8647 190.652 53.8746C190.672 53.8845 190.691 53.8796 190.721 53.8597L191.63 53.2043C191.739 53.1199 191.858 53.0901 191.987 53.115C192.111 53.1398 192.211 53.2093 192.275 53.3334C192.36 53.4824 192.374 53.6114 192.325 53.7256C192.275 53.8398 192.186 53.9143 192.067 53.964L191.049 54.4257C191.019 54.4356 191.009 54.4505 191.009 54.4654C191.009 54.4853 191.024 54.5002 191.049 54.5051L192.067 54.9669C192.196 55.0215 192.285 55.1109 192.325 55.23C192.365 55.3492 192.35 55.4733 192.275 55.5925C192.211 55.7116 192.116 55.7861 191.987 55.8109C191.863 55.8357 191.744 55.8109 191.63 55.7364L190.721 55.0662C190.691 55.0463 190.672 55.0413 190.652 55.0513C190.632 55.0612 190.627 55.0811 190.637 55.1059L190.761 56.2081C190.781 56.3471 190.746 56.4663 190.657 56.5557C190.562 56.645 190.448 56.6947 190.309 56.6947Z" fill="#67ACFF"/>
</svg>
