<svg width="218" height="94" viewBox="0 0 218 94" fill="none" xmlns="http://www.w3.org/2000/svg">
<path d="M172.749 15.5854H169.775C166.444 15.5854 163.826 12.9679 163.826 9.63667C163.826 6.30541 166.444 3.68799 169.775 3.68799H172.749C176.08 3.68799 178.698 6.30541 178.698 9.63667C178.698 12.849 176.08 15.5854 172.749 15.5854Z" fill="#F6EFF9"/>
<path d="M153.357 11.8974H127.183C123.852 11.8974 121.234 9.27995 121.234 5.94869C121.234 2.61742 123.852 0 127.183 0H153.357C156.689 0 159.306 2.61742 159.306 5.94869C159.306 9.16098 156.689 11.8974 153.357 11.8974Z" fill="#F6EFF9"/>
<path d="M170.37 29.7431H131.228C127.897 29.7431 125.279 27.1257 125.279 23.7944C125.279 20.4631 127.897 17.8457 131.228 17.8457H170.37C173.702 17.8457 176.319 20.4631 176.319 23.7944C176.319 27.1257 173.702 29.7431 170.37 29.7431Z" fill="#F6EFF9"/>
<path d="M144.792 8.92285H129.92V20.8202H144.792V8.92285Z" fill="#F6EFF9"/>
<path d="M211.892 55.4418H208.917C205.586 55.4418 202.969 52.8244 202.969 49.4931C202.969 46.1619 205.586 43.5444 208.917 43.5444H211.892C215.223 43.5444 217.84 46.1619 217.84 49.4931C217.84 52.8244 215.223 55.4418 211.892 55.4418Z" fill="#F6EFF9"/>
<path d="M188.215 51.5155H73.2866C69.9553 51.5155 67.3379 48.8981 67.3379 45.5668C67.3379 42.2356 69.9553 39.6182 73.2866 39.6182H188.215C191.546 39.6182 194.164 42.2356 194.164 45.5668C194.164 48.8981 191.546 51.5155 188.215 51.5155Z" fill="#F6EFF9"/>
<path d="M175.843 70.6708H124.328C120.996 70.6708 118.379 68.0534 118.379 64.7221C118.379 61.3909 120.996 58.7734 124.328 58.7734H175.843C179.174 58.7734 181.792 61.3909 181.792 64.7221C181.792 67.9344 179.055 70.6708 175.843 70.6708Z" fill="#F6EFF9"/>
<path d="M155.973 48.4224H141.102V60.3197H155.973V48.4224Z" fill="#F6EFF9"/>
<path d="M96.8439 74.12H29.1479C25.8166 74.12 23.1992 71.5026 23.1992 68.1713C23.1992 64.8401 25.8166 62.2227 29.1479 62.2227H96.8439C100.175 62.2227 102.793 64.8401 102.793 68.1713C102.793 71.3836 100.056 74.12 96.8439 74.12Z" fill="#F6EFF9"/>
<path d="M106.957 93.5126H5.94868C2.61742 93.5126 0 90.8952 0 87.5639C0 84.2327 2.61742 81.6152 5.94868 81.6152H106.957C110.289 81.6152 112.906 84.2327 112.906 87.5639C112.906 90.7762 110.17 93.5126 106.957 93.5126Z" fill="#F6EFF9"/>
<path d="M82.2104 70.6699H40.0938V82.5673H82.2104V70.6699Z" fill="#F6EFF9"/>
<path d="M64.2402 34.0447C64.9949 32.3736 66.2887 31.7806 68.1035 31.8705C70.0801 31.9783 72.0566 31.8885 74.0512 31.8885C75.1113 31.8885 75.6684 32.3377 75.6863 33.1642C75.7043 34.0088 75.0934 34.4939 74.0152 34.5119C71.9129 34.5119 69.8285 34.5299 67.7262 34.4939C67.0793 34.476 66.8637 34.6736 66.8816 35.3385C66.9176 37.2252 66.8996 39.1299 66.8996 41.0705C72.8473 41.0705 78.741 41.0705 84.6887 41.0705C84.6887 38.8963 84.6887 36.758 84.6887 34.4939C83.4309 34.4939 82.227 34.5299 81.0051 34.476C79.909 34.44 79.2262 33.4877 79.7473 32.6431C79.9809 32.2658 80.6098 31.9424 81.077 31.9064C82.2629 31.7986 83.4488 31.8705 84.7246 31.8705C84.7246 31.4572 84.7246 31.1517 84.7246 30.8463C84.7246 27.0549 84.7246 23.2635 84.7246 19.49C84.7246 17.226 85.9645 15.9682 88.2285 15.9682C96.2426 15.9502 104.257 15.9682 112.271 15.9682C112.612 15.9682 112.954 15.9682 113.421 15.9682C113.133 13.7221 113.618 11.7994 115.415 10.3799C116.565 9.46346 117.877 9.10409 119.332 9.22987C122.441 9.4994 124.22 11.9252 124.202 15.9861C125.675 15.9861 127.149 15.9861 128.64 15.9861C131.336 15.9861 132.468 17.1182 132.468 19.7955C132.468 21.5924 132.468 23.4072 132.468 25.1861C136.313 26.4619 137.481 27.9353 137.75 31.9064C138.038 31.9064 138.343 31.9064 138.649 31.9064C142.404 31.9064 146.16 31.9783 149.915 31.8705C151.712 31.8346 153.024 32.3736 153.779 34.0447C153.779 51.1869 153.779 68.3111 153.779 85.4533C153.168 87.1783 151.946 87.8072 150.131 87.7892C144.471 87.7353 138.829 87.7713 133.168 87.7713C132.827 87.7713 132.468 87.7892 132.126 87.7533C131.371 87.6994 130.94 87.2502 130.904 86.5135C130.868 85.8127 131.264 85.3635 131.946 85.2017C132.252 85.1299 132.575 85.1478 132.899 85.1478C138.613 85.1478 144.327 85.1299 150.023 85.1658C150.868 85.1658 151.173 85.0041 151.155 84.0697C151.119 70.9885 151.137 57.9072 151.137 44.826C151.137 44.5205 151.137 44.1971 151.137 43.8736C144.866 43.8736 138.685 43.8736 132.45 43.8736C132.45 44.3049 132.45 44.6463 132.45 44.9877C132.45 55.4994 132.45 66.0291 132.45 76.5408C132.45 78.9666 131.21 80.1885 128.802 80.2064C124.454 80.2064 120.123 80.2064 115.775 80.2064C115.469 80.2064 115.146 80.2064 114.75 80.2064C114.75 81.3924 114.732 82.4885 114.75 83.6025C114.768 85.3814 114.517 85.1478 116.26 85.1478C119.314 85.1658 122.387 85.1478 125.442 85.1478C126.484 85.1478 127.095 85.7408 127.023 86.5853C126.951 87.3221 126.412 87.7533 125.46 87.7713C122.118 87.7713 118.757 87.7892 115.415 87.7713C113.259 87.7713 112.145 86.6392 112.145 84.483C112.145 83.0994 112.145 81.6978 112.145 80.2783C110.025 80.2783 108.012 80.2783 105.91 80.2783C105.91 81.6439 105.91 82.9377 105.91 84.2494C105.91 86.765 104.868 87.7892 102.352 87.7892C90.8699 87.7892 79.3879 87.7713 67.9059 87.8072C66.109 87.8072 64.8691 87.1963 64.2582 85.4892C64.2402 68.3111 64.2402 51.1869 64.2402 34.0447ZM84.6887 43.8556C78.6871 43.8556 72.8113 43.8556 66.8637 43.8556C66.8637 44.251 66.8637 44.5564 66.8637 44.8799C66.8637 57.9072 66.8637 70.9346 66.8637 83.9439C66.8637 85.1299 66.8637 85.1299 68.0316 85.1299C79.3879 85.1299 90.7621 85.1299 102.118 85.1299C102.352 85.1299 102.604 85.1838 102.819 85.1119C102.999 85.058 103.232 84.8424 103.232 84.6986C103.268 83.2252 103.25 81.7517 103.25 80.2064C102.837 80.2064 102.514 80.2064 102.208 80.2064C97.5723 80.2064 92.9363 80.2064 88.3184 80.2064C85.9645 80.2064 84.7066 78.9306 84.7066 76.5947C84.7066 72.0127 84.7066 67.4486 84.7066 62.8666C84.7066 62.633 84.6887 62.3994 84.7246 62.1658C84.8324 61.465 85.2637 61.0517 85.9465 61.0158C86.6832 60.9799 87.1504 61.4111 87.2941 62.1299C87.348 62.3814 87.3121 62.651 87.3121 62.9205C87.3121 67.3767 87.3121 71.833 87.3121 76.2892C87.3121 77.5471 87.348 77.583 88.5699 77.583C93.691 77.583 98.8301 77.583 103.951 77.583C112.199 77.583 120.446 77.583 128.676 77.583C129.395 77.583 129.808 77.4572 129.808 76.5767C129.79 63.5494 129.79 50.5221 129.808 37.5127C129.808 36.9916 129.575 36.8299 129.179 36.6322C127.382 35.7877 126.196 34.3681 125.837 32.4275C125.657 31.4572 125.801 30.415 125.801 29.3908C113.025 29.3908 100.178 29.3908 87.2762 29.3908C87.2762 29.8041 87.2762 30.1455 87.2762 30.5049C87.2762 38.7166 87.2762 46.9283 87.2762 55.158C87.2762 56.5236 86.8809 57.1346 85.9824 57.1525C85.066 57.1705 84.6527 56.5416 84.6527 55.1221C84.6887 51.3846 84.6887 47.6471 84.6887 43.8556ZM87.3121 26.6955C87.7793 26.6955 88.1387 26.6955 88.4801 26.6955C100.717 26.6955 112.954 26.6955 125.19 26.7135C126.646 26.7135 128.101 26.8033 129.287 25.7431C129.521 25.5275 129.79 25.1861 129.79 24.9166C129.844 23.1377 129.79 21.3588 129.826 19.5799C129.844 18.8432 129.539 18.6096 128.838 18.6096C127.005 18.6275 125.172 18.5916 123.339 18.6455C122.89 18.6635 122.369 18.8252 121.992 19.0947C120.051 20.4603 117.571 20.4783 115.595 19.1846C115.128 18.8791 114.499 18.6635 113.942 18.6635C105.55 18.6275 97.159 18.6455 88.7676 18.6455C88.534 18.6455 88.3004 18.6455 88.0668 18.6455C87.5816 18.6455 87.3121 18.8611 87.3121 19.3822C87.3301 21.7541 87.3121 24.1619 87.3121 26.6955ZM132.45 41.0885C138.739 41.0885 144.902 41.0885 151.137 41.0885C151.137 39.076 151.119 37.1174 151.155 35.1767C151.155 34.5838 150.85 34.5299 150.382 34.5299C146.016 34.5299 141.65 34.5299 137.283 34.5478C137.05 34.5478 136.69 34.5838 136.582 34.7455C135.54 36.0931 134.157 36.8838 132.468 37.1892C132.468 37.4767 132.468 37.7103 132.468 37.9439C132.45 38.9502 132.45 39.9744 132.45 41.0885ZM131.749 27.8635C129.898 27.8455 128.407 29.265 128.371 31.1338C128.335 33.0205 129.79 34.5658 131.677 34.5838C133.51 34.6017 135.037 33.1283 135.073 31.3135C135.091 29.4088 133.636 27.8814 131.749 27.8635ZM118.65 17.4775C120.231 17.5314 121.543 16.3275 121.596 14.7642C121.65 13.183 120.429 11.8713 118.865 11.8353C117.284 11.7814 115.99 12.9853 115.936 14.5486C115.882 16.1478 117.068 17.4236 118.65 17.4775Z" fill="#462682"/>
<path d="M142.062 24.5574C140.804 25.6176 140.157 25.7793 139.546 25.1684C138.9 24.5574 139.043 23.9645 140.05 22.7246C139.744 22.0777 139.385 21.5027 139.187 20.8738C139.115 20.6582 139.367 20.2629 139.582 20.0473C140.157 19.4543 140.625 19.5801 142.116 20.6582C143.41 19.5621 144.003 19.4363 144.632 20.0652C145.261 20.7121 145.135 21.2871 144.021 22.5809C145.135 23.9824 145.243 24.4856 144.65 25.1145C144.021 25.7793 143.41 25.6356 142.062 24.5574Z" fill="#BB0070"/>
<path d="M108.713 11.0806C107.33 12.1588 106.737 12.2845 106.126 11.6916C105.533 11.0986 105.658 10.5416 106.719 9.15798C105.64 7.73844 105.515 7.23532 106.126 6.62438C106.737 6.01344 107.347 6.13923 108.569 7.12751C109.216 6.82204 109.809 6.48063 110.438 6.28298C110.654 6.2111 111.049 6.46266 111.247 6.67829C111.876 7.30719 111.714 7.90016 110.708 9.01423C111.013 9.69704 111.355 10.308 111.552 10.9549C111.606 11.1705 111.337 11.5478 111.121 11.7634C110.546 12.3025 109.917 12.1228 108.713 11.0806Z" fill="#BB0070"/>
<path d="M76.4044 26.1745C75.1466 27.2886 74.5716 27.4323 73.9067 26.8214C73.2419 26.1925 73.3856 25.5456 74.4997 24.2518C73.8888 23.4971 72.8466 22.7425 73.9606 21.6464C74.5536 21.0534 75.0747 21.2151 76.4224 22.3112C77.8778 21.1971 78.3091 21.0893 78.956 21.7003C79.5669 22.2932 79.4411 22.9042 78.3989 24.2339C79.4411 25.6893 79.5489 26.2643 78.902 26.8393C78.2552 27.4143 77.806 27.3065 76.4044 26.1745Z" fill="#BB0070"/>
<path d="M108.353 53.7745C109.772 53.7565 111.048 54.1519 112.18 54.9964C112.899 55.5534 113.061 56.2542 112.647 56.8831C112.198 57.5479 111.461 57.6378 110.671 57.1167C109.179 56.1104 107.688 56.1104 106.196 57.0808C105.388 57.6198 104.669 57.53 104.202 56.8831C103.753 56.2362 103.914 55.4995 104.705 54.9425C105.765 54.1519 106.987 53.7565 108.353 53.7745Z" fill="#BB0070"/>
<path d="M102.729 50.1806C102.747 50.9353 102.172 51.5282 101.435 51.5282C100.752 51.5282 100.159 50.9532 100.123 50.2524C100.105 49.5337 100.716 48.9048 101.435 48.9048C102.154 48.9228 102.711 49.4618 102.729 50.1806Z" fill="#BB0070"/>
<path d="M115.739 51.5282C115.039 51.5462 114.446 50.9891 114.41 50.2884C114.374 49.5516 114.949 48.9227 115.686 48.9227C116.404 48.9048 117.033 49.5337 117.033 50.2524C117.015 50.9173 116.44 51.5102 115.739 51.5282Z" fill="#BB0070"/>
<path d="M93.9793 22.5988C93.9972 23.3176 93.4582 23.8926 92.7394 23.9105C92.0027 23.9465 91.3738 23.3535 91.3558 22.6348C91.3379 21.916 91.9668 21.2871 92.6855 21.3051C93.4043 21.323 93.9613 21.898 93.9793 22.5988Z" fill="#462682"/>
<path d="M97.9672 22.6348C97.9492 23.3535 97.3203 23.9465 96.5836 23.9105C95.8828 23.8746 95.3438 23.2996 95.3438 22.5988C95.3617 21.898 95.9188 21.323 96.6195 21.3051C97.3383 21.2871 97.9672 21.916 97.9672 22.6348Z" fill="#462682"/>
<path d="M101.902 22.6523C101.884 23.3891 101.273 23.9461 100.537 23.9102C99.836 23.8742 99.2969 23.2992 99.3149 22.5805C99.3329 21.8797 99.9079 21.3047 100.591 21.3047C101.327 21.3047 101.92 21.9156 101.902 22.6523Z" fill="#462682"/>
</svg>
