<svg width="602" height="287" viewBox="0 0 602 287" fill="none" xmlns="http://www.w3.org/2000/svg">
<path d="M301 287C467.238 287 602 151.342 602 -16C602 -183.342 467.238 -319 301 -319C134.762 -319 0 -183.342 0 -16C0 151.342 134.762 287 301 287Z" fill="#1A0224"/>
<path d="M233.044 47.368C232.174 48.3468 231.848 52.3711 232.065 59.0057L232.392 69.1207L235.872 70.2083L239.461 71.1872V115.454V159.721L235.872 160.699L232.392 161.787L232.065 172.12C231.848 180.168 232.174 182.887 233.37 183.866C234.349 184.736 238.374 185.062 245.008 184.845L255.123 184.519L256.211 180.929L257.19 177.449H301.456H345.723L346.702 180.929L347.79 184.519L357.904 184.845C364.539 185.062 368.563 184.736 369.542 183.866C370.739 182.887 371.065 180.168 370.847 172.12L370.521 161.787L366.932 160.699L363.451 159.721V115.454V71.1872L366.932 70.2083L370.521 69.1207L370.847 59.0057C371.065 52.3711 370.739 48.3468 369.868 47.368C368.89 46.1716 366.171 45.8453 358.122 46.0628L347.79 46.3891L346.702 49.8695L345.723 53.4587H301.456H257.19L256.211 49.8695L255.123 46.3891L244.791 46.0628C236.742 45.8453 234.023 46.1716 233.044 47.368ZM346.702 65.6402C347.463 68.2505 348.66 69.4469 351.27 70.2083L354.75 71.1872V115.454V159.721L351.27 160.699C348.66 161.461 347.463 162.657 346.702 165.267L345.723 168.748H301.456H257.19L256.211 165.267C255.449 162.657 254.253 161.461 251.643 160.699L248.162 159.721V115.454V71.1872L251.643 70.2083C254.253 69.4469 255.449 68.2505 256.211 65.6402L257.19 62.1598H301.456H345.723L346.702 65.6402Z" fill="white"/>
<path d="M270.785 75.3198C269.154 76.1899 268.828 78.0389 268.828 86.6312C268.828 95.7673 269.045 96.9637 271.003 98.0514C273.613 99.4653 275.68 98.4864 280.139 93.8096C282.749 91.0905 284.272 90.4379 288.079 90.4379H292.756V114.91V139.49L288.949 145.472C286.882 148.735 285.142 152.107 285.142 152.977C285.142 155.805 289.275 156.784 301.457 156.784C313.638 156.784 317.771 155.805 317.771 152.977C317.771 152.107 316.031 148.735 313.964 145.472L310.158 139.49V114.91V90.4379H314.835C318.641 90.4379 320.164 91.0905 322.774 93.8096C327.234 98.4864 329.3 99.4653 331.91 98.0514C333.868 96.9637 334.086 95.7673 334.086 86.6312C334.086 77.6038 333.868 76.1899 332.019 75.211C329.191 73.7971 273.287 73.7971 270.785 75.3198Z" fill="white"/>
</svg>
