<svg width="31" height="32" viewBox="0 0 31 32" fill="none" xmlns="http://www.w3.org/2000/svg">
<path d="M16.2804 6.89774C16.2395 6.13436 15.4594 6.26423 14.6982 6.26423C15.2604 6.41399 15.7924 6.62235 16.2804 6.89774Z" fill="#1A0224"/>
<path d="M8.14304 4.98535C5.18791 4.98535 3.8277 8.72576 6.19006 10.607C6.99537 8.45665 8.59853 6.91264 10.7002 6.3032C10.1253 5.50841 9.19639 4.98535 8.14304 4.98535Z" fill="#1A0224"/>
<path d="M2.03781 10.0213C2.15824 10.4077 2.31427 10.7784 2.49964 11.1297L1.52891 12.101C1.26823 12.3616 1.26823 12.7848 1.52891 13.046L3.23995 14.7576C3.36456 14.8822 3.5353 14.9523 3.71325 14.9523C3.88924 14.9523 4.05882 14.8822 4.18559 14.7576L5.15524 13.7863C5.30075 13.8633 5.46205 13.9105 5.61275 13.9769C5.61275 13.9659 5.61167 13.9544 5.61167 13.9433C5.61167 13.1496 5.70284 12.4009 5.86514 11.6978C4.69442 10.9443 3.91324 9.63645 3.91324 8.1432C3.91324 5.81066 5.81066 3.9127 8.14267 3.9127C9.72179 3.9127 11.0851 4.79179 11.8129 6.07613C12.5899 5.97978 13.3198 5.97978 14.1983 6.14579C14.0853 5.80392 13.9523 5.46933 13.7858 5.15571L14.7565 4.18397C14.8831 4.05882 14.9533 3.88863 14.9533 3.71169C14.9533 3.53469 14.8831 3.36456 14.7565 3.23941L13.0464 1.52891C12.9156 1.39803 12.7449 1.33309 12.5742 1.33309C12.4035 1.33309 12.2328 1.39803 12.1029 1.52891L11.1291 2.50065C10.7773 2.31427 10.4077 2.15824 10.0203 2.04044V0.667559C10.0203 0.298985 9.72279 0 9.35319 0H6.93324C6.56568 0 6.26507 0.298985 6.26507 0.667559V2.04037C5.8787 2.15817 5.50898 2.3142 5.15612 2.50058L4.18559 1.52992C4.05464 1.39904 3.88398 1.33411 3.71325 1.33411C3.54258 1.33411 3.3709 1.39904 3.24103 1.52938L1.52891 3.23989C1.4043 3.36558 1.33417 3.53516 1.33417 3.71271C1.33417 3.89018 1.4043 4.05984 1.52891 4.18499L2.49964 5.15618C2.3142 5.50803 2.15824 5.87823 2.03997 6.2646H0.668169C0.298509 6.2646 0 6.56406 0 6.93317V9.35317C0 9.72121 0.298509 10.0213 0.668169 10.0213H2.03781Z" fill="#1A0224"/>
<path d="M23.0006 22.9705C24.0708 22.3835 24.8059 21.26 24.8059 19.9561C24.8059 18.0534 23.2572 16.5059 21.3545 16.5059C20.6854 16.5059 20.0654 16.7059 19.5356 17.0367C19.2184 18.2996 18.7188 19.5075 18.0654 20.5567C19.9177 20.9049 21.6173 21.7484 23.0006 22.9705Z" fill="#1A0224"/>
<path d="M30.1425 18.6504C30.1425 18.2519 29.8189 17.9293 29.422 17.9293H27.9415C27.8136 17.512 27.644 17.112 27.443 16.7324L28.4911 15.6843C28.6273 15.5492 28.7026 15.366 28.7026 15.1749C28.7026 14.9837 28.6272 14.8004 28.4911 14.6649L26.646 12.8193C26.5058 12.6783 26.3204 12.6077 26.1362 12.6077C25.9518 12.6077 25.7675 12.6783 25.6273 12.8193L24.577 13.8679C24.1978 13.6669 23.7989 13.4984 23.38 13.371V11.8904C23.38 11.4925 23.0585 11.1699 22.6606 11.1699H20.0501C19.8752 11.1699 19.7213 11.24 19.5957 11.3438C19.8155 12.1458 19.936 13.0156 19.936 13.9433C19.936 14.5323 19.89 15.1304 19.8041 15.725C20.2899 15.5459 20.8072 15.4335 21.3549 15.4335C23.8491 15.4335 25.8785 17.4624 25.8785 19.956C25.8785 21.5499 25.0461 22.9468 23.7968 23.7525C24.7058 24.7494 25.4283 25.9322 25.8985 27.2573C25.9759 27.284 26.0565 27.3034 26.1372 27.3034C26.3215 27.3034 26.5058 27.2333 26.6472 27.0924L28.4933 25.2467C28.6285 25.1116 28.7028 24.9284 28.7028 24.7373C28.7028 24.5462 28.6285 24.363 28.4933 24.2273L27.443 23.1786C27.6441 22.7996 27.8137 22.3995 27.9415 21.9818H29.4221C29.6127 21.9818 29.798 21.9064 29.9321 21.7702C30.0672 21.6356 30.1437 21.4519 30.1437 21.2607L30.1425 18.6504Z" fill="#1A0224"/>
<path d="M24.4285 27.9101C23.309 24.6163 20.3509 22.3508 16.9361 22.0425C15.7926 23.2534 14.3769 24.0216 12.7736 24.0216C11.1715 24.0216 9.75469 23.2535 8.61225 22.0425C5.19543 22.3508 2.2372 24.6163 1.11773 27.9107L0.498922 29.7322C0.321912 30.2563 0.406672 30.8338 0.729262 31.2835C1.05178 31.7333 1.57119 32.0004 2.12405 32.0004H23.4221C23.976 32.0004 24.4954 31.7333 24.818 31.2835C25.1395 30.8338 25.2254 30.2563 25.0473 29.7322L24.4285 27.9101Z" fill="#1A0224"/>
<path d="M7.21973 13.9434C7.21973 18.0289 9.70679 22.4128 12.7727 22.4128C15.8399 22.4128 18.3268 18.0289 18.3268 13.9434C18.3269 5.47453 7.21973 5.45774 7.21973 13.9434Z" fill="#1A0224"/>
</svg>
