<svg width="377" height="293" viewBox="0 0 377 293" fill="none" xmlns="http://www.w3.org/2000/svg">
<path d="M125.352 72.2428C124.875 72.2428 124.394 72.2204 123.922 72.1781C123.793 72.1657 123.698 72.0526 123.71 71.9233C123.721 71.794 123.835 71.6995 123.964 71.7107C124.889 71.7952 125.841 71.794 126.763 71.7082C126.892 71.697 127.006 71.7915 127.018 71.9208C127.03 72.0501 126.935 72.1644 126.806 72.1769C126.326 72.2216 125.838 72.244 125.352 72.244V72.2428ZM121.149 71.661C121.128 71.661 121.107 71.6585 121.085 71.6523C120.16 71.39 119.255 71.0382 118.394 70.6093C118.278 70.5509 118.23 70.4104 118.288 70.2948C118.347 70.178 118.487 70.132 118.602 70.1891C119.437 70.6056 120.316 70.9462 121.212 71.201C121.336 71.2358 121.409 71.3664 121.373 71.4907C121.344 71.5939 121.251 71.6622 121.148 71.6622L121.149 71.661ZM129.576 71.6548C129.475 71.6548 129.381 71.5876 129.351 71.4845C129.315 71.3602 129.388 71.2296 129.512 71.1936C130.408 70.9375 131.286 70.5956 132.12 70.178C132.235 70.1195 132.376 70.1668 132.435 70.2836C132.493 70.3992 132.446 70.541 132.329 70.5994C131.469 71.0307 130.564 71.3825 129.64 71.6461C129.619 71.6523 129.596 71.6548 129.575 71.6548H129.576ZM116.082 69.1338C116.033 69.1338 115.983 69.1188 115.941 69.0865C115.174 68.506 114.456 67.8509 113.808 67.1386C113.721 67.0429 113.727 66.8937 113.823 66.8067C113.918 66.7184 114.067 66.7259 114.153 66.8216C114.783 67.5115 115.48 68.148 116.223 68.7111C116.326 68.7894 116.347 68.9361 116.269 69.0405C116.223 69.1014 116.153 69.1338 116.082 69.1338ZM134.64 69.1201C134.569 69.1201 134.498 69.0878 134.453 69.0269C134.374 68.9237 134.394 68.7757 134.498 68.6974C135.242 68.1331 135.937 67.4966 136.566 66.8054C136.653 66.7097 136.801 66.7035 136.897 66.7905C136.992 66.8775 137 67.0267 136.912 67.1224C136.263 67.8347 135.547 68.4911 134.781 69.0728C134.739 69.1052 134.689 69.1201 134.64 69.1201ZM112.264 64.9433C112.186 64.9433 112.11 64.9035 112.065 64.8326C111.557 64.0134 111.123 63.142 110.775 62.2457C110.728 62.1252 110.787 61.9884 110.908 61.9412C111.029 61.8939 111.165 61.9536 111.212 62.0754C111.549 62.9456 111.971 63.7897 112.464 64.5853C112.532 64.6959 112.499 64.8401 112.388 64.9085C112.35 64.9321 112.307 64.9445 112.264 64.9445V64.9433ZM138.451 64.9246C138.409 64.9246 138.367 64.9134 138.328 64.8898C138.218 64.8214 138.185 64.676 138.253 64.5666C138.745 63.771 139.165 62.9257 139.501 62.0543C139.548 61.9337 139.683 61.8741 139.805 61.92C139.925 61.9673 139.986 62.1028 139.939 62.2246C139.591 63.1221 139.159 63.9935 138.652 64.814C138.607 64.8861 138.53 64.9246 138.452 64.9246H138.451ZM110.213 59.6551C110.103 59.6551 110.004 59.5768 109.983 59.4637C109.807 58.5202 109.716 57.5518 109.715 56.5834C109.715 56.4541 109.819 56.3485 109.949 56.3485C110.078 56.3485 110.183 56.4529 110.183 56.5834C110.185 57.5232 110.273 58.463 110.442 59.3779C110.466 59.5059 110.383 59.6278 110.255 59.6526C110.24 59.6551 110.227 59.6564 110.212 59.6564L110.213 59.6551ZM140.496 59.6327C140.483 59.6327 140.468 59.6315 140.453 59.629C140.325 59.6054 140.242 59.4823 140.266 59.3555C140.436 58.4406 140.521 57.5008 140.521 56.561C140.521 56.4318 140.625 56.3037 140.755 56.3037C140.884 56.3037 140.988 56.3858 140.99 56.515V56.5387C140.99 57.5294 140.902 58.499 140.727 59.4425C140.706 59.5557 140.608 59.6352 140.496 59.6352V59.6327ZM110.206 53.9804C110.192 53.9804 110.177 53.9791 110.164 53.9766C110.036 53.953 109.952 53.8312 109.975 53.7032C110.149 52.7547 110.413 51.8174 110.758 50.9186C110.806 50.798 110.941 50.7371 111.061 50.7844C111.181 50.8316 111.242 50.9671 111.195 51.0877C110.859 51.9591 110.604 52.8678 110.435 53.7877C110.414 53.9008 110.316 53.9804 110.204 53.9804H110.206ZM140.488 53.9132C140.377 53.9132 140.279 53.8349 140.257 53.7218C140.084 52.8031 139.824 51.8957 139.485 51.0255C139.438 50.9049 139.497 50.7682 139.617 50.721C139.738 50.6737 139.874 50.7334 139.921 50.854C140.271 51.7515 140.538 52.6875 140.717 53.6348C140.74 53.7628 140.657 53.8846 140.53 53.9095C140.515 53.912 140.5 53.9132 140.486 53.9132H140.488ZM112.241 48.686C112.199 48.686 112.157 48.6748 112.118 48.6512C112.008 48.5828 111.974 48.4386 112.043 48.328C112.547 47.5088 113.132 46.7306 113.779 46.0171C113.866 45.9213 114.015 45.9139 114.11 46.0009C114.206 46.0879 114.213 46.2371 114.126 46.3328C113.499 47.0252 112.931 47.7798 112.442 48.5741C112.397 48.6462 112.32 48.686 112.242 48.686H112.241ZM138.429 48.6288C138.351 48.6288 138.274 48.5903 138.229 48.5182C137.736 47.7251 137.166 46.9742 136.536 46.2843C136.448 46.1886 136.456 46.0394 136.551 45.9524C136.646 45.8654 136.795 45.8716 136.882 45.9673C137.531 46.6784 138.119 47.4528 138.628 48.2708C138.697 48.3814 138.663 48.5256 138.554 48.594C138.516 48.6176 138.472 48.6301 138.43 48.6301L138.429 48.6288ZM116.047 44.4856C115.977 44.4856 115.906 44.4532 115.86 44.3923C115.782 44.2892 115.802 44.1412 115.905 44.0629C116.671 43.4799 117.495 42.9653 118.353 42.5327C118.468 42.4742 118.609 42.5215 118.668 42.6371C118.726 42.7527 118.679 42.8944 118.564 42.9528C117.731 43.3717 116.932 43.8702 116.189 44.4371C116.147 44.4694 116.097 44.4843 116.047 44.4843V44.4856ZM121.106 41.9434C121.004 41.9434 120.91 41.8763 120.88 41.7731C120.844 41.6488 120.916 41.5183 121.041 41.4822C121.963 41.2175 122.918 41.0372 123.876 40.9477C124.005 40.934 124.119 41.031 124.131 41.1603C124.144 41.2896 124.048 41.4039 123.919 41.4163C122.99 41.5034 122.064 41.6786 121.17 41.9347C121.149 41.9409 121.127 41.9434 121.106 41.9434Z" fill="#A6B5E6"/>
<path d="M297.684 85.8469C297.104 85.8469 296.519 85.8197 295.946 85.7684C295.789 85.7533 295.673 85.616 295.688 85.459C295.702 85.302 295.84 85.1873 295.997 85.2009C297.12 85.3035 298.277 85.302 299.397 85.1979C299.554 85.1843 299.693 85.299 299.708 85.456C299.723 85.6129 299.607 85.7518 299.45 85.7669C298.867 85.8212 298.274 85.8484 297.684 85.8484V85.8469ZM292.577 85.1405C292.551 85.1405 292.525 85.1375 292.498 85.13C291.375 84.8115 290.275 84.3843 289.229 83.8636C289.089 83.7927 289.03 83.6222 289.101 83.4818C289.172 83.3414 289.342 83.2841 289.482 83.3535C290.497 83.8591 291.565 84.2727 292.653 84.5821C292.804 84.6243 292.893 84.7828 292.849 84.9337C292.813 85.059 292.7 85.142 292.575 85.142L292.577 85.1405ZM302.816 85.133C302.693 85.133 302.578 85.0515 302.542 84.9262C302.498 84.7753 302.587 84.6168 302.738 84.573C303.827 84.2621 304.893 83.847 305.906 83.3399C306.047 83.269 306.218 83.3263 306.289 83.4682C306.36 83.6086 306.303 83.7806 306.161 83.8516C305.116 84.3753 304.016 84.8024 302.893 85.1224C302.867 85.13 302.84 85.133 302.815 85.133H302.816ZM286.42 82.0721C286.36 82.0721 286.3 82.054 286.248 82.0147C285.316 81.3099 284.444 80.5145 283.656 79.6496C283.551 79.5334 283.559 79.3523 283.675 79.2467C283.791 79.1395 283.971 79.1485 284.077 79.2648C284.842 80.1024 285.688 80.8752 286.592 81.5589C286.717 81.654 286.742 81.8321 286.647 81.9589C286.592 82.0328 286.506 82.0721 286.42 82.0721ZM308.968 82.0555C308.882 82.0555 308.797 82.0162 308.741 81.9423C308.646 81.817 308.67 81.6374 308.797 81.5423C309.7 80.8571 310.545 80.0843 311.309 79.2451C311.414 79.1289 311.595 79.1214 311.711 79.227C311.827 79.3327 311.836 79.5138 311.729 79.63C310.941 80.4949 310.071 81.2918 309.14 81.9981C309.089 82.0374 309.028 82.0555 308.968 82.0555ZM281.781 76.9842C281.687 76.9842 281.593 76.9359 281.539 76.8499C280.922 75.8552 280.394 74.7972 279.971 73.709C279.914 73.5626 279.986 73.3966 280.134 73.3392C280.28 73.2819 280.446 73.3543 280.503 73.5022C280.913 74.5587 281.425 75.5836 282.024 76.5495C282.107 76.6838 282.066 76.8589 281.932 76.9419C281.885 76.9706 281.833 76.9857 281.781 76.9857V76.9842ZM313.599 76.9616C313.548 76.9616 313.497 76.948 313.45 76.9193C313.316 76.8363 313.275 76.6597 313.358 76.5269C313.956 75.5609 314.467 74.5346 314.875 73.4766C314.932 73.3302 315.096 73.2577 315.244 73.3136C315.39 73.3709 315.464 73.5354 315.406 73.6833C314.985 74.7731 314.459 75.8311 313.843 76.8272C313.789 76.9148 313.696 76.9616 313.601 76.9616H313.599ZM279.289 70.5636C279.155 70.5636 279.035 70.4685 279.009 70.3312C278.795 69.1856 278.685 68.0098 278.684 66.8341C278.684 66.6771 278.81 66.5488 278.968 66.5488C279.125 66.5488 279.253 66.6756 279.253 66.8341C279.254 67.9751 279.361 69.1162 279.568 70.227C279.596 70.3825 279.495 70.5304 279.34 70.5606C279.322 70.5636 279.306 70.5651 279.288 70.5651L279.289 70.5636ZM316.084 70.5364C316.068 70.5364 316.05 70.5349 316.031 70.5319C315.876 70.5032 315.775 70.3538 315.804 70.1998C316.01 69.089 316.114 67.9479 316.114 66.8069C316.114 66.6499 316.241 66.4945 316.399 66.4945C316.556 66.4945 316.682 66.5941 316.684 66.7511V66.7797C316.684 67.9827 316.577 69.1599 316.364 70.3055C316.339 70.4428 316.22 70.5394 316.084 70.5394V70.5364ZM279.28 63.6736C279.263 63.6736 279.245 63.6721 279.229 63.669C279.074 63.6404 278.971 63.4925 279 63.337C279.211 62.1854 279.531 61.0474 279.952 59.9561C280.009 59.8097 280.173 59.7358 280.319 59.7931C280.465 59.8505 280.539 60.015 280.482 60.1614C280.074 61.2194 279.763 62.3227 279.559 63.4396C279.533 63.577 279.414 63.6736 279.278 63.6736H279.28ZM316.074 63.5921C315.94 63.5921 315.821 63.497 315.794 63.3596C315.583 62.2427 315.268 61.1425 314.855 60.0859C314.798 59.9395 314.87 59.7735 315.016 59.7162C315.162 59.6588 315.328 59.7313 315.385 59.8777C315.81 60.9674 316.135 62.1039 316.352 63.254C316.381 63.4094 316.28 63.5574 316.125 63.5875C316.107 63.5906 316.089 63.5921 316.072 63.5921H316.074ZM281.753 57.2454C281.702 57.2454 281.65 57.2318 281.604 57.2032C281.47 57.1201 281.429 56.9451 281.512 56.8107C282.125 55.8161 282.836 54.8713 283.622 54.0049C283.727 53.8887 283.908 53.8797 284.024 53.9853C284.14 54.091 284.149 54.2721 284.044 54.3883C283.281 55.229 282.592 56.1451 281.997 57.1096C281.943 57.1971 281.849 57.2454 281.754 57.2454H281.753ZM313.572 57.176C313.477 57.176 313.384 57.1292 313.33 57.0417C312.73 56.0787 312.038 55.1671 311.272 54.3294C311.166 54.2132 311.175 54.0321 311.291 53.9264C311.406 53.8208 311.587 53.8283 311.693 53.9446C312.482 54.8079 313.196 55.7482 313.815 56.7413C313.897 56.8756 313.857 57.0507 313.724 57.1337C313.678 57.1624 313.625 57.1775 313.574 57.1775L313.572 57.176ZM286.378 52.1455C286.292 52.1455 286.206 52.1062 286.15 52.0323C286.056 51.907 286.08 51.7274 286.205 51.6323C287.135 50.9244 288.137 50.2996 289.179 49.7743C289.319 49.7034 289.491 49.7607 289.562 49.9011C289.632 50.0415 289.575 50.2135 289.435 50.2845C288.423 50.7931 287.453 51.3983 286.55 52.0866C286.498 52.1258 286.438 52.1439 286.378 52.1439V52.1455ZM292.524 49.0589C292.4 49.0589 292.286 48.9774 292.25 48.8521C292.206 48.7012 292.294 48.5427 292.446 48.499C293.566 48.1775 294.726 47.9586 295.89 47.85C296.047 47.8333 296.185 47.9511 296.2 48.108C296.215 48.265 296.099 48.4039 295.943 48.419C294.813 48.5246 293.688 48.7374 292.602 49.0483C292.577 49.0559 292.55 49.0589 292.524 49.0589Z" fill="#A6B5E6"/>
<path d="M362.164 133.393H344.684V130.581L353.423 126L362.162 130.581V133.393H362.164ZM344.843 133.233H362.007V130.675L353.425 126.176L344.843 130.675V133.233Z" fill="#A6B5E6"/>
<path d="M361.159 132.383H345.691V131.191L353.424 127.137L361.159 131.191V132.383ZM345.85 132.224H361.002V131.287L353.426 127.315L345.85 131.287V132.224Z" fill="#A6B5E6"/>
<path d="M349.121 134.976H345.787V133.265H349.121V134.976ZM345.946 134.817H348.964V133.423H345.946V134.817Z" fill="#A6B5E6"/>
<path d="M348.451 142.185H346.455V134.819H348.451V142.185ZM346.614 142.025H348.294V134.976H346.614V142.025Z" fill="#A6B5E6"/>
<path d="M361.535 143.842H345.131V142.025H361.535V143.842ZM345.29 143.683H361.377V142.183H345.29V143.683Z" fill="#A6B5E6"/>
<path d="M360.992 134.976H357.658V133.265H360.992V134.976ZM357.817 134.817H360.835V133.423H357.817V134.817Z" fill="#A6B5E6"/>
<path d="M360.324 142.185H358.328V134.819H360.324V142.185ZM358.487 142.025H360.167V134.976H358.487V142.025Z" fill="#A6B5E6"/>
<path d="M353.645 141.111H352.98V140.295C352.532 140.273 352.07 140.132 351.785 139.929L351.736 139.894L351.984 139.202L352.068 139.259C352.384 139.471 352.79 139.592 353.18 139.592C353.696 139.592 354.057 139.299 354.057 138.881C354.057 138.5 353.808 138.245 353.198 137.996C352.485 137.716 351.823 137.343 351.823 136.528C351.823 135.84 352.297 135.311 353.036 135.165V134.338H353.692V135.123C354.076 135.144 354.406 135.24 354.697 135.411L354.754 135.445L354.496 136.127L354.416 136.082C354.278 136.003 353.955 135.818 353.443 135.818C352.873 135.818 352.671 136.149 352.671 136.431C352.671 136.782 352.883 136.972 353.619 137.276C354.524 137.647 354.913 138.109 354.913 138.822C354.913 139.419 354.519 140.084 353.644 140.258V141.11L353.645 141.111ZM353.14 140.952H353.488V140.126L353.555 140.114C354.385 139.976 354.757 139.366 354.757 138.822C354.757 138.174 354.411 137.769 353.562 137.422C352.853 137.128 352.517 136.904 352.517 136.429C352.517 136.045 352.805 135.657 353.448 135.657C353.918 135.657 354.241 135.801 354.419 135.895L354.563 135.514C354.288 135.366 353.979 135.287 353.615 135.275L353.538 135.272V134.493H353.198V135.294L353.131 135.304C352.435 135.418 351.984 135.897 351.984 136.523C351.984 137.113 352.341 137.482 353.258 137.843C353.93 138.117 354.216 138.424 354.216 138.876C354.216 139.388 353.791 139.744 353.181 139.744C352.795 139.744 352.394 139.634 352.066 139.439L351.927 139.827C352.205 140.005 352.652 140.126 353.063 140.132H353.14V140.945V140.952Z" fill="#A6B5E6"/>
<path d="M190.963 28.8297H161.684V13H190.963V28.8297ZM162.03 28.4821H190.62V13.344H162.03V28.4821Z" fill="#A6B5E6"/>
<path d="M185.564 26.6305H167.084V26.4585C167.084 24.779 165.723 23.4141 164.048 23.4141H163.877V18.4119H164.048C165.723 18.4119 167.084 17.0471 167.084 15.3675V15.1955H185.564V15.3675C185.564 17.0471 186.925 18.4119 188.6 18.4119H188.771V23.4141H188.6C186.925 23.4141 185.564 24.779 185.564 26.4585V26.6305ZM167.423 26.2829H185.225C185.312 24.5521 186.702 23.1579 188.428 23.0701V18.7522C186.702 18.6644 185.312 17.2703 185.225 15.5395H167.423C167.336 17.2703 165.946 18.6644 164.22 18.7522V23.0701C165.946 23.1579 167.336 24.5521 167.423 26.2829Z" fill="#A6B5E6"/>
<path d="M178.406 23.5166H174.246C172.816 23.5166 171.652 22.3493 171.652 20.9149C171.652 19.4805 172.816 18.3132 174.246 18.3132H178.406C179.836 18.3132 181 19.4805 181 20.9149C181 22.3493 179.836 23.5166 178.406 23.5166ZM174.246 18.6572C173.006 18.6572 171.995 19.6708 171.995 20.9149C171.995 22.1591 173.006 23.1727 174.246 23.1727H178.406C179.646 23.1727 180.657 22.1591 180.657 20.9149C180.657 19.6708 179.646 18.6572 178.406 18.6572H174.246Z" fill="#A6B5E6"/>
<path d="M167.933 22.7224C166.941 22.7224 166.131 21.9101 166.131 20.9148C166.131 19.9195 166.941 19.1071 167.933 19.1071C168.926 19.1071 169.736 19.9195 169.736 20.9148C169.736 21.9101 168.926 22.7224 167.933 22.7224ZM167.933 19.4547C167.131 19.4547 166.478 20.1097 166.478 20.9148C166.478 21.7198 167.131 22.3748 167.933 22.3748C168.736 22.3748 169.389 21.7198 169.389 20.9148C169.389 20.1097 168.736 19.4547 167.933 19.4547Z" fill="#A6B5E6"/>
<path d="M184.593 22.7224C183.601 22.7224 182.791 21.9101 182.791 20.9148C182.791 19.9195 183.601 19.1071 184.593 19.1071C185.586 19.1071 186.396 19.9195 186.396 20.9148C186.396 21.9101 185.586 22.7224 184.593 22.7224ZM184.593 19.4547C183.791 19.4547 183.138 20.1097 183.138 20.9148C183.138 21.7198 183.791 22.3748 184.593 22.3748C185.396 22.3748 186.049 21.7198 186.049 20.9148C186.049 20.1097 185.396 19.4547 184.593 19.4547Z" fill="#A6B5E6"/>
<path d="M136.617 44.713H134.884V43.7857C134.533 43.8317 134.175 43.8553 133.818 43.8553C132.897 43.8553 132.012 43.7061 131.185 43.4115V44.713H129.452V42.4904C128.683 41.9111 128.127 41.1888 127.842 40.3995C127.352 40.3759 126.706 40.2714 126.328 39.9134L126.191 39.7841L126.377 39.8127C126.384 39.8127 127.042 39.906 127.625 39.2459C127.625 39.216 127.624 39.1874 127.624 39.1576C127.624 36.567 130.403 34.4599 133.819 34.4599C134.978 34.4599 136.107 34.7036 137.087 35.166C138.384 33.9341 138.43 33.9714 138.482 34.0161C138.516 34.0447 138.563 34.0833 138.514 36.0934C139.481 36.9436 140.013 38.0301 140.014 39.1551L141.216 39.2446L141.208 39.3068C141.184 39.4709 141.168 39.6325 141.152 39.7891C141.054 40.7475 140.97 41.5792 139.226 41.5792C139.195 41.5792 139.163 41.5792 139.13 41.5792C138.528 42.3387 137.66 42.9503 136.619 43.3506V44.7143L136.617 44.713ZM135 44.5949H136.499V43.2685L136.537 43.2536C137.586 42.8571 138.456 42.2442 139.054 41.4822L139.072 41.4586H139.102C140.862 41.4959 140.933 40.7749 141.034 39.7754C141.048 39.6374 141.063 39.4957 141.083 39.3503L139.895 39.2608V39.1551C139.896 38.055 139.371 36.9921 138.416 36.1605L138.395 36.1418V36.1145C138.425 34.9025 138.42 34.3157 138.403 34.1405C138.27 34.2312 137.887 34.5644 137.137 35.2767L137.108 35.304L137.072 35.2866C136.1 34.8217 134.974 34.5755 133.818 34.5755C130.466 34.5755 127.741 36.6304 127.741 39.1551C127.741 39.1912 127.741 39.2272 127.742 39.2633V39.2857L127.727 39.3031C127.281 39.8189 126.796 39.9196 126.54 39.9321C126.912 40.1881 127.464 40.264 127.886 40.2814H127.925L127.939 40.3212C128.214 41.1105 128.77 41.8328 129.545 42.4108L129.569 42.4282V44.5912H131.068V43.2387L131.147 43.2673C131.982 43.5756 132.881 43.7322 133.818 43.7322C134.191 43.7322 134.567 43.7061 134.934 43.6551L135 43.6464V44.59V44.5949Z" fill="#A6B5E6"/>
<path d="M135.985 36.163H131.793C131.547 36.163 131.348 35.9629 131.348 35.7167C131.348 35.4706 131.547 35.2704 131.793 35.2704H135.985C136.23 35.2704 136.43 35.4706 136.43 35.7167C136.43 35.9629 136.23 36.163 135.985 36.163ZM131.793 35.3885C131.612 35.3885 131.464 35.5365 131.464 35.7167C131.464 35.897 131.612 36.0461 131.793 36.0461H135.985C136.166 36.0461 136.312 35.8982 136.312 35.7167C136.312 35.5352 136.164 35.3885 135.985 35.3885H131.793Z" fill="#A6B5E6"/>
<path d="M138.832 39.0569C138.623 39.0569 138.453 38.8866 138.453 38.6765C138.453 38.4664 138.623 38.2961 138.832 38.2961C139.042 38.2961 139.212 38.4664 139.212 38.6765C139.212 38.8866 139.042 39.0569 138.832 39.0569ZM138.832 38.4142C138.687 38.4142 138.571 38.5323 138.571 38.6765C138.571 38.8207 138.689 38.9388 138.832 38.9388C138.976 38.9388 139.094 38.8207 139.094 38.6765C139.094 38.5323 138.976 38.4142 138.832 38.4142Z" fill="#A6B5E6"/>
<path d="M58.1889 104.581H45.8766V92.3243H44.156C43.943 92.3243 43.7646 92.2327 43.7042 92.0914C43.6438 91.9502 43.7186 91.8069 43.897 91.7253L52.1004 88L60.1829 91.7273C60.3584 91.8089 60.4332 91.9521 60.3728 92.0934C60.3124 92.2347 60.134 92.3243 59.921 92.3243H58.1889V104.581ZM46.1471 104.392H57.9155V92.1352H59.921C60.0304 92.1352 60.0908 92.0855 60.1109 92.0377C60.1311 91.99 60.1225 91.9243 60.0304 91.8825L52.0975 88.2249L44.0437 91.8825C43.9517 91.9243 43.943 91.99 43.9632 92.0377C43.9833 92.0855 44.0437 92.1352 44.1531 92.1352H46.1442V104.392H46.1471Z" fill="#A6B5E6"/>
<path d="M52.6159 100.68H51.3931V99.6236C50.55 99.5977 49.6753 99.4146 49.1401 99.15L49.0566 99.1082L49.5113 98.2286L49.6551 98.2963C50.2536 98.5709 51.0161 98.7301 51.7527 98.7301C52.731 98.7301 53.413 98.348 53.413 97.8007C53.413 97.3032 52.944 96.9689 51.793 96.6445C50.455 96.2824 49.2178 95.8008 49.2178 94.7501C49.2178 93.8605 50.1098 93.178 51.4967 92.9909V91.9203H52.7051V92.9372C53.4302 92.965 54.0489 93.0884 54.6013 93.3113L54.6992 93.3511L54.2244 94.2168L54.0863 94.163C53.8273 94.0595 53.2202 93.8207 52.2505 93.8207C51.1686 93.8207 50.7859 94.2546 50.7859 94.6247C50.7859 95.0784 51.2032 95.3351 52.5728 95.7291C54.2704 96.2087 54.9955 96.8057 54.9955 97.7271C54.9955 98.4972 54.2561 99.3589 52.6102 99.5818V100.682L52.6159 100.68ZM51.6635 100.491H52.3426V99.4206L52.4577 99.4067C54.0259 99.2276 54.7308 98.4316 54.7308 97.7251C54.7308 96.8814 54.0776 96.354 52.475 95.9003C51.1485 95.5202 50.5183 95.2336 50.5183 94.6227C50.5183 94.1292 51.0564 93.6297 52.2534 93.6297C53.1483 93.6297 53.7554 93.8207 54.0834 93.9441L54.3625 93.4327C53.8446 93.2377 53.2547 93.1342 52.5642 93.1183L52.4318 93.1143V92.1054H51.7671V93.1461L51.652 93.1581C50.3371 93.3073 49.4854 93.9302 49.4854 94.7461C49.4854 95.6316 50.4464 96.0734 51.8909 96.4654C53.1483 96.8177 53.6835 97.2157 53.6835 97.7948C53.6835 98.4535 52.8893 98.9131 51.7499 98.9131C51.019 98.9131 50.2623 98.7679 49.6465 98.5132L49.376 99.0345C49.8997 99.2674 50.7485 99.4266 51.5254 99.4365H51.6578V100.491H51.6635Z" fill="#A6B5E6"/>
<path d="M274.822 7.34051L274.771 7.22102C274.07 5.6079 272.634 4.39399 270.931 3.97306L270.807 3.94318L271.817 0L271.941 0.0298728C274.839 0.757678 277.286 2.83246 278.489 5.57531L278.54 5.69209L274.828 7.34051H274.822ZM271.115 3.7558C272.8 4.21204 274.218 5.41509 274.952 7.00105L278.196 5.56173C277.026 2.98726 274.725 1.03739 271.998 0.312304L271.115 3.7558Z" fill="#A6B5E6"/>
<path d="M267.426 21.2422C262.054 21.2422 257.684 16.8591 257.684 11.4711C257.684 6.0832 262.054 1.70007 267.426 1.70007C268.198 1.70007 268.997 1.80327 269.798 2.00423L269.923 2.03682L268.913 5.97729L268.788 5.94741C268.325 5.83335 267.868 5.77361 267.424 5.77361C264.291 5.77361 261.743 8.32908 261.743 11.4711C261.743 14.6132 264.291 17.1686 267.424 17.1686C268.301 17.1686 269.151 16.9677 269.947 16.5712L270.061 16.5142L271.921 20.1315L271.807 20.1912C270.429 20.8891 268.956 21.2422 267.426 21.2422ZM267.426 1.95806C262.195 1.95806 257.941 6.22713 257.941 11.4711C257.941 16.7151 262.198 20.9842 267.426 20.9842C268.872 20.9842 270.267 20.6583 271.577 20.0174L269.95 16.8536C269.151 17.2311 268.304 17.4239 267.426 17.4239C264.153 17.4239 261.491 14.7544 261.491 11.4711C261.491 8.18786 264.153 5.51833 267.426 5.51833C267.851 5.51833 268.29 5.56993 268.729 5.67041L269.611 2.2242C268.872 2.04768 268.138 1.95806 267.426 1.95806Z" fill="#A6B5E6"/>
<path d="M272.566 19.7676L270.346 16.3594L270.457 16.2888C272.117 15.2351 273.11 13.4346 273.11 11.4739C273.11 10.6863 272.951 9.9205 272.637 9.19812L272.585 9.08135L276.297 7.43292L276.349 7.5497C276.896 8.7962 277.172 10.116 277.172 11.4712C277.172 14.8115 275.491 17.8856 272.674 19.6943L272.569 19.7622L272.566 19.7676ZM270.7 16.4354L272.639 19.4146C275.317 17.6439 276.912 14.6865 276.912 11.4766C276.912 10.2002 276.66 8.95371 276.162 7.7751L272.918 9.21713C273.213 9.9395 273.365 10.6972 273.365 11.4766C273.365 13.4835 272.371 15.3274 270.703 16.4382L270.7 16.4354Z" fill="#A6B5E6"/>
<path d="M93.0832 155.011H90.3027V146.132H93.0832V155.011ZM90.5689 154.742H92.8142V146.399H90.5689V154.742Z" fill="#A6B5E6"/>
<path d="M88.8039 155.012H86.0234V148.301H88.8039V155.012ZM86.2896 154.742H88.535V148.568H86.2896V154.742Z" fill="#A6B5E6"/>
<path d="M97.3703 155.012H94.5898V142.946H97.3703V155.012ZM94.856 154.742H97.1014V143.212H94.856V154.742Z" fill="#A6B5E6"/>
<path d="M101.65 155.012H98.8691V140.356H101.65V155.012ZM99.1353 154.742H101.381V140.623H99.1353V154.742Z" fill="#A6B5E6"/>
<path d="M81.8182 146.507C81.7701 146.507 81.7248 146.481 81.6993 146.436C81.6653 146.37 81.688 146.288 81.7531 146.254L101.721 135.4C101.786 135.366 101.868 135.389 101.902 135.454C101.936 135.52 101.913 135.602 101.848 135.636L81.8805 146.49C81.8607 146.501 81.838 146.507 81.8182 146.507Z" fill="#A6B5E6"/>
<path d="M101.407 137.527C101.39 137.527 101.373 137.525 101.356 137.516C101.288 137.488 101.254 137.408 101.282 137.34L102.14 135.267H99.844C99.7704 135.267 99.7109 135.207 99.7109 135.133C99.7109 135.06 99.7704 135 99.844 135H102.339C102.384 135 102.426 135.023 102.449 135.06C102.474 135.097 102.477 135.145 102.46 135.185L101.526 137.442C101.503 137.493 101.455 137.525 101.401 137.525L101.407 137.527Z" fill="#A6B5E6"/>
<path d="M307.515 51.7815H306.018V46.998H307.515V51.7815ZM306.161 51.6362H307.37V47.1418H306.161V51.6362Z" fill="#A6B5E6"/>
<path d="M305.211 51.7814H303.713V45.3199H305.211V51.7814ZM303.856 51.6361H305.066V45.4637H303.856V51.6361Z" fill="#A6B5E6"/>
<path d="M302.904 51.7814H301.406V43.5653H302.904V51.7814ZM301.55 51.6361H302.759V43.7091H301.55V51.6361Z" fill="#A6B5E6"/>
<path d="M309.822 51.7815H308.324V45.2817H309.822V51.7815ZM308.468 51.6361H309.677V45.4255H308.468V51.6361Z" fill="#A6B5E6"/>
<path d="M312.131 51.7814H310.633V43.8865H312.131V51.7814ZM310.776 51.6361H311.986V44.0303H310.776V51.6361Z" fill="#A6B5E6"/>
<path d="M307.062 44.1466C307.062 44.1466 307.048 44.1466 307.042 44.1436L301.861 42.6597C301.823 42.649 301.8 42.6093 301.812 42.571C301.823 42.5328 301.862 42.5098 301.9 42.5221L307.054 43.9983L312.17 41.2172C312.205 41.1989 312.249 41.2111 312.268 41.2463C312.286 41.2815 312.274 41.3258 312.239 41.3442L307.097 44.139C307.086 44.1451 307.074 44.1482 307.062 44.1482V44.1466Z" fill="#A6B5E6"/>
<path d="M312 42.3615C311.99 42.3615 311.981 42.3599 311.972 42.3553C311.935 42.34 311.917 42.2972 311.932 42.2605L312.395 41.1438H311.158C311.118 41.1438 311.086 41.1117 311.086 41.0719C311.086 41.0321 311.118 41 311.158 41H312.501C312.526 41 312.549 41.0122 312.561 41.0321C312.575 41.052 312.576 41.078 312.567 41.0994L312.064 42.3156C312.051 42.3431 312.026 42.3599 311.997 42.3599L312 42.3615Z" fill="#A6B5E6"/>
<g style="mix-blend-mode:multiply">
<path d="M292.026 286.163C292.235 286.148 292.415 285.993 292.454 285.776C304.24 219.494 324.214 198.636 330.777 191.782L331.333 191.2C331.511 191.012 331.504 190.714 331.317 190.535C331.128 190.356 330.832 190.363 330.653 190.551L330.101 191.129C323.488 198.035 303.366 219.048 291.529 285.611C291.483 285.867 291.653 286.112 291.908 286.157C291.948 286.164 291.986 286.165 292.025 286.163H292.026Z" fill="#DEDEDE"/>
</g>
<g style="mix-blend-mode:multiply">
<path d="M303.259 286.642C303.349 286.7 303.471 286.691 303.554 286.614C328.646 262.938 343.244 260.483 348.042 259.676L348.448 259.608C348.579 259.585 348.667 259.46 348.645 259.328C348.623 259.196 348.498 259.108 348.366 259.13L347.962 259.199C343.129 260.012 328.423 262.486 303.224 286.261C303.127 286.353 303.123 286.506 303.214 286.603C303.228 286.618 303.244 286.63 303.26 286.642H303.259Z" fill="#DEDEDE"/>
</g>
<path d="M22.0547 287H374.312C375.622 287 376.684 287.81 376.684 288.807V293H19.6836V288.807C19.6836 287.809 20.747 287 22.0547 287Z" fill="#9FB2EB"/>
<g style="mix-blend-mode:multiply">
<path d="M99.0616 278.196C98.8955 278.207 98.7369 278.105 98.6823 277.94C82.0063 227.122 63.963 212.957 58.0346 208.303L57.5326 207.907C57.3714 207.779 57.3429 207.544 57.4706 207.381C57.5983 207.219 57.8325 207.191 57.9949 207.319L58.4944 207.712C64.4675 212.401 82.6446 226.672 99.3913 277.705C99.4558 277.901 99.3492 278.113 99.1533 278.177C99.1236 278.187 99.0926 278.193 99.0628 278.195L99.0616 278.196Z" fill="#DEDEDE"/>
</g>
<g style="mix-blend-mode:multiply">
<path d="M91.928 285.274C91.8375 285.336 91.7148 285.333 91.628 285.257C65.2579 262.175 50.3444 260.237 45.4434 259.6L45.0282 259.546C44.8944 259.527 44.8002 259.404 44.8187 259.27C44.8373 259.135 44.96 259.041 45.0939 259.06L45.5067 259.114C50.4435 259.756 65.4686 261.709 91.9503 284.889C92.0519 284.978 92.0631 285.132 91.9738 285.236C91.9602 285.252 91.9453 285.265 91.928 285.277V285.274Z" fill="#DEDEDE"/>
</g>
<path d="M287.645 53.2109H128.96C125.893 53.2109 123.406 55.7048 123.406 58.7812V281.015C123.406 284.092 125.893 286.586 128.96 286.586H287.645C290.712 286.586 293.199 284.092 293.199 281.015V58.7812C293.199 55.7048 290.712 53.2109 287.645 53.2109Z" fill="#14142D"/>
<path d="M285.201 57.476H131.403C129.335 57.476 127.658 59.1573 127.658 61.2314V268.531C127.658 270.605 129.335 272.286 131.403 272.286H285.201C287.269 272.286 288.945 270.605 288.945 268.531V61.2314C288.945 59.1573 287.269 57.476 285.201 57.476Z" fill="#4F506C"/>
<path d="M277.004 69.452H139.6V260.31H277.004V69.452Z" fill="#C1C4FF"/>
<path d="M276.976 69.3886H139.572V80.2533H276.976V69.3886Z" fill="#5067C4"/>
<path d="M256.744 75.496H250.705V76.8423H256.744V75.496Z" fill="white"/>
<path d="M265.108 76.5402L260.838 72.2577L259.889 73.2097L264.159 77.4922L265.108 76.5402Z" fill="white"/>
<path d="M260.837 77.4928L265.107 73.2103L264.158 72.2584L259.888 76.5409L260.837 77.4928Z" fill="white"/>
<path d="M267.609 71.9705V77.4911H273.114V71.9705H267.609ZM272.048 76.4221H268.677V73.0408H272.048V76.4221Z" fill="white"/>
<path d="M160.644 75.3027C160.863 74.3753 160.29 73.446 159.365 73.2271C158.44 73.0082 157.514 73.5826 157.296 74.51C157.077 75.4375 157.65 76.3668 158.575 76.5857C159.5 76.8046 160.426 76.2302 160.644 75.3027Z" fill="white"/>
<path d="M153.496 75.3025C153.714 74.3751 153.141 73.4458 152.217 73.2269C151.292 73.008 150.365 73.5824 150.147 74.5098C149.929 75.4372 150.502 76.3665 151.426 76.5854C152.351 76.8043 153.278 76.2299 153.496 75.3025Z" fill="white"/>
<path d="M145.894 76.1295C146.566 75.4557 146.566 74.3633 145.894 73.6894C145.222 73.0156 144.133 73.0156 143.461 73.6894C142.789 74.3633 142.789 75.4557 143.461 76.1295C144.133 76.8034 145.222 76.8034 145.894 76.1295Z" fill="white"/>
<g style="mix-blend-mode:multiply">
<path d="M186.328 100.088H157.573C157.086 100.088 156.691 100.484 156.691 100.972V129.811C156.691 130.299 157.086 130.695 157.573 130.695H186.328C186.814 130.695 187.209 130.299 187.209 129.811V100.972C187.209 100.484 186.814 100.088 186.328 100.088Z" fill="#B8C9FF"/>
</g>
<path d="M183.886 97.6393H155.131C154.645 97.6393 154.25 98.035 154.25 98.5231V127.362C154.25 127.85 154.645 128.246 155.131 128.246H183.886C184.373 128.246 184.767 127.85 184.767 127.362V98.5231C184.767 98.035 184.373 97.6393 183.886 97.6393Z" fill="white"/>
<path d="M158.828 109.576L170.425 119.982L191.786 93.6601L169.815 112.636L158.828 109.576Z" fill="#7165B1"/>
<g style="mix-blend-mode:multiply">
<path d="M264.526 117.227H197.169C196.724 117.227 196.363 117.589 196.363 118.035V124.376C196.363 124.822 196.724 125.184 197.169 125.184H264.526C264.971 125.184 265.332 124.822 265.332 124.376V118.035C265.332 117.589 264.971 117.227 264.526 117.227Z" fill="#B8C9FF"/>
<path d="M198.751 110.713C198.571 110.713 198.403 110.668 198.247 110.578C198.097 110.488 197.974 110.362 197.878 110.2C197.788 110.038 197.743 109.849 197.743 109.633C197.743 109.417 197.788 109.228 197.878 109.066C197.974 108.904 198.097 108.778 198.247 108.688C198.403 108.592 198.571 108.544 198.751 108.544C198.931 108.544 199.096 108.592 199.246 108.688C199.402 108.778 199.525 108.904 199.615 109.066C199.711 109.228 199.759 109.417 199.759 109.633C199.759 109.849 199.711 110.038 199.615 110.2C199.525 110.362 199.402 110.488 199.246 110.578C199.096 110.668 198.931 110.713 198.751 110.713ZM206.31 112V106.096H207.786C208.392 106.096 208.902 106.21 209.316 106.438C209.73 106.666 210.042 106.999 210.252 107.437C210.468 107.869 210.576 108.397 210.576 109.021C210.576 109.645 210.468 110.182 210.252 110.632C210.042 111.076 209.733 111.415 209.325 111.649C208.917 111.883 208.416 112 207.822 112H206.31ZM207.057 111.388H207.732C208.194 111.388 208.578 111.295 208.884 111.109C209.19 110.917 209.418 110.647 209.568 110.299C209.718 109.951 209.793 109.525 209.793 109.021C209.793 108.529 209.718 108.109 209.568 107.761C209.418 107.413 209.19 107.152 208.884 106.978C208.578 106.798 208.194 106.708 207.732 106.708H207.057V111.388ZM213.053 112.108C212.591 112.108 212.252 111.964 212.036 111.676C211.826 111.382 211.721 110.956 211.721 110.398V107.626H212.459V110.299C212.459 110.707 212.522 111.004 212.648 111.19C212.78 111.37 212.99 111.46 213.278 111.46C213.5 111.46 213.698 111.403 213.872 111.289C214.052 111.169 214.247 110.983 214.457 110.731V107.626H215.195V112H214.583L214.52 111.316H214.493C214.295 111.556 214.079 111.748 213.845 111.892C213.617 112.036 213.353 112.108 213.053 112.108ZM218.444 112.108C218.054 112.108 217.697 112.018 217.373 111.838C217.055 111.652 216.803 111.391 216.617 111.055C216.431 110.713 216.338 110.299 216.338 109.813C216.338 109.339 216.434 108.931 216.626 108.589C216.818 108.247 217.064 107.983 217.364 107.797C217.664 107.611 217.982 107.518 218.318 107.518C218.69 107.518 219.005 107.605 219.263 107.779C219.527 107.947 219.725 108.184 219.857 108.49C219.989 108.796 220.055 109.156 220.055 109.57C220.055 109.648 220.052 109.723 220.046 109.795C220.046 109.867 220.037 109.939 220.019 110.011H216.869V109.426H219.389C219.389 109.006 219.296 108.685 219.11 108.463C218.93 108.235 218.669 108.121 218.327 108.121C218.129 108.121 217.934 108.178 217.742 108.292C217.55 108.4 217.391 108.577 217.265 108.823C217.145 109.069 217.085 109.396 217.085 109.804C217.085 110.176 217.148 110.488 217.274 110.74C217.406 110.992 217.583 111.184 217.805 111.316C218.027 111.442 218.27 111.505 218.534 111.505C218.744 111.505 218.939 111.475 219.119 111.415C219.305 111.355 219.473 111.274 219.623 111.172L219.893 111.658C219.701 111.79 219.485 111.898 219.245 111.982C219.011 112.066 218.744 112.108 218.444 112.108ZM223.009 112V106.096H224.854C225.256 106.096 225.613 106.15 225.925 106.258C226.237 106.36 226.48 106.534 226.654 106.78C226.834 107.02 226.924 107.344 226.924 107.752C226.924 108.148 226.834 108.475 226.654 108.733C226.48 108.991 226.237 109.186 225.925 109.318C225.613 109.444 225.256 109.507 224.854 109.507H223.756V112H223.009ZM223.756 108.895H224.746C225.208 108.895 225.562 108.802 225.808 108.616C226.054 108.424 226.177 108.136 226.177 107.752C226.177 107.368 226.054 107.098 225.808 106.942C225.562 106.78 225.208 106.699 224.746 106.699H223.756V108.895ZM226.249 112L224.71 109.3L225.295 108.904L227.095 112H226.249ZM228.133 112V106.096H231.535V106.726H228.88V108.724H231.13V109.354H228.88V112H228.133ZM232.581 112V106.096H234.264C234.708 106.096 235.095 106.153 235.425 106.267C235.755 106.375 236.013 106.555 236.199 106.807C236.385 107.059 236.478 107.401 236.478 107.833C236.478 108.247 236.385 108.589 236.199 108.859C236.019 109.123 235.764 109.324 235.434 109.462C235.11 109.594 234.732 109.66 234.3 109.66H233.328V112H232.581ZM233.328 109.048H234.21C234.726 109.048 235.107 108.949 235.353 108.751C235.605 108.553 235.731 108.247 235.731 107.833C235.731 107.407 235.599 107.113 235.335 106.951C235.077 106.783 234.69 106.699 234.174 106.699H233.328V109.048ZM198.751 160.713C198.571 160.713 198.403 160.668 198.247 160.578C198.097 160.488 197.974 160.362 197.878 160.2C197.788 160.038 197.743 159.849 197.743 159.633C197.743 159.417 197.788 159.228 197.878 159.066C197.974 158.904 198.097 158.778 198.247 158.688C198.403 158.592 198.571 158.544 198.751 158.544C198.931 158.544 199.096 158.592 199.246 158.688C199.402 158.778 199.525 158.904 199.615 159.066C199.711 159.228 199.759 159.417 199.759 159.633C199.759 159.849 199.711 160.038 199.615 160.2C199.525 160.362 199.402 160.488 199.246 160.578C199.096 160.668 198.931 160.713 198.751 160.713ZM206.31 162V156.096H207.057V161.361H209.64V162H206.31ZM212.21 162.108C211.856 162.108 211.523 162.018 211.211 161.838C210.905 161.658 210.656 161.397 210.464 161.055C210.278 160.713 210.185 160.302 210.185 159.822C210.185 159.33 210.278 158.913 210.464 158.571C210.656 158.229 210.905 157.968 211.211 157.788C211.523 157.608 211.856 157.518 212.21 157.518C212.57 157.518 212.903 157.608 213.209 157.788C213.515 157.968 213.761 158.229 213.947 158.571C214.139 158.913 214.235 159.33 214.235 159.822C214.235 160.302 214.139 160.713 213.947 161.055C213.761 161.397 213.515 161.658 213.209 161.838C212.903 162.018 212.57 162.108 212.21 162.108ZM212.21 161.496C212.462 161.496 212.684 161.427 212.876 161.289C213.068 161.145 213.215 160.947 213.317 160.695C213.419 160.443 213.47 160.152 213.47 159.822C213.47 159.486 213.419 159.192 213.317 158.94C213.215 158.682 213.068 158.484 212.876 158.346C212.684 158.202 212.462 158.13 212.21 158.13C211.958 158.13 211.736 158.202 211.544 158.346C211.358 158.484 211.211 158.682 211.103 158.94C211.001 159.192 210.95 159.486 210.95 159.822C210.95 160.152 211.001 160.443 211.103 160.695C211.211 160.947 211.358 161.145 211.544 161.289C211.736 161.427 211.958 161.496 212.21 161.496ZM216.513 162.108C216.195 162.108 215.892 162.054 215.604 161.946C215.322 161.832 215.082 161.676 214.884 161.478L215.226 161.046C215.418 161.202 215.616 161.322 215.82 161.406C216.03 161.49 216.27 161.532 216.54 161.532C216.828 161.532 217.044 161.466 217.188 161.334C217.332 161.196 217.404 161.034 217.404 160.848C217.404 160.698 217.353 160.575 217.251 160.479C217.155 160.377 217.032 160.293 216.882 160.227C216.738 160.155 216.582 160.089 216.414 160.029C216.198 159.951 215.991 159.861 215.793 159.759C215.595 159.651 215.433 159.519 215.307 159.363C215.187 159.201 215.127 159 215.127 158.76C215.127 158.406 215.259 158.112 215.523 157.878C215.793 157.638 216.165 157.518 216.639 157.518C216.909 157.518 217.161 157.566 217.395 157.662C217.629 157.752 217.83 157.869 217.998 158.013L217.656 158.436C217.5 158.328 217.341 158.244 217.179 158.184C217.017 158.124 216.837 158.094 216.639 158.094C216.363 158.094 216.159 158.157 216.027 158.283C215.901 158.409 215.838 158.556 215.838 158.724C215.838 158.856 215.877 158.967 215.955 159.057C216.033 159.141 216.141 159.216 216.279 159.282C216.423 159.348 216.585 159.411 216.765 159.471C216.993 159.555 217.209 159.651 217.413 159.759C217.623 159.861 217.791 159.996 217.917 160.164C218.049 160.326 218.115 160.539 218.115 160.803C218.115 161.043 218.052 161.262 217.926 161.46C217.806 161.652 217.626 161.808 217.386 161.928C217.152 162.048 216.861 162.108 216.513 162.108ZM220.342 162.081C219.88 162.081 219.556 161.946 219.37 161.676C219.184 161.406 219.091 161.055 219.091 160.623V158.229H218.443V157.671L219.127 157.626L219.217 156.222H219.838V157.626H221.026V158.229H219.838V160.632C219.838 160.896 219.886 161.103 219.982 161.253C220.084 161.403 220.261 161.478 220.513 161.478C220.591 161.478 220.672 161.472 220.756 161.46C220.84 161.442 220.924 161.412 221.008 161.37L221.17 161.892C221.056 161.946 220.927 161.991 220.783 162.027C220.639 162.063 220.492 162.081 220.342 162.081ZM223.879 162V156.096H225.724C226.126 156.096 226.483 156.15 226.795 156.258C227.107 156.36 227.35 156.534 227.524 156.78C227.704 157.02 227.794 157.344 227.794 157.752C227.794 158.148 227.704 158.475 227.524 158.733C227.35 158.991 227.107 159.186 226.795 159.318C226.483 159.444 226.126 159.507 225.724 159.507H224.626V162H223.879ZM224.626 158.895H225.616C226.078 158.895 226.432 158.802 226.678 158.616C226.924 158.424 227.047 158.136 227.047 157.752C227.047 157.368 226.924 157.098 226.678 156.942C226.432 156.78 226.078 156.699 225.616 156.699H224.626V158.895ZM227.119 162L225.58 159.3L226.165 158.904L227.965 162H227.119ZM229.003 162V156.096H232.405V156.726H229.75V158.724H232V159.354H229.75V162H229.003ZM233.451 162V156.096H235.134C235.578 156.096 235.965 156.153 236.295 156.267C236.625 156.375 236.883 156.555 237.069 156.807C237.255 157.059 237.348 157.401 237.348 157.833C237.348 158.247 237.255 158.589 237.069 158.859C236.889 159.123 236.634 159.324 236.304 159.462C235.98 159.594 235.602 159.66 235.17 159.66H234.198V162H233.451ZM234.198 159.048H235.08C235.596 159.048 235.977 158.949 236.223 158.751C236.475 158.553 236.601 158.247 236.601 157.833C236.601 157.407 236.469 157.113 236.205 156.951C235.947 156.783 235.56 156.699 235.044 156.699H234.198V159.048ZM240.35 162V156.096H242.195C242.597 156.096 242.954 156.15 243.266 156.258C243.578 156.36 243.821 156.534 243.995 156.78C244.175 157.02 244.265 157.344 244.265 157.752C244.265 158.148 244.175 158.475 243.995 158.733C243.821 158.991 243.578 159.186 243.266 159.318C242.954 159.444 242.597 159.507 242.195 159.507H241.097V162H240.35ZM241.097 158.895H242.087C242.549 158.895 242.903 158.802 243.149 158.616C243.395 158.424 243.518 158.136 243.518 157.752C243.518 157.368 243.395 157.098 243.149 156.942C242.903 156.78 242.549 156.699 242.087 156.699H241.097V158.895ZM243.59 162L242.051 159.3L242.636 158.904L244.436 162H243.59ZM247.087 162.108C246.697 162.108 246.34 162.018 246.016 161.838C245.698 161.652 245.446 161.391 245.26 161.055C245.074 160.713 244.981 160.299 244.981 159.813C244.981 159.339 245.077 158.931 245.269 158.589C245.461 158.247 245.707 157.983 246.007 157.797C246.307 157.611 246.625 157.518 246.961 157.518C247.333 157.518 247.648 157.605 247.906 157.779C248.17 157.947 248.368 158.184 248.5 158.49C248.632 158.796 248.698 159.156 248.698 159.57C248.698 159.648 248.695 159.723 248.689 159.795C248.689 159.867 248.68 159.939 248.662 160.011H245.512V159.426H248.032C248.032 159.006 247.939 158.685 247.753 158.463C247.573 158.235 247.312 158.121 246.97 158.121C246.772 158.121 246.577 158.178 246.385 158.292C246.193 158.4 246.034 158.577 245.908 158.823C245.788 159.069 245.728 159.396 245.728 159.804C245.728 160.176 245.791 160.488 245.917 160.74C246.049 160.992 246.226 161.184 246.448 161.316C246.67 161.442 246.913 161.505 247.177 161.505C247.387 161.505 247.582 161.475 247.762 161.415C247.948 161.355 248.116 161.274 248.266 161.172L248.536 161.658C248.344 161.79 248.128 161.898 247.888 161.982C247.654 162.066 247.387 162.108 247.087 162.108ZM250.664 162.108C250.424 162.108 250.205 162.06 250.007 161.964C249.815 161.862 249.662 161.721 249.548 161.541C249.434 161.355 249.377 161.13 249.377 160.866C249.377 160.374 249.593 160.002 250.025 159.75C250.457 159.498 251.141 159.321 252.077 159.219C252.071 159.039 252.041 158.865 251.987 158.697C251.939 158.529 251.849 158.394 251.717 158.292C251.585 158.19 251.402 158.139 251.168 158.139C250.916 158.139 250.679 158.187 250.457 158.283C250.235 158.373 250.037 158.475 249.863 158.589L249.575 158.085C249.707 157.995 249.863 157.908 250.043 157.824C250.223 157.734 250.418 157.662 250.628 157.608C250.838 157.548 251.06 157.518 251.294 157.518C251.648 157.518 251.936 157.593 252.158 157.743C252.386 157.887 252.551 158.094 252.653 158.364C252.761 158.634 252.815 158.952 252.815 159.318V162H252.203L252.14 161.478H252.113C251.903 161.652 251.678 161.802 251.438 161.928C251.198 162.048 250.94 162.108 250.664 162.108ZM250.871 161.496C251.087 161.496 251.288 161.448 251.474 161.352C251.666 161.256 251.867 161.115 252.077 160.929V159.75C251.585 159.81 251.195 159.888 250.907 159.984C250.625 160.074 250.421 160.188 250.295 160.326C250.169 160.464 250.106 160.629 250.106 160.821C250.106 161.061 250.181 161.235 250.331 161.343C250.481 161.445 250.661 161.496 250.871 161.496ZM255.334 162.108C255.016 162.108 254.713 162.054 254.425 161.946C254.143 161.832 253.903 161.676 253.705 161.478L254.047 161.046C254.239 161.202 254.437 161.322 254.641 161.406C254.851 161.49 255.091 161.532 255.361 161.532C255.649 161.532 255.865 161.466 256.009 161.334C256.153 161.196 256.225 161.034 256.225 160.848C256.225 160.698 256.174 160.575 256.072 160.479C255.976 160.377 255.853 160.293 255.703 160.227C255.559 160.155 255.403 160.089 255.235 160.029C255.019 159.951 254.812 159.861 254.614 159.759C254.416 159.651 254.254 159.519 254.128 159.363C254.008 159.201 253.948 159 253.948 158.76C253.948 158.406 254.08 158.112 254.344 157.878C254.614 157.638 254.986 157.518 255.46 157.518C255.73 157.518 255.982 157.566 256.216 157.662C256.45 157.752 256.651 157.869 256.819 158.013L256.477 158.436C256.321 158.328 256.162 158.244 256 158.184C255.838 158.124 255.658 158.094 255.46 158.094C255.184 158.094 254.98 158.157 254.848 158.283C254.722 158.409 254.659 158.556 254.659 158.724C254.659 158.856 254.698 158.967 254.776 159.057C254.854 159.141 254.962 159.216 255.1 159.282C255.244 159.348 255.406 159.411 255.586 159.471C255.814 159.555 256.03 159.651 256.234 159.759C256.444 159.861 256.612 159.996 256.738 160.164C256.87 160.326 256.936 160.539 256.936 160.803C256.936 161.043 256.873 161.262 256.747 161.46C256.627 161.652 256.447 161.808 256.207 161.928C255.973 162.048 255.682 162.108 255.334 162.108ZM259.663 162.108C259.309 162.108 258.976 162.018 258.664 161.838C258.358 161.658 258.109 161.397 257.917 161.055C257.731 160.713 257.638 160.302 257.638 159.822C257.638 159.33 257.731 158.913 257.917 158.571C258.109 158.229 258.358 157.968 258.664 157.788C258.976 157.608 259.309 157.518 259.663 157.518C260.023 157.518 260.356 157.608 260.662 157.788C260.968 157.968 261.214 158.229 261.4 158.571C261.592 158.913 261.688 159.33 261.688 159.822C261.688 160.302 261.592 160.713 261.4 161.055C261.214 161.397 260.968 161.658 260.662 161.838C260.356 162.018 260.023 162.108 259.663 162.108ZM259.663 161.496C259.915 161.496 260.137 161.427 260.329 161.289C260.521 161.145 260.668 160.947 260.77 160.695C260.872 160.443 260.923 160.152 260.923 159.822C260.923 159.486 260.872 159.192 260.77 158.94C260.668 158.682 260.521 158.484 260.329 158.346C260.137 158.202 259.915 158.13 259.663 158.13C259.411 158.13 259.189 158.202 258.997 158.346C258.811 158.484 258.664 158.682 258.556 158.94C258.454 159.192 258.403 159.486 258.403 159.822C258.403 160.152 258.454 160.443 258.556 160.695C258.664 160.947 258.811 161.145 258.997 161.289C259.189 161.427 259.411 161.496 259.663 161.496ZM262.84 162V157.626H263.452L263.515 158.256H263.542C263.752 158.046 263.974 157.872 264.208 157.734C264.442 157.59 264.709 157.518 265.009 157.518C265.471 157.518 265.807 157.665 266.017 157.959C266.233 158.247 266.341 158.67 266.341 159.228V162H265.603V159.327C265.603 158.913 265.537 158.616 265.405 158.436C265.279 158.25 265.069 158.157 264.775 158.157C264.553 158.157 264.352 158.214 264.172 158.328C263.998 158.442 263.8 158.61 263.578 158.832V162H262.84ZM198.751 210.713C198.571 210.713 198.403 210.668 198.247 210.578C198.097 210.488 197.974 210.362 197.878 210.2C197.788 210.038 197.743 209.849 197.743 209.633C197.743 209.417 197.788 209.228 197.878 209.066C197.974 208.904 198.097 208.778 198.247 208.688C198.403 208.592 198.571 208.544 198.751 208.544C198.931 208.544 199.096 208.592 199.246 208.688C199.402 208.778 199.525 208.904 199.615 209.066C199.711 209.228 199.759 209.417 199.759 209.633C199.759 209.849 199.711 210.038 199.615 210.2C199.525 210.362 199.402 210.488 199.246 210.578C199.096 210.668 198.931 210.713 198.751 210.713ZM208.551 212.108C208.059 212.108 207.615 211.988 207.219 211.748C206.829 211.502 206.523 211.151 206.301 210.695C206.079 210.239 205.968 209.69 205.968 209.048C205.968 208.574 206.031 208.148 206.157 207.77C206.289 207.392 206.475 207.071 206.715 206.807C206.955 206.537 207.231 206.333 207.543 206.195C207.861 206.057 208.209 205.988 208.587 205.988C208.941 205.988 209.256 206.06 209.532 206.204C209.814 206.348 210.039 206.519 210.207 206.717L209.802 207.176C209.646 207.008 209.466 206.879 209.262 206.789C209.064 206.693 208.842 206.645 208.596 206.645C208.23 206.645 207.906 206.744 207.624 206.942C207.348 207.134 207.132 207.41 206.976 207.77C206.82 208.124 206.742 208.544 206.742 209.03C206.742 209.528 206.817 209.957 206.967 210.317C207.117 210.677 207.333 210.956 207.615 211.154C207.897 211.346 208.227 211.442 208.605 211.442C208.881 211.442 209.127 211.391 209.343 211.289C209.565 211.181 209.766 211.025 209.946 210.821L210.342 211.262C210.108 211.532 209.847 211.742 209.559 211.892C209.271 212.036 208.935 212.108 208.551 212.108ZM212.57 212.108C212.108 212.108 211.769 211.964 211.553 211.676C211.343 211.382 211.238 210.956 211.238 210.398V207.626H211.976V210.299C211.976 210.707 212.039 211.004 212.165 211.19C212.297 211.37 212.507 211.46 212.795 211.46C213.017 211.46 213.215 211.403 213.389 211.289C213.569 211.169 213.764 210.983 213.974 210.731V207.626H214.712V212H214.1L214.037 211.316H214.01C213.812 211.556 213.596 211.748 213.362 211.892C213.134 212.036 212.87 212.108 212.57 212.108ZM217.33 212.108C217.012 212.108 216.709 212.054 216.421 211.946C216.139 211.832 215.899 211.676 215.701 211.478L216.043 211.046C216.235 211.202 216.433 211.322 216.637 211.406C216.847 211.49 217.087 211.532 217.357 211.532C217.645 211.532 217.861 211.466 218.005 211.334C218.149 211.196 218.221 211.034 218.221 210.848C218.221 210.698 218.17 210.575 218.068 210.479C217.972 210.377 217.849 210.293 217.699 210.227C217.555 210.155 217.399 210.089 217.231 210.029C217.015 209.951 216.808 209.861 216.61 209.759C216.412 209.651 216.25 209.519 216.124 209.363C216.004 209.201 215.944 209 215.944 208.76C215.944 208.406 216.076 208.112 216.34 207.878C216.61 207.638 216.982 207.518 217.456 207.518C217.726 207.518 217.978 207.566 218.212 207.662C218.446 207.752 218.647 207.869 218.815 208.013L218.473 208.436C218.317 208.328 218.158 208.244 217.996 208.184C217.834 208.124 217.654 208.094 217.456 208.094C217.18 208.094 216.976 208.157 216.844 208.283C216.718 208.409 216.655 208.556 216.655 208.724C216.655 208.856 216.694 208.967 216.772 209.057C216.85 209.141 216.958 209.216 217.096 209.282C217.24 209.348 217.402 209.411 217.582 209.471C217.81 209.555 218.026 209.651 218.23 209.759C218.44 209.861 218.608 209.996 218.734 210.164C218.866 210.326 218.932 210.539 218.932 210.803C218.932 211.043 218.869 211.262 218.743 211.46C218.623 211.652 218.443 211.808 218.203 211.928C217.969 212.048 217.678 212.108 217.33 212.108ZM221.159 212.081C220.697 212.081 220.373 211.946 220.187 211.676C220.001 211.406 219.908 211.055 219.908 210.623V208.229H219.26V207.671L219.944 207.626L220.034 206.222H220.655V207.626H221.843V208.229H220.655V210.632C220.655 210.896 220.703 211.103 220.799 211.253C220.901 211.403 221.078 211.478 221.33 211.478C221.408 211.478 221.489 211.472 221.573 211.46C221.657 211.442 221.741 211.412 221.825 211.37L221.987 211.892C221.873 211.946 221.744 211.991 221.6 212.027C221.456 212.063 221.309 212.081 221.159 212.081ZM224.401 212.108C224.047 212.108 223.714 212.018 223.402 211.838C223.096 211.658 222.847 211.397 222.655 211.055C222.469 210.713 222.376 210.302 222.376 209.822C222.376 209.33 222.469 208.913 222.655 208.571C222.847 208.229 223.096 207.968 223.402 207.788C223.714 207.608 224.047 207.518 224.401 207.518C224.761 207.518 225.094 207.608 225.4 207.788C225.706 207.968 225.952 208.229 226.138 208.571C226.33 208.913 226.426 209.33 226.426 209.822C226.426 210.302 226.33 210.713 226.138 211.055C225.952 211.397 225.706 211.658 225.4 211.838C225.094 212.018 224.761 212.108 224.401 212.108ZM224.401 211.496C224.653 211.496 224.875 211.427 225.067 211.289C225.259 211.145 225.406 210.947 225.508 210.695C225.61 210.443 225.661 210.152 225.661 209.822C225.661 209.486 225.61 209.192 225.508 208.94C225.406 208.682 225.259 208.484 225.067 208.346C224.875 208.202 224.653 208.13 224.401 208.13C224.149 208.13 223.927 208.202 223.735 208.346C223.549 208.484 223.402 208.682 223.294 208.94C223.192 209.192 223.141 209.486 223.141 209.822C223.141 210.152 223.192 210.443 223.294 210.695C223.402 210.947 223.549 211.145 223.735 211.289C223.927 211.427 224.149 211.496 224.401 211.496ZM227.578 212V207.626H228.19L228.253 208.256H228.28C228.472 208.052 228.679 207.878 228.901 207.734C229.129 207.59 229.375 207.518 229.639 207.518C229.975 207.518 230.236 207.593 230.422 207.743C230.614 207.893 230.755 208.097 230.845 208.355C231.073 208.103 231.304 207.902 231.538 207.752C231.772 207.596 232.021 207.518 232.285 207.518C232.741 207.518 233.077 207.665 233.293 207.959C233.509 208.247 233.617 208.67 233.617 209.228V212H232.879V209.327C232.879 208.913 232.813 208.616 232.681 208.436C232.549 208.25 232.345 208.157 232.069 208.157C231.895 208.157 231.718 208.214 231.538 208.328C231.364 208.436 231.175 208.604 230.971 208.832V212H230.233V209.327C230.233 208.913 230.167 208.616 230.035 208.436C229.903 208.25 229.696 208.157 229.414 208.157C229.084 208.157 228.718 208.382 228.316 208.832V212H227.578ZM235.04 212V207.626H235.778V212H235.04ZM235.409 206.726C235.265 206.726 235.145 206.681 235.049 206.591C234.959 206.501 234.914 206.384 234.914 206.24C234.914 206.096 234.959 205.979 235.049 205.889C235.145 205.799 235.265 205.754 235.409 205.754C235.553 205.754 235.67 205.799 235.76 205.889C235.856 205.979 235.904 206.096 235.904 206.24C235.904 206.384 235.856 206.501 235.76 206.591C235.67 206.681 235.553 206.726 235.409 206.726ZM236.796 212V211.604L239.1 208.229H237.048V207.626H240.036V208.022L237.732 211.397H240.108V212H236.796ZM242.763 212.108C242.373 212.108 242.016 212.018 241.692 211.838C241.374 211.652 241.122 211.391 240.936 211.055C240.75 210.713 240.657 210.299 240.657 209.813C240.657 209.339 240.753 208.931 240.945 208.589C241.137 208.247 241.383 207.983 241.683 207.797C241.983 207.611 242.301 207.518 242.637 207.518C243.009 207.518 243.324 207.605 243.582 207.779C243.846 207.947 244.044 208.184 244.176 208.49C244.308 208.796 244.374 209.156 244.374 209.57C244.374 209.648 244.371 209.723 244.365 209.795C244.365 209.867 244.356 209.939 244.338 210.011H241.188V209.426H243.708C243.708 209.006 243.615 208.685 243.429 208.463C243.249 208.235 242.988 208.121 242.646 208.121C242.448 208.121 242.253 208.178 242.061 208.292C241.869 208.4 241.71 208.577 241.584 208.823C241.464 209.069 241.404 209.396 241.404 209.804C241.404 210.176 241.467 210.488 241.593 210.74C241.725 210.992 241.902 211.184 242.124 211.316C242.346 211.442 242.589 211.505 242.853 211.505C243.063 211.505 243.258 211.475 243.438 211.415C243.624 211.355 243.792 211.274 243.942 211.172L244.212 211.658C244.02 211.79 243.804 211.898 243.564 211.982C243.33 212.066 243.063 212.108 242.763 212.108ZM249.651 212.108C249.129 212.108 248.667 211.988 248.265 211.748C247.869 211.502 247.557 211.151 247.329 210.695C247.101 210.239 246.987 209.69 246.987 209.048C246.987 208.574 247.053 208.148 247.185 207.77C247.323 207.392 247.512 207.071 247.752 206.807C247.998 206.537 248.286 206.333 248.616 206.195C248.946 206.057 249.306 205.988 249.696 205.988C250.104 205.988 250.446 206.063 250.722 206.213C251.004 206.363 251.229 206.531 251.397 206.717L250.983 207.185C250.839 207.029 250.665 206.9 250.461 206.798C250.263 206.696 250.014 206.645 249.714 206.645C249.318 206.645 248.973 206.744 248.679 206.942C248.385 207.134 248.157 207.407 247.995 207.761C247.839 208.115 247.761 208.538 247.761 209.03C247.761 209.528 247.836 209.957 247.986 210.317C248.142 210.677 248.364 210.956 248.652 211.154C248.946 211.352 249.303 211.451 249.723 211.451C249.933 211.451 250.134 211.421 250.326 211.361C250.518 211.295 250.671 211.208 250.785 211.1V209.561H249.534V208.94H251.469V211.424C251.283 211.622 251.031 211.787 250.713 211.919C250.401 212.045 250.047 212.108 249.651 212.108ZM252.811 212V207.626H253.423L253.486 208.418H253.513C253.657 208.142 253.837 207.923 254.053 207.761C254.269 207.599 254.503 207.518 254.755 207.518C254.851 207.518 254.935 207.524 255.007 207.536C255.079 207.548 255.151 207.572 255.223 207.608L255.061 208.238C254.995 208.22 254.932 208.208 254.872 208.202C254.818 208.19 254.746 208.184 254.656 208.184C254.47 208.184 254.275 208.259 254.071 208.409C253.873 208.559 253.699 208.82 253.549 209.192V212H252.811ZM256.728 212.108C256.488 212.108 256.269 212.06 256.071 211.964C255.879 211.862 255.726 211.721 255.612 211.541C255.498 211.355 255.441 211.13 255.441 210.866C255.441 210.374 255.657 210.002 256.089 209.75C256.521 209.498 257.205 209.321 258.141 209.219C258.135 209.039 258.105 208.865 258.051 208.697C258.003 208.529 257.913 208.394 257.781 208.292C257.649 208.19 257.466 208.139 257.232 208.139C256.98 208.139 256.743 208.187 256.521 208.283C256.299 208.373 256.101 208.475 255.927 208.589L255.639 208.085C255.771 207.995 255.927 207.908 256.107 207.824C256.287 207.734 256.482 207.662 256.692 207.608C256.902 207.548 257.124 207.518 257.358 207.518C257.712 207.518 258 207.593 258.222 207.743C258.45 207.887 258.615 208.094 258.717 208.364C258.825 208.634 258.879 208.952 258.879 209.318V212H258.267L258.204 211.478H258.177C257.967 211.652 257.742 211.802 257.502 211.928C257.262 212.048 257.004 212.108 256.728 212.108ZM256.935 211.496C257.151 211.496 257.352 211.448 257.538 211.352C257.73 211.256 257.931 211.115 258.141 210.929V209.75C257.649 209.81 257.259 209.888 256.971 209.984C256.689 210.074 256.485 210.188 256.359 210.326C256.233 210.464 256.17 210.629 256.17 210.821C256.17 211.061 256.245 211.235 256.395 211.343C256.545 211.445 256.725 211.496 256.935 211.496ZM260.256 213.845V207.626H260.868L260.931 208.13H260.958C261.156 207.962 261.375 207.818 261.615 207.698C261.855 207.578 262.101 207.518 262.353 207.518C262.725 207.518 263.04 207.611 263.298 207.797C263.556 207.977 263.751 208.235 263.883 208.571C264.015 208.901 264.081 209.294 264.081 209.75C264.081 210.242 263.991 210.665 263.811 211.019C263.637 211.373 263.406 211.643 263.118 211.829C262.83 212.015 262.521 212.108 262.191 212.108C261.993 212.108 261.792 212.063 261.588 211.973C261.384 211.883 261.18 211.76 260.976 211.604L260.994 212.369V213.845H260.256ZM262.065 211.487C262.305 211.487 262.518 211.418 262.704 211.28C262.896 211.142 263.046 210.944 263.154 210.686C263.262 210.422 263.316 210.11 263.316 209.75C263.316 209.432 263.277 209.153 263.199 208.913C263.121 208.667 262.998 208.478 262.83 208.346C262.662 208.208 262.44 208.139 262.164 208.139C261.984 208.139 261.798 208.19 261.606 208.292C261.414 208.388 261.21 208.535 260.994 208.733V211.028C261.198 211.196 261.39 211.316 261.57 211.388C261.756 211.454 261.921 211.487 262.065 211.487ZM265.248 212V205.592H265.986V207.338L265.959 208.238C266.169 208.04 266.388 207.872 266.616 207.734C266.85 207.59 267.117 207.518 267.417 207.518C267.879 207.518 268.215 207.665 268.425 207.959C268.641 208.247 268.749 208.67 268.749 209.228V212H268.011V209.327C268.011 208.913 267.945 208.616 267.813 208.436C267.687 208.25 267.477 208.157 267.183 208.157C266.961 208.157 266.76 208.214 266.58 208.328C266.406 208.442 266.208 208.61 265.986 208.832V212H265.248Z" fill="black"/>
</g>
<g style="mix-blend-mode:multiply">
<path d="M186.328 149.669H157.573C157.086 149.669 156.691 150.065 156.691 150.553V179.392C156.691 179.88 157.086 180.276 157.573 180.276H186.328C186.814 180.276 187.209 179.88 187.209 179.392V150.553C187.209 150.065 186.814 149.669 186.328 149.669Z" fill="#B8C9FF"/>
</g>
<path d="M183.886 147.222H155.131C154.645 147.222 154.25 147.617 154.25 148.105V176.944C154.25 177.432 154.645 177.828 155.131 177.828H183.886C184.373 177.828 184.767 177.432 184.767 176.944V148.105C184.767 147.617 184.373 147.222 183.886 147.222Z" fill="white"/>
<path d="M158.828 159.158L170.425 169.564L191.786 143.242L169.815 162.218L158.828 159.158Z" fill="#7165B1"/>
<g style="mix-blend-mode:multiply">
<path d="M264.526 166.809H197.169C196.724 166.809 196.363 167.171 196.363 167.617V173.958C196.363 174.404 196.724 174.766 197.169 174.766H264.526C264.971 174.766 265.332 174.404 265.332 173.958V167.617C265.332 167.171 264.971 166.809 264.526 166.809Z" fill="#B8C9FF"/>
</g>
<g style="mix-blend-mode:multiply">
<path d="M186.328 199.252H157.573C157.086 199.252 156.691 199.647 156.691 200.135V228.974C156.691 229.462 157.086 229.858 157.573 229.858H186.328C186.814 229.858 187.209 229.462 187.209 228.974V200.135C187.209 199.647 186.814 199.252 186.328 199.252Z" fill="#B8C9FF"/>
</g>
<path d="M183.886 196.803H155.131C154.645 196.803 154.25 197.198 154.25 197.686V226.525C154.25 227.013 154.645 227.409 155.131 227.409H183.886C184.373 227.409 184.767 227.013 184.767 226.525V197.686C184.767 197.198 184.373 196.803 183.886 196.803Z" fill="white"/>
<path d="M158.828 208.74L170.425 219.146L191.786 192.825L169.815 211.801L158.828 208.74Z" fill="#7165B1"/>
<g style="mix-blend-mode:multiply">
<path d="M264.526 216.391H197.169C196.724 216.391 196.363 216.753 196.363 217.199V223.54C196.363 223.987 196.724 224.349 197.169 224.349H264.526C264.971 224.349 265.332 223.987 265.332 223.54V217.199C265.332 216.753 264.971 216.391 264.526 216.391Z" fill="#B8C9FF"/>
</g>
<path d="M55.6438 249.627C55.6438 249.627 43.9232 286.316 34.0234 286.316H74.5274C78.3041 286.316 82.3474 280.975 85.9022 274.37C88.0354 270.407 89.9925 265.987 91.6125 261.992C94.3691 255.195 96.1478 249.627 96.1478 249.627H55.6438Z" fill="#7165B1"/>
<path d="M53.9407 249.627C53.9407 249.627 42.2201 286.316 32.3203 286.316H72.8243C76.601 286.316 80.6442 280.975 84.1991 274.37C86.3322 270.407 88.2894 265.987 89.9094 261.992C92.666 255.195 94.4447 249.627 94.4447 249.627H53.9407Z" fill="#BEA4D3"/>
<path d="M71.7284 260.967C70.1084 264.961 68.15 269.38 66.0181 273.344C65.8036 273.743 65.5867 274.136 65.3698 274.525L54.6445 285.292H61.7927C65.5694 285.292 69.6113 279.951 73.1674 273.345C75.3006 269.382 77.2577 264.963 78.8778 260.968H71.7296L71.7284 260.967Z" fill="#AF8DC9"/>
<path d="M45.9494 248.915H1.36133C1.36133 248.915 24.9798 287.028 29.5969 286.316H73.9284C72.2191 286.119 68.5837 281.966 64.4823 276.495C60.9807 271.825 57.1395 266.193 53.866 261.239C49.3717 254.438 45.9494 248.915 45.9494 248.915Z" fill="#594BA1"/>
<path d="M44.5893 248.915H0C0 248.915 23.6184 287.028 28.2355 286.316H72.5671C70.8578 286.119 67.2224 281.966 63.1209 276.495C59.6194 271.825 55.7782 266.193 52.5047 261.239C48.0103 254.438 44.5881 248.915 44.5881 248.915H44.5893Z" fill="#7165B1"/>
<path d="M20.3664 243.394H15.7716C14.1974 243.394 13.2839 245.182 14.2024 246.463L26.2986 263.341H36.243L22.8701 244.681C22.2913 243.873 21.3592 243.393 20.3664 243.393V243.394Z" fill="#9287C9"/>
<path d="M21.9019 251.271C23.1973 250.52 23.5715 248.738 22.7377 247.29C21.9039 245.842 20.1779 245.275 18.8825 246.026C17.5872 246.776 17.213 248.558 18.0468 250.006C18.8806 251.454 20.6066 252.021 21.9019 251.271Z" fill="#DCC7ED"/>
<path d="M89.9093 261.992C88.2893 265.986 86.3322 270.405 84.199 274.37C80.6441 280.976 76.6022 286.316 72.8242 286.316H79.9723C83.7491 286.316 87.7923 280.976 91.3471 274.37C93.4803 270.407 95.4387 265.987 97.0574 261.992H89.9093Z" fill="#BDCDFF"/>
<path d="M92.4928 266.861C92.4928 266.861 90.7166 265.57 91.9598 263.343H89.3556C87.8509 266.967 86.0958 270.847 84.2006 274.368C81.8604 278.716 79.3108 282.514 76.7637 284.604C76.8789 284.89 77.0029 285.18 77.133 285.472C84.3258 285.739 91.4727 270.911 92.494 266.86L92.4928 266.861Z" fill="#DBE4FF"/>
<path d="M70.2682 276.495C66.7667 271.825 62.9255 266.193 59.652 261.239H52.5039C55.7774 266.193 59.6186 271.824 63.1201 276.495C67.2216 281.967 70.8582 286.119 72.5663 286.317H79.7144C78.0051 286.121 74.3697 281.967 70.2682 276.495Z" fill="#96ABEB"/>
<path d="M49.3523 230.294C58.856 230.294 66.5602 222.568 66.5602 213.036C66.5602 203.505 58.856 195.778 49.3523 195.778C39.8487 195.778 32.1445 203.505 32.1445 213.036C32.1445 222.568 39.8487 230.294 49.3523 230.294Z" fill="#677EC7"/>
<path d="M49.3533 226.332C56.6752 226.332 62.6108 220.38 62.6108 213.036C62.6108 205.693 56.6752 199.74 49.3533 199.74C42.0313 199.74 36.0957 205.693 36.0957 213.036C36.0957 220.38 42.0313 226.332 49.3533 226.332Z" fill="#A3BAFF"/>
<path d="M53.6862 213.96C53.3366 213.41 52.8991 213.011 52.3736 212.763C51.848 212.514 51.196 212.304 50.4177 212.133C50.3842 212.126 50.3532 212.119 50.3234 212.113C50.2937 212.106 50.2627 212.1 50.2292 212.093C50.197 212.087 50.166 212.079 50.14 212.073C50.114 212.067 50.0867 212.059 50.0607 212.053C49.4 211.908 48.8794 211.768 48.5002 211.635C48.1209 211.502 47.8048 211.296 47.5544 211.014C47.3041 210.733 47.1776 210.342 47.1776 209.846V209.837C47.1776 209.114 47.3958 208.574 47.8321 208.212C48.2684 207.85 48.9216 207.67 49.793 207.67C50.2491 207.67 50.7089 207.751 51.175 207.913C51.641 208.075 52.1182 208.322 52.6066 208.653L53.825 206.974C53.3887 206.682 52.9499 206.439 52.5074 206.244C52.0649 206.049 51.6175 205.902 51.1651 205.806C50.9494 205.76 50.7337 205.728 50.5156 205.703V204.052H48.4952V205.763C48.0019 205.842 47.5582 205.966 47.1727 206.143C46.4761 206.464 45.953 206.945 45.6022 207.584C45.2527 208.223 45.0767 209.026 45.0767 209.993V210.003C45.0767 210.996 45.2713 211.763 45.6617 212.303C46.0509 212.842 46.5207 213.215 47.0686 213.42C47.6164 213.625 48.3328 213.811 49.2178 213.976C49.2513 213.982 49.286 213.99 49.3219 213.996C49.3579 214.002 49.3926 214.008 49.4261 214.016C49.4459 214.022 49.4645 214.026 49.4806 214.026C49.4967 214.026 49.5153 214.03 49.5351 214.036C50.0904 214.141 50.5453 214.264 50.9023 214.404C51.2593 214.543 51.5493 214.752 51.7737 215.029C51.998 215.307 52.1108 215.685 52.1108 216.161V216.171C52.1108 216.92 51.8802 217.478 51.4179 217.846C50.9556 218.214 50.2553 218.397 49.3182 218.397C48.6377 218.397 48.0093 218.252 47.4317 217.964C46.8541 217.676 46.3273 217.244 45.8514 216.667L44.4941 218.317C44.9304 218.781 45.3965 219.166 45.896 219.474C46.3943 219.783 46.9297 220.014 47.5011 220.169C47.8209 220.256 48.1543 220.313 48.4964 220.352V222.013H50.5168V220.325C51.0882 220.251 51.6001 220.128 52.0377 219.942C52.7603 219.633 53.3044 219.17 53.6676 218.551C54.0308 217.932 54.2117 217.155 54.2117 216.221V216.201C54.2117 215.254 54.037 214.506 53.6862 213.956V213.96Z" fill="#677EC7"/>
<g style="mix-blend-mode:multiply">
<path d="M50.2766 171.455H48.7421C48.5771 171.455 48.4434 171.589 48.4434 171.754V192.416C48.4434 192.581 48.5771 192.715 48.7421 192.715H50.2766C50.4415 192.715 50.5753 192.581 50.5753 192.416V171.754C50.5753 171.589 50.4415 171.455 50.2766 171.455Z" fill="#B8C9FF"/>
</g>
<g style="mix-blend-mode:multiply">
<path d="M60.3 181.566H58.7655C58.6005 181.566 58.4668 181.7 58.4668 181.866V195.537C58.4668 195.703 58.6005 195.837 58.7655 195.837H60.3C60.465 195.837 60.5987 195.703 60.5987 195.537V181.866C60.5987 181.7 60.465 181.566 60.3 181.566Z" fill="#B8C9FF"/>
</g>
<g style="mix-blend-mode:multiply">
<path d="M38.2941 188.036H36.7597C36.5947 188.036 36.4609 188.17 36.4609 188.336V195.652C36.4609 195.817 36.5947 195.951 36.7597 195.951H38.2941C38.4591 195.951 38.5929 195.817 38.5929 195.652V188.336C38.5929 188.17 38.4591 188.036 38.2941 188.036Z" fill="#B8C9FF"/>
</g>
<g style="mix-blend-mode:multiply">
<path d="M38.2941 181.682H36.7597C36.5947 181.682 36.4609 181.816 36.4609 181.981V186.351C36.4609 186.516 36.5947 186.65 36.7597 186.65H38.2941C38.4591 186.65 38.5929 186.516 38.5929 186.351V181.981C38.5929 181.816 38.4591 181.682 38.2941 181.682Z" fill="#B8C9FF"/>
</g>
<g style="mix-blend-mode:multiply">
<path d="M50.2766 161.286H48.7421C48.5771 161.286 48.4434 161.42 48.4434 161.586V168.055C48.4434 168.22 48.5771 168.354 48.7421 168.354H50.2766C50.4415 168.354 50.5753 168.22 50.5753 168.055V161.586C50.5753 161.42 50.4415 161.286 50.2766 161.286Z" fill="#B8C9FF"/>
</g>
<path d="M348.725 281.141C348.242 280.17 347.725 278.32 347.85 275.66C347.987 274.665 348.158 273.41 348.349 271.973C348.444 271.258 348.543 270.497 348.646 269.702L343.896 270.977C343.977 271.835 344.054 272.639 344.123 273.374C344.272 274.94 344.224 276.521 343.945 278.069C343.86 278.535 343.765 278.936 343.661 279.147C343.283 279.914 340.556 282.565 339.31 284.853C339.194 285.13 336.376 285.577 336.799 286.225C337.054 286.367 341.969 286.753 342.518 286.223C343.068 285.692 344.376 284.369 345.839 284.073C345.929 284.089 345.93 286.466 345.93 286.466L348.057 286.475C348.057 286.475 348.304 284.365 348.398 283.729C348.492 283.092 349.216 282.123 348.727 281.141H348.725Z" fill="#FF8762"/>
<path d="M339.29 284.879C340.178 284.982 341.154 285.178 341.496 285.028C341.956 284.825 344.99 281.049 348.324 280.119C348.451 280.528 348.588 280.87 348.725 281.142C349.214 282.124 348.49 283.094 348.396 283.73C348.302 284.367 348.055 286.476 348.055 286.476L345.928 286.467C345.928 286.467 345.928 284.092 345.837 284.074C344.374 284.372 343.066 285.693 342.516 286.224C341.966 286.755 337.052 286.368 336.797 286.226C336.387 285.597 339.031 285.177 339.291 284.879H339.29Z" fill="#2B1710"/>
<path d="M326.067 281.141C325.584 280.17 325.067 278.32 325.192 275.66C325.328 274.665 325.5 273.41 325.69 271.973C325.786 271.258 325.885 270.497 325.988 269.702L321.238 270.977C321.319 271.835 321.396 272.639 321.465 273.374C321.614 274.94 321.565 276.521 321.286 278.069C321.202 278.535 321.107 278.936 321.003 279.147C320.625 279.914 317.898 282.565 316.652 284.853C316.536 285.13 313.718 285.577 314.141 286.225C314.396 286.367 319.311 286.753 319.86 286.223C320.41 285.692 321.718 284.369 323.18 284.073C323.271 284.089 323.272 286.466 323.272 286.466L325.399 286.475C325.399 286.475 325.646 284.365 325.74 283.729C325.834 283.092 326.558 282.123 326.068 281.141H326.067Z" fill="#FF8762"/>
<path d="M316.631 284.879C317.52 284.982 318.496 285.178 318.838 285.028C319.298 284.825 322.332 281.049 325.666 280.119C325.793 280.528 325.93 280.87 326.066 281.142C326.556 282.124 325.832 283.094 325.738 283.73C325.644 284.367 325.397 286.476 325.397 286.476L323.27 286.467C323.27 286.467 323.27 284.092 323.178 284.074C321.716 284.372 320.408 285.693 319.858 286.224C319.308 286.755 314.394 286.368 314.139 286.226C313.729 285.597 316.372 285.177 316.633 284.879H316.631Z" fill="#2B1710"/>
<g style="mix-blend-mode:multiply">
<path d="M319.418 276.789C319.357 276.789 319.308 276.739 319.307 276.678C319.307 276.616 319.355 276.565 319.417 276.565L328.856 276.448C328.919 276.446 328.968 276.497 328.968 276.559C328.968 276.621 328.92 276.672 328.858 276.672L319.419 276.789H319.418Z" fill="#BFBFBF"/>
</g>
<g style="mix-blend-mode:multiply">
<path d="M341.326 276.321C341.266 276.321 341.216 276.273 341.215 276.212C341.214 276.15 341.262 276.099 341.324 276.098L352.044 275.864C352.106 275.864 352.157 275.911 352.158 275.973C352.16 276.035 352.111 276.086 352.049 276.088L341.329 276.321C341.329 276.321 341.328 276.321 341.326 276.321Z" fill="#BFBFBF"/>
</g>
<path d="M342.868 175.357C348.539 180.435 352.522 194.517 351.712 198.037C350.902 201.557 342.464 201.355 337.806 198.308C333.148 195.261 342.87 175.357 342.87 175.357H342.868Z" fill="#F5EDFF"/>
<path d="M331.191 173.325C328.93 173.935 327.681 175.357 327.681 175.357C327.681 175.357 320.12 181.788 322.044 185.242C323.968 188.695 324.475 196.312 324.475 196.312L339.765 196.514C339.765 196.007 343.916 187.984 344.625 183.922C345.334 179.859 343.545 174.612 339.63 173.732C335.714 172.852 331.191 173.325 331.191 173.325Z" fill="#E9D5F5"/>
<path d="M339.696 196.345H324.17V199.053H339.696V196.345Z" fill="#2B1710"/>
<path d="M328.941 161.82C328.701 162.239 327.929 162.303 327.777 162.215C328.397 162.684 328.916 162.57 328.916 162.57L328.941 161.822V161.82Z" fill="#2B1710"/>
<path d="M328.794 158.432C327.983 161.275 329.368 168.689 329.874 169.162C330.379 169.636 331.512 169.243 331.47 169.507C331.697 170.787 332.136 172.953 331.19 173.325C333.552 175.492 339.054 174.917 339.628 173.732C337.232 171.363 336.32 166.691 336.32 164.491C336.32 162.29 333.552 157.687 328.793 158.432H328.794Z" fill="#FF8762"/>
<path d="M336.894 155.554C334.767 155.621 333.486 154.707 331.629 153.896C329.772 153.083 327.545 154.573 327.478 155.893C327.411 157.214 328.018 157.045 328.389 156.232C328.759 155.419 328.996 155.318 328.996 155.318C328.456 156.164 327.343 158.296 328.659 159.143C329.975 159.989 330.481 159.82 330.481 159.82C330.279 160.734 330.785 162.867 331.797 163.172C332.81 163.476 333.519 167.641 332.844 168.521C332.168 169.401 329.03 171.026 330.65 173.734C327.308 174.682 331.021 180.708 335.071 177.593C334.497 178.507 333.821 178.338 333.923 178.778C334.025 179.218 339.053 180.031 340.505 177.898C343.104 179.151 348.842 175.155 344.42 171.635C345.096 168.385 342.902 167.641 342.328 166.861C341.754 166.082 341.822 159.447 340.64 157.485C339.459 155.522 336.893 155.555 336.893 155.555L336.894 155.554Z" fill="#2B1710"/>
<path d="M333.961 165.056C334.075 164.35 333.598 163.686 332.894 163.571C332.191 163.457 331.528 163.936 331.414 164.641C331.3 165.347 331.777 166.011 332.481 166.126C333.184 166.24 333.847 165.761 333.961 165.056Z" fill="#FF8762"/>
<g style="mix-blend-mode:multiply">
<path d="M332.4 165.515C332.368 165.515 332.337 165.496 332.324 165.464C332.305 165.422 332.324 165.372 332.367 165.353C332.477 165.305 332.539 165.235 332.547 165.152C332.554 165.066 332.502 164.971 332.415 164.913C332.322 164.851 332.211 164.846 332.11 164.901C332.083 164.916 332.052 164.913 332.026 164.898C332 164.882 331.985 164.854 331.986 164.824C332 164.517 332.208 164.264 332.528 164.166C332.86 164.064 333.196 164.164 333.386 164.42C333.413 164.457 333.406 164.511 333.368 164.538C333.331 164.565 333.278 164.558 333.251 164.521C333.072 164.281 332.776 164.267 332.576 164.328C332.413 164.378 332.237 164.501 332.176 164.703C332.29 164.683 332.408 164.707 332.508 164.774C332.646 164.866 332.726 165.02 332.714 165.168C332.707 165.254 332.659 165.412 332.433 165.51C332.421 165.515 332.41 165.518 332.399 165.518L332.4 165.515Z" fill="#E0B3A8"/>
</g>
<g style="mix-blend-mode:multiply">
<path d="M331.562 169.573C331.522 169.573 331.484 169.548 331.47 169.507C331.453 169.456 331.48 169.401 331.531 169.382C332.191 169.154 332.351 168.181 332.427 166.348C332.429 166.294 332.473 166.252 332.527 166.255C332.581 166.257 332.623 166.302 332.62 166.355C332.539 168.318 332.364 169.299 331.593 169.566C331.583 169.57 331.572 169.571 331.561 169.571L331.562 169.573Z" fill="#E0B3A8"/>
</g>
<path d="M327.681 175.357C323.293 176.981 318.77 186.46 316.407 186.325C314.045 186.189 308.847 181.111 308.847 181.111L306.619 183.549C306.619 187.069 310.062 199.188 316.678 200.135C323.293 201.083 329.784 191.115 330.854 185.241C332.272 177.455 327.681 175.355 327.681 175.355V175.357Z" fill="#F5EDFF"/>
<g style="mix-blend-mode:multiply">
<path d="M316.043 188.69C315.995 188.69 315.954 188.654 315.946 188.606C315.902 188.261 316.042 187.67 316.155 187.193C316.197 187.016 316.246 186.806 316.264 186.689C316.088 186.802 315.684 187.188 315.684 187.4C315.684 187.453 315.64 187.497 315.587 187.497C315.534 187.497 315.49 187.453 315.49 187.4C315.49 187.14 315.82 186.799 316.015 186.639C316.251 186.444 316.334 186.461 316.365 186.466C316.391 186.471 316.425 186.496 316.44 186.517C316.489 186.596 316.466 186.724 316.344 187.238C316.241 187.673 316.099 188.27 316.14 188.58C316.147 188.633 316.109 188.681 316.055 188.689C316.052 188.689 316.047 188.689 316.043 188.689V188.69Z" fill="#D9D9D9"/>
</g>
<path d="M326.776 196.159H325.688V199.357H326.776V196.159Z" fill="#4B3BA1"/>
<path d="M334.844 196.226H333.756V199.424H334.844V196.226Z" fill="#4B3BA1"/>
<path d="M339.231 196.125H338.143V199.324H339.231V196.125Z" fill="#4B3BA1"/>
<path d="M308.846 181.112C308.855 180.57 308.957 177.143 308.855 176.736C308.753 176.33 306.678 173.156 306.424 172.928C306.171 172.699 304.071 171.328 303.994 171.328C303.437 171.759 303.639 172.368 304.12 172.979C304.601 173.588 305.31 174.299 305.335 174.426C305.36 174.552 305.588 175.314 305.436 175.339C305.284 175.364 304.018 176.761 303.69 177.244C303.362 177.726 303.285 178.615 303.639 179.453C303.994 180.291 306.618 183.549 306.618 183.549L308.845 181.111L308.846 181.112Z" fill="#FF8762"/>
<path d="M319.851 214.936C319.851 214.936 319.973 209.721 324.17 199.053L339.686 199.03C343.738 205.097 345.793 212.358 346.543 219.621L352.644 278.672H340.321C340.321 278.672 335.485 259.553 333.911 236.192C333.911 236.192 328.259 265.868 329.309 278.897H318.297C317.249 273.281 315.217 233.281 319.849 214.936H319.851Z" fill="#4B3BA1"/>
<g style="mix-blend-mode:multiply">
<path d="M334.55 234.316C334.611 234.316 334.664 234.271 334.672 234.209C334.687 234.094 336.231 222.69 337.878 217.098C339.585 211.302 339.782 210.147 336.717 203.359C336.688 203.297 336.616 203.269 336.554 203.298C336.492 203.325 336.465 203.399 336.492 203.461C339.521 210.168 339.327 211.307 337.643 217.028C335.989 222.639 334.444 234.062 334.429 234.176C334.42 234.244 334.467 234.306 334.534 234.316C334.54 234.316 334.545 234.316 334.55 234.316Z" fill="#D9D9D9"/>
</g>
<g style="mix-blend-mode:multiply">
<path d="M321.963 276.433H321.967C322.035 276.431 322.088 276.375 322.087 276.306C322.076 275.859 321.001 231.281 326.964 201.373C326.978 201.306 326.934 201.242 326.867 201.228C326.801 201.214 326.736 201.258 326.722 201.325C320.753 231.26 321.829 275.866 321.84 276.313C321.841 276.38 321.897 276.433 321.963 276.433Z" fill="#D9D9D9"/>
</g>
<g style="mix-blend-mode:multiply">
<path d="M325.078 207.864C325.132 207.864 325.181 207.829 325.196 207.774C325.215 207.708 325.176 207.64 325.112 207.621C324.471 207.437 323.062 205.518 324.186 200.96C324.202 200.894 324.162 200.827 324.095 200.81C324.03 200.794 323.963 200.834 323.947 200.901C322.801 205.544 324.221 207.624 325.044 207.86C325.055 207.864 325.066 207.865 325.077 207.865L325.078 207.864Z" fill="#D9D9D9"/>
</g>
<g style="mix-blend-mode:multiply">
<path d="M340.778 276.932L351.759 276.835C351.827 276.835 351.882 276.779 351.88 276.71C351.88 276.642 351.833 276.576 351.756 276.587L340.776 276.684C340.708 276.684 340.653 276.74 340.654 276.809C340.654 276.877 340.71 276.932 340.777 276.932H340.778Z" fill="#D9D9D9"/>
</g>
<g style="mix-blend-mode:multiply">
<path d="M328.738 276.98C328.805 276.98 328.861 276.925 328.861 276.858C328.861 276.79 328.806 276.734 328.739 276.734L318.867 276.637C318.8 276.637 318.744 276.692 318.744 276.759C318.744 276.827 318.799 276.883 318.866 276.883L328.738 276.98Z" fill="#D9D9D9"/>
</g>
</svg>
