<svg width="332" height="229" viewBox="0 0 332 229" fill="none" xmlns="http://www.w3.org/2000/svg">
<path d="M332 228.264H0V228.396H332V228.264Z" fill="#E7DBFE"/>
<path d="M250.793 212.774H227.951V212.907H250.793V212.774Z" fill="#E7DBFE"/>
<path d="M73.7712 212.841H60.8896V212.974H73.7712V212.841Z" fill="#E7DBFE"/>
<path d="M166.664 212.442H140.635V212.575H166.664V212.442Z" fill="#E7DBFE"/>
<path d="M139.905 210.118H128.285V210.251H139.905V210.118Z" fill="#E7DBFE"/>
<path d="M281.934 210.185H246.742V210.317H281.934V210.185Z" fill="#E7DBFE"/>
<path d="M268.455 228.262H260.222V158.741C260.222 156.483 262.081 154.624 264.338 154.624C266.596 154.624 268.455 156.483 268.455 158.741V228.262Z" fill="#D0D0A8"/>
<path d="M291.695 145.13C283.528 132.713 290.965 119.3 289.769 105.489C288.508 91.6777 275.361 88.6233 277.884 76.9369C280.739 63.3249 273.103 50.3105 264.405 50.3105C255.706 50.3105 248.004 63.3913 250.925 76.9369C253.382 88.6897 240.235 91.6777 239.04 105.489C237.778 119.3 245.281 132.713 237.114 145.13C228.947 157.547 231.072 174.014 235.72 182.181C236.981 184.439 238.509 186.431 240.102 188.157C253.183 202.3 275.825 202.3 288.906 188.157C290.566 186.364 292.027 184.372 293.289 182.181C297.737 174.08 299.862 157.613 291.695 145.13Z" fill="#ECECCF"/>
<path d="M212.412 228.263H201.19V158.743C201.19 155.622 203.714 153.099 206.834 153.099C209.955 153.099 212.478 155.622 212.478 158.743V228.263H212.412Z" fill="#D2D2AC"/>
<path d="M206.769 209.538C225.912 209.538 241.43 194.02 241.43 174.878C241.43 155.735 225.912 140.217 206.769 140.217C187.627 140.217 172.108 155.735 172.108 174.878C172.108 194.02 187.627 209.538 206.769 209.538Z" fill="#ECECD1"/>
<path d="M247.546 164.482C249.367 157.15 244.9 149.731 237.569 147.909C230.237 146.088 222.817 150.555 220.996 157.886C219.175 165.218 223.642 172.638 230.973 174.459C238.305 176.28 245.725 171.814 247.546 164.482Z" fill="#D2D2AC"/>
<path d="M186.785 154.372C187.504 149.957 184.508 145.794 180.092 145.074C175.676 144.355 171.513 147.351 170.794 151.767C170.074 156.183 173.071 160.346 177.487 161.065C181.902 161.785 186.065 158.788 186.785 154.372Z" fill="#ECECD1"/>
<path d="M187.579 154.559C190.696 154.559 193.223 152.033 193.223 148.915C193.223 145.798 190.696 143.271 187.579 143.271C184.461 143.271 181.935 145.798 181.935 148.915C181.935 152.033 184.461 154.559 187.579 154.559Z" fill="#ECECD1"/>
<path d="M135.454 186.764C129.677 187.627 124.697 189.685 120.381 192.541C120.315 187.295 119.385 182.315 116.928 178.265C113.144 181.917 110.156 186.697 107.632 191.744C106.703 182.182 104.18 172.886 98.602 166.977C90.2356 172.222 85.9196 180.987 83.9276 190.217C80.6076 184.307 76.026 178.796 69.6516 174.812C64.5388 180.19 62.9452 187.627 63.078 195.263C57.3012 188.49 50.8604 183.245 44.5524 182.647C42.9588 193.337 46.2788 203.43 50.462 211.398C55.9732 221.823 66.8628 228.264 78.682 228.264H105.972C117.592 228.264 128.482 222.089 133.927 211.797C137.38 205.289 139.04 196.923 135.454 186.764Z" fill="#ECECD3"/>
<path d="M97.7848 25.932C101.171 16.0384 98.4488 9 90.2152 9C85.036 9 78.6616 11.7888 72.42 16.304C71.6896 13.7144 69.6976 12.1872 66.5104 12.1872C60.8664 12.1872 53.164 16.968 47.0552 23.6744C45.5944 22.1472 43.4696 21.284 40.7472 21.0848C35.3688 20.7528 28.8616 23.5416 23.2176 27.9904C22.7528 27.26 21.8896 26.7952 20.6944 26.7288C17.5736 26.5296 13.3904 29.3184 11.332 32.904C11.1992 33.1032 11.0664 33.3688 11 33.568H17.4408H22.5536H40.3488H49.1136H55.9528H66.3776H68.3032H94.2656H99.3784C99.644 30.4472 99.1128 27.7912 97.7848 25.932Z" fill="#D9CFED"/>
<path d="M127.951 86.216C129.611 81.3688 128.283 77.9824 124.233 77.9824C121.709 77.9824 118.589 79.3104 115.534 81.5016C115.202 80.24 114.206 79.5096 112.679 79.5096C109.957 79.5096 106.172 81.8336 103.184 85.0872C102.453 84.3568 101.457 83.892 100.063 83.8256C97.4071 83.6928 94.2199 85.0208 91.4975 87.212C91.2319 86.88 90.8335 86.6144 90.3023 86.6144C88.7751 86.548 86.7167 87.876 85.7207 89.6024C85.6543 89.7352 85.5879 89.8016 85.5215 89.9344H88.6423H91.1655H99.8639H104.113H107.433H112.546H113.476H126.158H128.681C128.881 88.4072 128.615 87.1456 127.951 86.216Z" fill="#D9CFED"/>
<path d="M257.619 19.7619C257.287 19.6955 256.955 19.6955 256.623 19.6955C256.955 14.8483 255.096 11.7939 251.178 11.7939C248.323 11.7939 244.87 13.3875 241.284 16.1099C242.28 6.74748 239.027 0.705078 231.656 0.705078C225.747 0.705078 218.177 4.68908 210.74 11.1299C210.076 7.47788 207.885 5.28667 204.233 5.28667C197.792 5.28667 188.563 12.0595 181.259 21.6875C179.665 19.5627 177.275 18.2347 174.154 18.0355C167.979 17.5707 160.343 21.4883 153.57 27.8627C153.039 26.8003 152.109 26.1363 150.781 26.0035C147.395 25.7379 142.747 29.2571 140.091 33.9715H147.926H153.238H173.689H183.251H191.816H203.968H226.876H235.773H238.96H251.643H263.064C265.919 26.8003 263.595 20.5587 257.619 19.7619Z" fill="#D9CFED"/>
<path d="M32.4717 51.8193L183.797 73.5985L204.116 94.1161L32.4717 51.8193Z" fill="#462682"/>
<path opacity="0.6" d="M32.4717 51.8193L183.797 73.5985L204.116 94.1161L32.4717 51.8193Z" fill="white"/>
<path d="M32.4717 51.8193L183.797 73.5985L176.759 103.213L32.4717 51.8193Z" fill="#462682"/>
<path opacity="0.2" d="M32.4717 51.8193L183.797 73.5985L176.759 103.213L32.4717 51.8193Z" fill="black"/>
<path d="M173.705 17.4905L182.47 58.6585C182.935 60.9161 181.54 63.1073 179.283 63.5721L100.864 80.3049C98.6066 80.7697 96.4154 79.3753 95.9506 77.1177L87.1858 35.9497C86.9202 34.7545 87.1858 33.6257 87.8498 32.6961C88.4474 31.8993 89.3106 31.2353 90.373 31.0361L168.791 14.3033C169.854 14.1041 170.916 14.3033 171.779 14.8345C172.709 15.3657 173.439 16.2953 173.705 17.4905Z" fill="#462682"/>
<path opacity="0.4" d="M173.705 17.4905L182.47 58.6585C182.935 60.9161 181.54 63.1073 179.283 63.5721L100.864 80.3049C98.6066 80.7697 96.4154 79.3753 95.9506 77.1177L87.1858 35.9497C86.9202 34.7545 87.1858 33.6257 87.8498 32.6961C88.4474 31.8993 89.3106 31.2353 90.373 31.0361L168.791 14.3033C169.854 14.1041 170.916 14.3033 171.779 14.8345C172.709 15.3657 173.439 16.2953 173.705 17.4905Z" fill="black"/>
<path d="M171.779 14.7681L145.551 46.9057C140.571 53.0145 131.939 54.8737 124.901 51.2881L87.8496 32.6297C88.4472 31.8329 89.3104 31.1689 90.3728 30.9697L168.791 14.2369C169.854 14.0377 170.916 14.2369 171.779 14.7681Z" fill="#462682"/>
<path d="M32.4717 51.8193L157.304 81.4337L176.759 103.213L32.4717 51.8193Z" fill="#462682"/>
<path opacity="0.6" d="M32.4717 51.8193L157.304 81.4337L176.759 103.213L32.4717 51.8193Z" fill="white"/>
<path d="M78.0124 80.388L77.6768 80.9609L91.5409 89.0837L91.8766 88.5108L78.0124 80.388Z" fill="#462682"/>
<path d="M98.0134 92.1537L97.6777 92.7266L102.662 95.6467L102.998 95.0738L98.0134 92.1537Z" fill="#462682"/>
<path d="M32.4717 51.8184L157.304 81.4328L133.001 110.715L32.4717 51.8184Z" fill="#462682"/>
<path d="M199.468 121.341C199.335 121.341 199.136 121.341 199.003 121.274L178.618 113.173C177.954 112.908 177.622 112.111 177.888 111.447C178.153 110.783 178.95 110.451 179.614 110.717L199.932 118.751C200.596 119.017 200.928 119.813 200.663 120.477C200.464 121.009 199.999 121.341 199.468 121.341Z" fill="#462682"/>
<path opacity="0.3" d="M199.468 121.341C199.335 121.341 199.136 121.341 199.003 121.274L178.618 113.173C177.954 112.908 177.622 112.111 177.888 111.447C178.153 110.783 178.95 110.451 179.614 110.717L199.932 118.751C200.596 119.017 200.928 119.813 200.663 120.477C200.464 121.009 199.999 121.341 199.468 121.341Z" fill="black"/>
<path d="M198.272 109.654C198.139 109.654 197.94 109.654 197.807 109.587L186.851 105.271C186.187 105.006 185.855 104.209 186.121 103.545C186.387 102.881 187.183 102.549 187.847 102.814L198.803 107.13C199.467 107.396 199.799 108.193 199.534 108.857C199.268 109.322 198.803 109.654 198.272 109.654Z" fill="#462682"/>
<path opacity="0.5" d="M198.272 109.654C198.139 109.654 197.94 109.654 197.807 109.587L186.851 105.271C186.187 105.006 185.855 104.209 186.121 103.545C186.387 102.881 187.183 102.549 187.847 102.814L198.803 107.13C199.467 107.396 199.799 108.193 199.534 108.857C199.268 109.322 198.803 109.654 198.272 109.654Z" fill="white"/>
<path d="M175.431 121.141C175.298 121.141 175.099 121.141 174.966 121.075L155.112 113.173C154.448 112.908 154.116 112.111 154.382 111.447C154.647 110.783 155.444 110.451 156.108 110.717L175.962 118.552C176.626 118.817 176.958 119.614 176.692 120.278C176.427 120.809 175.962 121.141 175.431 121.141Z" fill="#462682"/>
<path opacity="0.3" d="M175.431 121.141C175.298 121.141 175.099 121.141 174.966 121.075L155.112 113.173C154.448 112.908 154.116 112.111 154.382 111.447C154.647 110.783 155.444 110.451 156.108 110.717L175.962 118.552C176.626 118.817 176.958 119.614 176.692 120.278C176.427 120.809 175.962 121.141 175.431 121.141Z" fill="black"/>
<path d="M247.206 61.252C248.933 64.7048 250.593 68.0912 252.12 71.6768C253.647 75.196 255.108 78.7816 256.303 82.5L256.768 83.8943C256.834 84.1599 256.967 84.5584 257.034 84.824C257.1 85.156 257.166 85.4216 257.166 85.7535C257.366 86.8824 257.366 87.9448 257.366 89.0072C257.366 91.0656 257.233 92.9912 257.1 94.9168C256.702 98.768 256.104 102.553 255.307 106.338L251.655 105.939C251.589 102.221 251.589 98.436 251.456 94.7176C251.39 92.8584 251.257 91.0656 251.124 89.3392C251.058 88.476 250.858 87.6128 250.726 86.9488C250.659 86.7496 250.659 86.6168 250.593 86.484C250.526 86.3512 250.526 86.2847 250.46 86.0856L249.929 84.824C248.534 81.4376 247.007 78.0512 245.414 74.7312L240.566 64.6383L247.206 61.252Z" fill="#E4897B"/>
<path d="M251.722 104.81L249.995 107.997L255.44 109.524C255.44 109.524 256.502 106.934 255.241 104.942L251.722 104.81Z" fill="#E4897B"/>
<path d="M247.938 112.579L252.984 112.977L255.507 109.524L250.062 107.997L247.938 112.579Z" fill="#E4897B"/>
<path d="M224.365 38.3441C224.299 38.7425 224.033 39.0081 223.768 38.9417C223.502 38.8753 223.369 38.5433 223.436 38.1449C223.502 37.7465 223.768 37.4809 224.033 37.5473C224.299 37.6137 224.432 37.9457 224.365 38.3441Z" fill="#2B2B2B"/>
<path d="M224.034 39.0078C224.034 39.0078 222.706 41.0662 221.511 41.9294C222.042 42.7262 223.304 42.6598 223.304 42.6598L224.034 39.0078Z" fill="#DE5753"/>
<path d="M226.224 36.4849C226.158 36.4849 226.092 36.4849 226.025 36.4185C225.361 35.6881 224.498 35.8209 224.498 35.8209C224.365 35.8209 224.232 35.7545 224.232 35.6217C224.232 35.4889 224.299 35.3561 224.432 35.3561C224.498 35.3561 225.56 35.1569 226.424 36.1529C226.49 36.2193 226.49 36.4185 226.424 36.4849C226.291 36.4185 226.224 36.4849 226.224 36.4849Z" fill="#2B2B2B"/>
<path d="M235.32 43.7217C234.59 47.3073 233.926 53.8145 236.449 56.2049C236.449 56.2049 235.453 59.8569 228.813 59.8569C221.509 59.8569 225.36 56.2049 225.36 56.2049C229.344 55.2753 229.212 52.2873 228.548 49.4985L235.32 43.7217Z" fill="#E4897B"/>
<path d="M237.446 58.4631C237.977 56.7367 238.575 54.7447 237.379 54.0807C236.051 53.4167 228.814 52.6863 226.357 54.0143C223.9 55.2759 224.564 58.8615 224.564 58.8615L237.446 58.4631Z" fill="#2B2B2B"/>
<path d="M252.718 224.065C252.187 224.065 251.722 223.998 251.523 223.733C251.457 223.6 251.39 223.467 251.523 223.201C251.589 223.069 251.722 223.002 251.855 222.936C252.585 222.803 253.913 223.666 253.98 223.733C254.046 223.733 254.046 223.799 254.046 223.865C254.046 223.932 253.98 223.932 253.98 223.932C253.781 223.998 253.249 224.065 252.718 224.065ZM252.121 223.135C252.054 223.135 252.054 223.135 251.988 223.135C251.921 223.135 251.789 223.201 251.789 223.268C251.656 223.467 251.722 223.533 251.789 223.533C251.988 223.799 252.984 223.799 253.714 223.666C253.249 223.533 252.585 223.135 252.121 223.135Z" fill="#BB0070"/>
<path d="M253.979 223.931C253.447 223.666 252.451 222.603 252.518 222.006C252.518 221.939 252.584 221.74 252.916 221.674C253.115 221.674 253.248 221.674 253.381 221.807C253.979 222.271 254.045 223.666 254.045 223.732C254.111 223.865 254.111 223.931 253.979 223.931C254.045 223.931 254.045 223.931 253.979 223.931ZM252.983 221.939C252.783 221.939 252.783 222.006 252.783 222.072C252.717 222.404 253.315 223.201 253.846 223.599C253.779 223.201 253.647 222.338 253.248 222.072C253.182 222.006 253.115 221.939 252.983 221.939Z" fill="#BB0070"/>
<path d="M223.436 224.064C222.838 224.064 222.174 223.998 221.975 223.666C221.909 223.599 221.842 223.4 221.975 223.134C222.042 223.002 222.174 222.935 222.374 222.869C223.17 222.67 224.897 223.599 224.963 223.666C225.03 223.666 225.03 223.732 225.03 223.798C225.03 223.865 224.963 223.865 224.963 223.865C224.631 223.998 224.034 224.064 223.436 224.064ZM222.706 223.134C222.639 223.134 222.573 223.134 222.506 223.134C222.374 223.134 222.307 223.201 222.307 223.267C222.241 223.4 222.241 223.466 222.307 223.533C222.506 223.865 223.768 223.865 224.698 223.732C224.1 223.533 223.237 223.134 222.706 223.134Z" fill="#BB0070"/>
<path d="M224.896 223.932C224.232 223.667 223.103 222.604 223.17 222.073C223.17 221.94 223.303 221.808 223.568 221.741C223.834 221.741 224.033 221.808 224.232 221.94C224.83 222.472 224.963 223.733 224.963 223.8C224.963 223.866 224.963 223.866 224.896 223.932C224.963 223.932 224.963 223.932 224.896 223.932ZM223.767 221.94H223.701C223.502 221.94 223.502 222.073 223.502 222.073C223.435 222.405 224.232 223.202 224.83 223.6C224.763 223.202 224.564 222.405 224.166 222.073C224.033 222.007 223.9 221.94 223.767 221.94Z" fill="#BB0070"/>
<path d="M230.275 223.799H225.428L224.896 212.511H229.81L230.275 223.799Z" fill="#E4897B"/>
<path d="M259.557 223.799H254.71L252.253 212.511H257.1L259.557 223.799Z" fill="#E4897B"/>
<path d="M254.378 223.268H259.889C260.088 223.268 260.287 223.4 260.287 223.6L261.283 227.916C261.416 228.38 261.018 228.779 260.553 228.779C258.627 228.779 257.698 228.646 255.307 228.646C253.847 228.646 250.792 228.779 248.734 228.779C246.742 228.779 246.41 226.787 247.273 226.588C251.058 225.791 252.452 224.662 253.647 223.533C253.78 223.4 254.046 223.268 254.378 223.268Z" fill="#2B2B2B"/>
<path d="M225.428 223.268H230.74C230.939 223.268 231.139 223.4 231.139 223.6L232.135 227.916C232.267 228.38 231.869 228.779 231.404 228.779C229.479 228.779 226.69 228.646 224.299 228.646C221.444 228.646 219.054 228.779 215.734 228.779C213.742 228.779 213.144 226.787 214.007 226.588C217.792 225.724 220.913 225.658 224.233 223.6C224.631 223.4 225.03 223.268 225.428 223.268Z" fill="#2B2B2B"/>
<path d="M223.103 64.7702C218.987 64.4382 215.003 63.907 210.952 63.1766C208.96 62.7782 206.902 62.3798 204.91 61.7822C202.918 61.251 200.859 60.6534 198.801 59.7902C198.27 59.591 197.805 59.3254 197.274 59.1262C196.61 58.7942 196.079 58.4622 195.614 58.1302C194.684 57.4662 193.821 56.8686 193.024 56.2046C191.431 54.8766 189.903 53.5486 188.376 52.1542C185.388 49.4318 182.599 46.5766 179.877 43.5886L182.334 40.8662L191.962 47.7718C193.555 48.9006 195.149 50.0294 196.743 51.0918C197.539 51.623 198.336 52.0878 199.067 52.5526C199.465 52.7518 199.797 52.951 199.996 53.0174C200.395 53.1502 200.793 53.3494 201.191 53.4822C204.578 54.611 208.363 55.3414 212.147 55.939C215.932 56.5366 219.85 57.0014 223.635 57.3998L223.103 64.7702Z" fill="#E4897B"/>
<path d="M245.149 57.3337C249.73 58.3961 254.312 71.7425 254.312 71.7425L244.883 78.5153C244.883 78.5153 242.227 72.2737 239.638 66.8289C237.048 61.1185 240.501 56.2713 245.149 57.3337Z" fill="#BB0070"/>
<path opacity="0.4" d="M245.149 57.3337C249.73 58.3961 254.312 71.7425 254.312 71.7425L244.883 78.5153C244.883 78.5153 242.227 72.2737 239.638 66.8289C237.048 61.1185 240.501 56.2713 245.149 57.3337Z" fill="black"/>
<path d="M242.493 64.6377L240.634 68.8209C242.559 73.0041 244.352 77.1209 244.817 78.2497C244.751 73.2697 243.821 67.1609 242.493 64.6377Z" fill="#BB0070"/>
<path opacity="0.6" d="M242.493 64.6377L240.634 68.8209C242.559 73.0041 244.352 77.1209 244.817 78.2497C244.751 73.2697 243.821 67.1609 242.493 64.6377Z" fill="black"/>
<path d="M217.858 57.5995C217.858 57.5995 212.679 63.4427 217.593 99.7635C225.428 99.7635 239.837 99.7635 243.688 99.7635C243.887 95.7795 241.364 76.1915 245.215 57.3339C245.215 57.3339 240.766 56.4043 236.45 56.2051C233.13 56.0723 228.283 55.9395 225.361 56.2051C221.444 56.6035 217.858 57.5995 217.858 57.5995Z" fill="#BB0070"/>
<path opacity="0.4" d="M217.858 57.5995C217.858 57.5995 212.679 63.4427 217.593 99.7635C225.428 99.7635 239.837 99.7635 243.688 99.7635C243.887 95.7795 241.364 76.1915 245.215 57.3339C245.215 57.3339 240.766 56.4043 236.45 56.2051C233.13 56.0723 228.283 55.9395 225.361 56.2051C221.444 56.6035 217.858 57.5995 217.858 57.5995Z" fill="black"/>
<path d="M215.933 64.6377C215.733 66.0321 215.601 67.6257 215.534 69.5513C217.659 68.8873 220.381 67.8249 222.772 66.1649L215.933 64.6377Z" fill="#BB0070"/>
<path opacity="0.6" d="M215.933 64.6377C215.733 66.0321 215.601 67.6257 215.534 69.5513C217.659 68.8873 220.381 67.8249 222.772 66.1649L215.933 64.6377Z" fill="black"/>
<path d="M227.087 65.3682C223.568 68.489 210.288 68.157 210.288 68.157L209.823 55.2754C209.823 55.2754 217.393 56.4042 223.435 56.2714C230.872 56.0722 230.872 61.9818 227.087 65.3682Z" fill="#BB0070"/>
<path opacity="0.4" d="M227.087 65.3682C223.568 68.489 210.288 68.157 210.288 68.157L209.823 55.2754C209.823 55.2754 217.393 56.4042 223.435 56.2714C230.872 56.0722 230.872 61.9818 227.087 65.3682Z" fill="black"/>
<path d="M182.467 40.9322L179.147 37.0146L175.562 40.9986C175.562 40.9986 177.753 44.717 181.272 44.1194L182.467 40.9322Z" fill="#E4897B"/>
<path d="M174.366 32.5L173.104 37.6128L175.495 40.9992L179.08 37.0816L174.366 32.5Z" fill="#E4897B"/>
<path d="M224.963 212.511L225.162 218.354H230.076L229.81 212.511H224.963Z" fill="#CE6F64"/>
<path d="M257.1 212.511H252.253L253.515 218.354H258.428L257.1 212.511Z" fill="#CE6F64"/>
<path d="M227.885 33.4964C223.503 31.5044 222.108 22.6732 234.724 24.8644C234.724 24.8644 232.799 26.9892 236.65 28.3172C240.501 29.5788 237.314 37.8124 227.885 33.4964Z" fill="#2B2B2B"/>
<path d="M237.38 40.1365C236.118 44.7845 235.653 47.6397 232.732 49.5653C228.416 52.4869 222.971 49.1005 222.838 44.1869C222.705 39.7381 224.764 32.8325 229.81 31.9029C234.724 30.9069 238.641 35.4221 237.38 40.1365Z" fill="#E4897B"/>
<path d="M234.525 27.1883C237.513 28.8483 241.563 29.8443 241.165 32.2347C240.7 35.0899 243.621 33.2971 242.891 37.6131C242.426 40.4019 237.247 48.9011 233.595 48.5027C228.084 47.9051 228.814 39.4723 228.814 35.0899C228.814 32.5003 228.681 23.9347 234.525 27.1883Z" fill="#2B2B2B"/>
<path d="M228.15 30.9072C226.822 31.2392 225.03 38.8752 230.209 39.6056C236.118 40.4024 228.15 30.9072 228.15 30.9072Z" fill="#2B2B2B"/>
<path d="M228.283 33.6294C226.623 33.7622 222.971 31.8366 223.436 28.8486C223.436 28.8486 225.76 32.3014 228.283 33.6294Z" fill="#2B2B2B"/>
<path d="M230.673 40.2023C230.142 41.3311 229.212 42.2607 228.283 42.7919C226.888 43.5223 226.092 42.4599 226.424 41.0655C226.689 39.8039 227.752 37.8783 229.212 37.7455C230.673 37.5463 231.271 38.8743 230.673 40.2023Z" fill="#E4897B"/>
<path d="M237.978 34.7583C238.974 34.2271 241.231 33.0983 241.829 29.9111C241.829 29.9111 244.02 36.0199 237.978 34.7583Z" fill="#2B2B2B"/>
<path d="M243.554 34.7588C243.09 34.4932 241.961 33.8292 240.367 34.4268C240.367 34.4268 242.426 31.7708 243.554 34.7588Z" fill="#2B2B2B"/>
<path d="M226.823 99.7637C226.823 99.7637 232.334 137.014 235.389 151.024C238.709 166.296 251.258 217.292 251.258 217.292H260.222C260.222 217.292 251.922 167.558 250.063 152.419C248.005 135.952 243.689 99.7637 243.689 99.7637H226.823Z" fill="#BB0070"/>
<path opacity="0.5" d="M226.823 99.7637C226.823 99.7637 232.334 137.014 235.389 151.024C238.709 166.296 251.258 217.292 251.258 217.292H260.222C260.222 217.292 251.922 167.558 250.063 152.419C248.005 135.952 243.689 99.7637 243.689 99.7637H226.823Z" fill="white"/>
<path d="M249.797 213.972C249.731 213.972 250.727 217.424 250.727 217.424H260.753L260.554 214.37L249.797 213.972Z" fill="#BB0070"/>
<path opacity="0.1" d="M249.797 213.972C249.731 213.972 250.727 217.424 250.727 217.424H260.753L260.554 214.37L249.797 213.972Z" fill="black"/>
<path d="M230.275 113.043C236.65 114.304 235.986 138.142 235.255 150.426C233.396 141.728 230.74 125.061 228.881 113.176C229.279 112.976 229.744 112.91 230.275 113.043Z" fill="#BB0070"/>
<path opacity="0.4" d="M230.275 113.043C236.65 114.304 235.986 138.142 235.255 150.426C233.396 141.728 230.74 125.061 228.881 113.176C229.279 112.976 229.744 112.91 230.275 113.043Z" fill="white"/>
<path d="M217.526 99.7637C217.526 99.7637 216.862 136.217 217.393 151.091C217.925 166.562 223.369 217.225 223.369 217.225H231.603C231.603 217.225 231.935 167.492 232.267 152.286C232.665 135.752 234.657 99.7637 234.657 99.7637H217.526Z" fill="#BB0070"/>
<path opacity="0.5" d="M217.526 99.7637C217.526 99.7637 216.862 136.217 217.393 151.091C217.925 166.562 223.369 217.225 223.369 217.225H231.603C231.603 217.225 231.935 167.492 232.267 152.286C232.665 135.752 234.657 99.7637 234.657 99.7637H217.526Z" fill="white"/>
<path d="M225.097 211.316C225.03 211.316 225.03 211.316 225.03 211.25C223.569 197.239 220.117 163.309 219.718 151.158C219.253 138.741 219.652 110.853 219.785 102.619C219.785 102.553 219.851 102.553 219.851 102.553C219.917 102.553 219.917 102.619 219.917 102.619C219.785 110.853 219.386 138.741 219.851 151.158C220.316 163.309 223.702 197.239 225.163 211.25C225.163 211.25 225.163 211.316 225.097 211.316Z" fill="#BB0070"/>
<path opacity="0.4" d="M225.097 211.316C225.03 211.316 225.03 211.316 225.03 211.25C223.569 197.239 220.117 163.309 219.718 151.158C219.253 138.741 219.652 110.853 219.785 102.619C219.785 102.553 219.851 102.553 219.851 102.553C219.917 102.553 219.917 102.619 219.917 102.619C219.785 110.853 219.386 138.741 219.851 151.158C220.316 163.309 223.702 197.239 225.163 211.25C225.163 211.25 225.163 211.316 225.097 211.316Z" fill="white"/>
<path d="M221.775 213.972C221.709 213.972 222.24 217.424 222.24 217.424H232.266L232.532 214.37L221.775 213.972Z" fill="#BB0070"/>
<path opacity="0.1" d="M221.775 213.972C221.709 213.972 222.24 217.424 222.24 217.424H232.266L232.532 214.37L221.775 213.972Z" fill="black"/>
</svg>
