<svg width="228" height="155" viewBox="0 0 228 155" fill="none" xmlns="http://www.w3.org/2000/svg">
<path d="M33.8628 66.4355L19.5625 107.623L80.6505 128.833L94.9509 87.6452L33.8628 66.4355Z" fill="#CAD292"/>
<path d="M94.9336 87.6616C94.9336 87.6616 94.6956 87.8202 94.1798 88.0186C93.6244 88.2566 92.8707 88.5343 91.9583 88.931C89.9747 89.7245 87.158 90.7956 83.7463 92.1444C76.7245 94.842 67.1638 98.4918 56.5319 102.538L56.2939 102.618L56.1749 102.419C56.0955 102.261 55.9765 102.102 55.8575 101.943C49.7481 92.1841 44.2339 83.3771 40.1874 76.9107C38.2435 73.737 36.617 71.1584 35.5062 69.2938C34.9905 68.4211 34.5541 67.7466 34.2367 67.1912C33.959 66.7152 33.8003 66.4375 33.84 66.4375C33.84 66.4375 34.0384 66.6755 34.3557 67.1119C34.7128 67.6276 35.1492 68.302 35.7046 69.1351C36.8947 70.96 38.5212 73.499 40.5444 76.633C44.6306 83.0597 50.2242 91.8667 56.3732 101.546C56.4922 101.705 56.5716 101.864 56.6906 102.023L56.3336 101.904C66.9654 97.8967 76.5658 94.2866 83.5876 91.6684C87.039 90.3989 89.8557 89.3674 91.8392 88.6137C92.7913 88.2963 93.5451 88.0186 94.1005 87.8202C94.6559 87.7409 94.9336 87.6616 94.9336 87.6616Z" fill="#A0A678"/>
<path d="M19.5574 107.656C19.478 107.498 26.0238 103.451 34.196 98.6112C42.3683 93.7713 49.033 89.9232 49.1124 90.0819C49.1917 90.2406 42.646 94.287 34.4737 99.1269C26.3411 103.967 19.6367 107.775 19.5574 107.656Z" fill="#A0A678"/>
<path d="M69.6209 96.5881C69.7796 96.5484 72.3582 103.729 75.4129 112.615C78.4676 121.541 80.8082 128.801 80.6495 128.841C80.4908 128.88 77.9122 121.7 74.8575 112.814C71.8028 103.927 69.4622 96.6277 69.6209 96.5881Z" fill="#A0A678"/>
<path d="M214.105 55.761L153.678 66.0029L160.585 106.757L221.013 96.5155L214.105 55.761Z" fill="#D3C0F4"/>
<path d="M214.107 55.7666C214.107 55.7666 213.948 56.0046 213.631 56.4013C213.274 56.8377 212.798 57.4328 212.202 58.1469C210.893 59.694 209.068 61.876 206.847 64.5736C202.245 70.0085 195.937 77.427 188.995 85.639L188.836 85.7977L188.638 85.6787C188.479 85.5993 188.32 85.52 188.162 85.4009C178.641 80.085 170.032 75.2848 163.724 71.7541C160.63 70.0085 158.131 68.5804 156.345 67.5489C155.512 67.0729 154.838 66.6762 154.362 66.3985C153.926 66.1208 153.688 65.9621 153.688 65.9621C153.688 65.9621 153.965 66.0811 154.402 66.3191C154.917 66.5968 155.592 66.9539 156.425 67.3902C158.25 68.382 160.789 69.7308 163.883 71.4367C170.191 74.9278 178.839 79.6883 188.4 84.9249C188.558 85.0042 188.717 85.1233 188.876 85.2026L188.519 85.2819C195.541 77.1097 201.888 69.7308 206.49 64.3356C208.791 61.7173 210.655 59.575 211.964 58.0279C212.599 57.3138 213.115 56.7584 213.472 56.322C213.908 55.965 214.107 55.7666 214.107 55.7666Z" fill="#AF90E6"/>
<path d="M160.552 106.745C160.433 106.665 164.003 100.318 168.605 92.5425C173.167 84.767 176.976 78.5386 177.134 78.6179C177.253 78.6973 173.683 85.0447 169.081 92.8202C164.519 100.596 160.71 106.824 160.552 106.745Z" fill="#AF90E6"/>
<path d="M197.127 74.7297C197.246 74.6107 202.641 79.4109 209.266 85.4012C215.852 91.4313 221.128 96.3901 221.009 96.5092C220.89 96.6282 215.495 91.828 208.87 85.8376C202.284 79.8076 197.008 74.8487 197.127 74.7297Z" fill="#AF90E6"/>
<path d="M227.395 153.713C227.395 153.752 176.497 153.832 113.698 153.832C50.8981 153.832 0 153.792 0 153.713C0 153.673 50.8981 153.594 113.698 153.594C176.497 153.594 227.395 153.633 227.395 153.713Z" fill="#263238"/>
<path d="M11.2249 45.5708L16.8979 43.5476L14.478 40.2946C14.4383 40.0962 14.3193 39.3425 14.3193 38.1127C14.3193 37.7556 14.3986 37.3589 14.5176 37.0019C14.6763 36.5655 14.8747 36.0101 15.1127 35.7324C15.3904 35.415 15.1127 34.8993 14.716 35.0183C14.3193 35.1373 13.5655 36.0101 13.2482 37.3589C12.8911 38.7077 11.9787 36.7242 11.6613 36.0101C11.3043 35.296 10.1538 33.1538 9.83644 33.0744C9.40006 32.9951 9.2017 33.4315 9.55874 34.1455C9.91578 34.8596 10.8679 37.0415 10.4712 37.2002C10.0745 37.3589 8.36861 33.7092 8.36861 33.7092C8.36861 33.7092 8.13058 32.8761 7.6942 33.0347C6.86111 33.3521 9.00335 37.1209 9.2017 37.4382C9.36039 37.6763 8.924 37.8746 8.80499 37.5969C8.64631 37.3192 7.17847 33.9075 6.34538 34.2249C5.71064 34.4629 8.05124 37.3192 7.9719 38.192C7.89255 39.0648 6.42472 35.8514 5.82965 36.0894C5.59163 36.1688 5.43294 36.2878 6.58341 38.0333C6.98012 38.6284 7.65453 39.4615 8.36861 40.3739L11.2249 45.5708Z" fill="#FFBE9D"/>
<path d="M62.2814 52.4738C62.2814 52.4738 59.4647 45.928 57.5605 42.7543C55.7356 39.779 53.3157 39.2633 52.0462 39.1839C51.0941 38.9062 50.4197 38.8666 50.4197 38.8666L39.9069 38.7872C39.9069 38.7872 36.6538 38.6285 33.6388 41.0882C33.1628 41.4849 29.513 45.69 24.7128 51.6804L16.2628 42.556L11.2246 45.5313C11.2246 45.5313 16.6992 64.3751 23.5227 63.066C27.5691 62.3122 30.7428 59.4559 30.7428 59.4559L36.0588 55.1714L36.1778 55.8855C36.2968 56.7583 36.5745 58.1468 36.7728 59.0195C37.4076 61.7172 37.7646 65.2479 36.3761 67.5885C36.3761 67.5885 34.4719 69.0563 35.9794 70.6432H55.7356C55.7356 70.6432 58.5523 68.739 55.9737 66.6364L54.3868 62.6296L55.4183 57.75L55.815 55.8062L57.5605 58.7815C57.5605 58.7815 61.0119 63.1056 64.5823 62.5899C68.9065 61.9552 71.3661 54.1003 67.4783 43.7461L62.7971 45.1743L62.2814 52.4738Z" fill="#462682"/>
<g opacity="0.4">
<path d="M11.2246 45.571L11.7403 47.1182L17.2943 43.7065L16.2628 42.5957L11.2246 45.571Z" fill="black"/>
</g>
<g opacity="0.2">
<path d="M36.4158 67.6287C38.1216 67.3907 39.5498 66.4386 40.5812 65.0501C41.6127 63.6616 42.0491 61.8764 41.7714 60.2102C41.692 59.6151 41.454 58.9804 40.9383 58.663C40.3035 58.2663 39.4704 58.4647 38.796 58.1076C38.2803 57.8299 38.0026 57.2349 37.6059 56.7588C37.2489 56.2827 36.7331 55.529 36.1777 55.767C36.1777 55.767 36.8521 59.2581 37.1298 60.8053C37.4075 62.3524 37.5266 64.574 36.9712 66.2402C36.8521 66.7956 36.6538 67.232 36.4158 67.6287Z" fill="black"/>
</g>
<path d="M23.8799 54.895C23.8006 54.895 23.9196 54.1413 24.1576 53.2685C24.3957 52.3957 24.594 51.6816 24.6734 51.6816C24.7527 51.6816 24.6337 52.4354 24.3957 53.3082C24.118 54.2206 23.9593 54.9347 23.8799 54.895Z" fill="#263238"/>
<path d="M25.1525 54.0222C25.1129 54.0222 24.9542 53.5065 24.7955 52.8718C24.6765 52.237 24.5971 51.6816 24.6765 51.6816C24.7161 51.6816 24.8748 52.1974 25.0335 52.8321C25.1525 53.5065 25.1922 54.0222 25.1525 54.0222Z" fill="#263238"/>
<path d="M62.8367 30.9316L55.6562 42.595L61.3292 44.1421L67.5973 34.502L62.8367 30.9316Z" fill="#455A64"/>
<path d="M62.4008 40.8507L62.6388 42.5565L63.6306 43.826L63.7496 44.8971L67.3597 43.7863L65.8918 38.6291C65.8918 38.6291 66.1299 37.1216 66.0505 36.5265L65.0587 37.8356L64.781 35.6934L62.7578 34.0669C62.5198 33.9082 62.2421 33.9479 62.0834 34.1859C61.9247 34.3843 61.9644 34.662 62.1231 34.8206L63.7496 36.2488L63.8686 38.034L62.6785 36.9232C62.5594 36.8042 62.4008 36.7249 62.2817 36.7249L60.6552 36.4075C60.4172 36.3678 60.1792 36.5265 60.1395 36.7645C60.0998 36.9629 60.2585 37.1612 60.4569 37.2009L61.9644 37.677L63.4719 39.1845L62.0041 38.6291L60.0205 38.9068C59.8221 38.9464 59.7031 39.1051 59.7031 39.3035C59.7031 39.5415 59.9015 39.7002 60.0998 39.7002L61.3693 39.6209L62.1231 39.8589L60.4172 40.2953C60.2585 40.3349 60.1395 40.4936 60.1395 40.6523C60.1395 40.8507 60.3379 41.0093 60.4965 40.9697L62.4008 40.8507Z" fill="#FFBE9D"/>
<g opacity="0.4">
<path d="M62.8774 45.1743L62.7188 47.0785L68.1934 45.571L67.5586 43.7461L62.8774 45.1743Z" fill="black"/>
</g>
<path d="M55.6555 42.5962C55.6555 42.5962 55.1795 41.9218 55.2191 41.8424C55.2588 41.7234 62.0426 30.5361 62.0426 30.5361L62.836 30.9725L55.6555 42.5962Z" fill="#263238"/>
<path d="M64.6628 33.8688C64.7818 33.7498 65.0198 33.8292 65.0595 33.9878C65.0992 34.1465 64.9405 34.3449 64.7818 34.3052C64.6231 34.2655 64.5438 34.0275 64.6628 33.8688Z" fill="#263238"/>
<path d="M60.1403 48.229C60.1403 48.229 60.1006 48.3481 59.9419 48.5067C59.7832 48.6654 59.5055 48.8638 59.0692 48.9828C58.6328 49.1018 58.0774 49.1018 57.4823 48.9828C56.8872 48.9035 56.1732 48.7051 55.4591 48.9034C54.7053 49.0621 54.0309 49.5382 53.3168 50.0936C52.6028 50.649 51.849 51.3234 50.8572 51.6408C50.3415 51.7994 49.8258 51.8391 49.2704 51.7598C48.715 51.6804 48.1993 51.5217 47.6835 51.3234C46.6521 50.9267 45.6603 50.3316 44.5495 49.9349C43.9941 49.7365 43.4387 49.6175 42.8833 49.5779C42.3279 49.5382 41.7725 49.6175 41.2171 49.7365C40.146 49.9746 39.1542 50.3316 38.1228 50.53C36.0996 50.9664 34.1954 50.53 32.8069 49.8159C31.4184 49.1018 30.5456 48.1497 30.0299 47.4356C29.5142 46.7215 29.3555 46.2852 29.3555 46.2852C29.3951 46.2852 29.5538 46.7215 30.0696 47.3959C30.5853 48.0704 31.458 48.9828 32.8465 49.6969C34.1953 50.3713 36.0599 50.8077 38.0435 50.3713C39.0352 50.1729 40.027 49.7762 41.1378 49.5382C41.6932 49.4192 42.2486 49.3398 42.8437 49.3795C43.4387 49.4192 43.9941 49.5779 44.5495 49.7762C45.6603 50.1729 46.6521 50.768 47.6835 51.1647C48.1993 51.3631 48.715 51.5217 49.2307 51.6011C49.7464 51.6804 50.2622 51.6408 50.7382 51.4821C51.6903 51.2044 52.4441 50.53 53.1582 50.0142C53.8722 49.4588 54.5863 48.9828 55.3797 48.8241C56.1732 48.6654 56.8872 48.8638 57.4823 48.9431C58.0774 49.0621 58.5931 49.0621 59.0295 48.9828C59.4659 48.9035 59.7436 48.7051 59.9023 48.5861C60.1006 48.3084 60.1403 48.229 60.1403 48.229Z" fill="#FAFAFA"/>
<path d="M62.4036 55.7671C62.364 55.7671 62.2846 54.9736 62.2449 54.0215C62.2053 53.0298 62.2449 52.276 62.2846 52.2363C62.3243 52.2363 62.4036 53.0297 62.4433 53.9819C62.483 54.9736 62.4433 55.7671 62.4036 55.7671Z" fill="#263238"/>
<path d="M50.0254 128.722C50.1841 129.396 54.2305 152.088 54.2305 152.088L60.4192 151.612L59.2688 128.444L50.0254 128.722Z" fill="#FFBE9D"/>
<path d="M60.6173 152.007V151.372L53.9922 151.491L54.0319 153.633H54.4286C56.2534 153.713 63.6719 153.832 64.8621 153.435C66.2506 153.078 60.6173 152.007 60.6173 152.007Z" fill="#462682"/>
<g opacity="0.3">
<path d="M56.4121 153.556C56.2931 153.04 55.9757 152.564 55.5394 152.286C55.103 151.969 54.5476 151.81 53.9922 151.889L54.0319 153.595L56.4121 153.556Z" fill="black"/>
</g>
<g opacity="0.3">
<path d="M63.395 152.604C63.395 152.604 65.3785 153.08 65.1405 153.397C64.9025 153.714 57.4046 153.833 54.0723 153.635V153.516L62.8396 153.437C62.7999 153.397 62.9983 152.643 63.395 152.604Z" fill="black"/>
</g>
<path d="M53.9531 153.477C53.9531 153.477 53.9928 153.477 54.0721 153.477C54.1515 153.477 54.2705 153.477 54.3895 153.477C54.7069 153.477 55.1036 153.477 55.5796 153.516C56.5714 153.516 57.9996 153.516 59.5468 153.516C61.0939 153.477 62.4824 153.437 63.4742 153.397C63.9503 153.358 64.347 153.358 64.6643 153.318C64.7833 153.318 64.9024 153.318 64.9817 153.278C65.061 153.278 65.1007 153.278 65.1007 153.278C65.1007 153.278 65.061 153.278 64.9817 153.278C64.9024 153.278 64.7833 153.278 64.6643 153.278C64.347 153.278 63.9503 153.318 63.4742 153.318C62.4824 153.358 61.0543 153.397 59.5468 153.437C57.9996 153.477 56.6111 153.477 55.6193 153.477C55.1433 153.477 54.7466 153.477 54.4292 153.477C54.3102 153.477 54.1912 153.477 54.1118 153.477C53.9928 153.477 53.9531 153.477 53.9531 153.477Z" fill="#263238"/>
<path d="M62.8013 153.518C62.841 153.518 62.841 153.24 62.9996 153.002C63.1583 152.724 63.3963 152.605 63.3963 152.565C63.3963 152.565 63.1187 152.684 62.9203 152.962C62.7616 153.24 62.8013 153.518 62.8013 153.518Z" fill="#263238"/>
<path d="M60.8574 152.605C60.8574 152.605 60.9764 152.525 61.0558 152.367C61.1351 152.208 61.2145 152.089 61.1748 152.089C61.1748 152.089 61.0558 152.168 60.9764 152.327C60.8971 152.486 60.8574 152.605 60.8574 152.605Z" fill="#263238"/>
<path d="M60.2988 152.365C60.2988 152.365 60.4178 152.325 60.5369 152.206C60.6559 152.127 60.7352 152.008 60.6955 152.008C60.6955 152.008 60.5765 152.047 60.4575 152.167C60.3782 152.246 60.2988 152.365 60.2988 152.365Z" fill="#263238"/>
<path d="M59.9824 151.81C59.9824 151.85 60.1411 151.85 60.3395 151.85C60.5378 151.85 60.6965 151.85 60.6965 151.81C60.6965 151.77 60.5378 151.771 60.3395 151.771C60.1014 151.771 59.9824 151.77 59.9824 151.81Z" fill="#263238"/>
<path d="M59.8262 151.416C59.8262 151.416 59.9849 151.495 60.2229 151.495C60.4609 151.495 60.6196 151.456 60.6196 151.456C60.6196 151.416 60.4609 151.456 60.2229 151.456C60.0245 151.416 59.8658 151.376 59.8262 151.416Z" fill="#263238"/>
<path d="M61.0527 152.085C61.0527 152.085 61.2114 152.125 61.4891 152.085C61.6081 152.085 61.7668 152.046 61.9255 151.966C62.0048 151.927 62.0842 151.927 62.1635 151.847C62.2032 151.808 62.2429 151.768 62.2825 151.728C62.2825 151.689 62.2825 151.609 62.2032 151.57C61.8065 151.371 61.4098 151.609 61.2511 151.808C61.1717 151.927 61.1321 152.006 61.1321 152.085C61.1321 152.165 61.1321 152.204 61.1321 152.204C61.1321 152.204 61.1717 152.046 61.3304 151.847C61.4098 151.768 61.5288 151.689 61.6875 151.609C61.8462 151.57 62.0445 151.57 62.2032 151.649C62.2825 151.689 62.2429 151.768 62.1635 151.808C62.0842 151.847 62.0048 151.887 61.9255 151.887C61.7668 151.927 61.6081 151.966 61.4891 152.006C61.2114 152.085 61.0527 152.085 61.0527 152.085Z" fill="#263238"/>
<path d="M61.1714 152.089C61.1714 152.089 61.2508 152.009 61.2111 151.811C61.2111 151.732 61.1714 151.613 61.0921 151.533C61.0127 151.454 60.9334 151.335 60.735 151.335C60.6557 151.335 60.5763 151.454 60.616 151.533C60.616 151.613 60.6557 151.652 60.6954 151.692C60.7747 151.771 60.8144 151.851 60.8937 151.93C61.0127 152.049 61.1317 152.089 61.1714 152.089C61.1317 152.089 61.0524 152.009 60.9334 151.89C60.8937 151.811 60.8144 151.732 60.735 151.652C60.6557 151.573 60.616 151.414 60.735 151.414C60.854 151.414 60.9334 151.494 61.0127 151.573C61.0921 151.652 61.1317 151.732 61.1317 151.811C61.2111 152.009 61.1714 152.089 61.1714 152.089Z" fill="#263238"/>
<path d="M54.0352 151.809C54.0352 151.809 54.2335 151.77 54.5112 151.809C54.7889 151.849 55.2253 151.928 55.5823 152.206C55.9394 152.444 56.1774 152.801 56.2567 153.079C56.3758 153.356 56.3758 153.515 56.3758 153.515C56.3758 153.515 56.3758 153.475 56.3758 153.396C56.3758 153.317 56.3361 153.198 56.2964 153.079C56.2171 152.801 55.979 152.444 55.622 152.166C55.2253 151.889 54.8286 151.809 54.5112 151.77C54.3525 151.77 54.2335 151.77 54.1542 151.77C54.1145 151.809 54.0352 151.809 54.0352 151.809Z" fill="#263238"/>
<path d="M57.2461 152.921C57.2461 152.921 57.6825 153 58.1982 153C58.7139 153 59.1503 152.921 59.1503 152.921C59.1503 152.881 58.7139 152.921 58.1982 152.921C57.6825 152.921 57.2461 152.921 57.2461 152.921Z" fill="#263238"/>
<path d="M55.9727 152.96C55.9727 152.96 56.0123 153.039 56.052 153.118C56.0917 153.198 56.1313 153.277 56.1313 153.277C56.171 153.277 56.171 153.198 56.0917 153.079C56.052 152.999 55.9727 152.92 55.9727 152.96Z" fill="#263238"/>
<path d="M55.4609 152.405C55.4609 152.405 55.5006 152.485 55.5403 152.564C55.6196 152.643 55.6593 152.683 55.699 152.643C55.699 152.643 55.6593 152.564 55.6196 152.485C55.5403 152.405 55.4609 152.366 55.4609 152.405Z" fill="#263238"/>
<path d="M54.7461 152.168C54.7461 152.208 54.8254 152.168 54.9444 152.208C55.0238 152.247 55.1031 152.287 55.1428 152.287C55.1428 152.287 55.1031 152.208 54.9841 152.168C54.8651 152.089 54.7461 152.128 54.7461 152.168Z" fill="#263238"/>
<path d="M54.2656 152.047C54.2656 152.047 54.3053 152.087 54.345 152.127C54.3846 152.127 54.464 152.127 54.464 152.127C54.464 152.127 54.4243 152.087 54.3846 152.047C54.3053 152.008 54.2656 152.008 54.2656 152.047Z" fill="#263238"/>
<path d="M34.2745 126.817C34.2349 127.531 31.6562 149.628 31.6562 149.628L37.7259 150.977L43.3196 128.484L34.2745 126.817Z" fill="#FFBE9D"/>
<path d="M37.9992 151.57L38.1182 150.935L31.6518 149.507L31.1758 151.609L31.5725 151.728C33.318 152.204 40.4985 154.109 41.768 154.029C43.1961 153.95 37.9992 151.57 37.9992 151.57Z" fill="#462682"/>
<g opacity="0.3">
<path d="M33.5587 152.089C33.5587 151.573 33.4001 151.057 33.0033 150.621C32.6463 150.224 32.1306 149.947 31.6149 149.867L31.2578 151.533L33.5587 152.089Z" fill="black"/>
</g>
<g opacity="0.3">
<path d="M40.5018 152.803C40.5018 152.803 42.287 153.755 42.0093 153.993C41.6919 154.231 34.3924 152.565 31.2188 151.573L31.2584 151.454L39.7877 153.438C39.7877 153.477 40.1448 152.763 40.5018 152.803Z" fill="black"/>
</g>
<path d="M31.1445 151.453C31.1445 151.453 31.1842 151.453 31.2635 151.493C31.3429 151.533 31.4619 151.533 31.5809 151.572C31.8983 151.652 32.295 151.771 32.7314 151.89C33.7232 152.128 35.072 152.485 36.5795 152.842C38.087 153.199 39.4358 153.476 40.4276 153.635C40.9036 153.714 41.3003 153.794 41.6177 153.873C41.7367 153.913 41.8557 153.913 41.9351 153.913C42.0144 153.913 42.0541 153.913 42.0541 153.913C42.0541 153.913 42.0144 153.913 41.9351 153.873C41.8557 153.833 41.7367 153.833 41.6177 153.794C41.3003 153.714 40.9036 153.635 40.4276 153.556C39.4358 153.357 38.087 153.08 36.5795 152.723C35.072 152.366 33.7232 152.048 32.7314 151.81C32.2553 151.691 31.8983 151.612 31.5809 151.533C31.4619 151.493 31.3429 151.493 31.2635 151.453C31.1842 151.453 31.1445 151.414 31.1445 151.453Z" fill="#263238"/>
<path d="M39.748 153.554C39.7877 153.554 39.8274 153.316 40.0654 153.078C40.3034 152.84 40.5811 152.761 40.5415 152.761C40.5415 152.761 40.2241 152.8 39.9861 153.038C39.7877 153.276 39.748 153.554 39.748 153.554Z" fill="#263238"/>
<path d="M38.041 152.244C38.041 152.244 38.16 152.165 38.279 152.046C38.3981 151.927 38.4774 151.808 38.4774 151.808C38.4774 151.808 38.3584 151.887 38.2394 152.006C38.1204 152.125 38.041 152.204 38.041 152.244Z" fill="#263238"/>
<path d="M37.6113 151.847C37.6113 151.847 37.7303 151.808 37.8493 151.768C37.9683 151.689 38.0874 151.649 38.0477 151.609C38.0477 151.609 37.9287 151.649 37.8097 151.689C37.6906 151.768 37.5716 151.847 37.6113 151.847Z" fill="#263238"/>
<path d="M37.4062 151.216C37.4062 151.255 37.5649 151.295 37.7236 151.335C37.922 151.375 38.0807 151.414 38.0807 151.375C38.0807 151.335 37.922 151.295 37.7633 151.255C37.5649 151.216 37.4062 151.216 37.4062 151.216Z" fill="#263238"/>
<path d="M37.3711 150.776C37.3711 150.776 37.4901 150.895 37.7281 150.975C37.9265 151.054 38.1248 151.014 38.1248 151.014C38.1248 150.975 37.9662 150.975 37.7678 150.895C37.5298 150.856 37.3711 150.776 37.3711 150.776Z" fill="#263238"/>
<path d="M38.4062 151.767C38.4062 151.767 38.5649 151.847 38.803 151.847C38.922 151.847 39.0807 151.886 39.279 151.847C39.3584 151.847 39.4377 151.847 39.5567 151.807C39.5964 151.807 39.6757 151.767 39.6757 151.728C39.7154 151.688 39.6757 151.609 39.6361 151.569C39.279 151.291 38.8426 151.41 38.6443 151.569C38.5253 151.648 38.4856 151.728 38.4459 151.807C38.4063 151.886 38.4062 151.926 38.4062 151.926C38.4062 151.926 38.4856 151.767 38.6839 151.648C38.7633 151.569 38.922 151.529 39.0807 151.529C39.2393 151.529 39.4377 151.569 39.5567 151.688C39.5964 151.767 39.5567 151.807 39.4774 151.847C39.398 151.886 39.3187 151.886 39.2393 151.886C39.0807 151.886 38.922 151.886 38.803 151.886C38.5649 151.767 38.4062 151.728 38.4062 151.767Z" fill="#263238"/>
<path d="M38.4787 151.809C38.4787 151.809 38.5581 151.729 38.5978 151.571C38.5978 151.491 38.5978 151.372 38.5581 151.253C38.5184 151.134 38.4391 151.015 38.2407 150.976C38.1614 150.976 38.082 151.055 38.082 151.134C38.082 151.214 38.082 151.253 38.1217 151.333C38.1614 151.452 38.201 151.531 38.2804 151.61C38.3597 151.729 38.4391 151.809 38.4787 151.809C38.4391 151.769 38.3597 151.69 38.2804 151.571C38.2407 151.491 38.201 151.412 38.1614 151.293C38.1217 151.214 38.1217 151.055 38.2407 151.055C38.3597 151.055 38.4391 151.174 38.4787 151.293C38.5184 151.372 38.5581 151.491 38.5581 151.571C38.5184 151.69 38.4787 151.809 38.4787 151.809Z" fill="#263238"/>
<path d="M31.6523 149.827C31.6523 149.827 31.8507 149.866 32.1284 149.946C32.4061 150.025 32.8028 150.223 33.0805 150.581C33.3582 150.898 33.5169 151.295 33.5566 151.572C33.5962 151.85 33.5566 152.009 33.5962 152.009C33.5962 152.009 33.5962 151.969 33.6359 151.89C33.6359 151.81 33.6359 151.691 33.6359 151.533C33.5962 151.255 33.4772 150.858 33.1995 150.501C32.8822 150.144 32.4854 149.946 32.2077 149.866C32.0491 149.827 31.93 149.787 31.8507 149.787C31.692 149.827 31.6523 149.827 31.6523 149.827Z" fill="#263238"/>
<path d="M34.4707 151.653C34.4707 151.653 34.8674 151.812 35.3831 151.971C35.8989 152.09 36.3352 152.129 36.3352 152.129C36.3352 152.09 35.8989 152.05 35.3831 151.931C34.9071 151.772 34.4707 151.653 34.4707 151.653Z" fill="#263238"/>
<path d="M33.207 151.373C33.207 151.373 33.207 151.452 33.2467 151.571C33.2864 151.651 33.2864 151.77 33.2864 151.77C33.326 151.77 33.326 151.69 33.326 151.571C33.326 151.452 33.2467 151.373 33.207 151.373Z" fill="#263238"/>
<path d="M32.8867 150.738C32.8867 150.738 32.8867 150.817 32.9661 150.897C33.0057 150.976 33.0851 151.016 33.0851 151.016C33.0851 151.016 33.0851 150.936 33.0057 150.857C32.9264 150.778 32.8867 150.698 32.8867 150.738Z" fill="#263238"/>
<path d="M32.2539 150.341C32.2539 150.381 32.3333 150.381 32.4126 150.421C32.4919 150.46 32.5713 150.54 32.5713 150.54C32.5713 150.54 32.5713 150.421 32.4523 150.381C32.3332 150.302 32.2539 150.302 32.2539 150.341Z" fill="#263238"/>
<path d="M31.7773 150.105C31.7773 150.105 31.7773 150.145 31.8567 150.185C31.8964 150.224 31.936 150.224 31.9757 150.224C31.9757 150.224 31.9757 150.185 31.8964 150.145C31.8567 150.105 31.817 150.066 31.7773 150.105Z" fill="#263238"/>
<path d="M57.046 28.4328C56.8873 27.9568 56.4906 27.5997 56.2922 27.1634C56.0145 26.4889 56.2129 25.6955 56.2922 24.9418C56.3716 24.188 56.2129 23.3153 55.5385 22.9979C55.2608 22.8789 54.9434 22.8789 54.6657 22.7202C54.15 22.4028 54.15 21.6491 54.1103 21.0143C54.0706 20.6176 53.9913 20.1812 53.7929 19.8242C53.8326 19.8242 53.8723 19.7845 53.912 19.7845C54.7847 19.5465 55.6972 20.0622 55.9352 20.7763C56.0542 21.1333 56.0542 21.53 55.8558 21.7681C55.6575 22.0458 55.3004 22.1251 55.1021 22.0061C54.8641 21.8871 54.7451 21.6094 54.8244 21.411C54.8641 21.2127 55.1021 21.1333 55.2608 21.173C55.4195 21.173 55.5385 21.292 55.5781 21.3317C55.6178 21.411 55.6178 21.4507 55.6575 21.4507C55.6575 21.4507 55.6575 21.411 55.6575 21.292C55.6178 21.2127 55.4988 21.0937 55.3401 21.054C55.2608 21.054 55.1418 21.054 55.0228 21.0937C54.9037 21.1333 54.7847 21.2127 54.745 21.3714C54.6657 21.6491 54.7847 22.0061 55.0624 22.1648C55.3798 22.3235 55.8162 22.2045 56.0542 21.8871C56.3319 21.5697 56.3319 21.0937 56.1732 20.697C55.8955 19.9432 55.0227 19.3878 54.0706 19.5068C54.269 19.1895 54.3087 18.7927 54.1897 18.4357C54.031 17.9596 53.6739 17.6819 53.2772 17.5233C52.8805 17.3646 52.4838 17.3646 52.1268 17.4439C51.7697 17.5233 51.4523 17.6819 51.2143 17.8406C50.9763 17.9993 50.7779 18.1977 50.5796 18.3167C50.3812 18.4357 50.2225 18.515 50.0639 18.515C49.7465 18.5547 49.5878 18.396 49.5878 18.396C49.5878 18.396 49.7068 18.5944 50.0639 18.5944C50.2225 18.5944 50.4606 18.515 50.6589 18.396C50.8573 18.277 51.0953 18.0787 51.3333 17.9596C51.8094 17.6819 52.5235 17.4042 53.2376 17.6819C53.5946 17.801 53.912 18.0787 53.9913 18.4754C54.1103 18.8324 54.031 19.2688 53.7136 19.5465C53.5152 19.1895 53.2376 18.8721 52.8408 18.6737C52.0474 18.2373 50.8573 18.4357 50.4606 19.2688L43.9545 17.0472C43.1611 16.3331 41.9709 16.1348 40.9792 16.4521C40.9395 16.4521 40.8998 16.4521 40.8601 16.4125C40.5428 16.3728 40.1461 16.4125 39.7494 16.6108C39.3526 16.8092 38.9956 17.1662 38.6386 17.5629C38.4402 17.7613 38.2419 17.9596 38.0038 18.0787C37.9642 18.1183 37.9245 18.1183 37.8848 18.1183C37.6071 18.158 37.2897 18.158 37.012 18.158C36.4567 18.039 35.9013 17.7216 35.2268 17.6423C34.8698 17.6026 34.4731 17.6026 34.1161 17.7216C33.759 17.8406 33.402 18.039 33.1243 18.3564C32.8466 18.6737 32.6879 19.0704 32.6879 19.5068C32.6879 19.8242 32.7672 20.1019 32.8466 20.4193C32.6879 20.816 32.6482 21.2127 32.6482 21.6491C32.6879 22.2045 32.8466 22.7599 32.8466 23.3152C32.6879 23.4343 32.5292 23.5136 32.3309 23.593C31.9738 23.712 31.6168 23.7516 31.2597 23.8706C30.5457 24.1483 30.0696 24.7434 29.8712 25.3782C29.6729 25.9335 29.7126 26.608 30.0299 27.0047C29.8712 27.7187 30.0299 28.5122 30.506 29.1072C30.8234 29.504 31.2597 29.7816 31.5374 30.218C31.9738 30.8924 31.8945 31.7255 32.0135 32.519C32.1325 33.3124 32.5689 34.1851 33.3623 34.2248C33.997 34.2645 34.5524 33.7488 35.1872 33.7884C36.0599 33.8678 36.4567 34.9389 36.9724 35.653C37.6071 36.5654 38.7973 37.0811 39.908 36.9225C40.7015 36.8034 41.5346 36.3671 42.328 36.6051C43.3198 36.8431 43.9148 38.0332 44.9463 38.1523C45.7 38.2713 46.4141 37.7555 46.9695 37.2398C47.5249 36.7241 48.12 36.129 48.8737 36.01C49.7862 35.8513 50.6589 36.4067 51.5714 36.5257C52.7615 36.6844 53.9913 36.0497 54.5864 35.0182C55.1021 34.1058 55.1021 32.995 55.5385 32.0826C55.8558 31.4478 56.3716 30.9718 56.7286 30.3767C56.9666 29.8213 57.2443 29.1072 57.046 28.4328ZM30.9424 25.4972C30.7837 25.4575 30.7043 25.4972 30.7043 25.4972C30.7043 25.4972 30.7837 25.4972 30.863 25.5368C30.8233 25.5765 30.7837 25.5765 30.744 25.6162C30.387 25.9335 30.1093 26.3303 29.9903 26.8063C29.7919 26.4493 29.7919 25.9335 29.9506 25.4575C30.1489 24.9021 30.625 24.3467 31.2597 24.1087C31.5771 23.9897 31.9341 23.95 32.2912 23.831C32.4499 23.7913 32.6085 23.712 32.7276 23.6326C32.6879 23.831 32.6482 24.069 32.5292 24.2277C32.2118 24.8624 31.4978 25.1005 30.9424 25.4972ZM35.3855 18.1977C34.3144 18.3564 33.402 19.1101 32.9259 20.0622C32.8862 19.8639 32.8466 19.7052 32.8466 19.5068C32.8466 19.1101 32.9656 18.7531 33.2036 18.515C33.6797 17.9596 34.4731 17.7613 35.1475 17.8803C35.5045 17.92 35.8616 18.039 36.2186 18.158C35.9409 18.158 35.6632 18.158 35.3855 18.1977ZM38.6386 17.92C38.5592 17.9596 38.4799 17.9993 38.4005 17.9993C38.5196 17.8803 38.6386 17.7613 38.7179 17.6819C39.0749 17.2852 39.3923 16.8885 39.7494 16.7298C40.1064 16.5712 40.4238 16.5315 40.7015 16.5315C40.5428 16.6108 40.3841 16.6902 40.2254 16.7695C39.67 17.1266 39.2336 17.6819 38.6386 17.92Z" fill="#263238"/>
<path d="M52.7669 31.5635C53.0842 29.6196 52.9652 26.4063 52.8066 23.788C52.6479 21.4474 50.585 19.6622 48.2444 19.9002L41.4209 20.6143C40.7069 20.6936 40.1515 21.2887 40.1911 22.0028L40.9052 38.744C39.9531 38.744 39.3184 38.744 39.3184 38.744V41.759C39.3184 45.2104 42.135 48.0271 45.5864 48.0271C49.0378 48.0271 51.8544 45.2104 51.8544 41.759V39.1407C51.8544 39.1407 50.2279 38.625 49.2361 38.6647C49.1965 38.6647 49.0775 38.6647 48.9981 38.6647C48.9981 37.1175 49.1171 35.9274 49.1171 35.9274C49.1171 35.9274 52.1321 35.491 52.7669 31.5635Z" fill="#FFBE9D"/>
<path d="M51.775 26.3252C51.775 26.6029 51.5766 26.8013 51.2989 26.841C51.0212 26.841 50.7832 26.6426 50.7832 26.4046C50.7832 26.1269 50.9816 25.9285 51.2593 25.8888C51.537 25.8492 51.775 26.0475 51.775 26.3252Z" fill="#263238"/>
<path d="M52.0894 25.4522C52.01 25.5316 51.653 25.2539 51.0976 25.2539C50.5422 25.2539 50.1455 25.5316 50.1058 25.4522C50.0661 25.4126 50.1455 25.2936 50.3042 25.1746C50.4629 25.0555 50.7802 24.9365 51.0976 24.9365C51.4546 24.9365 51.7323 25.0555 51.891 25.1746C52.0894 25.2936 52.129 25.4126 52.0894 25.4522Z" fill="#263238"/>
<path d="M46.4566 26.3282C46.4566 26.6059 46.2583 26.8042 45.9806 26.8439C45.7029 26.8439 45.4648 26.6455 45.4648 26.4075C45.4648 26.1298 45.6632 25.9314 45.9409 25.8918C46.2186 25.8521 46.4566 26.0505 46.4566 26.3282Z" fill="#263238"/>
<path d="M46.7808 25.5763C46.7014 25.6556 46.3444 25.3779 45.789 25.3779C45.2336 25.3779 44.8369 25.6556 44.7972 25.5763C44.7575 25.5366 44.8369 25.4176 44.9956 25.2986C45.1543 25.1796 45.4716 25.0605 45.789 25.0605C46.146 25.0605 46.4237 25.1796 46.5824 25.2986C46.7411 25.4176 46.8204 25.5366 46.7808 25.5763Z" fill="#263238"/>
<path d="M48.7161 29.5781C48.7161 29.5385 49.0335 29.4988 49.5889 29.4194C49.7079 29.4194 49.8666 29.3798 49.8666 29.3004C49.9063 29.1814 49.8269 29.0624 49.7872 28.9037C49.6682 28.5864 49.5095 28.2293 49.3905 27.8326C48.8351 26.3251 48.3988 25.0953 48.4781 25.0556C48.5574 25.0159 49.0335 26.2458 49.6286 27.7533C49.7476 28.1103 49.9063 28.4673 50.0253 28.8244C50.0649 28.9831 50.1839 29.1417 50.1046 29.3798C50.0649 29.4988 49.9459 29.5781 49.8666 29.5781C49.7872 29.6178 49.7079 29.6178 49.6286 29.6178C49.0732 29.6178 48.7161 29.6178 48.7161 29.5781Z" fill="#263238"/>
<path d="M49.1161 36.0086C49.1161 36.0086 46.4581 36.1673 43.8398 34.6201C43.8398 34.6201 45.1093 37.3178 49.0368 36.9607L49.1161 36.0086Z" fill="#EB996E"/>
<path d="M48.5207 30.8899C48.3223 30.6122 47.9653 30.4932 47.6479 30.5328C47.4099 30.5725 47.1719 30.6518 47.0132 30.8502C46.8545 31.0485 46.8545 31.3262 46.9735 31.4849C47.1322 31.6833 47.4099 31.723 47.6876 31.6833C47.9653 31.6039 48.1636 31.4453 48.362 31.2866C48.4017 31.2469 48.481 31.2072 48.5207 31.1279C48.5604 31.0486 48.5604 30.9692 48.5207 30.8899Z" fill="#EB996E"/>
<path d="M47.134 29.9375C47.2134 29.9375 47.2134 30.5326 47.7291 30.9293C48.2448 31.3657 48.8796 31.2863 48.8796 31.3657C48.8796 31.4053 48.7209 31.4847 48.4829 31.4847C48.2052 31.4847 47.8481 31.4053 47.5307 31.1673C47.2134 30.9293 47.0944 30.5722 47.0547 30.3342C47.0547 30.0962 47.0944 29.9375 47.134 29.9375Z" fill="#263238"/>
<path d="M47.0084 24.6225C46.9687 24.7812 46.4134 24.7019 45.7786 24.7812C45.1439 24.8606 44.6281 25.0192 44.5488 24.9002C44.5091 24.8209 44.5885 24.7019 44.8265 24.5432C45.0249 24.3845 45.3422 24.2655 45.7389 24.2258C46.1356 24.1861 46.453 24.2258 46.691 24.3448C46.9291 24.4242 47.0481 24.5432 47.0084 24.6225Z" fill="#263238"/>
<path d="M51.8877 24.3464C51.8084 24.4654 51.4117 24.3464 50.9753 24.3464C50.5389 24.3067 50.1422 24.4257 50.0628 24.3067C50.0232 24.2274 50.1025 24.1084 50.2612 23.9894C50.4199 23.8704 50.6976 23.791 51.0149 23.791C51.3323 23.791 51.61 23.91 51.729 24.029C51.8877 24.1481 51.9274 24.3067 51.8877 24.3464Z" fill="#263238"/>
<path d="M54.2686 20.2998C53.9909 19.2683 53.1975 18.2765 52.1264 18.0782C51.452 17.9592 50.7379 18.1575 50.0238 18.1178C49.4287 18.0782 49.2304 17.6021 48.675 17.4434C47.7626 17.1261 47.0485 16.1343 45.0649 16.3326C44.5492 16.3723 43.8351 17.007 43.3591 17.7211C42.6053 17.4038 41.6135 17.7608 41.0581 17.9988C39.9077 18.5145 39.1936 19.784 38.9952 21.0932C38.7572 22.4023 38.9556 23.7511 39.1539 25.0206C39.2333 25.6157 39.3126 26.2107 39.3919 26.8058C39.4316 27.2025 39.511 27.5992 39.7093 27.9563L38.7969 36.3666C40.5821 37.041 42.8433 35.8112 43.24 33.907C43.5971 32.2408 42.6847 30.5746 42.8037 28.8687C42.883 27.8769 43.4384 26.9248 43.4384 25.9331C43.4384 25.6157 43.3987 25.2983 43.2797 24.9413C44.8666 23.6321 45.3029 22.6007 45.2236 21.3709C45.6997 21.6882 46.2947 21.9263 46.8898 21.9263C47.7229 21.9263 48.5956 21.6089 49.3891 21.9263C49.9445 22.1246 50.3412 22.6403 50.7776 23.0767C51.2139 23.5131 51.7693 23.9098 52.3644 23.8305C52.6421 23.7908 52.9198 23.6321 53.1975 23.5528C53.4752 23.4338 53.7926 23.3941 54.0306 23.5528C54.348 22.442 54.5066 21.3312 54.2686 20.2998Z" fill="#263238"/>
<path d="M30.7441 28.9074C30.7441 28.8677 31.1409 29.2645 32.0533 29.6612C32.4897 29.8595 33.0847 30.0182 33.7592 30.0182C34.4336 30.0182 35.227 29.8595 35.9411 29.3835C36.6155 28.9074 37.2502 28.0743 37.3296 27.0825C37.3692 26.6065 37.2899 26.0511 37.0519 25.6147C36.8138 25.1783 36.2981 24.8213 35.7824 24.8213C35.5047 24.8213 35.2667 24.9006 35.0286 25.0593C34.8303 25.218 34.6716 25.456 34.5526 25.7337C34.3939 26.2891 34.4732 26.9239 34.8699 27.3602C35.227 27.8363 35.822 28.114 36.4171 28.2727C37.0122 28.4314 37.6866 28.4314 38.3213 28.3124C38.9561 28.1933 39.5511 27.9156 40.0669 27.5189C40.5826 27.1222 40.9396 26.6065 41.138 26.0511C41.3363 25.4957 41.376 24.861 41.2967 24.3056C41.257 24.0279 41.138 23.7502 41.019 23.5121C40.8603 23.2741 40.7016 23.0361 40.5032 22.8774C40.3049 22.7187 40.0272 22.5997 39.7892 22.5997C39.5511 22.5997 39.3131 22.7187 39.1941 22.9567C39.0751 23.1551 39.0354 23.4328 39.1148 23.6708C39.1941 23.9089 39.3131 24.1072 39.5115 24.2659C40.2652 24.9403 41.257 25.1387 42.0901 25.0593C42.9629 24.98 43.6769 24.5833 44.1133 24.1072C44.5894 23.6312 44.8274 23.0758 44.9861 22.5997C45.2241 21.6476 45.0654 21.0922 45.1051 21.1319C45.1051 21.1319 45.1448 21.2509 45.1844 21.5286C45.2241 21.7666 45.1844 22.1633 45.0654 22.6394C44.9464 23.1154 44.6687 23.6708 44.1927 24.1866C43.7166 24.7023 42.9629 25.1387 42.0901 25.218C41.2173 25.337 40.1859 25.1387 39.3925 24.3849C39.1941 24.1866 39.0354 23.9882 38.9561 23.7105C38.8767 23.4328 38.9164 23.1154 39.0354 22.8774C39.1941 22.5997 39.5115 22.441 39.7892 22.441C40.1065 22.441 40.3842 22.56 40.6223 22.7584C40.8603 22.9171 41.0586 23.1948 41.2173 23.4328C41.376 23.7105 41.4554 23.9882 41.5347 24.3056C41.6537 24.9006 41.614 25.575 41.376 26.1701C41.1777 26.7652 40.7413 27.3206 40.2255 27.757C39.7098 28.1537 39.0751 28.4314 38.4007 28.59C37.7263 28.7091 37.0519 28.7091 36.4171 28.5504C35.7824 28.3917 35.1476 28.0743 34.7509 27.5586C34.5526 27.3206 34.3939 27.0032 34.3542 26.6858C34.3145 26.3685 34.3145 26.0511 34.4336 25.7337C34.5526 25.4164 34.7113 25.1387 34.9493 24.9403C35.1873 24.7419 35.5047 24.6229 35.822 24.6626C36.4568 24.6626 36.9725 25.0593 37.2502 25.575C37.5279 26.0908 37.6073 26.6462 37.5676 27.1619C37.4486 28.233 36.7742 29.0661 36.0601 29.5818C35.346 30.0976 34.5129 30.2562 33.7988 30.2166C33.0847 30.1769 32.4897 30.0182 32.0533 29.8199C31.6169 29.6215 31.2995 29.4231 31.0615 29.2645C30.9425 29.1851 30.9028 29.1058 30.8235 29.0661C30.7838 28.9074 30.7441 28.9074 30.7441 28.9074Z" fill="#455A64"/>
<path d="M54.4648 22.0464C54.4648 22.0464 54.4252 22.0861 54.2665 22.1654C54.1475 22.2448 53.9094 22.3241 53.6317 22.4035C53.354 22.4431 52.997 22.4828 52.5606 22.4035C52.1639 22.3241 51.7275 22.0861 51.3308 21.7687C50.9341 21.4117 50.5771 20.9753 50.339 20.3802C50.22 20.1025 50.1407 19.7455 50.2994 19.3884C50.3787 19.2298 50.4977 19.0711 50.6564 18.9917C50.8151 18.9124 51.0531 18.9124 51.2118 18.9917C51.5688 19.1901 51.7275 19.6265 51.6085 19.9835C51.4895 20.3802 51.1721 20.6579 50.8151 20.8166C50.101 21.1737 49.2679 21.134 48.5142 20.8563C48.1571 20.7373 47.8001 20.5389 47.443 20.3406C47.1257 20.1422 46.8083 19.9438 46.5306 19.6265C46.2926 19.3488 46.1736 18.8331 46.4513 18.5157C46.5703 18.357 46.8083 18.2777 47.0067 18.3173C47.205 18.357 47.3637 18.476 47.4827 18.6347C47.6017 18.7934 47.6811 18.9917 47.6414 19.1901C47.6017 19.3884 47.5224 19.5471 47.4034 19.6661C47.1653 19.9438 46.848 20.0629 46.5306 20.1025C46.2132 20.1422 45.8959 20.0629 45.6578 19.9835C45.3801 19.9042 45.1421 19.7852 44.9041 19.7058C44.428 19.5075 44.0313 19.1901 43.7933 18.8727C43.5553 18.5157 43.4759 18.1586 43.5156 17.8413C43.5553 17.5636 43.6346 17.3256 43.7536 17.2065C43.8726 17.0875 43.9123 17.0479 43.9123 17.0479C43.952 17.0479 43.6346 17.2462 43.5949 17.8413C43.5949 18.119 43.6743 18.476 43.9123 18.7934C44.1503 19.1108 44.5074 19.3884 44.9834 19.5868C45.4595 19.7852 45.9752 20.0232 46.5306 19.9438C46.8083 19.9042 47.086 19.7852 47.2844 19.5471C47.4827 19.3091 47.5224 18.9917 47.324 18.7537C47.1653 18.5157 46.7686 18.3967 46.5703 18.6744C46.4909 18.7934 46.4513 18.9521 46.4513 19.1108C46.4513 19.2694 46.5306 19.4281 46.6496 19.5471C46.848 19.8248 47.205 20.0232 47.4827 20.2215C47.8001 20.4199 48.1571 20.5786 48.5142 20.6976C49.2282 20.9356 50.0217 20.9753 50.6564 20.6976C50.9738 20.5389 51.2515 20.3009 51.3308 19.9835C51.4498 19.7058 51.2911 19.3488 51.0134 19.1901C50.7754 19.0314 50.4581 19.2298 50.339 19.4678C50.22 19.7058 50.2597 20.0232 50.3787 20.3009C50.5771 20.8563 50.9341 21.2927 51.2911 21.6497C51.6482 21.9671 52.0846 22.2051 52.4416 22.2844C52.8383 22.3638 53.1954 22.3638 53.4731 22.3241C54.2268 22.2448 54.4648 22.0464 54.4648 22.0464Z" fill="#455A64"/>
<path d="M43.0438 31.2892C43.0438 31.2892 43.0041 31.3289 42.8851 31.4082C42.7661 31.4876 42.5678 31.5669 42.2901 31.6462C42.0124 31.6859 41.695 31.7256 41.2983 31.5669C40.9412 31.4479 40.5049 31.2099 40.3065 30.6941C40.2272 30.4561 40.2272 30.1387 40.4652 29.9007C40.7032 29.7024 41.0603 29.7024 41.338 29.9007C41.8537 30.2578 42.052 30.9322 41.933 31.6066C41.8537 32.2413 41.457 32.9157 40.7826 33.2331C40.1081 33.5505 39.3147 33.4711 38.6403 33.0744C38.3229 32.8761 38.0452 32.638 37.8072 32.3207C37.6089 32.0033 37.5295 31.6066 37.6089 31.2495C37.6485 31.0512 37.7279 30.8925 37.8866 30.7735C38.0056 30.6545 38.2039 30.5751 38.4023 30.5751C38.799 30.5751 39.0767 30.8528 39.2354 31.1305C39.3941 31.4479 39.4734 31.7653 39.4734 32.043C39.4734 32.3603 39.4734 32.638 39.3941 32.9157C39.2354 33.4711 38.9577 33.9472 38.6006 34.3042C38.2436 34.6613 37.8072 34.8199 37.4105 34.8199C37.0138 34.8596 36.6964 34.7803 36.4187 34.6613C36.1807 34.5422 36.022 34.4232 35.903 34.3042C35.8237 34.1852 35.7443 34.1455 35.784 34.1455C35.784 34.1059 35.9823 34.3836 36.4584 34.5819C36.6964 34.6613 37.0138 34.7406 37.3708 34.7009C37.7279 34.6613 38.1246 34.5026 38.4816 34.1852C38.799 33.8678 39.0767 33.3918 39.1957 32.8761C39.275 32.5984 39.275 32.3207 39.275 32.043C39.275 31.7653 39.1957 31.4479 39.0767 31.2099C38.9577 30.9718 38.68 30.7735 38.4023 30.7338C38.1246 30.7338 37.8866 30.9718 37.8072 31.2892C37.7279 31.6066 37.8072 31.9239 37.9659 32.2016C38.1246 32.4793 38.4023 32.7174 38.7197 32.8761C39.3147 33.2331 40.0685 33.3124 40.6635 33.0347C41.2586 32.757 41.6156 32.162 41.695 31.5669C41.7743 30.9718 41.6156 30.3768 41.1793 30.0594C40.9809 29.9007 40.7032 29.9007 40.5445 30.0594C40.3858 30.1784 40.3462 30.4561 40.4255 30.6545C40.5842 31.0909 40.9809 31.3289 41.2983 31.4479C41.6553 31.5669 41.9727 31.5669 42.2107 31.5272C42.8058 31.4876 43.0041 31.2495 43.0438 31.2892Z" fill="#455A64"/>
<path d="M26.6602 127.729C26.6602 127.729 29.3181 132.886 36.2209 130.386C36.2209 130.386 43.0047 134.076 49.4711 129.95C49.4711 129.95 57.8813 131.061 62.4435 128.879L56.5722 78.2189L55.8185 70.4434H37.292C37.292 70.4434 31.7777 72.9426 30.905 85.1614C30.0322 97.3801 28.0883 114.161 28.0883 114.161L26.6602 127.729Z" fill="#263238"/>
<path d="M49.072 130.07C49.072 130.07 49.0719 130.03 49.0323 129.911C49.0323 129.792 48.9926 129.633 48.9926 129.475C48.9529 129.078 48.9133 128.483 48.8736 127.729C48.7546 126.221 48.5959 124.04 48.4372 121.382C48.1198 116.026 47.7628 108.568 47.6041 100.356C47.4454 92.144 47.4454 84.6858 47.5248 79.3302C47.5644 76.6326 47.6041 74.4506 47.6835 72.9431C47.7231 72.1894 47.7231 71.634 47.7231 71.1976C47.7231 70.9993 47.7231 70.8406 47.7628 70.7612C47.7628 70.6422 47.7628 70.6025 47.7628 70.6025C47.7628 70.6025 47.7628 70.6422 47.7628 70.7612C47.7628 70.8802 47.7628 71.0389 47.7628 71.1976C47.7628 71.5943 47.7628 72.1894 47.7231 72.9431C47.7231 74.4506 47.6835 76.6326 47.6438 79.3302C47.6041 84.7255 47.6041 92.144 47.7628 100.356C47.9612 108.568 48.2785 115.986 48.5562 121.382C48.7149 124.079 48.8339 126.221 48.9133 127.729C48.9529 128.483 48.9926 129.038 48.9926 129.475C48.9926 129.673 48.9926 129.832 48.9926 129.911C49.0719 130.03 49.072 130.07 49.072 130.07Z" fill="#455A64"/>
<path d="M50.6983 115.589C50.6983 115.589 50.7379 115.549 50.8569 115.509C50.976 115.47 51.1346 115.47 51.2933 115.549C51.452 115.628 51.6504 115.787 51.7297 116.065C51.809 116.343 51.6107 116.66 51.333 116.819C51.0553 116.977 50.6983 116.977 50.4999 116.779C50.3015 116.581 50.2222 116.343 50.2619 116.144C50.2619 115.946 50.3809 115.787 50.4602 115.747C50.5396 115.668 50.5792 115.668 50.6189 115.668C50.6586 115.708 50.4206 115.827 50.4206 116.184C50.4206 116.343 50.4999 116.541 50.6586 116.66C50.8173 116.779 51.0553 116.779 51.2536 116.66C51.452 116.541 51.571 116.303 51.571 116.144C51.5313 115.946 51.4123 115.787 51.2536 115.708C50.9363 115.509 50.6983 115.628 50.6983 115.589Z" fill="#455A64"/>
<path d="M50.3057 100.554C50.3057 100.554 50.3453 100.514 50.4644 100.474C50.5834 100.435 50.7421 100.435 50.9007 100.514C51.0594 100.593 51.2578 100.752 51.3371 101.03C51.4165 101.307 51.2181 101.625 50.9404 101.783C50.6627 101.942 50.3057 101.942 50.1073 101.744C49.909 101.545 49.8296 101.307 49.8693 101.109C49.8693 100.911 49.9883 100.752 50.0676 100.712C50.147 100.633 50.1867 100.633 50.2263 100.633C50.266 100.673 50.028 100.792 50.028 101.149C50.028 101.307 50.1073 101.506 50.266 101.625C50.4247 101.744 50.6627 101.744 50.8611 101.625C51.0594 101.506 51.1784 101.268 51.1784 101.109C51.1388 100.911 51.0198 100.752 50.8611 100.673C50.5437 100.474 50.3057 100.593 50.3057 100.554Z" fill="#455A64"/>
<path d="M50.0635 87.2646C50.0635 87.2646 50.1032 87.2249 50.2222 87.1852C50.3412 87.1456 50.4999 87.1456 50.6586 87.2249C50.8172 87.3043 51.0156 87.4629 51.0949 87.7406C51.1743 88.0183 50.9759 88.3357 50.6982 88.4944C50.4205 88.6531 50.0635 88.6531 49.8651 88.4547C49.6668 88.2564 49.5874 88.0183 49.6271 87.82C49.6271 87.6216 49.7461 87.4629 49.8255 87.4233C49.9048 87.3439 49.9445 87.3439 49.9841 87.3439C50.0238 87.3836 49.7858 87.5026 49.7858 87.8597C49.7858 88.0183 49.8651 88.2167 50.0238 88.3357C50.1825 88.4547 50.4205 88.4547 50.6189 88.3357C50.8172 88.2167 50.9363 87.9787 50.9363 87.82C50.8966 87.6216 50.7776 87.4629 50.6189 87.3836C50.2618 87.1852 50.0635 87.3043 50.0635 87.2646Z" fill="#455A64"/>
<path d="M49.5889 73.0224C49.5889 73.0224 49.6285 72.9827 49.7476 72.943C49.8666 72.9034 50.0253 72.9034 50.1839 72.9827C50.3426 73.0621 50.541 73.2207 50.6203 73.4984C50.6997 73.7761 50.5013 74.0935 50.2236 74.2522C49.9459 74.4109 49.5889 74.4109 49.3905 74.2125C49.1922 74.0142 49.1128 73.7761 49.1525 73.5778C49.1525 73.3794 49.2715 73.2207 49.3509 73.1811C49.4302 73.1017 49.4699 73.1017 49.5095 73.1017C49.5492 73.1414 49.3112 73.2604 49.3112 73.6175C49.3112 73.7761 49.3905 73.9745 49.5492 74.0935C49.7079 74.2125 49.9459 74.2125 50.1443 74.0935C50.3426 73.9745 50.4616 73.7365 50.4616 73.5778C50.422 73.3794 50.303 73.2207 50.1443 73.1414C49.8269 72.943 49.5889 73.0621 49.5889 73.0224Z" fill="#455A64"/>
<path d="M73.7082 57.6285L167.292 56.9541L169.911 120.587L72.9941 119.674L73.7082 57.6285Z" fill="#BB0070"/>
<path d="M73.7031 57.6285L117.976 21.8054C119.841 20.2979 122.538 20.2979 124.403 21.8451L167.248 56.9937" fill="#BB0070"/>
<g opacity="0.3">
<path d="M73.7031 57.6285L117.976 21.8054C119.841 20.2979 122.538 20.2979 124.403 21.8451L167.248 56.9937" fill="black"/>
</g>
<path d="M72.9877 119.676C72.8687 119.557 80.3666 111.385 89.729 101.428C99.0913 91.4304 106.748 83.4565 106.867 83.5755C106.986 83.6945 99.4881 91.8668 90.1257 101.824C80.8029 111.782 73.1067 119.795 72.9877 119.676Z" fill="#263238"/>
<path d="M169.907 120.588C169.788 120.707 162.489 112.693 153.602 102.696C144.716 92.6988 137.615 84.5266 137.734 84.4076C137.853 84.2885 145.152 92.3021 154.039 102.299C162.925 112.257 170.026 120.469 169.907 120.588Z" fill="#263238"/>
<g opacity="0.5">
<path d="M167.287 56.9541L120.317 94.483L73.7031 57.6285" fill="black"/>
</g>
<path d="M78.4282 61.1204L78.2695 31.8828L160.23 30.9307L161.143 61.6758L120.321 94.0078L78.4282 61.1204Z" fill="#FAFAFA"/>
<path d="M78.4308 61.1213C78.4308 61.1213 78.7085 61.3196 79.1845 61.7163C79.7003 62.113 80.454 62.7081 81.4061 63.4619C83.35 64.9694 86.2063 67.2306 89.8561 70.0869C97.1556 75.7996 107.629 84.0115 120.324 93.969H120.204C131.987 84.6462 145.911 73.578 161.026 61.637L160.986 61.7163C160.828 55.845 160.629 49.696 160.431 43.4279C160.312 39.2228 160.193 35.0573 160.074 30.9712L160.193 31.0902C127.187 31.4472 98.0283 31.8043 78.2721 32.0026L78.3514 31.9233C78.3911 41.127 78.3911 48.4265 78.4308 53.4251C78.4308 55.9243 78.4308 57.8682 78.4308 59.1774C78.4308 59.8121 78.4308 60.3278 78.4308 60.6452C78.4308 60.9229 78.4308 61.1213 78.4308 61.1213C78.4308 61.1213 78.4308 60.9626 78.4308 60.6055C78.4308 60.2882 78.4308 59.7724 78.4308 59.1377C78.4308 57.8286 78.3911 55.9243 78.3911 53.4251C78.3514 48.4265 78.3118 41.0873 78.2324 31.8836V31.8043H78.3118C98.1077 31.5663 127.226 31.2092 160.233 30.8125H160.352V30.9315C160.471 35.0176 160.59 39.1831 160.709 43.3883C160.907 49.6563 161.066 55.8053 161.264 61.6767V61.7163L161.224 61.756C146.11 73.697 132.146 84.7653 120.363 94.088L120.324 94.1277L120.284 94.088C107.589 84.0908 97.1159 75.8393 89.8164 70.1266C86.1666 67.2703 83.35 65.009 81.4061 63.5015C80.454 62.7478 79.7003 62.1527 79.2242 61.756C78.6688 61.3196 78.4308 61.1213 78.4308 61.1213Z" fill="#263238"/>
<path d="M146.936 54.3069C146.936 54.3466 134.4 54.5053 118.968 54.5846C103.496 54.6639 91 54.7036 91 54.6639C91 54.6243 103.536 54.4656 118.968 54.3862C134.44 54.2672 146.936 54.2276 146.936 54.3069Z" fill="#263238"/>
<path fill-rule="evenodd" clip-rule="evenodd" d="M122.089 40.2534C122.089 41.9667 120.715 43.3405 119.001 43.3405C117.287 43.3405 115.912 41.9667 115.912 40.2534C115.912 38.5402 117.287 37.167 119.001 37.167C120.715 37.167 122.089 38.5402 122.089 40.2534ZM119.001 48.8337C116.47 48.8337 114.334 48.4224 114.334 46.8357C114.334 45.2485 116.484 44.8518 119.001 44.8518C121.532 44.8518 123.667 45.263 123.667 46.8497C123.667 48.437 121.518 48.8337 119.001 48.8337Z" fill="#AEB1B4"/>
<path d="M146.936 63.789C146.936 63.8287 134.4 63.9874 118.968 64.0667C103.496 64.146 91 64.1857 91 64.146C91 64.1064 103.536 63.9477 118.968 63.8683C134.44 63.789 146.936 63.7493 146.936 63.789Z" fill="#263238"/>
<path d="M146.936 73.3093C146.936 73.3489 134.995 73.4679 120.238 73.587C105.48 73.6663 93.5391 73.706 93.5391 73.6266C93.5391 73.587 105.48 73.4679 120.238 73.3489C134.995 73.2696 146.936 73.2696 146.936 73.3093Z" fill="#263238"/>
<path d="M136.462 81.6807C136.462 81.6807 136.343 81.6807 136.145 81.7204C135.907 81.7204 135.589 81.7204 135.193 81.7601C134.36 81.7601 133.17 81.7997 131.741 81.7997C128.806 81.8394 124.759 81.9187 120.316 81.9584C115.873 82.0378 111.826 82.0774 108.891 82.0774C107.463 82.0774 106.272 82.0774 105.439 82.0774C105.043 82.0774 104.725 82.0774 104.487 82.0774C104.289 82.0774 104.17 82.0774 104.17 82.0774C104.17 82.0774 104.289 82.0774 104.487 82.0378C104.725 82.0378 105.043 82.0378 105.439 81.9981C106.272 81.9981 107.463 81.9584 108.891 81.9584C111.826 81.9187 115.873 81.8394 120.316 81.7997C124.759 81.7204 128.806 81.6807 131.741 81.6807C133.17 81.6807 134.36 81.6807 135.193 81.6807C135.589 81.6807 135.907 81.6807 136.145 81.6807C136.343 81.641 136.462 81.6807 136.462 81.6807Z" fill="#263238"/>
<path d="M126.231 89.288C126.231 89.3276 123.573 89.407 120.281 89.407C116.988 89.407 114.33 89.3673 114.33 89.288C114.33 89.2483 116.988 89.1689 120.281 89.1689C123.573 89.1689 126.231 89.2483 126.231 89.288Z" fill="#263238"/>
<path d="M153.843 82.7816C159.299 82.7816 163.721 78.359 163.721 72.9035C163.721 67.448 159.299 63.0254 153.843 63.0254C148.387 63.0254 143.965 67.448 143.965 72.9035C143.965 78.359 148.387 82.7816 153.843 82.7816Z" fill="black"/>
<path d="M151.265 82.7816C156.72 82.7816 161.143 78.359 161.143 72.9035C161.143 67.448 156.72 63.0254 151.265 63.0254C145.809 63.0254 141.387 67.448 141.387 72.9035C141.387 78.359 145.809 82.7816 151.265 82.7816Z" fill="#212121"/>
<path d="M152.493 68.3018V76.5137H150.986V69.5712H149.24V68.3018H152.493Z" fill="#EBEBEB"/>
<path fill-rule="evenodd" clip-rule="evenodd" d="M82.334 14.3694C84.1704 14.3694 85.6424 12.8784 85.6424 11.0182C85.6424 9.15808 84.1704 7.66699 82.334 7.66699C80.4976 7.66699 79.0256 9.15808 79.0256 11.0182C79.0256 12.8784 80.4976 14.3694 82.334 14.3694ZM82.334 16.0105C79.6368 16.0105 77.334 16.4417 77.334 18.1646C77.334 19.8869 79.6228 20.3337 82.334 20.3337C85.0305 20.3337 87.334 19.9024 87.334 18.1795C87.334 16.4566 85.0452 16.0105 82.334 16.0105ZM89.2659 12.3922H90.068C90.3981 12.3922 90.6673 12.6652 90.6673 13C90.6673 13.3348 90.3981 13.6077 90.068 13.6077H89.2659V14.3926C89.2659 14.7274 88.9975 15.0003 88.6666 15.0003C88.3365 15.0003 88.0673 14.7274 88.0673 14.3926V13.6077H87.2666C86.9358 13.6077 86.6673 13.3348 86.6673 13C86.6673 12.6652 86.9358 12.3922 87.2666 12.3922H88.0673V11.6081C88.0673 11.2733 88.3365 11.0003 88.6666 11.0003C88.9975 11.0003 89.2659 11.2733 89.2659 11.6081V12.3922Z" fill="#130F26"/>
<path d="M96.7978 12.3231C96.7978 12.3231 96.7581 12.2437 96.7184 12.085C96.6788 11.9264 96.6391 11.6883 96.5598 11.371C96.5201 11.0536 96.4011 10.6966 96.2424 10.2602C96.163 10.0618 96.1234 9.78411 96.0044 9.54609C95.8853 9.30806 95.806 9.03037 95.687 8.79234C95.1713 7.72122 94.4175 6.45174 93.3067 5.26161C92.1563 4.0318 90.6488 2.92101 88.7445 2.12758C87.7924 1.6912 86.761 1.45318 85.6899 1.25482C84.5791 1.13581 83.4286 1.05646 82.2385 1.21515C81.6434 1.25482 81.0483 1.4135 80.4533 1.53252C80.1359 1.61186 79.8582 1.73087 79.5805 1.81021C79.2631 1.88956 78.9854 2.00857 78.7077 2.12758C77.5176 2.56397 76.4068 3.27805 75.3357 4.15081C73.2331 5.85667 71.5669 8.39563 70.8529 11.3313C70.4958 12.7991 70.4165 14.386 70.5752 15.9331C70.7338 17.52 71.2099 19.0672 71.924 20.4953L72.162 20.9317L72.2017 20.9714V21.0111C71.4876 23.431 70.7338 25.7716 70.0594 28.0328L69.8611 27.8742C71.805 26.8427 73.7092 25.8509 75.534 24.9385L75.6134 24.8988L75.6927 24.9385C77.5176 26.327 79.6202 27.1997 81.6434 27.5171C83.7063 27.8345 85.7295 27.6361 87.5147 27.1204C89.2999 26.6047 90.8868 25.6922 92.1563 24.6211C93.4257 23.55 94.4175 22.3599 95.1316 21.1301C95.8457 19.9003 96.2821 18.7101 96.5598 17.5993C96.7978 16.4885 96.9168 15.5364 96.9565 14.743C96.9565 14.3463 96.9565 13.9893 96.9565 13.7116C96.9168 13.4339 96.9168 13.1562 96.8771 12.9578C96.8771 12.7595 96.8375 12.6008 96.8375 12.4818C96.7978 12.4024 96.7978 12.3231 96.7978 12.3231C96.7978 12.3231 96.7978 12.3627 96.8375 12.4818C96.8375 12.6008 96.8771 12.7595 96.8771 12.9578C96.9168 13.1562 96.9168 13.4339 96.9565 13.7116C96.9565 14.0289 96.9565 14.386 96.9565 14.743C96.9565 15.5364 96.8375 16.4885 96.5994 17.5993C96.3217 18.7101 95.8853 19.9399 95.1713 21.1697C94.4572 22.3995 93.4654 23.6293 92.1563 24.7401C90.8868 25.8113 89.2999 26.7237 87.4751 27.2791C85.6502 27.8345 83.627 28.0328 81.5244 27.7155C79.4218 27.3981 77.3193 26.5253 75.4547 25.0972H75.5737C73.7488 26.0493 71.8446 27.0411 69.9007 28.0725L69.623 28.2312L69.7024 27.9138C70.3768 25.6129 71.1306 23.2723 71.8446 20.892V21.0111L71.6066 20.5747C70.8529 19.1068 70.3768 17.52 70.2181 15.9331C70.0198 14.3463 70.0991 12.7198 70.4958 11.2123C71.2496 8.19727 72.9158 5.61865 75.0977 3.91279C76.1688 3.04002 77.3192 2.32594 78.5094 1.88956C78.7871 1.73087 79.1045 1.65153 79.4218 1.57219C79.7392 1.49285 80.0169 1.37383 80.3343 1.29449C80.9293 1.17548 81.5244 1.01679 82.1591 0.977121C83.3493 0.818436 84.5394 0.897781 85.6502 1.05647C86.761 1.25482 87.8321 1.53252 88.7445 1.9689C90.6488 2.76232 92.1959 3.95246 93.3464 5.18226C94.4969 6.41207 95.2506 7.72122 95.7267 8.79234C95.8457 9.07004 95.9647 9.34773 96.044 9.58576C96.163 9.82379 96.2027 10.0618 96.2821 10.2998C96.4011 10.7362 96.5201 11.1329 96.5994 11.4106C96.6391 11.728 96.7184 11.9264 96.7184 12.1247C96.7978 12.2437 96.7978 12.3231 96.7978 12.3231Z" fill="#263238"/>
<path d="M206.25 106.544C207.559 110.947 206.567 116.581 204.98 120.865C203.393 125.15 200.418 128.918 196.61 131.457C196.173 131.735 195.618 132.013 195.181 131.775C194.824 131.576 194.666 131.1 194.586 130.704C193.674 126.022 194.309 121.024 196.372 116.7C198.514 112.376 202.005 108.766 206.25 106.544Z" fill="#86971C"/>
<path d="M186.768 85.7593C189.505 85.68 191.29 88.7347 191.568 91.4323C191.846 94.1696 191.251 96.9863 192.044 99.6046C193.076 102.937 196.17 105.317 197.082 108.65C198.193 112.577 196.011 116.663 195.932 120.789C195.892 122.773 196.329 124.796 195.972 126.74C195.337 130.032 192.203 132.69 188.831 132.73C185.459 132.77 182.285 130.191 181.571 126.898C180.936 123.844 182.285 120.591 181.492 117.536C180.897 115.314 179.151 113.41 179.032 111.109C178.873 108.372 180.976 105.992 181.373 103.254C181.769 100.517 180.381 97.859 180.182 95.1217C179.825 90.1232 181.849 86.2751 186.768 85.7593Z" fill="#ADC804"/>
<path d="M192.76 141.854C192.76 141.854 192.799 141.775 192.839 141.576C192.879 141.378 192.958 141.1 193.037 140.783C193.196 140.108 193.395 139.117 193.712 137.887C194.307 135.427 195.259 132.095 196.529 128.445C197.838 124.835 199.226 121.622 200.297 119.36C200.853 118.21 201.289 117.297 201.606 116.663C201.765 116.385 201.884 116.107 201.963 115.949C202.043 115.79 202.082 115.671 202.082 115.671C202.082 115.671 202.003 115.75 201.924 115.909C201.805 116.107 201.686 116.345 201.527 116.623C201.17 117.218 200.694 118.131 200.139 119.281C198.988 121.542 197.56 124.716 196.291 128.366C194.981 132.015 194.109 135.387 193.553 137.847C193.275 139.077 193.077 140.069 192.958 140.783C192.918 141.1 192.879 141.378 192.839 141.576C192.76 141.775 192.76 141.854 192.76 141.854Z" fill="#212121"/>
<path d="M186.889 99.165C186.889 99.165 186.889 99.3237 186.928 99.6014C186.968 99.9188 187.008 100.315 187.087 100.831C187.246 101.942 187.444 103.489 187.682 105.393C188.198 109.242 188.912 114.597 189.626 120.508C190.38 126.419 191.014 131.775 191.451 135.623C191.689 137.527 191.848 139.114 192.006 140.225C192.086 140.74 192.125 141.177 192.165 141.454C192.205 141.732 192.244 141.891 192.244 141.891C192.244 141.891 192.244 141.732 192.205 141.454C192.165 141.137 192.125 140.74 192.086 140.185C191.967 139.074 191.808 137.527 191.61 135.583C191.213 131.695 190.578 126.34 189.864 120.429C189.11 114.518 188.396 109.162 187.841 105.314C187.563 103.41 187.325 101.863 187.166 100.752C187.087 100.236 187.008 99.7998 186.968 99.5221C186.928 99.3237 186.889 99.165 186.889 99.165Z" fill="#212121"/>
<path d="M202.281 136.498H181.533V138.918H202.281V136.498Z" fill="#212121"/>
<path d="M183.479 138.918L185.898 153.596H198.752L200.458 138.918H183.479Z" fill="#212121"/>
<path d="M200.497 138.839C200.497 138.878 196.649 138.997 191.928 139.037C187.207 139.077 183.359 139.117 183.359 139.037C183.359 138.997 187.168 138.878 191.928 138.839C196.689 138.759 200.497 138.759 200.497 138.839Z" fill="#455A64"/>
<path d="M199.822 146.178C199.822 146.178 199.783 146.178 199.703 146.178C199.624 146.178 199.505 146.178 199.346 146.178C199.029 146.178 198.593 146.178 198.037 146.138C197.482 146.059 196.768 145.9 196.093 145.385C195.776 145.147 195.459 144.789 195.221 144.393C195.022 143.956 194.943 143.441 195.102 142.925C195.26 142.409 195.776 141.973 196.411 141.973C196.728 141.973 197.006 142.131 197.204 142.37C197.403 142.608 197.522 142.885 197.601 143.203C197.839 144.472 196.966 145.861 195.617 146.297C194.269 146.773 192.602 145.98 191.928 144.631C191.769 144.274 191.65 143.917 191.611 143.52C191.611 143.123 191.69 142.727 191.928 142.37C192.166 142.052 192.523 141.774 192.959 141.735C193.396 141.695 193.832 141.933 194.03 142.29C194.269 142.647 194.388 143.044 194.388 143.441C194.388 143.837 194.269 144.234 194.11 144.591C193.753 145.305 193.118 145.821 192.444 146.138C191.769 146.456 191.055 146.654 190.341 146.733C189.627 146.813 188.913 146.773 188.239 146.535C187.564 146.297 187.009 145.861 186.652 145.305C186.295 144.75 186.215 144.036 186.453 143.441C186.652 142.846 187.167 142.37 187.762 142.29C188.358 142.211 188.953 142.449 189.27 142.846C189.627 143.282 189.587 143.877 189.389 144.313C189.191 144.75 188.873 145.067 188.516 145.305C188.159 145.543 187.802 145.662 187.485 145.821C187.167 145.94 186.85 146.059 186.572 146.138C186.017 146.297 185.581 146.376 185.263 146.416C185.104 146.456 184.985 146.456 184.906 146.456C184.827 146.456 184.787 146.456 184.787 146.456C184.787 146.456 184.827 146.456 184.906 146.416C184.985 146.416 185.104 146.376 185.223 146.337C185.501 146.257 185.938 146.178 186.493 146.019C186.771 145.94 187.048 145.821 187.405 145.702C187.723 145.583 188.08 145.424 188.397 145.186C188.715 144.948 189.032 144.67 189.23 144.234C189.389 143.837 189.429 143.282 189.111 142.925C188.794 142.568 188.278 142.33 187.723 142.409C187.207 142.489 186.731 142.925 186.572 143.48C186.374 144.036 186.453 144.67 186.771 145.186C187.088 145.702 187.643 146.138 188.239 146.337C188.873 146.575 189.548 146.575 190.262 146.495C190.936 146.416 191.65 146.218 192.325 145.9C192.959 145.583 193.554 145.067 193.872 144.432C194.229 143.798 194.269 142.925 193.832 142.33C193.634 142.012 193.277 141.854 192.92 141.893C192.563 141.933 192.245 142.131 192.047 142.409C191.849 142.687 191.769 143.084 191.769 143.441C191.769 143.798 191.888 144.155 192.047 144.472C192.682 145.742 194.229 146.495 195.498 146.059C196.768 145.662 197.601 144.353 197.363 143.203C197.323 142.925 197.204 142.647 197.006 142.449C196.847 142.251 196.569 142.092 196.331 142.092C195.816 142.052 195.34 142.449 195.181 142.925C195.022 143.401 195.102 143.877 195.3 144.313C195.498 144.71 195.776 145.027 196.093 145.305C196.728 145.781 197.442 145.98 197.998 146.059C198.553 146.138 199.029 146.138 199.307 146.138C199.465 146.138 199.545 146.138 199.664 146.138C199.783 146.178 199.822 146.178 199.822 146.178Z" fill="#455A64"/>
</svg>
