<svg width="183" height="187" viewBox="0 0 183 187" fill="none" xmlns="http://www.w3.org/2000/svg">
<path d="M158.196 87.2919C158.196 89.4892 156.421 91.2638 154.224 91.2638C152.027 91.2638 150.252 89.4892 150.252 87.2919C150.252 85.0947 152.027 83.3201 154.224 83.3201C156.421 83.2778 158.196 85.0525 158.196 87.2919Z" fill="#EBEBEB"/>
<path d="M145.414 90.2891C147.081 88.6225 147.081 85.9204 145.414 84.2538C143.748 82.5872 141.046 82.5872 139.379 84.2538C137.712 85.9204 137.712 88.6225 139.379 90.2891C141.046 91.9557 143.748 91.9558 145.414 90.2891Z" fill="#EBEBEB"/>
<path d="M133.265 84.2924C135.762 84.2924 137.786 82.2682 137.786 79.7712C137.786 77.2742 135.762 75.25 133.265 75.25C130.768 75.25 128.744 77.2742 128.744 79.7712C128.744 82.2682 130.768 84.2924 133.265 84.2924Z" fill="#EBEBEB"/>
<path d="M136.036 69.038C136.494 66.4884 134.798 64.0504 132.249 63.5927C129.699 63.135 127.261 64.8309 126.803 67.3805C126.346 69.9302 128.042 72.3681 130.591 72.8258C133.141 73.2835 135.579 71.5877 136.036 69.038Z" fill="#EBEBEB"/>
<path d="M137.195 62.9538C139.879 62.9538 142.054 60.7782 142.054 58.0946C142.054 55.4109 139.879 53.2354 137.195 53.2354C134.511 53.2354 132.336 55.4109 132.336 58.0946C132.336 60.7782 134.511 62.9538 137.195 62.9538Z" fill="#EBEBEB"/>
<path d="M150.325 59.0034C153.038 57.8696 154.318 54.7511 153.184 52.038C152.051 49.325 148.932 48.0447 146.219 49.1785C143.506 50.3123 142.226 53.4308 143.36 56.1439C144.493 58.857 147.612 60.1372 150.325 59.0034Z" fill="#EBEBEB"/>
<path d="M166.751 80.5356C167.237 78.4683 165.956 76.3984 163.888 75.9123C161.821 75.4262 159.751 76.708 159.265 78.7753C158.779 80.8427 160.061 82.9126 162.128 83.3987C164.195 83.8848 166.265 82.6029 166.751 80.5356Z" fill="#EBEBEB"/>
<path d="M166.368 71.4279C168.221 70.7186 169.147 68.6419 168.438 66.7894C167.729 64.9369 165.652 64.0102 163.799 64.7196C161.947 65.4289 161.02 67.5056 161.73 69.3581C162.439 71.2106 164.516 72.1372 166.368 71.4279Z" fill="#EBEBEB"/>
<path d="M162.357 58.4816C162.644 56.7079 161.439 55.0372 159.665 54.7501C157.892 54.4629 156.221 55.668 155.934 57.4417C155.647 59.2155 156.852 60.8861 158.626 61.1732C160.399 61.4604 162.07 60.2553 162.357 58.4816Z" fill="#EBEBEB"/>
<path fill-rule="evenodd" clip-rule="evenodd" d="M43.7287 38.7392C44.7005 39.7956 45.5456 40.9364 46.1794 42.204H50.109L51.5879 48.5421L48.0386 50.2745C47.9963 51.6689 47.7428 53.1056 47.3203 54.4577L50.109 57.2465L46.6442 62.7817L42.9259 61.4718C41.8695 62.4437 40.7286 63.2888 39.461 63.9226V67.8522L33.1229 69.3311L31.3905 65.7817C29.9961 65.7395 28.5595 65.486 27.2074 65.0634L24.4186 67.8522L18.8833 64.3874L20.1932 60.669C19.2214 59.6127 18.3763 58.4718 17.7425 57.2042H13.8129L12.334 50.8661L15.8833 49.1337C15.9256 47.7393 16.1791 46.3027 16.6016 44.9505L13.8129 42.1618L17.2777 36.6265L20.996 37.9364C22.0524 36.9645 23.1933 36.1195 24.4609 35.4857V31.556L30.799 30.0771L32.5314 33.6265C33.9258 33.6687 35.3624 33.9223 36.7145 34.3448L39.5033 31.556L45.0386 35.0209L43.7287 38.7392ZM35.954 43.9365C32.7004 41.9083 28.3482 42.8801 26.32 46.1759C24.2919 49.4295 25.2637 53.7816 28.5595 55.8098C31.8553 57.838 36.1652 56.8662 38.1934 53.5704C40.2216 50.3168 39.2075 46.0069 35.954 43.9365Z" fill="#E0E0E0"/>
<path fill-rule="evenodd" clip-rule="evenodd" d="M47.5365 12.0393C48.0858 12.6309 48.5506 13.2647 48.8886 13.9408H51.0858L51.8887 17.4479L49.945 18.3774C49.9027 19.138 49.776 19.9408 49.5647 20.7014L51.1281 22.2226L49.2267 25.2648L47.1562 24.5465C46.5647 25.0958 45.9308 25.5606 45.2548 25.8986V28.0959L41.7477 28.8987L40.8181 26.9127C40.0575 26.8705 39.2547 26.7437 38.4941 26.5325L36.973 28.0959L33.9307 26.1944L34.649 24.124C34.0997 23.5324 33.6349 22.8986 33.2969 22.2226H31.0997L30.2969 18.7155L32.2828 17.7859C32.3251 17.0253 32.4518 16.2225 32.6631 15.4619L31.0997 13.9408L33.0011 10.8985L35.0716 11.6168C35.6631 11.0675 36.2969 10.6027 36.973 10.2647V8.06747L40.4801 7.26465L41.4097 9.25059C42.1702 9.29284 42.9731 9.4196 43.7336 9.63087L45.2548 8.06747L48.2971 9.9689L47.5365 12.0393ZM43.2688 14.9126C41.4519 13.7718 39.0857 14.3211 37.9448 16.138C36.804 17.9549 37.3533 20.3211 39.1702 21.462C40.9871 22.6028 43.3534 22.0535 44.4942 20.2366C45.6351 18.4619 45.0858 16.0535 43.2688 14.9126Z" fill="#E0E0E0"/>
<path d="M16.9402 18.5504C16.9402 18.5504 17.0247 18.5927 17.1093 18.6349C17.236 18.7194 17.3628 18.8039 17.574 19.0152C17.9121 19.3532 18.3769 19.987 18.4614 20.9166C18.5036 21.3814 18.4614 21.8885 18.2501 22.3955C18.0388 22.9026 17.7431 23.4096 17.236 23.7477C16.9825 23.9589 16.729 24.0857 16.4332 24.2124C16.1374 24.3392 15.7994 24.4237 15.5036 24.4237C14.8275 24.466 14.1515 24.297 13.5599 23.9589C12.9684 23.5786 12.5036 23.0293 12.2923 22.3955C12.1655 22.0997 12.081 21.7617 12.081 21.4659C12.0388 21.1702 12.081 20.8321 12.1655 20.5364C12.2923 19.9448 12.5881 19.4377 12.9684 19.0152C13.3486 18.6349 13.7712 18.3391 14.1937 18.2124C15.0388 17.9166 15.8416 18.0011 16.3064 18.1701C16.56 18.2546 16.729 18.3391 16.8135 18.4237C16.898 18.5082 16.9402 18.5504 16.9402 18.5504C16.9402 18.5504 16.6867 18.4237 16.2219 18.2546C15.7571 18.1279 14.9966 18.0011 14.1937 18.3391C13.7712 18.5082 13.3909 18.7617 13.0106 19.142C12.6726 19.5223 12.3768 20.0293 12.2923 20.5786C12.25 20.8744 12.2078 21.1702 12.25 21.4659C12.25 21.7617 12.3346 22.0575 12.4613 22.3533C12.6726 22.9448 13.1374 23.4519 13.6867 23.7899C14.236 24.1279 14.912 24.297 15.5036 24.2547C15.7994 24.2547 16.0952 24.1702 16.3909 24.0434C16.6867 23.9167 16.9402 23.7899 17.1515 23.6209C17.6163 23.2829 17.9121 22.8181 18.1233 22.3533C18.3346 21.8885 18.3769 21.3814 18.3346 20.9589C18.2501 20.0716 17.8276 19.4377 17.5318 19.0997C17.1938 18.7194 16.9402 18.5504 16.9402 18.5504Z" fill="#E0E0E0"/>
<path d="M20.4505 16.2258C20.4505 16.2258 20.4505 16.1835 20.4928 16.099C20.535 16.0145 20.535 15.93 20.5773 15.761C20.6618 15.4652 20.8308 15.0427 20.9998 14.4934V14.5356C20.366 14.1553 19.5209 13.606 18.5068 13.0145H18.5491C18.1688 13.3948 17.7463 13.8173 17.3237 14.2821L17.2815 14.3243H17.2392C16.6899 14.1553 16.0561 14.0286 15.38 14.0286H15.3378V13.9863C15.0843 13.4793 14.8307 12.9722 14.5772 12.3807L14.6617 12.4229C13.7744 12.6342 12.8026 12.8455 11.8307 13.099L11.873 13.0145C11.873 13.5638 11.873 14.1553 11.873 14.7891V14.8314L11.8307 14.8737C11.3237 15.1272 10.7744 15.5075 10.3096 15.9723L10.2673 16.0145H10.2251C9.71802 15.8455 9.12646 15.6342 8.57716 15.423L8.66167 15.3807C8.15462 16.1413 7.64757 16.9863 7.09827 17.8737V17.7469C7.47856 18.1272 7.9011 18.5497 8.36589 18.9723L8.40814 19.0145V19.0568C8.23913 19.6061 8.11237 20.2399 8.11237 20.916V20.9582L8.07011 21.0005C7.56307 21.254 7.01376 21.5075 6.46446 21.761L6.50672 21.6343C6.71799 22.5216 6.92925 23.4935 7.18278 24.4653L7.09827 24.3808C7.64757 24.3808 8.23913 24.3808 8.87294 24.3808H8.91519L8.95745 24.423C9.25322 24.9723 9.59125 25.4794 10.056 25.9442C10.056 25.9864 10.056 25.8597 10.0983 26.0287V26.071V26.1132L10.056 26.1977L9.97154 26.409L9.84478 26.8315C9.76027 27.1273 9.63351 27.3808 9.549 27.6766L9.50675 27.5498C10.3518 28.0569 11.1547 28.6062 11.9997 29.1132H11.873C12.2955 28.6907 12.7181 28.2682 13.0983 27.8456L13.1406 27.8034H13.1828C13.7744 27.9724 14.4082 28.0991 15.042 28.0991H15.0843L15.1265 28.1414C15.38 28.6907 15.6336 29.1977 15.8871 29.747L15.7603 29.7048C16.7322 29.4935 17.704 29.2823 18.5914 29.071L18.5068 29.1555C18.5068 28.5639 18.5068 27.9724 18.5068 27.3808V27.3386L18.5491 27.2963C19.0984 27.0005 19.6477 26.6203 20.0702 26.1977L20.1125 26.1555H20.1547C20.7463 26.3667 21.2956 26.5357 21.8027 26.747L21.7181 26.7893C22.2674 25.9019 22.7745 25.0991 23.2815 24.2963V24.3808C22.859 23.9583 22.4365 23.5357 22.0139 23.1132L21.9717 23.0709V23.0287C22.1829 22.3949 22.2674 21.761 22.3097 21.1695V21.1272H22.352C22.9435 20.8315 23.4506 20.6202 23.9576 20.3667L23.9153 20.4512C23.6618 19.3526 23.4506 18.423 23.2815 17.5779L23.3238 17.6202C22.6055 17.6202 22.0562 17.6202 21.5491 17.6202C21.2534 17.0709 20.9576 16.6483 20.7886 16.437C20.704 16.3103 20.6195 16.2258 20.5773 16.1835C20.4505 16.2258 20.4505 16.2258 20.4505 16.2258C20.4505 16.2258 20.4928 16.268 20.535 16.3103C20.5773 16.3525 20.6618 16.437 20.7886 16.5638C20.9998 16.8173 21.2956 17.1976 21.5914 17.7469H21.5491C22.0139 17.7469 22.6055 17.7469 23.3238 17.7469H23.366V17.7892C23.5351 18.592 23.7886 19.5216 24.0421 20.6202V20.6624H23.9999C23.4928 20.916 22.9858 21.1695 22.3942 21.423L22.4365 21.3808C22.4365 21.9723 22.3097 22.6061 22.1407 23.2822V23.1977C22.521 23.578 22.9435 24.0005 23.4083 24.423L23.4506 24.4653L23.4083 24.5076C22.9013 25.3104 22.3942 26.1132 21.8449 27.0005L21.8027 27.0428L21.7604 27.0005C21.2111 26.8315 20.6618 26.6203 20.1125 26.409H20.197C19.7322 26.8315 19.2252 27.2118 18.6336 27.5498L18.6759 27.4653C18.6759 28.0569 18.6759 28.6484 18.6759 29.24V29.3245H18.5914C17.6618 29.5358 16.7322 29.747 15.7603 30.0006H15.6758L15.6336 29.9161C15.38 29.409 15.1265 28.8597 14.873 28.3104L14.9575 28.3527C14.3237 28.3527 13.6899 28.2259 13.0561 28.0146L13.1406 27.9724C12.718 28.3949 12.2955 28.8175 11.9152 29.24L11.873 29.2823L11.7885 29.24C10.9856 28.733 10.1406 28.2259 9.29548 27.6766L9.21097 27.6343L9.25322 27.5498C9.33773 27.2541 9.46449 27.0005 9.549 26.7048L9.67576 26.2822L9.76027 26.071L9.80252 25.9864V25.9442V25.9019C9.84478 26.1132 9.80252 25.9442 9.80252 25.9864C9.33773 25.5217 8.95745 24.9723 8.66167 24.423L8.74618 24.4653C8.15462 24.4653 7.52081 24.4653 6.97151 24.4653H6.887V24.3808C6.67573 23.409 6.42221 22.4371 6.21094 21.5498V21.4653L6.29545 21.423C6.84475 21.1695 7.39405 20.916 7.9011 20.6624L7.85884 20.747C7.9011 20.0709 7.9856 19.4371 8.19687 18.8455L8.23913 18.93C7.81659 18.5075 7.39405 18.085 6.97151 17.7047L6.92926 17.6624L6.97151 17.6202C7.52081 16.7751 8.02786 15.93 8.53491 15.1272L8.57716 15.0849L8.66167 15.1272C9.25322 15.3384 9.80253 15.5497 10.3096 15.7187H10.2251C10.7321 15.2539 11.2814 14.8737 11.7885 14.6201L11.7462 14.7046C11.7462 14.0708 11.7462 13.4793 11.7462 12.93V12.8877H11.7885C12.8026 12.6764 13.7321 12.4229 14.6195 12.2539H14.6617L14.704 12.2962C14.9575 12.8455 15.211 13.3948 15.4646 13.9018L15.4223 13.8596C16.0984 13.9018 16.7322 13.9863 17.3237 14.1976H17.2815C17.7463 13.7328 18.1688 13.3103 18.5491 12.93L18.5914 12.8877L18.6336 12.93C19.6477 13.5638 20.4505 14.1131 21.0843 14.4934H21.1266V14.5356C20.9153 15.0849 20.7886 15.4652 20.6618 15.761C20.6195 15.8877 20.5773 16.0145 20.535 16.099C20.4505 16.1835 20.4505 16.2258 20.4505 16.2258Z" fill="#E0E0E0"/>
<path d="M121.62 0.383974L109.197 0.341719C107.549 0.341719 106.155 1.7361 106.155 3.46851V5.70797C106.155 7.44039 104.803 8.83477 103.113 8.83477L78.901 8.70801C77.2531 8.70801 75.901 7.27137 75.901 5.53896V3.2995C75.901 1.56708 74.5488 0.130449 72.9009 0.130449H68.5488L57.6473 0.0881957C52.2387 0.0459417 47.8443 4.3981 47.8443 9.80661L47.1683 166.611C47.126 172.02 51.5204 176.414 56.8867 176.414L120.817 176.71C126.225 176.752 130.62 172.358 130.62 166.991L131.296 10.1869C131.338 4.77839 126.986 0.383974 121.62 0.383974Z" fill="white"/>
<path d="M121.619 0.385474C121.619 0.385474 121.746 0.385474 121.957 0.385474C122.169 0.427728 122.507 0.385474 122.929 0.469982C123.774 0.596744 125.127 0.850268 126.605 1.7376C127.366 2.16014 128.127 2.79395 128.845 3.55452C129.563 4.31509 130.239 5.32919 130.704 6.47004C131.169 7.65316 131.422 9.00528 131.422 10.4419C131.422 11.8786 131.422 13.442 131.422 15.0476C131.38 28.0618 131.296 46.9071 131.211 70.189C131.127 93.471 131 121.19 130.873 151.993C130.873 155.838 130.831 159.725 130.831 163.697C130.831 164.669 130.831 165.683 130.831 166.655C130.831 167.627 130.746 168.683 130.451 169.613C130.155 170.584 129.774 171.514 129.183 172.359C128.634 173.204 127.915 173.965 127.155 174.599C125.549 175.866 123.563 176.669 121.535 176.754C121.028 176.796 120.521 176.796 120.014 176.796H118.493C117.479 176.796 116.464 176.796 115.408 176.796C111.309 176.796 107.126 176.754 102.943 176.754C94.5769 176.711 86.0416 176.669 77.3796 176.627C73.0697 176.627 68.7175 176.585 64.3231 176.585C62.1259 176.585 59.9287 176.585 57.7315 176.542C55.5343 176.627 53.2103 176.035 51.3934 174.768C49.5342 173.5 48.1821 171.556 47.5483 169.401C47.2102 168.345 47.168 167.204 47.168 166.106C47.168 165.007 47.168 163.908 47.168 162.81C47.168 158.415 47.2102 154.063 47.2102 149.753C47.2525 141.091 47.2947 132.556 47.337 124.19C47.4215 107.415 47.4638 91.2738 47.5483 75.8933C47.6328 60.5129 47.675 45.8507 47.7595 32.1605C47.8018 25.3153 47.8018 18.7237 47.844 12.3433C47.844 11.5405 47.844 10.7377 47.844 9.97713C47.844 9.59684 47.8863 9.1743 47.8863 8.79401C47.9708 8.41373 47.9708 7.99119 48.0976 7.65316C48.4778 6.13201 49.1539 4.69538 50.168 3.51227C51.1821 2.32916 52.4075 1.44182 53.8018 0.808014C55.1962 0.174204 56.6751 -0.0370662 58.154 0.00518779C61.0695 0.00518779 63.9005 0.0474427 66.6893 0.0474427C68.0837 0.0474427 69.4358 0.0474427 70.7879 0.0474427C71.464 0.0474427 72.1401 0.0474427 72.8161 0.0474427C73.4922 0.00518875 74.1683 0.216458 74.7176 0.596744C75.2669 0.97703 75.6894 1.52633 75.9007 2.16014C76.1542 2.79395 76.0697 3.47001 76.0697 4.10382C76.0697 4.44185 76.0697 4.73763 76.0697 5.07566C76.0697 5.4137 76.0697 5.70947 76.1119 6.00525C76.1964 6.59681 76.45 7.18836 76.8303 7.65316C77.2105 8.11795 77.7598 8.45598 78.3091 8.58274C78.6049 8.66725 78.9007 8.66725 79.1965 8.66725C79.4923 8.66725 79.788 8.66725 80.0838 8.66725C81.2669 8.66725 82.45 8.66725 83.6331 8.66725C88.2388 8.70951 92.5487 8.70951 96.5206 8.75176C98.5065 8.75176 100.408 8.79401 102.183 8.79401C102.647 8.79401 103.07 8.83627 103.535 8.79401C103.957 8.75176 104.38 8.58274 104.718 8.37147C105.436 7.90668 105.943 7.18836 106.112 6.38554C106.197 6.00525 106.197 5.58271 106.197 5.20243C106.197 4.82214 106.197 4.3996 106.197 4.01931C106.197 3.63903 106.197 3.25874 106.239 2.87846C106.324 2.49817 106.45 2.16014 106.619 1.82211C106.957 1.1883 107.549 0.681252 108.183 0.469982C108.817 0.174205 109.493 0.300967 110.126 0.258713C112.619 0.258713 114.732 0.300966 116.464 0.300966C118.197 0.300966 119.465 0.343219 120.352 0.343219C121.155 0.385473 121.619 0.385474 121.619 0.385474C121.619 0.385474 121.155 0.385474 120.31 0.385474C119.422 0.385474 118.112 0.385474 116.422 0.385474C114.69 0.385474 112.577 0.385474 110.084 0.385474C109.45 0.385474 108.774 0.300966 108.183 0.596744C107.549 0.850268 107 1.31506 106.662 1.94887C106.493 2.24465 106.366 2.62493 106.281 2.96297C106.197 3.34325 106.239 3.72354 106.239 4.10382C106.239 4.48411 106.239 4.86439 106.239 5.28693C106.239 5.66722 106.239 6.08976 106.155 6.5123C105.985 7.31512 105.478 8.0757 104.718 8.54049C104.338 8.75176 103.915 8.92078 103.493 8.96303C103.028 9.00528 102.605 8.96303 102.14 8.96303C100.323 8.96303 98.422 8.96303 96.4784 8.92078C92.5065 8.92078 88.1966 8.87852 83.5909 8.87852C82.45 8.87852 81.2669 8.87852 80.0416 8.87852C79.7458 8.87852 79.45 8.87852 79.1542 8.87852C78.8584 8.87852 78.5204 8.87852 78.2246 8.79401C77.6331 8.625 77.0838 8.28697 76.6612 7.82217C76.2387 7.35738 75.9852 6.72357 75.9007 6.08976C75.8584 5.75173 75.8584 5.45595 75.8584 5.11792C75.8584 4.82214 75.8584 4.48411 75.8584 4.14608C75.8584 3.51227 75.9007 2.87846 75.6894 2.2869C75.4781 1.69535 75.0978 1.14605 74.5485 0.808014C73.9992 0.427728 73.3654 0.258712 72.7316 0.300966C72.0556 0.300966 71.3795 0.300966 70.7034 0.300966C69.3513 0.300966 67.9992 0.300966 66.6048 0.300966C63.816 0.300966 60.985 0.258713 58.0695 0.258713C56.6329 0.216459 55.154 0.427727 53.8018 1.06154C52.4497 1.65309 51.2244 2.58268 50.2525 3.72354C49.2807 4.86439 48.5623 6.30103 48.2243 7.77992C48.1398 8.1602 48.0976 8.54049 48.013 8.92078C47.9708 9.30106 47.9708 9.68135 47.9708 10.1039C47.9708 10.9067 47.9708 11.6673 47.9708 12.4701C47.9285 18.8082 47.9285 25.4421 47.8863 32.2872C47.844 45.9775 47.7595 60.5974 47.7173 76.0201C47.675 91.4005 47.5905 107.584 47.506 124.316C47.4637 132.683 47.4215 141.218 47.3792 149.88C47.3792 154.19 47.337 158.584 47.337 162.936C47.337 164.035 47.337 165.134 47.337 166.232C47.337 167.331 47.3792 168.43 47.7173 169.486C48.3511 171.599 49.661 173.458 51.4779 174.725C53.2948 175.993 55.492 176.585 57.6892 176.458C59.8864 176.458 62.0836 176.458 64.2808 176.5C68.6752 176.5 73.0274 176.542 77.3373 176.542C85.9994 176.585 94.4924 176.627 102.901 176.669C107.084 176.669 111.225 176.711 115.366 176.711C116.38 176.711 117.436 176.711 118.45 176.711H119.972C120.479 176.711 120.986 176.711 121.493 176.669C123.521 176.585 125.465 175.782 127.028 174.556C127.789 173.923 128.465 173.162 129.014 172.359C129.563 171.556 129.986 170.627 130.239 169.655C130.535 168.725 130.62 167.711 130.62 166.739C130.62 165.768 130.62 164.753 130.62 163.782C130.62 159.852 130.662 155.965 130.662 152.077C130.789 121.274 130.915 93.5555 131.042 70.2735C131.169 46.9916 131.253 28.1463 131.296 15.1321C131.296 13.4842 131.296 11.9631 131.338 10.5264C131.38 9.08979 131.127 7.73766 130.62 6.59681C130.155 5.45595 129.479 4.48411 128.803 3.68128C128.084 2.92071 127.324 2.2869 126.605 1.86436C125.127 0.97703 123.817 0.681251 122.972 0.554489C122.549 0.469981 122.211 0.469982 122 0.469982C121.704 0.385474 121.619 0.385474 121.619 0.385474Z" fill="#212121"/>
<path d="M110.112 49.7308L109.141 48.5899L112.014 47.0688L98.7462 42.5898L103.225 55.435L104.873 53.2801C104.873 53.2801 113.451 68.407 104.873 77.5761C96.3377 86.703 86.2812 84.717 86.2812 84.717L88.2249 91.0551C88.2249 91.0551 104.028 92.196 112.521 77.8719C120.972 63.5901 110.112 49.7308 110.112 49.7308Z" fill="#462682"/>
<path d="M70.3074 81.4211L71.2792 82.562L68.406 84.0831L81.6737 88.562L77.1948 75.7168L75.5469 77.8718C75.5469 77.8718 66.9693 62.7449 75.5469 53.5758C84.0822 44.4489 94.1386 46.4348 94.1386 46.4348L92.1949 40.0967C92.1949 40.0967 76.392 38.9559 67.8989 53.28C59.4481 67.5618 70.3074 81.4211 70.3074 81.4211Z" fill="#462682"/>
<path d="M110.112 49.7308L109.141 48.5899L112.014 47.0688L98.7462 42.5898L103.225 55.435L104.873 53.2801C104.873 53.2801 113.451 68.407 104.873 77.5761C96.3377 86.703 86.2812 84.717 86.2812 84.717L88.2249 91.0551C88.2249 91.0551 104.028 92.196 112.521 77.8719C120.972 63.5901 110.112 49.7308 110.112 49.7308Z" fill="#462682"/>
<path d="M70.3074 81.4211L71.2792 82.562L68.406 84.0831L81.6737 88.562L77.1948 75.7168L75.5469 77.8718C75.5469 77.8718 66.9693 62.7449 75.5469 53.5758C84.0822 44.4489 94.1386 46.4348 94.1386 46.4348L92.1949 40.0967C92.1949 40.0967 76.392 38.9559 67.8989 53.28C59.4481 67.5618 70.3074 81.4211 70.3074 81.4211Z" fill="#462682"/>
<g opacity="0.8">
<path d="M110.112 49.7308L109.141 48.5899L112.014 47.0688L98.7462 42.5898L103.225 55.435L104.873 53.2801C104.873 53.2801 113.451 68.407 104.873 77.5761C96.3377 86.703 86.2812 84.717 86.2812 84.717L88.2249 91.0551C88.2249 91.0551 104.028 92.196 112.521 77.8719C120.972 63.5901 110.112 49.7308 110.112 49.7308Z" fill="white"/>
</g>
<g opacity="0.8">
<path d="M70.3074 81.4211L71.2792 82.562L68.406 84.0831L81.6737 88.562L77.1948 75.7168L75.5469 77.8718C75.5469 77.8718 66.9693 62.7449 75.5469 53.5758C84.0822 44.4489 94.1386 46.4348 94.1386 46.4348L92.1949 40.0967C92.1949 40.0967 76.392 38.9559 67.8989 53.28C59.4481 67.5618 70.3074 81.4211 70.3074 81.4211Z" fill="white"/>
</g>
<path fill-rule="evenodd" clip-rule="evenodd" d="M97.765 58.1C98.3989 58.776 98.9482 59.5366 99.3707 60.3394H101.906L102.836 64.4381L100.554 65.5367C100.512 66.4663 100.385 67.3536 100.089 68.2409L101.906 70.0156L99.6665 73.6072L97.258 72.7621C96.5819 73.3959 95.8214 73.9452 95.0185 74.3678V76.903L90.9199 77.8326L89.8213 75.5509C88.8917 75.5086 88.0044 75.3819 87.117 75.0861L85.3424 76.903L81.7508 74.6635L82.5959 72.2551C81.9621 71.579 81.4128 70.8184 80.9902 70.0156H78.455L77.5254 65.917L79.8071 64.8184C79.8494 63.8888 79.9761 63.0014 80.2719 62.1141L78.455 60.3394L80.6944 56.7479L83.1029 57.5929C83.779 56.9591 84.5395 56.4098 85.3424 55.9873V53.452L89.441 52.5225L90.5396 54.8042C91.4692 54.8464 92.3565 54.9732 93.2439 55.269L95.0185 53.452L98.6101 55.6915L97.765 58.1ZM92.7368 61.438C90.6241 60.1282 87.8354 60.762 86.4832 62.8747C85.1734 64.9874 85.8072 67.7761 87.9199 69.1283C90.0326 70.4381 92.8213 69.8043 94.1735 67.6916C95.4833 65.5789 94.8495 62.7902 92.7368 61.438Z" fill="#462682"/>
<g opacity="0.6">
<path fill-rule="evenodd" clip-rule="evenodd" d="M92.7529 61.4359C90.6403 60.126 87.8515 60.7598 86.4994 62.8725C85.1895 64.9852 85.8233 67.774 87.936 69.1261C90.0487 70.436 92.8375 69.8022 94.1896 67.6895C95.4995 65.5768 94.8656 62.788 92.7529 61.4359Z" fill="white"/>
</g>
<path d="M76.4375 107.322V104.618H76.9445V107.322C76.9445 108.463 77.4516 108.97 78.3812 108.97C79.3108 108.97 79.8178 108.463 79.8178 107.322V104.618H80.3249V107.322C80.3249 108.675 79.6066 109.393 78.3812 109.393C77.1558 109.393 76.4375 108.675 76.4375 107.322Z" fill="#212121"/>
<path d="M85.5211 106.224C85.5211 107.238 84.8028 107.83 83.5774 107.83H82.3098V109.309H81.8027V104.576H83.5774C84.8028 104.618 85.5211 105.21 85.5211 106.224ZM85.014 106.224C85.014 105.464 84.507 105.041 83.5774 105.041H82.3098V107.407H83.5774C84.507 107.407 85.014 106.985 85.014 106.224Z" fill="#212121"/>
<path d="M86.6211 104.618H88.5648C90.0859 104.618 91.1 105.59 91.1 106.984C91.1 108.379 90.0859 109.351 88.5648 109.351H86.6211V104.618ZM88.4803 108.886C89.7479 108.886 90.5507 108.083 90.5507 106.942C90.5507 105.801 89.7479 104.998 88.4803 104.998H87.0859V108.844H88.4803V108.886Z" fill="#212121"/>
<path d="M95.0699 108.083H92.4502L91.9009 109.351H91.3516L93.5065 104.618H94.0136L96.1685 109.351H95.6615L95.0699 108.083ZM94.9009 107.66L93.76 105.125L92.6192 107.66H94.9009Z" fill="#212121"/>
<path d="M97.6518 105.041H96.0039V104.618H99.8068V105.041H98.1589V109.351H97.6518V105.041Z" fill="#212121"/>
<path d="M103.945 108.886V109.309H100.607V104.576H103.861V104.999H101.072V106.689H103.523V107.111H101.072V108.886H103.945Z" fill="#212121"/>
<path d="M125.278 15.5871C125.278 15.6294 123.546 15.6716 121.433 15.7139C119.32 15.7139 117.588 15.7139 117.588 15.6716C117.588 15.6294 119.32 15.5871 121.433 15.5448C123.588 15.5026 125.278 15.5448 125.278 15.5871Z" fill="#212121"/>
<path d="M125.323 17.5335C125.323 17.5757 123.591 17.618 121.478 17.6602C119.365 17.6602 117.633 17.6602 117.633 17.618C117.633 17.5757 119.365 17.5335 121.478 17.4912C123.591 17.4912 125.323 17.4912 125.323 17.5335Z" fill="#212121"/>
<path d="M125.323 19.4729C125.323 19.5152 123.591 19.5574 121.478 19.5997C119.365 19.5997 117.633 19.5997 117.633 19.5574C117.633 19.5152 119.365 19.4729 121.478 19.4307C123.633 19.4307 125.323 19.4307 125.323 19.4729Z" fill="#212121"/>
<path d="M55.6887 21.7129C55.6887 21.7129 55.731 21.7129 55.8578 21.7129C55.9845 21.7129 56.1113 21.7129 56.2803 21.7129C56.7028 21.7129 57.2521 21.6706 57.9282 21.6706L57.8859 21.7129C57.8859 21.3326 57.8859 20.9523 57.8859 20.5298C57.8859 20.3185 57.8859 20.1072 57.8859 19.8537C57.9282 19.6002 58.1395 19.3889 58.4352 19.3466C58.6888 19.3466 58.9423 19.3466 59.1958 19.3466C59.4916 19.3889 59.7451 19.6847 59.7451 19.9804C59.7451 20.5297 59.7451 21.1213 59.7451 21.7129L59.6606 21.6284C60.3367 21.6284 61.0127 21.6284 61.7311 21.6284L61.6465 21.7129C61.6465 20.8678 61.6466 20.0227 61.6043 19.1354C61.6043 18.9241 61.6043 18.7128 61.6043 18.5016C61.6043 18.2903 61.4775 18.1635 61.3085 17.9945C61.0127 17.6987 60.717 17.403 60.4212 17.1072C60.1254 16.8114 59.8296 16.5156 59.5338 16.2621C59.4071 16.1353 59.2381 15.9663 59.1113 15.8396C58.9845 15.7128 58.8578 15.5438 58.6888 15.5015C58.5198 15.4593 58.3507 15.5015 58.224 15.586C58.0972 15.6705 57.9705 15.8396 57.8437 15.9663C57.5902 16.2198 57.3366 16.4734 57.1254 16.7269C56.6606 17.1917 56.1958 17.6565 55.8155 18.079C55.6465 18.2903 55.731 18.5861 55.731 18.8396C55.731 19.0931 55.731 19.3466 55.731 19.5579C55.731 20.0227 55.731 20.403 55.731 20.741C55.731 21.0368 55.731 21.2903 55.731 21.5016C55.731 21.6284 55.731 21.7129 55.6887 21.7129C55.6887 21.7129 55.6887 21.6284 55.6887 21.4593C55.6887 21.2481 55.6887 21.0368 55.6887 20.741C55.6887 20.403 55.6887 20.0227 55.6465 19.5579C55.6465 19.3044 55.6465 19.0931 55.6465 18.7973C55.6465 18.6706 55.6465 18.5438 55.6465 18.3748C55.6465 18.248 55.6887 18.079 55.7732 17.9523C56.1535 17.4875 56.6183 17.0649 57.0831 16.5579C57.3366 16.3044 57.5479 16.0508 57.8014 15.7973C57.9282 15.6705 58.055 15.5438 58.1817 15.417C58.3507 15.2903 58.562 15.248 58.7733 15.2903C58.9845 15.3325 59.1536 15.5015 59.2803 15.6283C59.4071 15.7551 59.5761 15.9241 59.7029 16.0508C59.9986 16.3466 60.2944 16.6001 60.5902 16.8959C60.886 17.1917 61.1818 17.4875 61.4775 17.7832C61.562 17.8678 61.6465 17.91 61.6888 18.0368C61.7733 18.1213 61.7733 18.248 61.8156 18.3748C61.8156 18.5861 61.8156 18.7973 61.8156 19.0509C61.8156 19.9382 61.8156 20.7833 61.8156 21.6284V21.7129H61.7311C61.0127 21.7129 60.3367 21.7129 59.6606 21.7129H59.5761V21.6284C59.5761 21.0368 59.5761 20.4452 59.5761 19.8959C59.5761 19.6424 59.4071 19.4311 59.1536 19.3889C58.9 19.3889 58.6465 19.3889 58.393 19.3889C58.1817 19.3889 57.9704 19.6002 57.9282 19.7692C57.9282 19.9804 57.9282 20.234 57.9282 20.4452C57.9282 20.8678 57.9282 21.2481 57.9282 21.6284V21.6706H57.8859C57.2099 21.6706 56.6606 21.6706 56.238 21.6706C56.069 21.6706 55.9423 21.6706 55.8155 21.6706C55.7732 21.7129 55.6887 21.7129 55.6887 21.7129Z" fill="#212121"/>
<path d="M106.354 20.0662C106.354 20.1085 99.9312 20.193 91.9874 20.193C84.0437 20.193 77.6211 20.1507 77.6211 20.0662C77.6211 19.9817 84.0437 19.9395 91.9874 19.9395C99.9312 19.9395 106.354 19.9817 106.354 20.0662Z" fill="#212121"/>
<path d="M105.592 153.592H75.3801C71.535 153.592 68.4082 150.465 68.4082 146.62C68.4082 142.775 71.535 139.648 75.3801 139.648H105.592C109.437 139.648 112.564 142.775 112.564 146.62C112.606 150.465 109.479 153.592 105.592 153.592Z" fill="#462682"/>
<path d="M84.7617 147.634L85.0152 147.084C85.2688 147.296 85.6913 147.422 86.0716 147.422C86.4941 147.422 86.7054 147.296 86.7054 147.084C86.7054 146.493 84.8462 146.915 84.8462 145.69C84.8462 145.141 85.2688 144.676 86.1984 144.676C86.6209 144.676 87.0012 144.76 87.297 144.972L87.0857 145.521C86.7899 145.352 86.4941 145.267 86.1984 145.267C85.7758 145.267 85.6068 145.436 85.6068 145.648C85.6068 146.239 87.466 145.817 87.466 147C87.466 147.549 87.0012 148.014 86.1139 148.014C85.5645 148.014 85.0152 147.845 84.7617 147.634Z" fill="white"/>
<path d="M89.4522 147.845C89.3254 147.929 89.0719 148.014 88.8607 148.014C88.2691 148.014 87.9311 147.718 87.9311 147.127V146.113H87.5508V145.563H87.9311V144.972H88.6494V145.563H89.2832V146.113H88.6494V147.127C88.6494 147.338 88.7761 147.465 88.9452 147.465C89.0297 147.465 89.1564 147.422 89.2409 147.38L89.4522 147.845Z" fill="white"/>
<path d="M92.0303 146.535V147.93H91.3542V147.634C91.2275 147.845 90.9739 147.972 90.5936 147.972C90.0021 147.972 89.6641 147.634 89.6641 147.211C89.6641 146.789 89.9598 146.493 90.7204 146.493H91.2697C91.2697 146.197 91.1007 146.028 90.7204 146.028C90.4669 146.028 90.1711 146.113 90.0021 146.239L89.7486 145.732C90.0021 145.521 90.4246 145.437 90.8049 145.437C91.6077 145.437 92.0303 145.817 92.0303 146.535ZM91.3542 147.169V146.915H90.8472C90.5091 146.915 90.4246 147.042 90.4246 147.211C90.4246 147.38 90.5937 147.507 90.8472 147.507C91.0584 147.507 91.2697 147.422 91.3542 147.169Z" fill="white"/>
<path d="M94.2255 145.437V146.113C94.1832 146.113 94.141 146.113 94.0565 146.113C93.6762 146.113 93.3804 146.324 93.3804 146.789V147.972H92.6621V145.521H93.3382V145.859C93.5494 145.563 93.8452 145.437 94.2255 145.437Z" fill="white"/>
<path d="M96.3389 147.845C96.2122 147.929 95.9586 148.014 95.7474 148.014C95.1558 148.014 94.8178 147.718 94.8178 147.127V146.113H94.4375V145.563H94.8178V144.972H95.5361V145.563H96.1699V146.113H95.5361V147.127C95.5361 147.338 95.6629 147.465 95.8319 147.465C95.9164 147.465 96.0432 147.422 96.1277 147.38L96.3389 147.845Z" fill="white"/>
<path d="M119.197 120.462C119.197 120.504 106.225 120.588 90.2108 120.588C74.1966 120.588 61.2246 120.546 61.2246 120.462C61.2246 120.419 74.1966 120.335 90.2108 120.335C106.225 120.377 119.197 120.419 119.197 120.462Z" fill="#212121"/>
<path d="M107.663 124.012C107.663 124.055 99.8465 124.139 90.2126 124.139C80.5787 124.139 72.7617 124.097 72.7617 124.012C72.7617 123.97 80.5787 123.886 90.2126 123.886C99.8465 123.928 107.663 123.97 107.663 124.012Z" fill="#212121"/>
<path d="M27.4388 176.359L24.8613 185.867L33.2276 186.627L34.96 177.585L27.4388 176.359Z" fill="#462682"/>
<path d="M33.4219 185.864C33.4219 185.907 32.9571 185.864 32.1965 185.822C31.4359 185.78 30.4218 185.653 29.281 185.484C28.1824 185.357 27.1683 185.188 26.3655 185.104C25.6049 185.019 25.1401 184.935 25.1823 184.893C25.1823 184.85 25.6471 184.893 26.4077 184.935C27.1683 184.977 28.1824 185.104 29.3232 185.273C30.4218 185.4 31.3937 185.569 32.2388 185.653C32.9993 185.738 33.4219 185.822 33.4219 185.864Z" fill="#212121"/>
<g opacity="0.6">
<path d="M24.8613 185.869L33.2276 186.63L33.3544 185.954L25.1149 184.897L24.8613 185.785" fill="white"/>
</g>
<path d="M28.9957 185.446C28.9535 185.446 29.2915 183.798 29.7986 181.812C30.3056 179.826 30.7282 178.221 30.7704 178.221C30.8127 178.221 30.4746 179.869 29.9676 181.855C29.5028 183.84 29.0803 185.446 28.9957 185.446Z" fill="#212121"/>
<path d="M32.9666 185.784C32.9243 185.784 33.2201 185.108 32.9666 184.01C32.8398 183.502 32.544 182.869 32.037 182.362C31.5299 181.855 30.7694 181.474 29.9665 181.39C29.1215 181.305 28.3186 181.517 27.7271 181.897C27.1355 182.277 26.713 182.784 26.4172 183.291C25.8679 184.263 25.9524 184.981 25.9102 184.981C25.9102 184.981 25.9102 184.939 25.9102 184.855C25.9102 184.77 25.9102 184.643 25.9102 184.474C25.9524 184.179 26.0369 183.714 26.2904 183.207C26.544 182.7 26.9665 182.15 27.6003 181.728C28.2341 181.305 29.0792 181.094 29.9665 181.179C30.8539 181.263 31.6144 181.643 32.1637 182.193C32.713 182.742 32.9666 183.376 33.0933 183.925C33.2201 184.474 33.1778 184.939 33.0933 185.277C33.0511 185.446 33.0088 185.531 33.0088 185.615C33.0088 185.742 33.0088 185.784 32.9666 185.784Z" fill="#212121"/>
<path d="M61.8622 173.826L61.3129 182.277C61.3129 182.277 69.7214 185.065 69.7637 186.629L53.3691 186.755L53.7072 173.572L61.8622 173.826Z" fill="#462682"/>
<g opacity="0.6">
<path d="M56.2917 181.391C55.9537 181.475 55.7424 181.813 55.7847 182.151C55.8692 182.489 56.2072 182.7 56.503 182.658C56.841 182.574 57.0945 182.193 57.01 181.855C56.9255 181.56 56.4607 181.306 56.1649 181.433" fill="white"/>
</g>
<g opacity="0.6">
<path d="M53.3691 186.754L53.4114 185.444L69.2566 185.867C69.2566 185.867 69.7637 186.078 69.8482 186.754H53.3691Z" fill="white"/>
</g>
<path d="M61.5655 182.193C61.5655 182.277 61.143 182.277 60.7627 182.531C60.3402 182.785 60.1289 183.123 60.0866 183.08C60.0021 183.08 60.1289 182.573 60.6359 182.32C61.1007 182.024 61.6078 182.108 61.5655 182.193Z" fill="#212121"/>
<path d="M63.3023 182.956C63.3023 183.04 62.9643 183.167 62.6685 183.505C62.3727 183.843 62.2882 184.181 62.2037 184.181C62.1192 184.181 62.0769 183.716 62.4572 183.336C62.7952 182.913 63.3023 182.871 63.3023 182.956Z" fill="#212121"/>
<path d="M64.1821 185.026C64.0976 185.026 64.0131 184.646 64.2244 184.223C64.4357 183.801 64.816 183.632 64.8582 183.716C64.9005 183.801 64.6469 184.012 64.4779 184.35C64.3089 184.688 64.2666 185.026 64.1821 185.026Z" fill="#212121"/>
<path d="M61.475 180.248C61.4327 180.333 61.0947 180.206 60.6299 180.206C60.1651 180.206 59.8271 180.375 59.7848 180.29C59.7425 180.248 60.0806 179.952 60.6299 179.952C61.1792 179.91 61.5172 180.206 61.475 180.248Z" fill="#212121"/>
<path d="M61.5678 178.559C61.5678 178.602 61.2298 178.644 60.765 178.517C60.5115 178.475 60.2157 178.39 59.9199 178.221C59.7509 178.137 59.6241 178.052 59.4551 177.968C59.3706 177.926 59.2861 177.883 59.2016 177.757C59.1171 177.672 59.0748 177.461 59.1593 177.334C59.2439 177.207 59.4129 177.165 59.4974 177.165C59.6241 177.165 59.7086 177.207 59.7932 177.207C59.9622 177.25 60.1312 177.334 60.3002 177.419C60.596 177.588 60.8495 177.757 61.0608 177.926C61.4411 178.306 61.5678 178.602 61.5256 178.602C61.4833 178.644 61.3143 178.39 60.934 178.052C60.765 177.883 60.5115 177.757 60.2157 177.63C60.0889 177.588 59.9199 177.503 59.7509 177.461C59.5819 177.419 59.4129 177.419 59.3706 177.461C59.3706 177.503 59.3706 177.503 59.3706 177.545C59.4129 177.588 59.4551 177.63 59.5396 177.672C59.6664 177.757 59.8354 177.841 59.9622 177.926C60.2579 178.095 60.5115 178.179 60.765 178.264C61.272 178.475 61.5678 178.517 61.5678 178.559Z" fill="#212121"/>
<path d="M61.4828 178.644C61.4405 178.644 61.3137 178.348 61.2715 177.841C61.2715 177.588 61.3137 177.292 61.3982 176.954C61.4405 176.785 61.525 176.616 61.6095 176.447C61.694 176.278 61.8208 176.066 62.1588 176.066C62.3278 176.066 62.4546 176.193 62.4968 176.32C62.5391 176.447 62.5391 176.531 62.5814 176.616C62.6236 176.827 62.5814 176.996 62.5814 177.165C62.5391 177.503 62.3701 177.799 62.2011 178.01C61.863 178.433 61.525 178.517 61.525 178.475C61.4828 178.433 61.7785 178.306 62.0321 177.883C62.1588 177.672 62.2856 177.419 62.3278 177.123C62.3278 176.954 62.3701 176.827 62.3278 176.658C62.3278 176.489 62.2433 176.32 62.2011 176.362C62.1166 176.362 61.9898 176.489 61.9053 176.616C61.8208 176.742 61.7363 176.911 61.694 177.038C61.5673 177.334 61.525 177.63 61.525 177.841C61.4405 178.348 61.525 178.644 61.4828 178.644Z" fill="#212121"/>
<path d="M61.8692 100.559L36.8971 100.39L24.8125 179.7L35.207 181.01L48.4747 115.812L52.4466 181.221V181.433L63.6861 181.221L61.8692 100.559Z" fill="#212121"/>
<path d="M50.4998 106.982C50.4998 106.982 50.6688 106.982 51.0069 106.94C51.3871 106.94 51.8942 106.898 52.528 106.898C53.8801 106.855 55.7393 106.813 57.9365 106.729H58.021V106.813C58.021 108.376 58.021 110.151 58.021 112.01V112.053L57.9788 112.095C57.683 112.391 57.345 112.644 57.0492 112.94C56.0773 113.827 55.1477 114.672 54.2604 115.475L54.1759 115.56L54.0914 115.475C52.697 114.25 51.4717 113.151 50.4153 112.179L50.373 112.137V112.095C50.373 110.531 50.4153 109.222 50.4153 108.292C50.4153 107.869 50.4153 107.531 50.4576 107.278C50.4998 107.109 50.4998 106.982 50.4998 106.982C50.4998 106.982 50.4998 107.109 50.4998 107.362C50.4998 107.616 50.4998 107.954 50.5421 108.419C50.5421 109.348 50.5843 110.616 50.5843 112.179L50.5421 112.095C51.5984 113.024 52.866 114.165 54.2604 115.348H54.1336C55.021 114.545 55.9506 113.7 56.8802 112.813C57.2182 112.517 57.514 112.222 57.8097 111.968L57.7675 112.053C57.7675 110.193 57.7675 108.461 57.7675 106.855L57.852 106.94C55.6548 106.94 53.8379 106.982 52.528 106.982C51.8942 106.982 51.3871 106.982 51.0069 106.982C50.8378 106.982 50.7111 106.982 50.5843 106.982C50.5843 107.024 50.4998 106.982 50.4998 106.982Z" fill="#455A64"/>
<path d="M38.7528 106.643C38.7528 106.643 38.9218 106.643 39.2176 106.685C39.5556 106.727 40.0204 106.769 40.5697 106.812C41.7528 106.938 43.443 107.065 45.4289 107.234H45.5134V107.319C45.3444 108.84 45.1331 110.614 44.8796 112.474V112.516L44.8373 112.558C44.4993 112.812 44.119 113.107 43.781 113.403C42.8514 114.122 41.9641 114.84 41.119 115.516L41.0345 115.6L40.95 115.516C39.8936 114.164 38.8795 112.896 38.0344 111.84L37.9922 111.798V111.755C38.2035 110.192 38.3725 108.924 38.4992 107.995C38.5415 107.572 38.626 107.234 38.626 106.981C38.7105 106.769 38.7528 106.643 38.7528 106.643C38.7528 106.643 38.7528 106.769 38.7105 107.023C38.6682 107.276 38.6683 107.614 38.626 108.079C38.5415 109.009 38.3725 110.276 38.2035 111.798V111.713C39.0485 112.769 40.0626 113.995 41.119 115.347H40.95C41.795 114.671 42.6824 113.953 43.612 113.234C43.9923 112.938 44.3303 112.643 44.7106 112.389L44.6683 112.474C44.9218 110.614 45.1331 108.882 45.3021 107.319L45.3866 107.445C43.4429 107.234 41.795 107.023 40.6119 106.896C40.0626 106.812 39.5978 106.769 39.2598 106.727C38.9218 106.685 38.7528 106.643 38.7528 106.643Z" fill="#455A64"/>
<path d="M54.0528 118.685C54.0528 118.727 53.588 118.473 52.9119 118.135C52.2359 117.755 51.264 117.29 50.2077 116.741C49.1513 116.234 48.1795 115.769 47.4612 115.431C46.7429 115.093 46.3203 114.882 46.3203 114.839C46.3203 114.797 46.7851 114.966 47.5034 115.262C48.2217 115.558 49.1936 115.98 50.2499 116.53C51.3063 117.079 52.2359 117.586 52.9119 117.966C53.6725 118.389 54.0528 118.685 54.0528 118.685Z" fill="#455A64"/>
<path d="M53.7051 120.628C53.7051 120.67 53.3671 120.544 52.8601 120.29C52.353 120.036 51.677 119.614 51.0854 118.98C50.4516 118.389 50.0291 117.712 49.7755 117.205C49.522 116.698 49.4375 116.36 49.4375 116.36C49.522 116.318 50.0291 117.628 51.2544 118.811C52.4375 120.036 53.7474 120.544 53.7051 120.628Z" fill="#455A64"/>
<path d="M60.7608 143.529C60.7608 143.529 60.7608 143.698 60.634 143.952C60.5495 144.205 60.3805 144.586 60.127 145.008C59.6199 145.853 58.6058 146.91 57.2114 147.501C55.7748 148.093 54.3382 148.05 53.4086 147.839C52.9438 147.712 52.5635 147.586 52.31 147.501C52.0565 147.374 51.9297 147.29 51.9297 147.29C51.9297 147.248 52.479 147.543 53.4508 147.712C54.3804 147.881 55.7748 147.881 57.1692 147.29C58.5213 146.698 59.4931 145.726 60.0424 144.924C60.5495 144.121 60.7185 143.529 60.7608 143.529Z" fill="#455A64"/>
<path d="M59.1203 142.854C59.1203 142.896 58.7823 143.065 58.1485 143.277C57.5147 143.488 56.6696 143.657 55.6555 143.699C54.6837 143.742 53.7963 143.657 53.1625 143.573C52.5287 143.488 52.1484 143.361 52.1484 143.319C52.1484 143.235 53.7118 143.53 55.6555 143.488C56.6274 143.446 57.4724 143.319 58.1062 143.15C58.7401 142.981 59.1203 142.812 59.1203 142.854Z" fill="#455A64"/>
<path d="M40.569 143.32C40.569 143.32 40.2732 143.658 39.6817 144.123C39.0901 144.546 38.245 145.095 37.1887 145.475C36.1323 145.856 35.1605 146.025 34.3999 146.067C33.6816 146.109 33.2168 146.067 33.2168 146.025C33.2168 145.982 33.6816 145.982 34.3577 145.898C35.076 145.813 36.0478 145.602 37.0619 145.222C38.076 144.841 38.9633 144.334 39.5549 143.954C40.1887 143.574 40.5267 143.32 40.569 143.32Z" fill="#455A64"/>
<path d="M38.3708 143.236C38.3708 143.278 37.3567 143.532 36.0891 143.405C34.8214 143.321 33.8496 142.898 33.8496 142.856C33.8496 142.771 34.8637 143.067 36.0891 143.194C37.3144 143.278 38.3285 143.152 38.3708 143.236Z" fill="#455A64"/>
<path d="M48.3457 116.363C48.3457 116.405 47.9232 116.616 47.2048 116.87C46.4865 117.124 45.4724 117.419 44.3316 117.631C43.1907 117.8 42.1344 117.842 41.3738 117.8C40.6132 117.757 40.1484 117.715 40.1484 117.673C40.1484 117.631 40.6132 117.673 41.3738 117.631C42.1344 117.631 43.1907 117.546 44.2893 117.377C45.4302 117.208 46.4443 116.912 47.1626 116.701C47.8809 116.49 48.3035 116.321 48.3457 116.363Z" fill="#455A64"/>
<path d="M47.6229 113.787C47.6651 113.787 47.7496 113.998 47.7496 114.21C47.7496 114.463 47.7074 114.632 47.6229 114.632C47.5806 114.632 47.4961 114.421 47.4961 114.21C47.5383 113.998 47.5806 113.787 47.6229 113.787Z" fill="#455A64"/>
<path d="M47.6229 112.009C47.6651 112.009 47.7496 112.22 47.7496 112.431C47.7496 112.685 47.7074 112.854 47.6229 112.854C47.5806 112.854 47.4961 112.643 47.4961 112.431C47.5383 112.22 47.5806 112.009 47.6229 112.009Z" fill="#455A64"/>
<path d="M47.6695 110.278C47.7118 110.278 47.7963 110.49 47.754 110.701C47.754 110.954 47.7118 111.123 47.6273 111.123C47.585 111.123 47.5005 110.912 47.5428 110.701C47.585 110.447 47.6273 110.278 47.6695 110.278Z" fill="#455A64"/>
<path d="M47.7498 108.504C47.7921 108.504 47.8343 108.715 47.8343 108.969C47.8343 109.222 47.7498 109.391 47.7076 109.391C47.6653 109.391 47.623 109.18 47.623 108.926C47.623 108.715 47.7076 108.504 47.7498 108.504Z" fill="#455A64"/>
<path d="M47.8338 106.772C47.876 106.772 47.9183 106.984 47.9183 107.237C47.9183 107.491 47.8338 107.66 47.7915 107.66C47.7493 107.66 47.707 107.449 47.707 107.195C47.707 106.941 47.7915 106.772 47.8338 106.772Z" fill="#455A64"/>
<path d="M48.0069 104.997C48.0492 104.997 48.0914 105.208 48.0914 105.462C48.0914 105.715 48.0069 105.884 47.9224 105.884C47.8801 105.884 47.8379 105.673 47.8379 105.42C47.8801 105.208 47.9224 104.997 48.0069 104.997Z" fill="#455A64"/>
<path d="M48.1326 103.561C48.1749 103.561 48.2171 103.687 48.2171 103.856C48.2171 104.025 48.1326 104.11 48.0904 104.11C48.0481 104.11 48.0059 103.983 48.0059 103.814C48.0059 103.687 48.0904 103.561 48.1326 103.561Z" fill="#455A64"/>
<path d="M34.0159 179.277C34.0581 179.277 34.1004 179.488 34.0581 179.742C34.0159 179.995 33.9314 180.164 33.8469 180.164C33.8046 180.164 33.7624 179.953 33.8046 179.699C33.8469 179.446 33.9314 179.235 34.0159 179.277Z" fill="#455A64"/>
<path d="M34.3577 177.545C34.3999 177.545 34.4422 177.756 34.3999 178.01C34.3577 178.263 34.2732 178.432 34.1887 178.432C34.1464 178.432 34.1042 178.221 34.1464 177.967C34.1887 177.714 34.2732 177.545 34.3577 177.545Z" fill="#455A64"/>
<path d="M34.6975 175.814C34.7398 175.814 34.782 176.026 34.7398 176.279C34.6975 176.533 34.613 176.702 34.5285 176.702C34.4863 176.702 34.444 176.491 34.4863 176.237C34.5285 175.983 34.6553 175.814 34.6975 175.814Z" fill="#455A64"/>
<path d="M35.0335 174.078C35.0757 174.078 35.118 174.289 35.0757 174.543C35.0335 174.796 34.949 174.965 34.8644 174.965C34.8222 174.965 34.7799 174.754 34.8222 174.501C34.9067 174.247 34.9912 174.078 35.0335 174.078Z" fill="#455A64"/>
<path d="M35.3694 172.389C35.4117 172.389 35.4539 172.6 35.4117 172.854C35.3694 173.108 35.2849 173.277 35.2004 173.277C35.1581 173.277 35.1159 173.065 35.1581 172.812C35.2426 172.558 35.3271 172.347 35.3694 172.389Z" fill="#455A64"/>
<path d="M35.7112 170.657C35.7534 170.657 35.7957 170.868 35.7534 171.122C35.7112 171.376 35.6267 171.545 35.5422 171.545C35.4999 171.545 35.4577 171.333 35.4999 171.08C35.5844 170.826 35.6689 170.657 35.7112 170.657Z" fill="#455A64"/>
<path d="M36.0901 168.925C36.1324 168.925 36.1746 169.136 36.1324 169.39C36.0901 169.643 36.0056 169.812 35.9211 169.812C35.8788 169.812 35.8366 169.601 35.8788 169.347C35.9211 169.094 36.0056 168.925 36.0901 168.925Z" fill="#455A64"/>
<path d="M36.4241 167.193C36.4663 167.193 36.5086 167.405 36.4663 167.658C36.4241 167.912 36.3396 168.081 36.2551 168.081C36.2128 168.081 36.1706 167.869 36.2128 167.616C36.2551 167.362 36.3396 167.193 36.4241 167.193Z" fill="#455A64"/>
<path d="M36.7678 165.505C36.8101 165.505 36.8523 165.717 36.8101 165.97C36.7678 166.224 36.6833 166.393 36.5988 166.393C36.5566 166.393 36.5143 166.181 36.5566 165.928C36.5988 165.674 36.6833 165.463 36.7678 165.505Z" fill="#455A64"/>
<path d="M37.1038 163.769C37.146 163.769 37.1883 163.98 37.146 164.234C37.1038 164.487 37.0193 164.656 36.9348 164.656C36.8925 164.656 36.8502 164.445 36.8925 164.192C36.977 163.938 37.0615 163.727 37.1038 163.769Z" fill="#455A64"/>
<path d="M37.4417 162.038C37.4839 162.038 37.5262 162.249 37.4839 162.503C37.4417 162.756 37.3572 162.925 37.2726 162.925C37.2304 162.925 37.1881 162.714 37.2304 162.461C37.3149 162.207 37.3994 162.038 37.4417 162.038Z" fill="#455A64"/>
<path d="M37.7776 160.307C37.8199 160.307 37.8621 160.518 37.8199 160.771C37.7776 161.025 37.6931 161.194 37.6086 161.194C37.5663 161.194 37.5241 160.983 37.5663 160.729C37.6508 160.476 37.7353 160.307 37.7776 160.307Z" fill="#455A64"/>
<path d="M38.1585 158.574C38.2007 158.574 38.243 158.785 38.2007 159.039C38.1585 159.293 38.0739 159.462 37.9894 159.462C37.9472 159.462 37.9049 159.25 37.9472 158.997C37.9894 158.743 38.074 158.574 38.1585 158.574Z" fill="#455A64"/>
<path d="M38.4983 156.881C38.5406 156.881 38.5828 157.093 38.5406 157.346C38.4983 157.6 38.4138 157.769 38.3293 157.769C38.287 157.769 38.2448 157.557 38.287 157.304C38.3293 157.05 38.4138 156.839 38.4983 156.881Z" fill="#455A64"/>
<path d="M38.8342 155.152C38.8765 155.152 38.9188 155.364 38.8765 155.617C38.8342 155.871 38.7497 156.04 38.6652 156.04C38.623 156.04 38.5807 155.828 38.623 155.575C38.6652 155.321 38.7497 155.152 38.8342 155.152Z" fill="#455A64"/>
<path d="M39.1741 153.419C39.2163 153.419 39.2586 153.63 39.2163 153.884C39.1741 154.137 39.0896 154.306 39.0051 154.306C38.9628 154.306 38.9206 154.095 38.9628 153.841C39.0051 153.588 39.1318 153.419 39.1741 153.419Z" fill="#455A64"/>
<path d="M39.512 151.688C39.5542 151.688 39.5965 151.899 39.5542 152.152C39.512 152.406 39.4275 152.575 39.343 152.575C39.3007 152.575 39.2585 152.364 39.3007 152.11C39.3852 151.857 39.4697 151.688 39.512 151.688Z" fill="#455A64"/>
<path d="M39.8518 149.998C39.8941 149.998 39.9363 150.209 39.8941 150.462C39.8518 150.716 39.7673 150.885 39.6828 150.885C39.6405 150.885 39.5983 150.674 39.6405 150.42C39.7251 150.167 39.8096 149.955 39.8518 149.998Z" fill="#455A64"/>
<path d="M40.2288 148.263C40.271 148.263 40.3133 148.474 40.271 148.727C40.2288 148.981 40.1443 149.15 40.0598 149.15C40.0175 149.15 39.9752 148.939 40.0175 148.685C40.0598 148.432 40.1443 148.263 40.2288 148.263Z" fill="#455A64"/>
<path d="M40.5686 146.529C40.6109 146.529 40.6531 146.741 40.6109 146.994C40.5686 147.248 40.4841 147.417 40.3996 147.417C40.3573 147.417 40.3151 147.205 40.3573 146.952C40.3996 146.698 40.4841 146.529 40.5686 146.529Z" fill="#455A64"/>
<path d="M40.9065 144.798C40.9488 144.798 40.991 145.009 40.9488 145.263C40.9065 145.516 40.822 145.685 40.7375 145.685C40.6952 145.685 40.653 145.474 40.6952 145.22C40.7375 144.967 40.822 144.798 40.9065 144.798Z" fill="#455A64"/>
<path d="M41.2424 143.11C41.2847 143.11 41.327 143.321 41.2847 143.575C41.2424 143.828 41.1579 143.997 41.0734 143.997C41.0312 143.997 40.9889 143.786 41.0312 143.532C41.0734 143.279 41.2002 143.068 41.2424 143.11Z" fill="#455A64"/>
<path d="M41.5862 141.375C41.6284 141.375 41.6707 141.586 41.6284 141.84C41.5862 142.093 41.5017 142.262 41.4172 142.262C41.3749 142.262 41.3327 142.051 41.3749 141.798C41.4594 141.544 41.5439 141.375 41.5862 141.375Z" fill="#455A64"/>
<path d="M41.9182 139.645C41.9605 139.645 42.0027 139.856 41.9605 140.109C41.9182 140.363 41.8337 140.532 41.7492 140.532C41.707 140.532 41.6647 140.321 41.707 140.067C41.7915 139.814 41.876 139.645 41.9182 139.645Z" fill="#455A64"/>
<path d="M42.26 137.912C42.3023 137.912 42.3445 138.123 42.3023 138.377C42.26 138.63 42.1755 138.799 42.091 138.799C42.0487 138.799 42.0065 138.588 42.0488 138.335C42.1333 138.081 42.2178 137.912 42.26 137.912Z" fill="#455A64"/>
<path d="M42.6409 136.222C42.6831 136.222 42.7254 136.433 42.6831 136.687C42.6409 136.941 42.5564 137.11 42.4719 137.11C42.4296 137.11 42.3874 136.898 42.4296 136.645C42.4719 136.391 42.5564 136.18 42.6409 136.222Z" fill="#455A64"/>
<path d="M42.9729 134.49C43.0152 134.49 43.0574 134.701 43.0152 134.955C42.9729 135.208 42.8884 135.377 42.8039 135.377C42.7616 135.377 42.7194 135.166 42.7616 134.912C42.8039 134.659 42.8884 134.448 42.9729 134.49Z" fill="#455A64"/>
<path d="M43.3167 132.757C43.3589 132.757 43.4012 132.968 43.3589 133.222C43.3167 133.475 43.2322 133.644 43.1476 133.644C43.1054 133.644 43.0631 133.433 43.1054 133.179C43.1476 132.926 43.2322 132.757 43.3167 132.757Z" fill="#455A64"/>
<path d="M43.6526 131.024C43.6949 131.024 43.7371 131.236 43.6949 131.489C43.6526 131.743 43.5681 131.912 43.4836 131.912C43.4413 131.912 43.3991 131.7 43.4413 131.447C43.4836 131.193 43.6103 131.024 43.6526 131.024Z" fill="#455A64"/>
<path d="M43.9905 129.292C44.0327 129.292 44.075 129.503 44.0327 129.757C43.9905 130.01 43.906 130.179 43.8215 130.179C43.7792 130.179 43.737 129.968 43.7792 129.715C43.8637 129.461 43.9482 129.292 43.9905 129.292Z" fill="#455A64"/>
<path d="M44.3303 127.601C44.3726 127.601 44.4148 127.812 44.3726 128.066C44.3303 128.319 44.2458 128.488 44.1613 128.488C44.1191 128.488 44.0768 128.277 44.1191 128.024C44.2036 127.77 44.2881 127.559 44.3303 127.601Z" fill="#455A64"/>
<path d="M44.7073 125.869C44.7495 125.869 44.7918 126.08 44.7495 126.334C44.7073 126.587 44.6228 126.756 44.5383 126.756C44.496 126.756 44.4538 126.545 44.496 126.292C44.5383 126.038 44.6228 125.869 44.7073 125.869Z" fill="#455A64"/>
<path d="M45.0471 124.137C45.0894 124.137 45.1316 124.348 45.0894 124.602C45.0471 124.855 44.9626 125.024 44.8781 125.024C44.8359 125.024 44.7936 124.813 44.8359 124.559C44.8781 124.306 44.9626 124.137 45.0471 124.137Z" fill="#455A64"/>
<path d="M45.385 122.402C45.4273 122.402 45.4695 122.614 45.4273 122.867C45.385 123.121 45.3005 123.29 45.216 123.29C45.1738 123.29 45.1315 123.078 45.1738 122.825C45.216 122.571 45.3005 122.402 45.385 122.402Z" fill="#455A64"/>
<path d="M45.7249 120.714C45.7671 120.714 45.8094 120.926 45.7671 121.179C45.7249 121.433 45.6404 121.602 45.5559 121.602C45.5136 121.602 45.4713 121.39 45.5136 121.137C45.5558 120.883 45.6826 120.672 45.7249 120.714Z" fill="#455A64"/>
<path d="M46.0608 118.983C46.1031 118.983 46.1453 119.195 46.1031 119.448C46.0608 119.702 45.9763 119.871 45.8918 119.871C45.8495 119.871 45.8073 119.659 45.8495 119.406C45.934 119.152 46.0186 118.983 46.0608 118.983Z" fill="#455A64"/>
<path d="M46.4046 117.249C46.4468 117.249 46.4891 117.46 46.4468 117.714C46.4046 117.967 46.32 118.136 46.2355 118.136C46.1933 118.136 46.151 117.925 46.1933 117.672C46.2778 117.418 46.3623 117.249 46.4046 117.249Z" fill="#455A64"/>
<path d="M80.834 64.1351C80.834 64.1351 83.7495 59.7406 83.834 59.6984C83.834 59.6984 86.4538 55.2617 87.3411 55.2617C88.2284 55.2617 87.8904 56.149 87.0031 57.7547C86.2002 59.1491 86.1157 60.0364 86.1157 60.0364L88.2707 61.3463C88.2707 61.3463 89.7073 60.797 89.7918 62.1491C89.7918 62.6139 89.7073 63.1632 89.5383 63.966C89.4538 64.4308 89.2425 64.9801 88.7777 64.7689C88.5665 64.6844 88.3974 64.5153 88.3974 64.2196C88.3552 63.4167 88.5242 63.121 88.3974 63.121C88.2707 63.121 86.834 67.3041 86.834 67.3041L80.834 64.1351Z" fill="#FFBE9D"/>
<path d="M86.75 60.7136C86.9613 60.5446 87.2148 60.4178 87.4261 60.291C87.6796 60.1643 87.9331 60.122 88.2289 60.1643C88.3979 60.2065 88.5669 60.2488 88.6514 60.4178C88.7782 60.5868 88.8204 60.8826 88.7359 61.0939C88.6514 61.3051 88.5247 61.5164 88.3979 61.6854" fill="#FFBE9D"/>
<path d="M85.7773 59.8259C85.9886 59.6991 86.1999 59.5301 86.4534 59.4456C86.7069 59.3611 86.9605 59.2766 87.214 59.3189C87.383 59.3611 87.5098 59.4034 87.6365 59.5301C87.7633 59.6991 87.7633 59.9527 87.721 60.1639C87.6365 60.3752 87.1717 60.84 87.045 61.0513" fill="#FFBE9D"/>
<path d="M81.8895 61.6426L77.6641 70.6849L82.312 75.4596L84.7205 68.7412C84.7205 68.7412 86.0303 68.9948 86.5374 68.1497C87.129 67.1779 87.8895 64.3891 87.8895 64.3891L81.8895 61.6426Z" fill="#FFBE9D"/>
<path d="M84.8944 61.3897C84.8521 61.3897 84.9366 60.7559 85.4014 60.1221C85.6127 59.8263 85.9085 59.6151 86.1197 59.4883C86.331 59.3615 86.5 59.3193 86.5 59.3615C86.5423 59.4461 85.993 59.6996 85.5704 60.2489C85.1902 60.8827 84.9789 61.432 84.8944 61.3897Z" fill="#EB996E"/>
<path d="M89.5793 61.4302C89.5793 61.4724 89.4103 61.3879 89.1568 61.3457C88.9033 61.3034 88.5653 61.3034 88.2272 61.4724C87.8892 61.6415 87.6779 61.9372 87.5512 62.1485C87.3821 62.3598 87.2976 62.4865 87.2554 62.4865C87.2131 62.4865 87.2976 62.3175 87.3821 62.064C87.5089 61.8105 87.7202 61.4724 88.1005 61.2612C88.4807 61.0499 88.9033 61.0922 89.1568 61.1767C89.4526 61.3034 89.5793 61.4302 89.5793 61.4302Z" fill="#EB996E"/>
<path d="M88.0153 60.1643C88.0153 60.2488 87.5082 60.3333 87.0434 60.7558C86.5787 61.1784 86.3251 61.6432 86.2829 61.6432C86.2406 61.6432 86.3674 61.0516 86.9167 60.5868C87.1702 60.3756 87.466 60.2065 87.6773 60.1643C87.8463 60.122 88.0153 60.1643 88.0153 60.1643Z" fill="#EB996E"/>
<path d="M89.0303 62.1077C89.0725 62.0655 89.1993 62.4457 88.988 62.7838C88.7768 63.1218 88.3965 63.2063 88.3965 63.1218C88.3965 63.0796 88.6078 62.9528 88.7768 62.657C88.988 62.4035 88.988 62.15 89.0303 62.1077Z" fill="#EB996E"/>
<path d="M80.8756 63.9671C80.8756 63.9671 80.7488 61.2629 81.3826 60.6713C82.0164 60.0798 83.9179 60.7136 83.9179 60.7136" fill="#FFBE9D"/>
<path d="M84.1332 59.4034C84.1754 59.4456 83.7529 60.1217 83.1613 60.9245C82.5698 61.7273 82.0627 62.3611 82.0205 62.3189C81.9782 62.2766 82.4008 61.6006 82.9923 60.7977C83.5839 59.9949 84.0909 59.3611 84.1332 59.4034Z" fill="#EB996E"/>
<path d="M46.7329 38.9535L46.6484 59.9959L55.6908 60.4185L55.9443 55.3058C55.9443 55.3058 59.1556 55.9396 59.9584 52.9818C60.5077 51.0804 60.3387 36.376 60.3387 36.376L46.7329 38.9535Z" fill="#FFBE9D"/>
<path d="M61.6053 37.8552C60.1686 38.2777 59.8729 40.6017 59.8729 40.6017L57.6334 45.5454C56.4925 44.6581 54.9714 44.7003 54.6756 46.6863C54.4644 48.1229 56.2813 48.4187 56.2813 48.4187C55.2249 50.1933 54.5489 51.63 53.0277 53.3201C51.3798 55.137 50.4502 55.3483 48.6756 55.3483H46.6896C46.6896 55.3483 45.7178 52.2215 43.9431 44.4045C41.9572 35.7425 52.2249 36.8411 54.1263 34.6439C57.2109 31.01 66.0842 36.5453 61.6053 37.8552Z" fill="#212121"/>
<path d="M44.1159 45.2053C42.468 44.1067 42.299 40.9799 43.2708 39.0785C44.2426 37.2193 46.2708 35.9517 48.3835 35.9095C48.6793 35.9095 48.9751 35.9095 49.2286 35.825C49.6089 35.6559 49.8624 35.3179 50.1159 34.9799C51.5948 33.0362 53.0737 31.1348 55.8202 31.1348C56.285 31.1348 56.7498 31.1348 57.5526 31.5573C57.9329 31.7686 58.5245 32.4869 58.609 32.9517C59.116 32.6982 59.6653 32.4446 60.2147 32.3601C60.764 32.2756 61.3978 32.3601 61.8203 32.7404C62.2428 33.1207 62.4119 33.839 62.0738 34.3038C63.0034 34.2616 63.8907 35.0221 64.0598 35.9517C64.1865 36.8813 62.8766 37.5151 62.7499 37.5996C62.7499 37.5996 63.4682 39.1208 61.7358 40.0504C61.0175 40.4306 60.1301 39.9658 60.0456 39.9236" fill="#212121"/>
<path d="M50.7061 47.2324C50.7484 47.2324 50.8329 47.9507 50.6639 48.8381C50.4526 49.7254 50.0723 50.317 50.03 50.317C49.9878 50.2747 50.2413 49.6409 50.4526 48.7958C50.6216 47.9507 50.6216 47.2324 50.7061 47.2324Z" fill="#455A64"/>
<path d="M51.8055 46.1787C51.8478 46.1787 51.89 46.897 51.721 47.6998C51.552 48.5449 51.2985 49.1787 51.2562 49.1787C51.214 49.1787 51.3407 48.5027 51.5098 47.6576C51.6365 46.8548 51.721 46.1787 51.8055 46.1787Z" fill="#455A64"/>
<path d="M54.9331 42.7119C54.9753 42.7542 54.6795 42.9232 54.3838 43.3035C54.0457 43.6838 53.6654 44.2753 53.4119 44.9936C53.1584 45.7119 52.9894 46.388 52.8626 46.8951C52.7358 47.4021 52.6513 47.6979 52.6513 47.6979C52.6091 47.6979 52.6513 47.3599 52.7359 46.8528C52.8204 46.3458 52.9471 45.6274 53.2006 44.9091C53.4964 44.1908 53.8767 43.557 54.257 43.219C54.595 42.8387 54.8908 42.7119 54.9331 42.7119Z" fill="#455A64"/>
<path d="M56.1974 40.3467C56.2396 40.3467 56.3241 40.558 56.3664 40.896C56.4086 41.2763 56.4086 41.7833 56.2819 42.3326C56.1551 42.8819 55.9016 43.3467 55.6903 43.6425C55.479 43.9383 55.2678 44.065 55.2678 44.065C55.2255 44.0228 55.8171 43.3467 56.0706 42.2904C56.3241 41.2763 56.1129 40.3889 56.1974 40.3467Z" fill="#455A64"/>
<path d="M45.4287 45.629C45.3864 45.6712 45.1329 45.5867 44.7949 45.4177C44.4991 45.2487 44.2456 45.0797 44.2878 44.9951C44.3301 44.9529 44.5836 45.0374 44.9216 45.2064C45.2174 45.3754 45.4287 45.5444 45.4287 45.629Z" fill="#455A64"/>
<path d="M49.7794 43.3899C49.8216 43.3899 49.8216 43.8547 49.5258 44.3195C49.2301 44.7843 48.8498 45.0378 48.8498 44.9533C48.8075 44.9111 49.1033 44.6153 49.3568 44.1928C49.5681 43.728 49.6948 43.3477 49.7794 43.3899Z" fill="#455A64"/>
<path d="M51.1302 42.6697C51.1725 42.6697 51.088 43.219 50.7077 43.7683C50.3274 44.3176 49.9049 44.6133 49.8626 44.5711C49.8204 44.5288 50.2006 44.1486 50.5387 43.6415C50.8767 43.0922 51.0457 42.6274 51.1302 42.6697Z" fill="#455A64"/>
<path d="M57.7636 33.8377C57.7636 33.8377 57.5946 33.7109 57.2566 33.5419C56.9185 33.3729 56.4115 33.1616 55.7354 33.1616C55.0594 33.1616 54.2565 33.2884 53.496 33.7532C52.7354 34.2179 52.1016 34.9785 51.5945 35.8659C51.2565 36.4997 51.003 37.218 50.834 37.8518L50.7917 37.9786L50.6649 37.894C49.9889 37.556 49.2706 37.387 48.6367 37.387C48.0029 37.387 47.4536 37.4715 46.9888 37.6405C46.1015 37.9363 45.679 38.3588 45.6367 38.3166C45.6367 38.3166 45.7212 38.1898 45.9325 38.0631C46.1438 37.894 46.4818 37.725 46.9043 37.5138C47.3691 37.3447 47.9184 37.218 48.5945 37.218C49.2706 37.218 49.9889 37.3447 50.7072 37.725L50.5382 37.8095C50.7072 37.1757 50.9607 36.4574 51.2987 35.7813C51.8058 34.8518 52.4819 34.0912 53.2847 33.5841C54.0875 33.1193 54.9326 32.9503 55.6087 32.9926C56.2847 33.0348 56.834 33.2461 57.1721 33.4574C57.3411 33.5841 57.4678 33.6686 57.5101 33.7532C57.7636 33.7954 57.7636 33.8377 57.7636 33.8377Z" fill="#455A64"/>
<path d="M62.5377 34.981C62.5377 34.981 62.7912 34.8965 63.0448 35.2345C63.1715 35.3613 63.2983 35.6148 63.256 35.9106C63.2138 36.2064 63.0448 36.5021 62.749 36.6712C62.4532 36.8402 62.0307 36.9247 61.6504 36.8402C61.2701 36.7557 60.8898 36.5444 60.5095 36.2909C60.1715 36.0374 59.7912 35.7416 59.4109 35.5303C58.9884 35.319 58.5658 35.15 58.0588 35.0655C57.087 34.8965 56.1574 34.981 55.3545 35.2345C54.5517 35.4881 53.8757 35.8683 53.3264 36.2486C52.27 37.0092 51.763 37.643 51.7207 37.6008C51.7207 37.6008 51.8475 37.4317 52.0587 37.136C52.3123 36.8824 52.6925 36.5021 53.1996 36.0796C53.7066 35.6993 54.425 35.2768 55.2278 34.981C56.0729 34.6852 57.0447 34.6007 58.0588 34.7697C58.5658 34.8542 59.0306 35.0233 59.4532 35.2768C59.8757 35.5303 60.2138 35.8261 60.594 36.0796C60.9321 36.3331 61.2701 36.5444 61.6504 36.6289C61.9884 36.7134 62.3687 36.6712 62.6222 36.5021C62.8758 36.3754 63.087 36.1219 63.087 35.8683C63.1293 35.6148 63.0448 35.4035 62.918 35.2768C62.749 34.981 62.4955 35.0233 62.5377 34.981Z" fill="#455A64"/>
<path d="M37.143 62.1924L29.0725 75.7137C28.1852 77.277 27.3401 78.9672 26.5373 80.7419C25.9035 82.432 26.2837 84.587 27.3824 85.9814L27.1711 85.6433C28.0584 86.7419 29.4105 87.3757 30.8472 87.3757H31.0584C32.9176 87.3757 34.6078 86.2771 35.3684 84.5447L37.9458 80.6151L37.143 62.1924Z" fill="#462682"/>
<path d="M61.48 59.6151C59.325 58.5165 57.1701 58.263 54.8461 58.1785C52.1419 58.094 48.2968 57.7137 45.3812 58.0517C45.3812 58.0517 37.0572 58.6855 36.4656 64.3898L37.6065 91.2211L35.7051 102.587L62.4096 103.39L62.1983 89.9957C62.5363 83.0238 61.818 73.1364 61.818 73.1364C62.2406 69.3758 64.2688 67.6856 64.5645 65.2772C64.8181 63.08 63.3814 60.587 61.48 59.6151Z" fill="#462682"/>
<path d="M53.9145 91.6011C53.9145 91.6011 53.7877 91.7701 53.5342 91.9814C53.2807 92.1926 52.8581 92.4884 52.3088 92.8265C51.2525 93.4603 49.5623 94.0941 47.6186 94.0941C45.675 94.1363 43.9848 93.5448 42.8862 92.9532C42.3369 92.6574 41.9143 92.3617 41.6608 92.1504C41.365 91.9391 41.2383 91.8124 41.2383 91.8124C41.2805 91.7701 41.8721 92.2772 42.9707 92.8265C44.0693 93.3758 45.7172 93.8828 47.6186 93.8828C49.4778 93.8406 51.1257 93.249 52.2243 92.6997C53.3229 92.0659 53.9145 91.5588 53.9145 91.6011Z" fill="#212121"/>
<path d="M36.4223 64.6855C36.4223 64.6855 36.4223 64.7701 36.4645 64.9391C36.4645 65.1503 36.5068 65.4039 36.5068 65.6996C36.549 66.3757 36.5913 67.3053 36.6336 68.4462C36.7181 70.8124 36.8871 74.0237 37.0138 77.5308C37.1829 81.0801 37.3096 84.2914 37.4364 86.6154C37.4786 87.7562 37.5631 88.6858 37.5631 89.3619C37.5631 89.6576 37.6054 89.9112 37.6054 90.1224C37.6054 90.2915 37.6054 90.376 37.6054 90.376C37.6054 90.376 37.5631 90.2915 37.5631 90.1224C37.5631 89.9112 37.5209 89.6999 37.4786 89.3619C37.4364 88.7281 37.3519 87.7562 37.2674 86.6154C37.0983 84.2914 36.9293 81.0801 36.8026 77.5308C36.6336 73.9814 36.549 70.7701 36.5068 68.4039C36.4645 67.263 36.4645 66.3335 36.4645 65.6574C36.4645 65.3616 36.4645 65.1081 36.4645 64.8968C36.38 64.7701 36.38 64.6855 36.4223 64.6855Z" fill="#212121"/>
<path d="M34.7321 66.0811C34.7321 66.0811 34.6898 66.1656 34.6476 66.2923C34.5631 66.4613 34.4785 66.6304 34.3518 66.8839C34.0983 67.3909 33.6757 68.1092 33.1687 68.9543C32.1546 70.6867 30.6334 73.053 29.07 75.715C28.3095 77.0671 27.6334 78.377 27.0841 79.5601C26.5348 80.7432 26.239 81.9263 26.3235 82.9404C26.3658 83.9545 26.6616 84.7151 26.9573 85.2221C27.2109 85.7292 27.4221 85.9404 27.4221 85.9827C27.4221 85.9827 27.3799 85.9404 27.2531 85.8137C27.1686 85.6869 26.9996 85.5179 26.8728 85.2644C26.5771 84.7996 26.239 83.9967 26.1545 82.9826C26.07 81.9685 26.3235 80.7432 26.9151 79.5178C27.4644 78.2925 28.1405 76.9826 28.901 75.6305C30.4644 72.9685 31.9856 70.6022 33.0419 68.9121C33.549 68.067 33.9715 67.3909 34.2673 66.8839C34.394 66.6726 34.5208 66.4613 34.6053 66.3346C34.6898 66.1656 34.7321 66.0811 34.7321 66.0811Z" fill="#212121"/>
<path d="M83.8746 73.473L77.7055 69.4166L73.8182 76.1773C73.8182 76.1773 68.4097 68.6561 65.9589 64.2616C63.6772 60.2053 60.7617 59.1067 59.3673 58.8109C58.9448 58.7264 58.5645 59.0644 58.6067 59.487L60.7194 74.1068C60.973 74.8674 65.4519 81.3323 67.9449 84.5858C72.0858 90.0366 78.2548 86.5295 79.9027 82.7266C81.2549 79.7266 83.3253 75.1632 83.8746 73.473Z" fill="#462682"/>
<path d="M75.5515 82.2641C75.5092 82.2641 75.467 81.8838 75.4247 81.2922C75.3825 80.7007 75.298 79.8556 75.129 79.0105C74.9599 78.1232 74.6219 77.3626 74.3261 76.8556C74.0303 76.3485 73.7768 76.0527 73.8191 76.0527C73.8191 76.0527 74.1149 76.264 74.4529 76.7711C74.7909 77.2781 75.129 78.0387 75.3402 78.9683C75.5515 79.8556 75.5515 80.7007 75.5937 81.2922C75.636 81.8838 75.5937 82.2641 75.5515 82.2641Z" fill="#212121"/>
<path d="M77.3761 79.2622C77.3338 79.2622 77.2916 78.9665 77.1648 78.4594C76.9958 77.9946 76.7 77.3608 76.193 76.8115C75.6859 76.2622 75.0521 75.9242 74.5451 75.9242C74.038 75.8819 73.7845 76.0932 73.7423 76.0509C73.7 76.0509 73.9958 75.7552 74.5451 75.7552C75.0944 75.7129 75.8127 76.0932 76.362 76.6425C76.9113 77.234 77.2071 77.9101 77.3339 78.4171C77.4606 78.9242 77.4184 79.2622 77.3761 79.2622Z" fill="#212121"/>
<path d="M58.9072 60.6279C58.9072 60.6279 58.865 60.7124 58.7382 60.7969C58.696 60.8392 58.6114 60.9237 58.5692 61.0082C58.4847 61.0927 58.4002 61.1772 58.3157 61.304C57.9776 61.7265 57.5128 62.4449 57.2593 63.3744C56.9635 64.304 56.8368 65.5294 57.0058 66.8393C57.0903 67.4731 57.2593 68.1491 57.5551 68.8252C57.8086 69.5013 58.1889 70.1351 58.5692 70.8111C60.0903 73.4731 61.6537 75.7549 62.7523 77.445C63.3016 78.2478 63.7664 78.9239 64.1045 79.3887C64.4425 79.8535 64.6115 80.107 64.6115 80.107C64.6115 80.107 64.5693 80.0648 64.4425 79.938C64.358 79.8112 64.189 79.6422 64.02 79.4309C63.6819 79.0084 63.1749 78.3323 62.5833 77.5295C61.4002 75.8816 59.8368 73.5999 58.3157 70.9379C57.9354 70.2618 57.5973 69.5858 57.3016 68.9097C57.0058 68.2336 56.8368 67.5576 56.7523 66.8815C56.5833 65.5294 56.71 64.304 57.048 63.3744C57.3438 62.4026 57.8509 61.7265 58.1889 61.304C58.2734 61.2195 58.3579 61.0927 58.4424 61.0082C58.5269 60.9237 58.5692 60.8815 58.6537 60.8392C58.865 60.6702 58.9072 60.6279 58.9072 60.6279Z" fill="#212121"/>
<path d="M58.9441 99.4632C58.9441 99.4632 58.9018 99.5054 58.775 99.5477C58.606 99.5899 58.437 99.6744 58.2257 99.7589C57.9722 99.8434 57.6764 99.9279 57.3384 100.012C57.0004 100.097 56.5778 100.224 56.1553 100.308C55.268 100.52 54.2116 100.731 52.9862 100.9C51.8031 101.069 50.451 101.153 49.0566 101.153C47.6622 101.153 46.3524 101.069 45.127 100.9C43.9439 100.731 42.8453 100.562 41.958 100.35C41.4932 100.266 41.1129 100.139 40.7748 100.055C40.4368 99.9702 40.141 99.8857 39.8875 99.8012C39.6762 99.7167 39.465 99.6744 39.3382 99.6322C39.2114 99.5899 39.1269 99.5477 39.1692 99.5477C39.1692 99.5477 39.2537 99.5477 39.3805 99.5899C39.5495 99.6322 39.7185 99.6744 39.9298 99.7167C40.1833 99.8012 40.4791 99.8857 40.8171 99.9279C41.1551 100.012 41.5777 100.097 42.0002 100.181C42.8875 100.393 43.9439 100.562 45.1693 100.689C46.3524 100.815 47.6622 100.9 49.0566 100.9C50.451 100.9 51.7609 100.815 52.944 100.646C54.1271 100.477 55.1834 100.308 56.0708 100.139C56.5356 100.055 56.9159 99.9279 57.2539 99.8434C57.5919 99.7589 57.8877 99.6744 58.1412 99.5899C58.3525 99.5477 58.5638 99.4632 58.6905 99.4209C58.8595 99.4632 58.9441 99.4632 58.9441 99.4632Z" fill="#212121"/>
<g opacity="0.3">
<path d="M35.916 83.6996L37.1414 81.8404L36.5076 67.0938L35.916 83.6996Z" fill="black"/>
</g>
<g opacity="0.3">
<path d="M56.748 66.0801C56.748 66.0801 56.7903 71.4463 58.0157 73.6013C59.241 75.714 62.1565 80.3197 62.1565 80.0661C62.1565 79.8126 61.9875 76.2633 61.9875 76.2633C61.9875 76.2633 56.7903 69.0801 56.748 66.0801Z" fill="black"/>
</g>
<path d="M34.8644 84.1653C34.8644 84.1653 34.7377 84.2498 34.4841 84.292C34.2306 84.3343 33.8503 84.292 33.3855 84.1653C32.963 83.9962 32.456 83.7005 32.0334 83.2779C31.6109 82.8131 31.2306 82.2638 30.8926 81.63C30.5545 81.0385 30.2588 80.4469 29.8785 79.9399C29.5404 79.4751 29.1601 79.0948 28.7799 78.8413C28.0193 78.3342 27.4277 78.3765 27.4277 78.3342C27.4277 78.3342 27.5545 78.292 27.808 78.3342C28.0615 78.3765 28.4418 78.461 28.8221 78.7145C29.2024 78.968 29.6249 79.3483 30.0052 79.8131C30.3855 80.3201 30.6813 80.9117 31.0193 81.5033C31.3574 82.0948 31.6954 82.6864 32.1179 83.1089C32.5405 83.5314 32.963 83.8272 33.3855 83.9962C34.2729 84.3343 34.8644 84.123 34.8644 84.1653Z" fill="white"/>
<path d="M36.5075 74.9098C36.4652 74.9098 36.3807 74.5718 36.1272 74.107C35.8737 73.6422 35.4089 73.0084 34.7751 72.5436C34.099 72.0366 33.423 71.783 32.8737 71.6563C32.3666 71.5295 31.9863 71.5295 31.9863 71.4873C31.9863 71.445 32.3244 71.4028 32.8737 71.4873C33.423 71.5718 34.1835 71.8253 34.8596 72.3323C35.5357 72.8394 36.0005 73.5155 36.2117 74.0225C36.4652 74.5296 36.5075 74.9098 36.5075 74.9098Z" fill="white"/>
<path d="M56.8737 66.9657C56.8737 67.0079 56.578 66.9234 56.0709 66.8812C55.5639 66.8389 54.7611 66.8389 53.8737 67.0925C52.9441 67.3037 51.93 67.7263 50.7892 68.3178C49.6906 68.9094 48.5075 69.6277 47.1976 70.2192C45.8877 70.8531 44.4933 71.1488 43.2257 71.2333C41.9581 71.3178 40.8172 71.1488 39.8877 70.9376C38.9581 70.7263 38.2398 70.3883 37.775 70.177C37.5214 70.0502 37.3524 69.9657 37.2257 69.8812C37.0989 69.7967 37.0566 69.7544 37.0566 69.7544C37.0566 69.7544 37.3102 69.8812 37.8172 70.0925C38.282 70.3038 39.0003 70.5995 39.9299 70.8108C40.8595 71.0221 41.9581 71.1488 43.2257 71.0643C44.4511 70.9798 45.8032 70.684 47.1131 70.0502C48.423 69.4587 49.6061 68.7404 50.7047 68.1488C51.8033 67.5572 52.9019 67.1347 53.8315 66.9657C54.7611 66.7544 55.5639 66.7544 56.0709 66.8389C56.3244 66.8812 56.5357 66.9234 56.6625 66.9657C56.7892 66.9657 56.8737 66.9657 56.8737 66.9657Z" fill="white"/>
<path d="M62.0723 81.5868C62.0723 81.5868 61.9878 81.6291 61.8188 81.6713C61.6497 81.7136 61.4385 81.7981 61.1004 81.8403C60.4666 81.9671 59.537 82.0938 58.3962 82.0516C57.2553 82.0093 55.9032 81.8403 54.4243 81.5023C52.9454 81.1643 51.3398 80.6995 49.6919 80.1924C48.044 79.6854 46.3961 79.3051 44.9172 79.1361C43.4383 78.9671 42.0862 78.9248 40.9453 79.0938C39.8044 79.2628 38.9594 79.5586 38.3678 79.8121C37.7762 80.0656 37.4805 80.2347 37.4805 80.2347C37.4805 80.2347 37.565 80.1924 37.6917 80.1079C37.8608 80.0234 38.0298 79.8966 38.3255 79.7699C38.9171 79.4741 39.8044 79.1783 40.903 78.967C42.0439 78.7558 43.4383 78.7558 44.9172 78.967C46.4383 79.1361 48.044 79.5163 49.7341 80.0234C51.4243 80.5304 52.9877 80.9952 54.4666 81.3333C55.9455 81.6713 57.2553 81.8826 58.3962 81.9248C59.537 81.9671 60.4666 81.8826 61.0582 81.7981C61.692 81.6713 62.03 81.5868 62.0723 81.5868Z" fill="white"/>
<path d="M62.2044 89.9547C62.2044 90.0392 60.9368 89.2363 58.6973 89.0251C57.5564 88.8983 56.2043 88.9828 54.7254 89.1518C53.2465 89.3631 51.6409 89.7011 49.9085 89.9969C48.2183 90.335 46.5704 90.5885 45.0915 90.7152C43.5704 90.842 42.2182 90.842 41.0774 90.673C39.9365 90.5462 39.0492 90.2927 38.4576 90.0392C38.1619 89.9547 37.9506 89.8279 37.7816 89.7434C37.6126 89.6589 37.5703 89.6166 37.5703 89.6166C37.5703 89.6166 37.9083 89.7434 38.4999 89.9547C39.0915 90.1659 39.9788 90.3772 41.1196 90.504C42.2605 90.6307 43.6126 90.6307 45.0915 90.504C46.5704 90.3772 48.2183 90.0814 49.9085 89.7434C51.5986 89.4054 53.2465 89.1096 54.7254 88.8983C56.2043 88.7293 57.5987 88.6448 58.7396 88.8138C59.8804 88.9406 60.7677 89.2364 61.3593 89.4899C61.6551 89.6166 61.8663 89.7434 62.0354 89.7857C62.1199 89.9124 62.2044 89.9547 62.2044 89.9547Z" fill="white"/>
<path d="M48.4661 100.728C48.4661 100.728 48.2971 100.644 48.0436 100.475C47.7901 100.306 47.4098 100.01 46.945 99.7143C45.9731 99.0805 44.6633 98.2776 43.0999 97.5171C41.5365 96.7565 40.0576 96.2072 38.959 95.8269C38.4097 95.6579 37.9871 95.4889 37.6914 95.4044C37.3956 95.3199 37.2266 95.2354 37.2266 95.2354C37.2266 95.2354 37.3956 95.2353 37.7336 95.3199C38.0294 95.4044 38.4942 95.4889 39.0435 95.6579C40.1421 95.9959 41.621 96.503 43.2266 97.2635C44.79 98.0241 46.1421 98.8692 47.0717 99.5452C47.5365 99.8833 47.9168 100.179 48.1703 100.348C48.3394 100.602 48.4661 100.728 48.4661 100.728Z" fill="white"/>
<path d="M61.4789 100.604C61.4789 100.604 61.1831 100.858 60.5916 101.069C60 101.28 59.1549 101.449 58.2253 101.449C57.2957 101.407 56.4507 101.196 55.9014 100.942C55.3521 100.689 55.014 100.477 55.0563 100.435C55.0563 100.393 55.3943 100.604 55.9859 100.773C56.5352 100.984 57.3802 101.196 58.2676 101.196C59.1972 101.238 60 101.069 60.5916 100.9C61.0986 100.731 61.4366 100.562 61.4789 100.604Z" fill="white"/>
<path d="M70.7346 72.7121C70.7346 72.7121 70.7346 72.8389 70.6923 73.0924C70.6501 73.3459 70.4811 73.6417 70.1853 73.9797C69.8895 74.3177 69.5092 74.6558 69.0022 74.9516C68.4951 75.2473 67.9036 75.4586 67.312 75.7121C66.7205 75.9657 66.1289 76.2192 65.7064 76.5572C65.2838 76.8952 64.9458 77.2755 64.7345 77.6558C64.3542 78.4164 64.5232 78.9657 64.481 78.9657C64.481 78.9657 64.3965 78.8389 64.3965 78.5854C64.3965 78.3319 64.4387 77.9938 64.6078 77.5713C64.7768 77.191 65.1148 76.7262 65.5796 76.3882C66.0444 76.0079 66.6359 75.7544 67.2275 75.5009C67.8191 75.2473 68.4106 75.0361 68.9177 74.7825C69.4247 74.529 69.805 74.191 70.1008 73.8952C70.6501 73.2614 70.6923 72.6698 70.7346 72.7121Z" fill="white"/>
<path d="M65.5397 63.7129C65.5397 63.7129 65.5397 63.8396 65.4552 64.0932C65.413 64.2199 65.3707 64.3467 65.3285 64.5157C65.2862 64.6847 65.2017 64.896 65.1172 65.065C64.9482 65.4876 64.6947 65.9524 64.3566 66.4594C64.0186 66.9664 63.5961 67.4735 63.089 67.9383C62.582 68.4031 62.0327 68.7834 61.5256 69.1214C61.0186 69.4172 60.5115 69.6284 60.089 69.7975C59.8777 69.882 59.6664 69.9242 59.4974 69.9665C59.3284 70.0087 59.1594 70.051 59.0326 70.051C58.7791 70.0932 58.6523 70.0932 58.6523 70.0932C58.6523 70.051 59.2016 69.9665 60.0045 69.6284C60.427 69.4594 60.8918 69.2482 61.3989 68.9101C61.9059 68.6143 62.4129 68.2341 62.92 67.7693C63.427 67.3045 63.8073 66.7974 64.1454 66.3326C64.4834 65.8678 64.7369 65.403 64.9482 64.9805C65.3707 64.2622 65.4975 63.7129 65.5397 63.7129Z" fill="white"/>
<path d="M57.3842 58.1768C57.3842 58.1768 57.1729 58.3035 56.7504 58.4725C56.3701 58.6416 55.7786 58.8528 55.018 59.0641C54.2997 59.3176 53.3701 59.5289 52.3982 59.7402C51.3841 59.9514 50.2855 60.0782 49.1024 60.2049C47.9193 60.2895 46.7785 60.2895 45.7644 60.2472C44.7503 60.2049 43.8207 60.0782 43.0601 59.9514C42.2995 59.8247 41.6657 59.6979 41.2432 59.6134C40.8206 59.5289 40.6094 59.4444 40.6094 59.4444C40.6094 59.4444 40.8629 59.4866 41.2854 59.5289C41.708 59.6134 42.3418 59.6979 43.1024 59.8247C43.8629 59.9092 44.7925 59.9937 45.8066 60.0359C46.8207 60.0782 47.9616 60.0782 49.1024 59.9937C50.2855 59.9092 51.3841 59.7402 52.3982 59.5711C53.4123 59.3599 54.2997 59.1486 55.018 58.9373C55.7786 58.7261 56.3701 58.557 56.7504 58.388C57.1729 58.219 57.3842 58.1768 57.3842 58.1768Z" fill="white"/>
<path d="M73.9868 76.5576C73.9868 76.5576 74.0713 76.6844 74.1558 76.9802C74.2403 77.2759 74.3248 77.6985 74.3248 78.2055C74.4093 79.2619 74.1981 80.6985 73.9023 82.2619C73.7755 83.0225 73.6065 83.783 73.3107 84.4169C73.0572 85.0507 72.6769 85.6 72.3389 85.9803C71.9586 86.3605 71.6206 86.5718 71.3248 86.6986C71.0713 86.8253 70.9023 86.8253 70.9023 86.8253C70.86 86.7831 71.5361 86.6141 72.2121 85.8535C72.5502 85.4732 72.8882 84.9662 73.0995 84.3323C73.353 83.6985 73.522 82.9802 73.6488 82.1774C73.9446 80.614 74.1558 79.2196 74.1136 78.1633C74.1558 77.1914 73.9446 76.5999 73.9868 76.5576Z" fill="white"/>
<path d="M82.4826 77.6573C82.4403 77.6573 82.2291 77.2347 81.8065 76.6009C81.384 75.9671 80.6234 75.122 79.6516 74.446C78.6797 73.7699 77.6656 73.3896 76.9051 73.1783C76.1445 72.9671 75.6797 72.9671 75.6797 72.9248C75.6797 72.9248 75.8065 72.9248 76.0177 72.9248C76.229 72.9248 76.567 72.9671 76.9473 73.0516C77.3276 73.1361 77.7924 73.2628 78.2994 73.4741C78.7642 73.6854 79.3135 73.9389 79.8206 74.3192C80.3276 74.6572 80.7502 75.0798 81.1305 75.46C81.4685 75.8403 81.7643 76.2206 81.9755 76.5586C82.1868 76.8967 82.3136 77.1925 82.3981 77.4037C82.4403 77.5305 82.4826 77.6573 82.4826 77.6573Z" fill="white"/>
<g opacity="0.3">
<path d="M57.6332 99.8004C58.0557 99.5891 58.2247 98.9976 57.929 98.6595C57.6332 98.3215 57.1684 98.237 56.7036 98.237C54.5064 98.2793 52.605 99.7582 50.45 100.138C48.8021 100.434 47.112 100.096 45.5486 99.6314C43.9429 99.1666 42.4218 98.5328 40.7739 98.1948C40.4358 98.1103 40.0978 98.068 39.7598 98.1525C39.4217 98.237 39.126 98.4905 39.0837 98.8708C39.0415 99.2088 39.126 99.4624 39.633 99.6314C39.633 99.6314 45.0415 101.153 48.9289 101.068C53.112 101.026 57.6332 99.8004 57.6332 99.8004Z" fill="black"/>
</g>
<path d="M170.237 161.829H140.744V165.885H170.237V161.829Z" fill="#212121"/>
<path d="M170.277 165.93H140.699V161.789H170.277V165.93ZM140.826 165.803H170.192V161.874H140.826V165.803Z" fill="#212121"/>
<path d="M143.492 164.536L147.718 185.452H163.436L167.535 165.888L143.492 164.536Z" fill="#212121"/>
<path d="M143.492 183.465L145.774 186.592H164.83L167.535 183.465H143.492Z" fill="#455A64"/>
<path d="M154.396 165.125C154.353 165.125 154.269 155.449 154.226 143.449C154.184 131.491 154.226 121.772 154.269 121.772C154.311 121.772 154.396 131.449 154.438 143.449C154.48 155.449 154.438 165.125 154.396 165.125Z" fill="#212121"/>
<path d="M160.941 140.872C160.941 140.872 160.941 140.957 160.856 141.083C160.772 141.252 160.687 141.464 160.603 141.717C160.56 141.844 160.476 142.013 160.391 142.182C160.349 142.351 160.265 142.52 160.18 142.731C160.096 142.943 160.053 143.154 159.969 143.365C159.884 143.576 159.842 143.83 159.758 144.083C159.42 145.097 159.166 146.323 158.913 147.675C158.701 149.069 158.532 150.59 158.448 152.196C158.321 155.407 158.49 158.323 158.701 160.436C158.786 161.492 158.913 162.337 158.955 162.929C158.997 163.224 158.997 163.436 159.039 163.605C159.039 163.774 159.039 163.858 159.039 163.858C159.039 163.858 158.997 163.774 158.997 163.647C158.955 163.478 158.913 163.267 158.87 162.971C158.786 162.379 158.659 161.534 158.532 160.478C158.279 158.365 158.11 155.45 158.236 152.196C158.321 150.59 158.49 149.027 158.701 147.675C158.955 146.281 159.251 145.055 159.589 144.041C159.673 143.788 159.758 143.534 159.842 143.323C159.927 143.112 160.011 142.9 160.096 142.689C160.18 142.478 160.222 142.309 160.307 142.14C160.391 141.971 160.434 141.844 160.518 141.675C160.645 141.421 160.729 141.21 160.814 141.041C160.898 140.914 160.941 140.872 160.941 140.872Z" fill="#212121"/>
<path d="M160.225 133.011C160.225 133.011 160.183 133.137 160.141 133.349C160.056 133.56 159.972 133.856 159.845 134.236C159.761 134.447 159.718 134.659 159.634 134.87C159.549 135.123 159.465 135.377 159.38 135.673C159.211 136.222 159 136.856 158.831 137.574C158.747 137.912 158.62 138.292 158.535 138.715C158.451 139.095 158.366 139.518 158.24 139.94C158.028 140.785 157.901 141.715 157.69 142.645C157.352 144.588 157.099 146.701 156.887 148.94C156.718 151.18 156.634 153.335 156.592 155.279C156.592 157.222 156.592 158.997 156.676 160.476C156.718 161.194 156.761 161.87 156.803 162.462C156.845 163.053 156.887 163.56 156.93 163.983C156.972 164.363 156.972 164.701 157.014 164.912C157.014 165.124 157.014 165.251 157.014 165.251C157.014 165.251 156.972 165.124 156.972 164.912C156.93 164.659 156.887 164.363 156.845 163.983C156.803 163.56 156.761 163.053 156.718 162.462C156.676 161.87 156.592 161.194 156.592 160.476C156.507 158.997 156.465 157.222 156.465 155.279C156.465 153.335 156.549 151.18 156.761 148.898C156.972 146.659 157.268 144.504 157.606 142.56C157.817 141.588 157.944 140.701 158.155 139.856C158.24 139.433 158.366 139.011 158.451 138.631C158.578 138.25 158.662 137.87 158.747 137.49C158.916 136.771 159.127 136.138 159.338 135.588C159.423 135.292 159.507 135.039 159.592 134.828C159.676 134.574 159.761 134.363 159.845 134.194C159.972 133.814 160.099 133.518 160.183 133.307C160.141 133.137 160.183 133.011 160.225 133.011Z" fill="#212121"/>
<path d="M152.538 166.86C152.538 166.86 152.538 166.818 152.538 166.733C152.538 166.649 152.538 166.522 152.495 166.395C152.495 166.099 152.453 165.677 152.411 165.127C152.326 163.987 152.242 162.381 152.115 160.395C151.862 156.423 151.481 150.888 150.805 144.845C150.467 141.803 150.045 138.93 149.664 136.352C149.453 135.043 149.242 133.817 149.031 132.676C148.819 131.535 148.608 130.437 148.397 129.465C148.186 128.493 147.974 127.606 147.805 126.845C147.636 126.085 147.467 125.409 147.34 124.859C147.214 124.31 147.087 123.93 147.045 123.592C147.002 123.465 147.002 123.338 146.96 123.254C146.96 123.169 146.918 123.127 146.96 123.127C146.96 123.127 146.96 123.169 147.002 123.254C147.045 123.338 147.045 123.423 147.087 123.592C147.171 123.888 147.298 124.31 147.425 124.817C147.594 125.366 147.763 126 147.932 126.803C148.101 127.564 148.355 128.451 148.566 129.423C148.777 130.395 149.031 131.451 149.242 132.634C149.495 133.775 149.664 135.043 149.918 136.31C150.341 138.93 150.763 141.803 151.101 144.845C151.777 150.93 152.115 156.423 152.326 160.395C152.453 162.381 152.495 163.987 152.538 165.127C152.538 165.677 152.58 166.099 152.58 166.395C152.58 166.522 152.58 166.649 152.58 166.733C152.538 166.818 152.538 166.86 152.538 166.86Z" fill="#212121"/>
<path d="M154.14 126.462C154.013 125.068 152.619 124.054 151.225 124.054C149.83 124.054 148.563 124.857 147.718 125.955C146.872 127.054 146.408 128.364 146.027 129.716C145.098 132.969 144.591 136.35 144.971 139.688C145.351 143.026 146.746 146.322 149.112 148.688C149.492 149.068 149.999 149.448 150.549 149.322C150.844 149.279 151.098 149.068 151.309 148.857C156.042 144.589 158.746 138.209 158.577 131.871C158.535 130.603 158.366 129.293 157.689 128.237C156.971 127.181 155.365 126.04 154.14 126.462Z" fill="#462682"/>
<path d="M143.831 115.479C143.197 116.662 142.521 117.845 141.887 118.986C141.845 119.07 141.803 119.155 141.676 119.155C141.592 119.155 141.507 119.07 141.423 118.986C139.69 116.366 138 113.746 136.268 111.084L137.451 110.408L143.831 115.479Z" fill="#462682"/>
<g opacity="0.2">
<path d="M143.831 115.479C143.197 116.662 142.521 117.845 141.887 118.986C141.845 119.07 141.803 119.155 141.676 119.155C141.592 119.155 141.507 119.07 141.423 118.986C139.69 116.366 138 113.746 136.268 111.084L137.451 110.408L143.831 115.479Z" fill="black"/>
</g>
<path d="M154.268 121.818C148.437 118.353 142.564 114.931 136.733 111.466C136.564 111.381 136.353 111.255 136.31 111.043C136.226 110.79 136.437 110.536 136.606 110.325C139.015 107.832 142.522 106.395 145.986 106.649C149.451 106.902 152.747 108.888 154.437 111.931C156.17 114.973 156.212 118.945 154.268 121.818Z" fill="#462682"/>
<path d="M139.27 108.168C139.27 108.168 139.354 108.168 139.481 108.126C139.65 108.126 139.861 108.084 140.157 108.084C140.748 108.084 141.551 108.126 142.608 108.295C143.622 108.464 144.805 108.802 146.072 109.352C147.34 109.901 148.608 110.704 149.791 111.76C150.974 112.816 151.903 114.042 152.58 115.225C153.256 116.408 153.72 117.549 153.974 118.563C154.227 119.577 154.354 120.38 154.396 120.971C154.439 121.267 154.439 121.478 154.439 121.648C154.439 121.817 154.439 121.859 154.439 121.859C154.439 121.859 154.396 121.563 154.312 120.971C154.227 120.422 154.101 119.577 153.805 118.605C153.256 116.662 151.946 114.042 149.664 111.929C147.34 109.816 144.594 108.802 142.608 108.464C141.593 108.295 140.791 108.211 140.199 108.211C139.608 108.168 139.27 108.211 139.27 108.168Z" fill="#212121"/>
<path d="M151.905 114.676C151.905 114.719 151.567 114.845 151.018 115.099C150.469 115.31 149.666 115.606 148.821 115.859C147.933 116.155 147.131 116.366 146.581 116.493C145.99 116.62 145.652 116.704 145.609 116.662C145.609 116.62 145.947 116.535 146.539 116.324C147.173 116.113 147.933 115.902 148.778 115.606C149.624 115.352 150.342 115.099 151.018 114.888C151.525 114.761 151.905 114.634 151.905 114.676Z" fill="#212121"/>
<path d="M149.158 107.281C149.2 107.281 149.327 108.169 149.369 109.225C149.412 110.324 149.327 111.211 149.243 111.169C149.2 111.169 149.158 110.281 149.158 109.225C149.116 108.126 149.074 107.281 149.158 107.281Z" fill="#212121"/>
<path d="M136.605 111.297C136.605 111.255 137.07 111.086 137.873 110.832C138.676 110.578 139.775 110.283 141 109.987C142.225 109.691 143.366 109.48 144.169 109.311C144.972 109.184 145.521 109.1 145.521 109.142C145.521 109.184 145.014 109.269 144.211 109.48C143.408 109.649 142.268 109.902 141.042 110.198C139.817 110.494 138.718 110.79 137.873 111.001C137.113 111.17 136.605 111.297 136.605 111.297Z" fill="#212121"/>
<path d="M146.193 123.212C144.672 122.071 143.109 121.86 141.207 121.902C139.306 121.987 137.489 122.536 135.756 123.297C132.799 124.607 130.01 126.508 128.277 129.212C126.503 131.917 125.911 135.466 127.221 138.424C127.348 138.719 127.517 139.015 127.813 139.142C128.108 139.269 128.489 139.184 128.785 139.058C132.165 137.959 135.545 136.86 138.63 135.128C141.714 133.395 144.545 131.029 146.193 127.902C146.573 127.142 146.912 126.339 146.996 125.494C147.038 124.733 146.785 123.846 146.193 123.212Z" fill="#462682"/>
<path d="M146.241 122.869C146.241 122.869 146.157 122.911 145.988 122.954C145.819 122.996 145.565 123.08 145.27 123.207C145.101 123.249 144.932 123.334 144.763 123.376C144.594 123.461 144.382 123.545 144.171 123.587C143.748 123.756 143.241 123.925 142.734 124.179C142.481 124.306 142.185 124.433 141.889 124.559C141.593 124.686 141.298 124.855 141.002 125.024C140.41 125.32 139.777 125.7 139.101 126.08C137.833 126.883 136.439 127.855 135.129 129.038C133.819 130.221 132.678 131.447 131.706 132.63C131.241 133.221 130.776 133.813 130.396 134.362C130.185 134.658 130.016 134.912 129.847 135.165C129.678 135.419 129.509 135.672 129.382 135.926C129.086 136.39 128.833 136.897 128.622 137.278C128.495 137.489 128.41 137.658 128.326 137.827C128.241 137.996 128.157 138.165 128.072 138.292C127.945 138.545 127.819 138.799 127.734 138.968C127.65 139.137 127.607 139.179 127.607 139.179C127.607 139.179 127.65 139.095 127.692 138.926C127.776 138.757 127.861 138.503 127.988 138.25C128.072 138.081 128.114 137.954 128.199 137.743C128.283 137.574 128.368 137.362 128.495 137.151C128.706 136.728 128.917 136.264 129.255 135.799C129.424 135.545 129.551 135.292 129.72 135.038C129.889 134.785 130.1 134.489 130.269 134.235C130.65 133.644 131.115 133.095 131.579 132.503C132.551 131.32 133.692 130.052 135.044 128.911C136.396 127.728 137.748 126.757 139.058 125.954C139.734 125.573 140.326 125.193 140.96 124.897C141.255 124.728 141.551 124.602 141.847 124.475C142.143 124.348 142.396 124.221 142.692 124.095C143.199 123.841 143.706 123.672 144.129 123.545C144.34 123.461 144.551 123.376 144.72 123.334C144.889 123.292 145.101 123.207 145.227 123.165C145.523 123.08 145.777 122.996 145.946 122.954C146.115 122.869 146.199 122.869 146.241 122.869Z" fill="#212121"/>
<path d="M134.455 129.251C134.455 129.293 132.849 129.843 130.779 130.434C128.751 131.026 127.061 131.49 127.061 131.406C127.061 131.364 128.666 130.814 130.737 130.223C132.765 129.631 134.413 129.209 134.455 129.251Z" fill="#212121"/>
<path d="M134.281 137.322C134.239 137.322 134.239 136.899 134.197 136.181C134.197 135.462 134.154 134.491 134.197 133.434C134.239 132.336 134.281 131.364 134.323 130.688C134.366 129.969 134.45 129.547 134.45 129.547C134.492 129.547 134.492 129.969 134.45 130.688C134.408 131.448 134.408 132.42 134.366 133.434C134.323 134.491 134.323 135.42 134.281 136.181C134.323 136.899 134.323 137.322 134.281 137.322Z" fill="#212121"/>
<path d="M141.205 133.817C141.163 133.817 140.952 131.831 140.783 129.38C140.614 126.929 140.529 124.943 140.571 124.943C140.614 124.943 140.825 126.929 140.994 129.38C141.205 131.831 141.29 133.817 141.205 133.817Z" fill="#212121"/>
<path d="M132.59 124.731C132.59 124.688 133.055 124.688 133.773 124.688C134.491 124.688 135.505 124.731 136.604 124.731C137.703 124.773 138.717 124.815 139.435 124.857C140.153 124.9 140.618 124.942 140.618 124.984C140.618 125.027 140.153 125.027 139.435 125.027C138.717 125.027 137.703 124.984 136.604 124.984C135.505 124.942 134.491 124.9 133.773 124.857C133.055 124.815 132.59 124.773 132.59 124.731Z" fill="#212121"/>
<path d="M149.915 149.619C149.915 149.619 149.915 149.534 149.873 149.365C149.873 149.196 149.873 148.942 149.831 148.689C149.788 148.097 149.788 147.21 149.831 146.154C149.831 145.097 149.915 143.83 150.042 142.393C150.169 140.999 150.38 139.435 150.676 137.83C150.971 136.224 151.309 134.703 151.69 133.351C152.07 131.999 152.45 130.773 152.788 129.759C153.126 128.745 153.422 127.942 153.676 127.393C153.802 127.139 153.887 126.928 153.929 126.759C153.971 126.632 154.014 126.548 154.056 126.548C154.056 126.548 154.056 126.632 153.971 126.759C153.929 126.928 153.845 127.139 153.76 127.393C153.549 127.942 153.253 128.787 152.957 129.801C152.619 130.816 152.281 132.041 151.901 133.393C151.563 134.745 151.225 136.266 150.929 137.872C150.633 139.478 150.464 140.999 150.295 142.435C150.169 143.83 150.084 145.097 150.042 146.196C150 147.252 150 148.14 150 148.731C150 149.027 150 149.238 150 149.407C149.915 149.534 149.915 149.619 149.915 149.619Z" fill="#212121"/>
<path d="M150.844 137.664C150.844 137.664 150.59 137.96 150.125 138.425C149.66 138.889 149.027 139.481 148.308 140.115C147.59 140.749 146.872 141.298 146.365 141.72C145.858 142.101 145.52 142.354 145.52 142.312C145.52 142.27 145.815 142.016 146.28 141.594C146.829 141.129 147.463 140.58 148.182 139.946C148.9 139.312 149.534 138.763 150.041 138.298C150.505 137.918 150.844 137.664 150.844 137.664Z" fill="#212121"/>
<path d="M156.377 142.142C156.334 142.142 156.081 141.761 155.616 141.128C155.151 140.409 154.56 139.564 153.884 138.592C153.208 137.62 152.616 136.775 152.109 136.099C151.644 135.466 151.391 135.043 151.391 135.043C151.433 135.043 151.729 135.381 152.236 136.015C152.743 136.649 153.377 137.494 154.053 138.466C154.729 139.437 155.32 140.367 155.743 141.043C156.165 141.719 156.419 142.142 156.377 142.142Z" fill="#212121"/>
<path d="M153.506 128.066C153.549 128.108 151.689 129.375 149.408 130.854C147.084 132.333 145.225 133.516 145.182 133.432C145.14 133.39 146.999 132.122 149.281 130.643C151.563 129.206 153.464 128.023 153.506 128.066Z" fill="#212121"/>
<path d="M158.656 133.692C158.613 133.735 157.388 132.594 155.867 131.115C154.388 129.636 153.205 128.411 153.247 128.368C153.289 128.326 154.515 129.467 156.036 130.946C157.515 132.425 158.698 133.65 158.656 133.692Z" fill="#212121"/>
<path d="M159.973 133.605L161.536 133.479C162.677 133.394 163.733 133.056 164.747 132.507C165.212 132.253 165.719 131.958 166.226 131.746C168.17 130.943 170.367 131.112 172.48 130.986C175.902 130.817 179.325 129.929 182.41 128.45C182.579 128.366 182.748 128.239 182.832 128.07C183.17 127.479 182.536 126.972 182.029 126.634C179.367 124.986 176.663 123.338 173.621 122.493C170.578 121.69 167.156 121.817 164.578 123.591C161.621 125.662 160.522 129.929 159.973 133.605Z" fill="#462682"/>
<path d="M182.91 127.858C182.91 127.858 182.826 127.816 182.657 127.731C182.488 127.647 182.234 127.52 181.896 127.351C181.262 127.013 180.29 126.506 179.107 125.957C177.924 125.407 176.488 124.774 174.84 124.309C173.192 123.844 171.248 123.591 169.304 123.844C167.318 124.098 165.544 124.858 164.234 125.999C162.924 127.14 162.163 128.534 161.614 129.717C161.065 130.9 160.727 131.915 160.473 132.591C160.347 132.929 160.262 133.182 160.178 133.393C160.093 133.562 160.093 133.689 160.051 133.647C160.051 133.647 160.051 133.562 160.135 133.351C160.178 133.14 160.262 132.886 160.389 132.548C160.6 131.83 160.938 130.816 161.487 129.633C162.037 128.45 162.797 127.013 164.149 125.83C165.459 124.647 167.318 123.844 169.304 123.591C171.333 123.337 173.276 123.591 174.924 124.055C176.614 124.52 178.051 125.196 179.234 125.745C180.417 126.337 181.347 126.844 181.981 127.224C182.276 127.393 182.53 127.562 182.699 127.647C182.826 127.774 182.91 127.858 182.91 127.858Z" fill="#212121"/>
<path d="M179.111 129.887C179.069 129.929 176.999 128.577 174.506 126.887C171.97 125.197 169.984 123.76 169.984 123.718C170.027 123.676 172.097 125.028 174.59 126.718C177.125 128.45 179.111 129.845 179.111 129.887Z" fill="#212121"/>
<path d="M177.127 123.549C177.127 123.592 176.408 123.803 175.521 123.887C174.634 123.972 173.873 123.93 173.873 123.845C173.873 123.803 174.591 123.761 175.521 123.676C176.366 123.592 177.084 123.465 177.127 123.549Z" fill="#212121"/>
<path d="M167.836 121.901C167.878 121.943 167.582 122.535 167.16 123.253C166.737 123.971 166.357 124.52 166.315 124.52C166.272 124.52 166.568 123.887 166.991 123.168C167.413 122.408 167.793 121.858 167.836 121.901Z" fill="#212121"/>
<path d="M169.692 131.112C169.692 131.154 169.312 130.943 168.678 130.563C168.086 130.183 167.283 129.676 166.396 129.042C165.551 128.408 164.791 127.816 164.241 127.394C163.692 126.971 163.354 126.675 163.396 126.675C163.396 126.633 163.776 126.887 164.326 127.309C164.96 127.774 165.678 128.323 166.523 128.915C167.368 129.549 168.171 130.098 168.762 130.478C169.354 130.859 169.692 131.07 169.692 131.112Z" fill="#212121"/>
<path d="M162.337 140.324C160.816 139.944 159.041 141.381 158.703 142.902C158.407 144.423 158.957 145.986 159.633 147.423C161.112 150.55 163.182 153.423 165.886 155.578C168.591 157.733 171.971 159.127 175.436 159.085C174.802 156.127 175.605 153.043 175.267 150.001C174.971 147.381 173.746 144.846 171.844 142.986C169.985 141.127 167.45 139.944 164.83 139.648C163.816 139.564 162.717 139.437 162.337 140.324Z" fill="#462682"/>
<path d="M175.395 159.085C175.395 159.085 175.311 159.043 175.184 159.001C175.057 158.916 174.846 158.789 174.635 158.62C174.17 158.24 173.62 157.564 173.156 156.634C172.902 156.17 172.649 155.663 172.395 155.113C172.142 154.564 171.888 153.93 171.592 153.339C171.296 152.705 171.001 152.071 170.578 151.437C170.198 150.803 169.733 150.17 169.226 149.578C168.212 148.353 167.071 147.296 166.141 146.324C165.17 145.31 164.367 144.381 163.775 143.493C163.184 142.606 162.803 141.846 162.634 141.296C162.55 141 162.465 140.789 162.423 140.662C162.381 140.493 162.381 140.451 162.381 140.451C162.381 140.451 162.465 140.747 162.719 141.296C162.93 141.846 163.31 142.606 163.902 143.451C164.494 144.296 165.296 145.268 166.268 146.24C167.24 147.212 168.339 148.268 169.395 149.494C169.902 150.085 170.367 150.719 170.789 151.395C171.17 152.029 171.508 152.705 171.803 153.339C172.099 153.972 172.353 154.564 172.606 155.156C172.86 155.705 173.113 156.212 173.367 156.677C173.832 157.606 174.339 158.282 174.761 158.663C175.142 158.916 175.437 159.043 175.395 159.085Z" fill="#212121"/>
<path d="M167.615 156.632C167.573 156.632 167.615 156.252 167.742 155.618C167.869 154.985 168.038 154.139 168.334 153.21C168.587 152.28 168.883 151.435 169.094 150.844C169.306 150.252 169.475 149.914 169.517 149.914C169.559 149.914 169.432 150.294 169.263 150.886C169.094 151.477 168.841 152.323 168.545 153.252C168.292 154.182 168.08 155.027 167.911 155.618C167.742 156.252 167.615 156.632 167.615 156.632Z" fill="#212121"/>
<path d="M175.136 149.369C175.136 149.411 174.713 149.284 174.079 149.115C173.445 148.946 172.516 148.693 171.544 148.481C170.53 148.27 169.643 148.101 168.967 147.974C168.29 147.847 167.91 147.763 167.91 147.721C167.91 147.678 168.333 147.721 169.009 147.805C169.685 147.89 170.614 148.059 171.586 148.27C172.6 148.481 173.488 148.735 174.121 148.946C174.755 149.157 175.136 149.326 175.136 149.369Z" fill="#212121"/>
<path d="M161.997 151.478C161.955 151.478 162.04 151.013 162.166 150.295C162.293 149.577 162.504 148.605 162.8 147.506C163.096 146.408 163.392 145.478 163.603 144.76C163.856 144.084 164.026 143.661 164.026 143.661C164.068 143.661 163.941 144.126 163.73 144.802C163.518 145.52 163.265 146.492 162.969 147.549C162.673 148.647 162.462 149.619 162.293 150.337C162.166 151.013 162.04 151.478 161.997 151.478Z" fill="#212121"/>
<path d="M171.68 143.028C171.68 143.07 169.779 142.944 167.455 142.69C165.131 142.437 163.271 142.183 163.271 142.141C163.271 142.099 165.173 142.225 167.497 142.479C169.821 142.69 171.68 142.944 171.68 143.028Z" fill="#212121"/>
<path d="M170.277 165.845C170.277 165.887 163.643 165.93 155.488 165.93C147.333 165.93 140.699 165.887 140.699 165.845C140.699 165.803 147.333 165.761 155.488 165.761C163.643 165.761 170.277 165.803 170.277 165.845Z" fill="#455A64"/>
<path d="M165.674 174.38C165.674 174.423 161.195 174.465 155.702 174.465C150.209 174.465 145.73 174.423 145.73 174.38C145.73 174.338 150.209 174.296 155.702 174.296C161.238 174.254 165.674 174.296 165.674 174.38Z" fill="#455A64"/>
<path d="M165.846 175.606C165.846 175.648 161.367 175.69 155.874 175.69C150.381 175.69 145.902 175.648 145.902 175.606C145.902 175.564 150.381 175.521 155.874 175.521C161.41 175.479 165.846 175.521 165.846 175.606Z" fill="#455A64"/>
<path d="M165.846 173.366C165.846 173.408 161.241 173.45 155.537 173.45C149.832 173.45 145.227 173.408 145.227 173.366C145.227 173.324 149.832 173.281 155.537 173.281C161.241 173.281 165.846 173.324 165.846 173.366Z" fill="#455A64"/>
<path d="M178.481 186.588C178.481 186.63 138.508 186.714 89.2404 186.714C39.93 186.714 0 186.672 0 186.588C0 186.503 39.9723 186.461 89.2404 186.461C138.551 186.461 178.481 186.503 178.481 186.588Z" fill="#212121"/>
</svg>
