<svg width="277" height="70" viewBox="0 0 277 70" fill="none" xmlns="http://www.w3.org/2000/svg">
<path d="M218.861 58.1359C237.274 61.0305 254.239 64.8899 269.355 69.5534L257.616 45.9948L276.431 32.0044C261.074 26.3761 244.269 21.6322 226.259 17.9336L218.861 58.1359Z" fill="url(#paint0_linear)"/>
<path d="M57.5697 58.1359C39.157 61.0305 22.1917 64.8899 7.07561 69.5534L18.8147 45.9948L0 32.0044C15.3573 26.3761 32.1618 21.6322 50.1725 17.9336L57.5697 58.1359Z" fill="url(#paint1_linear)"/>
<path d="M56.2832 50.7388L57.5697 58.136L36.3429 55.161C36.4233 55.2414 49.6901 52.1056 56.2832 50.7388Z" fill="url(#paint2_linear)"/>
<path d="M220.148 50.7388L218.861 58.136L240.088 55.161C240.008 55.2414 226.741 52.1056 220.148 50.7388Z" fill="url(#paint3_linear)"/>
<path d="M138.216 0.245117C98.7369 0.245117 61.6704 5.55183 29.5085 14.7984L36.3429 55.1615C66.173 48.2467 100.988 44.2264 138.135 44.2264C175.282 44.2264 210.097 48.2467 239.927 55.1615L246.762 14.7984C214.761 5.55183 177.694 0.245117 138.216 0.245117Z" fill="url(#paint4_linear)"/>
<path d="M49.0468 21.874L54.2731 25.3314L60.0622 22.9997L58.4541 29.03L62.4744 33.7739L56.2028 34.0955L52.9062 39.4022L50.6549 33.5327L44.6245 32.005L49.5292 28.0652L49.0468 21.874Z" fill="url(#paint5_radial)"/>
<path d="M49.69 22.9194L54.1927 25.8944L59.1778 23.8039L57.7305 29.0302L61.1879 33.1308L55.8008 33.372L52.9866 37.9551L51.0569 32.8896L45.8306 31.6031L50.0116 28.2261L49.69 22.9194Z" fill="url(#paint6_radial)"/>
<path d="M224.972 21.874L219.746 25.3314L213.957 22.9997L215.645 29.03L211.625 33.7739L217.816 34.0955L221.193 39.4022L223.364 33.5327L229.475 32.005L224.57 28.0652L224.972 21.874Z" fill="url(#paint7_radial)"/>
<path d="M224.409 22.9194L219.907 25.8944L214.921 23.8039L216.369 29.0302L212.831 33.1308L218.218 33.372L221.113 37.9551L222.962 32.8896L228.188 31.6031L224.007 28.2261L224.409 22.9194Z" fill="url(#paint8_radial)"/>
<path d="M78.1172 30.4971C78.1172 30.3024 78.1595 30.0316 78.2441 29.6846C78.3288 29.3291 78.443 29.054 78.5869 28.8594C78.9508 28.3431 79.2852 27.8691 79.5898 27.4375C79.8945 27.0059 80.1654 26.6335 80.4023 26.3203C80.6393 26.0072 80.8763 25.7279 81.1133 25.4824C82.5605 23.9167 83.5973 22.7487 84.2236 21.9785C84.8499 21.1999 85.1631 20.6582 85.1631 20.3535C85.1631 20.1504 85.07 19.9938 84.8838 19.8838C84.6976 19.7653 84.4521 19.7061 84.1475 19.7061C83.5212 19.7061 82.734 19.9303 81.7861 20.3789C80.8382 20.819 79.7295 21.3945 78.46 22.1055C77.1989 22.8164 76.4964 23.1719 76.3525 23.1719C76.124 23.1719 76.0098 23.0068 76.0098 22.6768C76.0098 22.3975 76.0986 21.9997 76.2764 21.4834C76.4118 20.9248 76.5218 20.4932 76.6064 20.1885C76.6911 19.8753 76.8307 19.596 77.0254 19.3506C77.2285 19.1051 77.5586 18.8385 78.0156 18.5508C78.4811 18.263 79.1921 17.8695 80.1484 17.3701L80.2754 17.8398C81.071 17.5182 81.82 17.2728 82.5225 17.1035C83.2334 16.9342 83.8385 16.8496 84.3379 16.8496C85.3197 16.8496 86.0137 17.0189 86.4199 17.3574C86.8346 17.6875 87.042 18.4111 87.042 19.5283C87.042 20.1377 86.9531 20.6455 86.7754 21.0518C86.5977 21.458 86.2507 22.0251 85.7344 22.7529C84.5579 24.4626 83.6735 25.6475 83.0811 26.3076C81.363 28.2712 80.5039 29.418 80.5039 29.748C80.5039 29.9342 80.6266 30.0273 80.8721 30.0273C81.0752 30.0273 81.363 29.8835 81.7354 29.5957C82.1077 29.3079 82.5563 28.8932 83.0811 28.3516C83.6058 27.8099 84.3337 27.0355 85.2646 26.0283C86.2549 24.9619 87.0885 24.0225 87.7656 23.21C88.4512 22.389 89.014 21.6908 89.4541 21.1152C89.8942 20.5312 90.127 20.2181 90.1523 20.1758C90.6094 19.6172 91.0791 19.1602 91.5615 18.8047C92.0524 18.4408 92.3656 18.2588 92.501 18.2588C92.6025 18.2588 92.721 18.3519 92.8564 18.5381C92.9919 18.7243 93.1061 18.9443 93.1992 19.1982C93.3008 19.4521 93.3516 19.6468 93.3516 19.7822C93.3516 19.8245 93.25 20.0319 93.0469 20.4043C92.8438 20.7682 92.6237 21.1491 92.3867 21.5469C92.1497 21.9362 91.7689 22.5371 91.2441 23.3496C90.0931 25.1354 89.2129 26.6377 88.6035 27.8564C87.9941 29.0667 87.6895 29.8623 87.6895 30.2432C87.6895 30.3786 87.736 30.5055 87.8291 30.624C87.9307 30.734 88.0322 30.7891 88.1338 30.7891C88.2692 30.7891 88.5146 30.6833 88.8701 30.4717C89.2256 30.2516 89.6191 29.9385 90.0508 29.5322C90.6178 28.9906 91.1341 28.4277 91.5996 27.8438C92.0651 27.2598 92.5264 26.6081 92.9834 25.8887C93.4404 25.1693 93.8467 24.488 94.2021 23.8447C94.5576 23.2015 94.9173 22.5244 95.2812 21.8135L95.0654 21.166C95.0316 21.0645 95.0146 20.9333 95.0146 20.7725C95.0146 20.6455 95.2643 20.235 95.7637 19.541C96.263 18.8385 96.5931 18.4873 96.7539 18.4873C96.9316 18.4873 97.0798 18.6185 97.1982 18.8809C97.3252 19.1348 97.3887 19.3929 97.3887 19.6553C97.3887 19.943 97.2575 20.5186 96.9951 21.3818C96.7412 22.2367 96.3392 23.2734 95.7891 24.4922C95.2474 25.7109 94.5745 26.9508 93.7705 28.2119C93.0765 29.3122 92.3317 30.2559 91.5361 31.043C90.749 31.8216 90.0381 32.4014 89.4033 32.7822C88.7686 33.1631 88.2988 33.3535 87.9941 33.3535C87.6471 33.3535 87.2832 33.2012 86.9023 32.8965C86.5892 32.6257 86.3649 32.3844 86.2295 32.1729C86.1025 31.9528 86.0179 31.7158 85.9756 31.4619C85.9333 31.208 85.9121 30.9118 85.9121 30.5732C85.9121 29.8538 86.111 29.0117 86.5088 28.0469C86.9066 27.082 87.499 25.8802 88.2861 24.4414C85.8232 27.4375 83.9147 29.6169 82.5605 30.9795C81.2148 32.3421 80.2288 33.0234 79.6025 33.0234C79.1878 33.0234 78.8366 32.778 78.5488 32.2871C78.2611 31.7878 78.1172 31.1911 78.1172 30.4971Z" fill="white"/>
<path d="M103.851 28.5293V29.3799C103.292 29.8877 102.843 30.2262 102.505 30.3955C102.166 30.5648 101.68 30.6325 101.045 30.5986C99.9447 31.902 98.9756 32.5537 98.1377 32.5537C97.6637 32.5537 97.2321 32.3971 96.8428 32.084C96.4535 31.7708 96.1403 31.3434 95.9033 30.8018C95.6748 30.2601 95.5605 29.6549 95.5605 28.9863C95.5605 28.4447 95.7383 27.8438 96.0938 27.1836C96.4577 26.5234 96.9232 25.9098 97.4902 25.3428C98.0658 24.7673 98.6794 24.306 99.3311 23.959C99.9827 23.6035 100.588 23.4258 101.146 23.4258C101.544 23.4258 101.857 23.4893 102.086 23.6162C102.314 23.7347 102.429 23.904 102.429 24.124C102.429 24.2933 102.331 24.488 102.137 24.708C102.458 24.7757 102.678 24.89 102.797 25.0508C102.915 25.2031 102.975 25.4867 102.975 25.9014C102.975 26.3076 102.877 26.8197 102.683 27.4375C102.496 28.0553 102.238 28.6351 101.908 29.1768L102.137 29.4053H102.327C102.471 29.4053 102.611 29.3714 102.746 29.3037C102.89 29.2275 103.017 29.1514 103.127 29.0752C103.237 28.9906 103.478 28.8086 103.851 28.5293ZM101.235 25.1904C100.533 25.6136 99.932 25.9987 99.4326 26.3457C98.9333 26.6842 98.5101 27.0312 98.1631 27.3867C97.8161 27.7337 97.5833 28.085 97.4648 28.4404C97.2533 29.3883 97.1475 29.9004 97.1475 29.9766C97.1475 30.5352 97.5368 30.8145 98.3154 30.8145C98.6794 30.8145 99.2887 30.5013 100.144 29.875C99.9997 29.4772 99.9277 29.0964 99.9277 28.7324C99.9277 28.1992 100.038 27.6576 100.258 27.1074C100.478 26.5488 100.804 25.9098 101.235 25.1904Z" fill="white"/>
<path d="M112.395 26.2568C110.905 27.9157 110.16 29.071 110.16 29.7227C110.16 30.0866 110.308 30.2686 110.604 30.2686C110.85 30.2686 111.167 30.1416 111.557 29.8877C111.954 29.6253 112.572 29.1641 113.41 28.5039V29.3799C112.208 30.5648 111.286 31.4196 110.643 31.9443C109.999 32.4691 109.475 32.7314 109.068 32.7314C108.374 32.7314 108.027 32.2744 108.027 31.3604C108.027 31.0895 108.07 30.8229 108.154 30.5605C108.239 30.2982 108.353 30.0273 108.497 29.748C108.649 29.4603 108.878 29.054 109.183 28.5293C109.487 27.9961 109.839 27.3952 110.236 26.7266C109.754 26.972 109.149 27.4587 108.421 28.1865C107.947 28.6436 107.545 29.0794 107.215 29.4941C106.885 29.9004 106.529 30.3574 106.148 30.8652C105.776 31.3646 105.501 31.7031 105.323 31.8809C105.154 32.0501 104.98 32.1348 104.803 32.1348C104.532 32.1348 104.282 31.8512 104.054 31.2842C103.825 30.7171 103.711 30.057 103.711 29.3037C103.711 28.8382 103.762 28.4743 103.863 28.2119C103.973 27.9495 104.185 27.5771 104.498 27.0947C105.082 26.1976 105.586 25.5417 106.009 25.127C106.432 24.7038 106.838 24.4922 107.228 24.4922C107.498 24.4922 107.714 24.5387 107.875 24.6318C108.044 24.7249 108.129 24.8688 108.129 25.0635C108.129 25.1481 108.104 25.237 108.053 25.3301C108.002 25.4232 107.943 25.5078 107.875 25.584C107.816 25.6602 107.685 25.8083 107.481 26.0283C106.144 27.5094 105.476 28.4701 105.476 28.9102C105.476 29.1556 105.556 29.2783 105.717 29.2783C105.818 29.2783 106.013 29.1175 106.301 28.7959C106.597 28.4658 106.974 28.0384 107.431 27.5137C107.896 26.9805 108.442 26.4261 109.068 25.8506C109.703 25.2751 110.423 24.7207 111.227 24.1875C111.675 23.8743 112.048 23.7178 112.344 23.7178C112.479 23.7178 112.61 23.904 112.737 24.2764C112.873 24.6488 112.94 25.0254 112.94 25.4062C112.94 25.5924 112.758 25.876 112.395 26.2568Z" fill="white"/>
<path d="M125.75 25.0127L129.622 19.2363C128.742 19.2702 127.815 19.3971 126.842 19.6172C125.868 19.8372 125.035 20.0742 124.341 20.3281C123.647 20.5736 123.025 20.8105 122.475 21.0391C121.933 21.2591 121.544 21.4157 121.307 21.5088C121.247 21.5088 121.188 21.4876 121.129 21.4453C121.07 21.403 121.04 21.3522 121.04 21.293C121.04 21.2253 121.235 20.8105 121.624 20.0488C122.022 19.2871 122.487 18.4704 123.021 17.5986C125.983 16.5407 128.598 16.0117 130.866 16.0117C133.49 16.0117 135.31 16.5703 136.325 17.6875C136.689 18.0768 136.968 18.5592 137.163 19.1348C137.366 19.7018 137.468 20.2646 137.468 20.8232C137.468 22.0928 137.201 23.248 136.668 24.2891C136.143 25.3216 135.39 26.2188 134.408 26.9805C133.426 27.7422 132.271 28.3262 130.942 28.7324C129.614 29.1302 128.158 29.3291 126.575 29.3291C126.296 29.3291 125.725 29.2783 124.861 29.1768L123.719 31.2588C123.837 31.4365 123.896 31.5804 123.896 31.6904C123.896 31.9528 123.837 32.1729 123.719 32.3506C123.549 32.6045 123.325 32.9388 123.046 33.3535C122.767 33.7682 122.576 34.0433 122.475 34.1787C122.382 34.3141 122.271 34.4326 122.145 34.5342C122.026 34.6357 121.908 34.6865 121.789 34.6865C121.544 34.6865 121.387 34.6104 121.319 34.458C121.252 34.3141 121.218 34.111 121.218 33.8486C121.218 33.4762 121.4 32.888 121.764 32.084C122.136 31.2715 122.695 30.1966 123.439 28.8594C123.042 28.707 122.733 28.5081 122.513 28.2627C122.293 28.0173 122.183 27.776 122.183 27.5391C122.183 27.0143 122.483 26.5277 123.084 26.0791C123.685 25.6305 124.574 25.2751 125.75 25.0127ZM127.07 25.3555L126.347 26.5742C126.668 26.5911 126.952 26.6081 127.197 26.625C127.451 26.6419 127.663 26.6504 127.832 26.6504C129.313 26.6504 130.595 26.4515 131.679 26.0537C132.771 25.6559 133.634 25.165 134.269 24.5811C134.912 23.9886 135.377 23.3962 135.665 22.8037C135.953 22.2113 136.097 21.7161 136.097 21.3184C136.097 20.7682 135.877 20.3366 135.437 20.0234C134.996 19.7103 134.362 19.4987 133.532 19.3887C132.711 19.2702 131.649 19.2109 130.346 19.2109C130.363 19.304 130.371 19.4183 130.371 19.5537C130.371 19.9938 130.138 20.5736 129.673 21.293L127.464 24.7588L129.127 24.5684C129.262 24.5684 129.33 24.6318 129.33 24.7588C129.33 24.8688 129.22 24.945 129 24.9873L127.07 25.3555Z" fill="white"/>
<path d="M136.77 29.5322V28.707C137.227 28.1654 137.574 27.7041 137.811 27.3232C137.54 27.2301 137.341 27.1159 137.214 26.9805C137.095 26.8451 137.036 26.6419 137.036 26.3711C137.036 26.0664 137.163 25.6813 137.417 25.2158C137.671 24.7503 137.984 24.3145 138.356 23.9082C138.729 23.502 139.067 23.2396 139.372 23.1211C139.491 23.0618 139.605 23.0322 139.715 23.0322C139.884 23.0322 139.969 23.1126 139.969 23.2734C139.969 23.4173 139.838 23.7093 139.575 24.1494C141.319 23.8786 142.419 23.7432 142.876 23.7432C143.054 23.7432 143.176 23.7601 143.244 23.7939C143.388 23.8701 143.507 24.0479 143.6 24.3271C143.693 24.6064 143.739 24.8857 143.739 25.165C143.739 25.3428 143.659 25.5374 143.498 25.749C143.346 25.9521 143.079 26.2526 142.698 26.6504C142.25 27.1328 141.873 27.6576 141.568 28.2246C141.264 28.7917 141.111 29.2191 141.111 29.5068C141.111 29.9046 141.357 30.1035 141.848 30.1035C142.364 30.1035 143.261 29.5788 144.539 28.5293V29.3799C143.837 30.1162 143.257 30.696 142.8 31.1191C142.343 31.5423 141.92 31.8809 141.53 32.1348C141.141 32.3802 140.794 32.5029 140.489 32.5029C140.134 32.5029 139.838 32.3421 139.601 32.0205C139.364 31.6904 139.245 31.2165 139.245 30.5986C139.245 30.2347 139.338 29.82 139.524 29.3545C139.711 28.889 139.981 28.3854 140.337 27.8438C140.701 27.2936 141.107 26.7477 141.556 26.2061C141.319 26.2568 141.052 26.3118 140.756 26.3711C140.46 26.4219 140.146 26.4769 139.816 26.5361C139.486 26.5954 139.232 26.6419 139.055 26.6758C138.53 27.7253 137.768 28.6774 136.77 29.5322Z" fill="white"/>
<path d="M152.651 28.5293V29.3799C152.093 29.8877 151.644 30.2262 151.306 30.3955C150.967 30.5648 150.48 30.6325 149.846 30.5986C148.745 31.902 147.776 32.5537 146.938 32.5537C146.465 32.5537 146.033 32.3971 145.644 32.084C145.254 31.7708 144.941 31.3434 144.704 30.8018C144.476 30.2601 144.361 29.6549 144.361 28.9863C144.361 28.4447 144.539 27.8438 144.895 27.1836C145.258 26.5234 145.724 25.9098 146.291 25.3428C146.867 24.7673 147.48 24.306 148.132 23.959C148.784 23.6035 149.389 23.4258 149.947 23.4258C150.345 23.4258 150.658 23.4893 150.887 23.6162C151.115 23.7347 151.229 23.904 151.229 24.124C151.229 24.2933 151.132 24.488 150.938 24.708C151.259 24.7757 151.479 24.89 151.598 25.0508C151.716 25.2031 151.775 25.4867 151.775 25.9014C151.775 26.3076 151.678 26.8197 151.483 27.4375C151.297 28.0553 151.039 28.6351 150.709 29.1768L150.938 29.4053H151.128C151.272 29.4053 151.411 29.3714 151.547 29.3037C151.691 29.2275 151.818 29.1514 151.928 29.0752C152.038 28.9906 152.279 28.8086 152.651 28.5293ZM150.036 25.1904C149.334 25.6136 148.733 25.9987 148.233 26.3457C147.734 26.6842 147.311 27.0312 146.964 27.3867C146.617 27.7337 146.384 28.085 146.266 28.4404C146.054 29.3883 145.948 29.9004 145.948 29.9766C145.948 30.5352 146.338 30.8145 147.116 30.8145C147.48 30.8145 148.09 30.5013 148.944 29.875C148.8 29.4772 148.729 29.0964 148.729 28.7324C148.729 28.1992 148.839 27.6576 149.059 27.1074C149.279 26.5488 149.604 25.9098 150.036 25.1904Z" fill="white"/>
<path d="M152.486 29.6211V28.7324C153.671 27.446 154.691 26.2357 155.546 25.1016C156.409 23.9674 157.09 23.0661 157.59 22.3975C158.089 21.7288 158.529 21.2591 158.91 20.9883C159.291 20.709 159.769 20.5693 160.345 20.5693C160.632 20.5693 160.776 20.6794 160.776 20.8994C160.776 21.0771 160.658 21.3395 160.421 21.6865C160.192 22.0335 159.896 22.389 159.532 22.7529C159.05 23.2269 158.576 23.8236 158.11 24.543C157.653 25.2539 157.133 26.1637 156.549 27.2725C157.006 26.917 157.531 26.498 158.123 26.0156C158.724 25.5247 159.211 25.1439 159.583 24.873C159.964 24.5938 160.336 24.3737 160.7 24.2129C161.073 24.0521 161.445 23.9717 161.817 23.9717C162.054 23.9717 162.207 24.014 162.274 24.0986C162.351 24.1833 162.389 24.3483 162.389 24.5938C162.389 25.237 162.232 25.8675 161.919 26.4854C161.606 27.0947 161.157 27.7295 160.573 28.3896C159.989 29.0498 159.27 29.7692 158.415 30.5479C158.711 30.6579 159.016 30.7129 159.329 30.7129C160.311 30.7129 161.627 29.9639 163.277 28.4658V29.3799C162.634 29.9554 162.004 30.4971 161.386 31.0049C160.776 31.5127 160.201 31.9189 159.659 32.2236C159.118 32.5283 158.618 32.6807 158.161 32.6807C157.992 32.6807 157.81 32.6595 157.615 32.6172C157.429 32.5833 157.256 32.541 157.095 32.4902C156.934 32.431 156.727 32.3506 156.473 32.249C156.219 32.1475 156.024 32.0755 155.889 32.0332C155.618 32.1009 155.465 32.1348 155.432 32.1348C155.135 32.1348 154.788 32.0163 154.391 31.7793C154.111 32.321 153.802 33.0192 153.464 33.874C153.134 34.7373 152.854 35.4229 152.626 35.9307C152.397 36.4385 152.093 36.9251 151.712 37.3906C151.5 37.6022 151.352 37.708 151.268 37.708C150.904 37.708 150.722 37.3864 150.722 36.7432C150.722 36.1846 150.836 35.6006 151.064 34.9912C151.285 34.3903 151.56 33.819 151.89 33.2773C152.211 32.7357 152.567 32.1898 152.956 31.6396C153.345 31.0811 153.62 30.6663 153.781 30.3955C155.118 28.0934 156.16 26.1341 156.904 24.5176C154.958 26.8874 153.485 28.5885 152.486 29.6211ZM157.641 30.2432C158.479 29.363 159.101 28.6139 159.507 27.9961C159.922 27.3783 160.129 26.9043 160.129 26.5742C160.129 26.2611 159.972 26.1045 159.659 26.1045C159.236 26.1045 158.639 26.4557 157.869 27.1582C157.107 27.8522 156.32 28.7917 155.508 29.9766C156.134 29.9089 156.553 29.8877 156.765 29.9131C156.976 29.93 157.268 30.04 157.641 30.2432Z" fill="white"/>
<path d="M171.364 28.5293V29.3799C170.806 29.8877 170.357 30.2262 170.019 30.3955C169.68 30.5648 169.193 30.6325 168.559 30.5986C167.458 31.902 166.489 32.5537 165.651 32.5537C165.177 32.5537 164.746 32.3971 164.356 32.084C163.967 31.7708 163.654 31.3434 163.417 30.8018C163.188 30.2601 163.074 29.6549 163.074 28.9863C163.074 28.4447 163.252 27.8438 163.607 27.1836C163.971 26.5234 164.437 25.9098 165.004 25.3428C165.579 24.7673 166.193 24.306 166.845 23.959C167.496 23.6035 168.102 23.4258 168.66 23.4258C169.058 23.4258 169.371 23.4893 169.6 23.6162C169.828 23.7347 169.942 23.904 169.942 24.124C169.942 24.2933 169.845 24.488 169.65 24.708C169.972 24.7757 170.192 24.89 170.311 25.0508C170.429 25.2031 170.488 25.4867 170.488 25.9014C170.488 26.3076 170.391 26.8197 170.196 27.4375C170.01 28.0553 169.752 28.6351 169.422 29.1768L169.65 29.4053H169.841C169.985 29.4053 170.124 29.3714 170.26 29.3037C170.404 29.2275 170.531 29.1514 170.641 29.0752C170.751 28.9906 170.992 28.8086 171.364 28.5293ZM168.749 25.1904C168.047 25.6136 167.446 25.9987 166.946 26.3457C166.447 26.6842 166.024 27.0312 165.677 27.3867C165.33 27.7337 165.097 28.085 164.979 28.4404C164.767 29.3883 164.661 29.9004 164.661 29.9766C164.661 30.5352 165.05 30.8145 165.829 30.8145C166.193 30.8145 166.802 30.5013 167.657 29.875C167.513 29.4772 167.441 29.0964 167.441 28.7324C167.441 28.1992 167.551 27.6576 167.771 27.1074C167.992 26.5488 168.317 25.9098 168.749 25.1904Z" fill="white"/>
<path d="M171.301 28.9102V28.6055C173.484 26.3034 174.987 24.6911 175.808 23.7686C175.994 22.7275 176.442 22.207 177.153 22.207C177.331 22.207 177.521 22.2578 177.725 22.3594L177.801 22.6006C177.767 22.7021 177.75 22.846 177.75 23.0322C177.75 23.193 177.809 23.4935 177.928 23.9336C178.055 24.3652 178.152 24.7292 178.22 25.0254C178.287 25.3216 178.321 25.6559 178.321 26.0283C178.321 26.5869 178.194 27.1243 177.94 27.6406C177.687 28.1484 177.318 28.6393 176.836 29.1133C176.354 29.5788 175.731 30.057 174.97 30.5479C175.274 30.5986 175.516 30.624 175.693 30.624C176.04 30.624 176.413 30.5394 176.811 30.3701C177.217 30.1924 177.627 29.9596 178.042 29.6719C178.465 29.3757 178.956 28.9948 179.515 28.5293V29.3799C178.431 30.4378 177.462 31.2419 176.607 31.792C175.753 32.3337 175.016 32.6045 174.398 32.6045C173.603 32.6045 172.867 32.266 172.189 31.5889C171.792 31.1826 171.542 30.7933 171.44 30.4209C171.347 30.0485 171.301 29.5449 171.301 28.9102ZM176.036 26.9678L175.808 25.1143C175.283 25.7067 174.161 26.8451 172.443 28.5293C172.951 28.6393 173.298 28.7874 173.484 28.9736C173.671 29.1598 173.933 29.5195 174.271 30.0527C174.847 29.8158 175.287 29.4941 175.592 29.0879C175.905 28.6732 176.062 28.1104 176.062 27.3994C176.062 27.3148 176.057 27.2386 176.049 27.1709C176.049 27.1032 176.045 27.0355 176.036 26.9678Z" fill="white"/>
<path d="M180.962 26.2822C182.248 25.1143 183.497 24.2467 184.707 23.6797C185.917 23.1126 186.853 22.8291 187.513 22.8291C187.69 22.8291 187.855 22.9053 188.008 23.0576C188.16 23.2015 188.279 23.3708 188.363 23.5654C188.456 23.7601 188.503 23.904 188.503 23.9971C188.503 24.1494 188.444 24.2637 188.325 24.3398C188.207 24.4076 187.999 24.4922 187.703 24.5938C187.762 24.7292 187.839 24.9027 187.932 25.1143C188.025 25.3258 188.097 25.4993 188.147 25.6348C188.198 25.7617 188.224 25.876 188.224 25.9775C188.224 26.1807 188.016 26.5615 187.602 27.1201C187.195 27.6702 186.908 28.0765 186.738 28.3389C186.577 28.6012 186.497 28.9229 186.497 29.3037C186.497 29.93 186.785 30.2432 187.36 30.2432C187.953 30.2432 188.88 29.6888 190.141 28.5801V29.3545C187.999 31.7327 186.467 32.9219 185.545 32.9219C185.215 32.9219 184.978 32.8118 184.834 32.5918C184.699 32.3802 184.631 32.0628 184.631 31.6396C184.631 30.971 184.872 30.002 185.354 28.7324C184.119 30.1035 183.201 31.0811 182.6 31.665C181.999 32.2406 181.504 32.5283 181.114 32.5283C180.928 32.5283 180.695 32.3675 180.416 32.0459C180.137 31.7243 179.887 31.3096 179.667 30.8018C179.455 30.2855 179.35 29.7523 179.35 29.2021C179.35 28.8044 179.388 28.4743 179.464 28.2119C179.54 27.9411 179.688 27.666 179.908 27.3867C180.128 27.1074 180.479 26.7393 180.962 26.2822ZM187.043 24.8857C184.842 25.8929 183.272 26.7477 182.333 27.4502C181.402 28.1527 180.937 28.8763 180.937 29.6211C180.937 29.8919 180.983 30.1162 181.076 30.2939C181.169 30.4632 181.296 30.5479 181.457 30.5479C181.55 30.5479 181.715 30.4886 181.952 30.3701C182.841 29.8454 183.653 29.1641 184.39 28.3262C185.126 27.4798 186.01 26.333 187.043 24.8857Z" fill="white"/>
<path d="M196.107 28.415V29.3545C194.339 31.6989 192.9 32.8711 191.791 32.8711C191.19 32.8711 190.716 32.5452 190.369 31.8936C190.031 31.2334 189.861 30.3701 189.861 29.3037C189.861 28.4404 190.064 27.4163 190.471 26.2314C190.877 25.0381 191.419 23.832 192.096 22.6133C192.781 21.3861 193.488 20.3197 194.216 19.4141C194.952 18.5 195.633 17.861 196.26 17.4971C196.514 17.3447 196.713 17.2686 196.856 17.2686C197.034 17.2686 197.153 17.349 197.212 17.5098C197.271 17.6621 197.301 17.9287 197.301 18.3096C197.301 19.486 196.823 20.9333 195.866 22.6514C194.91 24.361 193.577 26.1087 191.867 27.8945C191.783 28.3346 191.74 28.6732 191.74 28.9102C191.74 29.4518 191.854 29.8919 192.083 30.2305C192.32 30.569 192.646 30.7383 193.061 30.7383C193.272 30.7383 193.501 30.6579 193.746 30.4971C193.992 30.3278 194.25 30.1204 194.521 29.875C194.791 29.6296 195.32 29.1429 196.107 28.415ZM192.312 26.1299C192.752 25.6982 193.175 25.2074 193.581 24.6572C193.996 24.1071 194.385 23.5189 194.749 22.8926C195.113 22.2663 195.396 21.7035 195.6 21.2041C195.811 20.7048 195.917 20.3281 195.917 20.0742C195.917 19.8796 195.849 19.7822 195.714 19.7822C195.663 19.7822 195.566 19.8288 195.422 19.9219C194.906 20.3451 194.326 21.1745 193.683 22.4102C193.039 23.6374 192.582 24.8773 192.312 26.1299Z" fill="white"/>
<path d="M195.955 28.9102V28.6055C198.139 26.3034 199.641 24.6911 200.462 23.7686C200.648 22.7275 201.097 22.207 201.808 22.207C201.985 22.207 202.176 22.2578 202.379 22.3594L202.455 22.6006C202.421 22.7021 202.404 22.846 202.404 23.0322C202.404 23.193 202.464 23.4935 202.582 23.9336C202.709 24.3652 202.806 24.7292 202.874 25.0254C202.942 25.3216 202.976 25.6559 202.976 26.0283C202.976 26.5869 202.849 27.1243 202.595 27.6406C202.341 28.1484 201.973 28.6393 201.49 29.1133C201.008 29.5788 200.386 30.057 199.624 30.5479C199.929 30.5986 200.17 30.624 200.348 30.624C200.695 30.624 201.067 30.5394 201.465 30.3701C201.871 30.1924 202.282 29.9596 202.696 29.6719C203.119 29.3757 203.61 28.9948 204.169 28.5293V29.3799C203.086 30.4378 202.117 31.2419 201.262 31.792C200.407 32.3337 199.671 32.6045 199.053 32.6045C198.257 32.6045 197.521 32.266 196.844 31.5889C196.446 31.1826 196.196 30.7933 196.095 30.4209C196.002 30.0485 195.955 29.5449 195.955 28.9102ZM200.69 26.9678L200.462 25.1143C199.937 25.7067 198.816 26.8451 197.098 28.5293C197.605 28.6393 197.952 28.7874 198.139 28.9736C198.325 29.1598 198.587 29.5195 198.926 30.0527C199.501 29.8158 199.941 29.4941 200.246 29.0879C200.559 28.6732 200.716 28.1104 200.716 27.3994C200.716 27.3148 200.712 27.2386 200.703 27.1709C200.703 27.1032 200.699 27.0355 200.69 26.9678Z" fill="white"/>
<defs>
<linearGradient id="paint0_linear" x1="273.074" y1="47.5005" x2="217.809" y2="39.3416" gradientUnits="userSpaceOnUse">
<stop stop-color="#E1655A"/>
<stop offset="0.3457" stop-color="#E1655A"/>
<stop offset="0.4736" stop-color="#CD352F"/>
<stop offset="0.5918" stop-color="#BD0F0D"/>
<stop offset="0.6537" stop-color="#B70000"/>
<stop offset="0.7294" stop-color="#950000"/>
<stop offset="0.848" stop-color="#640000"/>
<stop offset="0.9386" stop-color="#460000"/>
<stop offset="0.9898" stop-color="#3B0000"/>
</linearGradient>
<linearGradient id="paint1_linear" x1="3.35697" y1="47.5002" x2="58.6154" y2="39.3423" gradientUnits="userSpaceOnUse">
<stop stop-color="#E1655A"/>
<stop offset="0.3457" stop-color="#E1655A"/>
<stop offset="0.4736" stop-color="#CD352F"/>
<stop offset="0.5918" stop-color="#BD0F0D"/>
<stop offset="0.6537" stop-color="#B70000"/>
<stop offset="0.7294" stop-color="#950000"/>
<stop offset="0.848" stop-color="#640000"/>
<stop offset="0.9386" stop-color="#460000"/>
<stop offset="0.9898" stop-color="#3B0000"/>
</linearGradient>
<linearGradient id="paint2_linear" x1="46.2421" y1="52.9195" x2="56.7888" y2="61.0887" gradientUnits="userSpaceOnUse">
<stop stop-color="#240000"/>
<stop offset="0.1655" stop-color="#330000"/>
<stop offset="0.4853" stop-color="#5B0000"/>
<stop offset="0.9237" stop-color="#9B0000"/>
<stop offset="1" stop-color="#A70000"/>
</linearGradient>
<linearGradient id="paint3_linear" x1="230.181" y1="52.9201" x2="219.635" y2="61.0893" gradientUnits="userSpaceOnUse">
<stop stop-color="#240000"/>
<stop offset="0.1655" stop-color="#330000"/>
<stop offset="0.4853" stop-color="#5B0000"/>
<stop offset="0.9237" stop-color="#9B0000"/>
<stop offset="1" stop-color="#A70000"/>
</linearGradient>
<linearGradient id="paint4_linear" x1="31.3098" y1="51.1855" x2="448.291" y2="-18.5933" gradientUnits="userSpaceOnUse">
<stop offset="0.00391685" stop-color="#E16560"/>
<stop offset="0.0822236" stop-color="#E63B27"/>
<stop offset="0.1855" stop-color="#BB1111"/>
<stop offset="0.2283" stop-color="#BB1111"/>
<stop offset="0.2784" stop-color="#CB3131"/>
<stop offset="0.3614" stop-color="#E36262"/>
<stop offset="0.4249" stop-color="#F18080"/>
<stop offset="0.4607" stop-color="#F78B8B"/>
<stop offset="0.5513" stop-color="#F68888"/>
<stop offset="0.624" stop-color="#F5807E"/>
<stop offset="0.6906" stop-color="#F2736D"/>
<stop offset="0.7535" stop-color="#EE6055"/>
<stop offset="0.8132" stop-color="#E94837"/>
<stop offset="0.8391" stop-color="#E63B27"/>
<stop offset="1" stop-color="#F78B8B"/>
</linearGradient>
<radialGradient id="paint5_radial" cx="0" cy="0" r="1" gradientUnits="userSpaceOnUse" gradientTransform="translate(53.3715 29.2227) rotate(-30.2985) scale(8.74922)">
<stop stop-color="#FFFBCC"/>
<stop offset="0.1146" stop-color="#FBF2BB"/>
<stop offset="0.3413" stop-color="#F0D98E"/>
<stop offset="0.3708" stop-color="#EED688"/>
<stop offset="0.6854" stop-color="#EBBB10"/>
<stop offset="1" stop-color="#C3922E"/>
</radialGradient>
<radialGradient id="paint6_radial" cx="0" cy="0" r="1" gradientUnits="userSpaceOnUse" gradientTransform="translate(53.3715 29.2228) rotate(-30.2985) scale(7.52708)">
<stop stop-color="#FFFBCC"/>
<stop offset="0.1573" stop-color="#FBF2BB"/>
<stop offset="0.4685" stop-color="#F0D98E"/>
<stop offset="0.5091" stop-color="#EED688"/>
<stop offset="1" stop-color="#EBBB10"/>
</radialGradient>
<radialGradient id="paint7_radial" cx="0" cy="0" r="1" gradientUnits="userSpaceOnUse" gradientTransform="translate(220.684 29.2227) rotate(-149.702) scale(8.74922)">
<stop stop-color="#FFFBCC"/>
<stop offset="0.1146" stop-color="#FBF2BB"/>
<stop offset="0.3413" stop-color="#F0D98E"/>
<stop offset="0.3708" stop-color="#EED688"/>
<stop offset="0.6854" stop-color="#EBBB10"/>
<stop offset="1" stop-color="#C3922E"/>
</radialGradient>
<radialGradient id="paint8_radial" cx="0" cy="0" r="1" gradientUnits="userSpaceOnUse" gradientTransform="translate(220.684 29.2228) rotate(-149.701) scale(7.52708)">
<stop stop-color="#FFFBCC"/>
<stop offset="0.1573" stop-color="#FBF2BB"/>
<stop offset="0.4685" stop-color="#F0D98E"/>
<stop offset="0.5091" stop-color="#EED688"/>
<stop offset="1" stop-color="#EBBB10"/>
</radialGradient>
</defs>
</svg>
