<svg id="eLiHQ0RD3Zy1" xmlns="http://www.w3.org/2000/svg" xmlns:xlink="http://www.w3.org/1999/xlink" viewBox="0 0 278 307" shape-rendering="geometricPrecision" text-rendering="geometricPrecision">
<style><![CDATA[
#eLiHQ0RD3Zy2_tr {animation: eLiHQ0RD3Zy2_tr__tr 2700ms linear infinite normal forwards}@keyframes eLiHQ0RD3Zy2_tr__tr { 0% {transform: translate(139px,153.5px) rotate(360.030787deg)} 100% {transform: translate(139px,153.5px) rotate(719.90334deg)}} #eLiHQ0RD3Zy2 {animation: eLiHQ0RD3Zy2_c_o 2700ms linear infinite normal forwards}@keyframes eLiHQ0RD3Zy2_c_o { 0% {opacity: 0.99} 18.518519% {opacity: 1} 25.925926% {opacity: 0} 37.037037% {opacity: 1} 51.851852% {opacity: 0.99} 62.962963% {opacity: 1} 70.37037% {opacity: 0} 81.481481% {opacity: 1} 100% {opacity: 0.99}}
]]></style>
<defs><linearGradient id="eLiHQ0RD3Zy3-fill" x1="-44.3793" y1="104.591" x2="220.754" y2="257.267" spreadMethod="pad" gradientUnits="userSpaceOnUse" gradientTransform="translate(0 0)"><stop id="eLiHQ0RD3Zy3-fill-0" offset="0%" stop-color="#14142d"/><stop id="eLiHQ0RD3Zy3-fill-1" offset="34%" stop-color="#7a81fd"/><stop id="eLiHQ0RD3Zy3-fill-2" offset="66%" stop-color="#7acffd"/><stop id="eLiHQ0RD3Zy3-fill-3" offset="100%" stop-color="#14142d"/></linearGradient><linearGradient id="eLiHQ0RD3Zy4-fill" x1="22.9296" y1="35.2077" x2="267.526" y2="176.06" spreadMethod="pad" gradientUnits="userSpaceOnUse" gradientTransform="translate(0 0)"><stop id="eLiHQ0RD3Zy4-fill-0" offset="0%" stop-color="#14142d"/><stop id="eLiHQ0RD3Zy4-fill-1" offset="34%" stop-color="#7a81fd"/><stop id="eLiHQ0RD3Zy4-fill-2" offset="66%" stop-color="#7acffd"/><stop id="eLiHQ0RD3Zy4-fill-3" offset="100%" stop-color="#14142d"/></linearGradient><linearGradient id="eLiHQ0RD3Zy5-fill" x1="91.2119" y1="17.661" x2="206.093" y2="216.132" spreadMethod="pad" gradientUnits="userSpaceOnUse" gradientTransform="translate(0 0)"><stop id="eLiHQ0RD3Zy5-fill-0" offset="0%" stop-color="#14142d"/><stop id="eLiHQ0RD3Zy5-fill-1" offset="34%" stop-color="#7a81fd"/><stop id="eLiHQ0RD3Zy5-fill-2" offset="66%" stop-color="#7acffd"/><stop id="eLiHQ0RD3Zy5-fill-3" offset="100%" stop-color="#14142d"/></linearGradient></defs><g id="eLiHQ0RD3Zy2_tr" transform="translate(139,153.5) rotate(360.030787)"><g id="eLiHQ0RD3Zy2" transform="scale(0.363864,0.363864) translate(-138.500931,-153.290325)" opacity="0.99"><path d="M248.118,113.422L73.7269,12.4768C33.5839,-10.4729,0,-3.48693,0,47.8974v202.1756c0,46.471,23.0734,71.991,67.46,46.303L241.851,195.43c40.143-23.235,50.654-56.034,6.267-82.008Zm-71.156,72.694L57.8917,255.038c-30.3044,17.538-46.0592.117-46.0592-31.612v-138.1309c0-35.0837,22.9274-40.0486,50.3394-24.1874L181.242,130.316c30.305,17.545,23.132,39.931-4.28,55.8Z" clip-rule="evenodd" fill="url(#eLiHQ0RD3Zy3-fill)" fill-rule="evenodd"/><path d="M248.12,113.708L110.593,34.0946C64.6794,7.52009,9.30757,11.8332,11.9735,80.7191c.6501-16.9157,8.3339-24.6999,18.2893-26.6844c4.66-.93,9.4734-.6957,14.1187.227C93.6983,60.2664,188.724,107.484,232.49,136.226c29.953,19.669,34.701,38.877,9.371,59.205c40.143-23.235,50.653-56.034,6.266-81.723h-.007Z" clip-rule="evenodd" fill="url(#eLiHQ0RD3Zy4-fill)" fill-rule="evenodd"/><path d="M237.336,135.683C185.726,100.321,59.2787,41.1234,26.3887,55.1832c11.2044-4.423,25.8781.1904,35.7897,5.9242L181.249,130.315c3.14,1.817,5.507,3.75,8.027,5.434c30.217,20.152,21.072,70.153-1.125,90.774l53.721-31.093c34.84-20.167,16.018-45.672-4.521-59.747h-.015Z" clip-rule="evenodd" fill="url(#eLiHQ0RD3Zy5-fill)" fill-rule="evenodd"/></g></g></svg>
