<svg width="20" height="20" viewBox="0 0 20 20" fill="none" xmlns="http://www.w3.org/2000/svg">
<path d="M8.14974 7.9445C9.99069 7.9445 11.4831 6.45211 11.4831 4.61117C11.4831 2.77022 9.99069 1.27783 8.14974 1.27783C6.30879 1.27783 4.81641 2.77022 4.81641 4.61117C4.81641 6.45211 6.30879 7.9445 8.14974 7.9445Z" fill="white"/>
<path d="M9.13355 17.6777C8.94996 17.4961 8.83015 17.2599 8.79209 17.0045C8.75403 16.7491 8.79977 16.4883 8.92244 16.261L9.21688 15.7055L8.61133 15.5222C8.36439 15.4449 8.14941 15.2891 7.99901 15.0786C7.84862 14.868 7.77102 14.6141 7.77799 14.3555V13.2166C7.77753 12.9591 7.85991 12.7082 8.01298 12.5012C8.16605 12.2941 8.38167 12.1417 8.62799 12.0666L9.23355 11.8833L8.94466 11.3277C8.82558 11.1036 8.78027 10.8476 8.81519 10.5962C8.8501 10.3448 8.96346 10.1109 9.13911 9.92771C8.71171 9.87168 8.28126 9.842 7.85022 9.83882C6.57706 9.80885 5.31298 10.0602 4.14813 10.5749C2.98328 11.0896 1.94636 11.8551 1.11133 12.8166V17.1222C1.11133 17.2695 1.16986 17.4108 1.27405 17.515C1.37823 17.6192 1.51954 17.6777 1.66688 17.6777H9.13355Z" fill="white"/>
<path d="M18.7219 13.0333L17.6108 12.7C17.5338 12.4256 17.4257 12.1609 17.2886 11.9111L17.8442 10.8778C17.8656 10.8394 17.8735 10.7949 17.8664 10.7515C17.8593 10.7082 17.8378 10.6685 17.8053 10.6389L16.9997 9.82778C16.9687 9.79759 16.9291 9.77766 16.8864 9.7707C16.8437 9.76375 16.7998 9.7701 16.7608 9.78889L15.733 10.3444C15.4801 10.207 15.2139 10.0953 14.9386 10.0111L14.5997 8.9C14.5848 8.85903 14.5576 8.82369 14.5218 8.79882C14.4859 8.77395 14.4433 8.76078 14.3997 8.76111H13.2442C13.2008 8.76232 13.1589 8.77683 13.1242 8.80268C13.0894 8.82852 13.0634 8.86444 13.0497 8.90556L12.7164 10.0167C12.4357 10.0983 12.1654 10.212 11.9108 10.3556L10.9053 9.8C10.8662 9.77923 10.8215 9.77127 10.7777 9.77725C10.7338 9.78323 10.6929 9.80285 10.6608 9.83334L9.84415 10.6333C9.812 10.6643 9.79081 10.7049 9.78379 10.749C9.77678 10.7932 9.78431 10.8383 9.80527 10.8778L10.3608 11.8889C10.212 12.1398 10.0909 12.4062 9.99971 12.6833L8.8886 13.0222C8.84657 13.0344 8.80968 13.06 8.78359 13.0951C8.7575 13.1302 8.74365 13.1729 8.74415 13.2167V14.3556C8.74365 14.3993 8.7575 14.442 8.78359 14.4771C8.80968 14.5123 8.84657 14.5379 8.8886 14.55L9.99971 14.8889C10.083 15.161 10.1947 15.4235 10.333 15.6722L9.77749 16.7278C9.75654 16.7672 9.749 16.8124 9.75602 16.8565C9.76303 16.9006 9.78422 16.9412 9.81638 16.9722L10.6442 17.7778C10.6763 17.8083 10.7171 17.8279 10.761 17.8339C10.8049 17.8399 10.8495 17.8319 10.8886 17.8111L11.9275 17.2556C12.1747 17.3885 12.4355 17.4947 12.7053 17.5722L13.0386 18.7111C13.0526 18.7531 13.0794 18.7897 13.1153 18.8156C13.1512 18.8415 13.1943 18.8555 13.2386 18.8556H14.3775C14.4208 18.8543 14.4627 18.8398 14.4975 18.814C14.5323 18.7882 14.5583 18.7522 14.5719 18.7111L14.9053 17.5722C15.1719 17.4957 15.429 17.3894 15.6719 17.2556L16.7219 17.8111C16.761 17.8319 16.8057 17.8399 16.8495 17.8339C16.8934 17.8279 16.9343 17.8083 16.9664 17.7778L17.7775 16.9722C17.808 16.9401 17.8276 16.8992 17.8336 16.8554C17.8396 16.8115 17.8316 16.7669 17.8108 16.7278L17.2553 15.6833C17.3882 15.4399 17.4943 15.1829 17.5719 14.9167L18.683 14.5778C18.7248 14.5644 18.7615 14.5386 18.7883 14.5039C18.815 14.4691 18.8307 14.4271 18.833 14.3833V13.2333C18.8344 13.1931 18.8248 13.1532 18.8052 13.1179C18.7856 13.0827 18.7568 13.0535 18.7219 13.0333ZM13.8164 15.6556C13.4491 15.6567 13.0899 15.5488 12.784 15.3455C12.4781 15.1423 12.2394 14.8529 12.0981 14.514C11.9568 14.175 11.9193 13.8017 11.9902 13.4414C12.0612 13.0811 12.2375 12.75 12.4968 12.4899C12.7561 12.2298 13.0867 12.0526 13.4468 11.9805C13.8069 11.9085 14.1802 11.9449 14.5196 12.0852C14.859 12.2254 15.1491 12.4633 15.3533 12.7685C15.5574 13.0738 15.6664 13.4328 15.6664 13.8C15.6664 14.2912 15.4716 14.7623 15.1249 15.1101C14.7781 15.4579 14.3075 15.6541 13.8164 15.6556Z" fill="#7A81FD"/>
</svg>
