<svg width="20" height="20" viewBox="0 0 20 20" fill="none" xmlns="http://www.w3.org/2000/svg">
<path d="M8.14974 7.9445C9.99069 7.9445 11.4831 6.45211 11.4831 4.61117C11.4831 2.77022 9.99069 1.27783 8.14974 1.27783C6.30879 1.27783 4.81641 2.77022 4.81641 4.61117C4.81641 6.45211 6.30879 7.9445 8.14974 7.9445Z" fill="white"/>
<path d="M9.13355 17.6777C8.94996 17.4961 8.83015 17.2599 8.79209 17.0045C8.75403 16.7491 8.79977 16.4883 8.92244 16.261L9.21688 15.7055L8.61133 15.5222C8.36439 15.4449 8.14941 15.2891 7.99901 15.0786C7.84862 14.868 7.77102 14.6141 7.77799 14.3555V13.2166C7.77753 12.9591 7.85991 12.7082 8.01298 12.5012C8.16605 12.2941 8.38167 12.1417 8.62799 12.0666L9.23355 11.8833L8.94466 11.3277C8.82558 11.1036 8.78027 10.8476 8.81519 10.5962C8.8501 10.3448 8.96346 10.1109 9.13911 9.92771C8.71171 9.87168 8.28126 9.842 7.85022 9.83882C6.57706 9.80885 5.31298 10.0602 4.14813 10.5749C2.98328 11.0896 1.94636 11.8551 1.11133 12.8166V17.1222C1.11133 17.2695 1.16986 17.4108 1.27405 17.515C1.37823 17.6192 1.51954 17.6777 1.66688 17.6777H9.13355Z" fill="white"/>
<path d="M18.7219 13.0335L17.6108 12.7001C17.5338 12.4257 17.4257 12.1611 17.2886 11.9112L17.8442 10.8779C17.8656 10.8396 17.8735 10.7951 17.8664 10.7517C17.8593 10.7083 17.8378 10.6686 17.8053 10.639L16.9997 9.8279C16.9687 9.79771 16.9291 9.77778 16.8864 9.77083C16.8437 9.76387 16.7998 9.77022 16.7608 9.78901L15.733 10.3446C15.4801 10.2071 15.2139 10.0955 14.9386 10.0112L14.5997 8.90013C14.5848 8.85916 14.5576 8.82381 14.5218 8.79894C14.4859 8.77407 14.4433 8.7609 14.3997 8.76124H13.2442C13.2008 8.76245 13.1589 8.77696 13.1242 8.8028C13.0894 8.82864 13.0634 8.86456 13.0497 8.90568L12.7164 10.0168C12.4357 10.0984 12.1654 10.2122 11.9108 10.3557L10.9053 9.80013C10.8662 9.77935 10.8215 9.77139 10.7777 9.77737C10.7338 9.78335 10.6929 9.80297 10.6608 9.83346L9.84415 10.6335C9.812 10.6644 9.79081 10.7051 9.78379 10.7492C9.77678 10.7933 9.78431 10.8385 9.80527 10.8779L10.3608 11.889C10.212 12.1399 10.0909 12.4063 9.99971 12.6835L8.8886 13.0223C8.84657 13.0345 8.80968 13.0601 8.78359 13.0952C8.7575 13.1303 8.74365 13.173 8.74415 13.2168V14.3557C8.74365 14.3994 8.7575 14.4421 8.78359 14.4773C8.80968 14.5124 8.84657 14.538 8.8886 14.5501L9.99971 14.889C10.083 15.1611 10.1947 15.4237 10.333 15.6723L9.77749 16.7279C9.75654 16.7673 9.749 16.8125 9.75602 16.8566C9.76303 16.9007 9.78422 16.9414 9.81638 16.9723L10.6442 17.7779C10.6763 17.8084 10.7171 17.828 10.761 17.834C10.8049 17.84 10.8495 17.832 10.8886 17.8112L11.9275 17.2557C12.1747 17.3887 12.4355 17.4948 12.7053 17.5723L13.0386 18.7112C13.0526 18.7532 13.0794 18.7898 13.1153 18.8157C13.1512 18.8416 13.1943 18.8556 13.2386 18.8557H14.3775C14.4208 18.8545 14.4627 18.84 14.4975 18.8141C14.5323 18.7883 14.5583 18.7524 14.5719 18.7112L14.9053 17.5723C15.1719 17.4958 15.429 17.3896 15.6719 17.2557L16.7219 17.8112C16.761 17.832 16.8057 17.84 16.8495 17.834C16.8934 17.828 16.9343 17.8084 16.9664 17.7779L17.7775 16.9723C17.808 16.9402 17.8276 16.8994 17.8336 16.8555C17.8396 16.8116 17.8316 16.767 17.8108 16.7279L17.2553 15.6835C17.3882 15.4401 17.4943 15.183 17.5719 14.9168L18.683 14.5779C18.7248 14.5645 18.7615 14.5387 18.7883 14.504C18.815 14.4693 18.8307 14.4272 18.833 14.3835V13.2335C18.8344 13.1932 18.8248 13.1533 18.8052 13.1181C18.7856 13.0828 18.7568 13.0536 18.7219 13.0335ZM13.8164 15.6557C13.4491 15.6568 13.0899 15.5489 12.784 15.3457C12.4781 15.1424 12.2394 14.853 12.0981 14.5141C11.9568 14.1751 11.9193 13.8018 11.9902 13.4415C12.0612 13.0812 12.2375 12.7501 12.4968 12.49C12.7561 12.23 13.0867 12.0527 13.4468 11.9806C13.8069 11.9086 14.1802 11.945 14.5196 12.0853C14.859 12.2256 15.1491 12.4634 15.3533 12.7687C15.5574 13.0739 15.6664 13.4329 15.6664 13.8001C15.6664 14.2913 15.4716 14.7624 15.1249 15.1102C14.7781 15.4581 14.3075 15.6542 13.8164 15.6557Z" fill="white"/>
</svg>
