<svg width="20" height="20" viewBox="0 0 20 20" fill="none" xmlns="http://www.w3.org/2000/svg">
<g clip-path="url(#clip0_4786_19215)">
<path d="M2.58079 8.59583V12.5958L0.290793 14.8858C0.104542 15.0732 0 15.3266 0 15.5908C0 15.855 0.104542 16.1085 0.290793 16.2958L2.87079 18.8858C2.96376 18.9796 3.07436 19.0539 3.19622 19.1047C3.31808 19.1555 3.44878 19.1816 3.58079 19.1816C3.7128 19.1816 3.84351 19.1555 3.96537 19.1047C4.08723 19.0539 4.19783 18.9796 4.29079 18.8858L8.58079 14.5958H12.5808C12.846 14.5958 13.1004 14.4905 13.2879 14.3029C13.4754 14.1154 13.5808 13.861 13.5808 13.5958V12.5958H14.5808C14.846 12.5958 15.1004 12.4905 15.2879 12.3029C15.4754 12.1154 15.5808 11.861 15.5808 11.5958V10.5958H16.5808C16.846 10.5958 17.1004 10.4905 17.2879 10.3029C17.4754 10.1154 17.5808 9.86104 17.5808 9.59583V8.59583H10.5808V9.59583C10.5808 10.1263 10.3701 10.635 9.99501 11.01C9.61993 11.3851 9.11123 11.5958 8.58079 11.5958H6.58079C6.05036 11.5958 5.54165 11.3851 5.16658 11.01C4.79151 10.635 4.58079 10.1263 4.58079 9.59583V6.59583L2.58079 8.59583Z" fill="white"/>
<path d="M11.5801 3.5958H8.58008C8.04965 3.5958 7.54094 3.80651 7.16586 4.18158C6.79079 4.55666 6.58008 5.06537 6.58008 5.5958V8.5958C6.58008 8.86102 6.68544 9.11537 6.87297 9.30291C7.06051 9.49044 7.31486 9.5958 7.58008 9.5958C7.84529 9.5958 8.09965 9.49044 8.28718 9.30291C8.47472 9.11537 8.58008 8.86102 8.58008 8.5958V6.5958H16.5801L18.8701 4.2958C19.0563 4.10844 19.1609 3.85498 19.1609 3.5908C19.1609 3.32661 19.0563 3.07316 18.8701 2.8858L16.2901 0.295798C16.1971 0.20207 16.0865 0.127676 15.9647 0.0769069C15.8428 0.0261382 15.7121 0 15.5801 0C15.4481 0 15.3174 0.0261382 15.1955 0.0769069C15.0736 0.127676 14.963 0.20207 14.8701 0.295798L11.5801 3.5958Z" fill="#7A81FD"/>
</g>
<defs>
<clipPath id="clip0_4786_19215">
<rect width="20" height="20" fill="white"/>
</clipPath>
</defs>
</svg>
