<svg width="20" height="20" viewBox="0 0 20 20" fill="none" xmlns="http://www.w3.org/2000/svg">
<path d="M1.62128 7.76335C1.18628 7.61751 1.18295 7.38335 1.63045 7.23418L17.5354 1.93335C17.9763 1.78668 18.2288 2.03335 18.1054 2.46501L13.5613 18.37C13.4354 18.8108 13.1813 18.8258 12.9946 18.4075L9.99961 11.6667L8.5 11.5L8.33295 10L1.62128 7.76335Z" fill="#7A81FD"/>
<path d="M1.62128 7.76335C1.18628 7.61752 1.18295 7.38335 1.63045 7.23418L17.5354 1.93335C17.9763 1.78668 18.2288 2.03335 18.1054 2.46501L13.5613 18.37C13.4354 18.8109 13.1813 18.8258 12.9946 18.4075L9.99961 11.6667L14.9996 5.00001L8.33294 10L1.62128 7.76335Z" fill="white"/>
</svg>
