<svg width="17" height="17" viewBox="0 0 17 17" fill="none" xmlns="http://www.w3.org/2000/svg">
<path d="M0.944444 0H6.61111C7.13055 0 7.55555 0.425 7.55555 0.944444V6.61111C7.55555 7.13055 7.13055 7.55555 6.61111 7.55555H0.944444C0.425 7.55555 0 7.13055 0 6.61111V0.944444C0 0.425 0.425 0 0.944444 0ZM10.3889 0H16.0556C16.575 0 17 0.425 17 0.944444V6.61111C17 7.13055 16.575 7.55555 16.0556 7.55555H10.3889C9.86944 7.55555 9.44444 7.13055 9.44444 6.61111V0.944444C9.44444 0.425 9.86944 0 10.3889 0ZM0.944444 9.44444H6.61111C7.13055 9.44444 7.55555 9.86944 7.55555 10.3889V16.0556C7.55555 16.575 7.13055 17 6.61111 17H0.944444C0.425 17 0 16.575 0 16.0556V10.3889C0 9.86944 0.425 9.44444 0.944444 9.44444Z" fill="white"/>
<path d="M12.2767 10.3888C12.2767 9.86934 12.7017 9.44434 13.2211 9.44434C13.7406 9.44434 14.1656 9.86934 14.1656 10.3888V12.2777H16.0545C16.5739 12.2777 16.9989 12.7027 16.9989 13.2221C16.9989 13.7416 16.5739 14.1666 16.0545 14.1666H14.1656V16.0554C14.1656 16.5749 13.7406 16.9999 13.2211 16.9999C12.7017 16.9999 12.2767 16.5749 12.2767 16.0554V14.1666H10.3878C9.86836 14.1666 9.44336 13.7416 9.44336 13.2221C9.44336 12.7027 9.86836 12.2777 10.3878 12.2777H12.2767V10.3888Z" fill="white"/>
</svg>
