<svg width="17" height="17" viewBox="0 0 17 17" fill="none" xmlns="http://www.w3.org/2000/svg">
<path d="M0.944444 0H6.61111C7.13055 0 7.55555 0.425 7.55555 0.944444V6.61111C7.55555 7.13055 7.13055 7.55555 6.61111 7.55555H0.944444C0.425 7.55555 0 7.13055 0 6.61111V0.944444C0 0.425 0.425 0 0.944444 0ZM10.3889 0H16.0556C16.575 0 17 0.425 17 0.944444V6.61111C17 7.13055 16.575 7.55555 16.0556 7.55555H10.3889C9.86944 7.55555 9.44444 7.13055 9.44444 6.61111V0.944444C9.44444 0.425 9.86944 0 10.3889 0ZM0.944444 9.44444H6.61111C7.13055 9.44444 7.55555 9.86944 7.55555 10.3889V16.0556C7.55555 16.575 7.13055 17 6.61111 17H0.944444C0.425 17 0 16.575 0 16.0556V10.3889C0 9.86944 0.425 9.44444 0.944444 9.44444Z" fill="white"/>
<path d="M12.2767 10.3889C12.2767 9.86946 12.7017 9.44446 13.2211 9.44446C13.7406 9.44446 14.1656 9.86946 14.1656 10.3889V12.2778H16.0545C16.5739 12.2778 16.9989 12.7028 16.9989 13.2222C16.9989 13.7417 16.5739 14.1667 16.0545 14.1667H14.1656V16.0556C14.1656 16.575 13.7406 17 13.2211 17C12.7017 17 12.2767 16.575 12.2767 16.0556V14.1667H10.3878C9.86836 14.1667 9.44336 13.7417 9.44336 13.2222C9.44336 12.7028 9.86836 12.2778 10.3878 12.2778H12.2767V10.3889Z" fill="#7A81FD"/>
</svg>
