<svg width="20" height="20" viewBox="0 0 20 20" fill="none" xmlns="http://www.w3.org/2000/svg">
<g clip-path="url(#clip0_4786_15559)">
<path d="M2.96875 9.375C3.44147 9.375 3.86933 9.18533 4.18549 8.88075L5.91995 9.74792C5.91126 9.81858 5.89844 9.888 5.89844 9.96092C5.89844 10.9302 6.68701 11.7188 7.65625 11.7188C8.6255 11.7188 9.41409 10.9302 9.41409 9.96092C9.41409 9.69042 9.3475 9.43708 9.23784 9.20792L11.5908 6.85501C11.8199 6.96473 12.0733 7.03125 12.3438 7.03125C13.313 7.03125 14.1016 6.24267 14.1016 5.27343C14.1016 5.09094 14.0657 4.91837 14.0138 4.75281L16.0582 3.21991C16.3372 3.40622 16.6714 3.51562 17.0313 3.51562C18.0005 3.51562 18.7891 2.72705 18.7891 1.75782C18.7891 0.788574 18.0005 0 17.0313 0C16.062 0 15.2734 0.788574 15.2734 1.75782C15.2734 1.94031 15.3093 2.11288 15.3612 2.27844L13.3168 3.81134C13.0378 3.62503 12.7036 3.51562 12.3438 3.51562C11.3745 3.51562 10.5859 4.3042 10.5859 5.27343C10.5859 5.54397 10.6525 5.79728 10.7622 6.02646L8.40925 8.37933C8.18009 8.26965 7.9268 8.20312 7.65625 8.20312C7.18354 8.20312 6.75568 8.39283 6.43952 8.69733L4.70505 7.8302C4.71375 7.75955 4.72657 7.69012 4.72657 7.61718C4.72657 6.64795 3.938 5.85938 2.96875 5.85938C1.99951 5.85938 1.21094 6.64795 1.21094 7.61718C1.21094 8.58642 1.99951 9.375 2.96875 9.375Z" fill="white"/>
<path d="M19.4141 18.8282H18.7891V6.44532C18.7891 6.12152 18.5269 5.85938 18.2032 5.85938H15.8593C15.5356 5.85938 15.2734 6.12152 15.2734 6.44532V18.8282H14.1016V9.96092C14.1016 9.63717 13.8394 9.375 13.5157 9.375H11.1718C10.8481 9.375 10.5859 9.63717 10.5859 9.96092V18.8282H9.41408V14.6484C9.41408 14.3247 9.15192 14.0625 8.82817 14.0625H6.48438C6.16058 14.0625 5.89843 14.3247 5.89843 14.6484V18.8282H4.72657V12.3047C4.72657 11.9809 4.46442 11.7188 4.14062 11.7188H1.79688C1.47308 11.7188 1.21093 11.9809 1.21093 12.3047V18.8282H0.585938C0.262146 18.8282 0 19.0902 0 19.4141C0 19.7378 0.262146 20 0.585938 20H19.4141C19.7378 20 20 19.7378 20 19.4141C20 19.0902 19.7378 18.8282 19.4141 18.8282Z" fill="white"/>
</g>
<defs>
<clipPath id="clip0_4786_15559">
<rect width="20" height="20" fill="white"/>
</clipPath>
</defs>
</svg>
