<svg width="17" height="18" viewBox="0 0 17 18" fill="none" xmlns="http://www.w3.org/2000/svg">
<path fill-rule="evenodd" clip-rule="evenodd" d="M1.06047 1.0548C-1.19209e-07 2.1087 0 3.8061 0 7.2V10.8C0 14.1939 -1.19209e-07 15.8913 1.06047 16.9452C2.12004 18 3.82656 18 7.23871 18H9.04839C12.4605 18 14.1671 18 15.2266 16.9452C16.2871 15.8913 16.2871 14.1939 16.2871 10.8V7.2C16.2871 3.8061 16.2871 2.1087 15.2266 1.0548C14.1671 -1.19209e-07 12.4605 0 9.04839 0H7.23871C3.82656 0 2.12004 -1.19209e-07 1.06047 1.0548Z" fill="white"/>
<path d="M4.5 7H12" stroke="#7A81FD" stroke-width="1.5" stroke-linecap="round"/>
<path d="M4.5 11H8.625" stroke="#7A81FD" stroke-width="1.5" stroke-linecap="round"/>
</svg>
