<svg width="17" height="18" viewBox="0 0 17 18" fill="none" xmlns="http://www.w3.org/2000/svg">
<path fill-rule="evenodd" clip-rule="evenodd" d="M1.06047 1.0548C-1.07865e-07 2.1087 0 3.8061 0 7.2V10.8C0 14.1939 -1.07865e-07 15.8913 1.06047 16.9452C2.12004 18 3.82656 18 7.23871 18H9.04839C12.4605 18 14.1671 18 15.2266 16.9452C16.2871 15.8913 16.2871 14.1939 16.2871 10.8V7.2C16.2871 3.8061 16.2871 2.1087 15.2266 1.0548C14.1671 -1.07288e-07 12.4605 0 9.04839 0H7.23871C3.82656 0 2.12004 -1.07288e-07 1.06047 1.0548ZM4.52419 6.525C4.34421 6.525 4.1716 6.59612 4.04433 6.7227C3.91706 6.84929 3.84556 7.02098 3.84556 7.2C3.84556 7.37902 3.91706 7.55071 4.04433 7.6773C4.1716 7.80388 4.34421 7.875 4.52419 7.875H11.7629C11.9429 7.875 12.1155 7.80388 12.2428 7.6773C12.37 7.55071 12.4415 7.37902 12.4415 7.2C12.4415 7.02098 12.37 6.84929 12.2428 6.7227C12.1155 6.59612 11.9429 6.525 11.7629 6.525H4.52419ZM4.52419 10.125C4.34421 10.125 4.1716 10.1961 4.04433 10.3227C3.91706 10.4493 3.84556 10.621 3.84556 10.8C3.84556 10.979 3.91706 11.1507 4.04433 11.2773C4.1716 11.4039 4.34421 11.475 4.52419 11.475H9.04839C9.22837 11.475 9.40098 11.4039 9.52825 11.2773C9.65552 11.1507 9.72702 10.979 9.72702 10.8C9.72702 10.621 9.65552 10.4493 9.52825 10.3227C9.40098 10.1961 9.22837 10.125 9.04839 10.125H4.52419Z" fill="white"/>
</svg>
