<svg width="19" height="16" viewBox="0 0 19 16" fill="none" xmlns="http://www.w3.org/2000/svg">
<path d="M14.1196 9.61557C14.7885 9.24871 15.2479 8.54651 15.2479 7.73161C15.2479 6.54244 14.28 5.5752 13.0908 5.5752C12.6727 5.5752 12.2851 5.70019 11.954 5.90699C11.7557 6.69626 11.4435 7.45123 11.0352 8.10699C12.1928 8.32462 13.2551 8.8518 14.1196 9.61557Z" fill="white"/>
<path d="M18.584 6.91551C18.584 6.66648 18.3817 6.46486 18.1336 6.46486H17.2083C17.1284 6.20403 17.0224 5.95404 16.8967 5.71681L17.5518 5.06172C17.6369 4.97727 17.684 4.86276 17.684 4.74333C17.684 4.62385 17.6369 4.5093 17.5518 4.42459L16.3986 3.27107C16.311 3.18299 16.1951 3.13883 16.08 3.13883C15.9648 3.13883 15.8496 3.18299 15.7619 3.27107L15.1055 3.92649C14.8685 3.80082 14.6192 3.6955 14.3574 3.61594V2.69054C14.3574 2.44185 14.1564 2.24023 13.9078 2.24023H12.2762C12.1669 2.24023 12.0707 2.28406 11.9922 2.34888C12.1296 2.85018 12.2048 3.39375 12.2048 3.97361C12.2048 4.34174 12.1761 4.71551 12.1224 5.08718C12.4261 4.97524 12.7493 4.90495 13.0917 4.90495C14.6506 4.90495 15.9189 6.17301 15.9189 7.73154C15.9189 8.72769 15.3987 9.60074 14.6179 10.1044C15.186 10.7274 15.6375 11.4666 15.9314 12.2948C15.9798 12.3115 16.0302 12.3237 16.0806 12.3237C16.1958 12.3237 16.311 12.2798 16.3993 12.1917L17.5532 11.0382C17.6377 10.9538 17.6841 10.8393 17.6841 10.7198C17.6841 10.6004 17.6377 10.4859 17.5532 10.4011L16.8968 9.74568C17.0224 9.50879 17.1284 9.2587 17.2083 8.99762H18.1337C18.2528 8.99762 18.3686 8.95051 18.4524 8.86538C18.5369 8.78126 18.5847 8.66646 18.5847 8.54698L18.584 6.91551Z" fill="white"/>
<path d="M15.0127 12.7029C14.313 10.6443 12.4642 9.22837 10.3299 9.03564C9.61526 9.79246 8.73041 10.2726 7.72835 10.2726C6.72706 10.2726 5.84153 9.79251 5.12753 9.03564C2.99202 9.22837 1.14312 10.6443 0.443451 12.7033L0.0566967 13.8417C-0.0539309 14.1693 -0.000956096 14.5302 0.20066 14.8113C0.402234 15.0924 0.726868 15.2593 1.07241 15.2593H14.3837C14.7299 15.2593 15.0545 15.0924 15.2561 14.8113C15.457 14.5302 15.5107 14.1693 15.3994 13.8417L15.0127 12.7029Z" fill="white"/>
<path d="M4.25781 3.9737C4.25781 6.52715 5.8122 9.26709 7.72844 9.26709C9.64543 9.26709 11.1997 6.52715 11.1997 3.9737C11.1998 -1.31932 4.25781 -1.32981 4.25781 3.9737Z" fill="white"/>
</svg>
