<svg width="19" height="16" viewBox="0 0 19 16" fill="none" xmlns="http://www.w3.org/2000/svg">
<path d="M14.1196 9.61569C14.7885 9.24883 15.2479 8.54663 15.2479 7.73173C15.2479 6.54256 14.28 5.57532 13.0908 5.57532C12.6727 5.57532 12.2851 5.70032 11.954 5.90712C11.7557 6.69639 11.4435 7.45135 11.0352 8.10711C12.1928 8.32474 13.2551 8.85192 14.1196 9.61569Z" fill="#7A81FD"/>
<path d="M18.584 6.91575C18.584 6.66672 18.3817 6.46511 18.1336 6.46511H17.2083C17.1284 6.20428 17.0224 5.95428 16.8967 5.71705L17.5518 5.06197C17.6369 4.97751 17.684 4.86301 17.684 4.74357C17.684 4.62409 17.6369 4.50955 17.5518 4.42484L16.3986 3.27132C16.311 3.18324 16.1951 3.13907 16.08 3.13907C15.9648 3.13907 15.8496 3.18324 15.7619 3.27132L15.1055 3.92674C14.8685 3.80107 14.6192 3.69575 14.3574 3.61618V2.69079C14.3574 2.4421 14.1564 2.24048 13.9078 2.24048H12.2762C12.1669 2.24048 12.0707 2.28431 11.9922 2.34913C12.1296 2.85043 12.2048 3.394 12.2048 3.97386C12.2048 4.34198 12.1761 4.71576 12.1224 5.08742C12.4261 4.97549 12.7493 4.90519 13.0917 4.90519C14.6506 4.90519 15.9189 6.17326 15.9189 7.73178C15.9189 8.72793 15.3987 9.60099 14.6179 10.1046C15.186 10.7277 15.6375 11.4669 15.9314 12.2951C15.9798 12.3118 16.0302 12.3239 16.0806 12.3239C16.1958 12.3239 16.311 12.2801 16.3993 12.192L17.5532 11.0385C17.6377 10.954 17.6841 10.8395 17.6841 10.7201C17.6841 10.6006 17.6377 10.4861 17.5532 10.4013L16.8968 9.74592C17.0224 9.50903 17.1284 9.25895 17.2083 8.99787H18.1337C18.2528 8.99787 18.3686 8.95075 18.4524 8.86562C18.5369 8.7815 18.5847 8.6667 18.5847 8.54722L18.584 6.91575Z" fill="#7A81FD"/>
<path d="M15.0127 12.7028C14.313 10.6442 12.4642 9.22825 10.3299 9.03552C9.61526 9.79234 8.73041 10.2725 7.72835 10.2725C6.72706 10.2725 5.84153 9.79238 5.12753 9.03552C2.99202 9.22825 1.14312 10.6442 0.443451 12.7031L0.0566967 13.8416C-0.0539309 14.1692 -0.000956096 14.5301 0.20066 14.8112C0.402234 15.0923 0.726868 15.2592 1.07241 15.2592H14.3837C14.7299 15.2592 15.0545 15.0923 15.2561 14.8112C15.457 14.5301 15.5107 14.1692 15.3994 13.8416L15.0127 12.7028Z" fill="white"/>
<path d="M4.25781 3.97382C4.25781 6.52727 5.8122 9.26721 7.72844 9.26721C9.64543 9.26721 11.1997 6.52727 11.1997 3.97382C11.1998 -1.31919 4.25781 -1.32969 4.25781 3.97382Z" fill="white"/>
</svg>
