<svg width="15" height="18" viewBox="0 0 15 18" fill="none" xmlns="http://www.w3.org/2000/svg">
<path d="M1.8 18C1.305 18 0.881101 17.8236 0.528301 17.4708C0.175501 17.118 -0.000598472 16.6944 1.52801e-06 16.2V1.8C1.52801e-06 1.305 0.176401 0.881101 0.529201 0.528301C0.882001 0.175501 1.3056 -0.000598472 1.8 1.52801e-06H8.2575C8.4975 1.52801e-06 8.7264 0.0450016 8.9442 0.135002C9.162 0.225002 9.3531 0.352502 9.5175 0.517501L13.8825 4.8825C14.0475 5.0475 14.175 5.2389 14.265 5.4567C14.355 5.6745 14.4 5.9031 14.4 6.1425V16.2C14.4 16.695 14.2236 17.1189 13.8708 17.4717C13.518 17.8245 13.0944 18.0006 12.6 18H1.8ZM8.1 5.4C8.1 5.655 8.1864 5.8689 8.3592 6.0417C8.532 6.2145 8.7456 6.3006 9 6.3H12.6L8.1 1.8V5.4ZM6.2325 11.8125L4.9725 10.5525C4.8825 10.4625 4.785 10.395 4.68 10.35C4.575 10.305 4.4664 10.2825 4.3542 10.2825C4.2414 10.2825 4.1289 10.305 4.0167 10.35C3.9045 10.395 3.8031 10.4625 3.7125 10.5525C3.5325 10.7325 3.4425 10.9464 3.4425 11.1942C3.4425 11.442 3.5325 11.6556 3.7125 11.835L5.625 13.77C5.715 13.86 5.8125 13.9239 5.9175 13.9617C6.0225 13.9995 6.135 14.0181 6.255 14.0175C6.375 14.0175 6.4875 13.9986 6.5925 13.9608C6.6975 13.923 6.795 13.8594 6.885 13.77L10.6875 9.9675C10.8675 9.7875 10.9575 9.57 10.9575 9.315C10.9575 9.06 10.8675 8.8425 10.6875 8.6625C10.5075 8.4825 10.29 8.3925 10.035 8.3925C9.78 8.3925 9.5625 8.4825 9.3825 8.6625L6.2325 11.8125Z" fill="white"/>
</svg>
