<svg width="20" height="20" viewBox="0 0 20 20" fill="none" xmlns="http://www.w3.org/2000/svg">
<path d="M4.8 19C4.305 19 3.8811 18.8236 3.5283 18.4708C3.1755 18.118 2.9994 17.6944 3 17.2V2.8C3 2.305 3.1764 1.8811 3.5292 1.5283C3.882 1.1755 4.3056 0.999402 4.8 1H11.2575C11.4975 1 11.7264 1.045 11.9442 1.135C12.162 1.225 12.3531 1.3525 12.5175 1.5175L16.8825 5.8825C17.0475 6.0475 17.175 6.2389 17.265 6.4567C17.355 6.6745 17.4 6.9031 17.4 7.1425V17.2C17.4 17.695 17.2236 18.1189 16.8708 18.4717C16.518 18.8245 16.0944 19.0006 15.6 19H4.8ZM11.1 6.4C11.1 6.655 11.1864 6.8689 11.3592 7.0417C11.532 7.2145 11.7456 7.3006 12 7.3H15.6L11.1 2.8V6.4Z" fill="white"/>
<path d="M7 11.7778L8.78294 13.6267C8.97956 13.8307 9.30615 13.8307 9.50278 13.6267L13 10" stroke="#7A81FD" stroke-width="2" stroke-linecap="round"/>
</svg>
