<svg width="20" height="17" viewBox="0 0 20 17" fill="none" xmlns="http://www.w3.org/2000/svg">
<path d="M13.5 3.71875C13.5 4.2071 13.4095 4.69067 13.2336 5.14185C13.0577 5.59303 12.7999 6.00299 12.4749 6.3483C12.1499 6.69362 11.764 6.96754 11.3394 7.15443C10.9148 7.34131 10.4596 7.4375 10 7.4375C9.54037 7.4375 9.08525 7.34131 8.66061 7.15443C8.23597 6.96754 7.85013 6.69362 7.52513 6.3483C7.20012 6.00299 6.94231 5.59303 6.76642 5.14185C6.59053 4.69067 6.5 4.2071 6.5 3.71875C6.5 2.73248 6.86875 1.7866 7.52513 1.0892C8.1815 0.391796 9.07174 0 10 0C10.9283 0 11.8185 0.391796 12.4749 1.0892C13.1313 1.7866 13.5 2.73248 13.5 3.71875ZM16 13.2812C16 15.3351 13.314 17 10 17C6.686 17 4 15.3351 4 13.2812C4 11.2274 6.686 9.5625 10 9.5625C13.314 9.5625 16 11.2274 16 13.2812ZM5.122 1.0625C5.3 1.0625 5.472 1.08056 5.64 1.11563C5.21901 1.9102 4.99854 2.80693 5 3.71875C5 4.641 5.221 5.50906 5.61 6.2645C5.452 6.29637 5.29 6.31231 5.122 6.31231C3.708 6.31231 2.561 5.13719 2.561 3.68794C2.561 2.23763 3.708 1.0625 5.122 1.0625ZM3.447 15.9226C2.88 15.2012 2.5 14.3161 2.5 13.2812C2.5 12.2782 2.857 11.4155 3.396 10.7068C1.49 10.8641 0 11.9712 0 13.3121C0 14.6667 1.517 15.7824 3.447 15.9226ZM15 3.71875C15 4.641 14.779 5.50906 14.39 6.2645C14.547 6.29637 14.71 6.31231 14.878 6.31231C16.292 6.31231 17.438 5.13719 17.438 3.68794C17.438 2.23763 16.292 1.0625 14.878 1.0625C14.7 1.0625 14.528 1.08056 14.36 1.11563C14.767 1.88488 15 2.77312 15 3.71875ZM16.553 15.9226C18.483 15.7824 20 14.6667 20 13.3121C20 11.9701 18.509 10.8641 16.604 10.7068C17.144 11.4155 17.5 12.2782 17.5 13.2812C17.5 14.3161 17.12 15.2012 16.553 15.9226Z" fill="white"/>
</svg>
