<svg width="16" height="20" viewBox="0 0 16 20" fill="none" xmlns="http://www.w3.org/2000/svg">
<path d="M10.8906 5.85938C10.1368 5.85938 9.52344 5.24605 9.52344 4.49219V0H2.53125C1.3466 0 0.382812 0.963789 0.382812 2.14844V17.8516C0.382812 19.0362 1.3466 20 2.53125 20H13.4688C14.6534 20 15.6172 19.0362 15.6172 17.8516V5.85938H10.8906Z" fill="white"/>
<path d="M11.158 13.2108C10.871 12.3664 10.1127 11.7856 9.23722 11.7065C8.94407 12.017 8.58111 12.2139 8.17008 12.2139C7.75936 12.2139 7.39613 12.017 7.10325 11.7065C6.22729 11.7856 5.4689 12.3664 5.1819 13.211L5.02326 13.6779C4.97788 13.8123 4.99961 13.9604 5.08231 14.0756C5.16499 14.191 5.29815 14.2594 5.43989 14.2594H10.9C11.042 14.2594 11.1752 14.191 11.2579 14.0756C11.3403 13.9604 11.3623 13.8123 11.3167 13.6779L11.158 13.2108Z" fill="#7A81FD"/>
<path d="M6.74609 9.62996C6.74609 10.6774 7.38369 11.8013 8.1697 11.8013C8.95603 11.8013 9.59359 10.6774 9.59359 9.62996C9.59361 7.45883 6.74609 7.45453 6.74609 9.62996Z" fill="#7A81FD"/>
<path d="M10.6953 4.49234C10.6953 4.60004 10.7829 4.68766 10.8906 4.68766H15.356C15.2488 4.48977 15.1109 4.30801 14.9453 4.15125L11.1788 0.587891C11.0326 0.449609 10.8698 0.334258 10.6954 0.243164V4.49234H10.6953Z" fill="white"/>
</svg>
