<svg width="20" height="20" viewBox="0 0 20 20" fill="none" xmlns="http://www.w3.org/2000/svg">
<path d="M13.5 5.71875C13.5 6.2071 13.4095 6.69067 13.2336 7.14185C13.0577 7.59303 12.7999 8.00299 12.4749 8.3483C12.1499 8.69362 11.764 8.96754 11.3394 9.15443C10.9148 9.34131 10.4596 9.4375 10 9.4375C9.54037 9.4375 9.08525 9.34131 8.66061 9.15443C8.23597 8.96754 7.85013 8.69362 7.52513 8.3483C7.20012 8.00299 6.94231 7.59303 6.76642 7.14185C6.59053 6.69067 6.5 6.2071 6.5 5.71875C6.5 4.73248 6.86875 3.7866 7.52513 3.0892C8.1815 2.3918 9.07174 2 10 2C10.9283 2 11.8185 2.3918 12.4749 3.0892C13.1313 3.7866 13.5 4.73248 13.5 5.71875ZM16 15.2812C16 17.3351 13.314 19 10 19C6.686 19 4 17.3351 4 15.2812C4 13.2274 6.686 11.5625 10 11.5625C13.314 11.5625 16 13.2274 16 15.2812Z" fill="white"/>
<path d="M14.0319 8.25097C14.4457 7.48842 14.6809 6.61218 14.6809 5.68125C14.6809 4.72673 14.433 3.83012 14 3.05363C14.1787 3.01823 14.3617 3 14.5511 3C16.0553 3 17.2745 4.18619 17.2745 5.65015C17.2745 7.11304 16.0553 8.29923 14.5511 8.29923C14.3723 8.29923 14.1989 8.28314 14.0319 8.25097Z" fill="#7A81FD"/>
<path d="M20 15.3649C20 16.7323 18.3862 17.8584 16.333 18C16.9362 17.2718 17.3404 16.3784 17.3404 15.3338C17.3404 14.3213 16.9617 13.4504 16.3872 12.7351C18.4138 12.8938 20 14.0103 20 15.3649Z" fill="#7A81FD"/>
<path d="M5.96809 8.25097C5.55426 7.48842 5.31915 6.61218 5.31915 5.68125C5.31915 4.72673 5.56702 3.83012 6 3.05363C5.82128 3.01823 5.6383 3 5.44894 3C3.94468 3 2.72553 4.18619 2.72553 5.65015C2.72553 7.11304 3.94468 8.29923 5.44894 8.29923C5.62766 8.29923 5.80107 8.28314 5.96809 8.25097Z" fill="#7A81FD"/>
<path d="M0 15.3649C0 16.7323 1.61383 17.8584 3.66702 18C3.06383 17.2718 2.65957 16.3784 2.65957 15.3338C2.65957 14.3213 3.0383 13.4504 3.61277 12.7351C1.58617 12.8938 0 14.0103 0 15.3649Z" fill="#7A81FD"/>
</svg>
