<svg width="20" height="20" viewBox="0 0 20 20" fill="none" xmlns="http://www.w3.org/2000/svg">
<path fill-rule="evenodd" clip-rule="evenodd" d="M10.5001 2C8.77367 2 7.07839 2.14072 5.4275 2.41084C5.26168 2.43794 5.11089 2.52311 5.00207 2.65114C4.89325 2.77916 4.83348 2.9417 4.83344 3.10972V3.47522C4.05239 3.6235 3.28267 3.80106 2.52428 4.00789C2.37839 4.04773 2.24908 4.13321 2.15528 4.25183C2.06147 4.37045 2.00809 4.51597 2.00294 4.66711C1.96058 5.86679 2.37669 7.03757 3.16668 7.94141C3.95667 8.84526 5.06122 9.41432 6.25578 9.53289C6.99388 10.3675 7.96166 10.9661 9.03811 11.2537C8.94942 11.9801 8.73059 12.6845 8.39211 13.3333H8.139C7.76328 13.3333 7.40294 13.4826 7.13726 13.7483C6.87159 14.0139 6.72233 14.3743 6.72233 14.75V17.1111H6.014C5.36233 17.1111 4.83344 17.64 4.83344 18.2917C4.83344 18.6827 5.15078 19 5.54178 19H15.4584C15.6463 19 15.8265 18.9254 15.9593 18.7925C16.0921 18.6597 16.1668 18.4795 16.1668 18.2917C16.1668 17.64 15.6379 17.1111 14.9862 17.1111H14.2779V14.75C14.2779 14.3743 14.1286 14.0139 13.863 13.7483C13.5973 13.4826 13.2369 13.3333 12.8612 13.3333H12.6081C12.2697 12.6845 12.0508 11.9801 11.9621 11.2537C13.0386 10.9661 14.0063 10.3675 14.7444 9.53289C15.939 9.41432 17.0436 8.84526 17.8335 7.94141C18.6235 7.03757 19.0396 5.86679 18.9973 4.66711C18.9921 4.51597 18.9388 4.37045 18.8449 4.25183C18.7511 4.13321 18.6218 4.04773 18.4759 4.00789C17.7135 3.80003 16.9432 3.62233 16.1668 3.47522V3.10972C16.1667 2.9417 16.107 2.77916 15.9981 2.65114C15.8893 2.52311 15.7385 2.43794 15.5727 2.41084C13.8958 2.13678 12.1993 1.99939 10.5001 2ZM3.44039 5.23189C3.90033 5.11667 4.365 5.01278 4.83344 4.91834V5.77778C4.83344 6.47667 4.96 7.14534 5.19233 7.76395C4.71705 7.51562 4.30924 7.15549 4.00405 6.71456C3.69885 6.27363 3.50541 5.76418 3.44039 5.23189ZM17.5598 5.23189C17.4949 5.76409 17.3016 6.27254 16.9966 6.71346C16.6916 7.15438 16.2839 7.51456 15.8088 7.763C16.0464 7.12814 16.1677 6.45565 16.1668 5.77778V4.91834C16.6352 5.01184 17.0999 5.11667 17.5598 5.23189Z" fill="white"/>
<path d="M5.5 18H15.5" stroke="#7A81FD" stroke-width="2" stroke-linecap="round"/>
</svg>
