<svg width="17" height="17" viewBox="0 0 17 17" fill="none" xmlns="http://www.w3.org/2000/svg">
<path fill-rule="evenodd" clip-rule="evenodd" d="M8.50011 2.06161e-06C6.77367 2.06161e-06 5.07839 0.140724 3.4275 0.410835C3.26168 0.437943 3.11089 0.523115 3.00207 0.651139C2.89325 0.779162 2.83348 0.941701 2.83344 1.10972V1.47522C2.05239 1.6235 1.28267 1.80106 0.524277 2.00789C0.378391 2.04773 0.249083 2.13321 0.155276 2.25183C0.0614691 2.37045 0.0080881 2.51597 0.00294419 2.66711C-0.0394192 3.86679 0.376694 5.03757 1.16668 5.94141C1.95667 6.84526 3.06122 7.41432 4.25578 7.53289C4.99388 8.36755 5.96166 8.96609 7.03811 9.25367C6.94942 9.98006 6.73059 10.6845 6.39211 11.3333H6.139C5.76328 11.3333 5.40294 11.4826 5.13726 11.7483C4.87159 12.0139 4.72233 12.3743 4.72233 12.75V15.1111H4.014C3.36233 15.1111 2.83344 15.64 2.83344 16.2917C2.83344 16.6827 3.15078 17 3.54178 17H13.4584C13.6463 17 13.8265 16.9254 13.9593 16.7925C14.0921 16.6597 14.1668 16.4795 14.1668 16.2917C14.1668 15.64 13.6379 15.1111 12.9862 15.1111H12.2779V12.75C12.2779 12.3743 12.1286 12.0139 11.863 11.7483C11.5973 11.4826 11.2369 11.3333 10.8612 11.3333H10.6081C10.2697 10.6845 10.0508 9.98005 9.96211 9.25367C11.0386 8.96609 12.0063 8.36755 12.7444 7.53289C13.939 7.41432 15.0436 6.84526 15.8335 5.94141C16.6235 5.03757 17.0396 3.86679 16.9973 2.66711C16.9921 2.51597 16.9387 2.37045 16.8449 2.25183C16.7511 2.13321 16.6218 2.04773 16.4759 2.00789C15.7135 1.80003 14.9432 1.62233 14.1668 1.47522V1.10972C14.1667 0.941701 14.107 0.779162 13.9981 0.651139C13.8893 0.523115 13.7385 0.437943 13.5727 0.410835C11.8958 0.136782 10.1993 -0.000613866 8.50011 2.06161e-06ZM1.44039 3.23189C1.90033 3.11667 2.365 3.01278 2.83344 2.91834V3.77778C2.83344 4.47667 2.96 5.14534 3.19233 5.76395C2.71705 5.51562 2.30924 5.15549 2.00405 4.71456C1.69885 4.27363 1.50541 3.76418 1.44039 3.23189ZM15.5598 3.23189C15.4949 3.76409 15.3016 4.27254 14.9966 4.71346C14.6916 5.15438 14.2839 5.51456 13.8088 5.763C14.0464 5.12814 14.1677 4.45565 14.1668 3.77778V2.91834C14.6352 3.01184 15.0999 3.11667 15.5598 3.23189Z" fill="white"/>
</svg>
