<svg width="20" height="20" viewBox="0 0 20 20" fill="none" xmlns="http://www.w3.org/2000/svg">
<path d="M8.14974 7.94401C9.99069 7.94401 11.4831 6.45163 11.4831 4.61068C11.4831 2.76973 9.99069 1.27734 8.14974 1.27734C6.30879 1.27734 4.81641 2.76973 4.81641 4.61068C4.81641 6.45163 6.30879 7.94401 8.14974 7.94401Z" fill="#383A51"/>
<path d="M9.1316 17.6782C8.948 17.4966 8.8282 17.2604 8.79014 17.005C8.75208 16.7496 8.79781 16.4888 8.92049 16.2615L9.21493 15.706L8.60937 15.5226C8.36244 15.4454 8.14746 15.2896 7.99706 15.0791C7.84666 14.8685 7.76906 14.6146 7.77604 14.356V13.2171C7.77557 12.9596 7.85796 12.7087 8.01103 12.5016C8.16409 12.2946 8.37972 12.1422 8.62604 12.0671L9.2316 11.8838L8.94271 11.3282C8.82363 11.1041 8.77832 10.8481 8.81323 10.5967C8.84815 10.3453 8.9615 10.1114 9.13715 9.9282C8.70975 9.87217 8.27931 9.84248 7.84826 9.83931C6.57511 9.80934 5.31103 10.0607 4.14617 10.5754C2.98132 11.0901 1.9444 11.8556 1.10938 12.8171V17.1226C1.10938 17.27 1.16791 17.4113 1.27209 17.5155C1.37628 17.6197 1.51759 17.6782 1.66493 17.6782H9.1316Z" fill="#383A51"/>
<path d="M18.7239 13.033L17.6128 12.6996C17.5358 12.4253 17.4277 12.1606 17.2906 11.9107L17.8461 10.8774C17.8676 10.8391 17.8754 10.7946 17.8684 10.7512C17.8613 10.7078 17.8397 10.6681 17.8072 10.6385L17.0017 9.82742C16.9706 9.79722 16.9311 9.77729 16.8883 9.77034C16.8456 9.76338 16.8018 9.76973 16.7628 9.78853L15.735 10.3441C15.482 10.2067 15.2159 10.095 14.9406 10.0107L14.6017 8.89964C14.5867 8.85867 14.5595 8.82332 14.5237 8.79845C14.4879 8.77358 14.4453 8.76041 14.4017 8.76075H13.2461C13.2028 8.76196 13.1609 8.77647 13.1261 8.80231C13.0913 8.82815 13.0653 8.86407 13.0517 8.90519L12.7183 10.0163C12.4377 10.098 12.1674 10.2117 11.9128 10.3552L10.9072 9.79964C10.8681 9.77886 10.8235 9.7709 10.7796 9.77688C10.7358 9.78286 10.6949 9.80248 10.6628 9.83297L9.84611 10.633C9.81395 10.664 9.79276 10.7046 9.78575 10.7487C9.77873 10.7928 9.78627 10.838 9.80722 10.8774L10.3628 11.8885C10.2139 12.1395 10.0929 12.4058 10.0017 12.683L8.89055 13.0219C8.84852 13.034 8.81164 13.0596 8.78555 13.0947C8.75946 13.1298 8.7456 13.1726 8.74611 13.2163V14.3552C8.7456 14.3989 8.75946 14.4416 8.78555 14.4768C8.81164 14.5119 8.84852 14.5375 8.89055 14.5496L10.0017 14.8885C10.0849 15.1606 10.1967 15.4232 10.335 15.6719L9.77944 16.7274C9.75849 16.7669 9.75095 16.812 9.75797 16.8561C9.76498 16.9003 9.78617 16.9409 9.81833 16.9719L10.6461 17.7774C10.6782 17.8079 10.7191 17.8275 10.763 17.8335C10.8068 17.8395 10.8515 17.8315 10.8906 17.8107L11.9294 17.2552C12.1767 17.3882 12.4374 17.4943 12.7072 17.5719L13.0406 18.7107C13.0545 18.7528 13.0814 18.7893 13.1173 18.8152C13.1531 18.8411 13.1963 18.8551 13.2406 18.8552H14.3794C14.4228 18.854 14.4647 18.8395 14.4994 18.8136C14.5342 18.7878 14.5602 18.7519 14.5739 18.7107L14.9072 17.5719C15.1738 17.4953 15.431 17.3891 15.6739 17.2552L16.7239 17.8107C16.763 17.8315 16.8076 17.8395 16.8515 17.8335C16.8953 17.8275 16.9362 17.8079 16.9683 17.7774L17.7794 16.9719C17.8099 16.9398 17.8295 16.8989 17.8355 16.855C17.8415 16.8111 17.8336 16.7665 17.8128 16.7274L17.2572 15.683C17.3901 15.4396 17.4963 15.1825 17.5739 14.9163L18.685 14.5774C18.7267 14.564 18.7634 14.5382 18.7902 14.5035C18.817 14.4688 18.8326 14.4268 18.835 14.383V13.233C18.8364 13.1927 18.8267 13.1528 18.8072 13.1176C18.7876 13.0823 18.7588 13.0531 18.7239 13.033ZM13.8183 15.6552C13.4511 15.6563 13.0918 15.5484 12.7859 15.3452C12.4801 15.142 12.2414 14.8525 12.1001 14.5136C11.9588 14.1746 11.9212 13.8014 11.9922 13.4411C12.0632 13.0807 12.2395 12.7496 12.4987 12.4895C12.758 12.2295 13.0886 12.0522 13.4487 11.9802C13.8088 11.9081 14.1822 11.9445 14.5216 12.0848C14.861 12.2251 15.1511 12.4629 15.3552 12.7682C15.5594 13.0734 15.6683 13.4324 15.6683 13.7996C15.6683 14.2908 15.4736 14.7619 15.1268 15.1098C14.78 15.4576 14.3095 15.6537 13.8183 15.6552Z" fill="#383A51"/>
</svg>
