<svg width="20" height="20" viewBox="0 0 20 20" fill="none" xmlns="http://www.w3.org/2000/svg">
<path d="M2.94444 2H8.61111C9.13055 2 9.55555 2.425 9.55555 2.94444V8.61111C9.55555 9.13055 9.13055 9.55555 8.61111 9.55555H2.94444C2.425 9.55555 2 9.13055 2 8.61111V2.94444C2 2.425 2.425 2 2.94444 2ZM12.3889 2H18.0556C18.575 2 19 2.425 19 2.94444V8.61111C19 9.13055 18.575 9.55555 18.0556 9.55555H12.3889C11.8694 9.55555 11.4444 9.13055 11.4444 8.61111V2.94444C11.4444 2.425 11.8694 2 12.3889 2ZM2.94444 11.4444H8.61111C9.13055 11.4444 9.55555 11.8694 9.55555 12.3889V18.0556C9.55555 18.575 9.13055 19 8.61111 19H2.94444C2.425 19 2 18.575 2 18.0556V12.3889C2 11.8694 2.425 11.4444 2.94444 11.4444Z" fill="#383A51"/>
<path d="M14.2786 12.3888C14.2786 11.8693 14.7036 11.4443 15.2231 11.4443C15.7425 11.4443 16.1675 11.8693 16.1675 12.3888V14.2777H18.0564C18.5759 14.2777 19.0009 14.7027 19.0009 15.2221C19.0009 15.7416 18.5759 16.1666 18.0564 16.1666H16.1675V18.0554C16.1675 18.5749 15.7425 18.9999 15.2231 18.9999C14.7036 18.9999 14.2786 18.5749 14.2786 18.0554V16.1666H12.3898C11.8703 16.1666 11.4453 15.7416 11.4453 15.2221C11.4453 14.7027 11.8703 14.2777 12.3898 14.2777H14.2786V12.3888Z" fill="#383A51"/>
</svg>
