<svg width="20" height="20" viewBox="0 0 20 20" fill="none" xmlns="http://www.w3.org/2000/svg">
<path fill-rule="evenodd" clip-rule="evenodd" d="M2.06047 1.0548C1 2.1087 1 3.8061 1 7.2V10.8C1 14.1939 1 15.8913 2.06047 16.9452C3.12004 18 4.82656 18 8.23871 18H10.0484C13.4605 18 15.1671 18 16.2266 16.9452C17.2871 15.8913 17.2871 14.1939 17.2871 10.8V7.2C17.2871 3.8061 17.2871 2.1087 16.2266 1.0548C15.1671 -1.07288e-07 13.4605 0 10.0484 0H8.23871C4.82656 0 3.12004 -1.07288e-07 2.06047 1.0548ZM5.52419 6.525C5.34421 6.525 5.1716 6.59612 5.04433 6.7227C4.91706 6.84929 4.84556 7.02098 4.84556 7.2C4.84556 7.37902 4.91706 7.55071 5.04433 7.6773C5.1716 7.80388 5.34421 7.875 5.52419 7.875H12.7629C12.9429 7.875 13.1155 7.80388 13.2428 7.6773C13.37 7.55071 13.4415 7.37902 13.4415 7.2C13.4415 7.02098 13.37 6.84929 13.2428 6.7227C13.1155 6.59612 12.9429 6.525 12.7629 6.525H5.52419ZM5.52419 10.125C5.34421 10.125 5.1716 10.1961 5.04433 10.3227C4.91706 10.4493 4.84556 10.621 4.84556 10.8C4.84556 10.979 4.91706 11.1507 5.04433 11.2773C5.1716 11.4039 5.34421 11.475 5.52419 11.475H10.0484C10.2284 11.475 10.401 11.4039 10.5283 11.2773C10.6555 11.1507 10.727 10.979 10.727 10.8C10.727 10.621 10.6555 10.4493 10.5283 10.3227C10.401 10.1961 10.2284 10.125 10.0484 10.125H5.52419Z" fill="#383A51"/>
</svg>
