<svg width="20" height="20" viewBox="0 0 20 20" fill="none" xmlns="http://www.w3.org/2000/svg">
<path d="M15.1196 11.6156C15.7885 11.2487 16.2479 10.5465 16.2479 9.73161C16.2479 8.54244 15.28 7.5752 14.0908 7.5752C13.6727 7.5752 13.2851 7.70019 12.954 7.90699C12.7557 8.69626 12.4435 9.45123 12.0352 10.107C13.1928 10.3246 14.2551 10.8518 15.1196 11.6156Z" fill="#383A51"/>
<path d="M19.584 8.91551C19.584 8.66648 19.3817 8.46486 19.1336 8.46486H18.2083C18.1284 8.20403 18.0224 7.95404 17.8967 7.71681L18.5518 7.06172C18.6369 6.97727 18.684 6.86276 18.684 6.74333C18.684 6.62385 18.6369 6.5093 18.5518 6.42459L17.3986 5.27107C17.311 5.18299 17.1951 5.13883 17.08 5.13883C16.9648 5.13883 16.8496 5.18299 16.7619 5.27107L16.1055 5.92649C15.8685 5.80082 15.6192 5.6955 15.3574 5.61594V4.69054C15.3574 4.44185 15.1564 4.24023 14.9078 4.24023H13.2762C13.1669 4.24023 13.0707 4.28406 12.9922 4.34888C13.1296 4.85018 13.2048 5.39375 13.2048 5.97361C13.2048 6.34174 13.1761 6.71551 13.1224 7.08718C13.4261 6.97524 13.7493 6.90495 14.0917 6.90495C15.6506 6.90495 16.9189 8.17301 16.9189 9.73154C16.9189 10.7277 16.3987 11.6007 15.6179 12.1044C16.186 12.7274 16.6375 13.4666 16.9314 14.2948C16.9798 14.3115 17.0302 14.3237 17.0806 14.3237C17.1958 14.3237 17.311 14.2798 17.3993 14.1917L18.5532 13.0382C18.6377 12.9538 18.6841 12.8393 18.6841 12.7198C18.6841 12.6004 18.6377 12.4859 18.5532 12.4011L17.8968 11.7457C18.0224 11.5088 18.1284 11.2587 18.2083 10.9976H19.1337C19.2528 10.9976 19.3686 10.9505 19.4524 10.8654C19.5369 10.7813 19.5847 10.6665 19.5847 10.547L19.584 8.91551Z" fill="#383A51"/>
<path d="M16.0127 14.7024C15.313 12.6438 13.4642 11.2279 11.3299 11.0352C10.6153 11.792 9.73041 12.2721 8.72835 12.2721C7.72706 12.2721 6.84153 11.792 6.12753 11.0352C3.99202 11.2279 2.14312 12.6438 1.44345 14.7028L1.0567 15.8412C0.946069 16.1688 0.999044 16.5297 1.20066 16.8108C1.40223 17.0919 1.72687 17.2588 2.07241 17.2588H15.3837C15.7299 17.2588 16.0545 17.0919 16.2561 16.8108C16.457 16.5297 16.5107 16.1688 16.3994 15.8412L16.0127 14.7024Z" fill="#383A51"/>
<path d="M5.25781 5.9737C5.25781 8.52715 6.8122 11.2671 8.72844 11.2671C10.6454 11.2671 12.1997 8.52715 12.1997 5.9737C12.1998 0.680683 5.25781 0.670189 5.25781 5.9737Z" fill="#383A51"/>
</svg>
