<svg width="20" height="20" viewBox="0 0 20 20" fill="none" xmlns="http://www.w3.org/2000/svg">
<path d="M4.8 19C4.305 19 3.8811 18.8236 3.5283 18.4708C3.1755 18.118 2.9994 17.6944 3 17.2V2.8C3 2.305 3.1764 1.8811 3.5292 1.5283C3.882 1.1755 4.3056 0.999402 4.8 1H11.2575C11.4975 1 11.7264 1.045 11.9442 1.135C12.162 1.225 12.3531 1.3525 12.5175 1.5175L16.8825 5.8825C17.0475 6.0475 17.175 6.2389 17.265 6.4567C17.355 6.6745 17.4 6.9031 17.4 7.1425V17.2C17.4 17.695 17.2236 18.1189 16.8708 18.4717C16.518 18.8245 16.0944 19.0006 15.6 19H4.8ZM11.1 6.4C11.1 6.655 11.1864 6.8689 11.3592 7.0417C11.532 7.2145 11.7456 7.3006 12 7.3H15.6L11.1 2.8V6.4ZM9.2325 12.8125L7.9725 11.5525C7.8825 11.4625 7.785 11.395 7.68 11.35C7.575 11.305 7.4664 11.2825 7.3542 11.2825C7.2414 11.2825 7.1289 11.305 7.0167 11.35C6.9045 11.395 6.8031 11.4625 6.7125 11.5525C6.5325 11.7325 6.4425 11.9464 6.4425 12.1942C6.4425 12.442 6.5325 12.6556 6.7125 12.835L8.625 14.77C8.715 14.86 8.8125 14.9239 8.9175 14.9617C9.0225 14.9995 9.135 15.0181 9.255 15.0175C9.375 15.0175 9.4875 14.9986 9.5925 14.9608C9.6975 14.923 9.795 14.8594 9.885 14.77L13.6875 10.9675C13.8675 10.7875 13.9575 10.57 13.9575 10.315C13.9575 10.06 13.8675 9.8425 13.6875 9.6625C13.5075 9.4825 13.29 9.3925 13.035 9.3925C12.78 9.3925 12.5625 9.4825 12.3825 9.6625L9.2325 12.8125Z" fill="#383A51"/>
</svg>
