<svg width="20" height="20" viewBox="0 0 20 20" fill="none" xmlns="http://www.w3.org/2000/svg">
<path d="M13.5 5.71875C13.5 6.2071 13.4095 6.69067 13.2336 7.14185C13.0577 7.59303 12.7999 8.00299 12.4749 8.3483C12.1499 8.69362 11.764 8.96754 11.3394 9.15443C10.9148 9.34131 10.4596 9.4375 10 9.4375C9.54037 9.4375 9.08525 9.34131 8.66061 9.15443C8.23597 8.96754 7.85013 8.69362 7.52513 8.3483C7.20012 8.00299 6.94231 7.59303 6.76642 7.14185C6.59053 6.69067 6.5 6.2071 6.5 5.71875C6.5 4.73248 6.86875 3.7866 7.52513 3.0892C8.1815 2.3918 9.07174 2 10 2C10.9283 2 11.8185 2.3918 12.4749 3.0892C13.1313 3.7866 13.5 4.73248 13.5 5.71875ZM16 15.2812C16 17.3351 13.314 19 10 19C6.686 19 4 17.3351 4 15.2812C4 13.2274 6.686 11.5625 10 11.5625C13.314 11.5625 16 13.2274 16 15.2812ZM5.122 3.0625C5.3 3.0625 5.472 3.08056 5.64 3.11563C5.21901 3.9102 4.99854 4.80693 5 5.71875C5 6.641 5.221 7.50906 5.61 8.2645C5.452 8.29637 5.29 8.31231 5.122 8.31231C3.708 8.31231 2.561 7.13719 2.561 5.68794C2.561 4.23763 3.708 3.0625 5.122 3.0625ZM3.447 17.9226C2.88 17.2012 2.5 16.3161 2.5 15.2812C2.5 14.2782 2.857 13.4155 3.396 12.7068C1.49 12.8641 0 13.9712 0 15.3121C0 16.6667 1.517 17.7824 3.447 17.9226ZM15 5.71875C15 6.641 14.779 7.50906 14.39 8.2645C14.547 8.29637 14.71 8.31231 14.878 8.31231C16.292 8.31231 17.438 7.13719 17.438 5.68794C17.438 4.23763 16.292 3.0625 14.878 3.0625C14.7 3.0625 14.528 3.08056 14.36 3.11563C14.767 3.88488 15 4.77312 15 5.71875ZM16.553 17.9226C18.483 17.7824 20 16.6667 20 15.3121C20 13.9701 18.509 12.8641 16.604 12.7068C17.144 13.4155 17.5 14.2782 17.5 15.2812C17.5 16.3161 17.12 17.2012 16.553 17.9226Z" fill="#383A51"/>
</svg>
