<svg width="20" height="20" viewBox="0 0 20 20" fill="none" xmlns="http://www.w3.org/2000/svg">
<g clip-path="url(#clip0_4786_9738)">
<path fill-rule="evenodd" clip-rule="evenodd" d="M12.8906 5.85938C12.1368 5.85938 11.5234 5.24605 11.5234 4.49219V0H4.53125C3.3466 0 2.38281 0.963789 2.38281 2.14844V17.8516C2.38281 19.0362 3.3466 20 4.53125 20H15.4688C16.6534 20 17.6172 19.0362 17.6172 17.8516V5.85938H12.8906ZM13.158 12.2108C12.871 11.3664 12.1127 10.7856 11.2372 10.7065C10.9441 11.017 10.5811 11.2139 10.1701 11.2139C9.75936 11.2139 9.39613 11.017 9.10325 10.7065C8.22729 10.7856 7.4689 11.3664 7.1819 12.211L7.02326 12.6779C6.97788 12.8123 6.99961 12.9604 7.08231 13.0756C7.16499 13.191 7.29815 13.2594 7.43989 13.2594H12.9C13.042 13.2594 13.1752 13.191 13.2579 13.0756C13.3403 12.9604 13.3623 12.8123 13.3167 12.6779L13.158 12.2108ZM10.1701 10.8013C9.38405 10.8013 8.74646 9.67736 8.74646 8.62996C8.74646 6.45453 11.594 6.45883 11.594 8.62996C11.594 9.67736 10.9564 10.8013 10.1701 10.8013Z" fill="#383A51"/>
<path d="M12.6953 4.49234C12.6953 4.60004 12.7829 4.68766 12.8906 4.68766H17.356C17.2488 4.48977 17.1109 4.30801 16.9453 4.15125L13.1788 0.587891C13.0326 0.449609 12.8698 0.334258 12.6954 0.243164V4.49234H12.6953Z" fill="#383A51"/>
</g>
<defs>
<clipPath id="clip0_4786_9738">
<rect width="20" height="20" fill="white"/>
</clipPath>
</defs>
</svg>
