<svg width="20" height="20" viewBox="0 0 20 20" fill="none" xmlns="http://www.w3.org/2000/svg">
<path d="M8.14974 7.94401C9.99069 7.94401 11.4831 6.45163 11.4831 4.61068C11.4831 2.76973 9.99069 1.27734 8.14974 1.27734C6.30879 1.27734 4.81641 2.76973 4.81641 4.61068C4.81641 6.45163 6.30879 7.94401 8.14974 7.94401Z" fill="#383A51"/>
<path d="M9.1316 17.6772C8.948 17.4956 8.8282 17.2594 8.79014 17.004C8.75208 16.7486 8.79781 16.4878 8.92049 16.2606L9.21493 15.705L8.60937 15.5217C8.36244 15.4444 8.14746 15.2886 7.99706 15.0781C7.84666 14.8675 7.76906 14.6137 7.77604 14.355V13.2161C7.77557 12.9586 7.85796 12.7078 8.01103 12.5007C8.16409 12.2936 8.37972 12.1412 8.62604 12.0661L9.2316 11.8828L8.94271 11.3272C8.82363 11.1031 8.77832 10.8471 8.81323 10.5957C8.84815 10.3444 8.9615 10.1104 9.13715 9.92722C8.70975 9.87119 8.27931 9.84151 7.84826 9.83834C6.57511 9.80836 5.31103 10.0597 4.14617 10.5744C2.98132 11.0892 1.9444 11.8546 1.10938 12.8161V17.1217C1.10938 17.269 1.16791 17.4103 1.27209 17.5145C1.37628 17.6187 1.51759 17.6772 1.66493 17.6772H9.1316Z" fill="#383A51"/>
<path d="M18.7239 13.0339L17.6128 12.7006C17.5358 12.4262 17.4277 12.1615 17.2906 11.9117L17.8461 10.8784C17.8676 10.84 17.8754 10.7955 17.8684 10.7522C17.8613 10.7088 17.8397 10.6691 17.8072 10.6395L17.0017 9.82839C16.9706 9.7982 16.9311 9.77827 16.8883 9.77131C16.8456 9.76436 16.8018 9.77071 16.7628 9.7895L15.735 10.3451C15.482 10.2076 15.2159 10.096 14.9406 10.0117L14.6017 8.90061C14.5867 8.85964 14.5595 8.8243 14.5237 8.79943C14.4879 8.77456 14.4453 8.76139 14.4017 8.76173H13.2461C13.2028 8.76293 13.1609 8.77744 13.1261 8.80329C13.0913 8.82913 13.0653 8.86505 13.0517 8.90617L12.7183 10.0173C12.4377 10.0989 12.1674 10.2126 11.9128 10.3562L10.9072 9.80061C10.8681 9.77984 10.8235 9.77188 10.7796 9.77786C10.7358 9.78384 10.6949 9.80346 10.6628 9.83395L9.84611 10.6339C9.81395 10.6649 9.79276 10.7056 9.78575 10.7497C9.77873 10.7938 9.78627 10.839 9.80722 10.8784L10.3628 11.8895C10.2139 12.1404 10.0929 12.4068 10.0017 12.6839L8.89055 13.0228C8.84852 13.035 8.81164 13.0606 8.78555 13.0957C8.75946 13.1308 8.7456 13.1735 8.74611 13.2173V14.3562C8.7456 14.3999 8.75946 14.4426 8.78555 14.4777C8.81164 14.5129 8.84852 14.5385 8.89055 14.5506L10.0017 14.8895C10.0849 15.1616 10.1967 15.4242 10.335 15.6728L9.77944 16.7284C9.75849 16.7678 9.75095 16.813 9.75797 16.8571C9.76498 16.9012 9.78617 16.9418 9.81833 16.9728L10.6461 17.7784C10.6782 17.8089 10.7191 17.8285 10.763 17.8345C10.8068 17.8405 10.8515 17.8325 10.8906 17.8117L11.9294 17.2562C12.1767 17.3891 12.4374 17.4953 12.7072 17.5728L13.0406 18.7117C13.0545 18.7537 13.0814 18.7903 13.1173 18.8162C13.1531 18.8421 13.1963 18.8561 13.2406 18.8562H14.3794C14.4228 18.855 14.4647 18.8405 14.4994 18.8146C14.5342 18.7888 14.5602 18.7528 14.5739 18.7117L14.9072 17.5728C15.1738 17.4963 15.431 17.39 15.6739 17.2562L16.7239 17.8117C16.763 17.8325 16.8076 17.8405 16.8515 17.8345C16.8953 17.8285 16.9362 17.8089 16.9683 17.7784L17.7794 16.9728C17.8099 16.9407 17.8295 16.8999 17.8355 16.856C17.8415 16.8121 17.8336 16.7675 17.8128 16.7284L17.2572 15.6839C17.3901 15.4406 17.4963 15.1835 17.5739 14.9173L18.685 14.5784C18.7267 14.565 18.7634 14.5392 18.7902 14.5045C18.817 14.4698 18.8326 14.4277 18.835 14.3839V13.2339C18.8364 13.1937 18.8267 13.1538 18.8072 13.1185C18.7876 13.0833 18.7588 13.0541 18.7239 13.0339ZM13.8183 15.6562C13.4511 15.6573 13.0918 15.5494 12.7859 15.3462C12.4801 15.1429 12.2414 14.8535 12.1001 14.5146C11.9588 14.1756 11.9212 13.8023 11.9922 13.442C12.0632 13.0817 12.2395 12.7506 12.4987 12.4905C12.758 12.2305 13.0886 12.0532 13.4487 11.9811C13.8088 11.9091 14.1822 11.9455 14.5216 12.0858C14.861 12.2261 15.1511 12.4639 15.3552 12.7691C15.5594 13.0744 15.6683 13.4334 15.6683 13.8006C15.6683 14.2918 15.4736 14.7629 15.1268 15.1107C14.78 15.4586 14.3095 15.6547 13.8183 15.6562Z" fill="#7A81FD"/>
</svg>
