<svg width="20" height="20" viewBox="0 0 20 20" fill="none" xmlns="http://www.w3.org/2000/svg">
<g clip-path="url(#clip0_4917_9423)">
<path d="M2.58079 8.5957V12.5957L0.290793 14.8857C0.104542 15.0731 0 15.3265 0 15.5907C0 15.8549 0.104542 16.1083 0.290793 16.2957L2.87079 18.8857C2.96376 18.9794 3.07436 19.0538 3.19622 19.1046C3.31808 19.1554 3.44878 19.1815 3.58079 19.1815C3.7128 19.1815 3.84351 19.1554 3.96537 19.1046C4.08723 19.0538 4.19783 18.9794 4.29079 18.8857L8.58079 14.5957H12.5808C12.846 14.5957 13.1004 14.4903 13.2879 14.3028C13.4754 14.1153 13.5808 13.8609 13.5808 13.5957V12.5957H14.5808C14.846 12.5957 15.1004 12.4903 15.2879 12.3028C15.4754 12.1153 15.5808 11.8609 15.5808 11.5957V10.5957H16.5808C16.846 10.5957 17.1004 10.4903 17.2879 10.3028C17.4754 10.1153 17.5808 9.86092 17.5808 9.5957V8.5957H10.5808V9.5957C10.5808 10.1261 10.3701 10.6348 9.99501 11.0099C9.61993 11.385 9.11123 11.5957 8.58079 11.5957H6.58079C6.05036 11.5957 5.54165 11.385 5.16658 11.0099C4.79151 10.6348 4.58079 10.1261 4.58079 9.5957V6.5957L2.58079 8.5957Z" fill="#383A51"/>
<path d="M11.5781 3.5958H8.57812C8.04769 3.5958 7.53898 3.80651 7.16391 4.18158C6.78884 4.55666 6.57812 5.06537 6.57812 5.5958V8.5958C6.57812 8.86102 6.68348 9.11537 6.87102 9.30291C7.05855 9.49044 7.31291 9.5958 7.57812 9.5958C7.84334 9.5958 8.0977 9.49044 8.28523 9.30291C8.47277 9.11537 8.57812 8.86102 8.57812 8.5958V6.5958H16.5781L18.8681 4.2958C19.0544 4.10844 19.1589 3.85498 19.1589 3.5908C19.1589 3.32661 19.0544 3.07316 18.8681 2.8858L16.2881 0.295798C16.1952 0.20207 16.0846 0.127676 15.9627 0.0769069C15.8408 0.0261382 15.7101 0 15.5781 0C15.4461 0 15.3154 0.0261382 15.1935 0.0769069C15.0717 0.127676 14.9611 0.20207 14.8681 0.295798L11.5781 3.5958Z" fill="#7A81FD"/>
</g>
<defs>
<clipPath id="clip0_4917_9423">
<rect width="20" height="20" fill="white"/>
</clipPath>
</defs>
</svg>
