<svg width="20" height="20" viewBox="0 0 20 20" fill="none" xmlns="http://www.w3.org/2000/svg">
<g clip-path="url(#clip0_4794_6768)">
<path d="M12.8906 5.85938C12.1368 5.85938 11.5234 5.24605 11.5234 4.49219V0H4.53125C3.3466 0 2.38281 0.963789 2.38281 2.14844V17.8516C2.38281 19.0362 3.3466 20 4.53125 20H15.4688C16.6534 20 17.6172 19.0362 17.6172 17.8516V5.85938H12.8906Z" fill="#383A51"/>
<path d="M13.158 13.2113C12.871 12.3669 12.1127 11.7861 11.2372 11.707C10.9441 12.0175 10.5811 12.2144 10.1701 12.2144C9.75936 12.2144 9.39613 12.0175 9.10325 11.707C8.22729 11.7861 7.4689 12.3669 7.1819 13.2114L7.02326 13.6784C6.97788 13.8128 6.99961 13.9608 7.08231 14.0761C7.16499 14.1915 7.29815 14.2599 7.43989 14.2599H12.9C13.042 14.2599 13.1752 14.1915 13.2579 14.0761C13.3403 13.9608 13.3623 13.8128 13.3167 13.6784L13.158 13.2113Z" fill="#7A81FD"/>
<path d="M8.74609 9.62996C8.74609 10.6774 9.38369 11.8013 10.1697 11.8013C10.956 11.8013 11.5936 10.6774 11.5936 9.62996C11.5936 7.45883 8.74609 7.45453 8.74609 9.62996Z" fill="#7A81FD"/>
<path d="M12.6953 4.49234C12.6953 4.60004 12.7829 4.68766 12.8906 4.68766H17.356C17.2488 4.48977 17.1109 4.30801 16.9453 4.15125L13.1788 0.587891C13.0326 0.449609 12.8698 0.334258 12.6954 0.243164V4.49234H12.6953Z" fill="#383A51"/>
</g>
<defs>
<clipPath id="clip0_4794_6768">
<rect width="20" height="20" fill="white"/>
</clipPath>
</defs>
</svg>
