<svg width="74" height="73" viewBox="0 0 74 73" fill="none" xmlns="http://www.w3.org/2000/svg">
<rect x="0.727051" width="73" height="73" rx="15" fill="#E8F6FF"/>
<g clip-path="url(#clip0_7411_6624)">
<path d="M21.7896 33.4618V49.6385C21.7896 50.0633 21.9029 50.461 22.0896 50.8208L31.3568 42.2796C27.8055 39.0065 25.4817 36.8646 21.7896 33.4618Z" fill="#0069A9"/>
<path d="M42.1638 42.2796L51.4309 50.8208C51.6177 50.461 51.731 50.0633 51.731 49.6385V33.4618C48.1878 36.7274 45.7539 38.9707 42.1638 42.2796Z" fill="#0069A9"/>
<path d="M36.7603 30.3213C36.2105 30.3213 35.7622 30.7336 35.7622 31.2412C35.7622 31.7487 36.2105 32.161 36.7603 32.161C37.4514 32.161 37.6347 31.7242 37.7444 31.1778C37.7071 30.7014 37.2856 30.3213 36.7603 30.3213Z" fill="#0069A9"/>
<path d="M40.3392 43.1995H33.1814L23.501 52.1216C23.8913 52.2937 24.3228 52.3982 24.7837 52.3982H48.7369C49.1978 52.3982 49.6292 52.2937 50.0196 52.1216L40.3392 43.1995Z" fill="#0069A9"/>
<path d="M22.7876 31.7801L25.7817 34.5397V29.0205L22.7876 31.7801Z" fill="#0069A9"/>
<path d="M47.7388 29.0205V34.5397L50.7329 31.7801L47.7388 29.0205Z" fill="#0069A9"/>
<path d="M44.4639 21H28.8694C28.2665 21 27.7778 21.4504 27.7778 22.0061V36.3795L33.1813 41.3598H40.3392L45.7427 36.3795V22.1786C45.7427 21.5277 45.1701 21 44.4639 21ZM38.7556 33.2836C38.2248 33.7246 37.5295 34.0008 36.7603 34.0008C35.1092 34.0008 33.7661 32.7629 33.7661 31.2412C33.7661 29.7195 35.1092 28.4816 36.7603 28.4816C38.4113 28.4816 39.7544 29.7195 39.7544 31.2412C39.7544 32.4572 41.7505 32.4572 41.7505 31.2412C41.7505 28.7053 39.5127 26.6419 36.7603 26.6419C34.0078 26.6419 31.77 28.7053 31.77 31.2412C31.77 32.815 32.6316 34.264 34.076 35.1174C35.5575 35.9906 37.3918 36.0732 39.113 35.3447C40.3029 34.8352 41.1495 36.5068 39.9473 37.0155C37.6596 37.9856 35.1187 37.9169 33 36.6661C30.9806 35.4732 29.7739 33.4456 29.7739 31.2412C29.7739 27.6911 32.9084 24.8021 36.7603 24.8021C40.6121 24.8021 43.7466 27.6911 43.7466 31.2412C43.7466 33.6059 40.696 34.8984 38.7556 33.2836Z" fill="#0069A9"/>
</g>
<defs>
<clipPath id="clip0_7411_6624">
<rect width="34.0667" height="31.3982" fill="white" transform="translate(19.7268 21)"/>
</clipPath>
</defs>
</svg>
