<svg width="74" height="73" viewBox="0 0 74 73" fill="none" xmlns="http://www.w3.org/2000/svg">
<rect x="0.260742" width="73" height="73" rx="15" fill="#F9FFD0"/>
<g clip-path="url(#clip0_7411_6648)">
<path d="M26.8926 19L39.5012 28.3755L52.1096 19H26.8926Z" fill="#ADC804"/>
<path d="M40.0966 30.4201C39.9199 30.5516 39.7105 30.6173 39.5011 30.6173C39.2918 30.6173 39.0823 30.5516 38.9056 30.4201L25.6748 20.5819V30.5538C26.9907 30.0871 28.4061 29.8322 29.88 29.8322C36.0826 29.8322 41.2538 34.3319 42.3014 40.2383H52.3293C52.8806 40.2383 53.3274 39.7915 53.3274 39.2403V20.5818L40.0966 30.4201Z" fill="#ADC804"/>
<path d="M29.88 31.8282C24.0245 31.8282 19.2607 36.592 19.2607 42.4475C19.2607 48.3029 24.0245 53.0666 29.88 53.0666C35.7354 53.0666 40.4992 48.3029 40.4992 42.4474C40.4992 36.5919 35.7353 31.8282 29.88 31.8282ZM33.7927 43.1532C33.5978 43.348 33.3424 43.4455 33.087 43.4455C32.8316 43.4455 32.5761 43.348 32.3813 43.1532L30.878 41.6499V45.6545C30.878 46.2057 30.4311 46.6525 29.88 46.6525C29.3287 46.6525 28.8819 46.2057 28.8819 45.6545V41.6499L27.3787 43.1532C26.9889 43.5429 26.3569 43.5429 25.9672 43.1532C25.5774 42.7635 25.5774 42.1316 25.9672 41.7418L29.1741 38.5347C29.3613 38.3475 29.6152 38.2424 29.8799 38.2424C30.1446 38.2424 30.3984 38.3475 30.5856 38.5347L33.7927 41.7417C34.1825 42.1315 34.1825 42.7634 33.7927 43.1532Z" fill="#ADC804"/>
</g>
<defs>
<clipPath id="clip0_7411_6648">
<rect width="34.0667" height="34.0667" fill="white" transform="translate(19.2607 19)"/>
</clipPath>
</defs>
</svg>
