<svg width="366" height="150" viewBox="0 0 366 150" fill="none" xmlns="http://www.w3.org/2000/svg">
<path d="M249.18 113.88H126.77C126.14 113.88 125.62 113.37 125.62 112.73V39.22C125.62 35.35 128.76 32.21 132.62 32.21H243.32C247.18 32.21 250.32 35.35 250.32 39.22V112.73C250.33 113.37 249.82 113.88 249.18 113.88Z" fill="#F2F2F2"/>
<path d="M219.73 23.17C220.01 22.07 220.7 21.14 221.68 20.56C222.47 20.09 223.38 19.89 224.28 19.98C224.49 20 224.69 20.04 224.9 20.09C227.17 20.67 228.55 22.98 227.98 25.25C227.4 27.52 225.09 28.9 222.82 28.33C220.53 27.76 219.15 25.44 219.73 23.17Z" fill="#F1EAFF"/>
<path d="M199.63 21.44V26.96C199.63 27.12 199.73 27.26 199.88 27.32L204.22 28.82C204.72 30.97 205.57 32.99 206.7 34.82L204.68 38.95C204.61 39.09 204.64 39.27 204.75 39.38L208.65 43.28C208.76 43.39 208.94 43.42 209.08 43.35L213.22 41.34C215.04 42.47 217.06 43.32 219.21 43.83L220.71 48.18C220.76 48.33 220.91 48.43 221.07 48.43H226.59C226.75 48.43 226.89 48.33 226.95 48.18L228.45 43.84C230.6 43.34 232.62 42.49 234.45 41.36L238.58 43.38C238.72 43.45 238.9 43.42 239.01 43.31L242.91 39.41C243.02 39.3 243.05 39.12 242.98 38.98L240.97 34.84C242.1 33.02 242.95 31 243.46 28.85L247.81 27.35C247.96 27.3 248.06 27.15 248.06 26.99V21.47C248.06 21.31 247.96 21.17 247.81 21.11L243.47 19.61C242.97 17.46 242.12 15.44 240.99 13.61L243.01 9.48C243.08 9.34 243.05 9.16 242.94 9.05L239.04 5.14999C238.93 5.03999 238.75 5.00999 238.61 5.07999L234.47 7.09C232.65 5.96 230.63 5.11 228.48 4.6L226.98 0.25C226.93 0.1 226.78 0 226.62 0H221.1C220.94 0 220.8 0.1 220.74 0.25L219.24 4.59C217.09 5.09 215.07 5.94 213.24 7.07L209.11 5.05C208.97 4.98 208.79 5.00999 208.68 5.12L204.78 9.02C204.67 9.13 204.64 9.31 204.71 9.45L206.72 13.59C205.59 15.41 204.74 17.43 204.23 19.58L199.88 21.08C199.73 21.13 199.63 21.28 199.63 21.44ZM214.14 14.47C216.72 11.9 220.14 10.48 223.78 10.48C231.3 10.49 237.41 16.61 237.4 24.12C237.4 24.58 237.38 25.05 237.33 25.5C237.13 27.49 236.49 29.4 235.46 31.12C235.37 31.27 235.17 31.32 235.02 31.23C234.91 31.16 234.85 31.04 234.86 30.92C234.86 30.87 234.88 30.83 234.9 30.79C235.88 29.16 236.48 27.33 236.68 25.44C236.72 25 236.75 24.56 236.75 24.12C236.76 16.96 230.94 11.13 223.77 11.12C220.3 11.12 217.04 12.47 214.58 14.92C212.44 17.05 211.14 19.8 210.84 22.77C210.79 23.21 210.77 23.66 210.77 24.1C210.77 26.66 211.51 29.05 212.79 31.06C215.09 34.68 219.14 37.09 223.75 37.09C224.68 37.09 225.6 36.99 226.5 36.8C226.67 36.76 226.85 36.87 226.88 37.05C226.89 37.08 226.89 37.12 226.89 37.15C226.88 37.29 226.78 37.4 226.64 37.43C226.59 37.44 226.53 37.45 226.48 37.46C226.45 37.47 226.42 37.47 226.4 37.48C226.39 37.48 226.38 37.48 226.37 37.49C225.66 37.63 224.93 37.71 224.2 37.73C224.05 37.73 223.9 37.74 223.76 37.74C223.29 37.74 222.82 37.72 222.36 37.67C219.25 37.35 216.36 35.99 214.12 33.74C211.55 31.16 210.13 27.74 210.13 24.1C210.13 23.63 210.15 23.16 210.2 22.7C210.53 19.6 211.9 16.71 214.14 14.47ZM223.29 29.73C223.02 29.7 222.76 29.66 222.49 29.59C219.53 28.84 217.73 25.82 218.48 22.85C218.84 21.41 219.74 20.21 221.02 19.45C222.29 18.69 223.78 18.47 225.22 18.84C228.18 19.59 229.98 22.61 229.23 25.58C228.54 28.27 225.98 30 223.29 29.73Z" fill="#F1EAFF"/>
<path d="M244.2 45.2599V48.9499C244.2 49.0599 244.27 49.1499 244.37 49.1899L247.28 50.1899C247.62 51.6299 248.18 52.9799 248.94 54.1999L247.59 56.9699C247.54 57.0699 247.56 57.1799 247.64 57.2599L250.25 59.8699C250.33 59.9499 250.44 59.9699 250.54 59.9199L253.31 58.5699C254.53 59.3299 255.88 59.8999 257.32 60.2399L258.32 63.1499C258.36 63.2499 258.45 63.3199 258.56 63.3199H262.25C262.36 63.3199 262.45 63.2499 262.49 63.1499L263.49 60.2399C264.93 59.8999 266.28 59.3399 267.5 58.5799L270.27 59.9299C270.37 59.9799 270.48 59.9599 270.56 59.8799L273.17 57.2699C273.25 57.1899 273.27 57.0799 273.22 56.9799L271.87 54.2099C272.63 52.9899 273.2 51.6399 273.54 50.1999L276.45 49.1999C276.55 49.1599 276.62 49.0699 276.62 48.9599V45.2699C276.62 45.1599 276.55 45.0699 276.45 45.0299L273.54 44.0299C273.2 42.5899 272.64 41.2399 271.88 40.0199L273.23 37.2499C273.28 37.1499 273.26 37.0399 273.18 36.9599L270.57 34.3499C270.49 34.2699 270.38 34.2499 270.28 34.2999L267.51 35.6499C266.29 34.8899 264.94 34.3199 263.5 33.9799L262.5 31.0699C262.46 30.9699 262.37 30.8999 262.26 30.8999H258.57C258.46 30.8999 258.37 30.9699 258.33 31.0699L257.33 33.9799C255.89 34.3199 254.54 34.8799 253.32 35.6399L250.55 34.2899C250.45 34.2399 250.34 34.2599 250.26 34.3399L247.65 36.9499C247.57 37.0299 247.55 37.1399 247.6 37.2399L248.95 40.0099C248.19 41.2299 247.62 42.5799 247.28 44.0199L244.37 45.0199C244.26 45.0599 244.2 45.1599 244.2 45.2599ZM253.7 40.4099C255.48 38.6299 257.84 37.6599 260.35 37.6599C262.86 37.6599 265.22 38.6399 267 40.4199C268.78 42.1999 269.75 44.5599 269.75 47.0699C269.75 47.3899 269.73 47.7099 269.7 48.0199C269.56 49.3899 269.12 50.7099 268.41 51.8899C268.27 52.1299 267.96 52.1999 267.72 52.0599C267.55 51.9599 267.46 51.7699 267.48 51.5799C267.49 51.5099 267.51 51.4399 267.55 51.3699C268.18 50.3099 268.58 49.1299 268.7 47.9099C268.73 47.6299 268.74 47.3399 268.74 47.0599C268.74 44.8099 267.87 42.6999 266.28 41.1099C264.69 39.5199 262.58 38.6499 260.34 38.6399C258.09 38.6399 255.98 39.5099 254.39 41.0999C253.01 42.4799 252.16 44.2599 251.97 46.1799C251.94 46.4699 251.93 46.7499 251.93 47.0399C251.93 49.2899 252.8 51.3999 254.39 52.9899C254.4 52.9999 254.42 53.0199 254.43 53.0299L254.44 53.0399C254.99 53.5799 255.6 53.9399 256.25 54.2999C257.46 54.9699 258.81 55.2499 260.23 55.2499C260.26 55.2499 259.81 55.2499 259.81 55.2499V55.4199C260.81 55.4199 261.27 55.3699 261.85 55.2499C262.12 55.1899 262.51 55.3699 262.57 55.6399C262.58 55.6899 262.65 55.7499 262.64 55.7999C262.62 56.0099 262.5 56.1899 262.28 56.2399C262.25 56.2499 262.24 56.2499 262.21 56.2599C261.58 56.3899 260.95 56.4499 260.31 56.4499C259.99 56.4499 259.67 56.4299 259.36 56.3999C254.62 55.9199 250.91 51.8999 250.92 47.0399C250.92 46.7199 250.94 46.3899 250.97 46.0699C251.21 43.9399 252.16 41.9499 253.7 40.4099ZM262.34 50.3699C261.64 50.7899 260.83 50.9699 260.03 50.8799C259.85 50.8599 259.66 50.8299 259.48 50.7799C258.5 50.5299 257.68 49.9199 257.16 49.0499C256.64 48.1799 256.5 47.1699 256.74 46.1899C257.25 44.1699 259.31 42.9499 261.33 43.4599C263.35 43.9699 264.58 46.0299 264.06 48.0499C263.82 49.0299 263.2 49.8499 262.34 50.3699Z" fill="#FFF0FA"/>
<path d="M258.02 48.54C257.64 47.9 257.53 47.16 257.71 46.44C258.05 45.09 259.34 44.22 260.68 44.36C260.81 44.37 260.95 44.4 261.08 44.43C262.56 44.81 263.47 46.32 263.09 47.81C262.91 48.53 262.46 49.13 261.82 49.51C261.18 49.89 260.44 50 259.72 49.82C259 49.63 258.39 49.18 258.02 48.54Z" fill="#FFF0FA"/>
<path d="M126.77 117.27C124.24 117.27 121.83 115.26 121.83 112.73V39.22C121.83 33.46 126.87 29.27 132.63 29.27H243.33C249.09 29.27 253.83 33.46 253.83 39.22V112.73C253.83 115.26 251.71 117.27 249.18 117.27H126.77Z" fill="white"/>
<path d="M114.55 26.1101H92.7399C92.1599 26.1101 91.6899 25.6401 91.6899 25.0601V13.1601C91.6899 12.5801 92.1599 12.1101 92.7399 12.1101H114.55C115.13 12.1101 115.6 12.5801 115.6 13.1601V25.0601C115.6 25.6401 115.13 26.1101 114.55 26.1101ZM92.7399 12.5601C92.4099 12.5601 92.1399 12.8301 92.1399 13.1601V25.0601C92.1399 25.3901 92.4099 25.6601 92.7399 25.6601H114.55C114.88 25.6601 115.15 25.3901 115.15 25.0601V13.1601C115.15 12.8301 114.88 12.5601 114.55 12.5601H92.7399Z" fill="#F3FFA7"/>
<path d="M115.38 17.04H91.9199C91.7999 17.04 91.6899 16.94 91.6899 16.81V14.99C91.6899 14.87 91.7899 14.76 91.9199 14.76H115.38C115.5 14.76 115.61 14.86 115.61 14.99V16.81C115.6 16.94 115.5 17.04 115.38 17.04ZM92.1399 16.59H115.15V15.22H92.1399V16.59Z" fill="#F3FFA7"/>
<path d="M109.08 23.11C108.16 23.11 107.41 22.36 107.41 21.44C107.41 20.52 108.16 19.77 109.08 19.77C109.52 19.77 109.93 19.94 110.24 20.24C110.28 20.28 110.31 20.34 110.31 20.4C110.31 20.46 110.28 20.52 110.24 20.56C110 20.79 109.87 21.11 109.87 21.44C109.87 21.78 110 22.09 110.25 22.32C110.29 22.36 110.32 22.42 110.32 22.48C110.32 22.54 110.29 22.6 110.25 22.64C109.92 22.95 109.51 23.11 109.08 23.11ZM109.08 20.22C108.41 20.22 107.86 20.77 107.86 21.44C107.86 22.11 108.41 22.66 109.08 22.66C109.32 22.66 109.56 22.59 109.75 22.46C109.53 22.17 109.41 21.82 109.41 21.44C109.41 21.07 109.53 20.71 109.76 20.42C109.56 20.29 109.32 20.22 109.08 20.22Z" fill="#F3FFA7"/>
<path d="M111.08 23.11C110.16 23.11 109.41 22.36 109.41 21.44C109.41 20.52 110.16 19.77 111.08 19.77C112 19.77 112.75 20.52 112.75 21.44C112.75 22.36 112 23.11 111.08 23.11ZM111.08 20.22C110.41 20.22 109.86 20.77 109.86 21.44C109.86 22.11 110.41 22.66 111.08 22.66C111.75 22.66 112.3 22.11 112.3 21.44C112.3 20.77 111.75 20.22 111.08 20.22Z" fill="#F3FFA7"/>
<path d="M102.9 19.7901H93.1499C93.0299 19.7901 92.9199 19.6901 92.9199 19.5601C92.9199 19.4301 93.0199 19.3301 93.1499 19.3301H102.9C103.02 19.3301 103.13 19.4301 103.13 19.5601C103.13 19.6901 103.03 19.7901 102.9 19.7901Z" fill="#F3FFA7"/>
<path d="M102.9 22.5201H93.1499C93.0299 22.5201 92.9199 22.4201 92.9199 22.2901C92.9199 22.1701 93.0199 22.0601 93.1499 22.0601H102.9C103.02 22.0601 103.13 22.1601 103.13 22.2901C103.13 22.4101 103.03 22.5201 102.9 22.5201Z" fill="#F3FFA7"/>
<path d="M94.73 13.8902H93.5C93.38 13.8902 93.27 13.7902 93.27 13.6602C93.27 13.5402 93.37 13.4302 93.5 13.4302H94.73C94.85 13.4302 94.96 13.5302 94.96 13.6602C94.96 13.7902 94.86 13.8902 94.73 13.8902Z" fill="#F3FFA7"/>
<path d="M97.2701 13.8902H96.0401C95.9201 13.8902 95.8101 13.7902 95.8101 13.6602C95.8101 13.5402 95.9101 13.4302 96.0401 13.4302H97.2701C97.3901 13.4302 97.5001 13.5302 97.5001 13.6602C97.4901 13.7902 97.3901 13.8902 97.2701 13.8902Z" fill="#F3FFA7"/>
<path d="M99.7999 13.8902H98.5699C98.4499 13.8902 98.3398 13.7902 98.3398 13.6602C98.3398 13.5402 98.4399 13.4302 98.5699 13.4302H99.7999C99.9199 13.4302 100.03 13.5302 100.03 13.6602C100.03 13.7902 99.9299 13.8902 99.7999 13.8902Z" fill="#F3FFA7"/>
<path d="M91.9099 22.6201H89.1799C88.5999 22.6201 88.1299 22.1501 88.1299 21.5701V9.67012C88.1299 9.09012 88.5999 8.62012 89.1799 8.62012H110.99C111.57 8.62012 112.04 9.09012 112.04 9.67012V12.3301C112.04 12.4501 111.94 12.5601 111.81 12.5601H92.7299C92.3999 12.5601 92.1299 12.8301 92.1299 13.1601V22.3901C92.1399 22.5201 92.0399 22.6201 91.9099 22.6201ZM89.1899 9.07012C88.8599 9.07012 88.5899 9.34012 88.5899 9.67012V21.5701C88.5899 21.9001 88.8599 22.1701 89.1899 22.1701H91.6899V13.1601C91.6899 12.5801 92.1599 12.1101 92.7399 12.1101H111.6V9.67012C111.6 9.34012 111.33 9.07012 111 9.07012H89.1899Z" fill="#F3FFA7"/>
<path d="M2.16 66.4499C0.970004 66.4499 0 65.4799 0 64.2899C0 63.0999 0.970004 62.1299 2.16 62.1299C3.35 62.1299 4.32 63.0999 4.32 64.2899C4.32 65.4799 3.35 66.4499 2.16 66.4499ZM2.16 62.9199C1.41 62.9199 0.790001 63.5299 0.790001 64.2899C0.790001 65.0399 1.4 65.6599 2.16 65.6599C2.91 65.6599 3.53 65.0499 3.53 64.2899C3.53 63.5299 2.92 62.9199 2.16 62.9199Z" fill="#462682" fill-opacity="0.19"/>
<path d="M91.0599 95.4899C89.8699 95.4899 88.8999 94.5199 88.8999 93.3299C88.8999 92.1399 89.8699 91.1699 91.0599 91.1699C92.2499 91.1699 93.2199 92.1399 93.2199 93.3299C93.2199 94.5199 92.2499 95.4899 91.0599 95.4899ZM91.0599 91.9599C90.3099 91.9599 89.6899 92.5699 89.6899 93.3299C89.6899 94.0799 90.2999 94.6999 91.0599 94.6999C91.8099 94.6999 92.4299 94.0899 92.4299 93.3299C92.4299 92.5699 91.8199 91.9599 91.0599 91.9599Z" fill="#C11A85" fill-opacity="0.21"/>
<path d="M67.7101 117.26C67.4901 117.26 67.3101 117.08 67.3101 116.86V111.4C67.3101 111.18 67.4901 111 67.7101 111C67.9301 111 68.1101 111.18 68.1101 111.4V116.86C68.1101 117.08 67.9301 117.26 67.7101 117.26Z" fill="#C11A85" fill-opacity="0.21"/>
<path d="M70.4401 114.53H64.9801C64.7601 114.53 64.5801 114.35 64.5801 114.13C64.5801 113.91 64.7601 113.73 64.9801 113.73H70.4401C70.6601 113.73 70.8401 113.91 70.8401 114.13C70.8401 114.35 70.6601 114.53 70.4401 114.53Z" fill="#C11A85" fill-opacity="0.21"/>
<path d="M55.4801 37.72C55.2601 37.72 55.0801 37.54 55.0801 37.32V31.86C55.0801 31.64 55.2601 31.46 55.4801 31.46C55.7001 31.46 55.8801 31.64 55.8801 31.86V37.32C55.8801 37.55 55.7001 37.72 55.4801 37.72Z" fill="#462682" fill-opacity="0.19"/>
<path d="M58.2101 34.9899H52.7501C52.5301 34.9899 52.3501 34.8099 52.3501 34.5899C52.3501 34.3699 52.5301 34.1899 52.7501 34.1899H58.2101C58.4301 34.1899 58.6101 34.3699 58.6101 34.5899C58.6101 34.8099 58.4301 34.9899 58.2101 34.9899Z" fill="#462682" fill-opacity="0.19"/>
<path d="M37.38 7.49999C37.16 7.49999 36.98 7.31999 36.98 7.09999V1.63999C36.98 1.41999 37.16 1.23999 37.38 1.23999C37.6 1.23999 37.78 1.41999 37.78 1.63999V7.09999C37.78 7.31999 37.6 7.49999 37.38 7.49999Z" fill="#ADC804" fill-opacity="0.21"/>
<path d="M40.1198 4.75996H34.6598C34.4398 4.75996 34.2598 4.57995 34.2598 4.35995C34.2598 4.13995 34.4398 3.95996 34.6598 3.95996H40.1198C40.3398 3.95996 40.5198 4.13995 40.5198 4.35995C40.5098 4.58995 40.3298 4.75996 40.1198 4.75996Z" fill="#ADC804" fill-opacity="0.21"/>
<path d="M69.1398 96.72H14.4698C13.2998 96.72 12.3398 95.77 12.3398 94.59C12.3398 93.41 13.2898 92.46 14.4698 92.46H69.1398C70.3098 92.46 71.2698 93.41 71.2698 94.59C71.2698 95.77 70.3098 96.72 69.1398 96.72ZM14.4698 93.26C13.7298 93.26 13.1398 93.86 13.1398 94.59C13.1398 95.33 13.7398 95.92 14.4698 95.92H69.1398C69.8798 95.92 70.4698 95.32 70.4698 94.59C70.4698 93.85 69.8698 93.26 69.1398 93.26H14.4698Z" fill="#F3FFA7"/>
<path d="M93.6501 64.2901H73.4401C72.9601 64.2901 72.5801 63.9001 72.5801 63.4301C72.5801 62.9501 72.9701 62.5701 73.4401 62.5701H93.6501C94.1301 62.5701 94.5101 62.9601 94.5101 63.4301C94.5201 63.9001 94.1301 64.2901 93.6501 64.2901Z" fill="#C11A85" fill-opacity="0.21"/>
<path d="M48.82 81.0401H33.36C32.88 81.0401 32.5 80.6501 32.5 80.1801C32.5 79.7001 32.89 79.3201 33.36 79.3201H48.82C49.3 79.3201 49.68 79.7101 49.68 80.1801C49.68 80.6501 49.3 81.0401 48.82 81.0401Z" fill="#ADC804" fill-opacity="0.21"/>
<path d="M40.9399 70.3901C40.7999 70.3901 40.6699 70.2701 40.6699 70.1301V64.3901C40.6699 64.2501 40.7899 64.1301 40.9299 64.1301H46.6399C46.7199 64.1301 46.7899 64.1601 46.8399 64.2201C46.9299 64.3201 46.9299 64.4801 46.8299 64.5801L41.1199 70.3101C41.0699 70.3601 41.0099 70.3901 40.9399 70.3901ZM41.1899 64.6501V69.5101L46.0299 64.6501H41.1899Z" fill="#E4D6FF"/>
<path d="M40.9298 70.39H23.7898C23.6498 70.39 23.5298 70.27 23.5298 70.13V39.05C23.5298 38.91 23.6498 38.79 23.7898 38.79H46.6398C46.7798 38.79 46.8998 38.91 46.8998 39.05V64.39C46.8998 64.53 46.7798 64.65 46.6398 64.65H41.1898V70.13C41.1898 70.28 41.0698 70.39 40.9298 70.39ZM24.0498 69.87H40.6698V64.39C40.6698 64.25 40.7898 64.13 40.9298 64.13H46.3798V39.31H24.0498V69.87ZM30.1798 64.43C29.7798 64.43 29.3898 64.23 29.1598 63.86L28.3398 62.49C28.1798 62.22 28.1298 61.9 28.1998 61.59C28.2798 61.2801 28.4698 61.02 28.7398 60.86L38.2998 55.07C38.3498 55.04 38.4098 55.03 38.4598 55.03L41.1298 55.31C41.2098 55.32 41.2798 55.36 41.3198 55.43C41.3598 55.5 41.3698 55.58 41.3498 55.65L40.4598 58.31C40.4398 58.37 40.3998 58.42 40.3498 58.45L31.6098 63.75C31.5998 63.76 31.5898 63.76 31.5798 63.76L30.7898 64.24C30.5998 64.38 30.3898 64.43 30.1798 64.43ZM38.4998 55.57L29.0098 61.31C28.8598 61.4 28.7498 61.55 28.7098 61.72C28.6698 61.89 28.6898 62.07 28.7798 62.22L29.5998 63.59C29.7898 63.9 30.1998 64 30.5098 63.81L31.3198 63.31C31.3298 63.3 31.3398 63.3 31.3498 63.29L39.9898 58.06L40.7398 55.8L38.4998 55.57Z" fill="#E4D6FF"/>
<path d="M40.2196 58.5001C40.1296 58.5001 40.0496 58.4501 39.9996 58.3701L38.2196 55.4301C38.1696 55.3501 38.1696 55.2401 38.2196 55.1601C38.2696 55.0801 38.3696 55.0301 38.4696 55.0401L41.1396 55.3201C41.2196 55.3301 41.2896 55.3701 41.3296 55.4401C41.3696 55.5101 41.3796 55.5901 41.3596 55.6601L40.4696 58.3201C40.4396 58.4201 40.3496 58.4801 40.2496 58.5001C40.2396 58.5001 40.2296 58.5001 40.2196 58.5001ZM38.9296 55.6201L40.1496 57.6301L40.7596 55.8101L38.9296 55.6201Z" fill="#E4D6FF"/>
<path d="M31.4798 63.8C31.3898 63.8 31.2998 63.75 31.2498 63.68L30.3598 62.21C30.3098 62.13 30.3098 62.03 30.3598 61.95C30.3898 61.9 30.4298 61.86 30.4798 61.84L39.1998 56.56C39.2598 56.52 39.3298 56.51 39.3998 56.53C39.4698 56.55 39.5198 56.59 39.5598 56.65L40.4498 58.12C40.5198 58.24 40.4798 58.4 40.3598 58.48L31.6198 63.78C31.5698 63.79 31.5198 63.8 31.4798 63.8ZM30.9398 62.16L31.5598 63.18L39.8598 58.15L39.2398 57.12L30.9398 62.16Z" fill="#E4D6FF"/>
<path d="M30.5798 62.33C30.4898 62.33 30.3998 62.28 30.3498 62.2L29.4698 60.74C29.4398 60.69 29.4198 60.63 29.4298 60.56C29.4398 60.48 29.4799 60.41 29.5499 60.37L38.2999 55.07C38.4199 54.99 38.5799 55.03 38.6599 55.16L39.5499 56.63C39.5899 56.69 39.5998 56.76 39.5798 56.83C39.5598 56.9 39.5198 56.95 39.4598 56.99L30.7098 62.29C30.6798 62.32 30.6298 62.33 30.5798 62.33ZM30.0499 60.69L30.6698 61.72L38.9698 56.69L38.3498 55.66L30.0499 60.69Z" fill="#E4D6FF"/>
<path d="M30.1798 64.4301C29.7798 64.4301 29.3898 64.2301 29.1598 63.8601L28.3398 62.4901C28.1798 62.2201 28.1298 61.9001 28.1998 61.5901C28.2798 61.2801 28.4698 61.0201 28.7398 60.8601L29.5498 60.3701C29.6498 60.3101 29.7898 60.3201 29.8698 60.4101C29.8798 60.4201 29.8998 60.4401 29.9098 60.4601L31.6898 63.3901C31.7598 63.5101 31.7298 63.6701 31.6098 63.7501L30.7898 64.2501C30.5998 64.3801 30.3898 64.4301 30.1798 64.4301ZM29.5998 60.9601L29.0098 61.3201C28.8598 61.4101 28.7498 61.5601 28.7098 61.7301C28.6698 61.9001 28.6898 62.0801 28.7798 62.2301L29.5998 63.6001C29.7898 63.9101 30.1998 64.0101 30.5098 63.8201L31.0998 63.4601L30.4098 62.3201L29.5998 60.9601Z" fill="#E4D6FF"/>
<path d="M40.9298 70.39H23.7898C23.6498 70.39 23.5298 70.27 23.5298 70.13V39.05C23.5298 38.91 23.6498 38.79 23.7898 38.79H46.6398C46.7798 38.79 46.8998 38.91 46.8998 39.05V64.39C46.8998 64.53 46.7798 64.65 46.6398 64.65H41.1898V70.13C41.1898 70.28 41.0698 70.39 40.9298 70.39ZM24.0498 69.87H40.6698V64.39C40.6698 64.25 40.7898 64.13 40.9298 64.13H46.3798V39.31H24.0498V69.87Z" fill="#E4D6FF"/>
<path d="M40.9396 70.39C40.8696 70.39 40.8096 70.36 40.7596 70.31C40.6596 70.21 40.6596 70.04 40.7596 69.94L46.4696 64.21C46.5696 64.11 46.7396 64.11 46.8396 64.21C46.9396 64.31 46.9396 64.48 46.8396 64.58L41.1296 70.31C41.0696 70.37 40.9996 70.39 40.9396 70.39Z" fill="#E4D6FF"/>
<path d="M42.7696 45.04H27.3796C27.2396 45.04 27.1196 44.92 27.1196 44.78C27.1196 44.64 27.2396 44.52 27.3796 44.52H42.7696C42.9096 44.52 43.0296 44.64 43.0296 44.78C43.0296 44.92 42.9196 45.04 42.7696 45.04Z" fill="#E4D6FF"/>
<path d="M42.7696 49.1702H27.3796C27.2396 49.1702 27.1196 49.0501 27.1196 48.9101C27.1196 48.7701 27.2396 48.6501 27.3796 48.6501H42.7696C42.9096 48.6501 43.0296 48.7701 43.0296 48.9101C43.0296 49.0501 42.9196 49.1702 42.7696 49.1702Z" fill="#E4D6FF"/>
<path d="M42.7696 53.29H27.3796C27.2396 53.29 27.1196 53.17 27.1196 53.03C27.1196 52.89 27.2396 52.77 27.3796 52.77H42.7696C42.9096 52.77 43.0296 52.89 43.0296 53.03C43.0296 53.17 42.9196 53.29 42.7696 53.29Z" fill="#E4D6FF"/>
<path d="M30.1798 64.43C29.7798 64.43 29.3898 64.23 29.1598 63.86L28.3398 62.49C28.1798 62.22 28.1298 61.9 28.1998 61.59C28.2798 61.28 28.4698 61.02 28.7398 60.86L38.2998 55.07C38.3498 55.04 38.4098 55.03 38.4598 55.03L41.1298 55.31C41.2098 55.32 41.2798 55.36 41.3198 55.43C41.3598 55.5 41.3698 55.58 41.3498 55.65L40.4598 58.31C40.4398 58.37 40.3998 58.42 40.3498 58.45L31.6098 63.75C31.5998 63.76 31.5898 63.76 31.5798 63.76L30.7898 64.24C30.5998 64.38 30.3898 64.43 30.1798 64.43ZM38.4998 55.57L29.0098 61.31C28.8598 61.4 28.7498 61.55 28.7098 61.72C28.6698 61.89 28.6898 62.07 28.7798 62.22L29.5998 63.59C29.7898 63.9 30.1998 64 30.5098 63.81L31.3198 63.31C31.3298 63.3 31.3398 63.3 31.3498 63.29L39.9898 58.06L40.7398 55.8L38.4998 55.57Z" fill="#E4D6FF"/>
<path d="M31.48 63.8001C31.41 63.8001 31.36 63.7801 31.31 63.7401C31.29 63.7201 31.27 63.7002 31.25 63.6802L29.47 60.7401C29.4 60.6201 29.44 60.4601 29.56 60.3801C29.68 60.3101 29.84 60.3501 29.92 60.4701L31.68 63.3801C31.72 63.4201 31.74 63.4802 31.74 63.5402C31.74 63.6802 31.62 63.8001 31.48 63.8001Z" fill="#E4D6FF"/>
<path d="M40.2199 58.4999C40.1299 58.4999 40.0499 58.46 39.9999 58.37L38.2199 55.43C38.1499 55.31 38.1799 55.15 38.3099 55.07C38.4299 55 38.5899 55.03 38.6699 55.16L40.4499 58.1C40.5199 58.22 40.4799 58.38 40.3599 58.46C40.3099 58.49 40.2699 58.4999 40.2199 58.4999Z" fill="#E4D6FF"/>
<path d="M30.58 62.33C30.49 62.33 30.41 62.29 30.36 62.2C30.29 62.08 30.32 61.92 30.45 61.84L39.2 56.54C39.32 56.46 39.48 56.5 39.56 56.63C39.63 56.75 39.6 56.91 39.47 56.99L30.72 62.29C30.68 62.32 30.63 62.33 30.58 62.33Z" fill="#E4D6FF"/>
<path d="M273.3 77.8898C272.11 77.8898 271.14 76.9198 271.14 75.7298C271.14 74.5398 272.11 73.5698 273.3 73.5698C274.49 73.5698 275.46 74.5398 275.46 75.7298C275.46 76.9198 274.49 77.8898 273.3 77.8898ZM273.3 74.3598C272.55 74.3598 271.93 74.9698 271.93 75.7298C271.93 76.4798 272.54 77.0998 273.3 77.0998C274.05 77.0998 274.67 76.4898 274.67 75.7298C274.67 74.9798 274.06 74.3598 273.3 74.3598Z" fill="#ADC804" fill-opacity="0.38"/>
<path d="M362.2 106.93C361.01 106.93 360.04 105.96 360.04 104.77C360.04 103.58 361.01 102.61 362.2 102.61C363.39 102.61 364.36 103.58 364.36 104.77C364.36 105.96 363.39 106.93 362.2 106.93ZM362.2 103.4C361.45 103.4 360.83 104.01 360.83 104.77C360.83 105.52 361.44 106.14 362.2 106.14C362.95 106.14 363.57 105.53 363.57 104.77C363.57 104.01 362.95 103.4 362.2 103.4Z" fill="#462682" fill-opacity="0.21"/>
<path d="M338.85 128.7C338.63 128.7 338.45 128.52 338.45 128.3V122.84C338.45 122.62 338.63 122.44 338.85 122.44C339.07 122.44 339.25 122.62 339.25 122.84V128.3C339.25 128.53 339.07 128.7 338.85 128.7Z" fill="#ADC804" fill-opacity="0.38"/>
<path d="M341.58 125.97H336.12C335.9 125.97 335.72 125.79 335.72 125.57C335.72 125.35 335.9 125.17 336.12 125.17H341.58C341.8 125.17 341.98 125.35 341.98 125.57C341.98 125.79 341.8 125.97 341.58 125.97Z" fill="#ADC804" fill-opacity="0.38"/>
<path d="M326.62 49.1699C326.4 49.1699 326.22 48.9899 326.22 48.7699V43.3099C326.22 43.0899 326.4 42.9099 326.62 42.9099C326.84 42.9099 327.02 43.0899 327.02 43.3099V48.7699C327.01 48.9899 326.84 49.1699 326.62 49.1699Z" fill="#ADC804" fill-opacity="0.38"/>
<path d="M329.35 46.4299H323.89C323.67 46.4299 323.49 46.2499 323.49 46.0299C323.49 45.8099 323.67 45.6299 323.89 45.6299H329.35C329.57 45.6299 329.75 45.8099 329.75 46.0299C329.75 46.2599 329.57 46.4299 329.35 46.4299Z" fill="#ADC804" fill-opacity="0.38"/>
<path d="M308.52 18.9399C308.3 18.9399 308.12 18.7599 308.12 18.5399V13.0799C308.12 12.8599 308.3 12.6799 308.52 12.6799C308.74 12.6799 308.92 12.8599 308.92 13.0799V18.5399C308.92 18.7599 308.74 18.9399 308.52 18.9399Z" fill="#462682" fill-opacity="0.21"/>
<path d="M311.25 16.2099H305.79C305.57 16.2099 305.39 16.0299 305.39 15.8099C305.39 15.5899 305.57 15.4099 305.79 15.4099H311.25C311.47 15.4099 311.65 15.5899 311.65 15.8099C311.65 16.0299 311.47 16.2099 311.25 16.2099Z" fill="#462682" fill-opacity="0.21"/>
<path d="M340.28 108.16H285.61C284.44 108.16 283.48 107.21 283.48 106.03C283.48 104.85 284.43 103.9 285.61 103.9H340.28C341.45 103.9 342.41 104.85 342.41 106.03C342.41 107.21 341.45 108.16 340.28 108.16ZM285.61 104.71C284.87 104.71 284.28 105.31 284.28 106.04C284.28 106.77 284.88 107.37 285.61 107.37H340.28C341.02 107.37 341.61 106.77 341.61 106.04C341.61 105.31 341.01 104.71 340.28 104.71H285.61Z" fill="#ADC804" fill-opacity="0.38"/>
<path d="M364.79 75.73H344.58C344.1 75.73 343.72 75.34 343.72 74.87C343.72 74.39 344.11 74.01 344.58 74.01H364.79C365.27 74.01 365.65 74.4 365.65 74.87C365.66 75.35 365.27 75.73 364.79 75.73Z" fill="#C11A85" fill-opacity="0.15"/>
<path d="M319.96 92.48H304.5C304.02 92.48 303.64 92.09 303.64 91.62C303.64 91.14 304.03 90.76 304.5 90.76H319.96C320.44 90.76 320.82 91.15 320.82 91.62C320.82 92.1 320.44 92.48 319.96 92.48Z" fill="#C11A85" fill-opacity="0.15"/>
<path d="M312.27 149.77H287.25C286.59 149.77 286.06 149.23 286.06 148.58V131.71C286.06 131.05 286.59 130.52 287.25 130.52H312.27C312.93 130.52 313.46 131.06 313.46 131.71V148.58C313.46 149.24 312.93 149.77 312.27 149.77ZM287.25 130.96C286.84 130.96 286.51 131.29 286.51 131.7V148.57C286.51 148.98 286.84 149.31 287.25 149.31H312.27C312.68 149.31 313.01 148.98 313.01 148.57V131.7C313.01 131.29 312.68 130.96 312.27 130.96H287.25Z" fill="#FFDFF4"/>
<path d="M313.24 134.41H286.29C286.17 134.41 286.06 134.31 286.06 134.18C286.06 134.06 286.16 133.95 286.29 133.95H313.24C313.36 133.95 313.47 134.05 313.47 134.18C313.46 134.31 313.36 134.41 313.24 134.41Z" fill="#FFDFF4"/>
<path d="M288.85 133.4H287.42C287.3 133.4 287.19 133.3 287.19 133.17V131.74C287.19 131.62 287.29 131.51 287.42 131.51H288.85C288.97 131.51 289.08 131.61 289.08 131.74V133.17C289.08 133.3 288.97 133.4 288.85 133.4ZM287.65 132.95H288.63V131.97H287.65V132.95Z" fill="#FFDFF4"/>
<path d="M291.62 133.4H290.2C290.08 133.4 289.97 133.3 289.97 133.17V131.74C289.97 131.62 290.07 131.51 290.2 131.51H291.62C291.74 131.51 291.85 131.61 291.85 131.74V133.17C291.85 133.3 291.75 133.4 291.62 133.4ZM290.42 132.95H291.39V131.97H290.42V132.95Z" fill="#FFDFF4"/>
<path d="M294.4 133.4H292.97C292.85 133.4 292.74 133.3 292.74 133.17V131.74C292.74 131.62 292.84 131.51 292.97 131.51H294.4C294.52 131.51 294.63 131.61 294.63 131.74V133.17C294.62 133.3 294.52 133.4 294.4 133.4ZM293.2 132.95H294.17V131.97H293.2V132.95Z" fill="#FFDFF4"/>
<path d="M296.28 146.66C296.23 146.66 296.18 146.64 296.14 146.61L290.49 141.91C290.44 141.87 290.41 141.8 290.41 141.74C290.41 141.67 290.44 141.61 290.49 141.57L295.84 137.12C295.94 137.04 296.08 137.05 296.16 137.15C296.24 137.25 296.23 137.39 296.13 137.47L290.99 141.74L296.43 146.27C296.53 146.35 296.54 146.49 296.46 146.59C296.41 146.63 296.35 146.66 296.28 146.66Z" fill="#FFDFF4"/>
<path d="M303.24 146.66C303.18 146.66 303.11 146.63 303.07 146.58C302.99 146.48 303 146.34 303.1 146.26L308.54 141.73L303.4 137.46C303.3 137.38 303.29 137.24 303.37 137.14C303.45 137.04 303.59 137.03 303.69 137.11L309.04 141.56C309.09 141.6 309.12 141.67 309.12 141.73C309.12 141.8 309.09 141.86 309.04 141.9L303.39 146.6C303.34 146.64 303.29 146.66 303.24 146.66Z" fill="#FFDFF4"/>
<path d="M296.94 147.67C296.91 147.67 296.87 147.66 296.84 147.65C296.73 147.59 296.68 147.46 296.74 147.35L302.34 136.18C302.4 136.07 302.53 136.02 302.64 136.08C302.75 136.14 302.8 136.27 302.74 136.38L297.14 147.55C297.1 147.63 297.02 147.67 296.94 147.67Z" fill="#FFDFF4"/>
<path d="M243.33 32H132.63C128.77 32 125.83 35.09 125.83 38.95V112.46C125.83 113.09 126.14 114 126.77 114H249.18C249.81 114 250.83 113.1 250.83 112.46V38.95C250.83 35.09 247.19 32 243.33 32ZM247.83 112H127.83V38.95C127.83 36.35 130.03 35 132.63 35H243.33C245.93 35 247.83 36.35 247.83 38.95V112Z" fill="#E8DCFF"/>
<path d="M241.65 106.35H134.31C133.68 106.35 133.16 105.84 133.16 105.2V40.88C133.16 40.25 133.67 39.73 134.31 39.73H241.65C242.28 39.73 242.8 40.24 242.8 40.88V105.2C242.8 105.84 242.29 106.35 241.65 106.35Z" fill="#E8DCFF"/>
<path d="M177.25 74.75C176.486 74.75 175.837 74.4823 175.303 73.947C174.768 73.4129 174.5 72.7639 174.5 72C174.5 71.2361 174.768 70.5871 175.303 70.053C175.837 69.5177 176.486 69.25 177.25 69.25C178.014 69.25 178.663 69.5177 179.197 70.053C179.732 70.5871 180 71.2361 180 72C180 72.7639 179.732 73.4129 179.197 73.947C178.663 74.4823 178.014 74.75 177.25 74.75ZM177.25 63.75C176.486 63.75 175.837 63.4823 175.303 62.947C174.768 62.4129 174.5 61.7639 174.5 61C174.5 60.2361 174.768 59.5871 175.303 59.053C175.837 58.5177 176.486 58.25 177.25 58.25C178.014 58.25 178.663 58.5177 179.197 59.053C179.732 59.5871 180 60.2361 180 61C180 61.7639 179.732 62.4129 179.197 62.947C178.663 63.4823 178.014 63.75 177.25 63.75ZM177.25 85.75C176.486 85.75 175.837 85.4823 175.303 84.947C174.768 84.4129 174.5 83.7639 174.5 83C174.5 82.2361 174.768 81.5871 175.303 81.053C175.837 80.5177 176.486 80.25 177.25 80.25C178.014 80.25 178.663 80.5177 179.197 81.053C179.732 81.5871 180 82.2361 180 83C180 83.7639 179.732 84.4129 179.197 84.947C178.663 85.4823 178.014 85.75 177.25 85.75ZM185.5 84.8333C184.981 84.8333 184.545 84.6573 184.195 84.3053C183.843 83.9546 183.667 83.5194 183.667 83C183.667 82.4806 183.843 82.0454 184.195 81.6947C184.545 81.3427 184.981 81.1667 185.5 81.1667H205.667C206.186 81.1667 206.621 81.3427 206.972 81.6947C207.324 82.0454 207.5 82.4806 207.5 83C207.5 83.5194 207.324 83.9546 206.972 84.3053C206.621 84.6573 206.186 84.8333 205.667 84.8333H185.5ZM185.5 73.8333C184.981 73.8333 184.545 73.6573 184.195 73.3053C183.843 72.9546 183.667 72.5194 183.667 72C183.667 71.4806 183.843 71.0448 184.195 70.6928C184.545 70.3421 184.981 70.1667 185.5 70.1667H205.667C206.186 70.1667 206.621 70.3421 206.972 70.6928C207.324 71.0448 207.5 71.4806 207.5 72C207.5 72.5194 207.324 72.9546 206.972 73.3053C206.621 73.6573 206.186 73.8333 205.667 73.8333H185.5ZM185.5 62.8333C184.981 62.8333 184.545 62.6579 184.195 62.3072C183.843 61.9552 183.667 61.5194 183.667 61C183.667 60.4806 183.843 60.0448 184.195 59.6928C184.545 59.3421 184.981 59.1667 185.5 59.1667H205.667C206.186 59.1667 206.621 59.3421 206.972 59.6928C207.324 60.0448 207.5 60.4806 207.5 61C207.5 61.5194 207.324 61.9552 206.972 62.3072C206.621 62.6579 206.186 62.8333 205.667 62.8333H185.5Z" fill="white"/>
<path d="M249.19 125.13H126.77C122.06 125.13 118.23 122.09 118.23 118.36V112.74C118.23 112.11 118.74 111.59 119.38 111.59H256.58C257.21 111.59 257.73 112.1 257.73 112.74V118.36C257.72 122.09 253.9 125.13 249.19 125.13ZM120.53 113.88V118.36C120.53 120.79 123.39 122.84 126.78 122.84H249.2C252.58 122.84 255.44 120.79 255.44 118.36V113.88H120.53Z" fill="#E8DCFF"/>
<path d="M187.98 121.96C186 121.96 184.38 120.34 184.38 118.35C184.38 116.37 186 114.75 187.98 114.75C189.97 114.75 191.59 116.37 191.59 118.35C191.58 120.34 189.96 121.96 187.98 121.96ZM187.98 117.05C187.26 117.05 186.67 117.64 186.67 118.36C186.67 119.08 187.26 119.67 187.98 119.67C188.7 119.67 189.29 119.08 189.29 118.36C189.29 117.64 188.7 117.05 187.98 117.05Z" fill="#F2F2F2"/>
<path d="M150.03 95.5801C144.1 89.2201 134.1 88.88 127.75 94.81C121.39 100.74 121.05 110.74 126.98 117.09C132.91 123.45 142.91 123.79 149.26 117.86C155.62 111.93 155.96 101.93 150.03 95.5801ZM146.51 114.9C141.78 119.31 134.35 119.05 129.94 114.33C125.53 109.6 125.79 102.17 130.51 97.7601C135.24 93.3501 142.67 93.6101 147.08 98.3301C151.49 103.06 151.23 110.49 146.51 114.9Z" fill="white"/>
<path d="M151.194 106.334C151.282 99.4143 145.744 93.7337 138.825 93.6458C131.905 93.5579 126.225 99.096 126.137 106.015C126.049 112.935 131.587 118.615 138.506 118.703C145.426 118.791 151.106 113.253 151.194 106.334Z" fill="#FCFCFC"/>
<path opacity="0.35" d="M130.58 106.96C131.292 106.96 131.87 106.383 131.87 105.67C131.87 104.958 131.292 104.38 130.58 104.38C129.868 104.38 129.29 104.958 129.29 105.67C129.29 106.383 129.868 106.96 130.58 106.96Z" fill="white"/>
<path d="M149.38 95.7302C143.61 89.8202 134.14 89.6901 128.23 95.4601C122.32 101.23 122.19 110.7 127.96 116.61C133.73 122.52 143.2 122.65 149.11 116.88C155.03 111.11 155.15 101.64 149.38 95.7302ZM129.7 114.92C124.87 109.96 124.97 102.03 129.93 97.2001C134.89 92.3701 142.82 92.4702 147.65 97.4302C152.48 102.39 152.38 110.32 147.42 115.15C142.46 119.98 134.53 119.88 129.7 114.92Z" fill="#FFE1F4"/>
<path d="M110.14 133.98C108.73 132.53 108.76 130.21 110.21 128.8L121.02 118.26L126.13 123.5L115.32 134.04C113.87 135.46 111.56 135.43 110.14 133.98Z" fill="#FFE1F4"/>
<path d="M124.14 122.86L121.62 120.28C120.57 119.2 120.59 117.46 121.67 116.41L122.58 115.53C123.66 114.48 125.4 114.5 126.45 115.58L128.97 118.16C130.02 119.24 130 120.98 128.92 122.03L128.01 122.91C126.93 123.96 125.19 123.94 124.14 122.86Z" fill="#FFBDE7"/>
</svg>
