<svg width="42" height="42" viewBox="0 0 42 42" fill="none" xmlns="http://www.w3.org/2000/svg">
<rect width="42" height="42" rx="5" fill="#7A90FA"/>
<g clip-path="url(#clip0_4422_420)">
<path d="M21 19.4438C18.4808 19.4438 16.4313 21.4934 16.4313 24.0126C16.4313 26.5318 18.4808 28.5814 21 28.5814C23.5192 28.5814 25.5688 26.5318 25.5688 24.0126C25.5688 21.4934 23.5192 19.4438 21 19.4438ZM23.0948 25.113C23.3693 25.3875 23.3694 25.8328 23.0948 26.1074C22.9575 26.2446 22.7775 26.3133 22.5976 26.3133C22.4177 26.3133 22.2377 26.2446 22.1004 26.1074L20.9999 25.0069L19.8996 26.1074C19.7623 26.2446 19.5823 26.3133 19.4024 26.3133C19.2224 26.3133 19.0424 26.2446 18.9052 26.1074C18.6306 25.8328 18.6306 25.3876 18.9052 25.113L20.0056 24.0126L18.9052 22.9121C18.6306 22.6376 18.6306 22.1924 18.9052 21.9178C19.1797 21.6432 19.625 21.6432 19.8996 21.9178L20.9999 23.0182L22.1004 21.9178C22.375 21.6432 22.8202 21.6432 23.0948 21.9178C23.3694 22.1923 23.3693 22.6375 23.0948 22.9121L21.9943 24.0126L23.0948 25.113Z" fill="white"/>
<path d="M25.8952 16.4312C24.4694 16.4312 23.3093 15.2712 23.3093 13.8453V9H13.8452C12.4193 9 11.2593 10.1601 11.2593 11.586V30.414C11.2593 31.8399 12.4193 33 13.8452 33H28.1546C29.5805 33 30.7406 31.8399 30.7406 30.414V16.4312H25.8952ZM20.9999 29.9875C17.7053 29.9875 15.0249 27.3071 15.0249 24.0125C15.0249 20.7179 17.7053 18.0375 20.9999 18.0375C24.2945 18.0375 26.9749 20.7179 26.9749 24.0125C26.9749 27.3071 24.2945 29.9875 20.9999 29.9875Z" fill="white"/>
<path d="M25.8953 15.0247H30.3288L24.7156 9.41162V13.8451C24.7156 14.4955 25.2448 15.0247 25.8953 15.0247Z" fill="white"/>
</g>
<defs>
<clipPath id="clip0_4422_420">
<rect width="24" height="24" fill="white" transform="translate(9 9)"/>
</clipPath>
</defs>
</svg>
