<svg width="74" height="73" viewBox="0 0 74 73" fill="none" xmlns="http://www.w3.org/2000/svg">
<rect x="0.345703" width="73.0001" height="73" rx="15" fill="#FFE4F6"/>
<g clip-path="url(#clip0_7411_6660)">
<path d="M34.2129 31.9859H35.111V29.8401H34.2129C33.5711 29.8401 33.0488 30.3214 33.0488 30.913C33.0488 31.5046 33.5711 31.9859 34.2129 31.9859Z" fill="#C20C85"/>
<path d="M37.1064 29.6461V32.1574L39.7007 32.6544V29.0743L37.1064 29.6461Z" fill="#C20C85"/>
<path d="M50.1973 47.5702C50.6742 47.1598 50.9727 46.5755 50.9727 45.9268C50.9727 45.0126 50.3805 44.2265 49.5308 43.8749V40.0366L45.0301 37.4973C46.4095 35.8195 47.2292 33.7302 47.2292 31.4676C47.2292 25.9514 42.36 21.4636 36.3749 21.4636C30.3898 21.4636 25.5207 25.9514 25.5207 31.4676C25.5207 33.7316 26.3414 35.8221 27.7224 37.5005L23.2273 40.0366V43.8749C22.3776 44.2265 21.7854 45.0126 21.7854 45.9267C21.7854 46.5755 22.0839 47.1597 22.5608 47.5701C20.7101 48.0215 19.3457 49.5749 19.3457 51.4225V51.9346H29.1045V51.4225C29.1045 49.5749 27.7401 48.0215 25.8894 47.5702C26.3663 47.1598 26.6648 46.5756 26.6648 45.9268C26.6648 45.0127 26.0726 44.2266 25.2229 43.875V41.0673L29.0959 38.8822C30.791 40.2971 32.9719 41.2259 35.3771 41.4289V43.8749C34.5274 44.2265 33.9352 45.0126 33.9352 45.9267C33.9352 46.5755 34.2338 47.1597 34.7106 47.5701C32.8599 48.0214 31.4955 49.5748 31.4955 51.4224V51.9344H41.2543V51.4224C41.2543 49.5748 39.8899 48.0214 38.0393 47.5701C38.5161 47.1597 38.8146 46.5755 38.8146 45.9267C38.8146 45.0126 38.2225 44.2265 37.3727 43.8749V41.4289C39.7796 41.2257 41.9618 40.296 43.6574 38.8794L47.5352 41.0672V43.8749C46.6854 44.2265 46.0933 45.0126 46.0933 45.9267C46.0933 46.5755 46.3918 47.1597 46.8686 47.5701C45.018 48.0214 43.6536 49.5748 43.6536 51.4224V51.9344H53.4124V51.4224C53.4124 49.5749 52.0479 48.0215 50.1973 47.5702ZM41.6965 35.2912H39.7009V34.5331L36.0063 33.8253H35.2108V36.4003H33.2152V33.6757C31.9606 33.2897 31.0533 32.1975 31.0533 30.9131C31.0533 29.3073 32.4708 28.0009 34.213 28.0009H35.9912L39.7009 27.1832V26.5349H41.6965V35.2912Z" fill="#C20C85"/>
</g>
<defs>
<clipPath id="clip0_7411_6660">
<rect width="34.0667" height="31.3982" fill="white" transform="translate(19.3457 21)"/>
</clipPath>
</defs>
</svg>
