<svg width="59" height="100" viewBox="0 0 59 100" fill="none" xmlns="http://www.w3.org/2000/svg">
<path d="M18.6963 83.2443C18.6963 91.2438 29.1731 99.8101 29.1731 99.8101C29.1731 99.8101 39.6498 91.2438 39.6498 83.2443C39.6498 79.2343 37.0177 75.4316 34.3923 72.6343H23.9538C21.3285 75.4316 18.6963 79.2352 18.6963 83.2443Z" fill="#56398E"/>
<path d="M21.6816 80.2237C21.6816 85.9455 29.175 92.0721 29.175 92.0721C29.175 92.0721 36.6683 85.9455 36.6683 80.2237C36.6683 77.3561 34.7857 74.6353 32.9079 72.6352H25.442C23.5643 74.6353 21.6816 77.3552 21.6816 80.2237Z" fill="#704CB4"/>
<path d="M26.1017 75.7483C26.1017 78.0963 29.1764 80.6098 29.1764 80.6098C29.1764 80.6098 32.2511 78.0954 32.2511 75.7483C32.2511 74.5712 31.479 73.4555 30.7078 72.6343H27.644C26.8738 73.4555 26.1017 74.5721 26.1017 75.7483Z" fill="#8869C3"/>
<path d="M48.1851 49.8005L41.7287 62.6116C47.8162 65.1349 51.7572 70.1751 52.7402 75.7519C54.3943 74.3711 55.7795 72.6753 56.7733 70.7036C60.7673 62.7798 56.9215 53.4217 48.1851 49.8005Z" fill="#704CB4"/>
<path d="M1.56336 70.6956C2.55228 72.6682 3.93361 74.3675 5.58474 75.7511C6.58052 70.1769 10.5332 65.1438 16.6266 62.6321L10.1997 49.8094C1.45545 53.4137 -2.41191 62.7646 1.56336 70.6956Z" fill="#704CB4"/>
<path d="M2.15118 71.4697C2.91936 73.1566 4.09859 74.5971 5.57117 75.7581C7.09672 70.902 11.4526 66.4463 17.6471 64.1259L12.6515 53.1601C3.76307 56.4903 -0.938187 64.6873 2.15118 71.4697Z" fill="#56398E"/>
<path d="M56.0741 71.4038C55.3109 73.0925 54.1365 74.5357 52.6669 75.7003C51.1266 70.8478 46.757 66.4027 40.5557 64.0974L45.5179 53.1191C54.4171 56.428 59.1429 64.6135 56.0741 71.4038Z" fill="#56398E"/>
<path d="M41.9095 56.4627C41.9095 42.0661 29.187 26.6499 29.187 26.6499C29.187 26.6499 16.4646 42.0661 16.4646 56.4627C16.4646 63.6784 19.6609 70.523 22.8494 75.5562H35.5257C38.7132 70.523 41.9095 63.6784 41.9095 56.4627Z" fill="#B1B1B1"/>
<path d="M47.5338 21.6487H47.5329V21.59L47.5338 21.6487Z" fill="#1D1D1B"/>
<path d="M29.1762 0C29.1762 0 29.1733 0.00380814 29.1695 0.00856875V0.011425C29.1733 0.00476015 29.1762 0 29.1762 0Z" fill="#ECECEC"/>
<path d="M29.1746 0C29.1746 0 44.0554 23.244 44.0554 44.9506C44.0554 55.8301 40.3165 66.15 36.5875 73.7385H38.7301C43.5374 66.15 48.3563 55.8301 48.3563 44.9506C48.3563 23.244 29.1746 0 29.1746 0Z" fill="#E2E2E2"/>
<path d="M29.1688 0.0106799V0.00801086C28.7931 0.465329 9.99294 23.4611 9.99294 44.9506C9.99294 55.8301 14.8119 66.15 19.6191 73.7385H21.7618C18.0327 66.15 14.2939 55.8301 14.2939 44.9506C14.2949 23.4914 28.8382 0.529389 29.1688 0.0106799Z" fill="#F1F1F1"/>
<path d="M14.2938 44.9506C14.2938 55.8302 18.0326 66.15 21.7617 73.7385H29.1687V0.0106812C28.8371 0.52939 14.2938 23.4914 14.2938 44.9506Z" fill="#EAEAEA"/>
<path d="M29.1764 0C29.1764 0 29.1734 0.00445003 29.1695 0.00978837V73.7376H36.5893C40.3183 66.1491 44.0572 55.8293 44.0572 44.9497C44.0572 23.244 29.1764 0 29.1764 0Z" fill="#D5D5D5"/>
<path d="M33.2431 64.1322C33.2431 56.9628 31.4006 51.1502 29.1275 51.1502C26.8544 51.1502 25.0119 56.9628 25.0119 64.1322C25.0119 71.3016 29.1275 77.1141 29.1275 77.1141C29.1275 77.1141 33.2431 71.3016 33.2431 64.1322Z" fill="#56398E"/>
<path d="M40.3967 17.5266V17.5258H40.4723L40.3967 17.5266Z" fill="#1D1D1B"/>
<path d="M35.847 36.3731C39.5365 33.0271 39.5364 27.6022 35.8469 24.2562C32.1574 20.9102 26.1756 20.9102 22.4861 24.2562C18.7966 27.6022 18.7966 33.0271 22.4861 36.3731C26.1756 39.7191 32.1575 39.7191 35.847 36.3731Z" fill="#B2ADB7"/>
<path d="M35.4398 30.0731C35.7386 26.3546 32.6571 23.1206 28.5569 22.8495C24.4568 22.5785 20.8907 25.3732 20.5918 29.0916C20.2929 32.81 23.3745 36.0441 27.4747 36.3151C31.5748 36.5861 35.1409 33.7915 35.4398 30.0731Z" fill="#D2D2D0"/>
<path d="M37.9931 26.915C36.7785 24.3268 34.2062 22.3196 30.9285 21.7626C30.3369 21.6621 29.7482 21.6131 29.1694 21.6123C26.5313 21.6078 24.062 22.5954 22.2882 24.2476C21.0138 25.4336 20.0985 26.9613 19.7365 28.7114C19.1155 31.7231 20.2859 34.6627 22.5668 36.6263C23.8619 37.7412 25.514 38.541 27.3996 38.8613C27.9941 38.9628 28.5876 39.0117 29.1704 39.0117C31.6839 39.0126 34.0453 38.114 35.7955 36.597C37.1975 35.3816 38.207 33.773 38.5916 31.9117C38.9516 30.1643 38.7073 28.4391 37.9931 26.915ZM36.34 31.5309C36.0928 32.7302 35.5032 33.7943 34.6791 34.652C33.3164 36.0729 31.316 36.9342 29.1694 36.9342C28.726 36.9342 28.2737 36.8968 27.8205 36.8194C26.7943 36.645 25.8613 36.2847 25.0509 35.7838C25.0509 35.7829 25.0499 35.7829 25.0499 35.7829C25.0489 35.7829 25.048 35.782 25.046 35.782C24.5378 35.4661 24.0787 35.096 23.6784 34.6814C22.25 33.2053 21.5573 31.1723 21.987 29.093C22.2617 27.7611 22.9593 26.5983 23.9286 25.6952C25.2795 24.438 27.1602 23.6862 29.1694 23.6898C29.6109 23.6906 30.0573 23.728 30.5066 23.8045C31.5662 23.9851 32.5305 24.3642 33.3586 24.8936C34.4799 25.6071 35.3531 26.5938 35.8838 27.7264C36.4293 28.8866 36.6147 30.199 36.34 31.5309Z" fill="#9C80D1"/>
<path d="M26.1583 28.4569C26.7838 28.08 26.9539 27.3145 26.5382 26.7473C26.1226 26.18 25.2785 26.0258 24.6531 26.4027C24.0276 26.7797 23.8575 27.5451 24.2731 28.1124C24.6888 28.6796 25.5328 28.8339 26.1583 28.4569Z" fill="#F5F5F5"/>
<path d="M26.6499 25.5929C26.7156 25.2761 27.0521 25.0671 27.4014 25.1258C27.7506 25.1854 27.9812 25.4906 27.9164 25.8073C27.8517 26.1241 27.5142 26.3331 27.1649 26.2744C26.8147 26.2157 26.5841 25.9105 26.6499 25.5929Z" fill="#F5F5F5"/>
<path d="M29.1758 0C29.1758 0 31.3528 3.38985 34.0428 8.78958C34.8797 9.18017 35.6518 9.66685 36.3425 10.2354C32.478 4.00198 29.1758 0 29.1758 0Z" fill="#704CB4"/>
<path d="M29.1687 0.00799561C29.0137 0.196617 25.7791 4.15322 22.0079 10.2354C22.6976 9.66684 23.4707 9.18016 24.3075 8.78957C26.9142 3.55978 29.0382 0.214413 29.1687 0.00977679V0.00799561Z" fill="#704CB4"/>
<path d="M29.1764 0C29.1764 0 29.1736 0.00280254 29.1698 0.00840831V0.0102787C29.1745 0.00373866 29.1764 0 29.1764 0Z" fill="#3E30A6"/>
<path d="M24.3087 8.78959C25.7666 8.10984 27.4187 7.72548 29.1699 7.72459V0.00979614C29.0394 0.215322 26.9154 3.55979 24.3087 8.78959Z" fill="#56398E"/>
<path d="M29.1698 0.0107012V7.72549C29.1718 7.72549 29.1737 7.72549 29.1767 7.72549C30.9308 7.72549 32.5849 8.10985 34.0437 8.79049C31.3527 3.39076 29.1767 0.000915527 29.1767 0.000915527C29.1767 0.000915527 29.1747 0.00358339 29.1698 0.0107012Z" fill="#56398E"/>
<path d="M25.0119 64.1321C25.0119 70.9483 28.7312 76.5366 29.0981 77.0714V51.1511C26.8387 51.2009 25.0119 56.993 25.0119 64.1321Z" fill="#9C80D1"/>
</svg>
