<svg width="290" height="251" viewBox="0 0 290 251" fill="none" xmlns="http://www.w3.org/2000/svg">
<rect width="290" height="251" fill="#8569BB"/>
<mask id="mask0_1_3" style="mask-type:alpha" maskUnits="userSpaceOnUse" x="0" y="0" width="290" height="251">
<rect width="290" height="251" fill="#A786E8"/>
</mask>
<g mask="url(#mask0_1_3)">
<path d="M0.421382 33.7104C37.3695 -3.95305 167.13 -1.56512 219.884 17.4397C272.638 36.4445 296 52.4487 296 52.4487V256H0.421382C0.421382 256 -36.5267 71.3738 0.421382 33.7104Z" fill="#A488DA"/>
<path d="M0.421383 49.4846C37.3695 14.155 161.783 29.1457 184.404 76.1156C207.025 123.085 296 49.4846 296 49.4846V258H0.421383C0.421383 258 -36.5267 84.8142 0.421383 49.4846Z" fill="#BDA4EC"/>
<path d="M-5 83.9755C-5 83.9755 28.898 41.471 108.25 90.9771C187.602 140.483 297 83.9755 297 83.9755V267H-5V83.9755Z" fill="#DBC8FF"/>
</g>
<path opacity="0.06" d="M238.615 75.7539C238.615 92.3093 225.195 105.734 208.635 105.734C192.075 105.734 178.655 92.3138 178.655 75.7539C178.655 59.1984 192.08 45.774 208.635 45.774C225.191 45.774 238.615 59.1984 238.615 75.7539Z" fill="white"/>
<path opacity="0.06" d="M232.104 75.7539C232.104 88.7171 221.598 99.2233 208.634 99.2233C195.671 99.2233 185.165 88.7171 185.165 75.7539C185.165 62.7907 195.671 52.2845 208.634 52.2845C221.598 52.2845 232.104 62.7952 232.104 75.7539Z" fill="white"/>
<path d="M226.906 75.5499C226.906 85.6393 218.723 93.8216 208.634 93.8216C198.54 93.8216 190.362 85.6393 190.362 75.5499C190.362 65.4605 198.544 57.2782 208.634 57.2782C218.723 57.2782 226.906 65.4605 226.906 75.5499Z" fill="url(#paint0_linear_1_3)"/>
<path opacity="0.15" d="M210.781 89.4355C208.111 90.9656 205.016 91.8393 201.721 91.8393C201.215 91.8393 200.718 91.8171 200.226 91.7772C202.745 93.0855 205.601 93.8261 208.635 93.8261C210.794 93.8261 212.861 93.4491 214.781 92.7662C213.132 92.092 211.735 90.9212 210.781 89.4355Z" fill="#230753"/>
<path opacity="0.15" d="M225.895 81.5503C226.547 79.6699 226.906 77.6521 226.906 75.5499C226.906 65.9617 219.522 58.0986 210.129 57.3403C215.988 60.3826 219.992 66.5072 219.992 73.5631C219.992 74.5432 219.912 75.51 219.766 76.4502C222.542 77.04 224.831 78.9825 225.895 81.5503Z" fill="#230753"/>
<path d="M219.571 77.4791C219.061 77.3682 218.533 77.3106 217.987 77.3106C213.841 77.3106 210.47 80.6811 210.47 84.8277C210.47 86.3267 210.909 87.7192 211.668 88.8945C212.71 90.5088 214.355 91.7018 216.284 92.1497C220.271 90.3092 223.487 87.0718 225.292 83.0626C224.622 80.2731 222.387 78.0822 219.571 77.4791Z" fill="#D0D0D0"/>
<path d="M212.843 90.287C213.792 91.1829 214.972 91.8437 216.289 92.1497C216.369 92.1142 216.449 92.0698 216.528 92.0344C216.417 92.0166 216.307 92.0033 216.2 91.9811C214.932 91.7062 213.783 91.1119 212.843 90.287Z" fill="#D0D0D0"/>
<path opacity="0.15" d="M221.833 78.3128C221.86 78.3483 221.882 78.3838 221.909 78.4193C222.197 78.5967 222.477 78.7962 222.738 79.0091C222.45 78.7563 222.153 78.5213 221.833 78.3128Z" fill="#230753"/>
<path opacity="0.15" d="M212.018 89.3779C211.983 89.3557 211.943 89.3379 211.908 89.3158C212.187 89.6661 212.502 89.9899 212.839 90.287C212.546 90.0076 212.267 89.706 212.018 89.3779Z" fill="#230753"/>
<path opacity="0.15" d="M225.297 83.0626C225.12 82.0647 224.681 81.3419 224.149 80.5214C223.772 79.936 223.257 79.4615 222.738 79.0091C222.477 78.7918 222.197 78.5966 221.909 78.4193C222.033 78.5789 222.153 78.743 222.264 78.9115C223.022 80.0823 223.461 81.4793 223.461 82.9783C223.461 87.1249 220.086 90.4955 215.944 90.4955C215.403 90.4955 214.871 90.4378 214.361 90.3269C213.518 90.1451 212.733 89.8213 212.019 89.3823C212.268 89.706 212.543 90.0076 212.84 90.2915C213.78 91.1163 214.929 91.7106 216.197 91.9856C216.303 92.0077 216.414 92.0211 216.525 92.0388C220.317 90.2116 223.506 86.8721 225.297 83.0626Z" fill="#230753"/>
<path d="M219.459 65.9262C219.459 68.0638 217.73 69.7934 215.592 69.7934C213.455 69.7934 211.725 68.0638 211.725 65.9262C211.725 63.7886 213.455 62.059 215.592 62.059C217.725 62.059 219.459 63.7886 219.459 65.9262Z" fill="#D0D0D0"/>
<path opacity="0.15" d="M217.699 62.5025C218.142 63.1322 218.409 63.8995 218.409 64.7288C218.409 66.8664 216.679 68.596 214.541 68.596C213.889 68.596 213.277 68.4319 212.736 68.1481C213.437 69.1371 214.59 69.789 215.894 69.789C218.032 69.789 219.761 68.0594 219.761 65.9218C219.761 64.4405 218.927 63.1544 217.699 62.5025Z" fill="#230753"/>
<path d="M215.592 70.3123C213.171 70.3123 211.202 68.3432 211.202 65.9218C211.202 63.5003 213.171 61.5312 215.592 61.5312C218.014 61.5312 219.983 63.5003 219.983 65.9218C219.978 68.3432 218.009 70.3123 215.592 70.3123ZM215.592 62.5779C213.747 62.5779 212.248 64.0769 212.248 65.9218C212.248 67.7667 213.747 69.2657 215.592 69.2657C217.437 69.2657 218.941 67.7667 218.941 65.9218C218.936 64.0813 217.437 62.5779 215.592 62.5779Z" fill="#E2E2E2"/>
<path d="M205.543 75.8869C206.346 75.8869 206.997 75.2357 206.997 74.4323C206.997 73.6289 206.346 72.9777 205.543 72.9777C204.739 72.9777 204.088 73.6289 204.088 74.4323C204.088 75.2357 204.739 75.8869 205.543 75.8869Z" fill="#D0D0D0"/>
<path opacity="0.15" d="M206.51 73.3502C206.572 73.5143 206.612 73.6917 206.612 73.878C206.612 74.6807 205.96 75.3326 205.158 75.3326C204.785 75.3326 204.448 75.1907 204.191 74.9601C204.404 75.5011 204.927 75.887 205.543 75.887C206.346 75.887 206.998 75.235 206.998 74.4323C206.998 74.0021 206.807 73.6163 206.51 73.3502Z" fill="#230753"/>
<path d="M197.045 70.0861C199.822 70.0861 202.07 67.8377 202.07 65.0614C202.07 62.8262 200.611 60.937 198.597 60.2806C196.012 61.9836 193.883 64.3252 192.442 67.0793C193.218 68.8488 194.987 70.0861 197.045 70.0861Z" fill="#D0D0D0"/>
<path opacity="0.15" d="M200.056 61.0389C200.681 61.8771 201.054 62.9149 201.054 64.0414C201.054 66.8176 198.805 69.0661 196.025 69.0661C194.898 69.0661 193.856 68.6936 193.018 68.0638C193.936 69.2878 195.395 70.0817 197.04 70.0817C199.816 70.0817 202.065 67.8332 202.065 65.0569C202.069 63.416 201.28 61.957 200.056 61.0389Z" fill="#230753"/>
<path d="M203.579 83.0715C203.579 84.5971 202.341 85.8344 200.816 85.8344C199.29 85.8344 198.053 84.5971 198.053 83.0715C198.053 81.5459 199.29 80.3085 200.816 80.3085C202.341 80.3085 203.579 81.5459 203.579 83.0715Z" fill="#D0D0D0"/>
<path opacity="0.15" d="M202.34 80.7698C202.628 81.2088 202.801 81.7321 202.801 82.2954C202.801 83.821 201.563 85.0583 200.038 85.0583C199.475 85.0583 198.947 84.8898 198.512 84.5971C199.009 85.3421 199.852 85.8344 200.814 85.8344C202.34 85.8344 203.577 84.5971 203.577 83.0715C203.577 82.1091 203.085 81.2665 202.34 80.7698Z" fill="#230753"/>
<g filter="url(#filter0_d_1_3)">
<path d="M244.791 23L246.276 27.1459H251.083L247.194 29.7082L248.68 33.8541L244.791 31.2918L240.902 33.8541L242.387 29.7082L238.499 27.1459H243.306L244.791 23Z" fill="#D9D9D9"/>
</g>
<defs>
<filter id="filter0_d_1_3" x="233.999" y="19.5" width="20.5843" height="18.8541" filterUnits="userSpaceOnUse" color-interpolation-filters="sRGB">
<feFlood flood-opacity="0" result="BackgroundImageFix"/>
<feColorMatrix in="SourceAlpha" type="matrix" values="0 0 0 0 0 0 0 0 0 0 0 0 0 0 0 0 0 0 127 0" result="hardAlpha"/>
<feOffset dx="-0.5" dy="0.5"/>
<feGaussianBlur stdDeviation="2"/>
<feComposite in2="hardAlpha" operator="out"/>
<feColorMatrix type="matrix" values="0 0 0 0 0 0 0 0 0 0 0 0 0 0 0 0 0 0 0.43 0"/>
<feBlend mode="normal" in2="BackgroundImageFix" result="effect1_dropShadow_1_3"/>
<feBlend mode="normal" in="SourceGraphic" in2="effect1_dropShadow_1_3" result="shape"/>
</filter>
<linearGradient id="paint0_linear_1_3" x1="190.361" y1="75.5511" x2="226.905" y2="75.5511" gradientUnits="userSpaceOnUse">
<stop stop-color="#FAFAFA"/>
<stop offset="1" stop-color="#C9C9C7"/>
</linearGradient>
</defs>
</svg>
