<svg width="20" height="20" viewBox="0 0 20 20" fill="none" xmlns="http://www.w3.org/2000/svg">
<path d="M10.7553 4.31133C10.7297 3.83422 10.2421 3.91539 9.76636 3.91539C10.1178 4.00899 10.4503 4.13922 10.7553 4.31133Z" fill="white"/>
<path d="M5.66935 3.11572C3.8224 3.11572 2.97227 5.45348 4.44874 6.62925C4.95206 5.28528 5.95403 4.32028 7.26757 3.93938C6.90826 3.44263 6.32772 3.11572 5.66935 3.11572Z" fill="white"/>
<path d="M1.85377 6.26329C1.92904 6.50482 2.02656 6.73653 2.14241 6.95605L1.53571 7.56309C1.37278 7.72602 1.37278 7.99047 1.53571 8.15374L2.60511 9.22348C2.68299 9.30136 2.7897 9.34519 2.90092 9.34519C3.01091 9.34519 3.1169 9.30136 3.19613 9.22348L3.80216 8.61644C3.89311 8.66457 3.99392 8.69407 4.08811 8.73558C4.08811 8.72867 4.08744 8.7215 4.08744 8.71459C4.08744 8.21852 4.14441 7.75055 4.24585 7.31112C3.51415 6.8402 3.02592 6.02278 3.02592 5.0895C3.02592 3.63166 4.2118 2.44544 5.6693 2.44544C6.65623 2.44544 7.50834 2.99487 7.9632 3.79758C8.44882 3.73736 8.90498 3.73736 9.45408 3.84112C9.38344 3.62745 9.30033 3.41833 9.19624 3.22232L9.80294 2.61498C9.88209 2.53677 9.92592 2.43039 9.92592 2.31981C9.92592 2.20918 9.88209 2.10285 9.80294 2.02463L8.73413 0.95557C8.65237 0.873769 8.54567 0.833184 8.439 0.833184C8.33229 0.833184 8.22563 0.873769 8.14446 0.95557L7.53581 1.5629C7.31595 1.44642 7.08492 1.3489 6.8428 1.27527V0.417224C6.8428 0.186866 6.6569 0 6.42587 0H4.91341C4.68369 0 4.49581 0.186866 4.49581 0.417224V1.27523C4.25433 1.34886 4.02325 1.44638 3.80271 1.56286L3.19613 0.956202C3.11429 0.874401 3.00763 0.833816 2.90092 0.833816C2.79425 0.833816 2.68695 0.874401 2.60578 0.955865L1.53571 2.02493C1.45783 2.10348 1.414 2.20948 1.414 2.32044C1.414 2.43136 1.45783 2.5374 1.53571 2.61562L2.14241 3.22261C2.02652 3.44252 1.92904 3.67389 1.85512 3.91537H0.997743C0.76671 3.91537 0.580139 4.10254 0.580139 4.33323V5.84573C0.580139 6.07575 0.76671 6.26329 0.997743 6.26329H1.85377Z" fill="white"/>
<path d="M14.9556 14.3563C15.6245 13.9894 16.0839 13.2872 16.0839 12.4723C16.0839 11.2832 15.116 10.3159 13.9268 10.3159C13.5087 10.3159 13.1211 10.4409 12.79 10.6477C12.5917 11.437 12.2795 12.192 11.8712 12.8477C13.0288 13.0653 14.0911 13.5925 14.9556 14.3563Z" fill="white"/>
<path d="M19.4191 11.6567C19.4191 11.4077 19.2168 11.2061 18.9688 11.2061H18.0434C17.9635 10.9452 17.8575 10.6952 17.7319 10.458L18.3869 9.80293C18.4721 9.71848 18.5192 9.60397 18.5192 9.48454C18.5192 9.36506 18.472 9.25051 18.3869 9.1658L17.2338 8.01228C17.1461 7.9242 17.0303 7.88004 16.9151 7.88004C16.7999 7.88004 16.6847 7.9242 16.5971 8.01228L15.9406 8.66771C15.7036 8.54203 15.4543 8.43672 15.1925 8.35715V7.43175C15.1925 7.18306 14.9916 6.98145 14.7429 6.98145H13.1113C13.002 6.98145 12.9058 7.02528 12.8273 7.09009C12.9647 7.59139 13.04 8.13496 13.04 8.71482C13.04 9.08295 13.0112 9.45672 12.9576 9.82839C13.2612 9.71646 13.5845 9.64616 13.9268 9.64616C15.4857 9.64616 16.7541 10.9142 16.7541 12.4727C16.7541 13.4689 16.2338 14.342 15.453 14.8456C16.0211 15.4686 16.4727 16.2078 16.7666 17.036C16.8149 17.0527 16.8653 17.0649 16.9157 17.0649C17.0309 17.0649 17.1462 17.021 17.2345 16.933L18.3883 15.7794C18.4728 15.695 18.5192 15.5805 18.5192 15.461C18.5192 15.3416 18.4728 15.2271 18.3883 15.1423L17.7319 14.4869C17.8576 14.25 17.9636 13.9999 18.0435 13.7388H18.9688C19.0879 13.7388 19.2038 13.6917 19.2876 13.6066C19.372 13.5225 19.4198 13.4077 19.4198 13.2882L19.4191 11.6567Z" fill="white"/>
<path d="M15.8477 17.4436C15.148 15.385 13.2992 13.9691 11.165 13.7764C10.4503 14.5332 9.56543 15.0133 8.56337 15.0133C7.56208 15.0133 6.67655 14.5332 5.96255 13.7764C3.82704 13.9691 1.97815 15.385 1.27847 17.444L0.891719 18.5824C0.781091 18.91 0.834066 19.271 1.03568 19.552C1.23726 19.8332 1.56189 20 1.90743 20H15.2187C15.5649 20 15.8895 19.8332 16.0912 19.552C16.2921 19.271 16.3457 18.91 16.2344 18.5824L15.8477 17.4436Z" fill="white"/>
<path d="M5.09277 8.71442C5.09277 11.2679 6.64716 14.0078 8.5634 14.0078C10.4804 14.0078 12.0347 11.2679 12.0347 8.71442C12.0347 3.42141 5.09277 3.41091 5.09277 8.71442Z" fill="white"/>
</svg>
