<svg width="18" height="14" viewBox="0 0 18 14" fill="none" xmlns="http://www.w3.org/2000/svg">
<path d="M5.91441 1.93483C4.31597 3.53057 4.17738 6.01702 5.50894 7.77112C6.04527 8.47721 6.42222 9.25557 6.63394 10.0924H8.47457V6.62354C8.47457 6.29983 8.73777 6.03803 9.0605 6.03803C9.38394 6.03803 9.64644 6.30034 9.64644 6.62354V10.0924H11.4894C11.7023 9.25713 12.0816 8.47413 12.6214 7.75827C13.9289 6.02561 13.8213 3.51979 12.189 1.91108C10.4519 0.199438 7.65695 0.194399 5.91441 1.93483Z" fill="white"/>
<path d="M2.88467 5.08898C3.20826 5.08898 3.47061 4.82684 3.47061 4.50348C3.47061 4.18012 3.20826 3.91797 2.88467 3.91797H0.931152C0.607559 3.91797 0.345215 4.18012 0.345215 4.50348C0.345215 4.82684 0.607559 5.08898 0.931152 5.08898H2.88467Z" fill="white"/>
<path d="M16.9616 7.91671L15.2784 6.92585C14.9996 6.76174 14.6404 6.85448 14.4761 7.13311C14.3119 7.41171 14.4047 7.77061 14.6836 7.93476L16.3667 8.92562C16.6458 9.08984 17.0049 8.99679 17.169 8.71835C17.3332 8.43976 17.2404 8.08085 16.9616 7.91671Z" fill="white"/>
<path d="M2.84269 6.92585L1.15952 7.9167C0.880696 8.08085 0.787844 8.43975 0.952102 8.71835C1.1164 8.99702 1.47558 9.08971 1.75437 8.92561L3.43753 7.93475C3.71636 7.77061 3.80921 7.4117 3.64495 7.13311C3.48066 6.85448 3.12148 6.76174 2.84269 6.92585Z" fill="white"/>
<path d="M15.2784 2.08088L16.9616 1.09002C17.2404 0.925884 17.3333 0.566978 17.169 0.288384C17.0047 0.00975158 16.6455 -0.0829828 16.3667 0.0811188L14.6836 1.07198C14.4047 1.23612 14.3119 1.59503 14.4761 1.87362C14.6404 2.15233 14.9996 2.24503 15.2784 2.08088Z" fill="white"/>
<path d="M3.43759 1.07198L1.75443 0.0811188C1.4756 -0.0829828 1.1165 0.00975158 0.952163 0.288384C0.787905 0.566978 0.880757 0.925884 1.15958 1.09002L2.84275 2.08088C3.12173 2.2451 3.4808 2.1521 3.64501 1.87362C3.80923 1.59503 3.71642 1.23612 3.43759 1.07198Z" fill="white"/>
<path d="M17.1899 3.91797H15.2364C14.9128 3.91797 14.6505 4.18012 14.6505 4.50348C14.6505 4.82684 14.9128 5.08899 15.2364 5.08899H17.1899C17.5135 5.08899 17.7758 4.82684 17.7758 4.50348C17.7758 4.18012 17.5135 3.91797 17.1899 3.91797Z" fill="white"/>
<path d="M6.75153 11.2637V11.8875C6.75153 12.7942 7.51403 13.5315 8.45231 13.5315H9.65934C10.5906 13.5315 11.3539 12.7993 11.3609 11.8991L11.3652 11.2637H6.75153V11.2637Z" fill="white"/>
</svg>
