<svg width="16" height="20" viewBox="0 0 16 20" fill="none" xmlns="http://www.w3.org/2000/svg">
<path d="M8.00007 8.42285C5.93852 8.42285 4.26135 10.1001 4.26135 12.1616C4.26135 14.2231 5.93852 15.9003 8.00007 15.9003C10.0616 15.9003 11.7388 14.2231 11.7388 12.1616C11.7388 10.1001 10.0616 8.42285 8.00007 8.42285ZM7.39615 14.2658L5.37207 12.2645L6.19602 11.4312L7.42721 12.6485L9.82036 10.4573L10.6117 11.3217L7.39615 14.2658Z" fill="white"/>
<path d="M12.2612 1.64662H9.84856L9.71633 1.24322C9.47254 0.499614 8.78281 0 8.00003 0C7.21725 0 6.52751 0.499614 6.28372 1.24322L6.15149 1.64662H3.73889V3.59707H12.2612V1.64662Z" fill="white"/>
<path d="M13.433 2.59766V4.76912H2.56699V2.59766H0.343689V20.0002H15.6563V2.59766H13.433ZM8.00001 17.0721C5.29229 17.0721 3.08942 14.8692 3.08942 12.1615C3.08942 9.45386 5.29229 7.25094 8.00001 7.25094C10.7077 7.25094 12.9106 9.45386 12.9106 12.1615C12.9106 14.8692 10.7077 17.0721 8.00001 17.0721Z" fill="white"/>
</svg>
