<svg width="20" height="20" viewBox="0 0 20 20" fill="none" xmlns="http://www.w3.org/2000/svg">
<path d="M17.1129 10.6768H15.5662C15.7239 11.1084 15.81 11.5742 15.81 12.0597V17.9054C15.81 18.1079 15.7748 18.3022 15.7107 18.4829H18.2678C19.2229 18.4829 20 17.7058 20 16.7506V13.5638C20.0001 11.9719 18.7049 10.6768 17.1129 10.6768Z" fill="white"/>
<path d="M4.19005 12.0597C4.19005 11.5742 4.27618 11.1084 4.43384 10.6768H2.88712C1.29516 10.6768 0 11.9719 0 13.5639V16.7506C0 17.7058 0.777072 18.4829 1.73227 18.4829H4.28938C4.22528 18.3021 4.19005 18.1079 4.19005 17.9054V12.0597Z" fill="white"/>
<path d="M11.768 9.17236H8.23202C6.64007 9.17236 5.34491 10.4675 5.34491 12.0595V17.9052C5.34491 18.2241 5.60343 18.4826 5.92233 18.4826H14.0777C14.3966 18.4826 14.6551 18.2241 14.6551 17.9052V12.0595C14.6551 10.4675 13.36 9.17236 11.768 9.17236Z" fill="white"/>
<path d="M10 1.51709C8.08547 1.51709 6.52789 3.07467 6.52789 4.98924C6.52789 6.28788 7.24465 7.42206 8.30317 8.01753C8.80524 8.29995 9.38406 8.46136 10 8.46136C10.6159 8.46136 11.1948 8.29995 11.6968 8.01753C12.7554 7.42206 13.4721 6.28784 13.4721 4.98924C13.4721 3.07471 11.9145 1.51709 10 1.51709Z" fill="white"/>
<path d="M3.90308 4.75342C2.47124 4.75342 1.3064 5.91826 1.3064 7.3501C1.3064 8.78194 2.47124 9.94679 3.90308 9.94679C4.26628 9.94679 4.61214 9.87155 4.92633 9.73632C5.46953 9.50245 5.91742 9.08847 6.19457 8.56991C6.3891 8.20596 6.49977 7.79077 6.49977 7.3501C6.49977 5.9183 5.33492 4.75342 3.90308 4.75342Z" fill="white"/>
<path d="M16.097 4.75342C14.6652 4.75342 13.5003 5.91826 13.5003 7.3501C13.5003 7.79081 13.611 8.206 13.8055 8.56991C14.0827 9.0885 14.5305 9.50249 15.0737 9.73632C15.3879 9.87155 15.7338 9.94679 16.097 9.94679C17.5288 9.94679 18.6937 8.78194 18.6937 7.3501C18.6937 5.91826 17.5288 4.75342 16.097 4.75342Z" fill="white"/>
</svg>
