<svg width="16" height="20" viewBox="0 0 16 20" fill="none" xmlns="http://www.w3.org/2000/svg">
<path fill-rule="evenodd" clip-rule="evenodd" d="M10.8906 5.85938C10.1368 5.85938 9.52344 5.24605 9.52344 4.49219V0H2.53125C1.3466 0 0.382812 0.963789 0.382812 2.14844V17.8516C0.382812 19.0362 1.3466 20 2.53125 20H13.4688C14.6534 20 15.6172 19.0362 15.6172 17.8516V5.85938H10.8906ZM11.158 12.2108C10.871 11.3664 10.1127 10.7856 9.23722 10.7065C8.94407 11.017 8.58111 11.2139 8.17008 11.2139C7.75936 11.2139 7.39613 11.017 7.10325 10.7065C6.22729 10.7856 5.4689 11.3664 5.1819 12.211L5.02326 12.6779C4.97788 12.8123 4.99961 12.9604 5.08231 13.0756C5.16499 13.191 5.29815 13.2594 5.43989 13.2594H10.9C11.042 13.2594 11.1752 13.191 11.2579 13.0756C11.3403 12.9604 11.3623 12.8123 11.3167 12.6779L11.158 12.2108ZM8.17006 10.8013C7.38405 10.8013 6.74646 9.67736 6.74646 8.62996C6.74646 6.45453 9.59397 6.45883 9.59395 8.62996C9.59395 9.67736 8.95639 10.8013 8.17006 10.8013Z" fill="white"/>
<path d="M10.6953 4.49234C10.6953 4.60004 10.7829 4.68766 10.8906 4.68766H15.356C15.2488 4.48977 15.1109 4.30801 14.9453 4.15125L11.1788 0.587891C11.0326 0.449609 10.8698 0.334258 10.6954 0.243164V4.49234H10.6953Z" fill="white"/>
</svg>
