<svg width="20" height="20" viewBox="0 0 20 20" fill="none" xmlns="http://www.w3.org/2000/svg">
<g clip-path="url(#clip0_4547_581)">
<path d="M1.17645 0V2.75028C1.17645 5.0909 2.58532 7.17565 4.72222 8.06082C4.82967 9.4309 5.46743 10.7128 6.5092 11.627C7.08088 12.1287 7.45955 12.8012 7.5932 13.5294H12.4068C12.5404 12.8012 12.9191 12.1287 13.4907 11.627C14.5325 10.7128 15.1703 9.4309 15.2777 8.06082C17.4147 7.17565 18.8235 5.0909 18.8235 2.75028V0C18.2964 0 1.52167 0 1.17645 0V0ZM2.35292 2.75028V1.17647H4.70586V6.74824C3.27135 5.95322 2.35292 4.43537 2.35292 2.75028ZM11.4761 6.69067L11.8246 8.72235L9.99998 7.76314L8.1754 8.72235L8.52387 6.69067L7.04775 5.2518L9.08767 4.95537L9.99998 3.1069L10.9123 4.95537L12.9522 5.2518L11.4761 6.69067ZM17.647 2.75028C17.647 4.43537 16.7286 5.95322 15.2941 6.74824V1.17647H17.647V2.75028Z" fill="white"/>
<path d="M5.88232 14.7061H14.1176V16.4707H5.88232V14.7061Z" fill="white"/>
<path d="M15.2941 17.647H4.70589V18.8234H3.52942V19.9999H16.4706V18.8234H15.2941V17.647Z" fill="white"/>
<path d="M10.1311 6.03067L10 5.76514L9.86895 6.03067L9.57593 6.07326L9.78801 6.27992L9.73789 6.57177L10 6.43396L10.2621 6.57177L10.212 6.27992L10.4241 6.07326L10.1311 6.03067Z" fill="white"/>
</g>
<defs>
<clipPath id="clip0_4547_581">
<rect width="20" height="20" fill="white"/>
</clipPath>
</defs>
</svg>
