<svg width="18" height="18" viewBox="0 0 18 18" fill="none" xmlns="http://www.w3.org/2000/svg">
<path d="M8.23742 1.03195H5.14194C2.59617 1.03195 1 2.83427 1 5.38583V12.2689C1 14.8205 2.58872 16.6228 5.14194 16.6228H12.4472C15.0013 16.6228 16.59 14.8205 16.59 12.2689V8.93417" stroke="#6842EF" stroke-width="1.5" stroke-linecap="round" stroke-linejoin="round"/>
<path fill-rule="evenodd" clip-rule="evenodd" d="M6.03151 7.76428L12.2183 1.57745C12.9891 0.807515 14.2384 0.807515 15.0092 1.57745L16.0167 2.585C16.7875 3.35576 16.7875 4.60588 16.0167 5.37582L9.80007 11.5924C9.46312 11.9294 9.00612 12.119 8.52926 12.119H5.42798L5.5058 8.98956C5.51739 8.52925 5.70532 8.09047 6.03151 7.76428Z" stroke="#FFD600" stroke-width="1.5" stroke-linecap="round" stroke-linejoin="round"/>
<path d="M11.2782 2.53336L15.0583 6.3135" stroke="#FFD600" stroke-width="1.5" stroke-linecap="round" stroke-linejoin="round"/>
</svg>
