<svg width="276" height="276" viewBox="0 0 276 276" fill="none" xmlns="http://www.w3.org/2000/svg">
<path d="M276 211.084H0V211.222H276V211.084Z" fill="#373854"/>
<path d="M248.346 219.969H230.062V220.107H248.346V219.969Z" fill="#373854"/>
<path d="M182.834 221.467H178.035V221.605H182.834V221.467Z" fill="#373854"/>
<path d="M229.51 214.844H218.916V214.982H229.51V214.844Z" fill="#373854"/>
<path d="M52.7996 215.771H28.957V215.909H52.7996V215.771Z" fill="#373854"/>
<path d="M61.2107 215.771H57.7148V215.909H61.2107V215.771Z" fill="#373854"/>
<path d="M124.281 218.102H72.5723V218.24H124.281V218.102Z" fill="#373854"/>
<path d="M130.831 186.466H24.2407C22.5035 186.466 21.0898 185.052 21.0898 183.315V33.4848C21.0898 31.7477 22.5035 30.334 24.2407 30.334H130.831C132.568 30.334 133.982 31.7477 133.982 33.4848V183.315C133.982 185.052 132.568 186.466 130.831 186.466ZM24.2407 30.4725C22.5791 30.4725 21.2278 31.8238 21.2278 33.4854V183.316C21.2278 184.977 22.5791 186.329 24.2407 186.329H130.831C132.492 186.329 133.844 184.977 133.844 183.316V33.4848C133.844 31.8238 132.492 30.472 130.831 30.472L24.2407 30.4725Z" fill="#373854"/>
<path d="M250.227 186.466H143.637C141.899 186.466 140.486 185.052 140.486 183.315V33.4848C140.486 31.7477 141.9 30.334 143.637 30.334H250.227C251.964 30.334 253.378 31.7477 253.378 33.4848V183.315C253.378 185.052 251.964 186.466 250.227 186.466ZM143.637 30.4725C141.976 30.4725 140.624 31.8238 140.624 33.4854V183.316C140.624 184.977 141.976 186.329 143.637 186.329H250.227C251.888 186.329 253.24 184.977 253.24 183.316V33.4848C253.24 31.8238 251.888 30.472 250.227 30.472L143.637 30.4725Z" fill="#373854"/>
<path d="M153.307 88.7017L153.059 81.4479L157.512 79.9928C157.695 77.5143 158.109 75.0667 158.699 72.7086L154.925 69.9254L157.489 63.1121L162.158 63.488C163.271 61.285 164.578 59.189 166.044 57.2228L163.626 53.186L168.598 47.8807L172.772 50.0181C174.652 48.42 176.634 46.9733 178.756 45.6937L178.08 41.0602L184.703 38.0546L187.737 41.6106C190.049 40.8604 192.444 40.2996 194.922 39.9275L196.05 35.3857L203.323 35.1367L204.759 39.5908C207.257 39.7923 209.686 40.1881 212.043 40.7782L214.846 37.0218L221.659 39.5671L221.282 44.2364C223.486 45.368 225.581 46.6752 227.548 48.1413L231.565 45.7235L236.89 50.6755L234.753 54.8685C236.35 56.7299 237.798 58.7314 239.059 60.8533L243.691 60.1583L246.716 66.7801L243.141 69.815C243.891 72.1273 244.472 74.5412 244.824 77.0009L249.386 78.1469L249.634 85.4007L245.162 86.8575C244.979 89.3542 244.564 91.7835 243.975 94.1411L247.749 96.9243L245.185 103.738L240.516 103.361C239.403 105.564 238.095 107.66 236.63 109.626L239.049 113.663L234.076 118.969L229.902 116.831C228.041 118.429 226.04 119.877 223.919 121.157L224.614 125.788L217.991 128.794L214.937 125.239C212.625 125.989 210.23 126.55 207.752 126.922L206.624 131.463L199.35 131.712L197.914 127.258C195.416 127.057 192.988 126.661 190.63 126.071L187.847 129.827L181.034 127.282L181.392 122.614C179.187 121.482 177.111 120.173 175.126 118.708L171.108 121.127L165.784 116.174L167.921 111.981C166.324 110.119 164.876 108.118 163.615 105.996L158.983 106.691L155.958 100.069L159.534 97.0341C158.783 94.7224 158.203 92.3278 157.851 89.8493L153.307 88.7017ZM202.323 112.201C218.208 111.657 230.648 98.3346 230.103 82.4486C229.559 66.5439 216.237 54.1056 200.351 54.6499C184.466 55.1942 172.026 68.5151 172.571 84.4198C173.116 100.306 186.437 112.745 202.323 112.201Z" fill="#373854"/>
<path d="M66.116 174.671L66.0039 171.4L68.0121 170.744C68.0949 169.627 68.2815 168.523 68.5475 167.46L66.8457 166.204L68.0016 163.132L70.1069 163.302C70.6087 162.308 71.1982 161.363 71.859 160.477L70.7688 158.657L73.011 156.264L74.8933 157.228C75.7412 156.508 76.6343 155.855 77.5915 155.278L77.2868 153.189L80.2731 151.834L81.6415 153.437C82.6842 153.099 83.764 152.846 84.8812 152.678L85.3901 150.63L88.6696 150.518L89.3171 152.526C90.4431 152.617 91.5383 152.795 92.6015 153.061L93.8656 151.368L96.9374 152.515L96.7674 154.621C97.761 155.131 98.706 155.72 99.5926 156.381L101.404 155.291L103.805 157.524L102.841 159.415C103.561 160.254 104.214 161.156 104.782 162.113L106.871 161.8L108.235 164.786L106.623 166.154C106.961 167.197 107.223 168.285 107.382 169.394L109.439 169.911L109.551 173.182L107.535 173.838C107.452 174.965 107.265 176.06 106.999 177.122L108.701 178.378L107.545 181.45L105.44 181.28C104.938 182.274 104.349 183.219 103.688 184.105L104.779 185.925L102.536 188.317L100.655 187.354C99.8156 188.074 98.913 188.727 97.9564 189.304L98.27 191.393L95.2836 192.748L93.907 191.145C92.8642 191.483 91.7845 191.736 90.6667 191.904L90.1583 193.952L86.8789 194.064L86.2308 192.056C85.1048 191.964 84.0102 191.786 82.9464 191.52L81.6912 193.214L78.6193 192.066L78.7805 189.961C77.7863 189.451 76.8507 188.861 75.9554 188.2L74.1437 189.291L71.7431 187.057L72.7063 185.167C71.9865 184.327 71.3335 183.425 70.7649 182.468L68.6761 182.781L67.3121 179.795L68.9245 178.427C68.5862 177.385 68.3245 176.304 68.1655 175.187L66.116 174.671ZM88.2175 185.267C95.3802 185.021 100.989 179.014 100.744 171.851C100.498 164.68 94.4915 159.071 87.3282 159.316C80.1655 159.562 74.556 165.568 74.8022 172.74C75.0479 179.903 81.0547 185.512 88.2175 185.267Z" fill="#7A81FD"/>
<path d="M64.9665 53.0142L63.1372 51.3058L63.8686 49.8651C63.3089 49.2159 62.8132 48.5182 62.3821 47.7995L60.7829 48.0412L59.7468 45.7549L60.9772 44.7083C60.7112 43.8996 60.5191 43.0699 60.3971 42.2331L58.8233 41.8384L58.7422 39.3323L60.2812 38.8355C60.3502 37.9877 60.4804 37.1514 60.6858 36.3223L59.3913 35.3574L60.2734 33.0097L61.8803 33.1367C62.2612 32.3898 62.7083 31.6689 63.2217 30.9745L62.3893 29.5918L64.1021 27.7575L65.5384 28.4933C66.1969 27.9335 66.8853 27.4378 67.604 27.0067L67.3716 25.407L69.6536 24.3665L70.7002 25.5969C71.5133 25.3353 72.3429 25.1432 73.1803 25.0212L73.5706 23.4519L76.0766 23.3613L76.5779 24.9047C77.4213 24.9693 78.262 25.104 79.0873 25.3143L80.0472 24.0154L82.3993 24.8926L82.2679 26.5044C83.0147 26.8853 83.745 27.3324 84.4306 27.8463L85.8222 27.0134L87.6515 28.7218L86.9163 30.1675C87.4804 30.8211 87.9717 31.5144 88.4028 32.2331L90.0019 31.9913L91.038 34.2782L89.8076 35.3248C90.0737 36.1335 90.2658 36.9632 90.3878 37.8L91.9621 38.1947L92.0432 40.7013L90.5043 41.1976C90.4397 42.041 90.305 42.8823 90.1002 43.7114L91.3991 44.6713L90.517 47.0189L88.9051 46.8964C88.5242 47.6433 88.0771 48.3642 87.5638 49.0591L88.3962 50.4419L86.6833 52.2762L85.247 51.5404C84.589 52.1001 83.9001 52.5958 83.1814 53.0269L83.4182 54.6216L81.1363 55.6622L80.0853 54.4367C79.2722 54.6984 78.4464 54.8855 77.6051 55.0119L77.2154 56.5812L74.7093 56.6718L74.2081 55.1284C73.3647 55.0638 72.524 54.9291 71.6987 54.7188L70.7388 56.0182L68.3867 55.1411L68.5187 53.5292C67.7724 53.1484 67.0465 52.7062 66.3559 52.1879L64.9665 53.0142ZM78.0026 42.4539C79.3484 41.0126 79.2711 38.7522 77.8298 37.4064C76.3869 36.059 74.1264 36.1363 72.7807 37.5775C71.4349 39.0188 71.5122 41.2787 72.9551 42.6267C74.3964 43.9725 76.6568 43.8952 78.0026 42.4539Z" fill="#373854"/>
<path d="M115.578 171.684L119.752 168.801C119.753 168.798 119.753 168.794 119.755 168.791C120.167 167.275 120.737 165.815 121.433 164.443L120.364 160.246L126.419 153.761L130.681 154.542C132.001 153.754 133.417 153.086 134.901 152.571C134.904 152.57 134.908 152.569 134.911 152.568L137.503 148.204L146.369 147.9L149.252 152.075C149.258 152.076 149.263 152.077 149.269 152.078C150.784 152.491 152.242 153.059 153.613 153.755L157.808 152.686L164.292 158.741L163.513 162.995C163.514 162.996 163.515 162.997 163.515 162.999C164.32 164.333 164.972 165.751 165.487 167.235L169.85 169.825L170.154 178.692L165.976 181.577C165.563 183.104 165.011 184.56 164.302 185.944C164.302 185.944 164.301 185.945 164.301 185.946L165.367 190.13L159.313 196.614L155.077 195.839C153.74 196.629 152.322 197.298 150.82 197.814C150.819 197.814 150.818 197.815 150.816 197.815L148.229 202.172L139.363 202.476L136.482 198.305C134.949 197.892 133.488 197.323 132.102 196.626L132.101 196.625L127.924 197.69L121.44 191.635L122.219 187.381C121.414 186.046 120.763 184.628 120.247 183.144L120.246 183.144L115.882 180.552L115.578 171.684ZM143.21 185.163C148.721 184.974 153.027 180.346 152.838 174.851C152.649 169.339 148.038 165.033 142.526 165.222C137.014 165.41 132.708 170.022 132.898 175.534C133.086 181.03 137.698 185.351 143.21 185.163Z" fill="#373854"/>
<path d="M40.9039 66.7643C40.6986 66.7643 40.506 66.6633 40.3884 66.4938L38.8483 64.2637C38.097 64.0479 37.3524 63.7625 36.6276 63.4125L34.4317 63.9717C34.2242 64.0236 34.0056 63.9679 33.8499 63.8221L30.0936 60.3147C29.9374 60.169 29.8667 59.9543 29.9048 59.7445L30.3138 57.5095C29.9269 56.8388 29.5918 56.1179 29.3153 55.3611L26.9809 53.9744C26.797 53.8657 26.6817 53.6708 26.6745 53.4572L26.4984 48.3203C26.4912 48.1067 26.5928 47.9047 26.7683 47.7832L29.0006 46.2415C29.2131 45.5029 29.5007 44.7549 29.8518 44.0329L29.2893 41.8266C29.2369 41.6196 29.2932 41.4004 29.4384 41.2442L32.9458 37.4873C33.0915 37.3311 33.3062 37.2615 33.5165 37.2985L35.7571 37.7087C36.4449 37.314 37.1641 36.9784 37.9005 36.7084L39.2866 34.3746C39.3953 34.1913 39.5902 34.076 39.8038 34.0688L44.9402 33.8927C45.1527 33.8888 45.3558 33.9871 45.4767 34.1626L47.019 36.3955C47.7808 36.6168 48.5188 36.9016 49.2281 37.2466L51.4333 36.6842C51.6398 36.6323 51.8595 36.6875 52.0157 36.8337L55.7721 40.3417C55.9283 40.4874 55.9989 40.7022 55.9608 40.9119L55.5513 43.1475C55.9448 43.8298 56.2771 44.5463 56.5515 45.2965L58.8848 46.6814C59.0681 46.7902 59.184 46.985 59.1912 47.1986L59.3672 52.3356C59.3744 52.5492 59.2729 52.7512 59.0973 52.8727L56.8634 54.4155C56.6404 55.1916 56.3561 55.9346 56.0155 56.6307L56.5752 58.8293C56.6277 59.0357 56.5714 59.2549 56.4262 59.4111L52.9188 63.1675C52.7731 63.3237 52.5583 63.3943 52.348 63.3562L50.1218 62.9489C49.4213 63.348 48.6965 63.6841 47.9613 63.9507L46.5785 66.2796C46.4698 66.4634 46.2749 66.5788 46.0613 66.586L40.9249 66.7621C40.9183 66.7643 40.9111 66.7643 40.9039 66.7643ZM36.6972 62.1225C36.7943 62.1225 36.8904 62.1452 36.9787 62.1893C37.7653 62.5845 38.5789 62.897 39.3981 63.1167C39.5416 63.1553 39.6664 63.2431 39.7508 63.3656L41.2252 65.5008L45.6771 65.3484L47.0008 63.1189C47.0803 62.9847 47.2061 62.887 47.3502 62.8412C48.1473 62.5669 48.9339 62.2009 49.6885 61.7549C49.8182 61.6782 49.9716 61.6511 50.1201 61.6776L52.2371 62.0651L55.2775 58.8094L54.7442 56.7168C54.7067 56.5688 54.7244 56.4121 54.7939 56.2763C55.1759 55.5311 55.4861 54.7213 55.7169 53.8679C55.7555 53.7249 55.8438 53.6002 55.9658 53.5157L58.1048 52.0386L57.9525 47.5862L55.7196 46.2608C55.5927 46.1852 55.4961 46.067 55.448 45.9274C55.1604 45.0999 54.7978 44.3183 54.3694 43.6051C54.2833 43.4715 54.2513 43.3098 54.28 43.1536L54.6697 41.0262L51.414 37.9858L49.3153 38.5207C49.1679 38.5576 49.0123 38.5411 48.877 38.4721C48.1081 38.0818 47.3016 37.7705 46.4797 37.5464C46.3373 37.5077 46.2031 37.4172 46.1192 37.2958L44.6437 35.159L40.1919 35.3113L38.8654 37.5447C38.8069 37.643 38.7224 37.7236 38.6214 37.7771C38.5817 37.7986 38.5342 37.8174 38.4906 37.8295C37.7217 38.0978 36.9384 38.4638 36.197 38.9065C36.0668 38.9849 35.9128 39.0125 35.7632 38.9849L33.6308 38.5946L30.5904 41.8503L31.1253 43.9501C31.1628 44.0975 31.1457 44.2532 31.0767 44.3884C30.6853 45.159 30.374 45.9666 30.1499 46.7885C30.1112 46.9309 30.0218 47.0612 29.9004 47.1451L27.7641 48.6206L27.9165 53.073L30.1504 54.3995C30.2774 54.4751 30.3734 54.5927 30.422 54.7323C30.7118 55.5664 31.0778 56.353 31.5095 57.0695C31.5884 57.2003 31.6165 57.3554 31.5889 57.5056L31.1998 59.6335L34.4555 62.6734L36.5431 62.1413C36.5928 62.1286 36.6453 62.1225 36.6972 62.1225ZM42.927 59.7224C40.5402 59.7224 38.2775 58.8309 36.5244 57.1921C34.6923 55.4792 33.6363 53.1575 33.5502 50.6542C33.4641 48.1453 34.3589 45.7541 36.0695 43.9225C37.7802 42.0904 40.1041 41.0339 42.6129 40.9484C45.1234 40.8611 47.5125 41.757 49.3446 43.4677C51.1767 45.1783 52.2332 47.5022 52.3188 50.0111C52.4049 52.515 51.5095 54.9035 49.7994 56.7378C48.0871 58.5737 45.7632 59.6319 43.256 59.7175C43.1462 59.7202 43.0363 59.7224 42.927 59.7224ZM42.943 42.1948C42.8475 42.1948 42.752 42.1964 42.6565 42.1997C40.4822 42.2743 38.468 43.1895 36.9859 44.777C35.5032 46.3646 34.7282 48.4362 34.8027 50.6106C34.8772 52.7799 35.7924 54.7925 37.38 56.2763C38.9692 57.7617 41.0397 58.5417 43.2135 58.4644C45.3862 58.3899 47.3999 57.473 48.8837 55.8822C50.3663 54.2929 51.1419 52.223 51.0674 50.053C50.9929 47.8787 50.0776 45.8645 48.4901 44.3823C46.9726 42.9659 45.0125 42.1948 42.943 42.1948Z" fill="#373854"/>
<path d="M214.194 181.109H30.4739C25.9591 181.109 22.2988 177.449 22.2988 172.933V55.4739C22.2988 50.9591 25.9586 47.2988 30.4739 47.2988H214.193C218.708 47.2988 222.368 50.9591 222.368 55.4739V172.934C222.368 177.449 218.709 181.109 214.194 181.109Z" fill="white"/>
<path d="M224.599 138.483H224.047V133.494H224.599V138.483ZM224.599 129.596H224.047V119.295H224.599V129.596Z" fill="#9DA2FF"/>
<path d="M214.193 181.406H30.4732C25.8011 181.406 22 177.605 22 172.933V55.4732C22 50.8011 25.8011 47 30.4732 47H214.193C218.865 47 222.666 50.8011 222.666 55.4732V172.933C222.666 177.605 218.865 181.406 214.193 181.406ZM30.4732 47.5962C26.1301 47.5962 22.5967 51.1295 22.5967 55.4726V172.933C22.5967 177.276 26.1301 180.809 30.4732 180.809H214.193C218.536 180.809 222.069 177.276 222.069 172.933V55.4732C222.069 51.1301 218.536 47.5967 214.193 47.5967L30.4732 47.5962Z" fill="white"/>
<path opacity="0.5" d="M89.104 153.441H86.3202V152.845H89.104L89.1536 153.441H89.104ZM83.5365 153.441H80.7527V152.845H83.5365V153.441ZM77.969 153.441H75.1853V152.845H77.969V153.441ZM72.4021 153.441H69.6184V152.845H72.4021V153.441ZM66.8346 153.441H64.0509V152.845H66.8346V153.441ZM61.2677 153.441H58.484V152.845H61.2677V153.441ZM55.7002 153.441H52.9165V152.845H55.7002V153.441ZM50.1333 153.441H47.3496V152.845H50.1333V153.441ZM44.5658 153.441H41.7821V152.845H44.5658V153.441ZM38.9989 153.441H37.9612C37.3225 153.441 36.7109 153.297 36.144 153.013L36.4111 152.48C36.8947 152.722 37.4158 152.845 37.9612 152.845H38.9989V153.441ZM91.8756 152.348L91.4682 151.912C92.1024 151.32 92.4894 150.52 92.5584 149.658L93.1534 149.705C93.0728 150.716 92.6191 151.654 91.8756 152.348ZM34.1695 150.84C33.9895 150.374 33.8984 149.883 33.8984 149.379V147.981H34.4952V149.379C34.4952 149.809 34.573 150.228 34.7259 150.626L34.1695 150.84ZM93.1661 146.899H92.5694V144.115H93.1661V146.899ZM34.4952 145.197H33.8984V142.414H34.4952V145.197ZM93.1661 141.332H92.5694V138.548H93.1661V141.332ZM34.4952 139.63H33.8984V136.847H34.4952V139.63ZM93.1661 135.765H92.5694V132.981H93.1661V135.765ZM34.4952 134.063H33.8984V131.279H34.4952V134.063ZM93.1661 130.197H92.5694V127.413H93.1661V130.197ZM34.4952 128.496H33.8984V125.712H34.4952V128.496ZM93.1661 124.63H92.5694V121.846H93.1661V124.63ZM34.4952 122.928H33.8984V120.145H34.4952V122.928ZM93.1661 119.063H92.5694V116.279H93.1661V119.063ZM34.4952 117.361H33.8984V114.578H34.4952V117.361ZM93.1661 113.495H92.5694V110.712H93.1661V113.495ZM34.4952 111.794H33.8984V109.01H34.4952V111.794ZM93.1661 107.928H92.5694V105.145H93.1661V107.928ZM34.4952 106.227H33.8984V103.443H34.4952V106.227ZM93.1661 102.361H92.5694V99.5771H93.1661V102.361ZM34.4952 100.66H33.8984V97.8759H34.4952V100.66ZM93.1661 96.7934H92.5694V94.0097H93.1661V96.7934ZM34.4952 95.0921H33.8984V92.3084H34.4952V95.0921ZM93.1661 91.2265H92.5694V88.4427H93.1661V91.2265ZM34.4952 89.5247H33.8984V86.7415H34.4952V89.5247ZM93.1661 85.6596H92.5694V84.2834C92.5694 83.8462 92.4888 83.4206 92.3309 83.0177L92.8863 82.7996C93.0717 83.2722 93.1661 83.7712 93.1661 84.2834V85.6596ZM34.5078 83.9837L33.9133 83.9329C34 82.9233 34.4587 81.9871 35.2067 81.2977L35.6113 81.7359C34.9732 82.3249 34.5813 83.1226 34.5078 83.9837ZM90.6358 81.1735C90.1572 80.9372 89.6416 80.8174 89.104 80.8174H88.0441V80.2207H89.104C89.7343 80.2207 90.3388 80.3609 90.9002 80.638L90.6358 81.1735ZM85.2598 80.818H82.4761V80.2213H85.2598V80.818ZM79.6929 80.818H76.9092V80.2213H79.6929V80.818ZM74.1254 80.818H71.3417V80.2213H74.1254V80.818ZM68.5585 80.818H65.7748V80.2213H68.5585V80.818ZM62.991 80.818H60.2073V80.2213H62.991V80.818ZM57.4241 80.818H54.6404V80.2213H57.4241V80.818ZM51.8567 80.818H49.0729V80.2213H51.8567V80.818ZM46.2897 80.818H43.506V80.2213H46.2897V80.818ZM40.7223 80.818H37.9606L37.9385 80.2213H40.7223V80.818Z" fill="#9DA2FF"/>
<path d="M38.1084 55.9087C38.1084 57.3638 36.9288 58.5439 35.4731 58.5439C34.0175 58.5439 32.8379 57.3643 32.8379 55.9087C32.8379 54.4531 34.0175 53.2734 35.4731 53.2734C36.9288 53.2734 38.1084 54.4536 38.1084 55.9087Z" fill="#9DA2FF"/>
<path opacity="0.2" d="M55.4113 57.4496H42.4845C41.6367 57.4496 40.9434 56.7557 40.9434 55.9084C40.9434 55.0605 41.6372 54.3672 42.4845 54.3672H55.4113C56.2592 54.3672 56.9525 55.0611 56.9525 55.9084C56.9525 56.7562 56.2592 57.4496 55.4113 57.4496Z" fill="#9DA2FF"/>
<path opacity="0.2" d="M117.731 56.7527H108.662C108.195 56.7527 107.816 56.3741 107.816 55.9076C107.816 55.4406 108.195 55.0625 108.662 55.0625H117.731C118.198 55.0625 118.577 55.4412 118.577 55.9076C118.577 56.3746 118.198 56.7527 117.731 56.7527Z" fill="#9DA2FF"/>
<path opacity="0.2" d="M138.084 56.7527H129.013C128.546 56.7527 128.168 56.3741 128.168 55.9076C128.168 55.4406 128.547 55.0625 129.013 55.0625H138.084C138.551 55.0625 138.929 55.4412 138.929 55.9076C138.929 56.3746 138.551 56.7527 138.084 56.7527Z" fill="#9DA2FF"/>
<path opacity="0.2" d="M158.437 56.7527H149.367C148.9 56.7527 148.521 56.3741 148.521 55.9076C148.521 55.4406 148.9 55.0625 149.367 55.0625H158.437C158.904 55.0625 159.282 55.4412 159.282 55.9076C159.282 56.3746 158.904 56.7527 158.437 56.7527Z" fill="#9DA2FF"/>
<path opacity="0.2" d="M178.788 56.7527H169.718C169.251 56.7527 168.873 56.3741 168.873 55.9076C168.873 55.4406 169.252 55.0625 169.718 55.0625H178.788C179.255 55.0625 179.633 55.4412 179.633 55.9076C179.633 56.3746 179.255 56.7527 178.788 56.7527Z" fill="#9DA2FF"/>
<path opacity="0.7" d="M204.833 57.4001H191.111C190.287 57.4001 189.619 56.7322 189.619 55.9081C189.619 55.0839 190.287 54.416 191.111 54.416H204.833C205.657 54.416 206.325 55.0839 206.325 55.9081C206.325 56.7322 205.657 57.4001 204.833 57.4001Z" fill="#9DA2FF"/>
<path opacity="0.7" d="M136.7 158.279H110.992C109.237 158.279 107.814 156.857 107.814 155.102V154.406C107.814 152.651 109.237 151.229 110.992 151.229H136.7C138.454 151.229 139.877 152.651 139.877 154.406V155.102C139.877 156.857 138.454 158.279 136.7 158.279Z" fill="#9DA2FF"/>
<path opacity="0.2" d="M204.635 119.74V92.8998C204.635 92.4328 205.013 92.0547 205.48 92.0547C205.947 92.0547 206.325 92.4334 206.325 92.8998V119.74C206.325 120.207 205.947 120.585 205.48 120.585C205.013 120.585 204.635 120.206 204.635 119.74Z" fill="#9DA2FF"/>
<path opacity="0.2" d="M205.48 128.241C205.947 128.241 206.325 127.863 206.325 127.396C206.325 126.929 205.947 126.551 205.48 126.551C205.013 126.551 204.635 126.929 204.635 127.396C204.635 127.863 205.013 128.241 205.48 128.241Z" fill="#9DA2FF"/>
<path opacity="0.2" d="M205.48 140.175C205.947 140.175 206.325 139.796 206.325 139.329C206.325 138.863 205.947 138.484 205.48 138.484C205.013 138.484 204.635 138.863 204.635 139.329C204.635 139.796 205.013 140.175 205.48 140.175Z" fill="#9DA2FF"/>
<path opacity="0.2" d="M205.48 152.106C205.947 152.106 206.325 151.728 206.325 151.261C206.325 150.794 205.947 150.416 205.48 150.416C205.013 150.416 204.635 150.794 204.635 151.261C204.635 151.728 205.013 152.106 205.48 152.106Z" fill="#9DA2FF"/>
<path opacity="0.2" d="M179.982 94.0733H114.591C110.864 94.0733 107.814 91.0235 107.814 87.2964C107.814 83.5693 110.864 80.5195 114.591 80.5195H179.982C183.709 80.5195 186.759 83.5693 186.759 87.2964C186.759 91.0235 183.709 94.0733 179.982 94.0733Z" fill="#9DA2FF"/>
<path opacity="0.2" d="M155.983 113.747H114.593C110.866 113.747 107.816 110.697 107.816 106.97C107.816 103.243 110.866 100.193 114.593 100.193H155.983C159.71 100.193 162.76 103.243 162.76 106.97C162.759 110.698 159.71 113.747 155.983 113.747Z" fill="#9DA2FF"/>
<path d="M168.17 129.595H109.401C108.53 129.595 107.816 128.882 107.816 128.011C107.816 127.139 108.53 126.426 109.401 126.426H168.17C169.042 126.426 169.755 127.139 169.755 128.011C169.755 128.882 169.041 129.595 168.17 129.595Z" fill="#EBEBEB"/>
<path d="M181.977 129.595H175.966C175.094 129.595 174.381 128.882 174.381 128.011C174.381 127.139 175.094 126.426 175.966 126.426H181.977C182.849 126.426 183.562 127.139 183.562 128.011C183.562 128.882 182.849 129.595 181.977 129.595Z" fill="#EBEBEB"/>
<path d="M135.288 132.984H160.555C161.427 132.984 162.14 133.698 162.14 134.569C162.14 135.441 161.427 136.154 160.555 136.154H135.288C134.416 136.154 133.703 135.441 133.703 134.569C133.703 133.698 134.416 132.984 135.288 132.984Z" fill="#EBEBEB"/>
<path d="M109.401 132.984H127.491C128.362 132.984 129.076 133.698 129.076 134.569C129.076 135.441 128.362 136.154 127.491 136.154H109.401C108.53 136.154 107.816 135.441 107.816 134.569C107.816 133.698 108.529 132.984 109.401 132.984Z" fill="#EBEBEB"/>
<path d="M144.996 142.713H109.399C108.528 142.713 107.814 141.999 107.814 141.128C107.814 140.256 108.528 139.543 109.399 139.543H144.996C145.868 139.543 146.581 140.256 146.581 141.128C146.581 141.999 145.868 142.713 144.996 142.713Z" fill="#EBEBEB"/>
<path d="M170.883 142.713H152.794C151.922 142.713 151.209 141.999 151.209 141.128C151.209 140.256 151.922 139.543 152.794 139.543H170.883C171.755 139.543 172.468 140.256 172.468 141.128C172.469 141.999 171.756 142.713 170.883 142.713Z" fill="#EBEBEB"/>
<path d="M137.999 236.014C197.109 236.014 245.026 233.216 245.026 229.764C245.026 226.312 197.109 223.514 137.999 223.514C78.8902 223.514 30.9727 226.312 30.9727 229.764C30.9727 233.216 78.8902 236.014 137.999 236.014Z" fill="#31324E"/>
<path d="M121.362 141.381L70.9924 150.971C68.9859 151.353 67.0494 150.036 66.6675 148.029L54.4683 83.9534C54.0863 81.9469 55.4034 80.0105 57.4099 79.6285L107.779 70.0386C109.786 69.6566 111.722 70.9737 112.104 72.9802L124.303 137.056C124.685 139.062 123.368 140.999 121.362 141.381Z" fill="#9DA2FF"/>
<g opacity="0.2">
<path d="M69.0646 148.752C69.0205 148.752 68.9763 148.741 68.9349 148.719C68.8002 148.648 68.75 148.48 68.8217 148.346L109.464 72.4037C109.536 72.269 109.703 72.2187 109.838 72.2905C109.972 72.3623 110.022 72.5301 109.951 72.6642L69.3086 148.606C69.2584 148.699 69.1629 148.752 69.0646 148.752Z" fill="white"/>
<path d="M122.238 138.627C122.175 138.627 122.111 138.606 122.059 138.562L56.3555 82.8677C56.239 82.7689 56.2247 82.595 56.3235 82.4785C56.4217 82.3621 56.5962 82.3477 56.7126 82.4465L122.417 138.141C122.533 138.24 122.547 138.414 122.449 138.53C122.394 138.594 122.316 138.627 122.238 138.627Z" fill="white"/>
</g>
<path d="M115.793 145.766C115.793 145.766 122.995 170.79 125.918 183.078C128.986 195.983 138.115 215.492 138.874 224.046C139.663 224.36 142.22 224.007 143.585 223.347C143.585 223.347 142.333 196.073 134.916 183.649C136.591 153.079 128.294 145.766 128.294 145.766H115.793Z" fill="#9DA2FF"/>
<path opacity="0.1" d="M125.122 158.336L121.072 164.558C122.356 169.25 123.669 174.141 124.743 178.349C125.87 171.064 125.122 158.336 125.122 158.336Z" fill="black"/>
<path d="M130.654 124.206C130.772 124.55 130.85 124.795 130.936 125.077C131.021 125.352 131.092 125.624 131.166 125.896C131.314 126.44 131.431 126.987 131.549 127.533C131.769 128.627 131.942 129.732 132.046 130.851C132.165 131.966 132.208 133.098 132.189 134.236C132.191 135.372 132.067 136.525 131.913 137.672L131.887 137.859C131.87 137.986 131.837 138.116 131.794 138.232C131.525 138.957 131.13 139.57 130.697 140.047C130.264 140.529 129.808 140.899 129.358 141.208C128.458 141.814 127.561 142.173 126.695 142.459C125.822 142.733 124.966 142.913 124.114 143.031C123.25 143.144 122.439 143.204 121.528 143.18C120.697 143.159 120.041 142.467 120.063 141.637C120.078 141.044 120.435 140.541 120.938 140.309L121.065 140.251C121.696 139.962 122.408 139.658 123.048 139.34C123.696 139.022 124.323 138.692 124.881 138.336C125.446 137.994 125.935 137.602 126.276 137.254C126.617 136.902 126.709 136.585 126.654 136.561L126.536 137.121C126.552 136.209 126.549 135.296 126.478 134.366C126.408 133.44 126.307 132.508 126.161 131.574C126.011 130.642 125.849 129.707 125.641 128.781C125.541 128.317 125.428 127.857 125.317 127.4L125.143 126.723L124.978 126.11L124.936 125.951C124.507 124.356 125.452 122.715 127.047 122.286C128.575 121.876 130.146 122.735 130.654 124.206Z" fill="#FF8B7B"/>
<path d="M123.416 140.345L119.811 139.317C119.295 139.17 118.743 139.212 118.255 139.435L116.908 140.052C116.247 140.354 115.964 141.141 116.28 141.795L116.91 143.1C117.171 143.639 117.768 143.93 118.353 143.803L120.771 143.278C120.771 143.278 123.486 143.455 124.445 141.843L123.416 140.345Z" fill="#FF8B7B"/>
<path d="M126.681 119.143C124.747 121.151 123.715 124.168 125.28 129.936C127.345 130.96 132.347 129.632 132.347 129.632C132.347 129.632 132.418 120.964 126.681 119.143Z" fill="#9DA2FF"/>
<path opacity="0.7" d="M126.681 119.143C124.747 121.151 123.715 124.168 125.28 129.936C127.345 130.96 132.347 129.632 132.347 129.632C132.347 129.632 132.418 120.964 126.681 119.143Z" fill="white"/>
<path d="M130.183 123.168C130.082 123.171 130.005 123.255 130.008 123.355C130.011 123.453 130.092 123.53 130.189 123.53C130.191 123.53 130.193 123.53 130.196 123.53L131.098 123.497C131.046 123.377 130.992 123.259 130.936 123.141L130.183 123.168Z" fill="#263238"/>
<path d="M129.975 126.736C129.899 126.671 129.784 126.681 129.72 126.758C129.656 126.835 129.666 126.949 129.742 127.014L132.339 129.198C132.333 129.06 132.323 128.893 132.309 128.699L129.975 126.736Z" fill="#263238"/>
<path d="M124.73 127.377L127.65 125.542C127.735 125.488 127.76 125.377 127.707 125.292C127.654 125.207 127.542 125.182 127.457 125.234L124.668 126.988C124.685 127.114 124.709 127.248 124.73 127.377Z" fill="#9DA2FF"/>
<path d="M121.733 110.506C121.371 113.042 121.109 117.639 122.906 119.08C122.906 119.08 120.538 119.017 115.979 122.677C114.297 120.803 115.279 120.019 115.279 120.019C117.984 119.023 117.815 116.982 117.245 115.117L121.733 110.506Z" fill="#FF8B7B"/>
<path d="M114.573 107.411C114.489 107.742 114.249 107.979 114.036 107.941C113.822 107.903 113.717 107.603 113.8 107.272C113.883 106.941 114.123 106.704 114.337 106.742C114.551 106.781 114.656 107.08 114.573 107.411Z" fill="#263238"/>
<path d="M114.428 106.778L113.701 106.408C113.701 106.408 113.947 107.102 114.428 106.778Z" fill="#263238"/>
<path d="M114.432 108.037C114.432 108.037 113.519 109.362 112.736 109.941C113.065 110.426 113.845 110.371 113.845 110.371L114.432 108.037Z" fill="#FF5652"/>
<path d="M114.292 104.678C114.271 104.633 114.267 104.582 114.284 104.534C114.321 104.436 114.436 104.388 114.542 104.428C115.602 104.828 115.841 105.698 115.85 105.736C115.877 105.84 115.812 105.941 115.703 105.962C115.595 105.982 115.485 105.914 115.457 105.81C115.448 105.776 115.253 105.103 114.41 104.785C114.356 104.764 114.314 104.725 114.292 104.678Z" fill="#263238"/>
<path d="M125.656 108.139C124.496 112.032 124.088 113.701 121.623 115.369C117.917 117.879 113.391 115.875 113.365 111.781C113.342 108.094 115.243 102.347 119.472 101.462C123.638 100.59 126.815 104.246 125.656 108.139Z" fill="#FF8B7B"/>
<path d="M116.643 108.382C114.337 106.743 115.46 103.731 117.577 103.639C114.817 101.707 116.256 98.2117 119.631 98.3497C123.005 98.4877 123.483 100.558 123.483 100.558C123.483 100.558 128.924 100.834 129.687 104.79C130.587 109.444 127.743 112.426 124.247 113.806C126.624 115.756 121.015 117.124 118.225 115.554C115.365 113.944 114.376 110.456 116.643 108.382Z" fill="#263238"/>
<path d="M129.447 103.153C126.479 102.605 124.992 106.707 126.923 109.104C127.26 109.522 127.594 109.826 127.917 110.043C129.127 110.857 130.771 110.023 130.89 108.57C131.05 106.598 131.048 103.449 129.447 103.153Z" fill="white"/>
<path d="M137.501 105.251C137.72 105.086 137.865 104.88 137.893 104.62C138.02 103.461 137.141 102.709 136.084 102.543C135.45 100.525 132.772 100.488 131.265 101.933C130.033 101.304 128.66 102.689 128.828 104.135C127.528 104.719 127.192 106.874 128.373 108.121C128.622 108.383 128.862 108.569 129.091 108.698C129.149 108.731 129.209 108.745 129.269 108.768C129.373 109.6 130.048 110.451 131.014 110.641C131.3 110.697 131.545 110.707 131.755 110.684C132.15 110.642 132.445 110.39 132.584 110.068C133.448 110.777 134.369 111.239 135.025 110.781C135.715 110.3 135.991 109.612 135.966 108.901C136.421 109.08 136.85 109.1 137.203 108.854C138.469 107.973 138.362 106.394 137.501 105.251Z" fill="#263238"/>
<path d="M117.911 108.964C117.429 109.743 116.715 110.184 116.085 110.291C115.137 110.453 114.833 109.355 115.237 108.324C115.601 107.396 116.533 106.193 117.416 106.506C118.286 106.814 118.461 108.075 117.911 108.964Z" fill="#FF8B7B"/>
<path d="M116.643 106.077C117.453 104.528 121.9 100.293 124.859 100.45C125.625 100.657 126.251 100.955 126.606 101.146C126.703 101.199 126.675 101.343 126.565 101.356C125.404 101.492 121.637 102.361 118.105 107.917C117.3 107.388 116.643 106.077 116.643 106.077Z" fill="#9DA2FF"/>
<path d="M118.417 109.228C117.703 110.815 116.272 111.717 115.219 111.244C114.166 110.77 113.89 109.101 114.603 107.514C115.317 105.928 116.748 105.026 117.801 105.499C118.854 105.972 119.129 107.642 118.417 109.228Z" fill="white"/>
<path d="M117.544 108.836C116.9 110.268 115.667 111.109 114.788 110.715C113.91 110.32 113.72 108.838 114.364 107.406C115.008 105.974 116.242 105.132 117.121 105.527C117.998 105.922 118.188 107.403 117.544 108.836Z" fill="#9DA2FF"/>
<path d="M136.492 229.748C139.593 229.288 139.653 228.772 141.316 228.189C142.74 227.687 143.141 227.759 144.289 227.371C145.249 227.048 144.924 226.134 144.292 225.163C143.976 224.675 143.93 224.211 143.584 223.348L138.874 224.046C138.415 225.362 138.253 227.044 135.564 228.007C133.962 228.58 135.256 229.931 136.492 229.748Z" fill="#263238"/>
<path d="M107.767 229.76C110.848 229.754 111.441 229.557 113.173 229.498C114.657 229.444 114.901 229.76 116.406 229.76C117.403 229.76 117.54 228.637 117.175 227.795C116.891 227.139 116.848 226.355 116.641 225.504H112.392C111.625 226.851 109.535 227.848 107.199 228.014C105.531 228.138 106.533 229.76 107.767 229.76Z" fill="#263238"/>
<path d="M111.37 145.766C111.37 145.766 110.756 167.937 112.069 182.016C111.987 195.234 112.394 225.503 112.394 225.503C112.496 226.178 116.042 225.909 116.643 225.503C116.643 225.503 123.282 203.456 120.335 182.016C127.713 159.656 126.121 145.766 126.121 145.766H111.37Z" fill="#9DA2FF"/>
<path d="M138.254 222.333C138.304 222.762 138.376 223.514 138.349 224.099C138.34 224.31 138.506 224.48 138.717 224.482C140.483 224.502 142.919 223.732 143.689 223.472C143.837 223.422 143.934 223.285 143.936 223.129L143.95 221.462C143.953 221.234 143.748 221.059 143.523 221.097L138.557 221.932C138.366 221.964 138.232 222.139 138.254 222.333Z" fill="#9DA2FF"/>
<path opacity="0.5" d="M138.254 222.333C138.304 222.762 138.376 223.514 138.349 224.099C138.34 224.31 138.506 224.48 138.717 224.482C140.483 224.502 142.919 223.732 143.689 223.472C143.837 223.422 143.934 223.285 143.936 223.129L143.95 221.462C143.953 221.234 143.748 221.059 143.523 221.097L138.557 221.932C138.366 221.964 138.232 222.139 138.254 222.333Z" fill="white"/>
<path d="M111.907 223.641C111.894 224.1 111.867 224.918 111.825 225.523C111.811 225.723 111.96 225.899 112.161 225.927C113.664 226.134 116.062 225.946 116.849 225.875C117.005 225.861 117.128 225.748 117.157 225.595L117.474 223.949C117.517 223.724 117.342 223.507 117.111 223.498L112.271 223.305C112.073 223.297 111.912 223.444 111.907 223.641Z" fill="#9DA2FF"/>
<path opacity="0.5" d="M111.907 223.641C111.894 224.1 111.867 224.918 111.825 225.523C111.811 225.723 111.96 225.899 112.161 225.927C113.664 226.134 116.062 225.946 116.849 225.875C117.005 225.861 117.128 225.748 117.157 225.595L117.474 223.949C117.517 223.724 117.342 223.507 117.111 223.498L112.271 223.305C112.073 223.297 111.912 223.444 111.907 223.641Z" fill="white"/>
<path d="M108.562 127.186C108.714 128.843 108.904 130.942 109.618 134.856C110.159 138.177 110.557 141.416 111.343 146.893C118.95 147.692 127.901 147.048 128.294 145.766C127.693 141.024 127.711 134.625 129.417 123.608C129.813 121.053 127.962 118.875 125.44 118.929C124.766 118.943 124.054 118.973 123.325 119.028C120.492 119.238 118.171 119.433 115.697 119.967C114.878 120.144 114.031 120.354 113.224 120.569C110.31 121.345 108.289 124.215 108.562 127.186Z" fill="#9DA2FF"/>
<path opacity="0.8" d="M108.562 127.186C108.714 128.843 108.904 130.942 109.618 134.856C110.159 138.177 110.557 141.416 111.343 146.893C118.95 147.692 127.901 147.048 128.294 145.766C127.693 141.024 127.711 134.625 129.417 123.608C129.813 121.053 127.962 118.875 125.44 118.929C124.766 118.943 124.054 118.973 123.325 119.028C120.492 119.238 118.171 119.433 115.697 119.967C114.878 120.144 114.031 120.354 113.224 120.569C110.31 121.345 108.289 124.215 108.562 127.186Z" fill="white"/>
<path d="M109.924 122.76L110.808 123.87C110.844 123.915 110.897 123.938 110.95 123.938C110.99 123.938 111.029 123.926 111.063 123.899C111.141 123.836 111.154 123.722 111.092 123.644L110.162 122.477C110.08 122.569 110.001 122.663 109.924 122.76Z" fill="#263238"/>
<path d="M113.973 122.108C113.976 122.108 113.98 122.109 113.984 122.109C114.079 122.109 114.159 122.035 114.165 121.939L114.268 120.303C114.144 120.334 114.022 120.366 113.899 120.397L113.803 121.916C113.797 122.016 113.873 122.102 113.973 122.108Z" fill="#9DA2FF"/>
<path d="M121.909 123.57C121.94 123.59 121.974 123.6 122.009 123.6C122.067 123.6 122.125 123.571 122.16 123.519C122.215 123.436 122.192 123.323 122.109 123.268L117.467 120.202C117.384 120.147 117.271 120.169 117.216 120.253C117.16 120.337 117.183 120.449 117.267 120.505L121.909 123.57Z" fill="#9DA2FF"/>
<path d="M113.989 124.598C113.953 124.691 113.998 124.796 114.092 124.833L119.272 126.86C119.294 126.869 119.316 126.873 119.339 126.873C119.411 126.873 119.479 126.829 119.507 126.758C119.544 126.664 119.497 126.559 119.405 126.523L114.224 124.495C114.131 124.458 114.026 124.504 113.989 124.598Z" fill="#263238"/>
<path d="M110.997 133.82C111.027 133.84 111.062 133.849 111.095 133.849C111.154 133.849 111.213 133.82 111.248 133.767L114.266 129.094C114.32 129.01 114.296 128.897 114.212 128.843C114.128 128.789 114.016 128.813 113.961 128.897L110.943 133.57C110.889 133.654 110.913 133.766 110.997 133.82Z" fill="#9DA2FF"/>
<path d="M109.52 129.739C109.555 129.772 109.599 129.788 109.644 129.788C109.693 129.788 109.741 129.769 109.777 129.731C109.845 129.658 109.841 129.543 109.768 129.475L108.684 128.459C108.701 128.636 108.721 128.819 108.742 129.01L109.52 129.739Z" fill="#9DA2FF"/>
<path d="M125.895 132.83C125.801 132.865 125.752 132.969 125.786 133.063C125.813 133.136 125.883 133.182 125.957 133.182C125.978 133.182 125.999 133.179 126.019 133.171L128.314 132.332C128.326 132.2 128.34 132.065 128.353 131.932L125.895 132.83Z" fill="#9DA2FF"/>
<path d="M124.912 129.09C124.945 129.09 124.978 129.08 125.008 129.062L128.987 126.561C129.009 126.405 129.03 126.25 129.052 126.092L124.815 128.755C124.731 128.808 124.705 128.92 124.758 129.005C124.792 129.06 124.851 129.09 124.912 129.09Z" fill="#9DA2FF"/>
<path d="M122.195 129.79C122.142 129.705 122.03 129.68 121.945 129.732L117.235 132.693C117.15 132.746 117.125 132.858 117.178 132.943C117.213 132.997 117.271 133.028 117.331 133.028C117.365 133.028 117.398 133.018 117.428 133L122.138 130.04C122.223 129.986 122.248 129.874 122.195 129.79Z" fill="#9DA2FF"/>
<path d="M126.167 123.52C126.188 123.52 126.21 123.517 126.231 123.509C126.325 123.473 126.372 123.369 126.336 123.275L124.706 118.953C124.579 118.958 124.453 118.962 124.324 118.968L125.997 123.403C126.024 123.476 126.093 123.52 126.167 123.52Z" fill="#263238"/>
<path d="M121.492 146.138C121.409 146.082 121.296 146.105 121.241 146.189C121.186 146.273 121.209 146.386 121.292 146.44L122.325 147.122C122.527 147.109 122.725 147.095 122.92 147.08L121.492 146.138Z" fill="#9DA2FF"/>
<path d="M128.148 144.42L124.128 142.847C124.035 142.81 123.93 142.856 123.893 142.949C123.857 143.043 123.903 143.148 123.996 143.184L128.186 144.823C128.171 144.692 128.16 144.554 128.148 144.42Z" fill="#9DA2FF"/>
<path d="M111.162 145.619C111.178 145.731 111.193 145.839 111.209 145.953C111.275 145.924 111.327 145.869 111.324 145.792C111.321 145.701 111.248 145.619 111.162 145.619Z" fill="#263238"/>
<path d="M111.112 140.065C111.164 140.065 111.215 140.042 111.25 140C111.315 139.923 111.305 139.809 111.228 139.744L110.225 138.9C110.249 139.078 110.275 139.256 110.3 139.438L110.995 140.022C111.029 140.051 111.07 140.065 111.112 140.065Z" fill="#9DA2FF"/>
<path d="M119.593 138.249C119.666 138.249 119.734 138.205 119.762 138.134C119.799 138.04 119.753 137.936 119.66 137.899L114.48 135.87C114.387 135.833 114.282 135.879 114.245 135.973C114.208 136.066 114.254 136.171 114.348 136.207L119.527 138.236C119.549 138.245 119.571 138.249 119.593 138.249Z" fill="#263238"/>
<path d="M118.393 140.645L113.682 143.605C113.598 143.659 113.572 143.77 113.626 143.855C113.66 143.91 113.719 143.94 113.779 143.94C113.812 143.94 113.845 143.931 113.875 143.912L118.585 140.952C118.67 140.899 118.696 140.787 118.642 140.702C118.589 140.617 118.477 140.592 118.393 140.645Z" fill="#9DA2FF"/>
<path d="M122.741 139.238C122.775 139.293 122.834 139.323 122.894 139.323C122.928 139.323 122.961 139.314 122.99 139.295L127.701 136.335C127.785 136.282 127.811 136.17 127.758 136.085C127.705 136 127.592 135.975 127.507 136.028L122.797 138.988C122.713 139.042 122.687 139.153 122.741 139.238Z" fill="#263238"/>
<path d="M117.403 146.305C117.368 146.211 117.264 146.164 117.17 146.199C117.077 146.235 117.029 146.339 117.064 146.433L117.367 147.236C117.497 147.238 117.627 147.24 117.757 147.241L117.403 146.305Z" fill="#263238"/>
<path d="M113.57 127.296C113.528 127.656 113.493 127.911 113.449 128.203C113.406 128.487 113.35 128.764 113.299 129.041C113.191 129.593 113.07 130.139 112.942 130.683C112.673 131.767 112.35 132.838 111.963 133.892C111.588 134.95 111.14 135.99 110.632 137.009C110.145 138.035 109.536 139.023 108.903 139.99L108.789 140.165C108.722 140.267 108.639 140.364 108.555 140.445C107.543 141.403 106.627 142.041 105.682 142.706C104.746 143.359 103.793 143.956 102.843 144.544C101.885 145.121 100.924 145.681 99.9478 146.215C98.9614 146.737 97.9904 147.263 96.9687 147.74C96.218 148.091 95.3248 147.767 94.9738 147.017C94.6928 146.416 94.844 145.725 95.2994 145.292L95.3127 145.281C96.1043 144.531 96.9328 143.81 97.7376 143.074L100.176 140.914C100.992 140.207 101.784 139.482 102.566 138.779C102.956 138.425 103.332 138.071 103.691 137.718L104.203 137.201C104.368 137.033 104.49 136.881 104.637 136.723L104.289 137.177C104.697 136.361 105.087 135.536 105.423 134.666C105.759 133.8 106.07 132.915 106.341 132.01C106.608 131.105 106.861 130.19 107.077 129.265C107.187 128.804 107.292 128.341 107.383 127.88L107.628 126.57L107.659 126.402C107.963 124.779 109.526 123.708 111.149 124.013C112.701 124.301 113.745 125.751 113.57 127.296Z" fill="#FF8B7B"/>
<path d="M96.7541 145.161L93.6579 144.245C93.1429 144.093 92.5909 144.129 92.1007 144.348L90.7478 144.95C90.0837 145.246 89.7928 146.03 90.1025 146.688L90.7202 147.999C90.9757 148.541 91.5692 148.837 92.1559 148.716L94.5787 148.215C94.5787 148.215 95.7809 148.305 96.8728 147.894C97.7372 147.567 98.059 146.508 97.5434 145.741C97.3552 145.462 97.0764 145.257 96.7541 145.161Z" fill="#FF8B7B"/>
<path d="M112.167 121.016C109.557 121.995 107.325 124.272 106.252 130.152C107.674 131.965 112.761 132.922 112.761 132.922C112.761 132.922 116.559 125.131 112.167 121.016Z" fill="#9DA2FF"/>
<path opacity="0.8" d="M112.167 121.016C109.557 121.995 107.325 124.272 106.252 130.152C107.674 131.965 112.761 132.922 112.761 132.922C112.761 132.922 116.559 125.131 112.167 121.016Z" fill="white"/>
<path d="M110.81 123.869C110.846 123.914 110.899 123.938 110.952 123.938C110.991 123.938 111.031 123.925 111.064 123.898C111.143 123.836 111.156 123.722 111.094 123.644L109.998 122.268C109.906 122.344 109.815 122.424 109.725 122.507L110.81 123.869Z" fill="#263238"/>
<path d="M113.989 124.599C113.953 124.692 113.998 124.797 114.092 124.833L114.153 124.857C114.133 124.737 114.111 124.617 114.085 124.498C114.043 124.516 114.007 124.552 113.989 124.599Z" fill="#263238"/>
<path d="M111.914 132.736L113.866 129.714C113.934 129.431 113.998 129.138 114.054 128.834C114.019 128.847 113.984 128.864 113.962 128.897L111.541 132.646C111.675 132.679 111.798 132.708 111.914 132.736Z" fill="#9DA2FF"/>
<path d="M109.52 129.738C109.555 129.771 109.6 129.787 109.644 129.787C109.693 129.787 109.741 129.768 109.777 129.73C109.845 129.657 109.841 129.542 109.768 129.474L107.066 126.943C107.023 127.069 106.981 127.192 106.939 127.322L109.52 129.738Z" fill="#9DA2FF"/>
<path d="M184.375 180.958C183.605 177.967 184.533 176.828 185.623 175.635C186.713 174.441 186.585 172.447 186.585 172.447C186.585 172.447 188.279 175.815 187.782 179.798C187.286 183.78 184.938 183.142 184.375 180.958Z" fill="#263238"/>
<path d="M189.108 205.082C187.966 203.167 183.102 199.126 179.408 200.713C182.361 201.94 185.619 209.405 189.989 209.092C189.237 205.667 189.108 205.082 189.108 205.082Z" fill="#263238"/>
<path d="M192.547 221.663C192.313 221.663 192.101 221.503 192.043 221.267C191.331 218.344 185.021 192.177 182.55 173.602C182.511 173.318 182.711 173.057 182.996 173.019C183.282 172.978 183.541 173.181 183.578 173.465C186.043 191.987 192.342 218.104 193.052 221.021C193.12 221.3 192.949 221.581 192.67 221.649C192.629 221.658 192.587 221.663 192.547 221.663Z" fill="#9DA2FF"/>
<path d="M183.829 174.73C183.896 172.538 182.873 171.189 180.305 170.954C177.737 170.718 176.925 169.648 176.445 168.648C177.311 173.694 183.361 174.956 183.95 177.446C183.829 175.58 183.829 174.73 183.829 174.73Z" fill="#9DA2FF"/>
<path d="M184.981 183.055C184.77 180.758 182.916 180.442 180.804 180.165C178.692 179.888 177.991 178.533 177.991 178.533C177.991 178.533 177.03 181.499 179.521 183.861C182.011 186.224 185.136 184.733 184.981 183.055Z" fill="#9DA2FF"/>
<path d="M188.493 203.328C188.129 200.762 189.889 199.7 189.616 195.934C194.657 204.551 189.065 207.354 188.493 203.328Z" fill="#9DA2FF"/>
<path d="M186.134 192.861C184.712 190.695 182.689 191.061 180.404 188.055C182.317 197.853 188.366 196.26 186.134 192.861Z" fill="#9DA2FF"/>
<path d="M196.76 193.373C196.886 189.909 193.673 188.081 191.215 184.619C192.71 191.51 196.564 198.809 196.76 193.373Z" fill="#263238"/>
<path d="M195.181 218.543C195.165 218.543 195.149 218.542 195.133 218.541C194.797 218.515 194.546 218.221 194.572 217.885C195.147 210.607 197.178 179.236 196.609 158.724C196.6 158.388 196.865 158.107 197.202 158.098C197.559 158.094 197.819 158.354 197.828 158.691C198.398 179.256 196.364 210.689 195.788 217.981C195.763 218.3 195.496 218.543 195.181 218.543Z" fill="#9DA2FF"/>
<path d="M196.754 160.37C195.983 156.173 197.558 153.278 202.431 152.073C207.303 150.867 208.552 148.571 209.182 146.508C208.992 156.469 197.72 160.667 197.316 165.632C197.003 162.006 196.754 160.37 196.754 160.37Z" fill="#9DA2FF"/>
<path d="M197.129 168.855C197.909 163.824 194.111 162.154 189.74 160.429C185.369 158.703 184.596 155.428 184.596 155.428C184.596 155.428 180.949 161.259 185.012 167.65C189.075 174.042 196.559 172.527 197.129 168.855Z" fill="#9DA2FF"/>
<path d="M197.106 181.707C197.945 177.715 201.264 177.538 205.029 177.481C208.794 177.424 210.3 175.188 210.3 175.188C210.3 175.188 211.384 180.59 206.53 184.231C201.676 187.874 196.494 184.621 197.106 181.707Z" fill="#9DA2FF"/>
<path d="M196.404 201.096C197.317 198.641 202.08 192.939 206.684 193.989C203.532 196.033 201.354 205.35 196.238 205.916C196.38 201.8 196.404 201.096 196.404 201.096Z" fill="#9DA2FF"/>
<path d="M200.807 213.156H185.445C184.594 213.156 183.981 213.976 184.223 214.792L188.381 228.845C188.541 229.387 189.038 229.758 189.603 229.758H196.649C197.214 229.758 197.711 229.387 197.871 228.845L202.029 214.792C202.27 213.976 201.659 213.156 200.807 213.156Z" fill="#9DA2FF"/>
<path opacity="0.2" d="M200.807 213.156H185.445C184.594 213.156 183.981 213.976 184.223 214.792L188.381 228.845C188.541 229.387 189.038 229.758 189.603 229.758H196.649C197.214 229.758 197.711 229.387 197.871 228.845L202.029 214.792C202.27 213.976 201.659 213.156 200.807 213.156Z" fill="#9DA2FF"/>
<path opacity="0.7" d="M200.807 213.156H185.445C184.594 213.156 183.981 213.976 184.223 214.792L188.381 228.845C188.541 229.387 189.038 229.758 189.603 229.758H196.649C197.214 229.758 197.711 229.387 197.871 228.845L202.029 214.792C202.27 213.976 201.659 213.156 200.807 213.156Z" fill="white"/>
</svg>
