<svg width="35" height="35" viewBox="0 0 35 35" fill="none" xmlns="http://www.w3.org/2000/svg">
<rect width="35" height="35" rx="8" fill="#7A81FD"/>
<path d="M24.7416 11.9082L16.4083 20.2415C16.3312 20.3188 16.2396 20.38 16.1388 20.4219C16.038 20.4637 15.9299 20.4852 15.8208 20.4852C15.7116 20.4852 15.6036 20.4637 15.5028 20.4219C15.4019 20.38 15.3104 20.3188 15.2333 20.2415L12.8749 17.8832C12.7978 17.806 12.7366 17.7144 12.6948 17.6136C12.6531 17.5128 12.6316 17.4048 12.6316 17.2957C12.6316 17.1866 12.6531 17.0785 12.6948 16.9777C12.7366 16.8769 12.7978 16.7853 12.8749 16.7082C12.9521 16.631 13.0437 16.5698 13.1445 16.5281C13.2453 16.4863 13.3533 16.4648 13.4624 16.4648C13.5715 16.4648 13.6796 16.4863 13.7804 16.5281C13.8812 16.5698 13.9728 16.631 14.0499 16.7082L15.8166 18.4748L23.5583 10.7332C23.6354 10.6559 23.7269 10.5946 23.8278 10.5528C23.9286 10.511 24.0366 10.4895 24.1458 10.4895C24.2549 10.4895 24.363 10.511 24.4638 10.5528C24.5646 10.5946 24.6562 10.6559 24.7333 10.7332C25.0666 11.0582 25.0666 11.5832 24.7416 11.9082ZM16.9999 23.6665C13.0749 23.6665 9.93327 20.2582 10.3749 16.2498C10.6999 13.3165 12.9749 10.9082 15.8833 10.4248C17.3916 10.1748 18.8249 10.4415 20.0416 11.0748C20.2383 11.1776 20.4678 11.198 20.6795 11.1316C20.8913 11.0652 21.068 10.9174 21.1708 10.7207C21.2735 10.524 21.294 10.2945 21.2275 10.0827C21.1611 9.87097 21.0133 9.69427 20.8166 9.5915C19.5916 8.9665 18.2083 8.62483 16.7333 8.6665C12.4499 8.79983 8.89161 12.2832 8.67494 16.5582C8.43327 21.3665 12.2499 25.3332 16.9999 25.3332C17.9999 25.3332 18.9499 25.1582 19.8416 24.8332C20.4083 24.6248 20.5666 23.8915 20.1333 23.4582C20.0227 23.3461 19.882 23.2683 19.7283 23.2343C19.5745 23.2003 19.4142 23.2115 19.2666 23.2665C18.5583 23.5248 17.7916 23.6665 16.9999 23.6665ZM22.8333 19.4998H21.1666C20.7083 19.4998 20.3333 19.8748 20.3333 20.3332C20.3333 20.7915 20.7083 21.1665 21.1666 21.1665H22.8333V22.8332C22.8333 23.2915 23.2083 23.6665 23.6666 23.6665C24.1249 23.6665 24.4999 23.2915 24.4999 22.8332V21.1665H26.1666C26.6249 21.1665 26.9999 20.7915 26.9999 20.3332C26.9999 19.8748 26.6249 19.4998 26.1666 19.4998H24.4999V17.8332C24.4999 17.3748 24.1249 16.9998 23.6666 16.9998C23.2083 16.9998 22.8333 17.3748 22.8333 17.8332V19.4998Z" fill="white"/>
</svg>
