<svg width="20" height="20" viewBox="0 0 20 20" fill="none" xmlns="http://www.w3.org/2000/svg">
<path d="M8.14974 7.94444C9.99069 7.94444 11.4831 6.45205 11.4831 4.6111C11.4831 2.77016 9.99069 1.27777 8.14974 1.27777C6.30879 1.27777 4.81641 2.77016 4.81641 4.6111C4.81641 6.45205 6.30879 7.94444 8.14974 7.94444Z" fill="#383A51"/>
<path d="M9.1316 17.6778C8.948 17.4962 8.8282 17.26 8.79014 17.0046C8.75208 16.7492 8.79781 16.4883 8.92049 16.2611L9.21493 15.7056L8.60937 15.5222C8.36244 15.4449 8.14746 15.2892 7.99706 15.0786C7.84666 14.8681 7.76906 14.6142 7.77604 14.3556V13.2167C7.77557 12.9591 7.85796 12.7083 8.01103 12.5012C8.16409 12.2941 8.37972 12.1418 8.62604 12.0667L9.2316 11.8833L8.94271 11.3278C8.82363 11.1037 8.77832 10.8477 8.81323 10.5963C8.84815 10.3449 8.9615 10.111 9.13715 9.92777C8.70975 9.87174 8.27931 9.84206 7.84826 9.83888C6.57511 9.80891 5.31103 10.0603 4.14617 10.575C2.98132 11.0897 1.9444 11.8551 1.10938 12.8167V17.1222C1.10938 17.2696 1.16791 17.4109 1.27209 17.5151C1.37628 17.6192 1.51759 17.6778 1.66493 17.6778H9.1316Z" fill="#383A51"/>
<path d="M18.7239 13.0333L17.6128 12.7C17.5358 12.4256 17.4277 12.1609 17.2906 11.9111L17.8461 10.8778C17.8676 10.8394 17.8754 10.7949 17.8684 10.7515C17.8613 10.7082 17.8397 10.6685 17.8072 10.6389L17.0017 9.82778C16.9706 9.79759 16.9311 9.77766 16.8883 9.7707C16.8456 9.76375 16.8018 9.7701 16.7628 9.78889L15.735 10.3444C15.482 10.207 15.2159 10.0953 14.9406 10.0111L14.6017 8.9C14.5867 8.85903 14.5595 8.82369 14.5237 8.79882C14.4879 8.77395 14.4453 8.76078 14.4017 8.76111H13.2461C13.2028 8.76232 13.1609 8.77683 13.1261 8.80268C13.0913 8.82852 13.0653 8.86444 13.0517 8.90556L12.7183 10.0167C12.4377 10.0983 12.1674 10.212 11.9128 10.3556L10.9072 9.8C10.8681 9.77923 10.8235 9.77127 10.7796 9.77725C10.7358 9.78323 10.6949 9.80285 10.6628 9.83334L9.84611 10.6333C9.81395 10.6643 9.79276 10.7049 9.78575 10.749C9.77873 10.7932 9.78627 10.8383 9.80722 10.8778L10.3628 11.8889C10.2139 12.1398 10.0929 12.4062 10.0017 12.6833L8.89055 13.0222C8.84852 13.0344 8.81164 13.06 8.78555 13.0951C8.75946 13.1302 8.7456 13.1729 8.74611 13.2167V14.3556C8.7456 14.3993 8.75946 14.442 8.78555 14.4771C8.81164 14.5123 8.84852 14.5379 8.89055 14.55L10.0017 14.8889C10.0849 15.161 10.1967 15.4235 10.335 15.6722L9.77944 16.7278C9.75849 16.7672 9.75095 16.8124 9.75797 16.8565C9.76498 16.9006 9.78617 16.9412 9.81833 16.9722L10.6461 17.7778C10.6782 17.8083 10.7191 17.8279 10.763 17.8339C10.8068 17.8399 10.8515 17.8319 10.8906 17.8111L11.9294 17.2556C12.1767 17.3885 12.4374 17.4947 12.7072 17.5722L13.0406 18.7111C13.0545 18.7531 13.0814 18.7897 13.1173 18.8156C13.1531 18.8415 13.1963 18.8555 13.2406 18.8556H14.3794C14.4228 18.8543 14.4647 18.8398 14.4994 18.814C14.5342 18.7882 14.5602 18.7522 14.5739 18.7111L14.9072 17.5722C15.1738 17.4957 15.431 17.3894 15.6739 17.2556L16.7239 17.8111C16.763 17.8319 16.8076 17.8399 16.8515 17.8339C16.8953 17.8279 16.9362 17.8083 16.9683 17.7778L17.7794 16.9722C17.8099 16.9401 17.8295 16.8992 17.8355 16.8554C17.8415 16.8115 17.8336 16.7669 17.8128 16.7278L17.2572 15.6833C17.3901 15.4399 17.4963 15.1829 17.5739 14.9167L18.685 14.5778C18.7267 14.5644 18.7634 14.5386 18.7902 14.5039C18.817 14.4691 18.8326 14.4271 18.835 14.3833V13.2333C18.8364 13.1931 18.8267 13.1532 18.8072 13.1179C18.7876 13.0827 18.7588 13.0535 18.7239 13.0333ZM13.8183 15.6556C13.4511 15.6567 13.0918 15.5488 12.7859 15.3455C12.4801 15.1423 12.2414 14.8529 12.1001 14.514C11.9588 14.175 11.9212 13.8017 11.9922 13.4414C12.0632 13.0811 12.2395 12.75 12.4987 12.4899C12.758 12.2298 13.0886 12.0526 13.4487 11.9805C13.8088 11.9085 14.1822 11.9449 14.5216 12.0852C14.861 12.2254 15.1511 12.4633 15.3552 12.7685C15.5594 13.0738 15.6683 13.4328 15.6683 13.8C15.6683 14.2912 15.4736 14.7623 15.1268 15.1101C14.78 15.4579 14.3095 15.6541 13.8183 15.6556Z" fill="#7A81FD"/>
</svg>
