<svg width="24" height="24" viewBox="0 0 24 24" fill="none" xmlns="http://www.w3.org/2000/svg">
<path d="M16.4444 11.1111C16.7467 11.1111 17.04 11.1467 17.3333 11.1911V6.90667L10.6667 4L4 6.90667V11.2711C4 15.3067 6.84444 19.0844 10.6667 20C11.1556 19.8844 11.6267 19.7156 12.0889 19.5111C11.4756 18.64 11.1111 17.5822 11.1111 16.4444C11.1111 13.5022 13.5022 11.1111 16.4444 11.1111Z" fill="white"/>
<path d="M16.4442 12.8889C14.4798 12.8889 12.8887 14.48 12.8887 16.4445C12.8887 18.4089 14.4798 20 16.4442 20C18.4087 20 19.9998 18.4089 19.9998 16.4445C19.9998 14.48 18.4087 12.8889 16.4442 12.8889ZM16.4442 14.1156C16.9953 14.1156 17.4398 14.5689 17.4398 15.1111C17.4398 15.6534 16.9864 16.1067 16.4442 16.1067C15.902 16.1067 15.4487 15.6534 15.4487 15.1111C15.4487 14.5689 15.8931 14.1156 16.4442 14.1156ZM16.4442 18.8889C15.6176 18.8889 14.8976 18.48 14.4531 17.8489C14.4976 17.2089 15.7953 16.8889 16.4442 16.8889C17.0931 16.8889 18.3909 17.2089 18.4353 17.8489C17.9909 18.48 17.2709 18.8889 16.4442 18.8889Z" fill="#7A81FD"/>
</svg>
