<svg width="16" height="16" viewBox="0 0 16 16" fill="none" xmlns="http://www.w3.org/2000/svg">
<path d="M12.4444 7.11111C12.7467 7.11111 13.04 7.14667 13.3333 7.19111V2.90667L6.66667 0L0 2.90667V7.27111C0 11.3067 2.84444 15.0844 6.66667 16C7.15556 15.8844 7.62667 15.7156 8.08889 15.5111C7.47556 14.64 7.11111 13.5822 7.11111 12.4444C7.11111 9.50222 9.50222 7.11111 12.4444 7.11111Z" fill="#ffffff"/>
<path d="M12.4442 8.88892C10.4798 8.88892 8.88867 10.48 8.88867 12.4445C8.88867 14.4089 10.4798 16 12.4442 16C14.4087 16 15.9998 14.4089 15.9998 12.4445C15.9998 10.48 14.4087 8.88892 12.4442 8.88892ZM12.4442 10.1156C12.9953 10.1156 13.4398 10.5689 13.4398 11.1111C13.4398 11.6534 12.9864 12.1067 12.4442 12.1067C11.902 12.1067 11.4487 11.6534 11.4487 11.1111C11.4487 10.5689 11.8931 10.1156 12.4442 10.1156ZM12.4442 14.8889C11.6176 14.8889 10.8976 14.48 10.4531 13.8489C10.4976 13.2089 11.7953 12.8889 12.4442 12.8889C13.0931 12.8889 14.3909 13.2089 14.4353 13.8489C13.9909 14.48 13.2709 14.8889 12.4442 14.8889Z" fill="#ffffff"/>
</svg>
