<svg width="22" height="20" viewBox="0 0 22 20" fill="none" xmlns="http://www.w3.org/2000/svg">
<path d="M6 14.5L5.5 6L17 5V14L6 14.5Z" fill="#7A81FD"/>
<path d="M14.0488 19C17.461 19 19.1675 19 20.2271 17.9452C21.2875 16.8913 21.2875 15.1939 21.2875 11.8V8.2C21.2875 4.8061 21.2875 3.1087 20.2271 2.0548C19.1675 1 17.461 1 14.0488 1M16.7633 8.875C16.9433 8.875 17.1159 8.80388 17.2432 8.6773C17.3705 8.55071 17.442 8.37902 17.442 8.2C17.442 8.02098 17.3705 7.84929 17.2432 7.7227C17.1159 7.59612 16.9433 7.525 16.7633 7.525M14.0488 12.475C14.2288 12.475 14.4014 12.4039 14.5287 12.2773C14.656 12.1507 14.7275 11.979 14.7275 11.8C14.7275 11.621 14.656 11.4493 14.5287 11.3227C14.4014 11.1961 14.2288 11.125 14.0488 11.125" stroke="#383A51"/>
<path d="M8.23871 19C4.82656 19 3.12004 19 2.06047 17.9452C1 16.8913 1 15.1939 1 11.8V8.2C1 4.8061 1 3.1087 2.06047 2.0548C3.12004 1 4.82656 1 8.23871 1M5.52419 7.525C5.34421 7.525 5.1716 7.59612 5.04433 7.7227C4.91706 7.84929 4.84556 8.02098 4.84556 8.2C4.84556 8.37902 4.91706 8.55071 5.04433 8.6773C5.1716 8.80388 5.34421 8.875 5.52419 8.875M5.52419 11.125C5.34421 11.125 5.1716 11.1961 5.04433 11.3227C4.91706 11.4493 4.84556 11.621 4.84556 11.8C4.84556 11.979 4.91706 12.1507 5.04433 12.2773C5.1716 12.4039 5.34421 12.475 5.52419 12.475" stroke="#383A51"/>
<path fill-rule="evenodd" clip-rule="evenodd" d="M4.06047 2.0548C3 3.1087 3 4.8061 3 8.2V11.8C3 15.1939 3 16.8913 4.06047 17.9452C5.12004 19 6.82656 19 10.2387 19H12.0484C15.4605 19 17.1671 19 18.2266 17.9452C19.2871 16.8913 19.2871 15.1939 19.2871 11.8V8.2C19.2871 4.8061 19.2871 3.1087 18.2266 2.0548C17.1671 1 15.4605 1 12.0484 1H10.2387C6.82656 1 5.12004 1 4.06047 2.0548ZM7.52419 7.525C7.34421 7.525 7.1716 7.59612 7.04433 7.7227C6.91706 7.84929 6.84556 8.02098 6.84556 8.2C6.84556 8.37902 6.91706 8.55071 7.04433 8.6773C7.1716 8.80388 7.34421 8.875 7.52419 8.875H14.7629C14.9429 8.875 15.1155 8.80388 15.2428 8.6773C15.37 8.55071 15.4415 8.37902 15.4415 8.2C15.4415 8.02098 15.37 7.84929 15.2428 7.7227C15.1155 7.59612 14.9429 7.525 14.7629 7.525H7.52419ZM7.52419 11.125C7.34421 11.125 7.1716 11.1961 7.04433 11.3227C6.91706 11.4493 6.84556 11.621 6.84556 11.8C6.84556 11.979 6.91706 12.1507 7.04433 12.2773C7.1716 12.4039 7.34421 12.475 7.52419 12.475H12.0484C12.2284 12.475 12.401 12.4039 12.5283 12.2773C12.6555 12.1507 12.727 11.979 12.727 11.8C12.727 11.621 12.6555 11.4493 12.5283 11.3227C12.401 11.1961 12.2284 11.125 12.0484 11.125H7.52419Z" fill="#383A51"/>
</svg>
