<svg width="48" height="50" viewBox="0 0 48 50" fill="none" xmlns="http://www.w3.org/2000/svg">
<path d="M0 13.4565L5.35397 15.1628V8.68415L0 7.57446V13.4565Z" fill="url(#paint0_linear_8434_2672)"/>
<path fill-rule="evenodd" clip-rule="evenodd" d="M24.2509 47.1781C13.2321 47.1781 4.29883 47.6982 4.29883 48.3399C4.29883 48.9816 13.2321 49.5017 24.2509 49.5017C35.2696 49.5017 44.2029 48.9816 44.2029 48.3399C44.2029 47.6982 35.2696 47.1781 24.2509 47.1781Z" fill="black"/>
<path fill-rule="evenodd" clip-rule="evenodd" d="M42.8904 17.9416L15.3049 1.97386C8.95496 -1.65638 3.64258 -0.551325 3.64258 7.57675V39.5574C3.64258 46.9082 7.29238 50.945 14.3136 46.8816L41.8991 30.9139C48.249 27.2384 49.9116 22.0502 42.8904 17.9416ZM31.6348 29.4404L12.8 40.3427C8.0064 43.117 5.51427 40.3613 5.51427 35.3422V13.4924C5.51427 7.94279 9.14097 7.15743 13.4771 9.6664L32.3119 20.6139C37.1055 23.3893 35.9709 26.9303 31.6348 29.4404Z" fill="url(#paint1_linear_8434_2672)"/>
<path fill-rule="evenodd" clip-rule="evenodd" d="M42.8903 17.9868L21.1359 5.39327C13.8733 1.18965 5.11444 1.87191 5.53614 12.7684C5.63897 10.0927 6.85442 8.86134 8.42918 8.54743C9.16631 8.40032 9.9277 8.43739 10.6625 8.58334C18.4636 9.53318 33.4949 17.0022 40.4178 21.5486C45.156 24.66 45.907 27.6983 41.9002 30.9138C48.2501 27.2384 49.9127 22.0502 42.8915 17.9868H42.8903Z" fill="url(#paint2_linear_8434_2672)"/>
<path fill-rule="evenodd" clip-rule="evenodd" d="M41.1846 21.4629C33.0207 15.8692 13.019 6.50522 7.81641 8.72923C9.58874 8.0296 11.9099 8.75935 13.4777 9.66633L32.3125 20.6138C32.8093 20.9011 33.1837 21.2069 33.5823 21.4733C38.362 24.6611 36.9155 32.5702 33.4043 35.8321L41.9021 30.9138C47.4132 27.7237 44.4358 23.6892 41.1869 21.4629H41.1846Z" fill="url(#paint3_linear_8434_2672)"/>
<path opacity="0.4" fill-rule="evenodd" clip-rule="evenodd" d="M23.0605 34.3876L25.1691 40.5743L32.553 36.2711L30.1857 30.2396L23.0605 34.3876Z" fill="#132E41"/>
<path opacity="0.4" fill-rule="evenodd" clip-rule="evenodd" d="M22.9349 6.3894H3.68417C3.6576 6.76702 3.64258 7.16202 3.64258 7.5767V14.6414H5.51427V13.4924C5.51427 7.94274 9.14097 7.15738 13.4771 9.66635L22.0718 14.6414H25.9966C26.3687 14.6414 27.2456 14.6843 27.5009 15.0295C27.695 15.2924 27.6049 15.9121 27.5425 16.1994L27.2225 17.6682L32.313 20.615C33.1899 21.1223 33.867 21.6552 34.3638 22.2031C34.9184 21.0598 35.3262 19.7845 35.6266 18.4049L36.0056 16.6685C36.1985 15.7835 36.2736 14.938 36.2436 14.1387L22.9349 6.39056V6.3894Z" fill="#132E41"/>
<path fill-rule="evenodd" clip-rule="evenodd" d="M27.269 7.57446H0V13.4565H25.9958C28.221 13.4565 29.1257 14.4817 28.6959 16.452L28.3215 18.1698C27.9241 19.9907 26.6093 20.8965 24.3748 20.8965H16.9296L17.3559 19.0096H11.6692L7.81722 38.9586H13.6842L15.7719 26.891H21.7082L29.6976 48.4639H35.5645L27.4839 26.4473C31.7449 25.3353 33.5796 22.2379 34.4715 18.1513L34.8505 16.4149C36.0082 11.1086 32.4531 7.57446 27.2701 7.57446H27.269Z" fill="url(#paint4_linear_8434_2672)"/>
<defs>
<linearGradient id="paint0_linear_8434_2672" x1="4.50593" y1="8.19302" x2="1.09256" y2="14.0895" gradientUnits="userSpaceOnUse">
<stop stop-color="#60CAE7"/>
<stop offset="0.49" stop-color="#00B6BE"/>
<stop offset="1" stop-color="#03466A"/>
</linearGradient>
<linearGradient id="paint1_linear_8434_2672" x1="-3.37743" y1="16.5446" x2="38.5619" y2="40.6953" gradientUnits="userSpaceOnUse">
<stop stop-color="#14142D"/>
<stop offset="0.34" stop-color="#7A81FD"/>
<stop offset="0.66" stop-color="#7ACFFD"/>
<stop offset="1" stop-color="#14142D"/>
</linearGradient>
<linearGradient id="paint2_linear_8434_2672" x1="7.2692" y1="5.56934" x2="45.9601" y2="27.8496" gradientUnits="userSpaceOnUse">
<stop stop-color="#14142D"/>
<stop offset="0.34" stop-color="#7A81FD"/>
<stop offset="0.66" stop-color="#7ACFFD"/>
<stop offset="1" stop-color="#14142D"/>
</linearGradient>
<linearGradient id="paint3_linear_8434_2672" x1="18.0703" y1="2.79389" x2="36.2425" y2="34.1885" gradientUnits="userSpaceOnUse">
<stop stop-color="#14142D"/>
<stop offset="0.34" stop-color="#7A81FD"/>
<stop offset="0.66" stop-color="#7ACFFD"/>
<stop offset="1" stop-color="#14142D"/>
</linearGradient>
<linearGradient id="paint4_linear_8434_2672" x1="39.5852" y1="46.0129" x2="3.97351" y2="5.77604" gradientUnits="userSpaceOnUse">
<stop stop-color="#14142D"/>
<stop offset="0.34" stop-color="#7A81FD"/>
<stop offset="0.66" stop-color="#7ACFFD"/>
<stop offset="1" stop-color="#14142D"/>
</linearGradient>
</defs>
</svg>
