<svg width="24" height="24" viewBox="0 0 24 24" fill="none" xmlns="http://www.w3.org/2000/svg">
<path d="M8.87502 18.8875L2.27502 12.2875C2.17502 12.1875 2.10402 12.0791 2.06202 11.9625C2.02002 11.8458 1.99935 11.7208 2.00002 11.5875C2.00002 11.4541 2.02102 11.3291 2.06302 11.2125C2.10502 11.0958 2.17568 10.9875 2.27502 10.8875L8.87502 4.28746C9.05835 4.10413 9.28768 4.00846 9.56302 4.00046C9.83835 3.99246 10.0757 4.08813 10.275 4.28746C10.475 4.4708 10.5793 4.70013 10.588 4.97546C10.5967 5.2508 10.5007 5.48813 10.3 5.68746L5.40002 10.5875H5.57502C5.85835 10.5875 6.09602 10.6835 6.28802 10.8755C6.48002 11.0675 6.57568 11.3048 6.57502 11.5875C6.57502 11.8708 6.47935 12.1085 6.28802 12.3005C6.09668 12.4925 5.85902 12.5881 5.57502 12.5875H5.40002L10.3 17.4875C10.4833 17.6708 10.5793 17.9041 10.588 18.1875C10.5967 18.4708 10.5007 18.7041 10.3 18.8875C10.1167 19.0875 9.88335 19.1875 9.60002 19.1875C9.31668 19.1875 9.07502 19.0875 8.87502 18.8875Z" fill="white"/>
<path fill-rule="evenodd" clip-rule="evenodd" d="M9 11.5874C9 11.0351 9.35817 10.5874 9.8 10.5874H20.2C20.6418 10.5874 21 11.0351 21 11.5874C21 12.1397 20.6418 12.5874 20.2 12.5874H9.8C9.35817 12.5874 9 12.1397 9 11.5874Z" fill="#5955B3"/>
</svg>
