<svg width="21" height="17" viewBox="0 0 21 17" fill="none" xmlns="http://www.w3.org/2000/svg">
<path d="M15.75 0.165649V16.8016C18.5063 15.0953 20.3438 11.9453 20.3438 8.46721C20.3438 4.98909 18.5063 1.90471 15.75 0.165649ZM5.25 0.165649C2.49375 1.90471 0.65625 5.05471 0.65625 8.50002C0.65625 11.9453 2.49375 15.0953 5.25 16.8344V0.165649ZM14.0766 8.36877C13.9453 8.30315 13.9125 8.1719 13.9453 8.10627L14.2734 6.92502L13.125 7.15471C13.0922 7.15471 12.9609 7.15471 12.9281 6.92502L12.8297 6.53127L12.0422 7.45002C12.0422 7.45002 11.5172 8.00784 11.6812 7.15471L12.0094 5.35002L11.3859 5.67815C11.3531 5.67815 11.2219 5.71096 11.0578 5.38284L10.5 4.2344L9.90938 5.31721C9.74531 5.64534 9.61406 5.61252 9.58125 5.61252L8.95781 5.2844L9.28594 7.08909C9.45 7.94221 8.925 7.3844 8.925 7.3844L8.1375 6.46565L8.03906 6.8594C7.97344 7.08909 7.875 7.08909 7.84219 7.08909L6.69375 6.8594L7.02187 8.04065C7.02187 8.13909 7.02187 8.23752 6.89062 8.30315L6.5625 8.50002C6.5625 8.50002 7.875 9.55002 8.30156 9.91096C8.4 9.97659 8.59688 10.1735 8.53125 10.4031L8.36719 10.8625L10.1719 10.6C10.2703 10.6 10.4672 10.6 10.4344 10.8953L10.3359 12.7656H10.6641L10.5656 10.8953C10.5656 10.6 10.7625 10.6 10.8281 10.6L12.6328 10.8625L12.4688 10.4031C12.4031 10.1735 12.6 9.97659 12.6984 9.91096C13.125 9.55002 14.4375 8.50002 14.4375 8.50002L14.0766 8.36877Z" fill="#ED4C5C"/>
</svg>
