<svg width="330" height="240" viewBox="0 0 330 240" fill="none" xmlns="http://www.w3.org/2000/svg">
<path d="M270.607 124.296C279.158 69.5927 233.524 14.4551 173.605 7.60721C172.859 7.52188 172.112 7.44221 171.364 7.36767C129.497 3.20919 91.2272 35.1904 80.2846 59.583C69.342 83.9757 40.705 107.18 51.3197 152.392C61.9338 197.603 90.7697 221.692 158.378 228.822C225.986 235.951 238.459 216.615 256.407 174.374C262.626 159.738 267.798 142.261 270.607 124.296Z" fill="#9DA2FF"/>
<path opacity="0.7" d="M270.607 124.296C279.158 69.5927 233.524 14.4551 173.605 7.60721C172.859 7.52188 172.112 7.44221 171.364 7.36767C129.497 3.20919 91.2272 35.1904 80.2846 59.583C69.342 83.9757 40.705 107.18 51.3197 152.392C61.9338 197.603 90.7697 221.692 158.378 228.822C225.986 235.951 238.459 216.615 256.407 174.374C262.626 159.738 267.798 142.261 270.607 124.296Z" fill="#282945"/>
<path d="M73.8585 228.963H55.4219" stroke="#263238" stroke-miterlimit="10"/>
<path d="M281.32 228.963H76.9434" stroke="#263238" stroke-miterlimit="10"/>
<path d="M218.552 48.3566L213.133 53.7759L218.552 59.1952L223.971 53.7759L218.552 48.3566Z" stroke="#263238" stroke-miterlimit="10"/>
<path d="M97.097 27.2867L91.6777 32.7061L97.097 38.1254L102.516 32.7061L97.097 27.2867Z" stroke="#263238" stroke-miterlimit="10"/>
<path d="M266.964 136.868L261.545 142.287L266.964 147.706L272.384 142.287L266.964 136.868Z" stroke="#263238" stroke-miterlimit="10"/>
<path d="M161.355 161.128L155.936 166.547L161.355 171.966L166.774 166.547L161.355 161.128Z" stroke="#263238" stroke-miterlimit="10"/>
<path d="M61.351 100.486L55.9316 105.905L61.351 111.325L66.7703 105.905L61.351 100.486Z" stroke="#263238" stroke-miterlimit="10"/>
<path d="M88.7814 89.0126L86.1738 91.6201L88.7814 94.2276L91.3889 91.6201L88.7814 89.0126Z" stroke="#263238" stroke-miterlimit="10"/>
<path d="M226.043 56.6347L223.436 59.2422L226.043 61.8497L228.651 59.2422L226.043 56.6347Z" stroke="#263238" stroke-miterlimit="10"/>
<path d="M175.996 25.9892L173.389 28.5967L175.996 31.2042L178.604 28.5967L175.996 25.9892Z" stroke="#263238" stroke-miterlimit="10"/>
<path d="M175.057 156.848L172.449 159.455L175.057 162.063L177.664 159.455L175.057 156.848Z" stroke="#263238" stroke-miterlimit="10"/>
<path d="M219.844 191.246L217.236 193.854L219.844 196.462L222.451 193.854L219.844 191.246Z" stroke="#263238" stroke-miterlimit="10"/>
<path d="M125.283 209.686L122.676 212.294L125.283 214.901L127.891 212.294L125.283 209.686Z" stroke="#263238" stroke-miterlimit="10"/>
<path d="M140.141 210.608C140.759 210.877 142.268 210.844 142.269 210.844C142.284 210.843 141.944 209.856 141.916 209.795C141.585 209.103 140.537 207.959 139.685 208.074C139.071 208.157 138.73 208.772 138.868 209.349C139.01 209.94 139.616 210.378 140.141 210.608Z" fill="#263238"/>
<path d="M140.661 214.98C141.301 215.074 142.648 214.683 142.755 214.651C142.968 215.405 143.247 216.162 143.572 216.911C143.757 217.341 143.957 217.767 144.163 218.191C144.04 218.011 143.929 217.852 143.911 217.83C143.408 217.25 142.097 216.423 141.306 216.759C140.735 217.001 140.569 217.684 140.855 218.205C141.147 218.737 141.847 219 142.414 219.082C142.99 219.166 144.145 218.856 144.45 218.77C144.531 218.932 144.609 219.095 144.69 219.257C145.081 220.034 145.473 220.807 145.835 221.577C145.962 221.849 146.078 222.121 146.195 222.392C146.086 222.233 145.993 222.099 145.976 222.08C145.474 221.5 144.162 220.673 143.37 221.009C142.8 221.251 142.633 221.933 142.92 222.454C143.212 222.986 143.912 223.249 144.48 223.332C145.029 223.412 146.098 223.135 146.46 223.034C146.571 223.316 146.683 223.598 146.778 223.876C146.839 224.068 146.911 224.248 146.961 224.443C147.015 224.636 147.068 224.827 147.121 225.016C147.209 225.383 147.302 225.761 147.379 226.122C147.435 226.372 147.483 226.612 147.533 226.853C147.409 226.582 147.155 226.055 147.129 226.013C146.72 225.363 145.548 224.347 144.715 224.56C144.115 224.713 143.846 225.362 144.051 225.92C144.259 226.49 144.911 226.856 145.459 227.024C146.063 227.208 147.399 227.04 147.566 227.018C147.647 227.417 147.721 227.806 147.785 228.175C147.833 228.448 147.877 228.709 147.917 228.961H148.453C148.402 228.681 148.347 228.388 148.286 228.081C148.206 227.675 148.113 227.243 148.013 226.8C148.114 226.76 148.684 226.53 149.189 226.247C149.629 226.724 150.757 227.281 150.903 227.352C150.75 227.73 150.597 228.095 150.447 228.438C150.367 228.619 150.291 228.791 150.215 228.961H150.781C150.825 228.854 150.87 228.748 150.916 228.636C151.073 228.254 151.234 227.842 151.395 227.417C151.557 227.451 152.88 227.72 153.497 227.581C154.056 227.454 154.734 227.137 154.984 226.584C155.229 226.043 155.01 225.375 154.422 225.178C153.607 224.904 152.363 225.83 151.907 226.448C151.88 226.484 151.632 226.912 151.481 227.185C151.546 227.011 151.61 226.843 151.675 226.663C151.805 226.308 151.924 225.951 152.054 225.567C152.11 225.379 152.168 225.189 152.225 224.998C152.285 224.809 152.326 224.602 152.378 224.402C152.489 223.936 152.578 223.46 152.658 222.977C152.968 223.09 154.078 223.476 154.653 223.435C155.225 223.395 155.943 223.185 156.274 222.676C156.598 222.178 156.482 221.485 155.932 221.201C155.167 220.807 153.797 221.534 153.254 222.075C153.22 222.109 152.873 222.542 152.687 222.783C152.733 222.492 152.78 222.202 152.816 221.907C152.922 221.054 153.003 220.188 153.087 219.325C153.113 219.06 153.142 218.797 153.169 218.533C153.279 218.575 154.588 219.062 155.232 219.016C155.804 218.976 156.521 218.766 156.852 218.257C157.177 217.759 157.061 217.066 156.511 216.782C155.747 216.388 154.376 217.114 153.832 217.656C153.791 217.696 153.293 218.32 153.174 218.484C153.236 217.903 153.302 217.325 153.391 216.758C153.513 215.975 153.675 215.213 153.887 214.487C153.938 214.506 155.302 215.021 155.961 214.975C156.533 214.934 157.251 214.724 157.582 214.215C157.906 213.717 157.79 213.024 157.24 212.74C156.476 212.346 155.106 213.073 154.561 213.614C154.519 213.657 153.983 214.327 153.895 214.456C153.907 214.413 153.916 214.366 153.929 214.324C154.165 213.551 154.491 212.833 154.829 212.175C155.024 211.793 155.233 211.438 155.443 211.097C155.687 211.219 156.809 211.764 157.406 211.788C157.98 211.811 158.716 211.68 159.101 211.211C159.478 210.752 159.439 210.05 158.923 209.708C158.206 209.232 156.765 209.804 156.165 210.283C156.132 210.309 155.829 210.61 155.612 210.833C155.709 210.68 155.807 210.521 155.903 210.377C156.263 209.835 156.626 209.361 156.95 208.944C157.137 208.709 157.31 208.499 157.474 208.305C157.776 208.3 158.993 208.263 159.525 208.013C160.044 207.769 160.638 207.315 160.763 206.721C160.886 206.139 160.528 205.534 159.912 205.468C159.058 205.376 158.042 206.548 157.729 207.249C157.703 207.31 157.389 208.307 157.405 208.306C157.405 208.306 157.42 208.306 157.423 208.306C157.261 208.49 157.09 208.688 156.907 208.91C156.572 209.32 156.199 209.787 155.825 210.324C155.451 210.858 155.06 211.45 154.704 212.11C154.346 212.771 154.004 213.485 153.747 214.266C153.744 214.275 153.742 214.285 153.739 214.293C153.744 214.042 153.732 213.337 153.725 213.283C153.626 212.522 152.988 211.108 152.142 210.952C151.533 210.839 151.017 211.316 150.969 211.909C150.919 212.514 151.358 213.119 151.786 213.501C152.268 213.932 153.607 214.349 153.713 214.382C153.475 215.128 153.29 215.914 153.148 216.718C153.066 217.178 152.997 217.644 152.934 218.112C152.931 217.894 152.927 217.699 152.923 217.672C152.824 216.91 152.186 215.498 151.341 215.341C150.732 215.228 150.216 215.705 150.167 216.298C150.118 216.903 150.557 217.509 150.984 217.891C151.418 218.278 152.553 218.657 152.854 218.753C152.832 218.933 152.807 219.112 152.786 219.292C152.683 220.155 152.584 221.016 152.461 221.858C152.417 222.155 152.364 222.446 152.311 222.737C152.308 222.544 152.304 222.381 152.301 222.356C152.202 221.594 151.564 220.181 150.719 220.025C150.11 219.912 149.594 220.389 149.545 220.982C149.496 221.587 149.935 222.193 150.362 222.574C150.776 222.945 151.821 223.303 152.178 223.419C152.115 223.716 152.053 224.013 151.978 224.297C151.923 224.491 151.884 224.68 151.817 224.871C151.756 225.061 151.695 225.25 151.635 225.437C151.506 225.792 151.375 226.159 151.24 226.502C151.148 226.741 151.056 226.967 150.964 227.196C151.01 226.9 151.09 226.321 151.091 226.272C151.102 225.762 150.922 224.933 150.561 224.35C150.563 224.275 150.559 224.2 150.547 224.125C150.452 223.538 149.901 223.102 149.302 223.262C148.472 223.483 147.944 224.942 147.905 225.708C147.903 225.754 147.932 226.247 147.956 226.559C147.914 226.378 147.876 226.202 147.83 226.016C147.743 225.649 147.645 225.285 147.542 224.892C147.485 224.705 147.428 224.515 147.37 224.324C147.316 224.133 147.235 223.938 147.169 223.742C147.004 223.293 146.816 222.846 146.616 222.399C146.938 222.322 148.076 222.032 148.533 221.681C148.988 221.332 149.47 220.761 149.466 220.154C149.462 219.56 148.983 219.045 148.367 219.112C147.512 219.205 146.771 220.567 146.616 221.319C146.606 221.365 146.555 221.917 146.533 222.221C146.411 221.954 146.291 221.686 146.158 221.42C145.776 220.65 145.365 219.883 144.959 219.117C144.835 218.882 144.714 218.646 144.591 218.411C144.706 218.385 146.067 218.069 146.578 217.676C147.033 217.327 147.516 216.756 147.511 216.149C147.507 215.555 147.028 215.04 146.412 215.108C145.558 215.201 144.816 216.562 144.661 217.314C144.649 217.371 144.577 218.166 144.569 218.368C144.3 217.85 144.037 217.331 143.798 216.809C143.467 216.088 143.182 215.364 142.958 214.641C143.012 214.629 144.433 214.306 144.957 213.904C145.412 213.555 145.895 212.984 145.89 212.377C145.886 211.782 145.407 211.268 144.791 211.335C143.936 211.428 143.195 212.789 143.039 213.541C143.027 213.601 142.95 214.455 142.948 214.611C142.935 214.568 142.916 214.525 142.903 214.482C142.674 213.707 142.549 212.929 142.468 212.194C142.421 211.766 142.398 211.356 142.386 210.956C142.657 210.923 143.893 210.758 144.405 210.449C144.896 210.151 145.438 209.637 145.501 209.033C145.562 208.442 145.142 207.878 144.523 207.877C143.663 207.875 142.776 209.148 142.539 209.877C142.526 209.917 142.44 210.335 142.382 210.641C142.379 210.46 142.373 210.274 142.374 210.101C142.375 209.45 142.416 208.855 142.457 208.328C142.482 208.028 142.511 207.758 142.541 207.506C142.79 207.335 143.785 206.632 144.091 206.131C144.389 205.641 144.633 204.935 144.41 204.37C144.192 203.817 143.56 203.51 143.01 203.794C142.246 204.189 142.045 205.727 142.171 206.484C142.182 206.549 142.471 207.553 142.484 207.544C142.484 207.544 142.496 207.536 142.499 207.534C142.465 207.777 142.432 208.037 142.402 208.322C142.349 208.849 142.295 209.445 142.28 210.098C142.263 210.75 142.263 211.46 142.33 212.207C142.397 212.955 142.505 213.739 142.721 214.533C142.723 214.542 142.727 214.551 142.729 214.56C142.594 214.347 142.196 213.766 142.16 213.724C141.658 213.144 140.346 212.317 139.555 212.653C138.985 212.895 138.818 213.578 139.104 214.099C139.394 214.634 140.094 214.897 140.661 214.98Z" fill="#263238"/>
<path d="M155.406 210.94C155.419 210.948 155.68 209.937 155.69 209.872C155.795 209.111 155.553 207.58 154.779 207.205C154.221 206.936 153.597 207.26 153.394 207.819C153.187 208.389 153.45 209.089 153.761 209.57C154.127 210.135 155.405 210.939 155.406 210.94Z" fill="#263238"/>
<path d="M132.999 105.298H186.704C195.885 105.298 203.327 112.74 203.327 121.921C203.327 131.103 195.885 138.545 186.704 138.545H132.999C123.818 138.545 116.375 131.103 116.375 121.921C116.375 112.74 123.818 105.298 132.999 105.298Z" stroke="#263238" stroke-miterlimit="10"/>
<path d="M132.775 137.477C141.366 137.477 148.331 130.513 148.331 121.921C148.331 113.33 141.366 106.365 132.775 106.365C124.183 106.365 117.219 113.33 117.219 121.921C117.219 130.513 124.183 137.477 132.775 137.477Z" stroke="#263238" stroke-miterlimit="10"/>
<path d="M186.704 58.499H132.999C123.818 58.499 116.375 65.9416 116.375 75.1227C116.375 84.3037 123.818 91.7463 132.999 91.7463H186.704C195.885 91.7463 203.327 84.3037 203.327 75.1227C203.327 65.9416 195.884 58.499 186.704 58.499Z" fill="#263238"/>
<path d="M186.927 93.7898C197.236 93.7898 205.594 85.4324 205.594 75.1229C205.594 64.8135 197.236 56.4561 186.927 56.4561C176.617 56.4561 168.26 64.8135 168.26 75.1229C168.26 85.4324 176.617 93.7898 186.927 93.7898Z" fill="#9DA2FF" stroke="#263238" stroke-miterlimit="10"/>
<path d="M171.083 132.427C170.54 132.427 170.017 132.211 169.63 131.825L159.087 121.282C158.284 120.478 158.284 119.177 159.087 118.374C159.89 117.571 161.191 117.571 161.994 118.374L170.858 127.237L183.259 110.632C183.939 109.721 185.228 109.536 186.137 110.214C187.047 110.894 187.234 112.182 186.555 113.092L172.731 131.601C172.374 132.079 171.827 132.379 171.232 132.422C171.182 132.425 171.133 132.427 171.083 132.427Z" fill="white"/>
<path d="M150.59 75.3548L157.863 68.0813C158.666 67.2779 158.666 65.9764 157.863 65.1735C157.06 64.3706 155.758 64.3706 154.955 65.1735L147.682 72.4469L140.408 65.1735C139.606 64.3706 138.304 64.3706 137.501 65.1735C136.698 65.9769 136.698 67.2784 137.501 68.0813L144.774 75.3548L137.501 82.6283C136.698 83.4307 136.698 84.7332 137.501 85.5356C137.902 85.9371 138.428 86.1381 138.955 86.1381C139.481 86.1381 140.007 85.9371 140.409 85.5356L147.682 78.2626L154.956 85.5356C155.357 85.9371 155.884 86.1381 156.41 86.1381C156.936 86.1381 157.462 85.9371 157.864 85.5356C158.667 84.7332 158.667 83.4307 157.864 82.6283L150.59 75.3548Z" fill="white"/>
<path d="M249.75 20.4614H270.318C271.678 20.4614 272.781 21.564 272.781 22.9246V73.4777C272.781 74.8378 271.679 75.9409 270.318 75.9409H264.373" stroke="#263238" stroke-miterlimit="10"/>
<path d="M262.107 75.9404H240.409C239.048 75.9404 237.945 74.8378 237.945 73.4771V22.9246C237.945 21.5645 239.048 20.4614 240.409 20.4614H246.867" stroke="#263238" stroke-miterlimit="10"/>
<path d="M240.863 27.3535H260.004" stroke="#263238" stroke-miterlimit="10"/>
<path d="M251.98 34.6157H260.004" stroke="#263238" stroke-miterlimit="10"/>
<path d="M240.863 34.6157H249.848" stroke="#263238" stroke-miterlimit="10"/>
<path d="M269.523 33.2256H263.792C262.998 33.2256 262.354 33.8697 262.354 34.6643V35.0781C262.354 35.8728 262.998 36.5169 263.792 36.5169H269.523C270.317 36.5169 270.961 35.8728 270.961 35.0781V34.6643C270.961 33.8697 270.317 33.2256 269.523 33.2256Z" fill="#263238"/>
<path d="M271.186 34.8709C271.186 33.8505 270.359 33.0229 269.338 33.0229C268.318 33.0229 267.49 33.8505 267.49 34.8709C267.49 35.8912 268.318 36.7188 269.338 36.7188C270.358 36.7188 271.186 35.8912 271.186 34.8709Z" fill="#14B9A4" stroke="#89DCD2" stroke-miterlimit="10"/>
<path d="M269.523 40.0728H263.792C262.998 40.0728 262.354 40.7168 262.354 41.5115V41.9253C262.354 42.72 262.998 43.3641 263.792 43.3641H269.523C270.317 43.3641 270.961 42.72 270.961 41.9253V41.5115C270.961 40.7173 270.317 40.0728 269.523 40.0728Z" fill="#263238"/>
<path d="M271.186 41.7185C271.186 40.6982 270.359 39.8706 269.338 39.8706C268.318 39.8706 267.49 40.6982 267.49 41.7185C267.49 42.7389 268.318 43.5665 269.338 43.5665C270.358 43.5665 271.186 42.7389 271.186 41.7185Z" fill="#14B9A4" stroke="#89DCD2" stroke-miterlimit="10"/>
<path d="M269.523 54.791H263.792C262.998 54.791 262.354 55.4351 262.354 56.2298V56.6436C262.354 57.4383 262.998 58.0823 263.792 58.0823H269.523C270.317 58.0823 270.961 57.4383 270.961 56.6436V56.2298C270.961 55.4351 270.317 54.791 269.523 54.791Z" fill="#263238"/>
<path d="M271.186 56.4363C271.186 55.416 270.359 54.5884 269.338 54.5884C268.318 54.5884 267.49 55.4154 267.49 56.4363C267.49 57.4566 268.318 58.2842 269.338 58.2842C270.358 58.2842 271.186 57.4572 271.186 56.4363Z" fill="#14B9A4" stroke="#89DCD2" stroke-miterlimit="10"/>
<path d="M269.523 69.3213H263.792C262.998 69.3213 262.354 69.9654 262.354 70.7601V71.1738C262.354 71.9685 262.998 72.6126 263.792 72.6126H269.523C270.317 72.6126 270.961 71.9685 270.961 71.1738V70.7601C270.961 69.9654 270.317 69.3213 269.523 69.3213Z" fill="#263238"/>
<path d="M271.186 70.9666C271.186 69.9462 270.359 69.1187 269.338 69.1187C268.318 69.1187 267.49 69.9457 267.49 70.9666C267.49 71.9869 268.318 72.8145 269.338 72.8145C270.358 72.8145 271.186 71.9869 271.186 70.9666Z" fill="#14B9A4" stroke="#89DCD2" stroke-miterlimit="10"/>
<path d="M271.189 27.5175C271.189 27.9703 271.003 28.3826 270.706 28.6797C270.408 28.9768 269.996 29.1629 269.543 29.1629H265.043C265.641 28.8591 266.053 28.2371 266.053 27.5175C266.053 26.7978 265.641 26.1759 265.043 25.8721H269.543C270.452 25.8721 271.189 26.6087 271.189 27.5175Z" stroke="#263238" stroke-miterlimit="10"/>
<path d="M266.052 27.5169C266.052 28.2365 265.64 28.858 265.042 29.1623C264.792 29.2939 264.505 29.3648 264.204 29.3648C263.184 29.3648 262.355 28.5372 262.355 27.5169C262.355 26.4966 263.183 25.6685 264.204 25.6685C264.505 25.6685 264.792 25.7394 265.042 25.871C265.64 26.1758 266.052 26.7973 266.052 27.5169Z" stroke="#263238" stroke-miterlimit="10"/>
<path d="M271.189 49.0282C271.189 49.4811 271.003 49.8933 270.706 50.1904C270.408 50.4875 269.996 50.6736 269.543 50.6736H265.043C265.641 50.3693 266.053 49.7478 266.053 49.0282C266.053 48.3086 265.641 47.6866 265.043 47.3828H269.543C270.452 47.3828 271.189 48.1194 271.189 49.0282Z" stroke="#263238" stroke-miterlimit="10"/>
<path d="M266.052 49.0281C266.052 49.7478 265.64 50.3692 265.042 50.6735C264.792 50.8051 264.505 50.8761 264.204 50.8761C263.184 50.8761 262.355 50.0485 262.355 49.0281C262.355 48.0078 263.183 47.1797 264.204 47.1797C264.505 47.1797 264.792 47.2506 265.042 47.3822C265.64 47.687 266.052 48.3085 266.052 49.0281Z" stroke="#263238" stroke-miterlimit="10"/>
<path d="M271.189 63.4642C271.189 63.9171 271.003 64.3294 270.706 64.6265C270.408 64.9241 269.996 65.1097 269.543 65.1097H265.043C265.641 64.8053 266.053 64.1839 266.053 63.4642C266.053 62.7446 265.641 62.1226 265.043 61.8188H269.543C270.452 61.8188 271.189 62.5555 271.189 63.4642Z" stroke="#263238" stroke-miterlimit="10"/>
<path d="M266.052 63.4642C266.052 64.1838 265.64 64.8053 265.042 65.1096C264.792 65.2412 264.505 65.3121 264.204 65.3121C263.184 65.3121 262.355 64.4845 262.355 63.4642C262.355 62.4438 263.183 61.6157 264.204 61.6157C264.505 61.6157 264.792 61.6867 265.042 61.8182C265.64 62.1231 266.052 62.7445 266.052 63.4642Z" stroke="#263238" stroke-miterlimit="10"/>
<path d="M240.863 41.8779H260.004" stroke="#263238" stroke-miterlimit="10"/>
<path d="M240.863 49.1396H260.004" stroke="#263238" stroke-miterlimit="10"/>
<path d="M249.182 56.4023H260.003" stroke="#263238" stroke-miterlimit="10"/>
<path d="M240.863 56.4023H247.05" stroke="#263238" stroke-miterlimit="10"/>
<path d="M240.863 63.6646H260.004" stroke="#263238" stroke-miterlimit="10"/>
<path d="M240.863 70.9263H260.004" stroke="#263238" stroke-miterlimit="10"/>
<path d="M108.175 194.813V215.722C108.175 217.082 107.073 218.185 105.712 218.185H57.641C56.2808 218.185 55.1777 217.083 55.1777 215.722V136.245C55.1777 134.885 56.2803 133.782 57.641 133.782H79.6326" stroke="#14B9A4" stroke-miterlimit="10"/>
<path d="M81.9531 133.782H105.712C107.072 133.782 108.175 134.885 108.175 136.245V191.353" stroke="#14B9A4" stroke-miterlimit="10"/>
<path d="M65.8066 144.267H88.7379" stroke="#14B9A4" stroke-miterlimit="10"/>
<path d="M59.6172 144.267H63.4991" stroke="#14B9A4" stroke-miterlimit="10"/>
<path d="M59.6172 155.315H88.7368" stroke="#14B9A4" stroke-miterlimit="10"/>
<path d="M102.906 153.2H94.8178C93.435 153.2 92.3145 154.321 92.3145 155.704C92.3145 157.086 93.4355 158.207 94.8178 158.207H102.906C104.289 158.207 105.409 157.086 105.409 155.704C105.409 154.321 104.289 153.2 102.906 153.2Z" fill="#14B9A4"/>
<path d="M105.751 155.703C105.751 154.15 104.492 152.892 102.94 152.892C101.387 152.892 100.129 154.151 100.129 155.703C100.129 157.256 101.388 158.515 102.94 158.515C104.492 158.515 105.751 157.256 105.751 155.703Z" fill="#89DCD2" stroke="#14B9A4" stroke-miterlimit="10"/>
<path d="M102.906 163.618H94.8178C93.435 163.618 92.3145 164.739 92.3145 166.121C92.3145 167.504 93.4355 168.625 94.8178 168.625H102.906C104.289 168.625 105.409 167.504 105.409 166.121C105.409 164.739 104.289 163.618 102.906 163.618Z" fill="#14B9A4"/>
<path d="M102.94 168.932C104.493 168.932 105.751 167.674 105.751 166.121C105.751 164.569 104.493 163.31 102.94 163.31C101.388 163.31 100.129 164.569 100.129 166.121C100.129 167.674 101.388 168.932 102.94 168.932Z" fill="#89DCD2" stroke="#14B9A4" stroke-miterlimit="10"/>
<path d="M102.906 186.01H94.8178C93.435 186.01 92.3145 187.131 92.3145 188.514C92.3145 189.896 93.4355 191.017 94.8178 191.017H102.906C104.289 191.017 105.409 189.896 105.409 188.514C105.409 187.131 104.289 186.01 102.906 186.01Z" fill="#14B9A4"/>
<path d="M105.751 188.513C105.751 186.96 104.492 185.702 102.94 185.702C101.387 185.702 100.129 186.961 100.129 188.513C100.129 190.066 101.388 191.325 102.94 191.325C104.492 191.325 105.751 190.066 105.751 188.513Z" fill="#89DCD2" stroke="#14B9A4" stroke-miterlimit="10"/>
<path d="M102.906 208.114H94.8178C93.435 208.114 92.3145 209.235 92.3145 210.618C92.3145 212 93.4355 213.121 94.8178 213.121H102.906C104.289 213.121 105.409 212 105.409 210.618C105.409 209.235 104.289 208.114 102.906 208.114Z" fill="#14B9A4"/>
<path d="M102.94 213.429C104.493 213.429 105.751 212.17 105.751 210.617C105.751 209.065 104.493 207.806 102.94 207.806C101.388 207.806 100.129 209.065 100.129 210.617C100.129 212.17 101.388 213.429 102.94 213.429Z" fill="#89DCD2" stroke="#14B9A4" stroke-miterlimit="10"/>
<path d="M105.751 144.517C105.751 145.205 105.468 145.832 105.015 146.285C104.563 146.737 103.936 147.02 103.247 147.02H96.4004C97.3102 146.557 97.9373 145.611 97.9373 144.517C97.9373 143.422 97.3102 142.476 96.4004 142.013H103.247C104.63 142.013 105.751 143.134 105.751 144.517Z" stroke="#14B9A4" stroke-miterlimit="10"/>
<path d="M97.9379 144.516C97.9379 145.611 97.3108 146.557 96.401 147.02C96.0206 147.22 95.5837 147.328 95.1262 147.328C93.5738 147.328 92.3145 146.069 92.3145 144.516C92.3145 142.964 93.5738 141.705 95.1262 141.705C95.5837 141.705 96.0206 141.813 96.401 142.013C97.3108 142.476 97.9379 143.421 97.9379 144.516Z" stroke="#14B9A4" stroke-miterlimit="10"/>
<path d="M105.751 177.242C105.751 177.931 105.468 178.558 105.015 179.01C104.563 179.463 103.936 179.745 103.247 179.745H96.4004C97.3102 179.283 97.9373 178.337 97.9373 177.242C97.9373 176.147 97.3102 175.201 96.4004 174.739H103.247C104.63 174.739 105.751 175.859 105.751 177.242Z" stroke="#14B9A4" stroke-miterlimit="10"/>
<path d="M97.9379 177.242C97.9379 178.337 97.3108 179.283 96.401 179.746C96.0206 179.946 95.5837 180.054 95.1262 180.054C93.5738 180.054 92.3145 178.795 92.3145 177.242C92.3145 175.69 93.5738 174.431 95.1262 174.431C95.5837 174.431 96.0206 174.539 96.401 174.739C97.3108 175.202 97.9379 176.148 97.9379 177.242Z" stroke="#14B9A4" stroke-miterlimit="10"/>
<path d="M105.751 199.204C105.751 199.893 105.468 200.52 105.015 200.973C104.563 201.425 103.936 201.708 103.247 201.708H96.4004C97.3102 201.245 97.9373 200.299 97.9373 199.204C97.9373 198.11 97.3102 197.164 96.4004 196.701H103.247C104.63 196.701 105.751 197.822 105.751 199.204Z" stroke="#14B9A4" stroke-miterlimit="10"/>
<path d="M97.9379 199.204C97.9379 200.299 97.3108 201.245 96.401 201.708C96.0206 201.908 95.5837 202.016 95.1262 202.016C93.5738 202.016 92.3145 200.757 92.3145 199.204C92.3145 197.652 93.5738 196.393 95.1262 196.393C95.5837 196.393 96.0206 196.501 96.401 196.701C97.3108 197.164 97.9379 198.109 97.9379 199.204Z" stroke="#14B9A4" stroke-miterlimit="10"/>
<path d="M80.7969 166.364H88.736" stroke="#14B9A4" stroke-miterlimit="10"/>
<path d="M59.6172 166.364H77.9145" stroke="#14B9A4" stroke-miterlimit="10"/>
<path d="M59.6172 177.412H88.7368" stroke="#14B9A4" stroke-miterlimit="10"/>
<path d="M59.6172 188.461H88.7368" stroke="#14B9A4" stroke-miterlimit="10"/>
<path d="M76.7324 199.509H88.737" stroke="#14B9A4" stroke-miterlimit="10"/>
<path d="M59.6172 199.509H74.4114" stroke="#14B9A4" stroke-miterlimit="10"/>
<path d="M59.6172 210.558H88.7368" stroke="#14B9A4" stroke-miterlimit="10"/>
<path d="M196.143 93.4033C196.143 93.4033 195.936 93.4876 194.601 92.5849C193.266 91.6818 191.353 91.6669 190.756 92.2729C190.159 92.8789 192.166 93.2419 192.932 94.1121C193.698 94.9823 195.808 96.8961 196.88 97.0379C197.951 97.1793 200.151 97.2461 200.151 97.2461C200.151 97.2461 209.294 109.106 209.515 109.233C209.736 109.36 213.551 103.866 213.551 103.866L202.817 95.7945C202.817 95.7945 201.911 91.7466 201.86 90.9709C201.809 90.1952 201.875 87.9952 201.171 86.9795C200.466 85.9638 199.813 85.7237 199.85 86.2881C199.888 86.852 200.263 87.1815 200.301 87.7454C200.338 88.3093 200.291 88.6665 200.291 88.6665C200.291 88.6665 199.112 86.9034 198.562 86.0897C198.013 85.276 196.537 84.3821 196.537 84.3821C196.537 84.3821 195.63 83.5216 195.052 83.3473C194.474 83.1731 194.812 84.0007 194.812 84.0007C194.812 84.0007 193.957 83.9159 194.083 84.7573C194.21 85.5988 195.069 88.9415 195.36 90.1263C195.65 91.3112 196.143 93.4033 196.143 93.4033Z" fill="#EB8E6C" stroke="#263238" stroke-miterlimit="10" stroke-linecap="round" stroke-linejoin="round"/>
<path d="M194.812 84.001C194.812 84.001 195.663 85.0779 196.133 86.8173C196.602 88.5568 197.504 90.4093 197.504 90.4093" stroke="#263238" stroke-miterlimit="10" stroke-linecap="round" stroke-linejoin="round"/>
<path d="M196.537 84.3823C196.537 84.3823 198.52 87.5801 198.707 88.2756C198.895 88.9716 199.313 89.9354 199.313 89.9354" stroke="#263238" stroke-miterlimit="10" stroke-linecap="round" stroke-linejoin="round"/>
<path d="M200.291 88.6665L200.658 89.9171" stroke="#263238" stroke-miterlimit="10" stroke-linecap="round" stroke-linejoin="round"/>
<path d="M207.037 99.117C207.037 99.117 204.202 95.0865 203.131 95.5245C202.059 95.9624 199.867 98.8585 200.122 99.942C200.378 101.026 202.252 101.635 202.252 101.635L207.037 99.117Z" fill="#9DA2FF" stroke="#263238" stroke-miterlimit="10" stroke-linecap="round" stroke-linejoin="round"/>
<path d="M240.382 115.248C240.382 115.248 236.889 115.113 235.099 115.781C233.309 116.45 230.045 114.561 228.94 114.172C225.113 112.826 218.126 108.195 215.125 104.427C211.414 99.7659 206.816 95.83 203.833 97.8614C200.85 99.8929 200.8 101.914 201.031 102.632C201.262 103.35 202.414 107.831 212.552 118.742C217.581 124.153 221.667 126.208 225.464 128.158C229.261 130.107 233.424 132.032 233.424 132.032L240.382 115.248Z" fill="#9DA2FF" stroke="#263238" stroke-miterlimit="10" stroke-linecap="round" stroke-linejoin="round"/>
<path d="M234.944 90.4772C234.944 90.4772 230.538 93.2736 230.114 94.7139C229.691 96.1542 229.436 97.5102 228.758 98.2725C228.08 99.0353 225.962 99.2892 225.793 99.9672C225.623 100.645 226.894 102.594 226.894 102.594C226.894 102.594 227.826 106.068 227.996 107.169C228.166 108.271 229.267 109.966 230.114 109.966C230.961 109.966 233.165 109.457 233.165 109.457C233.165 109.457 233.758 114.033 233.673 115.558C233.588 117.083 233.419 117.337 234.266 117.337C235.114 117.337 238.418 114.965 238.757 114.711C239.096 114.456 239.944 108.101 240.621 105.729C241.299 103.356 240.96 96.0693 239.519 93.6971C238.079 91.3244 236.13 89.7992 234.944 90.4772Z" fill="#EB8E6C" stroke="#263238" stroke-miterlimit="10" stroke-linecap="round" stroke-linejoin="round"/>
<path d="M228.156 102.975C228.156 102.975 229.776 103.38 231.058 102.165" stroke="#263238" stroke-miterlimit="10" stroke-linecap="round" stroke-linejoin="round"/>
<path d="M231.541 97.6537C231.411 98.1271 231.14 98.4659 230.937 98.4099C230.734 98.3538 230.675 97.9246 230.806 97.4507C230.937 96.9767 231.208 96.6385 231.411 96.6945C231.614 96.7511 231.672 97.1803 231.541 97.6537Z" fill="#263238"/>
<path d="M231.133 94.7143C231.133 94.7143 232.319 93.5279 233.166 95.2226" stroke="#263238" stroke-miterlimit="10" stroke-linecap="round" stroke-linejoin="round"/>
<path d="M228.721 160.167L229.786 165.749C229.786 165.749 228.904 172.506 231.255 183.524C232.721 190.397 234.927 193.256 235.147 193.917C235.368 194.578 236.653 205.779 236.873 209.304C237.094 212.83 238.416 218.669 238.416 219.881C238.416 221.093 237.755 223.406 237.094 224.287C236.433 225.169 233.458 228.033 232.577 228.474C231.695 228.915 230.484 229.686 231.695 230.127C232.907 230.567 235.11 230.788 236.983 230.347C238.857 229.907 240.84 228.695 242.272 227.703C243.704 226.712 245.356 226.712 245.687 225.389C246.018 224.067 244.034 220.983 244.034 218.118C244.034 215.253 244.952 202.731 244.842 197.442C244.732 192.154 243.3 190.722 243.3 190.722L243.924 185.507C243.924 185.507 247.891 191.456 248.992 193.109C250.094 194.762 251.967 201.042 255.162 205.228C258.357 209.415 261.772 219.441 261.882 219.771C261.992 220.102 260.781 227.153 260.23 228.585C259.679 230.017 259.899 232 263.425 232C266.951 232 268.383 230.238 267.942 227.704C267.502 225.169 266.841 223.297 266.841 221.314C266.841 219.331 264.968 209.636 264.527 207.101C264.087 204.567 263.205 196.635 261.993 193.44C260.781 190.245 258.578 187.491 257.256 185.838C255.934 184.186 254.942 178.016 254.612 175.372C254.281 172.727 253.62 164.685 252.738 160.388C251.857 156.091 251.526 155.761 251.526 155.761L250.975 154.549C250.975 154.549 243.483 156.862 239.077 156.972C234.67 157.082 228.5 157.524 228.5 157.524L228.721 160.167Z" fill="#263238" stroke="#263238" stroke-miterlimit="10" stroke-linecap="round" stroke-linejoin="round"/>
<path d="M242.271 227.703C243.703 226.711 245.356 226.711 245.686 225.389C246.017 224.067 244.034 220.982 244.034 218.118C244.034 217.603 244.07 216.871 244.127 215.991C241.362 216.972 238.858 216.351 237.821 215.998C238.141 217.815 238.415 219.328 238.415 219.88C238.415 221.092 237.754 223.406 237.093 224.287C236.432 225.169 233.457 228.033 232.576 228.474C231.694 228.914 230.483 229.686 231.694 230.126C232.906 230.567 235.109 230.787 236.982 230.347C238.856 229.906 240.839 228.694 242.271 227.703Z" fill="#EB8E6C" stroke="#263238" stroke-miterlimit="10" stroke-linecap="round" stroke-linejoin="round"/>
<path d="M260.388 215.714C261.264 217.954 261.838 219.638 261.882 219.77C261.992 220.101 260.78 227.152 260.229 228.584C259.678 230.016 259.899 231.999 263.424 231.999C266.95 231.999 268.382 230.237 267.942 227.703C267.501 225.168 266.84 223.296 266.84 221.313C266.84 220.277 266.329 217.139 265.778 214.016C264.361 215.2 262.357 215.636 260.388 215.714Z" fill="#EB8E6C" stroke="#263238" stroke-miterlimit="10" stroke-linecap="round" stroke-linejoin="round"/>
<path d="M243.925 185.507C243.925 185.507 241.942 182.092 240.4 177.684C238.857 173.278 238.527 172.176 238.527 172.176L234.34 168.319" stroke="#A1B0B7" stroke-miterlimit="10" stroke-linecap="round" stroke-linejoin="round"/>
<path d="M245.689 159.836C245.689 159.836 245.028 163.362 250.316 164.023" stroke="#A1B0B7" stroke-miterlimit="10" stroke-linecap="round" stroke-linejoin="round"/>
<path d="M236.982 230.347C238.856 229.906 240.839 228.694 242.271 227.702C243.703 226.711 245.355 226.711 245.686 225.389C245.876 224.63 245.303 223.289 244.781 221.743C243.22 222.706 241.279 223.296 241.279 223.296C241.279 223.296 240.067 221.643 239.186 221.643C238.832 221.643 238.443 221.732 238.104 221.838C237.85 222.807 237.471 223.782 237.093 224.287C236.432 225.169 233.457 228.033 232.576 228.474C231.694 228.914 230.483 229.686 231.694 230.127C232.906 230.567 235.109 230.787 236.982 230.347Z" fill="#EB8E6C" stroke="#263238" stroke-miterlimit="10" stroke-linecap="round" stroke-linejoin="round"/>
<path d="M267.941 227.702C267.586 225.662 267.094 224.051 266.914 222.465L266.399 223.736C266.399 223.736 265.628 221.312 263.645 221.312C262.409 221.312 261.729 222.426 261.392 223.264C261.021 225.378 260.528 227.807 260.229 228.584C259.678 230.016 259.899 231.999 263.424 231.999C266.949 231.999 268.382 230.237 267.941 227.702Z" fill="#EB8E6C" stroke="#263238" stroke-miterlimit="10" stroke-linecap="round" stroke-linejoin="round"/>
<path d="M227.715 159.602C227.715 159.602 227.715 162.345 228.629 162.802C229.544 163.26 234.458 163.374 241.431 162.574C248.403 161.773 252.739 160.387 252.739 160.387L251.527 155.76L227.715 159.602Z" fill="#9DA2FF" stroke="#263238" stroke-miterlimit="10" stroke-linecap="round" stroke-linejoin="round"/>
<path d="M239.775 111.837C239.775 111.837 230.961 116.391 226.849 122.267C222.735 128.143 224.499 139.307 224.792 145.477C225.086 151.646 225.086 156.053 224.498 157.963C223.911 159.872 226.702 160.313 229.052 161.048C231.402 161.782 234.928 159.285 236.837 159.725C238.747 160.166 242.86 160.313 244.476 159.872C246.092 159.432 248.589 157.669 249.03 157.669C249.471 157.669 251.674 157.669 251.674 157.669C251.674 157.669 252.409 148.12 249.471 138.132C246.533 128.143 245.504 117.125 243.595 114.041C241.685 110.956 239.775 111.837 239.775 111.837Z" fill="#9DA2FF" stroke="#263238" stroke-miterlimit="10" stroke-linecap="round" stroke-linejoin="round"/>
<path d="M252.18 163.37C252.18 163.37 251.942 167.256 251.545 168.921C251.149 170.586 250.752 170.824 251.704 170.824C252.656 170.824 252.973 168.128 252.973 168.128L254.083 169.158C254.083 169.158 255.986 173.202 256.7 173.519C257.413 173.836 257.731 173.519 257.334 172.489C256.938 171.458 256.224 169.317 256.224 169.317L256.779 169.634C256.779 169.634 258.761 172.965 259.237 173.282C259.713 173.599 260.109 173.916 260.189 173.123C260.268 172.33 258.286 169.476 258.286 169.476L260.982 172.568C260.982 172.568 261.537 173.203 261.775 172.568C262.013 171.934 260.189 169.317 260.189 169.317L259.872 168.762C259.872 168.762 261.141 169.713 261.379 169.793C261.617 169.872 262.251 170.189 262.568 170.031C262.885 169.872 262.251 169.079 261.696 168.445C261.141 167.81 259.713 166.463 259.159 165.511C258.603 164.559 257.811 163.211 257.811 163.211L252.18 163.37Z" fill="#EB8E6C" stroke="#263238" stroke-miterlimit="10" stroke-linecap="round" stroke-linejoin="round"/>
<path d="M250.119 158.929C250.119 158.929 250.515 163.29 250.991 163.687C251.467 164.084 258.366 163.608 258.683 163.608C259 163.608 258.683 157.978 258.683 157.978C258.683 157.978 253.608 157.582 252.815 157.74C252.022 157.899 250.119 158.929 250.119 158.929Z" fill="#9DA2FF" stroke="#263238" stroke-miterlimit="10" stroke-linecap="round" stroke-linejoin="round"/>
<path d="M238.745 121.238C238.745 121.238 244.474 142.685 245.355 148.268C246.237 153.85 246.383 158.404 248.293 159.285C250.203 160.166 255.785 158.55 255.785 158.55C255.785 158.55 258.135 159.725 259.898 158.844C261.661 157.963 261.808 155.759 260.926 152.087C260.045 148.415 252.112 128.289 249.909 124.764C247.706 121.238 243.886 113.746 242.858 113.159C241.83 112.571 237.864 111.984 236.982 114.775" fill="#9DA2FF"/>
<path d="M238.745 121.238C238.745 121.238 244.474 142.685 245.355 148.268C246.237 153.85 246.383 158.404 248.293 159.285C250.203 160.166 255.785 158.55 255.785 158.55C255.785 158.55 258.135 159.725 259.898 158.844C261.661 157.963 261.808 155.759 260.926 152.087C260.045 148.415 252.112 128.289 249.909 124.764C247.706 121.238 243.886 113.746 242.858 113.159C241.83 112.571 237.864 111.984 236.982 114.775" stroke="#263238" stroke-miterlimit="10" stroke-linecap="round" stroke-linejoin="round"/>
<path d="M233.345 92.1193L237.665 102.751C237.665 102.751 236.633 107.911 234.363 110.593C232.093 113.276 230.029 115.753 230.442 119.055C230.854 122.357 232.299 121.119 232.299 121.119C232.299 121.119 240.225 110.292 245.178 115.74L249.91 124.764C249.91 124.764 255.413 125.507 255.825 119.522C256.238 113.537 254.462 108.781 252.245 102.473C250.929 98.7282 251.043 94.0834 248.153 90.3685C245.986 87.5825 239.908 85.3742 235.687 86.7971C233.522 87.5275 232.485 90.0025 233.345 92.1193Z" fill="#263238" stroke="#263238" stroke-miterlimit="10" stroke-linecap="round" stroke-linejoin="round"/>
<path d="M248.152 90.3681C248.152 90.3681 249.495 88.7274 251.788 89.3386C254.081 89.9502 256.222 96.2178 256.527 100.04C256.833 103.862 256.68 106.461 257.598 106.614C258.515 106.767 259.432 106.155 259.432 106.155C259.432 106.155 260.197 108.143 257.598 109.366C254.999 110.589 250.413 109.06 250.107 104.321C249.801 99.5816 248.152 90.3681 248.152 90.3681Z" fill="#263238" stroke="#263238" stroke-miterlimit="10" stroke-linecap="round" stroke-linejoin="round"/>
</svg>
