<svg width="330" height="240" viewBox="0 0 330 240" fill="none" xmlns="http://www.w3.org/2000/svg">
<path d="M271.496 159.049C261.221 179.769 242.996 201.25 220.823 205.379C187.32 211.62 179.711 239.486 122.556 229.207C113.645 227.605 105.542 225.12 98.2219 221.901C94.2869 220.171 90.5787 218.223 87.098 216.082C55.4883 196.696 42.3307 161.529 45.4452 126.978C49.5345 81.5347 81.1536 63.8206 101.519 53.6944C121.884 43.5682 150.907 -2.30281 207.177 7.31783C215.755 8.78874 224.185 11.2245 232.191 14.8112C250.468 22.9878 268.15 38.0498 276.962 57.8026C277.623 59.2864 278.241 60.7972 278.822 62.3298C290.143 92.3128 285.507 130.801 271.496 159.049Z" fill="#9DA2FF"/>
<path opacity="0.7" d="M271.496 159.049C261.221 179.769 242.996 201.25 220.823 205.379C187.32 211.62 179.711 239.486 122.556 229.207C113.645 227.605 105.542 225.12 98.2219 221.901C94.2869 220.171 90.5787 218.223 87.098 216.082C55.4883 196.696 42.3307 161.529 45.4452 126.978C49.5345 81.5347 81.1536 63.8206 101.519 53.6944C121.884 43.5682 150.907 -2.30281 207.177 7.31783C215.755 8.78874 224.185 11.2245 232.191 14.8112C250.468 22.9878 268.15 38.0498 276.962 57.8026C277.623 59.2864 278.241 60.7972 278.822 62.3298C290.143 92.3128 285.507 130.801 271.496 159.049Z" fill="#282945"/>
<g opacity="0.2">
<path d="M203.449 22.985C204.929 24.554 209.419 26.3483 209.422 26.3498C209.469 26.3682 209.707 23.0313 209.698 22.8188C209.592 20.3617 207.941 15.6767 205.286 14.9463C203.373 14.4203 201.596 15.8021 201.279 17.6791C200.955 19.5959 202.189 21.6485 203.449 22.985Z" fill="#C6C6D4"/>
<path d="M248.017 43.1281C248.045 43.1694 250.085 40.5172 250.194 40.335C251.461 38.2272 252.669 33.4094 250.857 31.3349C249.552 29.8411 247.308 30.0128 246.008 31.4036C244.679 32.8237 244.576 35.2167 244.89 37.0265C245.26 39.1512 248.015 43.1251 248.017 43.1281Z" fill="#C6C6D4"/>
<path d="M268.157 32.6668C265.753 31.3228 261.289 33.4998 259.488 35.1742C259.332 35.319 257.158 37.8623 257.205 37.8817C257.205 37.8817 257.248 37.8996 257.258 37.9041C256.551 38.2419 255.796 38.6131 254.98 39.0346C253.479 39.8253 251.79 40.7329 250.019 41.8441C248.246 42.9497 246.35 44.2017 244.472 45.7C242.589 47.1993 240.683 48.8727 238.944 50.8512C238.924 50.8736 238.906 50.8994 238.886 50.9218C239.215 50.1854 240.067 48.095 240.114 47.9268C240.78 45.5592 240.673 40.5931 238.378 39.0709C236.724 37.9747 234.605 38.7331 233.718 40.418C232.813 42.1387 233.345 44.4734 234.126 46.1364C235.006 48.0114 238.428 50.9218 238.701 51.1527C237.061 53.0516 235.533 55.134 234.101 57.326C233.282 58.5784 232.496 59.8652 231.723 61.1655C231.988 60.5196 232.219 59.9399 232.242 59.8553C232.908 57.4877 232.801 52.5216 230.506 51C228.852 49.9032 226.733 50.6621 225.846 52.3465C224.941 54.0672 225.473 56.4019 226.254 58.0649C227.046 59.7518 229.913 62.2921 230.681 62.9539C230.39 63.4559 230.094 63.954 229.805 64.4566C228.418 66.87 227.044 69.2844 225.624 71.6111C225.124 72.4317 224.601 73.2209 224.081 74.0126C224.315 73.4383 224.508 72.9532 224.529 72.8761C225.194 70.508 225.088 65.5424 222.792 64.0202C221.138 62.9235 219.019 63.6823 218.132 65.3672C217.227 67.0869 217.76 69.4227 218.54 71.0852C219.296 72.6949 221.922 75.063 222.831 75.8542C222.273 76.6484 221.718 77.4455 221.142 78.1904C220.737 78.69 220.383 79.1996 219.949 79.6788C219.529 80.1624 219.113 80.6411 218.701 81.1154C217.875 81.9996 217.028 82.9167 216.2 83.7586C215.628 84.3488 215.073 84.9006 214.516 85.4579C215.023 84.6478 215.983 83.0396 216.047 82.8963C216.723 81.4079 217.23 78.7373 216.899 76.5673C217 76.3483 217.082 76.1209 217.14 75.8865C217.599 74.0389 216.522 72.0625 214.558 71.7808C211.831 71.3897 208.448 75.0257 207.369 77.236C207.305 77.3664 206.773 78.8582 206.452 79.8047C206.556 79.2195 206.663 78.6527 206.763 78.0491C206.967 76.8569 207.136 75.6611 207.323 74.3748C207.392 73.7508 207.461 73.1204 207.53 72.4839C207.613 71.854 207.62 71.1782 207.668 70.5189C207.748 68.9888 207.754 67.4343 207.727 65.8673C208.771 66.044 212.489 66.6177 214.276 66.1579C216.055 65.7006 218.194 64.6228 218.943 62.829C219.676 61.0724 218.912 58.9556 217.012 58.3794C214.377 57.5798 210.481 60.6614 209.08 62.6827C208.992 62.8086 208.15 64.372 207.704 65.2398C207.68 64.2979 207.66 63.3584 207.605 62.407C207.445 59.6602 207.198 56.8846 206.963 54.1145C206.891 53.266 206.829 52.4201 206.764 51.5727C207.135 51.6399 211.54 52.4171 213.541 51.9026C215.32 51.4453 217.459 50.368 218.209 48.5737C218.942 46.8171 218.177 44.7003 216.278 44.1241C213.642 43.3244 209.747 46.4061 208.346 48.4269C208.24 48.5791 207.031 50.8303 206.752 51.4179C206.609 49.5529 206.484 47.6924 206.436 45.8538C206.365 43.3165 206.436 40.8235 206.684 38.4131C206.856 38.4445 211.45 39.2769 213.5 38.75C215.279 38.2927 217.418 37.2154 218.167 35.421C218.901 33.6645 218.135 31.5472 216.237 30.9715C213.601 30.1718 209.706 33.2535 208.304 35.2742C208.212 35.4071 207.289 37.1223 206.869 37.9474C206.787 37.922 206.802 37.927 206.719 37.9016C207.015 35.322 207.627 32.8614 208.313 30.5858C208.708 29.2672 209.159 28.0286 209.624 26.8339C210.464 27.0767 214.313 28.1436 216.211 27.8729C218.03 27.6136 220.274 26.7777 221.216 25.0769C222.138 23.4114 221.61 21.2229 219.785 20.4422C217.254 19.3584 213.043 21.9932 211.429 23.8483C211.341 23.9488 210.562 25.0734 210.006 25.9004C210.225 25.3645 210.44 24.8072 210.66 24.2976C211.479 22.3833 212.348 20.6806 213.13 19.1788C213.581 18.3284 214.006 17.5685 214.411 16.8615C215.359 16.6699 219.171 15.8498 220.702 14.7551C222.196 13.6868 223.803 11.9108 223.855 9.96767C223.906 8.06434 222.429 6.36603 220.45 6.51332C217.703 6.71833 215.181 10.9967 214.603 13.3872C214.553 13.5937 214.143 16.9142 214.192 16.9047C214.192 16.9047 214.239 16.8958 214.25 16.8933C213.846 17.5656 213.422 18.2916 212.973 19.0932C212.158 20.5805 211.249 22.2694 210.384 24.1737C209.515 26.0741 208.625 28.164 207.886 30.449C207.142 32.739 206.476 35.1857 206.116 37.7956C206.112 37.8249 206.111 37.8563 206.107 37.8857C205.976 37.0895 205.533 34.8762 205.479 34.71C204.728 32.3682 201.9 28.2854 199.145 28.2819C197.161 28.2794 195.812 30.0813 196.002 31.9761C196.196 33.9103 197.928 35.5643 199.496 36.5207C201.265 37.599 205.725 38.1389 206.079 38.1807C205.76 40.6692 205.633 43.2493 205.649 45.8667C205.656 47.3635 205.71 48.8707 205.783 50.3809C205.648 49.6962 205.521 49.0852 205.494 49.0016C204.742 46.6599 201.914 42.577 199.16 42.5736C197.175 42.5711 195.826 44.3729 196.016 46.2673C196.21 48.2019 197.943 49.856 199.511 50.8119C201.102 51.7817 204.895 52.3186 205.901 52.4475C205.935 53.0267 205.963 53.6054 205.999 54.1841C206.174 56.9622 206.36 59.7339 206.459 62.4577C206.494 63.4181 206.493 64.3646 206.497 65.312C206.376 64.7039 206.268 64.1929 206.244 64.1168C205.492 61.775 202.664 57.6922 199.91 57.6887C197.925 57.6867 196.576 59.4886 196.766 61.3829C196.96 63.3171 198.693 64.9711 200.261 65.927C201.78 66.8531 205.276 67.3795 206.47 67.5383C206.444 68.5081 206.419 69.4799 206.35 70.4189C206.288 71.0588 206.274 71.6793 206.176 72.3187C206.092 72.9537 206.01 73.5821 205.928 74.2051C205.727 75.3984 205.526 76.631 205.3 77.7899C205.149 78.597 204.991 79.3638 204.833 80.1366C204.809 79.1807 204.722 77.3102 204.697 77.1544C204.31 74.7261 202.133 70.2617 199.41 69.8412C197.449 69.5386 195.842 71.115 195.743 73.0164C195.642 74.958 197.104 76.8549 198.509 78.0377C200.057 79.3394 204.207 80.5207 204.727 80.665C204.462 81.9424 204.192 83.1829 203.918 84.3488C202.987 88.3555 202.061 91.661 201.376 93.9779L203.093 94.7094C203.107 94.6561 203.121 94.6088 203.136 94.5541C203.779 92.1915 204.651 88.8063 205.511 84.7016C205.785 83.4053 206.053 82.0145 206.315 80.5839C206.661 80.5924 208.631 80.6287 210.473 80.4312C211.172 82.3877 213.795 85.4475 214.136 85.8396C213.21 86.7587 212.301 87.6439 211.429 88.4659C208.442 91.2943 205.846 93.54 203.997 95.0945L205.881 95.8976C207.65 94.3272 209.959 92.2149 212.563 89.6393C213.507 88.7098 214.498 87.6976 215.505 86.6482C215.939 86.9512 219.501 89.4049 221.494 89.7687C223.301 90.0986 225.694 90.0165 227.126 88.7013C228.528 87.4135 228.72 85.1708 227.237 83.8522C225.179 82.022 220.351 83.1879 218.232 84.4364C218.107 84.51 216.84 85.4604 216.05 86.0735C216.46 85.643 216.862 85.229 217.278 84.7807C218.106 83.8994 218.907 82.9948 219.772 82.0255C220.173 81.5428 220.579 81.0546 220.988 80.562C221.404 80.0823 221.783 79.5225 222.187 78.9995C223.097 77.767 223.961 76.4742 224.801 75.1521C225.575 75.8756 228.36 78.4054 230.104 79.008C231.84 79.6076 234.218 79.8893 235.833 78.806C237.414 77.7456 237.943 75.5576 236.677 74.0295C234.92 71.9087 229.971 72.3297 227.687 73.2428C227.545 73.2995 225.98 74.139 225.129 74.6162C225.628 73.8175 226.13 73.0228 226.609 72.1988C227.991 69.8193 229.316 67.3681 230.648 64.9284C231.056 64.1805 231.471 63.441 231.884 62.6986C232.156 62.9588 235.401 66.0375 237.355 66.7123C239.091 67.3124 241.469 67.5935 243.084 66.5107C244.665 65.4503 245.195 63.2624 243.928 61.7347C242.171 59.614 237.221 60.0349 234.938 60.9475C234.766 61.0162 232.516 62.2269 231.959 62.5632C232.869 60.9286 233.791 59.3084 234.765 57.7479C236.106 55.5928 237.54 53.5522 239.076 51.6787C239.203 51.8006 242.575 55.029 244.576 55.7202C246.312 56.3198 248.691 56.6015 250.305 55.5182C251.886 54.4578 252.416 52.2698 251.15 50.7422C249.392 48.6214 244.444 49.0424 242.16 49.9555C242.01 50.0152 240.296 50.9358 239.489 51.3926C239.434 51.3259 239.445 51.3378 239.389 51.2712C241.059 49.2837 242.926 47.569 244.754 46.0498C245.811 45.1681 246.869 44.3838 247.917 43.6444C248.484 44.3102 251.106 47.3237 252.838 48.1447C254.498 48.9314 256.83 49.4728 258.554 48.5737C260.242 47.6929 261.009 45.5766 259.918 43.9186C258.404 41.6177 253.439 41.4928 251.069 42.1491C250.94 42.1849 249.67 42.693 248.75 43.0756C249.229 42.7492 249.716 42.4034 250.179 42.0993C251.92 40.9549 253.583 40.0139 255.063 39.1924C255.909 38.7321 256.683 38.3325 257.411 37.9663C258.307 38.3295 261.939 39.7482 263.82 39.68C265.655 39.6133 267.975 39.0187 269.091 37.4259C270.184 35.8674 269.889 33.6351 268.157 32.6668Z" fill="#C6C6D4"/>
</g>
<g opacity="0.2">
<path d="M123.978 23.9474C122.498 25.5164 118.008 27.3107 118.004 27.3122C117.958 27.3306 117.72 23.9937 117.729 23.7812C117.835 21.3241 119.485 16.6391 122.141 15.9087C124.053 15.3827 125.831 16.7645 126.148 18.6415C126.472 20.5588 125.238 22.6109 123.978 23.9474Z" fill="#C6C6D4"/>
<path d="M79.4099 44.0905C79.3815 44.1318 77.3418 41.4796 77.2324 41.2974C75.966 39.1896 74.7573 34.3718 76.5696 32.2973C77.8748 30.8035 80.119 30.9752 81.4192 32.366C82.7473 33.7861 82.8503 36.1791 82.5363 37.9889C82.1671 40.1136 79.4119 44.0875 79.4099 44.0905Z" fill="#C6C6D4"/>
<path d="M59.2694 33.6297C61.6733 32.2856 66.1373 34.4627 67.9386 36.1371C68.0944 36.2819 70.2684 38.8251 70.2216 38.8445C70.2216 38.8445 70.1783 38.8625 70.1679 38.8669C70.8755 39.2048 71.6298 39.576 72.4459 39.9975C73.9472 40.7882 75.636 41.6958 77.4075 42.807C79.1804 43.9126 81.0763 45.1646 82.9538 46.6629C84.8377 48.1621 86.743 49.8356 88.4826 51.8141C88.5025 51.8364 88.5199 51.8623 88.5398 51.8847C88.2109 51.1483 87.359 49.0578 87.3118 48.8896C86.6465 46.5221 86.7529 41.556 89.0484 40.0338C90.7024 38.9376 92.8217 39.6959 93.7084 41.3808C94.6141 43.1015 94.0816 45.4363 93.3009 47.0993C92.4206 48.9742 88.9991 51.8847 88.7259 52.1156C90.3655 54.0145 91.8942 56.0969 93.3253 58.2889C94.1443 59.5413 94.931 60.8281 95.7033 62.1284C95.4391 61.4825 95.2077 60.9028 95.1843 60.8182C94.519 58.4506 94.626 53.4845 96.921 51.9628C98.575 50.8661 100.694 51.625 101.581 53.3093C102.486 55.0301 101.954 57.3648 101.173 59.0278C100.381 60.7147 97.5136 63.2549 96.7458 63.9167C97.0369 64.4188 97.333 64.9169 97.6216 65.42C99.0089 67.8334 100.383 70.2477 101.803 72.5745C102.303 73.3951 102.826 74.1843 103.346 74.976C103.112 74.4017 102.919 73.9166 102.898 73.8394C102.232 71.4713 102.339 66.5058 104.635 64.9836C106.288 63.8869 108.408 64.6457 109.294 66.3306C110.2 68.0508 109.667 70.3861 108.886 72.0486C108.13 73.6583 105.505 76.0264 104.596 76.8176C105.153 77.6118 105.71 78.4089 106.285 79.1538C106.689 79.6534 107.044 80.1625 107.478 80.6422C107.898 81.1258 108.314 81.6045 108.726 82.0787C109.552 82.963 110.399 83.8801 111.227 84.722C111.798 85.3122 112.354 85.864 112.911 86.4213C112.403 85.6112 111.444 84.003 111.379 83.8596C110.704 82.3713 110.197 79.7007 110.527 77.5306C110.426 77.3117 110.345 77.0843 110.287 76.8499C109.828 75.0023 110.905 73.0259 112.869 72.7442C115.595 72.3531 118.979 75.9891 120.058 78.1994C120.122 78.3298 120.654 79.8216 120.975 80.768C120.871 80.1829 120.764 79.6161 120.664 79.0125C120.46 77.8203 120.29 76.6245 120.103 75.3382C120.035 74.7142 119.966 74.0838 119.897 73.4473C119.814 72.8174 119.807 72.1416 119.758 71.4823C119.679 69.9522 119.672 68.3976 119.7 66.8312C118.656 67.0078 114.938 67.5816 113.15 67.1218C111.372 66.6645 109.233 65.5867 108.483 63.7928C107.75 62.0363 108.515 59.9195 110.414 59.3433C113.049 58.5436 116.945 61.6253 118.346 63.6465C118.434 63.7724 119.276 65.3359 119.722 66.2037C119.746 65.2618 119.766 64.3223 119.822 63.3709C119.981 60.6236 120.229 57.8485 120.463 55.0783C120.536 54.2299 120.597 53.384 120.663 52.5366C120.291 52.6037 115.887 53.381 113.885 52.8665C112.106 52.4092 109.967 51.3319 109.218 49.5375C108.484 47.781 109.25 45.6642 111.148 45.088C113.784 44.2883 117.679 47.37 119.081 49.3907C119.186 49.543 120.395 51.7942 120.675 52.3818C120.817 50.5168 120.942 48.6563 120.99 46.8176C121.061 44.2804 120.99 41.7874 120.743 39.377C120.57 39.4083 115.977 40.2408 113.927 39.7139C112.148 39.2566 110.008 38.1793 109.26 36.3849C108.526 34.6284 109.291 32.5111 111.19 31.9353C113.826 31.1357 117.721 34.2173 119.122 36.2381C119.215 36.371 120.138 38.0862 120.558 38.9112C120.64 38.8858 120.625 38.8908 120.708 38.8654C120.412 36.2859 119.8 33.8252 119.114 31.5497C118.719 30.231 118.268 28.9925 117.802 27.7978C116.963 28.0406 113.113 29.1075 111.216 28.8368C109.397 28.5775 107.153 27.7415 106.211 26.0407C105.289 24.3753 105.817 22.1868 107.641 21.4061C110.173 20.3223 114.383 22.9571 115.998 24.8122C116.086 24.9127 116.865 26.0373 117.421 26.8643C117.203 26.3284 116.987 25.771 116.767 25.2615C115.948 23.3472 115.079 21.6444 114.298 20.1427C113.846 19.2923 113.421 18.5324 113.016 17.8253C112.068 17.6337 108.256 16.8137 106.725 15.719C105.231 14.6511 103.624 12.8747 103.572 10.9315C103.521 9.02821 104.999 7.32989 106.977 7.47718C109.724 7.6817 112.246 11.9606 112.824 14.3511C112.874 14.5576 113.285 17.8781 113.235 17.8686C113.235 17.8686 113.189 17.8597 113.178 17.8572C113.581 18.5294 114.006 19.2554 114.454 20.0571C115.27 21.5449 116.178 23.2333 117.043 25.1376C117.912 27.0379 118.803 29.1279 119.541 31.4129C120.285 33.7028 120.952 36.1495 121.311 38.7595C121.315 38.7888 121.316 38.8202 121.32 38.8495C121.451 38.0534 121.895 35.84 121.948 35.6738C122.699 33.3321 125.528 29.2493 128.282 29.2458C130.266 29.2433 131.615 31.0451 131.426 32.94C131.232 34.8742 129.499 36.5282 127.931 37.4846C126.162 38.5629 121.703 39.1028 121.348 39.1446C121.668 41.6331 121.794 44.2132 121.778 46.8306C121.771 48.3274 121.717 49.8346 121.644 51.3448C121.78 50.6601 121.907 50.0491 121.933 49.9655C122.685 47.6237 125.514 43.5409 128.267 43.5374C130.252 43.5349 131.601 45.3368 131.411 47.2311C131.217 49.1658 129.485 50.8198 127.916 51.7757C126.325 52.7456 122.532 53.2825 121.526 53.4114C121.492 53.9906 121.465 54.5693 121.428 55.148C121.254 57.9261 121.068 60.6977 120.969 63.4216C120.933 64.382 120.934 65.3284 120.93 66.2759C121.052 65.6678 121.159 65.1568 121.184 65.0806C121.935 62.7389 124.763 58.6561 127.518 58.6526C129.502 58.6506 130.851 60.4524 130.661 62.3468C130.467 64.281 128.735 65.935 127.166 66.8909C125.648 67.8169 122.151 68.3439 120.957 68.5021C120.984 69.472 121.008 70.4438 121.077 71.3828C121.139 72.0227 121.154 72.6432 121.251 73.2826C121.334 73.9176 121.417 74.546 121.499 75.169C121.701 76.3623 121.901 77.5948 122.127 78.7537C122.278 79.5609 122.437 80.3277 122.594 81.1004C122.618 80.1446 122.705 78.2741 122.73 78.1183C123.118 75.69 125.295 71.2255 128.017 70.805C129.978 70.5025 131.584 72.0789 131.684 73.9802C131.785 75.9219 130.324 77.8188 128.918 79.0016C127.371 80.3033 123.22 81.4846 122.7 81.6289C122.965 82.9062 123.235 84.1468 123.509 85.3126C124.44 89.3193 125.366 92.6249 126.052 94.9417L124.334 95.6732C124.32 95.62 124.306 95.5727 124.292 95.518C123.648 93.1554 122.776 89.7702 121.917 85.6654C121.642 84.3692 121.374 82.9784 121.112 81.5478C120.767 81.5562 118.797 81.5926 116.954 81.3945C116.255 83.3511 113.632 86.4109 113.291 86.803C114.217 87.722 115.127 88.6073 115.999 89.4288C118.985 92.2572 121.582 94.5029 123.431 96.0574L121.546 96.8605C119.777 95.2901 117.468 93.1778 114.865 90.6022C113.92 89.6726 112.929 88.6605 111.922 87.6111C111.488 87.9141 107.926 90.3678 105.934 90.7315C104.126 91.0614 101.733 90.9793 100.301 89.6642C98.8989 88.3764 98.7073 86.1337 100.19 84.815C102.248 82.9849 107.077 84.1507 109.195 85.3987C109.32 85.4724 110.587 86.4228 111.377 87.0358C110.967 86.6054 110.565 86.1914 110.15 85.7431C109.321 84.8618 108.521 83.9572 107.655 82.9878C107.254 82.5052 106.849 82.017 106.44 81.5244C106.023 81.0447 105.644 80.4849 105.24 79.9619C104.33 78.7294 103.466 77.4366 102.626 76.1145C101.852 76.838 99.0676 79.3678 97.3235 79.9704C95.5874 80.57 93.2088 80.8516 91.5946 79.7684C90.0137 78.708 89.4843 76.52 90.7502 74.9919C92.5072 72.8711 97.4564 73.2921 99.7404 74.2052C99.8827 74.2619 101.448 75.1014 102.299 75.5786C101.799 74.7799 101.297 73.9857 100.819 73.1612C99.4363 70.7822 98.1117 68.3305 96.7791 65.8907C96.3716 65.1428 95.9561 64.4034 95.5431 63.661C95.2709 63.9212 92.026 66.9999 90.0725 67.6746C88.3363 68.2747 85.9578 68.5559 84.3431 67.4731C82.7622 66.4127 82.2332 64.2248 83.4991 62.6971C85.2562 60.5763 90.2053 60.9973 92.4888 61.9099C92.661 61.9786 94.9111 63.1892 95.4685 63.5256C94.5583 61.891 93.6363 60.2708 92.6625 58.7103C91.3214 56.5552 89.8873 54.5145 88.3512 52.6411C88.2249 52.763 84.8526 55.9914 82.8517 56.6826C81.1156 57.2822 78.7371 57.5638 77.1224 56.4806C75.5415 55.4202 75.012 53.2322 76.2779 51.7046C78.0355 49.5838 82.9841 50.0048 85.2676 50.9179C85.4179 50.9776 87.1321 51.8981 87.9382 52.3549C87.9935 52.2883 87.983 52.3002 88.0383 52.2335C86.3688 50.2461 84.5013 48.5309 82.6741 47.0122C81.6172 46.1304 80.5583 45.3462 79.5103 44.6068C78.9441 45.2726 76.3217 48.2861 74.5901 49.1071C72.9301 49.8938 70.5973 50.4352 68.8736 49.536C67.1857 48.6553 66.4194 46.539 67.5097 44.881C69.0234 42.58 73.989 42.4551 76.3585 43.1115C76.4874 43.1473 77.7573 43.6554 78.6774 44.038C78.1992 43.7116 77.712 43.3658 77.2482 43.0617C75.5081 41.9172 73.8446 40.9763 72.3643 40.1547C71.5184 39.6945 70.7451 39.2949 70.0171 38.9286C69.1204 39.2919 65.4889 40.7106 63.608 40.6424C61.7723 40.5757 59.4525 39.9811 58.3369 38.3882C57.2426 36.8298 57.5377 34.598 59.2694 33.6297Z" fill="#C6C6D4"/>
</g>
<path d="M275.587 80.4048V82.6709C275.587 83.256 275.114 83.7288 274.529 83.7288C273.944 83.7288 273.471 83.256 273.471 82.6709V80.4048H267.287V82.6709C267.287 83.256 266.814 83.7288 266.233 83.7288C265.648 83.7288 265.175 83.256 265.175 82.6709V80.4048H258.991V82.6709C258.991 83.256 258.518 83.7288 257.933 83.7288C257.347 83.7288 256.875 83.256 256.875 82.6709V80.4048H250.695V82.6709C250.695 83.256 250.222 83.7288 249.637 83.7288C249.052 83.7288 248.579 83.256 248.579 82.6709V80.4048H242.395V82.6709C242.395 82.961 242.278 83.2282 242.086 83.4198C241.893 83.6118 241.627 83.7288 241.337 83.7288C240.756 83.7288 240.283 83.256 240.283 82.6709V80.4048H237.441V109.764H278.43V80.4048H275.587ZM244.21 105.527H241.017V102.339H244.21V105.527ZM244.21 100.902H241.017V97.7084H244.21V100.902ZM244.21 96.2713H241.017V93.0832H244.21V96.2713ZM244.21 91.6456H241.017V88.4525H244.21V91.6456ZM249.318 105.527H246.125V102.339H249.318V105.527ZM249.318 100.902H246.125V97.7084H249.318V100.902ZM249.318 96.2713H246.125V93.0832H249.318V96.2713ZM249.318 91.6456H246.125V88.4525H249.318V91.6456ZM254.421 105.527H251.233V102.339H254.421V105.527ZM254.421 100.902H251.233V97.7084H254.421V100.902ZM254.421 96.2713H251.233V93.0832H254.421V96.2713ZM254.421 91.6456H251.233V88.4525H254.421V91.6456ZM259.529 105.527H256.336V102.339H259.529V105.527ZM259.529 100.902H256.336V97.7084H259.529V100.902ZM259.529 96.2713H256.336V93.0832H259.529V96.2713ZM259.529 91.6456H256.336V88.4525H259.529V91.6456ZM264.636 105.527H261.443V102.339H264.636V105.527ZM264.636 100.902H261.443V97.7084H264.636V100.902ZM264.636 96.2713H261.443V93.0832H264.636V96.2713ZM264.636 91.6456H261.443V88.4525H264.636V91.6456ZM269.744 105.527H266.551V102.339H269.744V105.527ZM269.744 100.902H266.551V97.7084H269.744V100.902ZM269.744 96.2713H266.551V93.0832H269.744V96.2713ZM269.744 91.6456H266.551V88.4525H269.744V91.6456ZM274.848 105.527H271.66V102.339H274.848V105.527ZM274.848 100.902H271.66V97.7084H274.848V100.902ZM274.848 96.2713H271.66V93.0832H274.848V96.2713ZM274.848 91.6456H271.66V88.4525H274.848V91.6456Z" stroke="#263238" stroke-width="0.7" stroke-miterlimit="10" stroke-linecap="round" stroke-linejoin="round"/>
<path d="M275.587 78.0218V82.6709C275.587 83.2561 275.114 83.7288 274.529 83.7288C273.943 83.7288 273.471 83.2561 273.471 82.6709V78.0218C273.471 77.4366 273.943 76.9639 274.529 76.9639C274.819 76.9639 275.086 77.0808 275.278 77.2729C275.47 77.4645 275.587 77.7267 275.587 78.0218Z" stroke="#263238" stroke-width="0.7" stroke-miterlimit="10" stroke-linecap="round" stroke-linejoin="round"/>
<path d="M267.287 78.0218V82.6709C267.287 83.2561 266.814 83.7288 266.234 83.7288C265.649 83.7288 265.176 83.2561 265.176 82.6709V78.0218C265.176 77.4366 265.649 76.9639 266.234 76.9639C266.524 76.9639 266.786 77.0808 266.978 77.2729C267.17 77.4645 267.287 77.7267 267.287 78.0218Z" stroke="#263238" stroke-width="0.7" stroke-miterlimit="10" stroke-linecap="round" stroke-linejoin="round"/>
<path d="M258.991 78.0218V82.6709C258.991 83.2561 258.518 83.7288 257.933 83.7288C257.348 83.7288 256.875 83.2561 256.875 82.6709V78.0218C256.875 77.4366 257.348 76.9639 257.933 76.9639C258.228 76.9639 258.49 77.0808 258.682 77.2729C258.873 77.4645 258.991 77.7267 258.991 78.0218Z" stroke="#263238" stroke-width="0.7" stroke-miterlimit="10" stroke-linecap="round" stroke-linejoin="round"/>
<path d="M250.694 78.0218V82.6709C250.694 83.2561 250.221 83.7288 249.636 83.7288C249.051 83.7288 248.578 83.2561 248.578 82.6709V78.0218C248.578 77.4366 249.051 76.9639 249.636 76.9639C249.931 76.9639 250.193 77.0808 250.385 77.2729C250.577 77.4645 250.694 77.7267 250.694 78.0218Z" stroke="#263238" stroke-width="0.7" stroke-miterlimit="10" stroke-linecap="round" stroke-linejoin="round"/>
<path d="M242.395 78.0218V82.6709C242.395 82.961 242.278 83.2282 242.086 83.4198C241.893 83.6118 241.627 83.7288 241.337 83.7288C240.756 83.7288 240.283 83.2561 240.283 82.6709V78.0218C240.283 77.7267 240.4 77.4645 240.592 77.2729C240.784 77.0808 241.047 76.9639 241.337 76.9639C241.922 76.9634 242.395 77.4366 242.395 78.0218Z" stroke="#263238" stroke-width="0.7" stroke-miterlimit="10" stroke-linecap="round" stroke-linejoin="round"/>
<path d="M74.9102 112.156C84.2128 112.156 91.7541 104.615 91.7541 95.3121C91.7541 86.0095 84.2128 78.4683 74.9102 78.4683C65.6076 78.4683 58.0664 86.0095 58.0664 95.3121C58.0664 104.615 65.6076 112.156 74.9102 112.156Z" stroke="#263238" stroke-width="0.7" stroke-miterlimit="10" stroke-linecap="round" stroke-linejoin="round"/>
<path d="M78.3003 109.817C86.3136 107.946 91.2934 99.9338 89.423 91.9205C87.5525 83.9072 79.5402 78.9274 71.5269 80.7979C63.5136 82.6683 58.5339 90.6806 60.4043 98.6939C62.2747 106.707 70.287 111.687 78.3003 109.817Z" stroke="#263238" stroke-width="0.7" stroke-miterlimit="10" stroke-linecap="round" stroke-linejoin="round"/>
<path d="M74.9114 96.735C75.6974 96.735 76.3346 96.0978 76.3346 95.3118C76.3346 94.5258 75.6974 93.8887 74.9114 93.8887C74.1254 93.8887 73.4883 94.5258 73.4883 95.3118C73.4883 96.0978 74.1254 96.735 74.9114 96.735Z" fill="#263238" stroke="#263238" stroke-width="0.7" stroke-miterlimit="10" stroke-linecap="round" stroke-linejoin="round"/>
<path d="M80.095 97.8478L74.9095 95.312L66.2637 104.763" stroke="#263238" stroke-width="0.7" stroke-miterlimit="10" stroke-linecap="round" stroke-linejoin="round"/>
<path d="M226.453 218.59H106.316C104.645 218.59 103.291 217.235 103.291 215.565V34.772C103.291 33.1015 104.645 31.7471 106.316 31.7471H226.454C228.124 31.7471 229.479 33.1015 229.479 34.772V215.565C229.478 217.236 228.124 218.59 226.453 218.59Z" fill="#263238" stroke="#263238" stroke-width="0.7" stroke-miterlimit="10" stroke-linecap="round" stroke-linejoin="round"/>
<path d="M223.066 35.9648H109.703V211.397H223.066V35.9648Z" fill="white" stroke="#263238" stroke-width="0.7" stroke-miterlimit="10" stroke-linecap="round" stroke-linejoin="round"/>
<path d="M182.215 81.4736H191.018" stroke="#263238" stroke-width="0.7" stroke-miterlimit="10"/>
<path d="M121.164 81.4736H175.4" stroke="#263238" stroke-width="0.7" stroke-miterlimit="10"/>
<path d="M169.152 88.2886H191.017" stroke="#263238" stroke-width="0.7" stroke-miterlimit="10"/>
<path d="M135.646 88.2886H163.19" stroke="#263238" stroke-width="0.7" stroke-miterlimit="10"/>
<path d="M121.164 88.2886H130.535" stroke="#263238" stroke-width="0.7" stroke-miterlimit="10"/>
<path d="M148.424 95.1035H191.018" stroke="#263238" stroke-width="0.7" stroke-miterlimit="10"/>
<path d="M121.164 95.1035H139.053" stroke="#263238" stroke-width="0.7" stroke-miterlimit="10"/>
<path d="M210.396 94.9068C214.363 93.9641 216.814 89.984 215.871 86.017C214.929 82.0501 210.949 79.5984 206.982 80.5411C203.015 81.4838 200.563 85.4639 201.506 89.4309C202.448 93.3979 206.429 95.8495 210.396 94.9068Z" stroke="#263238" stroke-width="0.7" stroke-miterlimit="10"/>
<path d="M129.967 111.857H121.164" stroke="#263238" stroke-width="0.7" stroke-miterlimit="10"/>
<path d="M191.017 111.857H136.781" stroke="#263238" stroke-width="0.7" stroke-miterlimit="10"/>
<path d="M143.029 118.672H121.164" stroke="#263238" stroke-width="0.7" stroke-miterlimit="10"/>
<path d="M176.536 118.672H148.992" stroke="#263238" stroke-width="0.7" stroke-miterlimit="10"/>
<path d="M191.017 118.672H181.646" stroke="#263238" stroke-width="0.7" stroke-miterlimit="10"/>
<path d="M163.757 125.487H121.164" stroke="#263238" stroke-width="0.7" stroke-miterlimit="10"/>
<path d="M191.018 125.487H173.129" stroke="#263238" stroke-width="0.7" stroke-miterlimit="10"/>
<path d="M210.396 125.291C214.363 124.348 216.814 120.368 215.871 116.401C214.929 112.434 210.949 109.982 206.982 110.925C203.015 111.868 200.563 115.848 201.506 119.815C202.448 123.782 206.429 126.233 210.396 125.291Z" stroke="#263238" stroke-width="0.7" stroke-miterlimit="10"/>
<path d="M182.215 142.24H191.018" stroke="#263238" stroke-width="0.7" stroke-miterlimit="10"/>
<path d="M121.164 142.24H175.4" stroke="#263238" stroke-width="0.7" stroke-miterlimit="10"/>
<path d="M169.152 149.055H191.017" stroke="#263238" stroke-width="0.7" stroke-miterlimit="10"/>
<path d="M135.646 149.055H163.19" stroke="#263238" stroke-width="0.7" stroke-miterlimit="10"/>
<path d="M121.164 149.055H130.535" stroke="#263238" stroke-width="0.7" stroke-miterlimit="10"/>
<path d="M148.424 155.87H191.018" stroke="#263238" stroke-width="0.7" stroke-miterlimit="10"/>
<path d="M121.164 155.87H139.053" stroke="#263238" stroke-width="0.7" stroke-miterlimit="10"/>
<path d="M213.909 153.708C216.793 150.825 216.793 146.15 213.909 143.267C211.026 140.384 206.352 140.384 203.469 143.267C200.585 146.15 200.585 150.825 203.469 153.708C206.352 156.591 211.026 156.591 213.909 153.708Z" stroke="#263238" stroke-width="0.7" stroke-miterlimit="10"/>
<path d="M175.93 17.0321C175.398 17.0321 174.967 16.6012 174.967 16.0692V10.6459C174.967 9.51233 174.048 8.59326 172.915 8.59326H164.174C163.04 8.59326 162.121 9.51233 162.121 10.6459V16.0692C162.121 16.6012 161.69 17.0321 161.158 17.0321C160.626 17.0321 160.195 17.463 160.195 17.995V32.6857H176.893V17.995C176.893 17.463 176.462 17.0321 175.93 17.0321ZM168.544 16.5265C167.057 16.5265 165.851 15.3208 165.851 13.8335C165.851 12.3462 167.057 11.1405 168.544 11.1405C170.031 11.1405 171.237 12.3462 171.237 13.8335C171.237 15.3208 170.031 16.5265 168.544 16.5265Z" fill="#263238" stroke="#263238" stroke-width="0.7" stroke-miterlimit="10" stroke-linecap="round" stroke-linejoin="round"/>
<path d="M194.618 37.269H142.469V32.3203C142.469 29.9438 144.395 28.0176 146.772 28.0176H190.315C192.691 28.0176 194.617 29.9443 194.617 32.3203V37.269H194.618Z" fill="white" stroke="#263238" stroke-width="0.7" stroke-miterlimit="10" stroke-linecap="round" stroke-linejoin="round"/>
<path d="M143.76 29.6174H193.325C192.428 28.6366 191.141 28.0176 189.706 28.0176H147.379C145.945 28.0176 144.658 28.6366 143.76 29.6174Z" fill="#263238" stroke="#263238" stroke-width="0.7" stroke-miterlimit="10" stroke-linecap="round" stroke-linejoin="round"/>
<path d="M194.618 37.2261H142.469V40.2669H194.618V37.2261Z" fill="white" stroke="#263238" stroke-width="0.7" stroke-miterlimit="10" stroke-linecap="round" stroke-linejoin="round"/>
<path d="M205.877 116.879L207.883 120.447L215.464 113.089" stroke="#9DA2FF" stroke-width="0.7" stroke-miterlimit="10" stroke-linecap="round"/>
<path d="M205.877 86.1755L207.883 89.7428L215.464 82.3848" stroke="#9DA2FF" stroke-width="0.7" stroke-miterlimit="10" stroke-linecap="round"/>
<path d="M182.215 51.437H191.018" stroke="#263238" stroke-width="0.7" stroke-miterlimit="10"/>
<path d="M121.164 51.437H175.4" stroke="#263238" stroke-width="0.7" stroke-miterlimit="10"/>
<path d="M169.152 58.252H191.017" stroke="#263238" stroke-width="0.7" stroke-miterlimit="10"/>
<path d="M135.646 58.252H163.19" stroke="#263238" stroke-width="0.7" stroke-miterlimit="10"/>
<path d="M121.164 58.252H130.535" stroke="#263238" stroke-width="0.7" stroke-miterlimit="10"/>
<path d="M148.424 65.0669H191.018" stroke="#263238" stroke-width="0.7" stroke-miterlimit="10"/>
<path d="M121.164 65.0669H139.053" stroke="#263238" stroke-width="0.7" stroke-miterlimit="10"/>
<path d="M213.909 62.905C216.793 60.0219 216.793 55.3473 213.909 52.4641C211.026 49.5809 206.352 49.5809 203.469 52.4641C200.585 55.3473 200.585 60.0219 203.469 62.905C206.352 65.7882 211.026 65.7882 213.909 62.905Z" stroke="#263238" stroke-width="0.7" stroke-miterlimit="10"/>
<path d="M205.877 56.1389L207.883 59.7062L215.464 52.3486" stroke="#9DA2FF" stroke-width="0.7" stroke-miterlimit="10" stroke-linecap="round"/>
<path d="M204.814 145.852L206.821 149.419L214.402 142.062" stroke="#9DA2FF" stroke-width="0.7" stroke-miterlimit="10" stroke-linecap="round"/>
<path d="M245.385 98.8375C245.385 98.8375 248.075 101.114 247.868 103.113C247.661 105.113 244.971 110.01 244.351 111.458C243.73 112.907 245.178 116.355 245.178 116.355L236.213 119.389C236.213 119.389 236.42 118.286 236.213 117.803C236.006 117.32 235.661 116.009 235.661 116.009C235.661 116.009 234.282 116.492 233.868 116.63C233.454 116.768 232.006 116.078 231.937 115.457C231.868 114.837 231.868 114.423 231.799 113.526C231.73 112.63 231.592 111.044 231.454 110.768C231.317 110.492 229.937 109.595 230.006 109.113C230.076 108.63 231.661 106.768 231.799 106.147C231.937 105.526 231.592 104.147 231.73 103.388C231.868 102.629 233.179 100.009 233.179 100.009C233.179 100.009 232.351 99.3192 234.627 97.4572C236.903 95.5961 242.627 95.0448 245.385 98.8375Z" fill="#F9A07B" stroke="#263238" stroke-width="0.7" stroke-miterlimit="10" stroke-linecap="round" stroke-linejoin="round"/>
<path d="M245.384 98.8375C242.626 95.0443 236.902 95.5961 234.626 97.4582C232.35 99.3202 233.178 100.01 233.178 100.01L235.247 101.596C235.247 101.596 233.315 103.803 233.592 104.079C233.868 104.355 235.384 106.286 235.384 106.286L235.252 106.929L234.978 105.885C234.978 105.885 234.121 109.315 233.96 110.172C233.799 111.03 233.799 111.352 233.424 111.459C233.049 111.566 231.453 110.769 231.453 110.769C231.453 110.769 231.441 112.799 231.387 113.656C231.333 114.513 231.28 115.211 231.226 115.961C231.173 116.711 232.298 117.943 233.638 117.676C234.978 117.408 235.699 116.703 235.66 116.01C235.621 115.318 236.103 112.906 235.889 112.424C235.675 111.941 235.27 109.547 235.66 108.493C235.66 108.493 236.557 106.562 237.522 106.562C238.487 106.562 238.625 109.183 238.35 109.803C238.074 110.424 237.936 110.769 237.936 110.769C237.936 110.769 237.936 111.182 240.625 112.079C242.644 112.751 243.769 112.376 244.204 112.146C244.221 111.89 244.265 111.654 244.349 111.458C244.97 110.01 247.659 105.113 247.866 103.113C248.074 101.114 245.384 98.8375 245.384 98.8375Z" fill="#263238" stroke="#263238" stroke-width="0.7" stroke-miterlimit="10" stroke-linecap="round" stroke-linejoin="round"/>
<path d="M237.936 110.769C237.936 110.769 237.316 111.734 236.764 111.941C236.212 112.148 235.867 111.389 235.867 111.389" stroke="#263238" stroke-width="0.7" stroke-miterlimit="10" stroke-linecap="round" stroke-linejoin="round"/>
<path d="M232.004 106.355C232.004 106.85 232.127 107.251 232.28 107.251C232.432 107.251 232.555 106.85 232.555 106.355C232.555 105.86 232.432 105.458 232.28 105.458C232.127 105.458 232.004 105.86 232.004 106.355Z" fill="#263238"/>
<path d="M232.833 105.251C232.833 105.251 232.97 104.354 231.867 104.768" stroke="#263238" stroke-width="0.7" stroke-miterlimit="10" stroke-linecap="round" stroke-linejoin="round"/>
<path d="M232.176 112.76C232.176 112.76 232.935 112.553 233.21 112.208" stroke="white" stroke-width="0.7" stroke-miterlimit="10" stroke-linecap="round" stroke-linejoin="round"/>
<path d="M206.92 130.4H222.529L226.15 142.632H210.541L206.92 130.4Z" fill="white" stroke="#263238" stroke-width="0.7" stroke-miterlimit="10" stroke-linecap="round" stroke-linejoin="round"/>
<path d="M208.029 131.105H221.838L225.042 141.927H211.233L208.029 131.105Z" fill="white" stroke="#263238" stroke-width="0.7" stroke-miterlimit="10" stroke-linecap="round" stroke-linejoin="round"/>
<path d="M210.653 143.588H229.703V142.76H210.653V143.588Z" fill="white" stroke="#263238" stroke-width="0.7" stroke-miterlimit="10" stroke-linecap="round" stroke-linejoin="round"/>
<path d="M235.731 221.862C235.731 221.862 234.05 224.214 232.915 224.833C231.781 225.453 228.996 226.174 228.996 226.896C228.996 227.618 229.202 227.721 230.44 228.134C231.678 228.546 233.947 228.546 235.184 228.546C236.422 228.546 237.762 228.546 238.175 228.649C238.588 228.752 240.857 228.959 241.888 228.959C242.92 228.959 242.869 226.217 242.869 226.217L235.731 221.862Z" fill="white" stroke="#263238" stroke-width="0.7" stroke-miterlimit="10" stroke-linecap="round" stroke-linejoin="round"/>
<path d="M252.327 163.419C252.327 163.419 249.887 182.664 247.588 189.076C245.29 195.488 246.258 197.424 244.685 203.957C243.112 210.49 242.87 225.854 242.87 226.217C242.87 226.58 242.144 226.217 239.604 224.886C237.063 223.556 235.732 221.862 235.732 221.862C235.732 221.862 235.853 220.531 236.095 219.563C236.337 218.596 236.821 216.055 236.821 216.055C236.821 216.055 235.853 207.828 236.942 194.641C238.031 181.455 238.515 165.819 238.515 165.819C238.515 165.819 247.367 164.629 252.327 163.419Z" fill="#263238" stroke="#263238" stroke-width="0.7" stroke-miterlimit="10" stroke-linecap="round" stroke-linejoin="round"/>
<path d="M240.144 226.033C240.144 226.033 238.404 227.844 237.318 228.425C236.23 229.004 232.824 230.236 232.752 230.744C232.679 231.251 233.042 232.266 233.259 232.338C233.477 232.411 236.376 232.918 239.13 232.991C241.884 233.063 245.073 232.7 245.87 232.7C246.668 232.7 248.552 233.425 248.625 231.251C248.697 229.076 247.537 225.96 247.537 225.96C247.537 225.96 243.695 227.12 240.144 226.033Z" fill="white" stroke="#263238" stroke-width="0.7" stroke-miterlimit="10" stroke-linecap="round" stroke-linejoin="round"/>
<path d="M245.799 170.629C245.799 170.629 244.918 183.076 244.477 186.82C244.037 190.565 244.918 198.495 245.909 204.002C246.901 209.509 247.231 220.853 247.231 220.853C247.231 220.853 247.892 221.294 247.561 221.955C247.231 222.616 246.901 223.607 246.901 223.607C246.901 223.607 248.112 224.047 248.002 224.819C247.892 225.589 247.562 227.022 247.562 227.022C247.562 227.022 246.901 227.131 244.588 227.131C242.275 227.131 240.403 226.691 240.403 226.691L239.522 226.251C239.522 226.251 239.301 224.489 239.301 223.497C239.301 222.506 240.402 221.515 240.292 220.964C240.182 220.413 239.632 217.329 239.191 214.796C238.751 212.263 239.081 210.721 238.31 208.077C237.539 205.434 233.243 189.684 233.243 189.684C233.243 189.684 231.261 171.4 231.151 168.866C231.041 166.333 231.041 165.232 231.041 165.232C231.041 165.232 234.456 162.479 235.226 162.479C235.997 162.479 245.799 170.629 245.799 170.629Z" fill="#263238" stroke="#263238" stroke-width="0.7" stroke-miterlimit="10" stroke-linecap="round" stroke-linejoin="round"/>
<path d="M230.717 163.348C230.717 163.348 230.339 166.118 230.717 166.685C231.094 167.252 234.369 168.133 238.461 168.574C242.554 169.015 247.78 168.574 249.543 167.944C251.306 167.315 252.439 166.748 252.691 166.307C252.943 165.867 252.754 163.537 252.754 163.537C252.754 163.537 236.447 164.481 230.717 163.348Z" fill="#9DA2FF" stroke="#263238" stroke-width="0.7" stroke-miterlimit="10" stroke-linecap="round" stroke-linejoin="round"/>
<path d="M246.627 118.009C246.627 118.009 252.421 121.88 253.497 128.031C254.457 133.514 252.903 152.836 252.903 153.87C252.903 154.905 253.699 163.284 253.699 163.284C254.517 165.047 247.808 166.657 244.128 166.999C240.873 167.302 233.696 166.579 231.627 165.557C230.972 165.233 230.344 164.883 230.328 164.153C230.255 160.777 230.083 151.762 230.306 150.421C230.582 148.766 230.283 139.112 230.283 135.801C230.283 132.491 229.041 127.457 230.145 125.319C231.248 123.181 234.076 121.733 234.076 121.733C234.076 121.733 239.248 117.457 246.627 118.009Z" fill="#9DA2FF" stroke="#263238" stroke-width="0.7" stroke-miterlimit="10" stroke-linecap="round" stroke-linejoin="round"/>
<path d="M246.68 137.572C246.099 138.651 245.57 139.534 245.189 139.968" stroke="#263238" stroke-width="0.7" stroke-miterlimit="10" stroke-linecap="round" stroke-linejoin="round"/>
<path d="M250.621 129.323C250.621 129.323 249.293 132.346 247.885 135.213" stroke="#263238" stroke-width="0.7" stroke-miterlimit="10" stroke-linecap="round" stroke-linejoin="round"/>
<path d="M247.906 138.882L244.973 142.792" stroke="#263238" stroke-width="0.7" stroke-miterlimit="10" stroke-linecap="round" stroke-linejoin="round"/>
<path d="M246.693 115.182L248.003 118.492C248.003 118.492 245.244 118.63 242.693 118.975C240.141 119.32 234.072 121.733 234.072 121.733C234.072 121.733 234.693 119.251 235.175 118.768C235.658 118.285 237.451 116.492 240.899 115.733C244.348 114.975 246.693 115.182 246.693 115.182Z" fill="#9DA2FF" stroke="#263238" stroke-width="0.7" stroke-miterlimit="10" stroke-linecap="round" stroke-linejoin="round"/>
<path d="M236.711 146.582C236.711 146.582 236.27 151.792 235.697 152.047C235.124 152.302 220.911 147.347 219.892 146.838C218.872 146.328 218.299 146.392 218.108 146.328C217.917 146.264 216.197 146.264 215.56 145.946C214.923 145.627 214.286 144.799 214.094 144.671C213.903 144.544 212.374 144.48 211.928 144.162C211.483 143.843 210.909 143.589 211.291 143.398C211.674 143.207 213.585 142.824 213.585 142.824C213.585 142.824 213.649 141.932 214.413 141.805C215.177 141.677 214.922 141.996 216.77 140.913C218.618 139.83 218.427 140.722 220.019 141.868C221.612 143.015 222.377 144.289 222.568 144.353C222.759 144.417 228.556 146.583 228.556 146.583H236.711V146.582Z" fill="white" stroke="#263238" stroke-width="0.7" stroke-miterlimit="10" stroke-linecap="round" stroke-linejoin="round"/>
<path d="M213.586 142.823L216.707 142.441" stroke="#263238" stroke-width="0.7" stroke-miterlimit="10" stroke-linecap="round" stroke-linejoin="round"/>
<path d="M224.039 144.86C224.039 144.86 223.16 144.103 222.568 144.353C221.977 144.603 221.117 145.719 221.032 147.094C220.946 148.469 223.179 148.641 223.179 148.641L224.039 144.86Z" fill="#9DA2FF" stroke="#263238" stroke-width="0.7" stroke-miterlimit="10" stroke-linecap="round" stroke-linejoin="round"/>
<path d="M235.779 122.357C234.63 122.357 231.603 123.192 230.663 124.237C229.724 125.281 229.619 128.309 229.932 132.381C230.245 136.443 231.84 144.075 231.847 144.111C231.829 144.025 231.65 144.515 231.601 144.603C231.392 144.975 231.924 145.038 231.429 145.118C231.253 145.147 230.294 145.246 230.119 145.216C229.39 145.091 228.66 144.968 227.931 144.846C226.75 144.649 224.711 144.377 223.508 144.377C223.043 144.377 221.819 148.119 222.517 148.933C223.214 149.747 237.046 155.121 237.977 154.888C238.907 154.655 240.685 142.43 240.657 142.373C240.929 139.022 241.254 135.09 241.313 134.678" fill="#9DA2FF"/>
<path d="M235.779 122.357C234.63 122.357 231.603 123.192 230.663 124.237C229.724 125.281 229.619 128.309 229.932 132.381C230.245 136.443 231.84 144.075 231.847 144.111C231.829 144.025 231.65 144.515 231.601 144.603C231.392 144.975 231.924 145.038 231.429 145.118C231.253 145.147 230.294 145.246 230.119 145.216C229.39 145.091 228.66 144.968 227.931 144.846C226.75 144.649 224.711 144.377 223.508 144.377C223.043 144.377 221.819 148.119 222.517 148.933C223.214 149.747 237.046 155.121 237.977 154.888C238.907 154.655 240.685 142.43 240.657 142.373C240.929 139.022 241.254 135.09 241.313 134.678" stroke="#263238" stroke-width="0.7" stroke-miterlimit="10" stroke-linecap="round" stroke-linejoin="round"/>
<path d="M231.43 145.118C231.43 145.118 232.976 146.75 234.351 147.781" stroke="#263238" stroke-width="0.7" stroke-miterlimit="10" stroke-linecap="round" stroke-linejoin="round"/>
<path d="M232.719 147.524C232.719 147.524 233.921 148.641 234.781 148.984" stroke="#263238" stroke-width="0.7" stroke-miterlimit="10" stroke-linecap="round" stroke-linejoin="round"/>
<path d="M181.119 113.723C180.833 112.014 179.694 110.874 179.409 109.829C179.125 108.785 178.46 107.55 178.46 107.55C178.46 107.55 176.785 110.944 176.234 113.771L175.982 113.182L171.264 116.882L170.986 125.116L178.638 125.477C178.638 125.477 178.324 124.114 178.219 123.102C178.113 122.088 178.259 120.485 178.392 120.111C178.392 120.111 180.554 120.16 180.744 119.4C180.934 118.64 181.403 115.432 181.119 113.723Z" fill="#F9A07B" stroke="#263238" stroke-width="0.7" stroke-miterlimit="10" stroke-linecap="round" stroke-linejoin="round"/>
<path d="M179.887 110.694C179.887 110.694 180.5 110.917 180.778 110.917C181.057 110.917 181.559 110.973 181.391 111.641C181.224 112.31 180.834 112.533 180.834 112.533L179.887 110.694Z" fill="white" stroke="#263238" stroke-width="0.7" stroke-miterlimit="10" stroke-linecap="round" stroke-linejoin="round"/>
<path d="M177.615 205.845C177.615 205.845 176.569 223.628 176.569 223.91C176.569 224.191 175.254 228.607 175.442 229.264C175.63 229.922 177.133 230.11 178.167 230.204C179.2 230.298 181.361 230.58 182.206 230.58C183.052 230.58 186.058 230.391 186.621 230.204C187.185 230.016 187.937 229.452 187.279 228.983C186.621 228.513 185.025 228.325 183.146 226.164C181.267 224.004 180.797 223.064 180.797 223.064L184.755 206.033L177.615 205.845Z" fill="#F9A07B" stroke="#263238" stroke-width="0.7" stroke-miterlimit="10" stroke-linecap="round" stroke-linejoin="round"/>
<path d="M151.215 202.557C151.215 202.557 143.898 220.765 143.334 221.517C142.77 222.269 138.972 227.07 138.878 228.009C138.784 228.948 143.645 229.038 144.491 228.474C145.336 227.91 146.34 223.021 146.904 221.987C147.467 220.953 159.952 203.872 159.952 203.872L151.215 202.557Z" fill="#F9A07B" stroke="#263238" stroke-width="0.7" stroke-miterlimit="10" stroke-linecap="round" stroke-linejoin="round"/>
<path d="M163.541 149.612L163.402 152.669C163.402 152.669 159.595 160.89 155.884 171.098C151.844 182.213 146.592 201.434 146.592 201.434C146.592 201.434 150.065 204.629 159.513 206.158C168.96 207.686 174.838 208.333 179.976 208.177C186.187 207.989 194.106 206.296 194.106 206.296C194.106 206.296 189.661 179.066 186.048 166.701C182.436 154.336 181.577 153.107 181.577 153.107L180.346 146.213L163.541 149.612Z" fill="#14B9A4" stroke="#263238" stroke-width="0.7" stroke-miterlimit="10" stroke-linecap="round" stroke-linejoin="round"/>
<path d="M169.439 170.654L168.404 207.132" stroke="#263238" stroke-width="0.7" stroke-miterlimit="10" stroke-linecap="round" stroke-linejoin="round"/>
<path d="M169.515 167.953L169.475 169.387" stroke="#263238" stroke-width="0.7" stroke-miterlimit="10" stroke-linecap="round" stroke-linejoin="round"/>
<path d="M177.404 153.383C177.985 153.261 178.554 153.117 179.102 152.948" stroke="#263238" stroke-width="0.7" stroke-miterlimit="10" stroke-linecap="round" stroke-linejoin="round"/>
<path d="M165.07 153.643C165.07 153.643 170.231 154.342 175.278 153.729" stroke="#263238" stroke-width="0.7" stroke-miterlimit="10" stroke-linecap="round" stroke-linejoin="round"/>
<path d="M198.16 113.68C198.16 113.68 197.752 111.843 197.684 110.618C197.616 109.393 196.459 107.76 196.595 107.08C196.731 106.4 197.412 106.467 197.751 106.672C198.092 106.876 198.5 107.556 198.5 107.556C198.5 107.556 199.452 104.63 199.452 103.338C199.452 102.045 200.269 102.182 200.609 103.066C200.949 103.951 200.473 107.352 200.473 107.352C200.473 107.352 201.766 107.693 202.378 107.964C202.99 108.236 204.147 108.781 203.943 110.482C203.739 112.182 203.535 113.135 203.126 113.135C202.718 113.135 202.378 112.591 202.378 112.591C202.378 112.591 202.378 114.428 201.765 114.972C201.153 115.517 199.928 115.585 199.928 115.585C199.928 115.585 200.065 114.224 198.16 113.68Z" fill="white" stroke="#263238" stroke-width="0.7" stroke-miterlimit="10" stroke-linecap="round" stroke-linejoin="round"/>
<path d="M202.377 112.591C202.377 112.591 202.785 111.026 202.785 110.822" stroke="#263238" stroke-width="0.7" stroke-miterlimit="10" stroke-linecap="round" stroke-linejoin="round"/>
<path d="M198.502 107.556L198.094 109.461" stroke="#263238" stroke-width="0.7" stroke-miterlimit="10" stroke-linecap="round" stroke-linejoin="round"/>
<path d="M196.469 115.584L197.751 113.414C197.751 113.414 198.244 112.724 199.427 113.119C199.439 113.123 199.45 113.127 199.462 113.131C200.536 113.494 201.131 114.643 200.839 115.738L200.512 116.964C200.512 116.964 197.948 115.485 196.469 115.584Z" fill="#9DA2FF" stroke="#263238" stroke-width="0.7" stroke-miterlimit="10" stroke-linecap="round" stroke-linejoin="round"/>
<path d="M142.975 159.071C142.975 159.071 143.285 160.696 143.439 161.857C143.594 163.018 144.368 165.34 144.91 165.649C145.452 165.959 146.148 166.346 145.374 166.578C144.6 166.81 144.136 166.887 143.439 166.345C142.743 165.803 142.279 165.184 142.279 165.184C142.279 165.184 141.737 167.584 141.35 168.745C140.963 169.906 139.802 171.763 139.802 171.763C139.802 171.763 139.764 172.383 139.3 172.615C138.836 172.847 138.505 171.923 138.505 171.923C138.505 171.923 137.882 173.376 137.48 171.84C137.322 171.237 136.783 167.197 136.861 166.423C136.939 165.649 140.068 158.476 140.068 158.476L142.975 159.071Z" fill="white" stroke="#263238" stroke-width="0.7" stroke-miterlimit="10" stroke-linecap="round" stroke-linejoin="round"/>
<path d="M138.578 167.585C138.332 168.035 138.1 168.604 138.1 168.822C138.1 169.132 138.505 171.924 138.505 171.924" stroke="#263238" stroke-width="0.7" stroke-miterlimit="10" stroke-linecap="round" stroke-linejoin="round"/>
<path d="M139.801 171.763L139.402 169.053L140.11 167.274" stroke="#263238" stroke-width="0.7" stroke-miterlimit="10" stroke-linecap="round" stroke-linejoin="round"/>
<path d="M140.344 170.835C140.344 170.835 140.376 169.376 140.476 168.708C140.576 168.039 140.745 168.161 140.963 167.352" stroke="#263238" stroke-width="0.7" stroke-miterlimit="10" stroke-linecap="round" stroke-linejoin="round"/>
<path d="M141.117 163.714C141.117 163.714 141.04 164.411 140.498 164.952C139.956 165.494 138.873 166.268 138.873 166.268" stroke="#263238" stroke-width="0.7" stroke-miterlimit="10" stroke-linecap="round" stroke-linejoin="round"/>
<path d="M161.858 126.134C161.858 126.134 155.547 129.191 155.153 129.979C154.758 130.768 146.87 144.869 145.785 146.249C144.701 147.629 141.348 149.404 140.954 150.785C140.559 152.165 140.855 155.912 140.855 155.912L140.066 158.476C140.066 158.476 140.165 159.363 141.545 159.659C142.926 159.954 142.926 159.954 142.926 159.954L145.292 157.686C145.292 157.686 150.42 156.404 152.49 153.939C154.561 151.474 159.589 139.938 159.589 139.938L158.801 147.727C158.801 147.727 163.928 148.516 170.041 148.023C176.155 147.53 182.86 146.545 182.86 146.545L181.972 137.473C181.972 137.473 196.566 135.107 197.354 134.416C198.143 133.726 198.833 131.853 198.932 131.163C199.031 130.472 201.496 117.26 201.496 117.26C201.496 117.26 200.609 115.781 198.538 115.386C196.467 114.992 194.396 116.076 194.298 116.668C194.199 117.26 189.959 125.838 189.959 125.838C189.959 125.838 189.663 125.641 188.579 126.134C187.494 126.627 185.584 125.856 185.584 125.856C185.584 125.856 181.775 124.754 179.606 124.951C177.437 125.148 175.366 125.444 175.366 125.444C175.366 125.444 171.52 123.669 168.661 124.457C165.802 125.247 161.858 126.134 161.858 126.134Z" fill="#9DA2FF" stroke="#263238" stroke-width="0.7" stroke-miterlimit="10" stroke-linecap="round" stroke-linejoin="round"/>
<path d="M175.467 138.36L181.974 137.473L177.636 139.741" stroke="#263238" stroke-width="0.7" stroke-miterlimit="10" stroke-linecap="round" stroke-linejoin="round"/>
<path d="M159.691 135.501L159.593 139.939L158.113 138.065" stroke="#263238" stroke-width="0.7" stroke-miterlimit="10" stroke-linecap="round" stroke-linejoin="round"/>
<path d="M141.744 156.306C141.744 156.306 142.04 157.292 144.406 157.292" stroke="#263238" stroke-width="0.7" stroke-miterlimit="10" stroke-linecap="round" stroke-linejoin="round"/>
<path d="M167.206 118.213C170.444 120.711 173.168 119.202 174.335 118.035C175.756 116.614 175.745 114.751 176.669 112.977C176.792 112.326 178.936 110.062 179.101 109.524C179.481 108.289 178.745 106.125 178.745 106.125C178.745 106.125 180.835 106.409 179.885 104.321C178.935 102.231 178.081 101.472 176.086 101.282C174.092 101.092 172.952 102.706 172.952 102.706C172.952 102.706 170.578 101.567 168.964 102.421C167.349 103.276 165.008 102.439 163.1 108.211C162.929 108.728 162.547 109.622 162.517 110.253C162.435 111.928 163.392 113.127 164.346 114.506C165.815 116.631 165.171 116.644 167.206 118.213Z" fill="#263238" stroke="#263238" stroke-width="0.7" stroke-miterlimit="10" stroke-linecap="round" stroke-linejoin="round"/>
<path d="M171.08 115.494C171.08 116.823 170.004 117.9 168.675 117.9C167.346 117.9 166.27 116.823 166.27 115.494C166.27 114.166 167.346 113.089 168.675 113.089C170.004 113.089 171.08 114.166 171.08 115.494Z" fill="white" stroke="#263238" stroke-width="0.7" stroke-miterlimit="10" stroke-linecap="round" stroke-linejoin="round"/>
<path d="M164.288 119.935C164.305 121.429 164.304 122.894 162.954 123.906C161.474 125.017 155.737 129.279 158.883 133.627C162.028 137.975 162.477 136.772 162.199 138.252C161.921 139.733 155.816 143.803 156.926 147.411C158.036 151.019 162.569 153.054 161.922 154.442C161.274 155.83 163.31 162.676 171.173 159.068C179.037 155.46 178.491 149.247 175.336 142.231C174.607 140.61 174.949 138.536 177.91 135.206C180.87 131.876 178.64 125.477 175.521 122.248C173.681 120.343 172.931 118.825 173.023 118.455C173.116 118.084 170.156 113.736 167.658 115.032C166.107 115.836 164.654 117.374 164.34 119.181C164.298 119.422 164.285 119.674 164.288 119.935Z" fill="#263238" stroke="#263238" stroke-width="0.7" stroke-miterlimit="10" stroke-linecap="round" stroke-linejoin="round"/>
<path d="M176.67 112.977C176.67 112.977 175.697 111.616 175.016 113.074C174.335 114.533 175.162 115.992 175.843 116.527C176.523 117.062 177.01 115.117 177.01 115.117" fill="#F9A07B"/>
<path d="M176.67 112.977C176.67 112.977 175.697 111.616 175.016 113.074C174.335 114.533 175.162 115.992 175.843 116.527C176.523 117.062 177.01 115.117 177.01 115.117" stroke="#263238" stroke-width="0.7" stroke-miterlimit="10" stroke-linecap="round" stroke-linejoin="round"/>
<path d="M186.621 230.205C187.185 230.016 187.936 229.453 187.279 228.983C186.621 228.514 185.024 228.326 183.145 226.165L183.046 227.847C183.046 227.847 178.826 227.674 175.807 226.973C175.557 228.013 175.362 228.983 175.442 229.265C175.63 229.923 177.133 230.111 178.166 230.205C179.2 230.299 181.361 230.58 182.206 230.58C183.051 230.58 186.057 230.392 186.621 230.205Z" fill="#9DA2FF" stroke="#263238" stroke-width="0.7" stroke-miterlimit="10" stroke-linecap="round" stroke-linejoin="round"/>
<path d="M144.491 228.474C144.84 228.241 145.216 227.267 145.578 226.134C143.527 226.272 141.484 225.812 140.357 225.491C139.564 226.613 138.916 227.629 138.878 228.01C138.784 228.949 143.645 229.038 144.491 228.474Z" fill="#9DA2FF" stroke="#263238" stroke-width="0.7" stroke-miterlimit="10" stroke-linecap="round" stroke-linejoin="round"/>
<path d="M79.2159 182.492H75.041V189.902H79.2159V182.492Z" fill="#263238" stroke="#263238" stroke-width="0.7" stroke-miterlimit="10" stroke-linecap="round" stroke-linejoin="round"/>
<path d="M79.425 184.745H74.1867C69.8909 184.745 66.4082 181.263 66.4082 176.967V160.711C66.4082 156.415 69.8909 152.933 74.1867 152.933H79.425C83.7208 152.933 87.2035 156.415 87.2035 160.711V176.967C87.204 181.263 83.7213 184.745 79.425 184.745Z" fill="#89DCD2" stroke="#263238" stroke-width="0.7" stroke-miterlimit="10" stroke-linecap="round" stroke-linejoin="round"/>
<path d="M70.573 228.736C70.573 227.76 69.7823 226.97 68.807 226.97C67.8317 226.97 67.041 227.76 67.041 228.736C67.041 229.711 67.8317 230.502 68.807 230.502C69.7823 230.502 70.573 229.711 70.573 228.736Z" fill="#263238" stroke="#263238" stroke-width="0.7" stroke-miterlimit="10" stroke-linecap="round" stroke-linejoin="round"/>
<path d="M105.075 228.736C105.075 227.76 104.284 226.97 103.309 226.97C102.334 226.97 101.543 227.76 101.543 228.736C101.543 229.711 102.334 230.502 103.309 230.502C104.284 230.502 105.075 229.711 105.075 228.736Z" fill="#263238" stroke="#263238" stroke-width="0.7" stroke-miterlimit="10" stroke-linecap="round" stroke-linejoin="round"/>
<path d="M86.9145 228.736C86.9145 227.76 86.5473 226.97 86.094 226.97C85.6407 226.97 85.2734 227.76 85.2734 228.736C85.2734 229.711 85.6407 230.502 86.094 230.502C86.5473 230.502 86.9145 229.711 86.9145 228.736Z" fill="#263238" stroke="#263238" stroke-width="0.7" stroke-miterlimit="10" stroke-linecap="round" stroke-linejoin="round"/>
<path d="M87.7018 219.151V193.836H84.2355V219.255L67.1289 226.021V227.722H69.6144V226.283L86.0995 222.881L102.585 226.283V227.722H105.07V226.021L87.7018 219.151Z" fill="#263238" stroke="#263238" stroke-width="0.7" stroke-miterlimit="10" stroke-linecap="round" stroke-linejoin="round"/>
<path d="M85.2291 227.717H86.9628L87.3345 219.5H84.8574L85.2291 227.717Z" fill="#263238" stroke="#263238" stroke-width="0.7" stroke-miterlimit="10" stroke-linecap="round" stroke-linejoin="round"/>
<path d="M90.3726 192.872H81.5586V198.105H90.3726V192.872Z" fill="#263238" stroke="#263238" stroke-width="0.7" stroke-miterlimit="10" stroke-linecap="round" stroke-linejoin="round"/>
<path d="M98.4479 194.799H72.6567C71.032 194.799 69.7148 193.482 69.7148 191.857V190.993C69.7148 189.368 71.032 188.051 72.6567 188.051H98.4479C100.073 188.051 101.39 189.368 101.39 190.993V191.857C101.39 193.482 100.073 194.799 98.4479 194.799Z" fill="#89DCD2" stroke="#263238" stroke-width="0.7" stroke-miterlimit="10" stroke-linecap="round" stroke-linejoin="round"/>
<path d="M123.45 203.699L126.08 207.596L129.197 207.401C129.197 207.401 133.767 207.459 134.547 207.264C135.326 207.069 135.619 207.751 135.229 208.53C134.839 209.31 131.445 211.742 129.691 212.814C127.938 213.886 124.131 215.585 123.644 215.682C123.157 215.78 122.572 214.805 121.501 211.785C120.429 208.764 118.48 205.744 118.48 205.744L123.45 203.699Z" fill="#F9A07B" stroke="#263238" stroke-width="0.7" stroke-miterlimit="10" stroke-linecap="round" stroke-linejoin="round"/>
<path d="M135.228 208.531C135.617 207.752 135.325 207.07 134.546 207.265C133.767 207.46 129.196 207.402 129.196 207.402L126.079 207.597C126.176 209.351 126.566 210.227 126.566 210.227C126.566 210.227 122.182 211.299 121.5 211.786C122.572 214.806 123.156 215.781 123.643 215.684C124.13 215.586 127.937 213.887 129.691 212.815C131.445 211.743 134.838 209.31 135.228 208.531Z" fill="white" stroke="#263238" stroke-width="0.7" stroke-miterlimit="10" stroke-linecap="round" stroke-linejoin="round"/>
<path d="M135.093 207.305C134.452 207.982 133.371 208.933 131.548 210.133C128.56 212.099 124.435 213.883 122.643 214.621C123.056 215.444 123.366 215.739 123.644 215.683C124.131 215.586 127.938 213.886 129.691 212.815C131.445 211.743 134.839 209.311 135.228 208.532C135.504 207.979 135.432 207.482 135.093 207.305Z" fill="#9DA2FF" stroke="#263238" stroke-width="0.7" stroke-miterlimit="10" stroke-linecap="round" stroke-linejoin="round"/>
<path d="M116.626 172.779C116.991 171.965 119.903 182.614 122.237 192.775C123.812 199.628 125.192 203.738 125.192 203.738C125.192 203.738 122.961 205.648 121.597 206.33C120.233 207.012 117.895 207.889 117.895 207.889C117.895 207.889 114.411 200.316 112.463 196.516C110.514 192.716 109.969 190.175 108.41 187.349C106.851 184.524 106.456 179.436 106.456 179.436C106.456 179.436 105.481 174.565 109.184 173.298C112.886 172.032 115.554 171.415 116.626 172.779Z" fill="#9DA2FF" stroke="#263238" stroke-width="0.7" stroke-miterlimit="10" stroke-linecap="round" stroke-linejoin="round"/>
<path d="M106.326 213.764C106.326 213.764 105.654 217.941 105.199 219.464C104.745 220.988 103.49 223.76 103.884 224.45C104.279 225.14 106.357 225.846 107.418 225.933C108.479 226.021 109.836 227.755 111.81 228.473C113.785 229.19 116.389 228.994 116.329 228.476C116.269 227.957 110.488 221.585 110.204 220.042C109.921 218.498 110.936 213.652 110.936 213.652L106.326 213.764Z" fill="#F9A07B" stroke="#263238" stroke-width="0.7" stroke-miterlimit="10" stroke-linecap="round" stroke-linejoin="round"/>
<path d="M109.483 221.07C109.324 221.509 109.324 221.509 109.324 221.509C109.324 221.509 106.65 221.213 104.814 220.601C104.277 222.096 103.575 223.91 103.885 224.45C104.28 225.14 106.358 225.845 107.419 225.933C108.479 226.02 109.836 227.755 111.81 228.472C113.785 229.19 116.389 228.994 116.329 228.475C116.269 227.957 110.488 221.585 110.205 220.042C110.205 220.042 109.642 220.631 109.483 221.07Z" fill="white" stroke="#263238" stroke-width="0.7" stroke-miterlimit="10" stroke-linecap="round" stroke-linejoin="round"/>
<path d="M111.691 227.436C110.131 226.67 108.719 225.363 106.641 224.657C105.287 224.197 104.347 223.825 103.855 223.621C103.79 223.989 103.788 224.282 103.884 224.451C104.28 225.141 106.358 225.846 107.418 225.933C108.479 226.021 109.836 227.756 111.81 228.473C113.693 229.157 116.142 229.01 116.315 228.545C115.015 228.352 112.764 227.962 111.691 227.436Z" fill="#9DA2FF" stroke="#263238" stroke-width="0.7" stroke-miterlimit="10" stroke-linecap="round" stroke-linejoin="round"/>
<path d="M105.293 182.38C105.293 182.38 112.99 183.257 113.575 187.154C114.159 191.052 112.795 215.31 112.795 215.31C112.795 215.31 110.944 215.408 109.385 215.115C107.826 214.823 105.196 214.238 105.196 214.238C105.196 214.238 104.806 205.957 104.319 202.645C103.832 199.332 103.442 189.687 103.442 189.687C103.442 189.687 90.5823 188.615 89.4129 187.836C88.2441 187.057 105.293 182.38 105.293 182.38Z" fill="#9DA2FF" stroke="#263238" stroke-width="0.7" stroke-miterlimit="10" stroke-linecap="round" stroke-linejoin="round"/>
<path d="M115.419 179.631C115.419 179.631 96.4263 187.155 92.0419 188.616C87.658 190.077 82.884 189.687 79.8636 188.713C76.8431 187.739 75.3618 183.861 75.3618 183.861C75.3618 183.861 74.6024 182.965 74.9921 182.088C75.3817 181.211 81.6171 175.658 85.4168 174.684C89.2165 173.709 96.0889 174.135 96.0889 174.135C96.0889 174.135 112.69 169.888 114.737 170.18C116.783 170.473 118.408 177.753 118.7 178.728" fill="#9DA2FF"/>
<path d="M115.419 179.631C115.419 179.631 96.4263 187.155 92.0419 188.616C87.658 190.077 82.884 189.687 79.8636 188.713C76.8431 187.739 75.3618 183.861 75.3618 183.861C75.3618 183.861 74.6024 182.965 74.9921 182.088C75.3817 181.211 81.6171 175.658 85.4168 174.684C89.2165 173.709 96.0889 174.135 96.0889 174.135C96.0889 174.135 112.69 169.888 114.737 170.18C116.783 170.473 118.408 177.753 118.7 178.728" stroke="#263238" stroke-width="0.7" stroke-miterlimit="10" stroke-linecap="round" stroke-linejoin="round"/>
<path d="M79.7656 184.621C79.7656 184.621 81.1296 179.263 84.7342 177.022" stroke="#263238" stroke-width="0.7" stroke-miterlimit="10" stroke-linecap="round" stroke-linejoin="round"/>
<path d="M78.9863 181.016C78.9863 181.016 80.4478 178.776 82.3964 178.289" stroke="#263238" stroke-width="0.7" stroke-miterlimit="10" stroke-linecap="round" stroke-linejoin="round"/>
<path d="M94.2019 145.059C94.2019 145.059 95.5485 146.518 97.1194 150.333C98.6903 154.148 101.239 165.699 101.239 165.699C101.239 165.699 99.9483 166.235 98.9381 166.235C97.928 166.235 96.585 166.372 96.0237 165.699C95.4624 165.025 93.8651 159.759 93.8651 159.759C93.8651 159.759 93.0798 153.363 92.8549 150.109C92.6305 146.854 91.6204 146.181 92.6305 145.171C93.6406 144.161 94.2019 145.059 94.2019 145.059Z" fill="white" stroke="#263238" stroke-width="0.7" stroke-miterlimit="10" stroke-linecap="round" stroke-linejoin="round"/>
<path d="M90.3526 142.762C90.3526 142.762 93.2467 143.465 94.2031 145.059C95.16 146.654 94.7335 150.3 94.7335 150.3C94.7335 150.3 97.2847 157.714 96.806 159.468C96.3279 161.222 94.4146 163.773 94.4146 163.773C94.4146 163.773 94.5738 169.512 95.0525 170.629C95.5307 171.745 96.089 174.136 96.089 174.136C96.089 174.136 94.7335 175.093 90.2695 175.73C85.8056 176.368 82.1382 176.687 80.6235 177.883C79.1088 179.079 75.7605 183.623 75.3619 183.862C74.9633 184.102 74.6418 183.209 74.3229 182.571C74.0039 181.933 74.0815 180.014 74.7991 177.144C75.5166 174.273 75.8943 165.94 74.8941 160.672C73.8103 154.961 73.2092 154.135 73.8467 150.389C74.4846 146.642 83.3369 140.929 84.6128 140.69C85.8882 140.45 90.3526 142.762 90.3526 142.762Z" fill="white" stroke="#263238" stroke-width="0.7" stroke-miterlimit="10" stroke-linecap="round" stroke-linejoin="round"/>
<path d="M76.2578 179.068C76.2578 179.068 78.6936 176.243 79.8624 175.756C81.0318 175.269 89.2154 175.269 89.2154 175.269" stroke="white" stroke-width="0.7" stroke-miterlimit="10" stroke-linecap="round" stroke-linejoin="round"/>
<path d="M78.0137 175.464C78.0137 175.464 79.3776 174.685 80.4494 174.49C81.5213 174.294 84.3467 174.49 84.3467 174.49" stroke="white" stroke-width="0.7" stroke-miterlimit="10" stroke-linecap="round" stroke-linejoin="round"/>
<path d="M82.2969 165.721C82.2969 165.721 85.999 164.455 89.4091 161.142" stroke="#263238" stroke-width="0.7" stroke-miterlimit="10" stroke-linecap="round" stroke-linejoin="round"/>
<path d="M90.4832 122.767C90.4832 122.767 91.5596 125.063 91.9183 125.78C92.2771 126.498 92.1338 127.718 92.4204 128.722C92.7075 129.727 94.3576 130.372 94.3576 130.946C94.3576 131.521 93.7117 132.669 93.7117 132.669C93.7117 132.669 93.3529 137.117 92.7792 137.619C92.2054 138.121 89.8374 138.265 89.8374 138.265L89.6373 142.524L90.9928 143.321C90.9928 143.321 91.2321 148.024 90.9928 149.699C90.7534 151.373 90.008 151.725 87.8803 150.46C85.5187 149.056 82.4629 145.314 82.1439 144.517C81.825 143.72 82.8062 140.92 81.3716 136.329C79.9366 131.737 83.0938 127.575 85.1743 125.638C87.2543 123.699 88.259 122.408 90.4832 122.767Z" fill="#F9A07B" stroke="#263238" stroke-width="0.7" stroke-miterlimit="10" stroke-linecap="round" stroke-linejoin="round"/>
<path d="M90.4819 122.767C90.4103 121.475 90.2665 120.973 87.6117 120.686C84.957 120.399 79.2888 120.184 77.0651 124.13C74.8408 128.076 74.8408 136.686 74.8408 136.686C74.8408 136.686 69.0686 140.291 68.6695 143.161C68.2709 146.031 70.1842 148.742 73.2136 149.698C73.2708 149.716 73.3316 149.73 73.3913 149.745C73.657 148.601 74.1471 147.149 75.0468 146.069C76.7705 144.001 78.2643 144.231 80.4478 143.657C82.6656 143.073 84.022 142.934 84.3445 140.441C84.6694 137.933 84.5734 136.39 84.3833 134.103C84.3116 133.242 85.2442 131.951 85.2442 131.951C85.2442 131.951 87.4684 132.525 88.9035 128.65C90.3381 124.776 90.5536 124.058 90.4819 122.767Z" fill="#263238" stroke="#263238" stroke-width="0.7" stroke-miterlimit="10" stroke-linecap="round" stroke-linejoin="round"/>
<path d="M86.1768 133.027C86.1768 133.027 85.4593 129.726 83.5937 131.018C81.7282 132.309 84.5263 135.969 84.9572 136.04C85.3876 136.112 86.1051 135.682 86.1051 135.682" fill="#F9A07B"/>
<path d="M86.1768 133.027C86.1768 133.027 85.4593 129.726 83.5937 131.018C81.7282 132.309 84.5263 135.969 84.9572 136.04C85.3876 136.112 86.1051 135.682 86.1051 135.682" stroke="#263238" stroke-width="0.7" stroke-miterlimit="10" stroke-linecap="round" stroke-linejoin="round"/>
<path d="M89.8356 138.265L87.6113 137.978L89.7057 138.346L89.8356 138.265Z" fill="#263238" stroke="#263238" stroke-width="0.7" stroke-miterlimit="10" stroke-linecap="round" stroke-linejoin="round"/>
<path d="M92.197 129.544C92.2906 130.031 92.193 130.458 91.9791 130.5C91.7651 130.541 91.5158 130.18 91.4223 129.693C91.3287 129.207 91.4262 128.779 91.6402 128.738C91.8537 128.697 92.103 129.058 92.197 129.544Z" fill="#263238"/>
<path d="M80.7742 152.388L80.0273 151.457" stroke="#263238" stroke-width="0.7" stroke-miterlimit="10" stroke-linecap="round" stroke-linejoin="round"/>
<path d="M78.1057 143.549C78.1057 143.549 75.3246 143.453 73.2148 146.426C71.1049 149.399 71.8722 153.139 72.4475 154.674C73.0227 156.209 77.6265 165.224 78.2978 166.375C78.969 167.526 81.367 169.156 81.9422 169.348C82.5174 169.539 84.4357 158.99 84.2441 158.031C84.0525 157.072 79.6408 150.358 79.6408 150.358" fill="white"/>
<path d="M78.1057 143.549C78.1057 143.549 75.3246 143.453 73.2148 146.426C71.1049 149.399 71.8722 153.139 72.4475 154.674C73.0227 156.209 77.6265 165.224 78.2978 166.375C78.969 167.526 81.367 169.156 81.9422 169.348C82.5174 169.539 84.4357 158.99 84.2441 158.031C84.0525 157.072 79.6408 150.358 79.6408 150.358" stroke="#263238" stroke-width="0.7" stroke-miterlimit="10" stroke-linecap="round" stroke-linejoin="round"/>
<path d="M80.0272 168.85C80.0272 168.85 78.2204 168.642 77.5138 168.741C76.8072 168.84 76.9674 168.959 77.3501 169.342C77.7327 169.724 78.5523 169.56 78.5523 169.56L80.0272 168.85Z" stroke="#263238" stroke-width="0.7" stroke-miterlimit="10" stroke-linecap="round" stroke-linejoin="round"/>
<path d="M100.227 163.223C100.985 163.926 102.661 168.523 99.4163 169.172C96.1714 169.821 87.6266 168.956 87.3016 169.28C86.9772 169.605 84.2727 171.714 83.6781 172.146C83.083 172.579 81.731 173.066 81.731 173.066C81.731 173.066 80.487 174.039 80.1625 173.823C79.8381 173.607 80.487 173.066 80.487 173.066C80.487 173.066 79.1892 173.823 78.7563 173.877C78.3239 173.931 78.3776 173.282 78.3776 173.282C78.1612 173.444 77.7288 173.39 77.7288 173.39C77.7288 173.39 77.5665 172.903 77.9452 172.47C78.3239 172.038 80.1625 170.253 80.1625 170.253C80.1625 170.253 79.027 170.632 78.9185 170.794C78.8105 170.956 78.1612 171.389 77.783 171.713C77.4043 172.038 77.0799 171.984 76.9719 171.713C76.8639 171.443 77.4506 170.531 78.0746 169.907C78.6991 169.283 81.9245 168.034 82.549 168.034C83.1735 168.034 88.4799 166.369 88.4799 166.369C88.4799 166.369 98.2265 163.006 98.4967 162.898" fill="#F9A07B"/>
<path d="M100.227 163.223C100.985 163.926 102.661 168.523 99.4163 169.172C96.1714 169.821 87.6266 168.956 87.3016 169.28C86.9772 169.605 84.2727 171.714 83.6781 172.146C83.083 172.579 81.731 173.066 81.731 173.066C81.731 173.066 80.487 174.039 80.1625 173.823C79.8381 173.607 80.487 173.066 80.487 173.066C80.487 173.066 79.1892 173.823 78.7563 173.877C78.3239 173.931 78.3776 173.282 78.3776 173.282C78.1612 173.444 77.7288 173.39 77.7288 173.39C77.7288 173.39 77.5665 172.903 77.9452 172.47C78.3239 172.038 80.1625 170.253 80.1625 170.253C80.1625 170.253 79.027 170.632 78.9185 170.794C78.8105 170.956 78.1612 171.389 77.783 171.713C77.4043 172.038 77.0799 171.984 76.9719 171.713C76.8639 171.443 77.4506 170.531 78.0746 169.907C78.6991 169.283 81.9245 168.034 82.549 168.034C83.1735 168.034 88.4799 166.369 88.4799 166.369C88.4799 166.369 98.2265 163.006 98.4967 162.898" stroke="#263238" stroke-width="0.7" stroke-miterlimit="10" stroke-linecap="round" stroke-linejoin="round"/>
<path d="M91.809 165.239C91.809 165.239 92.9594 166.926 91.502 169.15" stroke="#263238" stroke-width="0.7" stroke-miterlimit="10" stroke-linecap="round" stroke-linejoin="round"/>
<path d="M78.377 173.282L80.4082 171.582L81.5009 170.708" stroke="#263238" stroke-width="0.7" stroke-miterlimit="10" stroke-linecap="round" stroke-linejoin="round"/>
<path d="M80.4883 173.065C80.4883 173.065 82.104 171.745 82.2677 171.69" stroke="#263238" stroke-width="0.7" stroke-miterlimit="10" stroke-linecap="round" stroke-linejoin="round"/>
<path d="M78.2969 162.059C78.3879 164.028 77.7983 166.868 80.6799 168.683C82.0652 169.556 84.1198 170.379 85.1792 168.103C86.2386 165.826 86.9651 145.4 86.9651 145.4C86.9651 145.4 86.9651 145.4 88.1768 145.07C89.3879 144.739 90.0557 142.743 90.0557 142.743C90.0557 142.743 89.4979 143.417 90.0487 143.968C90.5991 144.519 92.802 142.206 92.912 141.546C93.0219 140.885 91.4804 138.792 91.4804 138.792C91.4804 138.792 92.1412 138.462 92.0312 137.581C91.9212 136.7 88.8719 137.561 88.8719 137.561L87.0756 139.893C87.0756 139.893 84.4328 143.308 84.2124 144.188C84.0293 144.92 81.5124 152.858 80.0634 156.383" fill="#F9A07B"/>
<path d="M78.2969 162.059C78.3879 164.028 77.7983 166.868 80.6799 168.683C82.0652 169.556 84.1198 170.379 85.1792 168.103C86.2386 165.826 86.9651 145.4 86.9651 145.4C86.9651 145.4 86.9651 145.4 88.1768 145.07C89.3879 144.739 90.0557 142.743 90.0557 142.743C90.0557 142.743 89.4979 143.417 90.0487 143.968C90.5991 144.519 92.802 142.206 92.912 141.546C93.0219 140.885 91.4804 138.792 91.4804 138.792C91.4804 138.792 92.1412 138.462 92.0312 137.581C91.9212 136.7 88.8719 137.561 88.8719 137.561L87.0756 139.893C87.0756 139.893 84.4328 143.308 84.2124 144.188C84.0293 144.92 81.5124 152.858 80.0634 156.383" stroke="#263238" stroke-width="0.7" stroke-miterlimit="10" stroke-linecap="round" stroke-linejoin="round"/>
<path d="M82.375 150.13L86.3633 151.663" stroke="#263238" stroke-width="0.7" stroke-miterlimit="10" stroke-linecap="round" stroke-linejoin="round"/>
</svg>
