<svg width="25" height="25" viewBox="0 0 25 25" fill="none" xmlns="http://www.w3.org/2000/svg">
<path d="M2.5 4.3725C2.5 3.3375 3.33875 2.5 4.375 2.5H5.625C6.65875 2.5 7.49875 3.3375 7.49875 4.3725V20.6C7.49875 21.6337 6.65875 22.4712 5.62375 22.4712H4.37375C3.33875 22.4712 2.5 21.6337 2.5 20.6V4.3725ZM4.375 3.7475C4.20924 3.7475 4.05027 3.81335 3.93306 3.93056C3.81585 4.04777 3.75 4.20674 3.75 4.3725V20.6C3.75033 20.7655 3.81633 20.9242 3.9335 21.0411C4.05067 21.1581 4.20946 21.2238 4.375 21.2238H5.625C5.79054 21.2234 5.94919 21.1574 6.06613 21.0403C6.18307 20.9231 6.24875 20.7643 6.24875 20.5988V4.37375C6.24875 4.20799 6.1829 4.04902 6.06569 3.93181C5.94848 3.8146 5.78951 3.74875 5.62375 3.74875H4.37375L4.375 3.7475ZM8.7475 4.3725C8.7475 3.3375 9.5875 2.5 10.6225 2.5H11.8725C12.9075 2.5 13.7463 3.3375 13.7463 4.3725V20.6C13.7463 21.6337 12.9075 22.4712 11.8713 22.4712H10.6213C9.5875 22.4712 8.7475 21.6337 8.7475 20.6V4.3725ZM10.6225 3.7475C10.4567 3.7475 10.2978 3.81335 10.1806 3.93056C10.0633 4.04777 9.9975 4.20674 9.9975 4.3725V20.6C9.99783 20.7655 10.0638 20.9242 10.181 21.0411C10.2982 21.1581 10.457 21.2238 10.6225 21.2238H11.8725C12.0383 21.2238 12.1972 21.1579 12.3144 21.0407C12.4317 20.9235 12.4975 20.7645 12.4975 20.5988V4.37375C12.4975 4.20799 12.4317 4.04902 12.3144 3.93181C12.1972 3.8146 12.0383 3.74875 11.8725 3.74875H10.6225V3.7475ZM19.6475 7.69625C19.5904 7.4488 19.4836 7.21554 19.3336 7.0106C19.1837 6.80566 18.9936 6.63333 18.775 6.50405C18.5565 6.37477 18.3139 6.29124 18.062 6.25853C17.8102 6.22582 17.5544 6.2446 17.31 6.31375L16.3787 6.57625C15.924 6.70487 15.5348 7.00066 15.289 7.40427C15.0433 7.80789 14.9593 8.2895 15.0538 8.7525L17.5575 21.0025C17.6086 21.2508 17.7096 21.4861 17.8543 21.6942C17.9989 21.9024 18.1843 22.079 18.3992 22.2135C18.614 22.348 18.8539 22.4375 19.1044 22.4767C19.3548 22.5158 19.6106 22.5037 19.8563 22.4412L21.0875 22.1287C22.075 21.8787 22.68 20.8862 22.4525 19.895L19.6475 7.69625ZM17.65 7.515C17.7315 7.49181 17.8168 7.48542 17.9008 7.4962C17.9848 7.50699 18.0657 7.53474 18.1386 7.57776C18.2116 7.62078 18.275 7.67817 18.3251 7.74646C18.3752 7.81475 18.4109 7.8925 18.43 7.975L21.2337 20.175C21.2697 20.3338 21.2423 20.5004 21.1574 20.6393C21.0724 20.7782 20.9365 20.8785 20.7787 20.9188L19.5475 21.2313C19.4657 21.2521 19.3805 21.2561 19.297 21.2431C19.2136 21.2301 19.1337 21.2004 19.0621 21.1556C18.9904 21.1109 18.9286 21.0521 18.8804 20.9828C18.8321 20.9135 18.7984 20.8352 18.7812 20.7525L16.2775 8.5025C16.2463 8.3483 16.2744 8.18801 16.3562 8.05362C16.438 7.91923 16.5675 7.82063 16.7188 7.7775L17.65 7.515Z" fill="white"/>
</svg>
