<svg width="330" height="240" viewBox="0 0 330 240" fill="none" xmlns="http://www.w3.org/2000/svg">
<path d="M282.508 225.364C313.509 201.792 327.315 136.429 276.979 104.378C243.655 83.1625 222.929 95.265 185.44 81.2303C139.673 64.1013 132.852 12.3489 77.1828 37.8139C47.6902 51.3003 27.2451 89.3117 23.6483 132.513C20.1233 174.819 35.1176 203.848 65.7591 223.712C137.715 226.774 209.815 226.219 282.508 225.364Z" fill="#282945"/>
<path d="M155.151 39.4443C150.469 58.2444 167.857 76.8551 186.175 84.571C204.494 92.2934 225.501 91.3729 245.126 87.6913C253.594 86.105 262.299 83.8725 268.877 78.474C275.455 73.0755 279.269 63.7016 275.664 56.1294C272.482 49.4514 264.736 46.0309 257.352 44.2749C249.968 42.5189 242.124 41.8009 235.546 38.1061C229.308 34.6007 224.883 28.7975 219.457 24.2019C209.433 15.7223 195.352 11.5184 182.32 14.2013C169.281 16.8842 159.131 23.4643 155.151 39.4443Z" fill="#282945"/>
<path d="M295.412 125.916V111.693H290.019C289.371 109.206 288.383 106.862 287.118 104.702L290.932 100.882L280.874 90.8241L277.054 94.6376C274.895 93.3726 272.55 92.3856 270.063 91.7373V86.3447H255.84V91.7373C253.354 92.3856 251.009 93.3726 248.849 94.6376L245.03 90.8241L234.972 100.882L238.785 104.702C237.52 106.861 236.539 109.206 235.885 111.693H230.492V125.916H235.885C236.539 128.402 237.52 130.747 238.785 132.907L234.972 136.726L245.03 146.784L248.849 142.971C251.008 144.236 253.353 145.217 255.84 145.871V151.264H270.063V145.871C272.549 145.217 274.894 144.236 277.054 142.971L280.874 146.784L290.932 136.726L287.118 132.907C288.383 130.747 289.37 128.403 290.019 125.916H295.412ZM262.956 131.127C256.149 131.127 250.63 125.607 250.63 118.8C250.63 112 256.149 106.482 262.956 106.482C269.756 106.482 275.275 112 275.275 118.8C275.275 125.608 269.756 131.127 262.956 131.127Z" fill="#9DA2FF"/>
<path d="M252.431 161.551L249.726 154.498L247.051 155.524C246.257 154.414 245.321 153.439 244.283 152.609L245.447 149.989L238.546 146.915L237.378 149.532C236.066 149.316 234.716 149.273 233.359 149.424L232.333 146.75L225.28 149.455L226.306 152.13C225.196 152.924 224.221 153.86 223.391 154.898L220.771 153.734L217.696 160.635L220.314 161.803C220.098 163.115 220.058 164.465 220.206 165.822L217.531 166.848L220.237 173.901L222.911 172.875C223.709 173.984 224.641 174.96 225.68 175.79L224.515 178.41L231.417 181.485L232.585 178.867C233.896 179.084 235.246 179.123 236.604 178.975L237.63 181.65L244.683 178.944L243.657 176.27C244.766 175.472 245.742 174.54 246.572 173.501L249.192 174.666L252.266 167.764L249.649 166.596C249.865 165.285 249.908 163.934 249.757 162.577L252.431 161.551ZM237.327 170.311C233.952 171.606 230.164 169.919 228.869 166.543C227.576 163.171 229.262 159.384 232.639 158.089C236.011 156.795 239.798 158.483 241.091 161.854C242.386 165.23 240.7 169.017 237.327 170.311Z" stroke="#9DA2FF" stroke-miterlimit="10"/>
<path d="M229.323 136.811L227.495 132.045L225.688 132.739C225.151 131.989 224.519 131.33 223.817 130.769L224.604 128.998L219.94 126.921L219.15 128.69C218.264 128.544 217.351 128.514 216.435 128.617L215.741 126.81L210.976 128.638L211.669 130.445C210.919 130.982 210.26 131.615 209.699 132.316L207.928 131.529L205.851 136.192L207.62 136.982C207.474 137.869 207.447 138.781 207.547 139.698L205.74 140.391L207.569 145.157L209.376 144.464C209.915 145.213 210.545 145.873 211.246 146.434L210.46 148.204L215.123 150.281L215.913 148.512C216.8 148.659 217.712 148.686 218.629 148.585L219.322 150.392L224.088 148.564L223.395 146.757C224.144 146.219 224.803 145.588 225.364 144.887L227.134 145.673L229.212 141.01L227.443 140.22C227.589 139.334 227.618 138.421 227.516 137.505L229.323 136.811ZM219.118 142.729C216.837 143.604 214.278 142.464 213.403 140.184C212.528 137.905 213.668 135.346 215.949 134.471C218.227 133.597 220.786 134.737 221.66 137.016C222.536 139.296 221.396 141.855 219.118 142.729Z" stroke="#9DA2FF" stroke-miterlimit="10"/>
<path d="M227.664 53.3676C227.664 60.5142 224.324 66.8847 219.127 71.0011C215.3 74.0379 210.462 75.8396 205.191 75.8396C199.935 75.8396 195.095 74.0379 191.256 71.0011C186.052 66.8847 182.719 60.5142 182.719 53.3676C182.719 40.957 192.781 30.895 205.191 30.895C217.602 30.895 227.664 40.957 227.664 53.3676Z" fill="#3D3884" stroke="#3D3884" stroke-miterlimit="10"/>
<path d="M206.097 53.2772C210.129 52.7795 212.995 49.1076 212.497 45.0757C212 41.0439 208.327 38.1788 204.295 38.6765C200.263 39.1742 197.398 42.8461 197.895 46.878C198.393 50.9099 202.065 53.7749 206.097 53.2772Z" fill="white"/>
<path d="M219.127 68.1665C215.3 71.2032 210.462 73.0055 205.191 73.0055C199.935 73.0055 195.096 71.2038 191.256 68.1665C192.693 61.843 194.016 56.3838 195.393 55.0005C197.336 53.0572 202.499 51.9233 205.184 51.9233C207.87 51.9233 213.275 53.3 214.274 54.2988C216.313 56.3296 218.067 61.9376 219.127 68.1665Z" fill="white"/>
<path d="M172.893 108.764V97.6669C172.893 94.638 175.347 92.1836 178.376 92.1836H213.339C216.368 92.1836 218.822 94.638 218.822 97.6669V108.764C218.822 111.793 216.368 114.248 213.339 114.248H178.382C175.354 114.254 172.893 111.793 172.893 108.764Z" fill="#3D3884"/>
<path d="M187.658 108.184L170.738 124.666L198.162 110.808" fill="#3D3884"/>
<path d="M177.137 97.3928V97.334C177.137 96.8836 177.502 96.5181 177.953 96.5181H195.238C195.689 96.5181 196.054 96.8836 196.054 97.334V97.3928C196.054 97.8432 195.689 98.2088 195.238 98.2088H177.953C177.502 98.2088 177.137 97.8432 177.137 97.3928Z" fill="white"/>
<path d="M196.83 97.3928V97.334C196.83 96.8836 197.196 96.5181 197.646 96.5181H212.732C213.182 96.5181 213.548 96.8836 213.548 97.334V97.3928C213.548 97.8432 213.182 98.2088 212.732 98.2088H197.646C197.196 98.2088 196.83 97.8432 196.83 97.3928Z" fill="white"/>
<path d="M190.244 101.107V101.048C190.244 100.598 190.61 100.232 191.06 100.232H212.732C213.183 100.232 213.548 100.598 213.548 101.048V101.107C213.548 101.558 213.183 101.923 212.732 101.923H191.06C190.61 101.923 190.244 101.558 190.244 101.107Z" fill="white"/>
<path d="M177.137 101.107V101.048C177.137 100.598 177.502 100.232 177.953 100.232H187.633C188.084 100.232 188.449 100.598 188.449 101.048V101.107C188.449 101.558 188.084 101.923 187.633 101.923H177.953C177.502 101.923 177.137 101.558 177.137 101.107Z" fill="white"/>
<path d="M193.254 104.821V104.763C193.254 104.312 193.619 103.947 194.07 103.947H212.733C213.183 103.947 213.549 104.312 213.549 104.763V104.821C213.549 105.272 213.183 105.637 212.733 105.637H194.07C193.619 105.637 193.254 105.272 193.254 104.821Z" fill="white"/>
<path d="M177.137 104.821V104.763C177.137 104.312 177.502 103.947 177.953 103.947H190.845C191.296 103.947 191.661 104.312 191.661 104.763V104.821C191.661 105.272 191.296 105.637 190.845 105.637H177.953C177.502 105.637 177.137 105.272 177.137 104.821Z" fill="white"/>
<path d="M177.137 108.535V108.477C177.137 108.026 177.502 107.661 177.953 107.661H182.738C183.188 107.661 183.554 108.026 183.554 108.477V108.535C183.554 108.986 183.188 109.351 182.738 109.351H177.953C177.502 109.351 177.137 108.986 177.137 108.535Z" fill="white"/>
<path d="M185.244 108.535V108.477C185.244 108.026 185.61 107.661 186.06 107.661H212.733C213.183 107.661 213.549 108.026 213.549 108.477V108.535C213.549 108.986 213.183 109.351 212.733 109.351H186.06C185.61 109.351 185.244 108.986 185.244 108.535Z" fill="white"/>
<path d="M86.5988 93.0571C91.6365 82.2307 86.9438 69.3703 76.1174 64.3327C65.291 59.295 52.4307 63.9877 47.393 74.8141C42.3553 85.6405 47.048 98.5008 57.8744 103.538C68.7008 108.576 81.5611 103.883 86.5988 93.0571Z" fill="#3D3884"/>
<path d="M63.6325 99.4924C66.3626 98.5335 67.7984 95.543 66.8395 92.8129C65.8805 90.0829 62.89 88.6471 60.16 89.606C57.4299 90.5649 55.9942 93.5554 56.9531 96.2855C57.912 99.0155 60.9025 100.451 63.6325 99.4924Z" fill="white"/>
<path d="M59.1439 96.4282L58.8906 93.1056L61.6421 91.2256L64.6462 92.6676L64.8988 95.9902L62.148 97.8709L59.1439 96.4282Z" fill="#3D3884"/>
<path d="M73.8411 78.2548C76.5657 77.2809 77.9848 74.2826 77.0109 71.5581C76.0369 68.8335 73.0386 67.4144 70.3141 68.3883C67.5895 69.3623 66.1704 72.3605 67.1444 75.0851C68.1183 77.8096 71.1166 79.2288 73.8411 78.2548Z" fill="white"/>
<path d="M69.4844 74.888L69.6645 70.6632L72.8481 67.8804L75.8522 69.323L75.6721 73.5478L72.4878 76.33L69.4844 74.888Z" fill="#3D3884"/>
<path d="M65.523 92.1263L61.5156 90.2019L64.4773 83.3692C64.6653 82.9358 64.8696 82.5095 65.0902 82.0917L68.5702 75.5078L72.5776 77.4322L69.7211 84.1611C69.5004 84.6813 69.255 85.1911 68.9873 85.6892L65.523 92.1263Z" fill="white"/>
<path d="M82.0059 95.5677C82.7781 95.2093 95.1829 95.7753 95.1829 95.7753L86.2411 87.5659L82.0059 95.5677Z" fill="#3D3884"/>
<path d="M136.741 47.3756C141.401 36.6043 136.446 24.0954 125.674 19.4362C114.903 14.777 102.394 19.7318 97.7351 30.5031C93.0759 41.2745 98.0307 53.7834 108.802 58.4426C119.573 63.1018 132.082 58.1469 136.741 47.3756Z" fill="#3D3884"/>
<path d="M117.956 20.832H116.537V38.6777H117.956V20.832Z" fill="white"/>
<path d="M101.565 48.9802L102.373 50.147L117.245 39.8528L116.438 38.686L101.565 48.9802Z" fill="white"/>
<path d="M119.202 38.9411C119.202 40.0214 118.327 40.8968 117.247 40.8968C116.166 40.8968 115.291 40.0214 115.291 38.9411C115.291 37.8607 116.166 36.9854 117.247 36.9854C118.327 36.9854 119.202 37.8614 119.202 38.9411Z" fill="white"/>
<path d="M174.934 182.829C173.674 163.402 182.173 143.296 196.488 131.794C196.932 151.319 188.518 171.079 174.934 182.829Z" fill="#9DA2FF"/>
<path d="M194.153 137.023C188.121 148.264 182.906 160.027 178.571 172.162C173.303 186.895 169.158 202.549 160.137 214.9" stroke="#7A81FD" stroke-miterlimit="10" stroke-linecap="round"/>
<path d="M170.418 195.049C177.664 178.84 192.045 166.594 207.901 163.128C201.151 180.498 185.967 193.75 170.418 195.049Z" fill="#9DA2FF"/>
<path d="M204.01 166.699C193.18 176.229 182.168 185.492 170.973 194.481" stroke="#7A81FD" stroke-miterlimit="10" stroke-linecap="round"/>
<path d="M166.145 209.168C175.825 194.709 193.685 187.163 208.464 191.288C197.595 205.565 179.696 213.13 166.145 209.168Z" fill="#9DA2FF"/>
<path d="M204.918 192.333C192.228 200.27 178.539 206.132 164.426 209.657" stroke="#7A81FD" stroke-miterlimit="10" stroke-linecap="round"/>
<path d="M171.37 190.133C174.465 173.853 169.823 155.706 159.49 143.701C155.253 159.701 159.294 178.449 171.37 190.133Z" fill="#9DA2FF"/>
<path d="M160.553 147.853C162.589 162.997 166.212 177.182 171.826 191.047" stroke="#7A81FD" stroke-miterlimit="10" stroke-linecap="round"/>
<path d="M166.056 203.999C164.737 187.262 156.16 171.543 143.613 162.867C144.338 171.732 146.694 180.277 150.435 188.045C154.737 196.968 161.056 202.628 166.056 203.999Z" fill="#9DA2FF"/>
<path d="M145.475 166.255C150.41 180.211 157.512 193.149 166.37 204.351" stroke="#7A81FD" stroke-miterlimit="10" stroke-linecap="round"/>
<path d="M262.951 199.984C269.799 182.17 285.55 167.717 302.921 163.317C295.309 180.89 279.773 195.056 262.951 199.984Z" fill="#9DA2FF"/>
<path d="M298.711 167.019C288.775 174.571 279.336 182.92 270.537 191.961C259.844 202.941 249.759 215.187 236.723 222.511" stroke="#7A81FD" stroke-miterlimit="10" stroke-linecap="round"/>
<path d="M253.949 209.025C266.998 197.543 284.728 192.503 300.159 195.885C287.078 208.607 268.226 214.215 253.949 209.025Z" fill="#9DA2FF"/>
<path d="M295.256 197.484C281.776 201.558 268.244 205.311 254.666 208.751" stroke="#7A81FD" stroke-miterlimit="10" stroke-linecap="round"/>
<path d="M244.379 219.862C258.864 210.932 277.742 211.5 289.114 221.206C273.656 229.484 254.732 228.916 244.379 219.862Z" fill="#9DA2FF"/>
<path d="M285.556 220.684C271.09 222.577 256.579 222.211 242.668 219.594" stroke="#7A81FD" stroke-miterlimit="10" stroke-linecap="round"/>
<path d="M256.808 205.036C266.214 191.798 269.55 173.736 265.34 158.826C255.032 171.346 250.92 189.696 256.808 205.036Z" fill="#9DA2FF"/>
<path d="M264.575 162.952C260.162 177.274 257.558 191.387 256.84 206.035" stroke="#7A81FD" stroke-miterlimit="10" stroke-linecap="round"/>
<path d="M246.429 215.22C252.121 199.776 250.986 182.268 243.452 169.421C240.463 177.614 239.04 186.185 239.164 194.632C239.301 204.332 242.565 211.957 246.429 215.22Z" fill="#9DA2FF"/>
<path d="M243.7 173.194C242.343 187.64 243.315 202.067 246.553 215.658" stroke="#7A81FD" stroke-miterlimit="10" stroke-linecap="round"/>
<path d="M68.8762 168.837C61.8954 147.486 42.4145 130.233 19.752 125.337C29.2799 143.809 46.561 158.51 68.8762 168.837Z" fill="#9DA2FF"/>
<path d="M70.0591 172.15C54.7678 163.502 35.6087 161.595 19 167.062C34.4049 174.757 52.658 176.901 70.0591 172.15Z" fill="#9DA2FF"/>
<path d="M74.2879 176.78C57.7615 174.489 40.455 178.563 27.0332 187.901C42.2528 193.433 60.5117 189.846 74.2879 176.78Z" fill="#9DA2FF"/>
<path d="M79.4415 186.894C63.0756 186.827 46.9846 194.604 37.3652 207.234C44.649 208.693 52.3837 207.821 59.0656 204.795C65.7474 201.768 71.3457 196.604 79.4415 186.894Z" fill="#9DA2FF"/>
<path d="M90.9811 203.818C74.8437 201.052 57.6495 206.052 46.0137 216.898C52.9592 219.536 60.7358 219.957 67.8413 218.083C74.9475 216.21 81.3454 212.048 90.9811 203.818Z" fill="#9DA2FF"/>
<path d="M73.5573 169.848C62.9013 155.485 60.0095 136.13 66.0634 119.665C70.6864 127.493 74.6755 135.771 76.5373 144.569C78.399 153.368 78.0373 162.748 73.5573 169.848Z" fill="#9DA2FF"/>
<path d="M80.069 183.707C77.5454 168.447 82.7631 152.273 93.7839 141.222C95.0523 157.009 90.2217 173.092 80.069 183.707Z" fill="#9DA2FF"/>
<path d="M24.7129 129.164C57.1456 149.915 82.51 180.846 95.8992 215.988" stroke="#7A81FD" stroke-miterlimit="10" stroke-linecap="round"/>
<path d="M67.0684 127.237C71.0131 143.256 73.4134 159.61 74.2254 176.012" stroke="#7A81FD" stroke-miterlimit="10" stroke-linecap="round"/>
<path d="M91.3579 147.417C90.0654 160.341 86.0717 172.972 79.6914 184.35" stroke="#7A81FD" stroke-miterlimit="10" stroke-linecap="round"/>
<path d="M25.8242 167.435C40.6932 170.262 55.8064 171.794 70.9222 172.02" stroke="#7A81FD" stroke-miterlimit="10" stroke-linecap="round"/>
<path d="M34.7871 186.632C48.4974 185.636 61.9858 182.314 74.4539 176.858" stroke="#7A81FD" stroke-miterlimit="10" stroke-linecap="round"/>
<path d="M43 204.928C55.6509 198.618 68.303 192.3 80.9539 185.989" stroke="#7A81FD" stroke-miterlimit="10" stroke-linecap="round"/>
<path d="M51.2285 216.072C67.7458 212.885 72.6534 209.082 90.9854 203.819" stroke="#7A81FD" stroke-miterlimit="10" stroke-linecap="round"/>
<path d="M155.796 185.818C155.796 185.818 157.226 198.92 158.825 199.971C161.684 201.857 194.78 206.218 194.78 206.218L193.697 214.828C193.697 214.828 148.368 218.901 146.442 216.636C143.1 212.706 137.225 193.75 137.225 193.75L155.796 185.818Z" fill="#F98A79"/>
<path d="M133.941 152.089L137.604 143.296C137.604 143.296 147.539 147.964 150.816 153.728C154.321 159.89 158.61 192.653 158.61 192.653C158.61 192.653 141.07 196.694 137.845 194.977C134.62 193.26 133.941 152.089 133.941 152.089Z" fill="#7A81FD"/>
<path d="M106.047 111.277C103.482 110.337 100.766 109.514 98.0177 109.723C95.2695 109.932 92.4626 111.388 91.5291 113.803C90.8633 115.513 91.1701 117.53 90.1191 119.071C89.1138 120.546 87.1163 121.16 85.2494 121.284C83.3759 121.414 81.4894 121.166 79.6289 121.408C73.8845 122.172 69.785 128.412 71.6716 133.524C72.4223 135.56 73.9628 137.505 73.6103 139.627C73.2382 141.899 70.8556 143.394 69.8764 145.502C68.5774 148.309 70.131 151.71 72.6964 153.623C75.2618 155.529 78.5976 156.253 81.8353 156.736C86.2938 157.402 90.8959 157.716 95.3022 156.776C99.7084 155.836 103.919 153.512 106.197 149.882C107.209 148.276 107.822 146.462 108.997 144.954C111.426 141.84 115.728 140.632 119.116 138.426C122.817 136.004 125.532 131.291 123.352 127.603C121.25 124.058 115.78 123.268 113.587 119.776C112.679 118.333 112.464 116.617 111.876 115.043C111.276 113.464 109.84 112.667 106.047 111.277Z" fill="#0A2240"/>
<path d="M120.996 154.759C121.642 155.503 122.406 156.319 123.464 156.391C124.58 156.469 125.513 155.679 126.232 154.915C129.939 150.992 132.387 146.175 133.379 141.207C132.459 140.685 131.571 140.182 130.768 139.712C130.024 139.268 129.463 138.648 129.143 137.924C128.921 137.388 128.843 136.827 128.901 136.239C129.424 131.331 129.887 128.595 131.61 123.615C123.425 121.767 115.702 119.574 111.263 115.866C110.721 118.151 110.082 122.622 108.717 127.055C107.262 131.748 104.99 136.39 101.139 138.387C108.698 142.852 115.441 148.401 120.996 154.759Z" fill="#F9A07B"/>
<path d="M128.901 136.246C128.842 136.833 128.92 137.401 129.142 137.93C124.299 143.805 113.469 136.128 108.717 127.061C110.081 122.629 110.721 118.157 111.263 115.873C115.695 119.58 123.424 121.78 131.61 123.621C129.886 128.602 129.423 131.33 128.901 136.246Z" fill="#F98A79"/>
<path d="M142.387 207.268C141.317 214.357 148.967 221.988 149.157 225.774C132.909 225.774 98.873 226.767 81.5417 224.41C80.7519 220.036 89.3098 210.199 89.3098 200.486C89.3098 199.2 89.2576 197.79 89.1531 196.275C88.879 191.941 88.2392 186.784 87.5277 181.496C85.5955 167.311 83.0235 152.141 84.9231 148.994C88.644 142.865 97.3455 138.7 101.66 136.911C103.142 136.298 104.108 135.965 104.18 135.926C109.592 145.156 120.604 153.029 124.762 152.676C125.918 152.585 129.345 151.39 131.61 139.986C132.491 140.489 133.372 140.952 134.247 141.403C138.549 143.642 142.583 145.489 143.745 148.368C146.813 155.947 149.822 175.053 149.157 181.849C148.484 188.703 145.73 193.938 143.797 200.819C143.347 202.431 142.936 204.141 142.603 205.982C142.518 206.393 142.453 206.824 142.387 207.268Z" fill="#9DA2FF"/>
<path d="M149.157 225.775C132.909 225.775 98.873 226.767 81.5417 224.41C80.7519 220.037 89.3098 210.199 89.3098 200.486C89.3098 199.2 89.2576 197.79 89.1531 196.275C88.879 191.941 88.2392 186.784 87.5277 181.497C90.6023 184.741 95.0869 171.032 97.0714 175.047C107.81 196.719 116.276 202.418 130.99 202.418C135.376 202.418 139.424 201.811 143.797 200.819C143.347 202.431 142.936 204.141 142.603 205.982C142.524 206.4 142.453 206.831 142.387 207.275C141.317 214.351 148.967 221.982 149.157 225.775Z" fill="#7A81FD"/>
<path d="M134.247 141.403C133.548 146.475 131.479 153.309 125.46 155.111C117.327 157.546 105.557 142.349 101.66 136.911C103.142 136.298 104.108 135.965 104.18 135.926C109.591 145.156 120.604 153.029 124.762 152.676C125.917 152.585 129.345 151.39 131.61 139.986C132.491 140.482 133.372 140.946 134.247 141.403Z" fill="#7A81FD"/>
<path d="M137.584 218.143L137.525 223.803L238.706 224.403L238.915 217.986L137.584 218.143Z" fill="#325F73"/>
<path d="M282.559 167.651L280.307 165.366L206.608 164.883L169.635 218.352L171.567 219.906L282.559 167.651Z" fill="#325F73"/>
<path d="M208.031 166.861L171.566 219.906L241.218 220.252L282.559 167.651L208.031 166.861Z" fill="#0B2D50"/>
<path d="M225.633 200.72C230.111 200.72 233.74 198.905 233.74 196.667C233.74 194.428 230.111 192.613 225.633 192.613C221.155 192.613 217.525 194.428 217.525 196.667C217.525 198.905 221.155 200.72 225.633 200.72Z" fill="#3C738C"/>
<path d="M139.087 114.497C140.236 108.333 144.462 103.951 148.527 104.709C152.593 105.466 154.957 111.076 153.808 117.24C152.659 123.404 148.433 127.786 144.368 127.028C140.303 126.271 137.939 120.661 139.087 114.497Z" fill="#14B9A4"/>
<path d="M153.817 97.895C153.06 103.261 150.664 109.175 147.172 115.709C145.945 110.357 145.161 103.835 144.078 97.314C142.975 90.7797 141.571 84.2454 139.136 78.9056C138.588 77.7241 137.994 76.5948 137.348 75.5504C138.79 75.4133 140.253 75.5504 141.643 75.9355C143.817 76.5165 145.853 77.6393 147.518 79.1406C150.286 81.6016 152.14 84.9569 153.243 88.495C154.15 91.4325 154.313 94.5528 153.817 97.895Z" fill="#0B2D50"/>
<path d="M149.719 103.443C149.68 104.501 149.608 105.578 149.51 106.649C148.022 124.013 140.73 135.926 129.574 135.926C113.823 135.926 103.613 118.262 103.613 100.956C103.613 83.8862 114.071 71.5291 126.31 72.9587C133.367 73.7681 138.524 76.1116 142.186 79.5452C144.608 81.8299 146.357 84.5912 147.552 87.7311C148.916 91.2495 149.576 95.2315 149.713 99.5203C149.713 99.5333 149.726 99.5464 149.726 99.5594C149.778 100.826 149.765 102.118 149.719 103.443Z" fill="#F9A07B"/>
<path d="M149.721 103.443C149.251 101.765 148.552 100.127 147.599 98.658C138.31 103.515 127.239 105.388 116.742 103.613C114.745 105.277 112.793 106.916 110.828 108.554C110.867 100.656 110.978 95.3093 114.059 91.484C116.951 87.8937 121.775 86.5424 126.345 85.9549C131.489 85.2826 136.717 85.3087 141.848 86.0529C143.813 86.327 145.85 86.7513 147.56 87.7436C148.924 91.262 149.584 95.244 149.721 99.5328C149.721 99.5458 149.734 99.5589 149.734 99.5719C149.779 100.825 149.766 102.118 149.721 103.443Z" fill="#F98A79"/>
<path d="M151.99 92.7507C149.83 94.5785 147.121 96.093 144.079 97.3202C135.423 100.813 124.175 101.968 115.409 101.544C111.1 111.009 109.357 114.403 108.254 122.661C104.044 118.712 100.617 111.479 99.5982 105.793C98.593 100.127 98.6909 94.1803 100.271 88.6121C102.758 79.8322 109.031 75.1322 113.378 72.8475C114.462 72.2535 115.441 71.8422 116.198 71.5419C121.754 69.3943 128.014 69.5901 133.712 71.333C136.82 72.2991 139.437 73.9311 141.637 75.9417C146.083 79.9563 148.831 85.3939 150.606 89.4673C151.168 90.7141 151.618 91.8434 151.99 92.7507Z" fill="#0B2D50"/>
<path d="M153.817 97.8948C153.458 95.9952 152.923 94.1544 152.166 92.3788C151.741 91.3736 151.219 90.4009 150.612 89.4609C148.634 86.3537 145.755 83.7948 142.276 82.6655C141.284 81.2751 140.239 80.0217 139.143 78.912C135.193 74.8974 130.559 72.5996 125.65 71.7967C121.563 71.1374 117.314 71.5095 113.391 72.8411C114.474 72.2471 115.453 71.8359 116.211 71.5356C121.766 69.3879 128.026 69.5838 133.725 71.3267C136.832 72.2928 139.45 73.9248 141.649 75.9353C143.823 76.5163 145.86 77.6391 147.524 79.1405C150.292 81.6014 152.146 84.9567 153.249 88.4948C154.15 91.4323 154.313 94.5526 153.817 97.8948Z" fill="#225570"/>
<path d="M120.43 108.542C123.341 106.877 126.363 106.126 130.6 107.673" stroke="#0B2D50" stroke-width="2" stroke-miterlimit="10" stroke-linecap="round"/>
<path d="M140.365 108.424C142.859 106.564 146.554 106.374 148.479 108.424" stroke="#0B2D50" stroke-width="2" stroke-miterlimit="10" stroke-linecap="round"/>
<path d="M137.357 117.916C137.611 119.234 137.474 122.152 136.848 123.464" stroke="#CC454E" stroke-width="2" stroke-miterlimit="10" stroke-linecap="round"/>
<path d="M127.518 118.803C128.181 118.803 128.719 117.956 128.719 116.91C128.719 115.865 128.181 115.017 127.518 115.017C126.854 115.017 126.316 115.865 126.316 116.91C126.316 117.956 126.854 118.803 127.518 118.803Z" fill="#262D40"/>
<path d="M143.219 117.922C143.882 117.922 144.42 117.074 144.42 116.029C144.42 114.983 143.882 114.136 143.219 114.136C142.555 114.136 142.018 114.983 142.018 116.029C142.018 117.074 142.555 117.922 143.219 117.922Z" fill="#262D40"/>
<path d="M135.867 126.042C135.867 126.042 135.632 126.499 135.182 127.119C134.477 128.066 133.276 129.371 131.637 129.881H131.631C130.939 130.102 130.188 130.181 129.353 130.031C126.898 129.593 126.252 127.328 126.135 125.585C126.108 125.246 126.108 124.932 126.115 124.645C126.128 123.94 126.206 123.47 126.206 123.47C130.116 125.624 135.867 126.042 135.867 126.042Z" fill="#CC454E"/>
<path d="M135.868 126.042C135.868 126.042 135.633 126.499 135.182 127.119C133.185 127.093 129.098 126.068 126.115 124.645C126.128 123.94 126.207 123.47 126.207 123.47C130.117 125.624 135.868 126.042 135.868 126.042Z" fill="white"/>
<path d="M131.631 129.874C130.939 130.096 130.189 130.174 129.353 130.024C126.899 129.587 126.252 127.322 126.135 125.579C127.323 125.722 128.472 126.179 129.425 126.904C130.424 127.668 131.187 128.705 131.631 129.874Z" fill="#E8729B"/>
<path d="M108.294 105.546C108.294 105.546 108.157 97.4056 111.545 89.3177C115.794 79.167 124.457 74.826 132.858 74.5322C142.983 74.1732 149.321 80.9686 149.321 80.9686C149.321 80.9686 146.025 75.1524 139.523 73.4812C135.254 72.3846 128.811 72.2083 123.641 74.3103C118.314 76.471 111.675 82.47 109.273 88.8085C106.877 95.147 105.709 105.017 105.709 105.017L108.294 105.546Z" fill="#89DCD2"/>
<path d="M108.121 126.735C112.456 126.285 115.417 120.594 114.734 114.026C114.051 107.457 109.983 102.497 105.648 102.948C101.313 103.399 98.3524 109.089 99.0353 115.658C99.7182 122.227 103.786 127.186 108.121 126.735Z" fill="#14B9A4"/>
<path d="M103.45 106.8C106.249 106.379 109.118 110.03 109.857 114.953C110.597 119.876 108.928 124.209 106.129 124.629C103.331 125.049 100.462 121.399 99.7221 116.476C98.9825 111.552 100.652 107.22 103.45 106.8Z" fill="#89DCD2"/>
<path d="M132.923 136.168C135.244 136.168 137.127 134.996 137.127 133.55C137.127 132.105 135.244 130.933 132.923 130.933C130.601 130.933 128.719 132.105 128.719 133.55C128.719 134.996 130.601 136.168 132.923 136.168Z" fill="#3A92C9"/>
<path d="M111.805 124.796C111.805 124.796 117.98 132.734 128.718 133.55" stroke="#3A92C9" stroke-width="2" stroke-miterlimit="10" stroke-linecap="round"/>
<path d="M137.531 203.032L137.126 213.47C137.126 213.47 99.3757 224.783 93.1417 221.205C90.0997 219.456 87.2601 209.834 85.1386 200.44C82.9191 190.57 81.4961 180.961 81.4961 180.961L103.625 176.627C103.625 176.627 103.638 190.12 104.389 197.921C104.657 200.826 105.042 202.941 105.558 203.286C107.509 204.572 137.531 203.032 137.531 203.032Z" fill="#F9A07B"/>
<path d="M104.389 197.908C100.368 199.213 92.6064 201.23 85.1386 200.434C82.9191 190.564 81.4961 180.955 81.4961 180.955L103.625 176.621C103.625 176.614 103.638 190.107 104.389 197.908Z" fill="#F98A79"/>
<path d="M136.454 203.137C142.068 201.936 151.572 199.051 155.515 198.058C158.315 197.353 165.607 201.126 167.533 204.684C168.375 206.238 169.171 215.037 166.253 214.13C164.791 213.673 165.032 209.9 164.575 208.359C164.203 207.106 163.015 205.892 161.207 204.847C162.415 207.857 162.369 210.481 162.239 213.732C162.212 214.45 162.167 215.2 161.821 215.82C161.468 216.441 160.711 216.884 160.058 216.61C159.392 216.336 159.164 215.507 159.014 214.783C158.498 212.276 157.976 209.769 157.767 206.936C157.819 209.724 157.76 212.517 157.584 215.298C157.454 217.426 156.396 218.595 155.097 218.223C154.516 218.06 154.281 217.524 154.033 216.819C153.641 218.184 152.662 219.691 151.396 219.117C150.626 218.771 150.149 215.99 150.286 213.131C147.858 214.639 145.116 215.279 141.957 215.422C139.124 215.553 136.225 215.024 134.521 213.098C134.691 210.089 135.683 205.637 136.454 203.137Z" fill="#F9A07B"/>
<path d="M154.093 216.388C154.282 214.13 154.086 211.838 153.512 209.658" stroke="#CC454E" stroke-miterlimit="10" stroke-linecap="round"/>
<path d="M101.139 154.732C99.5327 150.209 93.6511 140.952 93.6511 140.952C93.6511 140.952 84.6754 144.686 81.4898 151.025C76.0979 161.756 78.8396 192.567 78.8396 192.567C86.105 195.609 100.688 195.655 106.896 194.78C106.896 194.78 104.357 163.773 101.139 154.732Z" fill="#9DA2FF"/>
<path d="M102.281 156.626C104.729 168.343 106.041 179.271 106.459 189.976" stroke="#7A81FD" stroke-miterlimit="10" stroke-linecap="round"/>
<path d="M294.396 222.544H37.0176V229H294.396V222.544Z" fill="#0B2D50"/>
</svg>
