<svg width="16" height="16" viewBox="0 0 16 16" fill="none" xmlns="http://www.w3.org/2000/svg">
<path d="M13.0007 2.66671H11.0007V1.66671C11.0007 1.5783 10.9655 1.49352 10.903 1.43101C10.8405 1.36849 10.7557 1.33337 10.6673 1.33337C10.5789 1.33337 10.4941 1.36849 10.4316 1.43101C10.3691 1.49352 10.334 1.5783 10.334 1.66671V2.66671H5.66732V1.66671C5.66732 1.5783 5.6322 1.49352 5.56969 1.43101C5.50717 1.36849 5.42239 1.33337 5.33398 1.33337C5.24558 1.33337 5.16079 1.36849 5.09828 1.43101C5.03577 1.49352 5.00065 1.5783 5.00065 1.66671V2.66671H3.00065C2.55879 2.66724 2.13517 2.843 1.82272 3.15545C1.51028 3.46789 1.33451 3.89151 1.33398 4.33337V13C1.33451 13.4419 1.51028 13.8655 1.82272 14.178C2.13517 14.4904 2.55879 14.6662 3.00065 14.6667H13.0007C13.4426 14.6664 13.8663 14.4906 14.1788 14.1782C14.4913 13.8657 14.667 13.442 14.6673 13V4.33337C14.667 3.89145 14.4913 3.46774 14.1788 3.15525C13.8663 2.84277 13.4426 2.66706 13.0007 2.66671ZM14.0007 13C14.0007 13.2653 13.8953 13.5196 13.7078 13.7071C13.5202 13.8947 13.2659 14 13.0007 14H3.00065C2.73543 14 2.48108 13.8947 2.29354 13.7071C2.10601 13.5196 2.00065 13.2653 2.00065 13V7.33337H14.0007V13ZM14.0007 6.66671H2.00065V4.33337C2.00065 3.78137 2.44732 3.33337 3.00065 3.33337H5.00065V4.33337C5.00065 4.42178 5.03577 4.50656 5.09828 4.56908C5.16079 4.63159 5.24558 4.66671 5.33398 4.66671C5.42239 4.66671 5.50717 4.63159 5.56969 4.56908C5.6322 4.50656 5.66732 4.42178 5.66732 4.33337V3.33337H10.334V4.33337C10.334 4.42178 10.3691 4.50656 10.4316 4.56908C10.4941 4.63159 10.5789 4.66671 10.6673 4.66671C10.7557 4.66671 10.8405 4.63159 10.903 4.56908C10.9655 4.50656 11.0007 4.42178 11.0007 4.33337V3.33337H13.0007C13.2659 3.33337 13.5202 3.43873 13.7078 3.62627C13.8953 3.8138 14.0007 4.06816 14.0007 4.33337V6.66671Z" fill="white"/>
</svg>
