<svg width="35" height="35" viewBox="0 0 35 35" fill="none" xmlns="http://www.w3.org/2000/svg">
<rect width="35" height="35" rx="8" fill="#7A81FD"/>
<path d="M18 14.5008V19.5008M15.5 17.0008H20.5M18 24.5C19.4834 24.5 20.9334 24.0601 22.1668 23.236C23.4001 22.4119 24.3614 21.2406 24.9291 19.8701C25.4968 18.4997 25.6453 16.9917 25.3559 15.5368C25.0665 14.082 24.3522 12.7456 23.3033 11.6967C22.2544 10.6478 20.918 9.9335 19.4632 9.64411C18.0083 9.35472 16.5003 9.50325 15.1299 10.0709C13.7594 10.6386 12.5881 11.5999 11.764 12.8332C10.9399 14.0666 10.5 15.5166 10.5 17C10.5 18.24 10.8 19.4083 11.3333 20.4392L10.5 24.5L14.5608 23.6667C15.5908 24.1992 16.7608 24.5 18 24.5Z" stroke="white" stroke-width="1.5" stroke-linecap="round" stroke-linejoin="round"/>
</svg>
