<svg width="334" height="242" viewBox="0 0 334 242" fill="none" xmlns="http://www.w3.org/2000/svg">
<g clip-path="url(#clip0_5875_4318)">
<path d="M306.695 100.832C305.89 100.515 303.848 97.752 303.848 97.752C303.848 97.752 304.843 101.11 304.544 101.875C304.177 102.81 301.182 104.554 301.182 104.554C301.182 104.554 304.372 103.889 305.14 104.191C306.069 104.557 307.969 107.228 307.969 107.228C307.969 107.228 307.245 104.181 307.611 103.25C307.911 102.48 310.635 100.425 310.635 100.425C310.635 100.425 307.587 101.182 306.696 100.83L306.695 100.832Z" fill="white"/>
<path d="M63.2498 39.3044C62.4444 38.9874 60.4032 36.2246 60.4032 36.2246C60.4032 36.2246 61.398 39.5824 61.0985 40.3478C60.732 41.2822 57.7363 43.0268 57.7363 43.0268C57.7363 43.0268 60.9271 42.3619 61.6948 42.6636C62.6242 43.0296 64.5233 45.7002 64.5233 45.7002C64.5233 45.7002 63.8002 42.6539 64.1652 41.7222C64.4662 40.9526 67.1902 38.898 67.1902 38.898C67.1902 38.898 64.1415 39.655 63.2512 39.3031L63.2498 39.3044Z" fill="white"/>
<path d="M273.873 120.879C273.067 120.562 271.026 117.799 271.026 117.799C271.026 117.799 272.021 121.157 271.722 121.922C271.355 122.856 268.359 124.601 268.359 124.601C268.359 124.601 271.55 123.936 272.318 124.238C273.247 124.604 275.146 127.274 275.146 127.274C275.146 127.274 274.423 124.228 274.788 123.296C275.089 122.527 277.813 120.472 277.813 120.472C277.813 120.472 274.765 121.229 273.874 120.877L273.873 120.879Z" fill="white"/>
<path d="M45.4314 88.5134C44.6261 88.1964 42.5848 85.4336 42.5848 85.4336C42.5848 85.4336 43.5797 88.7914 43.2801 89.5568C42.9137 90.4912 39.918 92.2358 39.918 92.2358C39.918 92.2358 43.1087 91.5709 43.8765 91.8726C44.8058 92.2386 46.705 94.9092 46.705 94.9092C46.705 94.9092 45.9818 91.8629 46.3469 90.9312C46.6478 90.1616 49.3718 88.107 49.3718 88.107C49.3718 88.107 46.3232 88.864 45.4328 88.512L45.4314 88.5134Z" fill="white"/>
<path d="M266.209 81.4062C266.209 81.4062 262.367 83.3016 261.382 83.0949C260.181 82.8435 257.464 79.5723 257.464 79.5723C257.464 79.5723 258.92 83.3002 258.714 84.2905C258.463 85.4917 255.635 88.3383 255.635 88.3383C255.635 88.3383 259.157 86.8368 260.355 87.0882C261.345 87.2949 264.379 90.1722 264.379 90.1722C264.379 90.1722 262.841 86.6356 263.082 85.4847C263.3 84.4441 266.209 81.4048 266.209 81.4048V81.4062Z" fill="white"/>
<path d="M216.037 0.991695C216.037 0.991695 213.959 2.01691 213.426 1.90517C212.776 1.76829 211.306 0 211.306 0C211.306 0 212.094 2.01691 211.981 2.55326C211.846 3.20275 210.316 4.74337 210.316 4.74337C210.316 4.74337 212.223 3.93186 212.87 4.06734C213.405 4.17908 215.048 5.73507 215.048 5.73507C215.048 5.73507 214.216 3.82152 214.346 3.19996C214.463 2.63707 216.037 0.993091 216.037 0.993091V0.991695Z" fill="white"/>
<path d="M164.12 3.66892C164.12 3.66892 162.44 4.4972 162.009 4.40781C161.484 4.29746 160.295 2.86719 160.295 2.86719C160.295 2.86719 160.932 4.4972 160.841 4.93159C160.731 5.45677 159.494 6.70267 159.494 6.70267C159.494 6.70267 161.035 6.0462 161.559 6.15654C161.991 6.24733 163.32 7.5058 163.32 7.5058C163.32 7.5058 162.647 5.9596 162.753 5.45537C162.848 5.00003 164.121 3.67032 164.121 3.67032L164.12 3.66892Z" fill="white"/>
<path d="M205.497 21.3021C205.497 21.3021 202.179 22.9391 201.327 22.7603C200.289 22.5424 197.941 19.7168 197.941 19.7168C197.941 19.7168 199.2 22.9377 199.021 23.7939C198.805 24.8317 196.361 27.2914 196.361 27.2914C196.361 27.2914 199.406 25.9938 200.44 26.2117C201.294 26.3905 203.917 28.8767 203.917 28.8767C203.917 28.8767 202.588 25.822 202.796 24.8275C202.984 23.928 205.497 21.3021 205.497 21.3021Z" fill="white"/>
<path d="M254.279 33.2298C254.279 33.2298 250.96 34.8668 250.108 34.6881C249.07 34.4702 246.723 31.6445 246.723 31.6445C246.723 31.6445 247.981 34.8654 247.802 35.7217C247.586 36.7594 245.143 39.2191 245.143 39.2191C245.143 39.2191 248.187 37.9215 249.221 38.1394C250.075 38.3182 252.699 40.8044 252.699 40.8044C252.699 40.8044 251.369 37.7497 251.577 36.7552C251.765 35.8557 254.279 33.2298 254.279 33.2298Z" fill="white"/>
<path d="M285.983 56.2475C285.983 56.2475 283.926 57.2616 283.398 57.1512C282.754 57.0158 281.3 55.2656 281.3 55.2656C281.3 55.2656 282.08 57.2616 281.969 57.7924C281.835 58.4349 280.32 59.9601 280.32 59.9601C280.32 59.9601 282.207 59.157 282.848 59.2911C283.377 59.4014 285.002 60.942 285.002 60.942C285.002 60.942 284.178 59.0494 284.307 58.4321C284.422 57.8748 285.98 56.2475 285.98 56.2475H285.983Z" fill="white"/>
<path d="M28.8637 53.4097C28.8637 53.4097 26.8071 54.4237 26.2791 54.3134C25.6353 54.1779 24.1807 52.4277 24.1807 52.4277C24.1807 52.4277 24.961 54.4237 24.8495 54.9545C24.7157 55.597 23.2012 57.1222 23.2012 57.1222C23.2012 57.1222 25.0878 56.3191 25.7287 56.4532C26.2582 56.5635 27.8828 58.1041 27.8828 58.1041C27.8828 58.1041 27.0593 56.2115 27.1875 55.5942C27.3032 55.0369 28.8609 53.4097 28.8609 53.4097H28.8637Z" fill="white"/>
<path d="M98.4282 6.16746C98.4282 6.16746 96.3716 7.18151 95.8435 7.07116C95.1998 6.93568 93.7451 5.18555 93.7451 5.18555C93.7451 5.18555 94.5254 7.18151 94.4139 7.71227C94.2802 8.35478 92.7656 9.88003 92.7656 9.88003C92.7656 9.88003 94.6522 9.0769 95.2931 9.21099C95.8226 9.32133 97.4473 10.8619 97.4473 10.8619C97.4473 10.8619 96.6238 8.96935 96.752 8.35199C96.8676 7.79468 98.4254 6.16746 98.4254 6.16746H98.4282Z" fill="white"/>
<path d="M19.002 109.632C19.002 109.632 17.5683 110.338 17.2004 110.262C16.7518 110.168 15.7374 108.947 15.7374 108.947C15.7374 108.947 16.2808 110.338 16.2042 110.709C16.1108 111.157 15.0547 112.22 15.0547 112.22C15.0547 112.22 16.37 111.66 16.8173 111.753C17.1865 111.83 18.3193 112.904 18.3193 112.904C18.3193 112.904 17.7452 111.584 17.8344 111.154C17.9152 110.766 19.002 109.632 19.002 109.632Z" fill="white"/>
<path d="M54.8575 121.243C54.8575 121.243 53.4237 121.95 53.0559 121.873C52.6072 121.779 51.5929 120.559 51.5929 120.559C51.5929 120.559 52.1363 121.95 52.0597 122.32C51.9663 122.768 50.9102 123.831 50.9102 123.831C50.9102 123.831 52.2255 123.271 52.6727 123.365C53.042 123.441 54.1748 124.516 54.1748 124.516C54.1748 124.516 53.6007 123.196 53.6899 122.765C53.7707 122.377 54.8575 121.243 54.8575 121.243Z" fill="white"/>
<path d="M288.955 180.703C288.863 180.833 288.813 180.904 288.814 180.904C288.814 180.904 288.865 180.836 288.955 180.703Z" fill="#A9D9ED"/>
<path d="M328.107 177.295C324.076 176.398 320.544 178.453 318.395 179.618C307.435 185.569 296.914 187.751 296.593 187.131C296.113 186.201 318.128 178.176 321.3 163.749C321.643 162.188 322.942 156.285 319.876 153.647C318.077 152.098 315.539 152.328 314.764 152.398C309.673 152.86 306.187 157.316 304.239 159.877C298.789 167.041 290.153 179.02 288.954 180.703C288.862 180.836 288.813 180.904 288.813 180.904C288.813 180.904 288.862 180.833 288.954 180.703C290.534 178.41 304.747 156.955 301.328 140.535C301.009 139 300.021 134.261 297.494 133.73C294.503 133.103 290.999 138.711 289.588 140.97C285.856 146.942 284.717 152.558 284.191 155.349C281.612 169.056 281.331 181.2 280.985 181.193C280.73 181.188 281.515 174.56 278.555 167.103C277.874 165.386 275.217 158.69 271.798 158.778C270.967 158.799 269.397 159.179 267.629 162.382C255.416 184.508 270.661 216.985 276.603 221.973C291.048 234.094 327.896 211.782 327.853 204.227C327.81 196.58 295.679 210.029 294.636 205.424C294.484 204.755 313.904 202.175 327.021 191.993C328.795 190.616 335.009 185.791 333.856 181.632C333.186 179.214 330.232 177.767 328.105 177.294L328.107 177.295Z" fill="#89DCD2"/>
<path d="M288.955 180.703C288.863 180.833 288.813 180.904 288.814 180.904C288.814 180.904 288.865 180.836 288.955 180.703Z" fill="#A9D9ED"/>
<path d="M297.496 133.73C294.505 133.103 291.001 138.711 289.59 140.97C285.858 146.942 284.719 152.558 284.193 155.349C281.614 169.056 281.333 181.2 280.987 181.193C280.732 181.188 281.517 174.56 278.557 167.103C277.876 165.386 275.219 158.69 271.799 158.778C270.969 158.799 269.399 159.179 267.631 162.382C255.418 184.508 270.663 216.985 276.605 221.973C279.71 224.578 283.849 225.592 288.435 225.504C290.564 218.974 292.01 210.598 287.778 205.755C285.75 203.432 281.749 201.161 280.706 202.076C279.321 203.29 283.749 209.585 283.276 209.891C282.569 210.352 269.906 197.971 270.741 184.247C270.802 183.235 271.21 176.524 273.986 175.81C274.569 175.659 275.638 175.679 277.541 177.389C283.524 182.762 283.297 191.848 284.085 191.809C284.951 191.765 284.528 180.798 286.418 167.266C286.673 165.441 287.348 160.873 288.89 155.092C290.451 149.243 291.363 145.929 293.767 142.306C294.907 140.59 296.786 138.193 299.802 135.837C299.232 134.788 298.481 133.938 297.494 133.732L297.496 133.73Z" fill="#14B9A4"/>
<path d="M295.399 149.647C294.274 151.277 293.062 153.829 293.277 154.503C293.468 155.105 294.771 154.147 295.712 152.99C297.269 151.078 298.512 147.792 298.234 147.155C297.981 146.572 296.427 148.156 295.4 149.645L295.399 149.647Z" fill="#14B9A4"/>
<path d="M290.64 162.066C289.043 164.881 289.567 170.587 290.137 170.704C290.876 170.858 292.853 161.892 292.074 160.856C291.746 160.42 290.984 161.457 290.639 162.064L290.64 162.066Z" fill="#14B9A4"/>
<path d="M307.625 160.686C306.452 162.445 305.703 165.01 306.235 165.316C307.281 165.917 313.673 158.014 312.871 157.131C312.416 156.629 309.355 158.094 307.625 160.686Z" fill="#14B9A4"/>
<path d="M308.815 169.45C307.165 170.105 305.192 171.532 305.453 172.357C305.707 173.158 308.064 173.344 309.888 172.685C311.913 171.953 313.66 170.042 313.288 169.256C312.921 168.479 310.484 168.786 308.815 169.45Z" fill="#14B9A4"/>
<path d="M301.009 168.608C300.547 168.322 298.158 170.593 297.232 173.588C296.755 175.13 296.507 177.379 296.942 177.51C297.839 177.781 301.803 169.103 301.008 168.608H301.009Z" fill="#14B9A4"/>
<path d="M273.341 181.021C272.687 181.335 273.311 184.64 274.985 187.19C275.732 188.329 277.153 190.027 277.681 189.756C278.299 189.439 277.62 186.46 276.26 184.129C275.451 182.743 273.91 180.746 273.342 181.02L273.341 181.021Z" fill="#14B9A4"/>
<path d="M291.525 190.52C289.619 191.955 288.981 194.628 289.613 195.111C290.704 195.947 296.643 191.058 296.038 189.802C295.702 189.105 293.218 189.246 291.526 190.52H291.525Z" fill="#14B9A4"/>
<path d="M305.139 194.419C303.405 194.22 301.193 194.499 301.168 194.914C301.118 195.741 309.705 197.407 309.96 196.617C310.102 196.175 307.725 194.717 305.139 194.419Z" fill="#14B9A4"/>
<path d="M311.398 187.784C310.678 188.427 309.251 189.917 309.621 190.544C309.977 191.15 311.931 190.819 313.331 190.03C315.386 188.871 316.792 186.414 316.267 185.778C315.732 185.129 313.097 186.267 311.397 187.784H311.398Z" fill="#14B9A4"/>
<path d="M325.551 184.362C323.134 184.946 321.105 186.885 321.388 187.471C321.896 188.529 330.34 186.15 330.227 184.971C330.167 184.342 327.654 183.854 325.551 184.362Z" fill="#14B9A4"/>
<path d="M295.517 211.059C293.032 213.446 292.08 217.05 292.687 217.423C293.744 218.071 300.71 209.701 299.884 208.753C299.47 208.278 297.044 209.593 295.517 211.059Z" fill="#14B9A4"/>
<path d="M305.221 214.671C304.346 214.6 303.468 214.706 303.468 214.706C302.724 214.797 301.532 214.942 301.51 215.185C301.45 215.849 310.051 217.678 310.302 216.888C310.455 216.409 307.567 214.862 305.219 214.671H305.221Z" fill="#14B9A4"/>
<path d="M311.313 206.709C309.566 207.983 308.206 210.228 308.658 210.719C309.517 211.657 317.377 206.708 316.908 205.546C316.642 204.888 313.555 205.075 311.313 206.709Z" fill="#14B9A4"/>
<path d="M66.5498 158.703C64.4249 156.948 59.4103 157.761 57.5418 164.665C55.254 173.115 56.4606 183.684 56.1847 183.686C56.0092 183.686 55.3501 174.663 53.5429 165.331C50.0108 147.091 44.7537 141.435 42.9201 139.666C41.7622 138.55 37.6463 134.576 34.946 135.934C32.6302 137.097 31.7914 141.709 32.5174 146.758C35.1578 165.113 44.0738 184.432 41.634 184.779C41.634 184.779 32.4881 160.859 23.4885 151.675C19.3475 147.448 10.7422 142.808 7.08605 146.127C5.0852 147.943 5.10192 151.714 5.10889 153.245C5.1284 157.684 6.89237 161.322 10.4997 167.249C16.3518 176.864 24.5642 186.074 24.1308 186.604C23.6919 187.139 15.8209 177.194 9.13983 176.581C6.03407 176.296 1.7579 177.386 0.416106 180.815C-1.19739 184.936 2.15221 190.586 5.81114 196.609C9.23737 202.247 14.3231 210.435 23.9302 217.19C30.6475 221.912 38.839 227.674 47.6937 226.045C65.4714 222.777 69.8297 192.677 70.5919 187.407C71.2969 182.542 73.8718 164.753 66.5498 158.705V158.703Z" fill="#89DCD2"/>
<path d="M66.5506 158.703C64.4257 156.948 59.4111 157.761 57.5426 164.665C55.2547 173.115 56.4614 183.684 56.1855 183.686C56.0099 183.686 55.3509 174.663 53.5437 165.331C50.0116 147.091 44.7545 141.435 42.9208 139.666C41.763 138.55 37.647 134.576 34.9467 135.934C33.9059 136.456 33.1646 137.677 32.7285 139.318C33.8961 139.208 35.1376 139.297 36.3763 139.736C39.1908 140.731 40.7639 143.098 41.7616 144.845C51.5791 162.019 50.0966 184.204 50.0966 184.204C49.3149 195.903 46.7302 206.035 47.3071 206.164C47.9508 206.306 50.2958 193.537 53.056 193.633C55.1126 193.705 56.5519 200.888 56.9699 204.119C57.4437 207.783 57.6471 214.433 53.9505 223.535C66.5394 215.392 69.928 191.995 70.5927 187.408C71.2977 182.543 73.8726 164.754 66.5506 158.706V158.703Z" fill="#14B9A4"/>
<path d="M11.7016 191.749C10.2358 191.313 6.86396 190.633 6.26482 191.784C5.54028 193.176 8.75333 197.494 12.6171 197.696C14.4981 197.795 16.8278 196.935 17.0173 195.718C17.2569 194.174 13.9784 192.425 11.7016 191.749Z" fill="#14B9A4"/>
<path d="M25.1641 191.199C24.5412 191.265 24.1497 193.309 24.2263 194.937C24.3601 197.809 26.0042 200.607 26.7497 200.435C27.4603 200.27 27.445 197.393 27.0729 195.381C26.7371 193.566 25.8649 191.127 25.1641 191.201V191.199Z" fill="#14B9A4"/>
<path d="M26.4793 207.461C24.4701 206.685 20.878 205.642 20.4921 206.409C20.0908 207.208 23.2007 209.902 26.5879 211.401C29.6101 212.739 33.5031 213.412 33.8514 212.591C34.236 211.684 30.2984 208.933 26.4793 207.459V207.461Z" fill="#14B9A4"/>
<path d="M20.0478 152.432C19.4514 152.498 19.1797 154.937 19.2383 156.63C19.3678 160.415 21.2656 163.974 21.9817 163.802C22.6324 163.646 22.3468 160.393 22.2688 159.503C21.9734 156.152 20.8113 152.347 20.0492 152.431L20.0478 152.432Z" fill="#14B9A4"/>
<path d="M22.2716 170.172C20.4017 168.579 17.7168 167.268 17.1761 167.877C16.6369 168.484 18.3061 170.912 19.6716 172.388C21.8898 174.785 25.2478 176.771 25.9054 176.101C26.5436 175.45 24.7002 172.237 22.2716 170.17V170.172Z" fill="#14B9A4"/>
<path d="M34.3822 177.201C33.7441 177.214 33.0613 179.587 33.177 181.757C33.3539 185.08 35.4077 188.096 36.1225 187.881C36.9014 187.646 36.259 183.524 36.0877 182.431C35.979 181.734 35.2698 177.183 34.3822 177.201Z" fill="#14B9A4"/>
<path d="M34.218 194.372C33.2956 194.904 33.8418 198.294 35.4915 200.716C37.2137 203.245 40.3571 205.037 41.2028 204.326C42.1016 203.572 40.4546 199.959 38.5889 197.614C37.4715 196.21 35.1432 193.838 34.2194 194.372H34.218Z" fill="#14B9A4"/>
<path d="M40.2177 210.559C38.7784 209.793 36.712 209.304 36.3247 209.912C35.674 210.93 39.9822 214.64 40.162 214.792C41.2906 215.756 43.9825 218.054 44.6332 217.51C45.3731 216.893 43.7108 212.415 40.2191 210.557L40.2177 210.559Z" fill="#14B9A4"/>
<path d="M36.5908 146.059C35.7799 146.28 36.0098 150.032 37.0102 152.891C37.2624 153.61 37.849 155.286 38.4049 155.23C39.0096 155.169 39.4472 153.07 39.2786 151.262C39.0236 148.527 37.3237 145.86 36.5894 146.059H36.5908Z" fill="#14B9A4"/>
<path d="M44.0033 161.105C43.2063 161.122 42.61 163.713 42.44 165.266C42.047 168.848 43.2843 172.721 44.2639 172.697C45.104 172.676 45.7589 169.792 45.8634 167.782C46.032 164.571 44.9313 161.087 44.0019 161.107L44.0033 161.105Z" fill="#14B9A4"/>
<path d="M46.4919 184.232C45.7715 184.032 44.5119 186.564 43.818 187.96C43.6146 188.368 41.4577 192.703 42.3467 193.336C42.9179 193.742 44.6708 192.561 45.6991 191.156C47.672 188.46 47.3293 184.465 46.4919 184.233V184.232Z" fill="#14B9A4"/>
<path d="M53.7398 199.573C53.0961 199.523 52.4301 201.906 52.0483 203.273C51.1287 206.567 50.5045 211.374 51.4115 211.641C52.189 211.87 54.1508 208.779 54.6566 205.52C55.0941 202.7 54.4574 199.629 53.7412 199.573H53.7398Z" fill="#14B9A4"/>
<path d="M169.133 242C245.049 242 306.591 236.782 306.591 230.346C306.591 223.911 245.049 218.693 169.133 218.693C93.2177 218.693 31.6758 223.911 31.6758 230.346C31.6758 236.782 93.2177 242 169.133 242Z" fill="#F1F0FF"/>
<path d="M172.496 93.2808L145.17 120.799L185.938 161.481L213.264 133.963L172.496 93.2808Z" fill="#FAFCFF"/>
<path d="M180.209 130.744L213.28 133.951L172.514 93.2676L175.862 126.413C176.157 128.657 177.96 130.456 180.208 130.742L180.209 130.744Z" fill="#B3D9E8"/>
<path d="M181.288 129.649L213.28 133.951L172.514 93.2676L176.949 125.319C177.258 127.549 179.061 129.348 181.288 129.649Z" fill="white"/>
<path d="M182.59 128.348C182.295 126.095 180.492 124.296 178.251 124.011L145.172 120.803L185.938 161.486L182.59 128.348Z" fill="#B3D9E8"/>
<path d="M181.501 129.435C181.192 127.204 179.389 125.405 177.163 125.105L145.17 120.803L185.936 161.486L181.501 129.435Z" fill="white"/>
<path d="M205.67 102.48L182.393 155.213L217.813 170.925L241.091 118.193L205.67 102.48Z" fill="#DBDBDB"/>
<path d="M208.974 138.844L217.839 170.945L241.119 118.213L211.45 133.225C209.465 134.305 208.435 136.637 208.974 138.844Z" fill="#F2F2F5"/>
<path d="M210.38 139.462L217.837 170.945L241.117 118.213L212.857 133.85C210.89 134.938 209.86 137.27 210.38 139.462Z" fill="#DBDBDB"/>
<path d="M212.06 140.214C214.052 139.13 215.082 136.798 214.544 134.599L205.678 102.492L182.398 155.224L212.06 140.216V140.214Z" fill="#F2F2F5"/>
<path d="M210.658 139.585C212.626 138.497 213.655 136.165 213.136 133.973L205.678 102.49L182.398 155.222L210.658 139.585Z" fill="#DBDBDB"/>
<path d="M228.401 235.179H164.004L157.615 135.273H234.79L228.401 235.179Z" fill="#5A5789"/>
<path d="M228.401 235.179H164.004L157.615 135.273H234.79L228.401 235.179Z" fill="#5A5789"/>
<path d="M221.118 135.273L218.389 177.957C216.64 205.309 193.998 226.599 166.655 226.599H163.453L164.002 235.18H228.4L234.788 135.273H221.117H221.118Z" fill="#43406F"/>
<path d="M233.769 151.217L158.707 151.796L158.917 155.654H233.485L233.769 151.217Z" fill="#353263"/>
<path d="M234.455 141.498L158.061 142.391L158.401 147.57H234.002L234.455 141.498Z" fill="#353263"/>
<path d="M236.578 145.263H155.825L154.803 135.273H237.599L236.578 145.263Z" fill="#3D3884"/>
<path d="M223.714 135.273L222.691 145.263H236.579L237.6 135.273H223.714Z" fill="#5A55AC"/>
<path d="M234.009 149.617H158.393C157.575 149.617 156.912 150.282 156.912 151.102V151.335C156.912 152.155 157.575 152.82 158.393 152.82H234.009C234.827 152.82 235.49 152.155 235.49 151.335V151.102C235.49 150.282 234.827 149.617 234.009 149.617Z" fill="#3D3884"/>
<path d="M223.172 149.617H234.009C234.827 149.617 235.49 150.282 235.49 151.102V151.335C235.49 152.155 234.827 152.82 234.009 152.82H223.172V149.617Z" fill="#5A55AC"/>
<path d="M196.546 158.586H195.858C193.437 158.586 191.475 160.553 191.475 162.98V223.358C191.475 225.784 193.437 227.752 195.858 227.752H196.546C198.967 227.752 200.93 225.784 200.93 223.358V162.98C200.93 160.553 198.967 158.586 196.546 158.586Z" fill="#43406F"/>
<path d="M195.985 158.586H196.419C197.942 158.586 199.178 159.825 199.178 161.352V224.988C199.178 226.514 197.942 227.753 196.419 227.753H195.985C194.462 227.753 193.227 226.514 193.227 224.988V161.352C193.227 159.825 194.462 158.586 195.985 158.586Z" fill="#353263"/>
<path d="M210.974 227.752C208.609 227.752 206.7 225.817 206.727 223.447L207.398 162.796C207.425 160.463 209.318 158.586 211.645 158.586H212.541C214.929 158.586 216.849 160.56 216.787 162.954L215.218 223.605C215.158 225.912 213.276 227.752 210.972 227.752H210.974Z" fill="#353263"/>
<path d="M223.376 227.752C221.506 227.752 220.012 226.192 220.089 224.32L222.632 161.75C222.704 159.981 224.155 158.586 225.919 158.586H227.305C229.203 158.586 230.707 160.192 230.589 162.092L226.658 224.662C226.55 226.4 225.112 227.753 223.374 227.753L223.376 227.752Z" fill="#353263"/>
<path d="M212.541 158.586H211.645C211.315 158.586 210.995 158.625 210.687 158.696C212.608 159.14 214.027 160.891 213.974 162.954L212.405 223.605C212.357 225.418 211.184 226.942 209.566 227.511C210.007 227.667 210.479 227.752 210.974 227.752C213.277 227.752 215.159 225.912 215.219 223.605L216.788 162.954C216.849 160.56 214.931 158.586 212.543 158.586H212.541Z" fill="#43406F"/>
<path d="M227.305 158.585H225.918C225.674 158.585 225.436 158.613 225.206 158.664C226.752 159.007 227.879 160.437 227.774 162.09L223.844 224.66C223.766 225.895 223.017 226.935 221.967 227.434C222.393 227.637 222.87 227.751 223.374 227.751C225.112 227.751 226.548 226.398 226.658 224.66L230.589 162.09C230.709 160.19 229.204 158.584 227.305 158.584V158.585Z" fill="#43406F"/>
<path d="M181.43 227.752C183.794 227.752 185.703 225.817 185.677 223.447L185.005 162.796C184.979 160.463 183.085 158.586 180.758 158.586H179.862C177.474 158.586 175.554 160.56 175.617 162.954L177.186 223.605C177.246 225.912 179.128 227.752 181.431 227.752H181.43Z" fill="#353263"/>
<path d="M169.027 227.752C170.896 227.752 172.39 226.192 172.313 224.32L169.771 161.75C169.698 159.981 168.248 158.586 166.484 158.586H165.097C163.2 158.586 161.695 160.192 161.813 162.092L165.744 224.662C165.852 226.4 167.29 227.753 169.028 227.753L169.027 227.752Z" fill="#353263"/>
<path d="M179.999 223.605L178.43 162.954C178.377 160.891 179.794 159.14 181.717 158.696C181.409 158.625 181.087 158.586 180.758 158.586H179.862C177.474 158.586 175.554 160.56 175.617 162.954L177.186 223.605C177.246 225.912 179.128 227.752 181.431 227.752C181.924 227.752 182.398 227.667 182.838 227.511C181.221 226.942 180.048 225.418 180 223.605H179.999Z" fill="#43406F"/>
<path d="M168.558 224.661L164.628 162.09C164.523 160.437 165.65 159.006 167.196 158.664C166.966 158.614 166.728 158.586 166.484 158.586H165.097C163.2 158.586 161.695 160.192 161.813 162.092L165.744 224.662C165.852 226.4 167.29 227.753 169.028 227.753C169.532 227.753 170.009 227.639 170.435 227.436C169.385 226.937 168.636 225.897 168.558 224.662V224.661Z" fill="#43406F"/>
<path d="M172.077 140.894H160.83C159.865 140.894 159.059 140.162 158.963 139.2C158.852 138.092 159.719 137.133 160.83 137.133H172.077C173.113 137.133 173.954 137.975 173.954 139.014C173.954 140.053 173.113 140.896 172.077 140.896V140.894Z" fill="#736FAF"/>
<path d="M263.524 209.252L249.977 187.126L251.576 186.143C257.261 182.644 264.726 184.435 268.215 190.135L270.087 193.191C273.577 198.89 271.791 206.373 266.105 209.871L264.505 210.854L263.524 209.251V209.252ZM255.249 188.547L265.629 205.5C268.338 202.83 268.958 198.54 266.889 195.16L265.018 192.104C262.947 188.724 258.851 187.337 255.25 188.548L255.249 188.547Z" fill="#353263"/>
<path d="M275.199 217.382L249.012 174.613C245.704 169.211 240.174 165.561 233.916 164.65L277.228 235.388C279.25 229.382 278.507 222.786 275.199 217.383V217.382Z" fill="#5A5789"/>
<path d="M277.228 235.384C279.25 229.378 278.507 222.782 275.199 217.38L265.783 202C269.091 207.403 269.834 213.998 267.812 220.004L277.228 235.384Z" fill="#43406F"/>
<path d="M248.19 185.664L238.768 170.276C238.175 169.305 241.927 170.386 242.611 171.503L249.545 182.827C250.183 183.87 248.828 186.707 248.19 185.664Z" fill="#5A55AC"/>
<path d="M124.808 98.6886C127.624 99.6384 149.082 95.2372 170.478 80.0307C171.811 79.0837 169.93 75.2678 169.292 71.6614C168.501 67.1974 140.967 84.7601 122.876 81.292C121.283 80.9861 118.276 85.2057 118.4 87.1626C118.623 90.6642 120.312 97.1731 124.808 98.6872V98.6886Z" fill="#6068F0"/>
<path d="M124.419 5.17875L95.5898 51.9902L164.94 94.91L193.77 48.0985L124.419 5.17875Z" fill="#C6C6D4"/>
<path d="M142.238 45.7383L95.582 52.0208L164.929 94.9459L149.63 50.3042C148.5 47.3026 145.433 45.4044 142.238 45.7369V45.7383Z" fill="#F3F3F6"/>
<path d="M141.102 47.5989L95.5801 52.0224L164.927 94.9474L148.481 52.1677C147.336 49.1898 144.269 47.2916 141.101 47.5989H141.102Z" fill="#C6C6D4"/>
<path d="M139.728 49.816C140.862 52.8274 143.929 54.727 147.111 54.3945L193.778 48.1092L124.432 5.18555L139.728 49.816Z" fill="#F3F3F6"/>
<path d="M140.879 47.9653C142.024 50.9432 145.091 52.8414 148.259 52.5341L193.781 48.1106L124.432 5.18555L140.877 47.9653H140.879Z" fill="#C6C6D4"/>
<path d="M113.177 229.445C113.12 229.576 113.238 230.239 113.316 230.816C113.403 231.46 113.308 231.63 113.441 231.823C113.651 232.132 114.169 232.096 114.614 232.075C115.581 232.029 116.55 232.118 117.516 232.075C118.227 232.043 118.794 232.054 119.925 232.075C121.355 232.101 121.827 232.199 124.063 232.389C127.611 232.692 126.967 232.492 128.634 232.703C129.775 232.847 130.92 233.048 132.401 232.892C132.662 232.864 133.538 232.762 134.44 232.199C134.798 231.975 135.111 231.773 135.305 231.38C135.696 230.582 135.386 229.396 134.873 229.239C134.303 229.066 133.932 230.295 132.527 230.876C131.855 231.154 131.263 231.153 130.18 231.065C127.968 230.886 126.839 230.6 125.301 230.372C123.19 230.061 121.452 230.03 119.433 229.993C117.317 229.956 117.633 230.073 116.468 229.993C114.81 229.88 113.379 228.975 113.179 229.44L113.177 229.445Z" fill="#43406F"/>
<path d="M70.6224 231.208C70.6224 231.208 71.2103 231.801 71.7537 232.152C72.7974 232.826 73.7532 233.088 74.2673 233.223C76.9732 233.93 79.0423 234.167 79.0423 234.167C79.0423 234.167 81.3316 234.43 84.8219 234.167C85.1299 234.143 86.1177 234.058 86.9579 233.412C87.5362 232.966 87.6741 232.54 87.7117 232.405C87.734 232.326 87.8274 231.963 87.7117 231.523C87.5668 230.971 87.1237 230.424 86.5803 230.263C85.8126 230.037 85.3681 230.741 84.0667 231.145C83.3715 231.361 82.8072 231.351 81.6799 231.333C79.7975 231.304 79.3642 230.978 76.466 230.515C74.1169 230.139 73.7588 230.249 73.0732 229.759C71.6576 228.748 71.6646 227.192 71.1253 227.239C70.4538 227.298 70.6224 231.208 70.6224 231.208Z" fill="#43406F"/>
<path d="M113.028 214.979C112.224 216.567 113.499 217.434 113.594 221.024C113.701 225.109 113.216 228.108 113.216 228.108C113.216 228.108 114.445 227.988 116.892 227.825C120.493 227.585 122.031 228.814 123.771 227.636C124.013 227.471 124.802 226.939 124.808 226.218C124.815 225.399 123.804 225.008 122.829 223.952C121.981 223.034 121.653 222.148 121.133 220.739C119.624 216.659 121.542 214.285 120.192 212.993C118.68 211.546 114.243 212.576 113.03 214.976L113.028 214.979Z" fill="#EB8E6C"/>
<path d="M72.6021 214.127C71.7187 215.077 72.9769 216.941 72.6021 220.321C72.2273 223.697 71.4707 225.179 71.4707 225.179C71.4707 225.179 73.3085 226.918 74.8635 227.541C77.0246 228.406 80.6069 229.11 81.3662 227.825C81.6017 227.427 81.9194 226.847 80.4243 224.33C77.7853 219.89 79.9241 216.394 79.1996 215.072C78.149 213.156 74.0331 212.59 72.6035 214.128L72.6021 214.127Z" fill="#EB8E6C"/>
<path d="M91.449 148.189C90.6729 157.104 96.5612 165.316 98.2346 167.648C101.626 172.378 105.619 177.758 107.35 180.081C107.918 180.845 108.214 181.775 108.19 182.728C108.144 184.507 108.045 187.836 107.847 192.399C107.505 200.314 111.193 217.388 113.609 221.764C114.861 224.034 121.066 222.641 121.134 220.739C121.572 208.688 122.979 183.57 123.255 178.684C123.286 178.139 123.209 177.595 123.029 177.079C122.213 174.733 119.661 167.112 116.706 155.367C111.891 136.227 112.827 129.782 108.979 128.538C103.443 126.749 92.4118 137.147 91.4504 148.187L91.449 148.189Z" fill="#534F86"/>
<path d="M113.374 230.06C113.147 229.732 113.055 228.708 112.871 226.659C112.715 224.914 113.377 224.079 113.573 224.033C113.816 223.977 113.344 225.19 114.379 225.778C114.978 226.117 115.584 226.102 115.824 226.092C116.844 226.053 117.241 225.503 118.651 224.832C119.504 224.427 120.03 224.177 120.787 224.076C122.254 223.881 123.55 224.387 124.368 224.706C124.988 224.948 125.648 225.283 125.875 225.399C126.583 225.758 126.727 225.882 127.258 226.155C127.377 226.216 128.297 226.686 129.456 227.036C130.016 227.207 130.667 227.317 131.97 227.54C133.628 227.824 134.092 227.848 134.609 228.296C134.772 228.437 135.329 228.92 135.3 229.556C135.268 230.236 134.581 230.69 134.295 230.879C132.629 231.976 130.243 231.592 129.27 231.446C129.27 231.446 124.996 230.799 120.663 230.69C116.324 230.581 114.269 231.355 113.376 230.06H113.374Z" fill="#FAFAFF"/>
<path d="M120.16 223.007C120.255 222.539 120.306 222.278 120.538 222.063C120.99 221.638 121.612 221.397 122.087 221.597C122.76 221.88 123.249 222.816 123.365 223.007C124.662 225.154 127.734 226.514 127.637 226.66C127.525 226.827 124.312 223.787 121.732 224.581C121.325 224.707 120.65 225.014 120.287 224.707C119.887 224.369 120.069 223.463 120.161 223.007H120.16Z" fill="#FAFAFF"/>
<path d="M111.951 183.648C112.084 181.701 111.53 179.772 110.386 178.193C105.948 172.064 96.0456 162.581 99.8049 141.828C98.8268 144.021 91.6552 145.823 91.449 148.189C90.6729 157.104 96.5612 165.316 98.2346 167.649C101.626 172.378 105.619 177.758 107.35 180.081C107.918 180.845 108.214 181.775 108.19 182.728C108.144 184.507 108.045 187.836 107.847 192.399C107.505 200.314 111.193 217.388 113.609 221.764C114.009 222.488 114.913 222.838 115.959 222.919C114.446 218.106 113.035 212.339 112.193 205.751C111.193 197.916 111.625 188.415 111.951 183.65V183.648Z" fill="#43406F"/>
<path d="M79.1042 131.185C76.3914 135.48 76.025 141.812 75.7115 147.244C75.6153 148.901 75.6474 150.679 75.7115 154.235C75.9288 166.362 76.6645 168.801 76.0891 174.262C75.7087 177.865 75.2517 178.11 73.6396 185.031C69.9151 201.017 72.1515 219.219 72.6029 220.321C73.7789 223.189 78.7991 222.49 79.0722 220.885C80.5366 212.328 81.3698 204.835 86.266 188.432C86.5294 187.552 87.7611 184.256 90.2245 177.663C95.5137 163.507 95.6098 164.071 97.952 157.448C103.655 141.312 100.931 144.053 105.302 132.886C106.995 128.56 107.845 127.024 106.998 125.518C104.134 120.425 85.1792 121.571 79.1042 131.186V131.185Z" fill="#43406F"/>
<path d="M70.758 227.917C71.0214 225.518 72.0427 223.489 72.0427 223.489C72.0427 223.489 73.0306 224.676 73.4514 225.084C73.4514 225.084 74.1397 225.753 75.0844 226.218C75.278 226.313 76.9445 227.116 77.4085 226.597C77.5868 226.397 77.4238 226.186 77.4085 225.274C77.3945 224.441 77.3848 223.869 77.722 223.511C78.0508 223.162 79.1864 222.821 80.1687 223.365C80.3178 223.447 81.7041 225.873 82.026 226.412C83.0153 228.072 85.887 229.534 86.8721 230.221C87.2246 230.467 87.3374 230.894 87.3346 231.195C87.3291 231.739 86.2005 232.135 85.827 232.266C83.9739 232.916 82.3312 232.633 78.728 232.14C77.4572 231.966 75.455 231.699 73.7022 231.07C73.7022 231.07 70.5713 229.621 70.758 227.919V227.917Z" fill="#FAFAFF"/>
<path d="M76.4444 184.535C77.3152 181.616 78.6598 177.906 79.4679 172.055C80.8571 161.995 79.0457 157.294 79.2896 148.165C79.4024 143.923 80.3374 136.534 83.0251 127.841C83.1227 127.524 83.2216 127.214 83.3205 126.906C81.6248 128.082 80.166 129.504 79.1042 131.186C76.3914 135.481 76.025 141.814 75.7115 147.246C75.6153 148.902 75.6474 150.68 75.7115 154.237C75.9288 166.363 76.6645 168.802 76.0891 174.263C75.7087 177.867 75.2517 178.111 73.6396 185.032C69.9151 201.018 72.1515 219.22 72.6029 220.322C73.0167 221.331 73.9043 221.897 74.895 222.138C72.2699 204.457 74.084 192.46 76.4471 184.535H76.4444Z" fill="#534F86"/>
<path d="M107.185 63.9454C106.144 64.8072 106.348 66.8116 105.259 74.4853C104.607 79.0807 101.145 77.5079 100.143 78.1295C98.7385 79.001 102.055 80.8447 103.738 81.9482C106.105 83.4986 110.941 89.3007 113.281 88.2154C117.305 86.3494 117.334 80.5682 116.693 79.9075C116.207 79.4061 115.599 79.6449 115.736 75.4561C115.801 73.4615 114.474 71.8301 114.05 70.1191C113.04 66.0336 108.915 62.5138 107.185 63.9468V63.9454Z" fill="#EB8E6C"/>
<path d="M103.479 77.4524C95.2755 78.1215 90.5256 80.6161 87.7598 82.8187C85.0706 84.96 84.0869 88.2968 83.2384 90.7537C82.2449 93.6296 81.016 104.582 78.3505 119.471C75.8843 133.243 75.2949 141.262 75.2949 141.262C81.8422 148.43 108.182 147.469 114.07 141.829C114.07 141.829 114.112 123.987 116.967 112.922C117.761 109.845 118.929 105.315 121.978 100.326C123.534 97.778 124.1 97.5363 124.911 95.539C127.244 89.7941 131.594 84.6862 128.852 83.5409C128.107 83.2294 122.455 81.1301 120.754 80.8605C118.03 80.4289 117.239 79.9247 116.298 79.5992C116.298 79.5992 116.18 81.1189 115.745 82.1874C115.199 83.5325 113.746 84.3398 112.689 84.58C109.929 85.2086 106.899 82.6428 105.479 80.2976C104.512 78.7011 103.803 77.4231 103.479 77.4496V77.4524Z" fill="#9DA2FF"/>
<path d="M131.781 74.5524C131.841 74.1934 132.107 73.6836 132.394 72.379C132.472 72.0256 132.524 71.7365 132.442 71.3873C132.312 70.8412 131.958 70.6037 131.64 70.2071C131.082 69.5087 130.963 68.7307 130.887 68.2237C130.692 66.9415 131.367 66.8618 131.5 65.0112C131.585 63.8169 131.36 63.0683 131.877 62.6492C132.047 62.5124 132.536 62.3657 133.102 64.6801C133.254 65.2989 133.328 65.609 133.526 65.6718C133.856 65.7766 134.331 65.2207 134.562 64.8687C135.058 64.1144 135.334 62.9258 134.986 61.7511C134.707 60.8111 134.144 60.2692 134.42 59.8152C134.56 59.5862 134.986 59.3431 134.986 59.3431C134.986 59.3431 134.891 58.4925 135.677 58.1252C136.064 57.9436 136.917 58.8696 136.917 58.8696C136.917 58.8696 137.456 58.6922 137.859 58.7286C138.342 58.7705 138.664 59.3264 138.99 59.9088C139.601 60.9997 139.885 61.8447 139.885 61.8447C139.885 61.8447 140.111 60.927 140.356 60.9005C140.625 60.8712 141.008 61.9145 141.204 62.8839C141.418 63.9329 141.415 64.905 141.299 65.954C141.14 67.3898 140.757 70.8594 139.085 72.0466C138.929 72.1569 138.512 72.4251 138.143 72.9447C137.714 73.5481 137.59 74.1473 137.53 74.456C136.948 77.4604 137.143 78.0373 136.729 78.3292C135.561 79.1533 131.486 76.3416 131.781 74.551V74.5524Z" fill="#EB8E6C"/>
<path d="M136.429 65.1049C136.323 65.4289 136.079 65.2907 136.18 65.0113C136.454 64.2417 136.578 63.3715 136.456 62.5754C136.346 61.8588 136.078 61.289 135.901 60.9118C135.709 60.5026 135.326 60.0054 135.071 59.6771C134.994 59.5779 134.927 59.4899 134.877 59.4215L134.981 59.2637C135.03 59.3307 135.937 60.3601 136.142 60.7973C136.326 61.1884 136.603 61.7792 136.719 62.5349C136.849 63.3771 136.747 64.1314 136.429 65.1049Z" fill="#C36252"/>
<path d="M137.726 65.4297C137.594 65.7356 137.382 65.5289 137.546 65.2035C137.921 64.4646 138.017 63.2299 137.98 62.8192C137.93 62.2703 137.854 61.7996 137.623 61.0188C137.461 60.4727 136.96 58.974 136.918 58.8706L137.096 58.8203C137.138 58.9223 137.712 60.3819 137.878 60.942C138.115 61.7437 138.191 62.2284 138.244 62.7941C138.302 63.4212 138.282 64.1461 137.726 65.4283V65.4297Z" fill="#C36252"/>
<path d="M139.683 65.4293C139.515 65.9629 139.282 65.8064 139.43 65.3497C139.88 63.953 139.876 62.045 139.832 61.6972L139.984 61.5156C140.033 61.9109 140.04 63.1317 140.019 63.5549C139.987 64.189 139.876 64.8203 139.683 65.4307V65.4293Z" fill="#C36252"/>
<path d="M108.347 85.0061C109.111 85.4111 110.761 86.2869 112.816 85.8748C113.044 85.8287 115.498 85.2994 116.617 83.2001C116.954 82.5673 117.038 82.0408 117.151 81.3284C117.213 80.9373 117.284 80.4862 117.36 80.0113C116.96 79.859 116.636 79.7166 116.296 79.5992C116.296 79.5992 116.178 81.1189 115.743 82.1874C115.197 83.5325 113.744 84.3398 112.688 84.58C109.927 85.2086 106.897 82.6428 105.477 80.2976C104.51 78.7011 103.801 77.4231 103.478 77.4496C103.004 77.4887 102.541 77.5334 102.09 77.5837C102.512 78.2807 103.085 79.1788 103.811 80.1901C105.672 82.7824 106.638 84.0968 108.346 85.0033L108.347 85.0061Z" fill="white"/>
<path d="M180.589 68.566C181.12 69.168 181.003 69.3524 181.58 70.1108C182.169 70.886 182.587 71.0802 182.501 71.3819C182.405 71.7185 181.747 71.9573 181.498 72.0481C181.204 72.1543 181.066 72.1515 181.014 72.2716C180.911 72.5076 181.365 72.7283 181.533 73.2535C181.705 73.7968 181.528 74.5357 181.102 74.7969C180.726 75.0274 180.397 74.7369 180.138 74.9813C179.845 75.2564 180.199 75.6852 179.9 76.2551C179.692 76.6504 179.3 76.8627 179.073 76.9856C178.807 77.1309 178.722 77.1127 178.359 77.2468C177.523 77.5555 177.491 77.8237 176.937 77.9578C176.323 78.1086 175.661 77.948 175.623 77.7497C175.584 77.5415 175.948 77.2859 176.044 76.8152C176.114 76.4716 176.139 76.2886 175.962 76.0777C175.689 75.7523 175.499 75.7188 174.722 75.1684C174.14 74.7564 174.053 74.6391 174.042 74.498C174.015 74.1432 174.498 73.9672 174.431 73.6977C174.368 73.4449 173.931 73.5314 173.582 73.1501C173.545 73.1096 173.189 72.7074 173.313 72.245C173.402 71.9168 173.706 71.6668 174.013 71.6067C174.595 71.4922 175.111 72.0746 175.23 71.9503C175.339 71.8386 174.872 71.4098 175.005 71.0145C175.104 70.7184 175.485 70.5997 175.639 70.5522C176.225 70.3706 176.752 70.5396 177.401 70.7575C179.326 71.4028 179.759 71.6067 179.994 71.3944C180.24 71.1737 180.106 70.6472 180.04 70.3888C179.784 69.3761 178.979 69.182 178.942 68.3397C178.94 68.2713 178.919 67.7894 179.161 67.6623C179.586 67.4402 180.502 68.464 180.589 68.5646V68.566Z" fill="#EB8E6C"/>
<path d="M175.143 71.6621C175.799 71.9037 176.545 72.2208 177.201 72.4876C177.726 72.6999 178.266 72.9094 178.783 73.1524C179.089 73.2963 179.09 73.5771 178.664 73.4248C178.129 73.2335 177.612 72.9751 177.09 72.7628C176.436 72.4974 175.788 72.2027 175.135 71.961L175.142 71.6621H175.143Z" fill="#C36252"/>
<path d="M174.374 73.6055C175.057 73.7214 176.229 74.0371 176.839 74.3136C177.045 74.4058 177.249 74.4924 177.436 74.5972C177.845 74.8276 177.725 74.9603 177.294 74.8067C177.094 74.7354 176.92 74.6754 176.718 74.5846C176.118 74.3136 175.05 74.0217 174.42 73.8262L174.373 73.6069L174.374 73.6055Z" fill="#C36252"/>
<path d="M114.862 109.475C113.774 109.556 112.718 109.555 111.688 109.488C110.481 109.409 109.315 109.239 108.184 108.997C103.835 108.07 100.016 106.099 96.5422 104.306C88.8175 100.315 85.2102 93.0898 84.664 93.6499C84.1066 94.2226 84.6027 100.561 92.0961 105.909C95.1155 108.064 98.4971 110.326 103.301 111.971C105.012 112.556 106.75 113.042 108.482 113.44C109.152 113.594 109.819 113.735 110.485 113.862C112.775 114.302 114.39 114.596 116.528 114.766C116.569 114.579 117.309 111.64 117.348 111.464C117.807 109.363 118.246 110.527 118.834 108.961C117.582 109.098 116.495 109.354 114.862 109.475Z" fill="#6068F0"/>
<path d="M102.382 84.5813C101.32 84.0058 99.5154 83.0476 96.9781 82.6915C95.5193 82.4861 92.8566 82.1132 90.0671 83.5728C87.4253 84.957 86.2187 87.175 85.7951 87.981C85.2629 88.9922 84.1384 91.1306 84.6637 93.649C84.9326 94.9382 85.5332 95.8419 86.0459 96.5458C89.3105 101.034 93.3331 103.725 93.3331 103.725C94.5621 104.548 99.8665 108.006 108.285 110.275C108.285 110.275 114.076 111.835 121.101 111.409C122.422 111.329 124.426 111.124 125.876 109.646C125.876 109.646 127.067 108.432 127.384 106.623C128.137 102.31 121.954 97.4691 115.95 92.7676C112.504 90.0705 109.129 88.2408 102.38 84.5813H102.382Z" fill="#7A81FD"/>
<path d="M130.935 74.3159C126.475 78.4726 117.892 99.822 117.585 101.712C117.403 102.832 116.295 104.602 116.957 106.498C117.606 108.358 121.98 110.918 122.551 110.926C128.516 111.014 134.328 96.6053 135.176 92.8955C137.581 82.3765 137.626 78.2841 137.344 76.1847C137.121 74.5268 132.394 72.9582 130.936 74.3173L130.935 74.3159Z" fill="#7A81FD"/>
<path d="M120.231 96.5381L119.939 96.2951C119.794 96.1749 105.484 84.3556 96.7592 82.9379C96.6157 82.9142 96.5181 82.7829 96.5376 82.639C96.5585 82.491 96.6951 82.3862 96.8428 82.4099C104.806 83.7005 116.892 93.1426 119.702 95.4123C119.844 95.5268 120.053 95.4682 120.117 95.2978C120.973 92.9764 123.782 85.4982 125.778 81.8233C125.849 81.6934 126.012 81.6473 126.142 81.7199C126.27 81.7912 126.315 81.9518 126.245 82.0817C123.897 86.4047 120.399 96.0828 120.362 96.1819L120.233 96.5395L120.231 96.5381Z" fill="#6F6FD8"/>
<path d="M123.244 100.745C123.107 100.789 122.96 100.715 122.913 100.578C122.602 99.7026 122.17 98.8799 121.627 98.1271C121.156 97.4748 120.606 96.8826 119.988 96.3644C119.877 96.2708 119.857 96.1074 119.948 95.9929C120.041 95.8755 120.213 95.856 120.328 95.951C120.98 96.4985 121.561 97.1228 122.059 97.8128C122.633 98.6076 123.088 99.4777 123.416 100.401C123.466 100.542 123.387 100.697 123.244 100.743V100.745Z" fill="#6F6FD8"/>
<path d="M106.797 66.5067C109.28 65.9732 115.881 71.4889 115.089 75.073C114.831 76.2407 117.976 75.1833 116.678 76.5969C115.692 77.6724 115.735 78.9085 116.295 79.5999C105.647 78.8093 106.747 68.4063 106.797 66.5067Z" fill="#C36252"/>
<path d="M121.74 59.8036C121.965 61.0649 122.009 62.1083 122.022 62.4658C122.073 63.9855 121.878 63.7466 121.924 65.3431C121.951 66.2678 122.025 66.6379 121.754 67.0849C121.473 67.5486 121.104 67.6254 120.844 68.1911C120.644 68.6297 120.667 69.011 120.666 69.2792C120.663 70.2332 120.344 70.9707 119.709 72.4386C119.119 73.8019 118.824 74.4821 118.194 75.1022C118.001 75.2922 117.662 75.5883 117.353 76.1177C117.027 76.6764 117.059 76.939 116.854 77.2505C116.344 78.0257 115.066 78.0368 114.676 78.0396C112.689 78.0578 111.106 76.425 110.058 75.3173C107.631 72.7487 106.752 69.9384 106.38 68.7009C105.828 66.867 105.703 65.4088 105.596 64.1433C105.438 62.3108 105.29 60.5844 105.8 58.4683C106.175 56.9151 118.742 52.9917 120.302 55.2516C121.151 56.4793 121.404 57.9152 121.74 59.8022V59.8036Z" fill="#EB8E6C"/>
<path d="M113.631 65.1742C114.233 65.1686 114.833 65.2314 115.42 65.3599C115.788 65.441 116.153 65.5485 116.508 65.6812C116.649 65.7343 116.717 65.8921 116.66 66.0318C116.606 66.1631 116.458 66.2287 116.326 66.1798C115.993 66.0555 115.651 65.9536 115.306 65.8781C114.758 65.758 114.195 65.6994 113.631 65.7049C113.489 65.7049 113.373 65.5932 113.367 65.4521C113.361 65.3013 113.482 65.177 113.631 65.1756V65.1742Z" fill="#49302A"/>
<path d="M121.701 66.84C121.296 66.5955 120.864 66.414 120.412 66.2966C120.128 66.2226 119.835 66.1751 119.539 66.1528C119.422 66.1444 119.307 66.2589 119.286 66.407C119.267 66.5467 119.339 66.664 119.449 66.6724C119.728 66.6919 120.001 66.738 120.267 66.8065C120.689 66.9154 121.095 67.0872 121.474 67.3163C121.569 67.3735 121.695 67.3191 121.76 67.1934C121.828 67.0607 121.8 66.9014 121.698 66.84H121.701Z" fill="#49302A"/>
<path d="M116.373 70.5236C116.407 70.4468 116.502 70.4105 116.587 70.4426C117.292 70.7052 117.802 70.7373 118.03 70.5278C118.217 70.3574 118.203 70.0473 118.175 69.4299C118.165 69.2078 118.153 68.9564 118.148 68.6589C118.139 68.0374 118.165 67.4116 118.225 66.7985C118.233 66.7119 118.318 66.6532 118.412 66.6658C118.504 66.6783 118.572 66.7565 118.564 66.8417C118.504 67.4451 118.479 68.0597 118.488 68.6701C118.493 68.9634 118.504 69.212 118.515 69.4327C118.547 70.1171 118.564 70.4943 118.277 70.7554C117.995 71.0111 117.521 71.046 116.868 70.8602C116.744 70.8253 116.614 70.782 116.478 70.7303C116.387 70.6968 116.34 70.6018 116.375 70.5208L116.373 70.5236Z" fill="#C36252"/>
<path d="M115.373 66.6903C115.635 66.7364 115.79 67.1065 115.719 67.5172C115.646 67.9278 115.376 68.2225 115.113 68.1764C114.851 68.1303 114.696 67.7602 114.767 67.3496C114.84 66.9389 115.11 66.6442 115.373 66.6903Z" fill="#49302A"/>
<path d="M119.899 67.4891C120.162 67.5352 120.315 67.9054 120.244 68.316C120.172 68.7266 119.902 69.0214 119.638 68.9753C119.376 68.9292 119.222 68.559 119.293 68.1484C119.365 67.7377 119.635 67.443 119.899 67.4891Z" fill="#49302A"/>
<path d="M114.682 72.3604L115.505 72.6174C116.139 72.8144 116.797 72.9303 117.459 72.9596L117.917 72.9806C118.116 72.989 118.228 73.2083 118.111 73.3577C117.765 73.7963 117.117 74.2977 116.247 74.1329C115.37 73.9681 114.537 73.1845 114.375 72.6454C114.321 72.4652 114.495 72.3032 114.682 72.3618V72.3604Z" fill="white"/>
<path d="M113.409 68.3114C114.08 68.5195 114.517 69.0293 114.387 69.4497C114.258 69.8701 113.609 70.0405 112.938 69.8324C112.268 69.6243 111.831 69.1145 111.96 68.6941C112.09 68.2736 112.739 68.1032 113.409 68.3114Z" fill="#DD8064"/>
<path d="M122.021 62.4649C121.756 62.7792 121.95 60.3908 117.02 59.6742C108.715 58.4674 110.224 64.2374 109.747 63.8785C107.493 62.1842 106.984 63.655 106.934 64.2165C106.813 65.5406 107.286 66.5267 108.224 68.4123C109.087 70.1485 110.171 71.4963 111.78 72.3889C112.543 72.8135 113.279 74.227 115.539 74.7047C116.818 74.9743 117.756 74.5929 118.612 73.7703C119.346 73.0649 119.11 72.9099 119.346 73.0649C119.531 73.1864 118.797 76.473 118.568 77.0875C118.053 78.4787 116.074 81.1675 108.352 74.4491C107.142 73.3959 105.757 72.0592 105.45 71.1569C105.33 70.8036 105.007 70.6178 104.376 68.6065C104.032 67.5058 101.866 62.1004 106.102 56.4687C109.177 52.3804 121.443 52.2658 123.051 57.4324C123.512 58.913 123.467 60.7497 122.025 62.4649H122.021Z" fill="#090F51"/>
<path d="M111.857 74.4455C111.5 73.5585 112.512 72.476 112.59 72.395C113.054 71.9103 114.516 69.8962 118.405 71.7511C119.529 72.2875 119.58 73.1032 119.206 73.8714C118.981 74.3337 118.775 75.2751 118.607 75.1536C118.438 75.0321 118.077 74.627 118.314 74.0306C119.157 71.9048 114.576 71.6715 114.113 72.5277C113.599 73.4775 113.921 74.0809 114.571 74.4161C114.867 74.5684 112.01 74.8282 111.857 74.4455Z" fill="#090F51"/>
<path d="M107.651 63.5585C108.411 63.4845 108.946 64.5139 108.973 64.5683C109.756 66.1243 108.916 69.3131 108.02 69.4095C107.763 69.4374 107.582 68.9528 107.301 68.6078C106.695 67.8647 106.05 66.4973 106.287 65.3715C106.431 64.6815 106.919 63.6297 107.651 63.5585Z" fill="#EB8E6C"/>
<path d="M107.848 67.4043C107.873 67.442 107.888 67.4658 107.888 67.4686C107.888 67.4686 107.871 67.442 107.848 67.4043Z" fill="#C36252"/>
<path d="M108.31 65.2923C108.561 65.4194 108.732 65.6904 108.777 66.0144C108.794 66.1331 108.705 66.2421 108.596 66.2407C108.514 66.2407 108.45 66.1708 108.437 66.0814C108.408 65.8789 108.306 65.7127 108.158 65.6373C107.955 65.5339 107.697 65.6275 107.573 65.7728C107.439 65.9306 107.41 66.2365 107.49 66.6108C107.55 66.886 107.678 67.1304 107.772 67.2882C107.703 67.1765 107.65 67.0927 107.777 67.2952C107.798 67.3287 107.816 67.3595 107.832 67.3846C107.849 67.4112 107.866 67.4377 107.887 67.4698C108.133 67.8637 107.86 67.8483 107.835 67.8442C107.604 67.8023 107.419 67.4559 107.325 67.238C107.098 66.7142 106.963 65.9516 107.327 65.5214C107.534 65.2755 107.951 65.1121 108.31 65.2951V65.2923Z" fill="#C36252"/>
<path d="M107.833 67.3835C107.812 67.3486 107.793 67.3192 107.778 67.2941C107.778 67.2927 107.775 67.2899 107.773 67.2871C107.799 67.3276 107.825 67.3695 107.846 67.403C107.842 67.3961 107.838 67.3905 107.832 67.3821L107.833 67.3835Z" fill="#C36252"/>
<path d="M106.67 64.2688C106.46 64.6096 106.213 65.1949 106.227 66.0441C106.247 67.2299 106.751 68.3068 107.221 68.5694C107.221 68.575 107.223 68.5806 107.223 68.5862C107.268 68.8167 107.385 69.427 107.942 69.5276C108.37 69.6044 108.536 69.2999 108.619 69.0332C108.653 68.927 108.599 68.8167 108.502 68.7915C108.415 68.7692 108.326 68.8278 108.296 68.9228C108.225 69.1533 108.157 69.1798 108.011 69.1533C107.715 69.1002 107.62 68.8055 107.561 68.494C107.538 68.3795 107.52 68.2803 107.418 68.244C107.09 68.1267 106.589 67.1406 106.571 66.0218C106.562 65.4211 106.69 64.8988 106.953 64.4714C107.058 64.3023 107.2 64.0719 107.453 63.9797C107.724 63.8819 107.969 63.9951 108.075 64.0439C108.445 64.2144 108.636 64.5719 108.727 64.8164C108.76 64.9043 108.849 64.9476 108.933 64.9155C109.029 64.8792 109.081 64.7605 109.043 64.6585C108.93 64.3568 108.689 63.9113 108.215 63.6934C108.089 63.6347 107.75 63.4783 107.357 63.6207C106.986 63.7548 106.79 64.0747 106.672 64.2674L106.67 64.2688Z" fill="#C36252"/>
<path d="M108.715 66.1852C108.728 66.2439 108.546 66.2844 108.385 66.4688C108.071 66.8263 108.151 67.3543 108.081 67.3571C108.029 67.3599 107.954 67.068 107.993 66.7733C108.011 66.6378 108.048 66.3626 108.247 66.2188C108.436 66.0819 108.701 66.1168 108.715 66.1852Z" fill="#C36252"/>
<path d="M227.2 79.5108C233.382 73.3143 233.382 63.2678 227.2 57.0713C221.019 50.8748 210.997 50.8748 204.815 57.0713C198.634 63.2678 198.634 73.3143 204.815 79.5108C210.997 85.7073 221.019 85.7073 227.2 79.5108Z" fill="#6068F0"/>
<path d="M224.811 74.1237L218.423 68.2476L224.719 62.4567C225.384 61.8449 225.429 60.8099 224.818 60.1436C224.21 59.4774 223.176 59.4327 222.511 60.0445L216.005 66.0268L209.501 60.0445C208.837 59.4341 207.804 59.4774 207.194 60.1436C206.585 60.8099 206.628 61.8449 207.293 62.4567L213.589 68.2476L207.201 74.1237C206.536 74.7355 206.492 75.7705 207.102 76.4368C207.712 77.103 208.745 77.1477 209.409 76.5359L216.007 70.4698L222.603 76.5359C223.268 77.1463 224.3 77.103 224.91 76.4368C225.519 75.7705 225.476 74.7355 224.811 74.1237Z" fill="white"/>
</g>
<defs>
<clipPath id="clip0_5875_4318">
<rect width="334" height="242" fill="white"/>
</clipPath>
</defs>
</svg>
