<svg width="35" height="35" viewBox="0 0 35 35" fill="none" xmlns="http://www.w3.org/2000/svg">
<rect width="35" height="35" rx="8" fill="#7A81FD"/>
<path d="M24.6667 11.1667C24.8877 11.1667 25.0996 11.2545 25.2559 11.4108C25.4122 11.5671 25.5 11.7791 25.5 12.0001C25.5 12.2211 25.4122 12.4331 25.2559 12.5893C25.0996 12.7456 24.8877 12.8334 24.6667 12.8334H23.8333L23.8308 12.8926L23.0533 23.7851C23.0234 24.2056 22.8352 24.5991 22.5268 24.8864C22.2183 25.1737 21.8124 25.3334 21.3908 25.3334H14.6083C14.1868 25.3334 13.7809 25.1737 13.4724 24.8864C13.1639 24.5991 12.9758 24.2056 12.9458 23.7851L12.1683 12.8934C12.1671 12.8734 12.1665 12.8534 12.1667 12.8334H11.3333C11.1123 12.8334 10.9004 12.7456 10.7441 12.5893C10.5878 12.4331 10.5 12.2211 10.5 12.0001C10.5 11.7791 10.5878 11.5671 10.7441 11.4108C10.9004 11.2545 11.1123 11.1667 11.3333 11.1667H24.6667ZM22.1642 12.8334H13.8358L14.6092 23.6667H21.3908L22.1642 12.8334ZM19.6667 8.66675C19.8877 8.66675 20.0996 8.75455 20.2559 8.91083C20.4122 9.06711 20.5 9.27907 20.5 9.50008C20.5 9.7211 20.4122 9.93306 20.2559 10.0893C20.0996 10.2456 19.8877 10.3334 19.6667 10.3334H16.3333C16.1123 10.3334 15.9004 10.2456 15.7441 10.0893C15.5878 9.93306 15.5 9.7211 15.5 9.50008C15.5 9.27907 15.5878 9.06711 15.7441 8.91083C15.9004 8.75455 16.1123 8.66675 16.3333 8.66675H19.6667Z" fill="white"/>
</svg>
