<svg width="35" height="35" viewBox="0 0 35 35" fill="none" xmlns="http://www.w3.org/2000/svg">
<rect width="35" height="35" rx="8" fill="#7A81FD"/>
<path d="M26.375 18.4688V23.0625C26.375 23.4106 26.2367 23.7444 25.9906 23.9906C25.7444 24.2367 25.4106 24.375 25.0625 24.375H11.9375C11.5894 24.375 11.2556 24.2367 11.0094 23.9906C10.7633 23.7444 10.625 23.4106 10.625 23.0625V18.4688C10.625 18.2947 10.6941 18.1278 10.8172 18.0047C10.9403 17.8816 11.1072 17.8125 11.2812 17.8125C11.4553 17.8125 11.6222 17.8816 11.7453 18.0047C11.8684 18.1278 11.9375 18.2947 11.9375 18.4688V23.0625H25.0625V18.4688C25.0625 18.2947 25.1316 18.1278 25.2547 18.0047C25.3778 17.8816 25.5447 17.8125 25.7188 17.8125C25.8928 17.8125 26.0597 17.8816 26.1828 18.0047C26.3059 18.1278 26.375 18.2947 26.375 18.4688ZM18.0357 18.933C18.0967 18.9941 18.169 19.0425 18.2487 19.0755C18.3284 19.1085 18.4138 19.1255 18.5 19.1255C18.5862 19.1255 18.6716 19.1085 18.7513 19.0755C18.831 19.0425 18.9033 18.9941 18.9643 18.933L22.2455 15.6518C22.3065 15.5908 22.3549 15.5184 22.3879 15.4388C22.4209 15.3591 22.4379 15.2737 22.4379 15.1875C22.4379 15.1013 22.4209 15.0159 22.3879 14.9362C22.3549 14.8566 22.3065 14.7842 22.2455 14.7232C22.1846 14.6622 22.1122 14.6139 22.0325 14.5809C21.9529 14.5479 21.8675 14.5309 21.7812 14.5309C21.695 14.5309 21.6096 14.5479 21.53 14.5809C21.4503 14.6139 21.3779 14.6622 21.317 14.7232L19.1562 16.8847V9.28125C19.1562 9.1072 19.0871 8.94028 18.964 8.81721C18.841 8.69414 18.674 8.625 18.5 8.625C18.326 8.625 18.159 8.69414 18.036 8.81721C17.9129 8.94028 17.8438 9.1072 17.8438 9.28125V16.8847L15.683 14.7232C15.5599 14.6001 15.3929 14.5309 15.2188 14.5309C15.0446 14.5309 14.8776 14.6001 14.7545 14.7232C14.6313 14.8463 14.5621 15.0134 14.5621 15.1875C14.5621 15.3616 14.6313 15.5287 14.7545 15.6518L18.0357 18.933Z" fill="white"/>
</svg>
