<svg width="80" height="80" viewBox="0 0 80 80" fill="none" xmlns="http://www.w3.org/2000/svg">
<path fill-rule="evenodd" clip-rule="evenodd" d="M80 22.3263V57.6694C80 70.7642 71.8093 80 58.7216 80H21.2351C8.14735 80 0 70.7642 0 57.6694V22.3263C0 9.23144 8.19068 0 21.2351 0H58.7216C71.8093 0 80 9.23144 80 22.3263Z" fill="white"/>
<path d="M40.2331 45.5859L40.2331 22.5073" stroke="#7A81FD" stroke-width="3.5" stroke-linecap="round" stroke-linejoin="round"/>
<path d="M45.8223 39.9744L40.2333 45.5864L34.6443 39.9744" stroke="#7A81FD" stroke-width="3.5" stroke-linecap="round" stroke-linejoin="round"/>
<path opacity="0.4" d="M49.1136 31.5786H50.9019C54.8023 31.5786 57.9629 34.7392 57.9629 38.6415V48.0025C57.9629 51.8934 54.81 55.0463 50.9191 55.0463H29.5675C25.6671 55.0463 22.5046 51.8838 22.5046 47.9834V38.6204C22.5046 34.7315 25.6594 31.5786 29.5483 31.5786H31.3538" stroke="#7A81FD" stroke-width="3.5" stroke-linecap="round" stroke-linejoin="round"/>
</svg>
