<svg width="20" height="20" viewBox="0 0 20 20" fill="none" xmlns="http://www.w3.org/2000/svg">
<path d="M15.5 2.5H7.5L13.5 17.5H17V2.5H15.5Z" fill="#7A81FD" stroke="black"/>
<path d="M16.48 1.63429H9.46603L9.44531 1.58018C9.31062 1.23081 8.97448 1 8.59978 1H4.44815C3.66134 1 3 1.6245 3 2.41131V17.5881C3 18.3738 3.66076 19 4.44815 19H15.2465C15.4163 19 15.5746 18.916 15.6702 18.7773C15.7657 18.638 15.787 18.4601 15.7277 18.303H16.4806C17.2087 18.303 17.7676 17.7153 17.7676 16.9878V2.95408C17.767 2.22655 17.2075 1.63429 16.48 1.63429ZM16.3102 16.7823H15.1648L14.523 15.0861C14.8736 15.0222 15.1378 14.724 15.1378 14.3551C15.1378 13.939 14.8016 13.6132 14.3843 13.6132H13.9647L13.4398 12.2191H14.5121C14.9282 12.2191 15.2644 11.8738 15.2644 11.4582C15.2644 11.0427 14.9282 10.6985 14.5121 10.6985H12.8775L12.3525 9.30384H14.5121C14.9282 9.30384 15.2644 8.99015 15.2644 8.57516C15.2644 8.15902 14.9282 7.84533 14.5121 7.84533H11.7902L11.2653 6.45186H14.5121C14.9282 6.45186 15.2644 6.10651 15.2644 5.69095C15.2644 5.27596 14.9282 4.93119 14.5121 4.93119H10.7035L10.0278 3.15611H16.3096L16.3102 16.7823Z" fill="#383A51"/>
</svg>
