<svg width="15" height="18" viewBox="0 0 15 18" fill="none" xmlns="http://www.w3.org/2000/svg">
<path d="M12.5 1.5H4.5L10.5 16.5H14V1.5H12.5Z" fill="#7A81FD" stroke="black"/>
<path d="M13.48 0.634285H6.46603L6.44531 0.580181C6.31062 0.230806 5.97448 0 5.59978 0H1.44815C0.661337 0 0 0.6245 0 1.41131V16.5881C0 17.3738 0.660762 18 1.44815 18H12.2465C12.4163 18 12.5746 17.916 12.6702 17.7773C12.7657 17.638 12.787 17.4601 12.7277 17.303H13.4806C14.2087 17.303 14.7676 16.7153 14.7676 15.9878V1.95408C14.767 1.22655 14.2075 0.634285 13.48 0.634285ZM13.3102 15.7823H12.1648L11.523 14.0861C11.8736 14.0222 12.1378 13.724 12.1378 13.3551C12.1378 12.939 11.8016 12.6132 11.3843 12.6132H10.9647L10.4398 11.2191H11.5121C11.9282 11.2191 12.2644 10.8738 12.2644 10.4582C12.2644 10.0427 11.9282 9.69846 11.5121 9.69846H9.87747L9.35254 8.30384H11.5121C11.9282 8.30384 12.2644 7.99015 12.2644 7.57516C12.2644 7.15902 11.9282 6.84533 11.5121 6.84533H8.7902L8.26528 5.45186H11.5121C11.9282 5.45186 12.2644 5.10651 12.2644 4.69095C12.2644 4.27596 11.9282 3.93119 11.5121 3.93119H7.70352L7.02779 2.15611H13.3096L13.3102 15.7823Z" fill="white"/>
</svg>
