<svg width="20" height="20" viewBox="0 0 20 20" fill="none" xmlns="http://www.w3.org/2000/svg">
<path d="M20 13.3599V13.652C19.7766 18.2622 14.682 20.8778 10.8387 18.2798C10.8282 18.2729 10.8159 18.2692 10.8031 18.2692C7.83203 18.2695 4.86081 18.2695 1.88945 18.2692C1.60469 18.2692 1.37813 18.2103 1.37773 17.888C1.37747 17.564 1.37708 17.239 1.37656 16.913C1.37656 16.8997 1.36992 16.8931 1.35664 16.8931C1.03659 16.892 0.717969 16.8911 0.400781 16.8903C0.169271 16.8895 0.0356771 16.7787 0 16.5579V2.02666C0.0832031 1.33252 0.533594 1.02783 1.18906 1.03213C1.47292 1.03395 1.75677 1.03395 2.04063 1.03213C2.05495 1.03213 2.06302 1.02497 2.06484 1.01064C2.1237 0.513507 2.36146 0.195798 2.77813 0.0575171C3.44727 -0.164358 4.11016 0.312595 4.13281 1.00556C4.13302 1.01289 4.13607 1.01984 4.14132 1.02495C4.14657 1.03005 4.15361 1.03291 4.16094 1.03291H5.47813C5.48958 1.03293 5.50061 1.02857 5.50896 1.02073C5.51731 1.01289 5.52235 1.00215 5.52305 0.99072C5.55039 0.516111 5.88008 0.10322 6.35781 0.0168921C6.96758 -0.0932641 7.55586 0.347361 7.57969 0.987986C7.58073 1.01793 7.59622 1.03291 7.62617 1.03291H8.94453C8.95625 1.03291 8.96263 1.02705 8.96367 1.01533C9.00013 0.62158 9.16393 0.335903 9.45508 0.158298C10.1414 -0.260842 10.9961 0.202048 11.0281 0.998923C11.0285 1.00808 11.0325 1.01672 11.0391 1.02305C11.0457 1.02939 11.0545 1.03292 11.0637 1.03291H12.3906C12.3982 1.03291 12.4055 1.02992 12.4109 1.02458C12.4163 1.01924 12.4194 1.01199 12.4195 1.00439C12.4336 0.224314 13.2852 -0.243655 13.9547 0.133298C14.2617 0.305955 14.4707 0.638377 14.475 1.00166C14.4751 1.00991 14.4784 1.0178 14.4843 1.02364C14.4901 1.02948 14.498 1.03281 14.5062 1.03291C14.8333 1.03317 15.1639 1.0333 15.498 1.0333C15.9445 1.0333 16.3668 1.31455 16.5 1.74658C16.5344 1.8583 16.5517 2.05661 16.552 2.3415C16.553 4.25504 16.5531 6.16872 16.5523 8.08252C16.5524 8.08855 16.554 8.09448 16.5571 8.0997C16.5602 8.10491 16.5646 8.10923 16.5699 8.1122C16.673 8.17054 16.7757 8.2264 16.8777 8.27978C18.7953 9.28135 19.9355 11.2087 20 13.3599ZM2.79414 2.06728H3.41445C3.42347 2.06728 3.43211 2.0637 3.43848 2.05733C3.44486 2.05096 3.44844 2.04231 3.44844 2.0333V1.05049C3.44844 0.955277 3.41271 0.863968 3.34913 0.796646C3.28554 0.729323 3.1993 0.691501 3.10938 0.691501H3.09922C3.05469 0.691501 3.0106 0.700787 2.96947 0.718828C2.92833 0.736868 2.89095 0.763311 2.85947 0.796646C2.82798 0.82998 2.80301 0.869555 2.78597 0.913109C2.76893 0.956662 2.76016 1.00334 2.76016 1.05049V2.0333C2.76016 2.04231 2.76374 2.05096 2.77011 2.05733C2.77648 2.0637 2.78513 2.06728 2.79414 2.06728ZM6.24023 2.0665L6.86758 2.06572C6.87141 2.06572 6.8752 2.06496 6.87873 2.06348C6.88226 2.06201 6.88547 2.05984 6.88816 2.05712C6.89085 2.05439 6.89297 2.05116 6.8944 2.04761C6.89583 2.04405 6.89654 2.04025 6.89648 2.03642L6.89492 1.04306C6.89471 0.949516 6.85879 0.859881 6.79505 0.793878C6.73132 0.727874 6.645 0.690908 6.55508 0.691111H6.54805C6.50352 0.691211 6.45945 0.700435 6.41835 0.718255C6.37725 0.736075 6.33993 0.762143 6.30852 0.79497C6.2771 0.827798 6.25221 0.866741 6.23527 0.909577C6.21833 0.952413 6.20966 0.998303 6.20977 1.04463L6.21133 2.03799C6.21143 2.04558 6.21452 2.05284 6.21993 2.05817C6.22534 2.06351 6.23264 2.0665 6.24023 2.0665ZM10.2906 2.06064C10.2984 2.06845 10.3086 2.0708 10.3211 2.06767C10.3341 2.06455 10.3408 2.05622 10.341 2.04267C10.3431 1.72158 10.343 1.40023 10.3406 1.07861C10.3379 0.70283 9.89375 0.525876 9.71016 0.857517C9.67474 0.921319 9.65729 1.02249 9.65781 1.16103C9.65859 1.44671 9.65807 1.7402 9.65625 2.0415C9.6562 2.04484 9.6568 2.04815 9.65803 2.05125C9.65926 2.05435 9.66109 2.05718 9.66341 2.05957C9.66573 2.06196 9.6685 2.06388 9.67156 2.0652C9.67462 2.06652 9.67792 2.06723 9.68125 2.06728C9.88281 2.07067 10.0859 2.06845 10.2906 2.06064ZM13.127 2.06455H13.7684C13.7745 2.06455 13.7803 2.06212 13.7847 2.0578C13.789 2.05348 13.7914 2.04761 13.7914 2.0415V1.0501C13.7914 0.954887 13.7556 0.863578 13.692 0.796255C13.6283 0.728932 13.542 0.691111 13.452 0.691111H13.4434C13.3533 0.691111 13.267 0.728932 13.2033 0.796255C13.1397 0.863578 13.1039 0.954887 13.1039 1.0501V2.0415C13.1039 2.04761 13.1063 2.05348 13.1107 2.0578C13.115 2.06212 13.1208 2.06455 13.127 2.06455ZM9.13203 2.69736C8.88516 2.56025 8.96758 1.99306 8.96289 1.74228C8.96263 1.7251 8.95391 1.7165 8.93672 1.7165H7.61563C7.60865 1.7165 7.60195 1.71929 7.59698 1.72426C7.59201 1.72923 7.58917 1.73598 7.58906 1.74306C7.58672 1.9178 7.58607 2.09228 7.58711 2.2665C7.58906 2.65635 7.46016 2.75166 7.06836 2.75166C6.6944 2.75192 6.32018 2.75166 5.9457 2.75088C5.59063 2.75049 5.51758 2.57822 5.51875 2.24189C5.51927 2.07731 5.51849 1.91103 5.51641 1.74306C5.51641 1.73602 5.51361 1.72926 5.50863 1.72428C5.50364 1.7193 5.49689 1.7165 5.48984 1.7165H4.16836C4.15013 1.7165 4.14102 1.72562 4.14102 1.74385C4.13984 2.0497 4.26719 2.75127 3.76992 2.75166C3.34961 2.75218 2.92943 2.75192 2.50937 2.75088C2.15469 2.7501 2.0707 2.59697 2.07031 2.25244C2.07031 2.08239 2.07031 1.9139 2.07031 1.74697C2.07031 1.73899 2.06718 1.73134 2.06162 1.7257C2.05605 1.72006 2.0485 1.71689 2.04063 1.71689C1.76875 1.71585 1.49466 1.71598 1.21836 1.71728C0.891406 1.71845 0.694922 1.77353 0.69375 2.13681C0.692187 2.67874 0.692318 3.22249 0.694141 3.76806C0.694141 3.78056 0.700521 3.78681 0.713281 3.78681H15.8461C15.8498 3.78681 15.8534 3.78537 15.856 3.78281C15.8587 3.78025 15.8602 3.77677 15.8602 3.77314C15.8596 3.24476 15.8594 2.72523 15.8594 2.21455C15.8594 1.93994 15.7965 1.71924 15.4879 1.71767C15.1603 1.71585 14.8341 1.71572 14.5094 1.71728C14.5021 1.71728 14.4952 1.72016 14.49 1.72529C14.4849 1.73042 14.482 1.73737 14.482 1.74463C14.4828 1.90843 14.4828 2.07379 14.482 2.24072C14.4809 2.55556 14.4207 2.75088 14.0719 2.75127C13.6846 2.75179 13.2974 2.75179 12.9102 2.75127C12.757 2.75127 12.6492 2.73499 12.5867 2.70244C12.332 2.57041 12.4145 1.99385 12.4105 1.74267C12.4103 1.72523 12.4014 1.7165 12.384 1.7165H11.0629C11.0449 1.7165 11.0359 1.72549 11.0359 1.74345C11.0344 1.96689 11.0816 2.40713 10.9785 2.58369C10.9121 2.69801 10.7975 2.75504 10.6348 2.75478C10.2421 2.75426 9.84922 2.75283 9.45625 2.75049C9.30234 2.74944 9.19427 2.73174 9.13203 2.69736ZM15.8461 4.48017H0.716406C0.701042 4.48017 0.693359 4.48799 0.693359 4.50361V16.1806C0.693359 16.1928 0.699479 16.1989 0.711719 16.1989H8.93633C8.95586 16.1989 8.9612 16.1902 8.95234 16.1728C8.24974 14.7863 8.09635 13.3548 8.49219 11.8782C8.92578 10.2618 10.0961 8.87197 11.6074 8.15869C12.9566 7.52197 14.3673 7.4139 15.8395 7.83447C15.8527 7.83838 15.8594 7.83343 15.8594 7.81963V4.49345C15.8594 4.4846 15.8549 4.48017 15.8461 4.48017ZM19.3047 13.4438C19.3047 12.0734 18.7603 10.7591 17.7913 9.79009C16.8222 8.82106 15.5079 8.27666 14.1375 8.27666C12.7671 8.27666 11.4528 8.82106 10.4837 9.79009C9.51471 10.7591 8.97031 12.0734 8.97031 13.4438C8.97031 14.8143 9.51471 16.1286 10.4837 17.0976C10.9636 17.5774 11.5332 17.958 12.1601 18.2177C12.787 18.4774 13.4589 18.611 14.1375 18.611C15.5079 18.611 16.8222 18.0666 17.7913 17.0976C18.7603 16.1286 19.3047 14.8143 19.3047 13.4438ZM9.93555 17.5185C9.75117 17.3257 9.58021 17.1221 9.42266 16.9075C9.41926 16.9028 9.41483 16.8989 9.40973 16.8963C9.40464 16.8937 9.39903 16.8923 9.39336 16.8923H2.08867C2.0838 16.8923 2.07913 16.8942 2.07569 16.8977C2.07225 16.9011 2.07031 16.9058 2.07031 16.9106V17.5571C2.07031 17.5691 2.0763 17.5751 2.08828 17.5751L9.95664 17.5786C9.95925 17.5786 9.96182 17.578 9.96412 17.5768C9.96642 17.5756 9.96837 17.5738 9.96981 17.5716C9.97125 17.5694 9.97212 17.5669 9.97234 17.5643C9.97256 17.5617 9.97214 17.5591 9.97109 17.5567C9.96719 17.5474 9.96055 17.5392 9.95117 17.5321C9.9457 17.528 9.9405 17.5234 9.93555 17.5185Z" fill="black"/>
<path d="M4.13281 6.89111C4.13281 7.1641 4.02437 7.42591 3.83134 7.61894C3.63831 7.81197 3.3765 7.92041 3.10352 7.92041C2.83053 7.92041 2.56872 7.81197 2.37569 7.61894C2.18266 7.42591 2.07422 7.1641 2.07422 6.89111C2.07422 6.61813 2.18266 6.35632 2.37569 6.16329C2.56872 5.97026 2.83053 5.86182 3.10352 5.86182C3.3765 5.86182 3.63831 5.97026 3.83134 6.16329C4.02437 6.35632 4.13281 6.61813 4.13281 6.89111ZM3.44258 6.89111C3.44258 6.80129 3.4069 6.71515 3.34338 6.65164C3.27987 6.58812 3.19373 6.55244 3.10391 6.55244C3.01408 6.55244 2.92794 6.58812 2.86443 6.65164C2.80092 6.71515 2.76523 6.80129 2.76523 6.89111C2.76523 6.93559 2.77399 6.97963 2.79101 7.02072C2.80803 7.06181 2.83298 7.09914 2.86443 7.13059C2.89588 7.16204 2.93321 7.18699 2.9743 7.20401C3.01539 7.22103 3.05943 7.22978 3.10391 7.22978C3.14838 7.22978 3.19242 7.22103 3.23351 7.20401C3.2746 7.18699 3.31193 7.16204 3.34338 7.13059C3.37483 7.09914 3.39978 7.06181 3.4168 7.02072C3.43382 6.97963 3.44258 6.93559 3.44258 6.89111Z" fill="black"/>
<path d="M7.58203 6.89111C7.58203 7.1641 7.47359 7.42591 7.28056 7.61894C7.08753 7.81197 6.82572 7.92041 6.55273 7.92041C6.27975 7.92041 6.01794 7.81197 5.82491 7.61894C5.63188 7.42591 5.52344 7.1641 5.52344 6.89111C5.52344 6.61813 5.63188 6.35632 5.82491 6.16329C6.01794 5.97026 6.27975 5.86182 6.55273 5.86182C6.82572 5.86182 7.08753 5.97026 7.28056 6.16329C7.47359 6.35632 7.58203 6.61813 7.58203 6.89111ZM6.89219 6.89111C6.89219 6.80119 6.85647 6.71495 6.79288 6.65136C6.72929 6.58777 6.64305 6.55205 6.55313 6.55205C6.4632 6.55205 6.37696 6.58777 6.31337 6.65136C6.24979 6.71495 6.21406 6.80119 6.21406 6.89111C6.21406 6.98104 6.24979 7.06728 6.31337 7.13087C6.37696 7.19445 6.4632 7.23018 6.55313 7.23018C6.64305 7.23018 6.72929 7.19445 6.79288 7.13087C6.85647 7.06728 6.89219 6.98104 6.89219 6.89111Z" fill="black"/>
<path d="M11.0273 6.89111C11.0273 7.1641 10.9189 7.42591 10.7259 7.61894C10.5328 7.81197 10.271 7.92041 9.99805 7.92041C9.72506 7.92041 9.46325 7.81197 9.27022 7.61894C9.07719 7.42591 8.96875 7.1641 8.96875 6.89111C8.96875 6.61813 9.07719 6.35632 9.27022 6.16329C9.46325 5.97026 9.72506 5.86182 9.99805 5.86182C10.271 5.86182 10.5328 5.97026 10.7259 6.16329C10.9189 6.35632 11.0273 6.61813 11.0273 6.89111ZM10.3375 6.89111C10.3375 6.80119 10.3018 6.71495 10.2382 6.65136C10.1746 6.58777 10.0884 6.55205 9.99844 6.55205C9.90851 6.55205 9.82227 6.58777 9.75868 6.65136C9.6951 6.71495 9.65938 6.80119 9.65938 6.89111C9.65938 6.98104 9.6951 7.06728 9.75868 7.13087C9.82227 7.19445 9.90851 7.23018 9.99844 7.23018C10.0884 7.23018 10.1746 7.19445 10.2382 7.13087C10.3018 7.06728 10.3375 6.98104 10.3375 6.89111Z" fill="black"/>
<path d="M4.13281 9.64941C4.13281 9.9224 4.02437 10.1842 3.83134 10.3772C3.63831 10.5703 3.3765 10.6787 3.10352 10.6787C2.83053 10.6787 2.56872 10.5703 2.37569 10.3772C2.18266 10.1842 2.07422 9.9224 2.07422 9.64941C2.07422 9.37643 2.18266 9.11462 2.37569 8.92159C2.56872 8.72856 2.83053 8.62012 3.10352 8.62012C3.3765 8.62012 3.63831 8.72856 3.83134 8.92159C4.02437 9.11462 4.13281 9.37643 4.13281 9.64941ZM3.44297 9.6498C3.44297 9.60533 3.43421 9.56129 3.41719 9.5202C3.40017 9.47911 3.37522 9.44178 3.34377 9.41033C3.31233 9.37888 3.27499 9.35393 3.2339 9.33691C3.19281 9.31989 3.14877 9.31113 3.1043 9.31113C3.05982 9.31113 3.01578 9.31989 2.97469 9.33691C2.9336 9.35393 2.89627 9.37888 2.86482 9.41033C2.83337 9.44178 2.80842 9.47911 2.7914 9.5202C2.77438 9.56129 2.76563 9.60533 2.76563 9.6498C2.76563 9.73963 2.80131 9.82577 2.86482 9.88928C2.92833 9.9528 3.01448 9.98848 3.1043 9.98848C3.19412 9.98848 3.28026 9.9528 3.34377 9.88928C3.40729 9.82577 3.44297 9.73963 3.44297 9.6498Z" fill="black"/>
<path d="M7.58125 9.64951C7.58125 9.78463 7.55464 9.91842 7.50293 10.0433C7.45122 10.1681 7.37543 10.2815 7.27989 10.3771C7.18435 10.4726 7.07092 10.5484 6.94609 10.6001C6.82126 10.6518 6.68746 10.6784 6.55234 10.6784C6.27946 10.6784 6.01775 10.57 5.8248 10.3771C5.63184 10.1841 5.52344 9.92239 5.52344 9.64951C5.52344 9.37663 5.63184 9.11492 5.8248 8.92197C6.01775 8.72901 6.27946 8.62061 6.55234 8.62061C6.68746 8.62061 6.82126 8.64722 6.94609 8.69893C7.07092 8.75063 7.18435 8.82642 7.27989 8.92197C7.37543 9.01751 7.45122 9.13093 7.50293 9.25577C7.55464 9.3806 7.58125 9.51439 7.58125 9.64951ZM6.89219 9.6499C6.89219 9.60543 6.88343 9.56139 6.86641 9.5203C6.84939 9.47921 6.82444 9.44187 6.79299 9.41043C6.76154 9.37898 6.72421 9.35403 6.68312 9.33701C6.64203 9.31999 6.59799 9.31123 6.55352 9.31123C6.46369 9.31123 6.37755 9.34691 6.31404 9.41043C6.25052 9.47394 6.21484 9.56008 6.21484 9.6499C6.21484 9.73972 6.25052 9.82587 6.31404 9.88938C6.37755 9.95289 6.46369 9.98857 6.55352 9.98857C6.64334 9.98857 6.72948 9.95289 6.79299 9.88938C6.85651 9.82587 6.89219 9.73972 6.89219 9.6499Z" fill="black"/>
<path d="M18.6156 13.4431C18.6156 14.6306 18.1439 15.7696 17.3041 16.6093C16.4644 17.449 15.3255 17.9208 14.1379 17.9208C12.9503 17.9208 11.8114 17.449 10.9717 16.6093C10.1319 15.7696 9.66016 14.6306 9.66016 13.4431C9.66016 12.2555 10.1319 11.1166 10.9717 10.2768C11.8114 9.43709 12.9503 8.96533 14.1379 8.96533C15.3255 8.96533 16.4644 9.43709 17.3041 10.2768C18.1439 11.1166 18.6156 12.2555 18.6156 13.4431ZM11.182 13.4849C11.423 13.6005 11.441 13.9532 11.2004 14.0825C11.0398 14.1688 10.643 14.1282 10.441 14.1282C10.4375 14.1282 10.434 14.129 10.4308 14.1305C10.4276 14.132 10.4248 14.1342 10.4225 14.137C10.4203 14.1398 10.4187 14.143 10.4178 14.1465C10.417 14.15 10.4169 14.1536 10.4176 14.1571C10.7516 15.8138 12.0734 17.0294 13.7695 17.2103C13.7818 17.2116 13.7879 17.2061 13.7879 17.1938C13.7879 16.9866 13.7891 16.7794 13.7914 16.5724C13.7957 16.1849 14.3187 16.0575 14.4531 16.4278C14.5211 16.6157 14.4813 16.9806 14.482 17.1935C14.482 17.206 14.4882 17.2116 14.5004 17.2103C16.202 17.0438 17.5051 15.8142 17.8578 14.1599C17.8625 14.1382 17.8538 14.1274 17.8316 14.1274C17.6016 14.1294 17.1504 14.1903 16.9875 14.0122C16.8402 13.8517 16.8898 13.5864 17.0828 13.4896C17.2672 13.3974 17.6836 13.4485 17.9051 13.4423C17.9207 13.4418 17.9284 13.4337 17.9281 13.4181C17.891 11.4528 16.475 9.91924 14.5309 9.67158C14.4973 9.66742 14.4806 9.68226 14.4809 9.71611C14.4829 9.9221 14.4824 10.1323 14.4793 10.3466C14.4734 10.7552 13.8441 10.8157 13.8008 10.3415C13.7812 10.1295 13.7796 9.91585 13.7957 9.70049C13.796 9.69673 13.7954 9.69296 13.794 9.68945C13.7927 9.68594 13.7905 9.68277 13.7878 9.68017C13.7851 9.67756 13.7818 9.67558 13.7783 9.67437C13.7747 9.67315 13.7709 9.67274 13.7672 9.67314C11.8055 9.87549 10.434 11.4356 10.3402 13.4024C10.34 13.408 10.3408 13.4135 10.3428 13.4187C10.3448 13.4239 10.3478 13.4286 10.3517 13.4326C10.3555 13.4366 10.3602 13.4397 10.3654 13.4419C10.3705 13.444 10.3761 13.4451 10.3816 13.445C10.5813 13.4435 11.0062 13.4005 11.182 13.4849Z" fill="black"/>
<path d="M4.13203 12.4083C4.13203 12.5434 4.10542 12.6772 4.05371 12.802C4.002 12.9269 3.92621 13.0403 3.83067 13.1358C3.73513 13.2314 3.6217 13.3072 3.49687 13.3589C3.37204 13.4106 3.23824 13.4372 3.10312 13.4372C2.83024 13.4372 2.56854 13.3288 2.37558 13.1358C2.18262 12.9429 2.07422 12.6812 2.07422 12.4083C2.07422 12.1354 2.18262 11.8737 2.37558 11.6808C2.56854 11.4878 2.83024 11.3794 3.10312 11.3794C3.23824 11.3794 3.37204 11.406 3.49687 11.4577C3.6217 11.5094 3.73513 11.5852 3.83067 11.6808C3.92621 11.7763 4.002 11.8897 4.05371 12.0146C4.10542 12.1394 4.13203 12.2732 4.13203 12.4083ZM3.44219 12.4083C3.44219 12.3185 3.40651 12.2323 3.34299 12.1688C3.27948 12.1053 3.19334 12.0696 3.10352 12.0696C3.01369 12.0696 2.92755 12.1053 2.86404 12.1688C2.80053 12.2323 2.76484 12.3185 2.76484 12.4083C2.76484 12.4981 2.80053 12.5843 2.86404 12.6478C2.92755 12.7113 3.01369 12.747 3.10352 12.747C3.19334 12.747 3.27948 12.7113 3.34299 12.6478C3.40651 12.5843 3.44219 12.4981 3.44219 12.4083Z" fill="black"/>
<path d="M7.58125 12.4083C7.58125 12.5434 7.55464 12.6772 7.50293 12.802C7.45122 12.9269 7.37543 13.0403 7.27989 13.1358C7.18435 13.2314 7.07092 13.3072 6.94609 13.3589C6.82126 13.4106 6.68746 13.4372 6.55234 13.4372C6.27946 13.4372 6.01775 13.3288 5.8248 13.1358C5.63184 12.9429 5.52344 12.6812 5.52344 12.4083C5.52344 12.1354 5.63184 11.8737 5.8248 11.6808C6.01775 11.4878 6.27946 11.3794 6.55234 11.3794C6.68746 11.3794 6.82126 11.406 6.94609 11.4577C7.07092 11.5094 7.18435 11.5852 7.27989 11.6808C7.37543 11.7763 7.45122 11.8897 7.50293 12.0146C7.55464 12.1394 7.58125 12.2732 7.58125 12.4083ZM6.8918 12.4083C6.8918 12.3184 6.85607 12.2321 6.79249 12.1685C6.7289 12.105 6.64266 12.0692 6.55273 12.0692C6.46281 12.0692 6.37657 12.105 6.31298 12.1685C6.24939 12.2321 6.21367 12.3184 6.21367 12.4083C6.21367 12.4982 6.24939 12.5845 6.31298 12.6481C6.37657 12.7116 6.46281 12.7474 6.55273 12.7474C6.64266 12.7474 6.7289 12.7116 6.79249 12.6481C6.85607 12.5845 6.8918 12.4982 6.8918 12.4083Z" fill="black"/>
<path d="M14.1936 13.2527C14.1959 13.2563 14.1989 13.2593 14.2024 13.2615C14.2059 13.2638 14.2098 13.2653 14.2139 13.2659C14.218 13.2666 14.2222 13.2663 14.2262 13.2652C14.2302 13.264 14.2338 13.2621 14.237 13.2594C14.8128 12.7779 15.3926 12.2954 15.9764 11.8121C16.3292 11.5199 16.7788 12.0191 16.4147 12.3277C15.7561 12.8871 15.094 13.4425 14.4284 13.9938C14.1839 14.1961 13.9854 14.1699 13.812 13.9129C13.599 13.5978 13.3876 13.2814 13.178 12.9637C12.9147 12.5648 13.4753 12.1898 13.7428 12.5758C13.8978 12.7997 14.048 13.0254 14.1936 13.2527Z" fill="black"/>
</svg>
