<svg width="35" height="35" viewBox="0 0 35 35" fill="none" xmlns="http://www.w3.org/2000/svg">
<rect width="35" height="35" rx="8" fill="#7A81FD"/>
<path fill-rule="evenodd" clip-rule="evenodd" d="M16.208 9.9375H17.792C19.1705 9.9375 20.2625 9.9375 21.1168 10.0522C21.9958 10.1708 22.7075 10.4198 23.2692 10.9808C23.3686 11.0874 23.4227 11.2284 23.4201 11.3741C23.4176 11.5199 23.3585 11.6589 23.2555 11.762C23.1524 11.865 23.0134 11.9241 22.8676 11.9266C22.7219 11.9292 22.5809 11.8751 22.4742 11.7757C22.1562 11.4592 21.7212 11.2688 20.9667 11.1675C20.1965 11.064 19.1803 11.0625 17.75 11.0625H16.25C14.8197 11.0625 13.8043 11.064 13.0325 11.1675C12.2787 11.2688 11.8438 11.4592 11.5265 11.7765C11.2093 12.0938 11.0188 12.5287 10.9175 13.2832C10.814 14.0542 10.8125 15.0697 10.8125 16.5V19.5C10.8125 20.9303 10.814 21.9465 10.9175 22.7175C11.0188 23.4713 11.2093 23.9062 11.5265 24.2235C11.8438 24.5408 12.2787 24.7313 13.0332 24.8325C13.8042 24.936 14.8197 24.9375 16.25 24.9375H17.75C19.1803 24.9375 20.1965 24.936 20.9675 24.8325C21.7213 24.7313 22.1562 24.5408 22.4735 24.2235C22.9955 23.7015 23.1537 22.8907 23.1807 20.9918C23.1829 20.8426 23.2443 20.7004 23.3513 20.5964C23.4584 20.4925 23.6023 20.4353 23.7515 20.4375C23.9007 20.4397 24.0429 20.501 24.1468 20.6081C24.2508 20.7151 24.3079 20.8591 24.3057 21.0082C24.2795 22.8285 24.1617 24.1267 23.2692 25.0192C22.7075 25.5802 21.9958 25.8293 21.1168 25.9478C20.2618 26.0625 19.1705 26.0625 17.792 26.0625H16.208C14.8295 26.0625 13.7375 26.0625 12.8833 25.9478C12.0043 25.8293 11.2925 25.5802 10.7308 25.0192C10.1698 24.4575 9.92075 23.7458 9.80225 22.8668C9.6875 22.0118 9.6875 20.9205 9.6875 19.542V16.458C9.6875 15.0795 9.6875 13.9875 9.80225 13.1333C9.92075 12.2543 10.1698 11.5425 10.7308 10.9808C11.2925 10.4198 12.0043 10.1708 12.8833 10.0522C13.7383 9.9375 14.8295 9.9375 16.208 9.9375ZM21.5855 14.2845C21.773 14.0882 21.9978 13.9314 22.2467 13.8233C22.4957 13.7151 22.7637 13.6578 23.0351 13.6547C23.3065 13.6516 23.5758 13.7028 23.8272 13.8052C24.0785 13.9076 24.3069 14.0593 24.4988 14.2512C24.6907 14.4431 24.8424 14.6715 24.9448 14.9228C25.0472 15.1742 25.0984 15.4435 25.0953 15.7149C25.0922 15.9863 25.0349 16.2543 24.9267 16.5033C24.8186 16.7522 24.6618 16.977 24.4655 17.1645L20.9 20.7323C20.7517 20.8885 20.5939 21.0355 20.4275 21.1725C20.255 21.3075 20.0675 21.423 19.8695 21.5175C19.7015 21.5978 19.5245 21.6562 19.265 21.7425L17.702 22.2638C17.5328 22.3204 17.3511 22.3287 17.1774 22.2878C17.0036 22.2469 16.8448 22.1584 16.7186 22.0322C16.5924 21.906 16.5039 21.7471 16.4629 21.5734C16.422 21.3997 16.4304 21.218 16.487 21.0487L16.9977 19.5187L17.0082 19.4865C17.0952 19.2263 17.1538 19.05 17.234 18.882C17.3284 18.684 17.4441 18.4969 17.579 18.324C17.6938 18.177 17.825 18.0457 18.0192 17.8515L18.0425 17.8282L21.5855 14.2845ZM23.6705 15.0795C23.5858 14.9948 23.4853 14.9276 23.3746 14.8817C23.2639 14.8359 23.1453 14.8123 23.0255 14.8123C22.9057 14.8123 22.7871 14.8359 22.6764 14.8817C22.5657 14.9276 22.4652 14.9948 22.3805 15.0795L22.244 15.216C22.2515 15.2408 22.2597 15.2685 22.2695 15.2963C22.34 15.4988 22.4742 15.7687 22.7277 16.0223C22.9521 16.248 23.2292 16.4143 23.534 16.506L23.6705 16.3695C23.7552 16.2848 23.8224 16.1843 23.8683 16.0736C23.9141 15.9629 23.9377 15.8443 23.9377 15.7245C23.9377 15.6047 23.9141 15.4861 23.8683 15.3754C23.8224 15.2647 23.7552 15.1642 23.6705 15.0795ZM22.6745 17.3655C22.4008 17.2215 22.1504 17.0369 21.932 16.818C21.7131 16.5996 21.5285 16.3492 21.3845 16.0755L18.8375 18.6225C18.6117 18.8483 18.5323 18.9292 18.4655 19.0147C18.3808 19.1235 18.308 19.2413 18.2487 19.365C18.2022 19.4633 18.1655 19.5705 18.0642 19.8735L17.7642 20.7735L17.9765 20.9858L18.8765 20.6858C19.1795 20.5845 19.2867 20.5478 19.385 20.5013C19.5087 20.4412 19.6265 20.3692 19.7353 20.2845C19.8208 20.2177 19.9017 20.1383 20.1275 19.9125L22.6745 17.3655ZM13.4375 15.75C13.4375 15.6008 13.4968 15.4577 13.6023 15.3523C13.7077 15.2468 13.8508 15.1875 14 15.1875H18.875C19.0242 15.1875 19.1673 15.2468 19.2727 15.3523C19.3782 15.4577 19.4375 15.6008 19.4375 15.75C19.4375 15.8992 19.3782 16.0423 19.2727 16.1477C19.1673 16.2532 19.0242 16.3125 18.875 16.3125H14C13.8508 16.3125 13.7077 16.2532 13.6023 16.1477C13.4968 16.0423 13.4375 15.8992 13.4375 15.75ZM13.4375 18.75C13.4375 18.6008 13.4968 18.4577 13.6023 18.3523C13.7077 18.2468 13.8508 18.1875 14 18.1875H15.875C16.0242 18.1875 16.1673 18.2468 16.2727 18.3523C16.3782 18.4577 16.4375 18.6008 16.4375 18.75C16.4375 18.8992 16.3782 19.0423 16.2727 19.1477C16.1673 19.2532 16.0242 19.3125 15.875 19.3125H14C13.8508 19.3125 13.7077 19.2532 13.6023 19.1477C13.4968 19.0423 13.4375 18.8992 13.4375 18.75ZM13.4375 21.75C13.4375 21.6008 13.4968 21.4577 13.6023 21.3523C13.7077 21.2468 13.8508 21.1875 14 21.1875H15.125C15.2742 21.1875 15.4173 21.2468 15.5227 21.3523C15.6282 21.4577 15.6875 21.6008 15.6875 21.75C15.6875 21.8992 15.6282 22.0423 15.5227 22.1477C15.4173 22.2532 15.2742 22.3125 15.125 22.3125H14C13.8508 22.3125 13.7077 22.2532 13.6023 22.1477C13.4968 22.0423 13.4375 21.8992 13.4375 21.75Z" fill="white"/>
</svg>
