<svg width="202" height="174" viewBox="0 0 202 174" fill="none" xmlns="http://www.w3.org/2000/svg">
<path d="M28.8339 9.60441C30.5243 14.6111 51.3601 14.2748 62.1104 12.4028C72.8607 10.5309 73.8927 6.69811 67.15 2.22443C60.4137 -2.2556 25.5734 -0.0536578 28.8339 9.60441Z" fill="#31324E"/>
<path d="M85.6263 3.67132C80.8843 0.358895 71.4129 9.61084 80.2322 9.6045C89.0515 9.59815 88.8932 5.95575 85.6263 3.67132Z" fill="#31324E"/>
<path d="M5.59332 60.1393C-0.718831 59.1304 5.18813 77.6977 14.2227 75.3054C23.2572 72.9131 10.8925 60.9896 5.59332 60.1393Z" fill="#373854"/>
<path d="M2.06083 49.6275C-1.55426 50.9347 -0.319682 58.8096 5.03014 57.1344C10.38 55.4654 5.61893 48.3393 2.06083 49.6275Z" fill="#373854"/>
<path d="M103.008 83.3819L103.812 77.2711C104.242 74.0094 102.166 71.3633 99.1772 71.3633H50.4654L48.8826 83.3819L47.9076 90.8L38.7591 160.221C37.7651 167.785 42.5704 173.915 49.4967 173.915H155.835C162.761 173.915 169.187 167.785 170.181 160.221L180.311 83.3883H103.008V83.3819Z" fill="#BBBBBB"/>
<path d="M154.639 142.508H59.8424L49.8328 36.8848H144.629L154.639 142.508Z" fill="#D9D9D9"/>
<path d="M156.348 142.167H61.5577L53.0867 33.7773H147.883L156.348 142.167Z" fill="#FE811A"/>
<path d="M158.133 138.669H61.9247L54.8718 30.2793H138.741L158.133 138.669Z" fill="#7A81FD"/>
<path d="M61.0694 142.407H155.859V39.3474L144.444 27.9062H61.0694V142.407Z" fill="#14142D"/>
<path d="M112.713 36.8848H149.332V94.8712H112.713V36.8848Z" fill="#D9D9D9"/>
<path d="M115.289 39.1309L147.002 92.2756" stroke="white" stroke-linecap="round" stroke-linejoin="round"/>
<path d="M147.002 39.1309L115.289 92.2756" stroke="white" stroke-linecap="round" stroke-linejoin="round"/>
<path d="M67.2686 36.8848H106.047V41.3711H67.2686V36.8848Z" fill="#7A81FD"/>
<path d="M84.8565 44.9648H106.047V47.8458H84.8565V44.9648Z" fill="#868686"/>
<path d="M128.142 96.7891H149.332V99.67H128.142V96.7891Z" fill="#868686"/>
<path d="M112.713 100.938H149.332V102.378H112.713V100.938Z" fill="#D9D9D9"/>
<path d="M112.713 103.643H149.332V105.083H112.713V103.643Z" fill="#D9D9D9"/>
<path d="M67.2686 52.4629H106.047V53.4719H67.2686V52.4629Z" fill="#D9D9D9"/>
<path d="M67.2686 57.7949H106.047V58.8039H67.2686V57.7949Z" fill="#D9D9D9"/>
<path d="M67.2686 63.1309H106.047V64.1398H67.2686V63.1309Z" fill="#D9D9D9"/>
<path d="M67.2686 68.4668H106.047V69.4758H67.2686V68.4668Z" fill="#D9D9D9"/>
<path d="M67.2686 73.8027H106.047V74.8117H67.2686V73.8027Z" fill="#D9D9D9"/>
<path d="M67.2686 79.1348H106.047V80.1437H67.2686V79.1348Z" fill="#D9D9D9"/>
<path d="M67.2686 84.4707H106.047V85.4797H67.2686V84.4707Z" fill="#D9D9D9"/>
<path d="M67.2686 89.8086H106.047V90.8175H67.2686V89.8086Z" fill="#D9D9D9"/>
<path d="M67.2686 95.1445H106.047V96.1535H67.2686V95.1445Z" fill="#D9D9D9"/>
<path d="M67.2686 100.48H106.047V101.489H67.2686V100.48Z" fill="#D9D9D9"/>
<path d="M67.2686 105.812H106.047V106.821H67.2686V105.812Z" fill="#D9D9D9"/>
<path d="M67.2686 111.148H106.047V112.157H67.2686V111.148Z" fill="#D9D9D9"/>
<g style="mix-blend-mode:multiply">
<path d="M140.083 90.6727L92.9544 88.3692V84.2318C92.9544 80.7164 90.1117 77.8608 86.6042 77.8545L45.3125 77.791V85.0631L98.1713 109.399" fill="#D9D9D9"/>
</g>
<path d="M91.0737 90.7924V85.1828C91.0737 82.1877 88.6489 79.7637 85.6669 79.7637H36.9551V161.343C36.9551 168.285 42.5708 173.914 49.4971 173.914H155.835C162.761 173.914 168.377 168.285 168.377 161.343V90.7987H91.0737V90.7924Z" fill="#F5F5F5"/>
<path d="M95.1306 134.07H45.5957V161.426H95.1306V134.07Z" fill="#EDEDED"/>
<path d="M70.3639 137.869H50.1992V158.08H70.3639V137.869Z" fill="#7A81FD"/>
<path d="M91.9408 137.869H74.2832V142.165H91.9408V137.869Z" fill="#7A81FD"/>
<path d="M91.9408 143.576H74.2832V144.744H91.9408V143.576Z" fill="#7A81FD"/>
<path d="M91.9408 146.158H74.2832V147.326H91.9408V146.158Z" fill="#7A81FD"/>
<path d="M76.6447 150.295H74.2832V152.662H76.6447V150.295Z" fill="#7A81FD"/>
<path d="M81.2678 150.295H78.9062V152.662H81.2678V150.295Z" fill="#7A81FD"/>
<path d="M85.883 150.295H83.5215V152.662H85.883V150.295Z" fill="#7A81FD"/>
<path d="M91.9416 155.715H89.5801V158.082H91.9416V155.715Z" fill="#7A81FD"/>
<g style="mix-blend-mode:multiply">
<path d="M42.4336 36.3572L53.8487 24.916L52.0696 37.8294L42.4336 36.3572Z" fill="#D9D9D9"/>
</g>
<path d="M28.8477 95.9115H22.6938V89.7435C22.6938 89.496 22.4912 89.293 22.2443 89.293C21.9974 89.293 21.7948 89.496 21.7948 89.7435V95.9115H15.6409C15.394 95.9115 15.1914 96.1145 15.1914 96.362C15.1914 96.6095 15.394 96.8126 15.6409 96.8126H21.7948V102.981C21.7948 103.228 21.9974 103.431 22.2443 103.431C22.4912 103.431 22.6938 103.228 22.6938 102.981V96.8126H28.8477C29.0946 96.8126 29.2972 96.6095 29.2972 96.362C29.2972 96.1145 29.0946 95.9115 28.8477 95.9115Z" fill="#14142D"/>
<path d="M180.877 78.2455H174.723V72.0775C174.723 71.83 174.521 71.627 174.274 71.627C174.027 71.627 173.824 71.83 173.824 72.0775V78.2455H167.67C167.423 78.2455 167.221 78.4485 167.221 78.696C167.221 78.9435 167.423 79.1465 167.67 79.1465H173.824V85.3145C173.824 85.562 174.027 85.765 174.274 85.765C174.521 85.765 174.723 85.562 174.723 85.3145V79.1465H180.877C181.124 79.1465 181.326 78.9435 181.326 78.696C181.326 78.4485 181.124 78.2455 180.877 78.2455Z" fill="#14142D"/>
<path d="M53.1407 131.845H46.9868V125.677C46.9868 125.43 46.7842 125.227 46.5373 125.227C46.2904 125.227 46.0878 125.43 46.0878 125.677V131.845H39.9339C39.687 131.845 39.4844 132.048 39.4844 132.296C39.4844 132.543 39.687 132.746 39.9339 132.746H46.0878V138.914C46.0878 139.162 46.2904 139.365 46.5373 139.365C46.7842 139.365 46.9868 139.162 46.9868 138.914V132.746H53.1407C53.3876 132.746 53.5902 132.543 53.5902 132.296C53.5902 132.048 53.3876 131.845 53.1407 131.845Z" fill="#7A81FD"/>
<path d="M60.4975 123.724H57.6168V120.836C57.6168 120.722 57.5219 120.627 57.4079 120.627C57.2939 120.627 57.199 120.722 57.199 120.836V123.724H54.3183C54.2043 123.724 54.1094 123.819 54.1094 123.933C54.1094 124.047 54.2043 124.142 54.3183 124.142H57.199V127.03C57.199 127.144 57.2939 127.239 57.4079 127.239C57.5219 127.239 57.6168 127.144 57.6168 127.03V124.142H60.4975C60.6115 124.142 60.7064 124.047 60.7064 123.933C60.7064 123.819 60.6115 123.724 60.4975 123.724Z" fill="#7A81FD"/>
<path d="M193.952 116.172H190.679V112.892C190.679 112.758 190.571 112.65 190.438 112.65C190.305 112.65 190.197 112.758 190.197 112.892V116.172H186.924C186.791 116.172 186.684 116.28 186.684 116.413C186.684 116.547 186.791 116.654 186.924 116.654H190.197V119.935C190.197 120.068 190.305 120.176 190.438 120.176C190.571 120.176 190.679 120.068 190.679 119.935V116.654H193.952C194.085 116.654 194.192 116.547 194.192 116.413C194.192 116.28 194.085 116.172 193.952 116.172Z" fill="#1D262D"/>
<path d="M201.53 107.722H199.789V105.977C199.789 105.907 199.732 105.85 199.662 105.85C199.593 105.85 199.536 105.907 199.536 105.977V107.722H197.795C197.725 107.722 197.668 107.779 197.668 107.848C197.668 107.918 197.725 107.975 197.795 107.975H199.536V109.72C199.536 109.79 199.593 109.847 199.662 109.847C199.732 109.847 199.789 109.79 199.789 109.72V107.975H201.53C201.6 107.975 201.657 107.918 201.657 107.848C201.657 107.779 201.6 107.722 201.53 107.722Z" fill="#1D262D"/>
<path d="M34.8684 76.36H30.8544V72.3368C30.8544 72.1718 30.7215 72.0449 30.5632 72.0449C30.4049 72.0449 30.272 72.1782 30.272 72.3368V76.36H26.258C26.0934 76.36 25.9668 76.4932 25.9668 76.6519C25.9668 76.8105 26.0998 76.9438 26.258 76.9438H30.272V80.9669C30.272 81.1319 30.4049 81.2588 30.5632 81.2588C30.7215 81.2588 30.8544 81.1255 30.8544 80.9669V76.9438H34.8684C35.033 76.9438 35.1596 76.8105 35.1596 76.6519C35.1596 76.4932 35.0267 76.36 34.8684 76.36Z" fill="#14142D"/>
<path d="M29.9623 111.579H26.4929V108.101C26.4929 107.962 26.3789 107.848 26.2396 107.848C26.1003 107.848 25.9864 107.962 25.9864 108.101V111.579H22.5169C22.3776 111.579 22.2637 111.693 22.2637 111.833C22.2637 111.972 22.3776 112.087 22.5169 112.087H25.9864V115.564C25.9864 115.704 26.1003 115.818 26.2396 115.818C26.3789 115.818 26.4929 115.704 26.4929 115.564V112.087H29.9623C30.1016 112.087 30.2156 111.972 30.2156 111.833C30.2156 111.693 30.1016 111.579 29.9623 111.579Z" fill="#14142D"/>
<path d="M13.399 121.547H11.5503V119.694C11.5503 119.618 11.487 119.561 11.4173 119.561C11.3477 119.561 11.2844 119.624 11.2844 119.694V121.547H9.43569C9.35971 121.547 9.30273 121.61 9.30273 121.68C9.30273 121.75 9.36605 121.813 9.43569 121.813H11.2844V123.666C11.2844 123.742 11.3477 123.799 11.4173 123.799C11.487 123.799 11.5503 123.736 11.5503 123.666V121.813H13.399C13.475 121.813 13.5319 121.75 13.5319 121.68C13.5319 121.61 13.4686 121.547 13.399 121.547Z" fill="#14142D"/>
<path d="M180.739 27.6952H178.89V25.8422C178.89 25.7661 178.827 25.709 178.757 25.709C178.688 25.709 178.624 25.7724 178.624 25.8422V27.6952H176.776C176.7 27.6952 176.643 27.7586 176.643 27.8284C176.643 27.8982 176.706 27.9617 176.776 27.9617H178.624V29.8146C178.624 29.8908 178.688 29.9479 178.757 29.9479C178.827 29.9479 178.89 29.8844 178.89 29.8146V27.9617H180.739C180.815 27.9617 180.872 27.8982 180.872 27.8284C180.872 27.7586 180.808 27.6952 180.739 27.6952Z" fill="#14142D"/>
<path d="M171.456 17.7768H166.936V13.246C166.936 13.062 166.79 12.916 166.607 12.916C166.423 12.916 166.277 13.0683 166.277 13.246V17.7768H161.757C161.573 17.7768 161.428 17.9227 161.428 18.1068C161.428 18.2908 161.58 18.4367 161.757 18.4367H166.277V22.9675C166.277 23.1515 166.423 23.2975 166.607 23.2975C166.79 23.2975 166.936 23.1515 166.936 22.9675V18.4367H171.456C171.64 18.4367 171.785 18.2844 171.785 18.1068C171.785 17.9291 171.64 17.7768 171.456 17.7768Z" fill="#14142D"/>
<path d="M100.907 18.5326H96.387V14.0018C96.387 13.8178 96.2351 13.6719 96.0578 13.6719C95.8805 13.6719 95.7286 13.8242 95.7286 14.0018V18.5326H91.2081C91.0245 18.5326 90.8789 18.6786 90.8789 18.8626C90.8789 19.0466 91.0245 19.1926 91.2081 19.1926H95.7286V23.7234C95.7286 23.9074 95.8742 24.0533 96.0578 24.0533C96.2414 24.0533 96.387 23.9074 96.387 23.7234V19.1926H100.907C101.091 19.1926 101.237 19.0403 101.237 18.8626C101.237 18.6849 101.091 18.5326 100.907 18.5326Z" fill="#14142D"/>
<path d="M88.2712 20.7668H85.8654V18.3554C85.8654 18.2602 85.7894 18.1777 85.6881 18.1777C85.5868 18.1777 85.5108 18.2539 85.5108 18.3554V20.7668H83.105C83.01 20.7668 82.9277 20.8429 82.9277 20.9444C82.9277 21.046 83.0037 21.1221 83.105 21.1221H85.5108V23.5335C85.5108 23.6286 85.5868 23.7111 85.6881 23.7111C85.7894 23.7111 85.8654 23.635 85.8654 23.5335V21.1221H88.2712C88.3662 21.1221 88.4485 21.0396 88.4485 20.9444C88.4485 20.8493 88.3725 20.7668 88.2712 20.7668Z" fill="#14142D"/>
</svg>
