<svg width="35" height="35" viewBox="0 0 35 35" fill="none" xmlns="http://www.w3.org/2000/svg">
<path d="M0 8C0 3.58172 3.58172 0 8 0H27C31.4183 0 35 3.58172 35 8V27C35 31.4183 31.4183 35 27 35H8C3.58172 35 0 31.4183 0 27V8Z" fill="#7A81FD"/>
<path fill-rule="evenodd" clip-rule="evenodd" d="M17.0531 27.9558C17.3648 27.985 17.6806 28 18 28C18.3266 28 18.6496 27.9843 18.9682 27.9537C24.0368 27.4668 28 23.1962 28 18C28 12.7961 24.025 8.52055 18.9456 8.04413C18.6343 8.01493 18.3189 8 18 8C17.6776 8 17.3588 8.01526 17.0442 8.04509C11.9697 8.52628 8 12.7996 8 18C8 23.2035 11.9743 27.4787 17.0531 27.9558ZM15.942 9.75084C13.4454 10.3717 11.385 12.0962 10.3088 14.3764H13.9655C14.3648 12.8513 15.0215 11.3138 15.942 9.75084ZM13.6551 15.8764H9.76742C9.59284 16.5552 9.5 17.2668 9.5 18C9.5 18.9007 9.64009 19.7687 9.89968 20.5833H13.7529C13.5998 19.7888 13.5144 18.9903 13.5001 18.1857C13.4865 17.4169 13.5378 16.6477 13.6551 15.8764ZM15.2838 20.5833C15.1093 19.7732 15.0142 18.9662 14.9999 18.1591C14.9865 17.4056 15.0434 16.6456 15.1746 15.8764H20.5151C20.7577 17.58 20.6775 19.1651 20.4243 20.5833H15.2838ZM14.1227 22.0833H10.5432C11.674 24.144 13.6342 25.685 15.9743 26.2571C15.1653 24.8674 14.5417 23.4798 14.1227 22.0833ZM17.8841 26.4992C16.911 24.9981 16.1792 23.5324 15.6961 22.0833H20.0807C19.6237 23.7161 18.9749 25.0576 18.4295 26.0036C18.3257 26.1836 18.2258 26.349 18.132 26.499C18.0881 26.4997 18.0441 26.5 18 26.5C17.9613 26.5 17.9226 26.4997 17.8841 26.4992ZM20.0015 26.263C22.3523 25.6956 24.3221 24.1511 25.4568 22.0833H21.6332C21.6234 22.1219 21.6135 22.1603 21.6034 22.1986C21.1741 23.8383 20.5613 25.2197 20.0015 26.263ZM21.9456 20.5833H26.1003C26.3599 19.7687 26.5 18.9007 26.5 18C26.5 17.2668 26.4072 16.5552 26.2326 15.8764H22.0288C22.2459 17.5631 22.1786 19.1465 21.9456 20.5833ZM21.7635 14.3764H25.6912C24.604 12.0729 22.5124 10.3365 19.9814 9.73216C20.8581 11.3286 21.4275 12.8857 21.7635 14.3764ZM18.1057 9.50065C19.1624 11.1848 19.8337 12.8211 20.2217 14.3764H15.522C15.9818 12.8032 16.7525 11.1856 17.8666 9.50103C17.911 9.50034 17.9555 9.5 18 9.5C18.0353 9.5 18.0705 9.50022 18.1057 9.50065Z" fill="white"/>
</svg>
