<svg width="49" height="58" viewBox="0 0 49 58" fill="none" xmlns="http://www.w3.org/2000/svg">
<g id="Group">
<path id="Vector" d="M13.7707 57.3826C11.3507 57.1867 8.93077 56.9102 6.59149 56.2187C4.65553 55.6426 2.98461 54.6861 1.92444 52.8884C0.944941 51.229 1.09475 49.0626 2.28167 47.6452C2.46605 47.8987 2.65043 48.1522 2.83481 48.4173C2.84633 48.6938 2.81176 48.9589 2.70805 49.2239C2.10882 50.6759 2.53519 51.9204 3.48013 53.0613C4.55182 54.3519 6.04988 54.882 7.58252 55.3314C8.66573 55.6426 9.78352 55.7463 10.8667 56.0459C11.0742 56.1035 11.0743 56.1207 11.27 56.138C13.7361 56.357 16.3404 56.6451 18.818 56.576C23.1048 56.4607 27.3339 55.9306 31.4939 54.882C32.6348 54.5939 33.2916 53.7757 33.6949 52.7617C34.0061 51.9781 33.6834 51.3673 32.8076 50.9525C31.7705 50.4685 30.6527 50.3417 29.5349 50.2611C27.38 50.0997 25.2251 50.3417 23.0702 50.3071C20.777 50.2726 18.5069 50.0421 16.3289 49.247C15.3494 48.8897 14.439 48.4173 13.6439 47.7489C13.2406 47.4147 12.8603 47.0575 12.6759 46.5389C13.1484 46.1932 13.6093 46.4352 14.0588 46.5966C15.5683 47.8181 17.343 48.4403 19.2328 48.786C21.2379 49.1548 23.2661 49.2124 25.2827 49.0972C26.6195 49.028 27.9447 48.9935 29.2699 49.028C30.5029 49.0511 31.7474 49.2009 32.9113 49.6618C34.5938 50.3302 35.5156 51.5978 34.6514 53.6029C34.8127 53.6951 34.9395 53.5798 35.0662 53.5337C37.4747 52.6464 39.7794 51.5747 41.7384 49.8923C44.1238 47.8526 45.4605 45.3174 45.1724 42.0908C45.0802 41.0768 44.746 40.1203 44.4003 39.1639C44.2966 38.968 44.1929 38.7605 44.239 38.5301C44.2966 38.2304 44.4579 38.0115 44.7691 37.9654C45.0687 37.9193 45.2761 38.0461 45.3222 38.3687C45.8408 39.6939 46.2787 41.0537 46.3248 42.4942C46.4515 46.0895 44.8382 48.8437 42.1071 51.0216C39.3645 53.2111 36.1725 54.5017 32.8191 55.4236C26.7462 57.0945 20.5581 57.6707 14.2662 57.3941C14.1049 57.3826 13.9435 57.3826 13.7707 57.3826Z" fill="#202730"/>
<path id="Vector_2" d="M7.7438 33.3906C7.13305 31.0628 6.64906 28.7235 6.7182 26.292C6.97172 18.4214 11.9153 11.5303 19.3365 9.26021C26.7346 6.99006 33.1417 8.97212 38.4195 14.561C40.7243 16.9925 42.1186 19.9541 42.8907 23.2037C43.2249 23.607 43.0866 23.9758 42.8331 24.3561C42.5565 24.5405 42.326 24.4367 42.1071 24.2408C41.7844 23.7799 41.6922 23.2383 41.5539 22.7197C40.8741 20.1269 39.6871 17.7646 37.9471 15.7365C35.9996 13.4548 33.6373 11.7032 30.8025 10.62C28.5669 9.76724 26.2622 9.35239 23.8883 9.52525C20.5695 9.75572 17.5273 10.8044 14.8538 12.821C11.1433 15.6327 8.94225 19.3779 8.10103 23.9412C7.62856 26.4995 7.81294 29.0462 8.45826 31.5698C8.53892 31.904 8.60806 32.2267 8.57349 32.5724C8.42369 32.9757 8.2854 33.379 7.7438 33.3906Z" fill="#020303"/>
<path id="Vector_3" d="M7.74387 33.3906C8.02043 33.1601 8.20481 32.872 8.41224 32.5839C8.72337 31.6966 9.53002 31.3394 10.2214 30.8438C10.5326 30.6825 10.8207 30.4636 11.1664 30.3599C11.5236 30.187 11.8463 29.8759 12.2957 30.1294C12.434 30.452 12.3648 30.7747 12.2726 31.0974C12.1343 31.3278 11.9039 31.4546 11.6734 31.5698C9.34565 32.7683 7.92825 34.6466 7.52492 37.251C7.24836 38.6223 7.52492 39.9475 8.1011 41.169C9.44936 44.0383 11.7656 45.5134 14.9346 45.6171C15.2227 45.6286 15.4877 45.6632 15.7643 45.7208C16.1446 45.9628 16.4787 46.2393 16.2713 46.7694C15.5223 47.1843 14.7848 47.046 14.0357 46.7579C13.5863 46.6772 13.1484 46.6081 12.699 46.5274C11.4775 46.0895 10.3136 45.5594 9.29955 44.7182C6.11905 42.0448 5.33544 37.4929 7.4673 33.9206C7.55949 33.7593 7.65168 33.5749 7.74387 33.3906Z" fill="#FFD600"/>
<path id="Vector_4" d="M42.7063 24.3446C42.764 23.9643 42.8216 23.584 42.8792 23.2037C42.9368 22.9502 42.9944 22.6967 43.0405 22.4432C43.0866 22.2127 43.1558 21.9707 43.4323 21.9707C43.7319 21.9707 43.8241 22.2242 43.8587 22.4777C43.9624 23.0654 44.1007 23.6531 44.1583 24.2524C44.2159 24.8516 44.5501 25.0936 45.1032 25.1627C45.6794 25.2434 46.2556 25.3356 46.8203 25.4508C47.0623 25.4969 47.3273 25.5545 47.3273 25.8772C47.3273 26.2229 47.0277 26.1999 46.7972 26.2459C46.463 26.3151 46.1173 26.269 45.8062 26.4073C45.5642 26.7184 45.207 26.6493 44.8843 26.7184C44.4003 26.8797 44.4695 27.3522 44.3312 27.721C44.2505 28.0551 44.2966 28.4124 44.1698 28.735C44.1353 28.8848 44.1007 29.0231 44.0777 29.1729C44.0316 29.5186 43.8817 29.7952 43.513 29.8413C43.0981 29.8989 42.9022 29.5993 42.8101 29.2536C42.6487 28.6774 42.545 28.1012 42.4874 27.502C42.545 27.0641 42.2915 26.8567 41.9227 26.7415C41.4618 26.6032 40.9893 26.4995 40.5053 26.5917C40.3555 26.5801 40.2057 26.534 40.0674 26.4995C39.7448 26.4188 39.4567 26.2575 39.4452 25.8772C39.4221 25.4623 39.7333 25.278 40.0674 25.1973C40.3671 25.1166 40.6782 25.0475 41.0009 25.036C41.3005 25.0244 41.6001 25.0014 41.8882 24.9207C42.2339 24.817 42.4413 24.5289 42.7063 24.3446Z" fill="#FEFEFE"/>
<path id="Vector_5" d="M44.7345 26.5225C45.0917 26.4303 45.4489 26.3611 45.8292 26.3957C47.3388 28.0897 48.18 30.0487 48.1224 32.3304C48.0648 34.7157 47.1659 36.7669 45.3337 38.3687C45.1032 38.1613 44.8612 37.9539 44.5731 38.2419C44.2735 38.53 44.4694 38.8181 44.6192 39.0947C44.0776 39.8552 43.2479 40.1203 42.4067 40.3392C42.303 40.3623 42.1878 40.3277 42.1071 40.224C41.9803 39.8552 42.0264 39.4865 42.1647 39.1408C42.6833 38.6683 43.3632 38.4609 43.9163 38.0345C46.0251 36.3866 47.1083 34.2663 46.9585 31.5583C46.947 31.2817 46.9931 30.9936 46.8663 30.7286C46.5091 29.3918 45.9905 28.1588 44.9534 27.1793C44.7575 27.0065 44.6077 26.799 44.7345 26.5225Z" fill="#FFD600"/>
<path id="Vector_6" d="M2.2471 27.4329C2.47757 27.4905 2.5928 27.6633 2.62737 27.8708C2.67347 28.0667 2.69651 28.2741 2.70804 28.4815C2.71956 28.954 2.97308 29.196 3.4225 29.2536C3.67602 29.2882 3.94106 29.3458 4.19458 29.4034C4.36743 29.4495 4.50572 29.5647 4.50572 29.7491C4.50572 29.9335 4.35591 30.0487 4.19458 30.1063C4.02172 30.1639 3.82582 30.1985 3.65297 30.1985C3.07679 30.1755 2.77718 30.429 2.74261 31.0052C2.73109 31.2126 2.67347 31.4085 2.65042 31.6159C2.62737 31.8349 2.55823 32.0538 2.32776 32.0769C2.0512 32.1114 1.95901 31.8694 1.88986 31.6505C1.83225 31.4776 1.79768 31.2817 1.79768 31.0974C1.78615 30.5327 1.46349 30.3138 0.956456 30.2446C0.587702 30.187 0.0115236 30.2792 0 29.7837C0 29.2536 0.599226 29.3343 0.979503 29.2766C1.52111 29.2075 1.77463 28.9309 1.78615 28.3893C1.78615 28.1819 1.83225 27.986 1.87834 27.7786C1.91291 27.5942 2.03967 27.4674 2.2471 27.4329Z" fill="#FEFEFD"/>
<g id="Group 1401">
<path id="Vector_7" d="M8.17389 2.12263C8.4368 2.11949 8.57344 2.28837 8.72373 2.47414C9.78947 3.79141 10.8552 5.10868 11.9209 6.42596C12.1669 6.72994 12.3163 7.07008 11.948 7.34012C11.6119 7.59811 11.2517 7.49831 10.9648 7.14366C9.91592 5.81273 8.83491 4.49384 7.76917 3.17657C7.59155 2.95702 7.4477 2.71015 7.61582 2.43442C7.74532 2.23185 7.91421 2.09522 8.17389 2.12263Z" fill="#294049"/>
<path id="Vector_8" d="M15.4645 5.19358C15.4419 5.7009 15.3059 5.96458 14.9465 6.00387C14.5718 6.04155 14.301 5.82761 14.2617 5.46821C14.1221 4.15602 13.9979 2.84545 13.8889 1.5365C13.8617 1.20926 14.0587 0.952032 14.4029 0.911127C14.7775 0.873446 15.038 1.03995 15.0741 1.42991C15.2289 2.7437 15.3531 4.05427 15.4645 5.19358Z" fill="#29414A"/>
<path id="Vector_9" d="M9.09281 10.3906C7.94238 10.022 6.7003 9.6438 5.47671 9.23662C5.11816 9.12155 4.96387 8.82724 5.09423 8.47029C5.20608 8.14229 5.46984 7.98478 5.79784 8.09663C7.0552 8.47649 8.31095 8.87162 9.56509 9.28202C9.87781 9.39226 10.0353 9.65602 9.93713 10.0009C9.83733 10.3611 9.5342 10.4526 9.09281 10.3906Z" fill="#29414A"/>
</g>
<path id="Vector_10" d="M10.3136 31.0052C9.63368 31.4777 8.99988 32.0193 8.41218 32.5954C8.25085 31.5814 7.95123 30.5903 7.80143 29.5647C7.36353 26.5801 7.65162 23.6647 8.6657 20.8299C9.61063 18.1795 11.1087 15.8632 13.1599 13.9157C15.6835 11.5304 18.6682 10.0553 22.0907 9.51374C26.9766 8.74166 31.4017 9.92859 35.3082 12.9017C38.5117 15.3447 40.6321 18.5482 41.7153 22.4317C41.8766 22.9963 42.0149 23.5494 42.1647 24.1141C42.084 24.2409 41.9458 24.287 41.819 24.2524C41.1161 24.0795 40.367 24.1026 39.6871 23.8145C39.376 23.5379 39.2953 23.1346 39.1916 22.7658C38.4426 20.2537 37.1404 18.0642 35.2967 16.2205C32.796 13.7314 29.7999 12.2333 26.2622 11.8645C22.0561 11.4266 18.334 12.5905 15.1535 15.3908C12.4569 17.7646 10.9128 20.7607 10.302 24.2754C9.96786 26.2114 9.97938 28.1473 10.3942 30.0833C10.4634 30.3944 10.544 30.7171 10.3136 31.0052Z" fill="#202730"/>
<path id="Vector_11" d="M39.6987 23.6877C40.5284 23.7684 41.3581 23.8951 42.1647 24.1256C42.3491 24.2063 42.522 24.2754 42.7063 24.3561C42.6718 24.7363 42.522 25.0359 42.0841 25.0705C41.0008 25.0359 39.9292 24.7824 38.8459 24.8285C38.3735 24.6557 38.143 24.3445 38.2237 23.8375C38.4196 23.7914 38.6155 23.7568 38.8114 23.7107C39.0995 23.3766 39.3991 23.4342 39.6987 23.6877Z" fill="#FFD600"/>
<path id="Vector_12" d="M7.27136 37.2048C7.75535 34.3009 9.38018 32.2958 12.0767 31.1434C12.3302 31.2471 12.3417 31.4891 12.3878 31.7081C13.206 35.1191 14.0703 38.5185 14.9115 41.9295C14.9691 42.183 15.0613 42.4365 14.9576 42.7016C14.7847 43.0703 14.4736 43.0703 14.1394 43.0242C11.3622 42.667 9.25342 41.2726 7.7784 38.8988C7.46726 38.3572 7.3405 37.7925 7.27136 37.2048Z" fill="#FFD600"/>
<path id="Vector_13" d="M39.6987 23.6877C39.3991 23.6877 39.111 23.6993 38.8114 23.6993C37.1866 16.6353 30.2839 11.7148 23.1854 12.5675C17.2277 13.282 12.3187 17.8107 11.0972 23.6993C10.6247 25.9925 10.6363 28.2741 11.2124 30.5443C10.9128 30.6941 10.6132 30.8554 10.3136 31.0052C10.0025 29.438 9.77199 27.8708 9.85265 26.269C10.0486 22.5469 11.2816 19.2627 13.7591 16.4509C15.9256 13.9964 18.599 12.4407 21.7911 11.83C26.5388 10.9312 30.7795 12.072 34.49 15.1603C37.1866 17.4074 38.8575 20.2883 39.6987 23.6877Z" fill="#020303"/>
<path id="Vector_14" d="M14.8308 42.7246C14.2085 40.1549 13.5632 37.5966 12.9525 35.0269C12.6413 33.7362 12.2265 32.4687 12.0767 31.1434C12.1228 30.8093 12.1573 30.4751 12.2034 30.1524C12.3071 29.9104 12.3878 29.6569 12.5146 29.438C13.2751 28.1127 14.923 27.8247 16.133 28.8157C16.8013 29.3573 17.1701 30.0718 17.3775 30.9015C18.4261 35.1306 19.4748 39.3598 20.5234 43.5889C20.7193 44.361 20.7539 45.1446 20.4658 45.9051C19.8205 47.5876 18.0343 48.0831 16.6285 46.9653C16.5132 46.8731 16.398 46.7809 16.2828 46.6772C16.0984 46.4122 15.9025 46.1471 15.7181 45.8821C15.4531 45.7208 15.3033 45.4788 15.2226 45.1676C15.0843 44.626 14.9691 44.0844 14.8077 43.5428C14.7271 43.2662 14.7617 42.9897 14.8308 42.7246Z" fill="#020303"/>
<path id="Vector_15" d="M14.8308 42.7246C15.1765 43.7617 15.3148 44.8565 15.7181 45.8706C13.6093 46.0319 11.7079 45.4903 10.0601 44.1651C8.42371 42.8514 7.50182 41.1344 7.24831 39.0371C7.17916 38.4148 7.19069 37.8156 7.28288 37.2048C7.80144 38.5531 8.5159 39.7515 9.61064 40.731C10.9819 41.9641 12.6068 42.6094 14.416 42.8283C14.5542 42.8399 14.7041 42.8168 14.8308 42.7246Z" fill="#E0BC02"/>
<path id="Vector_16" d="M38.7538 24.7018C39.9061 24.4367 41.0009 24.6557 42.0841 25.059C41.5194 25.1627 40.9548 25.2779 40.3901 25.3817C40.2403 25.4047 40.0905 25.4278 39.9522 25.4738C39.7448 25.5315 39.5489 25.6352 39.572 25.8887C39.5835 26.1422 39.8024 26.2114 39.9983 26.269C40.1942 26.3266 40.3901 26.3612 40.5976 26.4073C40.9433 26.5225 41.312 26.5571 41.6693 26.6723C42.1187 26.8221 42.4759 27.0295 42.7179 27.4444C42.8331 28.0206 42.9368 28.6083 43.0521 29.1844C43.0982 29.4264 43.1673 29.703 43.4554 29.703C43.7781 29.7145 43.8472 29.4264 43.8933 29.1614C43.9279 29.0001 43.9624 28.8387 44.0085 28.6774C44.239 28.5852 44.3542 28.7581 44.4695 28.8848C44.6078 29.0346 44.7 29.2305 44.8267 29.3919C44.9304 29.5186 44.988 29.8182 45.23 29.6454C45.4259 29.5071 45.2531 29.2997 45.1724 29.1499C44.9996 28.8157 44.8037 28.5045 44.5386 28.228C44.3773 28.0667 44.239 27.8938 44.239 27.6518C44.216 27.1909 44.2044 26.7414 44.746 26.5455C44.9074 26.8797 45.207 27.0756 45.4375 27.3522C46.2672 28.3202 46.8318 29.4264 47.0277 30.694C47.0508 31.7657 46.5437 32.6415 45.956 33.4712C45.1955 34.5314 44.2621 35.4187 43.1097 36.041C42.6603 36.283 42.2109 36.6287 41.6462 36.3751C41.4157 36.1792 41.3581 35.9027 41.289 35.6376C40.4478 32.2728 39.595 28.8963 38.7653 25.5315C38.6731 25.2319 38.5579 24.9668 38.7538 24.7018Z" fill="#FFD600"/>
<path id="Vector_17" d="M44.2159 27.6288C44.8151 28.0552 45.1724 28.6659 45.5065 29.2997C45.6218 29.5186 45.6448 29.7952 45.3798 29.945C45.1032 30.0948 44.8843 29.9681 44.7345 29.703C44.5155 29.3343 44.3427 28.9309 43.9969 28.6544C44.043 28.3087 44.02 27.9399 44.2159 27.6288Z" fill="#FFEC8A"/>
<path id="Vector_18" d="M42.7063 27.4214C42.038 26.995 41.312 26.7069 40.5975 26.3842C41.0815 26.3266 41.5655 26.4534 42.038 26.5225C42.522 26.6032 42.6833 26.9719 42.7063 27.4214Z" fill="#FFEC8A"/>
<path id="Vector_19" d="M38.7538 24.7018C39.595 28.0206 40.4247 31.3278 41.2659 34.6466C41.4042 35.2113 41.5655 35.7644 41.7153 36.3175C42.038 36.5365 42.0726 36.9168 42.1532 37.2509C42.2569 37.6427 42.3607 38.0345 42.4413 38.4379C42.4989 38.6914 42.4759 38.9103 42.303 39.1178C42.2685 39.4865 42.2224 39.8668 42.1878 40.2355C42.0956 40.4545 42.0149 40.6965 41.8997 40.9039C41.2083 42.16 39.7218 42.5287 38.5233 41.7451C37.6936 41.2035 37.2442 40.4084 37.0137 39.4635C35.9651 35.2458 34.928 31.0397 33.8793 26.8221C33.6949 26.0961 33.6488 25.3817 33.8563 24.6557C34.4094 22.7773 36.4491 22.2012 37.901 23.5148C38.0163 23.6186 38.12 23.7107 38.2352 23.8145C38.4081 24.1141 38.5809 24.4022 38.7538 24.7018Z" fill="#020303"/>
<path id="Vector_20" d="M42.303 39.1062C42.2224 38.1498 41.8421 37.2624 41.7153 36.3175C43.5706 35.8105 44.8497 34.5775 45.933 33.0563C46.4515 32.3304 46.6935 31.4891 47.0162 30.671C47.431 32.0999 47.2236 33.4942 46.682 34.8194C45.8523 36.8591 44.4349 38.3572 42.303 39.1062Z" fill="#E0BC02"/>
<path id="Vector_21" d="M35.919 41.9871C35.8844 42.1485 35.7576 42.2291 35.6193 42.2983C35.3889 42.4135 35.1469 42.3904 34.9049 42.3904C34.3979 42.402 34.0982 42.6324 34.0637 43.1625C34.0406 43.4276 33.9945 43.6811 33.9484 43.9346C33.9139 44.1075 33.8217 44.2573 33.6258 44.2803C33.4183 44.3034 33.3031 44.1651 33.257 43.9922C33.1764 43.7387 33.1072 43.4852 33.0957 43.2317C33.0611 42.7246 32.773 42.5057 32.3006 42.4711C32.0931 42.4481 31.8972 42.4135 31.6898 42.3674C31.4824 42.3213 31.275 42.2176 31.275 41.9756C31.275 41.7336 31.4824 41.6414 31.6898 41.5838C31.8166 41.5492 31.9433 41.5262 32.0701 41.5031C32.9574 41.3533 32.9689 41.3303 33.1303 40.4891C33.1879 40.1779 33.1303 39.6939 33.5682 39.6939C34.0406 39.6824 34.006 40.1664 34.0637 40.5006C34.1904 41.3072 34.2365 41.3648 35.0777 41.5031C35.2621 41.5377 35.4465 41.5607 35.6309 41.6184C35.7922 41.676 35.9074 41.7912 35.919 41.9871Z" fill="#FEFEFD"/>
<path id="Vector_22" d="M28.8896 21.6135C28.7974 21.8901 28.5554 21.9592 28.2904 21.9938C27.2302 22.1205 27.2302 22.1205 27.0689 23.1807C27.0573 23.2729 27.0343 23.3651 27.0228 23.4573C26.9882 23.6647 26.9306 23.8952 26.6771 23.8952C26.4351 23.8952 26.2968 23.6877 26.2853 23.4803C26.2853 22.4317 25.7437 21.9707 24.7296 21.9592C24.5452 21.9592 24.3608 21.8209 24.3493 21.602C24.3378 21.3485 24.5337 21.2102 24.7411 21.1987C25.7667 21.1756 26.3083 20.7262 26.1931 19.643C26.17 19.4471 26.3198 19.2857 26.5388 19.2627C26.7692 19.2512 26.873 19.424 26.9306 19.5969C26.9882 19.7697 27.0458 19.9656 27.0343 20.15C27.0343 20.8299 27.4261 21.0719 28.0368 21.1065C28.2443 21.118 28.4402 21.1756 28.6361 21.2447C28.7859 21.2908 28.8896 21.4061 28.8896 21.6135Z" fill="#FEFEFD"/>
<path id="Vector_23" d="M24.7181 33.1486C24.7181 32.1806 25.5247 31.3509 26.5042 31.3394C27.5068 31.3279 28.3365 32.1691 28.325 33.1601C28.3134 34.1396 27.4953 34.9463 26.5158 34.9348C25.5363 34.9463 24.7181 34.1281 24.7181 33.1486Z" fill="#FEFEFD"/>
<path id="Vector_24" d="M39.1225 18.1795C39.134 18.4445 39.0418 18.5828 38.8805 18.675C38.6961 18.7787 38.5002 18.7441 38.362 18.5828C38.2352 18.4445 38.143 18.2832 38.0393 18.1218C34.7666 13.0284 30.088 10.5048 24.0151 10.643C22.4364 10.6776 20.9037 11.0579 19.4172 11.6341C19.2559 11.6917 19.1061 11.7608 18.9447 11.7954C18.7143 11.8415 18.5299 11.7378 18.4492 11.5188C18.3801 11.3229 18.4492 11.1386 18.6221 11.0233C18.818 10.9081 19.0254 10.8159 19.2328 10.7352C26.7923 7.91195 34.951 11.1386 38.9266 17.7877C39.0188 17.949 39.0879 18.0988 39.1225 18.1795Z" fill="#9FAEB5"/>
<path id="Vector_25" d="M9.43784 21.3253C9.66831 20.5417 9.96792 19.8158 10.3136 19.1013C10.7976 18.1103 11.4084 17.1884 12.1113 16.3241C12.2957 16.0936 12.5262 15.8862 12.8258 16.1167C13.1254 16.3587 13.0447 16.6468 12.8258 16.9003C11.7195 18.2486 10.9244 19.7697 10.3597 21.406C10.2675 21.6595 10.1177 21.913 9.79507 21.8324C9.53002 21.7863 9.40326 21.5673 9.43784 21.3253Z" fill="#9FAEB5"/>
<path id="Vector_26" d="M19.7745 44.6952C19.7745 45.11 19.6477 45.4788 19.4633 45.836C18.9563 46.8616 17.7463 46.9192 16.9512 46.0089C16.594 45.594 16.4096 45.11 16.2828 44.603C15.2111 40.2932 14.151 35.9834 13.0793 31.6735C12.9179 31.0167 13.0217 30.4059 13.3443 29.8298C13.8053 29.0231 14.7271 28.8618 15.4531 29.461C15.9832 29.8874 16.3059 30.4405 16.4672 31.1089C17.5389 35.4533 18.6106 39.7977 19.6823 44.1536C19.7399 44.3264 19.7514 44.5108 19.7745 44.6952Z" fill="#202730"/>
<path id="Vector_27" d="M41.3812 39.1062C41.3927 39.5441 41.312 39.8552 41.1968 40.1433C40.7359 41.3533 39.6411 41.5838 38.7192 40.6849C38.2813 40.2586 38.0509 39.7515 37.9011 39.1754C36.8409 34.8886 35.7807 30.5903 34.709 26.3035C34.5477 25.6467 34.6514 25.0359 34.9741 24.4598C35.4811 23.5609 36.3684 23.4342 37.1405 24.1141C37.636 24.5519 37.9356 25.0936 38.097 25.7274C39.1571 30.0372 40.2288 34.347 41.289 38.6568C41.3351 38.8412 41.3697 39.0256 41.3812 39.1062Z" fill="#202730"/>
<path id="Vector_28" d="M26.5273 32.2151C27.0574 32.2151 27.4492 32.5954 27.4492 33.1255C27.4492 33.6556 27.0689 34.0589 26.5503 34.0704C25.9972 34.082 25.5823 33.6671 25.5939 33.1255C25.6054 32.6069 25.9972 32.2151 26.5273 32.2151Z" fill="#22BAB6"/>
<path id="Vector_29" d="M18.0805 40.5813C18.092 40.8578 17.9883 41.0652 17.7002 41.1229C17.4236 41.169 17.2853 40.9846 17.2277 40.7426C16.8014 38.9795 16.375 37.2164 15.9486 35.4533C15.891 35.1882 15.9717 34.9462 16.2482 34.8656C16.5248 34.7964 16.7322 34.9578 16.7898 35.2228C17.2162 36.9629 17.631 38.7144 18.0574 40.4545C18.0805 40.5121 18.0805 40.5467 18.0805 40.5813Z" fill="#9FAEB5"/>
<path id="Vector_30" d="M16.156 33.1371C16.156 33.4712 16.0638 33.7017 15.7757 33.7478C15.5107 33.7939 15.3494 33.6095 15.2917 33.3791C15.0728 32.4917 14.8539 31.6044 14.6464 30.7056C14.5888 30.4636 14.6695 30.2446 14.923 30.164C15.1765 30.0833 15.3955 30.1985 15.4646 30.4405C15.7066 31.3509 15.9371 32.2728 16.156 33.1371Z" fill="#9FAEB5"/>
<path id="Vector_31" d="M39.6987 34.7503C39.7102 35.073 39.6065 35.2689 39.353 35.315C39.0073 35.3726 38.8921 35.1191 38.8345 34.8541C38.5003 33.4943 38.1661 32.123 37.8434 30.7632C37.4401 29.0923 37.0368 27.4214 36.6219 25.7389C36.5989 25.6352 36.5643 25.52 36.5528 25.4047C36.5297 25.1512 36.5643 24.8862 36.8639 24.8285C37.1866 24.7594 37.3479 24.9784 37.4171 25.2549C37.4862 25.5084 37.5323 25.762 37.6014 26.0155C38.2813 28.8157 38.9612 31.6159 39.6411 34.4162C39.6642 34.5544 39.6872 34.6812 39.6987 34.7503Z" fill="#9FAEB5"/>
</g>
</svg>
