<svg width="35" height="35" viewBox="0 0 35 35" fill="none" xmlns="http://www.w3.org/2000/svg">
<rect width="35" height="35" rx="8" fill="#7A81FD"/>
<path fill-rule="evenodd" clip-rule="evenodd" d="M12.2327 12.2242C15.3952 9.06585 20.5369 9.09918 23.7185 12.2817C26.9019 15.465 26.9352 20.6092 23.7719 23.7717C20.6094 26.9342 15.4652 26.9017 12.2819 23.7184C11.3864 22.8266 10.7099 21.7395 10.3053 20.5423C9.90077 19.3451 9.77921 18.0704 9.95019 16.8184C9.97262 16.654 10.0594 16.5053 10.1915 16.405C10.3235 16.3047 10.49 16.2609 10.6544 16.2834C10.8187 16.3058 10.9674 16.3926 11.0677 16.5246C11.168 16.6567 11.2118 16.8232 11.1894 16.9875C11.0442 18.0486 11.1471 19.1289 11.4899 20.1435C11.8328 21.1581 12.4062 22.0794 13.1652 22.835C15.8694 25.5384 20.2219 25.5542 22.8885 22.8884C25.5544 20.2217 25.5385 15.8692 22.8352 13.165C20.1327 10.4634 15.7827 10.4459 13.116 13.1084L13.7394 13.1109C13.8214 13.1112 13.9026 13.1278 13.9783 13.1595C14.054 13.1913 14.1227 13.2377 14.1804 13.296C14.2382 13.3543 14.2839 13.4234 14.315 13.4994C14.346 13.5753 14.3618 13.6567 14.3614 13.7388C14.3611 13.8208 14.3445 13.902 14.3127 13.9777C14.281 14.0534 14.2346 14.1221 14.1763 14.1799C14.118 14.2376 14.0489 14.2833 13.9729 14.3144C13.8969 14.3454 13.8156 14.3612 13.7335 14.3609L11.6119 14.3509C11.4471 14.35 11.2894 14.2841 11.1729 14.1675C11.0565 14.0509 10.9908 13.8931 10.9902 13.7284L10.9794 11.6084C10.9789 11.5263 10.9946 11.4449 11.0257 11.3689C11.0567 11.2929 11.1023 11.2238 11.1601 11.1654C11.2178 11.1071 11.2864 11.0607 11.3621 11.0289C11.4378 10.9971 11.5189 10.9805 11.601 10.98C11.6831 10.9796 11.7645 10.9953 11.8405 11.0263C11.9164 11.0573 11.9856 11.103 12.0439 11.1607C12.1023 11.2184 12.1487 11.2871 12.1805 11.3628C12.2123 11.4384 12.2289 11.5196 12.2294 11.6017L12.2327 12.225V12.2242ZM17.9994 14.0409C18.1651 14.0409 18.3241 14.1067 18.4413 14.2239C18.5585 14.3411 18.6244 14.5001 18.6244 14.6659V17.7409L20.5252 19.6409C20.5849 19.6985 20.6326 19.7674 20.6653 19.8437C20.6981 19.9199 20.7154 20.0019 20.7162 20.0849C20.7169 20.1679 20.7012 20.2502 20.6698 20.327C20.6384 20.4038 20.592 20.4736 20.5334 20.5323C20.4747 20.5911 20.4049 20.6375 20.3281 20.669C20.2513 20.7004 20.1691 20.7163 20.0861 20.7156C20.0031 20.7149 19.9211 20.6977 19.8448 20.665C19.7685 20.6323 19.6995 20.5847 19.6419 20.525L17.3752 18.2584V14.6667C17.3752 14.5009 17.441 14.342 17.5582 14.2247C17.6755 14.1075 17.8344 14.0417 18.0002 14.0417L17.9994 14.0409Z" fill="white"/>
</svg>
