<svg width="21" height="21" viewBox="0 0 21 21" fill="none" xmlns="http://www.w3.org/2000/svg">
<g clip-path="url(#clip0_4475_818)">
<path d="M10.4348 0.65625C6.16914 0.65625 2.52695 3.4125 1.18164 7.21875H19.7535C18.3754 3.4125 14.7332 0.65625 10.4348 0.65625Z" fill="#F2B200"/>
<path d="M10.4348 20.3438C14.7332 20.3438 18.3754 17.6203 19.7207 13.7812H1.18164C2.52695 17.6203 6.16914 20.3438 10.4348 20.3438Z" fill="#83BF4F"/>
<path d="M1.18086 7.21875C0.819922 8.23594 0.623047 9.35156 0.623047 10.5C0.623047 11.6484 0.819922 12.7641 1.18086 13.7812H19.7527C20.1137 12.7641 20.3105 11.6484 20.3105 10.5C20.3105 9.35156 20.1137 8.23594 19.7527 7.21875H1.18086Z" fill="white"/>
<path d="M10.4336 13.125C11.8833 13.125 13.0586 11.9497 13.0586 10.5C13.0586 9.05025 11.8833 7.875 10.4336 7.875C8.98385 7.875 7.80859 9.05025 7.80859 10.5C7.80859 11.9497 8.98385 13.125 10.4336 13.125Z" fill="#428BC1"/>
<path d="M10.4336 12.7969C11.7021 12.7969 12.7305 11.7685 12.7305 10.5C12.7305 9.23147 11.7021 8.20312 10.4336 8.20312C9.16506 8.20312 8.13672 9.23147 8.13672 10.5C8.13672 11.7685 9.16506 12.7969 10.4336 12.7969Z" fill="white"/>
<path d="M9.58008 8.53125C9.67069 8.53125 9.74414 8.4578 9.74414 8.36719C9.74414 8.27658 9.67069 8.20312 9.58008 8.20312C9.48947 8.20312 9.41602 8.27658 9.41602 8.36719C9.41602 8.4578 9.48947 8.53125 9.58008 8.53125Z" fill="#428BC1"/>
<path d="M9.05664 8.82654C9.14725 8.82654 9.2207 8.75308 9.2207 8.66248C9.2207 8.57187 9.14725 8.49841 9.05664 8.49841C8.96603 8.49841 8.89258 8.57187 8.89258 8.66248C8.89258 8.75308 8.96603 8.82654 9.05664 8.82654Z" fill="#428BC1"/>
<path d="M8.62891 9.25311C8.71952 9.25311 8.79297 9.17966 8.79297 9.08905C8.79297 8.99844 8.71952 8.92499 8.62891 8.92499C8.5383 8.92499 8.46484 8.99844 8.46484 9.08905C8.46484 9.17966 8.5383 9.25311 8.62891 9.25311Z" fill="#428BC1"/>
<path d="M8.33398 9.77814C8.42459 9.77814 8.49805 9.70468 8.49805 9.61407C8.49805 9.52347 8.42459 9.45001 8.33398 9.45001C8.24338 9.45001 8.16992 9.52347 8.16992 9.61407C8.16992 9.70468 8.24338 9.77814 8.33398 9.77814Z" fill="#428BC1"/>
<path d="M8.16992 10.3687C8.26053 10.3687 8.33398 10.2953 8.33398 10.2047C8.33398 10.1141 8.26053 10.0406 8.16992 10.0406C8.07931 10.0406 8.00586 10.1141 8.00586 10.2047C8.00586 10.2953 8.07931 10.3687 8.16992 10.3687Z" fill="#428BC1"/>
<path d="M8.16992 10.9594C8.26053 10.9594 8.33398 10.8859 8.33398 10.7953C8.33398 10.7047 8.26053 10.6312 8.16992 10.6312C8.07931 10.6312 8.00586 10.7047 8.00586 10.7953C8.00586 10.8859 8.07931 10.9594 8.16992 10.9594Z" fill="#428BC1"/>
<path d="M8.33398 11.55C8.42459 11.55 8.49805 11.4765 8.49805 11.3859C8.49805 11.2953 8.42459 11.2219 8.33398 11.2219C8.24338 11.2219 8.16992 11.2953 8.16992 11.3859C8.16992 11.4765 8.24338 11.55 8.33398 11.55Z" fill="#428BC1"/>
<path d="M8.62891 12.075C8.71952 12.075 8.79297 12.0015 8.79297 11.9109C8.79297 11.8203 8.71952 11.7469 8.62891 11.7469C8.5383 11.7469 8.46484 11.8203 8.46484 11.9109C8.46484 12.0015 8.5383 12.075 8.62891 12.075Z" fill="#428BC1"/>
<path d="M9.05664 12.5016C9.14725 12.5016 9.2207 12.4281 9.2207 12.3375C9.2207 12.2469 9.14725 12.1734 9.05664 12.1734C8.96603 12.1734 8.89258 12.2469 8.89258 12.3375C8.89258 12.4281 8.96603 12.5016 9.05664 12.5016Z" fill="#428BC1"/>
<path d="M9.58008 12.7969C9.67069 12.7969 9.74414 12.7234 9.74414 12.6328C9.74414 12.5422 9.67069 12.4688 9.58008 12.4688C9.48947 12.4688 9.41602 12.5422 9.41602 12.6328C9.41602 12.7234 9.48947 12.7969 9.58008 12.7969Z" fill="#428BC1"/>
<path d="M10.1387 12.9281C10.2293 12.9281 10.3027 12.8546 10.3027 12.764C10.3027 12.6734 10.2293 12.6 10.1387 12.6C10.0481 12.6 9.97461 12.6734 9.97461 12.764C9.97461 12.8546 10.0481 12.9281 10.1387 12.9281Z" fill="#428BC1"/>
<path d="M10.5977 12.7969C10.5977 12.6984 10.6633 12.6328 10.7289 12.6C10.8273 12.6 10.893 12.6656 10.9258 12.7312C10.9258 12.8297 10.8602 12.8953 10.7945 12.9281C10.6633 12.9609 10.5977 12.8953 10.5977 12.7969Z" fill="#428BC1"/>
<path d="M11.3203 12.7969C11.4109 12.7969 11.4844 12.7234 11.4844 12.6328C11.4844 12.5422 11.4109 12.4688 11.3203 12.4688C11.2297 12.4688 11.1562 12.5422 11.1562 12.6328C11.1562 12.7234 11.2297 12.7969 11.3203 12.7969Z" fill="#428BC1"/>
<path d="M11.8457 12.5016C11.9363 12.5016 12.0098 12.4281 12.0098 12.3375C12.0098 12.2469 11.9363 12.1734 11.8457 12.1734C11.7551 12.1734 11.6816 12.2469 11.6816 12.3375C11.6816 12.4281 11.7551 12.5016 11.8457 12.5016Z" fill="#428BC1"/>
<path d="M12.2715 12.075C12.3621 12.075 12.4355 12.0015 12.4355 11.9109C12.4355 11.8203 12.3621 11.7469 12.2715 11.7469C12.1809 11.7469 12.1074 11.8203 12.1074 11.9109C12.1074 12.0015 12.1809 12.075 12.2715 12.075Z" fill="#428BC1"/>
<path d="M12.5664 11.55C12.657 11.55 12.7305 11.4765 12.7305 11.3859C12.7305 11.2953 12.657 11.2219 12.5664 11.2219C12.4758 11.2219 12.4023 11.2953 12.4023 11.3859C12.4023 11.4765 12.4758 11.55 12.5664 11.55Z" fill="#428BC1"/>
<path d="M12.7305 10.9594C12.8211 10.9594 12.8945 10.8859 12.8945 10.7953C12.8945 10.7047 12.8211 10.6312 12.7305 10.6312C12.6399 10.6312 12.5664 10.7047 12.5664 10.7953C12.5664 10.8859 12.6399 10.9594 12.7305 10.9594Z" fill="#428BC1"/>
<path d="M12.7301 10.3687C12.6316 10.3687 12.566 10.3031 12.5332 10.2375C12.5332 10.1391 12.5988 10.0734 12.6645 10.0406C12.7629 10.0406 12.8285 10.1062 12.8613 10.1719C12.8941 10.2703 12.8285 10.3359 12.7301 10.3687Z" fill="#428BC1"/>
<path d="M12.5664 9.77814C12.657 9.77814 12.7305 9.70468 12.7305 9.61407C12.7305 9.52347 12.657 9.45001 12.5664 9.45001C12.4758 9.45001 12.4023 9.52347 12.4023 9.61407C12.4023 9.70468 12.4758 9.77814 12.5664 9.77814Z" fill="#428BC1"/>
<path d="M12.2715 9.25311C12.3621 9.25311 12.4355 9.17966 12.4355 9.08905C12.4355 8.99844 12.3621 8.92499 12.2715 8.92499C12.1809 8.92499 12.1074 8.99844 12.1074 9.08905C12.1074 9.17966 12.1809 9.25311 12.2715 9.25311Z" fill="#428BC1"/>
<path d="M11.8457 8.82654C11.9363 8.82654 12.0098 8.75308 12.0098 8.66248C12.0098 8.57187 11.9363 8.49841 11.8457 8.49841C11.7551 8.49841 11.6816 8.57187 11.6816 8.66248C11.6816 8.75308 11.7551 8.82654 11.8457 8.82654Z" fill="#428BC1"/>
<path d="M11.484 8.4328C11.4512 8.53124 11.3527 8.56405 11.2543 8.53124C11.1559 8.49843 11.123 8.39999 11.1559 8.30155C11.1887 8.20312 11.2871 8.1703 11.3855 8.20312C11.484 8.26874 11.5168 8.36718 11.484 8.4328ZM10.8934 8.23593C10.8934 8.33437 10.7949 8.39999 10.6965 8.36718C10.598 8.36718 10.5324 8.26874 10.5652 8.1703C10.5652 8.07187 10.6637 8.00624 10.7621 8.03905C10.8605 8.07187 10.9262 8.1703 10.8934 8.23593ZM10.3027 8.20312C10.3027 8.30155 10.2371 8.36718 10.1715 8.39999C10.073 8.39999 10.0074 8.33437 9.97461 8.26874C9.97461 8.1703 10.0402 8.10468 10.1059 8.07187C10.2043 8.03905 10.3027 8.10468 10.3027 8.20312Z" fill="#428BC1"/>
<path d="M10.4336 10.9922C10.7054 10.9922 10.9258 10.7718 10.9258 10.5C10.9258 10.2282 10.7054 10.0078 10.4336 10.0078C10.1618 10.0078 9.94141 10.2282 9.94141 10.5C9.94141 10.7718 10.1618 10.9922 10.4336 10.9922Z" fill="#428BC1"/>
<path d="M10.4344 8.20312L10.3688 9.61406L10.4344 10.5L10.5328 9.61406L10.4344 8.20312ZM9.84375 8.26875L10.1391 9.67969L10.4344 10.5L10.3031 9.61406L9.84375 8.26875Z" fill="#428BC1"/>
<path d="M9.28555 8.49841L9.9418 9.7781L10.434 10.5L10.073 9.67966L9.28555 8.49841ZM8.82617 8.85935L9.77773 9.94216L10.434 10.5L9.87617 9.81091L8.82617 8.85935Z" fill="#428BC1"/>
<path d="M8.46484 9.35156L9.64609 10.1391L10.4336 10.5L9.71172 9.975L8.46484 9.35156Z" fill="#428BC1"/>
<path d="M8.23516 9.90936L9.58047 10.3359L10.4336 10.5L9.61328 10.2047L8.23516 9.90936ZM8.13672 10.5L9.58047 10.5656L10.4336 10.5L9.58047 10.4344L8.13672 10.5Z" fill="#428BC1"/>
<path d="M8.23633 11.0906L9.61445 10.7953L10.4348 10.5L9.58164 10.6641L8.23633 11.0906ZM8.46602 11.6484L9.71289 11.025L10.4348 10.5L9.64727 10.8609L8.46602 11.6484Z" fill="#428BC1"/>
<path d="M8.82617 12.1078L9.87617 11.1891L10.434 10.5L9.77773 11.0578L8.82617 12.1078ZM9.28555 12.5016L10.073 11.2875L10.434 10.5L9.9418 11.2219L9.28555 12.5016Z" fill="#428BC1"/>
<path d="M9.84375 12.7312L10.3031 11.3859L10.4344 10.5L10.1391 11.3203L9.84375 12.7312ZM10.4344 12.7969L10.5328 11.3859L10.4344 10.5L10.3688 11.3859L10.4344 12.7969ZM11.025 12.7312L10.7625 11.3203L10.4344 10.5L10.5984 11.3859L11.025 12.7312Z" fill="#428BC1"/>
<path d="M11.582 12.5016L10.9586 11.2219L10.4336 10.5L10.8273 11.3203L11.582 12.5016ZM12.0742 12.1078L11.1227 11.0578L10.4336 10.5L11.0242 11.1891L12.0742 12.1078Z" fill="#428BC1"/>
<path d="M12.4352 11.6484L11.2539 10.8609L10.4336 10.5L11.1555 11.025L12.4352 11.6484ZM12.6648 11.0906L11.3195 10.6641L10.4336 10.5L11.2867 10.7953L12.6648 11.0906ZM12.7305 10.5L11.3195 10.4016L10.4336 10.5L11.3195 10.5656L12.7305 10.5ZM12.6648 9.90936L11.2867 10.2047L10.4336 10.5L11.3195 10.3359L12.6648 9.90936Z" fill="#428BC1"/>
<path d="M12.4352 9.35153L11.1555 9.97496L10.4336 10.5L11.2539 10.139L12.4352 9.35153ZM12.0742 8.89215L11.0242 9.8109L10.4336 10.5L11.1227 9.94215L12.0742 8.89215Z" fill="#428BC1"/>
<path d="M11.582 8.49841L10.8273 9.71248L10.4336 10.5L10.9586 9.7781L11.582 8.49841Z" fill="#428BC1"/>
<path d="M11.057 8.26874L10.5977 9.61405L10.4336 10.5L10.7617 9.67968L11.057 8.26874Z" fill="#428BC1"/>
</g>
<defs>
<clipPath id="clip0_4475_818">
<rect width="21" height="21" fill="white"/>
</clipPath>
</defs>
</svg>
