<svg width="25" height="25" viewBox="0 0 25 25" fill="none" xmlns="http://www.w3.org/2000/svg">
<g clip-path="url(#clip0_9479_2412)">
<path d="M15.8333 20.8333V21.6667C16.0543 21.6667 16.2663 21.5789 16.4226 21.4226C16.5789 21.2663 16.6667 21.0543 16.6667 20.8333H15.8333ZM9.16667 20.8333H8.33333C8.33333 21.0543 8.42113 21.2663 8.57741 21.4226C8.73369 21.5789 8.94565 21.6667 9.16667 21.6667V20.8333ZM10 25H15V23.3333H10V25ZM5.96667 10.6667L5.95 10.7833L7.6 11.0167L7.61833 10.9L5.96667 10.6667ZM12.5 5C10.9112 4.99973 9.37572 5.57273 8.17551 6.61372C6.9753 7.65472 6.191 9.09382 5.96667 10.6667L7.61833 10.9C7.78644 9.72476 8.3712 8.6496 9.26826 7.87195C10.1653 7.09429 11.3128 6.66634 12.5 6.66667V5ZM19.0333 10.6667C18.809 9.09382 18.0247 7.65472 16.8245 6.61372C15.6243 5.57273 14.0888 4.99973 12.5 5V6.66667C13.6871 6.66669 14.8344 7.09476 15.7314 7.87235C16.6284 8.64994 17.2149 9.7249 17.3833 10.9L19.0333 10.6667ZM19.05 10.7833L19.0333 10.6667L17.3833 10.9L17.3983 11.0167L19.05 10.7833ZM17.7333 15.765C18.7833 14.4083 19.3133 12.6417 19.05 10.7833L17.4 11.0183C17.4955 11.6737 17.4576 12.3416 17.2886 12.982C17.1196 13.6224 16.823 14.222 16.4167 14.745L17.7333 15.765ZM15 18.1667V20.8333H16.6667V18.1683H15V18.1667ZM15.8333 20H9.16667V21.6667H15.8333V20ZM10 20.8333V18.1683H8.33333V20.8333H10ZM5.95 10.7833C5.82331 11.6596 5.87461 12.5523 6.10084 13.4083C6.32707 14.2642 6.72358 15.0658 7.26667 15.765L8.585 14.745C8.17862 14.222 7.88039 13.6224 7.71142 12.982C7.54244 12.3416 7.50455 11.672 7.6 11.0167L5.95 10.7833ZM10 18.1667C10 16.795 9.27 15.6283 8.58333 14.7433L7.26667 15.765C7.905 16.59 8.33333 17.3767 8.33333 18.1667H10ZM16.4167 14.7433C15.7283 15.63 15 16.795 15 18.1667H16.6667C16.6667 17.3767 17.095 16.59 17.7333 15.765L16.4167 14.7433ZM11.6667 0V3.33333H13.3333V0H11.6667ZM0 13.3333H3.33333V11.6667H0V13.3333ZM21.6667 13.3333H25V11.6667H21.6667V13.3333ZM5.59 6.07667L3.09 3.57667L1.91 4.75667L4.41 7.25667L5.59 6.07667ZM20.59 7.25667L23.09 4.75667L21.91 3.57667L19.41 6.07667L20.59 7.25667Z" fill="white"/>
</g>
<defs>
<clipPath id="clip0_9479_2412">
<rect width="25" height="25" fill="white"/>
</clipPath>
</defs>
</svg>
