<svg width="19" height="19" viewBox="0 0 19 19" fill="none" xmlns="http://www.w3.org/2000/svg">
<path fill-rule="evenodd" clip-rule="evenodd" d="M6.23524 9.4998C6.23524 9.34233 6.29779 9.1913 6.40914 9.07995C6.52049 8.96861 6.67151 8.90605 6.82899 8.90605H15.5159L13.9635 7.57605C13.9042 7.52531 13.8555 7.46341 13.8202 7.39386C13.7849 7.32431 13.7636 7.24848 13.7576 7.1707C13.7515 7.09293 13.7609 7.01472 13.7851 6.94056C13.8093 6.8664 13.8478 6.79772 13.8986 6.73847C13.9493 6.67921 14.0112 6.63052 14.0808 6.59519C14.1503 6.55985 14.2261 6.53857 14.3039 6.53254C14.3817 6.52651 14.4599 6.53586 14.5341 6.56006C14.6082 6.58425 14.6769 6.62282 14.7362 6.67355L17.507 9.04855C17.5722 9.10429 17.6245 9.17349 17.6604 9.25139C17.6963 9.32929 17.7148 9.41403 17.7148 9.4998C17.7148 9.58556 17.6963 9.67031 17.6604 9.74821C17.6245 9.82611 17.5722 9.89531 17.507 9.95105L14.7362 12.326C14.6165 12.4285 14.461 12.4792 14.3039 12.4671C14.1468 12.4549 14.001 12.3808 13.8986 12.2611C13.7961 12.1415 13.7454 11.986 13.7576 11.8289C13.7697 11.6718 13.8438 11.526 13.9635 11.4235L15.5152 10.0935H6.82899C6.67151 10.0935 6.52049 10.031 6.40914 9.91964C6.29779 9.80829 6.23524 9.65727 6.23524 9.4998Z" fill="white"/>
<path d="M11.5781 6.33325C11.5781 6.889 11.5781 7.16688 11.4443 7.36717C11.3867 7.45329 11.3127 7.52725 11.2266 7.58488C11.0263 7.71867 10.7485 7.71867 10.1927 7.71867H6.82812C6.35571 7.71867 5.90264 7.90634 5.56859 8.24038C5.23454 8.57443 5.04688 9.0275 5.04688 9.49992C5.04688 9.97233 5.23454 10.4254 5.56859 10.7595C5.90264 11.0935 6.35571 11.2812 6.82812 11.2812H10.1927C10.7485 11.2812 11.0263 11.2812 11.2266 11.4142C11.3128 11.472 11.3868 11.5463 11.4443 11.6327C11.5781 11.833 11.5781 12.1108 11.5781 12.6666C11.5781 14.9054 11.5781 16.0256 10.8823 16.7207C10.1872 17.4166 9.06775 17.4166 6.82892 17.4166H6.03725C3.79683 17.4166 2.67821 17.4166 1.98233 16.7207C1.28646 16.0256 1.28646 14.9054 1.28646 12.6666V6.33325C1.28646 4.09442 1.28646 2.97421 1.98233 2.27913C2.67821 1.58325 3.79762 1.58325 6.03646 1.58325H6.82812C9.06775 1.58325 10.1872 1.58325 10.8823 2.27913C11.5781 2.97421 11.5781 4.09442 11.5781 6.33325Z" fill="white"/>
</svg>
