<svg width="20" height="20" viewBox="0 0 20 20" fill="none" xmlns="http://www.w3.org/2000/svg">
<path d="M9.02939 1.66325H10.9792C10.9845 1.66325 10.9896 1.66114 10.9933 1.65739C10.9971 1.65364 10.9992 1.64856 10.9992 1.64325C11.0008 1.2608 10.9371 0.792933 11.1583 0.456305C11.6216 -0.247782 12.6819 -0.109881 12.9464 0.687529C13.031 0.942499 12.9989 1.32871 12.9998 1.6345C12.9998 1.64213 13.0028 1.64944 13.0082 1.65483C13.0136 1.66022 13.0209 1.66325 13.0285 1.66325H14.9783C14.9837 1.66325 14.9889 1.66114 14.9927 1.65739C14.9966 1.65364 14.9987 1.64856 14.9987 1.64325C15.0004 1.2608 14.9366 0.792933 15.1579 0.456305C15.6211 -0.247782 16.6814 -0.109881 16.946 0.687529C17.031 0.943333 16.9985 1.33121 16.9993 1.63784C16.9993 1.65395 17.0074 1.662 17.0235 1.662C17.6217 1.6645 18.2186 1.66464 18.8141 1.66242C19.6223 1.65992 19.999 2.05654 19.9986 2.85603C19.9983 7.31691 19.9983 11.7777 19.9986 16.2383C19.9986 16.3355 19.9884 16.408 19.9681 16.4557C19.8548 16.7232 19.4824 16.7265 19.3636 16.4607C19.3425 16.4132 19.332 16.3423 19.332 16.2478C19.332 12.8368 19.332 9.42681 19.332 6.01775C19.332 6.01201 19.3297 6.0065 19.3256 6.00244C19.3216 5.99837 19.316 5.99609 19.3103 5.99609H0.689088C0.686243 5.99609 0.683426 5.99664 0.680798 5.99771C0.678169 5.99878 0.675781 6.00034 0.673769 6.00231C0.671758 6.00429 0.670162 6.00663 0.669073 6.00921C0.667984 6.01178 0.667424 6.01455 0.667424 6.01734C0.667146 6.53256 0.667146 7.05083 0.667424 7.57216C0.667702 7.66965 0.657703 7.74228 0.637427 7.79005C0.52369 8.05711 0.151233 8.06085 0.0324963 7.79505C0.0113876 7.74756 0.000833257 7.67673 0.000833257 7.58258C0.001111 6.00609 0.000833238 4.42946 0 2.8527C0 2.6355 0.0187479 2.46941 0.0562436 2.35442C0.232057 1.8174 0.662425 1.66158 1.18986 1.66242C1.78619 1.66353 2.38195 1.66367 2.97716 1.66283C2.98324 1.66283 2.98907 1.66042 2.99336 1.65612C2.99766 1.65183 3.00007 1.646 3.00007 1.63992C3.00174 1.25871 2.938 0.792517 3.15922 0.456305C3.6225 -0.247782 4.6828 -0.109881 4.94735 0.687529C5.03193 0.942499 4.99985 1.32871 5.00068 1.6345C5.00068 1.65367 5.01026 1.66325 5.02943 1.66325H6.9792C6.98462 1.66325 6.98981 1.66114 6.99364 1.65739C6.99747 1.65364 6.99962 1.64856 6.99962 1.64325C7.00129 1.2608 6.93754 0.792933 7.15877 0.456305C7.62871 -0.258197 8.69901 -0.102381 8.95315 0.70586C9.03189 0.957081 8.99606 1.33495 9.00147 1.63575C9.00175 1.65408 9.01106 1.66325 9.02939 1.66325ZM4.33201 0.989994C4.33201 0.904361 4.29799 0.822235 4.23744 0.761684C4.17689 0.701132 4.09476 0.667114 4.00913 0.667114H3.99163C3.906 0.667114 3.82387 0.701132 3.76332 0.761684C3.70277 0.822235 3.66875 0.904361 3.66875 0.989994V3.0031C3.66875 3.08873 3.70277 3.17086 3.76332 3.23141C3.82387 3.29196 3.906 3.32598 3.99163 3.32598H4.00913C4.09476 3.32598 4.17689 3.29196 4.23744 3.23141C4.29799 3.17086 4.33201 3.08873 4.33201 3.0031V0.989994ZM8.33155 0.989994C8.33155 0.904361 8.29753 0.822235 8.23698 0.761684C8.17643 0.701132 8.0943 0.667114 8.00867 0.667114H7.99117C7.90554 0.667114 7.82341 0.701132 7.76286 0.761684C7.70231 0.822235 7.66829 0.904361 7.66829 0.989994V3.0031C7.66829 3.08873 7.70231 3.17086 7.76286 3.23141C7.82341 3.29196 7.90554 3.32598 7.99117 3.32598H8.00867C8.0943 3.32598 8.17643 3.29196 8.23698 3.23141C8.29753 3.17086 8.33155 3.08873 8.33155 3.0031V0.989994ZM12.3311 0.989994C12.3311 0.904361 12.2971 0.822235 12.2365 0.761684C12.176 0.701132 12.0938 0.667114 12.0082 0.667114H11.9907C11.9051 0.667114 11.823 0.701132 11.7624 0.761684C11.7019 0.822235 11.6678 0.904361 11.6678 0.989994V3.0031C11.6678 3.08873 11.7019 3.17086 11.7624 3.23141C11.823 3.29196 11.9051 3.32598 11.9907 3.32598H12.0082C12.0938 3.32598 12.176 3.29196 12.2365 3.23141C12.2971 3.17086 12.3311 3.08873 12.3311 3.0031V0.989994ZM16.3306 0.989994C16.3306 0.904361 16.2966 0.822235 16.2361 0.761684C16.1755 0.701132 16.0934 0.667114 16.0078 0.667114H15.9903C15.9046 0.667114 15.8225 0.701132 15.762 0.761684C15.7014 0.822235 15.6674 0.904361 15.6674 0.989994V3.0031C15.6674 3.08873 15.7014 3.17086 15.762 3.23141C15.8225 3.29196 15.9046 3.32598 15.9903 3.32598H16.0078C16.0934 3.32598 16.1755 3.29196 16.2361 3.23141C16.2966 3.17086 16.3306 3.08873 16.3306 3.0031V0.989994ZM8.53861 3.83675C7.96868 4.19046 7.23793 3.91549 7.04878 3.28848C6.96837 3.02226 7.00129 2.65397 6.99962 2.34984C6.99951 2.3445 6.99735 2.33941 6.99362 2.33568C6.98988 2.33194 6.98485 2.32984 6.97962 2.32984H5.02943C5.01026 2.32984 5.00068 2.33942 5.00068 2.35859C4.99901 2.92394 5.079 3.50471 4.53907 3.83717C3.96288 4.19171 3.2263 3.91049 3.04465 3.27557C2.97008 3.01518 3.00174 2.65105 3.00007 2.35276C3.00007 2.34675 2.99767 2.34098 2.99339 2.3367C2.9891 2.33241 2.98327 2.32995 2.97716 2.32984C2.34029 2.32956 1.70272 2.3297 1.06446 2.33026C0.754914 2.33067 0.667424 2.48691 0.667424 2.78521C0.667424 3.62928 0.667424 4.47015 0.667424 5.30784C0.667424 5.31068 0.667984 5.3135 0.669073 5.31613C0.670162 5.31875 0.671758 5.32114 0.673769 5.32315C0.675781 5.32517 0.678169 5.32676 0.680798 5.32785C0.683426 5.32894 0.686243 5.3295 0.689088 5.3295H19.3103C19.316 5.3295 19.3216 5.32726 19.3256 5.32328C19.3297 5.31929 19.332 5.31389 19.332 5.30825C19.3322 4.44835 19.3321 3.58775 19.3315 2.72646C19.3311 2.41733 19.1728 2.33067 18.8758 2.32984C18.2597 2.32873 17.6423 2.32901 17.0235 2.33067C17.0074 2.33067 16.9993 2.33873 16.9993 2.35484C16.9976 2.92061 17.0785 3.50387 16.5377 3.83717C15.9623 4.1913 15.2262 3.91091 15.0437 3.27682C14.9687 3.01518 15.0004 2.6498 14.9983 2.34942C14.9983 2.34685 14.9978 2.3443 14.9968 2.34193C14.9958 2.33955 14.9944 2.33739 14.9926 2.33558C14.9907 2.33376 14.9886 2.33232 14.9862 2.33133C14.9838 2.33035 14.9813 2.32984 14.9787 2.32984H13.0285C13.0209 2.32984 13.0136 2.33287 13.0082 2.33826C13.0028 2.34365 12.9998 2.35096 12.9998 2.35859C12.9981 2.92394 13.0781 3.50471 12.5382 3.83717C11.9628 4.1913 11.2266 3.91091 11.0442 3.27682C10.9692 3.01518 11.0008 2.6498 10.9987 2.34942C10.9987 2.34423 10.9967 2.33925 10.993 2.33558C10.9893 2.3319 10.9844 2.32984 10.9792 2.32984H9.02897C9.00981 2.32984 9.00022 2.33942 9.00022 2.35859C8.99856 2.92602 9.07897 3.50137 8.53861 3.83675Z" fill="black"/>
<path d="M13.8342 7.99736C13.4773 7.99514 13.1194 7.99486 12.7606 7.99653C12.6589 7.9968 12.5835 7.98625 12.5343 7.96486C12.2715 7.85071 12.2685 7.48533 12.5281 7.36285C12.5748 7.34091 12.6425 7.32993 12.7314 7.32993C13.3691 7.32966 14.007 7.32938 14.6449 7.3291C14.9295 7.32869 14.9986 7.53408 14.9986 7.7903C14.9992 8.38412 14.9993 8.97808 14.9991 9.57218C14.9991 9.66967 14.9889 9.7423 14.9686 9.79007C14.8553 10.0571 14.4825 10.0613 14.3645 9.79507C14.3437 9.74785 14.3332 9.67689 14.3329 9.58218C14.3323 9.21833 14.3322 8.85907 14.3325 8.50438C14.3325 8.48078 14.3241 8.4773 14.3075 8.49397C13.2848 9.5183 12.2592 10.544 11.2307 11.5711C11.0712 11.7307 10.867 11.6669 10.7158 11.517C10.1609 10.9656 9.59565 10.4008 9.02016 9.82257C9.00683 9.80924 8.99336 9.80924 8.97975 9.82257C7.88376 10.9194 6.78375 12.0195 5.6797 13.123C5.57 13.2327 5.48014 13.2986 5.41015 13.3205C5.18601 13.3913 4.92854 13.1289 5.01228 12.8964C5.03228 12.8408 5.08491 12.7704 5.17018 12.6852C6.33338 11.5217 7.49658 10.3583 8.65978 9.19514C8.84601 9.00933 9.03932 8.89309 9.25305 9.10765C9.82826 9.68536 10.4049 10.262 10.9829 10.8375C10.9942 10.8488 11.0056 10.8488 11.017 10.8375L13.8413 8.01402C13.8427 8.01271 13.8436 8.01102 13.844 8.00915C13.8444 8.00729 13.8442 8.00534 13.8434 8.00355C13.8427 8.00177 13.8414 8.00022 13.8397 7.99912C13.8381 7.99802 13.8362 7.9974 13.8342 7.99736Z" fill="black"/>
<path d="M0.0564133 8.82004C0.188065 8.59715 0.514278 8.62257 0.627182 8.84546C0.654123 8.89934 0.667594 8.98252 0.667594 9.09501C0.668149 12.3546 0.668288 15.6143 0.66801 18.8739C0.66801 19.1576 0.752584 19.3276 1.05213 19.3276C6.99368 19.3276 12.9354 19.3276 18.8772 19.3276C19.1751 19.3276 19.3313 19.2389 19.3321 18.9306C19.333 18.5378 19.333 18.145 19.3321 17.7519C19.3321 17.6542 19.3423 17.5813 19.3625 17.5332C19.4759 17.2653 19.8487 17.2632 19.9666 17.5291C19.9878 17.5763 19.9983 17.6471 19.9983 17.7415C19.9983 18.0826 19.9989 18.4238 20 18.7652C20.0008 19.0026 19.9822 19.1808 19.9441 19.2997C19.7675 19.8525 19.3267 19.9946 18.7864 19.9946C12.9231 19.994 7.05978 19.9939 1.19628 19.9942C0.667594 19.9946 0.238059 19.8467 0.0601629 19.3101C0.0223894 19.1957 0.00336382 19.0299 0.00308608 18.8127C-0.00246885 15.5722 -0.000524649 12.3317 0.00891872 9.09126C0.00919646 8.96378 0.025028 8.87337 0.0564133 8.82004Z" fill="black"/>
<path d="M15.3343 17.6524C15.3343 17.7431 15.2983 17.8301 15.2341 17.8943C15.17 17.9584 15.083 17.9944 14.9923 17.9944H13.01C12.9193 17.9944 12.8323 17.9584 12.7682 17.8943C12.704 17.8301 12.668 17.7431 12.668 17.6524V12.3372C12.668 12.2464 12.704 12.1594 12.7682 12.0953C12.8323 12.0312 12.9193 11.9951 13.01 11.9951H14.9923C15.083 11.9951 15.17 12.0312 15.2341 12.0953C15.2983 12.1594 15.3343 12.2464 15.3343 12.3372V17.6524ZM14.6677 12.685C14.6677 12.682 14.6671 12.6789 14.666 12.6761C14.6648 12.6733 14.6631 12.6707 14.6609 12.6685C14.6587 12.6664 14.6562 12.6647 14.6533 12.6635C14.6505 12.6623 14.6475 12.6617 14.6444 12.6617H13.3579C13.3548 12.6617 13.3518 12.6623 13.349 12.6635C13.3461 12.6647 13.3436 12.6664 13.3414 12.6685C13.3392 12.6707 13.3375 12.6733 13.3363 12.6761C13.3352 12.6789 13.3346 12.682 13.3346 12.685V17.3045C13.3346 17.3107 13.337 17.3166 13.3414 17.321C13.3458 17.3254 13.3517 17.3278 13.3579 17.3278H14.6444C14.6506 17.3278 14.6565 17.3254 14.6609 17.321C14.6653 17.3166 14.6677 17.3107 14.6677 17.3045V12.685Z" fill="black"/>
<path d="M11.3343 17.6527C11.3343 17.7434 11.2983 17.8304 11.2341 17.8946C11.17 17.9587 11.083 17.9947 10.9923 17.9947H9.01001C8.9193 17.9947 8.8323 17.9587 8.76815 17.8946C8.70401 17.8304 8.66797 17.7434 8.66797 17.6527V13.6707C8.66797 13.6257 8.67682 13.5813 8.69401 13.5398C8.71119 13.4983 8.73639 13.4606 8.76815 13.4288C8.79991 13.397 8.83762 13.3718 8.87912 13.3546C8.92062 13.3375 8.9651 13.3286 9.01001 13.3286H10.9923C11.083 13.3286 11.17 13.3647 11.2341 13.4288C11.2983 13.4929 11.3343 13.5799 11.3343 13.6707V17.6527ZM10.6677 14.019C10.6677 14.0127 10.6652 14.0066 10.6608 14.0022C10.6563 13.9977 10.6503 13.9952 10.644 13.9952H9.35831C9.35201 13.9952 9.34597 13.9977 9.34151 14.0022C9.33706 14.0066 9.33456 14.0127 9.33456 14.019V17.3044C9.33456 17.3107 9.33706 17.3167 9.34151 17.3212C9.34597 17.3257 9.35201 17.3282 9.35831 17.3282H10.644C10.6503 17.3282 10.6563 17.3257 10.6608 17.3212C10.6652 17.3167 10.6677 17.3107 10.6677 17.3044V14.019Z" fill="black"/>
<path d="M7.33042 17.6555C7.33026 17.7461 7.29412 17.833 7.22994 17.8969C7.16576 17.9609 7.07881 17.9967 6.9882 17.9966L5.00509 17.9931C4.96023 17.993 4.91582 17.9841 4.8744 17.9669C4.83299 17.9496 4.79537 17.9244 4.7637 17.8926C4.73203 17.8608 4.70694 17.8231 4.68984 17.7817C4.67274 17.7402 4.66398 17.6957 4.66406 17.6509L4.66869 15.0012C4.66885 14.9106 4.70499 14.8238 4.76917 14.7598C4.83335 14.6958 4.92031 14.66 5.01091 14.6602L6.99402 14.6636C7.03888 14.6637 7.08329 14.6726 7.12471 14.6899C7.16613 14.7071 7.20374 14.7323 7.23541 14.7641C7.26708 14.7959 7.29218 14.8336 7.30927 14.8751C7.32637 14.9165 7.33513 14.961 7.33505 15.0058L7.33042 17.6555ZM6.66615 15.3522C6.66615 15.3459 6.66365 15.3399 6.65919 15.3354C6.65474 15.331 6.6487 15.3285 6.6424 15.3285H5.35671C5.35042 15.3285 5.34437 15.331 5.33992 15.3354C5.33547 15.3399 5.33297 15.3459 5.33297 15.3522V17.3045C5.33297 17.3108 5.33547 17.3168 5.33992 17.3213C5.34437 17.3257 5.35042 17.3282 5.35671 17.3282H6.6424C6.6487 17.3282 6.65474 17.3257 6.65919 17.3213C6.66365 17.3168 6.66615 17.3108 6.66615 17.3045V15.3522Z" fill="black"/>
</svg>
