<svg width="16" height="21" viewBox="0 0 16 21" fill="none" xmlns="http://www.w3.org/2000/svg">
<path d="M13.03 9.17148C13.1037 9.10282 13.1628 9.02002 13.2038 8.92802C13.2448 8.83602 13.2668 8.7367 13.2686 8.636C13.2704 8.5353 13.2518 8.43527 13.2141 8.34188C13.1764 8.24849 13.1203 8.16366 13.049 8.09244C12.9778 8.02122 12.893 7.96508 12.7996 7.92736C12.7062 7.88964 12.6062 7.87111 12.5055 7.87289C12.4048 7.87466 12.3055 7.89671 12.2135 7.9377C12.1215 7.97869 12.0387 8.03779 11.97 8.11148L7 13.0815L5.03 11.1115C4.88783 10.979 4.69978 10.9069 4.50548 10.9103C4.31118 10.9137 4.12579 10.9924 3.98838 11.1299C3.85097 11.2673 3.77225 11.4527 3.76883 11.647C3.7654 11.8413 3.83752 12.0293 3.97 12.1715L6.47 14.6715C6.61063 14.8119 6.80125 14.8908 7 14.8908C7.19875 14.8908 7.38937 14.8119 7.53 14.6715L13.03 9.17148ZM11.994 2.22548C11.9521 1.659 11.6975 1.12934 11.2813 0.742799C10.865 0.356258 10.318 0.141446 9.75 0.141479H6.25C5.69656 0.141496 5.16255 0.345486 4.75004 0.714451C4.33754 1.08342 4.07549 1.59147 4.014 2.14148H2.25C1.65326 2.14148 1.08097 2.37853 0.65901 2.80049C0.237053 3.22245 0 3.79474 0 4.39148V17.8915C0 18.4882 0.237053 19.0605 0.65901 19.4825C1.08097 19.9044 1.65326 20.1415 2.25 20.1415H13.75C14.0455 20.1415 14.3381 20.0833 14.611 19.9702C14.884 19.8571 15.1321 19.6914 15.341 19.4825C15.5499 19.2735 15.7157 19.0255 15.8287 18.7525C15.9418 18.4795 16 18.187 16 17.8915V4.39148C16 4.09601 15.9418 3.80342 15.8287 3.53044C15.7157 3.25746 15.5499 3.00942 15.341 2.80049C15.1321 2.59156 14.884 2.42582 14.611 2.31275C14.3381 2.19968 14.0455 2.14148 13.75 2.14148H11.986L11.994 2.22548ZM11.994 2.23748L12 2.39148C12 2.33948 11.997 2.28848 11.994 2.23748ZM6.25 4.64148H9.75C10.53 4.64148 11.217 4.24448 11.621 3.64148H13.75C13.9489 3.64148 14.1397 3.7205 14.2803 3.86115C14.421 4.0018 14.5 4.19257 14.5 4.39148V17.8915C14.5 18.0904 14.421 18.2812 14.2803 18.4218C14.1397 18.5625 13.9489 18.6415 13.75 18.6415H2.25C2.05109 18.6415 1.86032 18.5625 1.71967 18.4218C1.57902 18.2812 1.5 18.0904 1.5 17.8915V4.39148C1.5 4.19257 1.57902 4.0018 1.71967 3.86115C1.86032 3.7205 2.05109 3.64148 2.25 3.64148H4.379C4.783 4.24448 5.47 4.64148 6.25 4.64148ZM6.25 1.64148H9.75C9.94891 1.64148 10.1397 1.7205 10.2803 1.86115C10.421 2.0018 10.5 2.19257 10.5 2.39148C10.5 2.59039 10.421 2.78116 10.2803 2.92181C10.1397 3.06246 9.94891 3.14148 9.75 3.14148H6.25C6.05109 3.14148 5.86032 3.06246 5.71967 2.92181C5.57902 2.78116 5.5 2.59039 5.5 2.39148C5.5 2.19257 5.57902 2.0018 5.71967 1.86115C5.86032 1.7205 6.05109 1.64148 6.25 1.64148Z" fill="white"/>
</svg>
