<svg width="25" height="25" viewBox="0 0 25 25" fill="none" xmlns="http://www.w3.org/2000/svg">
<g clip-path="url(#clip0_9746_2197)">
<path d="M12.5003 10.8792C9.87612 10.8792 7.74121 13.0141 7.74121 15.6383C7.74121 18.2624 9.87612 20.3974 12.5003 20.3974C15.1245 20.3974 17.2594 18.2624 17.2594 15.6383C17.2594 13.0141 15.1245 10.8792 12.5003 10.8792ZM14.6824 16.7845C14.9684 17.0705 14.9684 17.5343 14.6824 17.8203C14.5394 17.9633 14.3519 18.0348 14.1645 18.0348C13.977 18.0348 13.7896 17.9633 13.6466 17.8203L12.5002 16.674L11.354 17.8203C11.211 17.9633 11.0235 18.0348 10.8361 18.0348C10.6486 18.0348 10.4612 17.9633 10.3182 17.8203C10.0322 17.5343 10.0322 17.0705 10.3182 16.7845L11.4645 15.6382L10.3182 14.4919C10.0322 14.206 10.0322 13.7422 10.3182 13.4561C10.6042 13.1702 11.068 13.1702 11.354 13.4561L12.5002 14.6024L13.6466 13.4561C13.9326 13.1701 14.3963 13.1701 14.6824 13.4561C14.9684 13.7421 14.9684 14.2059 14.6824 14.4919L13.536 15.6382L14.6824 16.7845Z" fill="#CB8CFB"/>
<path d="M17.5993 7.74087C16.114 7.74087 14.9056 6.53252 14.9056 5.04722V0H5.04722C3.56191 0 2.35352 1.2084 2.35352 2.6937V22.3063C2.35352 23.7916 3.56191 25 5.04722 25H19.9528C21.4381 25 22.6466 23.7916 22.6466 22.3063V7.74087H17.5993ZM12.5 21.862C9.06811 21.862 6.27607 19.0699 6.27607 15.638C6.27607 12.2061 9.06811 9.41406 12.5 9.41406C15.9319 9.41406 18.724 12.2062 18.724 15.638C18.724 19.0699 15.9319 21.862 12.5 21.862Z" fill="#CB8CFB"/>
<path d="M17.599 6.27593H22.2172L16.3701 0.428955V5.04712C16.3701 5.72471 16.9214 6.27593 17.599 6.27593Z" fill="#CB8CFB"/>
</g>
<defs>
<clipPath id="clip0_9746_2197">
<rect width="25" height="25" fill="white"/>
</clipPath>
</defs>
</svg>
