<svg width="647" height="383" viewBox="0 0 647 383" fill="none" xmlns="http://www.w3.org/2000/svg">
<path d="M277.844 355.732C265.389 340.139 258.318 316.813 256.633 285.766C254.958 254.895 259.466 231.032 270.162 214.18C280.858 197.328 297.165 188.306 319.091 187.114C341.015 185.924 358.207 193.131 370.661 208.723C383.116 224.321 390.184 247.555 391.859 278.426C393.534 309.3 389.027 333.202 378.337 350.143C367.647 367.084 351.337 376.148 329.417 377.341C307.487 378.533 290.301 371.33 277.844 355.732Z" fill="white"/>
<path d="M277.844 355.732C265.389 340.139 258.318 316.813 256.633 285.766C254.958 254.895 259.466 231.032 270.162 214.18C280.858 197.328 297.165 188.306 319.091 187.114C341.015 185.924 358.207 193.131 370.661 208.723C383.116 224.321 390.184 247.555 391.859 278.426C393.534 309.3 389.027 333.202 378.337 350.143C367.647 367.084 351.337 376.148 329.417 377.341C307.487 378.533 290.301 371.33 277.844 355.732Z" stroke="#7A81FD" stroke-width="10" stroke-miterlimit="10"/>
<path d="M353.124 332.91C357.964 321.656 359.742 304.098 358.447 280.241C357.143 256.212 353.476 238.951 347.457 228.458C341.434 217.965 332.458 213.045 320.534 213.69C308.607 214.339 300.218 220.248 295.375 231.415C290.526 242.589 288.752 260.099 290.046 283.953C291.341 307.81 295.001 325.071 301.037 335.736C307.066 346.405 316.045 351.415 327.973 350.766C339.896 350.12 348.281 344.17 353.124 332.91Z" fill="#E7E8FF"/>
<path d="M353.124 332.91C357.964 321.656 359.742 304.098 358.447 280.241C357.143 256.212 353.476 238.951 347.457 228.458C341.434 217.965 332.458 213.045 320.534 213.69C308.607 214.339 300.218 220.248 295.375 231.415C290.526 242.589 288.752 260.099 290.046 283.953C291.341 307.81 295.001 325.071 301.037 335.736C307.066 346.405 316.045 351.415 327.973 350.766C339.896 350.12 348.281 344.17 353.124 332.91Z" stroke="#7A81FD" stroke-width="10" stroke-miterlimit="10"/>
<path d="M429.022 283.061H211.02V285.967H429.022V283.061Z" fill="#7A81FD"/>
<path d="M575.277 285.977H548.677C548.546 285.977 548.438 285.868 548.438 285.737V284.036C548.438 283.905 548.546 283.797 548.677 283.797H575.277C575.408 283.797 575.517 283.905 575.517 284.036V285.737C575.517 285.868 575.408 285.977 575.277 285.977Z" fill="#7A81FD"/>
<path d="M91.1367 285.977H64.5366C64.4056 285.977 64.2969 285.868 64.2969 285.737V284.036C64.2969 283.905 64.4056 283.797 64.5366 283.797H91.1367C91.2678 283.797 91.3765 283.905 91.3765 284.036V285.737C91.3765 285.868 91.2678 285.977 91.1367 285.977Z" fill="#7A81FD"/>
<path d="M551.994 330.426H525.234C525.145 330.426 525.074 330.356 525.074 330.267V329.132C525.074 329.042 525.145 328.972 525.234 328.972H551.994C552.084 328.972 552.154 329.042 552.154 329.132V330.267C552.154 330.356 552.084 330.426 551.994 330.426Z" fill="#C4CEFE"/>
<path d="M104.165 97.288C109.244 97.288 113.659 93.5985 114.346 88.5663C114.468 87.6647 114.532 86.7407 114.532 85.8072C114.532 74.6014 105.45 65.5184 94.2452 65.5184C93.7849 65.5184 93.331 65.5408 92.877 65.5696C91.95 54.5204 82.6954 45.8403 71.4076 45.8403C59.5061 45.8403 49.8552 55.4892 49.8552 67.3951C49.8552 67.9226 49.8808 68.4438 49.9191 68.9649C46.5402 67.0786 42.605 66.0683 38.4172 66.2602C27.593 66.7557 18.6965 75.4166 17.9324 86.226C17.9261 86.3123 17.9196 86.3987 17.9164 86.4818C17.568 92.3612 22.3216 97.2912 28.21 97.2912H104.165V97.288Z" fill="#EEEFFF"/>
<path d="M634.434 147.044C650.475 147.044 651.364 122.9 635.342 122.12C634.904 122.097 634.463 122.088 634.022 122.088C631.16 122.088 628.408 122.542 625.825 123.373C623.68 110.303 612.341 100.332 598.666 100.332C584.689 100.332 573.155 110.751 571.381 124.243C568.066 122.654 564.352 121.762 560.429 121.762C558.239 121.762 556.11 122.04 554.084 122.561C540.056 126.174 543.001 147.047 557.485 147.047H634.434V147.044Z" fill="#EEEFFF"/>
<path d="M494.475 46.7031C510.513 46.7031 511.398 22.5651 495.383 21.785C494.945 21.7626 494.504 21.753 494.062 21.753C491.205 21.753 488.449 22.207 485.866 23.0351C483.721 9.96854 472.385 0 458.716 0C444.743 0 433.212 10.4161 431.438 23.9047C428.123 22.3157 424.409 21.4237 420.489 21.4237C418.3 21.4237 416.174 21.7019 414.144 22.223C400.12 25.8357 403.064 46.7 417.545 46.7H494.475V46.7031Z" fill="#EEEFFF"/>
<path d="M487.609 91.0537C496.023 99.9384 498.324 99.9992 507.208 91.5844C498.324 99.9992 498.264 102.301 506.677 111.186C498.264 102.301 495.962 102.24 487.078 110.655C495.959 102.24 496.023 99.9384 487.609 91.0537Z" fill="#EEEFFF"/>
<path d="M180.109 22.2397C188.523 31.1245 190.824 31.1852 199.708 22.7705C190.824 31.1852 190.764 33.4871 199.177 42.3718C190.764 33.4871 188.462 33.4264 179.578 41.8411C188.462 33.4232 188.526 31.1245 180.109 22.2397Z" fill="#EEEFFF"/>
<path d="M96.8158 149.167C105.23 158.052 107.531 158.113 116.415 149.698C107.531 158.113 107.471 160.415 115.884 169.3C107.471 160.415 105.169 160.354 96.2852 168.769C105.169 160.354 105.233 158.052 96.8158 149.167Z" fill="#EEEFFF"/>
<path d="M0.530632 126.634C8.94447 135.519 11.2461 135.58 20.1299 127.165C11.2461 135.58 11.1854 137.882 19.5992 146.766C11.1854 137.882 8.88376 137.821 0 146.236C8.88376 137.821 8.94447 135.519 0.530632 126.634Z" fill="#EEEFFF"/>
<path d="M585.777 193C594.191 201.884 596.492 201.945 605.376 193.53C596.492 201.945 596.432 204.247 604.845 213.132C596.432 204.247 594.13 204.186 585.246 212.601C594.13 204.183 594.191 201.884 585.777 193Z" fill="#EEEFFF"/>
<path d="M282.613 164.468L359.44 141.903C360.878 141.481 361.703 139.972 361.278 138.533L329.921 31.7441C329.499 30.3054 327.99 29.4806 326.552 29.9058L273.949 45.3541C273.278 45.5524 272.706 45.9999 272.357 46.6106L254.961 76.9894C254.593 77.632 254.504 78.3929 254.711 79.1026L279.237 162.63C279.665 164.065 281.174 164.89 282.613 164.468Z" fill="white"/>
<path d="M282.613 164.468L359.44 141.903C360.878 141.481 361.703 139.972 361.278 138.533L329.921 31.7441C329.499 30.3054 327.99 29.4806 326.552 29.9058L273.949 45.3541C273.278 45.5524 272.706 45.9999 272.357 46.6106L254.961 76.9894C254.593 77.632 254.504 78.3929 254.711 79.1027L279.237 162.63C279.665 164.065 281.174 164.89 282.613 164.468Z" stroke="#7A81FD" stroke-width="8" stroke-miterlimit="10" stroke-linecap="round" stroke-linejoin="round"/>
<path d="M273.586 47.0073L279.998 68.8531C280.449 70.3877 279.573 71.999 278.042 72.4594L255.211 79.2724" fill="white"/>
<path d="M273.586 47.0073L279.998 68.8531C280.449 70.3877 279.573 71.999 278.042 72.4594L255.211 79.2724" stroke="#7A81FD" stroke-width="8" stroke-miterlimit="10" stroke-linecap="round" stroke-linejoin="round"/>
<path d="M294.317 147.025L289.966 148.303C289.627 148.403 289.272 148.208 289.173 147.869L283.799 129.572C283.7 129.233 283.895 128.878 284.234 128.779L288.585 127.5C288.924 127.401 289.278 127.596 289.378 127.935L294.751 146.232C294.85 146.571 294.655 146.925 294.317 147.025Z" fill="#C8CBFF"/>
<path d="M316.63 140.471L312.279 141.749C311.94 141.849 311.585 141.653 311.486 141.315L307.752 128.597C307.653 128.258 307.848 127.903 308.187 127.804L312.538 126.525C312.877 126.426 313.232 126.621 313.331 126.96L317.065 139.678C317.16 140.017 316.965 140.371 316.63 140.471Z" fill="#C8CBFF"/>
<path d="M327.781 137.197L323.431 138.476C323.092 138.575 322.737 138.38 322.638 138.041L317.264 119.744C317.165 119.405 317.36 119.05 317.699 118.951L322.05 117.672C322.388 117.573 322.743 117.768 322.842 118.107L328.216 136.404C328.315 136.74 328.12 137.095 327.781 137.197Z" fill="#C8CBFF"/>
<path d="M305.473 143.748L301.122 145.027C300.783 145.126 300.428 144.931 300.329 144.592L293.319 120.716C293.22 120.377 293.415 120.022 293.754 119.923L298.104 118.644C298.443 118.545 298.798 118.74 298.897 119.079L305.908 142.955C306.003 143.294 305.812 143.649 305.473 143.748Z" fill="#C8CBFF"/>
<path d="M272.367 90.641L323.963 75.4868" stroke="#E2E4FF" stroke-width="6" stroke-miterlimit="10" stroke-linecap="round" stroke-linejoin="round"/>
<path d="M274.824 99.0077L326.42 83.8535" stroke="#E2E4FF" stroke-width="6" stroke-miterlimit="10" stroke-linecap="round" stroke-linejoin="round"/>
<path d="M277.281 107.374L328.877 92.2202" stroke="#E2E4FF" stroke-width="6" stroke-miterlimit="10" stroke-linecap="round" stroke-linejoin="round"/>
<path d="M387.413 135.643L389.328 131.573C389.692 130.796 389.312 129.876 388.503 129.588L362.789 120.352L361.66 122.388L385.361 136.283C386.099 136.711 387.049 136.417 387.413 135.643Z" fill="#7A81FD"/>
<path d="M343.497 135.042C355.003 135.042 364.33 125.714 364.33 114.207C364.33 102.7 355.003 93.3716 343.497 93.3716C331.991 93.3716 322.664 102.7 322.664 114.207C322.664 125.714 331.991 135.042 343.497 135.042Z" fill="#C8CBFF"/>
<path d="M343.497 130.698C352.603 130.698 359.985 123.314 359.985 114.207C359.985 105.099 352.603 97.7163 343.497 97.7163C334.39 97.7163 327.008 105.099 327.008 114.207C327.008 123.314 334.39 130.698 343.497 130.698Z" fill="white"/>
<path d="M343.497 135.042C355.003 135.042 364.33 125.714 364.33 114.207C364.33 102.7 355.003 93.3716 343.497 93.3716C331.991 93.3716 322.664 102.7 322.664 114.207C322.664 125.714 331.991 135.042 343.497 135.042Z" stroke="#7A81FD" stroke-width="8" stroke-linecap="round" stroke-linejoin="round"/>
<path d="M344.695 106.211L344.57 116.384" stroke="#7A81FD" stroke-width="8" stroke-linecap="round" stroke-linejoin="round"/>
<path d="M344.495 122.203C344.499 122.203 344.502 122.2 344.502 122.197C344.502 122.193 344.499 122.19 344.495 122.19C344.491 122.19 344.488 122.193 344.488 122.197C344.488 122.2 344.491 122.203 344.495 122.203Z" stroke="#7A81FD" stroke-width="8" stroke-linecap="round" stroke-linejoin="round"/>
<path d="M564.781 280.564L544.287 284.682L552.522 325.678L508.64 334.496L500.405 293.5L420 309.658L413.613 277.859L462.754 152.335L515.567 141.721L536.685 246.838L557.179 242.72L564.781 280.564ZM481.343 198.632L458.115 262.625L492.8 255.656L481.343 198.632Z" fill="#7A81FD"/>
<path d="M226.592 301.787L205.973 298.35L199.1 339.595L154.95 332.236L161.823 290.99L80.9258 277.505L86.2579 245.511L176.806 145.66L229.942 154.519L212.315 260.279L232.934 263.716L226.592 301.787ZM177.73 195.544L133.273 247.1L168.168 252.916L177.73 195.544Z" fill="#7A81FD"/>
<path d="M646.488 285.887H0.488281V381.887H646.488V285.887Z" fill="#F9F9FF"/>
<path d="M99.4979 332.421H72.738C72.6485 332.421 72.5781 332.351 72.5781 332.262V331.127C72.5781 331.037 72.6485 330.967 72.738 330.967H99.4979C99.5874 330.967 99.6578 331.037 99.6578 331.127V332.262C99.6578 332.348 99.5842 332.421 99.4979 332.421Z" fill="#C8CBFF"/>
<path d="M172.978 332.421H146.218C146.129 332.421 146.059 332.351 146.059 332.262V331.127C146.059 331.037 146.129 330.967 146.218 330.967H172.978C173.068 330.967 173.138 331.037 173.138 331.127V332.262C173.138 332.348 173.065 332.421 172.978 332.421Z" fill="#C8CBFF"/>
<path d="M239.857 315.161H213.097C213.008 315.161 212.938 315.09 212.938 315.001V313.866C212.938 313.776 213.008 313.706 213.097 313.706H239.857C239.947 313.706 240.017 313.776 240.017 313.866V315.001C240.017 315.087 239.944 315.161 239.857 315.161Z" fill="#C8CBFF"/>
<path d="M277.889 334.247H251.129C251.039 334.247 250.969 334.177 250.969 334.087V332.952C250.969 332.863 251.039 332.792 251.129 332.792H277.889C277.978 332.792 278.048 332.863 278.048 332.952V334.087C278.048 334.177 277.975 334.247 277.889 334.247Z" fill="#C8CBFF"/>
<path d="M371.732 334.247H344.972C344.883 334.247 344.812 334.177 344.812 334.087V332.952C344.812 332.863 344.883 332.792 344.972 332.792H371.732C371.822 332.792 371.892 332.863 371.892 332.952V334.087C371.892 334.177 371.819 334.247 371.732 334.247Z" fill="#C8CBFF"/>
<path d="M476.721 333.17H449.961C449.871 333.17 449.801 333.099 449.801 333.01V331.875C449.801 331.785 449.871 331.715 449.961 331.715H476.721C476.81 331.715 476.88 331.785 476.88 331.875V333.01C476.88 333.096 476.81 333.17 476.721 333.17Z" fill="#C8CBFF"/>
<path d="M143.197 312.363H116.437C116.348 312.363 116.277 312.293 116.277 312.203V311.068C116.277 310.979 116.348 310.908 116.437 310.908H143.197C143.287 310.908 143.357 310.979 143.357 311.068V312.203C143.357 312.293 143.287 312.363 143.197 312.363Z" fill="#C8CBFF"/>
<path d="M330.045 311.653H303.285C303.195 311.653 303.125 311.583 303.125 311.493V310.358C303.125 310.269 303.195 310.198 303.285 310.198H330.045C330.134 310.198 330.205 310.269 330.205 310.358V311.493C330.205 311.583 330.134 311.653 330.045 311.653Z" fill="#C8CBFF"/>
<path d="M520.416 311.541H493.656C493.566 311.541 493.496 311.471 493.496 311.381V310.247C493.496 310.157 493.566 310.087 493.656 310.087H520.416C520.505 310.087 520.576 310.157 520.576 310.247V311.381C520.576 311.471 520.502 311.541 520.416 311.541Z" fill="#C8CBFF"/>
<path d="M426.713 304.773H399.953C399.863 304.773 399.793 304.703 399.793 304.613V303.478C399.793 303.389 399.863 303.318 399.953 303.318H426.713C426.802 303.318 426.873 303.389 426.873 303.478V304.613C426.873 304.7 426.802 304.773 426.713 304.773Z" fill="#C8CBFF"/>
</svg>
