<svg width="21" height="21" viewBox="0 0 21 21" fill="none" xmlns="http://www.w3.org/2000/svg">
<path d="M10 20.4759C10.8 20.4759 11.6 20.3759 12.3 20.1759C11.9 19.6759 11.5 19.0759 11.3 18.3759C10.9 18.4759 10.4 18.4759 10 18.4759C5.6 18.4759 2 14.8759 2 10.4759C2 6.07589 5.6 2.47589 10 2.47589C10.8 2.47589 11.5 2.57589 12.2 2.77589L13.8 1.17589C12.6 0.775891 11.3 0.475891 10 0.475891C4.5 0.475891 0 4.97589 0 10.4759C0 15.9759 4.5 20.4759 10 20.4759ZM4.5 9.97589L5.9 8.57589L9 11.6759L17.6 3.07589L19 4.47589L9 14.4759L4.5 9.97589ZM17 12.4759L15.74 15.2259L13 16.4759L15.74 17.7359L17 20.4759L18.25 17.7359L21 16.4759L18.25 15.2259L17 12.4759Z" fill="white"/>
</svg>
