<svg width="21" height="21" viewBox="0 0 21 21" fill="none" xmlns="http://www.w3.org/2000/svg">
<path d="M10 20.4758C10.8 20.4758 11.6 20.3758 12.3 20.1758C11.9 19.6758 11.5 19.0758 11.3 18.3758C10.9 18.4758 10.4 18.4758 10 18.4758C5.6 18.4758 2 14.8758 2 10.4758C2 6.07583 5.6 2.47583 10 2.47583C10.8 2.47583 11.5 2.57583 12.2 2.77583L13.8 1.17583C12.6 0.77583 11.3 0.47583 10 0.47583C4.5 0.47583 0 4.97583 0 10.4758C0 15.9758 4.5 20.4758 10 20.4758ZM4.5 9.97583L5.9 8.57583L9 11.6758L17.6 3.07583L19 4.47583L9 14.4758L4.5 9.97583ZM17 12.4758L15.74 15.2258L13 16.4758L15.74 17.7358L17 20.4758L18.25 17.7358L21 16.4758L18.25 15.2258L17 12.4758Z" fill="#373854"/>
</svg>
