<svg width="60" height="60" viewBox="0 0 60 60" fill="none" xmlns="http://www.w3.org/2000/svg">
<path d="M0.679688 17.2617C1.01953 16.6172 1.60547 16.3359 2.26172 16.1133C5.09766 15.1641 7.91016 14.168 10.7461 13.207C11.1211 13.0781 11.25 12.9609 11.1445 12.5273C10.957 11.7539 10.8516 10.9453 10.7461 10.1484C10.6289 9.22266 11.1094 8.58984 12.0234 8.42578C14.9883 7.91016 17.9648 7.39453 20.9414 6.92578C21.5039 6.83203 21.7383 6.69141 21.7031 6.04687C21.6328 4.92187 21.6797 3.78516 21.6797 2.66016C21.6797 1.28906 22.1953 0.761719 23.5898 0.761719C29.5664 0.761719 35.543 0.761719 41.5312 0.761719C44.5312 0.761719 47.5312 0.773438 50.5312 0.75C51.1406 0.75 51.6211 0.9375 52.0664 1.35938C54.293 3.51562 56.5312 5.64844 58.7812 7.78125C59.2031 8.17969 59.3906 8.61328 59.3789 9.19922C59.3672 21.4805 59.3672 33.7734 59.3672 46.0547C59.3672 47.3672 58.8281 47.9062 57.5391 47.9062C55.1953 47.9062 52.8398 47.8711 50.4961 47.918C48.082 47.9648 45.75 48.5039 43.4766 49.3359C34.7461 52.5117 26.0039 55.6406 17.2617 58.793C16.0547 59.2266 15.3867 58.9102 14.9531 57.7031C12.7852 51.6797 10.6172 45.6328 8.4375 39.5859C8.23828 39.0352 8.25 38.5781 8.80078 38.25C9.31641 37.9336 9.84375 38.1328 10.125 38.8125C10.3945 39.4453 10.6055 40.1016 10.8398 40.7461C12.7148 45.9727 14.5781 51.1992 16.4648 56.4141C16.6875 57.0234 16.6992 57.0117 17.3203 56.7891C19.9219 55.8516 22.5352 54.9141 25.1367 53.9766C27.75 53.0391 30.375 52.1016 32.9766 51.1406C33.75 50.8594 34.5234 50.625 35.3086 50.4023C35.4375 50.4141 35.5547 50.3555 35.6602 50.2969C35.7305 50.2617 35.6016 50.1914 35.6367 50.25C35.6484 50.2734 35.6016 50.3086 35.5664 50.3203C35.4727 50.3789 35.3555 50.3906 35.25 50.3906C33.5625 50.918 31.8164 51.0938 30.082 51.3984C26.6602 51.9961 23.2383 52.582 19.8164 53.168C18.6797 53.3672 17.9062 52.875 17.6836 51.7266C17.1914 49.1484 16.7812 46.5703 16.3359 43.9805C14.7188 34.5352 13.0898 25.1016 11.4961 15.6445C11.3906 15 11.3555 14.9766 10.7227 15.1875C10.418 15.293 10.1016 15.3867 9.79688 15.4922C7.57031 16.1836 5.39062 16.9805 3.1875 17.7539C2.78906 17.8945 2.70703 18.082 2.84766 18.4805C4.03125 21.8086 5.23828 25.1367 6.43359 28.4648C7.18359 30.5508 7.93359 32.6367 8.68359 34.7227C8.97656 35.5312 8.78906 35.9648 8.12109 36.1758C7.35938 36.1875 7.18359 36.0703 6.91406 35.3203C4.86328 29.625 2.82422 23.918 0.773438 18.2227C0.75 18.1523 0.703125 18.0938 0.667969 18.0352C0.679688 17.8008 0.679688 17.5313 0.679688 17.2617Z" fill="#4D4D4D"/>
<path d="M8.13289 36.2109C8.74227 35.7539 8.81258 35.5312 8.55477 34.8047C6.59774 29.3672 4.65242 23.9297 2.68367 18.4922C2.50789 18.0234 2.54305 17.8242 3.04695 17.6602C5.27352 16.9219 7.45321 16.0898 9.70321 15.4102C10.1016 15.4687 10.0548 15.8203 10.1016 16.0664C10.4415 17.8711 10.7345 19.6875 11.0391 21.4922C12.9141 32.4258 14.7891 43.3477 16.6524 54.2812C16.7813 55.0664 16.9805 55.1953 17.7891 55.0664C20.0157 54.7148 22.2305 54.3047 24.4571 53.9414C24.7149 53.8945 25.0196 53.7422 25.1954 54.1055C22.4884 55.0781 19.793 56.0508 17.0977 57.0469C16.6524 57.2109 16.5352 57.0937 16.3829 56.6953C14.297 50.8476 12.1993 45 10.1016 39.1523C10.0665 39.0586 10.043 38.9766 10.0079 38.8828C9.7618 38.2734 9.46883 38.1211 8.80086 38.25C8.70711 37.5234 8.35555 36.8906 8.13289 36.2109Z" fill="#AAAAAA"/>
<path d="M22.8048 26.2389C23.3555 26.028 23.4024 25.5709 23.4024 25.067C23.3907 17.7662 23.4024 10.4537 23.4024 3.15295C23.4024 2.95373 23.2969 2.73107 23.4844 2.56701C23.6602 2.46154 23.8594 2.52014 24.0469 2.52014C30.6094 2.52014 37.1719 2.52014 43.7344 2.50842C44.2852 2.50842 44.6133 2.6842 44.8946 3.14123C46.711 6.07092 48.0235 9.21154 48.9258 12.5397C48.9962 12.7858 49.1133 13.0553 48.9258 13.3131C48.6094 13.5006 48.2579 13.442 47.918 13.442C41.754 13.442 35.6016 13.442 29.4376 13.442C29.1563 13.442 28.8633 13.4303 28.5821 13.4772C28.254 13.524 27.9376 13.6412 27.8321 14.0045C27.7149 14.3795 27.9024 14.6256 28.1954 14.8248C28.4766 15.0006 28.793 14.9537 29.086 14.9537C35.543 14.9537 41.9883 14.9537 48.4454 14.9537C49.4883 14.9537 49.5704 15.0123 49.7462 16.0319C49.8985 16.9225 50.0743 17.8014 50.168 18.692C50.2501 19.3717 50.1329 19.5123 49.4415 19.5123C46.6173 19.524 43.793 19.5123 40.9688 19.5123C37.0196 19.5123 33.0704 19.5123 29.1094 19.5123C28.8282 19.5123 28.5352 19.4772 28.2657 19.6295C27.961 19.7936 27.7149 20.0045 27.8087 20.3912C27.9024 20.8131 28.2305 20.9537 28.6173 20.9889C28.8868 21.0123 29.1563 21.0006 29.4141 21.0006C36.0352 21.0006 42.6446 21.0006 49.2657 21.0006C49.6173 21.0006 49.9923 20.9303 50.3204 21.153C50.5665 22.0553 50.5899 22.9811 50.5782 23.8951C50.5782 24.4576 50.7071 25.0319 50.4376 25.5709C50.1094 25.7936 49.7344 25.7233 49.3829 25.7233C42.668 25.7233 35.9415 25.7233 29.2266 25.7233C28.9454 25.7233 28.6524 25.7115 28.3712 25.7584C28.0079 25.8287 27.7735 26.0514 27.7852 26.4264C27.7969 26.778 28.0196 26.9772 28.3594 27.0358C28.6407 27.0826 28.9337 27.0709 29.2149 27.0709C35.9298 27.0709 42.6563 27.0709 49.3712 27.0709C49.711 27.0709 50.0626 27.0123 50.379 27.1998C50.543 27.3405 50.5782 27.5397 50.5548 27.7272C50.461 28.8639 50.4258 30.0123 50.2969 31.149C50.2735 31.3365 50.2149 31.524 50.0626 31.6647C49.7227 31.8639 49.3594 31.8053 48.9962 31.8053C42.4571 31.8053 35.918 31.8053 29.379 31.8053C29.1094 31.8053 28.8399 31.7936 28.5821 31.817C28.2188 31.8522 27.9024 31.9811 27.7852 32.3678C27.6563 32.778 27.9141 33.0123 28.2423 33.1764C28.5235 33.3405 28.8399 33.2936 29.1446 33.2936C35.7188 33.2936 42.2813 33.2936 48.8555 33.2936C49.9805 33.2936 50.0274 33.3405 49.8399 34.4772C49.6993 35.3326 49.5352 36.1764 49.336 37.0084C49.1485 37.7936 49.0665 37.8639 48.2462 37.8639C42.1876 37.8639 36.1407 37.8639 30.0821 37.8639C29.6485 37.8639 29.2032 37.8639 28.7696 37.8639C28.5587 37.8639 28.3477 37.8756 28.1602 37.9928C27.879 38.1803 27.7032 38.4147 27.7852 38.7662C27.879 39.1412 28.1719 39.2701 28.5118 39.3287C28.8165 39.3873 29.1212 39.3639 29.4258 39.3639C35.4376 39.3639 41.4493 39.3639 47.4727 39.3639C47.8126 39.3639 48.1641 39.3053 48.4688 39.5162C48.6212 39.7623 48.5391 39.9967 48.4571 40.2311C47.8829 42.0358 47.2149 43.8053 46.3594 45.5045C46.1251 45.9733 45.8438 46.1608 45.293 46.1608C38.2149 46.1373 31.1251 46.149 24.0469 46.149C23.3907 46.149 23.3907 46.149 23.3907 45.5045C23.3907 40.278 23.3907 35.0631 23.3907 29.8365C23.3907 29.6256 23.4258 29.4147 23.3555 29.2155C23.2266 28.817 22.9219 28.6178 22.5352 28.524C22.2071 27.8912 22.3712 27.2233 22.4063 26.567C22.4649 26.3561 22.6407 26.2858 22.8048 26.2389Z" fill="#ECF2F3"/>
<path d="M28.0781 37.816C28.2891 37.6168 28.5469 37.6988 28.793 37.6988C35.2852 37.6988 41.7773 37.6871 48.2578 37.7105C48.8672 37.7105 49.1016 37.5699 49.207 36.9371C49.3945 35.9059 49.6055 34.8863 49.793 33.8668C49.8516 33.5152 49.7461 33.4684 49.4648 33.4684C49.0781 33.4801 48.7031 33.4684 48.3164 33.4684C41.8242 33.4684 35.332 33.4684 28.8516 33.4684C28.6289 33.4684 28.3945 33.5504 28.1953 33.3746C28.5 33.0816 28.875 33.1754 29.2266 33.1754C36.8906 33.1637 44.543 33.1754 52.207 33.1754C52.4766 33.1754 52.7461 33.1871 53.0039 33.152C53.332 33.1168 53.5547 32.9293 53.5898 32.6129C53.6367 32.2613 53.4258 32.0387 53.1211 31.9098C52.9219 31.8277 52.7109 31.8277 52.5 31.816C51.9258 31.816 51.3516 31.816 50.7773 31.8043C50.5312 31.8043 50.2734 31.8277 50.0742 31.6168C50.2852 30.1754 50.332 28.7223 50.4141 27.2809C50.6016 27.0582 50.8594 27.1051 51.1055 27.0934C51.6797 27.0816 52.2422 27.1168 52.8164 27.0816C53.332 27.0465 53.6484 26.777 53.6484 26.402C53.6484 26.027 53.332 25.7457 52.8164 25.7223C52.2422 25.6871 51.6797 25.7223 51.1055 25.7106C50.8594 25.6988 50.6016 25.7457 50.4141 25.5231C50.4844 24.0699 50.3086 22.6285 50.2969 21.1871C50.4961 20.9762 50.7539 21.0113 50.9883 20.9996C51.5039 20.9879 52.0195 20.9996 52.5352 20.9879C52.7695 20.9879 52.9922 20.9762 53.2031 20.8473C53.4609 20.7066 53.6133 20.484 53.5781 20.191C53.5313 19.8981 53.3438 19.7223 53.0508 19.6637C52.7695 19.6168 52.4766 19.6285 52.1953 19.6285C44.5312 19.6285 36.8789 19.6285 29.2148 19.6285C28.8633 19.6285 28.4766 19.7223 28.1836 19.4293C28.4063 19.2418 28.6641 19.3356 28.8984 19.3356C35.7422 19.3356 42.5742 19.3238 49.418 19.3356C49.8984 19.3356 50.1445 19.3238 49.9922 18.691C49.7578 17.7184 49.6406 16.7106 49.5117 15.7145C49.4531 15.2574 49.2773 15.0816 48.7852 15.0934C42.1172 15.1168 35.4492 15.1051 28.7813 15.1051C28.5469 15.1051 28.2773 15.1871 28.0664 14.9879C28.3711 14.7066 28.7578 14.8004 29.1094 14.8004C36.7969 14.8004 44.4844 14.8004 52.1719 14.8004C52.4414 14.8004 52.7109 14.8121 52.9688 14.777C53.3203 14.7418 53.5547 14.5543 53.5898 14.2027C53.625 13.8863 53.4023 13.6754 53.1211 13.5582C52.875 13.4527 52.6055 13.441 52.3359 13.441C51.457 13.441 50.5781 13.441 49.6992 13.441C49.4414 13.441 49.1602 13.4762 48.9375 13.277C48.2461 10.4059 47.1914 7.6754 45.8203 5.07383C45.457 4.38243 45.0234 3.7379 44.6367 3.04649C44.4375 2.68321 44.168 2.57774 43.7578 2.57774C37.2539 2.57774 30.7383 2.57774 24.2344 2.57774C23.9883 2.57774 23.7422 2.56602 23.4961 2.56602C23.6602 2.43711 23.8594 2.49571 24.0469 2.49571C32.3555 2.49571 40.6641 2.49571 48.9727 2.48399C49.5 2.48399 49.6406 2.62461 49.6289 3.14024C49.5938 4.62852 49.6172 6.12852 49.6289 7.6168C49.6406 8.9879 50.3555 9.77305 51.7266 9.80821C53.543 9.85508 55.3594 9.84336 57.1758 9.81993C57.5859 9.81993 57.6797 9.93711 57.668 10.3356C57.6563 22.1246 57.6563 33.9137 57.668 45.7027C57.668 46.1012 57.5742 46.2066 57.1758 46.2066C46.1016 46.1949 35.0156 46.1949 23.9414 46.2066C23.5195 46.2066 23.4023 46.1246 23.4023 45.6793C23.4258 40.1832 23.4141 34.6988 23.4141 29.2027C23.5898 29.402 23.5078 29.6481 23.5078 29.859C23.5078 35.0387 23.5195 40.2184 23.4961 45.4098C23.4961 45.9723 23.6602 46.1012 24.1992 46.1012C31.2422 46.0777 38.2852 46.0895 45.3281 46.1012C45.7852 46.1012 45.9961 45.9488 46.1953 45.5621C47.1211 43.734 47.8125 41.8238 48.4453 39.8785C48.4805 39.773 48.4805 39.6559 48.5039 39.5387C48.7266 39.3395 48.9961 39.3629 49.2656 39.3629C50.2969 39.3512 51.3281 39.3629 52.3594 39.3629C52.6641 39.3629 52.9805 39.3512 53.25 39.1988C53.4961 39.0582 53.6719 38.8473 53.6133 38.5426C53.5547 38.2496 53.3672 38.0856 53.0625 38.0387C52.7812 37.9918 52.4883 38.0035 52.207 38.0035C44.5195 38.0035 36.832 38.0035 29.1445 38.0035C28.7695 38.0035 28.3828 38.0973 28.0781 37.816Z" fill="#BFC3C4"/>
<path d="M30.5977 49.4062C27.0704 50.0156 23.5313 50.6367 20.004 51.2461C19.6759 51.3047 19.5118 51.2695 19.4532 50.8594C18.6446 46.0195 17.8009 41.1797 16.9688 36.3398C15.9962 30.6328 15.0118 24.9258 14.0391 19.2187C13.5352 16.3008 13.0431 13.3828 12.5391 10.4648C12.504 10.2539 12.4806 10.1016 12.7618 10.0547C15.1524 9.65625 17.5431 9.25781 19.9337 8.85938C20.2501 8.87109 20.2149 9.12891 20.2384 9.31641C20.2852 9.59766 20.2618 9.89063 20.2618 10.1719C20.2618 22.6523 20.2618 35.1211 20.2618 47.6016C20.2618 49.1133 20.2735 49.1133 21.7501 49.1133C24.422 49.1133 27.0938 49.1016 29.7657 49.125C30.047 49.1367 30.4102 49.0195 30.5977 49.4062Z" fill="#BFC3C4"/>
<path d="M25.207 54.1054C24.5742 53.8945 23.9766 54.1991 23.3789 54.2929C21.4922 54.5741 19.6055 54.9492 17.7188 55.2773C16.8398 55.4296 16.6406 55.2421 16.4883 54.3163C16.1133 52.0077 15.7031 49.7109 15.3047 47.414C14.8945 45.0351 14.4961 42.6679 14.0859 40.289C13.7227 38.1796 13.3594 36.0585 12.9961 33.9491C12.5508 31.371 12.1172 28.7812 11.6719 26.2031C11.3086 24.1054 10.9453 22.0077 10.582 19.9218C10.3359 18.539 10.1016 17.1562 9.85547 15.7734C9.83203 15.6445 9.83203 15.5038 9.69141 15.4218C10.1719 15.246 10.6523 15.082 11.1328 14.8945C11.4609 14.7538 11.5313 14.871 11.5898 15.1991C12.0234 17.8359 12.4922 20.4726 12.9375 23.1093C13.957 29.039 14.9648 34.9687 15.9844 40.8984C16.6055 44.5077 17.2148 48.1288 17.8477 51.7382C18.0234 52.7812 18.7031 53.2265 19.7344 53.0507C24.9609 52.1601 30.1758 51.2695 35.4023 50.3671C35.4492 50.3906 35.4609 50.414 35.4375 50.4374C35.4258 50.4609 35.4141 50.4726 35.3906 50.4726C32.1562 51.6327 28.9102 52.8046 25.6758 53.9648C25.5234 53.9999 25.3594 54.0585 25.207 54.1054Z" fill="#6D6D6D"/>
<path d="M30.5977 49.4065C30.4219 49.2424 30.1992 49.3127 30 49.3127C27.0352 49.3127 24.082 49.3127 21.1172 49.3127C20.2266 49.3127 20.0625 49.1487 20.0625 48.2346C20.0625 35.3557 20.0625 22.4885 20.0625 9.6096C20.0625 9.35179 20.168 9.07054 19.9219 8.8596C20.4258 8.76585 20.9297 8.6721 21.4219 8.56663C21.6328 8.51976 21.6914 8.61351 21.6914 8.80101C21.6797 8.92991 21.6914 9.07054 21.6914 9.19945C21.6914 14.508 21.6914 19.8166 21.6914 25.1252C21.6914 25.9807 21.9727 26.2619 22.8164 26.2385C22.6406 26.3674 22.5703 26.5315 22.582 26.7658C22.6055 27.3518 22.5938 27.9377 22.5938 28.5119C21.8672 28.7229 21.7031 28.9338 21.7031 29.6838C21.7031 35.1799 21.7031 40.6643 21.7031 46.1604C21.7031 47.344 22.2773 47.9065 23.4727 47.9065C28.3477 47.9065 33.2109 47.9065 38.0859 47.9065C38.332 47.9065 38.5781 47.9065 38.8242 47.9065C38.8242 47.9299 38.8359 47.9651 38.8359 47.9885C36.082 48.4807 33.3398 48.9377 30.5977 49.4065Z" fill="#AAAAAA"/>
<path d="M51.3398 3.08203C53.1211 4.78125 54.7969 6.38672 56.6016 8.10938C55.8984 8.10938 55.3359 8.10938 54.7852 8.10938C53.8125 8.10938 52.8398 8.09766 51.8672 8.09766C51.4922 8.09766 51.3281 7.98047 51.3281 7.55859C51.3516 6.12891 51.3398 4.67578 51.3398 3.08203Z" fill="#AAAAAA"/>
<path d="M35.4023 50.4494C35.4258 50.4142 35.4258 50.3791 35.4023 50.3439C35.5195 50.2971 35.6133 50.1799 35.7656 50.2736C35.6836 50.4025 35.5664 50.4728 35.4023 50.4494Z" fill="#3A4245"/>
<path d="M50.4258 25.5117C51.2227 25.5234 52.0195 25.5234 52.8281 25.5352C53.4727 25.5469 53.8828 25.8984 53.8594 26.4258C53.8359 26.9297 53.4492 27.2461 52.8281 27.2578C52.0312 27.2695 51.2344 27.2695 50.4258 27.2813C48.9375 27.2695 47.4492 27.2578 45.9609 27.2578C40.2539 27.2578 34.5469 27.2578 28.8398 27.2578C28.6641 27.2578 28.4883 27.2695 28.3242 27.2461C27.8438 27.1758 27.5625 26.8711 27.5625 26.3906C27.5625 25.9102 27.8438 25.6172 28.3242 25.5352C28.5117 25.5117 28.7109 25.5234 28.8984 25.5234C35.8594 25.5234 42.832 25.5234 49.793 25.5234C50.0156 25.5352 50.2148 25.5234 50.4258 25.5117Z" fill="#4D4D4D"/>
<path d="M28.1953 19.4297C36.2344 19.4297 44.2617 19.4297 52.3008 19.4297C52.4297 19.4297 52.5703 19.4297 52.6992 19.4297C53.461 19.4297 53.8711 19.7461 53.8594 20.2969C53.8477 20.8477 53.4258 21.1406 52.6641 21.1523C51.8789 21.1641 51.1055 21.1758 50.3203 21.1758C50.0977 21.1641 49.8633 21.1523 49.6406 21.1523C42.7735 21.1523 35.9063 21.1523 29.0391 21.1523C28.9102 21.1523 28.7696 21.1523 28.6406 21.1523C28.1602 21.1641 27.7617 21.0352 27.6094 20.5195C27.4571 19.9805 27.7149 19.6406 28.1953 19.4297Z" fill="#4D4D4D"/>
<path d="M50.086 31.6172C51.0235 31.6289 51.9492 31.6289 52.8867 31.6406C53.2969 31.6523 53.625 31.8047 53.7891 32.2148C53.9297 32.5547 53.836 32.8477 53.6016 33.1055C53.4024 33.3281 53.1446 33.3633 52.875 33.3516C51.8438 33.3516 50.8125 33.3516 49.7813 33.3516C42.586 33.3516 35.3906 33.3516 28.1953 33.3516C27.7149 33.1406 27.4571 32.8008 27.6094 32.2617C27.7735 31.6875 28.2422 31.6289 28.7461 31.6289C35.6485 31.6289 42.5508 31.6289 49.4531 31.6289C49.6641 31.6406 49.875 31.6289 50.086 31.6172Z" fill="#4D4D4D"/>
<path d="M48.9376 13.2539C50.1564 13.2656 51.3751 13.2773 52.5939 13.2891C52.7814 13.2891 52.9806 13.2891 53.1681 13.3242C53.6251 13.418 53.8595 13.7344 53.8478 14.1914C53.8243 14.6133 53.5899 14.9063 53.1564 14.9766C52.9454 15.0117 52.7345 15.0117 52.5235 15.0117C44.6368 15.0117 36.7618 15.0117 28.8751 15C28.6056 15 28.3478 14.9766 28.0782 14.9648C27.6681 14.6953 27.4454 14.3437 27.6212 13.8516C27.797 13.3477 28.2306 13.2773 28.6876 13.2773C35.2149 13.2773 41.7306 13.2773 48.2579 13.2773C48.4923 13.2891 48.7149 13.2773 48.9376 13.2539Z" fill="#4D4D4D"/>
<path d="M28.0781 37.8164C28.3477 37.8047 28.6172 37.793 28.875 37.793C36.7383 37.793 44.6016 37.793 52.4649 37.7812C52.5235 37.7812 52.5821 37.7812 52.6406 37.7812C53.4492 37.7812 53.8711 38.0859 53.8594 38.6484C53.8477 39.2109 53.4258 39.4922 52.6055 39.5039C51.2344 39.5156 49.8633 39.5273 48.4922 39.5391C48.2813 39.5273 48.0703 39.5039 47.8711 39.5039C41.6016 39.5039 35.3203 39.5039 29.0508 39.5039C28.9219 39.5039 28.7813 39.5039 28.6524 39.5039C28.207 39.5039 27.8086 39.3984 27.6445 38.9297C27.4453 38.4375 27.668 38.0859 28.0781 37.8164Z" fill="#4D4D4D"/>
</svg>
