<svg width="25" height="25" viewBox="0 0 25 25" fill="none" xmlns="http://www.w3.org/2000/svg">
<g clip-path="url(#clip0_9746_2247)">
<path d="M16.9121 11.8164C13.2774 11.8164 10.3203 14.7735 10.3203 18.4082C10.3203 22.0429 13.2774 25 16.9121 25C20.5468 25 23.5039 22.0429 23.5039 18.4082C23.5039 14.7735 20.5468 11.8164 16.9121 11.8164ZM17.8887 18.6035C17.8887 19.008 17.5607 19.3359 17.1562 19.3359H14.9413C14.5368 19.3359 14.2089 19.008 14.2089 18.6035C14.2089 18.199 14.5368 17.8711 14.9413 17.8711H16.4238V16.3751C16.4238 15.9706 16.7518 15.6427 17.1562 15.6427C17.5607 15.6427 17.8887 15.9706 17.8887 16.3751V18.6035Z" fill="#46D484"/>
<path d="M8.97802 19.8149C8.84081 19.84 9.02504 19.8231 5.17041 19.8281C4.76562 19.8281 4.43799 19.5 4.43799 19.0957C4.43799 18.6914 4.76562 18.3633 5.17041 18.3633C9.08422 18.3633 8.84526 18.3629 8.85497 18.3638C8.8579 17.8647 8.90575 17.3765 8.99609 16.9033H5.17285C4.76806 16.9033 4.44043 16.5752 4.44043 16.1709C4.44043 15.7666 4.76806 15.4385 5.17285 15.4385H9.42284C10.6182 12.4331 13.5527 10.3415 16.9379 10.3519V2.90459C16.9379 1.79048 17.3573 0.772608 18.0461 0H5.12793C3.10937 0 1.4668 1.64258 1.4668 3.66113V24.2544C1.4668 24.9133 2.2728 25.237 2.72851 24.7607L3.66553 23.7822L4.65527 24.7725C4.94091 25.0581 5.40478 25.0581 5.69091 24.7725L6.6289 23.835L7.57617 24.7744C7.86181 25.0576 8.32226 25.0576 8.6079 24.7744L9.5703 23.8203L10.5332 24.7744C10.8183 25.0576 11.2783 25.0576 11.564 24.7749L11.7505 24.5903C10.3237 23.397 9.31493 21.7207 8.97802 19.8149ZM7.53124 8.83399C7.75292 8.49561 8.20654 8.40088 8.5454 8.62207C8.91064 8.86133 9.51855 8.94922 9.82079 8.80664C10.0332 8.70703 10.1909 8.49951 10.2143 8.29053C10.2637 7.85298 9.67426 7.63511 9.2705 7.47608C8.76366 7.27588 8.1328 7.02637 7.77294 6.37744C7.2603 5.45068 7.71684 4.20742 8.78173 3.80664V3.69727C8.78173 3.29297 9.10986 2.96484 9.51415 2.96484C9.91894 2.96484 10.2466 3.29297 10.2466 3.69727V3.75781C10.5586 3.84522 10.8472 3.99463 11.0747 4.20459C11.3721 4.479 11.3911 4.94238 11.1167 5.23975C10.8423 5.53711 10.3789 5.55567 10.0815 5.28125C9.91454 5.12695 9.43847 5.06836 9.21581 5.21777C9.05907 5.32324 8.98241 5.53711 9.05468 5.66748C9.25981 6.03872 10.1696 6.11782 10.874 6.66699C12.247 7.73706 11.7529 9.68794 10.2466 10.2119V10.3613C10.2466 10.7656 9.91894 11.0938 9.51415 11.0938C9.10986 11.0938 8.78173 10.7656 8.78173 10.3613V10.2681C8.39159 10.1846 8.02782 10.0342 7.74316 9.84815C7.40478 9.62647 7.31005 9.17285 7.53124 8.83399ZM5.17529 12.5039H8.83739C9.24169 12.5039 9.56982 12.832 9.56982 13.2363C9.56982 13.6406 9.24169 13.9688 8.83739 13.9688H5.17529C4.7705 13.9688 4.44287 13.6406 4.44287 13.2363C4.44287 12.832 4.7705 12.5039 5.17529 12.5039Z" fill="#46D484"/>
<path d="M20.9426 0C19.5127 0 18.3535 1.15918 18.3535 2.58911V10.3145H22.7993C23.2038 10.3145 23.5318 9.98652 23.5318 9.58203V2.58911C23.5318 1.15918 22.3726 0 20.9426 0V0Z" fill="#46D484"/>
</g>
<defs>
<clipPath id="clip0_9746_2247">
<rect width="25" height="25" fill="white"/>
</clipPath>
</defs>
</svg>
