<svg width="35" height="35" viewBox="0 0 35 35" fill="none" xmlns="http://www.w3.org/2000/svg">
<rect width="35" height="35" rx="8" fill="#7A81FD"/>
<g clip-path="url(#clip0_9720_3096)">
<path fill-rule="evenodd" clip-rule="evenodd" d="M25.941 17.033C26.1623 18.8494 25.7542 20.6867 24.7848 22.2386C23.8155 23.7905 22.3434 24.9633 20.6141 25.5612C18.8847 26.1592 17.0027 26.1463 15.2817 25.5246C13.5608 24.9029 12.105 23.7101 11.157 22.145C11.0538 21.9749 11.0225 21.7707 11.0698 21.5775C11.1172 21.3842 11.2394 21.2177 11.4095 21.1145C11.5796 21.0113 11.7838 20.98 11.977 21.0273C12.1703 21.0747 12.3368 21.1969 12.44 21.367C12.9506 22.2102 13.6464 22.9263 14.4746 23.4609C15.3028 23.9956 16.2418 24.3348 17.2204 24.4531C18.1991 24.5713 19.1918 24.4654 20.1235 24.1433C21.0552 23.8212 21.9015 23.2915 22.5982 22.5941C23.295 21.8967 23.824 21.05 24.1452 20.118C24.4664 19.1861 24.5714 18.1932 24.4523 17.2147C24.3332 16.2361 23.9931 15.2974 23.4577 14.4697C22.9223 13.642 22.2057 12.9469 21.362 12.437C21.1917 12.3341 21.0693 12.1678 21.0217 11.9746C20.974 11.7814 21.0051 11.5773 21.108 11.407C21.2109 11.2367 21.3772 11.1143 21.5704 11.0667C21.7636 11.019 21.9677 11.0501 22.138 11.153C23.1763 11.7806 24.0582 12.6361 24.717 13.6548C25.3759 14.6735 25.7944 15.8287 25.941 17.033ZM19 11C19 11.2652 18.8946 11.5196 18.7071 11.7071C18.5196 11.8946 18.2652 12 18 12C17.7348 12 17.4804 11.8946 17.2929 11.7071C17.1054 11.5196 17 11.2652 17 11C17 10.7348 17.1054 10.4804 17.2929 10.2929C17.4804 10.1054 17.7348 10 18 10C18.2652 10 18.5196 10.1054 18.7071 10.2929C18.8946 10.4804 19 10.7348 19 11ZM12.804 15C12.8707 14.8862 12.9142 14.7604 12.9321 14.6297C12.95 14.4991 12.9418 14.3662 12.9081 14.2387C12.8744 14.1112 12.8158 13.9916 12.7357 13.8868C12.6556 13.7821 12.5555 13.6942 12.4413 13.6282C12.3271 13.5623 12.201 13.5196 12.0702 13.5026C11.9394 13.4856 11.8066 13.4946 11.6793 13.5292C11.552 13.5637 11.4329 13.6231 11.3286 13.7039C11.2244 13.7847 11.1372 13.8854 11.072 14C10.9415 14.2296 10.9071 14.5014 10.9763 14.7563C11.0454 15.0111 11.2126 15.2282 11.4413 15.3603C11.67 15.4923 11.9416 15.5285 12.1969 15.461C12.4522 15.3935 12.6704 15.2278 12.804 15ZM11 17C11.2652 17 11.5196 17.1054 11.7071 17.2929C11.8946 17.4804 12 17.7348 12 18C12 18.2652 11.8946 18.5196 11.7071 18.7071C11.5196 18.8946 11.2652 19 11 19C10.7348 19 10.4804 18.8946 10.2929 18.7071C10.1054 18.5196 10 18.2652 10 18C10 17.7348 10.1054 17.4804 10.2929 17.2929C10.4804 17.1054 10.7348 17 11 17ZM15 12.804C15.1146 12.7388 15.2153 12.6516 15.2961 12.5474C15.3769 12.4431 15.4363 12.324 15.4708 12.1967C15.5054 12.0694 15.5144 11.9366 15.4974 11.8058C15.4804 11.675 15.4377 11.5489 15.3718 11.4347C15.3058 11.3205 15.2179 11.2204 15.1132 11.1403C15.0084 11.0602 14.8888 11.0016 14.7613 10.9679C14.6338 10.9342 14.5009 10.926 14.3703 10.9439C14.2396 10.9618 14.1138 11.0053 14 11.072C13.7722 11.2056 13.6065 11.4238 13.539 11.6791C13.4715 11.9344 13.5077 12.206 13.6397 12.4347C13.7718 12.6634 13.9889 12.8306 14.2437 12.8997C14.4986 12.9689 14.7704 12.9345 15 12.804Z" fill="white"/>
</g>
<defs>
<clipPath id="clip0_9720_3096">
<rect width="16" height="16" fill="white" transform="translate(10 10)"/>
</clipPath>
</defs>
</svg>
