<svg width="35" height="35" viewBox="0 0 35 35" fill="none" xmlns="http://www.w3.org/2000/svg">
<rect width="35" height="35" rx="8" fill="#7A81FD"/>
<path d="M21.647 20.6136L22.2049 21.1439L21.647 20.6146V20.6136ZM25.1813 26.467L24.6223 25.9367L25.1803 26.467H25.1813ZM23.8213 27.1952L23.8972 27.9593L23.8213 27.1941V27.1952ZM21.7383 21.6352L22.2049 21.1429L21.0891 20.0834L20.6224 20.5767L21.7383 21.6352ZM23.7424 20.9357L25.7013 22.0649L26.4685 20.7305L24.5095 19.6023L23.7424 20.9357ZM26.0798 24.4023L24.6234 25.9357L25.7382 26.9962L27.1946 25.4629L26.0798 24.4023ZM23.7465 26.428C22.2747 26.5726 18.4337 26.4495 14.2656 22.0618L13.1507 23.1203C17.6932 27.9029 22.0265 28.1449 23.8972 27.9593L23.7465 26.428ZM14.2656 22.0618C10.2902 17.8762 9.62357 14.3449 9.54049 12.7962L8.0041 12.8792C8.10667 14.7767 8.91076 18.6567 13.1507 23.1203L14.2656 22.0618ZM15.6768 15.2536L15.9702 14.9439L14.8553 13.8844L14.5609 14.1941L15.6768 15.2536ZM16.2019 11.0874L14.9086 9.25974L13.6522 10.148L14.9445 11.9767L16.2019 11.0885V11.0874ZM10.5302 8.86385L8.92204 10.5603L10.0379 11.6198L11.6482 9.92436L10.5323 8.86487L10.5302 8.86385ZM15.1189 14.7233C14.9343 14.5455 14.748 14.3694 14.5599 14.1951L14.5579 14.1972L14.5548 14.2003C14.5368 14.2193 14.5197 14.2391 14.5035 14.2598C14.403 14.3928 14.3234 14.5405 14.2676 14.6977C14.1671 14.9798 14.1138 15.3531 14.1815 15.8187C14.3148 16.7336 14.9148 17.9634 16.4809 19.6136L17.5968 18.5531C16.1322 17.0116 15.7712 16.0628 15.7035 15.5951C15.6707 15.3695 15.7035 15.2516 15.7168 15.2136L15.725 15.1941C15.7167 15.2076 15.707 15.2203 15.6963 15.2321C15.6903 15.239 15.6841 15.2459 15.6778 15.2526C15.6778 15.2526 15.6758 15.2526 15.1189 14.7233ZM16.4809 19.6136C18.0429 21.2587 19.2224 21.9039 20.1219 22.0505C20.5845 22.1254 20.9588 22.0649 21.2419 21.9531C21.3987 21.8915 21.5445 21.8049 21.6737 21.6967C21.6863 21.6854 21.6986 21.6738 21.7106 21.6618L21.7249 21.6475C21.7274 21.6454 21.7298 21.6434 21.7321 21.6413L21.7352 21.6382L21.7362 21.6362C21.7362 21.6362 21.7383 21.6352 21.1803 21.1049C20.6224 20.5757 20.6234 20.5746 20.6234 20.5736L20.6255 20.5726L20.6275 20.5695C20.6293 20.5678 20.631 20.5661 20.6327 20.5644L20.6429 20.5541C20.655 20.5425 20.6676 20.5315 20.6809 20.5213C20.6911 20.5152 20.6901 20.5172 20.6768 20.5223C20.6562 20.5305 20.5639 20.5634 20.3691 20.5316C19.9568 20.4639 19.0665 20.1008 17.5968 18.5531L16.4809 19.6136ZM14.9086 9.25974C13.8686 7.78897 11.7897 7.53974 10.5323 8.86487L11.6451 9.92436C12.1815 9.36026 13.1271 9.40436 13.6522 10.148L14.9086 9.25974ZM9.54049 12.7962C9.51793 12.3859 9.69741 11.9767 10.0379 11.6198L8.92204 10.5603C8.3723 11.1387 7.95385 11.9418 8.0041 12.8792L9.54049 12.7962ZM24.6223 25.9367C24.3362 26.2382 24.0377 26.3993 23.7465 26.428L23.8972 27.9593C24.6634 27.8844 25.2839 27.4752 25.7382 26.9962L24.6223 25.9377V25.9367ZM15.9702 14.9449C16.963 13.8998 17.0327 12.2649 16.2019 11.0885L14.9456 11.9767C15.3784 12.589 15.3117 13.4044 14.8553 13.8844L15.9702 14.9449ZM25.7013 22.0649C26.5434 22.55 26.7085 23.7418 26.0798 24.4034L27.1946 25.4629C28.5331 24.0536 28.1433 21.6957 26.4695 20.7316L25.7013 22.0649ZM22.2049 21.1439C22.5998 20.7275 23.2162 20.6341 23.7424 20.9367L24.5095 19.6034C23.3824 18.9552 21.9865 19.1418 21.0891 20.0854L22.2049 21.1439Z" fill="white"/>
</svg>
