<svg width="150" height="150" viewBox="0 0 150 150" fill="none" xmlns="http://www.w3.org/2000/svg">
<g clip-path="url(#clip0)">
<path d="M75.0069 137.684L102.974 130.621C118.938 117.365 129.106 97.3713 129.106 75.0001C129.106 40.4934 104.921 11.6358 72.5771 4.45264C34.7143 5.72957 4.41177 36.8259 4.41177 74.9998C4.41177 94.6079 12.4081 112.347 25.3158 125.138L75.0069 137.684Z" fill="#CBE2FF"/>
<path d="M127.642 74.9999C127.642 98.1382 116.507 118.674 99.3058 131.547L124.682 125.139C137.591 112.348 145.588 94.6085 145.588 74.9999C145.588 36.015 113.985 4.41162 75 4.41162C71.9603 4.41162 68.9652 4.60408 66.0267 4.97688C100.775 9.38533 127.642 39.055 127.642 74.9999Z" fill="#CBE2FF"/>
<path d="M92.5426 31.1449C92.5426 27.5397 89.62 24.6172 86.0148 24.6172H63.5198C55.2226 24.6172 48.4963 31.3435 48.4963 39.6406V56.3207H101.495V39.8772C101.495 36.272 98.5726 33.3494 94.9674 33.3494H94.7473C93.5297 33.3494 92.5426 32.3626 92.5426 31.1449Z" fill="#365E7D"/>
<path d="M94.9674 33.3492H94.7473C93.5297 33.3492 92.5426 32.3621 92.5426 31.1445C92.5426 27.5392 89.62 24.6167 86.0148 24.6167H83.5483V56.3202H101.495V39.8767C101.495 36.272 98.5723 33.3492 94.9674 33.3492Z" fill="#2B4D66"/>
<path d="M121.612 107.083C119.886 105.378 117.751 104.06 115.328 103.293L96.0563 97.1915L75.0044 96.4517L53.9438 97.1915L34.6724 103.293C28.1529 105.357 23.7221 111.407 23.7221 118.246V123.511C36.072 136.561 53.3501 144.899 72.5777 145.547C94.1203 140.763 112.043 126.363 121.612 107.083Z" fill="#4A80AA"/>
<path d="M126.278 123.511V118.246C126.278 113.41 124.061 108.971 120.459 106.055C110.226 126.907 90.0113 141.974 66.0433 145.021C68.9363 145.387 71.8829 145.583 74.874 145.588C77.748 145.584 80.584 145.417 83.3733 145.097C100.202 143.108 115.217 135.199 126.278 123.511Z" fill="#407093"/>
<path d="M76.5982 144.531C80.869 136.052 91.9903 111.976 88.819 96.9371L75.0044 91.5605L61.1769 96.9374C57.9077 112.441 69.8267 137.547 73.7727 145.271C74.7218 145.043 75.664 144.796 76.5982 144.531Z" fill="#E4F6FF"/>
<path d="M83.8779 137.809L78.2766 115.773H71.7232L66.1357 137.749L73.0451 145.441C74.799 145.04 76.5287 144.574 78.2316 144.047L83.8779 137.809Z" fill="#E28086"/>
<path d="M73.1531 145.562C73.7253 145.577 74.2985 145.587 74.874 145.588C75.5399 145.587 76.2036 145.575 76.8653 145.557L80.4242 141.625C77.623 142.608 74.7413 143.419 71.7913 144.046L73.1531 145.562Z" fill="#DD636E"/>
<path d="M86.7943 94.9038V82.4775H63.1969V94.9038C63.1969 101.42 74.9956 108.538 74.9956 108.538C74.9956 108.538 86.7943 101.42 86.7943 94.9038Z" fill="#FFDDCE"/>
<path d="M101.495 54.132H96.9844C94.4758 54.132 92.4422 52.0985 92.4422 49.5898V47.1041C92.4422 43.8364 89.2451 41.526 86.1425 42.5514C78.9064 44.9432 71.0931 44.9437 63.8567 42.5531L63.8482 42.5503C60.7456 41.5254 57.549 43.8358 57.549 47.1033V49.5901C57.549 52.0988 55.5155 54.1323 53.0068 54.1323H48.4963V61.5601C48.4963 63.4579 50.0349 64.9968 51.9331 64.9968C52.532 64.9968 53.0192 65.4658 53.057 66.0636C53.7816 77.553 63.324 86.6484 74.9959 86.6484C86.6678 86.6484 96.2101 77.553 96.9348 66.0636C96.9725 65.4661 97.4598 64.9968 98.0587 64.9968C99.9565 64.9968 101.495 63.4582 101.495 61.5601V54.132H101.495Z" fill="#FFDDCE"/>
<path d="M96.9844 54.1321C94.4758 54.1321 92.4422 52.0986 92.4422 49.5899V47.1042C92.4422 43.8365 89.245 41.5261 86.1425 42.5515C85.2855 42.8347 84.4199 43.0818 83.5486 43.2979V67.8307C83.4279 75.8126 79.0541 82.7595 72.595 86.5139C73.3839 86.5997 74.1841 86.6479 74.9956 86.6479C86.6675 86.6479 96.2099 77.5525 96.9345 66.0632C96.9723 65.4657 97.4595 64.9964 98.0584 64.9964C99.9563 64.9964 101.495 63.4578 101.495 61.5596V54.1319H96.9844V54.1321Z" fill="#FFCBBE"/>
<path d="M63.1969 91.5605L53.9438 99.079L63.6475 111.077C64.8279 112.226 66.6858 112.297 67.9503 111.241L75.2476 105.145L63.1969 91.5605Z" fill="#F4FBFF"/>
<path d="M86.7987 91.5605L75.2476 105.145L82.1063 111.01C83.3628 112.084 85.2295 112.03 86.4218 110.885L96.056 99.079L86.7987 91.5605Z" fill="#F4FBFF"/>
<path d="M63.1969 91.5605L49.6153 98.2331C48.5813 98.741 48.166 99.9989 48.694 101.023L51.3549 106.182C52.0445 107.518 51.79 109.147 50.7256 110.21C50.1778 110.757 49.5844 111.349 49.0701 111.863C48.1497 112.781 47.8191 114.139 48.2244 115.375C51.437 125.168 66.8986 140.143 72.75 145.562C73.1435 145.572 73.5378 145.579 73.9329 145.584C69.6896 137.33 54.6529 105.973 63.1969 91.5605Z" fill="#365E7D"/>
<path d="M99.27 110.21C98.2054 109.147 97.9511 107.518 98.6407 106.181L101.302 101.022C101.83 99.9986 101.414 98.7407 100.38 98.2328L86.7987 91.5605C95.3405 105.969 80.3143 137.313 76.0663 145.577C76.4655 145.57 76.864 145.56 77.2616 145.547C83.1251 140.116 98.5616 125.159 101.771 115.375C102.176 114.139 101.846 112.782 100.925 111.863C100.411 111.349 99.8179 110.757 99.27 110.21Z" fill="#365E7D"/>
<path d="M75.2476 105.146L68.062 111.147L71.7232 115.774H78.2766L81.9381 110.874L75.2476 105.146Z" fill="#DD636E"/>
</g>
<circle cx="75" cy="75" r="72.5" stroke="#13B4CA" stroke-width="5"/>
<defs>
<clipPath id="clip0">
<rect width="141.176" height="141.176" fill="white" transform="translate(4.41177 4.41162)"/>
</clipPath>
</defs>
</svg>
