<svg width="18" height="16" viewBox="0 0 18 16" fill="none" xmlns="http://www.w3.org/2000/svg">
<path d="M6.91602 10.5126C10.305 10.5126 13.166 11.0702 13.166 13.2239C13.166 15.3775 10.2867 15.9166 6.91602 15.9166C3.52702 15.9166 0.666016 15.3581 0.666016 13.2053C0.666016 11.0516 3.54454 10.5126 6.91602 10.5126ZM6.91602 0.083252C9.21149 0.083252 11.0515 1.94711 11.0515 4.27229C11.0515 6.59746 9.21149 8.46132 6.91602 8.46132C4.62054 8.46132 2.78049 6.59746 2.78049 4.27229C2.78049 1.94711 4.62054 0.083252 6.91602 0.083252Z" fill="white"/>
<path d="M14.8312 4.25C15.2447 4.25 15.5803 4.59121 15.5803 5.00968V5.98989H16.5829C16.9956 5.98989 17.332 6.33109 17.332 6.74957C17.332 7.16804 16.9956 7.50925 16.5829 7.50925H15.5803V8.49032C15.5803 8.9088 15.2447 9.25 14.8312 9.25C14.4185 9.25 14.082 8.9088 14.082 8.49032V7.50925H13.0812C12.6676 7.50925 12.332 7.16804 12.332 6.74957C12.332 6.33109 12.6676 5.98989 13.0812 5.98989H14.082V5.00968C14.082 4.59121 14.4185 4.25 14.8312 4.25Z" fill="white"/>
</svg>
