<svg width="20" height="20" viewBox="0 0 20 20" fill="none" xmlns="http://www.w3.org/2000/svg">
<path d="M4.5 9V17.5L12 18H15.5V6L4.5 9Z" fill="#7A81FD"/>
<path fill-rule="evenodd" clip-rule="evenodd" d="M5.33333 1C4.71449 1 4.121 1.23705 3.68342 1.65901C3.24583 2.08097 3 2.65326 3 3.25V16.75C3 17.3467 3.24583 17.919 3.68342 18.341C4.121 18.7629 4.71449 19 5.33333 19H14.6667C15.2855 19 15.879 18.7629 16.3166 18.341C16.7542 17.919 17 17.3467 17 16.75V7.09075C16.9999 6.49406 16.7539 5.92186 16.3163 5.5L12.3333 1.65925C11.8959 1.23726 11.3025 1.00013 10.6837 1H5.33333ZM7.66667 12.25C7.66667 11.9516 7.54375 11.6655 7.32496 11.4545C7.10616 11.2435 6.80942 11.125 6.5 11.125C6.19058 11.125 5.89383 11.2435 5.67504 11.4545C5.45625 11.6655 5.33333 11.9516 5.33333 12.25V15.625C5.33333 15.9234 5.45625 16.2095 5.67504 16.4205C5.89383 16.6315 6.19058 16.75 6.5 16.75C6.80942 16.75 7.10616 16.6315 7.32496 16.4205C7.54375 16.2095 7.66667 15.9234 7.66667 15.625V12.25ZM10 8.875C10.3094 8.875 10.6062 8.99353 10.825 9.2045C11.0437 9.41548 11.1667 9.70163 11.1667 10V15.625C11.1667 15.9234 11.0437 16.2095 10.825 16.4205C10.6062 16.6315 10.3094 16.75 10 16.75C9.69058 16.75 9.39383 16.6315 9.17504 16.4205C8.95625 16.2095 8.83333 15.9234 8.83333 15.625V10C8.83333 9.70163 8.95625 9.41548 9.17504 9.2045C9.39383 8.99353 9.69058 8.875 10 8.875ZM14.6667 7.75C14.6667 7.45163 14.5437 7.16548 14.325 6.9545C14.1062 6.74353 13.8094 6.625 13.5 6.625C13.1906 6.625 12.8938 6.74353 12.675 6.9545C12.4562 7.16548 12.3333 7.45163 12.3333 7.75V15.625C12.3333 15.9234 12.4562 16.2095 12.675 16.4205C12.8938 16.6315 13.1906 16.75 13.5 16.75C13.8094 16.75 14.1062 16.6315 14.325 16.4205C14.5437 16.2095 14.6667 15.9234 14.6667 15.625V7.75Z" fill="#383A51"/>
</svg>
