<svg width="20" height="26" viewBox="0 0 20 26" fill="none" xmlns="http://www.w3.org/2000/svg">
<path d="M0.827465 0H2.43842C2.95058 0.104932 2.86214 0.762005 2.33499 0.763004C1.83831 0.764003 1.35162 0.76317 0.874935 0.760506C0.860128 0.76044 0.845455 0.763299 0.831757 0.76892C0.818059 0.77454 0.805606 0.782811 0.795114 0.793257C0.784621 0.803704 0.776295 0.81612 0.770614 0.829793C0.764932 0.843466 0.762008 0.858126 0.762008 0.872932V20.6231C0.762008 20.6532 0.773958 20.682 0.79523 20.7033C0.816501 20.7246 0.845351 20.7365 0.875434 20.7365C5.35785 20.7365 9.8416 20.7365 14.3267 20.7365C14.4241 20.7365 14.4906 20.6821 14.4906 20.5866C14.4906 14.0252 14.4906 7.46381 14.4906 0.902413C14.4906 0.810973 14.4251 0.762005 14.3332 0.762005C10.8724 0.762338 7.41152 0.762171 3.95043 0.761505C3.47874 0.761505 3.3853 0.121421 3.90097 0H14.4311C15.0547 0.0949383 15.2436 0.503173 15.2396 1.0728C15.2376 1.3856 15.2383 1.70089 15.2416 2.01869C15.2417 2.0262 15.2448 2.03337 15.2501 2.03868C15.2554 2.044 15.2626 2.04704 15.2701 2.04717C15.7254 2.0505 16.1806 2.05083 16.6357 2.04817C17.8844 2.04067 17.6485 3.19642 17.6515 4.05836C17.6515 4.07568 17.6602 4.08451 17.6775 4.08484C18.0563 4.08518 18.4347 4.08534 18.8128 4.08534C19.3289 4.08534 19.7362 4.14081 19.929 4.63149C19.9763 4.75208 20 4.94062 20 5.19712C19.9997 7.05824 19.9993 8.9192 19.999 10.78C19.999 10.9216 19.9815 11.025 19.9465 11.0903C19.8201 11.3261 19.4194 11.3191 19.302 11.0873C19.2673 11.0193 19.25 10.9037 19.25 10.7405C19.2503 8.8151 19.2503 6.89602 19.25 4.98326C19.25 4.94708 19.2356 4.91238 19.2099 4.8868C19.1842 4.86122 19.1494 4.84685 19.1131 4.84685H17.6765C17.6592 4.84685 17.6505 4.85551 17.6505 4.87283C17.6509 8.48282 17.651 12.093 17.651 15.7033C17.651 15.8367 17.6545 15.9826 17.6006 16.089C17.4112 16.4598 16.889 16.2869 16.889 15.8772C16.889 11.5497 16.889 7.23246 16.889 2.9256C16.889 2.8918 16.8756 2.8594 16.8517 2.8355C16.8278 2.8116 16.7954 2.79818 16.7616 2.79818H15.2661C15.2627 2.79818 15.2593 2.79885 15.2561 2.80016C15.253 2.80146 15.2501 2.80338 15.2477 2.80579C15.2453 2.8082 15.2434 2.81107 15.2421 2.81422C15.2408 2.81737 15.2401 2.82075 15.2401 2.82416C15.2398 8.69635 15.2399 14.5699 15.2406 20.4447C15.2406 20.8884 15.1317 21.2492 14.7139 21.4191C14.5834 21.4724 14.323 21.499 13.9329 21.499C10.3513 21.4984 6.76944 21.4982 3.18743 21.4985C3.17044 21.4985 3.16178 21.5072 3.16145 21.5245C3.15878 21.8843 3.15878 22.244 3.16145 22.6038C3.16195 22.6808 3.19243 22.7852 3.27587 22.7852C7.77195 22.7852 12.2645 22.7852 16.7536 22.7852C16.7895 22.7852 16.824 22.7709 16.8494 22.7454C16.8748 22.7199 16.889 22.6853 16.889 22.6493C16.8887 20.9537 16.889 19.2477 16.89 17.5311C16.89 16.8985 17.65 16.931 17.6505 17.4761C17.6512 19.1001 17.6514 20.7239 17.651 22.3475C17.6505 22.8661 17.5956 23.2709 17.1024 23.4657C16.9845 23.512 16.8056 23.5352 16.5657 23.5352C12.8875 23.5345 9.21968 23.5344 5.56239 23.5347C5.53407 23.5347 5.51991 23.5489 5.51991 23.5772L5.52191 24.7219C5.52205 24.7483 5.53263 24.7736 5.55136 24.7923C5.57009 24.8109 5.59543 24.8214 5.62185 24.8214H19.1136C19.1498 24.8214 19.1845 24.807 19.21 24.7814C19.2356 24.7558 19.25 24.7211 19.25 24.6849C19.25 20.6183 19.25 16.5489 19.25 12.4769C19.2505 12.0352 19.7876 11.8528 19.961 12.259C19.9867 12.319 19.9995 12.4178 19.9995 12.5553C19.9992 16.5347 19.9993 20.514 20 24.4931C20 25.0817 19.8186 25.4979 19.172 25.5834H5.58087C5.19146 25.5257 4.93813 25.3349 4.82087 25.0107C4.68846 24.646 4.76291 23.9909 4.75741 23.5662C4.75728 23.5583 4.75406 23.5508 4.74845 23.5453C4.74285 23.5398 4.7353 23.5367 4.72743 23.5367C4.30837 23.5327 3.89164 23.5319 3.47724 23.5342C3.02304 23.5372 2.67676 23.4468 2.48938 23.0285C2.32449 22.6608 2.39445 21.9412 2.40344 21.5265C2.40377 21.5082 2.39478 21.499 2.37646 21.499C2.01569 21.498 1.65659 21.4979 1.29916 21.4985C0.72803 21.499 0.278822 21.483 0.0709571 20.9449C0.0236545 20.8223 3.3091e-06 20.6303 3.3091e-06 20.3688C0.000336426 13.9699 0.000336426 7.57108 3.3091e-06 1.17224C-0.000329808 0.873765 0.0244875 0.661903 0.074455 0.536651C0.196043 0.231183 0.447046 0.0522993 0.827465 0Z" fill="black"/>
<path d="M9.74933 3.74771C9.74933 4.31173 9.52527 4.85264 9.12646 5.25146C8.72764 5.65027 8.18672 5.87433 7.62271 5.87433C7.0587 5.87433 6.51778 5.65027 6.11897 5.25146C5.72015 4.85264 5.49609 4.31173 5.49609 3.74771C5.49609 3.1837 5.72015 2.64278 6.11897 2.24397C6.51778 1.84515 7.0587 1.62109 7.62271 1.62109C8.18672 1.62109 8.72764 1.84515 9.12646 2.24397C9.52527 2.64278 9.74933 3.1837 9.74933 3.74771ZM8.99532 3.74771C8.99532 3.56752 8.95983 3.3891 8.89087 3.22263C8.82192 3.05616 8.72085 2.9049 8.59344 2.77748C8.46603 2.65007 8.31477 2.549 8.14829 2.48005C7.98182 2.41109 7.8034 2.3756 7.62321 2.3756C7.2593 2.3756 6.9103 2.52016 6.65298 2.77748C6.39566 3.0348 6.2511 3.38381 6.2511 3.74771C6.2511 4.11162 6.39566 4.46062 6.65298 4.71794C6.9103 4.97526 7.2593 5.11982 7.62321 5.11982C7.8034 5.11982 7.98182 5.08433 8.14829 5.01537C8.31477 4.94642 8.46603 4.84535 8.59344 4.71794C8.72085 4.59053 8.82192 4.43927 8.89087 4.27279C8.95983 4.10632 8.99532 3.9279 8.99532 3.74771Z" fill="black"/>
<path d="M4.23545 3.37402H2.45161C2.25181 3.37402 2.08984 3.53599 2.08984 3.73579V3.75977C2.08984 3.95957 2.25181 4.12154 2.45161 4.12154H4.23545C4.43525 4.12154 4.59721 3.95957 4.59721 3.75977V3.73579C4.59721 3.53599 4.43525 3.37402 4.23545 3.37402Z" fill="black"/>
<path d="M12.7901 3.37223L11.0063 3.37535C10.8065 3.37569 10.6448 3.53794 10.6452 3.73774L10.6452 3.76173C10.6456 3.96152 10.8078 4.12321 11.0076 4.12286L12.7914 4.11974C12.9912 4.1194 13.1529 3.95715 13.1526 3.75735L13.1525 3.73336C13.1522 3.53357 12.9899 3.37188 12.7901 3.37223Z" fill="black"/>
<path d="M11.8996 6.95898H3.33719C3.12939 6.95898 2.96094 7.12744 2.96094 7.33524V7.34323C2.96094 7.55103 3.12939 7.71949 3.33719 7.71949H11.8996C12.1074 7.71949 12.2759 7.55103 12.2759 7.34323V7.33524C12.2759 7.12744 12.1074 6.95898 11.8996 6.95898Z" fill="black"/>
<path d="M11.9006 8.79492H3.33719C3.12939 8.79492 2.96094 8.96338 2.96094 9.17118V9.18017C2.96094 9.38797 3.12939 9.55643 3.33719 9.55643H11.9006C12.1084 9.55643 12.2769 9.38797 12.2769 9.18017V9.17118C12.2769 8.96338 12.1084 8.79492 11.9006 8.79492Z" fill="black"/>
<path d="M11.9006 10.6318H3.33719C3.12939 10.6318 2.96094 10.8003 2.96094 11.0081V11.0161C2.96094 11.2239 3.12939 11.3923 3.33719 11.3923H11.9006C12.1084 11.3923 12.2769 11.2239 12.2769 11.0161V11.0081C12.2769 10.8003 12.1084 10.6318 11.9006 10.6318Z" fill="black"/>
<path d="M11.9006 12.4668H3.33719C3.12939 12.4668 2.96094 12.6353 2.96094 12.8431V12.852C2.96094 13.0598 3.12939 13.2283 3.33719 13.2283H11.9006C12.1084 13.2283 12.2769 13.0598 12.2769 12.852V12.8431C12.2769 12.6353 12.1084 12.4668 11.9006 12.4668Z" fill="black"/>
<path d="M11.9006 14.3032H3.33719C3.12939 14.3032 2.96094 14.4717 2.96094 14.6795V14.6885C2.96094 14.8963 3.12939 15.0647 3.33719 15.0647H11.9006C12.1084 15.0647 12.2769 14.8963 12.2769 14.6885V14.6795C12.2769 14.4717 12.1084 14.3032 11.9006 14.3032Z" fill="black"/>
<path d="M12.1278 16.3001C12.247 16.4613 12.228 16.638 12.0708 16.8302C11.4785 17.5528 10.8857 18.2751 10.2924 18.9973C9.97415 19.3846 9.5954 19.3926 9.25062 19.0633C8.97547 18.8004 8.70481 18.5336 8.43865 18.2628C8.36037 18.1828 8.3104 18.1154 8.28875 18.0604C8.14384 17.6922 8.61554 17.3974 8.89586 17.6632C9.17168 17.924 9.44117 18.1877 9.70433 18.4542C9.70828 18.4582 9.71304 18.4613 9.71827 18.4633C9.72351 18.4653 9.72912 18.4662 9.73473 18.4659C9.74034 18.4657 9.74583 18.4642 9.75084 18.4617C9.75584 18.4591 9.76026 18.4555 9.76379 18.4512C10.3261 17.764 10.8869 17.0806 11.4462 16.401C11.6356 16.1712 11.9049 15.9993 12.1278 16.3001Z" fill="black"/>
</svg>
