<svg width="35" height="35" viewBox="0 0 35 35" fill="none" xmlns="http://www.w3.org/2000/svg">
<rect width="35" height="35" rx="8" fill="#7A81FD"/>
<path d="M24.7416 11.9084L16.4083 20.2417C16.3312 20.319 16.2396 20.3803 16.1388 20.4221C16.038 20.4639 15.9299 20.4854 15.8208 20.4854C15.7116 20.4854 15.6036 20.4639 15.5028 20.4221C15.4019 20.3803 15.3104 20.319 15.2333 20.2417L12.8749 17.8834C12.7978 17.8063 12.7366 17.7147 12.6948 17.6139C12.6531 17.5131 12.6316 17.405 12.6316 17.2959C12.6316 17.1868 12.6531 17.0788 12.6948 16.978C12.7366 16.8772 12.7978 16.7856 12.8749 16.7084C12.9521 16.6313 13.0437 16.5701 13.1445 16.5283C13.2453 16.4866 13.3533 16.4651 13.4624 16.4651C13.5715 16.4651 13.6796 16.4866 13.7804 16.5283C13.8812 16.5701 13.9728 16.6313 14.0499 16.7084L15.8166 18.4751L23.5583 10.7334C23.6354 10.6562 23.7269 10.5949 23.8278 10.553C23.9286 10.5112 24.0366 10.4897 24.1458 10.4897C24.2549 10.4897 24.363 10.5112 24.4638 10.553C24.5646 10.5949 24.6562 10.6562 24.7333 10.7334C25.0666 11.0584 25.0666 11.5834 24.7416 11.9084ZM16.9999 23.6667C13.0749 23.6667 9.93327 20.2584 10.3749 16.2501C10.6999 13.3167 12.9749 10.9084 15.8833 10.4251C17.3916 10.1751 18.8249 10.4417 20.0416 11.0751C20.2383 11.1778 20.4678 11.1983 20.6795 11.1319C20.8913 11.0654 21.068 10.9176 21.1708 10.7209C21.2735 10.5242 21.294 10.2947 21.2275 10.083C21.1611 9.87122 21.0133 9.69451 20.8166 9.59174C19.5916 8.96674 18.2083 8.62508 16.7333 8.66674C12.4499 8.80008 8.89161 12.2834 8.67494 16.5584C8.43327 21.3667 12.2499 25.3334 16.9999 25.3334C17.9999 25.3334 18.9499 25.1584 19.8416 24.8334C20.4083 24.6251 20.5666 23.8917 20.1333 23.4584C20.0227 23.3463 19.882 23.2686 19.7283 23.2346C19.5745 23.2005 19.4142 23.2117 19.2666 23.2667C18.5583 23.5251 17.7916 23.6667 16.9999 23.6667ZM22.8333 19.5001H21.1666C20.7083 19.5001 20.3333 19.8751 20.3333 20.3334C20.3333 20.7917 20.7083 21.1667 21.1666 21.1667H22.8333V22.8334C22.8333 23.2917 23.2083 23.6667 23.6666 23.6667C24.1249 23.6667 24.4999 23.2917 24.4999 22.8334V21.1667H26.1666C26.6249 21.1667 26.9999 20.7917 26.9999 20.3334C26.9999 19.8751 26.6249 19.5001 26.1666 19.5001H24.4999V17.8334C24.4999 17.3751 24.1249 17.0001 23.6666 17.0001C23.2083 17.0001 22.8333 17.3751 22.8333 17.8334V19.5001Z" fill="white"/>
</svg>
