<svg width="18" height="18" viewBox="0 0 18 18" fill="none" xmlns="http://www.w3.org/2000/svg">
<path opacity="0.4" d="M8.23521 1.03195H5.14067C2.59568 1.03195 1 2.83372 1 5.3845V12.2655C1 14.8163 2.58824 16.618 5.14067 16.618H12.4437C14.997 16.618 16.5852 14.8163 16.5852 12.2655V8.93175" stroke="#130F26" stroke-width="1.5" stroke-linecap="round" stroke-linejoin="round"/>
<path fill-rule="evenodd" clip-rule="evenodd" d="M6.02998 7.76221L12.2149 1.57728C12.9854 0.807574 14.2344 0.807574 15.0049 1.57728L16.0121 2.58451C16.7826 3.35504 16.7826 4.60478 16.0121 5.37448L9.79739 11.5892C9.46054 11.9261 9.00368 12.1156 8.52697 12.1156H5.42664L5.50443 8.98712C5.51602 8.52695 5.70389 8.0883 6.02998 7.76221Z" stroke="#130F26" stroke-width="1.5" stroke-linecap="round" stroke-linejoin="round"/>
<path d="M11.275 2.53287L15.054 6.31186" stroke="#130F26" stroke-width="1.5" stroke-linecap="round" stroke-linejoin="round"/>
</svg>
