<svg width="494" height="380" viewBox="0 0 494 380" fill="none" xmlns="http://www.w3.org/2000/svg">
<g clip-path="url(#clip0_4775_4074)">
<g opacity="0.2">
<path d="M110.588 95.1621C104.384 92.2396 94.1222 96.9913 90.8494 103.944C84.6034 117.216 104.805 136.438 112.15 134.375C120.36 132.069 121.98 100.527 110.587 95.1621H110.588Z" stroke="#14142D" stroke-width="2" stroke-miterlimit="10" stroke-linecap="round" stroke-dasharray="4 4"/>
<path d="M79.5509 125.223C77.3361 123.94 53.8801 110.352 40.6049 121.106C31.2836 128.657 31.1949 144.798 38.1994 153.869C52.0726 171.836 95.0914 163.781 99.5546 150.924C102.56 142.267 88.4482 130.377 79.5509 125.223Z" stroke="#14142D" stroke-width="2" stroke-miterlimit="10" stroke-linecap="round" stroke-dasharray="4 4"/>
<path d="M109.734 347.08C166.83 332.888 231.706 318.439 332.446 320.9C388.786 322.276 401.553 304.767 444.252 282.998C482.311 263.595 501.003 225.013 489.523 203.147C477.933 181.071 442.631 189.86 413.72 156.999C400.553 142.033 402.87 131.543 395.269 114.946C371.197 62.3947 280.975 21.3192 236.486 43.0575C177.709 71.7756 227.958 195.862 162.256 229.759C120.697 251.202 89.2849 210.039 48.2498 241.461C27.9173 257.031 3.04989 278.872 1.12683 302.585C1.12683 302.585 -1.56591 360.563 109.734 347.08Z" stroke="#14142D" stroke-width="2" stroke-miterlimit="10" stroke-linecap="round" stroke-dasharray="4 4"/>
<path d="M425.184 282.506C425.184 282.506 414.841 296.239 404.497 315.081C395.171 332.072 388.079 354.966 386.513 374.081C382.12 373.873 377.296 373.677 372.079 373.492C341.187 372.394 296.589 371.707 246.998 371.707C190.621 371.707 140.697 372.597 110.028 373.965C108.972 374.012 107.939 374.059 106.929 374.108C68.6391 326.581 -8.46413 243.779 62.4918 209.716C62.4918 209.716 67.6899 208.131 75.4832 204.725C100.149 193.944 150.835 164.934 145.197 110.236C145.197 110.236 143.276 100.029 143.276 85.8272C143.276 52.6181 153.775 -2.42928 223.862 0.0830894C266.305 1.60669 305.394 23.236 329.026 57.8563C352.206 91.8126 389.269 133.591 419.453 109.74C426.42 104.232 435.633 102.191 444.234 104.613C465.96 110.724 490.641 142.361 425.184 282.506Z" fill="#ACBCF8"/>
</g>
<path opacity="0.15" d="M481.546 375.93C481.546 378.178 376.536 380 247 380C173.911 380 108.63 379.42 65.6145 378.51C55.7064 378.3 46.9819 378.074 39.6139 377.833C34.7614 377.674 30.4978 377.508 26.8727 377.337C17.5469 376.9 12.4531 376.426 12.4531 375.93C12.4531 375.3 20.7198 374.702 35.4749 374.171C41.5179 373.952 48.6469 373.745 56.7431 373.552C99.3434 372.528 168.689 371.862 246.999 371.862C315.881 371.862 377.829 372.376 420.739 373.198C458.521 373.92 481.545 374.88 481.545 375.931L481.546 375.93Z" fill="#040C2B"/>
<path d="M417.678 232.156H281.646V335.977H417.678V232.156Z" fill="#E3E9F7"/>
<path d="M417.676 215.455H281.697V232.192H417.676V215.455Z" fill="#ACBCF8"/>
<path d="M289.172 225.72C290.542 225.72 291.653 224.521 291.653 223.042C291.653 221.564 290.542 220.365 289.172 220.365C287.802 220.365 286.691 221.564 286.691 223.042C286.691 224.521 287.802 225.72 289.172 225.72Z" fill="#E3E9F7"/>
<path d="M296.408 225.72C297.778 225.72 298.889 224.521 298.889 223.042C298.889 221.564 297.778 220.365 296.408 220.365C295.038 220.365 293.928 221.564 293.928 223.042C293.928 224.521 295.038 225.72 296.408 225.72Z" fill="#E3E9F7"/>
<path d="M303.643 225.72C305.013 225.72 306.123 224.521 306.123 223.042C306.123 221.564 305.013 220.365 303.643 220.365C302.273 220.365 301.162 221.564 301.162 223.042C301.162 224.521 302.273 225.72 303.643 225.72Z" fill="#E3E9F7"/>
<path d="M396.481 262.215H302.841C300.78 262.215 299.109 263.888 299.109 265.952V276.03C299.109 278.094 300.78 279.767 302.841 279.767H396.481C398.542 279.767 400.213 278.094 400.213 276.03V265.952C400.213 263.888 398.542 262.215 396.481 262.215Z" fill="#F4F6FC"/>
<path d="M396.481 296.822H302.841C300.78 296.822 299.109 298.495 299.109 300.559V310.637C299.109 312.701 300.78 314.374 302.841 314.374H396.481C398.542 314.374 400.213 312.701 400.213 310.637V300.559C400.213 298.495 398.542 296.822 396.481 296.822Z" fill="#F4F6FC"/>
<path d="M339.461 303.758L339.304 305.172L340.734 304.773L340.861 305.74L339.557 305.832L340.412 306.973L339.542 307.438L338.944 306.236L338.419 307.43L337.513 306.973L338.36 305.832L337.064 305.732L337.214 304.773L338.614 305.172L338.457 303.758H339.461Z" fill="#CDD7FB"/>
<path d="M343.74 303.758L343.583 305.172L345.014 304.773L345.14 305.74L343.837 305.832L344.692 306.973L343.821 307.438L343.223 306.236L342.698 307.43L341.793 306.973L342.64 305.832L341.344 305.732L341.493 304.773L342.893 305.172L342.736 303.758H343.741H343.74Z" fill="#CDD7FB"/>
<path d="M348.02 303.758L347.863 305.172L349.293 304.773L349.42 305.74L348.116 305.832L348.971 306.973L348.1 307.438L347.502 306.236L346.977 307.43L346.072 306.973L346.919 305.832L345.623 305.732L345.772 304.773L347.173 305.172L347.015 303.758H348.021H348.02Z" fill="#CDD7FB"/>
<path d="M352.299 303.758L352.142 305.172L353.572 304.773L353.699 305.74L352.395 305.832L353.25 306.973L352.38 307.438L351.782 306.236L351.257 307.43L350.351 306.973L351.198 305.832L349.902 305.732L350.052 304.773L351.452 305.172L351.295 303.758H352.3H352.299Z" fill="#CDD7FB"/>
<path d="M356.578 303.758L356.421 305.172L357.852 304.773L357.978 305.74L356.675 305.832L357.53 306.973L356.659 307.438L356.061 306.236L355.536 307.43L354.63 306.973L355.478 305.832L354.182 305.732L354.331 304.773L355.731 305.172L355.574 303.758H356.579H356.578Z" fill="#CDD7FB"/>
<path d="M360.859 303.758L360.702 305.172L362.133 304.773L362.26 305.74L360.956 305.832L361.811 306.973L360.94 307.438L360.342 306.236L359.817 307.43L358.912 306.973L359.759 305.832L358.463 305.732L358.612 304.773L360.012 305.172L359.855 303.758H360.861H360.859Z" fill="#CDD7FB"/>
<path d="M301.961 258.028H299.654V254.018H301.961V254.714H300.504V255.595H301.859V256.292H300.504V257.325H301.961V258.028Z" fill="#ACBCF8"/>
<path d="M302.461 256.865V256.18H303.932V256.865H302.461Z" fill="#ACBCF8"/>
<path d="M307.277 258.028H306.441V256.237C306.441 256.016 306.404 255.849 306.33 255.739C306.256 255.628 306.14 255.573 305.981 255.573C305.768 255.573 305.612 255.652 305.516 255.809C305.419 255.966 305.371 256.225 305.371 256.585V258.028H304.535V254.961H305.174L305.286 255.353H305.332C305.414 255.212 305.533 255.102 305.687 255.022C305.842 254.943 306.021 254.903 306.221 254.903C306.679 254.903 306.99 255.053 307.153 255.353H307.227C307.309 255.21 307.43 255.1 307.589 255.021C307.748 254.943 307.929 254.903 308.13 254.903C308.477 254.903 308.739 254.992 308.918 255.171C309.096 255.349 309.185 255.635 309.185 256.028V258.028H308.347V256.237C308.347 256.016 308.309 255.849 308.235 255.739C308.161 255.628 308.045 255.573 307.886 255.573C307.682 255.573 307.529 255.646 307.428 255.792C307.327 255.938 307.276 256.171 307.276 256.489V258.028H307.277Z" fill="#ACBCF8"/>
<path d="M311.988 258.028L311.827 257.611H311.804C311.664 257.789 311.519 257.911 311.37 257.98C311.221 258.048 311.027 258.083 310.788 258.083C310.494 258.083 310.263 257.999 310.093 257.83C309.924 257.662 309.84 257.422 309.84 257.111C309.84 256.8 309.953 256.546 310.181 256.391C310.409 256.236 310.751 256.15 311.21 256.135L311.742 256.118V255.983C311.742 255.672 311.582 255.517 311.265 255.517C311.02 255.517 310.733 255.591 310.402 255.739L310.125 255.174C310.477 254.99 310.868 254.896 311.297 254.896C311.727 254.896 312.023 254.986 312.242 255.165C312.461 255.345 312.571 255.617 312.571 255.983V258.027H311.987L311.988 258.028ZM311.742 256.607L311.418 256.618C311.175 256.626 310.994 256.67 310.877 256.749C310.758 256.83 310.698 256.953 310.698 257.117C310.698 257.353 310.833 257.471 311.103 257.471C311.297 257.471 311.451 257.414 311.568 257.303C311.683 257.192 311.742 257.044 311.742 256.858V256.605V256.607Z" fill="#ACBCF8"/>
<path d="M313.396 254.168C313.396 253.896 313.548 253.759 313.851 253.759C314.154 253.759 314.305 253.895 314.305 254.168C314.305 254.299 314.267 254.399 314.192 254.472C314.116 254.544 314.002 254.58 313.851 254.58C313.548 254.58 313.396 254.442 313.396 254.168ZM314.267 258.028H313.431V254.96H314.267V258.028Z" fill="#ACBCF8"/>
<path d="M315.98 258.028H315.145V253.759H315.98V258.028Z" fill="#ACBCF8"/>
<path d="M302.421 290.1C302.421 290.531 302.286 290.861 302.017 291.09C301.748 291.319 301.365 291.432 300.868 291.432H300.504V292.859H299.654V288.849H300.933C301.419 288.849 301.788 288.954 302.042 289.163C302.294 289.372 302.421 289.684 302.421 290.1ZM300.504 290.736H300.783C301.044 290.736 301.24 290.684 301.369 290.581C301.499 290.477 301.563 290.327 301.563 290.129C301.563 289.931 301.509 289.783 301.4 289.687C301.291 289.592 301.121 289.545 300.89 289.545H300.504V290.736Z" fill="#ACBCF8"/>
<path d="M305.057 292.859L304.895 292.443H304.873C304.733 292.62 304.588 292.743 304.439 292.811C304.289 292.88 304.095 292.915 303.856 292.915C303.562 292.915 303.331 292.83 303.162 292.662C302.992 292.493 302.908 292.254 302.908 291.943C302.908 291.631 303.022 291.377 303.249 291.222C303.477 291.067 303.819 290.982 304.278 290.966L304.81 290.949V290.815C304.81 290.503 304.651 290.348 304.333 290.348C304.089 290.348 303.801 290.422 303.47 290.571L303.193 290.006C303.545 289.821 303.936 289.728 304.366 289.728C304.795 289.728 305.092 289.818 305.31 289.997C305.529 290.176 305.639 290.448 305.639 290.815V292.858H305.056L305.057 292.859ZM304.81 291.438L304.487 291.449C304.243 291.457 304.063 291.501 303.945 291.581C303.826 291.662 303.767 291.784 303.767 291.948C303.767 292.184 303.901 292.302 304.172 292.302C304.366 292.302 304.519 292.246 304.636 292.135C304.752 292.024 304.81 291.875 304.81 291.69V291.437V291.438Z" fill="#ACBCF8"/>
<path d="M308.637 291.949C308.637 292.264 308.528 292.503 308.31 292.668C308.091 292.832 307.765 292.915 307.33 292.915C307.107 292.915 306.917 292.901 306.76 292.87C306.603 292.84 306.456 292.796 306.319 292.738V292.047C306.474 292.12 306.649 292.182 306.844 292.231C307.038 292.281 307.21 292.305 307.358 292.305C307.661 292.305 307.813 292.218 307.813 292.042C307.813 291.976 307.792 291.923 307.752 291.882C307.712 291.84 307.642 291.794 307.543 291.742C307.445 291.691 307.313 291.63 307.148 291.56C306.913 291.461 306.74 291.37 306.629 291.286C306.519 291.202 306.438 291.105 306.388 290.996C306.337 290.887 306.312 290.754 306.312 290.594C306.312 290.322 306.418 290.111 306.629 289.961C306.84 289.812 307.138 289.738 307.526 289.738C307.915 289.738 308.255 289.819 308.602 289.979L308.35 290.583C308.196 290.516 308.053 290.463 307.92 290.421C307.787 290.379 307.651 290.358 307.512 290.358C307.265 290.358 307.142 290.424 307.142 290.558C307.142 290.633 307.181 290.698 307.261 290.752C307.34 290.807 307.514 290.888 307.782 290.996C308.021 291.093 308.196 291.184 308.308 291.268C308.42 291.352 308.503 291.449 308.555 291.559C308.608 291.669 308.635 291.8 308.635 291.951L308.637 291.949Z" fill="#ACBCF8"/>
<path d="M311.424 291.949C311.424 292.264 311.316 292.503 311.097 292.668C310.878 292.832 310.553 292.915 310.117 292.915C309.894 292.915 309.704 292.901 309.547 292.87C309.39 292.84 309.243 292.796 309.106 292.738V292.047C309.261 292.12 309.436 292.182 309.631 292.231C309.826 292.281 309.997 292.305 310.145 292.305C310.448 292.305 310.6 292.218 310.6 292.042C310.6 291.976 310.58 291.923 310.539 291.882C310.499 291.84 310.429 291.794 310.33 291.742C310.232 291.691 310.1 291.63 309.935 291.56C309.7 291.461 309.527 291.37 309.416 291.286C309.306 291.202 309.225 291.105 309.175 290.996C309.124 290.887 309.1 290.754 309.1 290.594C309.1 290.322 309.205 290.111 309.416 289.961C309.627 289.812 309.925 289.738 310.314 289.738C310.702 289.738 311.042 289.819 311.39 289.979L311.137 290.583C310.983 290.516 310.84 290.463 310.707 290.421C310.574 290.379 310.438 290.358 310.299 290.358C310.052 290.358 309.929 290.424 309.929 290.558C309.929 290.633 309.968 290.698 310.048 290.752C310.127 290.807 310.301 290.888 310.569 290.996C310.808 291.093 310.983 291.184 311.096 291.268C311.207 291.352 311.29 291.449 311.342 291.559C311.395 291.669 311.422 291.8 311.422 291.951L311.424 291.949Z" fill="#ACBCF8"/>
<path d="M314.594 292.859L314.358 291.786L314.041 290.431H314.021L313.463 292.859H312.564L311.693 289.792H312.526L312.879 291.15C312.935 291.393 312.994 291.729 313.052 292.157H313.069C313.076 292.018 313.108 291.798 313.164 291.497L313.208 291.263L313.586 289.792H314.506L314.865 291.263C314.872 291.303 314.884 291.363 314.9 291.441C314.916 291.52 314.93 291.603 314.945 291.692C314.959 291.781 314.973 291.867 314.984 291.953C314.996 292.038 315.003 292.105 315.004 292.157H315.021C315.038 292.026 315.067 291.845 315.109 291.616C315.15 291.386 315.18 291.231 315.2 291.15L315.566 289.792H316.385L315.504 292.859H314.594Z" fill="#ACBCF8"/>
<path d="M319.662 291.321C319.662 291.82 319.531 292.211 319.267 292.492C319.005 292.774 318.638 292.915 318.169 292.915C317.875 292.915 317.616 292.85 317.391 292.721C317.167 292.592 316.994 292.407 316.874 292.166C316.754 291.926 316.693 291.644 316.693 291.321C316.693 290.82 316.824 290.43 317.085 290.153C317.346 289.875 317.713 289.736 318.186 289.736C318.48 289.736 318.739 289.8 318.963 289.928C319.188 290.056 319.36 290.24 319.48 290.48C319.6 290.719 319.661 291 319.661 291.322L319.662 291.321ZM317.545 291.321C317.545 291.625 317.594 291.855 317.694 292.01C317.794 292.165 317.956 292.244 318.18 292.244C318.404 292.244 318.563 292.166 318.66 292.012C318.758 291.857 318.807 291.628 318.807 291.322C318.807 291.017 318.758 290.791 318.659 290.639C318.56 290.488 318.399 290.411 318.174 290.411C317.95 290.411 317.791 290.486 317.692 290.637C317.593 290.788 317.544 291.016 317.544 291.321H317.545Z" fill="#ACBCF8"/>
<path d="M322.061 289.736C322.175 289.736 322.269 289.744 322.343 289.761L322.28 290.545C322.213 290.527 322.131 290.518 322.033 290.518C321.766 290.518 321.559 290.586 321.411 290.723C321.261 290.861 321.187 291.053 321.187 291.3V292.861H320.352V289.793H320.984L321.108 290.309H321.149C321.245 290.137 321.373 289.999 321.534 289.893C321.696 289.788 321.872 289.736 322.061 289.736Z" fill="#ACBCF8"/>
<path d="M323.87 292.914C323.509 292.914 323.227 292.774 323.021 292.494C322.816 292.214 322.713 291.827 322.713 291.331C322.713 290.836 322.817 290.437 323.027 290.156C323.236 289.875 323.524 289.735 323.891 289.735C324.276 289.735 324.57 289.884 324.773 290.184H324.8C324.758 289.956 324.737 289.751 324.737 289.573V288.591H325.575V292.859H324.934L324.773 292.462H324.737C324.547 292.764 324.258 292.914 323.869 292.914H323.87ZM324.162 292.248C324.376 292.248 324.533 292.186 324.633 292.062C324.732 291.937 324.786 291.726 324.795 291.428V291.337C324.795 291.008 324.745 290.772 324.644 290.629C324.543 290.486 324.378 290.416 324.149 290.416C323.963 290.416 323.818 290.494 323.715 290.653C323.612 290.811 323.56 291.04 323.56 291.343C323.56 291.645 323.612 291.871 323.716 292.021C323.82 292.172 323.968 292.247 324.162 292.247V292.248Z" fill="#ACBCF8"/>
<path d="M315.381 273.034V267.419H316.57V272.05H318.844V273.034H315.382H315.381Z" fill="#CDD7FB"/>
<path d="M323.621 270.88C323.621 271.578 323.437 272.126 323.069 272.519C322.701 272.913 322.188 273.11 321.531 273.11C321.119 273.11 320.757 273.02 320.441 272.839C320.127 272.658 319.885 272.4 319.716 272.062C319.548 271.723 319.463 271.329 319.463 270.878C319.463 270.177 319.646 269.631 320.012 269.242C320.377 268.854 320.891 268.658 321.553 268.658C321.965 268.658 322.327 268.748 322.643 268.927C322.957 269.107 323.199 269.364 323.367 269.699C323.536 270.035 323.621 270.427 323.621 270.877V270.88ZM320.657 270.88C320.657 271.304 320.726 271.626 320.865 271.844C321.004 272.062 321.231 272.171 321.546 272.171C321.862 272.171 322.083 272.063 322.22 271.846C322.356 271.629 322.425 271.308 322.425 270.88C322.425 270.451 322.355 270.136 322.217 269.923C322.079 269.711 321.853 269.604 321.539 269.604C321.224 269.604 321.001 269.71 320.863 269.921C320.725 270.132 320.656 270.451 320.656 270.88H320.657Z" fill="#CDD7FB"/>
<path d="M326.98 268.659C327.138 268.659 327.271 268.67 327.375 268.694L327.287 269.793C327.192 269.767 327.077 269.755 326.941 269.755C326.567 269.755 326.277 269.85 326.068 270.042C325.859 270.234 325.755 270.503 325.755 270.849V273.034H324.586V268.741H325.472L325.645 269.464H325.702C325.835 269.223 326.015 269.029 326.241 268.882C326.467 268.734 326.713 268.66 326.979 268.66L326.98 268.659Z" fill="#CDD7FB"/>
<path d="M330.094 273.111C329.404 273.111 328.864 272.92 328.476 272.539C328.088 272.158 327.893 271.617 327.893 270.919C327.893 270.22 328.072 269.643 328.431 269.25C328.79 268.857 329.287 268.66 329.921 268.66C330.555 268.66 330.998 268.833 331.336 269.178C331.674 269.524 331.842 270.002 331.842 270.611V271.179H329.077C329.09 271.512 329.188 271.773 329.372 271.959C329.556 272.146 329.815 272.24 330.147 272.24C330.405 272.24 330.649 272.213 330.879 272.159C331.109 272.105 331.349 272.02 331.601 271.902V272.808C331.397 272.911 331.178 272.987 330.945 273.037C330.713 273.086 330.429 273.112 330.094 273.112V273.111ZM329.929 269.493C329.681 269.493 329.487 269.571 329.346 269.729C329.205 269.886 329.125 270.11 329.104 270.398H330.746C330.74 270.11 330.665 269.886 330.519 269.729C330.373 269.571 330.177 269.493 329.929 269.493Z" fill="#CDD7FB"/>
<path d="M336.634 273.033H335.465V270.525C335.465 270.215 335.413 269.984 335.31 269.829C335.207 269.674 335.043 269.596 334.821 269.596C334.521 269.596 334.305 269.706 334.169 269.927C334.033 270.147 333.966 270.509 333.966 271.013V273.033H332.797V268.74H333.69L333.847 269.29H333.912C334.028 269.093 334.194 268.938 334.41 268.827C334.628 268.715 334.877 268.659 335.158 268.659C335.799 268.659 336.234 268.869 336.461 269.29H336.564C336.68 269.09 336.848 268.934 337.073 268.824C337.296 268.714 337.548 268.659 337.83 268.659C338.316 268.659 338.683 268.784 338.933 269.033C339.182 269.283 339.307 269.683 339.307 270.233V273.033H338.133V270.525C338.133 270.215 338.081 269.984 337.978 269.829C337.875 269.674 337.711 269.596 337.489 269.596C337.203 269.596 336.989 269.698 336.847 269.903C336.705 270.107 336.634 270.433 336.634 270.878V273.032V273.033Z" fill="#CDD7FB"/>
<path d="M343.138 273.033H341.953V269.784L341.964 269.25L341.983 268.666C341.787 268.863 341.65 268.993 341.573 269.054L340.928 269.572L340.357 268.857L342.164 267.417H343.138V273.031V273.033Z" fill="#CDD7FB"/>
<path d="M348.61 273.033H344.691V272.208L346.098 270.783C346.514 270.356 346.787 270.059 346.914 269.894C347.042 269.729 347.134 269.576 347.19 269.436C347.247 269.295 347.275 269.149 347.275 268.997C347.275 268.773 347.213 268.604 347.088 268.494C346.964 268.384 346.799 268.329 346.591 268.329C346.374 268.329 346.163 268.378 345.958 268.478C345.754 268.578 345.54 268.72 345.318 268.904L344.674 268.14C344.95 267.904 345.179 267.738 345.36 267.641C345.542 267.544 345.74 267.469 345.955 267.417C346.169 267.364 346.411 267.338 346.677 267.338C347.027 267.338 347.336 267.402 347.604 267.53C347.873 267.658 348.081 267.837 348.229 268.068C348.377 268.299 348.452 268.563 348.452 268.859C348.452 269.118 348.406 269.36 348.316 269.587C348.225 269.814 348.085 270.046 347.894 270.284C347.703 270.522 347.368 270.862 346.887 271.302L346.166 271.982V272.036H348.609V273.035L348.61 273.033Z" fill="#CDD7FB"/>
<path d="M352.874 268.675C352.874 269.025 352.768 269.324 352.556 269.569C352.343 269.815 352.045 269.984 351.662 270.076V270.1C352.115 270.156 352.458 270.294 352.69 270.512C352.922 270.731 353.039 271.027 353.039 271.397C353.039 271.938 352.844 272.358 352.452 272.659C352.061 272.96 351.502 273.111 350.776 273.111C350.168 273.111 349.628 273.01 349.158 272.807V271.797C349.376 271.907 349.615 271.997 349.875 272.066C350.135 272.135 350.394 272.169 350.649 272.169C351.041 272.169 351.329 272.103 351.515 271.969C351.702 271.837 351.796 271.622 351.796 271.328C351.796 271.064 351.688 270.877 351.474 270.767C351.26 270.657 350.916 270.602 350.446 270.602H350.021V269.692H350.454C350.888 269.692 351.206 269.634 351.407 269.521C351.607 269.407 351.707 269.212 351.707 268.935C351.707 268.511 351.441 268.298 350.91 268.298C350.726 268.298 350.538 268.329 350.348 268.391C350.157 268.452 349.946 268.558 349.712 268.71L349.164 267.892C349.675 267.523 350.285 267.339 350.993 267.339C351.573 267.339 352.032 267.457 352.367 267.692C352.704 267.928 352.872 268.255 352.872 268.675H352.874Z" fill="#CDD7FB"/>
<path d="M359.996 270.146C359.996 270.514 359.937 270.851 359.819 271.158C359.702 271.464 359.536 271.704 359.321 271.878C359.107 272.052 358.857 272.139 358.573 272.139C358.383 272.139 358.216 272.094 358.07 272.003C357.924 271.912 357.82 271.793 357.756 271.643H357.694C357.418 271.974 357.067 272.139 356.64 272.139C356.188 272.139 355.831 272.003 355.569 271.73C355.309 271.457 355.178 271.084 355.178 270.611C355.178 270.07 355.349 269.635 355.692 269.305C356.034 268.975 356.482 268.81 357.034 268.81C357.253 268.81 357.496 268.831 357.761 268.873C358.025 268.915 358.243 268.966 358.415 269.024L358.326 270.902C358.326 271.258 358.424 271.435 358.618 271.435C358.782 271.435 358.912 271.316 359.009 271.076C359.107 270.837 359.155 270.523 359.155 270.137C359.155 269.724 359.07 269.36 358.898 269.044C358.727 268.729 358.487 268.487 358.176 268.321C357.865 268.155 357.51 268.071 357.111 268.071C356.595 268.071 356.146 268.178 355.765 268.391C355.383 268.603 355.091 268.91 354.888 269.311C354.685 269.712 354.583 270.174 354.583 270.7C354.583 271.406 354.772 271.948 355.149 272.325C355.526 272.703 356.072 272.892 356.788 272.892C357.059 272.892 357.357 272.861 357.681 272.802C358.005 272.742 358.325 272.653 358.639 272.539V273.276C358.092 273.508 357.485 273.625 356.817 273.625C355.845 273.625 355.088 273.369 354.545 272.857C354.002 272.344 353.73 271.633 353.73 270.722C353.73 270.089 353.87 269.515 354.147 269C354.424 268.484 354.819 268.079 355.332 267.786C355.844 267.493 356.434 267.347 357.101 267.347C357.663 267.347 358.166 267.462 358.608 267.693C359.05 267.923 359.391 268.251 359.632 268.676C359.872 269.101 359.992 269.592 359.992 270.147L359.996 270.146ZM356.069 270.625C356.069 271.166 356.289 271.435 356.728 271.435C356.958 271.435 357.133 271.355 357.253 271.192C357.374 271.029 357.446 270.765 357.472 270.398L357.522 269.55C357.391 269.522 357.245 269.507 357.081 269.507C356.761 269.507 356.513 269.607 356.335 269.807C356.157 270.007 356.068 270.279 356.068 270.625H356.069Z" fill="#CDD7FB"/>
<path d="M360.949 267.63C360.949 267.249 361.161 267.058 361.585 267.058C362.009 267.058 362.222 267.249 362.222 267.63C362.222 267.812 362.169 267.954 362.062 268.055C361.956 268.156 361.797 268.206 361.585 268.206C361.161 268.206 360.949 268.014 360.949 267.63ZM362.169 273.033H361V268.74H362.169V273.033Z" fill="#CDD7FB"/>
<path d="M365.752 273.111C365.249 273.111 364.854 272.928 364.568 272.561H364.506C364.546 272.92 364.568 273.128 364.568 273.184V274.923H363.398V268.74H364.35L364.515 269.297H364.569C364.842 268.873 365.247 268.66 365.784 268.66C366.29 268.66 366.686 268.856 366.973 269.248C367.259 269.64 367.403 270.184 367.403 270.88C367.403 271.339 367.335 271.737 367.202 272.075C367.067 272.413 366.877 272.67 366.629 272.847C366.381 273.023 366.089 273.112 365.755 273.112L365.752 273.111ZM365.407 269.597C365.117 269.597 364.906 269.686 364.774 269.865C364.64 270.042 364.572 270.337 364.566 270.746V270.873C364.566 271.333 364.635 271.664 364.772 271.864C364.909 272.064 365.125 272.164 365.421 272.164C365.945 272.164 366.208 271.731 366.208 270.866C366.208 270.443 366.143 270.126 366.014 269.915C365.885 269.704 365.682 269.598 365.406 269.598L365.407 269.597Z" fill="#CDD7FB"/>
<path d="M371.358 271.759C371.358 272.199 371.205 272.534 370.9 272.766C370.595 272.996 370.137 273.112 369.529 273.112C369.217 273.112 368.951 273.09 368.732 273.049C368.512 273.006 368.306 272.944 368.114 272.862V271.895C368.332 271.997 368.577 272.083 368.848 272.152C369.121 272.222 369.36 272.256 369.567 272.256C369.991 272.256 370.204 272.133 370.204 271.887C370.204 271.795 370.176 271.72 370.119 271.662C370.063 271.605 369.966 271.54 369.828 271.467C369.69 271.394 369.506 271.308 369.276 271.212C368.946 271.074 368.703 270.946 368.549 270.828C368.394 270.71 368.282 270.575 368.211 270.422C368.14 270.27 368.105 270.083 368.105 269.859C368.105 269.478 368.254 269.183 368.549 268.974C368.844 268.765 369.262 268.66 369.804 268.66C370.346 268.66 370.823 268.773 371.311 268.998L370.959 269.843C370.744 269.751 370.543 269.676 370.356 269.616C370.17 269.558 369.979 269.528 369.785 269.528C369.439 269.528 369.268 269.621 369.268 269.808C369.268 269.913 369.324 270.004 369.435 270.081C369.546 270.158 369.79 270.273 370.165 270.423C370.5 270.559 370.745 270.686 370.901 270.803C371.057 270.921 371.172 271.057 371.247 271.21C371.321 271.364 371.358 271.547 371.358 271.759Z" fill="#CDD7FB"/>
<path d="M375.307 273.033L375.15 272.484H375.088C374.962 272.684 374.785 272.838 374.555 272.947C374.325 273.056 374.063 273.11 373.769 273.11C373.265 273.11 372.886 272.975 372.63 272.704C372.374 272.434 372.246 272.046 372.246 271.539V268.739H373.415V271.247C373.415 271.557 373.47 271.789 373.58 271.943C373.69 272.098 373.865 272.176 374.105 272.176C374.433 272.176 374.668 272.067 374.814 271.848C374.96 271.629 375.033 271.266 375.033 270.759V268.739H376.202V273.032H375.305L375.307 273.033Z" fill="#CDD7FB"/>
<path d="M381.271 273.033H380.102V270.525C380.102 270.215 380.05 269.984 379.947 269.829C379.844 269.674 379.68 269.596 379.458 269.596C379.158 269.596 378.942 269.706 378.806 269.927C378.67 270.147 378.603 270.509 378.603 271.013V273.033H377.434V268.74H378.327L378.484 269.29H378.549C378.664 269.093 378.83 268.938 379.047 268.827C379.265 268.715 379.514 268.659 379.794 268.659C380.436 268.659 380.87 268.869 381.098 269.29H381.201C381.317 269.09 381.485 268.934 381.709 268.824C381.933 268.714 382.185 268.659 382.467 268.659C382.953 268.659 383.319 268.784 383.57 269.033C383.82 269.283 383.943 269.683 383.943 270.233V273.033H382.77V270.525C382.77 270.215 382.718 269.984 382.615 269.829C382.512 269.674 382.348 269.596 382.126 269.596C381.84 269.596 381.625 269.698 381.484 269.903C381.341 270.107 381.271 270.433 381.271 270.878V273.032V273.033Z" fill="#CDD7FB"/>
<path d="M212.356 164.178H76.3242V268H212.356V164.178Z" fill="#E3E9F7"/>
<path d="M212.354 147.477H76.375V164.214H212.354V147.477Z" fill="#ACBCF8"/>
<path d="M83.8498 157.742C85.2199 157.742 86.3305 156.544 86.3305 155.065C86.3305 153.586 85.2199 152.387 83.8498 152.387C82.4798 152.387 81.3691 153.586 81.3691 155.065C81.3691 156.544 82.4798 157.742 83.8498 157.742Z" fill="#E3E9F7"/>
<path d="M91.0862 157.742C92.4562 157.742 93.5668 156.544 93.5668 155.065C93.5668 153.586 92.4562 152.387 91.0862 152.387C89.7161 152.387 88.6055 153.586 88.6055 155.065C88.6055 156.544 89.7161 157.742 91.0862 157.742Z" fill="#E3E9F7"/>
<path d="M98.3205 157.742C99.6906 157.742 100.801 156.544 100.801 155.065C100.801 153.586 99.6906 152.387 98.3205 152.387C96.9505 152.387 95.8398 153.586 95.8398 155.065C95.8398 156.544 96.9505 157.742 98.3205 157.742Z" fill="#E3E9F7"/>
<path d="M191.159 194.238H97.5188C95.4578 194.238 93.7871 195.911 93.7871 197.975V208.052C93.7871 210.116 95.4578 211.79 97.5188 211.79H191.159C193.22 211.79 194.891 210.116 194.891 208.052V197.975C194.891 195.911 193.22 194.238 191.159 194.238Z" fill="#F4F6FC"/>
<path d="M191.159 228.845H97.5188C95.4578 228.845 93.7871 230.518 93.7871 232.582V242.659C93.7871 244.723 95.4578 246.396 97.5188 246.396H191.159C193.22 246.396 194.891 244.723 194.891 242.659V232.582C194.891 230.518 193.22 228.845 191.159 228.845Z" fill="#F4F6FC"/>
<path d="M96.6388 190.05H94.332V186.04H96.6388V186.737H95.1814V187.618H96.5367V188.314H95.1814V189.348H96.6388V190.05Z" fill="#ACBCF8"/>
<path d="M97.1387 188.888V188.202H98.6096V188.888H97.1387Z" fill="#ACBCF8"/>
<path d="M101.955 190.051H101.119V188.259C101.119 188.038 101.082 187.872 101.008 187.762C100.934 187.65 100.817 187.595 100.659 187.595C100.446 187.595 100.29 187.674 100.193 187.831C100.097 187.989 100.049 188.247 100.049 188.608V190.051H99.2129V186.983H99.8513L99.9635 187.375H100.009C100.091 187.235 100.21 187.125 100.365 187.045C100.52 186.965 100.698 186.926 100.899 186.926C101.358 186.926 101.668 187.075 101.83 187.375H101.905C101.986 187.233 102.108 187.122 102.267 187.044C102.426 186.965 102.607 186.926 102.808 186.926C103.154 186.926 103.417 187.015 103.595 187.193C103.774 187.372 103.862 187.657 103.862 188.051V190.051H103.024V188.259C103.024 188.038 102.987 187.872 102.913 187.762C102.839 187.65 102.722 187.595 102.564 187.595C102.36 187.595 102.206 187.668 102.105 187.815C102.004 187.961 101.953 188.193 101.953 188.511V190.051H101.955Z" fill="#ACBCF8"/>
<path d="M106.666 190.05L106.505 189.634H106.482C106.342 189.811 106.197 189.934 106.048 190.002C105.899 190.071 105.705 190.105 105.466 190.105C105.172 190.105 104.941 190.021 104.771 189.853C104.602 189.684 104.518 189.445 104.518 189.134C104.518 188.822 104.631 188.568 104.859 188.413C105.086 188.258 105.429 188.173 105.888 188.157L106.419 188.14V188.005C106.419 187.694 106.26 187.539 105.942 187.539C105.698 187.539 105.411 187.613 105.08 187.762L104.803 187.196C105.155 187.012 105.545 186.919 105.975 186.919C106.405 186.919 106.701 187.009 106.92 187.187C107.139 187.367 107.248 187.639 107.248 188.005V190.049H106.665L106.666 190.05ZM106.419 188.629L106.096 188.64C105.853 188.648 105.672 188.692 105.554 188.772C105.435 188.853 105.376 188.975 105.376 189.139C105.376 189.375 105.511 189.493 105.781 189.493C105.975 189.493 106.129 189.437 106.245 189.326C106.361 189.214 106.419 189.066 106.419 188.881V188.628V188.629Z" fill="#ACBCF8"/>
<path d="M108.074 186.191C108.074 185.919 108.226 185.782 108.529 185.782C108.832 185.782 108.983 185.918 108.983 186.191C108.983 186.321 108.945 186.421 108.87 186.494C108.793 186.566 108.68 186.602 108.529 186.602C108.226 186.602 108.074 186.465 108.074 186.191ZM108.945 190.05H108.109V186.983H108.945V190.05Z" fill="#ACBCF8"/>
<path d="M110.658 190.05H109.822V185.782H110.658V190.05Z" fill="#ACBCF8"/>
<path d="M97.0988 222.122C97.0988 222.554 96.9642 222.884 96.6949 223.112C96.4256 223.341 96.043 223.455 95.546 223.455H95.1814V224.882H94.332V220.872H95.6111C96.0969 220.872 96.466 220.976 96.7196 221.185C96.972 221.394 97.0988 221.706 97.0988 222.122ZM95.1814 222.758H95.4607C95.7222 222.758 95.9174 222.706 96.0464 222.603C96.1766 222.5 96.2405 222.349 96.2405 222.151C96.2405 221.954 96.1867 221.805 96.0778 221.71C95.969 221.614 95.7985 221.567 95.5673 221.567H95.1814V222.758Z" fill="#ACBCF8"/>
<path d="M99.7345 224.882L99.573 224.465H99.5505C99.4103 224.643 99.2655 224.765 99.1163 224.834C98.9671 224.902 98.773 224.937 98.534 224.937C98.2401 224.937 98.0089 224.853 97.8395 224.684C97.6701 224.516 97.5859 224.276 97.5859 223.965C97.5859 223.654 97.6993 223.4 97.927 223.245C98.1548 223.09 98.497 223.004 98.9559 222.989L99.4877 222.972V222.837C99.4877 222.526 99.3284 222.371 99.0108 222.371C98.7663 222.371 98.479 222.445 98.148 222.593L97.8709 222.028C98.2232 221.844 98.6137 221.75 99.0434 221.75C99.4731 221.75 99.7693 221.84 99.9881 222.019C100.207 222.199 100.317 222.471 100.317 222.837V224.881H99.7334L99.7345 224.882ZM99.4877 223.461L99.1646 223.472C98.9222 223.48 98.7404 223.524 98.6226 223.603C98.5037 223.684 98.4442 223.807 98.4442 223.971C98.4442 224.207 98.5789 224.325 98.8493 224.325C99.0434 224.325 99.1971 224.268 99.3138 224.157C99.4293 224.046 99.4877 223.898 99.4877 223.712V223.459V223.461Z" fill="#ACBCF8"/>
<path d="M103.315 223.971C103.315 224.286 103.206 224.525 102.987 224.691C102.769 224.855 102.443 224.938 102.008 224.938C101.785 224.938 101.595 224.923 101.438 224.893C101.281 224.863 101.134 224.819 100.997 224.76V224.069C101.152 224.142 101.327 224.204 101.522 224.254C101.716 224.303 101.888 224.328 102.036 224.328C102.339 224.328 102.49 224.24 102.49 224.065C102.49 223.998 102.47 223.946 102.43 223.904C102.389 223.863 102.32 223.816 102.221 223.765C102.122 223.713 101.991 223.652 101.826 223.583C101.59 223.484 101.418 223.393 101.307 223.309C101.197 223.224 101.116 223.128 101.065 223.019C101.015 222.91 100.99 222.776 100.99 222.616C100.99 222.345 101.096 222.133 101.307 221.984C101.518 221.834 101.816 221.76 102.204 221.76C102.592 221.76 102.932 221.841 103.28 222.002L103.028 222.605C102.874 222.539 102.73 222.485 102.598 222.443C102.465 222.402 102.329 222.38 102.19 222.38C101.943 222.38 101.819 222.447 101.819 222.58C101.819 222.656 101.859 222.721 101.938 222.775C102.018 222.83 102.192 222.911 102.46 223.019C102.699 223.115 102.874 223.206 102.986 223.291C103.097 223.375 103.18 223.471 103.233 223.582C103.286 223.692 103.313 223.822 103.313 223.974L103.315 223.971Z" fill="#ACBCF8"/>
<path d="M106.102 223.971C106.102 224.286 105.993 224.525 105.774 224.691C105.556 224.855 105.23 224.938 104.795 224.938C104.572 224.938 104.382 224.923 104.225 224.893C104.068 224.863 103.921 224.819 103.784 224.76V224.069C103.939 224.142 104.114 224.204 104.309 224.254C104.503 224.303 104.675 224.328 104.823 224.328C105.126 224.328 105.277 224.24 105.277 224.065C105.277 223.998 105.257 223.946 105.217 223.904C105.176 223.863 105.107 223.816 105.008 223.765C104.909 223.713 104.778 223.652 104.613 223.583C104.378 223.484 104.205 223.393 104.094 223.309C103.984 223.224 103.903 223.128 103.853 223.019C103.802 222.91 103.777 222.776 103.777 222.616C103.777 222.345 103.883 222.133 104.094 221.984C104.305 221.834 104.603 221.76 104.991 221.76C105.38 221.76 105.719 221.841 106.067 222.002L105.815 222.605C105.661 222.539 105.518 222.485 105.385 222.443C105.252 222.402 105.116 222.38 104.977 222.38C104.73 222.38 104.606 222.447 104.606 222.58C104.606 222.656 104.646 222.721 104.725 222.775C104.805 222.83 104.979 222.911 105.247 223.019C105.486 223.115 105.661 223.206 105.773 223.291C105.884 223.375 105.967 223.471 106.02 223.582C106.073 223.692 106.1 223.822 106.1 223.974L106.102 223.971Z" fill="#ACBCF8"/>
<path d="M109.271 224.882L109.036 223.809L108.718 222.454H108.699L108.14 224.882H107.242L106.371 221.814H107.204L107.557 223.173C107.613 223.416 107.671 223.752 107.73 224.18H107.747C107.753 224.04 107.786 223.82 107.842 223.519L107.886 223.285L108.264 221.814H109.184L109.543 223.285C109.55 223.326 109.562 223.385 109.578 223.464C109.593 223.543 109.608 223.626 109.623 223.714C109.637 223.803 109.651 223.89 109.662 223.975C109.674 224.061 109.681 224.128 109.682 224.18H109.699C109.716 224.048 109.745 223.867 109.786 223.638C109.828 223.409 109.858 223.254 109.877 223.173L110.244 221.814H111.063L110.181 224.882H109.271Z" fill="#ACBCF8"/>
<path d="M114.34 223.344C114.34 223.843 114.209 224.234 113.945 224.514C113.682 224.797 113.315 224.937 112.846 224.937C112.553 224.937 112.293 224.873 112.069 224.744C111.845 224.614 111.672 224.429 111.552 224.189C111.432 223.948 111.371 223.666 111.371 223.344C111.371 222.843 111.501 222.453 111.763 222.175C112.024 221.898 112.391 221.758 112.863 221.758C113.157 221.758 113.416 221.822 113.641 221.95C113.865 222.079 114.038 222.263 114.158 222.502C114.278 222.741 114.339 223.022 114.339 223.345L114.34 223.344ZM112.223 223.344C112.223 223.647 112.272 223.877 112.372 224.032C112.472 224.188 112.633 224.266 112.858 224.266C113.082 224.266 113.24 224.189 113.338 224.035C113.436 223.88 113.485 223.65 113.485 223.345C113.485 223.039 113.436 222.813 113.337 222.662C113.238 222.51 113.076 222.434 112.852 222.434C112.628 222.434 112.468 222.509 112.37 222.659C112.271 222.81 112.222 223.038 112.222 223.344H112.223Z" fill="#ACBCF8"/>
<path d="M116.739 221.758C116.853 221.758 116.947 221.766 117.021 221.783L116.958 222.567C116.891 222.549 116.809 222.54 116.711 222.54C116.444 222.54 116.237 222.609 116.088 222.746C115.939 222.883 115.865 223.075 115.865 223.322V224.883H115.029V221.816H115.662L115.786 222.331H115.827C115.922 222.159 116.05 222.021 116.212 221.916C116.373 221.81 116.55 221.758 116.739 221.758Z" fill="#ACBCF8"/>
<path d="M118.547 224.937C118.187 224.937 117.904 224.796 117.699 224.517C117.494 224.237 117.391 223.849 117.391 223.354C117.391 222.858 117.495 222.459 117.705 222.178C117.913 221.898 118.202 221.757 118.569 221.757C118.954 221.757 119.247 221.907 119.451 222.207H119.477C119.436 221.978 119.415 221.774 119.415 221.595V220.613H120.253V224.882H119.612L119.451 224.484H119.415C119.225 224.786 118.936 224.937 118.546 224.937H118.547ZM118.84 224.271C119.053 224.271 119.21 224.209 119.31 224.084C119.41 223.959 119.464 223.748 119.473 223.45V223.359C119.473 223.03 119.423 222.794 119.32 222.651C119.219 222.509 119.055 222.438 118.826 222.438C118.639 222.438 118.495 222.517 118.391 222.675C118.288 222.834 118.237 223.063 118.237 223.365C118.237 223.667 118.288 223.893 118.393 224.044C118.497 224.194 118.645 224.269 118.839 224.269L118.84 224.271Z" fill="#ACBCF8"/>
<path d="M194.039 108.126H238.273C239.962 108.126 241.332 109.569 241.332 111.348V111.687C241.332 114.987 243.871 117.661 247.002 117.661C250.133 117.661 252.672 114.986 252.672 111.687V111.348C252.672 109.569 254.041 108.126 255.731 108.126H299.965C307.764 108.126 314.086 114.788 314.086 123.005V360.45C314.086 368.667 307.764 375.329 299.965 375.329H194.039C186.24 375.329 179.918 368.667 179.918 360.45V123.005C179.918 114.788 186.24 108.126 194.039 108.126Z" fill="white"/>
<path d="M208.099 161.08L207.51 159.478H204.691L204.091 161.08L205.049 161.297V161.897H202V161.297L202.947 161.08L205.65 154.351H207.071L209.75 161.08L210.674 161.297V161.897H207.151V161.297L208.099 161.08ZM206.112 155.716L204.98 158.724H207.232L206.158 155.716H206.112Z" fill="#14142D"/>
<path d="M213.883 156.212C214.361 156.212 214.784 156.281 215.154 156.419C215.523 156.55 215.812 156.736 216.02 156.977C216.236 157.218 216.344 157.5 216.344 157.824C216.344 158.134 216.251 158.372 216.066 158.537C215.881 158.696 215.654 158.775 215.385 158.775C215.085 158.775 214.873 158.693 214.75 158.527C214.634 158.362 214.576 158.193 214.576 158.021C214.576 157.848 214.623 157.7 214.715 157.576C214.815 157.445 214.961 157.356 215.154 157.307C215.054 157.183 214.892 157.084 214.669 157.008C214.453 156.932 214.211 156.894 213.941 156.894C213.456 156.894 213.079 157.053 212.809 157.37C212.54 157.686 212.405 158.255 212.405 159.075C212.405 159.447 212.432 159.74 212.486 159.953C212.54 160.167 212.613 160.353 212.705 160.512C212.828 160.711 212.986 160.87 213.179 160.987C213.371 161.097 213.618 161.152 213.918 161.152C214.234 161.152 214.565 161.087 214.911 160.956C215.265 160.818 215.558 160.608 215.789 160.326L216.413 160.76C216.059 161.201 215.643 161.518 215.165 161.711C214.688 161.904 214.18 162 213.641 162C213.071 162 212.586 161.904 212.185 161.711C211.793 161.511 211.485 161.221 211.261 160.842C210.984 160.381 210.846 159.819 210.846 159.158C210.846 158.558 210.965 158.038 211.204 157.597C211.45 157.156 211.8 156.815 212.255 156.574C212.709 156.332 213.252 156.212 213.883 156.212Z" fill="#14142D"/>
<path d="M216.781 156.987V156.46L217.913 156.315L218.052 155.034L219.369 154.868V156.315H220.847V156.987H219.369V160.367C219.369 160.601 219.372 160.763 219.38 160.853C219.388 160.935 219.403 161.004 219.426 161.059C219.449 161.101 219.492 161.132 219.553 161.152C219.615 161.173 219.715 161.183 219.854 161.183H220.662V161.638C220.216 161.762 219.819 161.852 219.472 161.907C219.134 161.969 218.864 162 218.664 162C218.317 162 218.094 161.873 217.994 161.618C217.963 161.535 217.94 161.428 217.925 161.297C217.909 161.166 217.902 160.973 217.902 160.718V156.987H216.781Z" fill="#14142D"/>
<path d="M222.19 157.09L221.3 156.894V156.315H223.656V161.121L224.546 161.318V161.897H221.3V161.318L222.19 161.121V157.09ZM222.062 154.744C222.062 154.524 222.136 154.345 222.282 154.207C222.436 154.069 222.648 154 222.917 154C223.187 154 223.398 154.069 223.552 154.207C223.706 154.345 223.784 154.524 223.784 154.744C223.784 154.958 223.706 155.134 223.552 155.271C223.406 155.409 223.194 155.478 222.917 155.478C222.64 155.478 222.428 155.413 222.282 155.282C222.136 155.144 222.062 154.965 222.062 154.744Z" fill="#14142D"/>
<path d="M228.904 162H227.367L225.369 157.08L224.722 156.884V156.305H227.656V156.884L226.894 157.08L228.28 160.873H228.326L229.747 157.09L229.031 156.894V156.315H231.572V156.894L230.902 157.09L228.904 162Z" fill="#14142D"/>
<path d="M231.858 160.677C231.858 160.105 232.15 159.664 232.736 159.354C233.321 159.037 234.241 158.792 235.496 158.62C235.465 158.276 235.423 158.01 235.369 157.824C235.315 157.638 235.246 157.48 235.161 157.349C235.061 157.19 234.938 157.063 234.791 156.966C234.645 156.87 234.46 156.822 234.237 156.822C234.075 156.822 233.925 156.849 233.787 156.904C233.656 156.96 233.567 157.035 233.521 157.132C233.629 157.18 233.702 157.256 233.74 157.359C233.787 157.463 233.81 157.552 233.81 157.628C233.81 157.8 233.725 157.955 233.556 158.093C233.386 158.224 233.182 158.289 232.943 158.289C232.705 158.289 232.516 158.22 232.377 158.083C232.239 157.938 232.17 157.759 232.17 157.545C232.17 157.263 232.281 157.022 232.504 156.822C232.728 156.622 233.013 156.47 233.359 156.367C233.706 156.264 234.056 156.212 234.41 156.212C234.772 156.212 235.096 156.26 235.381 156.357C235.673 156.446 235.908 156.56 236.085 156.698C236.693 157.18 236.998 157.945 236.998 158.992V160.336C236.998 160.674 237.021 160.908 237.067 161.039C237.121 161.17 237.232 161.235 237.402 161.235H237.922V161.7C237.213 161.9 236.678 162 236.316 162C236.062 162 235.893 161.924 235.808 161.773C235.723 161.621 235.681 161.321 235.681 160.873H235.635C235.396 161.225 235.08 161.5 234.688 161.7C234.295 161.9 233.871 162 233.417 162C232.932 162 232.551 161.883 232.273 161.649C231.996 161.414 231.858 161.09 231.858 160.677ZM234.122 161.245C234.283 161.245 234.46 161.197 234.653 161.101C234.853 161.004 235.026 160.87 235.173 160.698C235.257 160.601 235.338 160.463 235.415 160.284C235.492 160.105 235.531 159.891 235.531 159.643C235.531 159.561 235.527 159.468 235.519 159.364C235.511 159.261 235.5 159.165 235.485 159.075C234.953 159.178 234.534 159.289 234.226 159.406C233.925 159.523 233.71 159.664 233.579 159.829C233.455 159.988 233.394 160.184 233.394 160.419C233.394 160.715 233.471 160.929 233.625 161.059C233.779 161.183 233.944 161.245 234.122 161.245Z" fill="#14142D"/>
<path d="M237.908 156.987V156.46L239.04 156.315L239.179 155.034L240.495 154.868V156.315H241.974V156.987H240.495V160.367C240.495 160.601 240.499 160.763 240.507 160.853C240.515 160.935 240.53 161.004 240.553 161.059C240.576 161.101 240.619 161.132 240.68 161.152C240.742 161.173 240.842 161.183 240.981 161.183H241.789V161.638C241.342 161.762 240.946 161.852 240.599 161.907C240.261 161.969 239.991 162 239.791 162C239.444 162 239.221 161.873 239.121 161.618C239.09 161.535 239.067 161.428 239.052 161.297C239.036 161.166 239.028 160.973 239.028 160.718V156.987H237.908Z" fill="#14142D"/>
<path d="M248.052 159.251H244.021C244.021 159.719 244.098 160.109 244.252 160.419C244.375 160.653 244.541 160.835 244.749 160.966C244.957 161.09 245.215 161.152 245.523 161.152C245.861 161.152 246.196 161.084 246.527 160.946C246.866 160.808 247.155 160.601 247.394 160.326L248.017 160.76C247.748 161.104 247.382 161.397 246.92 161.638C246.466 161.879 245.904 162 245.234 162C244.672 162 244.187 161.9 243.778 161.7C243.37 161.494 243.058 161.194 242.843 160.801C242.727 160.587 242.643 160.35 242.589 160.088C242.535 159.826 242.508 159.543 242.508 159.24C242.508 158.276 242.754 157.531 243.247 157.008C243.748 156.477 244.452 156.212 245.361 156.212C246.2 156.212 246.862 156.432 247.347 156.873C247.84 157.307 248.087 157.91 248.087 158.682C248.087 158.758 248.083 158.834 248.075 158.91C248.075 158.978 248.067 159.092 248.052 159.251ZM245.338 156.925C244.545 156.925 244.11 157.48 244.033 158.589H246.574V158.32C246.574 157.873 246.462 157.528 246.239 157.287C246.023 157.046 245.723 156.925 245.338 156.925Z" fill="#14142D"/>
<path d="M256.77 161.08L256.181 159.478H253.363L252.762 161.08L253.721 161.297V161.897H250.672V161.297L251.619 161.08L254.322 154.351H255.742L258.422 161.08L259.346 161.297V161.897H255.823V161.297L256.77 161.08ZM254.784 155.716L253.652 158.724H255.904L254.83 155.716H254.784Z" fill="#14142D"/>
<path d="M262.555 156.212C263.033 156.212 263.456 156.281 263.826 156.419C264.195 156.55 264.484 156.736 264.692 156.977C264.908 157.218 265.015 157.5 265.015 157.824C265.015 158.134 264.923 158.372 264.738 158.537C264.553 158.696 264.326 158.775 264.057 158.775C263.756 158.775 263.545 158.693 263.421 158.527C263.306 158.362 263.248 158.193 263.248 158.021C263.248 157.848 263.294 157.7 263.387 157.576C263.487 157.445 263.633 157.356 263.826 157.307C263.726 157.183 263.564 157.084 263.341 157.008C263.125 156.932 262.882 156.894 262.613 156.894C262.128 156.894 261.75 157.053 261.481 157.37C261.211 157.686 261.077 158.255 261.077 159.075C261.077 159.447 261.104 159.74 261.158 159.953C261.211 160.167 261.285 160.353 261.377 160.512C261.5 160.711 261.658 160.87 261.851 160.987C262.043 161.097 262.289 161.152 262.59 161.152C262.905 161.152 263.237 161.087 263.583 160.956C263.937 160.818 264.23 160.608 264.461 160.326L265.085 160.76C264.73 161.201 264.315 161.518 263.837 161.711C263.36 161.904 262.852 162 262.313 162C261.743 162 261.258 161.904 260.857 161.711C260.464 161.511 260.156 161.221 259.933 160.842C259.656 160.381 259.517 159.819 259.517 159.158C259.517 158.558 259.637 158.038 259.875 157.597C260.122 157.156 260.472 156.815 260.926 156.574C261.381 156.332 261.924 156.212 262.555 156.212Z" fill="#14142D"/>
<path d="M268.86 156.212C269.338 156.212 269.761 156.281 270.131 156.419C270.501 156.55 270.789 156.736 270.997 156.977C271.213 157.218 271.321 157.5 271.321 157.824C271.321 158.134 271.228 158.372 271.043 158.537C270.859 158.696 270.632 158.775 270.362 158.775C270.062 158.775 269.85 158.693 269.727 158.527C269.611 158.362 269.553 158.193 269.553 158.021C269.553 157.848 269.6 157.7 269.692 157.576C269.792 157.445 269.938 157.356 270.131 157.307C270.031 157.183 269.869 157.084 269.646 157.008C269.43 156.932 269.188 156.894 268.918 156.894C268.433 156.894 268.056 157.053 267.786 157.37C267.517 157.686 267.382 158.255 267.382 159.075C267.382 159.447 267.409 159.74 267.463 159.953C267.517 160.167 267.59 160.353 267.682 160.512C267.806 160.711 267.963 160.87 268.156 160.987C268.348 161.097 268.595 161.152 268.895 161.152C269.211 161.152 269.542 161.087 269.888 160.956C270.243 160.818 270.535 160.608 270.766 160.326L271.39 160.76C271.036 161.201 270.62 161.518 270.143 161.711C269.665 161.904 269.157 162 268.618 162C268.048 162 267.563 161.904 267.163 161.711C266.77 161.511 266.462 161.221 266.239 160.842C265.961 160.381 265.823 159.819 265.823 159.158C265.823 158.558 265.942 158.038 266.181 157.597C266.427 157.156 266.778 156.815 267.232 156.574C267.686 156.332 268.229 156.212 268.86 156.212Z" fill="#14142D"/>
<path d="M278.134 159.106C278.134 159.547 278.061 159.964 277.915 160.357C277.776 160.742 277.572 161.066 277.303 161.328C277.048 161.569 276.74 161.742 276.379 161.845C276.024 161.948 275.609 162 275.131 162C274.654 162 274.234 161.948 273.872 161.845C273.518 161.742 273.214 161.569 272.96 161.328C272.69 161.066 272.482 160.742 272.336 160.357C272.197 159.964 272.128 159.547 272.128 159.106C272.128 158.665 272.197 158.248 272.336 157.855C272.482 157.463 272.69 157.139 272.96 156.884C273.214 156.643 273.518 156.47 273.872 156.367C274.234 156.264 274.654 156.212 275.131 156.212C275.609 156.212 276.024 156.264 276.379 156.367C276.74 156.47 277.048 156.643 277.303 156.884C277.572 157.139 277.776 157.463 277.915 157.855C278.061 158.248 278.134 158.665 278.134 159.106ZM274.08 160.894C274.188 161.032 274.326 161.135 274.496 161.204C274.673 161.273 274.885 161.307 275.131 161.307C275.378 161.307 275.589 161.273 275.766 161.204C275.944 161.135 276.082 161.032 276.182 160.894C276.429 160.556 276.552 159.96 276.552 159.106C276.552 158.672 276.521 158.307 276.459 158.01C276.398 157.714 276.305 157.483 276.182 157.318C276.082 157.18 275.944 157.077 275.766 157.008C275.589 156.939 275.378 156.904 275.131 156.904C274.885 156.904 274.673 156.939 274.496 157.008C274.326 157.077 274.188 157.18 274.08 157.318C273.834 157.655 273.71 158.252 273.71 159.106C273.71 159.96 273.834 160.556 274.08 160.894Z" fill="#14142D"/>
<path d="M281.077 156.315V159.085C281.077 159.526 281.088 159.857 281.111 160.078C281.134 160.298 281.169 160.474 281.215 160.605C281.277 160.77 281.377 160.898 281.516 160.987C281.662 161.07 281.808 161.111 281.955 161.111C282.162 161.111 282.351 161.077 282.52 161.008C282.69 160.939 282.848 160.846 282.994 160.729C283.31 160.474 283.483 160.078 283.514 159.54V157.09L282.509 156.894V156.315H284.981V161.121L285.87 161.318V161.897L283.733 162L283.606 160.863H283.56C283.337 161.214 283.033 161.494 282.648 161.7C282.263 161.9 281.851 162 281.412 162C281.119 162 280.85 161.952 280.603 161.855C280.364 161.752 280.176 161.614 280.037 161.442C279.891 161.249 279.783 160.977 279.714 160.625C279.644 160.274 279.61 159.805 279.61 159.22V157.09L278.836 156.894V156.315H281.077Z" fill="#14142D"/>
<path d="M287.341 161.121V157.09L286.452 156.894V156.315H288.461L288.715 157.349H288.762C288.993 156.997 289.305 156.722 289.697 156.522C290.09 156.315 290.51 156.212 290.956 156.212C291.595 156.212 292.069 156.398 292.377 156.77C292.531 156.963 292.639 157.235 292.7 157.587C292.77 157.931 292.804 158.4 292.804 158.992V161.121L293.694 161.318V161.897H290.564V161.318L291.337 161.121V159.127C291.337 158.713 291.322 158.393 291.291 158.165C291.268 157.931 291.222 157.745 291.153 157.607C291.068 157.428 290.952 157.304 290.806 157.235C290.66 157.166 290.487 157.132 290.286 157.132C289.909 157.132 289.589 157.242 289.328 157.463C289.012 157.724 288.839 158.127 288.808 158.672V161.121L289.582 161.318V161.897H286.452V161.318L287.341 161.121Z" fill="#14142D"/>
<path d="M293.934 156.987V156.46L295.066 156.315L295.205 155.034L296.522 154.868V156.315H298V156.987H296.522V160.367C296.522 160.601 296.525 160.763 296.533 160.853C296.541 160.935 296.556 161.004 296.579 161.059C296.602 161.101 296.645 161.132 296.706 161.152C296.768 161.173 296.868 161.183 297.007 161.183H297.815V161.638C297.369 161.762 296.972 161.852 296.626 161.907C296.287 161.969 296.017 162 295.817 162C295.47 162 295.247 161.873 295.147 161.618C295.116 161.535 295.093 161.428 295.078 161.297C295.062 161.166 295.055 160.973 295.055 160.718V156.987H293.934Z" fill="#14142D"/>
<path d="M195.878 107.979H298.124C307.711 107.979 315.51 115.471 315.51 124.68V358.774C315.51 367.983 307.71 375.475 298.124 375.475H195.878C186.291 375.475 178.492 367.983 178.492 358.774V124.68C178.492 115.471 186.292 107.979 195.878 107.979ZM181.293 358.016C181.293 366.064 187.485 372.59 195.124 372.59H298.878C306.517 372.59 312.71 366.065 312.71 358.016V125.439C312.71 117.39 306.517 110.864 298.878 110.864H255.551C253.896 110.864 252.555 112.278 252.555 114.021V114.352C252.555 117.584 250.069 120.204 247.001 120.204C243.934 120.204 241.447 117.584 241.447 114.352V114.021C241.447 112.278 240.107 110.864 238.452 110.864H195.124C187.485 110.864 181.293 117.389 181.293 125.439V358.016ZM313.522 361.375C313.568 361.129 313.607 360.881 313.64 360.631C313.607 360.881 313.567 361.129 313.522 361.375C313.407 361.99 313.254 362.592 313.064 363.178C313.254 362.591 313.407 361.99 313.522 361.375Z" fill="#829CF8"/>
<path d="M247 116.038C248.021 116.038 248.848 115.244 248.848 114.263C248.848 113.283 248.021 112.488 247 112.488C245.98 112.488 245.152 113.283 245.152 114.263C245.152 115.244 245.98 116.038 247 116.038Z" fill="#0F31AC"/>
<path d="M247 265.387C271.505 265.387 291.37 246.025 291.37 222.141C291.37 198.257 271.505 178.895 247 178.895C222.494 178.895 202.629 198.257 202.629 222.141C202.629 246.025 222.494 265.387 247 265.387Z" fill="#E3E9F7"/>
<path d="M227.484 238.785C224.57 228.659 235.243 213.167 248 213.166C260.775 213.163 271.43 228.699 268.515 238.785C266.136 247.02 255.181 249.996 248.65 250.158C241.329 250.34 229.915 247.228 227.485 238.785H227.484Z" fill="white"/>
<path d="M247.055 222.966C255.094 222.966 261.611 216.034 261.611 207.483C261.611 198.932 255.094 192 247.055 192C239.017 192 232.5 198.932 232.5 207.483C232.5 216.034 239.017 222.966 247.055 222.966Z" fill="white" stroke="#E3E9F7" stroke-width="7.72" stroke-miterlimit="10"/>
<path opacity="0.15" d="M277.289 283.74H216.71C214.649 283.74 212.979 285.413 212.979 287.477V300.823C212.979 302.887 214.649 304.561 216.71 304.561H277.289C279.35 304.561 281.021 302.887 281.021 300.823V287.477C281.021 285.413 279.35 283.74 277.289 283.74Z" fill="black"/>
<path d="M276.603 282.483H217.394C215.333 282.483 213.662 284.156 213.662 286.22V299.146C213.662 301.21 215.333 302.883 217.394 302.883H276.603C278.664 302.883 280.334 301.21 280.334 299.146V286.22C280.334 284.156 278.664 282.483 276.603 282.483Z" fill="#829CF8"/>
<path d="M236.401 293.908C236.401 294.404 236.223 294.795 235.866 295.081C235.509 295.366 235.013 295.51 234.377 295.51C233.792 295.51 233.273 295.4 232.822 295.178V294.095C233.193 294.26 233.507 294.377 233.762 294.445C234.019 294.512 234.254 294.546 234.467 294.546C234.723 294.546 234.918 294.498 235.055 294.399C235.192 294.301 235.259 294.156 235.259 293.963C235.259 293.855 235.229 293.759 235.169 293.675C235.109 293.591 235.021 293.51 234.905 293.432C234.788 293.355 234.551 293.23 234.193 293.06C233.858 292.902 233.607 292.75 233.438 292.605C233.27 292.46 233.136 292.291 233.037 292.098C232.937 291.904 232.886 291.678 232.886 291.421C232.886 290.935 233.051 290.553 233.38 290.274C233.709 289.995 234.164 289.856 234.745 289.856C235.03 289.856 235.303 289.89 235.562 289.957C235.821 290.025 236.092 290.12 236.376 290.242L236 291.149C235.707 291.029 235.464 290.945 235.273 290.898C235.081 290.85 234.892 290.826 234.707 290.826C234.487 290.826 234.318 290.877 234.2 290.98C234.082 291.083 234.024 291.217 234.024 291.382C234.024 291.484 234.047 291.574 234.096 291.65C234.143 291.727 234.219 291.801 234.323 291.872C234.428 291.944 234.674 292.072 235.062 292.257C235.574 292.503 235.927 292.749 236.116 292.996C236.307 293.244 236.401 293.546 236.401 293.904V293.908Z" fill="white"/>
<path d="M237.396 295.433V289.936H238.561V295.433H237.396Z" fill="white"/>
<path d="M242.026 292.347H244.204V295.198C243.851 295.313 243.519 295.394 243.207 295.44C242.895 295.486 242.576 295.51 242.251 295.51C241.422 295.51 240.789 295.266 240.353 294.779C239.916 294.291 239.697 293.591 239.697 292.679C239.697 291.766 239.951 291.099 240.458 290.603C240.965 290.107 241.667 289.858 242.566 289.858C243.129 289.858 243.672 289.971 244.195 290.197L243.808 291.129C243.408 290.928 242.991 290.828 242.557 290.828C242.055 290.828 241.651 290.998 241.348 291.336C241.045 291.674 240.893 292.129 240.893 292.701C240.893 293.273 241.016 293.754 241.259 294.069C241.504 294.383 241.858 294.54 242.324 294.54C242.566 294.54 242.813 294.516 243.063 294.465V293.318H242.023V292.348L242.026 292.347Z" fill="white"/>
<path d="M250.38 295.433H248.9L246.512 291.274H246.478C246.525 292.009 246.55 292.532 246.55 292.846V295.433H245.51V289.936H246.978L249.363 294.054H249.388C249.351 293.339 249.332 292.834 249.332 292.538V289.936H250.38V295.433Z" fill="white"/>
<path d="M253.76 295.433V289.936H254.924V295.433H253.76Z" fill="white"/>
<path d="M261.177 295.433H259.697L257.309 291.274H257.275C257.322 292.009 257.347 292.532 257.347 292.846V295.433H256.307V289.936H257.775L260.16 294.054H260.185C260.148 293.339 260.129 292.834 260.129 292.538V289.936H261.177V295.433Z" fill="white"/>
<path d="M136.352 269.641L142.416 273.009L138.659 281.855L147.228 296.709C147.228 296.709 149.404 296.906 151.974 298.557C151.974 299.065 151.464 299.414 150.991 299.23L149.601 298.688C149.601 298.688 152.964 301.461 152.699 303.904C152.699 303.904 152.105 307.337 149.073 306.677C149.073 306.677 146.172 306.941 143.799 300.669L133.845 283.463C133.359 282.622 133.224 281.624 133.469 280.685L136.351 269.641H136.352Z" fill="#DB965F"/>
<path d="M141.859 369.8L147.677 370.021L147.844 365.585L147.881 364.601L147.971 362.204L142.154 362.868L142.08 364.601L142.016 366.112L141.859 369.8Z" fill="#DB965F"/>
<path d="M140.823 372.314C140.571 370.932 140.43 368.469 141.914 366.307C141.914 366.307 145.156 368.43 147.73 365.658C147.73 365.658 150.128 366.009 156.179 369.427C156.858 369.81 157.555 370.159 158.264 370.48C159.241 370.92 160.776 371.737 161.542 372.8C162.332 373.894 161.777 375.442 160.482 375.821C157.999 376.547 151.025 377.896 141.999 373.827C141.381 373.548 140.944 372.981 140.823 372.314Z" fill="#040C2B"/>
<path d="M141.196 364.047H148.192L153.493 327.989L160.991 292.335L161.372 290.529L145.028 290.076L142.742 290.013C142.742 290.013 139.502 294.881 142.005 306.014L142.742 324.302C142.742 324.302 138.251 337.575 141.196 364.047Z" fill="#040C2B"/>
<path opacity="0.15" d="M147.41 364.047H148.192L153.494 327.988L160.992 292.334L154.6 290.889L149.1 291.223C149.1 299.344 148.35 301.321 151.183 312.42L153.184 318.678L147.41 364.047Z" fill="black"/>
<path d="M144.998 360.263L145.84 360.829L149.827 363.518L151.1 361.621L152.301 359.836L153.656 357.818L153.799 357.607L154.187 357.029L153.774 356.834L148.892 354.526L148.876 354.55L147.069 357.21L144.998 360.263Z" fill="#DB965F"/>
<path d="M143.228 363.834C148.675 372.137 155.314 374.689 157.634 375.358C158.77 375.685 159.929 374.884 160.007 373.703C160.097 372.325 159.152 370.605 158.519 369.622C158.081 368.943 157.676 368.241 157.302 367.526C155.222 363.554 153.729 361.494 152.943 360.541C152.52 360.03 152.3 359.837 152.3 359.837C148.634 360.759 147.068 357.212 147.068 357.212C145.294 357.95 144.166 359.298 143.477 360.476C143.306 360.768 143.163 361.048 143.043 361.308C142.664 362.126 142.733 363.083 143.227 363.836L143.228 363.834Z" fill="#040C2B"/>
<path d="M147.289 353.466L148.363 354.201L148.874 354.55L153.655 357.818L153.808 357.922L154.861 358.642L168.853 336.902L170.802 333.851C172.177 331.701 172.645 329.093 172.107 326.598L164.46 291.192L162.993 291.136L149.154 290.62L149.099 292.068C148.825 299.321 150.102 306.549 152.845 313.267L158.869 328.019C159.173 329.187 159.037 330.428 158.49 331.503L151.594 345.023L147.289 353.466Z" fill="#040C2B"/>
<path opacity="0.15" d="M142.08 364.601H147.881L147.97 362.204L142.154 362.868L142.08 364.601Z" fill="black"/>
<path d="M148.934 249.157L148.947 256.234L156.934 258.843C156.934 258.843 158.688 252.833 160.903 252.301C163.118 251.768 160.888 252.127 160.888 252.127L151.189 241.865L148.934 249.157Z" fill="#C9885B"/>
<path d="M161.593 240.017C161.593 240.017 165.151 248.439 162.156 255.024C161.827 255.749 161.033 256.112 160.293 255.868C158.227 255.186 154.003 252.975 150.445 245.904C150.445 245.904 156.81 235.379 161.592 240.019L161.593 240.017Z" fill="#DB965F"/>
<path d="M151.586 248.794C151.586 248.794 151.607 251.453 148.941 252.506C148.941 252.506 146.349 246.181 146.974 241.391C146.974 241.391 148.911 235.384 154.02 237.129C154.02 237.129 159.428 234.229 162.249 236.981C162.249 236.981 164.586 241.412 161.41 241.905C161.41 241.905 160.006 240.616 158.367 241.277C158.367 241.277 159.179 244.311 157.007 245.366L156.989 249.287L156.372 249.338L155.799 247.161C155.799 247.161 153.261 243.04 151.586 248.794Z" fill="black"/>
<path d="M140.324 261.096C140.324 261.096 136.286 260.993 134.836 274.857L141.824 277.431C141.824 277.431 147.196 261.992 140.324 261.096Z" fill="white"/>
<path opacity="0.15" d="M138.771 281.308L140.627 276.938L141.739 277.348C141.739 277.348 143.575 272.072 143.727 267.51L139.428 269.881L139.348 271.268L139.055 276.359L138.771 281.308Z" fill="black"/>
<path d="M148.715 255.402L146.865 256.614L146.556 256.816L139.978 261.124L139.479 270.633L139.389 272.35C139.387 272.393 139.387 272.436 139.387 272.478L139.741 290.037L139.758 290.842C139.773 291.577 140.238 292.229 140.932 292.473C145.497 294.078 151.254 294.079 156.203 293.594H156.207C160.207 293.203 163.68 292.494 165.566 292.062C166.431 291.864 167.013 291.053 166.928 290.168L165.768 278.141C165.761 278.065 165.758 277.988 165.761 277.912L166.332 261.006C166.343 260.681 165.644 259.521 165.345 259.392L160.161 257.791L159.932 257.692L157.86 256.796L148.718 255.404L148.715 255.402Z" fill="white"/>
<path opacity="0.15" d="M165.68 278.057C165.673 277.98 165.671 277.903 165.673 277.827L165.941 269.88L163.32 269.166L166.819 289.862L165.68 278.057Z" fill="black"/>
<path d="M188.189 269.211L188.024 268.85L187.109 266.841L185.322 262.915L183.738 262.985L180.968 263.107L167.006 263.722L177.135 271.611L188.189 269.211Z" fill="#DB965F"/>
<path d="M189.08 260.602L196.789 255.028C198.266 253.841 199.574 252.126 200.365 250.978C200.793 250.356 201.148 249.684 201.401 248.971C201.917 247.525 202.759 246.062 203.47 244.961C204.183 243.86 204.766 243.12 204.766 243.12C205.309 243.485 205.484 244.204 205.17 244.778L203.863 247.167L205.841 245.435C206.511 244.849 207.335 244.459 208.217 244.347C211.519 243.927 210.964 247.775 210.964 247.775C210.204 250.57 205.271 253.99 205.271 253.99L190.71 268.07C189.776 268.973 188.545 269.323 187.378 269.168C186.232 269.017 185.149 268.378 184.479 267.293L185.318 262.975L189.08 260.603V260.602Z" fill="#DB965F"/>
<path d="M165.79 272.874L173.756 272.537L180.039 271.975L179.59 262.424C170.053 259.84 164.848 259.088 163.882 259.391C163.534 259.5 162.807 260.229 162.807 260.229C161.017 263.795 161.573 268.094 164.212 271.085L165.79 272.874Z" fill="white"/>
</g>
<defs>
<clipPath id="clip0_4775_4074">
<rect width="494" height="380" fill="white"/>
</clipPath>
</defs>
</svg>
