<svg width="20" height="20" viewBox="0 0 20 20" fill="none" xmlns="http://www.w3.org/2000/svg">
<path fill-rule="evenodd" clip-rule="evenodd" d="M2.05777 1H16.5644C16.8449 1 17.114 1.13777 17.3123 1.38302C17.5107 1.62825 17.6221 1.96087 17.6221 2.30769V8.56595H16.7155L12.05 8.96883L11.5777 14.4506L2.05777 14.4506C2.05777 14.5001 1.9226 14.3608 1.95093 14.3959C1.97927 14.4309 2.01771 14.4506 2.05777 14.4506L11.5777 14.4506V15.5715H2.05777C1.77724 15.5715 1.50815 15.4337 1.30982 15.1884C1.11141 14.9432 1 14.6106 1 14.2638V2.30769C1 1.96087 1.11141 1.62825 1.30982 1.38302C1.50815 1.13777 1.77724 1 2.05777 1ZM16.5644 2.12088H2.05777C2.01771 2.12088 1.97927 2.14056 1.95093 2.1756C1.9226 2.21063 1.90666 2.25815 1.90666 2.30769V4.73627H16.7155V2.30769C16.7155 2.25815 16.6995 2.21063 16.6712 2.1756C16.6429 2.14056 16.6044 2.12088 16.5644 2.12088ZM9.7827 12.4183C9.86778 12.3132 9.91552 12.1706 9.91552 12.022C9.91552 11.8734 9.86778 11.7308 9.7827 11.6257C9.6977 11.5206 9.58238 11.4616 9.46218 11.4616H7.04442C6.92422 11.4616 6.8089 11.5206 6.7239 11.6257C6.63882 11.7308 6.59109 11.8734 6.59109 12.022C6.59109 12.1706 6.63882 12.3132 6.7239 12.4183C6.8089 12.5234 6.92422 12.5824 7.04442 12.5824H9.46218C9.58238 12.5824 9.6977 12.5234 9.7827 12.4183ZM4.94717 12.4183C5.03224 12.3132 5.07998 12.1706 5.07998 12.022C5.07998 11.8734 5.03224 11.7308 4.94717 11.6257C4.86217 11.5206 4.74684 11.4616 4.62665 11.4616H3.41777C3.29757 11.4616 3.18225 11.5206 3.09725 11.6257C3.01217 11.7308 2.96444 11.8734 2.96444 12.022C2.96444 12.1706 3.01217 12.3132 3.09725 12.4183C3.18225 12.5234 3.29757 12.5824 3.41777 12.5824H4.62665C4.74684 12.5824 4.86217 12.5234 4.94717 12.4183Z" fill="white"/>
<path fill-rule="evenodd" clip-rule="evenodd" d="M11.5801 9.58404C11.5801 9.19015 11.7069 8.81239 11.9328 8.53387C12.1586 8.25535 12.4649 8.09888 12.7842 8.09888H16.7981C17.1175 8.09888 17.4238 8.25535 17.6496 8.53387C17.8754 8.81239 18.0023 9.19015 18.0023 9.58404V17.5049C18.0022 17.5981 17.9808 17.6895 17.9405 17.7684C17.9003 17.8473 17.8427 17.9105 17.7746 17.9509C17.7064 17.9912 17.6304 18.007 17.5553 17.9964C17.4802 17.9858 17.409 17.9493 17.35 17.891L16.5974 17.1484L15.8448 17.891C15.7677 17.9672 15.6705 18.0056 15.5719 17.999C15.4732 17.9923 15.3801 17.941 15.3102 17.8549L14.7912 17.2148L14.2722 17.8549C14.2023 17.9411 14.1092 17.9925 14.0105 17.9992C13.9119 18.006 13.8147 17.9676 13.7375 17.8915L12.9849 17.1484L12.2323 17.891C12.1733 17.9493 12.1022 17.9858 12.027 17.9964C11.9519 18.007 11.8759 17.9912 11.8078 17.9509C11.7396 17.9105 11.6821 17.8473 11.6418 17.7684C11.6015 17.6895 11.5801 17.5981 11.5801 17.5049V9.58404ZM12.7842 9.08898C12.6778 9.08898 12.5757 9.14114 12.5004 9.23398C12.4251 9.32682 12.3829 9.45274 12.3829 9.58404V16.4752L12.7341 16.1286C12.8053 16.0583 12.8937 16.02 12.9849 16.02C13.0761 16.02 13.1646 16.0583 13.2358 16.1286L13.9583 16.8415L14.5074 16.1648C14.5827 16.072 14.6847 16.0198 14.7912 16.0198C14.8976 16.0198 14.9997 16.072 15.075 16.1648L15.6237 16.8415L16.3466 16.1286C16.4177 16.0583 16.5062 16.02 16.5974 16.02C16.6886 16.02 16.7771 16.0583 16.8483 16.1286L17.1995 16.4752V9.58404C17.1995 9.45274 17.1572 9.32682 17.0819 9.23398C17.0067 9.14114 16.9046 9.08898 16.7981 9.08898H12.7842ZM13.1856 11.5642C13.1856 11.433 13.2279 11.307 13.3032 11.2142C13.3785 11.1214 13.4806 11.0692 13.587 11.0692H15.9953C16.1018 11.0692 16.2039 11.1214 16.2792 11.2142C16.3544 11.307 16.3967 11.433 16.3967 11.5642C16.3967 11.6955 16.3544 11.8215 16.2792 11.9143C16.2039 12.0071 16.1018 12.0593 15.9953 12.0593H13.587C13.4806 12.0593 13.3785 12.0071 13.3032 11.9143C13.2279 11.8215 13.1856 11.6955 13.1856 11.5642ZM13.587 13.0494C13.4806 13.0494 13.3785 13.1016 13.3032 13.1944C13.2279 13.2872 13.1856 13.4132 13.1856 13.5445C13.1856 13.6758 13.2279 13.8017 13.3032 13.8945C13.3785 13.9874 13.4806 14.0395 13.587 14.0395H14.7912C14.8976 14.0395 14.9997 13.9874 15.075 13.8945C15.1503 13.8017 15.1926 13.6758 15.1926 13.5445C15.1926 13.4132 15.1503 13.2872 15.075 13.1944C14.9997 13.1016 14.8976 13.0494 14.7912 13.0494H13.587Z" fill="white"/>
</svg>
