<svg width="330" height="240" viewBox="0 0 330 240" fill="none" xmlns="http://www.w3.org/2000/svg">
<path d="M324.028 206.197H6V206.356H324.028V206.197Z" fill="#EBEBEB"/>
<path d="M292.163 216.435H271.096V216.594H292.163V216.435Z" fill="#EBEBEB"/>
<path d="M216.674 218.161H211.145V218.32H216.674V218.161Z" fill="#EBEBEB"/>
<path d="M270.457 210.528H258.25V210.687H270.457V210.528Z" fill="#EBEBEB"/>
<path d="M66.8403 211.597H39.3672V211.756H66.8403V211.597Z" fill="#EBEBEB"/>
<path d="M76.532 211.597H72.5039V211.756H76.532V211.597Z" fill="#EBEBEB"/>
<path d="M149.206 214.283H89.623V214.442H149.206V214.283Z" fill="#EBEBEB"/>
<path d="M99.1227 36.5307C99.1227 32.5496 95.8954 29.3223 91.9143 29.3223C91.1943 29.3223 90.5003 29.431 89.8446 29.6276C89.9495 28.905 90.0061 28.1659 90.0061 27.4141C90.0061 18.9832 83.1717 12.1488 74.7408 12.1488C73.7797 12.1488 72.8409 12.2416 71.9288 12.4114C69.5824 8.57157 65.3647 6 60.5358 6C53.2262 6 47.2969 11.8727 47.1888 19.1562C47.1137 19.1549 47.0412 19.1447 46.9668 19.1447C40.1756 19.1447 34.6699 24.6504 34.6699 31.4416C34.6699 38.2334 40.1756 43.7385 46.9668 43.7385H92.1267L92.1178 43.7283C96.0035 43.6208 99.1227 40.4437 99.1227 36.5307Z" fill="#F0F0F0"/>
<path d="M72.6266 47.3191V33.2661H61.1636V47.3191H51.8301L66.8951 60.0485L81.96 47.3191H72.6266Z" fill="#C6C6D4"/>
<path d="M272.05 32.732C272.05 30.6711 270.38 29.0002 268.319 29.0002C267.946 29.0002 267.587 29.0568 267.247 29.158C267.302 28.784 267.331 28.4017 267.331 28.0124C267.331 23.6484 263.793 20.1101 259.429 20.1101C258.931 20.1101 258.445 20.1584 257.973 20.2462C256.758 18.2585 254.575 16.9272 252.075 16.9272C248.291 16.9272 245.222 19.9676 245.166 23.7375C245.128 23.7369 245.09 23.7318 245.051 23.7318C241.536 23.7318 238.686 26.5819 238.686 30.0974C238.686 33.6129 241.536 36.4631 245.051 36.4631H268.428L268.423 36.458C270.436 36.402 272.05 34.7572 272.05 32.732Z" fill="#F0F0F0"/>
<path d="M252.402 33.0212V40.2957H258.336V33.0212H263.167L255.368 26.4316L247.57 33.0212H252.402Z" fill="#C6C6D4"/>
<path d="M89.9273 75.6793L34.5879 87.9102L43.7451 129.343L99.0845 117.112L89.9273 75.6793Z" fill="#FAFAFA"/>
<path d="M87.8384 78.9516L38.0039 89.9658L45.9444 125.893L95.7789 114.879L87.8384 78.9516Z" fill="#C6C6D4"/>
<path d="M94.7043 109.996L95.785 114.884L45.9481 125.899L42.0879 108.434L50.3802 97.1602L68.9377 108.677L75.7117 100.999L94.7043 109.996Z" fill="#EBEBEB"/>
<path d="M81.6378 90.2471C82.1276 92.4631 80.7282 94.6569 78.5122 95.146C76.2962 95.6358 74.1031 94.2365 73.6133 92.0205C73.1236 89.8044 74.5229 87.6107 76.7389 87.1209C78.9543 86.6318 81.148 88.0311 81.6378 90.2471Z" fill="#EBEBEB"/>
<path opacity="0.3" d="M81.6378 90.2471C82.1276 92.4631 80.7282 94.6569 78.5122 95.146C76.2962 95.6358 74.1031 94.2365 73.6133 92.0205C73.1236 89.8044 74.5229 87.6107 76.7389 87.1209C78.9543 86.6318 81.148 88.0311 81.6378 90.2471Z" fill="#EBEBEB"/>
<path d="M104.222 162.534L70.25 153.02L57.8254 197.384L91.7971 206.898L104.222 162.534Z" fill="#EBEBEB"/>
<path d="M97.3804 167.389L73.5527 160.715L72.8811 163.113L96.7088 169.787L97.3804 167.389Z" fill="#C6C6D4"/>
<path d="M96.2046 171.585L72.377 164.911L71.7054 167.309L95.533 173.983L96.2046 171.585Z" fill="#C6C6D4"/>
<path d="M95.0308 175.781L71.2031 169.107L70.5315 171.505L94.3592 178.179L95.0308 175.781Z" fill="#C6C6D4"/>
<path d="M93.855 179.977L70.0273 173.303L69.3557 175.701L93.1834 182.375L93.855 179.977Z" fill="#C6C6D4"/>
<path d="M92.6792 184.173L68.8516 177.5L68.18 179.897L92.0076 186.571L92.6792 184.173Z" fill="#C6C6D4"/>
<path d="M91.5054 188.369L67.6777 181.695L67.0061 184.093L90.8338 190.767L91.5054 188.369Z" fill="#C6C6D4"/>
<path d="M90.3296 192.566L66.502 185.892L65.8304 188.289L89.658 194.963L90.3296 192.566Z" fill="#C6C6D4"/>
<path d="M80.7584 194.409L65.3281 190.087L64.6565 192.485L80.0868 196.807L80.7584 194.409Z" fill="#C6C6D4"/>
<path d="M95.9092 144.59L61.9375 135.076L49.5129 179.44L83.4846 188.954L95.9092 144.59Z" fill="#FAFAFA"/>
<path d="M89.0679 149.447L65.2402 142.773L64.5686 145.171L88.3963 151.845L89.0679 149.447Z" fill="#C6C6D4"/>
<path d="M87.8921 153.643L64.0645 146.969L63.3929 149.367L87.2205 156.04L87.8921 153.643Z" fill="#C6C6D4"/>
<path d="M86.7163 157.838L62.8887 151.165L62.2171 153.562L86.0448 160.236L86.7163 157.838Z" fill="#C6C6D4"/>
<path d="M85.5425 162.035L61.7148 155.361L61.0432 157.759L84.8709 164.433L85.5425 162.035Z" fill="#C6C6D4"/>
<path d="M84.3667 166.231L60.5391 159.557L59.8675 161.955L83.6951 168.629L84.3667 166.231Z" fill="#C6C6D4"/>
<path d="M83.191 170.427L59.3633 163.753L58.6917 166.151L82.5194 172.825L83.191 170.427Z" fill="#C6C6D4"/>
<path d="M82.0171 174.623L58.1895 167.949L57.5179 170.347L81.3455 177.021L82.0171 174.623Z" fill="#C6C6D4"/>
<path d="M72.4439 176.467L57.0137 172.146L56.3421 174.543L71.7723 178.865L72.4439 176.467Z" fill="#C6C6D4"/>
<path d="M287.918 77.7578C284.278 74.9286 279.424 65.6269 279.431 65.585L274.672 98.3546C274.78 97.6129 271.876 96.7364 269.935 96.4547C265.237 95.7722 261.175 97.8184 260.713 101.002C260.251 104.187 263.746 107.33 268.445 108.012C273.144 108.694 277.161 106.642 277.623 103.458C277.692 102.979 277.334 102.455 277.399 102.01L281.065 76.7617C281.065 76.7617 283.54 80.1487 287.827 82.3508C291.314 84.1419 292.448 89.1235 292.448 89.1235C292.448 89.1235 293.542 82.1281 287.918 77.7578Z" fill="#C6C6D4"/>
<path d="M252.185 93.6198C249.675 91.669 246.328 85.2537 246.332 85.2251L243.05 107.824C243.125 107.313 241.122 106.709 239.783 106.514C236.543 106.043 233.742 107.454 233.423 109.65C233.104 111.845 235.515 114.013 238.756 114.484C241.996 114.954 244.766 113.538 245.085 111.343C245.133 111.013 244.886 110.651 244.93 110.344L247.459 92.9328C247.459 92.9328 249.165 95.2684 252.122 96.7867C254.527 98.0219 255.309 101.457 255.309 101.457C255.309 101.457 256.064 96.6334 252.185 93.6198Z" fill="#C6C6D4"/>
<path d="M250.988 158.583L249.243 157.209C248.604 156.706 247.767 156.535 247.01 156.753L238.234 159.28C237.478 159.498 236.904 160.076 236.704 160.82L236.157 162.854C235.958 163.599 235.383 164.177 234.627 164.395L229.39 165.904C228.141 166.263 227.482 167.559 227.917 168.796L238.055 197.617C238.491 198.856 239.856 199.568 241.105 199.208L282.612 187.252C283.861 186.892 284.52 185.597 284.085 184.359L273.947 155.538C273.511 154.3 272.146 153.588 270.897 153.947L253.22 159.039C252.465 159.257 251.627 159.085 250.988 158.583Z" fill="#C6C6D4"/>
<path d="M275.85 155.545L237.823 166.498C236.238 166.955 235.205 168.633 235.516 170.247L240.541 196.286C240.853 197.9 242.39 198.837 243.976 198.381L282.003 187.427C283.589 186.97 284.621 185.292 284.31 183.679L279.285 157.639C278.974 156.026 277.436 155.088 275.85 155.545Z" fill="#E6E6E6"/>
<path d="M165.014 234.923C233.124 234.923 288.338 231.699 288.338 227.721C288.338 223.744 233.124 220.519 165.014 220.519C96.9036 220.519 41.6895 223.744 41.6895 227.721C41.6895 231.699 96.9036 234.923 165.014 234.923Z" fill="#F1F0FF"/>
<path d="M292.261 114.989C292.261 151.149 264.935 180.567 231.347 180.567C197.758 180.567 170.432 151.149 170.432 114.989C170.432 78.8289 197.758 49.4107 231.347 49.4107C252.064 49.4107 271.092 60.5404 282.4 79.215L277.919 82.2102L289.606 85.8083L291.599 73.065L287.42 75.8592C275.026 55.305 254.116 43.0508 231.347 43.0508C194.5 43.0508 164.523 75.3223 164.523 114.989C164.523 154.656 194.5 186.928 231.347 186.928C268.193 186.928 298.17 154.657 298.17 114.989H292.261V114.989Z" fill="#9DA2FF"/>
<path opacity="0.7" d="M292.261 114.989C292.261 151.149 264.935 180.567 231.347 180.567C197.758 180.567 170.432 151.149 170.432 114.989C170.432 78.8289 197.758 49.4107 231.347 49.4107C252.064 49.4107 271.092 60.5404 282.4 79.215L277.919 82.2102L289.606 85.8083L291.599 73.065L287.42 75.8592C275.026 55.305 254.116 43.0508 231.347 43.0508C194.5 43.0508 164.523 75.3223 164.523 114.989C164.523 154.656 194.5 186.928 231.347 186.928C268.193 186.928 298.17 154.657 298.17 114.989H292.261V114.989Z" fill="white"/>
<path d="M240.344 101.404V92.7577L236.208 92.3385C235.649 89.4406 234.583 86.7457 233.124 84.3522L235.78 80.8984L230.101 74.784L226.892 77.6437C224.669 76.0733 222.166 74.9246 219.474 74.3235L219.085 69.8711H211.053L210.664 74.3235C207.971 74.9246 205.469 76.0733 203.246 77.6437L200.037 74.784L194.358 80.8984L197.014 84.3522C195.556 86.7457 194.488 89.44 193.93 92.3385L189.795 92.7577V101.404L193.93 101.823C194.488 104.721 195.556 107.416 197.014 109.81L194.358 113.264L200.037 119.377L203.245 116.518C205.469 118.088 207.971 119.237 210.664 119.838L211.053 124.289H219.085L219.474 119.838C222.166 119.237 224.669 118.088 226.892 116.518L230.101 119.377L235.78 113.264L233.124 109.81C234.583 107.416 235.65 104.722 236.208 101.823L240.344 101.404ZM215.069 108.786C209.064 108.786 204.196 103.545 204.196 97.0809C204.196 90.6167 209.064 85.3762 215.069 85.3762C221.073 85.3762 225.941 90.6167 225.941 97.0809C225.941 103.545 221.074 108.786 215.069 108.786Z" fill="#9DA2FF"/>
<path d="M272.894 125.81V119.035L269.654 118.706C269.216 116.435 268.379 114.324 267.236 112.448L269.318 109.742L264.868 104.95L262.353 107.191C260.612 105.961 258.65 105.061 256.541 104.589L256.235 101.101H249.942L249.637 104.589C247.527 105.061 245.565 105.961 243.824 107.191L241.31 104.95L236.859 109.742L238.941 112.448C237.798 114.324 236.962 116.436 236.524 118.706L233.283 119.035V125.81L236.524 126.139C236.962 128.41 237.798 130.521 238.941 132.397L236.859 135.103L241.31 139.895L243.824 137.654C245.566 138.884 247.527 139.785 249.637 140.255L249.942 143.744H256.235L256.541 140.255C258.65 139.784 260.612 138.884 262.354 137.654L264.868 139.895L269.318 135.103L267.237 132.397C268.38 130.521 269.217 128.41 269.654 126.139L272.894 125.81ZM253.088 131.594C248.383 131.594 244.568 127.488 244.568 122.422C244.568 117.356 248.383 113.25 253.088 113.25C257.794 113.25 261.608 117.356 261.608 122.422C261.608 127.488 257.794 131.594 253.088 131.594Z" fill="#9DA2FF"/>
<path d="M240.343 145.045V139.354L237.621 139.078C237.254 137.17 236.552 135.397 235.591 133.822L237.34 131.548L233.602 127.524L231.49 129.406C230.026 128.373 228.379 127.616 226.607 127.221L226.35 124.291H221.065L220.809 127.221C219.036 127.617 217.389 128.373 215.926 129.407L213.814 127.525L210.076 131.549L211.824 133.822C210.864 135.398 210.162 137.171 209.795 139.079L207.072 139.355V145.046L209.794 145.321C210.162 147.228 210.864 149.002 211.824 150.577L210.076 152.851L213.814 156.875L215.926 154.993C217.388 156.026 219.036 156.783 220.809 157.178L221.065 160.108H226.35L226.607 157.178C228.379 156.782 230.026 156.026 231.49 154.993L233.602 156.875L237.34 152.851L235.591 150.577C236.552 149.002 237.254 147.228 237.621 145.321L240.343 145.045ZM223.708 149.903C219.755 149.903 216.551 146.454 216.551 142.199C216.551 137.945 219.755 134.495 223.708 134.495C227.659 134.495 230.864 137.945 230.864 142.199C230.864 146.454 227.659 149.903 223.708 149.903Z" fill="#9DA2FF"/>
<path opacity="0.7" d="M240.344 101.404V92.7577L236.208 92.3385C235.649 89.4406 234.583 86.7457 233.124 84.3522L235.78 80.8984L230.101 74.784L226.892 77.6437C224.669 76.0733 222.166 74.9246 219.474 74.3235L219.085 69.8711H211.053L210.664 74.3235C207.971 74.9246 205.469 76.0733 203.246 77.6437L200.037 74.784L194.358 80.8984L197.014 84.3522C195.556 86.7457 194.488 89.44 193.93 92.3385L189.795 92.7577V101.404L193.93 101.823C194.488 104.721 195.556 107.416 197.014 109.81L194.358 113.264L200.037 119.377L203.245 116.518C205.469 118.088 207.971 119.237 210.664 119.838L211.053 124.289H219.085L219.474 119.838C222.166 119.237 224.669 118.088 226.892 116.518L230.101 119.377L235.78 113.264L233.124 109.81C234.583 107.416 235.65 104.722 236.208 101.823L240.344 101.404ZM215.069 108.786C209.064 108.786 204.196 103.545 204.196 97.0809C204.196 90.6167 209.064 85.3762 215.069 85.3762C221.073 85.3762 225.941 90.6167 225.941 97.0809C225.941 103.545 221.074 108.786 215.069 108.786Z" fill="white"/>
<path opacity="0.5" d="M272.894 125.81V119.035L269.654 118.706C269.216 116.435 268.379 114.324 267.236 112.448L269.318 109.742L264.868 104.95L262.353 107.191C260.612 105.961 258.65 105.061 256.541 104.589L256.235 101.101H249.942L249.637 104.589C247.527 105.061 245.565 105.961 243.824 107.191L241.31 104.95L236.859 109.742L238.941 112.448C237.798 114.324 236.962 116.436 236.524 118.706L233.283 119.035V125.81L236.524 126.139C236.962 128.41 237.798 130.521 238.941 132.397L236.859 135.103L241.31 139.895L243.824 137.654C245.566 138.884 247.527 139.785 249.637 140.255L249.942 143.744H256.235L256.541 140.255C258.65 139.784 260.612 138.884 262.354 137.654L264.868 139.895L269.318 135.103L267.237 132.397C268.38 130.521 269.217 128.41 269.654 126.139L272.894 125.81ZM253.088 131.594C248.383 131.594 244.568 127.488 244.568 122.422C244.568 117.356 248.383 113.25 253.088 113.25C257.794 113.25 261.608 117.356 261.608 122.422C261.608 127.488 257.794 131.594 253.088 131.594Z" fill="white"/>
<path opacity="0.3" d="M240.343 145.045V139.354L237.621 139.078C237.254 137.17 236.552 135.397 235.591 133.822L237.34 131.548L233.602 127.524L231.49 129.406C230.026 128.373 228.379 127.616 226.607 127.221L226.35 124.291H221.065L220.809 127.221C219.036 127.617 217.389 128.373 215.926 129.407L213.814 127.525L210.076 131.549L211.824 133.822C210.864 135.398 210.162 137.171 209.795 139.079L207.072 139.355V145.046L209.794 145.321C210.162 147.228 210.864 149.002 211.824 150.577L210.076 152.851L213.814 156.875L215.926 154.993C217.388 156.026 219.036 156.783 220.809 157.178L221.065 160.108H226.35L226.607 157.178C228.379 156.782 230.026 156.026 231.49 154.993L233.602 156.875L237.34 152.851L235.591 150.577C236.552 149.002 237.254 147.228 237.621 145.321L240.343 145.045ZM223.708 149.903C219.755 149.903 216.551 146.454 216.551 142.199C216.551 137.945 219.755 134.495 223.708 134.495C227.659 134.495 230.864 137.945 230.864 142.199C230.864 146.454 227.659 149.903 223.708 149.903Z" fill="white"/>
<path opacity="0.1" d="M229.769 18.4816V211.277C229.769 212.863 228.494 214.095 226.908 214.095H137.183C136.469 214.095 135.841 213.826 135.39 213.375C134.914 212.912 134.627 212.253 134.627 211.509V18.2494C134.627 16.9869 135.554 15.8833 136.816 15.8833H162.297C163.017 15.8833 163.669 16.3527 163.938 17.0301L164.993 19.6284C165.261 20.2994 165.914 20.7625 166.633 20.7625H197.817C198.537 20.7625 199.189 20.3172 199.457 19.6462L200.512 17.0358C200.781 16.3591 201.433 15.8833 202.153 15.8833H227.267C228.659 15.8833 229.769 17.0905 229.769 18.4816Z" fill="black"/>
<path d="M214.565 23.3079V206.461C214.565 207.968 213.353 209.138 211.847 209.138H126.609C125.931 209.138 125.335 208.883 124.906 208.454C124.455 208.014 124.182 207.388 124.182 206.681V23.0878C124.182 21.8888 125.062 20.84 126.262 20.84H150.468C151.152 20.84 151.771 21.2859 152.026 21.9289L153.029 24.3968C153.284 25.0341 153.903 25.4743 154.587 25.4743H184.211C184.894 25.4743 185.514 25.0513 185.769 24.414L186.771 21.9346C187.026 21.2916 187.646 20.8394 188.33 20.8394H212.189C213.51 20.84 214.565 21.9868 214.565 23.3079Z" fill="#9DA2FF"/>
<path opacity="0.6" d="M135.418 28.2188H136.678V26.5396H135.418V28.2188Z" fill="white"/>
<path opacity="0.6" d="M133.366 28.2188H134.625V25.9792H133.366V28.2188Z" fill="white"/>
<path opacity="0.6" d="M131.313 28.2183H132.572V25.419H131.313V28.2183Z" fill="white"/>
<path opacity="0.6" d="M129.26 28.2188H130.52V24.8591H129.26V28.2188Z" fill="white"/>
<path opacity="0.6" d="M203.022 25.9268H202.275V27.6059H203.022V25.9268Z" fill="white"/>
<path opacity="0.6" d="M203.535 28.2183H209.482V25.3134H203.535V28.2183Z" fill="white"/>
<path opacity="0.3" d="M140.712 122.327H198.037C199.823 122.327 201.272 123.775 201.272 125.563C201.272 127.349 199.824 128.798 198.037 128.798H140.712C138.926 128.798 137.477 127.349 137.477 125.563C137.477 123.775 138.926 122.327 140.712 122.327Z" fill="black"/>
<path d="M171.965 122.907C173.43 122.907 174.621 124.098 174.621 125.563C174.621 127.028 173.43 128.219 171.965 128.219H140.713C139.248 128.219 138.057 127.028 138.057 125.563C138.057 124.099 139.248 122.907 140.713 122.907H171.965Z" fill="#9DA2FF"/>
<path opacity="0.3" d="M171.965 122.907C173.43 122.907 174.621 124.098 174.621 125.563C174.621 127.028 173.43 128.219 171.965 128.219H140.713C139.248 128.219 138.057 127.028 138.057 125.563C138.057 124.099 139.248 122.907 140.713 122.907H171.965Z" fill="white"/>
<path d="M161.624 120.223L160.887 116.098H161.539L162.056 119.314L162.578 116.098H163.231L162.48 120.223H161.624Z" fill="white"/>
<path d="M163.75 120.223V116.095H165.521V116.72H164.372V117.846H165.212V118.472H164.372V119.597H165.521V120.222H163.75V120.223Z" fill="white"/>
<path d="M166.932 116.098C167.279 116.098 167.533 116.194 167.696 116.384C167.838 116.552 167.91 116.784 167.91 117.083V117.682C167.91 117.974 167.799 118.221 167.577 118.422L168.038 120.223H167.365L166.988 118.67C166.97 118.67 166.952 118.67 166.932 118.67H166.573V120.223H165.951V116.098H166.932ZM167.304 117.093C167.304 116.854 167.186 116.734 166.949 116.734H166.573V118.054H166.949C167.047 118.054 167.131 118.019 167.2 117.949C167.27 117.879 167.304 117.795 167.304 117.696V117.093Z" fill="white"/>
<path d="M168.465 119.605H169.087V120.227H168.465V119.605Z" fill="white"/>
<path d="M169.952 117.261C169.952 116.87 170.057 116.572 170.267 116.365C170.45 116.183 170.689 116.092 170.985 116.092C171.257 116.092 171.489 116.194 171.682 116.398C171.874 116.602 171.97 116.84 171.97 117.113C171.97 117.393 171.907 117.664 171.782 117.925C171.714 118.07 171.555 118.319 171.304 118.673C171.236 118.769 171.135 118.92 171.002 119.124L170.89 119.292C170.817 119.402 170.763 119.488 170.725 119.552C170.707 119.584 170.698 119.604 170.698 119.611H171.92V120.22H169.941V119.65C169.941 119.637 169.987 119.561 170.077 119.423C170.119 119.358 170.167 119.288 170.219 119.212L170.381 118.979C170.476 118.85 170.624 118.642 170.826 118.357C171.018 118.09 171.16 117.847 171.255 117.63C171.332 117.452 171.37 117.287 171.37 117.133C171.37 117.008 171.335 116.902 171.265 116.814C171.188 116.721 171.089 116.676 170.969 116.676C170.796 116.676 170.672 116.775 170.6 116.975C170.576 117.041 170.563 117.12 170.563 117.212V117.37H169.952V117.261Z" fill="white"/>
<path d="M172.398 119.605H173.02V120.227H172.398V119.605Z" fill="white"/>
<path d="M175.42 119.282C175.42 119.557 175.323 119.789 175.13 119.98C174.936 120.171 174.705 120.267 174.435 120.267C174.16 120.267 173.927 120.17 173.735 119.978C173.543 119.786 173.447 119.554 173.447 119.282V117.03C173.447 116.756 173.544 116.523 173.737 116.331C173.93 116.139 174.163 116.042 174.435 116.042C174.709 116.042 174.942 116.139 175.133 116.333C175.324 116.526 175.419 116.758 175.419 117.03V119.282H175.42ZM174.775 117.017C174.775 116.918 174.739 116.834 174.669 116.764C174.599 116.694 174.515 116.658 174.416 116.658C174.317 116.658 174.233 116.694 174.164 116.764C174.095 116.834 174.06 116.918 174.06 117.017V119.272C174.06 119.37 174.095 119.455 174.164 119.525C174.233 119.595 174.317 119.63 174.416 119.63C174.515 119.63 174.599 119.595 174.669 119.525C174.739 119.455 174.775 119.37 174.775 119.272V117.017Z" fill="white"/>
<path d="M176.622 116.718V117.603C176.684 117.515 176.77 117.448 176.883 117.4C176.942 117.376 177.012 117.363 177.091 117.363C177.364 117.363 177.565 117.458 177.695 117.65C177.807 117.814 177.863 118.047 177.863 118.347V119.237C177.863 119.541 177.767 119.792 177.573 119.987C177.389 120.176 177.156 120.27 176.876 120.27C176.603 120.27 176.378 120.172 176.198 119.974C176.025 119.785 175.938 119.555 175.938 119.282V119.184L176.533 119.138L176.547 119.28C176.562 119.445 176.629 119.555 176.747 119.609C176.782 119.627 176.82 119.635 176.859 119.635C177.114 119.635 177.241 119.503 177.241 119.237V118.227C177.241 118.106 177.197 118.006 177.108 117.927C177.067 117.889 177.008 117.871 176.933 117.871C176.823 117.871 176.741 117.914 176.688 117.999C176.644 118.074 176.622 118.153 176.622 118.236V118.348H176V116.093H177.82V116.719H176.622V116.718Z" fill="white"/>
<path d="M157.424 78.1692C156.868 78.1692 156.397 77.9758 156.01 77.5885C155.624 77.2018 155.43 76.7323 155.43 76.1809V69.7173H156.664V76.1675C156.664 76.3679 156.735 76.5377 156.877 76.6776C157.02 76.8176 157.191 76.8882 157.391 76.8882C157.591 76.8882 157.761 76.8182 157.901 76.6776C158.041 76.5377 158.111 76.3679 158.111 76.1675V69.7173H159.425V76.1809C159.425 76.7412 159.229 77.2126 158.838 77.5955C158.447 77.9777 157.976 78.1692 157.424 78.1692Z" fill="white"/>
<path d="M162.534 69.7173C163.148 69.7173 163.637 69.9107 164.002 70.298C164.34 70.6676 164.509 71.1382 164.509 71.712V72.9262C164.509 73.4776 164.316 73.949 163.932 74.3401C163.547 74.732 163.082 74.9272 162.535 74.9272H161.808V78.0757H160.547V69.7173H162.534ZM163.288 71.7323C163.288 71.5141 163.222 71.3386 163.091 71.205C162.959 71.0715 162.785 71.0053 162.568 71.0053H161.807V73.6799H162.568C162.767 73.6799 162.938 73.6087 163.078 73.4668C163.218 73.3244 163.288 73.1533 163.288 72.9529V71.7323Z" fill="white"/>
<path d="M169.478 76.0747C169.478 76.6261 169.285 77.0975 168.898 77.4886C168.511 77.8798 168.044 78.0757 167.497 78.0757H165.516V69.7109H167.497C168.048 69.7109 168.517 69.9068 168.901 70.298C169.286 70.6892 169.478 71.1586 169.478 71.7056V76.0747ZM166.776 76.8284H167.537C167.737 76.8284 167.906 76.7559 168.044 76.6115C168.182 76.4671 168.251 76.2967 168.251 76.1014V71.7253C168.251 71.5256 168.181 71.3545 168.04 71.2114C167.9 71.0689 167.732 70.9983 167.536 70.9983H166.776V76.8284H166.776Z" fill="white"/>
<path d="M171.963 76.1542L171.657 78.0757H170.344L171.765 69.7173H173.499L174.9 78.0757H173.574L173.279 76.1542H171.963ZM172.625 71.6318L172.158 74.9272H173.091L172.625 71.6318Z" fill="white"/>
<path d="M176.12 70.985H174.779V69.7173H178.715V70.985H177.381V78.0757H176.12V70.985Z" fill="white"/>
<path d="M179.729 78.0757V69.7109H183.317V70.9786H180.989V73.2595H182.69V74.5272H180.989V76.8081H183.317V78.0757H179.729Z" fill="white"/>
<path opacity="0.2" d="M179.317 143.966H159.43C157.978 143.966 156.801 142.788 156.801 141.336V137.062C156.801 135.61 157.978 134.433 159.43 134.433H179.317C180.769 134.433 181.946 135.61 181.946 137.062V141.336C181.947 142.788 180.769 143.966 179.317 143.966Z" fill="black"/>
<path d="M163.277 141.023C163.002 141.023 162.769 140.927 162.577 140.735C162.385 140.543 162.289 140.311 162.289 140.039V137.787C162.289 137.513 162.386 137.28 162.579 137.087C162.772 136.895 163.005 136.799 163.277 136.799C163.551 136.799 163.784 136.896 163.975 137.089C164.165 137.283 164.261 137.515 164.261 137.787V138.258H163.616V137.774C163.616 137.675 163.58 137.591 163.51 137.521C163.44 137.451 163.356 137.415 163.257 137.415C163.159 137.415 163.075 137.451 163.005 137.521C162.937 137.591 162.902 137.675 162.902 137.774V140.032C162.902 140.131 162.937 140.215 163.005 140.284C163.075 140.353 163.159 140.388 163.257 140.388C163.356 140.388 163.44 140.353 163.51 140.284C163.58 140.216 163.616 140.132 163.616 140.032V139.462H164.261V140.038C164.261 140.313 164.164 140.545 163.971 140.737C163.779 140.927 163.547 141.023 163.277 141.023Z" fill="white"/>
<path d="M165.416 140.022L165.265 140.97H164.617L165.318 136.845H166.174L166.865 140.97H166.211L166.065 140.022H165.416ZM165.743 137.79L165.513 139.417H165.974L165.743 137.79Z" fill="white"/>
<path d="M168.086 136.842L168.911 139.616V136.842H169.533V140.97H168.865L168.009 138.326V140.97H167.387V136.842H168.086Z" fill="white"/>
<path d="M171.068 141.023C170.793 141.023 170.56 140.927 170.368 140.735C170.176 140.543 170.08 140.311 170.08 140.039V137.787C170.08 137.513 170.177 137.28 170.369 137.087C170.562 136.895 170.796 136.799 171.067 136.799C171.341 136.799 171.574 136.896 171.765 137.089C171.956 137.283 172.051 137.515 172.051 137.787V138.258H171.406V137.774C171.406 137.675 171.371 137.591 171.301 137.521C171.231 137.451 171.146 137.415 171.048 137.415C170.949 137.415 170.865 137.451 170.796 137.521C170.727 137.591 170.692 137.675 170.692 137.774V140.032C170.692 140.131 170.727 140.215 170.796 140.284C170.865 140.353 170.949 140.388 171.048 140.388C171.146 140.388 171.231 140.353 171.301 140.284C171.371 140.216 171.406 140.132 171.406 140.032V139.462H172.051V140.038C172.051 140.313 171.955 140.545 171.761 140.737C171.57 140.927 171.338 141.023 171.068 141.023Z" fill="white"/>
<path d="M172.562 140.97V136.842H174.333V137.468H173.185V138.593H174.024V139.219H173.185V140.344H174.333V140.97H172.562V140.97Z" fill="white"/>
<path d="M176.457 140.971H174.762V136.846H175.384V140.352H176.457V140.971Z" fill="white"/>
<g opacity="0.3">
<path d="M192.114 179.788H146.635C146.191 179.788 145.83 179.428 145.83 178.983C145.83 178.538 146.191 178.178 146.635 178.178H192.114C192.559 178.178 192.919 178.538 192.919 178.983C192.919 179.428 192.559 179.788 192.114 179.788Z" fill="white"/>
<path d="M197.907 184.62H140.84C140.396 184.62 140.035 184.259 140.035 183.815C140.035 183.37 140.396 183.009 140.84 183.009H197.907C198.351 183.009 198.712 183.37 198.712 183.815C198.711 184.26 198.351 184.62 197.907 184.62Z" fill="white"/>
<path d="M186.318 189.451H152.426C151.982 189.451 151.621 189.091 151.621 188.646C151.621 188.201 151.982 187.841 152.426 187.841H186.318C186.763 187.841 187.123 188.201 187.123 188.646C187.123 189.091 186.763 189.451 186.318 189.451Z" fill="white"/>
<path d="M197.907 199.115H140.84C140.396 199.115 140.035 198.754 140.035 198.31C140.035 197.865 140.396 197.504 140.84 197.504H197.907C198.351 197.504 198.712 197.865 198.712 198.31C198.711 198.754 198.351 199.115 197.907 199.115Z" fill="white"/>
</g>
<g opacity="0.1">
<path d="M164.842 25.4748L138.822 122.938V122.943L138.532 124.039V124.044L138.063 125.8V125.806L137.768 126.901L124.182 177.794V116.2L149.64 20.8398H150.469C151.152 20.8398 151.772 21.2857 152.027 21.9288L153.029 24.3967C153.284 25.034 153.904 25.4741 154.588 25.4741L164.842 25.4748Z" fill="white"/>
<path d="M214.564 75.2495V136.843L198.336 197.632L197.942 199.109L195.266 209.138H178.822L181.499 199.115L181.928 197.504L184.077 189.451L184.506 187.84L185.369 184.619L185.799 183.008L186.656 179.787L187.085 178.176L200.613 127.509V127.503L201.239 125.163V125.157L214.564 75.2495Z" fill="white"/>
<path d="M173.753 25.4746L147.896 122.329L147.739 122.909L146.326 128.216L146.169 128.796L124.906 208.454C124.455 208.014 124.182 207.388 124.182 206.682V197.313L142.473 128.796L142.629 128.217L144.043 122.909L144.2 122.33L170.057 25.4746H173.753Z" fill="white"/>
</g>
<path d="M262.336 189.924C261.317 188.247 259.641 189.705 259.641 189.705C259.88 186.492 256.924 184.295 256.924 184.295C256.924 184.295 260.359 184.295 260.838 181.018C261.317 177.741 259.64 179.265 258.067 179.242C256.494 179.22 254.85 183.816 256.924 186.401C258.999 188.986 258.442 193.397 253.652 197.64C252.484 198.675 251.689 200.054 251.152 201.544C251.513 197.646 251.717 192.154 250.571 188.487C248.622 182.259 252.335 180.583 253.413 177.468C254.491 174.354 250.571 171.72 250.571 171.72C250.571 171.72 254.252 170.043 252.455 168.127C250.658 166.21 246.945 166.471 246.945 168.976C246.945 171.48 249.46 172.439 249.46 172.439C249.46 172.439 252.334 175.432 252.334 176.99C252.334 178.547 249.46 181.9 249.46 181.9C249.46 181.9 250.777 179.03 248.143 178.908C245.508 178.786 244.669 182.259 245.747 183.816C246.826 185.373 248.622 184.055 248.622 184.055C248.622 184.055 248.831 187.408 249.445 189.444C249.715 190.34 249.588 193.853 249.362 197.507C248.83 196.188 248.081 194.978 247.028 194.047C242.238 189.804 241.682 185.392 243.757 182.807C245.831 180.222 244.187 175.626 242.614 175.649C241.041 175.671 239.364 174.147 239.843 177.424C240.322 180.701 243.757 180.701 243.757 180.701C243.757 180.701 240.801 182.898 241.041 186.111C241.041 186.111 239.364 184.653 238.346 186.33C236.528 189.324 240.741 191.181 241.449 189.707C241.449 189.707 250.382 196.03 248.226 205.132L248.727 205.872C248.663 206.606 248.622 207.049 248.622 207.049L249.32 206.748L250.115 207.922C250.074 210.197 250.319 211.878 250.319 211.878L252.455 208.726C250.299 199.624 259.232 193.3 259.232 193.3C259.94 194.774 264.154 192.917 262.336 189.924Z" fill="#9DA2FF"/>
<path opacity="0.2" d="M262.336 189.924C261.317 188.247 259.641 189.705 259.641 189.705C259.88 186.492 256.924 184.295 256.924 184.295C256.924 184.295 260.359 184.295 260.838 181.018C261.317 177.741 259.64 179.265 258.067 179.242C256.494 179.22 254.85 183.816 256.924 186.401C258.999 188.986 258.442 193.397 253.652 197.64C252.484 198.675 251.689 200.054 251.152 201.544C251.513 197.646 251.717 192.154 250.571 188.487C248.622 182.259 252.335 180.583 253.413 177.468C254.491 174.354 250.571 171.72 250.571 171.72C250.571 171.72 254.252 170.043 252.455 168.127C250.658 166.21 246.945 166.471 246.945 168.976C246.945 171.48 249.46 172.439 249.46 172.439C249.46 172.439 252.334 175.432 252.334 176.99C252.334 178.547 249.46 181.9 249.46 181.9C249.46 181.9 250.777 179.03 248.143 178.908C245.508 178.786 244.669 182.259 245.747 183.816C246.826 185.373 248.622 184.055 248.622 184.055C248.622 184.055 248.831 187.408 249.445 189.444C249.715 190.34 249.588 193.853 249.362 197.507C248.83 196.188 248.081 194.978 247.028 194.047C242.238 189.804 241.682 185.392 243.757 182.807C245.831 180.222 244.187 175.626 242.614 175.649C241.041 175.671 239.364 174.147 239.843 177.424C240.322 180.701 243.757 180.701 243.757 180.701C243.757 180.701 240.801 182.898 241.041 186.111C241.041 186.111 239.364 184.653 238.346 186.33C236.528 189.324 240.741 191.181 241.449 189.707C241.449 189.707 250.382 196.03 248.226 205.132L248.727 205.872C248.663 206.606 248.622 207.049 248.622 207.049L249.32 206.748L250.115 207.922C250.074 210.197 250.319 211.878 250.319 211.878L252.455 208.726C250.299 199.624 259.232 193.3 259.232 193.3C259.94 194.774 264.154 192.917 262.336 189.924Z" fill="#9DA2FF"/>
<g opacity="0.3">
<path d="M262.336 189.924C261.317 188.247 259.641 189.705 259.641 189.705C259.88 186.492 256.924 184.295 256.924 184.295C256.924 184.295 260.359 184.295 260.838 181.018C261.317 177.741 259.64 179.265 258.067 179.242C256.494 179.22 254.85 183.816 256.924 186.401C258.999 188.986 258.442 193.397 253.652 197.64C252.484 198.675 251.689 200.054 251.152 201.544C251.513 197.646 251.717 192.154 250.571 188.487C248.622 182.259 252.335 180.583 253.413 177.468C254.491 174.354 250.571 171.72 250.571 171.72C250.571 171.72 254.252 170.043 252.455 168.127C250.658 166.21 246.945 166.471 246.945 168.976C246.945 171.48 249.46 172.439 249.46 172.439C249.46 172.439 252.334 175.432 252.334 176.99C252.334 178.547 249.46 181.9 249.46 181.9C249.46 181.9 250.777 179.03 248.143 178.908C245.508 178.786 244.669 182.259 245.747 183.816C246.826 185.373 248.622 184.055 248.622 184.055C248.622 184.055 248.831 187.408 249.445 189.444C249.715 190.34 249.588 193.853 249.362 197.507C248.83 196.188 248.081 194.978 247.028 194.047C242.238 189.804 241.682 185.392 243.757 182.807C245.831 180.222 244.187 175.626 242.614 175.649C241.041 175.671 239.364 174.147 239.843 177.424C240.322 180.701 243.757 180.701 243.757 180.701C243.757 180.701 240.801 182.898 241.041 186.111C241.041 186.111 239.364 184.653 238.346 186.33C236.528 189.324 240.741 191.181 241.449 189.707C241.449 189.707 250.382 196.03 248.226 205.132L248.727 205.872C248.663 206.606 248.622 207.049 248.622 207.049L249.32 206.748L250.115 207.922C250.074 210.197 250.319 211.878 250.319 211.878L252.455 208.726C250.299 199.624 259.232 193.3 259.232 193.3C259.94 194.774 264.154 192.917 262.336 189.924Z" fill="black"/>
<path opacity="0.2" d="M262.336 189.924C261.317 188.247 259.641 189.705 259.641 189.705C259.88 186.492 256.924 184.295 256.924 184.295C256.924 184.295 260.359 184.295 260.838 181.018C261.317 177.741 259.64 179.265 258.067 179.242C256.494 179.22 254.85 183.816 256.924 186.401C258.999 188.986 258.442 193.397 253.652 197.64C252.484 198.675 251.689 200.054 251.152 201.544C251.513 197.646 251.717 192.154 250.571 188.487C248.622 182.259 252.335 180.583 253.413 177.468C254.491 174.354 250.571 171.72 250.571 171.72C250.571 171.72 254.252 170.043 252.455 168.127C250.658 166.21 246.945 166.471 246.945 168.976C246.945 171.48 249.46 172.439 249.46 172.439C249.46 172.439 252.334 175.432 252.334 176.99C252.334 178.547 249.46 181.9 249.46 181.9C249.46 181.9 250.777 179.03 248.143 178.908C245.508 178.786 244.669 182.259 245.747 183.816C246.826 185.373 248.622 184.055 248.622 184.055C248.622 184.055 248.831 187.408 249.445 189.444C249.715 190.34 249.588 193.853 249.362 197.507C248.83 196.188 248.081 194.978 247.028 194.047C242.238 189.804 241.682 185.392 243.757 182.807C245.831 180.222 244.187 175.626 242.614 175.649C241.041 175.671 239.364 174.147 239.843 177.424C240.322 180.701 243.757 180.701 243.757 180.701C243.757 180.701 240.801 182.898 241.041 186.111C241.041 186.111 239.364 184.653 238.346 186.33C236.528 189.324 240.741 191.181 241.449 189.707C241.449 189.707 250.382 196.03 248.226 205.132L248.727 205.872C248.663 206.606 248.622 207.049 248.622 207.049L249.32 206.748L250.115 207.922C250.074 210.197 250.319 211.878 250.319 211.878L252.455 208.726C250.299 199.624 259.232 193.3 259.232 193.3C259.94 194.774 264.154 192.917 262.336 189.924Z" fill="black"/>
</g>
<path d="M260.59 228.75H240.127L237.92 206.347H262.797L260.59 228.75Z" fill="#9DA2FF"/>
<path opacity="0.3" d="M260.59 228.75H240.127L237.92 206.347H262.797L260.59 228.75Z" fill="white"/>
<path d="M263.888 203.875H236.826V208.818H263.888V203.875Z" fill="#9DA2FF"/>
<path opacity="0.5" d="M263.888 203.875H236.826V208.818H263.888V203.875Z" fill="white"/>
<path d="M106.426 77.3608C108.837 77.4709 118.945 91.0443 118.945 91.0443L122.699 86.1645C122.699 86.1645 128.486 97.408 125.624 102.76C122.762 108.112 107.674 93.4823 107.674 93.4823L106.426 77.3608Z" fill="#9DA2FF"/>
<path opacity="0.6" d="M106.424 77.3628L107.419 88.1885L107.674 93.4805C107.674 93.4805 110.154 95.8847 113.29 98.3844C117.895 102.061 123.919 105.941 125.623 102.761C128.485 97.4113 122.697 86.1658 122.697 86.1658L118.945 91.0444L118.919 91.0062C118.347 90.1857 108.758 77.4646 106.424 77.3628Z" fill="white"/>
<path opacity="0.2" d="M107.42 88.1877L107.674 93.4797C107.674 93.4797 110.155 95.884 113.291 98.3837C113.59 92.0295 107.674 82.7749 107.674 82.7749L107.42 88.1877Z" fill="black"/>
<path opacity="0.2" d="M118.946 91.0436L118.406 92.0772L119.98 98.1993C119.98 98.1993 115.641 94.2506 118.406 90.3809L118.946 91.0436Z" fill="black"/>
<path d="M106.859 111.299L86.5054 112.872C86.5054 112.872 86.2287 100.711 84.6067 94.3827C84.0788 92.3346 83.4173 90.0321 82.5777 87.3606C82.2215 86.2284 81.8335 85.0327 81.4074 83.7542C81.0194 82.5648 80.5932 81.299 80.1289 79.9697C82.9148 79.0792 85.7516 78.3986 88.6393 77.9152C91.6797 77.3746 94.7582 77.0502 97.8494 76.942C101.837 76.9102 106.423 77.3618 106.423 77.3618C106.423 77.3618 107.072 77.5208 107.486 81.7443C107.86 85.7202 107.686 96.8544 106.859 111.299Z" fill="#9DA2FF"/>
<path opacity="0.6" d="M106.858 111.298L86.5041 112.869C86.5041 112.869 86.4978 112.621 86.4851 112.17C86.396 109.505 85.9953 99.8048 84.6087 94.3856C84.2334 92.9227 83.7882 91.3262 83.2539 89.5643C83.044 88.8583 82.8214 88.1268 82.5797 87.3636C82.2235 86.2314 81.8355 85.0356 81.4093 83.7571C81.0213 82.5677 80.5952 81.3019 80.1309 79.9726C82.9168 79.0821 85.7536 78.4015 88.6413 77.9181C91.6816 77.3775 94.7601 77.0531 97.8514 76.945C101.839 76.9132 106.425 77.3648 106.425 77.3648C106.425 77.3648 107.074 77.5238 107.488 81.7472C107.863 85.7225 107.685 96.8535 106.858 111.298Z" fill="white"/>
<path d="M81.3086 214.273L84.3807 216.079C84.3807 216.079 85.8691 213.961 89.0494 210.546V210.539C89.9399 209.598 90.8749 208.555 91.848 207.435C93.7944 205.203 95.8997 202.652 98.1068 199.911C98.7556 199.103 99.4171 198.276 100.085 197.437C107.775 187.762 116.088 176.39 119.198 168.7C120.165 166.308 120.636 164.279 120.426 162.759C119.796 158.167 118.009 151.253 115.967 144.574C112.863 134.365 109.371 124.691 109.371 124.691L100.791 139.225C100.791 139.225 103.424 145.503 105.822 152.188C108.182 158.752 110.313 165.717 109.524 167.529C109.448 167.707 109.352 167.917 109.244 168.14C107.819 171.091 103.876 177.776 99.398 185.161C98.9464 185.905 98.4885 186.655 98.0305 187.406C95.6262 191.35 93.1265 195.401 90.8113 199.122C89.9081 200.585 89.0303 201.997 88.1971 203.333C84.2535 209.674 81.3086 214.273 81.3086 214.273Z" fill="#F9A07B"/>
<path opacity="0.2" d="M100.262 197.437C96.2036 202.538 92.3046 207.169 89.4042 210.54C88.9908 208.466 88.571 206.011 88.2402 203.333C91.5922 197.952 95.6948 191.312 99.4221 185.161C99.3897 188.418 99.5105 193.233 100.262 197.437Z" fill="black"/>
<path d="M84.9486 155.381C86.0109 162.625 87.5247 169.19 88.5106 173.101C89.1021 175.448 89.5028 176.835 89.5028 176.835C89.4456 184.143 90.0307 191.973 90.8131 199.122C91.1375 202.035 91.4873 204.834 91.8498 207.436C93.1856 217.065 94.5913 223.979 94.5913 223.979L98.2486 223.502L98.1086 199.911L98.0323 187.406L97.9305 170.392L97.8924 167.428L97.7143 154.49L97.4535 135.409L84.7324 129.684C83.0278 136.935 83.6638 146.654 84.9486 155.381Z" fill="#F9A07B"/>
<path opacity="0.2" d="M116.044 144.838L104.976 149.869C102.845 144.119 100.791 139.228 100.791 139.228L109.371 124.694C109.371 124.694 112.863 134.368 115.967 144.577C115.993 144.666 116.018 144.749 116.044 144.838Z" fill="black"/>
<path opacity="0.2" d="M97.6749 151.65L84.5594 152.495C83.5544 144.564 83.211 136.149 84.7311 129.687L97.4523 135.411L97.6749 151.65Z" fill="black"/>
<path d="M81.5914 212.267C81.966 211.995 85.133 216.739 85.133 216.739C85.133 216.739 84.4276 221.685 85.8568 224.875C87.286 228.065 84.5096 227.793 82.2014 224.771C79.8931 221.749 78.1319 219.442 76.4922 217.295C74.8518 215.148 77.7064 215.093 81.5914 212.267Z" fill="#263238"/>
<path d="M86.2078 220.319C85.4884 220.151 85.0216 218.1 84.9351 217.691C84.9306 217.671 84.9306 217.651 84.9344 217.631L84.9351 217.63C84.9382 217.614 84.9433 217.599 84.9516 217.585C84.9599 217.57 84.9707 217.558 84.9834 217.547C84.984 217.548 84.984 217.546 84.984 217.546L84.9853 217.546C85.0006 217.532 85.0184 217.523 85.0375 217.516C85.1036 217.495 86.4419 217.073 87.1644 217.491C87.3947 217.624 87.5397 217.825 87.5957 218.088C87.6555 218.369 87.604 218.567 87.4424 218.676C87.1937 218.843 86.7097 218.703 86.2326 218.486C86.5615 218.839 86.8509 219.239 86.896 219.585C86.9202 219.768 86.8795 219.928 86.7745 220.06C86.606 220.273 86.4412 220.331 86.3109 220.331C86.2727 220.332 86.2383 220.327 86.2078 220.319ZM86.2765 220.028C86.3058 220.034 86.3948 220.056 86.5386 219.874C86.5914 219.807 86.6111 219.725 86.5977 219.624C86.536 219.155 85.8275 218.467 85.3275 218.047C85.5546 218.928 85.9381 219.948 86.2765 220.028ZM85.449 217.718C86.2148 218.194 87.0601 218.572 87.2732 218.427C87.3394 218.383 87.319 218.235 87.3006 218.151C87.2624 217.972 87.1683 217.841 87.0131 217.75C86.8273 217.643 86.5805 217.605 86.3268 217.605C86.0094 217.606 85.6812 217.665 85.449 217.718Z" fill="#9DA2FF"/>
<path d="M93.296 221.645C93.3068 221.182 99.0001 221.546 99.0001 221.546C99.0001 221.546 102.502 225.108 105.905 225.908C109.307 226.709 107.406 228.75 103.603 228.75C99.8009 228.75 96.8986 228.75 94.1967 228.75C91.4947 228.75 93.1834 226.448 93.296 221.645Z" fill="#263238"/>
<path d="M99.6356 222.281C99.6172 222.272 99.6013 222.26 99.5886 222.246L99.5879 222.245C99.5771 222.233 99.5682 222.219 99.5619 222.204V222.203C99.5555 222.189 99.5517 222.173 99.5511 222.157C99.5511 222.157 99.5511 222.156 99.5511 222.155C99.5498 222.134 99.553 222.113 99.56 222.095C99.5841 222.027 100.062 220.709 100.83 220.389C101.075 220.287 101.323 220.295 101.567 220.409C101.826 220.533 101.952 220.693 101.941 220.888C101.924 221.187 101.518 221.488 101.056 221.735C101.536 221.689 102.03 221.702 102.333 221.874C102.493 221.967 102.595 222.096 102.637 222.26C102.722 222.597 102.609 222.776 102.499 222.867C102.381 222.964 102.205 223.003 101.997 223.003C101.2 223.002 99.9352 222.423 99.6356 222.281ZM100.157 222.185C100.996 222.541 102.038 222.854 102.307 222.634C102.331 222.615 102.401 222.556 102.345 222.333C102.324 222.25 102.27 222.185 102.182 222.134C102.024 222.044 101.784 222.009 101.511 222.009C101.072 222.009 100.55 222.098 100.157 222.185ZM100.945 220.666C100.498 220.851 100.146 221.498 99.9683 221.889C100.811 221.568 101.625 221.126 101.64 220.87C101.644 220.79 101.515 220.717 101.436 220.68C101.349 220.638 101.261 220.617 101.174 220.617C101.099 220.617 101.022 220.633 100.945 220.666Z" fill="#9DA2FF"/>
<path d="M96.1569 81.4775C91.1002 80.8288 89.5801 78.6662 89.5801 78.6662C91.6473 76.7199 91.272 73.8449 90.7441 72.0512C90.4578 71.059 90.1207 70.3975 90.1207 70.3975L96.2078 71.536C96.0488 72.541 95.9788 73.3869 95.9724 74.0993C95.9597 74.8817 96.0297 75.4986 96.1442 75.982C96.5576 77.8011 97.5944 77.8266 97.5944 77.8266C98.663 79.8238 96.1569 81.4775 96.1569 81.4775Z" fill="#F9A07B"/>
<path opacity="0.2" d="M95.9748 74.0993C95.962 74.8817 96.032 75.4986 96.1465 75.982C93.7295 75.664 91.8976 73.7304 90.7464 72.0512C90.4602 71.059 90.123 70.3975 90.123 70.3975L96.2101 71.536C96.0511 72.541 95.9811 73.3869 95.9748 74.0993Z" fill="black"/>
<path d="M90.7323 51.1304C82.122 51.8224 77.0495 74.2154 89.2306 72.0782C92.816 71.4492 107.7 60.0504 101.993 55.7202C96.287 51.3899 90.7323 51.1304 90.7323 51.1304Z" fill="#263238"/>
<path d="M97.0329 55.365C102.275 56.1219 103.558 59.1724 103.161 64.6304C102.666 71.4508 100.477 76.0317 94.13 73.6427C85.5102 70.3988 88.3266 54.1075 97.0329 55.365Z" fill="#F9A07B"/>
<path d="M99.8162 63.8481C99.8162 63.8481 100.345 65.3225 101.028 66.2429C101.028 66.2429 100.476 66.891 99.5605 66.636L99.8162 63.8481Z" fill="#7A81FD"/>
<path d="M96.6689 62.9558C96.6167 63.3877 96.3413 63.7102 96.0532 63.6752C95.765 63.6402 95.5736 63.2618 95.6258 62.8299C95.6779 62.398 95.954 62.0755 96.2415 62.1105C96.5296 62.1455 96.721 62.5239 96.6689 62.9558Z" fill="#263238"/>
<path d="M96.1191 62.1169L97.1037 61.8618C97.1037 61.8618 96.5402 62.5965 96.1191 62.1169Z" fill="#263238"/>
<path d="M102.052 63.5144C102 63.9463 101.723 64.2688 101.436 64.2338C101.148 64.1988 100.956 63.8204 101.009 63.3885C101.061 62.956 101.337 62.6341 101.624 62.6691C101.912 62.7035 102.104 63.0825 102.052 63.5144Z" fill="#263238"/>
<path d="M101.502 62.6755L102.486 62.4204C102.486 62.4204 101.923 63.1544 101.502 62.6755Z" fill="#263238"/>
<path d="M97.1384 59.3284C97.1384 59.3284 95.6933 58.9239 94.75 59.7928" stroke="#263238" stroke-width="0.708" stroke-miterlimit="10" stroke-linecap="round" stroke-linejoin="round"/>
<path d="M100.98 59.657C100.98 59.657 101.956 59.4478 103.008 60.3897" stroke="#263238" stroke-width="0.708" stroke-miterlimit="10" stroke-linecap="round" stroke-linejoin="round"/>
<path d="M90.028 63.3731C90.028 63.3731 93.1014 59.42 93.2102 56.0413C93.2102 56.0413 104.212 53.298 103.201 63.9163C103.201 63.9163 105.569 54.6999 96.587 53.1893C87.6193 51.6812 85.7391 64.8685 89.8258 69.4691C89.8258 69.4691 88.1224 65.848 90.028 63.3731Z" fill="#263238"/>
<path d="M90.7249 64.6038C90.8121 63.7547 90.1474 62.2001 88.5528 62.1448C86.9029 62.0876 85.6467 65.3104 89.5718 66.6964C90.1347 66.8949 90.5436 66.3752 90.7249 64.6038Z" fill="#F9A07B"/>
<path d="M98.4473 69.3756C98.4473 69.3756 96.1785 69.5601 95.5488 67.4668" stroke="#263238" stroke-width="0.708" stroke-miterlimit="10" stroke-linecap="round" stroke-linejoin="round"/>
<path d="M90.7324 51.1303C90.7324 51.1303 98.4179 50.124 103.229 54.7787C108.04 59.434 93.9 58.679 93.9 58.679L97.4797 57.0437C97.4797 57.0437 92.9974 58.3177 91.0549 57.6727L90.7324 51.1303Z" fill="#263238"/>
<path d="M85.0148 64.7896C85.0148 64.7896 82.6875 68.8699 85.0148 72.393C85.0148 72.393 83.1989 76.2303 86.9688 78.9354C86.9688 78.9354 86.278 81.0745 89.5779 83.6537C89.5779 83.6537 90.6134 87.0235 89.7954 89.4278L92.1857 88.246C92.1857 88.246 92.1692 85.2267 90.7304 83.4654C90.7304 83.4654 91.4988 78.6791 89.5779 77.1093C89.5779 77.1093 90.4417 74.0925 90.1185 72.7714C90.1185 72.7714 89.1613 67.0838 89.0067 66.4675C89.0067 66.4675 85.7698 66.0559 85.0148 64.7896Z" fill="#263238"/>
<path d="M102.486 54.4644C102.486 54.4644 104.896 55.7854 104.518 57.5467C104.141 59.3079 98.4473 59.6368 98.4473 59.6368" stroke="#263238" stroke-width="0.4885" stroke-miterlimit="10" stroke-linecap="round" stroke-linejoin="round"/>
<path d="M110.107 86.3246C110.07 86.647 110.306 86.9085 110.633 86.9085H116.446C116.773 86.9085 117.068 86.647 117.105 86.3246L118.403 74.8514C118.44 74.5289 118.204 74.188 117.877 74.188H112.064C111.737 74.188 111.442 74.5289 111.406 74.8514L110.107 86.3246Z" fill="#263238"/>
<path opacity="0.5" d="M112.051 74.7763L110.736 86.3608C110.698 86.6878 110.869 86.9091 111.193 86.9091H116.122C116.453 86.9091 117.059 86.7272 117.096 86.4003L118.412 74.7763C118.449 74.4494 117.884 74.188 117.553 74.188H112.624C112.3 74.188 112.088 74.4494 112.051 74.7763Z" fill="white"/>
<path opacity="0.6" d="M98.8301 113.902C98.8301 114.47 99.2912 114.932 99.8599 114.932C100.428 114.932 100.89 114.471 100.89 113.902C100.89 113.333 100.428 112.872 99.8599 112.872C99.2912 112.871 98.8301 113.333 98.8301 113.902Z" fill="white"/>
<path d="M122.285 87.2803L119.255 82.1391C119.255 82.1391 119.264 79.4358 118.998 78.7998C118.733 78.1637 115.765 76.7282 115.182 76.9425C114.599 77.1569 114.387 82.4597 114.917 83.1739C115.447 83.8882 117.302 84.6833 117.302 84.6833L117.175 85.6902L118.946 91.0439L122.285 87.2803Z" fill="#F9A07B"/>
<path d="M123.504 86.6968L122.497 85.6899L117.727 91.0436L118.406 93.1636L123.504 86.6968Z" fill="#9DA2FF"/>
<path d="M117.583 143.044L101.955 148.597L101.433 147.166L100.791 145.404L100.524 147.948L100.32 149.901H81.3464C81.3464 149.901 81.2892 149.354 81.232 148.374C81.0475 145.321 80.8122 138.044 81.9952 129.687C82.7076 124.636 83.9416 119.185 86.0151 114.04C86.1741 113.645 86.3395 113.257 86.5049 112.869L106.859 111.298L107.03 112.278L108.309 119.586L110.739 125.73L116.737 140.9L117.583 143.044Z" fill="#263238"/>
<path opacity="0.2" d="M99.3354 95.2508C99.3354 95.2508 93.7253 108.029 86.487 112.17C86.398 109.505 85.9973 99.805 84.6107 94.3858C84.2354 92.9228 83.7901 91.3263 83.2559 89.5645L85.463 86.9121C85.463 86.9121 86.9895 91.6444 86.3153 95.7533L94.7557 90.5822L99.3354 95.2508Z" fill="black"/>
<path d="M93.9043 92.3134L100.792 86.9094C100.792 86.9094 101.835 84.0097 102.254 83.5065C102.674 83.0034 108.713 80.7747 109.216 80.7149C109.719 80.6551 109.247 85.6628 108.461 86.5144C107.676 87.3661 102.842 89.0447 102.842 89.0447L95.6293 95.8365L93.9043 92.3134Z" fill="#F9A07B"/>
<path d="M80.1282 79.9702C76.0835 81.9967 74.2847 104.841 81.3087 108.786C88.3326 112.731 98.8288 94.9067 98.8288 94.9067L94.7517 90.5796C94.7517 90.5796 86.2006 97.7384 85.1683 97.0808C84.1359 96.4231 85.3101 89.4271 85.3101 89.4271C85.3101 89.4271 86.5122 87.3097 83.982 83.9825C81.4518 80.6546 80.1282 79.9702 80.1282 79.9702Z" fill="#9DA2FF"/>
<path opacity="0.6" d="M80.1282 79.9702C76.0835 81.9967 74.2847 104.841 81.3087 108.786C88.3326 112.731 98.8288 94.9067 98.8288 94.9067L94.7517 90.5796C94.7517 90.5796 86.2006 97.7384 85.1683 97.0808C84.1359 96.4231 85.3101 89.4271 85.3101 89.4271C85.3101 89.4271 86.5122 87.3097 83.982 83.9825C81.4518 80.6546 80.1282 79.9702 80.1282 79.9702Z" fill="white"/>
<path d="M98.9092 96.4922L100.13 95.7588L95.5489 89.0439L93.8672 89.9815L98.9092 96.4922Z" fill="#9DA2FF"/>
<path opacity="0.2" d="M90.9708 114.721C90.9708 114.721 88.662 127.467 81.9961 129.687C82.7085 124.637 83.9424 119.186 86.016 114.04L90.9708 114.721Z" fill="black"/>
<path opacity="0.2" d="M110.74 125.731C105.403 123.129 105.492 112.87 105.492 112.87L107.032 112.278L108.31 119.587L110.74 125.731Z" fill="black"/>
<path opacity="0.2" d="M100.524 147.948L100.32 149.901H81.3469C81.3469 149.901 81.2897 149.354 81.2324 148.374L100.524 147.948Z" fill="black"/>
<path opacity="0.2" d="M117.583 143.044L101.955 148.597L101.434 147.166L116.737 140.9L117.583 143.044Z" fill="black"/>
<path opacity="0.2" d="M100.793 145.406L101.199 140.206L105.495 131.776C105.495 131.776 106.848 136.64 104.709 140.971C102.569 145.301 100.793 145.406 100.793 145.406Z" fill="black"/>
<path opacity="0.5" d="M86.5065 112.872L85.6484 114.99L107.316 113.902L106.86 111.299L86.5065 112.872Z" fill="black"/>
<path d="M97.9441 112.084L98.1972 114.463C98.2252 114.724 98.4555 114.915 98.7169 114.894L101.889 114.642C102.159 114.62 102.358 114.382 102.332 114.113L102.109 111.768C102.084 111.507 101.856 111.313 101.594 111.331L98.3925 111.549C98.119 111.568 97.9155 111.811 97.9441 112.084Z" fill="#9DA2FF"/>
<path d="M92.6298 112.37L92.378 115.169H91.5918L91.7177 112.37H92.6298Z" fill="#263238"/>
<path d="M104.047 111.517L104.362 114.446H105.085L104.834 111.395L104.047 111.517Z" fill="#263238"/>
</svg>
