<svg width="61" height="60" viewBox="0 0 61 60" fill="none" xmlns="http://www.w3.org/2000/svg">
<path fill-rule="evenodd" clip-rule="evenodd" d="M53.5951 19.748V40.1255C53.5951 47.6755 48.8979 53.0005 41.3924 53.0005H19.8947C12.3891 53.0005 7.7168 47.6755 7.7168 40.1255V19.748C7.7168 12.198 12.414 6.87549 19.8947 6.87549H41.3924C48.8979 6.87549 53.5951 12.198 53.5951 19.748Z" fill="#7A81FD"/>
<path fill-rule="evenodd" clip-rule="evenodd" d="M34.3428 20.0117H27.6928C25.6134 20.0037 23.9089 21.6607 23.8599 23.7407V34.5897C23.8249 36.6397 25.4575 38.3307 27.5078 38.3667C27.5688 38.3667 27.6308 38.3667 27.6928 38.3647H35.6784C37.7468 38.3437 39.4103 36.6587 39.4073 34.5897V25.2897L34.3428 20.0117Z" stroke="white" stroke-width="1.5" stroke-linecap="round" stroke-linejoin="round"/>
<path d="M34.0801 20V22.909C34.0801 24.329 35.2287 25.48 36.6483 25.484H39.4015" stroke="white" stroke-width="1.5" stroke-linecap="round" stroke-linejoin="round"/>
<path d="M33.9024 30.1641H29.0039" stroke="white" stroke-width="1.5" stroke-linecap="round" stroke-linejoin="round"/>
<path d="M31.451 32.6139V27.7139" stroke="white" stroke-width="1.5" stroke-linecap="round" stroke-linejoin="round"/>
</svg>
