<svg width="163" height="163" viewBox="0 0 163 163" fill="none" xmlns="http://www.w3.org/2000/svg">
<rect opacity="0.29" width="163" height="163" rx="37" fill="#F0ECFF"/>
<path fill-rule="evenodd" clip-rule="evenodd" d="M122 62.3263V97.6694C122 110.764 113.809 120 100.722 120H63.2351C50.1473 120 42 110.764 42 97.6694V62.3263C42 49.2314 50.1907 40 63.2351 40H100.722C113.809 40 122 49.2314 122 62.3263Z" fill="white" stroke="white" stroke-width="1.5" stroke-linecap="round" stroke-linejoin="round"/>
<path d="M82.2331 85.5859V62.5073" stroke="#7A81FD" stroke-width="3.5" stroke-linecap="round" stroke-linejoin="round"/>
<path d="M87.8223 79.9745L82.2333 85.5865L76.6443 79.9745" stroke="#7A81FD" stroke-width="3.5" stroke-linecap="round" stroke-linejoin="round"/>
<path opacity="0.4" d="M91.1136 71.5787H92.9019C96.8023 71.5787 99.9629 74.7393 99.9629 78.6417V88.0027C99.9629 91.8935 96.81 95.0464 92.9191 95.0464H71.5675C67.6671 95.0464 64.5046 91.8839 64.5046 87.9835V78.6206C64.5046 74.7317 67.6594 71.5787 71.5483 71.5787H73.3538" stroke="#7A81FD" stroke-width="3.5" stroke-linecap="round" stroke-linejoin="round"/>
</svg>
