<svg width="20" height="20" viewBox="0 0 20 20" fill="none" xmlns="http://www.w3.org/2000/svg">
<g id="Iconly/Two-tone/2 User">
<g id="2 User">
<path id="Stroke 1" fill-rule="evenodd" clip-rule="evenodd" d="M7.99293 12.6723C11.0671 12.6723 13.6946 13.1382 13.6946 14.999C13.6946 16.8598 11.0846 17.339 7.99293 17.339C4.91793 17.339 2.29126 16.8773 2.29126 15.0157C2.29126 13.154 4.90043 12.6723 7.99293 12.6723Z" stroke="#202730" stroke-width="1.5" stroke-linecap="round" stroke-linejoin="round"/>
<path id="Stroke 3" opacity="0.4" fill-rule="evenodd" clip-rule="evenodd" d="M7.99295 10.0165C5.97462 10.0165 4.33795 8.38067 4.33795 6.36233C4.33795 4.344 5.97462 2.70817 7.99295 2.70817C10.0105 2.70817 11.6471 4.344 11.6471 6.36233C11.6546 8.37317 10.0296 10.009 8.01878 10.0165H7.99295Z" stroke="#202730" stroke-width="1.5" stroke-linecap="round" stroke-linejoin="round"/>
<path id="Stroke 5" opacity="0.4" d="M13.7359 9.068C15.0701 8.8805 16.0976 7.7355 16.1001 6.34967C16.1001 4.98383 15.1042 3.8505 13.7984 3.63633" stroke="#202730" stroke-width="1.5" stroke-linecap="round" stroke-linejoin="round"/>
<path id="Stroke 7" d="M15.4962 12.2768C16.7887 12.4693 17.6912 12.9227 17.6912 13.856C17.6912 14.4985 17.2662 14.9152 16.5795 15.176" stroke="#202730" stroke-width="1.5" stroke-linecap="round" stroke-linejoin="round"/>
</g>
</g>
</svg>
