<svg width="18" height="16" viewBox="0 0 18 16" fill="none" xmlns="http://www.w3.org/2000/svg">
<path d="M17.0008 9.99986C17.2557 10.0001 17.5009 10.0977 17.6862 10.2727C17.8715 10.4477 17.9831 10.6868 17.998 10.9413C18.013 11.1957 17.9302 11.4462 17.7666 11.6417C17.603 11.8371 17.3709 11.9628 17.1178 11.9929L17.0008 11.9999H3.41485L5.70785 14.2929C5.88719 14.4728 5.99132 14.7143 5.99907 14.9682C6.00683 15.2222 5.91763 15.4696 5.7496 15.6601C5.58156 15.8507 5.34729 15.9702 5.09437 15.9943C4.84145 16.0184 4.58884 15.9453 4.38785 15.7899L4.29385 15.7069L0.463845 11.8769C-0.201155 11.2129 0.224845 10.0939 1.12685 10.0059L1.24185 9.99986H17.0008ZM12.2938 0.292861C12.466 0.120685 12.6951 0.0172534 12.9382 0.00197221C13.1812 -0.013309 13.4214 0.06061 13.6138 0.209861L13.7078 0.292861L17.5378 4.12286C18.2028 4.78686 17.7768 5.90586 16.8748 5.99386L16.7598 5.99986H1.00085C0.745966 5.99958 0.500813 5.90198 0.315477 5.72701C0.130141 5.55204 0.0186103 5.31291 0.00367316 5.05847C-0.011264 4.80402 0.0715199 4.55348 0.23511 4.35803C0.3987 4.16258 0.630749 4.03696 0.883845 4.00686L1.00085 3.99986H14.5868L12.2938 1.70686C12.1064 1.51933 12.0011 1.26503 12.0011 0.999861C12.0011 0.734697 12.1064 0.480389 12.2938 0.292861Z" fill="#7A81FD"/>
</svg>
