<svg width="35" height="35" viewBox="0 0 35 35" fill="none" xmlns="http://www.w3.org/2000/svg">
<rect width="35" height="35" rx="8" fill="#7A81FD"/>
<path d="M27.3709 17.2981C26.6725 15.4917 25.4602 13.9296 23.8836 12.8047C22.3071 11.6798 20.4356 11.0415 18.5002 10.9688C16.5649 11.0415 14.6933 11.6798 13.1168 12.8047C11.5403 13.9296 10.328 15.4917 9.62961 17.2981C9.58245 17.4286 9.58245 17.5714 9.62961 17.7019C10.328 19.5083 11.5403 21.0704 13.1168 22.1953C14.6933 23.3202 16.5649 23.9585 18.5002 24.0312C20.4356 23.9585 22.3071 23.3202 23.8836 22.1953C25.4602 21.0704 26.6725 19.5083 27.3709 17.7019C27.418 17.5714 27.418 17.4286 27.3709 17.2981ZM18.5002 22.8438C15.3534 22.8438 12.0284 20.5103 10.823 17.5C12.0284 14.4897 15.3534 12.1562 18.5002 12.1562C21.6471 12.1562 24.9721 14.4897 26.1774 17.5C24.9721 20.5103 21.6471 22.8438 18.5002 22.8438Z" fill="white"/>
<path d="M18.5 13.9375C17.7954 13.9375 17.1066 14.1464 16.5208 14.5379C15.9349 14.9293 15.4783 15.4857 15.2087 16.1367C14.939 16.7877 14.8685 17.504 15.006 18.195C15.1434 18.8861 15.4827 19.5208 15.9809 20.0191C16.4792 20.5173 17.1139 20.8566 17.805 20.994C18.496 21.1315 19.2123 21.061 19.8633 20.7913C20.5143 20.5217 21.0707 20.0651 21.4621 19.4792C21.8536 18.8934 22.0625 18.2046 22.0625 17.5C22.0625 16.5552 21.6872 15.649 21.0191 14.9809C20.351 14.3128 19.4448 13.9375 18.5 13.9375ZM18.5 19.875C18.0303 19.875 17.5711 19.7357 17.1805 19.4747C16.79 19.2138 16.4855 18.8428 16.3058 18.4089C16.126 17.9749 16.079 17.4974 16.1706 17.0367C16.2623 16.576 16.4885 16.1528 16.8206 15.8206C17.1528 15.4885 17.576 15.2623 18.0367 15.1706C18.4974 15.079 18.9749 15.126 19.4089 15.3058C19.8428 15.4855 20.2138 15.79 20.4747 16.1805C20.7357 16.5711 20.875 17.0303 20.875 17.5C20.875 18.1299 20.6248 18.734 20.1794 19.1794C19.734 19.6248 19.1299 19.875 18.5 19.875Z" fill="white"/>
</svg>
