<svg width="36" height="35" viewBox="0 0 36 35" fill="none" xmlns="http://www.w3.org/2000/svg">
<rect x="0.335938" width="35" height="35" rx="8" fill="#7A81FD"/>
<path fill-rule="evenodd" clip-rule="evenodd" d="M12.5686 12.2242C15.7311 9.06585 20.8728 9.09918 24.0545 12.2817C27.2378 15.465 27.2711 20.6092 24.1078 23.7717C20.9453 26.9342 15.8011 26.9017 12.6178 23.7184C11.7224 22.8266 11.0458 21.7395 10.6413 20.5423C10.2367 19.3451 10.1151 18.0704 10.2861 16.8184C10.3086 16.654 10.3953 16.5053 10.5274 16.405C10.6595 16.3047 10.826 16.2609 10.9903 16.2834C11.1546 16.3058 11.3033 16.3926 11.4036 16.5246C11.504 16.6567 11.5477 16.8232 11.5253 16.9875C11.3802 18.0486 11.483 19.1289 11.8259 20.1435C12.1687 21.1581 12.7421 22.0794 13.5011 22.835C16.2053 25.5384 20.5578 25.5542 23.2245 22.8884C25.8903 20.2217 25.8745 15.8692 23.1711 13.165C20.4686 10.4634 16.1186 10.4459 13.452 13.1084L14.0753 13.1109C14.1574 13.1112 14.2386 13.1278 14.3142 13.1595C14.3899 13.1913 14.4586 13.2377 14.5164 13.296C14.5741 13.3543 14.6199 13.4234 14.6509 13.4994C14.682 13.5753 14.6978 13.6567 14.6974 13.7388C14.697 13.8208 14.6804 13.902 14.6487 13.9777C14.6169 14.0534 14.5706 14.1221 14.5123 14.1799C14.4539 14.2376 14.3848 14.2833 14.3089 14.3144C14.2329 14.3454 14.1515 14.3612 14.0695 14.3609L11.9478 14.3509C11.783 14.35 11.6253 14.2841 11.5089 14.1675C11.3925 14.0509 11.3268 13.8931 11.3261 13.7284L11.3153 11.6084C11.3149 11.5263 11.3306 11.4449 11.3616 11.3689C11.3926 11.2929 11.4383 11.2238 11.496 11.1654C11.5537 11.1071 11.6224 11.0607 11.698 11.0289C11.7737 10.9971 11.8549 10.9805 11.937 10.98C12.019 10.9796 12.1004 10.9953 12.1764 11.0263C12.2524 11.0573 12.3215 11.103 12.3799 11.1607C12.4382 11.2184 12.4846 11.2871 12.5164 11.3628C12.5483 11.4384 12.5649 11.5196 12.5653 11.6017L12.5686 12.225V12.2242ZM18.3353 14.0409C18.5011 14.0409 18.66 14.1067 18.7772 14.2239C18.8944 14.3411 18.9603 14.5001 18.9603 14.6659V17.7409L20.8611 19.6409C20.9208 19.6985 20.9685 19.7674 21.0013 19.8437C21.0341 19.9199 21.0514 20.0019 21.0521 20.0849C21.0529 20.1679 21.0371 20.2502 21.0057 20.327C20.9743 20.4038 20.9279 20.4736 20.8693 20.5323C20.8106 20.5911 20.7409 20.6375 20.6641 20.669C20.5873 20.7004 20.505 20.7163 20.422 20.7156C20.339 20.7149 20.257 20.6977 20.1807 20.665C20.1045 20.6323 20.0355 20.5847 19.9778 20.525L17.7111 18.2584V14.6667C17.7111 14.5009 17.777 14.342 17.8942 14.2247C18.0114 14.1075 18.1704 14.0417 18.3361 14.0417L18.3353 14.0409Z" fill="white"/>
</svg>
