<svg width="24" height="24" viewBox="0 0 24 24" fill="none" xmlns="http://www.w3.org/2000/svg">
<g id="Iconly/Light/Show">
<g id="Show">
<path id="Stroke 1 (Stroke)" fill-rule="evenodd" clip-rule="evenodd" d="M11.9994 9.64111C10.6677 9.64111 9.58838 10.7202 9.58838 12.0531C9.58838 13.3849 10.6676 14.4641 11.9994 14.4641C13.3315 14.4641 14.4114 13.3846 14.4114 12.0531C14.4114 10.7205 13.3313 9.64111 11.9994 9.64111ZM8.08838 12.0531C8.08838 9.89205 9.83901 8.14111 11.9994 8.14111C14.1594 8.14111 15.9114 9.89175 15.9114 12.0531C15.9114 14.2136 14.1593 15.9641 11.9994 15.9641C9.83917 15.9641 8.08838 14.2133 8.08838 12.0531Z" fill="#130F26"/>
<path id="Stroke 3" fill-rule="evenodd" clip-rule="evenodd" d="M11.998 19.3549C15.806 19.3549 19.289 16.6169 21.25 12.0529C19.289 7.48892 15.806 4.75092 11.998 4.75092H12.002C8.194 4.75092 4.711 7.48892 2.75 12.0529C4.711 16.6169 8.194 19.3549 12.002 19.3549H11.998Z" stroke="#130F26" stroke-width="1.5" stroke-linecap="round" stroke-linejoin="round"/>
</g>
</g>
</svg>
