<svg width="25" height="25" viewBox="0 0 25 25" fill="none" xmlns="http://www.w3.org/2000/svg">
<g clip-path="url(#clip0_9746_2223)">
<path d="M1.46289 0V3.43784C1.46289 6.36363 3.21455 8.96956 5.8714 10.076C6.00499 11.7886 6.79793 13.391 8.09318 14.5338C8.80396 15.1609 9.27477 16.0015 9.44093 16.9118H15.4257C15.5918 16.0015 16.0627 15.1609 16.7734 14.5338C18.0687 13.391 18.8617 11.7886 18.9953 10.076C21.6521 8.96956 23.4038 6.36363 23.4038 3.43784V0C22.7484 0 1.8921 0 1.46289 0V0ZM2.92562 3.43784V1.47059H5.85106V8.4353C4.06752 7.44152 2.92562 5.54422 2.92562 3.43784ZM14.2686 8.36334L14.7019 10.9029L12.4333 9.70393L10.1648 10.9029L10.598 8.36334L8.76276 6.56476L11.299 6.19422L12.4333 3.88363L13.5676 6.19422L16.1039 6.56476L14.2686 8.36334ZM21.941 3.43784C21.941 5.54422 20.7991 7.44152 19.0156 8.4353V1.47059H21.941V3.43784Z" fill="#62C8E6"/>
<path d="M7.31348 18.3823H17.5525V20.5882H7.31348V18.3823Z" fill="#62C8E6"/>
<path d="M19.0159 22.0588H5.8514V23.5294H4.38867V25H20.4786V23.5294H19.0159V22.0588Z" fill="#62C8E6"/>
<path d="M12.5965 7.53833L12.4335 7.20642L12.2706 7.53833L11.9062 7.59157L12.1699 7.84991L12.1076 8.21471L12.4335 8.04246L12.7594 8.21471L12.6971 7.84991L12.9608 7.59157L12.5965 7.53833Z" fill="#62C8E6"/>
</g>
<defs>
<clipPath id="clip0_9746_2223">
<rect width="24.8663" height="25" fill="white"/>
</clipPath>
</defs>
</svg>
