<svg width="35" height="35" viewBox="0 0 35 35" fill="none" xmlns="http://www.w3.org/2000/svg">
<rect width="35" height="35" rx="8" fill="#7A81FD"/>
<path d="M17.5 21.875V20.125H19.25V21.875H17.5ZM19.25 18.375V16.625H17.5V18.375H19.25ZM19.25 14.875V13.125H17.5V14.875H19.25ZM15.75 16.625H17.5V14.875H15.75V16.625ZM15.75 20.125H17.5V18.375H15.75V20.125ZM25.375 11.375V23.625C25.375 24.5875 24.5875 25.375 23.625 25.375H11.375C10.4125 25.375 9.625 24.5875 9.625 23.625V11.375C9.625 10.4125 10.4125 9.625 11.375 9.625H23.625C24.5875 9.625 25.375 10.4125 25.375 11.375ZM23.625 11.375H17.5V13.125H15.75V11.375H11.375V23.625H23.625V11.375Z" fill="white"/>
</svg>
