<svg width="42" height="42" viewBox="0 0 42 42" fill="none" xmlns="http://www.w3.org/2000/svg">
<rect opacity="0.2" width="42" height="42" rx="5" fill="white"/>
<path d="M13.9688 33H28.0312C29.1944 33 30.1406 32.0538 30.1406 30.8906V16.0312H25.2188C24.0556 16.0312 23.1094 15.085 23.1094 13.9219V9H13.9688C12.8056 9 11.8594 9.94622 11.8594 11.1094V30.8906C11.8594 32.0538 12.8056 33 13.9688 33ZM16.7812 18.8906H25.2188C25.6074 18.8906 25.9219 19.2051 25.9219 19.5938C25.9219 19.9824 25.6074 20.2969 25.2188 20.2969H16.7812C16.3926 20.2969 16.0781 19.9824 16.0781 19.5938C16.0781 19.2051 16.3926 18.8906 16.7812 18.8906ZM16.7812 21.7031H25.2188C25.6074 21.7031 25.9219 22.0176 25.9219 22.4062C25.9219 22.7949 25.6074 23.1094 25.2188 23.1094H16.7812C16.3926 23.1094 16.0781 22.7949 16.0781 22.4062C16.0781 22.0176 16.3926 21.7031 16.7812 21.7031ZM16.7812 24.5156H25.2188C25.6074 24.5156 25.9219 24.8301 25.9219 25.2188C25.9219 25.6074 25.6074 25.9219 25.2188 25.9219H16.7812C16.3926 25.9219 16.0781 25.6074 16.0781 25.2188C16.0781 24.8301 16.3926 24.5156 16.7812 24.5156ZM16.7812 27.3281H22.4062C22.7949 27.3281 23.1094 27.6426 23.1094 28.0312C23.1094 28.4199 22.7949 28.7344 22.4062 28.7344H16.7812C16.3926 28.7344 16.0781 28.4199 16.0781 28.0312C16.0781 27.6426 16.3926 27.3281 16.7812 27.3281Z" fill="white"/>
<path d="M25.2188 14.6251H29.7286L24.5156 9.41211V13.922C24.5156 14.3099 24.8308 14.6251 25.2188 14.6251Z" fill="white"/>
</svg>
