<svg width="20" height="20" viewBox="0 0 20 20" fill="none" xmlns="http://www.w3.org/2000/svg">
<path d="M3.82812 16.7334L3.40234 17.0182C3.37509 17.0364 3.3443 17.0486 3.312 17.0542C3.27969 17.0597 3.24659 17.0583 3.21484 17.0502C3.1831 17.042 3.15343 17.0273 3.12776 17.0069C3.10209 16.9865 3.081 16.961 3.06586 16.9319L2.33555 15.5371L1.3952 15.876C1.22564 15.9647 1.08077 16.0941 0.973608 16.2526C0.866445 16.4111 0.800346 16.5938 0.78125 16.7842V18.7505H3.82812V16.7334Z" fill="white"/>
<path d="M3.3602 16.4834L3.69719 16.2587L2.74316 15.3047L3.3602 16.4834Z" fill="white"/>
<path d="M4.6875 15.3304V14.3984C4.48035 14.4483 4.26798 14.4732 4.05492 14.4727C3.84708 14.4729 3.63991 14.4492 3.4375 14.402V15.3327L4.06137 15.9635L4.6875 15.3304Z" fill="white"/>
<path d="M4.70492 18.5351C4.80521 18.5351 4.88652 18.4538 4.88652 18.3535C4.88652 18.2532 4.80521 18.1719 4.70492 18.1719C4.60462 18.1719 4.52332 18.2532 4.52332 18.3535C4.52332 18.4538 4.60462 18.5351 4.70492 18.5351Z" fill="white"/>
<path d="M19.0625 1.25H4.60938C4.52308 1.25 4.45312 1.31996 4.45312 1.40625V2.61719C4.45312 2.70348 4.52308 2.77344 4.60938 2.77344H19.0625C19.1488 2.77344 19.2188 2.70348 19.2188 2.61719V1.40625C19.2188 1.31996 19.1488 1.25 19.0625 1.25Z" fill="white"/>
<path d="M4.70492 17.7655C4.80521 17.7655 4.88652 17.6842 4.88652 17.5839C4.88652 17.4837 4.80521 17.4023 4.70492 17.4023C4.60462 17.4023 4.52332 17.4837 4.52332 17.5839C4.52332 17.6842 4.60462 17.7655 4.70492 17.7655Z" fill="white"/>
<path d="M3.66016 9.16638C3.65989 9.22023 3.68054 9.27209 3.71776 9.31102C3.75499 9.34994 3.80588 9.37288 3.85969 9.37501H5.40071C5.53552 9.37413 5.66919 9.39989 5.79402 9.4508C5.91886 9.50171 6.03241 9.57677 6.12817 9.67167C6.22393 9.76658 6.3 9.87946 6.35203 10.0038C6.40405 10.1282 6.431 10.2616 6.43133 10.3965C6.43133 10.4033 6.43133 10.4057 6.44442 10.4103C6.45751 10.4149 6.46192 10.4071 6.46618 10.4018L6.49188 10.3689L6.54118 10.0241C6.56784 9.62981 6.50003 9.23484 6.34336 8.87202C6.18669 8.50919 5.9457 8.189 5.6404 7.93804C5.33511 7.68708 4.97434 7.5126 4.58805 7.42911C4.20177 7.34561 3.80114 7.35551 3.41946 7.45797C3.2548 7.50764 3.09522 7.57285 2.9429 7.6527C2.92165 7.8006 2.86938 7.94234 2.78949 8.06862C2.70961 8.19489 2.60393 8.30285 2.47938 8.3854L2.38 8.45145L2.96715 8.46188C3.15186 8.46532 3.32786 8.54101 3.45742 8.67271C3.58697 8.80441 3.65975 8.98164 3.66016 9.16638Z" fill="white"/>
<path d="M1.36887 11.3678C1.3993 11.3816 1.48317 11.4157 1.52188 11.4293C1.57702 11.438 1.62725 11.4661 1.66351 11.5086C1.69978 11.551 1.7197 11.605 1.71969 11.6608C1.71918 12.2823 1.96556 12.8785 2.40464 13.3184C2.84373 13.7582 3.43954 14.0056 4.06102 14.0061C4.6825 14.0066 5.27873 13.7602 5.71854 13.3211C6.15836 12.882 6.40574 12.2862 6.40626 11.6647V11.6606C6.40529 11.606 6.42376 11.5528 6.45838 11.5105C6.49299 11.4682 6.5415 11.4396 6.59524 11.4298C6.69224 11.4125 6.78 11.3614 6.843 11.2857C6.90599 11.2099 6.94018 11.1143 6.9395 11.0157C6.93916 10.9818 6.93474 10.948 6.92633 10.9152C6.91772 10.8776 6.90059 10.8426 6.87627 10.8127C6.85194 10.7829 6.82108 10.7591 6.78606 10.7431C6.72105 10.805 6.64003 10.8477 6.55212 10.8661C6.4642 10.8846 6.37289 10.8781 6.28844 10.8475C6.19332 10.8165 6.1105 10.7561 6.05195 10.675C5.9934 10.5939 5.96216 10.4963 5.96274 10.3963C5.9625 10.3229 5.94773 10.2504 5.91929 10.1829C5.89084 10.1153 5.84929 10.054 5.79702 10.0026C5.74476 9.95122 5.68283 9.91068 5.6148 9.88336C5.54678 9.85604 5.47401 9.84247 5.40071 9.84344H3.85969C3.68158 9.84119 3.51153 9.76881 3.38643 9.64201C3.26132 9.5152 3.19125 9.34419 3.19141 9.16606C3.19139 9.10471 3.16748 9.04578 3.12475 9.00177C3.08202 8.95776 3.02382 8.93211 2.96251 8.93027L1.757 8.91602C1.61308 9.26677 1.55117 9.64575 1.57598 10.0241L1.63325 10.4152C1.63411 10.4211 1.63473 10.4269 1.63516 10.4327L1.63758 10.4678C1.64177 10.5289 1.6219 10.5892 1.58223 10.6358C1.54256 10.6824 1.48623 10.7116 1.42528 10.7172C1.37009 10.7208 1.3175 10.742 1.27519 10.7776C1.23289 10.8132 1.20308 10.8614 1.19012 10.9152C1.16933 10.9998 1.17535 11.0889 1.20735 11.17C1.23935 11.2511 1.29575 11.3202 1.36876 11.3679L1.36887 11.3678Z" fill="white"/>
<path d="M4.77 16.4834L5.38703 15.3047L4.43304 16.2587L4.77 16.4834Z" fill="white"/>
<path d="M14.2578 6.09375H13.7891V10.3125H14.2578V6.09375Z" fill="white"/>
<path d="M9.88281 8.4375H9.41406V10.3125H9.88281V8.4375Z" fill="white"/>
<path d="M7.34375 16.7842C7.32515 16.594 7.25953 16.4114 7.15281 16.2528C7.04609 16.0943 6.90161 15.9648 6.73238 15.876L5.79395 15.5371L5.06406 16.9319C5.04427 16.9698 5.01448 17.0015 4.97792 17.0237C4.94136 17.0459 4.89943 17.0576 4.85668 17.0576C4.81 17.0576 4.76435 17.0439 4.72539 17.0182L4.29688 16.7334V18.7505H7.34375V16.7842ZM4.70492 18.6411C4.64813 18.6411 4.59261 18.6243 4.54539 18.5927C4.49817 18.5612 4.46136 18.5163 4.43963 18.4639C4.4179 18.4114 4.41221 18.3537 4.42329 18.298C4.43437 18.2423 4.46172 18.1911 4.50188 18.1509C4.54204 18.1108 4.5932 18.0834 4.6489 18.0724C4.7046 18.0613 4.76234 18.067 4.81481 18.0887C4.86728 18.1104 4.91212 18.1472 4.94368 18.1945C4.97523 18.2417 4.99207 18.2972 4.99207 18.354C4.99198 18.4301 4.96169 18.5031 4.90786 18.5569C4.85403 18.6108 4.78105 18.641 4.70492 18.6411ZM4.70492 17.8716C4.64813 17.8716 4.59261 17.8548 4.54539 17.8232C4.49817 17.7917 4.46136 17.7468 4.43963 17.6943C4.4179 17.6419 4.41221 17.5841 4.42329 17.5284C4.43437 17.4727 4.46172 17.4216 4.50188 17.3814C4.54204 17.3412 4.5932 17.3139 4.6489 17.3028C4.7046 17.2917 4.76234 17.2974 4.81481 17.3192C4.86728 17.3409 4.91212 17.3777 4.94368 17.4249C4.97523 17.4721 4.99207 17.5277 4.99207 17.5845C4.99198 17.6606 4.96169 17.7336 4.90786 17.7874C4.85403 17.8412 4.78105 17.8715 4.70492 17.8716Z" fill="white"/>
<path d="M12.0703 7.65625H11.6016V10.3125H12.0703V7.65625Z" fill="white"/>
<path d="M18.3984 3.28125H5.23438V7.14941C5.625 7.30844 5.9341 7.54219 6.21523 7.84336C6.49367 8.13857 6.70772 8.48842 6.84382 8.87072C6.97991 9.25302 7.03508 9.65943 7.00582 10.0642C7.00543 10.0699 7.00602 10.0756 7.00523 10.0813L6.97266 10.313C7.07372 10.3581 7.16305 10.4258 7.23373 10.5109C7.30441 10.596 7.35454 10.6963 7.38023 10.8039C7.39723 10.8733 7.40584 10.9445 7.40586 11.0159C7.40607 11.1907 7.35437 11.3617 7.25733 11.5071C7.16028 11.6525 7.02226 11.7658 6.86074 11.8327C6.8424 12.1287 6.7768 12.42 6.66641 12.6953H17.4629C17.9774 12.6953 18.3984 12.2582 18.3984 11.7114V3.28125ZM10.3516 10.5469C10.3516 10.609 10.3269 10.6686 10.2829 10.7126C10.239 10.7566 10.1793 10.7812 10.1172 10.7812H9.17969C9.11753 10.7812 9.05791 10.7566 9.01396 10.7126C8.97001 10.6686 8.94531 10.609 8.94531 10.5469V8.20312C8.94531 8.14096 8.97001 8.08135 9.01396 8.0374C9.05791 7.99344 9.11753 7.96875 9.17969 7.96875H10.1172C10.1793 7.96875 10.239 7.99344 10.2829 8.0374C10.3269 8.08135 10.3516 8.14096 10.3516 8.20312V10.5469ZM12.5391 10.5469C12.5391 10.609 12.5144 10.6686 12.4704 10.7126C12.4265 10.7566 12.3668 10.7812 12.3047 10.7812H11.3672C11.305 10.7812 11.2454 10.7566 11.2015 10.7126C11.1575 10.6686 11.1328 10.609 11.1328 10.5469V7.42188C11.1328 7.35971 11.1575 7.3001 11.2015 7.25615C11.2454 7.21219 11.305 7.1875 11.3672 7.1875H12.3047C12.3668 7.1875 12.4265 7.21219 12.4704 7.25615C12.5144 7.3001 12.5391 7.35971 12.5391 7.42188V10.5469ZM14.7266 10.5469C14.7266 10.609 14.7019 10.6686 14.6579 10.7126C14.614 10.7566 14.5543 10.7812 14.4922 10.7812H13.5547C13.4925 10.7812 13.4329 10.7566 13.389 10.7126C13.345 10.6686 13.3203 10.609 13.3203 10.5469V5.85938C13.3203 5.79721 13.345 5.7376 13.389 5.69365C13.4329 5.64969 13.4925 5.625 13.5547 5.625H14.4922C14.5543 5.625 14.614 5.64969 14.6579 5.69365C14.7019 5.7376 14.7266 5.79721 14.7266 5.85938V10.5469Z" fill="white"/>
<path d="M11.9916 12.8261C11.9896 12.8239 11.9872 12.8225 11.9851 12.8204C11.9831 12.8183 11.9817 12.816 11.9796 12.814C11.9757 12.8106 11.9716 12.8082 11.9678 12.805C11.9616 12.7998 11.9551 12.7949 11.9483 12.7903C11.942 12.7861 11.9355 12.7825 11.9288 12.7791C11.9221 12.7758 11.9149 12.772 11.9077 12.769C11.9007 12.7663 11.8937 12.7639 11.8865 12.7619C11.8792 12.7597 11.8719 12.7577 11.8644 12.7562C11.857 12.7548 11.8498 12.754 11.8424 12.7533C11.8351 12.7525 11.8274 12.752 11.8198 12.752C11.8121 12.752 11.8052 12.7525 11.798 12.7532C11.7903 12.7539 11.7826 12.7549 11.7751 12.7563C11.7679 12.7577 11.7609 12.7597 11.7539 12.7618C11.7464 12.7638 11.7391 12.7663 11.7319 12.7691C11.7249 12.7721 11.718 12.7754 11.7114 12.779C11.7046 12.7825 11.698 12.7862 11.6915 12.7904C11.6849 12.7949 11.6785 12.7998 11.6723 12.805C11.6684 12.8082 11.6641 12.8105 11.6603 12.814C11.6582 12.816 11.6567 12.8184 11.6547 12.8204C11.6527 12.8225 11.6503 12.8239 11.6483 12.8261L9.21889 15.4391C9.17702 15.4847 9.1549 15.545 9.15735 15.6068C9.1598 15.6687 9.18661 15.7271 9.23195 15.7692C9.27728 15.8114 9.33745 15.8339 9.39932 15.8318C9.46119 15.8298 9.51973 15.8033 9.56217 15.7583L11.82 13.3299L14.0778 15.7583C14.1201 15.8038 14.1788 15.8306 14.2409 15.8329C14.3031 15.8352 14.3635 15.8127 14.4091 15.7703C14.4546 15.728 14.4814 15.6693 14.4837 15.6072C14.486 15.5451 14.4635 15.4846 14.4211 15.4391L11.9916 12.8261Z" fill="white"/>
</svg>
