<svg width="42" height="42" viewBox="0 0 42 42" fill="none" xmlns="http://www.w3.org/2000/svg">
<rect opacity="0.2" width="42" height="42" rx="5" fill="white"/>
<path d="M29.1283 9.84571H19.7763L19.7487 9.77357C19.5691 9.30774 19.1209 9 18.6213 9H13.0858C12.0367 9 11.155 9.83267 11.155 10.8818V31.1175C11.155 32.165 12.036 33 13.0858 33H27.4837C27.7101 33 27.9211 32.888 28.0485 32.703C28.1759 32.5173 28.2043 32.2801 28.1252 32.0706H29.1291C30.0999 32.0706 30.845 31.2871 30.845 30.317V11.6054C30.8443 10.6354 30.0983 9.84571 29.1283 9.84571ZM28.9019 30.0431H27.3747L26.519 27.7814C26.9864 27.6963 27.3386 27.2987 27.3386 26.8068C27.3386 26.2519 26.8904 25.8176 26.3341 25.8176H25.7746L25.0747 23.9588H26.5044C27.0593 23.9588 27.5075 23.4984 27.5075 22.9443C27.5075 22.3902 27.0593 21.9313 26.5044 21.9313H24.3249L23.625 20.0718H26.5044C27.0593 20.0718 27.5075 19.6535 27.5075 19.1002C27.5075 18.5454 27.0593 18.1271 26.5044 18.1271H22.8752L22.1753 16.2691H26.5044C27.0593 16.2691 27.5075 15.8087 27.5075 15.2546C27.5075 14.7013 27.0593 14.2416 26.5044 14.2416H21.4263L20.5253 11.8748H28.9011V30.0431H28.9019Z" fill="white"/>
</svg>
