<svg width="20" height="20" viewBox="0 0 20 20" fill="none" xmlns="http://www.w3.org/2000/svg">
<g clip-path="url(#clip0)">
<path d="M0.669297 14.3099C0.433945 14.3099 0.208203 14.265 0 14.1836V14.9792C0 16.008 0.835547 16.8204 1.84117 16.8204H18.1588C19.1877 16.8204 20 15.9848 20 14.9792V14.1845C19.7932 14.2651 19.5678 14.31 19.3307 14.31H0.669297V14.3099Z" fill="#848484"/>
<path d="M15.0208 18.8281H13.0963V17.9922H6.90362V18.8281H4.97913C4.65553 18.8281 4.39319 19.0905 4.39319 19.4141C4.39319 19.7377 4.65553 20 4.97913 20H15.0208C15.3444 20 15.6067 19.7377 15.6067 19.4141C15.6067 19.0905 15.3444 18.8281 15.0208 18.8281Z" fill="#848484"/>
<path d="M18.1588 0H1.84117C0.812344 0 0 0.835547 0 1.84113V12.4688C0 12.8378 0.300234 13.138 0.669297 13.138H19.3307C19.6998 13.138 20 12.8378 20 12.4688V1.84113C20 0.835547 19.1877 0 18.1588 0V0ZM5.39348 10.2341C5.6223 10.4629 5.6223 10.8339 5.39348 11.0627C5.16469 11.2916 4.79367 11.2915 4.56484 11.0627L4.35156 10.8495L4.13828 11.0627C3.90949 11.2916 3.53848 11.2916 3.30965 11.0627C3.08082 10.8339 3.08082 10.4629 3.30965 10.2341L3.52293 10.0208L3.30965 9.80754C3.08082 9.57875 3.08082 9.20773 3.30965 8.97891C3.53844 8.75008 3.90945 8.75008 4.13828 8.97891L4.35156 9.19219L4.56484 8.97891C4.79363 8.75012 5.16465 8.75008 5.39348 8.97891C5.6223 9.20773 5.6223 9.57871 5.39348 9.80754L5.1802 10.0208L5.39348 10.2341ZM6.02109 6.04191L4.7659 7.29711C4.65148 7.41152 4.50152 7.46875 4.3516 7.46875C4.20168 7.46875 4.05168 7.41156 3.9373 7.29715L3.30965 6.66953C3.08086 6.4407 3.08082 6.06973 3.30965 5.8409C3.53844 5.61211 3.90941 5.61207 4.13828 5.8409L4.3516 6.05418L5.19246 5.21328C5.42125 4.98445 5.79227 4.98445 6.02109 5.21328C6.24992 5.44207 6.24992 5.81309 6.02109 6.04191ZM16.2761 10.6068H8.11719C7.79359 10.6068 7.53125 10.3444 7.53125 10.0208C7.53125 9.69723 7.79359 9.43488 8.11719 9.43488H16.2761C16.5996 9.43488 16.862 9.69723 16.862 10.0208C16.862 10.3444 16.5996 10.6068 16.2761 10.6068ZM16.2761 6.84113H8.11719C7.79359 6.84113 7.53125 6.57879 7.53125 6.2552C7.53125 5.9316 7.79359 5.66926 8.11719 5.66926H16.2761C16.5996 5.66926 16.862 5.9316 16.862 6.2552C16.862 6.57879 16.5996 6.84113 16.2761 6.84113ZM16.2761 3.07551H3.72395C3.40035 3.07551 3.13801 2.81316 3.13801 2.48957C3.13801 2.16598 3.40035 1.90363 3.72395 1.90363H16.2761C16.5996 1.90363 16.862 2.16598 16.862 2.48957C16.862 2.81316 16.5996 3.07551 16.2761 3.07551Z" fill="#848484"/>
</g>
<defs>
<clipPath id="clip0">
<rect width="20" height="20" fill="white"/>
</clipPath>
</defs>
</svg>
