<svg width="42" height="42" viewBox="0 0 42 42" fill="none" xmlns="http://www.w3.org/2000/svg">
<rect opacity="0.2" width="42" height="42" rx="5" fill="white"/>
<g clip-path="url(#clip0_115_5456)">
<path d="M20.9999 19.4438C18.4807 19.4438 16.4312 21.4934 16.4312 24.0126C16.4312 26.5318 18.4807 28.5814 20.9999 28.5814C23.5191 28.5814 25.5687 26.5318 25.5687 24.0126C25.5687 21.4934 23.5191 19.4438 20.9999 19.4438ZM23.0947 25.113C23.3693 25.3875 23.3693 25.8328 23.0947 26.1074C22.9574 26.2446 22.7775 26.3133 22.5976 26.3133C22.4176 26.3133 22.2377 26.2446 22.1004 26.1074L20.9999 25.0069L19.8995 26.1074C19.7622 26.2446 19.5822 26.3133 19.4023 26.3133C19.2223 26.3133 19.0424 26.2446 18.9051 26.1074C18.6306 25.8328 18.6306 25.3876 18.9051 25.113L20.0056 24.0126L18.9051 22.9121C18.6306 22.6376 18.6306 22.1924 18.9051 21.9178C19.1797 21.6432 19.6249 21.6432 19.8995 21.9178L20.9999 23.0182L22.1004 21.9178C22.3749 21.6432 22.8201 21.6432 23.0947 21.9178C23.3693 22.1923 23.3693 22.6375 23.0947 22.9121L21.9943 24.0126L23.0947 25.113Z" fill="white"/>
<path d="M25.8953 16.4312C24.4694 16.4312 23.3093 15.2712 23.3093 13.8453V9H13.8453C12.4194 9 11.2593 10.1601 11.2593 11.586V30.414C11.2593 31.8399 12.4194 33 13.8453 33H28.1547C29.5806 33 30.7407 31.8399 30.7407 30.414V16.4312H25.8953ZM20.9999 29.9875C17.7053 29.9875 15.025 27.3071 15.025 24.0125C15.025 20.7179 17.7053 18.0375 20.9999 18.0375C24.2946 18.0375 26.975 20.7179 26.975 24.0125C26.975 27.3071 24.2946 29.9875 20.9999 29.9875Z" fill="white"/>
<path d="M25.8953 15.0247H30.3288L24.7156 9.41162V13.8451C24.7156 14.4955 25.2448 15.0247 25.8953 15.0247Z" fill="white"/>
</g>
<defs>
<clipPath id="clip0_115_5456">
<rect width="24" height="24" fill="white" transform="translate(9 9)"/>
</clipPath>
</defs>
</svg>
