<svg width="42" height="42" viewBox="0 0 42 42" fill="none" xmlns="http://www.w3.org/2000/svg">
<rect opacity="0.2" width="42" height="42" rx="5" fill="white"/>
<g clip-path="url(#clip0_115_5467)">
<path d="M25.2357 20.3438C21.7464 20.3438 18.9076 23.1825 18.9076 26.6719C18.9076 30.1612 21.7464 33 25.2357 33C28.725 33 31.5638 30.1612 31.5638 26.6719C31.5638 23.1825 28.725 20.3438 25.2357 20.3438ZM26.1732 26.8594C26.1732 27.2477 25.8584 27.5625 25.4701 27.5625H23.3437C22.9554 27.5625 22.6406 27.2477 22.6406 26.8594C22.6406 26.4711 22.9554 26.1562 23.3437 26.1562H24.767V24.7201C24.767 24.3318 25.0818 24.017 25.4701 24.017C25.8584 24.017 26.1732 24.3318 26.1732 24.7201V26.8594Z" fill="white"/>
<path d="M17.6194 28.0223C17.4876 28.0464 17.6645 28.0302 13.9641 28.035C13.5755 28.035 13.2609 27.72 13.2609 27.3319C13.2609 26.9437 13.5755 26.6287 13.9641 26.6287C17.7213 26.6287 17.4919 26.6284 17.5012 26.6292C17.5041 26.1502 17.55 25.6814 17.6367 25.2272H13.9664C13.5778 25.2272 13.2633 24.9122 13.2633 24.5241C13.2633 24.1359 13.5778 23.8209 13.9664 23.8209H18.0464C19.1939 20.9358 22.0111 18.9278 25.2608 18.9378V11.7884C25.2608 10.7189 25.6634 9.7417 26.3247 9H13.9233C11.9855 9 10.4086 10.5769 10.4086 12.5147V32.2842C10.4086 32.9167 11.1824 33.2275 11.6198 32.7703L12.5194 31.8309L13.4695 32.7816C13.7437 33.0558 14.1891 33.0558 14.4637 32.7816L15.3642 31.8816L16.2736 32.7834C16.5478 33.0553 16.9898 33.0553 17.2641 32.7834L18.188 31.8675L19.1123 32.7834C19.3861 33.0553 19.8276 33.0553 20.1019 32.7839L20.2809 32.6067C18.9112 31.4611 17.9428 29.8519 17.6194 28.0223ZM16.2305 17.4806C16.4433 17.1558 16.8787 17.0648 17.2041 17.2772C17.5547 17.5069 18.1383 17.5913 18.4284 17.4544C18.6323 17.3588 18.7837 17.1595 18.8062 16.9589C18.8536 16.5389 18.2878 16.3297 17.9001 16.177C17.4136 15.9848 16.808 15.7453 16.4625 15.1223C15.9704 14.2327 16.4086 13.0391 17.4309 12.6544V12.5494C17.4309 12.1613 17.7459 11.8463 18.1341 11.8463C18.5226 11.8463 18.8372 12.1613 18.8372 12.5494V12.6075C19.1367 12.6914 19.4137 12.8348 19.6322 13.0364C19.9176 13.2998 19.9359 13.7447 19.6725 14.0302C19.4091 14.3156 18.9642 14.3334 18.6787 14.07C18.5184 13.9219 18.0614 13.8656 17.8476 14.0091C17.6972 14.1103 17.6236 14.3156 17.693 14.4408C17.8899 14.7972 18.7633 14.8731 19.4395 15.4003C20.7576 16.4276 20.2833 18.3004 18.8372 18.8034V18.9469C18.8372 19.335 18.5226 19.65 18.1341 19.65C17.7459 19.65 17.4309 19.335 17.4309 18.9469V18.8573C17.0564 18.7772 16.7072 18.6328 16.4339 18.4542C16.1091 18.2414 16.0181 17.8059 16.2305 17.4806ZM13.9687 21.0037H17.4844C17.8725 21.0037 18.1875 21.3187 18.1875 21.7069C18.1875 22.095 17.8725 22.41 17.4844 22.41H13.9687C13.5801 22.41 13.2656 22.095 13.2656 21.7069C13.2656 21.3187 13.5801 21.0037 13.9687 21.0037Z" fill="white"/>
<path d="M29.1059 9C27.7331 9 26.6203 10.1128 26.6203 11.4855V18.9019H30.8883C31.2766 18.9019 31.5914 18.5871 31.5914 18.1988V11.4855C31.5914 10.1128 30.4786 9 29.1059 9V9Z" fill="white"/>
</g>
<defs>
<clipPath id="clip0_115_5467">
<rect width="24" height="24" fill="white" transform="translate(9 9)"/>
</clipPath>
</defs>
</svg>
