<svg width="24" height="24" viewBox="0 0 24 24" fill="none" xmlns="http://www.w3.org/2000/svg">
<g clip-path="url(#clip0)">
<path d="M12.0001 10.1074C9.52621 10.1074 7.51361 12.1201 7.51361 14.5939C7.51361 17.0677 9.52621 19.0803 12.0001 19.0803C14.4739 19.0803 16.4865 17.0677 16.4865 14.5939C16.4865 12.1201 14.4739 10.1074 12.0001 10.1074ZM11.2754 17.1189L8.84647 14.7174L9.83522 13.7174L11.3126 15.1782L14.1844 12.5488L15.1341 13.586L11.2754 17.1189Z" fill="#848484"/>
<path d="M17.1134 1.97594H14.2183L14.0596 1.49186C13.7671 0.599537 12.9394 0 12.0001 0C11.0607 0 10.2331 0.599537 9.94051 1.49186L9.78184 1.97594H6.88672V4.31648H17.1134V1.97594Z" fill="#848484"/>
<path d="M18.5197 3.11719V5.72295H5.4804V3.11719H2.81244V24.0002H21.1876V3.11719H18.5197ZM12 20.4866C8.75076 20.4866 6.10731 17.8431 6.10731 14.5938C6.10731 11.3446 8.75076 8.70113 12 8.70113C15.2493 8.70113 17.8927 11.3446 17.8927 14.5938C17.8927 17.8431 15.2492 20.4866 12 20.4866Z" fill="#848484"/>
</g>
<defs>
<clipPath id="clip0">
<rect width="24" height="24" fill="white"/>
</clipPath>
</defs>
</svg>
