<svg width="32" height="32" viewBox="0 0 32 32" fill="none" xmlns="http://www.w3.org/2000/svg">
<path d="M5.34602 5.33329C5.34602 3.86663 6.53268 2.66663 7.99935 2.66663H18.666L26.666 10.6666V26.6666C26.666 28.1333 25.466 29.3333 23.9993 29.3333H7.98602C6.51935 29.3333 5.33268 28.1333 5.33268 26.6666L5.34602 5.33329ZM19.9993 25.3333H22.666V22.6666H19.9993V25.3333ZM9.33268 25.3333H11.9993V22.6666H9.33268V25.3333ZM19.9993 20H22.666V14.6666H19.9993V20ZM14.666 25.3333H17.3327V20H14.666V25.3333ZM14.666 17.3333H17.3327V14.6666H14.666V17.3333ZM9.33268 20H11.9993V14.6666H9.33268V20Z" fill="#8388FF"/>
<path d="M25.3352 6.625V1H26.5V6.625H25.3352ZM23 4.5V3.33523H28.625V4.5H23Z" fill="#8388FF"/>
</svg>
