<svg width="24" height="24" viewBox="0 0 24 24" fill="none" xmlns="http://www.w3.org/2000/svg">
<g clip-path="url(#clip0)">
<path d="M20.5355 12.812H18.6794C18.8686 13.33 18.972 13.889 18.972 14.4716V21.4864C18.972 21.7293 18.9297 21.9625 18.8528 22.1793H21.9213C23.0675 22.1793 24 21.2468 24 20.1006V16.2765C24.0001 14.3662 22.4459 12.812 20.5355 12.812Z" fill="#848484"/>
<path d="M5.02806 14.4716C5.02806 13.8889 5.13142 13.33 5.3206 12.812H3.46454C1.55419 12.812 0 14.3662 0 16.2765V20.1007C0 21.2469 0.932486 22.1794 2.07872 22.1794H5.14726C5.07034 21.9624 5.02806 21.7293 5.02806 21.4864V14.4716V14.4716Z" fill="#848484"/>
<path d="M14.1216 11.0068H9.87841C7.96807 11.0068 6.41388 12.561 6.41388 14.4714V21.4862C6.41388 21.8689 6.7241 22.1791 7.10679 22.1791H16.8933C17.2759 22.1791 17.5862 21.8689 17.5862 21.4862V14.4714C17.5862 12.561 16.032 11.0068 14.1216 11.0068Z" fill="#848484"/>
<path d="M12 1.8208C9.70259 1.8208 7.8335 3.6899 7.8335 5.98739C7.8335 7.54575 8.69361 8.90677 9.96382 9.62133C10.5663 9.96024 11.2609 10.1539 12 10.1539C12.7392 10.1539 13.4337 9.96024 14.0362 9.62133C15.3065 8.90677 16.1666 7.5457 16.1666 5.98739C16.1666 3.68994 14.2975 1.8208 12 1.8208Z" fill="#848484"/>
<path d="M4.68365 5.7041C2.96544 5.7041 1.56763 7.10192 1.56763 8.82012C1.56763 10.5383 2.96544 11.9361 4.68365 11.9361C5.11949 11.9361 5.53452 11.8459 5.91154 11.6836C6.56339 11.4029 7.10086 10.9062 7.43343 10.2839C7.66687 9.84716 7.79967 9.34892 7.79967 8.82012C7.79967 7.10196 6.40185 5.7041 4.68365 5.7041Z" fill="#848484"/>
<path d="M19.3164 5.7041C17.5982 5.7041 16.2004 7.10192 16.2004 8.82012C16.2004 9.34897 16.3332 9.8472 16.5666 10.2839C16.8992 10.9062 17.4367 11.403 18.0885 11.6836C18.4655 11.8459 18.8806 11.9361 19.3164 11.9361C21.0346 11.9361 22.4324 10.5383 22.4324 8.82012C22.4324 7.10192 21.0346 5.7041 19.3164 5.7041Z" fill="#848484"/>
</g>
<defs>
<clipPath id="clip0">
<rect width="24" height="24" fill="white"/>
</clipPath>
</defs>
</svg>
