<svg width="24" height="24" viewBox="0 0 24 24" fill="none" xmlns="http://www.w3.org/2000/svg">
<g clip-path="url(#clip0)">
<path d="M1.41174 0V3.30033C1.41174 6.10908 3.10238 8.61078 5.66666 9.67299C5.7956 11.3171 6.56092 12.8554 7.81104 13.9524C8.49706 14.5544 8.95146 15.3615 9.11184 16.2353H14.8881C15.0484 15.3615 15.5029 14.5544 16.1889 13.9524C17.439 12.8553 18.2044 11.3171 18.3333 9.67299C20.8976 8.61078 22.5882 6.10908 22.5882 3.30033V0C21.9556 0 1.826 0 1.41174 0V0ZM2.82351 3.30033V1.41176H5.64704V8.09788C3.92563 7.14386 2.82351 5.32245 2.82351 3.30033V3.30033ZM13.7713 8.0288L14.1895 10.4668L12 9.31577L9.81047 10.4668L10.2286 8.0288L8.4573 6.30217L10.9052 5.94645L12 3.72828L13.0948 5.94645L15.5427 6.30217L13.7713 8.0288ZM21.1764 3.30033C21.1764 5.32245 20.0743 7.14386 18.3529 8.09788V1.41176H21.1764V3.30033Z" fill="#848484"/>
<path d="M7.05878 17.647H16.9411V19.7646H7.05878V17.647Z" fill="#848484"/>
<path d="M18.3529 21.1763H5.64706V22.588H4.23529V23.9998H19.7647V22.588H18.3529V21.1763Z" fill="#848484"/>
<path d="M12.1573 7.23661L12 6.91797L11.8427 7.23661L11.4911 7.28771L11.7456 7.53571L11.6854 7.88593L12 7.72056L12.3145 7.88593L12.2544 7.53571L12.5089 7.28771L12.1573 7.23661Z" fill="#848484"/>
</g>
<defs>
<clipPath id="clip0">
<rect width="24" height="24" fill="white"/>
</clipPath>
</defs>
</svg>
