<svg width="28" height="27" viewBox="0 0 28 27" fill="none" xmlns="http://www.w3.org/2000/svg">
<g clip-path="url(#clip0_4475_544)">
<path d="M5.79688 26.59H22.2031C23.5601 26.59 24.6641 25.5417 24.6641 24.253V7.79004H18.9219C17.5649 7.79004 16.4609 6.74171 16.4609 5.45303V0H5.79688C4.43986 0 3.33594 1.04833 3.33594 2.33701V24.253C3.33594 25.5417 4.43986 26.59 5.79688 26.59ZM9.07812 10.958H18.9219C19.3753 10.958 19.7422 11.3064 19.7422 11.737C19.7422 12.1676 19.3753 12.516 18.9219 12.516H9.07812C8.62471 12.516 8.25781 12.1676 8.25781 11.737C8.25781 11.3064 8.62471 10.958 9.07812 10.958ZM9.07812 14.074H18.9219C19.3753 14.074 19.7422 14.4224 19.7422 14.853C19.7422 15.2836 19.3753 15.632 18.9219 15.632H9.07812C8.62471 15.632 8.25781 15.2836 8.25781 14.853C8.25781 14.4224 8.62471 14.074 9.07812 14.074ZM9.07812 17.19H18.9219C19.3753 17.19 19.7422 17.5384 19.7422 17.969C19.7422 18.3996 19.3753 18.748 18.9219 18.748H9.07812C8.62471 18.748 8.25781 18.3996 8.25781 17.969C8.25781 17.5384 8.62471 17.19 9.07812 17.19ZM9.07812 20.306H15.6406C16.094 20.306 16.4609 20.6545 16.4609 21.085C16.4609 21.5156 16.094 21.864 15.6406 21.864H9.07812C8.62471 21.864 8.25781 21.5156 8.25781 21.085C8.25781 20.6545 8.62471 20.306 9.07812 20.306Z" fill="#8388FF"/>
<path d="M18.9219 6.23201H24.1834L18.1016 0.456421V5.453C18.1016 5.88281 18.4693 6.23201 18.9219 6.23201Z" fill="#8388FF"/>
</g>
<defs>
<clipPath id="clip0_4475_544">
<rect width="28" height="26.59" fill="white"/>
</clipPath>
</defs>
</svg>
