<svg width="21" height="25" viewBox="0 0 21 25" fill="none" xmlns="http://www.w3.org/2000/svg">
<path d="M18.7222 0.880952H8.98059L8.95181 0.805807C8.76475 0.320564 8.29789 0 7.77748 0H2.01132C0.918524 0 0 0.867361 0 1.96016V23.039C0 24.1302 0.917725 25 2.01132 25H17.0091C17.2449 25 17.4647 24.8833 17.5975 24.6906C17.7302 24.4972 17.7597 24.2502 17.6774 24.0319H18.723C19.7343 24.0319 20.5105 23.2157 20.5105 22.2053V2.714C20.5097 1.70355 19.7327 0.880952 18.7222 0.880952ZM18.4864 21.9199H16.8956L16.0042 19.564C16.4911 19.4753 16.858 19.0612 16.858 18.5487C16.858 17.9708 16.3911 17.5183 15.8116 17.5183H15.2288L14.4997 15.5821H15.989C16.567 15.5821 17.0339 15.1025 17.0339 14.5253C17.0339 13.9481 16.567 13.4701 15.989 13.4701H13.7187L12.9896 11.5331H15.989C16.567 11.5331 17.0339 11.0974 17.0339 10.5211C17.0339 9.94308 16.567 9.5074 15.989 9.5074H12.2086L11.4796 7.57203H15.989C16.567 7.57203 17.0339 7.09238 17.0339 6.5152C17.0339 5.93883 16.567 5.45998 15.989 5.45998H10.6993L9.76082 2.9946H18.4856V21.9199H18.4864Z" fill="#8388FF"/>
</svg>
