<svg width="25" height="25" viewBox="0 0 25 25" fill="none" xmlns="http://www.w3.org/2000/svg">
<g clip-path="url(#clip0_4475_563)">
<path d="M12.4993 10.8792C9.87515 10.8792 7.74023 13.0141 7.74023 15.6383C7.74023 18.2624 9.87515 20.3974 12.4993 20.3974C15.1235 20.3974 17.2584 18.2624 17.2584 15.6383C17.2584 13.0141 15.1235 10.8792 12.4993 10.8792ZM14.6814 16.7845C14.9674 17.0705 14.9674 17.5343 14.6814 17.8203C14.5384 17.9633 14.3509 18.0348 14.1635 18.0348C13.9761 18.0348 13.7886 17.9633 13.6456 17.8203L12.4993 16.674L11.353 17.8203C11.21 17.9633 11.0225 18.0348 10.8351 18.0348C10.6476 18.0348 10.4602 17.9633 10.3172 17.8203C10.0312 17.5343 10.0312 17.0705 10.3172 16.7845L11.4635 15.6382L10.3172 14.4919C10.0312 14.206 10.0312 13.7422 10.3172 13.4561C10.6032 13.1702 11.067 13.1702 11.353 13.4561L12.4993 14.6024L13.6456 13.4561C13.9316 13.1701 14.3954 13.1701 14.6814 13.4561C14.9674 13.7421 14.9674 14.2059 14.6814 14.4919L13.5351 15.6382L14.6814 16.7845Z" fill="#8388FF"/>
<path d="M17.5993 7.74087C16.114 7.74087 14.9056 6.53252 14.9056 5.04722V0H5.04722C3.56191 0 2.35352 1.2084 2.35352 2.6937V22.3063C2.35352 23.7916 3.56191 25 5.04722 25H19.9528C21.4381 25 22.6466 23.7916 22.6466 22.3063V7.74087H17.5993ZM12.5 21.862C9.06811 21.862 6.27607 19.0699 6.27607 15.638C6.27607 12.2061 9.06811 9.41406 12.5 9.41406C15.9319 9.41406 18.724 12.2062 18.724 15.638C18.724 19.0699 15.9319 21.862 12.5 21.862Z" fill="#8388FF"/>
<path d="M17.6 6.27593H22.2182L16.3711 0.428955V5.04712C16.3711 5.72471 16.9224 6.27593 17.6 6.27593Z" fill="#8388FF"/>
</g>
<defs>
<clipPath id="clip0_4475_563">
<rect width="25" height="25" fill="white"/>
</clipPath>
</defs>
</svg>
