<svg width="23" height="25" viewBox="0 0 23 25" fill="none" xmlns="http://www.w3.org/2000/svg">
<path d="M15.9121 11.8164C12.2774 11.8164 9.32031 14.7735 9.32031 18.4082C9.32031 22.0429 12.2774 25 15.9121 25C19.5468 25 22.5039 22.0429 22.5039 18.4082C22.5039 14.7735 19.5468 11.8164 15.9121 11.8164ZM16.8887 18.6035C16.8887 19.008 16.5607 19.3359 16.1562 19.3359H13.9413C13.5368 19.3359 13.2089 19.008 13.2089 18.6035C13.2089 18.199 13.5368 17.8711 13.9413 17.8711H15.4238V16.3751C15.4238 15.9706 15.7518 15.6427 16.1562 15.6427C16.5607 15.6427 16.8887 15.9706 16.8887 16.3751V18.6035Z" fill="#8388FF"/>
<path d="M7.97802 19.8149C7.84081 19.84 8.02504 19.8231 4.17041 19.8281C3.76562 19.8281 3.43799 19.5 3.43799 19.0957C3.43799 18.6914 3.76562 18.3633 4.17041 18.3633C8.08422 18.3633 7.84526 18.3629 7.85497 18.3638C7.8579 17.8647 7.90575 17.3765 7.99609 16.9033H4.17285C3.76806 16.9033 3.44043 16.5752 3.44043 16.1709C3.44043 15.7666 3.76806 15.4385 4.17285 15.4385H8.42284C9.6182 12.4331 12.5527 10.3415 15.9379 10.3519V2.90459C15.9379 1.79048 16.3573 0.772608 17.0461 0H4.12793C2.10937 0 0.466797 1.64258 0.466797 3.66113V24.2544C0.466797 24.9133 1.2728 25.237 1.72851 24.7607L2.66553 23.7822L3.65527 24.7725C3.94091 25.0581 4.40478 25.0581 4.69091 24.7725L5.6289 23.835L6.57617 24.7744C6.86181 25.0576 7.32226 25.0576 7.6079 24.7744L8.5703 23.8203L9.53319 24.7744C9.81835 25.0576 10.2783 25.0576 10.564 24.7749L10.7505 24.5903C9.32372 23.397 8.31493 21.7207 7.97802 19.8149ZM6.53124 8.83399C6.75292 8.49561 7.20654 8.40088 7.5454 8.62207C7.91064 8.86133 8.51855 8.94922 8.82079 8.80664C9.03319 8.70703 9.19091 8.49951 9.21435 8.29053C9.26366 7.85298 8.67426 7.63511 8.2705 7.47608C7.76366 7.27588 7.1328 7.02637 6.77294 6.37744C6.2603 5.45068 6.71684 4.20742 7.78173 3.80664V3.69727C7.78173 3.29297 8.10986 2.96484 8.51415 2.96484C8.91894 2.96484 9.24657 3.29297 9.24657 3.69727V3.75781C9.55858 3.84522 9.84716 3.99463 10.0747 4.20459C10.3721 4.479 10.3911 4.94238 10.1167 5.23975C9.84227 5.53711 9.3789 5.55567 9.08153 5.28125C8.91454 5.12695 8.43847 5.06836 8.21581 5.21777C8.05907 5.32324 7.98241 5.53711 8.05468 5.66748C8.25981 6.03872 9.16962 6.11782 9.87401 6.66699C11.247 7.73706 10.7529 9.68794 9.24657 10.2119V10.3613C9.24657 10.7656 8.91894 11.0938 8.51415 11.0938C8.10986 11.0938 7.78173 10.7656 7.78173 10.3613V10.2681C7.39159 10.1846 7.02782 10.0342 6.74316 9.84815C6.40478 9.62647 6.31005 9.17285 6.53124 8.83399ZM4.17529 12.5039H7.83739C8.24169 12.5039 8.56982 12.832 8.56982 13.2363C8.56982 13.6406 8.24169 13.9688 7.83739 13.9688H4.17529C3.7705 13.9688 3.44287 13.6406 3.44287 13.2363C3.44287 12.832 3.7705 12.5039 4.17529 12.5039Z" fill="#8388FF"/>
<path d="M19.9426 0C18.5127 0 17.3535 1.15918 17.3535 2.58911V10.3145H21.7993C22.2038 10.3145 22.5318 9.98652 22.5318 9.58203V2.58911C22.5318 1.15918 21.3726 0 19.9426 0V0Z" fill="#8388FF"/>
</svg>
