<svg width="23" height="25" viewBox="0 0 23 25" fill="none" xmlns="http://www.w3.org/2000/svg">
<path d="M0.462891 0V3.43784C0.462891 6.36363 2.21455 8.96956 4.8714 10.076C5.00499 11.7886 5.79793 13.391 7.09318 14.5338C7.80396 15.1609 8.27477 16.0015 8.44093 16.9118H14.4257C14.5918 16.0015 15.0627 15.1609 15.7734 14.5338C17.0687 13.391 17.8617 11.7886 17.9953 10.076C20.6521 8.96956 22.4038 6.36363 22.4038 3.43784V0C21.7484 0 0.892103 0 0.462891 0V0ZM1.92562 3.43784V1.47059H4.85106V8.4353C3.06752 7.44152 1.92562 5.54422 1.92562 3.43784ZM13.2686 8.36334L13.7019 10.9029L11.4333 9.70393L9.16479 10.9029L9.59804 8.36334L7.76276 6.56476L10.299 6.19422L11.4333 3.88363L12.5676 6.19422L15.1039 6.56476L13.2686 8.36334ZM20.941 3.43784C20.941 5.54422 19.7991 7.44152 18.0156 8.4353V1.47059H20.941V3.43784Z" fill="#8388FF"/>
<path d="M6.31445 18.3823H16.5535V20.5882H6.31445V18.3823Z" fill="#8388FF"/>
<path d="M18.0159 22.0588H4.8514V23.5294H3.38867V25H19.4786V23.5294H18.0159V22.0588Z" fill="#8388FF"/>
<path d="M11.5965 7.53833L11.4335 7.20642L11.2706 7.53833L10.9062 7.59157L11.1699 7.84991L11.1076 8.21471L11.4335 8.04246L11.7594 8.21471L11.6971 7.84991L11.9608 7.59157L11.5965 7.53833Z" fill="#8388FF"/>
</svg>
